<?xml version="1.0" encoding="UTF-8" standalone="no"?>
<svg
   xmlns:dc="http://purl.org/dc/elements/1.1/"
   xmlns:cc="http://creativecommons.org/ns#"
   xmlns:rdf="http://www.w3.org/1999/02/22-rdf-syntax-ns#"
   xmlns:svg="http://www.w3.org/2000/svg"
   xmlns="http://www.w3.org/2000/svg"
   xmlns:sodipodi="http://sodipodi.sourceforge.net/DTD/sodipodi-0.dtd"
   xmlns:inkscape="http://www.inkscape.org/namespaces/inkscape"
   fill="#FF5722"
   width="48"
   height="48"
   viewBox="0 0 48 48"
   id="svg2"
   version="1.1"
   inkscape:version="0.91 r13725"
   sodipodi:docname="printer-error.svg">
  <metadata
     id="metadata10">
    <rdf:RDF>
      <cc:Work
         rdf:about="">
        <dc:format>image/svg+xml</dc:format>
        <dc:type
           rdf:resource="http://purl.org/dc/dcmitype/StillImage" />
        <dc:title></dc:title>
      </cc:Work>
    </rdf:RDF>
  </metadata>
  <defs
     id="defs8">
    <clipPath
       clipPathUnits="userSpaceOnUse"
       id="clipPath3388">
      <rect
         ry="0"
         y="38.093285"
         x="72.367546"
         height="8.0071707"
         width="8.8242292"
         id="rect3390"
         style="opacity:1;fill:#ffffff;fill-opacity:1;fill-rule:evenodd;stroke:#000000;stroke-width:2.00860143;stroke-miterlimit:4;stroke-dasharray:none;stroke-opacity:1" />
    </clipPath>
  </defs>
  <sodipodi:namedview
     pagecolor="#ffffff"
     bordercolor="#666666"
     borderopacity="1"
     objecttolerance="10"
     gridtolerance="10"
     guidetolerance="10"
     inkscape:pageopacity="0"
     inkscape:pageshadow="2"
     inkscape:window-width="1366"
     inkscape:window-height="713"
     id="namedview6"
     showgrid="false"
     inkscape:zoom="2.4583333"
     inkscape:cx="9.6369566"
     inkscape:cy="2.6348227"
     inkscape:window-x="0"
     inkscape:window-y="30"
     inkscape:window-maximized="1"
     inkscape:current-layer="svg2" />
  <path
     d="M38 16H10c-3.31 0-6 2.69-6 6v12h8v8h24v-8h8V22c0-3.31-2.69-6-6-6zm-6 22H16V28h16v10zm6-14c-1.11 0-2-.89-2-2s.89-2 2-2c1.11 0 2 .89 2 2s-.89 2-2 2zM36 6H12v8h24V6z"
     id="path4" />
  <g
     style="fill:#FF5722"
     id="g3348"
     transform="matrix(0.5,0,0,0.5,89.084746,45.966102)">
    <path
       id="path3340"
       d="M 29.17,16 24,21.17 18.83,16 16,18.83 21.17,24 16,29.17 18.83,32 24,26.83 29.17,32 32,29.17 26.83,24 32,18.83 29.17,16 Z M 24,4 C 12.95,4 4,12.95 4,24 4,35.05 12.95,44 24,44 35.05,44 44,35.05 44,24 44,12.95 35.05,4 24,4 Z m 0,36 C 15.18,40 8,32.82 8,24 8,15.18 15.18,8 24,8 c 8.82,0 16,7.18 16,16 0,8.82 -7.18,16 -16,16 z"
       inkscape:connector-curvature="0" />
  </g>
  <g
     style="fill:#FF5722"
     id="g3361"
     transform="translate(-62.644068,28.474576)">
    <path
       id="path3353"
       d="M 38,12.83 35.17,10 24,21.17 12.83,10 10,12.83 21.17,24 10,35.17 12.83,38 24,26.83 35.17,38 38,35.17 26.83,24 Z"
       inkscape:connector-curvature="0" />
  </g>
  <path
     style="fill:#FF5722"
     inkscape:connector-curvature="0"
     d="m 79.059576,37.898305 -2.585,2.585 -2.585,-2.585 -1.415,1.415 2.585,2.585 -2.585,2.585 1.415,1.415 2.585,-2.585 2.585,2.585 1.415,-1.415 -2.585,-2.585 2.585,-2.585 -1.415,-1.415 z m -2.585,-6 c -5.525,0 -10,4.475 -10,10 0,5.525 4.475,10 10,10 5.525,0 10,-4.475 10,-10 0,-5.525 -4.475,-10 -10,-10 z m 0,18 c -4.41,0 -8,-3.59 -8,-8 0,-4.41 3.59,-8 8,-8 4.41,0 8,3.59 8,8 0,4.41 -3.59,8 -8,8 z"
     id="path3340-4"
     clip-path="url(#clipPath3388)"
     transform="matrix(1.2765882,0,0,1.2765882,-55.25873,-13.563566)" />
  <g
     id="g3385" />
</svg>
