<?xml version="1.0" encoding="UTF-8" standalone="no"?>
<!-- Created with Inkscape (http://www.inkscape.org/) -->

<svg
   xmlns:dc="http://purl.org/dc/elements/1.1/"
   xmlns:cc="http://creativecommons.org/ns#"
   xmlns:rdf="http://www.w3.org/1999/02/22-rdf-syntax-ns#"
   xmlns:svg="http://www.w3.org/2000/svg"
   xmlns="http://www.w3.org/2000/svg"
   xmlns:sodipodi="http://sodipodi.sourceforge.net/DTD/sodipodi-0.dtd"
   xmlns:inkscape="http://www.inkscape.org/namespaces/inkscape"
   width="48"
   height="48"
   id="svg2"
   version="1.1"
   inkscape:version="0.91 r13725"
   sodipodi:docname="progress-50-symbolic.svg">
  <defs
     id="defs4" />
  <sodipodi:namedview
     id="base"
     pagecolor="#ffffff"
     bordercolor="#666666"
     borderopacity="1.0"
     inkscape:pageopacity="0.0"
     inkscape:pageshadow="2"
     inkscape:zoom="4.090240647237331"
     inkscape:cx="47.41447298551761"
     inkscape:cy="-12.20202193574814"
     inkscape:document-units="px"
     inkscape:current-layer="layer1"
     showgrid="false"
     inkscape:window-width="1366"
     inkscape:window-height="713"
     inkscape:window-x="0"
     inkscape:window-y="30"
     inkscape:window-maximized="1" />
  <metadata
     id="metadata7">
    <rdf:RDF>
      <cc:Work
         rdf:about="">
        <dc:format>image/svg+xml</dc:format>
        <dc:type
           rdf:resource="http://purl.org/dc/dcmitype/StillImage" />
        <dc:title />
      </cc:Work>
    </rdf:RDF>
  </metadata>
  <g
     inkscape:label="Layer 1"
     inkscape:groupmode="layer"
     id="layer1"
     transform="translate(0,-1004.3622)"
     style="opacity:1">
    <path
       style="fill:#FF5722;fill-opacity:1;stroke:none"
       d="M 24.375 3.875 C 24.3828 4.2368 24.3774 4.5559 24.375 7.25 L 24.375 11.4375 C 31.14263 11.6419 36.5625 17.1828 36.5625 24 C 36.5625 30.9467 30.946706 36.5625 24 36.5625 L 23.8125 36.5625 C 23.84136 36.6045 23.87504 36.9531 23.875 40.625 C 23.875044 42.5297 23.84612 43.6542 23.84375 44.125 C 23.89864 44.1254 23.94501 44.125 24 44.125 C 35.11473 44.125 44.125 35.1147 44.125 24 C 44.125 13.0131 35.313083 4.079 24.375 3.875 z "
       transform="translate(0,1004.3622)"
       id="path2993" />
    <path
       style="fill:none;stroke:#000000;stroke-width:1px;stroke-linecap:butt;stroke-linejoin:miter;stroke-opacity:1"
       d="m -63.134534,996.41356 0,-11.0888"
       id="path3791-6"
       inkscape:connector-curvature="0" />
  </g>
</svg>
