<?xml version="1.0" encoding="UTF-8" standalone="no"?>
<svg
   xmlns:dc="http://purl.org/dc/elements/1.1/"
   xmlns:cc="http://creativecommons.org/ns#"
   xmlns:rdf="http://www.w3.org/1999/02/22-rdf-syntax-ns#"
   xmlns:svg="http://www.w3.org/2000/svg"
   xmlns="http://www.w3.org/2000/svg"
   xmlns:sodipodi="http://sodipodi.sourceforge.net/DTD/sodipodi-0.dtd"
   xmlns:inkscape="http://www.inkscape.org/namespaces/inkscape"
   width="38.000004"
   height="41.999996"
   viewBox="0 0 38.000004 41.999996"
   id="svg2"
   version="1.1"
   inkscape:version="0.91 r13725"
   sodipodi:docname="text-x-perl.svg"
   style="fill:#2196F3">
  <metadata
     id="metadata10">
    <rdf:RDF>
      <cc:Work
         rdf:about="">
        <dc:format>image/svg+xml</dc:format>
        <dc:type
           rdf:resource="http://purl.org/dc/dcmitype/StillImage" />
        <dc:title></dc:title>
      </cc:Work>
    </rdf:RDF>
  </metadata>
  <defs
     id="defs8" />
  <sodipodi:namedview
     pagecolor="#ffffff"
     bordercolor="#666666"
     borderopacity="1"
     objecttolerance="10"
     gridtolerance="10"
     guidetolerance="10"
     inkscape:pageopacity="0"
     inkscape:pageshadow="2"
     inkscape:window-width="1366"
     inkscape:window-height="713"
     id="namedview6"
     showgrid="false"
     inkscape:snap-bbox="true"
     inkscape:bbox-paths="true"
     inkscape:bbox-nodes="true"
     inkscape:zoom="4.2948305"
     inkscape:cx="-15.04929"
     inkscape:cy="28.555508"
     inkscape:window-x="0"
     inkscape:window-y="30"
     inkscape:window-maximized="1"
     inkscape:current-layer="svg2"
     inkscape:snap-text-baseline="true"
     inkscape:snap-page="true"
     inkscape:snap-bbox-edge-midpoints="true"
     inkscape:snap-bbox-midpoints="true"
     fit-margin-top="0"
     fit-margin-left="0"
     fit-margin-right="0"
     fit-margin-bottom="0" />
  <g
     transform="matrix(0.62125497,0,0,0.62125425,-2.5496135,-609.23449)"
     id="layer1"
     inkscape:label="Layer 1">
    <path
       inkscape:connector-curvature="0"
       id="path15769-6"
       d="m 23.30318,1008.4763 c -0.376556,0.015 -0.06757,0.027 0.685547,0.027 0.753107,0 1.06015,-0.012 0.683593,-0.027 -0.376556,-0.015 -0.992583,-0.015 -1.36914,0 z m 0.68164,0.1797 c -1.076857,4e-4 -2.151964,0.054 -2.814453,0.1582 -4.311242,0.6782 -8.117026,2.616 -11.140625,5.6719 -1.6397313,1.6572 -2.6759363,3.1002 -3.7089843,5.1738 -1.408312,2.8269 -2.035772,5.5129 -2.035156,8.711 6.08e-4,3.1601 0.597702,5.7384 1.986328,8.5898 0.998588,2.0505 2.10686,3.598 3.7753903,5.2734 3.362551,3.3764 7.703035,5.4123 12.363282,5.7988 2.186389,0.1814 4.203642,0 6.507812,-0.58 5.480758,-1.3851 10.256555,-5.2998 12.794922,-10.4883 2.067921,-4.2269 2.548794,-8.8128 1.408203,-13.4082 -1.902058,-7.6634 -8.375658,-13.5158 -16.310547,-14.7441 -0.670277,-0.1038 -1.749314,-0.1567 -2.826172,-0.1563 z m -0.708984,1.8281 c 0.04037,0 0.08646,0.032 0.134766,0.09 0.220677,0.2659 -0.04215,5.2598 -0.421875,8.0293 -0.46111,3.3632 -1.05588,5.3188 -2.47461,8.1289 -0.827657,1.6394 -1.128011,2.5018 -1.263671,3.6309 -0.29046,2.4176 0.340018,4.6163 2.265624,7.8965 0.38477,0.6554 0.782296,1.3344 0.882813,1.5098 0.243861,0.4253 0.511719,1.2331 0.511719,1.5449 0,0.2302 -0.0242,0.2519 -0.279297,0.2519 -0.924839,0 -2.924179,-1.7425 -4.246094,-3.7011 -1.388652,-2.0576 -2.046264,-4.1114 -2.058594,-6.4239 -0.01243,-2.332 0.420065,-3.5048 2.429688,-6.5918 1.702651,-2.6154 2.458927,-4.1239 3.113281,-6.207 0.668648,-2.1286 1.201578,-5.4463 1.205078,-7.5019 7.11e-4,-0.4215 0.08005,-0.661 0.201172,-0.6563 z m -1.234375,1.2168 c 0.031,-0.019 0.06487,-0.011 0.09961,0.023 0.03499,0.035 0.05984,0.4625 0.05664,0.9493 -0.01083,1.6284 -0.569957,3.7843 -1.474609,5.6875 -0.825488,1.7366 -1.63273,2.9831 -3.81836,5.8945 -1.756499,2.3398 -2.486031,3.4187 -2.998046,4.4238 -1.24871,2.4515 -1.249082,4.3599 0,6.9531 1.190478,2.4716 3.942792,5.3319 6.246093,6.4902 0.53446,0.2688 0.763084,0.4279 0.746094,0.5176 -0.07861,0.4152 -2.763137,-0.2243 -4.419922,-1.0527 -4.216044,-2.1081 -6.368382,-5.4732 -6.382812,-9.9805 -0.006,-1.8819 0.261666,-3.1208 0.988281,-4.5644 0.809031,-1.6074 2.013351,-2.955 4.896484,-5.4883 1.756747,-1.5436 3.068095,-2.8487 3.716797,-3.6973 1.211354,-1.5844 1.928836,-3.371 2.123047,-5.2871 0.05263,-0.5192 0.127697,-0.8133 0.220703,-0.8691 z m 2.5625,1.5645 c 0.119417,0.017 0.21656,0.2787 0.322266,0.8379 0.288509,1.5261 0.933346,3.0981 1.65039,4.0234 0.414048,0.5343 1.067681,1.0325 3.59375,2.7344 1.00415,0.6765 2.274548,1.5676 2.822266,1.9805 1.141213,0.8602 3.2246,2.8984 3.802734,3.7207 1.160169,1.6501 1.642385,3.0818 1.646485,4.8867 0.0064,2.8156 -1.116868,5.2514 -3.53711,7.6719 -1.898703,1.8988 -3.998575,3.1591 -5.953125,3.5702 -0.316344,0.067 -0.771215,0.1211 -1.009765,0.1211 -0.405236,0 -0.457064,-0.026 -0.802735,-0.3789 -0.665107,-0.6788 -1.157439,-0.9108 -2.941406,-1.3847 l -0.414062,-0.1094 -0.306641,-0.7851 c -0.676123,-1.7351 -1.206088,-3.8589 -1.392578,-5.5762 -0.125748,-1.1579 -0.10728,-3.4179 0.03906,-4.6719 0.163211,-1.3985 0.272625,-2.0209 0.914063,-5.2734 0.894654,-4.5365 1.148983,-6.4239 1.279297,-9.4473 0.04209,-0.9765 0.115006,-1.8122 0.160156,-1.8574 0.04614,-0.046 0.08715,-0.068 0.126953,-0.062 z m 1.080078,6.4746 c -0.02283,0 -0.0052,0.068 0.03906,0.1504 0.221754,0.4144 0.868721,1.1522 2.464844,2.8066 2.634726,2.731 3.032363,3.2049 3.908203,4.6621 0.557113,0.927 0.932883,1.8156 1.210937,2.8711 0.146655,0.5568 0.176035,0.9142 0.177734,2.084 0.0019,1.2747 -0.01996,1.4952 -0.226562,2.293 -0.402741,1.5552 -0.932837,2.6712 -2.179688,4.5937 l -0.160156,0.25 0.373047,-0.291 c 0.722955,-0.5635 2.26672,-2.1254 2.791016,-2.8222 1.417426,-1.8839 1.922606,-3.7555 1.488281,-5.5176 -0.197528,-0.8015 -0.923685,-2.2599 -1.570312,-3.1543 -0.618524,-0.8555 -2.408349,-2.7635 -3.746094,-3.9922 -0.996125,-0.915 -4.503343,-3.9336 -4.570313,-3.9336 z m 18.201172,7.9922 c -0.01559,-0.3558 -0.02921,-0.087 -0.0293,0.5976 -1.2e-4,0.6847 0.01163,0.9754 0.02734,0.6465 0.01575,-0.3288 0.01754,-0.8883 0.002,-1.2441 z m -39.7734373,0 c -0.0053,0.093 -0.0077,0.299 -0.0078,0.5957 -1.45e-4,0.5934 0.01314,0.8478 0.0293,0.5644 0.01616,-0.2833 0.01601,-0.7701 0,-1.08 -0.008,-0.155 -0.01616,-0.1735 -0.02148,-0.08 z m 20.1230463,14.5761 c 0.16939,0.01 0.340806,0.1864 0.523438,0.5371 0.230766,0.4431 0.227904,1.3109 -0.0059,1.9668 -0.0915,0.2568 -0.210372,0.6769 -0.263672,0.9336 -0.08561,0.4124 -0.12075,0.4668 -0.298828,0.4668 -0.153786,0 -0.201172,-0.045 -0.201172,-0.1875 0,-0.1028 -0.113071,-0.5795 -0.25,-1.0586 -0.318483,-1.1142 -0.320919,-1.5825 -0.01563,-2.1679 0.174393,-0.3345 0.342329,-0.498 0.511718,-0.4903 z m -1.199218,0.1699 c 0.176848,0 0.207031,0.036 0.207031,0.2715 0,0.4177 -0.223966,1.2041 -0.513672,1.8028 -0.301938,0.6239 -1.238542,1.6171 -1.787109,1.8964 -0.58131,0.296 -0.744285,0.2186 -0.646485,-0.3027 0.08748,-0.4663 0.232736,-0.691 0.955079,-1.4707 0.653579,-0.7055 1.163617,-1.3872 1.441406,-1.9277 0.09984,-0.1943 0.195844,-0.2696 0.34375,-0.2696 z m 2.25,0.098 c 0.142033,-0.02 0.237854,0.085 0.484375,0.5254 0.351242,0.6281 0.851175,1.2724 1.541015,1.9903 0.537103,0.5589 0.713529,0.8626 0.792969,1.3593 l 0.05469,0.3418 -0.279297,0 c -0.327646,0 -0.939264,-0.3917 -1.458985,-0.9257 -0.706843,-0.7264 -1.252325,-1.9146 -1.291015,-2.8086 -0.01757,-0.4061 -0.0026,-0.4559 0.15625,-0.4786 z m -1.650391,5.6504 c -0.193984,0.018 -0.03445,0.031 0.353516,0.031 0.387967,0 0.547498,-0.014 0.353515,-0.031 -0.193984,-0.018 -0.513048,-0.018 -0.707031,0 z"
       style="fill:#40426c" />
  </g>
  <path
     style="fill:#40426c;fill-opacity:1"
     d="M 10.000004,0 C 7.7900042,0 6.0195355,1.79 6.0195354,4 l -0.00781,12.882812 c 1.3310068,-0.668449 2.7715378,-1.130221 4.3027336,-1.371093 0.478769,-0.0753 1.25693,-0.114946 2.035156,-0.115235 0.778225,-2.91e-4 1.556618,0.03825 2.041016,0.113282 3.309592,0.512315 6.263561,2.142485 8.4375,4.490234 l 7.171873,0 0,4 -4.558594,0 c 0.30088,0.695602 0.552523,1.417594 0.738282,2.166016 0.152034,0.612542 0.249803,1.223494 0.322265,1.833984 l 3.498047,0 0,4 -3.59375,0 C 26.18014,33.316282 25.770225,34.608474 25.16016,35.855469 24.392181,37.425242 23.329684,38.819499 22.076176,40 l 11.923828,0 c 2.21,0 4,-1.79 4,-4 l 0,-24 -12,-12 -16,0 z m 14,3 11,11 -11,0 0,-11 z"
     id="path4"
     inkscape:connector-curvature="0" />
</svg>
