<svg xmlns="http://www.w3.org/2000/svg" viewBox="0 0 14.316 16"><path d="m2.627 0c-1.276 0-2.301 1.019-2.301 2.285v11.43c0 1.267 1.026 2.285 2.301 2.285h9.715c1.276 0 2.301-1.019 2.301-2.285v-11.43c0-1.267-1.026-2.285-2.301-2.285h-9.715m-.658 2.02h11.03v2.969h-11.03v-2.969zm.188 3.969h1.625c.111 0 .188.077.188.188v1.625c0 .111-.077.188-.188.188h-1.625c-.111 0-.188-.077-.188-.188v-1.625c0-.111.077-.188.188-.188m3 0h1.625c.111 0 .188.077.188.188v1.625c0 .111-.077.188-.188.188h-1.625c-.111 0-.188-.077-.188-.188v-1.625c0-.111.077-.188.188-.188m3 0h1.625c.111 0 .188.077.188.188v1.625c0 .111-.077.188-.188.188h-1.625c-.111 0-.188-.077-.188-.188v-1.625c0-.111.077-.188.188-.188m3 0h1.625c.111 0 .188.077.188.188v1.625c0 .111-.077.188-.188.188h-1.625c-.111 0-.188-.077-.188-.188v-1.625c0-.111.077-.188.188-.188m-9 3h1.625c.111 0 .188.077.188.188v1.625c0 .111-.077.188-.188.188h-1.625c-.111 0-.188-.077-.188-.188v-1.625c0-.111.077-.188.188-.188m3 0h1.625c.111 0 .188.077.188.188v1.625c0 .111-.077.188-.188.188h-1.625c-.111 0-.188-.077-.188-.188v-1.625c0-.111.077-.188.188-.188m3 0h1.625c.111 0 .188.077.188.188v1.625c0 .111-.077.188-.188.188h-1.625c-.111 0-.188-.077-.188-.188v-1.625c0-.111.077-.188.188-.188m3 0h1.625c.111 0 .188.077.188.188v1.625c0 .111-.077.188-.188.188h-1.625c-.111 0-.188-.077-.188-.188v-1.625c0-.111.077-.188.188-.188m-9 3h1.625c.111 0 .188.077.188.188v1.625c0 .111-.077.188-.188.188h-1.625c-.111 0-.188-.077-.188-.188v-1.625c0-.111.077-.188.188-.188m3 0h1.625c.111 0 .188.077.188.188v1.625c0 .111-.077.188-.188.188h-1.625c-.111 0-.188-.077-.188-.188v-1.625c0-.111.077-.188.188-.188m3 0h1.625c.111 0 .188.077.188.188v1.625c0 .111-.077.188-.188.188h-1.625c-.111 0-.188-.077-.188-.188v-1.625c0-.111.077-.188.188-.188m3 0h1.625c.111 0 .188.077.188.188v1.625c0 .111-.077.188-.188.188h-1.625c-.111 0-.188-.077-.188-.188v-1.625c0-.111.077-.188.188-.188" transform="translate(-.326)" fill="#009688"/></svg>