<?xml version="1.0" encoding="UTF-8" standalone="no"?>
<svg
   xmlns:dc="http://purl.org/dc/elements/1.1/"
   xmlns:cc="http://creativecommons.org/ns#"
   xmlns:rdf="http://www.w3.org/1999/02/22-rdf-syntax-ns#"
   xmlns:svg="http://www.w3.org/2000/svg"
   xmlns="http://www.w3.org/2000/svg"
   xmlns:sodipodi="http://sodipodi.sourceforge.net/DTD/sodipodi-0.dtd"
   xmlns:inkscape="http://www.inkscape.org/namespaces/inkscape"
   fill="#CDDC39"
   width="48"
   height="48"
   viewBox="0 0 48 48"
   id="svg2"
   version="1.1"
   inkscape:version="0.91 r13725"
   sodipodi:docname="text-x-perl2.svg">
  <metadata
     id="metadata10">
    <rdf:RDF>
      <cc:Work
         rdf:about="">
        <dc:format>image/svg+xml</dc:format>
        <dc:type
           rdf:resource="http://purl.org/dc/dcmitype/StillImage" />
        <dc:title></dc:title>
      </cc:Work>
    </rdf:RDF>
  </metadata>
  <defs
     id="defs8" />
  <sodipodi:namedview
     pagecolor="#ffffff"
     bordercolor="#666666"
     borderopacity="1"
     objecttolerance="10"
     gridtolerance="10"
     guidetolerance="10"
     inkscape:pageopacity="0"
     inkscape:pageshadow="2"
     inkscape:window-width="1366"
     inkscape:window-height="713"
     id="namedview6"
     showgrid="false"
     inkscape:snap-bbox="true"
     inkscape:bbox-paths="true"
     inkscape:bbox-nodes="true"
     inkscape:zoom="12.147615"
     inkscape:cx="17.557953"
     inkscape:cy="18.40477"
     inkscape:window-x="0"
     inkscape:window-y="30"
     inkscape:window-maximized="1"
     inkscape:current-layer="svg2"
     inkscape:snap-text-baseline="true"
     inkscape:snap-page="true" />
  <path
     d="M 12 4 C 9.79 4 8.0195313 5.79 8.0195312 8 L 8.0058594 28.84375 C 8.6174065 28.032879 9.4854181 27.158522 10.955078 25.867188 C 12.279523 24.703439 13.26679 23.719854 13.755859 23.080078 C 14.669122 21.885569 15.211003 20.538334 15.357422 19.09375 C 15.397102 18.702315 15.453313 18.481522 15.523438 18.439453 C 15.546805 18.425123 15.571466 18.431391 15.597656 18.457031 C 15.624036 18.483421 15.643045 18.804867 15.640625 19.171875 C 15.632425 20.399557 15.211332 22.026077 14.529297 23.460938 C 13.906946 24.770194 13.298179 25.709337 11.650391 27.904297 C 10.326132 29.668318 9.776643 30.482469 9.390625 31.240234 C 8.4491984 33.088467 8.4489179 34.525406 9.390625 36.480469 C 10.288149 38.343856 12.363106 40.501735 14.099609 41.375 C 14.502549 41.577653 14.674918 41.697999 14.662109 41.765625 C 14.602839 42.078653 12.57916 41.59525 11.330078 40.970703 C 9.8961476 40.253711 8.797463 39.33306 8.0019531 38.238281 L 8 40 C 8 42.21 9.7704674 44 11.980469 44 L 14.357422 44 C 14.458019 43.826917 14.620591 43.63036 14.927734 43.298828 C 15.42048 42.766938 15.804241 42.253197 16.013672 41.845703 C 16.088942 41.699217 16.161926 41.642578 16.273438 41.642578 C 16.406766 41.642578 16.429688 41.670107 16.429688 41.847656 C 16.429688 42.162568 16.259431 42.75566 16.041016 43.207031 C 15.929783 43.436873 15.702894 43.732481 15.453125 44 L 16.916016 44 C 16.881588 43.844937 16.864948 43.737219 16.802734 43.519531 C 16.562624 42.679514 16.560849 42.326111 16.791016 41.884766 C 16.922495 41.63258 17.050028 41.509819 17.177734 41.515625 C 17.305441 41.523125 17.434576 41.655522 17.572266 41.919922 C 17.746245 42.253983 17.742627 42.907849 17.566406 43.402344 C 17.507766 43.566931 17.443859 43.808787 17.398438 44 L 18.666016 44 C 18.215114 43.450122 17.877646 42.682777 17.851562 42.080078 C 17.838313 41.773911 17.84895 41.735864 17.96875 41.71875 L 17.96875 41.716797 C 18.075831 41.701717 18.148127 41.781252 18.333984 42.113281 C 18.598792 42.586818 18.97601 43.072043 19.496094 43.613281 C 19.644018 43.767209 19.723553 43.880951 19.808594 44 L 36 44 C 38.21 44 40 42.21 40 40 L 40 16 L 28 4 L 12 4 z M 26 7 L 37 18 L 26 18 L 26 7 z M 16.453125 17.521484 C 16.483555 17.521484 16.518266 17.546114 16.554688 17.589844 C 16.721061 17.790312 16.52456 21.554598 16.238281 23.642578 C 16.220323 23.773557 16.196302 23.87445 16.177734 24 L 16.994141 24 C 17.120788 23.016806 17.192337 22.132354 17.238281 21.066406 C 17.270011 20.330204 17.32533 19.700093 17.359375 19.666016 C 17.394165 19.631336 17.425068 19.614611 17.455078 19.619141 C 17.545108 19.631961 17.619526 19.828408 17.699219 20.25 C 17.916732 21.400556 18.402766 22.585601 18.943359 23.283203 C 19.10118 23.48686 19.311455 23.689464 19.720703 24 L 32 24 L 32 28 L 25.103516 28 C 25.759638 28.624036 26.393749 29.283104 26.646484 29.642578 C 27.217757 30.455096 27.553284 31.203694 27.730469 32 L 32 32 L 32 36 L 27.373047 36 C 26.941759 37.072117 26.237929 38.093994 25.220703 39.111328 C 23.789234 40.54287 22.205995 41.492798 20.732422 41.802734 C 20.493924 41.853244 20.152504 41.894531 19.972656 41.894531 C 19.667141 41.894531 19.627795 41.875435 19.367188 41.609375 C 18.865751 41.097614 18.493404 40.921736 17.148438 40.564453 L 16.835938 40.482422 L 16.605469 39.890625 C 16.095727 38.582499 15.697239 36.982205 15.556641 35.6875 C 15.461841 34.814536 15.475606 33.109477 15.585938 32.164062 C 15.708982 31.109707 15.789846 30.641575 16.273438 28.189453 C 16.287714 28.117058 16.294745 28.070632 16.308594 28 L 16 28 L 16 25.068359 C 15.673473 26.791972 15.220379 28.089292 14.371094 29.771484 C 13.747108 31.007459 13.522199 31.658515 13.419922 32.509766 C 13.200939 34.332441 13.675201 35.989885 15.126953 38.462891 C 15.417039 38.95701 15.717187 39.469325 15.792969 39.601562 C 15.97682 39.922204 16.177734 40.530553 16.177734 40.765625 C 16.177734 40.939177 16.161078 40.955078 15.96875 40.955078 C 15.271496 40.955078 13.764195 39.640688 12.767578 38.164062 C 11.720646 36.612797 11.22414 35.065705 11.214844 33.322266 C 11.205444 31.564126 11.531781 30.678911 13.046875 28.351562 C 14.330536 26.379762 14.9012 25.242365 15.394531 23.671875 C 15.898637 22.067083 16.300095 19.567334 16.302734 18.017578 C 16.30327 17.699801 16.361807 17.51794 16.453125 17.521484 z "
     id="path4" />
  <path
     style="fill:#40426c"
     d="m 16.474654,16.008107 c -0.283893,0.01131 -0.05094,0.02036 0.516847,0.02036 0.567782,0 0.799268,-0.009 0.515374,-0.02036 -0.283893,-0.01131 -0.748328,-0.01131 -1.032221,0 z m 0.513901,0.135479 c -0.811863,3.01e-4 -1.622407,0.04071 -2.12187,0.11927 -3.250329,0.511308 -6.1195831,1.972253 -8.3991328,4.276155 -1.2362252,1.249395 -2.0174402,2.337301 -2.796275,3.900628 -1.0617537,2.131254 -1.5348079,4.156282 -1.5343435,6.567391 4.584e-4,2.382461 0.4506191,4.326291 1.4975311,6.476017 0.7528548,1.545911 1.5884025,2.712601 2.8463398,3.975718 2.5350922,2.545533 5.8074674,4.080437 9.3209174,4.371827 1.648361,0.136761 3.169207,0 4.906365,-0.437273 4.13205,-1.044254 7.732615,-3.995622 9.646339,-7.907332 1.559046,-3.186742 1.921586,-6.644141 1.061672,-10.108701 C 29.9821,21.5997 25.101527,17.187463 19.119261,16.261423 18.613926,16.183167 17.800419,16.143284 16.988555,16.143586 Z m -0.534516,1.37824 c 0.03043,0 0.06518,0.02412 0.101602,0.06785 0.166373,0.200468 -0.03178,3.965465 -0.318059,6.053445 -0.34764,2.535582 -0.796049,4.009946 -1.865657,6.128535 -0.623986,1.235975 -0.850429,1.886155 -0.952706,2.737406 -0.218983,1.822675 0.256346,3.480318 1.708098,5.953324 0.290086,0.494119 0.589788,1.00603 0.66557,1.138267 0.183851,0.320642 0.385795,0.929658 0.385795,1.16473 0,0.173552 -0.01824,0.189912 -0.210568,0.189912 -0.697254,0 -2.204595,-1.313704 -3.201212,-2.79033 -1.046932,-1.551265 -1.542718,-3.099664 -1.552014,-4.843103 -0.0094,-1.75814 0.316695,-2.642336 1.831789,-4.969685 1.283661,-1.971801 1.853832,-3.109088 2.347163,-4.679578 0.504106,-1.604792 0.905892,-4.106071 0.908531,-5.655827 5.36e-4,-0.317777 0.06035,-0.498341 0.151668,-0.494797 z m -0.93062,0.917369 c 0.02337,-0.01433 0.04891,-0.0083 0.0751,0.01734 0.02638,0.02639 0.04512,0.348688 0.0427,0.715696 -0.0082,1.227682 -0.429701,2.853057 -1.111736,4.287916 -0.622351,1.309256 -1.230947,2.249017 -2.878735,4.443977 -1.324259,1.764021 -1.8742672,2.577424 -2.2602852,3.335189 -0.9414266,1.848233 -0.9417071,3.287013 0,5.242076 0.8975242,1.863387 2.9725472,4.019823 4.7090502,4.893088 0.40294,0.202653 0.575304,0.322602 0.562495,0.390228 -0.05927,0.313028 -2.083183,-0.169104 -3.332265,-0.793651 -3.178557,-1.589337 -4.8012463,-4.126351 -4.8121253,-7.524492 -0.00452,-1.4188 0.197275,-2.352831 0.7450841,-3.441189 0.6099442,-1.21185 1.5179043,-2.227832 3.6915542,-4.137736 1.324445,-1.163749 2.313096,-2.14769 2.802165,-2.787466 0.913263,-1.194509 1.454187,-2.541462 1.600606,-3.986046 0.03968,-0.391435 0.09627,-0.613163 0.166392,-0.655232 z m 1.931919,1.179507 c 0.09003,0.01282 0.163269,0.210117 0.242962,0.631709 0.217513,1.150556 0.703668,2.335717 1.244261,3.033319 0.312159,0.402819 0.804946,0.778421 2.709398,2.061517 0.757048,0.510026 1.714826,1.181844 2.127761,1.493137 0.860382,0.648521 2.431088,2.18516 2.866955,2.805108 0.874673,1.244042 1.238225,2.323428 1.241316,3.684177 0.0048,2.122736 -0.842028,3.959132 -2.666695,5.783994 -1.431469,1.431542 -3.014603,2.381707 -4.488176,2.691643 -0.238498,0.05051 -0.581434,0.0913 -0.761282,0.0913 -0.305515,0 -0.344589,-0.0196 -0.605197,-0.28566 -0.501437,-0.511761 -0.872616,-0.68667 -2.217583,-1.043953 l -0.312169,-0.08248 -0.231183,-0.591902 c -0.509742,-1.308126 -0.909293,-2.9093 -1.049891,-4.204005 -0.0948,-0.872964 -0.08088,-2.576821 0.02945,-3.522236 0.123048,-1.054356 0.205537,-1.523596 0.689129,-3.975718 0.674497,-3.420156 0.866241,-4.843103 0.964487,-7.122503 0.03173,-0.736202 0.0867,-1.366252 0.120745,-1.400329 0.03479,-0.03468 0.0657,-0.05127 0.09571,-0.04674 z m 0.814291,4.881326 c -0.01721,0 -0.0039,0.05127 0.02945,0.113389 0.167184,0.312424 0.654945,0.868666 1.858293,2.11595 1.986371,2.058954 2.286157,2.416236 2.94647,3.514848 0.420018,0.698883 0.703318,1.368816 0.912949,2.164577 0.110566,0.419783 0.132716,0.689233 0.133997,1.571168 0.0014,0.961021 -0.01505,1.127261 -0.17081,1.728737 -0.303634,1.172496 -0.703283,2.01387 -1.643309,3.46328 l -0.120744,0.188479 0.281247,-0.21939 c 0.54505,-0.424834 1.708924,-1.60238 2.104201,-2.127711 1.068625,-1.420309 1.44949,-2.831344 1.122044,-4.159826 -0.14892,-0.604266 -0.696384,-1.703782 -1.183889,-2.378087 -0.466317,-0.644978 -1.815701,-2.083456 -2.824252,-3.009797 -0.750998,-0.689836 -3.395158,-2.965617 -3.445648,-2.965617 z m 13.722216,6.025474 c -0.01175,-0.268245 -0.02202,-0.06559 -0.02209,0.450542 -9e-5,0.516209 0.0088,0.735373 0.02061,0.487409 0.01188,-0.247889 0.01322,-0.669707 0.0015,-0.937951 z m -29.9859636,0 c -0.004,0.07011 -0.00581,0.225422 -0.00588,0.44911 -1.093e-4,0.447375 0.00991,0.639172 0.02209,0.425512 0.012183,-0.213586 0.01207,-0.580594 0,-0.814233 -0.00603,-0.116858 -0.012183,-0.130805 -0.016194,-0.06031 z M 17.177035,41.514706 c 0.127707,0.0075 0.25694,0.14053 0.39463,0.40493 0.173979,0.334061 0.171821,0.988313 -0.0044,1.482808 -0.06898,0.193607 -0.158603,0.510328 -0.198787,0.703859 -0.06454,0.310917 -0.09104,0.35193 -0.225293,0.35193 -0.115942,0 -0.151667,-0.03393 -0.151667,-0.14136 0,-0.0775 -0.08525,-0.436896 -0.18848,-0.798099 -0.24011,-0.840017 -0.241947,-1.193077 -0.01178,-1.634422 0.131479,-0.252186 0.258089,-0.375452 0.385795,-0.369646 z m -0.904113,0.128091 c 0.133329,0 0.156084,0.02714 0.156084,0.204689 0,0.314912 -0.168852,0.907794 -0.387267,1.359165 -0.227637,0.470371 -0.933761,1.219163 -1.347336,1.429733 -0.438261,0.22316 -0.561131,0.164807 -0.487398,-0.228211 0.06595,-0.351553 0.175465,-0.520959 0.720053,-1.10879 0.492746,-0.53189 0.877273,-1.045836 1.086704,-1.45333 0.07527,-0.146486 0.14765,-0.203256 0.25916,-0.203256 z m 1.696318,0.07388 c 0.107081,-0.01508 0.179323,0.06408 0.36518,0.396109 0.264808,0.473537 0.641717,0.959287 1.161801,1.500525 0.404932,0.421366 0.537943,0.650331 0.597834,1.024803 l 0.04123,0.25769 -0.210567,0 c -0.247019,0 -0.708129,-0.295311 -1.099957,-0.697903 -0.532903,-0.547647 -0.944152,-1.443454 -0.973321,-2.117458 -0.01325,-0.306167 -0.002,-0.343712 0.1178,-0.360826 z m -1.244262,4.259945 c -0.146248,0.01357 -0.02597,0.02337 0.266523,0.02337 0.292496,0 0.412769,-0.01055 0.266522,-0.02337 -0.146249,-0.01357 -0.386797,-0.01357 -0.533045,0 z"
     id="path15769"
     inkscape:connector-curvature="0" />
</svg>
