<?xml version="1.0" encoding="UTF-8" standalone="no"?>
<svg
   xmlns:dc="http://purl.org/dc/elements/1.1/"
   xmlns:cc="http://creativecommons.org/ns#"
   xmlns:rdf="http://www.w3.org/1999/02/22-rdf-syntax-ns#"
   xmlns:svg="http://www.w3.org/2000/svg"
   xmlns="http://www.w3.org/2000/svg"
   xmlns:xlink="http://www.w3.org/1999/xlink"
   xmlns:sodipodi="http://sodipodi.sourceforge.net/DTD/sodipodi-0.dtd"
   xmlns:inkscape="http://www.inkscape.org/namespaces/inkscape"
   fill="#CDDC39"
   width="48"
   height="48"
   viewBox="0 0 48 48"
   id="svg2"
   version="1.1"
   inkscape:version="0.91 r13725"
   sodipodi:docname="text-x-python1.svg">
  <metadata
     id="metadata10">
    <rdf:RDF>
      <cc:Work
         rdf:about="">
        <dc:format>image/svg+xml</dc:format>
        <dc:type
           rdf:resource="http://purl.org/dc/dcmitype/StillImage" />
        <dc:title></dc:title>
      </cc:Work>
    </rdf:RDF>
  </metadata>
  <defs
     id="defs8">
    <linearGradient
       id="linearGradient2795">
      <stop
         id="stop2797"
         offset="0"
         style="stop-color:#b8b8b8;stop-opacity:0.49803922;" />
      <stop
         id="stop2799"
         offset="1"
         style="stop-color:#7f7f7f;stop-opacity:0;" />
    </linearGradient>
    <linearGradient
       id="linearGradient2787">
      <stop
         id="stop2789"
         offset="0"
         style="stop-color:#7f7f7f;stop-opacity:0.5;" />
      <stop
         id="stop2791"
         offset="1"
         style="stop-color:#7f7f7f;stop-opacity:0;" />
    </linearGradient>
    <linearGradient
       id="linearGradient3676">
      <stop
         id="stop3678"
         offset="0"
         style="stop-color:#b2b2b2;stop-opacity:0.5;" />
      <stop
         id="stop3680"
         offset="1"
         style="stop-color:#b3b3b3;stop-opacity:0;" />
    </linearGradient>
    <linearGradient
       id="linearGradient3236">
      <stop
         id="stop3244"
         offset="0"
         style="stop-color:#f4f4f4;stop-opacity:1" />
      <stop
         id="stop3240"
         offset="1"
         style="stop-color:white;stop-opacity:1" />
    </linearGradient>
    <linearGradient
       id="linearGradient4671">
      <stop
         id="stop4673"
         offset="0"
         style="stop-color:#ffd43b;stop-opacity:1;" />
      <stop
         id="stop4675"
         offset="1"
         style="stop-color:#ffe873;stop-opacity:1" />
    </linearGradient>
    <linearGradient
       id="linearGradient4689">
      <stop
         id="stop4691"
         offset="0"
         style="stop-color:#5a9fd4;stop-opacity:1;" />
      <stop
         id="stop4693"
         offset="1"
         style="stop-color:#306998;stop-opacity:1;" />
    </linearGradient>
    <linearGradient
       gradientTransform="translate(100.2702,99.61116)"
       gradientUnits="userSpaceOnUse"
       xlink:href="#linearGradient4671"
       id="linearGradient2987"
       y2="144.75717"
       x2="-65.308502"
       y1="144.75717"
       x1="224.23996" />
    <linearGradient
       gradientTransform="translate(100.2702,99.61116)"
       gradientUnits="userSpaceOnUse"
       xlink:href="#linearGradient4689"
       id="linearGradient2990"
       y2="76.313133"
       x2="26.670298"
       y1="77.475983"
       x1="172.94208" />
    <linearGradient
       y2="144.75717"
       x2="-65.308502"
       y1="144.75717"
       x1="224.23996"
       gradientTransform="matrix(0.562541,0,0,0.567972,-11.5974,-7.60954)"
       gradientUnits="userSpaceOnUse"
       id="linearGradient2255"
       xlink:href="#linearGradient4671"
       inkscape:collect="always" />
    <linearGradient
       y2="76.313133"
       x2="26.670298"
       y1="76.176224"
       x1="172.94208"
       gradientTransform="matrix(0.562541,0,0,0.567972,-11.5974,-7.60954)"
       gradientUnits="userSpaceOnUse"
       id="linearGradient2258"
       xlink:href="#linearGradient4689"
       inkscape:collect="always" />
    <radialGradient
       gradientUnits="userSpaceOnUse"
       gradientTransform="matrix(1,0,0,0.177966,0,108.7434)"
       r="29.036913"
       fy="132.28575"
       fx="61.518883"
       cy="132.28575"
       cx="61.518883"
       id="radialGradient2801"
       xlink:href="#linearGradient2795"
       inkscape:collect="always" />
  </defs>
  <sodipodi:namedview
     pagecolor="#ffffff"
     bordercolor="#666666"
     borderopacity="1"
     objecttolerance="10"
     gridtolerance="10"
     guidetolerance="10"
     inkscape:pageopacity="0"
     inkscape:pageshadow="2"
     inkscape:window-width="1366"
     inkscape:window-height="713"
     id="namedview6"
     showgrid="false"
     inkscape:zoom="1.7383042"
     inkscape:cx="0.27942875"
     inkscape:cy="57.686877"
     inkscape:window-x="0"
     inkscape:window-y="30"
     inkscape:window-maximized="1"
     inkscape:current-layer="svg2"
     inkscape:snap-bbox="true"
     inkscape:bbox-paths="true"
     inkscape:bbox-nodes="true"
     inkscape:snap-bbox-edge-midpoints="false"
     inkscape:snap-bbox-midpoints="false"
     inkscape:snap-object-midpoints="true"
     inkscape:snap-others="true" />
  <path
     d="M28 4H12C9.79 4 8.02 5.79 8.02 8L8 40c0 2.21 1.77 4 3.98 4H36c2.21 0 4-1.79 4-4V16L28 4zm4 32H16v-4h16v4zm0-8H16v-4h16v4zm-6-10V7l11 11H26z"
     id="path4" />
  <path
     id="path4549"
     d="m 14.862573,18.063475 c -1.223515,0.0057 -2.391944,0.110033 -3.420042,0.291954 -3.0286452,0.535063 -3.5785299,1.654994 -3.5785305,3.720338 l 0,2.727691 7.1570615,0 0,0.909231 -7.1570615,0 -2.6859835,0 c -2.0800414,0 -3.9013849,1.250224 -4.47107822,3.62858 -0.65713351,2.726147 -0.68628119,4.427308 0,7.273843 0.50874992,2.118852 1.72371212,3.62858 3.80375312,3.628581 l 2.4607613,0 0,-3.269893 c 0,-2.362305 2.0439217,-4.446054 4.4710778,-4.446054 l 7.148721,0 c 1.98995,0 3.578531,-1.63846 3.57853,-3.636922 l 0,-6.815057 c 0,-1.939604 -1.636275,-3.396626 -3.57853,-3.720338 -1.229476,-0.204662 -2.505165,-0.29764 -3.728679,-0.291954 z"
     style="opacity:1;fill:#3776ab;fill-opacity:1;stroke:none"
     inkscape:connector-curvature="0" />
  <path
     id="path3505"
     d="m 10.992087,20.257306 c 0.739275,0 1.342992,0.613577 1.342992,1.368016 -1e-6,0.751765 -0.603717,1.359675 -1.342992,1.359675 -0.741926,0 -1.3429918,-0.60791 -1.3429918,-1.359675 0,-0.754438 0.6010658,-1.368016 1.3429918,-1.368016 z"
     style="opacity:1;fill:#ffffff;fill-opacity:1;stroke:none"
     inkscape:connector-curvature="0" />
  <path
     id="path4545"
     d="m 23.062329,25.712689 0,3.178135 c 0,2.463966 -2.088965,4.537811 -4.471077,4.537811 l -7.148721,0 c -1.9581537,0 -3.5785301,1.675916 -3.5785305,3.636922 l 0,6.815059 c 0,1.939603 1.686621,3.080457 3.5785305,3.636921 2.265524,0.666153 4.438043,0.786543 7.148721,0 1.801819,-0.521686 3.578531,-1.57158 3.57853,-3.636921 l 0,-2.727692 -7.14872,0 0,-0.909231 7.14872,0 3.57853,0 c 2.080041,0 2.855153,-1.450874 3.578531,-3.628581 0.747225,-2.241915 0.715431,-4.397879 0,-7.273843 -0.514049,-2.070694 -1.495844,-3.62858 -3.578531,-3.62858 l -2.685983,0 z"
     style="opacity:1;fill:#ffd343;fill-opacity:1;stroke:none"
     inkscape:connector-curvature="0" />
  <path
     id="path3512"
     d="m 19.041696,42.971385 c 0.741926,0 1.342992,0.607912 1.342992,1.359675 -1e-6,0.754437 -0.601066,1.368014 -1.342992,1.368014 -0.739276,0 -1.342991,-0.613577 -1.342992,-1.368014 1e-6,-0.751763 0.603715,-1.359675 1.342992,-1.359675 z"
     style="opacity:1;fill:#ffffff;fill-opacity:1;stroke:none"
     inkscape:connector-curvature="0" />
</svg>
