<?xml version="1.0" encoding="UTF-8" standalone="no"?>
<svg
   xmlns:dc="http://purl.org/dc/elements/1.1/"
   xmlns:cc="http://creativecommons.org/ns#"
   xmlns:rdf="http://www.w3.org/1999/02/22-rdf-syntax-ns#"
   xmlns:svg="http://www.w3.org/2000/svg"
   xmlns="http://www.w3.org/2000/svg"
   xmlns:sodipodi="http://sodipodi.sourceforge.net/DTD/sodipodi-0.dtd"
   xmlns:inkscape="http://www.inkscape.org/namespaces/inkscape"
   width="36"
   height="36"
   viewBox="0 0 36 36"
   id="svg2"
   version="1.1"
   inkscape:version="0.91 r13725"
   sodipodi:docname="checkbox-mixed.svg"
   style="fill:#4CAF50">
  <metadata
     id="metadata10">
    <rdf:RDF>
      <cc:Work
         rdf:about="">
        <dc:format>image/svg+xml</dc:format>
        <dc:type
           rdf:resource="http://purl.org/dc/dcmitype/StillImage" />
        <dc:title />
      </cc:Work>
    </rdf:RDF>
  </metadata>
  <defs
     id="defs8" />
  <sodipodi:namedview
     pagecolor="#ffffff"
     bordercolor="#666666"
     borderopacity="1"
     objecttolerance="10"
     gridtolerance="10"
     guidetolerance="10"
     inkscape:pageopacity="0"
     inkscape:pageshadow="2"
     inkscape:window-width="1366"
     inkscape:window-height="713"
     id="namedview6"
     showgrid="false"
     fit-margin-top="0"
     fit-margin-left="0"
     fit-margin-right="0"
     fit-margin-bottom="0"
     inkscape:zoom="2.072094064633065"
     inkscape:cx="55.05917181769678"
     inkscape:cy="-10.32776622672007"
     inkscape:window-x="0"
     inkscape:window-y="30"
     inkscape:window-maximized="1"
     inkscape:current-layer="svg2" />
  <path
     id="path4139"
     d="M 8,8 28,8 28,28 8,28 8,8 Z"
     inkscape:connector-curvature="0" />
  <path
     d="M 4 0 C 1.79 0 1.480297366166875e-15 1.790000000000001 0 4 L 0 32 C 0 34.21 1.790000000000001 36 4 36 L 32 36 C 34.21 36 36 34.21 36 32 L 36 4 C 36 1.79 34.21 1.480297366166875e-15 32 0 L 4 0 z M 4 4 L 32 4 L 32 32 L 4 32 L 4 4 z "
     id="path4137" />
  <path
     id="path4142"
     d="M -39.33333333333333,6 C -40.80666666666667,6 -42,7.193333333333336 -42,8.666666666666666 l 0,18.666666666666664 C -42,28.80666666666666 -40.80666666666667,30 -39.33333333333333,30 l 18.66666666666666,0 C -19.19333333333334,30 -18,28.80666666666666 -18,27.33333333333333 L -18,8.666666666666666 C -18,7.193333333333336 -19.19333333333334,6.000000000000001 -20.66666666666667,6 l -18.66666666666666,0 z m 0,2.666666666666666 18.66666666666667,0 0,18.666666666666664 -18.66666666666667,0 0,-18.666666666666664 z"
     inkscape:connector-curvature="0" />
</svg>
