<?xml version="1.0" encoding="UTF-8" standalone="no"?>
<!-- Created with Inkscape (http://www.inkscape.org/) -->

<svg
   xmlns:dc="http://purl.org/dc/elements/1.1/"
   xmlns:cc="http://creativecommons.org/ns#"
   xmlns:rdf="http://www.w3.org/1999/02/22-rdf-syntax-ns#"
   xmlns:svg="http://www.w3.org/2000/svg"
   xmlns="http://www.w3.org/2000/svg"
   xmlns:sodipodi="http://sodipodi.sourceforge.net/DTD/sodipodi-0.dtd"
   xmlns:inkscape="http://www.inkscape.org/namespaces/inkscape"
   width="48"
   height="48"
   id="svg2"
   version="1.1"
   inkscape:version="0.91 r13725"
   sodipodi:docname="progress-60-symbolic.svg">
  <defs
     id="defs4" />
  <sodipodi:namedview
     id="base"
     pagecolor="#ffffff"
     bordercolor="#666666"
     borderopacity="1.0"
     inkscape:pageopacity="0.0"
     inkscape:pageshadow="2"
     inkscape:zoom="23.13789515625"
     inkscape:cx="26.4709045466093"
     inkscape:cy="28.897185"
     inkscape:document-units="px"
     inkscape:current-layer="layer1"
     showgrid="false"
     inkscape:window-width="1366"
     inkscape:window-height="713"
     inkscape:window-x="0"
     inkscape:window-y="30"
     inkscape:window-maximized="1" />
  <metadata
     id="metadata7">
    <rdf:RDF>
      <cc:Work
         rdf:about="">
        <dc:format>image/svg+xml</dc:format>
        <dc:type
           rdf:resource="http://purl.org/dc/dcmitype/StillImage" />
        <dc:title />
      </cc:Work>
    </rdf:RDF>
  </metadata>
  <g
     inkscape:label="Layer 1"
     inkscape:groupmode="layer"
     id="layer1"
     transform="translate(0,-1004.3622)"
     style="opacity:1">
    <path
       style="fill:#4CAF50;fill-opacity:1;stroke:none"
       d="m 24.382812,1008.2372 c 0.0078,0.3618 0.0024,0.6692 0,3.3633 l 0,4.211 c 6.76763,0.2044 12.195313,5.7335 12.195313,12.5507 0,6.9467 -5.631419,12.5781 -12.578125,12.5781 -2.832536,0 -5.444042,-0.9376 -7.546875,-2.5156 -0.009,0.06 -0.227187,0.3847 -2.351562,3.3086 -1.121662,1.5439 -1.774136,2.4397 -2.050782,2.8164 3.341269,2.4727 7.471865,3.9375 11.949219,3.9375 11.11473,0 20.125,-9.0103 20.125,-20.125 0,-10.9869 -8.804105,-19.921 -19.742188,-20.125 z"
       id="path2993"
       inkscape:connector-curvature="0" />
    <path
       style="fill:none;stroke:#000000;stroke-width:1px;stroke-linecap:butt;stroke-linejoin:miter;stroke-opacity:1"
       d="m -63.134534,996.41356 0,-11.0888"
       id="path3791-6"
       inkscape:connector-curvature="0" />
  </g>
</svg>
