<?xml version="1.0" encoding="UTF-8" standalone="no"?>
<!-- Created with Inkscape (http://www.inkscape.org/) -->

<svg
   xmlns:dc="http://purl.org/dc/elements/1.1/"
   xmlns:cc="http://creativecommons.org/ns#"
   xmlns:rdf="http://www.w3.org/1999/02/22-rdf-syntax-ns#"
   xmlns:svg="http://www.w3.org/2000/svg"
   xmlns="http://www.w3.org/2000/svg"
   xmlns:sodipodi="http://sodipodi.sourceforge.net/DTD/sodipodi-0.dtd"
   xmlns:inkscape="http://www.inkscape.org/namespaces/inkscape"
   width="22.577724mm"
   height="22.577551mm"
   viewBox="0 0 79.999811 79.999195"
   id="svg5988"
   version="1.1"
   inkscape:version="0.91 r13725"
   sodipodi:docname="darkcoin.svg">
  <defs
     id="defs5990">
    <clipPath
       clipPathUnits="userSpaceOnUse"
       id="clipPath16">
      <path
         d="m 0,841.89 1190.551,0 0,-841.89 L 0,0 0,841.89 Z"
         id="path18"
         inkscape:connector-curvature="0" />
    </clipPath>
  </defs>
  <sodipodi:namedview
     id="base"
     pagecolor="#ffffff"
     bordercolor="#666666"
     borderopacity="1.0"
     inkscape:pageopacity="0.0"
     inkscape:pageshadow="2"
     inkscape:zoom="0.7"
     inkscape:cx="-123.7565"
     inkscape:cy="100.85072"
     inkscape:document-units="px"
     inkscape:current-layer="layer1"
     showgrid="false"
     fit-margin-top="0"
     fit-margin-left="0"
     fit-margin-right="0"
     fit-margin-bottom="0"
     inkscape:window-width="1366"
     inkscape:window-height="713"
     inkscape:window-x="0"
     inkscape:window-y="30"
     inkscape:window-maximized="1" />
  <metadata
     id="metadata5993">
    <rdf:RDF>
      <cc:Work
         rdf:about="">
        <dc:format>image/svg+xml</dc:format>
        <dc:type
           rdf:resource="http://purl.org/dc/dcmitype/StillImage" />
        <dc:title></dc:title>
      </cc:Work>
    </rdf:RDF>
  </metadata>
  <g
     inkscape:label="Layer 1"
     inkscape:groupmode="layer"
     id="layer1"
     transform="translate(-190.09359,-391.01643)">
    <g
       transform="translate(-685.83955,316.4346)"
       id="Coin_Minimal">
      <path
         d="m 954.74,124.259 c -5.342,21.412 -27.05,34.453 -48.485,29.134 -21.434,-5.362 -34.471,-27.076 -29.122,-48.489 5.347,-21.414 27.047,-34.455 48.47,-29.133 21.427,5.364 34.469,27.054 29.137,48.488 z"
         id="path28"
         inkscape:connector-curvature="0"
         style="fill:#3397cc" />
      <path
         d="m 928.628,100.445 -20.303,0 -2.509,0 -4.061,0 -0.472,0 -3.748,0 -0.694,0 -0.609,0 9.197,11.807 5.224,6.763 0,-11.326 15.791,0 c 3.814,0 5.294,1.045 5.294,5.185 l 0,3.954 c 0,4.083 -1.479,5.181 -5.294,5.181 l -7.587,0 -5.353,0 -1.751,0 -1.101,0 -0.664,0 -0.972,0 -10.506,-13.52 -10.154,0 16.275,20.989 0.449,0 6.388,0 17.158,0 c 8.869,0 11.995,-2.951 11.995,-10.125 l 0,-8.814 c 0.002,-7.14 -3.124,-10.094 -11.993,-10.094 z"
         id="path30"
         inkscape:connector-curvature="0"
         style="fill:#ffffff" />
    </g>
  </g>
</svg>
