<svg xmlns="http://www.w3.org/2000/svg" fill="#00C853" viewBox="0 0 48 48"><path d="m10 6c-2.21 0-4 1.79-4 4v28c0 2.21 1.79 4 4 4h28c2.21 0 4-1.79 4-4v-28c0-2.21-1.79-4-4-4h-28m3.52 2.939h1.484v1.301h-1.484v-1.301m6.348 2.795c.814 0 1.447.324 1.898.971.456.643.684 1.491.684 2.545v.129c0 .96-.226 1.734-.678 2.324-.452.59-1.079.887-1.885.887-.374 0-.707-.069-.996-.203-.289-.134-.537-.331-.744-.592v3.205h-1.482v-9.143h1.25l.146.83c.212-.309.467-.546.764-.709.301-.163.648-.244 1.043-.244m6.537 0c.891 0 1.573.271 2.045.813.476.537.715 1.259.715 2.166v.873h-4.121l-.012.031c.024.525.176.953.457 1.287.285.334.679.5 1.18.5.399 0 .741-.049 1.025-.146.285-.098.558-.237.822-.42l.477.971c-.248.22-.577.404-.988.555-.411.151-.887.227-1.428.227-.936 0-1.683-.306-2.24-.916-.553-.614-.83-1.401-.83-2.361v-.246c0-.96.275-1.754.824-2.385.553-.635 1.244-.951 2.074-.947m6.293 0c.395 0 .74.087 1.037.258.301.167.556.407.764.725l.146-.859h1.232v6.604c0 .85-.262 1.507-.787 1.971-.525.464-1.27.697-2.234.697-.321 0-.669-.047-1.043-.141-.37-.09-.707-.211-1.01-.361l.318-1.166c.244.126.512.224.805.293.297.073.603.111.916.111.537 0 .93-.116 1.178-.348.248-.228.373-.581.373-1.057v-.678c-.208.264-.453.465-.738.604-.281.134-.604.203-.971.203-.81 0-1.444-.297-1.904-.887-.46-.59-.689-1.364-.689-2.324v-.129c0-1.05.23-1.898.689-2.545.46-.647 1.098-.971 1.916-.971m-19.14.123h1.482v6.988c0 .728-.188 1.289-.566 1.684-.378.399-.907.6-1.582.6-.146 0-.278-.009-.396-.025-.118-.016-.241-.043-.371-.08l.084-1.184c.069.02.156.037.258.049.102.016.196.025.281.025.252 0 .449-.089.592-.264.146-.171.219-.438.219-.805v-6.988m12.848 1.068c-.366 0-.666.146-.902.439-.236.289-.382.656-.439 1.104l.012.031h2.619v-.152c0-.419-.109-.761-.324-1.025-.212-.264-.534-.396-.965-.396m-6.951.023c-.309 0-.571.067-.787.201-.216.13-.389.313-.52.549v2.986c.13.232.304.411.52.537.216.122.481.182.799.182.505 0 .881-.184 1.129-.555.252-.374.379-.864.379-1.471v-.129c0-.675-.128-1.227-.385-1.654-.252-.431-.63-.646-1.135-.646m13.623 0c-.509 0-.887.213-1.135.641-.244.427-.367.981-.367 1.66v.129c0 .606.119 1.093.359 1.459.244.362.622.543 1.131.543.317 0 .583-.065.799-.195.22-.134.397-.326.531-.574v-2.893c-.138-.24-.317-.428-.537-.563-.216-.138-.476-.207-.781-.207m-4.076 11.05l9 12h-28l7-9 5 6.01 7-9.01"/></svg>