<svg xmlns="http://www.w3.org/2000/svg" fill="#F44336" viewBox="0 0 48 48"><path d="m10 6c-2.21 0-4 1.79-4 4v28c0 2.21 1.79 4 4 4h28c2.21 0 4-1.79 4-4v-28c0-2.21-1.79-4-4-4h-28m20.21 2.811c.142 0 .287.013.434.037.146.02.311.051.494.092l-.152 1.146c-.081-.016-.174-.029-.275-.041-.098-.012-.202-.02-.316-.02-.321 0-.564.092-.727.275-.159.183-.238.445-.238.787v.77h1.344v1.098h-1.344v5.506h-1.482v-5.506h-1.01v-1.098h1.01v-.77c0-.728.197-1.291.592-1.686.399-.395.956-.592 1.672-.592m-5.896.129h1.484v1.301h-1.484v-1.301m-4.84 2.795c.395 0 .74.087 1.037.258.301.167.556.407.764.725l.146-.859h1.232v6.604c0 .85-.262 1.507-.787 1.971-.525.464-1.27.697-2.234.697-.321 0-.669-.047-1.043-.141-.37-.09-.707-.211-1.01-.361l.318-1.166c.244.126.514.224.807.293.297.073.601.111.914.111.537 0 .93-.116 1.178-.348.248-.228.373-.581.373-1.057v-.678c-.208.264-.453.465-.738.604-.281.134-.604.203-.971.203-.81 0-1.444-.297-1.904-.887-.46-.59-.689-1.364-.689-2.324v-.129c0-1.05.23-1.898.689-2.545.46-.647 1.098-.971 1.916-.971m4.84.123h1.484v6.604h-1.484v-6.604m-4.461 1.092c-.509 0-.887.213-1.135.641-.244.427-.367.981-.367 1.66v.129c0 .606.121 1.093.361 1.459.244.362.62.543 1.129.543.317 0 .583-.065.799-.195.22-.134.397-.326.531-.574v-2.893c-.138-.24-.317-.428-.537-.563-.216-.138-.476-.207-.781-.207m9.15 11.05l9 12h-28l7-9 5 6.01 7-9.01"/></svg>