<svg xmlns="http://www.w3.org/2000/svg" fill="#FF5722" viewBox="0 0 48 48"><path d="m12 4c-2.21 0-3.98 1.79-3.98 4l-.008 14.318h15.268l-.156 1.682h8.877v4h-9.252l-.373 4h9.625v4h-9.998l-.748 8h14.746c2.21 0 4-1.79 4-4v-24l-12-12h-16m14 3l11 11h-11v-11" fill="#1572b6"/><g transform="matrix(.06724 0 0 .06724 0 25.318)" fill-rule="evenodd"><path d="m27.07 303.62l-27.07-303.62h297.45l-27.1 303.57-121.81 33.77-121.47-33.721" fill="#1572b6"/><path d="m148.73 311.53l98.43-27.29 23.16-259.42h-121.58v286.7" fill="#33a9dc"/><g transform="translate(54.929 59.33)" fill="none"><path d="m93.8 75.5h49.28l3.403-38.13h-52.678v-37.24h.129 93.25l-.893 9.991-9.152 102.62h-83.33v-37.24" fill="#fff"/><path d="m94.02 172.2l-.163.046-41.472-11.199-2.652-29.698h-20.15-17.228l5.216 58.47 76.28 21.18.172-.048v-38.744" fill="#ebebeb"/><path d="m139.91 111.16l-4.484 49.87-41.532 11.21v38.742l76.34-21.16.56-6.29 6.478-72.37h-37.36" fill="#fff"/><g fill="#ebebeb"><path d="m93.93.125v23.13 14.02.092h-89.83-.119l-.747-8.37-1.697-18.878-.89-9.991h93.28"/><path d="m93.8 75.5v23.13 14.02.092h-40.828-.119l-.746-8.369-1.698-18.878-.89-9.991h44.28"/></g></g></g></svg>