<?xml version="1.0" encoding="UTF-8" standalone="no"?>
<svg
   xmlns:dc="http://purl.org/dc/elements/1.1/"
   xmlns:cc="http://creativecommons.org/ns#"
   xmlns:rdf="http://www.w3.org/1999/02/22-rdf-syntax-ns#"
   xmlns:svg="http://www.w3.org/2000/svg"
   xmlns="http://www.w3.org/2000/svg"
   xmlns:sodipodi="http://sodipodi.sourceforge.net/DTD/sodipodi-0.dtd"
   xmlns:inkscape="http://www.inkscape.org/namespaces/inkscape"
   fill="#2196F3"
   width="48"
   height="48"
   viewBox="0 0 48 48"
   id="svg2"
   version="1.1"
   inkscape:version="0.91 r13725"
   sodipodi:docname="person_away.svg">
  <metadata
     id="metadata10">
    <rdf:RDF>
      <cc:Work
         rdf:about="">
        <dc:format>image/svg+xml</dc:format>
        <dc:type
           rdf:resource="http://purl.org/dc/dcmitype/StillImage" />
      </cc:Work>
    </rdf:RDF>
  </metadata>
  <defs
     id="defs8" />
  <sodipodi:namedview
     pagecolor="#ffffff"
     bordercolor="#666666"
     borderopacity="1"
     objecttolerance="10"
     gridtolerance="10"
     guidetolerance="10"
     inkscape:pageopacity="0"
     inkscape:pageshadow="2"
     inkscape:window-width="1366"
     inkscape:window-height="713"
     id="namedview6"
     showgrid="false"
     inkscape:snap-bbox="true"
     inkscape:bbox-nodes="true"
     inkscape:snap-bbox-edge-midpoints="true"
     inkscape:zoom="5.368001304915684"
     inkscape:cx="-7.326686219630012"
     inkscape:cy="15.97163232570288"
     inkscape:window-x="0"
     inkscape:window-y="30"
     inkscape:window-maximized="1"
     inkscape:current-layer="svg2" />
  <g
     style="fill:#2196F3"
     id="g4148"
     transform="translate(6.000000000000001,0)" />
  <path
     id="path4159"
     style="fill:#2196F3"
     d="m 13.69849246231156,21.54170854271357 c 0,0 -0.61105527638192,0.67537688442211 -1.07738693467337,1.14170854271357 -0.77989949748743,0.77989949748742 -1.33467336683417,1.84120603015073 -1.33467336683417,2.57286432160803 l -2.572864321608039,0 c 0,-1.33467336683419 0.739698492462315,-2.45226130653267 1.495477386934679,-3.20804020100502 l 1.49547738693467,-1.51959798994975 c 0.43417085427136,-0.43417085427136 0.70753768844221,-1.03718592964824 0.70753768844221,-1.70452261306532 0,-1.33467336683418 -1.07738693467337,-2.41206030150754 -2.41206030150754,-2.41206030150754 -1.334673366834174,0 -2.412060301507534,1.07738693467336 -2.412060301507534,2.41206030150754 l -2.412060301507537,0 C 5.175879396984929,16.16281407035176 7.338693467336691,14 10,14 c 2.66130653266331,0 4.82412060301508,2.16281407035176 4.82412060301508,4.82412060301508 0,1.06130653266331 -0.42613065326634,2.02613065326632 -1.12562814070352,2.71758793969848 z M 11.52763819095478,30 l -3.05527638190955,0 0,-3.05527638190955 3.05527638190955,0 0,3.05527638190955 z M 30,11.8 c 2.32,0 4.2,1.88 4.2,4.2 0,2.32 -1.88,4.2 -4.2,4.2 -2.32,0 -4.2,-1.88 -4.2,-4.2 0,-2.32 1.88,-4.2 4.2,-4.2 m 0,18 c 5.95,0 12.2,2.91 12.2,4.2 l 0,2.2 -24.4,0 0,-2.2 c 0,-1.29 6.25,-4.2 12.2,-4.2 M 30,8 c -4.42,0 -8,3.58 -8,8 0,4.41 3.58,8 8,8 4.42,0 8,-3.59 8,-8 0,-4.42 -3.58,-8 -8,-8 z m 0,18 c -5.33,0 -16,2.67 -16,8 l 0,6 32,0 0,-6 C 46,28.67 35.33,26 30,26 Z" />
</svg>
