<?xml version="1.0" encoding="UTF-8" standalone="no"?>
<svg
   xmlns:osb="http://www.openswatchbook.org/uri/2009/osb"
   xmlns:dc="http://purl.org/dc/elements/1.1/"
   xmlns:cc="http://creativecommons.org/ns#"
   xmlns:rdf="http://www.w3.org/1999/02/22-rdf-syntax-ns#"
   xmlns:svg="http://www.w3.org/2000/svg"
   xmlns="http://www.w3.org/2000/svg"
   xmlns:xlink="http://www.w3.org/1999/xlink"
   xmlns:sodipodi="http://sodipodi.sourceforge.net/DTD/sodipodi-0.dtd"
   xmlns:inkscape="http://www.inkscape.org/namespaces/inkscape"
   fill="#009688"
   width="48"
   height="48"
   viewBox="0 0 48 48"
   id="svg2"
   version="1.1"
   inkscape:version="0.91 r13725"
   sodipodi:docname="text-x-java1.svg">
  <metadata
     id="metadata10">
    <rdf:RDF>
      <cc:Work
         rdf:about="">
        <dc:format>image/svg+xml</dc:format>
        <dc:type
           rdf:resource="http://purl.org/dc/dcmitype/StillImage" />
        <dc:title></dc:title>
      </cc:Work>
    </rdf:RDF>
  </metadata>
  <defs
     id="defs8">
    <linearGradient
       id="linearGradient5664"
       osb:paint="solid">
      <stop
         style="stop-color:#000000;stop-opacity:1;"
         offset="0"
         id="stop5666" />
    </linearGradient>
    <linearGradient
       x1="64"
       y1="60"
       x2="62"
       y2="7"
       id="linearGradient3724"
       xlink:href="#linearGradient3763"
       gradientUnits="userSpaceOnUse"
       gradientTransform="matrix(1.231823,0,0,1.231823,-157.81615,7.1708322)" />
    <linearGradient
       id="linearGradient3763">
      <stop
         id="stop3765"
         style="stop-color:#ff7700;stop-opacity:1"
         offset="0" />
      <stop
         id="stop3767"
         style="stop-color:#ffb15d;stop-opacity:1"
         offset="1" />
    </linearGradient>
    <clipPath
       id="clipPath3716">
      <path
         d="m -118,6 c -3.324,0 -6,2.676 -6,6 l 0,72 c 0,3.324 2.676,6 6,6 l 72,0 c 3.324,0 6,-2.676 6,-6 l 0,-72 c 0,-3.324 -2.676,-6 -6,-6 l -72,0 z m 42.53125,9.4375 c 0,0 6.742786,6.784262 -6.4375,17.1875 -10.569721,8.348428 -2.406258,13.091934 0,18.53125 -6.170339,-5.566626 -10.691951,-10.439321 -7.65625,-15 4.457852,-6.693689 16.821977,-9.970594 14.09375,-20.71875 z m 8.125,13.34375 c -14.197756,8.233791 -11.545654,10.600025 -8.125,15.40625 3.661158,5.156183 -4.3125,9.25 -4.3125,9.25 0,0 3.954627,-3.226804 0.8125,-6.84375 -10.643745,-12.265213 11.625144,-17.8125 11.625,-17.8125 z m 3.59375,21.875 c 6.598371,-0.338475 10.187997,8.957958 -4.59375,12.84375 -1.44e-4,0 0.16215,-0.192534 0.21875,-0.34375 12.215092,-6.34575 6.567276,-12.446464 2.625,-11.625 -0.964039,0.201189 -1.40625,0.375 -1.40625,0.375 0,0 0.378571,-0.570411 1.0625,-0.8125 0.731171,-0.256932 1.41116,-0.40248 2.09375,-0.4375 z m -26.40625,0.625 c 0.519115,-0.01358 0.8125,0 0.8125,0 0,0 -11.82939,2.822105 -4.1875,3.84375 3.227673,0.431901 9.630792,0.315402 15.625,-0.1875 4.897387,-0.41102 9.8125,-1.25 9.8125,-1.25 0,0 -1.719415,0.709928 -2.96875,1.5625 -12.017218,3.160705 -35.24553,1.700167 -28.5625,-1.53125 4.236968,-2.049735 7.911406,-2.39676 9.46875,-2.4375 z m -1.9375,7.40625 c 0,0 -2.823626,2.059601 1.4375,2.5 5.511613,0.569005 9.87295,0.637302 17.40625,-0.8125 0,0 1.050477,1.047931 2.6875,1.625 -15.407629,4.506818 -32.55548,0.346355 -21.53125,-3.3125 z m 1.53125,7.125 c 0,0 -2.476708,1.449143 1.78125,1.9375 5.159208,0.589021 7.816289,0.511854 13.5,-0.5625 0,0 1.474997,0.907513 3.5625,1.71875 -12.745505,5.460632 -28.85383,-0.296827 -18.84375,-3.09375 z m -6.46875,4.71875 c 0.614519,0.02364 1.14585,0.147618 1.46875,0.375 0,0 -0.852618,-0.05906 -2.28125,0.25 -1.370161,0.295952 -5.69609,1.676512 -3.375,2.6875 6.461397,2.810602 29.707491,2.165274 37.0625,-0.0625 3.867966,-1.173437 2.03125,-2.71875 2.03125,-2.71875 6.739204,3.040884 -14.609199,9.149373 -40.59375,4.9375 -8.33743,-1.353006 1.38587,-5.63424 5.6875,-5.46875 z M -58,74.375 c -0.426144,5.547328 -18.43383,6.718207 -30.15625,5.96875 -7.704246,-0.495845 -9.1875,-1.71875 -9.1875,-1.71875 7.318718,1.208433 19.649918,1.415115 29.65625,-0.46875 C -58.817879,76.487689 -58,74.375 -58,74.375 Z"
         inkscape:connector-curvature="0"
         id="path3718"
         style="display:inline;fill:#ff00ff;fill-opacity:1;fill-rule:nonzero;stroke:none" />
    </clipPath>
    <filter
       style="color-interpolation-filters:sRGB"
       x="-0.16965857"
       y="-0.1250829"
       width="1.3393171"
       height="1.2501658"
       id="filter3720">
      <feGaussianBlur
         id="feGaussianBlur3722"
         stdDeviation="3.3931715" />
    </filter>
    <linearGradient
       x1="64"
       y1="60"
       x2="62"
       y2="7"
       id="linearGradient3769"
       xlink:href="#linearGradient3763"
       gradientUnits="userSpaceOnUse"
       gradientTransform="matrix(0.61315971,0,0,0.61315971,-25.366851,10.457916)" />
    <linearGradient
       inkscape:collect="always"
       xlink:href="#linearGradient3763"
       id="linearGradient4180"
       gradientUnits="userSpaceOnUse"
       gradientTransform="matrix(0.61315971,0,0,0.61315971,-25.366851,10.457916)"
       x1="64"
       y1="60"
       x2="62"
       y2="7" />
  </defs>
  <sodipodi:namedview
     pagecolor="#ffffff"
     bordercolor="#666666"
     borderopacity="1"
     objecttolerance="10"
     gridtolerance="10"
     guidetolerance="10"
     inkscape:pageopacity="0"
     inkscape:pageshadow="2"
     inkscape:window-width="1366"
     inkscape:window-height="713"
     id="namedview6"
     showgrid="false"
     inkscape:snap-bbox="true"
     inkscape:bbox-paths="true"
     inkscape:bbox-nodes="true"
     inkscape:snap-bbox-edge-midpoints="true"
     inkscape:snap-object-midpoints="true"
     inkscape:snap-bbox-midpoints="false"
     inkscape:snap-midpoints="true"
     inkscape:object-paths="false"
     inkscape:zoom="4.9166667"
     inkscape:cx="-37.334198"
     inkscape:cy="1.0603717"
     inkscape:window-x="0"
     inkscape:window-y="30"
     inkscape:window-maximized="1"
     inkscape:current-layer="svg2"
     inkscape:snap-intersection-paths="false"
     inkscape:snap-smooth-nodes="true"
     inkscape:object-nodes="true"
     inkscape:snap-nodes="false" />
  <path
     d="M28 4H12C9.79 4 8.02 5.79 8.02 8L8 40c0 2.21 1.77 4 3.98 4H36c2.21 0 4-1.79 4-4V16L28 4zm4 32H16v-4h16v4zm0-8H16v-4h16v4zm-6-10V7l11 11H26z"
     id="path4" />
  <path
     style="fill:url(#linearGradient4180);fill-opacity:1;fill-rule:evenodd;stroke-width:4.3107357;stroke-miterlimit:4;stroke-dasharray:none"
     id="path2907"
     inkscape:connector-curvature="0"
     d="m 15.619041,14.577583 c 1.358019,5.350067 -4.794046,6.976855 -7.0130134,10.308746 -1.5110692,2.270152 0.7417013,4.702006 3.8130864,7.472884 -1.197753,-2.707507 -5.2612485,-5.080154 0,-9.235718 6.5607,-5.178379 3.199927,-8.545912 3.199927,-8.545912 z m 4.043022,6.629788 c 7.2e-5,0 -11.0847901,2.766447 -5.786695,8.871655 1.564045,1.800393 -0.402386,3.410701 -0.402386,3.410701 0,0 3.96846,-2.032125 2.146059,-4.598698 -1.702685,-2.392376 -3.02414,-3.585155 4.043022,-7.683658 z m 1.801156,10.902746 c -0.339769,0.01743 -0.689916,0.08288 -1.053868,0.210773 -0.340437,0.120504 -0.517353,0.402386 -0.517353,0.402386 0,0 0.209939,-0.09147 0.689805,-0.191611 1.962331,-0.408897 4.777294,2.627995 -1.302965,5.786694 -0.02817,0.07527 -0.115039,0.172451 -0.114967,0.172451 7.357852,-1.934215 5.583794,-6.549175 2.299348,-6.380693 z m -13.1446101,0.30658 c -0.775193,0.02028 -2.6046459,0.186869 -4.7136646,1.207158 -3.32658776,1.60849 8.2358757,2.339742 14.2176397,0.76645 0.621876,-0.424382 1.475416,-0.785612 1.475416,-0.785612 0,0 -2.448364,0.42773 -4.886117,0.632322 -2.983713,0.250327 -6.1728373,0.310792 -7.7794633,0.09581 -3.8038729,-0.50854 2.0885753,-1.916124 2.0885753,-1.916124 0,0 -0.1439884,-0.0068 -0.4023861,0 z M 7.3413854,36.095655 C 1.853896,37.916909 10.402284,39.986863 18.07168,37.743521 17.256825,37.456276 16.730393,36.93875 16.730393,36.93875 12.980572,37.660412 10.813007,37.624367 8.0695127,37.341136 5.9484686,37.12192 7.3413854,36.095655 7.3413854,36.095655 Z m 0.7664497,3.544829 c -4.9826772,1.392214 3.0447279,4.270178 9.3890079,1.552061 -1.039088,-0.403807 -1.781996,-0.862256 -1.781996,-0.862256 -2.829158,0.534777 -4.157516,0.580614 -6.7255948,0.287419 C 6.8697852,40.37462 8.1078351,39.640484 8.1078351,39.640484 Z m -3.2190886,2.356833 c -2.1412053,-0.08237 -6.9859525,2.047416 -2.8358636,2.720896 12.9342291,2.096528 23.5696561,-0.93899 20.2151091,-2.452638 0,0 0.909796,0.757189 -1.015546,1.341286 -3.661074,1.10891 -15.2360122,1.437346 -18.4522739,0.03832 C 1.6448087,43.141948 3.8043413,42.451212 4.4863609,42.303897 5.1974854,42.15006 5.6168737,42.18893 5.6168737,42.18893 5.4561452,42.075747 5.1946335,42.009085 4.8887465,41.997317 Z m 19.4294975,1.916124 c 0,0 -0.413636,1.047248 -4.828632,1.877801 -4.980813,0.937724 -11.1111451,0.831452 -14.7541549,0.229935 0,0 0.7446237,0.615441 4.5795363,0.862256 5.8350236,0.373054 14.7911306,-0.20872 15.0032506,-2.969992 z" />
  <path
     style="opacity:1;fill:#ffffff;fill-opacity:1;fill-rule:evenodd;stroke-width:4.3107357;stroke-miterlimit:4;stroke-dasharray:none"
     id="path3783"
     inkscape:connector-curvature="0"
     d="m 15.622893,15.070549 c 0.103877,0.409237 0.149991,0.798542 0.171107,1.166639 0.01214,-0.316374 0.0043,-0.647711 -0.04667,-0.995532 -0.0021,-0.0028 0.0021,-0.01283 0,-0.01556 -0.07908,-0.102195 -0.124441,-0.155552 -0.124441,-0.155552 z m 0.83998,2.146616 c -0.08872,1.469992 -0.979782,3.492101 -4.044349,5.910972 -2.085606,1.647303 -2.6988813,3.012125 -2.6132723,4.231012 0.1000191,-1.093144 0.8047173,-2.30477 2.6132723,-3.733246 3.425009,-2.703369 4.137489,-4.913889 4.044349,-6.408738 z m 3.204369,4.49545 c 1.8e-5,0 -0.692437,0.158573 -1.64885,0.513321 -0.0136,0.0087 -0.03315,0.0069 -0.04666,0.01556 -3.002592,1.928282 -3.842008,3.139904 -3.68658,4.246567 0.161187,-1.17328 1.524645,-2.538369 5.382095,-4.775444 z M 8.1408462,26.705831 c -0.1418978,1.89013 1.7953994,3.904891 4.2776778,6.1443 -0.14972,-0.338438 -0.344524,-0.663422 -0.559987,-0.995532 -0.01,-0.01542 -0.02102,-0.03126 -0.03111,-0.04667 C 9.847026,29.976722 8.3116199,28.295586 8.1408481,26.705831 Z m 4.3243428,0.451101 c -0.08259,0.996108 0.297903,2.134264 1.415522,3.422141 0.361614,0.416259 0.523438,0.819367 0.575542,1.19775 0.0643,-0.509085 -0.04863,-1.088981 -0.575542,-1.695516 -0.932587,-1.074658 -1.348351,-2.053493 -1.415522,-2.924375 z m 3.608804,3.344365 c -0.133321,1.113496 -1.126819,2.009796 -1.851067,2.519942 -0.298144,0.589683 -0.74665,0.964421 -0.74665,0.964421 0,0 2.861413,-1.465469 2.597717,-3.484363 z m 5.382096,2.099951 c -0.33977,0.01743 -0.678245,0.08988 -1.042198,0.217773 -0.340436,0.120503 -0.528876,0.404435 -0.528876,0.404435 0,0 0.220117,-0.08652 0.699983,-0.186662 0.981166,-0.204449 2.175389,0.452571 2.36439,1.555518 0.107481,-1.007879 -0.583491,-1.737178 -1.399968,-1.991064 -0.03052,7.42e-4 -0.06254,-0.0016 -0.09333,0 z M 8.3119534,32.912352 c -0.4349308,0.01138 -1.2003241,0.08268 -2.1621715,0.311104 -0.6502042,0.283232 -1.0504811,0.59651 -0.6066524,0.83998 0.6953175,-0.556403 3.1732589,-1.151084 3.1732589,-1.151084 0,0 -0.1460373,-0.0068 -0.404435,0 z m 10.9819646,1.19775 c 0,0 -0.604263,0.09068 -1.353302,0.202217 -0.04099,0.02631 -0.08504,0.05089 -0.124441,0.07778 -4.886888,1.285323 -13.4936771,1.028216 -14.6685448,0.01556 -1.4488279,1.399931 9.0606408,1.957172 14.6685448,0.482211 0.621876,-0.424381 1.477743,-0.777759 1.477743,-0.777759 z m 4.993216,0.528876 c -0.119675,1.148041 -1.158037,2.448139 -3.671025,3.391032 -0.390201,0.260913 -0.828459,0.528739 -1.337746,0.793314 -0.02817,0.07527 -0.108959,0.171108 -0.108887,0.171108 4.016295,-1.055795 5.303585,-2.916148 5.117658,-4.355454 z M 7.3475315,36.598932 c -0.1599142,0.05307 -0.3146563,0.102168 -0.4511007,0.155552 0.00125,0.07225 0.022131,0.149843 0.077776,0.217773 0.1308046,-0.215714 0.3733247,-0.373325 0.3733247,-0.373325 z M 5.683126,37.547799 c -0.8569939,1.45987 6.052429,2.551399 12.381931,0.699983 -0.263947,-0.09304 -0.473539,-0.210706 -0.668873,-0.326659 -5.389079,1.394733 -10.9883441,0.759176 -11.713058,-0.373324 z m 2.4266095,2.597716 c -0.1116399,0.0312 -0.2123605,0.06073 -0.3111037,0.09333 0.021509,0.02944 0.054707,0.04923 0.093331,0.07778 0.1015614,-0.105997 0.2177726,-0.171108 0.2177726,-0.171108 z M 6.6319928,40.93883 c -0.8397174,1.406465 5.5838392,3.006084 10.8575232,0.74665 -0.215201,-0.08363 -0.405273,-0.165124 -0.591098,-0.248884 -4.513679,1.66605 -9.6187608,0.68094 -10.2664252,-0.497766 z m -1.7421815,1.555519 c -0.474134,-0.01824 -1.0832727,0.07446 -1.6955158,0.233328 -0.5507542,0.244741 -0.9654598,0.555582 -0.5755421,0.824425 0.00274,-0.0025 0.012745,0.0025 0.015556,0 C 3.0332994,43.208156 4.053026,42.89884 4.4853777,42.805453 5.1965023,42.651615 5.6209065,42.681012 5.6209065,42.681012 5.460178,42.567829 5.1956997,42.506117 4.8898127,42.494349 Z m 17.3751477,0.264439 c 0,0 0.07735,0.07549 0.139997,0.186662 0.01661,-0.02744 0.03611,-0.05116 0.04667,-0.07778 -0.05839,-0.0332 -0.115951,-0.07698 -0.186662,-0.108886 z m 0.544432,0.404435 c -0.102315,0.162587 -0.310477,0.318521 -0.591098,0.48221 -0.0079,0.0065 -0.02276,0.009 -0.03111,0.01556 -0.187343,0.146867 -0.472521,0.311309 -0.933311,0.4511 -0.09606,0.02909 -0.219995,0.04977 -0.32666,0.07778 C 17.573269,45.298439 10.293745,46.053561 2.0587687,44.718742 1.172552,44.574927 0.69860501,44.368555 0.5188046,44.127645 0.25719171,44.566793 0.59428824,44.978851 2.0587687,45.216508 13.938147,47.142054 23.865978,44.740766 22.809392,43.163224 Z m 1.508853,1.244415 c 0,0 -0.08679,0.173395 -0.466655,0.435545 -0.01246,0.01259 -0.03375,0.01865 -0.04667,0.03111 -1.707675,1.647101 -7.393496,2.185711 -12.179714,2.099951 -0.0053,-9.5e-5 -0.01027,9.6e-5 -0.01556,0 -2.6105611,0.01545 -5.0538893,-0.150342 -6.8753938,-0.451101 0,0 0.7383135,0.608721 4.573226,0.855536 5.8350228,0.373054 14.7986388,-0.20977 15.0107588,-2.971042 z" />
  <path
     style="fill:url(#linearGradient3769);fill-opacity:1;fill-rule:evenodd;stroke-width:4.3107357;stroke-miterlimit:4;stroke-dasharray:none"
     id="path3672"
     inkscape:connector-curvature="0"
     d="m 15.619041,14.577583 c 1.358019,5.350067 -4.794046,6.976855 -7.0130134,10.308746 -1.5110692,2.270152 0.7417013,4.702006 3.8130864,7.472884 -1.197753,-2.707507 -5.2612485,-5.080154 0,-9.235718 6.5607,-5.178379 3.199927,-8.545912 3.199927,-8.545912 z m 4.043022,6.629788 c 7.2e-5,0 -11.0847901,2.766447 -5.786695,8.871655 1.564045,1.800393 -0.402386,3.410701 -0.402386,3.410701 0,0 3.96846,-2.032125 2.146059,-4.598698 -1.702685,-2.392376 -3.02414,-3.585155 4.043022,-7.683658 z m 1.801156,10.902746 c -0.339769,0.01743 -0.689916,0.08288 -1.053868,0.210773 -0.340437,0.120504 -0.517353,0.402386 -0.517353,0.402386 0,0 0.209939,-0.09147 0.689805,-0.191611 1.962331,-0.408897 4.777294,2.627995 -1.302965,5.786694 -0.02817,0.07527 -0.115039,0.172451 -0.114967,0.172451 7.357852,-1.934215 5.583794,-6.549175 2.299348,-6.380693 z m -13.1446101,0.30658 c -0.775193,0.02028 -2.6046459,0.186869 -4.7136646,1.207158 -3.32658776,1.60849 8.2358757,2.339742 14.2176397,0.76645 0.621876,-0.424382 1.475416,-0.785612 1.475416,-0.785612 0,0 -2.448364,0.42773 -4.886117,0.632322 -2.983713,0.250327 -6.1728373,0.310792 -7.7794633,0.09581 -3.8038729,-0.50854 2.0885753,-1.916124 2.0885753,-1.916124 0,0 -0.1439884,-0.0068 -0.4023861,0 z M 7.3413854,36.095655 C 1.853896,37.916909 10.402284,39.986863 18.07168,37.743521 17.256825,37.456276 16.730393,36.93875 16.730393,36.93875 12.980572,37.660412 10.813007,37.624367 8.0695127,37.341136 5.9484686,37.12192 7.3413854,36.095655 7.3413854,36.095655 Z m 0.7664497,3.544829 c -4.9826772,1.392214 3.0447279,4.270178 9.3890079,1.552061 -1.039088,-0.403807 -1.781996,-0.862256 -1.781996,-0.862256 -2.829158,0.534777 -4.157516,0.580614 -6.7255948,0.287419 C 6.8697852,40.37462 8.1078351,39.640484 8.1078351,39.640484 Z m -3.2190886,2.356833 c -2.1412053,-0.08237 -6.9859525,2.047416 -2.8358636,2.720896 12.9342291,2.096528 23.5696561,-0.93899 20.2151091,-2.452638 0,0 0.909796,0.757189 -1.015546,1.341286 -3.661074,1.10891 -15.2360122,1.437346 -18.4522739,0.03832 C 1.6448087,43.141948 3.8043413,42.451212 4.4863609,42.303897 5.1974854,42.15006 5.6168737,42.18893 5.6168737,42.18893 5.4561452,42.075747 5.1946335,42.009085 4.8887465,41.997317 Z m 19.4294975,1.916124 c 0,0 -0.413636,1.047248 -4.828632,1.877801 -4.980813,0.937724 -11.1111451,0.831452 -14.7541549,0.229935 0,0 0.7446237,0.615441 4.5795363,0.862256 5.8350236,0.373054 14.7911306,-0.20872 15.0032506,-2.969992 z" />
  <path
     style="fill:#d45500;fill-opacity:1;fill-rule:evenodd;stroke-width:4.3107357;stroke-miterlimit:4;stroke-dasharray:none"
     id="path2931"
     inkscape:connector-curvature="0"
     d="m 15.622893,14.572782 c 0.05652,0.222677 0.09311,0.443151 0.124441,0.653319 0.0021,0.0027 -0.0021,0.01276 0,0.01556 0.2251,0.293223 0.653163,0.974406 0.715539,1.975509 0.101217,-1.677002 -0.83998,-2.644382 -0.83998,-2.644382 z M 15.794,16.237188 C 15.637634,20.311713 10.578779,21.925902 8.6075016,24.885874 8.2193447,25.469021 8.0822098,26.067228 8.1408462,26.674721 8.1789418,26.236529 8.3241764,25.809293 8.6075016,25.38364 10.656736,22.306612 16.048935,20.681318 15.794,16.237188 Z m 3.873242,4.977661 c 5.9e-5,0 -7.516485,1.865423 -7.202053,5.942083 0.209581,-2.527847 3.441942,-4.144204 5.506538,-4.915441 0.01351,-0.0087 0.03306,-0.0068 0.04666,-0.01556 0.497321,-0.318371 1.027142,-0.650537 1.64885,-1.011088 z m -5.382095,5.288765 c -0.125039,0.969898 0.56838,1.796704 1.337746,2.87771 0.272248,0.383421 0.404788,0.765401 0.4511,1.119973 0.06002,-0.501287 -0.04597,-1.047172 -0.4511,-1.617739 -0.634482,-0.891486 -1.223468,-1.609182 -1.337746,-2.379944 z M 9.8052517,27.45248 c -0.098528,1.629056 1.1255993,2.985931 2.0221743,4.355454 0.01009,0.01541 0.02111,0.03125 0.03111,0.04667 0.184962,0.170684 0.367901,0.324474 0.559987,0.497766 C 11.707357,30.744783 9.9852762,29.267253 9.8052517,27.45248 Z m 4.6510013,4.324343 c -0.126554,1.002045 -0.979977,1.711071 -0.979977,1.711071 0,0 0.330278,-0.173372 0.74665,-0.466655 0.177168,-0.350414 0.297907,-0.775435 0.233327,-1.244416 z m 6.999836,0.326659 c -0.33977,0.01743 -0.678245,0.08988 -1.042198,0.217773 -0.340436,0.120503 -0.528876,0.404435 -0.528876,0.404435 0,0 0.220117,-0.08652 0.699983,-0.186662 0.31672,-0.066 0.644265,-0.03733 0.964422,0.06222 1.44794,-0.03533 2.586215,0.864948 2.737714,2.03773 0.149068,-1.430014 -1.14048,-2.622216 -2.831045,-2.535496 z M 8.3119534,32.414586 c -0.7751934,0.02028 -2.6042038,0.193016 -4.7132229,1.213305 -0.6088845,0.294411 -0.7143222,0.550879 -0.4511003,0.77776 0.096588,-0.09333 0.2431886,-0.179463 0.4511003,-0.279994 0.9257306,-0.447844 1.7985626,-0.723493 2.5510514,-0.902201 0.9957715,-0.433763 2.5666065,-0.80887 2.5666065,-0.80887 0,0 -0.1460373,-0.0068 -0.404435,0 z m 10.9819646,1.19775 c 0,0 -2.446577,0.417615 -4.88433,0.622207 -2.983714,0.250328 -6.1709691,0.308317 -7.7775952,0.09333 -0.5528625,-0.07391 -0.8977952,-0.159624 -1.0888633,-0.264438 -0.3733911,0.298793 -0.2401539,0.584528 1.0888633,0.762205 1.6066261,0.214985 4.7938812,0.156996 7.7775952,-0.09333 1.356278,-0.113828 2.591659,-0.280112 3.531028,-0.41999 0.605891,-0.388878 1.353302,-0.699983 1.353302,-0.699983 z m 3.65547,1.011087 c -0.126889,1.040839 -1.099694,2.366326 -3.671025,3.702135 -0.02817,0.07527 -0.108959,0.171108 -0.108887,0.171108 0.53018,-0.139373 1.00843,-0.302239 1.446633,-0.466656 1.916786,-1.281686 2.472902,-2.491965 2.333279,-3.406587 z M 7.3475315,36.101166 c -1.4903985,0.494651 -1.9459361,1.006689 -1.6644055,1.446633 0.1511561,-0.257491 0.5317566,-0.526658 1.2133048,-0.793315 -0.00562,-0.32804 0.4511007,-0.653318 0.4511007,-0.653318 z m 9.3797795,0.83998 C 12.97749,37.662809 10.806564,37.628813 8.0630702,37.345581 7.4205186,37.279172 7.108203,37.135828 6.9742068,36.972257 6.78291,37.287729 6.803377,37.713155 8.0630702,37.843347 c 2.7434938,0.283232 4.9144198,0.317228 8.6642408,-0.404435 0,0 0.261176,0.240197 0.668873,0.482211 0.225476,-0.05835 0.444529,-0.105485 0.668873,-0.171107 -0.814854,-0.287245 -1.337746,-0.80887 -1.337746,-0.80887 z M 8.1097355,39.647749 C 6.7776798,40.01994 6.3851412,40.489577 6.6319928,40.93883 6.7798279,40.691218 7.1536843,40.451813 7.7986318,40.238847 7.5921742,39.956282 8.1097355,39.647749 8.1097355,39.647749 Z m -0.2177726,0.668874 c -0.2234342,0.233191 -0.3527147,0.626192 1.1044185,0.793314 2.5680796,0.293195 3.8906836,0.254784 6.7198426,-0.279993 0,0 0.470773,0.28598 1.182194,0.606652 0.201098,-0.07423 0.392839,-0.163942 0.591098,-0.248883 -1.039089,-0.403806 -1.773292,-0.855535 -1.773292,-0.855535 -2.829159,0.534777 -4.151763,0.573188 -6.7198426,0.279993 -0.6068403,-0.0696 -0.9401954,-0.174195 -1.1044185,-0.295548 z m -3.0021516,1.67996 C 3.2058421,41.931799 -0.14338772,43.240391 0.51880275,44.127644 0.83439343,43.597888 2.0173076,43.033084 3.1942955,42.727677 3.6495714,42.525365 4.1960211,42.370187 4.4853764,42.307687 5.1965009,42.153849 5.6209051,42.183246 5.6209051,42.183246 5.4601766,42.070063 5.1956983,42.008351 4.8898113,41.996583 Z m 17.3751477,0.264439 c 0,0 0.319517,0.271893 0.186662,0.606652 0.167515,0.09524 0.288198,0.191674 0.35777,0.295549 0.201619,-0.320392 0.03912,-0.63889 -0.544432,-0.902201 z m 0.139997,0.684428 c -0.12953,0.214016 -0.448595,0.455757 -1.151084,0.668873 -3.661075,1.10891 -15.2321945,1.430133 -18.4484563,0.03111 -0.067396,-0.02935 -0.1253196,-0.06285 -0.1711072,-0.09333 -0.00278,0.0025 -0.012805,-0.0025 -0.015556,0 -0.2225193,0.196448 -0.2311253,0.409124 0.1866623,0.591097 3.1318716,1.362315 14.1632927,1.085963 18.1217967,0.04667 0.516377,-0.170677 0.941828,-0.347255 1.259971,-0.528876 0.0084,-0.0065 0.0232,-0.009 0.03111,-0.01556 0.333824,-0.275625 0.280638,-0.533219 0.186662,-0.699983 z m 1.913288,0.964422 c 0,0 -0.407112,1.051625 -4.822109,1.882178 -4.980813,0.937724 -11.118866,0.834845 -14.7618754,0.233327 0,0 0.7383135,0.608721 4.573226,0.855536 0.7245824,0.04633 1.5040494,0.0788 2.3021684,0.09333 0.0053,9.6e-5 0.01027,-9.4e-5 0.01556,0 2.606115,-0.01618 5.385381,-0.216481 7.870927,-0.684428 2.552348,-0.48015 3.737844,-1.034735 4.308787,-1.415522 0.01292,-0.01246 0.03421,-0.01852 0.04667,-0.03111 0.27659,-0.279441 0.440141,-0.588152 0.466655,-0.933311 z" />
</svg>
