<?xml version="1.0" encoding="UTF-8" standalone="no"?>
<!-- Created with Inkscape (http://www.inkscape.org/) -->

<svg
   xmlns:dc="http://purl.org/dc/elements/1.1/"
   xmlns:cc="http://creativecommons.org/ns#"
   xmlns:rdf="http://www.w3.org/1999/02/22-rdf-syntax-ns#"
   xmlns:svg="http://www.w3.org/2000/svg"
   xmlns="http://www.w3.org/2000/svg"
   xmlns:sodipodi="http://sodipodi.sourceforge.net/DTD/sodipodi-0.dtd"
   xmlns:inkscape="http://www.inkscape.org/namespaces/inkscape"
   version="1.1"
   width="48"
   height="48"
   id="svg1325"
   inkscape:version="0.91 r13725"
   sodipodi:docname="xfce4-panel-colorized.svg">
  <metadata
     id="metadata32">
    <rdf:RDF>
      <cc:Work
         rdf:about="">
        <dc:format>image/svg+xml</dc:format>
        <dc:type
           rdf:resource="http://purl.org/dc/dcmitype/StillImage" />
        <dc:title>Xfce Panel</dc:title>
      </cc:Work>
    </rdf:RDF>
  </metadata>
  <sodipodi:namedview
     pagecolor="#ffffff"
     bordercolor="#666666"
     borderopacity="1"
     objecttolerance="10"
     gridtolerance="10"
     guidetolerance="10"
     inkscape:pageopacity="0"
     inkscape:pageshadow="2"
     inkscape:window-width="1366"
     inkscape:window-height="713"
     id="namedview30"
     showgrid="false"
     inkscape:zoom="76.33108928870328"
     inkscape:cx="11.19780903021772"
     inkscape:cy="2.697216233418809"
     inkscape:window-x="0"
     inkscape:window-y="30"
     inkscape:window-maximized="1"
     inkscape:current-layer="svg1325"
     fit-margin-top="0"
     fit-margin-left="0"
     fit-margin-right="0"
     fit-margin-bottom="0" />
  <title
     id="title3450">Xfce Panel</title>
  <defs
     id="defs1327" />
  <g
     id="g4140"
     transform="translate(6.410854339599604,-14.80989074707029)">
    <path
       inkscape:connector-curvature="0"
       style="fill:#673AB7;fill-opacity:1;fill-rule:evenodd;stroke:#673AB7;stroke-width:0.2028944969pt;stroke-linecap:butt;stroke-linejoin:miter;stroke-opacity:1"
       id="path14"
       d="m 0.1406590552531454,29.74671571898708 c 0.1091572356200006,-0.0182605041 2.8309868189699965,1.41843537958999 4.6604864352999966,1.91491819661999 3.262340504709996,0.83369345941 6.240222934439998,3.34288961724002 7.679556446499999,4.78425207420001 0.10672250174,0.12335984992 1.23623612757001,-0.84566423431998 2.41829942631,-0.77586852976001 1.61463435142,0.09779514418 6.61070827317999,1.50263659294 7.27823114528,0.54598907258998 0.40477450755,-0.56161194831997 0.37576059547999,-1.25064163635997 0.88076498109001,-1.53286787195 0.27187861659999,-0.07608543375 -1.01061745469,-2.42174863263997 0.35242772913002,-3.1732698236 0.97186460709999,-0.48572940906 1.79541334200998,2.23366544041003 2.04497356470999,2.53841296439002 0.11179486399,0.13634509728001 0.70485545826,0.16961979364001 0.63465396472001,-0.14101167055 -0.07608543375,-0.33741353687001 -1.03537058247003,-2.94683957276003 0.14101167054995,-3.38468588218002 1.91065741233001,-0.75659355320999 1.57202650852,3.33883172744002 1.62173565857001,3.4552931647 0.10570802929004,0.24793706678 6.65433058853004,0.43906367636 7.05139510546002,3.38468588218004 0.22967656268002,1.62112697509999 -5.24644572242002,3.71641837333 -5.78208717602001,4.08974423492998 -0.53543855911001,0.37332586159998 -0.49080177130998,0.97044434567001 -0.2820233411,1.33991521195999 0.24002418166999,0.40071661775 1.83538355653999,1.75321128809003 1.62193855306,2.39740129383999 -0.14669271627004,0.37210849466 -3.12416935702001,-0.99174826712 -3.31428149414999,-0.70505835275002 -0.43358552512999,0.54761222851 2.16752183667,1.91836740294999 1.26930792944,2.89104358801 -0.35607982994998,0.23292287452001 -4.45292537203001,-1.71527001846003 -4.44257775304,-1.69234294109003 -0.10996881358,0.04179626494 -5.78898558868001,1.03739952737001 -10.15405764654,-0.28222623558997 -0.15379402342,-0.04341942086 -2.80156711792,2.55768794094002 -3.10266254108,2.46821147084999 -0.41167292020999,-0.15095350056 0.60685741959,-2.26227356349997 0.49364229417001,-2.67962752942996 -0.18503977488002,-0.23251708554005 -1.876976926989984,0.94406806197 -1.974366282189974,0.35263062361999 -0.116461437260011,-0.77728879119002 1.484781877819975,-1.67083612515002 1.410319599989965,-2.18598523526003 -0.41289028714999,-2.92655012375998 0.18443109141,-4.63553041302999 1.19870064691999,-6.06411051711997 0.33822511482998,-0.52590251808001 -3.975108848079976,-3.78317066054003 -7.097857943669986,-5.06871014918002 -3.122546201100008,-1.28553948864 -4.79317943176000316,-2.37508289994 -4.6075309734100038,-2.47673303942998 z" />
    <path
       inkscape:connector-curvature="0"
       style="fill:#ffffff;fill-opacity:1;fill-rule:evenodd;stroke:#673AB7;stroke-width:0.1217366934pt;stroke-linecap:butt;stroke-linejoin:miter;stroke-opacity:1"
       id="path7"
       d="m 28.20347479814954,39.53178944601308 c -0.03428916881,-0.11970774909999 2.13100082846999,-1.42939168205 2.44447281552,-1.12829625888999 0.56424957669001,0.20451764591999 -2.4245891555,1.28026423189998 -2.44447281552,1.12829625888999 z" />
    <path
       inkscape:connector-curvature="0"
       style="fill:#ffffff;fill-opacity:1;fill-rule:evenodd;stroke:#673AB7;stroke-width:0.1217366934pt;stroke-linecap:butt;stroke-linejoin:miter;stroke-opacity:1"
       id="path8"
       d="m 29.23762801367955,40.7227801023131 c -0.1907208206,-0.11524407032001 1.29629289660999,-1.84918038186 1.66109718962999,-1.66109718963002 0.53259803625,0.52914882992002 -1.68605321189998,1.7022847711 -1.66109718962999,1.66109718963002 z" />
    <path
       inkscape:connector-curvature="0"
       style="fill:#673AB7;fill-opacity:1;fill-rule:evenodd;stroke:#673AB7;stroke-width:0.1217366934pt;stroke-linecap:butt;stroke-linejoin:miter;stroke-opacity:1"
       id="path13"
       d="m 35.09823535732957,32.69972328424308 c -0.18077899059,-0.14953323913002 -1.59840279222,2.08717561863 -1.28493080517,2.31928691518999 0.18848898121,0.14101167055 1.36568281218999,-2.23954938062 1.28493080517,-2.31928691518999 z" />
    <ellipse
       style="fill:#ffffff;fill-opacity:1;fill-rule:evenodd;stroke:#673AB7;stroke-width:0.1131584287pt;stroke-linecap:butt;stroke-linejoin:miter;stroke-opacity:1"
       id="ellipse17"
       ry="0.6438236832618713"
       rx="0.5654746294021606"
       cy="35.90107727050781"
       cx="28.68653869628906" />
    <path
       inkscape:connector-curvature="0"
       style="fill:#673AB7;fill-opacity:1;fill-rule:evenodd;stroke:#673AB7;stroke-width:0.1217366934pt;stroke-linecap:butt;stroke-linejoin:miter;stroke-opacity:1"
       id="path18"
       d="m 33.46856652420056,32.38632636815437 c -0.08947647009,-0.10388197887998 -0.56424957669001,2.30650456232 -0.34471773851,2.41322706406001 0.18848898120998,0.14101167055 0.51677226603001,-2.28783826923999 0.34471773851,-2.41322706406001 z" />
    <path
       inkscape:connector-curvature="0"
       style="fill:#ffffff;fill-opacity:1;fill-rule:evenodd;stroke:#673AB7;stroke-width:0.1217366934pt;stroke-linecap:butt;stroke-linejoin:miter;stroke-opacity:1"
       id="path21"
       d="m 27.41727893884853,35.64838890741309 c -0.56222063179,0.39747030591 0.30860251929001,2.64675862204999 1.74083472420001,1.33342258827999 -1.12525284153998,0.03307180187 -1.50060764804,-0.29642884989 -1.74083472420001,-1.33342258827999 z" />
  </g>
</svg>
