<?xml version="1.0" encoding="UTF-8" standalone="no"?>
<svg
   xmlns:dc="http://purl.org/dc/elements/1.1/"
   xmlns:cc="http://creativecommons.org/ns#"
   xmlns:rdf="http://www.w3.org/1999/02/22-rdf-syntax-ns#"
   xmlns:svg="http://www.w3.org/2000/svg"
   xmlns="http://www.w3.org/2000/svg"
   xmlns:sodipodi="http://sodipodi.sourceforge.net/DTD/sodipodi-0.dtd"
   xmlns:inkscape="http://www.inkscape.org/namespaces/inkscape"
   fill="#4CAF50"
   width="48"
   height="48"
   viewBox="0 0 48 48"
   id="svg2"
   version="1.1"
   inkscape:version="0.91 r13725"
   sodipodi:docname="document-page-setup1.svg">
  <metadata
     id="metadata10">
    <rdf:RDF>
      <cc:Work
         rdf:about="">
        <dc:format>image/svg+xml</dc:format>
        <dc:type
           rdf:resource="http://purl.org/dc/dcmitype/StillImage" />
        <dc:title />
      </cc:Work>
    </rdf:RDF>
  </metadata>
  <defs
     id="defs8" />
  <sodipodi:namedview
     pagecolor="#ffffff"
     bordercolor="#666666"
     borderopacity="1"
     objecttolerance="10"
     gridtolerance="10"
     guidetolerance="10"
     inkscape:pageopacity="0"
     inkscape:pageshadow="2"
     inkscape:window-width="1366"
     inkscape:window-height="713"
     id="namedview6"
     showgrid="false"
     inkscape:snap-bbox="true"
     inkscape:bbox-paths="true"
     inkscape:bbox-nodes="true"
     inkscape:snap-bbox-midpoints="true"
     inkscape:zoom="5.368001444823898"
     inkscape:cx="-15.24776071398908"
     inkscape:cy="22.57474360556967"
     inkscape:window-x="0"
     inkscape:window-y="30"
     inkscape:window-maximized="1"
     inkscape:current-layer="svg2" />
  <path
     d="M 12 4 C 9.789999999999999 4 8.019531249999998 5.790000000000001 8.01953125 8 L 8 40 C 8 42.21 9.770468750000001 44 11.98046875 44 L 36 44 C 38.21 44 40 42.21 40 40 L 40 16 L 28 4 L 12 4 z M 26 7 L 37 18 L 26 18 L 26 7 z M 22.3515625 21.771484375 L 25.642578125 21.771484375 C 25.84828942774621 21.771484375 26.0217736915606 21.91970464936364 26.0546875 22.1171875 L 26.359375 24.298828125 C 26.86131057870072 24.50453942774619 27.32212049028792 24.77437754060609 27.75 25.103515625 L 29.798828125 24.279296875 C 29.97985407141667 24.21346925812123 30.2020398246818 24.27991155358335 30.30078125 24.4609375 L 31.947265625 27.310546875 C 32.04600705031817 27.49157282141665 32.00399684008712 27.71251071835229 31.84765625 27.8359375 L 30.111328125 29.193359375 C 30.1442419334394 29.45666984251514 30.16796875 29.72846108037503 30.16796875 30 C 30.16796874999999 30.27976737173482 30.1442419334394 30.54333015748487 30.111328125 30.806640625 L 31.83984375 32.1640625 C 31.99618434008711 32.28748928164772 32.04446987742801 32.50842717858335 31.9375 32.689453125 L 30.29296875 35.5390625 C 30.19422732468182 35.72008844641692 29.9802700235265 35.7928060689886 29.791015625 35.71875 L 27.7421875 34.89453125 C 27.31430799028791 35.21544088228408 26.85154495370074 35.49546057225379 26.349609375 35.701171875 L 26.046875 37.8828125 C 26.01396119156062 38.08029535063638 25.8482894277462 38.228515625 25.642578125 38.228515625 L 22.3515625 38.228515625 C 22.15407964936366 38.228515625 21.9821325584394 38.08029535063637 21.94921875 37.8828125 L 21.64453125 35.701171875 C 21.14259567129929 35.49546057225378 20.68178575971209 35.22366933439392 20.25390625 34.89453125 L 18.205078125 35.71875 C 18.02405217858337 35.78457761687879 17.81009487742803 35.72008844641663 17.703125 35.5390625 L 16.056640625 32.689453125 C 15.95789919968186 32.50842717858337 15.99990940991289 32.28748928164773 16.15625 32.1640625 L 17.892578125 30.806640625 C 17.8596643165606 30.54333015748486 17.833984375 30.27153891962501 17.833984375 30 C 17.833984375 29.72846108037505 17.8596643165606 29.45666984251513 17.892578125 29.193359375 L 16.15625 27.8359375 C 15.9999094099129 27.71251071835229 15.94967074757199 27.49157282141665 16.056640625 27.310546875 L 17.703125 24.4609375 C 17.80186642531817 24.27991155358335 18.0158237264735 24.2052408060114 18.205078125 24.279296875 L 20.25390625 25.103515625 C 20.6817857597121 24.78260599271592 21.14259567129929 24.50453942774619 21.64453125 24.298828125 L 21.94921875 22.1171875 C 21.97390410632955 21.91970464936363 22.1458511972538 21.771484375 22.3515625 21.771484375 z M 23.998046875 27.53125 C 22.63212382476528 27.53125 21.529296875 28.63407694976527 21.529296875 30 C 21.529296875 31.36592305023474 22.63212382476528 32.46875 23.998046875 32.46875 C 25.36396992523474 32.46874999999999 26.466796875 31.36592305023474 26.466796875 30 C 26.466796875 28.63407694976527 25.36396992523474 27.53125 23.998046875 27.53125 z "
     id="path4160" />
</svg>
