<?xml version="1.0" encoding="UTF-8" standalone="no"?>
<svg
   xmlns:dc="http://purl.org/dc/elements/1.1/"
   xmlns:cc="http://creativecommons.org/ns#"
   xmlns:rdf="http://www.w3.org/1999/02/22-rdf-syntax-ns#"
   xmlns:svg="http://www.w3.org/2000/svg"
   xmlns="http://www.w3.org/2000/svg"
   xmlns:sodipodi="http://sodipodi.sourceforge.net/DTD/sodipodi-0.dtd"
   xmlns:inkscape="http://www.inkscape.org/namespaces/inkscape"
   fill="#3E2723"
   width="48"
   height="48"
   viewBox="0 0 48 48"
   id="svg2"
   version="1.1"
   inkscape:version="0.91 r13725"
   sodipodi:docname="xfce-display-internal.svg">
  <metadata
     id="metadata10">
    <rdf:RDF>
      <cc:Work
         rdf:about="">
        <dc:format>image/svg+xml</dc:format>
        <dc:type
           rdf:resource="http://purl.org/dc/dcmitype/StillImage" />
        <dc:title></dc:title>
      </cc:Work>
    </rdf:RDF>
  </metadata>
  <defs
     id="defs8" />
  <sodipodi:namedview
     pagecolor="#ffffff"
     bordercolor="#666666"
     borderopacity="1"
     objecttolerance="10"
     gridtolerance="10"
     guidetolerance="10"
     inkscape:pageopacity="0"
     inkscape:pageshadow="2"
     inkscape:window-width="1366"
     inkscape:window-height="713"
     id="namedview6"
     showgrid="false"
     inkscape:snap-bbox="true"
     inkscape:bbox-nodes="true"
     inkscape:zoom="8.288376249785745"
     inkscape:cx="11.49237490534867"
     inkscape:cy="24.98818948057598"
     inkscape:window-x="0"
     inkscape:window-y="30"
     inkscape:window-maximized="1"
     inkscape:current-layer="svg2"
     inkscape:object-paths="true"
     inkscape:snap-intersection-paths="true"
     inkscape:object-nodes="true"
     inkscape:snap-smooth-nodes="true"
     inkscape:snap-midpoints="true"
     inkscape:snap-nodes="false" />
  <path
     id="rect4278"
     style="opacity:1;fill:#3E2723;fill-opacity:1;fill-rule:nonzero;stroke:none;stroke-width:4;stroke-miterlimit:4;stroke-dasharray:none;stroke-opacity:1"
     d="m 3.63671875,14.00000000000006 c -2.014545514583588,0 -3.63671875,1.56099999999998 -3.63671875,3.5 l 0,21 c 0,1.93899999999999 1.622173235416412,3.5 3.63671875,3.5 l 32.7265625,0 c 2.01454551458359,0 3.63671875,-1.56100000000001 3.63671875,-3.5 l 0,-21 c 0,-1.93900000000002 -1.62217323541641,-3.5 -3.63671875,-3.5 l -32.7265625,0 z m 0.36328125,4 32,0 0,20 -32,0 0,-20 z M 14,10 l 4,0 0,-4 -4,0 0,4 z m 30,24.00000000000004 c 2.21000000000001,0 4,-1.79000000000007 4,-4.00000000000007 l -4,0 0,4.00000000000007 z m 0,-18.00000000000003 4,0 L 48,12 l -4,0 0,4.00000000000001 z m 0,11.99999999999998 4,0 0,-4 -4,0 0,4 z M 24,6.000000000000007 l -4,0 L 20,10 l 4,0 0,-3.999999999999996 z m 20,-9e-16 L 44,10 48,10 C 48,7.790000000000003 46.21,6.000000000000006 44,6.000000000000006 Z m -32,0 C 9.789999999999999,6.000000000000006 8,7.790000000000003 8,10 l 4,0 0,-3.999999999999996 z M 32,10 l 4,0 0,-3.999999999999996 -4,0 L 32,10 Z m 6,0 4,0 0,-3.999999999999996 -4,0 L 38,10 Z m -12,0 4,0 0,-3.999999999999996 -4,0 L 26,10 Z m -14,2.00000000000001 -4,0 0,4 4,0 0,-4 z M 44,22 l 4,0 0,-3.99999999999999 -4,0 L 44,22 Z m -6,12.00000000000005 4,0 0,-4.00000000000006 -4,0 0,4.00000000000006 z" />
</svg>
