<?xml version="1.0" encoding="UTF-8" standalone="no"?>
<svg
   xmlns:dc="http://purl.org/dc/elements/1.1/"
   xmlns:cc="http://creativecommons.org/ns#"
   xmlns:rdf="http://www.w3.org/1999/02/22-rdf-syntax-ns#"
   xmlns:svg="http://www.w3.org/2000/svg"
   xmlns="http://www.w3.org/2000/svg"
   xmlns:sodipodi="http://sodipodi.sourceforge.net/DTD/sodipodi-0.dtd"
   xmlns:inkscape="http://www.inkscape.org/namespaces/inkscape"
   fill="#9E9E9E"
   width="48"
   height="48"
   viewBox="0 0 48 48"
   id="svg2"
   version="1.1"
   inkscape:version="0.91 r13725"
   sodipodi:docname="folder-.svg">
  <metadata
     id="metadata10">
    <rdf:RDF>
      <cc:Work
         rdf:about="">
        <dc:format>image/svg+xml</dc:format>
        <dc:type
           rdf:resource="http://purl.org/dc/dcmitype/StillImage" />
        <dc:title />
      </cc:Work>
    </rdf:RDF>
  </metadata>
  <defs
     id="defs8" />
  <sodipodi:namedview
     pagecolor="#ffffff"
     bordercolor="#666666"
     borderopacity="1"
     objecttolerance="10"
     gridtolerance="10"
     guidetolerance="10"
     inkscape:pageopacity="0"
     inkscape:pageshadow="2"
     inkscape:window-width="1366"
     inkscape:window-height="713"
     id="namedview6"
     showgrid="false"
     inkscape:zoom="11.02408851011358"
     inkscape:cx="21.8722285788773"
     inkscape:cy="20.79927136877932"
     inkscape:window-x="0"
     inkscape:window-y="30"
     inkscape:window-maximized="1"
     inkscape:current-layer="svg2"
     inkscape:snap-bbox="true"
     inkscape:bbox-paths="true"
     inkscape:bbox-nodes="true" />
  <path
     d="M 8 8 C 5.79 8 4.01953125 9.789999999999999 4.01953125 12 L 4 36 C 4 38.21 5.790000000000001 40 8 40 L 40 40 C 42.21 40 44 38.21 44 36 L 44 16 C 44 13.79 42.21 12 40 12 L 24 12 L 20 8 L 8 8 z M 6.962890625 16.74609375 C 7.072047860620004 16.7278332459 9.793547258669994 18.16562655797 11.623046875 18.662109375 C 14.88538737970999 19.49580283441 17.86340086293999 22.00395004304 19.302734375 23.4453125 C 19.40945687674 23.56867234991998 20.53863982626 22.60012617044002 21.720703125 22.669921875 C 23.33533747642 22.76771701918 28.33052400290001 24.17344439535005 28.998046875 23.216796875 C 29.40282138255 22.65518492668004 29.37390186439 21.96581998559003 29.87890625 21.68359375 C 30.1507848666 21.60750831625 28.86937669117997 19.26128681596002 30.232421875 18.509765625 C 31.2042864821 18.02403621594002 32.02778352729998 20.74408060102001 32.27734375 21.048828125 C 32.38913861399 21.18517322228001 32.98231086854 21.21883458919001 32.912109375 20.908203125 C 32.83602394125 20.57078958813 31.87635212197997 17.96128380942 33.052734375 17.5234375 C 34.96339178732998 16.76684394679 34.62411897495 20.86205418774004 34.673828125 20.978515625 C 34.77953615429005 21.22645269178 41.32949798307003 21.41765904417995 41.7265625 24.36328125 C 41.95623906268001 25.98440822510002 36.4790008286 28.07979913840002 35.943359375 28.453125 C 35.40792081589001 28.82645086160001 35.45333094479001 29.42349788371005 35.662109375 29.79296875 C 35.90213355666998 30.19368536775004 37.49664812848 31.54526311925003 37.283203125 32.189453125 C 37.13651040872997 32.56156161966 34.15886213712999 31.19768508563001 33.96875 31.484375 C 33.53516447487001 32.03198722850999 36.13649515722998 33.40232381494 35.23828125 34.375 C 34.88220142005 34.60792287452002 30.78652738100999 32.66066667262999 30.796875 32.68359375 C 30.68690618642 32.72539001494 25.00765018286 33.72001638796 20.642578125 32.400390625 C 20.48878410157999 32.35697120414 17.84015792316001 34.95861709509001 17.5390625 34.869140625 C 17.12738957979001 34.71818712444 18.14641825042002 32.60680709092998 18.033203125 32.189453125 C 17.84816335011998 31.95693603945999 16.1559831052 33.13440618834998 16.05859375 32.54296875 C 15.94213231273998 31.76567995880999 17.54321227783003 30.87061786010998 17.46875 30.35546875 C 17.05585971285001 27.42891862623999 17.65369919449003 25.72154885408999 18.66796875 24.29296875 C 19.00619386482999 23.76706623192001 14.69306159558999 20.50819573863999 11.5703125 19.22265625 C 8.447766298900007 17.93711676136002 6.777242166650005 16.84774388948999 6.962890625 16.74609375 z M 40.291015625 19.38671875 C 40.46307015251999 19.51210754481999 40.13380148120998 21.93983979554999 39.9453125 21.798828125 C 39.72578066181999 21.69210562326001 40.20153915491 19.28283677112001 40.291015625 19.38671875 z M 41.919921875 19.69921875 C 42.00067388202 19.77895628457 40.82325460621 22.16054292055 40.634765625 22.01953125 C 40.32129363795001 21.78741995344 41.73914288441 19.54968551087 41.919921875 19.69921875 z M 35.5078125 22.2578125 A 0.5654746294021606 0.6438236832618713 0 0 0 34.943359375 22.900390625 A 0.5654746294021606 0.6438236832618713 0 0 0 35.5078125 23.544921875 A 0.5654746294021606 0.6438236832618713 0 0 0 36.07421875 22.900390625 A 0.5654746294021606 0.6438236832618713 0 0 0 35.5078125 22.2578125 z M 34.23828125 22.6484375 C 33.67606061820998 23.04590780591001 34.54823654509001 25.29575790877 35.98046875 23.982421875 C 34.85521590846002 24.01549367687 34.47850832615999 23.68543123839 34.23828125 22.6484375 z M 37.2734375 25.361328125 C 36.64945451736344 25.41193603423616 34.99538760229125 26.42650571953751 35.025390625 26.53125 C 35.04527428502001 26.68321797300997 38.03299957668999 25.60881452091999 37.46875 25.404296875 C 37.42956600161875 25.366659947105 37.36257792609094 25.35409842368055 37.2734375 25.361328125 z M 37.720703125 26.0625 C 37.35589883197999 25.87441680776999 35.8678729294 27.60741217967999 36.05859375 27.72265625 C 36.03363772773 27.76384383146999 38.25330116124999 26.59164882991999 37.720703125 26.0625 z "
     id="path4184" />
</svg>
