<svg xmlns="http://www.w3.org/2000/svg" fill="#9E9E9E" viewBox="0 0 48 48"><path d="m8 8c-2.21 0-3.98 1.79-3.98 4l-.02 24c0 2.21 1.79 4 4 4h32c2.21 0 4-1.79 4-4v-20c0-2.21-1.79-4-4-4h-16l-4-4h-12" fill="#87cf3e"/><g fill-rule="evenodd"><path d="m37.913 32.18c0-2.564 0-8.613 0-8.613 0-2.878-2.524-5.21-5.637-5.21h-3.232v-.007l-8.741-.038v3.143c0 0 .714 0 1.342 0 .937 0 1.102.647 1.102 1.541l.007 5.556c0 2.878 2.524 5.21 5.634 5.21h7.679c.984 0 1.846-.623 1.846-1.582" fill="#c7f994"/><g fill="#4c7523"><path d="m30.19 21.623c-.701 0-1.323.26-1.824.766-.5.505-.763 1.136-.763 1.847v3.597h1.632v-3.597c0-.273.089-.486.284-.683.195-.197.402-.287.671-.287.274 0 .478.089.674.287.195.197.284.41.284.683v3.597h1.632v-3.597c0-.273.089-.486.284-.683.196-.198.4-.287.674-.287.269 0 .476.089.671.287.195.197.284.41.284.683l.009 4.203c0 .897-.854 1.652-1.951 1.652l-5.261-.021c-.847 0-1.57-.824-1.57-1.883v-7.915h-1.543v8.22c0 .872.319 1.637.94 2.255.531.524 1.169.863 1.886.94h5.858c.9 0 1.691-.335 2.329-.984h.003c.543-.558.86-1.226.937-1.977l-.006-4.49c0-.712-.263-1.342-.763-1.847-.5-.505-1.123-.766-1.824-.766-.688 0-1.29.256-1.776.724-.485-.468-1.083-.724-1.771-.724"/><path d="m28.337 34.95c-3.709 0-6.927-2.812-6.927-6.517l-.003-4.499v-1.147h-2.351v-5.717l9.916.047 3.102.007c3.712 0 6.927 2.808 6.927 6.517v11.31h-10.663m9.152-3.034c0-2.464 0-8.276 0-8.276 0-2.765-2.425-5.01-5.416-5.01h-3.105v-.007l-8.398-.037v2.685c0 0 .337 0 .941 0 .639 0 1.407.6 1.407 1.481l.007 5.673c0 2.765 2.425 5.01 5.413 5.01h7.378c.946 0 1.774-.599 1.774-1.52"/></g></g></svg>