<?xml version="1.0" encoding="UTF-8" standalone="no"?>
<svg
   xmlns:dc="http://purl.org/dc/elements/1.1/"
   xmlns:cc="http://creativecommons.org/ns#"
   xmlns:rdf="http://www.w3.org/1999/02/22-rdf-syntax-ns#"
   xmlns:svg="http://www.w3.org/2000/svg"
   xmlns="http://www.w3.org/2000/svg"
   xmlns:sodipodi="http://sodipodi.sourceforge.net/DTD/sodipodi-0.dtd"
   xmlns:inkscape="http://www.inkscape.org/namespaces/inkscape"
   fill="#673AB7"
   width="48"
   height="48"
   viewBox="0 0 48 48"
   id="svg2"
   version="1.1"
   inkscape:version="0.91 r13725"
   sodipodi:docname="text-xml1.svg">
  <metadata
     id="metadata10">
    <rdf:RDF>
      <cc:Work
         rdf:about="">
        <dc:format>image/svg+xml</dc:format>
        <dc:type
           rdf:resource="http://purl.org/dc/dcmitype/StillImage" />
      </cc:Work>
    </rdf:RDF>
  </metadata>
  <defs
     id="defs8" />
  <sodipodi:namedview
     pagecolor="#ffffff"
     bordercolor="#666666"
     borderopacity="1"
     objecttolerance="10"
     gridtolerance="10"
     guidetolerance="10"
     inkscape:pageopacity="0"
     inkscape:pageshadow="2"
     inkscape:window-width="1366"
     inkscape:window-height="713"
     id="namedview6"
     showgrid="false"
     inkscape:snap-page="true"
     inkscape:snap-bbox="true"
     inkscape:bbox-paths="true"
     inkscape:bbox-nodes="true"
     inkscape:snap-bbox-edge-midpoints="false"
     inkscape:zoom="4.9166667"
     inkscape:cx="9.6761826"
     inkscape:cy="28.097131"
     inkscape:window-x="0"
     inkscape:window-y="30"
     inkscape:window-maximized="1"
     inkscape:current-layer="svg2" />
  <g
     style="fill:#673AB7"
     id="g4183">
    <path
       d="M 24 4 C 12.95 4 4 12.95 4 24 C 4 27.936048 5.1517017 31.59394 7.1132812 34.6875 L 12.103516 34.6875 C 9.5541482 31.857009 8 28.112311 8 24 C 8 22.77 8.1499219 21.569922 8.4199219 20.419922 L 18 30 L 18 32 C 18 33.039538 18.407124 33.9764 19.056641 34.6875 L 35.748047 34.6875 C 35.207329 33.122237 33.741271 32 32 32 L 30 32 L 30 26 C 30 24.9 29.1 24 28 24 L 16 24 L 16 20 L 20 20 C 21.1 20 22 19.1 22 18 L 22 14 L 26 14 C 28.21 14 30 12.21 30 10 L 30 9.1699219 C 35.86 11.539922 40 17.28 40 24 C 40 28.112245 38.432039 31.849181 35.875 34.6875 L 40.886719 34.6875 C 42.848298 31.59394 44 27.936048 44 24 C 44 12.95 35.05 4 24 4 z "
       id="path4175" />
  </g>
  <g
     id="layer1"
     transform="matrix(0.19898122,0,0,0.19898122,-18.226213,-14.167009)">
    <path
       style="font-style:normal;font-variant:normal;font-weight:bold;font-stretch:normal;font-size:72px;line-height:125%;font-family:Arial;-inkscape-font-specification:'Arial Bold';text-align:center;writing-mode:lr-tb;text-anchor:middle;fill:#0000ff;fill-opacity:1;fill-rule:nonzero;stroke:none;stroke-width:1;stroke-linejoin:round;stroke-miterlimit:4;stroke-opacity:1"
       id="flowRoot2411"
       transform="translate(0,2.9395703)"
       d="m 126.92969,296.6652 -35.332034,-15.36328 0,-8.50782 35.332034,-15.29297 0,10.01954 -24.64453,9.42187 24.64453,9.77344 0,9.94922 z"
       inkscape:connector-curvature="0" />
    <path
       style="font-style:normal;font-variant:normal;font-weight:bold;font-stretch:normal;font-size:72px;line-height:125%;font-family:Arial;-inkscape-font-specification:'Arial Bold';text-align:center;writing-mode:lr-tb;text-anchor:middle;fill:#d40000;fill-opacity:1;fill-rule:nonzero;stroke:none;stroke-width:1;stroke-linejoin:round;stroke-miterlimit:4;stroke-opacity:1"
       id="flowRoot2419"
       transform="translate(-90.571429,-14.078125)"
       d="m 225.54688,312.53629 13.46484,-19.23047 -12.90234,-18.10547 12.05859,0 6.60937,10.26563 6.96094,-10.26563 11.60156,0 -12.65625,17.6836 13.81641,19.65234 -12.12891,0 -7.59375,-11.56641 -7.66406,11.56641 -11.5664,0 z m 44.08593,-37.33594 9.10547,0 0,5.09766 c 3.2578,-3.9609 7.1367,-5.94137 11.63672,-5.94141 2.3906,4e-5 4.46481,0.49223 6.22266,1.47657 1.75778,0.98441 3.19918,2.47269 4.32422,4.46484 1.64058,-1.99215 3.41011,-3.48043 5.30859,-4.46484 1.89839,-0.98434 3.92574,-1.47653 6.08203,-1.47657 2.74214,4e-5 5.06245,0.55668 6.96094,1.66992 1.89838,1.11332 3.31635,2.74809 4.2539,4.9043 0.67963,1.59378 1.01948,4.1719 1.01954,7.73438 l 0,23.87109 -9.87891,0 0,-21.33984 c -5e-5,-3.7031 -0.33989,-6.09373 -1.01953,-7.17188 -0.91411,-1.40622 -2.32036,-2.10934 -4.21875,-2.10937 -1.38286,3e-5 -2.68364,0.4219 -3.90235,1.26562 -1.21879,0.84378 -2.09769,2.08011 -2.63672,3.70899 -0.53909,1.62893 -0.80863,4.20119 -0.80859,7.71679 l 0,17.92969 -9.87891,0 0,-20.46094 c -2e-5,-3.63279 -0.1758,-5.97653 -0.52734,-7.03125 -0.35159,-1.05466 -0.89651,-1.83981 -1.63476,-2.35547 -0.73831,-0.51559 -1.74026,-0.7734 -3.00586,-0.77343 -1.52346,3e-5 -2.89455,0.41018 -4.11328,1.23047 -1.21877,0.82034 -2.09182,2.00393 -2.61915,3.55078 -0.52735,1.5469 -0.79103,4.1133 -0.79101,7.69922 l 0,18.14062 -9.87891,0 0,-37.33594 z m 64.72266,37.33594 0,-51.53906 9.87891,0 0,51.53906 -9.87891,0 z"
       inkscape:connector-curvature="0" />
    <path
       style="font-style:normal;font-variant:normal;font-weight:bold;font-stretch:normal;font-size:72px;line-height:125%;font-family:Arial;-inkscape-font-specification:'Arial Bold';text-align:center;writing-mode:lr-tb;text-anchor:middle;fill:#0000ff;fill-opacity:1;fill-rule:nonzero;stroke:none;stroke-width:1;stroke-linejoin:round;stroke-miterlimit:4;stroke-opacity:1"
       id="flowRoot2429"
       transform="translate(-93.714286,9.714286)"
       d="m 367.76953,289.1027 12.76172,-53.29688 7.41797,0 -12.90234,53.29688 -7.27735,0 z"
       inkscape:connector-curvature="0" />
    <path
       style="font-style:normal;font-variant:normal;font-weight:bold;font-stretch:normal;font-size:72px;line-height:125%;font-family:Arial;-inkscape-font-specification:'Arial Bold';text-align:center;writing-mode:lr-tb;text-anchor:middle;fill:#0000ff;fill-opacity:1;fill-rule:nonzero;stroke:none;stroke-width:1;stroke-linejoin:round;stroke-miterlimit:4;stroke-opacity:1"
       id="text2439"
       d="m 297.45926,299.60477 0,-9.94922 24.67969,-9.70313 -24.67969,-9.59765 0,-9.87891 35.36719,15.29297 0,8.4375 -35.36719,15.39844 z"
       inkscape:connector-curvature="0" />
  </g>
  <rect
     style="opacity:1;fill:#000000;fill-opacity:1;fill-rule:nonzero;stroke:#000000;stroke-width:6;stroke-miterlimit:4;stroke-dasharray:none;stroke-opacity:1"
     id="rect4186"
     width="48"
     height="10.761834"
     x="4.8813562"
     y="70.770752" />
  <rect
     style="opacity:1;fill:#000000;fill-opacity:1;fill-rule:nonzero;stroke:none;stroke-width:6;stroke-miterlimit:4;stroke-dasharray:none;stroke-opacity:1"
     id="rect4154-0"
     width="54"
     height="16.761833"
     x="-1.9830506"
     y="51.008915" />
</svg>
