<?xml version="1.0" encoding="UTF-8" standalone="no"?>
<svg
   xmlns:dc="http://purl.org/dc/elements/1.1/"
   xmlns:cc="http://creativecommons.org/ns#"
   xmlns:rdf="http://www.w3.org/1999/02/22-rdf-syntax-ns#"
   xmlns:svg="http://www.w3.org/2000/svg"
   xmlns="http://www.w3.org/2000/svg"
   xmlns:sodipodi="http://sodipodi.sourceforge.net/DTD/sodipodi-0.dtd"
   xmlns:inkscape="http://www.inkscape.org/namespaces/inkscape"
   fill="#673AB7"
   width="48"
   height="48"
   viewBox="0 0 48 48"
   id="svg2"
   version="1.1"
   inkscape:version="0.91 r13725"
   sodipodi:docname="text-x-javascript8.svg">
  <metadata
     id="metadata10">
    <rdf:RDF>
      <cc:Work
         rdf:about="">
        <dc:format>image/svg+xml</dc:format>
        <dc:type
           rdf:resource="http://purl.org/dc/dcmitype/StillImage" />
        <dc:title></dc:title>
      </cc:Work>
    </rdf:RDF>
  </metadata>
  <defs
     id="defs8" />
  <sodipodi:namedview
     pagecolor="#ffffff"
     bordercolor="#666666"
     borderopacity="1"
     objecttolerance="10"
     gridtolerance="10"
     guidetolerance="10"
     inkscape:pageopacity="0"
     inkscape:pageshadow="2"
     inkscape:window-width="1366"
     inkscape:window-height="713"
     id="namedview6"
     showgrid="false"
     inkscape:zoom="4.9166667"
     inkscape:cx="9.7903658"
     inkscape:cy="19.143365"
     inkscape:window-x="0"
     inkscape:window-y="30"
     inkscape:window-maximized="1"
     inkscape:current-layer="g4269"
     inkscape:snap-bbox="true"
     inkscape:bbox-paths="true"
     inkscape:bbox-nodes="true"
     inkscape:snap-bbox-edge-midpoints="true"
     inkscape:snap-bbox-midpoints="true"
     inkscape:snap-page="true" />
  <path
     style="fill:#f7df1e;fill-opacity:1"
     inkscape:connector-curvature="0"
     d="M 28,4 12,4 C 9.79,4 8.02,5.79 8.02,8 L 8,40 c 0,2.21 1.77,4 3.98,4 L 36,44 c 2.21,0 4,-1.79 4,-4 L 40,16 28,4 Z m 4,32 -16,0 0,-4 16,0 0,4 z m 0,-8 -16,0 0,-4 16,0 0,4 z M 26,18 26,7 37,18 26,18 Z"
     id="path4198" />
  <g
     id="g4269"
     transform="matrix(0.03492063,0,0,0.03492063,2.0000031,24)">
    <g
       id="g4292"
       transform="translate(-19.085234,10.503409)">
      <rect
         style="fill:#f7df1e;stroke:#000000;stroke-width:3.86590958;stroke-miterlimit:4;stroke-dasharray:none;stroke-opacity:1"
         y="44.836369"
         x="21.018101"
         width="572.72736"
         height="572.72736"
         id="rect4259" />
      <path
         style="fill:#000000;fill-opacity:1"
         inkscape:connector-curvature="0"
         d="m 405.74543,492.28188 c 11.53637,18.83637 26.54546,32.68182 53.09092,32.68182 22.3,0 36.54546,-11.14545 36.54546,-26.54545 0,-18.45455 -14.63637,-24.99092 -39.18183,-35.72728 l -13.45454,-5.77273 c -38.83637,-16.54546 -64.63638,-37.27273 -64.63638,-81.09092 0,-40.36364 30.75455,-71.09092 78.8182,-71.09092 34.21818,0 58.81819,11.90909 76.54546,43.09092 l -41.9091,26.90909 c -9.22727,-16.54546 -19.18182,-23.06364 -34.63636,-23.06364 -15.76364,0 -25.75455,10 -25.75455,23.06364 0,16.14546 10,22.68182 33.09091,32.68182 l 13.45455,5.76364 c 45.72728,19.60909 71.54546,39.60001 71.54546,84.54547 0,48.45455 -38.06364,75.00001 -89.18183,75.00001 -49.98182,0 -82.27274,-23.81819 -98.07274,-55.03637 z m -190.11821,4.66364 c 8.45455,15 16.14546,27.68182 34.63637,27.68182 17.68182,0 28.83637,-6.91818 28.83637,-33.81819 l 0,-183.00002 53.81819,0 0,183.7273 c 0,55.72728 -32.67273,81.09092 -80.36365,81.09092 -43.09092,0 -68.04546,-22.30001 -80.73638,-49.1591 z"
         id="path4261" />
    </g>
  </g>
</svg>
