<?xml version="1.0" encoding="UTF-8" standalone="no"?>
<svg
   xmlns:dc="http://purl.org/dc/elements/1.1/"
   xmlns:cc="http://creativecommons.org/ns#"
   xmlns:rdf="http://www.w3.org/1999/02/22-rdf-syntax-ns#"
   xmlns:svg="http://www.w3.org/2000/svg"
   xmlns="http://www.w3.org/2000/svg"
   xmlns:sodipodi="http://sodipodi.sourceforge.net/DTD/sodipodi-0.dtd"
   xmlns:inkscape="http://www.inkscape.org/namespaces/inkscape"
   height="320.2713012695312"
   viewBox="0 0 436.1999816894531 320.2730621183517"
   id="svg2"
   version="1.1"
   inkscape:version="0.91 r13725"
   sodipodi:docname="emblem-greenraccoon23.svg"
   width="436.1999816894531">
  <metadata
     id="metadata518">
    <rdf:RDF>
      <cc:Work
         rdf:about="">
        <dc:format>image/svg+xml</dc:format>
        <dc:type
           rdf:resource="http://purl.org/dc/dcmitype/StillImage" />
        <dc:title></dc:title>
      </cc:Work>
    </rdf:RDF>
  </metadata>
  <defs
     id="defs516" />
  <sodipodi:namedview
     pagecolor="#ffffff"
     bordercolor="#666666"
     borderopacity="1"
     objecttolerance="10"
     gridtolerance="10"
     guidetolerance="10"
     inkscape:pageopacity="0"
     inkscape:pageshadow="2"
     inkscape:window-width="1366"
     inkscape:window-height="713"
     id="namedview514"
     showgrid="false"
     inkscape:zoom="0.9482542924669252"
     inkscape:cx="330.7565555990004"
     inkscape:cy="199.2005342120206"
     inkscape:window-x="0"
     inkscape:window-y="30"
     inkscape:window-maximized="1"
     inkscape:current-layer="svg2"
     fit-margin-top="0"
     fit-margin-left="0"
     fit-margin-right="0"
     fit-margin-bottom="0" />
  <path
     style="fill:#fefefe;fill-opacity:1;stroke:none"
     d="M 112.585356142409,0.0010822949701069 C 103.6563827626995,0.0283368473454462 101.7330073030446,0.5893802293672968 95.75518472386478,3.524539326309748 82.34476890817219,10.10916164553085 74.12812625146646,21.36862889166572 70.64371740017645,37.93293318501843 c -3.2932786245957,15.6557027572691 -1.82008459503612,34.57035486646477 4.40236815334787,56.51789141678226 l 1.64258723024201,5.7930008619475 -37.13887774441423,52.0530229169805 C 19.12310483879602,180.9265055375304 1.867322747378056,205.778728609913 1.203879354046579,207.5237170160722 c -0.6634433933310224,1.744988406159 -1.205084805064611241,7.5593885397684 -1.205084805064611241,12.9219466293476 -1.161e-13,10.6802274786637 1.886596102883591186,14.6636079646466 8.587938229933703482,18.1290067432897 4.235672872873549,2.1903516224217 182.900076324473445,75.0557764140536 193.913184280761441,79.0844227583001 6.5696826930128,2.4032206230173 9.9196938997747,2.8809384951389 17.5000970070971,2.4941544506767 8.5015876483771,-0.433786753611 12.4612925643984,-1.7321159532071 42.5002355886644,-13.929764715917 110.0794495096674,-44.6989915732625 162.3463666042799,-66.2423829756634 165.8036534631117,-68.342175711533 2.1611944663061,-1.3126074365393 4.8330845205416,-4.2917250409408 5.9375329131222,-6.6191773166353 2.471250922099,-5.2077748685146 2.6400186314124,-18.0676067551643 0.3085954606162,-23.582161971394 -0.9353103414338,-2.2123055937487 -17.5953156188916,-26.2403811920032 -37.0216895948131,-53.3967803657397 -19.4263739759213,-27.1563991737365 -35.9050443770979,-50.6343356442719 -36.619343614516,-52.1741173382349 -0.9951150155123,-2.14512322568419 -0.4918739111053,-6.06596971449868 2.1523556810068,-16.76962420791697 3.1603965996777,-12.7930620571056 3.4081627714479,-15.50527799992753 2.9355631475075,-32.20135037455465 C 365.5111082545336,35.97536540125575 365.2562664448222,34.423856265657 361.6511898970999,26.65162065008619 356.5829962519511,15.72503015082938 350.1943589402225,8.901202568676316 340.6256827228364,4.190558643209318 332.9274656475103,0.4007387476505077 332.4628616683821,0.3314867037211359 317.3228191746583,0.7491333165904409 303.565949869418,1.128624316790744 301.1210371965267,1.543417092621374 294.9984766756494,4.546029363665978 291.2170632193472,6.40050159094238 284.2539670101107,11.17881353620723 279.5237815208246,15.16327571752534 c -4.7301854892861,3.9844621813182 -9.3123441740771,7.76591444048151 -10.1816970645086,8.40434346222532 -1.0006056850004,0.73481748971828 -7.0176076042622,0.28617042528253 -16.3985284008468,-1.22461616333147 -20.4817858346647,-3.29856823448868 -52.2560164789616,-3.30976388647182 -71.310942168094,-0.0234376299202 l -13.9903119265443,2.4140758817826 -5.3984674249572,-4.97659008639324 C 154.9195914437112,13.00579948265264 142.3377521537198,4.587120799991132 135.9097041846806,2.137812889363437 132.2991063796905,0.7620506348724286 126.2676001221044,0.0908777925215816 116.8744424178091,0.0167073815835864 115.2806662705301,0.0041225793787359 113.8609237680818,-0.0028112125120845 112.585356142409,0.0010822949701069 Z"
     id="path4497"
     inkscape:connector-curvature="0" />
  <path
     style="fill:#45804f;fill-opacity:1"
     d="m 116.0146520945481,17.03383771724624 c -1.6224572287999,0.0571861473502 -3.2143784801331,0.29725954657063 -4.7812765037247,0.71289457674 -2.7620335002483,0.70072745897869 -5.4284409797936,1.97665988011193 -8.0215288401951,3.82033367699574 -1.6189967524111,1.12218248661008 -3.22127047322587,2.44263574342898 -4.81057354112505,3.97658454313055 -13.91483869755983,13.43019500137052 -15.37244968283052,33.67468526843332 -4.62307250176336,64.19176207982741 l 4.46486849980187,12.67975778683866 c -0.28610836761543,0.9027201706343 -0.88925074505973,2.1683271516862 -1.9121199743246,3.9531469132104 l -39.48264073643612,55.3284316983311 c -16.38975641297929,22.9672127513119 -30.27108006715728,42.9940931763902 -36.72871922081042,52.8674805567081 -0.14653595115238,0.2211657729394 -0.33970330107581,0.5042859193314 -0.47851827753779,0.7148477125666 -2.05084031451082,3.0087562774071 -3.32033090536442,4.9345513774263 -3.32033090536442,5.0859656926877 0,0.00219212299 0.0243943935,0.014983035102 0.025390765747,0.01757822244 -0.00219441488,0.00745161967 -0.025390765747,0.044442180086 -0.025390765747,0.048828395667 0,0.02111187568 0.022613711189,0.050450535086 0.03515644488,0.076172297241 -0.16230191160889,0.3101805586851 -0.25952824884901,0.5280830829712 -0.2246106200688,0.564456253912 0.00214575807,0.00223520405 0.058965592745,0.026497286666 0.062500346454,0.0292970374 1.0818908771e-4,0.015924590693 -0.016525436427,0.053787453168 -0.00976567913,0.060547210627 0.86700198755671,0.8670020087231 86.65154850278997,36.1623513206274 178.88771036607428,73.6019704927953 9.4839537851587,3.8496356612181 15.0390768917781,6.0450284138375 18.7208068987752,7.2422276453478 1.8842258544062,0.6809436885267 3.3590443507357,1.1688862516925 3.7793178246353,1.1914128542778 0.00704474947,3.775976393e-4 0.040228111185,-0.010346091198 0.070312889761,-0.019531358267 0.00117615332,2.451479929e-4 0.06362617017,0.025288320499 0.064453482281,0.025390765747 0.00123794162,1.532930979e-4 0.041250258563,-0.015580704426 0.042968988187,-0.015625086614 4.906368455e-4,-2.6096075e-6 0.00340880449,5.4471155e-6 0.00390627165,0 0.067824366397,0.025786132116 0.1681820081726,0.064190064317 0.173829088575,0.064453482281 0.010399560889,4.851057461e-4 0.2758963506761,-0.1034034580206 0.3164080039229,-0.1152350137743 1.5657621593408,0.1822879338139 2.5627854855835,-0.060207591793 3.7031455273946,-0.5292998090318 2.0625112792969,-0.8484232642422 30.7501729142467,-12.523387579814 63.7503533829966,-25.9435031858562 33.0001804687504,-13.4201156060423 76.0316729211749,-30.9773541533888 95.625530074495,-39.0158412738584 19.5938571533203,-8.0384871204696 36.3283264403743,-14.8973801382061 37.1877061400813,-15.2422719914492 0.7135424642258,-0.2863635049076 1.3110336175497,-0.9190046101582 1.4961020432407,-1.5214928089876 0,0 0.00195313583,-0.00195313583 0.00195313583,-0.00195313583 0.042199871917,-0.045085946931 0.064453482281,-0.082369977285 0.064453482281,-0.1113287421211 0,-0.00178991565 -0.024859841382,-0.038484619765 -0.025390765747,-0.04101585236 0.00171445149,-0.00923161541 0.0022437157,-0.018110072379 0.00390627165,-0.027343901574 0.00220869593,-0.00441324437 0.021484494093,-0.016002101662 0.021484494093,-0.019531358267 0,-0.0024734801 -0.014838665339,-0.025724337057 -0.015625086614,-0.0292970374 0.00697704641,-0.04457672232 0.015625086614,-0.089631738975 0.015625086614,-0.1328132362145 0,-0.6915207170192 -18.6330240217996,-27.3753774903012 -41.4064795257209,-59.2991568339817 l -34.53730082327,-48.4143308718624 c -2.8467415828019,-4.1531921327016 -4.8565143340538,-7.1524449563607 -5.834016714308,-8.7207514661483 0.070575759446,-1.5653840421668 0.9475999129554,-5.20295053961934 2.3437629920219,-9.79106989917176 l 0.5214872657249,-1.37110135033278 c 5.3871230089815,-14.16319963452328 7.3410883020024,-22.66373887712409 7.6074640449379,-33.44940416780634 0.4671825888921,-8.58956292762889 -0.656404324415,-16.10545344807553 -3.3340028561512,-22.40246793207627 -3.0736344388096,-7.60764677435492 -8.2254899266067,-13.28581225628451 -15.4473512532512,-16.94540643231862 -1.4445266273864,-0.73199705638291 -2.8863419180152,-1.31700213939261 -4.3320552635873,-1.77149419480325 -1.9761889938283,-0.76815222175696 -3.6134838869134,-1.07298352198576 -5.5527651552653,-1.05078707475649 -10.4953800783547,-0.6646203718652 -21.6955750410181,6.01670606970783 -36.3263732405131,21.13683591638435 l -5.4941710804649,5.67776584817314 -3.9902564939172,4.0351786179311 -8.2168424228636,-2.9824384073479 c -0.5034772524447,-0.18275242201062 -1.0219147752919,-0.35517690000646 -1.5351647597743,-0.5312529448583 -0.1988583354987,-0.0684475456694 -0.3952342482438,-0.1376761375983 -0.5957064271389,-0.20507926180192 -0.7404404572861,-0.24849463137197 -1.4927081718329,-0.48981621507329 -2.2519656081678,-0.72461339170011 -0.133009874112,-0.040988322872 -0.2628493708447,-0.0844471325061 -0.3964865728171,-0.12500069290784 -27.510059671883,-8.38548423724226 -66.7794190863442,-7.8577863223776 -91.9555878561537,1.58789942709484 l -7.6074640449378,2.85353144278668 -9.4863807102087,-9.74028836767782 C 137.9830712542236,23.64222825636324 126.3767487143614,16.66860874625136 116.0146520945481,17.03383771724624 Z m -6.490270352074,12.91999349352091 c 0.047673240989,-0.002854794958 0.079110840621,0.0111991953214 0.1152350137744,0.0195313582669 0.219264106934,0.35761154524517 -0.5762494382769,2.28378782489657 -1.8183694546437,4.4629153639751 -0.00804150332,0.0141077038602 -0.01535787001,0.0268873180992 -0.02343762992,0.0410158523604 -0.1798611840764,0.30122217172559 -0.3504971558735,0.61047278934354 -0.5156278582449,0.92773951767534 -5.7075366089668,10.25284065917724 -3.9417327900648,24.6373571171874 5.3476858934634,43.51586621854058 4.4079316756086,8.95806089606836 7.6029195881116,14.44410131441377 10.0273993342005,17.10751670593346 l 2.0761833837662,2.63478023019802 1.0214900373562,-0.6835975393397 c 0.3441379789939,-0.0075496403 0.6689774757882,-0.10178801557521 0.9707085058624,-0.30859546061632 17.7623157930821,-12.17434993768482 24.4319655704255,-16.24613744018896 31.0509533726372,-18.95908946963078 3.8286596481794,-1.56926863637652 8.4150981410265,-2.74240674529081 12.6641327002252,-3.41603456087195 1.1493204076295,-0.0464938491751 2.3797946989396,-0.0756205097147 3.8418181710893,-0.0820317047208 l 7.5664481925775,-0.0332033090536 c 0.7062078850046,0.20030720103769 1.2580850740903,0.45752807849689 1.5820400196148,0.79102000980741 0.7866549956512,0.97887432486229 6.2783800884151,14.66127690472051 12.2207708675677,30.44938753801838 5.9516032372577,15.8125868606567 11.8364877673331,30.4832514533059 13.0781974954824,32.6017432190251 0.9419247386698,1.6070259880895 1.7183205925998,3.0874315518335 2.3574349428087,4.4961186730286 0.016731928841,0.039524265693 0.036105448969,0.079681463691 0.05273466732,0.1191412854278 0.3653814789119,0.8670213908374 0.6927085849653,1.7034793024803 1.0000055432627,2.5156389447702 1.4228145951605,4.1678565619338 1.4638641906331,7.8725096950745 0.3730489428968,12.503975562437 -1.5410952143921,6.543298600405 -5.3051551608097,14.8089403351498 -9.6504441196503,21.195429991185 l -2.0605582971526,3.0273605313616 c -0.088976602149,0.047227721328 -0.1734603107379,0.081322263045 -0.2558607932957,0.1113287421211 l -1.6621185885089,-1.8984480235378 -0.00976567913,-0.01171881496 -2.4668105491031,-3.2929870037908 c -1.8759392579754,-2.5036935081094 -4.4788628834165,-4.8740178801279 -7.402384783136,-6.8867569248911 -2.1777413585693,-1.6866035046846 -4.3713123197556,-2.8960326916936 -6.76956877529,-3.7246300214882 -2.0640072818172,-0.8762606498311 -4.1422481510538,-1.5414359254495 -6.1328464957907,-1.8945417518844 -6.4211471293077,-1.1390265995895 -14.7110807839632,0.1574394323547 -24.0860710146787,3.5488477970865 -3.6438124127625,1.2069790630849 -7.3671423653436,2.7658247616698 -11.2559217691854,4.7090104781374 -1.427757271664,0.7134365950765 -3.0580379581637,1.6059454645815 -4.7597920096312,2.5683736120907 -7.2524268581195,3.9166786899309 -14.8385977109182,8.7892485425003 -22.4923121801037,14.5117991922692 -3.2656428588868,2.4416649901526 -5.9375329131223,4.8407753819719 -5.9375329131223,5.3301076710232 0,0.030855888108 0.059521562596,0.1057659618043 0.1328132362146,0.1894541751884 l -0.3242205472297,0.2812515590426 6.9844137162254,5.1758099407152 c 15.1341311852791,11.7788236341831 50.6519484486428,37.9494291124885 51.9260690882458,37.9494291124885 0.1259078773671,0 0.2305020135853,-0.011229484349 0.3378924980165,-0.021484494094 0.00101564206,4.59793464e-5 0.00487752296,0.00193348093 0.00585940748,0.00195313583 0.2146121113961,0.00429600203 0.3868040133275,-0.015249355726 0.5312529448583,-0.048828395667 0.018245684817,0.00862206259 0.1066058717475,0.068359753934 0.1132818779477,0.068359753934 0.1844231055189,0 0.2701422305606,-0.065958951841 0.2753921515626,-0.1875010393618 0.1991518900581,-0.1276025094385 0.193163206963,-0.3960684649256 0.00781254331,-0.7793011948473 0.00399456033,-0.027435310491 0.00976567913,-0.053225833585 0.00976567913,-0.085937976374 0,-0.1382011497876 -0.1689069711275,-0.3910142799092 -0.4140647952572,-0.6914100826465 -0.8536239476086,-1.2889526245985 -3.0165304133336,-3.2646871980958 -6.4609733146738,-5.8652668875349 -3.7812706787109,-2.8548871353045 -6.875038109931,-5.4112942851975 -6.875038109931,-5.6816721198265 0,-0.2703778346289 2.1093868849228,0.4074950935645 4.6875259840439,1.5078208582008 11.6275427842495,4.962527006119 12.4237530237608,4.9045817432861 7.5000415744702,-0.5429717598184 l -1.7949318247235,-1.9843859999119 c -0.096877291399,-0.1647816512944 -0.1286284524317,-0.2805427071927 -0.027343901574,-0.2968766456562 0.2976878721567,0.098196018574 0.5912099225718,0.194090721872 1.0136774940495,0.3750020787236 l 2.5175920805969,1.5136802656808 c 2.15628037235,1.2962175352167 3.7936902749068,2.0993260626358 5.1543254466216,2.4062633384759 l 1.3086010038789,0.7714886515405 0.142578915348,-0.1523445944814 0.093750519681,0.048828395667 0.01171881496,0.00585940748 0.6347691436726,-0.669925588553 c 1.2276670684533,-0.3218366961361 2.2954892420606,-1.2427015482171 3.5195507596862,-2.7988436396395 5.231053714536,-6.6502073224809 20.3581681335642,-22.1049439252298 22.1583259537408,-22.7188759359994 0.4870100910455,0.9012350916554 1.4548089021933,3.4272510855569 2.6054831927977,6.6680057123025 0.8902001807444,2.6840994605524 1.9057550461465,5.8435216103625 2.9824384073479,9.3516143381675 l 3.8359587636092,12.4903036116502 c 0.3693280760352,1.8024817632248 0.3626097633098,2.8124800981972 0.01171881496,3.416034560872 l -3.0273605313616,2.1933715333672 c -0.060178395764,0.042477777076 -0.1180562769352,0.086156785904 -0.1777353602283,0.1289069645612 l -0.8945362086218,0.6484410944594 c -0.9176082494966,0.6647120121171 -1.7983679573991,1.4530511999017 -2.6367333660246,2.3222784979285 -2.8110056372449,2.7818612900107 -4.7668775050588,5.9436641878429 -5.8183916276945,9.3027859425004 -0.791607272356,2.1362765066072 -1.2593453966602,4.2761913339919 -1.2734445589985,6.2265970154715 -0.013801793129,1.909269152885 0.5988566112706,4.2697647246623 1.5937588345749,6.6621463048224 0.5667373641671,1.6093863518815 1.3268763753057,3.2127399933461 2.2968877321815,4.7910421828582 1.1267483192436,1.8333283694931 2.4077208992584,3.3617641988553 3.8672089368361,4.6211193659365 0.6193121420967,0.5985860506299 1.2459094766947,1.1213032784918 1.8691509861375,1.5351647597744 2.2161672402994,1.4716385910497 6.5999663039199,3.060056296267 9.7422415035045,3.5312695746463 14.4021799806036,2.159740319806 26.5741275936758,-11.8852478146942 22.9102832470144,-26.4356934141808 -0.7760447645428,-3.0819532875457 -2.1446034606778,-5.5054122841862 -4.8047141336449,-8.3223117575046 -1.0767552081237,-1.210278404455 -2.3429462188563,-2.4321670290499 -3.843771306916,-3.7168174781814 l -1.599618242055,-1.3691482145062 -3.1445486809627,-2.8281406770399 c -0.070369635002,-0.1766542234187 -0.1137334589414,-0.3390160023034 -0.1289069645612,-0.4882839566712 0.015257624963,-0.1496812933799 0.021793654871,-0.2768915966465 0.04687525984,-0.4511743759644 l 4.3593991651608,-14.0742967670918 c 1.801300290753,-5.8169948582412 3.554073758972,-11.0036699862448 4.6035411434964,-13.7305448615952 0.7086568072744,-1.0988095043021 1.4561933216816,-1.4723005487158 2.4179821534361,-1.1757877676643 2.2550449074385,1.7564123886095 6.6930652694578,6.0716914620232 11.586001723895,11.3555316963463 2.0472466362578,2.2108041350979 3.9707943162731,4.1892845218016 5.7871414544674,6.0156583461897 l 7.2812903618815,7.7207459228857 0.1210944212546,-0.058594074801 0.021484494093,-0.00976567913 1.1836003109711,-0.5722687972187 c 1.2344918451704,-0.2829625593688 3.6768018672656,-1.3636046655616 5.9219078265087,-2.6504053168114 l 2.4101696101293,-1.3808670294663 0.6425816869793,-0.3105485964429 c 0.3179347218353,-0.043211305463 0.5468684454806,-0.010497345134 0.6972694901265,0.085937976374 l -1.8027443680302,2.0000110865252 c -1.5468834594727,1.7163915679748 -2.8125155904261,3.4910332964137 -2.8125155904261,3.9453343699037 3e-13,0.833732883374 1.7675351679687,0.2523857660507 10.3125571648965,-3.3945500667785 2.4994101166843,-1.0667249679108 4.5406763652761,-1.6986055520631 4.6640883541235,-1.4550861908803 -0.046186096666,0.093307002267 -0.1252829048168,0.207065245095 -0.2343762992021,0.3378924980164 -0.8311978489102,0.8253203192886 -3.7569952358404,3.0572323147374 -7.2422276453477,5.5019836237715 -6.3757245377379,4.4723160691251 -7.9063887095722,5.8532727544772 -7.2031649288143,7.1465239898403 0.012146738269,0.025290716403 0.023102835379,0.05159110526 0.042968988187,0.072266025587 0.1080691541362,0.1776610380162 0.2512981884163,0.3548143827323 0.4355492893509,0.539065488165 0.9761332925216,0.9761333163529 3.0731890697364,-0.4777210496269 34.6330044787775,-24.0059924457847 11.8327942578631,-8.821508968463 18.8270916229187,-13.6451984938408 21.7872301466704,-17.0586883102662 1.7127255044443,-1.4412178733247 2.757398521123,-2.4135333449618 2.7636871947592,-2.6464990451581 2.667416362e-4,-0.00988151964 -0.00575474415,-0.023146387378 -0.00585940748,-0.033203309054 0.013885395765,-0.016116271348 0.033285439718,-0.036862106337 0.033203309054,-0.042968988187 -5.3050172e-5,-0.00394458193 -0.00371755784,-0.00965017056 -0.00390627165,-0.013671950787 0.00116047081,-0.00550689804 0.01757822244,-0.020715874632 0.01757822244,-0.025390765747 0,-0.035714139287 -0.041351007535,-0.099783886407 -0.062500346454,-0.1503914586549 -0.010971561094,-0.028958106894 -0.021755693318,-0.058412892314 -0.037109580707,-0.089844248028 -0.00503992264,-0.00894415143 -0.010830345793,-0.0186403154 -0.015625086614,-0.027343901574 -0.171338851637,-0.5151093826407 -0.6784420711181,-1.1857784871726 -1.4648518700137,-1.9804797282586 -1.4128939474601,-2.5220496219702 -6.1266122660976,-5.1093029503441 -13.496168562393,-10.0176336550671 -19.7516219124875,-13.1551328741288 -32.5574054602521,-18.096205918835 -47.2522150549889,-18.2344760779305 -10.8282571442604,-0.1018880053133 -19.3934771624835,3.9586758079503 -25.6602984909869,12.1660830644204 l -3.4609566848857,4.5312751179091 c -0.3760022084115,0.2853330196945 -0.6873171624749,0.4402568520745 -0.9668022342091,0.4902370924979 l -1.6543060452021,-2.0058704940054 -1.6836030826023,-2.666030403425 c -1.4695643234208,-2.3279405446008 -2.7341980704015,-4.5755459763065 -3.8398650352626,-6.7656625036366 -2.0497633395561,-4.4488127721718 -3.8186928014596,-9.3753620702331 -4.6660414899502,-13.2676516706708 -0.1273298190959,-0.7076625227167 -0.2476044722062,-1.4130102831014 -0.3300799547097,-2.1093866928197 -0.1101129330581,-0.929731438472 -0.16442685937,-1.7510747521537 -0.185547903535,-2.5507953896506 -0.00268329145,-0.7558743640949 0.023692639478,-1.499134320129 0.080078568894,-2.2304811140742 0.3548518903728,-3.033926430938 1.7069416102052,-6.4178965059371 4.9980745804867,-13.6543725643545 3.0881907417556,-6.7902508249694 9.7109309154361,-23.3145830347729 14.716878454071,-36.7209066775037 5.0059475386347,-13.40632364273071 9.7215904039764,-24.78800871346716 10.4785737101648,-25.29310895557006 0.2620617901091,-0.17486181339518 0.6174007271672,-0.31973023567896 1.0312557164898,-0.44336183265747 l 4.9258085548992,-0.25976706494912 c 0.5436898852322,-0.0286950746338 1.1001998885255,-0.0273392814867 1.6562591810289,-0.0273439015736 0.3624146432292,0.0205457019854 0.6692875632819,0.034410718674 1.0644590255432,0.0585940748006 0.7236760567533,0.0442868918229 1.4355831725004,0.10066375976159 2.1406368660467,0.16796968109489 2.4962821819524,0.32929694903504 5.104710720942,0.8446466202268 7.5176197969105,1.56055552552125 2.0755816073905,0.61582401558181 4.0659089059233,1.30558818189222 6.0527679268964,2.08790219872625 0.3429990585275,0.13631979979633 0.6848585514713,0.27471873960339 1.0234431731829,0.41406479525718 0.8549089477914,0.35228856508641 1.709856545574,0.71482129053076 2.5742330195708,1.11133428538372 0.068991865075,0.0310686673531 0.1381231133099,0.0624921459302 0.2070323976287,0.0937505196809 5.4207321654218,2.50675666069057 11.1691967230536,5.95207239384159 18.7891666527092,11.1406867554109 0.6632613120943,0.4516300196951 1.2754800990031,0.8518957868293 1.9062605668445,1.27149142317191 3.7465946041263,2.57162192751727 6.9841774677331,4.67156665787158 8.2734833618374,5.35354530094338 l 0.464846326751,0.33984563384321 0.078125433067,-0.095703655507 c 0.011522230432,0.00208035924 0.04609112644,0.019531358267 0.054687803147,0.019531358267 0.0283510417,0 0.064815244671,-0.017704038694 0.095703655508,-0.02343762992 0.033380700609,0.00724698472 0.079515902552,0.02343762992 0.1035161988143,0.02343762992 0.030131016464,0 0.070251697327,-0.021046781051 0.1074224704677,-0.03515644488 0.026389234324,0.0057841616 0.085408328891,0.03515644488 0.1035161988143,0.03515644488 1.6426765658939,0 8.1721071075798,-10.74876663907673 13.7110135033283,-22.56848447734447 0.7182560076181,-1.53271832725027 1.3616606146027,-3.03199651579744 1.9668077774716,-4.51565003129564 0.1055862957814,-0.24510980982242 0.2256085034937,-0.5089766190174 0.3222674114032,-0.74219161414025 0.5056537297281,-1.22002239279294 0.9406877926309,-2.41797325600251 1.332038633799,-3.62306695850059 0.038550635493,-0.11227453052328 0.075424718125,-0.22397023671071 0.1132818779479,-0.33593936218982 0.034886677184,-0.11039907710035 0.071472135268,-0.22143071842629 0.1054693346408,-0.33203309053646 0.045544288071,-0.13684109273757 0.08440129803,-0.26986928345609 0.1289069645613,-0.40625225195042 0.021585611108,-0.0678707416579 0.05146165859,-0.14800037647433 0.072266025587,-0.21484494093536 0.022758317777,-0.0731226208361 0.042027631865,-0.14746313173517 0.064453482281,-0.22070434841541 3.8325263178991,-12.00210500269478 3.624152677671,-22.21994335007329 -0.6816444035131,-30.4786845754185 -2.6514518016889,-5.08562152111442 -0.6391499217152,-5.34034797405267 4.1738512616259,-0.52734667320492 1.7632168886256,1.76321693167349 3.1454832530586,3.9846467829842 4.1523667675323,6.6308961315954 0.036140272001,0.0984372773398 0.072235271644,0.19737086345993 0.1074224704677,0.29687664565612 0.094501006379,0.25845479200035 0.1840109548567,0.52268754558122 0.2714858799092,0.78906687398073 0.6330440819703,1.98090108696168 1.0910567169183,4.15491456043758 1.3671950786796,6.521520525301 0.020011454849,0.1715054297737 0.030689151046,0.35192636687106 0.048828395667,0.52539353737825 1.1593636612466,11.84077260745648 -2.2546408835331,28.58788138224271 -10.1777907928553,49.0744907812859 -1.9239262944861,4.9746283938552 -2.9765187474082,7.81995515915099 -3.4258002400054,9.7695854050781 l -0.8457078129545,2.1640744959669 0.6406285511524,0.9062550235818 c 0.011237115694,0.1240694069371 0.032284811599,0.2294557317154 0.070312889761,0.2910172381761 0.01034846114,0.016752538865 0.3133695585181,0.4321084611491 0.3339862263631,0.4628931909243 0.1902141672406,0.3949261131122 0.4151780642241,0.7956340882062 0.71289457674,1.2500069290784 1.1163097409897,1.7037040506079 12.1543284636048,16.9119758485371 24.5274797115096,33.7970623449563 9.3856705765838,12.8082051481712 17.6038379628147,24.2154814951152 21.1798049045715,29.3634440183815 0.9462762133641,1.7435608143419 1.381398162108,2.9646067879034 1.3593825353726,3.8027554545557 -0.1118184127515,0.09868451878 -0.2401976995623,0.1948064617226 -0.3867208936836,0.2890641023494 -0.9953934430387,0.466763894435 -2.7536932526956,0.8631700226377 -5.4433895489711,1.1992253975846 -1.3199110618716,0.1649120041574 -2.5360310535496,0.362540717934 -3.589863649447,0.5683625255654 -0.1394610906459,0.00165189003 -0.2693404405467,0.013671950787 -0.4101585236039,0.013671950787 -1.2744826661379,0 -2.3505629659158,0.2591763351393 -2.7578277872792,0.6171909212324 l -0.835942133821,0.1093756062944 0.7031288976065,0.4941433641514 c 0.3987088823699,0.6765853914151 3.8833870972156,3.3624221101845 8.1387169897961,6.2480815095652 1.6401162341588,1.1122091463294 3.1076133976523,2.1399628937722 4.4355714624015,3.0840014703355 0.6862133645753,0.4956482332237 1.329432462855,0.9629281638688 1.8828229369243,1.3789138936396 0.1295404991385,0.1066088584833 0.2691802171587,0.2192275653846 0.3613301279367,0.3007829173095 l 1.9160262459779,1.6953218975625 c -0.5198215583447,0.2793166231463 -3.2910596852554,0.3183018104321 -6.7734750469434,0.066406618107 -3.7570196573092,-0.2717582743166 -6.23898625292,-0.3391444931021 -7.501994710297,-0.1386726436946 l -1.9121199743246,-0.1503914586548 0.9902398641295,0.5000027716314 c -0.00762005607,0.010327372879 -0.00754640857,0.022510229282 -0.013671950787,0.033203309054 -0.1415006471436,0.02076843805 -0.2264049547879,0.047556204087 -0.1875010393617,0.085937976374 0.00710023665,0.00700494188 0.1348271700659,0.066644025879 0.1523445944813,0.078125433067 0.056429360401,0.759759615029 2.8888253218103,2.2209507753502 8.5293441551331,4.6504164033369 5.7902533957732,2.4939588038001 13.904374257535,6.1174123965103 18.0293968161288,8.0527790134219 l 6.162143533191,2.8906410234938 c -0.2097273519823,0.4397025194366 -1.4928793379399,0.6711913360407 -3.6972861199147,0.8378952696478 l -9.9648989877467,0.4160179310839 c -0.2513188176193,0.010471617656 -0.3332473333294,0.015253703373 -0.576175068872,0.025390765747 -4.0659729117205,0.041349806699 -7.2034586600569,0.1945641079864 -9.1914572003793,0.4511743759644 -2.4766225911175,0.1768872170457 -3.4063988084625,0.3702547707606 -3.0195479880551,0.70703516926 0.044480810237,0.053842612159 0.111929968567,0.1103330387252 0.2187512125887,0.1718759527481 0.2669554384191,0.596474212192 2.7186059591427,1.5469940871661 6.9433978638651,3.2031427557634 1.1342320271593,0.4446270737171 -0.7177138889875,1.4809713500774 -4.6875259840439,2.623061415238 -2.1695937031104,0.6241785138503 -4.0886747618008,1.3568645279075 -5.2851855470095,1.9726671849518 l -1.9023542951911,0.5410186239917 0.8808642578349,0.1054693346409 c -0.150716784976,0.1346883713209 -0.2558607932959,0.2603868732359 -0.2558607932959,0.3593769921099 0,0.5994532194838 3.2343932235486,1.113105300505 7.1875398422006,1.1406313227841 2.1737735136056,0.015136129251 3.5738466124691,0.04397506773 4.5039312163356,0.1191412854277 0.00214398099,1.73269121e-4 0.00567422666,0.00177933041 0.00781254331,0.00195313583 0.2493927381549,0.038613666779 0.471326385452,0.08205032143 0.6621130452462,0.1308601003877 0.3031217514251,0.077548952849 0.5059905217772,0.1695033970535 0.6484410944593,0.2695327440826 -0.051036353949,0.2516749067915 -0.6812467346564,0.6273879168165 -1.7597753798432,1.2070379408913 -1.7187593994141,0.9237389583439 -37.5804883683233,15.5275185506862 -79.6918480003992,32.4513517603702 -29.9619197914696,12.0411817054353 -55.2045186027909,22.0851906381748 -68.0081894851698,27.08999391612 -4.3967448519049,1.676286186182 -7.6733349521742,2.8948970018462 -9.0176281118044,3.3300965844979 -1.7116013777889,-0.4372992055026 -4.3821691784797,-1.3006305716124 -8.2051236079035,-2.6621241317716 -30.8357524547777,-12.1349505771785 -147.26018016242406,-59.1847010167453 -149.63168881816551,-60.5628357138467 -1.88131062345871,-1.0932700751218 -1.09039691182351,-1.3578874658128 4.16603871831897,-1.3886795727729 3.56882033324635,-0.020906086397 6.81686458666799,-0.5684277352982 7.21879001542746,-1.2187567558513 0.064312654454,-0.1040600633533 0.034497461071,-0.2274316377424 -0.037109580707,-0.3574238562833 l 0.080078568894,-0.00195313583 -0.095703655508,-0.027343901574 c -0.035427556289,-0.05755675975 -0.09639231492,-0.1185891338046 -0.15429773030806,-0.1796884960551 l 1.50000831489399,-0.242188842509 -0.10742247046771,-0.027343901574 0.10742247046771,-0.013671950787 -2.92189119672069,-0.6855506751664 -0.17382908857492,-0.042968988187 c -2.13027532678966,-1.0255411110156 -5.62920989273498,-2.0693681426532 -7.99809121027483,-2.2050903483273 -0.88888603837291,-0.3146116283561 -1.61305702562021,-0.6114249469143 -2.0761833837661,-0.861332899568 0.28319133277649,-0.7928788901927 2.26511288992878,-2.0143964212677 5.35745157259676,-3.0390793463219 1.39947607973842,-0.4637329187024 2.39295801911339,-0.8002838294012 2.8789222085336,-1.0585996180632 l 2.4336072400495,-0.7011757617799 -3.43165964748549,-0.082031704721 c -0.48712094646787,-0.3128093994853 -3.78296647141958,-0.3706379096655 -9.96099271609315,-0.4179710669107 -0.96255019028171,-0.041677657511 -1.71377596366063,-0.077348118795 -2.8574377144401,-0.1250006929078 l -5.80081340525431,-0.242188842509 c -1.49526216869851,-0.069347317029 -2.74664018885931,-0.1435340446529 -3.74611451558172,-0.2382825708556 -1.46213605422254,-0.195654558981 -2.32813790540848,-0.405847702079 -2.32813790540848,-0.6093783779257 0,-0.554421651094 7.45316699339372,-4.3328185989308 16.56259181028832,-8.3965309189185 4.04848893116794,-1.8060299829698 7.12772107282915,-3.2373596175664 9.36528628895437,-4.3769773876009 3.59822145975157,-1.6618117289572 6.095549633419,-2.8902600825309 6.44925449971366,-3.2187678423768 0.028772048541,-0.020505215597 0.11088034102369,-0.064709784081 0.12304755708114,-0.078125433067 0.00606968191,-0.00669246947 -0.00499310818,-0.011228118309 -0.00195313583,-0.01757822244 9.23405004e-6,-2.662373362e-4 0.00195313583,-0.00169082294 0.00195313583,-0.00195313583 0,-0.00122206258 -0.00185674469,-0.00269197162 -0.00195313583,-0.00390627165 0.020430144584,-0.061714431769 -0.12167650148049,-0.1046657681129 -0.33984563384315,-0.1386726436946 -0.14054646445911,-0.028258271407 -0.36243885546934,-0.04883782466 -0.58984701965895,-0.068359753934 l 0.30664232478951,-0.1542977303081 -1.24024124994492,0.1113287421211 c -0.37400582460745,-0.011582726631 -0.77116415663276,-0.016932509569 -1.23828811411829,-0.015625086614 -1.24759903914719,-0.2329816939343 -3.77368485588029,-0.1533134864627 -7.58793268667104,0.1503914586547 -2.92646845585799,0.2330165687189 -5.05907429868329,-5.694030962e-4 -4.73830751553759,-0.5195341298982 0.3207667831457,-0.5189647268021 3.88998233699079,-3.18833218822 7.92973145634079,-5.9316735056421 4.03974911934969,-2.7433413174226 7.66317713295173,-5.5044105315454 8.05277901342188,-6.1347996316176 0.089572238384,-0.1449309296911 -0.029211085008,-0.3109435897708 -0.28711096652262,-0.4843776850177 l 0.35937699211003,-0.2558607932958 -1.02149003735623,-0.078125433067 c -0.069234627691,-0.028732557554 -0.12355951622827,-0.057065157068 -0.19921985432185,-0.085937976374 -0.072219920136,-0.028731663939 -0.14795682643015,-0.055264618371 -0.23242316337549,-0.082031704721 -1.24902325611943,-0.4412603121141 -3.21576752294649,-0.8876311429305 -5.54299947613191,-1.2070379408912 l -6.72855292292959,-0.9218801101954 c -0.03930765064,-0.041406278805 -0.077111277853,-0.084262409099 -0.1093756062943,-0.1269538287346 0.068395088677,-0.4675874606907 0.903769637969,-1.9587768005802 2.27345010226117,-4.1484604958787 0.4771111686829,-0.6702475942414 1.18815510930833,-1.6572768392121 1.77930673810999,-2.4824356357166 l 19.8106566900654,-27.1173378176936 c 13.56104303266011,-18.5626019668579 25.10256846710261,-34.3154767599861 25.64857967602671,-35.0060534216743 0.080773751427,-0.1021599313366 0.1034246872357,-0.3405624049941 0.097656791334,-0.6445348228059 l 0.2988297814827,-0.4082053877772 -0.5898470196588,-1.5722743404814 0,-0.00195313583 c -0.5227132004763,-2.3601122407029 -1.6803705620082,-6.0078134140081 -3.1816582616697,-9.87310160389245 -0.059735019536,-0.15379668106772 -0.1126153571555,-0.30351643204462 -0.1718759527483,-0.45703378344422 -0.9996854224337,-2.9664612387633 -2.047931716572,-6.07129118736928 -3.2539242872571,-9.53716224170267 -1.0967728595928,-3.15198733362125 -2.0708841942307,-6.13274006036184 -2.9375162833342,-8.96684658031056 -3.89320386304756,-13.92782224079153 -5.30552264820568,-25.80035930050462 -3.96486572817048,-34.0548762740787 0.64792727302553,-2.58448288649584 1.56331916894294,-5.05596606718013 2.65431158846498,-7.22855569456101 1.8529198849806,-2.79020253787737 4.6960582182512,-5.96974410581611 6.7891001335568,-7.65824557643169 1.1993643130413,-0.62024811589571 2.0220355631124,-1.035357163861 2.4101696101293,-1.05859961806324 z m 64.7737965561795,141.22539222010823 c 3.4359415541229,-0.037921847034 6.9403601721251,1.319549267784 9.6250533539034,4.3242427202805 5.717307368989,6.3987781300703 4.3555248169285,16.0702405368614 -2.7832185530261,19.7618282943983 -10.1637746041837,5.255892242476 -21.3959230666424,-2.5466267346689 -19.3516697707943,-13.4434338950725 0.1800450683981,-0.9597227479111 0.4518435180035,-1.8618214756701 0.798832553114,-2.7050931199586 0.7156765189233,-1.4089389351386 1.6978668785622,-2.78381036679 2.9843915431747,-4.0703350628115 0.9957396120191,-0.995739636329 1.9966320688716,-1.8050294765249 3.0117354447481,-2.4511854624896 1.7687100235014,-0.9039610044629 3.7300903038381,-1.3941177705618 5.7148754288802,-1.4160234743466 z m 86.5004794922228,0.1210944212545 c 0.2773202864691,-0.0089430159 0.556404011875,-0.00878513099 0.8378952696479,0 1.2868171783906,0.040160598816 2.614187188087,0.2697088210879 3.9570531848637,0.71289457674 5.4150094946993,1.7871143364508 8.5684068716669,6.5629444613127 8.5684068716669,12.9785875683215 6e-14,4.0461950270956 -0.7593820219509,5.6918376881638 -3.9394749624236,8.5332504267866 -2.431157933123,2.1722393810767 -5.2277808854204,3.311924939947 -7.9980912102748,3.5488477970864 -2.9137170824842,0.036474765865 -5.907442036878,-0.8099407887559 -8.3965309189186,-2.3691537577688 -1.8594786544698,-1.3730045497484 -3.4227249775649,-3.2932273812187 -4.4492434131883,-5.7500318737604 -1.3689143036716,-3.2762731719696 -1.2960709831596,-6.5390161769908 -0.2324231633755,-9.3574737456477 0.9231202007805,-2.089236816073 2.3343441814315,-4.0051619317137 4.066428791158,-5.5117493029048 2.0976599389441,-1.6505519468019 4.7168377405982,-2.6926476937378 7.5859795508443,-2.7851716888527 z"
     id="path4412"
     inkscape:connector-curvature="0" />
</svg>
