<svg xmlns="http://www.w3.org/2000/svg" fill="#f57900" viewBox="0 0 48 48"><path d="m10 6c-2.21 0-4 1.79-4 4v28c0 2.21 1.79 4 4 4h28c2.21 0 4-1.79 4-4v-28c0-2.21-1.79-4-4-4h-28m21.594 4.223c.142 0 .285.011.432.035.146.02.311.051.494.092l-.152 1.148c-.081-.016-.172-.031-.273-.043-.098-.012-.204-.018-.318-.018-.321 0-.564.09-.727.273-.159.183-.236.445-.236.787v.77h1.342v1.1h-1.342v5.504h-1.484v-5.504h-1.01v-1.1h1.01v-.77c0-.728.197-1.289.592-1.684.399-.395.958-.592 1.674-.592m-6.586 2.924c.793 0 1.435.231 1.928.695.496.46.737 1.046.721 1.758l-.012.037h-1.35c0-.362-.119-.67-.359-.922-.236-.252-.545-.379-.928-.379-.557 0-.954.202-1.186.609-.232.403-.348.911-.348 1.521v.213c0 .623.116 1.136.348 1.539.232.399.628.598 1.186.598.362 0 .666-.107.914-.318.248-.216.373-.483.373-.805h1.342l.014.037c.02.618-.233 1.15-.758 1.598-.521.448-1.148.672-1.885.672-.972 0-1.719-.313-2.24-.939-.517-.627-.775-1.421-.775-2.381v-.213c0-.956.259-1.748.775-2.375.521-.631 1.268-.945 2.24-.945m-9.473.121h1.684l1.203 2.264 1.221-2.264h1.703l-2.076 3.266 2.137 3.338h-1.686l-1.275-2.318-1.275 2.318h-1.697l2.137-3.338-2.074-3.266m13.465 10.732l9 12h-28l7-9 5 6.01 7-9.01"/></svg>