<svg xmlns="http://www.w3.org/2000/svg" fill="#03A9F4" viewBox="0 0 48 48"><path d="m40 12h-16l-4-4h-12c-2.21 0-3.98 1.79-3.98 4l-.02 24c0 2.21 1.79 4 4 4h32c2.21 0 4-1.79 4-4v-20c0-2.21-1.79-4-4-4"/><g fill="#fff"><path d="m12 36c0 1.1.9 2 2 2h2v7c0 1.66 1.34 3 3 3 1.66 0 3-1.34 3-3v-7h4v7c0 1.66 1.34 3 3 3 1.66 0 3-1.34 3-3v-7h2c1.1 0 2-.9 2-2v-20h-24v20m-5-20c-1.66 0-3 1.34-3 3v14c0 1.66 1.34 3 3 3 1.66 0 3-1.34 3-3v-14c0-1.66-1.34-3-3-3m34 0c-1.66 0-3 1.34-3 3v14c0 1.66 1.34 3 3 3 1.66 0 3-1.34 3-3v-14c0-1.66-1.34-3-3-3zm-9.94-11.68l2.61-2.61c.39-.39.39-1.02 0-1.41-.39-.39-1.02-.39-1.41 0l-2.96 2.95c-1.6-.79-3.39-1.25-5.3-1.25-1.92 0-3.72.46-5.33 1.26l-2.97-2.97c-.39-.39-1.02-.39-1.41 0-.39.39-.39 1.02 0 1.41l2.62 2.62c-2.97 2.19-4.91 5.71-4.91 9.68h24c0-3.98-1.95-7.5-4.94-9.68m-11.06 5.68h-2v-2h2v2zm10 0h-2v-2h2v2" transform="matrix(.41664 0 0 .41664 19.838 17)"/></g></svg>