<svg fill="#CDDC39" height="48" viewBox="0 0 48 48" width="48" xmlns="http://www.w3.org/2000/svg"><g fill="#04a"><path d="m8 12h-4v28c0 2.21 1.79 4 4 4h28v-4h-28z"/><path d="m16 4c-2.21 0-4 1.79-4 4v24c0 2.21 1.79 4 4 4h24c2.21 0 4-1.79 4-4v-24c0-2.21-1.79-4-4-4zm17.251953 6a.399716.398548 0 0 0 .050781.001953c.055713-.003273.043179-.001002.058594.009766s.052846.048537.113281.121094c.087784.105662.115944.160752.132813.251953a.399716.398548 0 0 0 0 .019531c.128957 1.976387-.217255 3.995481-.703125 5.917969a.399716.398548 0 0 0 -.070313.167968c-.03564.221967-.113013.376706-.234375.460938-.112149.077814-.161018.092479-.193359.085937-.043209-.008862-.115978-.077753-.173828-.152343a.399716.398548 0 0 0 -.03125-.070313c-.31098-1.134614.076515-2.339132.197266-3.521484a.399716.398548 0 0 0 0-.056641c.246342-1.079737.252045-2.282469.796875-3.201172-.011885.019202.008164-.005536.05664-.035156zm4.466797.933594a.374518.373424 0 0 0 .001953 0c.08033-.009968.229288.088696.244141.11914.050415.103052.046945.156074-.009766.292969a.374518.373424 0 0 0 -.001953.007813c-.820008 2.084934-1.818112 4.229808-3.138672 6.039062a.374518.373424 0 0 0 -.009765.013672c-.01217.018243-.005095.041216-.013672.0625-.098755.14742-.33894.23073-.470703.203125-.139747-.030206-.274783-.16311-.279297-.398437.097606-1.488526 1.025563-2.765691 1.753906-4.052735a.374518.373424 0 0 0 .041016-.109375c.578394-.787716 1.009731-1.768175 1.845703-2.173828a.374518.373424 0 0 0 .037109-.003906zm-12.984375.601562c.135506-.024718.274945-.014559.400391 0 .416883.029038.761335.215661 1.003906.5.408131.477933.601109 1.186196.726562 1.925782.124154.736522.159736 1.526643.175782 2.125v.724609c-.000137.017439 0 .035789 0 .048828 0 .033438-.016046.072525 0 .101563.01757.030557.070486.031389.099609.048828.023347.014479.026151.02219.050781.02539.045731.014559.091189.036303.175782.050782.285894.052396.741913.072843 1.228515.148437.973493.150973 2.2482.431272 3.560547.775391 1.312916.344262 2.629635.816266 3.685547 1.5 1.051965.681254 1.840529 1.563327 2.003906 2.75.10327.736098-.458642 1.475824-1.228515 2.15039-.768558.673551-1.77351 1.304729-2.857422 1.898438-1.083479.59326-2.211738 1.131468-3.109375 1.550781-.448839.209729-.847636.354411-1.152344.5-1.550955.623802-3.296756 1.180632-5.140625 1.550781-.072928 0-.246879.043229-.324219.048828-9.3891.811285-5.015625-10.773437-5.015625-10.773437.00053 0 .231358-.5476.326172-.875.018934-.074155.050781-.273215.050781-.349609-.013077-.077115-.06225-.22098-.101562-.375-.09175-.365358-.232325-.811971-.324219-1.351563-.090418-.540768-.149392-1.16049-.025391-1.699219.1234-.530585.440378-1.038944 1.001954-1.349609.217323-.107992.467543-.152006.677734-.099609.217764.053756.443895.214579.626953.375.366259.321144.695771.785705.976563 1.298828.279765.51109.53291 1.056256.728515 1.5.098015.222823.153126.399224.22461.550781.032091.066875.055793.161381.076171.199219.01757.036397 0 .037069 0 .02539.019015.030558.070487.033343.09961.050782-.019014-.014559.062261.034349.125.048828.092038.023278.160938.05638.25.050781.045209 0 .090609-.023103.126953-.050781.016046 0-.016046-.040109 0-.048828.029203-.034958.048828-.032576.048828-.076172v-.09961c-.037788-.13235-.115138-.32595-.224609-.724609-.127347-.460774-.244492-1.065274-.326172-1.650391-.081697-.586285-.122541-1.15881 0-1.673828.120343-.503379.398251-.934318.902344-1.125.142526-.055276.342372-.176294.476562-.201172z"/></g></svg>