<svg fill="#CDDC39" height="48" viewBox="0 0 48 48" width="48" xmlns="http://www.w3.org/2000/svg"><g fill="#dd4814"><path d="m8 12h-4v28c0 2.21 1.79 4 4 4h28v-4h-28z"/><path d="m16 4c-2.21 0-4 1.79-4 4v24c0 2.21 1.79 4 4 4h24c2.21 0 4-1.79 4-4v-24c0-2.21-1.79-4-4-4zm18.4375 6.003906c.368369-.026046.747832.053404 1.091797.251953.917342.529669 1.23084 1.7019.701172 2.619141-.529365.916937-1.7019 1.230942-2.619141.701172-.917038-.529364-1.230637-1.7019-.701172-2.619141.331043-.573338.913395-.909714 1.527344-.953125zm-4.75 2.041016c.771192 0 1.517905.106617 2.226563.302734.125271.770381.581619 1.479575 1.310546 1.900391.728016.42041 1.571651.462976 2.300782.1875 1.418226 1.394408 2.340114 3.291704 2.474609 5.404297l-2.732422.039062c-.252368-2.861182-2.65332-5.105468-5.580078-5.105468-.843355 0-1.641799.18773-2.359375.521484l-1.332031-2.386719c1.113053-.551358 2.364701-.863281 3.691406-.863281zm-4.623047 1.400391 1.402344 2.347656c-1.440321 1.013525-2.382813 2.68859-2.382813 4.583984 0 1.895597.942492 3.570459 2.382813 4.583985l-1.402344 2.347656c-1.678398-1.121264-2.926793-2.8338-3.445312-4.841797.605885-.493688.992187-1.247097.992187-2.089844 0-.842949-.386403-1.594101-.992187-2.08789.518621-2.007795 1.766914-3.722791 3.445312-4.84375zm-5.146484 5.013671c1.059134 0 1.917969.85843 1.917969 1.917969 0 1.059033-.858936 1.917969-1.917969 1.917969-1.059438 0-1.917969-.858936-1.917969-1.917969 0-1.059438.858531-1.917969 1.917969-1.917969zm15.349609 2.414063 2.732422.039062c-.133988 2.112593-1.056484 4.009889-2.474609 5.404297-.729131-.275577-1.572766-.232707-2.300782.1875-.729029.42112-1.185275 1.13001-1.310546 1.900391-.708759.196117-1.455371.302734-2.226563.302734-1.326299 0-2.580204-.310173-3.693359-.861328l1.333984-2.388672c.717373.333754 1.515919.521485 2.359375.521485 2.927062 0 5.328622-2.243273 5.580078-5.105469zm-.564453 6.050781c.613941.043342 1.196428.37985 1.527344.953125.529567.917241.216068 2.089675-.701172 2.619141-.917342.529567-2.089472.216068-2.619141-.701172-.529364-.916937-.216068-2.089574.701172-2.619141.343889-.198549.723432-.277958 1.091797-.251953z"/></g></svg>