<svg fill="#CDDC39" height="48" viewBox="0 0 48 48" width="48" xmlns="http://www.w3.org/2000/svg"><path d="m8 8c-2.21 0-3.980469 1.79-3.980469 4l-.019531 24c0 2.21 1.79 4 4 4h32c2.21 0 4-1.79 4-4v-20c0-2.21-1.79-4-4-4h-16l-4-4z" fill="#294172"/><path d="m26.42136 26.425158h4.153482v4.153482c0 2.292684-1.860711 4.153482-4.153482 4.153482-2.292684 0-4.153482-1.860711-4.153482-4.153482 0-2.292684 1.860711-4.153482 4.153482-4.153482z" fill="none" stroke="#3c6eb4" stroke-width="2.535755"/><path d="m34.70749 26.432971h-4.153482v-4.153482c0-2.292684 1.860711-4.153482 4.153482-4.153482 2.292684 0 4.153482 1.860711 4.153482 4.153482 0 2.292684-1.860711 4.153482-4.153482 4.153482z" fill="none" stroke="#3c6eb4" stroke-width="2.535755"/><path d="m31.845324 25.160319v5.412679c0 2.995334-2.428544 5.423964-5.423964 5.423964-.454457 0-.777481-.051305-1.198168-.161295-.613755-.160514-1.114656-.663498-1.114916-1.248432 0-.707077.513228-1.221434 1.280465-1.221434.365128 0 .497689.070143 1.032619.070143 1.579096 0 2.860256-1.279163 2.863034-2.858433v-2.487749c0-.222931-.181175-.403498-.404453-.403498l-1.880765-.000347c-.700566 0-1.266923-.558891-1.266923-1.261627-.000347-.707077.571999-1.263711 1.280292-1.263711" fill="#fff"/><path d="m29.283525 27.69781v-5.412679c0-2.995334 2.428544-5.423964 5.423964-5.423964.454457 0 .777481.051305 1.198168.161295.613755.160514 1.114656.663498 1.114916 1.248432 0 .707077-.513228 1.221434-1.280465 1.221434-.365128 0-.497689-.070143-1.032619-.070143-1.579096 0-2.860256 1.279163-2.863034 2.858433v2.487749c0 .222931.181175.403498.404453.403498l1.880765.000347c.700566 0 1.266923.558891 1.266923 1.261627.000347.707077-.571999 1.263711-1.280292 1.263711" fill="#fff"/><path d="m40.877162 35.234759v-.480153l-.219546.503331s-.213642-.503331-.213642-.503331v.480153h-.123098v-.758296h.129088s.211298.484493.211298.484493l.208086-.484493h.130651v.758296h-.122925m-.89702-.631291v.631291h-.128654v-.631291h-.215726v-.127005h.559845v.127005" fill="#3c6eb4"/></svg>