<svg fill="#CDDC39" height="48" viewBox="0 0 48 48" width="48" xmlns="http://www.w3.org/2000/svg"><path d="m8 8c-2.21 0-3.980469 1.79-3.980469 4l-.019531 24c0 2.21 1.79 4 4 4h32c2.21 0 4-1.79 4-4v-20c0-2.21-1.79-4-4-4h-16l-4-4zm21 9c5.522869 0 10 4.47699 10 10 0 5.522587-4.477131 10-10 10-5.522868 0-10-4.477343-10-10 0-5.52301 4.477131-10 10-10zm3.564453 2.787109c-.516185-.064045-1.043771.177302-1.320312.65625-.368582.638315-.150105 1.455708.488281 1.824219.638526.368793 1.455708.150034 1.824219-.488281.368723-.638598.148362-1.455496-.490235-1.824219-.159614-.092145-.329891-.14662-.501953-.167969zm-3.564453 1.41211c-.923288 0-1.795473.21774-2.570312.601562l.927734 1.66211c.499321-.232339 1.055486-.363282 1.642578-.363282 2.037429 0 3.709577 1.562767 3.884766 3.554688l1.902343-.027344c-.09363-1.470657-.737327-2.791087-1.724609-3.761719-.507576.19177-1.092809.161805-1.599609-.130859-.507435-.292946-.826857-.787927-.914063-1.324219-.493324-.136525-1.011971-.210937-1.548828-.210937zm-3.216797.974609c-1.168398.780625-2.037405 1.975344-2.398437 3.373047.42171.343747.689453.866315.689453 1.453125 0 .586669-.269626 1.10945-.691407 1.453125.360963 1.397845 1.231992 2.592492 2.400391 3.373047l.974609-1.634766c-1.002663-.705554-1.658203-1.871737-1.658203-3.191406 0-1.319457.655541-2.48571 1.658203-3.191406zm-3.583984 3.492188c-.737516 0-1.333985.596468-1.333985 1.333984 0 .737234.596469 1.335937 1.333985 1.335938.737234 0 1.335937-.598704 1.335937-1.335938 0-.737587-.598633-1.333984-1.335937-1.333984zm10.685547 1.679687c-.175048 1.992204-1.847337 3.554688-3.884766 3.554688-.587163 0-1.143187-.130942-1.642578-.363282l-.927734 1.66211c.774909.38368 1.647023.601562 2.570312.601562.536856 0 1.055434-.074417 1.548828-.210937.08721-.536292.406558-1.031061.914063-1.324219.5068-.292523 1.092033-.320746 1.599609-.128906.987212-.970702 1.631123-2.293014 1.724609-3.763672zm-.650391 4.21875c-.172056.021346-.342357.075823-.501953.167969-.638597.368652-.856792 1.185903-.488281 1.824219.368723.638597 1.185621.856933 1.824218.488281.638386-.368582.856934-1.185693.488282-1.824219-.276437-.478736-.806098-.720289-1.322266-.65625z" fill="#CDDC39"/></svg>