<svg fill="#CDDC39" height="48" viewBox="0 0 48 48" width="48" xmlns="http://www.w3.org/2000/svg"><path d="m8 8c-2.21 0-3.980469 1.79-3.980469 4l-.019531 24c0 2.21 1.79 4 4 4h32c2.21 0 4-1.79 4-4v-20c0-2.21-1.79-4-4-4h-16l-4-4z" fill="#87cf3e"/><g fill-rule="evenodd"><path d="m30.186451 21.623433c-.700771 0-1.323426.260173-1.823719.765554-.500043.505111-.762596 1.135703-.762594 1.847347v3.597207h1.631595v-3.597207c0-.272763.089001-.486043.283753-.682774.195393-.19736.402303-.286706.670965-.286706.274292 0 .478098.088896.673918.286706.194754.196731.283756.410011.283756.682774v3.597207h1.631593v-3.597207c0-.272763.089002-.486043.283758-.682774.195818-.197809.399624-.286706.673921-.286706.268664 0 .475568.089346.670958.286706.194754.196731.283756.410011.283756.682774l.008867 4.203155c0 .896612-.853858 1.652273-1.950819 1.652273l-5.261297-.020686c-.846524 0-1.569524-.82396-1.569524-1.882839v-7.915136h-1.542919v8.219577c0 .872095.319121 1.636858.93994 2.255275.530629.523762 1.168784.863277 1.88579.939956l5.858369-.000014c.900225 0 1.691114-.334731 2.329159-.984301h.002961c.542651-.557528.859887-1.225569.936983-1.9774l-.005905-4.489861c0-.711644-.262544-1.342237-.762594-1.847347-.500287-.505381-1.122948-.765554-1.823715-.765554-.687862 0-1.289743.255785-1.77643.724164-.485264-.467607-1.082938-.724164-1.770516-.724164z" fill="#fff"/><path d="m28.337371 34.949914c-3.708742 0-6.927207-2.811577-6.927207-6.516995l-.003327-4.499177v-1.147287h-2.35131v-5.716543l9.915534.046696 3.101735.006672c3.712074-.000001 6.927204 2.808229 6.927204 6.516974v11.309657h-10.662624zm9.151772-3.033812c0-2.463786 0-8.275845 0-8.275845 0-2.764861-2.42468-5.006124-5.416353-5.006124h-3.105067v-.006672l-8.39802-.036695v2.684837h.940745c.638687 0 1.407224.600201 1.407224 1.480977l.006672 5.67303c0 2.764863 2.424692 5.006122 5.413026 5.006122h7.378186c.945888 0 1.773586-.599024 1.773586-1.51963z" fill="#c7f994"/></g></svg>