<svg fill="#CDDC39" height="48" viewBox="0 0 48 48" width="48" xmlns="http://www.w3.org/2000/svg"><path d="m8 8c-2.21 0-3.980469 1.79-3.980469 4l-.019531 24c0 2.21 1.79 4 4 4h32c2.21 0 4-1.79 4-4v-20c0-2.21-1.79-4-4-4h-16l-4-4zm11 9.070313 9.943359.046875 3.109375.005859c3.72209 0 6.947266 2.816049 6.947266 6.535156v11.341797h-10.693359c-3.719249 0-6.945313-2.819387-6.945313-6.535156l-.003906-4.511719v-1.150391h-2.357422zm1.517578 1.52539v2.691406h.94336c.640588 0 1.412109.601187 1.412109 1.484375l.005859 5.689454c0 2.772569 2.431456 5.019531 5.427735 5.019531h7.398437c.948526 0 1.779297-.600266 1.779297-1.523438v-8.298828c0-2.77257-2.431811-5.019531-5.431641-5.019531h-3.113281v-.007813zm3.814453 1.6875h1.548828v7.9375c0 1.061801.72338 1.886719 1.572266 1.886719l5.277344.021484c1.099724 0 1.955078-.757153 1.955078-1.65625l-.007813-4.214843c0-.273565-.089854-.488257-.285156-.685547-.19594-.197858-.404383-.28711-.673828-.28711-.275055 0-.479415.088754-.675781.28711-.195515.19729-.283203.412054-.283203.685547v3.605468h-1.636719v-3.605468c0-.273565-.089855-.488257-.285156-.685547-.196367-.198356-.400726-.28711-.675782-.28711-.269445 0-.475934.089181-.671875.28711-.195514.19729-.285156.412054-.285156.685547v3.605468h-1.636719v-3.605468c0-.713028.26228-1.347011.763672-1.853516.501676-.50679 1.127348-.767578 1.830078-.767578h.001954c.68952 0 1.28877.257626 1.77539.726562.487828-.469646 1.091446-.726562 1.78125-.726562.70273 0 1.326733.260788 1.828125.767578.501463.506221.763672 1.139778.763672 1.853516l.005859 4.501953c-.077268.753934-.395308 1.423362-.939453 1.982422h-.001953c-.639807.651383-1.433219.988281-2.335937.988281h-5.875c-.718994-.076913-1.358553-.418176-1.890625-.94336-.62255-.620277-.94336-1.387194-.94336-2.261718z" fill="#CDDC39"/></svg>