<svg fill="#CDDC39" height="48" viewBox="0 0 48 48" width="48" xmlns="http://www.w3.org/2000/svg"><path d="m8 8c-2.21 0-3.980469 1.79-3.980469 4l-.019531 24c0 2.21 1.79 4 4 4h32c2.21 0 4-1.79 4-4v-20c0-2.21-1.79-4-4-4h-16l-4-4zm23.132813 8c-.237705.054032-.565005.017547-.789063.099609l-.132812-.019531c.303907-.039279.612066-.054076.921875-.080078zm-1.353516.142578c-.158962.088886-.315841.159112-.464844.263672.603685-.144015.576191.057201 1.191406-.023437-.216317.031758-.477469.117661-.435546.15039.690062.080034.794613-.212809 1.433593 0l-.039062-.189453c.887381.320505 1.072645.26579 2.037109.777344.338946.016412.373028-.208199.884766 0 .089992.158039-.020679.186563.607422.560547.070075-.027846-.124762-.204261-.279297-.345703 1.263024.674571 2.636077 2.114104 3.054687 3.654296-.391871-.722518-.041162.369114-.175781.3125.174636.471168.317733.958236.40625 1.460938-.115994-.412894-.369178-1.408481-.8125-2.050781-.036144.414553-.571771-.287277-.279297.625.222952.323086.045542-.326206.320313.248047.004241.272926.109435.54271.169922.898437-.094418-.01549-.210144-.392223-.279297-.287109.09534.447378.252751.680543.3125.714843-.030612.074871-.109887-.069901-.115235.234375.036513.700574.196245.404122.271485.4375-.076346.344663-.384745.750688-.232422 1.34375-.043705-.179615-.1304-.359086-.195313-.529296-.060117.506389.112738.605033-.121093 1.21875.16855-.55323.150964-1.052971-.007813-.8125.07026.786324-.621745 1.389549-.546875 1.886718l-.203125-.277343c-.5453.790565-.012148.436192-.382812 1.035156.136094-.235307-.07175-.096809.105468-.363281-.117653.006823-.525929.500754-.898437.791015-1.465138 1.174507-3.212998 1.327839-4.90625.695313-.065835.054032.301367.341054.572265.480468.644698.238442 1.375151.249723 1.949219.228516-1.241079.51893-3.60969-.528331-4.384765-1.916016.175373.038173.775017.976584 1.224609 1.128907-.265735-.212994-.471614-.484844-.662109-.763672.359046.412709.796553.749336 1.273437.972656-.030612-.115994.132152-.138693-.09375-.291016-1.436001-1.100005-2.284737-2.034798-1.990234-4.199218.218894-.165232.276964-1.068503.779297-1.384766.30612-.676416 1.22457-1.298963 2.205078-1.314453 1.000977-.055139 1.845204.53477 2.269531 1.089844-.772494-.719937-2.036805-.940117-3.115234-.40625-1.102772.496431-1.75745 1.710745-1.66211 2.919922.040939-.060303.077925-.022688.097656-.171875-.033747 2.35012 2.531119 4.072249 4.378907 3.203125l.023437.048828c.749073-.204327.650832-.372621 1.140625-.708985-.038173.078928-.328195.279331-.154297.283203.238442-.063252.981787-.754779 1.347657-1.080078.167813-.361997-.089854-.19722.144531-.652343l.287109-.142579c.158929-.45966.335578-.71949.316406-1.253906l-.167968.351563c.246003-.744832.104002-1.554733.138672-2.25586l-.06836-.019531c-.060118-1.763881-1.584333-3.639252-2.941406-4.273437-1.169528-.540322-2.970861-.631603-3.802734-.22461.114518-.101425.570979-.144466.433593-.222656-1.302487.129456-1.01137.453945-2.009765.708984-.273849.264444.800228-.211959.222656.13086-.535527.147712-.786562-.092662-1.580078.728515.070629.114334.503837-.338598.142578.115235-.745754-.092574-2.35537 1.706352-2.697266 2.302734l.179688.03125c-.293581.735427-.679865 1.203976-.732422 1.644531-.075793 1.082671-.455072 3.058569.070312 3.666016l-.050781.507812c.072104.14384.127174.290794.216797.425782l-.117187.007812c.552676 1.743228.592555.033213 1.322265 1.84375-.105851-.035591-.211068-.075004-.365234-.283203-.018441.158777.222748.635304.511719 1.007813l-.121094.138671c.160805.292106.308354.357006.419922.458985-.600439-.327697.557549 1.080334.662109 1.259765l.091797-.164062c-.013278.236229.168716.541623.511719.964844l.287109-.011719c.117654.232541.547654.652143.808594.671875l-.173828.226562c.655024.207462.317913.275634 1.123047.560547l-.16211-.287109c.410866.35628.537587.668479 1.117188.941406.803658.280119.909509.168437 1.734375.404297-.699099-.020285-1.521542-.01325-2.074219-.210937-3.770631-1.021632-7.21907-5.444336-6.966797-10-.058089-.922419.091114-2.075098-.0625-2.304688.215575-.701864.466417-1.557676.96875-2.576172-.036329-.068232.082483.19888.337891-.236328.154904-.340236.281272-.714275.476562-1.044922l.09961-.023437c.100503-.583474 1.361053-1.479174 1.736328-1.929688l.027343.173828c.818965-.767883 2.277879-1.283783 3.09961-1.65039-.21576.238811.48252-.024076.986328-.054688zm.498047.115235c.590665.016781.546961.055241.353515.097656l-.007812.015625-.115234.011719.123046-.027344c.028768-.04223-.176666-.065938-.353515-.097656zm-7.800781 4.023437c-.00332.198056.333373-.194584.091796.349609-.450698.315157-.040162.128382-.091796-.349609zm-.367188 1.519531c-.039648.18441-.058287.374699-.162109.69336.030243-.249507-.124833-.326568.162109-.69336zm11.810547 2.214844c.040985-.001037.068836.100062.048828.398438-.059749.240286-.108145-.147601-.169922-.179688.026463-.113873.080109-.217713.121094-.21875zm3.623047 1.005859c-.088517.680104-.298595 1.351128-.625 1.964844.295425-.581629.486917-1.209748.576172-1.84375zm-3.837891.222657c-.050713.308333-.195259.606532-.392578.878906.024158-.234201-.550854.102.115234-.736328-.057904.236229-.61748.856824.001954.466797.112305-.20027.231132-.389559.27539-.609375zm-1.351562 1.28125c-.096631.091836-.204721.185985-.324219.279297-.432626-.066573-.825525-.233672-.494141-.238282.276246.025264.548937.025003.81836-.041015zm-4.181641.041015c.076346.152876.144509.306167.259766.433594l.101562.300781c-.139229-.234754-.288302-.465689-.361328-.734375zm-.253906.455078c.27348.527966.421009.689498.621094 1.080079-.278091-.231251-.450181-.551863-.667969-.847657z" fill="#d70a53"/></svg>