<svg fill="#CDDC39" height="48" viewBox="0 0 48 48" width="48" xmlns="http://www.w3.org/2000/svg"><path d="m8 8c-2.21 0-3.980469 1.79-3.980469 4l-.019531 24c0 2.21 1.79 4 4 4h32c2.21 0 4-1.79 4-4v-20c0-2.21-1.79-4-4-4h-16l-4-4zm19.132812 9h4c.25 0 .455.184922.5.419922l.375 2.65039c.61.255 1.174454.589376 1.689454.984376l2.490234-1.003907c.225-.09.484375-.000156.609375.214844l2 3.464844c.125.22.070859.488672-.119141.638672l-2.115234 1.65625c.04.32.070312.644609.070312.974609s-.030312.654609-.070312.974609l2.109375 1.65625c.19.155.246094.423672.121094.638672l-2 3.464844c-.125.215-.384375.299844-.609375.214844l-2.490235-1.003907c-.515.4-1.081406.729375-1.691406.984376l-.375 2.65039c-.04.235-.244141.419922-.494141.419922h-4c-.249999 0-.456093-.184922-.496093-.419922l-.375-2.65039c-.61-.255-1.174453-.589375-1.689453-.984376l-2.490235 1.003907c-.225.09-.484375.000156-.609375-.214844l-2-3.464844c-.125-.22-.070859-.488672.119141-.638672l2.111328-1.65625c-.04-.32-.070313-.644609-.070313-.974609.000001-.33.030313-.654609.070313-.974609l-2.111328-1.65625c-.19-.155-.244141-.423672-.119141-.638672l2-3.464844c.125-.215.384375-.299844.609375-.214844l2.490235 1.003907c.515-.4 1.079453-.729376 1.689453-.984376l.375-2.65039c.04-.235.246093-.419922.496093-.419922zm2 6.5c-1.934999 0-3.5 1.565-3.5 3.5.000001 1.935 1.565001 3.5 3.5 3.5 1.935 0 3.5-1.565 3.5-3.5s-1.565-3.5-3.5-3.5z" fill="#CDDC39"/><path d="m79.186441 15.966102h-6v11c0 2.76-2.24 5-5 5s-5-2.24-5-5 2.24-5 5-5c1.13 0 2.16.39 3 1.02v-11.02h8z" fill="#fff"/></svg>