<svg fill="#CDDC39" height="48" viewBox="0 0 48 48" width="48" xmlns="http://www.w3.org/2000/svg"><path d="m8 12h-4v28c0 2.21 1.79 4 4 4h28v-4h-28z" fill="#CDDC39"/><path d="m16 4c-2.21 0-4 1.79-4 4v24c0 2.21 1.79 4 4 4h24c2.21 0 4-1.79 4-4v-24c0-2.21-1.79-4-4-4z" fill="#CDDC39"/><path d="m18 11 9.943359.046875 3.109375.005859c3.72209 0 6.947266 2.81605 6.947266 6.535157v11.341797h-10.693359c-3.719249 0-6.945313-2.819387-6.945313-6.535156l-.003906-4.511719v-1.150391h-2.357422z" fill="#fff"/><path d="m19.517578 12.525391v2.691406h.943359c.640589 0 1.412109.601187 1.412109 1.484375l.00586 5.689453c0 2.77257 2.431456 5.019531 5.427734 5.019531h7.398438c.948526 0 1.779297-.600266 1.779297-1.523438v-8.298828c0-2.77257-2.431811-5.019531-5.431641-5.019531h-3.113281v-.007813l-8.421875-.035156z" fill="#CDDC39"/><path d="m23.332031 14.212891h1.548828v7.9375c0 1.0618.723379 1.886719 1.572266 1.886719l5.277344.021484c1.099724 0 1.955078-.757153 1.955078-1.65625l-.007813-4.214844c0-.273564-.089855-.488257-.285156-.685547-.19594-.197858-.404383-.287109-.673828-.287109-.275055 0-.479415.088754-.675781.287109-.195514.19729-.283203.412054-.283203.685547v3.605469h-1.636719v-3.605469c0-.273564-.089855-.488257-.285156-.685547-.196367-.198355-.400726-.287109-.675781-.287109-.269445 0-.475934.08918-.671875.287109-.195514.19729-.285156.412054-.285156.685547v3.605469h-1.636719v-3.605469c0-.713028.26228-1.34701.763672-1.853516.501676-.506789 1.127348-.767578 1.830078-.767578h.001953c.68952 0 1.288771.257626 1.775391.726563.487827-.469647 1.091445-.726563 1.78125-.726563.70273 0 1.326733.260789 1.828125.767578.501462.506222.763671 1.139778.763671 1.853516l.005859 4.501953c-.077268.753934-.395308 1.423363-.939453 1.982422h-.001953c-.639807.651383-1.433219.988281-2.335938.988281h-5.875c-.718993-.076913-1.358553-.418176-1.890625-.943359-.62255-.620277-.943359-1.387195-.943359-2.261719z" fill="#fff"/></svg>