<svg fill="#CDDC39" height="48" viewBox="0 0 48 48" width="48" xmlns="http://www.w3.org/2000/svg"><path d="m8 8c-2.21 0-3.980469 1.79-3.980469 4l-.019531 24c0 2.21 1.79 4 4 4h32c2.21 0 4-1.79 4-4v-20c0-2.21-1.79-4-4-4h-16l-4-4zm-1.037109 8.746094c.109157-.018261 2.830656 1.419533 4.660156 1.916015 3.26234.833694 6.240354 3.341841 7.679687 4.783204.106723.123359 1.235906-.845187 2.417969-.775391 1.614634.097795 6.609821 1.503522 7.277344.546875.404774-.561612.375855-1.250977.880859-1.533203.271879-.076086-1.009529-2.422307.353516-3.173828.971864-.48573 1.795362 2.234315 2.044922 2.539062.111795.136345.704967.170007.634765-.140625-.076085-.337413-1.035757-2.946919.140625-3.384765 1.910658-.756594 1.571385 3.338616 1.621094 3.455078.105708.247937 6.65567.439143 7.052735 3.384765.229676 1.621127-5.247562 3.716518-5.783204 4.089844-.535438.373326-.490028.970373-.28125 1.339844.240025.400716 1.834539 1.752294 1.621094 2.396484-.146693.372109-3.124341-.991768-3.314453-.705078-.433586.547612 2.167745 1.917949 1.269531 2.890625-.35608.232923-4.451754-1.714333-4.441406-1.691406-.109969.041796-5.789225 1.036422-10.154297-.283203-.153794-.04342-2.80242 2.558226-3.103515 2.46875-.411673-.150954.607355-2.262334.49414-2.679688-.18504-.232517-1.87722.944953-1.974609.353516-.116462-.777289 1.484618-1.672351 1.410156-2.1875-.41289-2.92655.184949-4.63392 1.199219-6.0625.338225-.525903-3.974907-3.784773-7.097656-5.070313-3.122547-1.285539-4.793071-2.374912-4.607422-2.476562zm33.328125 2.640625c.172054.125389-.157215 2.553121-.345703 2.412109-.219532-.106722.256226-2.515991.345703-2.412109zm1.628906.3125c.080752.079737-1.096667 2.461324-1.285156 2.320312-.313472-.232111 1.104377-2.469845 1.285156-2.320312zm-6.412109 2.558594a.565475.643824 0 0 0 -.564454.642578.565475.643824 0 0 0 .564454.644531.565475.643824 0 0 0 .566406-.644531.565475.643824 0 0 0 -.566406-.642578zm-1.269532.390625c-.56222.39747.309956 2.64732 1.742188 1.333984-1.125253.033072-1.501961-.296991-1.742188-1.333984zm3.035157 2.71289c-.623983.050608-2.27805 1.065178-2.248047 1.169922.019883.151968 3.007609-.922435 2.443359-1.126953-.039184-.037637-.106172-.050199-.195312-.042969zm.447265.701172c-.364804-.188083-1.85283 1.544912-1.662109 1.660156-.024956.041188 2.194707-1.131007 1.662109-1.660156z" fill="#CDDC39"/></svg>