<svg fill="#CDDC39" height="48" viewBox="0 0 48 48" width="48" xmlns="http://www.w3.org/2000/svg"><g fill="#CDDC39"><path d="m8 12h-4v28c0 2.21 1.79 4 4 4h28v-4h-28z"/><path d="m16 4c-2.21 0-4 1.79-4 4v24c0 2.21 1.79 4 4 4h24c2.21 0 4-1.79 4-4v-24c0-2.21-1.79-4-4-4zm12 6c.0145.03403.024732.056174.039062.089844.327332.768953.612453 1.439164.888672 2.08789.00412.00966.007619.02165.011719.03125.034858.081779.076578.178606.111328.259766.071062.163417.171581.398143.238281.550781.723248 1.668228 1.523931 3.393907 3.03125 6.324219.06583.128399.14906.288299.21875.423828.805272 1.5574 1.781506 3.406837 3.06836 5.802734-.675638-.405663-1.543295-.769417-2.753906-1.083984 1.761288.90401 2.62335 1.739244 3.451172 2.38086.525544.974523 1.078754 1.997685 1.695312 3.132812-3.126436-1.804948-5.559406-2.927877-7.824219-3.371094.075447-.341244.119407-.709279.128907-1.091797.050296-2.03078-.924364-3.763106-2.175782-3.86914s-2.307122 1.455549-2.357422 3.486328l-.003906.099609c-.003789.476366.048534.935206.146484 1.357422-2.289445.430728-4.745101 1.559175-7.914062 3.388672 1.962073-3.525447 3.407845-6.17558 4.554688-8.326172.800119-1.500808 1.445407-2.7472 1.974609-3.802734.267001-.532623.541941-1.07868.759765-1.533203.002.0017.00386.004159.00586.005859.118029.09907.253347.195179.386719.292969.053158.039017.098476.078347.154297.117187.052648.036595.116745.072925.171874.109375.150296.099522.300398.200178.470704.298828.0013.0008.002606.001185.003906.001953.232881.134777.48442.268628.759766.402344.276344.134081.575668.266676.90039.400391-.299821-.209768-.57054-.413857-.818359-.611328-.002-.0015-.00396-.002307-.00586-.003907-.745397-.594481-1.276369-1.132216-1.730468-1.613281-.0026-.0027-.007266-.005112-.009766-.007812.991143-2.117702 1.531654-3.547887 2.421875-5.730469z"/></g></svg>