<svg fill="#CDDC39" height="48" viewBox="0 0 48 48" width="48" xmlns="http://www.w3.org/2000/svg"><g fill="#a80030"><path d="m8 12h-4v28c0 2.21 1.79 4 4 4h28v-4h-28z"/><path d="m16 4c-2.21 0-4 1.79-4 4v24c0 2.21 1.79 4 4 4h24c2.21 0 4-1.79 4-4v-24c0-2.21-1.79-4-4-4zm13.451172 3c-.295303.067125-.701617.021682-.980469.123047l-.167969-.023438c.378294-.048893.762799-.067243 1.148438-.099609zm-1.683594.177734c-.197869.110642-.394604.197972-.580078.328125.751643-.179312.717958.07129 1.484375-.029296-.269355.039476-.595183.146736-.542969.1875.858965.099623.989776-.264898 1.785157 0l-.048829-.236329c1.104581.398953 1.334626.331987 2.535157.96875.421907.02043.464569-.259158 1.101562 0 .112019.196722-.025978.231745.75586.697266.087227-.034662-.155296-.255578-.347657-.431641 1.572168.839683 3.281663 2.631652 3.802735 4.548829-.487788-.899366-.051181.459142-.21875.388671.217381.586493.395676 1.192615.505859 1.81836-.144385-.513956-.459888-1.753222-1.011719-2.552735-.044991.516022-.709764-.356272-.345703.779297.277523.402167.056413-.406215.398438.308594.005279.33973.133693.676344.208984 1.119141-.117528-.019282-.259623-.488264-.345703-.357422.118676.556881.312345.845976.386719.888672-.038105.093196-.135922-.085784-.142578.292968.04545.87205.244235.503374.33789.544922-.095032.429024-.478668.933652-.289062 1.671875-.054403-.223579-.161387-.448284-.242188-.660156-.074832.630336.140675.753646-.15039 1.517578.209805-.688641.185921-1.311048-.011719-1.011719.087457.978789-.774837 1.730751-.681641 2.34961l-.25-.345703c-.67877.984068-.017126.54154-.478515 1.287109.169405-.292902-.087783-.119476.132812-.451172-.146451.008493-.653502.623068-1.117187.984375-1.823752 1.461985-4.001675 1.652581-6.109375.865235-.081949.067257.377639.426071.714843.599609.802497.296804 1.711202.309601 2.425782.283203-1.544852.645945-4.494199-.657424-5.458985-2.384766.218299.047517.965755 1.214691 1.525391 1.404297-.330778-.265127-.587097-.602143-.824219-.949218.446928.513726.990376.932956 1.583984 1.210937-.019052-.072193.022616-.11514.033204-.164062.010587-.048923-.009794-.104416-.150391-.199219-1.787483-1.369248-2.843149-2.532369-2.476563-5.226563.272473-.205674.345417-1.328983.970704-1.722656.381048-.841979 1.523638-1.617437 2.74414-1.636719 1.245981-.068634 2.296031.664532 2.824219 1.355469-.961573-.896152-2.534562-1.168445-3.876953-.503906-1.372692.61794-2.187035 2.129625-2.06836 3.634765.05096-.075062.096533-.02914.121094-.214843-.042007 2.925347 3.151111 5.070136 5.451172 3.988281l.027344.060547c.93242-.254338.812198-.464119 1.421875-.882813-.047516.098246-.409822.348695-.19336.353516.296805-.078735 1.222313-.940782 1.677735-1.345703.208888-.450601-.110114-.244025.18164-.810547l.355469-.179688c.197666-.571696.416021-.894484.392578-1.558593l-.207031.435547c.306216-.927141.12872-1.935856.171875-2.808594l-.083984-.023438c-.074833-2.195617-1.972873-4.528947-3.66211-5.318359-1.455787-.672573-3.696935-.78786-4.732422-.28125.142549-.126251.710075-.180016.539063-.277344-1.621291.161142-1.259186.565349-2.501953.882813-.340878.32917.994332-.262666.27539.164062-.666604.183867-.977102-.115923-1.964843.90625.087916.142319.627417-.420384.177734.144531-.928288-.115232-2.933795 2.12288-3.359375 2.865235l.222656.039062c-.365439.915434-.844735 1.498487-.910156 2.046875-.094344 1.347671-.566089 3.808325.087891 4.564453l-.0625.63086c.089753.179046.157971.361268.269531.529297l-.146484.011718c.687952 2.169909.738166.039276 1.646484 2.292969-.13176-.044302-.263177-.092404-.455078-.351562-.022955.19764.278971.790221.638672 1.253906l-.152344.173828c.200165.363603.384561.443373.523437.570313-.747405-.407906.692113 1.34501.822266 1.568359l.115234-.205078c-.016527.29405.211715.674361.638672 1.201172l.355469-.013672c.146451.289459.68105.811376 1.005859.835937l-.214843.283203c.815351.258241.396235.342616 1.398437.697266l-.203125-.357422c.511431.443485.669159.830192 1.390625 1.169922 1.000366.348682 1.133392.210316 2.160156.503906-.870212-.02525-1.894078-.015644-2.582031-.261718-4.693548-1.271691-8.987848-6.776536-8.673828-12.447266-.072307-1.148194.115041-2.583355-.076172-2.869141.268341-.873656.579792-1.939243 1.205078-3.207031-.045221-.084932.101999.248762.419922-.292969.19282-.423514.35066-.889203.59375-1.300781l.125-.029297c.125103-.726287 1.694981-1.84156 2.16211-2.402344l.03125.214844c1.019418-.955834 2.836513-1.596395 3.859375-2.052734-.268571.297263.601393-.030255 1.228515-.06836zm.619141.142579c.735239.020888.682201.070251.441406.123046l-.009766.019532-.144531.013672.154297-.033204c.035809-.052566-.221271-.083564-.441406-.123046zm-9.708985 5.009765c-.004131.246534.413988-.243799.113282.433594-.561013.392296-.049008.161392-.113282-.433594zm-.457031 1.890625c-.049352.229547-.071937.466624-.201172.863281.037646-.310577-.156003-.406712.201172-.863281zm14.699219 2.75586c.051017-.001292.087406.126639.0625.498046-.074373.2991-.134039-.184668-.210938-.224609.03294-.141745.097421-.272146.148438-.273437zm4.511719 1.251953c-.110183.846569-.372999 1.68138-.779297 2.445312.367734-.723991.607649-1.503786.71875-2.292969zm-4.777344.277343c-.063126.383803-.242666.754709-.488281 1.09375.03007-.291524-.684593.127506.144531-.916015-.072078.29405-.771049 1.067523 0 .582031.139794-.249288.288659-.486146.34375-.759766zm-1.681641 1.59375c-.120282.114315-.25555.233459-.404297.34961-.538517-.082867-1.029683-.291137-.617187-.296875.343861.031448.686116.029443 1.021484-.052735zm-5.207031.054688c.095032.190294.180752.380445.324219.539062l.126953.375c-.173308-.292213-.360271-.579612-.451172-.914062zm-.316406.564453c.340418.657193.526332.857569.77539 1.34375-.346157-.287852-.560936-.686494-.832031-1.054687z"/></g></svg>