<svg fill="#CDDC39" height="48" viewBox="0 0 48 48" width="48" xmlns="http://www.w3.org/2000/svg"><g fill="#CDDC39"><path d="m8 12h-4v28c0 2.21 1.79 4 4 4h28v-4h-28z"/><path d="m16 4c-2.21 0-4 1.79-4 4v24c0 2.21 1.79 4 4 4h24c2.21 0 4-1.79 4-4v-24c0-2.21-1.79-4-4-4zm-.894531 9.095703c.081868-.013695 2.123969 1.063185 3.496094 1.435547 2.446755.62527 4.680265 2.506869 5.759765 3.587891.080042.09252.925953-.634378 1.8125-.582032 1.210976.073347 4.958342 1.127642 5.458985.410157.30358-.421209.281402-.938721.660156-1.150391.203909-.057064-.756659-1.815265.265625-2.378906.728898-.364297 1.346033 1.675736 1.533203 1.904297.083846.102258.529213.125551.476562-.107422-.057064-.25306-.776818-2.208725.105469-2.53711 1.432993-.567445 1.177562 2.504451 1.214844 2.591797.079281.185953 4.991264.327893 5.289062 2.53711.172258 1.215845-3.934206 2.788365-4.335937 3.068359-.401579.279994-.367521.726803-.210938 1.003906.180019.300538 1.374928 1.315686 1.214844 1.798828-.110019.279082-2.341791-.744314-2.484375-.529296-.325189.410709 1.624832 1.438461.951172 2.167968-.26706.174692-3.339792-1.286726-3.332031-1.269531-.082477.031347-4.341431.778782-7.615235-.210937-.115345-.032565-2.10035 1.918669-2.326171 1.851562-.308755-.113215.454051-1.69675.36914-2.009766-.13878-.174387-1.407427.70725-1.480469.263672-.087346-.582966 1.114441-1.25231 1.058594-1.638672-.309668-2.194912.137735-3.477393.898438-4.548828.253668-.394427-2.982157-2.836626-5.324219-3.800781-2.34191-.964155-3.594315-1.781184-3.455078-1.857422zm24.996094 1.978516c.12904.094041-.116446 1.916305-.257813 1.810547-.164649-.080042.190705-1.888459.257813-1.810547zm1.222656.236328c.060564.059803-.823477 1.84404-.964844 1.738281-.235104-.174083.82926-1.850431.964844-1.738281zm-4.839844 1.917969a.424106.482868 0 0 0 -.394531.482422.424106.482868 0 0 0 .425781.482421.424106.482868 0 0 0 .423828-.482421.424106.482868 0 0 0 -.423828-.482422.424106.482868 0 0 0 -.03125 0zm-.921875.292968c-.421665.298103.232466 1.985002 1.306641 1-.84394.024804-1.126471-.222254-1.306641-1zm2.275391 2.033204c-.467988.037955-1.70805.800348-1.685547.878906.014912.113976 2.257171-.692315 1.833984-.845703-.029388-.028228-.081582-.038626-.148437-.033203zm.335937.527343c-.273603-.141062-1.389134 1.159661-1.246094 1.246094-.018717.030891 1.645543-.849232 1.246094-1.246094z"/></g></svg>