<svg fill="#CDDC39" height="48" viewBox="0 0 48 48" width="48" xmlns="http://www.w3.org/2000/svg" xmlns:xlink="http://www.w3.org/1999/xlink"><clipPath id="a"><g><path d="m-35.559658-105.49365h500.20587v314.11032h-500.20587z" fill="#fff" fill-rule="evenodd" stroke="#fff" stroke-width="2"/></g></clipPath><clipPath id="b"><g><path d="m-35.559658-105.49365h500.20587v314.11032h-500.20587z" fill="#fff" fill-rule="evenodd" stroke="#fff" stroke-width="2"/></g></clipPath><clipPath id="c"><g><path d="m-35.559658-105.49365h500.20587v314.11032h-500.20587z" fill="#fff" fill-rule="evenodd" stroke="#fff" stroke-width="2"/></g></clipPath><clipPath id="d"><g><path d="m-35.559658-105.49365h500.20587v314.11032h-500.20587z" fill="#fff" fill-rule="evenodd" stroke="#fff" stroke-width="2"/></g></clipPath><clipPath id="e"><g><path d="m-35.559658-105.49365h500.20587v314.11032h-500.20587z" fill="#fff" fill-rule="evenodd" stroke="#fff" stroke-width="2"/></g></clipPath><clipPath id="f"><g><path d="m-35.559658-105.49365h500.20587v314.11032h-500.20587z" fill="#fff" fill-rule="evenodd" stroke="#fff" stroke-width="2"/></g></clipPath><clipPath id="g"><g><path d="m-35.559658-105.49365h500.20587v314.11032h-500.20587z" fill="#fff" fill-rule="evenodd" stroke="#fff" stroke-width="2"/></g></clipPath><clipPath id="h"><g><path d="m-35.559658-105.49365h500.20587v314.11032h-500.20587z" fill="#fff" fill-rule="evenodd" stroke="#fff" stroke-width="2"/></g></clipPath><clipPath id="i"><g><path d="m-35.559658-105.49365h500.20587v314.11032h-500.20587z" fill="#fff" fill-rule="evenodd" stroke="#fff" stroke-width="2"/></g></clipPath><clipPath id="j"><g><path d="m-35.559658-105.49365h500.20587v314.11032h-500.20587z" fill="#fff" fill-rule="evenodd" stroke="#fff" stroke-width="2"/></g></clipPath><clipPath id="k"><g><path d="m-35.559658-105.49365h500.20587v314.11032h-500.20587z" fill="#fff" fill-rule="evenodd" stroke="#fff" stroke-width="2"/></g></clipPath><clipPath id="l"><g><path d="m-35.559658-105.49365h500.20587v314.11032h-500.20587z" fill="#fff" fill-rule="evenodd" stroke="#fff" stroke-width="2"/></g></clipPath><clipPath id="m"><g><path d="m-35.559658-105.49365h500.20587v314.11032h-500.20587z" fill="#fff" fill-rule="evenodd" stroke="#fff" stroke-width="2"/></g></clipPath><clipPath id="n"><g><path d="m-35.559658-105.49365h500.20587v314.11032h-500.20587z" fill="#fff" fill-rule="evenodd" stroke="#fff" stroke-width="2"/></g></clipPath><clipPath id="o"><g><path d="m-35.559658-105.49365h500.20587v314.11032h-500.20587z" fill="#fff" fill-rule="evenodd" stroke="#fff" stroke-width="2"/></g></clipPath><clipPath id="p"><g><path d="m-35.559658-105.49365h500.20587v314.11032h-500.20587z" fill="#fff" fill-rule="evenodd" stroke="#fff" stroke-width="2"/></g></clipPath><clipPath id="q"><g><path d="m-35.559658-105.49365h500.20587v314.11032h-500.20587z" fill="#fff" fill-rule="evenodd" stroke="#fff" stroke-width="2"/></g></clipPath><path clip-rule="evenodd" d="m16 4c-2.21 0-4 1.79-4 4v24c0 2.21 1.79 4 4 4h24c2.21 0 4-1.79 4-4v-24c0-2.21-1.79-4-4-4zm11.873047 8.634766c3.402879 0 6.645728.364174 8.990234 2.384765.667327-.464364 1.322738-.647145 1.919922-.625 2.600622.09644 4.101585 4.045152.751953 5.220703.637277 2.37299.780542 4.816451.81836 7.28125h-10.373047c.051886-.048835.107629-.090918.148437-.15625.182942-.87175-.006497-1.783231-.029297-2.611328-.483881-.154746-.986949-.36338-1.519531-.476562.001584-.024214.004401-.048027.00586-.072266-.074042.005896-.153594.025198-.230469.03711-.138576-.021091-.276813-.044394-.419922-.046876-.08817-.009899-.186986.004613-.28125.007813-.003758.065553-.010943.129943-.015625.195313-.363422.101319-.738668.220409-1.105469.310546-.221098.05543-.438009.0997-.648437.121094-.0011.00011-.002807-.000109-.003907 0-.282309.893777-.091246 2.086082.439453 2.691406h-10.216796c-.161824-2.295412-.197139-4.579576.388672-6.839843-3.392111-1.133403-1.878983-4.964603.722656-5.152344.607563-.04384 1.273215.113531 1.949218.548828 2.21604-1.943141 5.381151-2.555093 8.708985-2.818359zm4.734375 1.601562c-2.286505.044454-4.630446 1.720856-4.457031 4.564453.927614 5.453268 9.742596 4.01164 8.476562-1.488281-.496673-2.157725-2.241139-3.110747-4.019531-3.076172zm-9.199219.404297c-2.498786-.082385-5.143328 1.700969-4.496094 4.982422 1.203502 4.747943 8.72695 3.532189 8.44336-1.230469-.14866-2.49551-2.003765-3.687876-3.947266-3.751953zm9.162109.607422c1.34359-.02583 2.659916.686855 3.035157 2.298828.956498 4.108829-5.701524 5.185304-6.402344 1.111328-.131016-2.124368 1.639716-3.376946 3.367187-3.410156zm5.904297.242187c-.30221-.0243-.628917.05378-.958984.166016.513137.557807.974845 1.211129 1.369141 1.986328.0852.209173.154878.42033.230468.63086.667961-.478109 1.02854-1.097402.53711-1.984376-.291099-.525377-.706047-.760896-1.177735-.798828zm-15.146484.160157c1.466827.047866 2.866317.938555 2.978516 2.802734.214035 3.557769-5.464723 4.466698-6.373047.919922-.48849-2.451289 1.508611-3.784199 3.394531-3.722656zm13.632813.222656.013671.023437h.001953l-.013671-.023437zm-19.97461.21875c-.471674.03793-.886643.273425-1.177734.798828-.585415 1.056692.042059 1.731982.958984 2.240234.372411-1.09225.88693-1.991603 1.50586-2.746093-.440879-.194505-.884498-.325348-1.28711-.292969zm13.597656 1.220703a1.096343 1.207616 0 0 0 -1.097656 1.207031 1.096343 1.207616 0 0 0 1.097656 1.207031 1.096343 1.207616 0 0 0 1.095704-1.207031 1.096343 1.207616 0 0 0 -1.095704-1.207031zm-9.341796.300781a1.114914 1.207616 0 0 0 -1.115235 1.207031 1.114914 1.207616 0 0 0 1.115235 1.207032 1.114914 1.207616 0 0 0 1.115234-1.207032 1.114914 1.207616 0 0 0 -1.115234-1.207031zm17.746093.738281c-.153819.103298-.310147.204973-.488281.294922l.001953.001954c.178075-.08991.330544-.194564.486328-.296876zm-7.923828.134766a.258485.306904 0 0 1 .017578 0 .258485.306904 0 0 1 .257813.306641.258485.306904 0 0 1 -.257813.30664.258485.306904 0 0 1 -.257812-.30664.258485.306904 0 0 1 .240234-.306641zm-9.333984.300781a.262846.306904 0 0 1 .017578 0 .262846.306904 0 0 1 .263672.306641.262846.306904 0 0 1 -.263672.306641.262846.306904 0 0 1 -.261719-.306641.262846.306904 0 0 1 .244141-.306641zm6.769531 5.865235c.009021.000073.018785-.001131.027344 0 .281284.0058.537839.144429.78125.236328.0082.352589.075715.740152.009765 1.111328-.09322.176188-.275951.196381-.433593.267578-.174405-.027352-.311609-.137252-.410157-.279297-.026868-.447031-.010968-.892037.025391-1.335937zm-.933594.013672c-.037992.44739-.055315.895359-.029297 1.345703-.663958.661308-1.0394-.422512-.849609-1.111328h.001953c.07962-.0093.162434-.026742.246094-.050782.214122-.060323.42983-.1393.630859-.183593z" fill="#CDDC39" fill-rule="evenodd" stroke-linecap="round" stroke-width="1.05"/><path d="m8 12h-4v28c0 2.21 1.79 4 4 4h28v-4h-28z" fill="#CDDC39"/><g clip-rule="evenodd"><path d="m10.634 300.493c2.29-.852 4.717-1.457 6.271-3.528" style="fill:#c6b198;fill-rule:evenodd;stroke:#000;stroke-linecap:round;stroke-width:3;clip-path:url(#a)" transform="translate(-408.00683 -161.49519)"/><path d="m325.161 494.343c12.123 7.501 34.282 30.182 16.096 41.18-17.474 15.999-27.254-17.561-42.591-22.211 6.605-8.97 14.977-17.149 26.495-18.969z" style="fill:#fff;fill-rule:evenodd;stroke:#000;stroke-linecap:round;stroke-width:3;clip-path:url(#b)" transform="translate(-408.00683 -161.49519)"/><path clip-path="url(#c)" d="m341.257 535.522c-2.696-5.361-3.601-11.618-8.102-15.939" fill="none" stroke="#000" stroke-linecap="round" stroke-width="3" transform="translate(-408.00683 -161.49519)"/><path d="m108.579 519.975c-14.229 2.202-22.238 15.039-34.1 21.558-11.178 6.665-15.454-2.134-16.461-3.92-1.752-.799-1.605.744-4.309-1.979-10.362-16.354 10.797-28.308 21.815-36.432 15.346-3.102 24.963 10.202 33.055 20.773z" style="fill:#fff;fill-rule:evenodd;stroke:#000;stroke-linecap:round;stroke-width:3;clip-path:url(#d)" transform="translate(-408.00683 -161.49519)"/><path clip-path="url(#e)" d="m58.019 537.612c.542-6.233 5.484-10.407 7.838-15.677" fill="none" stroke="#000" stroke-linecap="round" stroke-width="3" transform="translate(-408.00683 -161.49519)"/><path d="m392.475 298.493c-.764 15.751-16.499 8.463-23.626 3.539-6.765-4.675-8.743-.789-9.337-10.015-.389-6.064-1.088-12.128-.744-18.216 10.23-.927 21.357 1.509 29.744 7.602 4.319 3.139 12.42 13.158 3.963 17.09" style="fill:#fff;fill-rule:evenodd;stroke:#000;stroke-linecap:round;stroke-width:3;clip-path:url(#f)" transform="translate(-408.00683 -161.49519)"/><path d="m392.475 298.493c-2.29-.852-4.717-1.457-6.271-3.528" style="fill:#c6b198;fill-rule:evenodd;stroke:#000;stroke-linecap:round;stroke-width:3;clip-path:url(#g)" transform="translate(-408.00683 -161.49519)"/><path d="m10.634 300.493c.764 15.751 16.499 8.463 23.626 3.539 6.765-4.675 8.743-.789 9.337-10.015.389-6.064 1.088-12.128.744-18.216-10.23-.927-21.357 1.509-29.744 7.602-4.32 3.139-12.42 13.158-3.963 17.09" style="fill:#fff;fill-rule:evenodd;stroke:#000;stroke-linecap:round;stroke-width:3;clip-path:url(#h)" transform="translate(-444.14712 -114.88503)"/><path d="m10.634 300.493c2.29-.852 4.717-1.457 6.271-3.528" style="fill:#c6b198;fill-rule:evenodd;stroke:#000;stroke-linecap:round;stroke-width:3;clip-path:url(#i)" transform="translate(-444.14712 -114.88503)"/><path d="m325.161 494.343c12.123 7.501 34.282 30.182 16.096 41.18-17.474 15.999-27.254-17.561-42.591-22.211 6.605-8.97 14.977-17.149 26.495-18.969z" style="fill:#fff;fill-rule:evenodd;stroke:#000;stroke-linecap:round;stroke-width:3;clip-path:url(#j)" transform="translate(-444.14712 -114.88503)"/><path clip-path="url(#k)" d="m341.257 535.522c-2.696-5.361-3.601-11.618-8.102-15.939" fill="none" stroke="#000" stroke-linecap="round" stroke-width="3" transform="translate(-444.14712 -114.88503)"/><path d="m108.579 519.975c-14.229 2.202-22.238 15.039-34.1 21.558-11.178 6.665-15.454-2.134-16.461-3.92-1.752-.799-1.605.744-4.309-1.979-10.362-16.354 10.797-28.308 21.815-36.432 15.346-3.102 24.963 10.202 33.055 20.773z" style="fill:#fff;fill-rule:evenodd;stroke:#000;stroke-linecap:round;stroke-width:3;clip-path:url(#l)" transform="translate(-444.14712 -114.88503)"/><path clip-path="url(#m)" d="m58.019 537.612c.542-6.233 5.484-10.407 7.838-15.677" fill="none" stroke="#000" stroke-linecap="round" stroke-width="3" transform="translate(-444.14712 -114.88503)"/><path d="m392.475 298.493c-.764 15.751-16.499 8.463-23.626 3.539-6.765-4.675-8.743-.789-9.337-10.015-.389-6.064-1.088-12.128-.744-18.216 10.23-.927 21.357 1.509 29.744 7.602 4.319 3.139 12.42 13.158 3.963 17.09" style="fill:#fff;fill-rule:evenodd;stroke:#000;stroke-linecap:round;stroke-width:3;clip-path:url(#n)" transform="translate(-444.14712 -114.88503)"/><path d="m392.475 298.493c-2.29-.852-4.717-1.457-6.271-3.528" style="fill:#c6b198;fill-rule:evenodd;stroke:#000;stroke-linecap:round;stroke-width:3;clip-path:url(#o)" transform="translate(-444.14712 -114.88503)"/><path d="m27.542969 29.197266c-.784486.08109-1.515992.523252-1.482422 1.308593.003.02404.01565.04362.02148.06641-.862859.140253-1.539025 1.16507-1.083984 1.988281.624258 1.129574 2.016909-.09956 2.884765.01563.998829.02045 1.816921 1.056409 2.619141.1875.842999-.913112-.248344-1.789813-1.212891-2.240234.07344-.138549.100033-.294836.05273-.470704-.176834-.657377-1.014342-.936555-1.798828-.855468z" style="fill:#fff;fill-rule:evenodd;stroke:#CDDC39;stroke-linecap:round;stroke-width:1.05;clip-path:url(#p)" transform="translate(.415021 -8.478523)"/><path clip-path="url(#q)" d="m28.298828 20.179688c-1.158743-.015929-2.377583.662171-2.328125 2 .193083 1.762567 4.758856 1.302567 4.296875-.683594-.202633-.870988-1.067506-1.304018-1.96875-1.316406zm-.294922.859374c.535455-.055346 1.105864.135289 1.226563.583985.240782.895288-2.139601 1.103093-2.240235.308594-.022913-.536039.478217-.837232 1.013672-.892579z" fill="#CDDC39" fill-rule="evenodd" stroke-width="13.965613"/></g></svg>