<svg fill="#CDDC39" height="48" viewBox="0 0 48 48" width="48" xmlns="http://www.w3.org/2000/svg"><g fill="#CDDC39"><path d="m8 12h-4v28c0 2.21 1.79 4 4 4h28v-4h-28z"/><path d="m16 4c-2.21 0-4 1.79-4 4v24c0 2.21 1.79 4 4 4h24c2.21 0 4-1.79 4-4v-24c0-2.21-1.79-4-4-4zm8.580078 6c.106245 0 .213676.039848.294922.121094l1.236328 1.238281c.670799-.333316 1.420745-.525391 2.220703-.525391.795792 0 1.542353.192335 2.208985.521485l1.232422-1.228516c.162491-.162491.425399-.162491.58789 0 .162492.162492.162492.423446 0 .585938l-1.08789 1.08789c1.245768.908286 2.058593 2.374956 2.058593 4.033203h-9.998047c0-1.65408.807487-3.12075 2.044922-4.033203l-1.091797-1.091797c-.162491-.162491-.162491-.425399 0-.58789.081246-.081246.186725-.121094.292969-.121094zm1.253906 3.333984v.833985h.832032v-.833985zm4.166016 0v.833985h.832031v-.833985zm-8.75 3.333985c.691631 0 1.25.558369 1.25 1.25v5.832031c0 .691631-.558369 1.25-1.25 1.25s-1.25-.558369-1.25-1.25v-5.832031c0-.691631.558369-1.25 1.25-1.25zm2.083984 0h9.998047v8.332031c0 .458309-.373722.833984-.832031.833984h-.833984v2.916016c0 .691631-.55837 1.25-1.25 1.25-.691631 0-1.25-.558369-1.25-1.25v-2.916016h-1.666016v2.916016c0 .691631-.558369 1.25-1.25 1.25s-1.25-.558369-1.25-1.25v-2.916016h-.833984c-.45831 0-.832032-.375675-.832032-.833984zm12.082032 0c.69163 0 1.25.558369 1.25 1.25v5.832031c0 .691631-.55837 1.25-1.25 1.25-.691631 0-1.25-.558369-1.25-1.25v-5.832031c0-.691631.558369-1.25 1.25-1.25z"/></g></svg>