<svg fill="#CDDC39" height="48" viewBox="0 0 48 48" width="48" xmlns="http://www.w3.org/2000/svg"><path d="m8 8c-2.21 0-3.980469 1.79-3.980469 4l-.019531 24c0 2.21 1.79 4 4 4h32c2.21 0 4-1.79 4-4v-20c0-2.21-1.79-4-4-4h-16l-4-4zm18.433594 9c4.105203 0 7.43164 3.328391 7.43164 7.433594 0 1.846769-.674281 3.532194-1.794922 4.830078l.314454.314453h.908203l5.707031 5.71875-1.703125 1.703125-5.71875-5.707031v-.902344l-.314453-.314453c-1.297885 1.114922-2.983309 1.789062-4.830078 1.789062-4.105203 0-7.433594-3.326437-7.433594-7.43164s3.328391-7.433594 7.433594-7.433594zm0 2.287109c-2.841624 0-5.146485 2.304861-5.146485 5.146485s2.304861 5.144531 5.146485 5.144531 5.144531-2.302907 5.144531-5.144531-2.302907-5.146485-5.144531-5.146485z" fill="#CDDC39"/><path d="m79.186441 15.966102h-6v11c0 2.76-2.24 5-5 5s-5-2.24-5-5 2.24-5 5-5c1.13 0 2.16.39 3 1.02v-11.02h8z" fill="#fff"/></svg>