<svg fill="#CDDC39" height="48" viewBox="0 0 48 48" width="48" xmlns="http://www.w3.org/2000/svg"><path d="m8 8c-2.21 0-3.980469 1.79-3.980469 4l-.019531 24c0 2.21 1.79 4 4 4h32c2.21 0 4-1.79 4-4v-20c0-2.21-1.79-4-4-4h-16l-4-4zm21 9c.014502.034033.024732.056178.039062.089844.327333.768953.612453 1.439164.888672 2.08789.004115.009659.007607.021602.011719.03125.034854.081779.076583.178607.111328.259766.071062.163417.171578.398143.238281.550781.723247 1.668228 1.523931 3.393907 3.03125 6.324219.06583.128399.149058.288299.21875.423828.805273 1.5574 1.781506 3.406837 3.06836 5.802734-.675638-.405662-1.543295-.769417-2.753906-1.083984 1.761288.90401 2.62335 1.739244 3.451172 2.38086.525544.974524 1.078754 1.997685 1.695312 3.132812-3.126436-1.804948-5.559412-2.927878-7.824219-3.371094.075445-.341244.119407-.709279.128907-1.091797.050296-2.03078-.924364-3.763106-2.175782-3.86914s-2.307122 1.455549-2.357422 3.486328l-.003906.099609c-.003789.476366.048534.935206.146484 1.357422-2.289445.430728-4.745101 1.559175-7.914062 3.388672 1.962073-3.525447 3.407885-6.175687 4.554688-8.326172.800119-1.500808 1.445407-2.7472 1.974609-3.802734.267001-.532623.541941-1.07868.759765-1.533203.001997.001678.00386.004181.00586.005859.118029.09907.253347.195174.386719.292969.053158.039014.09848.078345.154297.117187.052648.036592.11674.072926.171874.109375.150295.099522.300398.200176.470704.298828.00133.00077.002574.001184.003906.001953.232881.134777.48442.268628.759766.402344.276343.134081.575668.266676.90039.400391-.299821-.209768-.57054-.413857-.818359-.611328-.001949-.001554-.003914-.002353-.00586-.003907-.745397-.594481-1.276369-1.132216-1.730468-1.613281-.002551-.002702-.00722-.005114-.009766-.007812.991143-2.117702 1.531654-3.547887 2.421875-5.730469z" fill="#CDDC39"/></svg>