<svg fill="#CDDC39" height="48" viewBox="0 0 48 48" width="48" xmlns="http://www.w3.org/2000/svg"><path d="m8 8c-2.21 0-3.980469 1.79-3.980469 4l-.019531 24c0 2.21 1.79 4 4 4h32c2.21 0 4-1.79 4-4v-20c0-2.21-1.79-4-4-4h-16l-4-4zm20.037109 8a10 10 0 0 1 9.201172 6.173828 10 10 0 0 1 -3.68164 12.140625 10 10 0 0 1 -12.626953-1.24414l1.416015-1.416016a8 8 0 0 0 5.654297 2.345703 8 8 0 0 0 8-8 8 8 0 0 0 -8-8 8 8 0 0 0 -8 8h3l-4 4-4-4h3a10 10 0 0 1 8.048828-9.808594 10 10 0 0 1 1.988281-.191406zm-1.037109 6h2v4.664063l4.308594 1.785156-.765625 1.847656-5.542969-2.296875z" fill="#CDDC39"/></svg>