<svg xmlns="http://www.w3.org/2000/svg" width="337.78" height="369.46" viewBox="0 0 337.7770100996204 369.4586986546163"><path d="m671.27 496.29c0 0-5.446-50.776-55.826-52.19-50.38-1.41-76.25 38.08-76.25 94.5 0 56.42 28.595 101.55 77.61 101.55 49.02 0 54.47-56.42 54.47-56.42l93.95 5.641c0 0 5.532 50.954-33.784 89.83-39.32 38.872-87.58 45.22-121.28 44.959-33.701-.269-80.43.528-125.61-45.752-45.19-46.28-52.854-91.24-52.854-135.4 0-44.17 8.569-102.67 62.3-147.04 36.514-30.15 73.53-41.26 110.55-41.26 154.55 0 164.93 142.54 164.93 142.54l-98.2-.971" fill="#a8b9cc" transform="translate(-431.69-354.72)"/></svg>