<?xml version="1.0" encoding="UTF-8" standalone="no"?>
<svg
   xmlns:dc="http://purl.org/dc/elements/1.1/"
   xmlns:cc="http://creativecommons.org/ns#"
   xmlns:rdf="http://www.w3.org/1999/02/22-rdf-syntax-ns#"
   xmlns:svg="http://www.w3.org/2000/svg"
   xmlns="http://www.w3.org/2000/svg"
   xmlns:sodipodi="http://sodipodi.sourceforge.net/DTD/sodipodi-0.dtd"
   xmlns:inkscape="http://www.inkscape.org/namespaces/inkscape"
   width="48"
   height="48"
   viewBox="0 0 48 48"
   id="svg2"
   version="1.1"
   inkscape:version="0.91 r13725"
   sodipodi:docname="gpm-keyboard-060.svg"
   style="fill:#E91E63">
  <metadata
     id="metadata10">
    <rdf:RDF>
      <cc:Work
         rdf:about="">
        <dc:format>image/svg+xml</dc:format>
        <dc:type
           rdf:resource="http://purl.org/dc/dcmitype/StillImage" />
        <dc:title />
      </cc:Work>
    </rdf:RDF>
  </metadata>
  <defs
     id="defs8" />
  <sodipodi:namedview
     pagecolor="#ffffff"
     bordercolor="#666666"
     borderopacity="1"
     objecttolerance="10"
     gridtolerance="10"
     guidetolerance="10"
     inkscape:pageopacity="0"
     inkscape:pageshadow="2"
     inkscape:window-width="1366"
     inkscape:window-height="713"
     id="namedview6"
     showgrid="false"
     inkscape:snap-bbox="true"
     inkscape:bbox-nodes="true"
     inkscape:snap-page="true"
     inkscape:zoom="4.646023410544434"
     inkscape:cx="109.4139725332753"
     inkscape:cy="26.00115471567671"
     inkscape:window-x="0"
     inkscape:window-y="30"
     inkscape:window-maximized="1"
     inkscape:current-layer="svg2"
     inkscape:object-paths="true"
     inkscape:snap-smooth-nodes="true"
     inkscape:snap-midpoints="true"
     inkscape:object-nodes="false"
     inkscape:snap-intersection-paths="true"
     inkscape:snap-nodes="false"
     fit-margin-top="0"
     fit-margin-left="0"
     fit-margin-right="0"
     fit-margin-bottom="0" />
  <path
     d="M 4.013671875,20 4,34 c 0,2.21000000000002 1.789999999999978,4 4,4 l 32,0 c 2.21000000000001,0 4,-1.78999999999998 4,-4 L 44,20 4.013671875,20 Z m 5.970703125,2 4,0 0,4 -4,0 0,-4 z m 6,0 4,0 0,4 -4,0 0,-4 z m 6,0 4,0 0,4 -4,0 0,-4 z m 6,0 4,0 0,4 -4,0 0,-4 z m 6,0 4,0 0,4 -4,0 0,-4 z m -18,8 16,0 0,4 -16,0 0,-4 z"
     id="path4325"
     inkscape:connector-curvature="0" />
  <path
     style="opacity:0.3"
     d="M 7.984375,10 C 5.774374999999992,10 4.005859375,11.79 4.005859375,14 L 4,20 l 5.984375,0 0,-4 4,0 0,4 2,0 0,-4 4,0 0,4 2,0 0,-4 4,0 0,4 2,0 0,-4 4,0 0,4 2,0 0,-4 4,0 0,4 6,0 0,-6 c 0,-2.21000000000001 -1.7899999999999,-4 -4,-4 l -32,0 z"
     id="path4163"
     inkscape:connector-curvature="0" />
</svg>
