<?xml version="1.0" encoding="UTF-8" standalone="no"?>
<svg
   xmlns:dc="http://purl.org/dc/elements/1.1/"
   xmlns:cc="http://creativecommons.org/ns#"
   xmlns:rdf="http://www.w3.org/1999/02/22-rdf-syntax-ns#"
   xmlns:svg="http://www.w3.org/2000/svg"
   xmlns="http://www.w3.org/2000/svg"
   xmlns:sodipodi="http://sodipodi.sourceforge.net/DTD/sodipodi-0.dtd"
   xmlns:inkscape="http://www.inkscape.org/namespaces/inkscape"
   fill="#9E9E9E"
   width="48"
   height="48"
   viewBox="0 0 48 48"
   id="svg2"
   version="1.1"
   inkscape:version="0.91 r13725"
   sodipodi:docname="text-x-javascript9.svg">
  <metadata
     id="metadata10">
    <rdf:RDF>
      <cc:Work
         rdf:about="">
        <dc:format>image/svg+xml</dc:format>
        <dc:type
           rdf:resource="http://purl.org/dc/dcmitype/StillImage" />
        <dc:title></dc:title>
      </cc:Work>
    </rdf:RDF>
  </metadata>
  <defs
     id="defs8" />
  <sodipodi:namedview
     pagecolor="#ffffff"
     bordercolor="#666666"
     borderopacity="1"
     objecttolerance="10"
     gridtolerance="10"
     guidetolerance="10"
     inkscape:pageopacity="0"
     inkscape:pageshadow="2"
     inkscape:window-width="1366"
     inkscape:window-height="713"
     id="namedview6"
     showgrid="false"
     inkscape:zoom="1.7383042"
     inkscape:cx="-8.3259207"
     inkscape:cy="65.080765"
     inkscape:window-x="0"
     inkscape:window-y="30"
     inkscape:window-maximized="1"
     inkscape:current-layer="svg2"
     inkscape:snap-bbox="true"
     inkscape:bbox-paths="true"
     inkscape:bbox-nodes="true"
     inkscape:snap-bbox-edge-midpoints="true"
     inkscape:snap-bbox-midpoints="true"
     inkscape:snap-page="false" />
  <path
     style="fill:#f7df1e;fill-opacity:1"
     d="M 12 4 C 9.79 4 8.0195312 5.79 8.0195312 8 L 8.0097656 23.019531 L 24.980469 23.019531 L 24.980469 24 L 32 24 L 32 28 L 24.980469 28 L 24.980469 32 L 32 32 L 32 36 L 24.980469 36 L 24.980469 44 L 36 44 C 38.21 44 40 42.21 40 40 L 40 16 L 28 4 L 12 4 z M 26 7 L 37 18 L 26 18 L 26 7 z "
     id="path4198" />
  <rect
     style="fill:#f7df1e;stroke:#000000;stroke-width:0.13500001;stroke-miterlimit:4;stroke-dasharray:none;stroke-opacity:1"
     y="25.932501"
     x="2.0675001"
     width="20"
     height="20"
     id="rect4259" />
  <path
     style="fill:#000000;fill-opacity:1"
     inkscape:connector-curvature="0"
     d="m 15.502421,41.557579 c 0.402857,0.657778 0.926984,1.14127 1.853968,1.14127 0.77873,0 1.276191,-0.389206 1.276191,-0.926984 0,-0.644445 -0.511112,-0.872699 -1.368254,-1.247619 l -0.469841,-0.201588 c -1.356191,-0.577777 -2.257144,-1.301587 -2.257144,-2.831746 0,-1.409523 1.073969,-2.482539 2.752382,-2.482539 1.19492,0 2.053968,0.415873 2.673015,1.504762 l -1.463492,0.939682 c -0.322222,-0.577778 -0.669841,-0.805397 -1.209523,-0.805397 -0.550477,0 -0.899365,0.349207 -0.899365,0.805397 0,0.56381 0.349206,0.792064 1.155555,1.14127 l 0.469841,0.20127 c 1.596826,0.684762 2.498413,1.382857 2.498413,2.952381 0,1.692063 -1.329206,2.619048 -3.114286,2.619048 -1.745396,0 -2.873016,-0.831747 -3.424762,-1.921905 z m -6.6390478,0.162857 c 0.2952382,0.52381 0.5638096,0.966667 1.2095238,0.966667 0.61746,0 1.006984,-0.241587 1.006984,-1.180953 l 0,-6.390476 1.879365,0 0,6.415873 c 0,1.946032 -1.140952,2.831747 -2.806349,2.831747 -1.504762,0 -2.3761902,-0.778731 -2.8193652,-1.716667 z"
     id="path4261" />
</svg>
