<?xml version="1.0" encoding="UTF-8" standalone="no"?>
<svg
   xmlns:dc="http://purl.org/dc/elements/1.1/"
   xmlns:cc="http://creativecommons.org/ns#"
   xmlns:rdf="http://www.w3.org/1999/02/22-rdf-syntax-ns#"
   xmlns:svg="http://www.w3.org/2000/svg"
   xmlns="http://www.w3.org/2000/svg"
   xmlns:sodipodi="http://sodipodi.sourceforge.net/DTD/sodipodi-0.dtd"
   xmlns:inkscape="http://www.inkscape.org/namespaces/inkscape"
   fill="#9E9E9E"
   width="48"
   height="48"
   viewBox="0 0 48 48"
   id="svg2"
   version="1.1"
   inkscape:version="0.91 r13725"
   sodipodi:docname="x-office-document-template.svg">
  <metadata
     id="metadata10">
    <rdf:RDF>
      <cc:Work
         rdf:about="">
        <dc:format>image/svg+xml</dc:format>
        <dc:type
           rdf:resource="http://purl.org/dc/dcmitype/StillImage" />
        <dc:title />
      </cc:Work>
    </rdf:RDF>
  </metadata>
  <defs
     id="defs8" />
  <sodipodi:namedview
     pagecolor="#ffffff"
     bordercolor="#666666"
     borderopacity="1"
     objecttolerance="10"
     gridtolerance="10"
     guidetolerance="10"
     inkscape:pageopacity="0"
     inkscape:pageshadow="2"
     inkscape:window-width="1366"
     inkscape:window-height="713"
     id="namedview6"
     showgrid="false"
     inkscape:zoom="12.35903680587555"
     inkscape:cx="17.11013425750104"
     inkscape:cy="6.844364909999257"
     inkscape:window-x="0"
     inkscape:window-y="30"
     inkscape:window-maximized="1"
     inkscape:current-layer="svg2"
     inkscape:snap-bbox="true"
     inkscape:bbox-paths="true"
     inkscape:bbox-nodes="true"
     inkscape:snap-bbox-edge-midpoints="true"
     inkscape:snap-bbox-midpoints="true"
     inkscape:snap-object-midpoints="true"
     inkscape:snap-page="true" />
  <path
     id="path4136"
     style="fill:#00188f;fill-opacity:1"
     d="m 24,6 0,36 c 0,2.21 1.79,4 4,4 l 16,0 c 2.21,0 4,-1.79 4,-4 L 48,6 C 48,3.789999999999999 46.21,2 44,2 L 28,2 c -2.21,0 -4,1.789999999999999 -4,4 z m 20,0 0,36 -16,0 0,-4 8,0 0,-4 -8,0 0,-4 8,0 0,-4 -8,0 0,-4 8,0 0,-4 -8,0 0,-4 8,0 0,-4 -8,0 0,-4 16,0 z M 4,4 C 1.789999999999999,4 0.01953125,5.79 0.01953125,8 L 0,40 c 0,2.21 1.770468749999999,4 3.98046875,4 L 22.6484375,44 C 22.24741674628243,43.40946141644612 22,42.73287476991693 22,42 l 0,-6 -14,0 0,-4 14,0 0,-4 -14,0 0,-4 14,0 0,-6 -4,0 0,-11 4,4 L 22,6 20,4 4,4 Z" />
</svg>
