<?xml version="1.0" encoding="UTF-8" standalone="no"?>
<svg
   xmlns:dc="http://purl.org/dc/elements/1.1/"
   xmlns:cc="http://creativecommons.org/ns#"
   xmlns:rdf="http://www.w3.org/1999/02/22-rdf-syntax-ns#"
   xmlns:svg="http://www.w3.org/2000/svg"
   xmlns="http://www.w3.org/2000/svg"
   xmlns:sodipodi="http://sodipodi.sourceforge.net/DTD/sodipodi-0.dtd"
   xmlns:inkscape="http://www.inkscape.org/namespaces/inkscape"
   width="48"
   height="48"
   viewBox="0 0 48 48"
   id="svg2"
   version="1.1"
   inkscape:version="0.91 r13725"
   sodipodi:docname="ejectorz.svg"
   fill="#FFC107">
  <metadata
     id="metadata10">
    <rdf:RDF>
      <cc:Work
         rdf:about="">
        <dc:format>image/svg+xml</dc:format>
        <dc:type
           rdf:resource="http://purl.org/dc/dcmitype/StillImage" />
        <dc:title></dc:title>
      </cc:Work>
    </rdf:RDF>
  </metadata>
  <defs
     id="defs8" />
  <sodipodi:namedview
     pagecolor="#ffffff"
     bordercolor="#666666"
     borderopacity="1"
     objecttolerance="10"
     gridtolerance="10"
     guidetolerance="10"
     inkscape:pageopacity="0"
     inkscape:pageshadow="2"
     inkscape:window-width="1366"
     inkscape:window-height="713"
     id="namedview6"
     showgrid="false"
     inkscape:snap-bbox="true"
     inkscape:bbox-nodes="true"
     inkscape:snap-bbox-edge-midpoints="false"
     inkscape:snap-bbox-midpoints="false"
     inkscape:snap-object-midpoints="false"
     inkscape:zoom="11.72153409940571"
     inkscape:cx="16.52436652663692"
     inkscape:cy="23.2912172273263"
     inkscape:window-x="0"
     inkscape:window-y="30"
     inkscape:window-maximized="1"
     inkscape:current-layer="svg2"
     inkscape:bbox-paths="false"
     inkscape:snap-midpoints="true"
     inkscape:snap-smooth-nodes="true"
     inkscape:object-nodes="true"
     inkscape:snap-intersection-paths="true"
     inkscape:object-paths="true"
     inkscape:snap-nodes="false" />
  <path
     inkscape:connector-curvature="0"
     style="fill:#FFC107"
     d="m 68.53843563033362,5.035807251565874 a 1.576333278440933,1.121597307468845 0 0 1 1.44136852169697,0.571274109209173 L 86.39294875123262,25.85215690790311 a 1.576333278440933,1.121597307468845 0 0 1 -1.37105786210201,1.68745583027939 l -32.83068361462867,0 a 1.576333278440933,1.121597307468845 0 0 1 -1.58198984088691,-1.16012588331709 1.576333278440933,1.121597307468845 0 0 1 0.21093197878491,-0.5273299469623 L 67.23768842782659,5.607081360775041 a 1.576333278440933,1.121597307468845 0 0 1 1.16012588331708,-0.56248527675981 1.576333278440933,1.121597307468845 0 0 1 0.14062131918996,-0.008788832449 z"
     id="path4135" />
  <path
     style="fill:#FFC107"
     d="m 5.995594102121089,33.00470209955778 0,4 36,0 0,-4 -36,0 z"
     id="path4145"
     inkscape:connector-curvature="0" />
  <path
     id="path4163"
     d="M -35.88677191966429,9.289508204038433 -55.68576179288763,29.08849807726177 c -1.56270598642226,1.56270598642227 -1.56270598642226,4.0941482630701 0,5.65685424949238 l 19.79898987322334,19.79898987322334 c 1.56270598642226,1.56270598642228 4.09414826307011,1.56270598642228 5.65685424949238,0 l 19.79898987322334,-19.79898987322332 c 1.562705986422269,-1.56270598642228 1.562705986422269,-4.09414826307012 0,-5.65685424949237 L -30.22991767017191,9.28950820403844 c -1.56270598642227,-1.562705986422256 -4.09414826307011,-1.562705986422256 -5.65685424949238,0 z"
     inkscape:connector-curvature="0"
     style="fill:#FFC107" />
  <path
     style="fill:#FFC107;fill-opacity:1"
     inkscape:connector-curvature="0"
     d="M 21.66945734701136,9.252076682124716 6.695083748514636,24.22645028062143 c -1.181905916167062,1.18190591616708 -1.671467375790702,4.27788065747442 0,4.27791241896192 l 14.974373598496722,2.8454541608e-4 c 1.67146737579064,3.17614875e-5 2.60692508076331,-2.182121735e-5 4.27839245671332,0 l 14.97437359849683,1.9549233541e-4 c 1.67146737595005,2.182121734e-5 1.18190591616706,-3.09648654054633 0,-4.27839245671337 L 25.94784980372468,9.252076682124716 c -1.18190591616706,-1.181905916167047 -3.09648654054628,-1.181905916167047 -4.27839245671332,0 z"
     id="path4164"
     sodipodi:nodetypes="sssssssss" />
</svg>
