<svg xmlns="http://www.w3.org/2000/svg" viewBox="0 0 48 48" fill="#8BC34A"><defs><filter color-interpolation-filters="sRGB"><feGaussianBlur stdDeviation="1.71"/></filter><linearGradient gradientTransform="scale(1.0059.99417)" gradientUnits="userSpaceOnUse" y2="7.02" x2="0" y1="92.54"><stop/><stop offset="1" stop-opacity=".588"/></linearGradient></defs><path d="m10 6c-2.21 0-4 1.79-4 4v28c0 2.21 1.79 4 4 4h28c2.21 0 4-1.79 4-4v-28c0-2.21-1.79-4-4-4h-28m17.689 6.281c.282.019.568.065.852.141 2.225.597 3.597 2.788 3.219 5.02-.018.12-.088.41-.088.41-.45 1.763-.499 3.572-.09 5.303.02.081.039.162.061.242.021.079.045.159.068.238.511 1.705 1.458 3.245 2.729 4.549.122.125.232.255.301.348 1.413 1.739 1.319 4.296-.301 5.914-1.595 1.595-4.086 1.699-5.836.365-.129-.091-.266-.205-.426-.365-1.302-1.271-2.843-2.219-4.547-2.73-.08-.023-.16-.047-.24-.068-.08-.022-.163-.04-.244-.061-1.732-.409-3.54-.358-5.303.092-2.363.633-4.79-.769-5.424-3.131-.633-2.362.77-4.793 3.131-5.426 1.938-.519 3.668-1.534 5.03-2.961 1.197-1.285 2.046-2.855 2.533-4.584.001-.003.063-.209.094-.291.649-1.92 2.509-3.134 4.484-3zm-2.303 8.533c-2.01-.121-3.899 1.182-4.441 3.205-.619 2.311.753 4.689 3.064 5.309 2.312.62 4.689-.753 5.309-3.064.62-2.312-.752-4.689-3.064-5.309-.289-.077-.58-.123-.867-.141" fill="#d41818"/></svg>