<?xml version="1.0" encoding="UTF-8" standalone="no"?>
<svg
   xmlns:dc="http://purl.org/dc/elements/1.1/"
   xmlns:cc="http://creativecommons.org/ns#"
   xmlns:rdf="http://www.w3.org/1999/02/22-rdf-syntax-ns#"
   xmlns:svg="http://www.w3.org/2000/svg"
   xmlns="http://www.w3.org/2000/svg"
   xmlns:sodipodi="http://sodipodi.sourceforge.net/DTD/sodipodi-0.dtd"
   xmlns:inkscape="http://www.inkscape.org/namespaces/inkscape"
   version="1.1"
   width="48"
   height="48"
   id="svg2"
   inkscape:version="0.91 r13725"
   sodipodi:docname="audacious-pane.svg">
  <metadata
     id="metadata13">
    <rdf:RDF>
      <cc:Work
         rdf:about="">
        <dc:format>image/svg+xml</dc:format>
        <dc:type
           rdf:resource="http://purl.org/dc/dcmitype/StillImage" />
        <dc:title />
        <dc:title />
      </cc:Work>
    </rdf:RDF>
  </metadata>
  <defs
     id="defs11" />
  <sodipodi:namedview
     pagecolor="#ffffff"
     bordercolor="#666666"
     borderopacity="1"
     objecttolerance="10"
     gridtolerance="10"
     guidetolerance="10"
     inkscape:pageopacity="0"
     inkscape:pageshadow="2"
     inkscape:window-width="1366"
     inkscape:window-height="713"
     id="namedview9"
     showgrid="false"
     inkscape:zoom="12.35903676350912"
     inkscape:cx="18.80601378467611"
     inkscape:cy="21.1009489074766"
     inkscape:window-x="0"
     inkscape:window-y="30"
     inkscape:window-maximized="1"
     inkscape:current-layer="svg2"
     inkscape:snap-bbox="true"
     inkscape:bbox-nodes="true" />
  <path
     style="fill:#8BC34A;fill-opacity:1"
     d="m 24.8267930060056,5.61775810417714 c -0.83983452099682,2.7668518147e-5 -1.775940728601,0.02651566322388 -2.79567318773559,0.08646411920832 -0.9598024488289,3.5046789651e-5 -1.81413250648277,0.214202289219943 -2.59392357624952,0.634070207527657 -0.29995532751189,2.7668518146e-5 -0.88950412248978,0.02651566322388 -1.72928238416634,0.08646411920832 -0.77984087309941,2.7668518146e-5 -1.28760982899117,0.02651566322388 -1.52753277268027,0.08646411920831 -0.5398957945958,0.06002223869949 -1.10062598335605,0.139463165718247 -1.7004610110969,0.259392357624955 -0.53981278904137,0.05994845598443 -1.04766843962334,0.300710678057317 -1.52753277268027,0.720534326735976 l -1.90221062258298,1.902210622582976 c -0.17997633227253,0.299960861215506 -0.33884527433491,0.620041346543365 -0.51878471524991,0.979926684360935 -0.11999098493056,0.35994620855748 -0.20176713488092,0.76180468840357 -0.20174961148607,1.181676295847 -1.752339483e-5,0.95980244882895 0.37536310686881,1.78765373461643 1.09521217663869,2.5074594570412 0.77979937032218,0.65987110069941 1.63413035025999,0.97995435287908 2.59392357624951,0.97992668436092 0.35989456065695,2.766851815e-5 0.761753040503,-0.0264511033482 1.18167629584701,-0.0864641192083 0.41988083028288,-0.0599576788238 0.82173838784497,-0.13939952812651 1.18167629584699,-0.25939235762496 l 6.1965952099294,0 c 0.53984506897923,2.490166634e-5 1.04761310258705,0.16123828949967 1.52753277268027,0.46114196911103 0.47985603250147,0.29995440522795 0.72050204679814,0.69946936158698 0.72053432673598,1.23931904198588 -3.227993784e-5,0.47991229182172 -0.1877207505018,0.85529107751748 -0.54760608831934,1.09521217663868 -0.29996086121551,0.17998002140828 -0.6729970457082,0.312374803024 -1.15285492277757,0.43232059604158 -0.47991690324141,0.0600130158601 -0.96121354325439,0.14178270982288 -1.44106865347195,0.20174961148608 -0.47991598095745,2.213481452e-5 -0.85529661122111,0.0529852122509 -1.09521217663868,0.17292823841664 -0.11999836320207,0.0600037930207 -0.38712314936511,0.16592072505402 -0.8069984459443,0.34585647683326 -0.35994159713781,0.11999282949845 -0.60058853371838,0.2282468290312 -0.72053432673598,0.28821373069439 -0.8398271427253,0.29995163837614 -1.69416181179883,0.45881781358671 -2.59392357624951,0.51878471524991 -0.89981156778331,2.121253058e-5 -1.78295930937087,0.24066722682723 -2.62274494931895,0.72053432673597 -1.19974383819675,0.71985091433778 -2.32119499287788,1.62948203921134 -3.40092202219381,2.70920906852727 -1.019778573331505,1.01977857333149 -1.876451232188399,2.14357232921568 -2.536280830110638,3.34327927605493 -0.119986373510873,0.11998729579482 -0.252376543706895,0.30533316515571 -0.432320596041586,0.60524883445823 -0.119990062646629,0.29994333782067 -0.201764368029084,0.48762074097737 -0.201749611486075,0.54760608831934 l 0,4.49613419883249 c -1.4756542974e-5,9.2228394e-6 0.134720781707913,0.40186678040152 0.374677849902711,1.18167629584701 0.239929399676651,0.71983708007866 0.427613258820901,1.28056357970316 0.54760608831934,1.70046101109691 0.359901938928452,1.199725392518 1.026538914598671,2.24174023160003 2.046317487930178,3.14152966456886 1.07972702931595,0.83980593019473 2.09527231937102,1.58821905581527 3.05506554536054,2.24806709941625 -1.93679627e-5,0.0599761245026 0.081751248284,0.14176426414411 0.20174961148607,0.20174961148606 0.17993667406318,0.0599761245026 0.28584346097316,0.0864641192083 0.34585647683327,0.0864641192083 0.29990921331496,0.1199725392518 0.88945800829283,0.33414070396602 1.72928238416634,0.63407020752765 0.89976729815433,0.2999295035616 1.48697072507725,0.45879936790795 1.78692513030522,0.51878471524991 l 0.72053432673598,0 0.63407020752765,0 c 0.11994671530154,0.059985347342 0.30763703043337,0.033515798315 0.54760608831935,-0.0864641192083 0.11994671530153,-0.059985347342 0.38706965689666,-0.19237736210588 0.80699844594429,-0.43232059604159 0.47986064392118,-0.23994323393574 0.77346881337024,-0.40116584460845 0.89346256515261,-0.46114196911102 1.01973245913459,-0.41990112052951 2.03527774918968,-0.82175867809159 3.05506554536054,-1.18167629584701 1.07971780647657,-0.4198992759616 2.20351156236076,-0.60524698989035 3.34327927605494,-0.60524883445822 l 0.60524883445821,0 c 0.35988072639788,0 0.60052489612665,0.0264787718664 0.72053432673598,0.0864641192083 0.83976627198539,0.35991761775541 1.72291862499265,0.75943257411443 2.62274494931895,1.23931904198588 0.89975069704348,0.41990112052946 1.83586151606727,0.63407020752765 2.7956731877356,0.63407020752765 0.71979004359783,0 1.38643255297167,-0.13239109247995 2.04631748793017,-0.43232059604158 0.71978727674599,-0.2999285812777 1.38877515417478,-0.72826491070618 1.9886747417913,-1.26814041505532 0.5998138152103,-0.53987181521337 1.08111045522328,-1.12707708670424 1.44106865347195,-1.78692513030521 0.3598687367067,-0.65984066532946 0.54755905183849,-1.35530547005669 0.54760608831934,-2.07513886099962 l 0,-0.54760608831934 c -0.0598562275906,-0.24034719430066 -0.19474025355559,-0.69471037646578 -0.37467784990271,-1.35460453426363 -0.18002982474094,-0.65980192940406 -0.28590802084884,-1.11462625353827 -0.34585647683326,-1.35460453426364 l 0,-0.25939235762495 c -4.611419692e-5,-0.65983605390979 0.0264326576694,-1.32881747535093 0.0864641192083,-1.9886747417913 0.11992550277096,-0.65983328705794 0.22584704622393,-1.29999610228151 0.34585647683328,-1.95985336872185 -4.703648085e-5,-0.0599761245026 -4.703648084e-5,-0.19470705133382 0,-0.37467784990271 -4.703648085e-5,-0.23993032196057 -4.703648084e-5,-0.4805763362572 0,-0.72053432673598 0.0599300103057,-0.29991566930257 0.11523845579691,-0.56704137774949 0.11528549227775,-0.80699844594429 -4.703648085e-5,-0.23992939967664 -4.703648084e-5,-0.40114739892968 0,-0.46114196911103 0.11992550277095,-0.41988728627043 0.25231567296697,-0.7929234707631 0.43232059604158,-1.15285492277756 0.17991177239684,-0.41988544170254 0.28816761649752,-0.87469962071344 0.28821373069438,-1.35460453426364 -4.611419691e-5,-0.65982590878643 -0.0818250309991,-1.32880825251155 -0.20174961148606,-1.98867474179129 -0.0600314615389,-0.65982498650251 -0.1394640880022,-1.29998687944211 -0.25939235762496,-1.95985336872186 C 39.9774159546695,17.0736866946572 39.65733546934169,15.4685990656118 39.23747954072513,14.1488845327311 38.81753138371485,12.76923998954474 38.20150566143848,11.59247946708848 37.42173303735047,10.63267701825954 36.64187279628837,9.672929906466922 35.62633211765299,8.871557392545767 34.36666749198993,8.211681680426654 33.16677608836304,7.491746838250525 31.67000148502251,6.878197448348267 29.87053329315743,6.338292430913115 28.13082910048916,5.858428097856184 26.44641582991739,5.617758104177139 24.8267930060056,5.617758104177139 Z m -2.5074594570412,20.953138221482191 3.31445790298549,0 c 0.23991095399789,1.475654302e-5 0.45408096328,0.16122629980848 0.63407020752766,0.46114196911103 0.23991187628183,0.23995799047874 0.40111973041154,0.45412523290903 0.46114196911102,0.63407020752766 l 0,0.89346256515261 c -3.320222179e-5,0.17996895400102 -3.320222178e-5,0.42061681286553 0,0.72053432673597 -3.320222178e-5,0.29994149325281 -0.0818065853203,0.54058842983342 -0.20174961148607,0.72053432673598 -0.1200038969057,0.11998268437513 -0.36065083348625,0.33415177137331 -0.72053432673598,0.63407020752766 l -0.60524883445821,0.60524883445822 c -3.227993783e-5,0.1199725392518 -0.10828812403847,0.20175975660939 -0.2882137306944,0.20174961148608 l -0.97992668436092,0 c -0.83983267642894,1.014512329e-5 -1.56177717530648,-0.1876801700085 -2.16160298020793,-0.54760608831935 -0.59988852020928,-0.41989097540614 -0.89349023367077,-1.11535485784945 -0.89346256515262,-2.07513886099961 -2.766851815e-5,-0.35990286121243 0.1058855743794,-0.81471796250725 0.34585647683327,-1.35460453426364 0.23991556541758,-0.59984609514813 0.61529711796517,-0.89344780860961 1.09521217663869,-0.89346256515261 z"
     id="path4135"
     inkscape:connector-curvature="0" />
</svg>
