<?xml version="1.0" encoding="UTF-8" standalone="no"?>
<!-- Created with Inkscape (http://www.inkscape.org/) -->

<svg
   xmlns:dc="http://purl.org/dc/elements/1.1/"
   xmlns:cc="http://creativecommons.org/ns#"
   xmlns:rdf="http://www.w3.org/1999/02/22-rdf-syntax-ns#"
   xmlns:svg="http://www.w3.org/2000/svg"
   xmlns="http://www.w3.org/2000/svg"
   xmlns:sodipodi="http://sodipodi.sourceforge.net/DTD/sodipodi-0.dtd"
   xmlns:inkscape="http://www.inkscape.org/namespaces/inkscape"
   width="32.15297698974609mm"
   height="32.15168762207031mm"
   viewBox="0 0 113.9278712236665 113.9233025952445"
   id="svg4133"
   version="1.1"
   inkscape:version="0.91 r13725"
   sodipodi:docname="gitg.svg">
  <defs
     id="defs4135" />
  <sodipodi:namedview
     id="base"
     pagecolor="#ffffff"
     bordercolor="#666666"
     borderopacity="1.0"
     inkscape:pageopacity="0.0"
     inkscape:pageshadow="2"
     inkscape:zoom="0.7642578124999998"
     inkscape:cx="-180.3948664867112"
     inkscape:cy="30.02579515716795"
     inkscape:document-units="px"
     inkscape:current-layer="layer1"
     showgrid="false"
     fit-margin-top="0"
     fit-margin-left="0"
     fit-margin-right="0"
     fit-margin-bottom="0"
     inkscape:window-width="1366"
     inkscape:window-height="713"
     inkscape:window-x="0"
     inkscape:window-y="30"
     inkscape:window-maximized="1" />
  <metadata
     id="metadata4138">
    <rdf:RDF>
      <cc:Work
         rdf:about="">
        <dc:format>image/svg+xml</dc:format>
        <dc:type
           rdf:resource="http://purl.org/dc/dcmitype/StillImage" />
        <dc:title></dc:title>
      </cc:Work>
    </rdf:RDF>
  </metadata>
  <g
     inkscape:label="Layer 1"
     inkscape:groupmode="layer"
     id="layer1"
     transform="translate(-249.2154644933557,-448.4646998815779)">
    <path
       d="m 360.9953394933556,500.3521998815779 -49.7449999999999,-49.7389 c -2.8622,-2.8648 -7.5082,-2.8648 -10.374,0 l -10.329,10.33 13.1019999999999,13.102 c 3.0459000000001,-1.0284000000001 6.5371,-0.33888 8.9639000000001,2.0884 2.4393999999999,2.4424 3.124,5.9633999999999 2.0697999999998,9.0195 l 12.628,12.6279999999999 c 3.0550999999999,-1.0527999999999 6.5799999999999,-0.3726199999999 9.0195,2.0712 3.4105999999999,3.4096 3.4105999999999,8.9345 0,12.3449999999995 -3.4111000000001,3.4116 -8.9360000000001,3.4116 -12.349,0 -2.5645,-2.5664999999996 -3.1988,-6.3344999999998 -1.8999,-9.4941999999999 l -11.777,-11.7769999999999 -9.999999999e-4,30.9909999999997 c 0.8315,0.41162 1.6161999999999,0.9610000000001 2.3091,1.6509 3.4096,3.4092000000001 3.4096,8.9331000000002 0,12.3480000000002 -3.4106,3.4091 -8.938,3.4091 -12.3450000000001,0 -3.4101,-3.4146000000001 -3.4101,-8.9385000000001 0,-12.3480000000002 0.8427500000001,-0.8412499999999 1.8179,-1.478 2.8584,-1.9047999999999 l 0,-31.2789999999998 c -1.041,-0.425 -2.0149999999999,-1.057 -2.8589999999999,-1.905 -2.5830000000001,-2.581 -3.2050999999999,-6.372 -1.8804,-9.5439 l -12.9160000000002,-12.918 -34.1059999999999,34.105 c -2.8657000000001,2.8670000000001 -2.8657000000001,7.513 0,10.378 l 49.742,49.7389999999997 c 2.8638000000001,2.8647999999999 7.5082,2.8647999999999 10.3759999999999,0 l 49.512,-49.5039999999996 c 2.8648,-2.8662 2.8648,-7.5136 0,-10.3790000000001"
       id="path10"
       inkscape:connector-curvature="0"
       style="fill:#f03c2e" />
  </g>
</svg>
