<svg xmlns="http://www.w3.org/2000/svg" fill="#8BC34A" viewBox="0 0 48 48"><path d="m12 4c-2.21 0-3.98 1.79-3.98 4l-.02 32c0 2.21 1.77 4 3.98 4h24.02c2.21 0 4-1.79 4-4v-24l-12-12h-16m14 3l11 11h-11v-11m-3.889 16.781h.158 1.805 9.99v1.5h-10.557l-4.795 12.719h-1.455l-2.422-6.133h-1.836v-1.523h3.203l1.592 4.336.176.811h.059l.186-.811 3.896-10.898m2.93 3.652h2.217l2.217 3.896 2.246-3.896h2.246l-3.428 5.225 3.525 5.342h-2.207l-2.344-3.994-2.344 3.994h-2.227l3.525-5.342-3.428-5.225" fill="#93afa9"/></svg>