<?xml version="1.0" encoding="UTF-8" standalone="no"?>
<svg
   xmlns:dc="http://purl.org/dc/elements/1.1/"
   xmlns:cc="http://creativecommons.org/ns#"
   xmlns:rdf="http://www.w3.org/1999/02/22-rdf-syntax-ns#"
   xmlns:svg="http://www.w3.org/2000/svg"
   xmlns="http://www.w3.org/2000/svg"
   xmlns:sodipodi="http://sodipodi.sourceforge.net/DTD/sodipodi-0.dtd"
   xmlns:inkscape="http://www.inkscape.org/namespaces/inkscape"
   width="48"
   height="48"
   viewBox="0 0 48 48"
   id="svg2"
   version="1.1"
   inkscape:version="0.91 r13725"
   sodipodi:docname="aums.svg"
   style="fill:#8BC34A">
  <metadata
     id="metadata10">
    <rdf:RDF>
      <cc:Work
         rdf:about="">
        <dc:format>image/svg+xml</dc:format>
        <dc:type
           rdf:resource="http://purl.org/dc/dcmitype/StillImage" />
        <dc:title />
      </cc:Work>
    </rdf:RDF>
  </metadata>
  <defs
     id="defs8" />
  <sodipodi:namedview
     pagecolor="#ffffff"
     bordercolor="#666666"
     borderopacity="1"
     objecttolerance="10"
     gridtolerance="10"
     guidetolerance="10"
     inkscape:pageopacity="0"
     inkscape:pageshadow="2"
     inkscape:window-width="1366"
     inkscape:window-height="713"
     id="namedview6"
     showgrid="false"
     inkscape:zoom="3.781885815259982"
     inkscape:cx="-11.41644991178906"
     inkscape:cy="-13.03504383870325"
     inkscape:window-x="0"
     inkscape:window-y="30"
     inkscape:window-maximized="1"
     inkscape:current-layer="svg2"
     fit-margin-top="0"
     fit-margin-left="0"
     fit-margin-right="0"
     fit-margin-bottom="0"
     inkscape:snap-bbox="true"
     inkscape:bbox-nodes="true"
     inkscape:object-paths="true"
     inkscape:snap-intersection-paths="true"
     inkscape:object-nodes="true"
     inkscape:snap-smooth-nodes="true"
     inkscape:snap-midpoints="true" />
  <circle
     transform="matrix(6.101222760189958e-17,1,-1,6.14532464069204e-17,0,0)"
     cy="-24"
     cx="24"
     id="ellipse4409"
     style="opacity:1;fill:#4b8cb5;fill-opacity:1;fill-rule:nonzero;stroke:none;stroke-width:3;stroke-miterlimit:4;stroke-dasharray:none;stroke-opacity:1"
     r="18" />
  <path
     inkscape:connector-curvature="0"
     id="path4452"
     style="fill:#ffffff;fill-opacity:1"
     d="m 24.23089756838113,36.13299632345582 c 1.53166879020489,-0.74987556199193 4.10707993032848,-3.50478607384332 5.1099156592824,-5.46606331902212 l 0.24963752480498,-0.48822392621929 -0.3394406010814,0.10452407081277 c -0.1866923305948,0.057488238947 -0.5318058070565,0.34296038206043 -0.7669188365816,0.63438254025232 -0.23511302952497,0.29142215819172 -0.79168127412659,0.87698328415752 -1.2368183213367,1.30124694659048 -2.40472580907798,2.29196330725722 -5.05064825394959,1.94979665284712 -6.0963646223817,-0.78837257340928 -0.1800443798301,-0.47143947928282 -0.33322188279861,-0.64329199670481 -0.62375322104591,-0.69979963904302 -1.01356349157809,-0.19713564675908 -2.65961669228842,-0.39106080333118 -2.76524406108312,-0.32577949927378 -0.20176546832528,0.1246979171811 0.079858261785,2.47318537505112 0.39880033143572,3.32563444211929 0.41327660939978,1.10458071746132 1.15325054464521,1.9198458443314 2.2399578275597,2.46787003634603 0.80951746560548,0.40823795145678 1.02427659192491,0.45384926836118 1.9337626708626,0.41069948230017 0.76544972627979,-0.03631610499 1.24305651491108,-0.15622202429608 1.89646564956498,-0.4761185614538 z m 10.29874767920171,-1.96167356340363 c 0.68146105882527,-0.491858254301 0.95977900154439,-1.01676117273217 0.94830795712636,-1.78849271952879 -0.012593667543,-0.84725768455189 -0.34297963012267,-1.38057668566631 -1.11826037722288,-1.805129681388 -0.4773359267666,-0.2613948539705 -0.52848107106273,-0.35395034699138 -0.61418430904051,-1.11146683250922 C 33.09432997650885,23.7105760722365 27.1978445881934,15.4491465495787 22.5019035192745,13.7130781867819 c -2.03412990870022,-0.75200870890092 -4.09161662401852,-0.41183281194498 -5.3031998357377,0.87680797520011 -0.62997112879409,0.67003775179108 -0.8915476818851,1.23962988086231 -1.06559638631171,2.32037354739009 -0.25950273213181,1.61136467589472 0.32164268116049,4.25252263384391 1.48812066198029,6.76312956943292 0.52251730271491,1.12461236794138 0.62611039911992,1.26484812335047 0.7421868242497,1.00471106246789 0.096035893686,-0.2152245393047 0.024001592975,-0.69432491128413 -0.25000664094485,-1.66279499476252 -0.50841654315094,-1.79697597018771 -0.5209468238245,-3.25300765889449 -0.03686395993,-4.28363060867128 0.395447326883,-0.84191596297012 0.69312263201064,-1.14186200928492 1.44498917181984,-1.45601190823981 2.13389386839728,-0.89159778716629 5.79570518944189,0.8705386894274 8.71536847666225,4.1940087440937 1.88423342654265,2.14483409663228 3.72209553576053,5.43161740713839 4.45699236358181,7.9707656206636 l 0.22285167639199,0.76997670226649 -0.57337686180505,0.3619569247631 c -0.70039166632902,0.4421378513183 -1.02035787521873,1.02406158895689 -1.01963597764695,1.8544157559698 0.00143445468,1.64996457741892 1.90316960139721,2.68481692203261 3.20591221599831,1.7445361826962 z m -6.27578946042609,-4.08999221065687 c 1.53550827152091,-0.32092649659132 3.74924069883992,-0.99105647974813 3.85863991668549,-1.16806813256483 0.066600107696,-0.10776123790617 -0.81046306133551,-2.43197540557628 -0.98273694769989,-2.60424929194068 -0.044850278574,-0.044850278574 -0.43074793849258,0.11477260871448 -0.85755035537408,0.35471752730809 -3.54289466082441,1.99178715338348 -9.41540742147273,2.71471017333442 -13.85316405309581,1.70536388788292 l -1.02714659542859,-0.2336195259835 0,-0.57761370627042 c 0,-2.2487692861746 -2.68015786444329,-3.15015881036061 -3.90682950186642,-1.31394319434748 -1.2013572670348,1.79832231123749 1.01170711180609,4.05872465389132 2.86658279052908,2.92789966576408 0.49426879744398,-0.30133098051408 0.49462339263112,-0.3013352055491 1.16926891226482,-0.013931949125 0.91781789849009,0.39099622713468 2.65257543327889,0.89708245054738 3.89033968498277,1.13494092372111 1.56050732411321,0.29987930979507 7.02071780721824,0.16928261927768 8.8425961490026,-0.21149620444391 z m -7.60024792972127,-2.30140225483723 c 0,-2.16176437277739 1.28656268302327,-6.52441710986398 2.57369212890599,-8.72722733120628 0.272601321184,-0.46653347771383 0.49563876578921,-0.87216477562413 0.49563876578921,-0.9014028842455 0,-0.084915018383 -1.31638816086392,-0.56409711617067 -1.37460710849892,-0.50037453804799 -0.028964393849,0.031702494202 -0.36171093003618,0.53783699259247 -0.73943674708169,1.12474332975642 -0.879133168758,1.36598772091003 -2.2916211746015,4.30074001063662 -2.786373808423,5.78930007226501 -0.4348093403934,1.30820893975482 -0.96763672811251,3.62094810711369 -0.85920452878469,3.7293803064415 0.095159286715,0.095159286715 1.2913047287003,0.25905214425683 2.06911718845251,0.28350526340779 l 0.62117410964061,0.019528672145 0,-0.8174528905156 z m 13.74292816846999,-0.00802142051 c 1.49682867953183,-0.99755911111691 2.34489818611395,-2.36388066168092 2.44859627374536,-3.94492412648242 0.13918678528501,-2.1221255115492 -1.02524502804657,-3.58898602954639 -3.69306589110216,-4.65223681111968 -1.05008826843148,-0.41850904893669 -3.32504537934659,-0.94929995669741 -4.08327608725201,-0.95270623370942 l -0.42741368514141,-0.00192011402 0.3285625406472,0.34973879768751 c 0.18070939735589,0.19235633872807 0.70190243724408,0.48595501040228 1.1582067553069,0.65244149260877 2.74537582630291,1.00167354452532 3.93379106485112,3.09539720842122 2.80786494284649,4.9468343093975 l -0.27885769431114,0.45854472247362 0.41862837827469,0.998280492368 c 0.23024560805109,0.5490542708024 0.49696789246061,1.31069452986378 0.59271618757662,1.6925339090252 0.095748295116,0.38183937916148 0.2174165957881,0.69425341665738 0.2703740014935,0.69425341665738 0.052957405705,0 0.25890633076751,-0.10837793470018 0.45766427791591,-0.24083985488898 z M 28.65277240335685,15.30223526198779 c 0.87197361975919,-0.39582981625728 1.24079106971169,-1.0356507583046 1.1675329543136,-2.02542486749638 -0.048781984501,-0.65908254657512 -0.13765491279119,-0.85787558888672 -0.58231490269091,-1.30253557878649 -0.44465998989962,-0.44465998989972 -0.64345303221122,-0.53353291819002 -1.30253557878639,-0.58231490269083 -0.60119759122081,-0.044497630425 -0.88594071332908,0.010344428578 -1.25414008581761,0.2415497311211 -0.66460655480364,0.41732977038231 -1.05711128202902,1.12162811759032 -1.05776770608189,1.89802566809823 -3.4534636081e-4,0.40846472197057 -0.094180381325,0.74966957602168 -0.2550541599037,0.92743310042158 -0.24327687445869,0.2688179204265 -0.23939547219441,0.29346519359001 0.087957692575,0.55853970500101 0.2316674728309,0.1875929386959 0.41615643426559,0.23607222163377 0.57023671790409,0.14984455966288 0.14780220234519,-0.082714271037 0.4376417705258,-0.032152439793 0.82553364513241,0.14401240352993 0.75244910160618,0.34173203093598 1.03074631800389,0.34032090590938 1.80055142335599,-0.00912981886 z" />
</svg>
