<?xml version="1.0" encoding="UTF-8" standalone="no"?>
<!-- Generator: Adobe Illustrator 18.1.0, SVG Export Plug-In . SVG Version: 6.00 Build 0)  -->

<svg
   xmlns:dc="http://purl.org/dc/elements/1.1/"
   xmlns:cc="http://creativecommons.org/ns#"
   xmlns:rdf="http://www.w3.org/1999/02/22-rdf-syntax-ns#"
   xmlns:svg="http://www.w3.org/2000/svg"
   xmlns="http://www.w3.org/2000/svg"
   xmlns:xlink="http://www.w3.org/1999/xlink"
   xmlns:sodipodi="http://sodipodi.sourceforge.net/DTD/sodipodi-0.dtd"
   xmlns:inkscape="http://www.inkscape.org/namespaces/inkscape"
   version="1.1"
   id="Content"
   x="0px"
   y="0px"
   width="192px"
   height="192px"
   viewBox="0 0 192 192"
   enable-background="new 0 0 192 192"
   xml:space="preserve"
   inkscape:version="0.91 r13725"
   sodipodi:docname="emblem-messaging-alt.svg"><metadata
     id="metadata63"><rdf:RDF><cc:Work
         rdf:about=""><dc:format>image/svg+xml</dc:format><dc:type
           rdf:resource="http://purl.org/dc/dcmitype/StillImage" /><dc:title></dc:title></cc:Work></rdf:RDF></metadata><defs
     id="defs61"><defs
       id="defs9"><path
         inkscape:connector-curvature="0"
         d="M 172.06,84 C 172.06,42.03 137.97,8 96,8 54.03,8 20,42.03 20,84 20,123.76 56.24,156 96,156 l 0,0 0,28 C 142.18,160.58 172.06,122.89 172.06,84 Z"
         id="SVGID_1_" /></defs><clipPath
       id="SVGID_2_"><use
         height="100%"
         width="100%"
         y="0"
         x="0"
         style="overflow:visible"
         id="use13"
         overflow="visible"
         xlink:href="#SVGID_1_" /></clipPath></defs><sodipodi:namedview
     pagecolor="#ffffff"
     bordercolor="#666666"
     borderopacity="1"
     objecttolerance="10"
     gridtolerance="10"
     guidetolerance="10"
     inkscape:pageopacity="0"
     inkscape:pageshadow="2"
     inkscape:window-width="1366"
     inkscape:window-height="713"
     id="namedview59"
     showgrid="false"
     inkscape:zoom="6.244281450907383"
     inkscape:cx="47.52005858121723"
     inkscape:cy="102.7600401251063"
     inkscape:window-x="0"
     inkscape:window-y="31"
     inkscape:window-maximized="1"
     inkscape:current-layer="Content" /><path
     style="fill:#212121;fill-opacity:1"
     inkscape:connector-curvature="0"
     id="path15"
     d="M 172.06,84 C 172.06,42.03 137.97,8 96,8 54.03,8 20,42.03 20,84 20,123.76 56.24,156 96,156 l 0,0 0,28 C 142.18,160.58 172.06,122.89 172.06,84 Z"
     clip-path="url(#SVGID_2_)" /></svg>