<svg xmlns="http://www.w3.org/2000/svg" viewBox="0 0 128 128"><defs><linearGradient id="0" gradientUnits="userSpaceOnUse" gradientTransform="matrix(.49294 0 0 .49335 273.65 23.2)" x1="200.96" y1="508.03" x2="301.54" y2="296.88"><stop stop-color="#35a6c2"/><stop offset="1" stop-color="#c1e5ee"/></linearGradient><linearGradient id="1" gradientUnits="userSpaceOnUse" gradientTransform="matrix(-.26176 0 0 .26174 536.39 135.15)" x1="541.34" y1="104.51" x2="606.91" y2="303.14"><stop stop-color="#fff" stop-opacity=".196"/><stop offset="1" stop-color="#fff" stop-opacity=".272"/></linearGradient></defs><g transform="translate(-462.18-27.547)"><text x="485" y="211.09" font-family="Trebuchet MS" font-size="24"><tspan x="485" y="211.09"/></text><g transform="matrix(.99683 0 0 .99683 133.03-118.48)" fill-rule="evenodd"><g stroke-linejoin="round" stroke-miterlimit="10"><path d="m394.4 147.54c-5.622 13.783-9.02 22.811-15.283 36.18 3.838 4.068 8.554 8.785 16.204 14.14-8.224-3.384-13.827-6.77-18.02-10.296-8.01 16.715-20.577 40.516-46.04 86.28 19.924-11.502 35.393-18.627 49.796-21.374-.612-2.65-.944-5.523-.921-8.512l.013-.63c.316-12.787 6.963-22.621 14.835-21.954 7.873.668 14 11.588 13.688 24.375-.059 2.365-.335 4.625-.794 6.74 14.377 2.763 29.817 9.886 49.683 21.355-3.894-7.168-7.387-13.631-10.706-19.785-5.228-4.052-10.674-9.322-21.796-15.03 7.645 1.986 13.12 4.285 17.389 6.847-33.743-62.824-36.472-71.18-48.04-98.33z" fill="url(#0)" stroke="#08a" stroke-width="2.107"/><path d="m394.4 149.16c-5.478 13.431-8.394 21.429-14.493 34.46 3.74 3.964 11.463 10.03 16.788 15.305-8.01-2.699-15.14-6.93-19.223-10.366-7.806 16.288-19.785 39.08-44.602 83.67 19.414-11.208 33.35-17.618 47.38-20.295-.596-2.582-.92-5.382-.897-8.294l.012-1.147c.308-12.46 7.925-22.576 15.596-21.925 7.672.651 14.711 12.357 14.403 24.817-.057 2.304-.327 4.507-.774 6.568 14.01 2.692 27.99 9.101 47.35 20.276-3.794-6.985-6.865-12.151-10.1-18.15-5.094-3.948-11.332-8.761-22.385-15.691 2.861-.359 12.812 3.377 17.379 5.709-32.881-61.22-35.16-68.48-46.44-94.94z" fill="none" stroke="#dff5fc" stroke-linecap="round" stroke-width="1.404"/></g><path d="m429.95 222.61c-27.375-37.16-33.72-67.1-35.33-74.25 14.603 33.681 14.503 34.09 35.33 74.25" fill="#fff" fill-opacity=".456"/><path d="m64.22 1.594c-.7 1.722-1.353 3.379-2 4.969-.716 1.76-1.417 3.447-2.094 5.094-.677 1.647-1.335 3.257-2 4.844-.665 1.587-1.35 3.14-2.031 4.719-.681 1.578-1.37 3.19-2.094 4.813-.724 1.622-1.487 3.251-2.281 4.969-.795 1.718-1.607 3.509-2.5 5.375-.124.259-.28.55-.406.813 3.815 4.04 8.507 8.725 16.09 14.03-8.177-3.365-13.762-6.745-17.938-10.25-.215.44-.403.831-.625 1.281-.574 1.165-1.223 2.478-1.844 3.719-.269.546-.503 1.032-.781 1.594-.223.443-.427.828-.656 1.281-3.648 7.319-8.148 16.08-13.969 26.969 15.96-8.995 33.17-21.977 64.44-10.813-1.568-2.971-3.02-5.756-4.375-8.375-1.354-2.619-2.582-5.055-3.75-7.375-1.168-2.32-2.271-4.522-3.281-6.594-1.01-2.071-1.932-4.03-2.813-5.906-.881-1.875-1.721-3.645-2.5-5.375-.779-1.73-1.512-3.425-2.219-5.063-.706-1.637-1.37-3.216-2.031-4.813-.661-1.596-1.324-3.206-1.969-4.813-.185-.461-.377-.941-.563-1.406-1.813-4.251-3.659-8.629-5.813-13.688" transform="matrix(1.0032 0 0 1.0032 330.2 146.49)" fill="url(#1)"/></g></g></svg>