<svg xmlns="http://www.w3.org/2000/svg" viewBox="0 0 15.9 15.902"><defs><linearGradient id="0" gradientUnits="userSpaceOnUse" gradientTransform="matrix(.1278 0 0 .12791 741.23 214.95)" x1="200.96" y1="508.03" x2="301.54" y2="296.88"><stop stop-color="#35a6c2"/><stop offset="1" stop-color="#c1e5ee"/></linearGradient></defs><g transform="translate(-662.83-31.27)"><text x="485" y="211.09" font-family="Trebuchet MS" font-size="24"><tspan x="485" y="211.09"/></text><g transform="matrix(.48181 0 0 .48181 298.56-87.76)" fill-rule="evenodd" stroke-linejoin="round" stroke-miterlimit="10"><path d="m772.53 247.19c-1.457 3.573-2.153 5.354-3.776 8.821.995 1.055 4.083 3.812 5.321 5.252-2.132-.877-5.172-2.315-6.259-3.229-2.077 4.334-5.05 10.04-11.658 21.901 5.165-2.982 8.286-4.829 12.02-5.541-.159-.687-.245-1.432-.239-2.207l.003-.163c.082-3.315 2.473-7.089 4.514-6.916 2.041.173 4.521 4.117 4.439 7.432-.015.613-.087 1.199-.206 1.747 3.728.716 7.06 2.674 12.213 5.648-1.01-1.858-1.915-3.534-2.776-5.129-1.355-.864-5.431-3.296-6.118-4.521.827-.29 3.076.778 4.788 1.746-8.748-16.288-9.269-17.8-12.269-24.84z" fill="url(#0)" stroke="#08a" stroke-width=".208"/><path d="m772.53 249.43c-1.258 3.084-.871 3.26-2.271 6.252.859.91 4.327 4.155 4.219 5.714-1.747.375-5.413-1.18-6.351-1.969-1.792 3.74-4.03 8.02-9.724 18.26 4.458-2.573 5.617-3.473 8.839-4.088-.137-.593-.211-1.236-.206-1.904l.003-.263c.071-2.861 2.811-7.06 5.416-6.957 2.511.101 5.32 4.524 5.249 7.384-.013.529-.075 1.035-.178 1.508 3.217.618 4.689 1.754 9.133 4.32-.871-1.604-.78-.993-1.522-2.369-1.261-.888-5.918-4.264-5.974-5.531 1.611.057 2.892.066 3.941.602-7.549-14.06-7.985-14.883-10.574-20.959z" fill="none" stroke="#e0f8fb" stroke-linecap="round" stroke-width=".415"/></g></g></svg>