<svg xmlns="http://www.w3.org/2000/svg" viewBox="0 0 32 32"><g transform="matrix(.16842 0 0 .16842-112.8-73.37)" fill-rule="evenodd"><path d="m764.75 435.62c-8.457 20.735-12.613 32.848-22.03 52.966 5.773 6.119 11.889 14.689 23.397 22.737-9.924-.684-21.785-8.23-28.09-13.535-12.05 25.15-29.963 58.991-68.28 127.83 30.11-17.38 53.44-28.1 75.19-32.19-.931-4.01-1.428-8.37-1.392-12.896l.023-.951c.478-19.292 10.516-34.13 22.405-33.12 11.888 1.01 21.14 17.469 20.665 36.761-.09 3.634-.512 7.126-1.229 10.367 21.516 4.211 44.634 14.883 74.33 32.03-5.857-10.784-11.1-18.54-16.1-27.798-7.864-6.095-14.1-11.577-32.795-24.572 11.501 2.988 18.275 3.996 24.693 7.85-50.762-94.51-53.39-104.63-70.802-145.48"/><path d="m818.23 548.55c-41.18-55.895-50.727-100.94-53.14-111.7 21.967 50.669 21.817 51.29 53.14 111.7"/><path d="m765.12 436.55c-1.04 2.557-2.192 5.059-3.154 7.422-1.081 2.656-2.132 5.122-3.154 7.607-1.022 2.486-1.965 5.03-2.969 7.422-1 2.394-1.941 4.669-2.969 7.05-1.028 2.382-2.062 4.788-3.154 7.236-.222.52-.515.957-.742 1.484-.891 1.982-1.821 4.04-2.783 6.123-1.129 2.527-2.219 4.817-3.525 7.607 5.773 6.119 11.871 14.774 23.379 22.822-9.924-.684-21.711-8.241-28.02-13.545-1.537 3.119-3.056 6.52-4.824 10.02-1.066 2.109-2.364 4.409-3.525 6.68-.756 1.499-1.238 2.694-2.041 4.268-.041.079-.145.107-.186.186-1.02 1.98-4.275 8.13-7.607 14.473-2.499 4.769-4.853 9.344-7.793 14.844 24.06-13.573 50.1-32.971 97.23-16.14-2.367-4.483-4.45-8.664-6.494-12.617-2.044-3.953-3.989-7.632-5.752-11.133-1.763-3.5-3.485-6.893-5.01-10.02-1.525-3.126-2.938-6.076-4.268-8.906-1.329-2.83-2.535-5.367-3.711-7.979-1.176-2.611-2.274-5.136-3.34-7.607-1.066-2.471-1.971-5.01-2.969-7.422-.563-1.358-1.118-2.724-1.67-4.082-.41-.96-.889-2.188-1.299-3.154-2.957-6.974-6.01-14.09-9.648-22.637"/></g></svg>