<?xml version="1.0" encoding="UTF-8" standalone="no"?>
<svg
   xmlns:dc="http://purl.org/dc/elements/1.1/"
   xmlns:cc="http://creativecommons.org/ns#"
   xmlns:rdf="http://www.w3.org/1999/02/22-rdf-syntax-ns#"
   xmlns:svg="http://www.w3.org/2000/svg"
   xmlns="http://www.w3.org/2000/svg"
   xmlns:sodipodi="http://sodipodi.sourceforge.net/DTD/sodipodi-0.dtd"
   xmlns:inkscape="http://www.inkscape.org/namespaces/inkscape"
   width="48"
   height="48"
   viewBox="0 0 48 48"
   id="svg2"
   version="1.1"
   inkscape:version="0.91 r13725"
   sodipodi:docname="edit-clear-all.svg"
   style="fill:#1793D1">
  <metadata
     id="metadata10">
    <rdf:RDF>
      <cc:Work
         rdf:about="">
        <dc:format>image/svg+xml</dc:format>
        <dc:type
           rdf:resource="http://purl.org/dc/dcmitype/StillImage" />
        <dc:title></dc:title>
      </cc:Work>
    </rdf:RDF>
  </metadata>
  <defs
     id="defs8" />
  <sodipodi:namedview
     pagecolor="#ffffff"
     bordercolor="#666666"
     borderopacity="1"
     objecttolerance="10"
     gridtolerance="10"
     guidetolerance="10"
     inkscape:pageopacity="0"
     inkscape:pageshadow="2"
     inkscape:window-width="1366"
     inkscape:window-height="713"
     id="namedview6"
     showgrid="false"
     inkscape:snap-bbox="true"
     inkscape:snap-bbox-edge-midpoints="false"
     inkscape:bbox-nodes="true"
     inkscape:zoom="5.368001304915684"
     inkscape:cx="33.91149852623444"
     inkscape:cy="12.39484139926671"
     inkscape:window-x="0"
     inkscape:window-y="30"
     inkscape:window-maximized="1"
     inkscape:current-layer="svg2"
     inkscape:bbox-paths="true"
     fit-margin-top="0"
     fit-margin-left="0"
     fit-margin-right="0"
     fit-margin-bottom="0"
     inkscape:snap-page="true" />
  <path
     d="m 10.85481770833333,10.27928357534049 c -1.037072072072062,0 -1.85735641891892,0.52567403340842 -2.398437500000002,1.322265625 l -8.123046875,12.19726562499999 8.123046875,12.19726562500001 c 0.541081081081082,0.79659159159161 1.361365427927939,1.337890625 2.398437500000002,1.337890625 l 6,0 c -1.03707207207207,0 -1.85735641891892,-0.54129903340839 -2.3984375,-1.337890625 L 6.333333333333329,23.79881482534048 14.45638020833333,11.60154920034049 c 0.54108108108108,-0.79659159159158 1.36136542792794,-1.322265625 2.3984375,-1.322265625 l -6,0 z"
     id="path4223"
     inkscape:connector-curvature="0" />
  <path
     d="m 44.99399399399401,10.2792835753405 -22.54504504504507,0 c -1.03707207207206,0 -1.8562087087087,0.52605105105106 -2.39728978978978,1.32264264264264 l -8.12373123123124,12.19686936936937 8.12373123123123,12.19686936936939 c 0.54108108108108,0.79659159159161 1.36021771771773,1.33767267267267 2.39728978978979,1.33767267267267 l 22.54504504504507,0 C 46.65481231231231,37.33333762939457 48,35.98814994170687 48,34.32733162338857 l 0,-21.04204204204208 c 0,-1.66081831831832 -1.34518768768769,-3.00600600600601 -3.00600600600599,-3.00600600600601 z m -4.50900900900904,18.91529279279277 -2.12674924924923,2.12674924924928 -5.38826576576578,-5.38826576576578 -5.38826576576578,5.38826576576578 -2.12674924924924,-2.12674924924928 5.38826576576578,-5.38826576576575 -5.38826576576578,-5.38826576576576 2.12674924924926,-2.12674924924925 5.38826576576576,5.38826576576576 5.38826576576577,-5.38826576576576 2.12674924924925,2.12674924924925 -5.38826576576577,5.38826576576576 5.38826576576577,5.38826576576578 z"
     id="path4"
     inkscape:connector-curvature="0" />
</svg>
