<?xml version="1.0" encoding="UTF-8" standalone="no"?>
<svg
   xmlns:dc="http://purl.org/dc/elements/1.1/"
   xmlns:cc="http://creativecommons.org/ns#"
   xmlns:rdf="http://www.w3.org/1999/02/22-rdf-syntax-ns#"
   xmlns:svg="http://www.w3.org/2000/svg"
   xmlns="http://www.w3.org/2000/svg"
   xmlns:sodipodi="http://sodipodi.sourceforge.net/DTD/sodipodi-0.dtd"
   xmlns:inkscape="http://www.inkscape.org/namespaces/inkscape"
   fill="#3F51B5"
   width="48"
   height="48"
   viewBox="0 0 48 48"
   id="svg2"
   version="1.1"
   inkscape:version="0.91 r13725"
   sodipodi:docname="text-x-perl1.svg">
  <metadata
     id="metadata10">
    <rdf:RDF>
      <cc:Work
         rdf:about="">
        <dc:format>image/svg+xml</dc:format>
        <dc:type
           rdf:resource="http://purl.org/dc/dcmitype/StillImage" />
        <dc:title />
      </cc:Work>
    </rdf:RDF>
  </metadata>
  <defs
     id="defs8" />
  <sodipodi:namedview
     pagecolor="#ffffff"
     bordercolor="#666666"
     borderopacity="1"
     objecttolerance="10"
     gridtolerance="10"
     guidetolerance="10"
     inkscape:pageopacity="0"
     inkscape:pageshadow="2"
     inkscape:window-width="1366"
     inkscape:window-height="713"
     id="namedview6"
     showgrid="false"
     inkscape:snap-bbox="true"
     inkscape:bbox-paths="true"
     inkscape:bbox-nodes="true"
     inkscape:zoom="6.0738075"
     inkscape:cx="4.4029955"
     inkscape:cy="-11.408139"
     inkscape:window-x="0"
     inkscape:window-y="30"
     inkscape:window-maximized="1"
     inkscape:current-layer="svg2"
     inkscape:snap-text-baseline="true"
     inkscape:snap-page="true"
     inkscape:snap-bbox-edge-midpoints="true"
     inkscape:snap-bbox-midpoints="true" />
  <path
     style="fill:#40426c;fill-opacity:1"
     d="M 12 4 C 9.79 4 8.0195313 5.79 8.0195312 8 L 8.0117188 21.587891 C 9.4252185 20.850623 10.962033 20.341898 12.601562 20.083984 C 13.090513 20.007074 13.884911 19.967092 14.679688 19.966797 C 15.474461 19.966497 16.270926 20.005411 16.765625 20.082031 C 19.821524 20.555076 22.576324 21.963424 24.71875 24 L 32 24 L 32 28 L 27.703125 28 C 28.173666 28.934911 28.545172 29.925169 28.802734 30.962891 C 28.888549 31.308635 28.952702 31.654675 29.013672 32 L 32 32 L 32 36 L 29.171875 36 C 28.998737 37.664771 28.528863 39.295298 27.763672 40.859375 C 27.204387 42.002571 26.483691 43.049036 25.660156 44 L 36 44 C 38.21 44 40 42.21 40 40 L 40 16 L 28 4 L 12 4 z M 26 7 L 37 18 L 26 18 L 26 7 z "
     id="path4" />
  <path
     style="fill:#40426c"
     d="M 14.261719 22.167969 C 14.027782 22.177269 14.21962 22.185547 14.6875 22.185547 C 15.155371 22.185547 15.345266 22.177239 15.111328 22.167969 C 14.877391 22.158669 14.495657 22.158669 14.261719 22.167969 z M 14.685547 22.279297 C 14.016545 22.279546 13.349075 22.314176 12.9375 22.378906 C 10.259121 22.800241 7.89405 24.003852 6.015625 25.902344 C 4.9969342 26.931888 4.3527234 27.828952 3.7109375 29.117188 C 2.8360171 30.873413 2.4468829 32.54051 2.4472656 34.527344 C 2.4476433 36.490571 2.8189502 38.093789 3.6816406 39.865234 C 4.3020181 41.139117 4.9907613 42.099775 6.0273438 43.140625 C 8.1163443 45.238229 10.811831 46.504027 13.707031 46.744141 C 15.065335 46.856837 16.318523 46.743139 17.75 46.382812 C 21.154946 45.522312 24.122246 43.090567 25.699219 39.867188 C 26.983924 37.241205 27.282817 34.392022 26.574219 31.537109 C 25.392557 26.776185 21.370993 23.14004 16.441406 22.376953 C 16.024993 22.312463 15.35455 22.279047 14.685547 22.279297 z M 14.244141 23.416016 C 14.269221 23.416016 14.298115 23.436626 14.328125 23.472656 C 14.465221 23.637848 14.302308 26.740372 14.066406 28.460938 C 13.779939 30.550341 13.41069 31.763978 12.529297 33.509766 C 12.015111 34.528251 11.828421 35.064166 11.744141 35.765625 C 11.563692 37.26757 11.956052 38.634036 13.152344 40.671875 C 13.391384 41.079046 13.636772 41.500407 13.699219 41.609375 C 13.850718 41.873594 14.017578 42.376605 14.017578 42.570312 C 14.017578 42.713327 14.002234 42.726562 13.84375 42.726562 C 13.269189 42.726562 12.028277 41.642571 11.207031 40.425781 C 10.344325 39.147488 9.9353944 37.872199 9.9277344 36.435547 C 9.9200144 34.986782 10.189012 34.257657 11.4375 32.339844 C 12.49528 30.715014 12.964574 29.778511 13.371094 28.484375 C 13.786495 27.161972 14.116966 25.10127 14.119141 23.824219 C 14.119582 23.56236 14.168892 23.413096 14.244141 23.416016 z M 13.478516 24.171875 C 13.497776 24.160075 13.517483 24.164457 13.539062 24.185547 C 13.560803 24.207287 13.576209 24.472964 13.574219 24.775391 C 13.567519 25.787042 13.220222 27.126222 12.658203 28.308594 C 12.145365 29.387464 11.644943 30.161982 10.287109 31.970703 C 9.195877 33.424315 8.7419198 34.094327 8.4238281 34.71875 C 7.6480612 36.241756 7.6478301 37.428024 8.4238281 39.039062 C 9.1634182 40.574556 10.873751 42.352666 12.304688 43.072266 C 12.636723 43.239259 12.778133 43.336851 12.767578 43.392578 C 12.718738 43.650523 11.05077 43.252929 10.021484 42.738281 C 7.4022478 41.428614 6.0656053 39.339244 6.0566406 36.539062 C 6.0529106 35.369923 6.2185089 34.599968 6.6699219 33.703125 C 7.1725362 32.70452 7.9217307 31.866794 9.7128906 30.292969 C 10.804279 29.334 11.618475 28.523291 12.021484 27.996094 C 12.774043 27.011778 13.219189 25.901323 13.339844 24.710938 C 13.372544 24.388382 13.420734 24.206541 13.478516 24.171875 z M 15.070312 25.144531 C 15.144502 25.155091 15.20386 25.316657 15.269531 25.664062 C 15.448768 26.61216 15.849455 27.589216 16.294922 28.164062 C 16.552152 28.495998 16.958012 28.805967 18.527344 29.863281 C 19.151177 30.28356 19.940978 30.837234 20.28125 31.09375 C 20.990234 31.628153 22.285363 32.893439 22.644531 33.404297 C 23.365292 34.429429 23.663469 35.320104 23.666016 36.441406 C 23.670016 38.190611 22.972337 39.703284 21.46875 41.207031 C 20.289172 42.386669 18.985757 43.16843 17.771484 43.423828 C 17.574954 43.465448 17.290778 43.5 17.142578 43.5 C 16.890823 43.5 16.859281 43.482915 16.644531 43.263672 C 16.23133 42.841964 15.926657 42.69871 14.818359 42.404297 L 14.560547 42.335938 L 14.369141 41.847656 C 13.949096 40.769717 13.619764 39.451646 13.503906 38.384766 C 13.425786 37.665415 13.438377 36.261476 13.529297 35.482422 C 13.630693 34.613598 13.697207 34.225709 14.095703 32.205078 C 14.651511 29.386756 14.809666 28.214238 14.890625 26.335938 C 14.916775 25.729281 14.962184 25.211675 14.990234 25.183594 C 15.018904 25.155014 15.045583 25.140811 15.070312 25.144531 z M 15.740234 29.166016 C 15.726054 29.166016 15.738155 29.208576 15.765625 29.259766 C 15.903391 29.517214 16.305276 29.976103 17.296875 31.003906 C 18.933711 32.700553 19.18049 32.995098 19.724609 33.900391 C 20.070719 34.476294 20.303819 35.02786 20.476562 35.683594 C 20.567673 36.029509 20.586835 36.251772 20.587891 36.978516 C 20.589091 37.770429 20.575619 37.906707 20.447266 38.402344 C 20.197061 39.368519 19.866409 40.061497 19.091797 41.255859 L 18.992188 41.412109 L 19.224609 41.230469 C 19.673748 40.880392 20.633263 39.911406 20.958984 39.478516 C 21.839567 38.308134 22.152638 37.143541 21.882812 36.048828 C 21.760096 35.550892 21.309923 34.645495 20.908203 34.089844 C 20.523942 33.558361 19.411158 32.37271 18.580078 31.609375 C 17.96123 31.040927 15.78184 29.166016 15.740234 29.166016 z M 2.3398438 34.130859 C 2.3365537 34.188639 2.3340544 34.317627 2.3339844 34.501953 C 2.3338943 34.870606 2.3415195 35.027628 2.3515625 34.851562 C 2.3616015 34.675562 2.3615125 34.374168 2.3515625 34.181641 C 2.3465925 34.085351 2.3431498 34.072772 2.3398438 34.130859 z M 27.048828 34.130859 C 27.039128 33.909816 27.029347 34.076641 27.029297 34.501953 C 27.029223 34.927326 27.037085 35.108627 27.046875 34.904297 C 27.056675 34.700028 27.058528 34.351901 27.048828 34.130859 z M 14.839844 43.1875 C 14.945078 43.1937 15.052555 43.30361 15.166016 43.521484 C 15.309381 43.796762 15.307396 44.334705 15.162109 44.742188 C 15.105259 44.901725 15.03116 45.16279 14.998047 45.322266 C 14.944867 45.578471 14.923128 45.613281 14.8125 45.613281 C 14.71696 45.613281 14.6875 45.58462 14.6875 45.496094 C 14.6875 45.432234 14.616314 45.135534 14.53125 44.837891 C 14.333391 44.145689 14.333765 43.855871 14.523438 43.492188 C 14.631779 43.284377 14.734611 43.182716 14.839844 43.1875 z M 14.095703 43.292969 C 14.205571 43.292969 14.224609 43.314636 14.224609 43.460938 C 14.224609 43.720436 14.084278 44.210086 13.904297 44.582031 C 13.716717 44.969631 13.135722 45.58625 12.794922 45.759766 C 12.433781 45.943657 12.33182 45.894172 12.392578 45.570312 C 12.446928 45.280622 12.537569 45.142595 12.986328 44.658203 C 13.392367 44.219908 13.710234 43.794773 13.882812 43.458984 C 13.944844 43.338275 14.003816 43.292969 14.095703 43.292969 z M 15.494141 43.353516 C 15.582381 43.341086 15.64177 43.40609 15.794922 43.679688 C 16.013133 44.069898 16.323387 44.470018 16.751953 44.916016 C 17.085631 45.263236 17.194788 45.451189 17.244141 45.759766 L 17.277344 45.972656 L 17.105469 45.972656 C 16.901917 45.972656 16.520145 45.730187 16.197266 45.398438 C 15.758136 44.947159 15.420521 44.207746 15.396484 43.652344 C 15.385574 43.400053 15.395471 43.369571 15.494141 43.355469 L 15.494141 43.353516 z M 14.46875 46.863281 C 14.348237 46.874461 14.446476 46.882813 14.6875 46.882812 C 14.928526 46.882812 15.026763 46.873841 14.90625 46.863281 C 14.785737 46.852101 14.589263 46.852101 14.46875 46.863281 z "
     id="path4182" />
</svg>
