<?xml version="1.0" encoding="UTF-8" standalone="no"?>
<!-- Created with Inkscape (http://www.inkscape.org/) -->

<svg
   xmlns:dc="http://purl.org/dc/elements/1.1/"
   xmlns:cc="http://creativecommons.org/ns#"
   xmlns:rdf="http://www.w3.org/1999/02/22-rdf-syntax-ns#"
   xmlns:svg="http://www.w3.org/2000/svg"
   xmlns="http://www.w3.org/2000/svg"
   xmlns:sodipodi="http://sodipodi.sourceforge.net/DTD/sodipodi-0.dtd"
   xmlns:inkscape="http://www.inkscape.org/namespaces/inkscape"
   width="35"
   height="31"
   viewBox="0 0 35 31.000001"
   id="svg4921"
   version="1.1"
   inkscape:version="0.91 r13725"
   sodipodi:docname="view_day9.svg">
  <defs
     id="defs4923" />
  <sodipodi:namedview
     id="base"
     pagecolor="#ffffff"
     bordercolor="#666666"
     borderopacity="1.0"
     inkscape:pageopacity="0.0"
     inkscape:pageshadow="2"
     inkscape:zoom="5.6"
     inkscape:cx="58.499922"
     inkscape:cy="-9.5421756"
     inkscape:document-units="px"
     inkscape:current-layer="layer1"
     showgrid="false"
     units="px"
     inkscape:window-width="1366"
     inkscape:window-height="713"
     inkscape:window-x="0"
     inkscape:window-y="30"
     inkscape:window-maximized="1"
     inkscape:snap-bbox="true"
     inkscape:bbox-paths="true"
     inkscape:bbox-nodes="true"
     fit-margin-top="0"
     fit-margin-left="0"
     fit-margin-right="0"
     fit-margin-bottom="0" />
  <metadata
     id="metadata4926">
    <rdf:RDF>
      <cc:Work
         rdf:about="">
        <dc:format>image/svg+xml</dc:format>
        <dc:type
           rdf:resource="http://purl.org/dc/dcmitype/StillImage" />
        <dc:title></dc:title>
      </cc:Work>
    </rdf:RDF>
  </metadata>
  <g
     inkscape:label="Layer 1"
     inkscape:groupmode="layer"
     id="layer1"
     transform="translate(-4.5,-1013.3622)">
    <path
       id="rect4165-7-3"
       style="opacity:1;fill:#3F51B5;fill-opacity:1;fill-rule:nonzero;stroke:none;stroke-width:6;stroke-miterlimit:4;stroke-dasharray:none;stroke-opacity:1"
       d="m 6.3712853,1013.3622 31.2574397,0 c 1.036689,0 1.871275,0.3969 1.871275,0.89 l 0,5.22 c 0,0.4931 -0.834586,0.89 -1.871275,0.89 l -31.2574397,0 C 5.3345956,1020.3622 4.5,1019.9653 4.5,1019.4722 l 0,-5.22 c 0,-0.4931 0.8345956,-0.89 1.8712853,-0.89 z m 0,24 31.2574397,0 c 1.036689,0 1.871275,0.3969 1.871275,0.89 l 0,5.22 c 0,0.4931 -0.834586,0.89 -1.871275,0.89 l -31.2574397,0 C 5.3345956,1044.3622 4.5,1043.9653 4.5,1043.4722 l 0,-5.22 c 0,-0.4931 0.8345956,-0.89 1.8712853,-0.89 z m 3e-7,-16 31.2574394,0 c 1.03669,0 1.871275,0.3969 1.871275,0.89 l 0,5.22 c 0,0.4931 -0.834585,0.89 -1.871275,0.89 l -31.2574394,0 c -1.0366897,0 -1.8712854,-0.3969 -1.8712854,-0.89 l 0,-5.22 c 0,-0.4931 0.8345957,-0.89 1.8712854,-0.89 z m -3e-7,8 31.2574397,0 c 1.036689,0 1.871275,0.3969 1.871275,0.89 l 0,5.22 c 0,0.4931 -0.834586,0.89 -1.871275,0.89 l -31.2574397,0 C 5.3345956,1036.3622 4.5,1035.9653 4.5,1035.4722 l 0,-5.22 c 0,-0.4931 0.8345956,-0.89 1.8712853,-0.89 z"
       inkscape:connector-curvature="0" />
  </g>
</svg>
