<svg xmlns="http://www.w3.org/2000/svg" viewBox="0 0 79.999811 79.999195"><defs><clipPath><path d="m0 841.89h1190.55v-841.89h-1190.55v841.89"/></clipPath></defs><g transform="translate(-875.93-74.58)"><path d="m954.74 124.26c-5.342 21.412-27.05 34.453-48.49 29.13-21.434-5.362-34.471-27.08-29.12-48.49 5.347-21.414 27.05-34.455 48.47-29.13 21.427 5.364 34.469 27.05 29.14 48.49" fill="#3397cc"/><path d="m928.63 100.44h-20.303-2.509-4.061-.472-3.748-.694-.609l9.197 11.807 5.224 6.763v-11.326h15.791c3.814 0 5.294 1.045 5.294 5.185v3.954c0 4.083-1.479 5.181-5.294 5.181h-7.587-5.353-1.751-1.101-.664-.972l-10.506-13.52h-10.154l16.275 20.989h.449 6.388 17.16c8.869 0 11.995-2.951 11.995-10.125v-8.814c.002-7.14-3.124-10.09-11.993-10.09" fill="#fff"/></g></svg>