<?xml version="1.0" encoding="UTF-8" standalone="no"?>
<!-- Created with Inkscape (http://www.inkscape.org/) -->

<svg
   xmlns:dc="http://purl.org/dc/elements/1.1/"
   xmlns:cc="http://creativecommons.org/ns#"
   xmlns:rdf="http://www.w3.org/1999/02/22-rdf-syntax-ns#"
   xmlns:svg="http://www.w3.org/2000/svg"
   xmlns="http://www.w3.org/2000/svg"
   xmlns:sodipodi="http://sodipodi.sourceforge.net/DTD/sodipodi-0.dtd"
   xmlns:inkscape="http://www.inkscape.org/namespaces/inkscape"
   version="1.1"
   width="22"
   height="22"
   viewBox="0 0 22 22"
   id="svg2408"
   xml:space="preserve"
   inkscape:version="0.91 r13725"
   sodipodi:docname="autokey-status.svg"><sodipodi:namedview
     pagecolor="#ffffff"
     bordercolor="#666666"
     borderopacity="1"
     objecttolerance="10"
     gridtolerance="10"
     guidetolerance="10"
     inkscape:pageopacity="0"
     inkscape:pageshadow="2"
     inkscape:window-width="1366"
     inkscape:window-height="713"
     id="namedview17"
     showgrid="false"
     inkscape:zoom="10.72727272727273"
     inkscape:cx="2.703389830508495"
     inkscape:cy="3.542372881355933"
     inkscape:window-x="0"
     inkscape:window-y="30"
     inkscape:window-maximized="1"
     inkscape:current-layer="svg2408"
     inkscape:snap-bbox="true"
     inkscape:bbox-nodes="true" /><metadata
     id="metadata106"><rdf:RDF><cc:Work
         rdf:about=""><dc:format>image/svg+xml</dc:format><dc:type
           rdf:resource="http://purl.org/dc/dcmitype/StillImage" /><dc:title /></cc:Work></rdf:RDF></metadata><defs
     id="defs104" /><filter
     x="-0.192"
     y="-0.192"
     width="1.3839999"
     height="1.3839999"
     color-interpolation-filters="sRGB"
     id="filter3794"><feGaussianBlur
       stdDeviation="5.28"
       id="feGaussianBlur3796" /></filter><filter
     color-interpolation-filters="sRGB"
     id="filter3218"><feGaussianBlur
       stdDeviation="1.71"
       id="feGaussianBlur3220" /></filter><g
     transform="translate(0,-74)"
     id="layer2"
     style="display:none"><g
       id="rect3745"
       style="opacity:0.9;display:inline;filter:url(#filter3218)"><linearGradient
         x1="37.867699"
         y1="-22.7129"
         x2="37.867699"
         y2="62.785599"
         id="SVGID_1_"
         gradientUnits="userSpaceOnUse"
         gradientTransform="matrix(1.0059,0,0,-0.9942,9.9104,69.4184)"><stop
           id="stop10"
           style="stop-color:#000000;stop-opacity:1"
           offset="0" /><stop
           id="stop12"
           style="stop-color:#000000;stop-opacity:0.58819997"
           offset="1" /></linearGradient><path
         d="m 12,7 h 72 c 3.866,0 7,3.134 7,7 v 71 c 0,3.866 -3.134,7 -7,7 H 12 C 8.134,92 5,88.866 5,85 V 14 C 5,10.134 8.134,7 12,7 z"
         id="path14"
         style="fill:url(#SVGID_1_)" /></g></g><g
     style="fill:#9C27B0"
     id="g4148"
     transform="matrix(0.5,0,0,0.5,2,2)" /><path
     id="rect3200"
     style="fill:#9C27B0;fill-opacity:1;stroke:none"
     d="M 11.583593,6.689031200000002 9.284375,12.110937 12.455468,12.110937 Z M 4,2 C 2.892,2 2,2.892 2,4 l 0,14 c 0,1.108 0.892,2 2,2 l 14,0 c 1.108,0 2,-0.892 2,-2 L 20,4 C 20,2.892 19.108,2 18,2 L 4,2 Z m 6.75390625,1.974609375 c 0.0093,-0.00103 0.01801375,-0.00103 0.02734375,0 l 2.763671875,0 c 0.05987,-1.838e-4 0.116756125,0.04689905 0.126953125,0.10546875 l 2.27734375,12.84765625 c 0.01196,0.07254 -0.050958,0.14660337499999 -0.125,0.146484375 l -2.490234375,0 c -0.05987,1.84e-4 -0.116757125,-0.04690075 -0.126953125,-0.10546875 l -0.4921875,-2.8828125 -4.31640625,0 -1.349609375,2.91796875 c -0.020817,0.04138 -0.06669725,0.0695625 -0.11328125,0.0703125 l -2.109375,0 c -0.085527,-0.0017 -0.148822124999999,-0.105302625 -0.111328125,-0.181640625 l 5.955078125,-12.84765625 c 0.01575,-0.034289 0.047234375,-0.0608535 0.083984375,-0.0703125 z" /></svg>