<svg height="48" width="48" xmlns="http://www.w3.org/2000/svg"><path d="m26.712891 4.5c.760627.889777 1.315157 1.809283 1.679688 2.773438.364531.964154.539063 1.972956.539063 3.039063 0 1.0035-.141323 1.881944-.378906 2.65625s-.571457 1.443967-.955078 2.03125c-.584785.895243-1.272105 1.560053-1.927734 2.144531a16.875 16.875 0 0 1 8.830076-2.519532 16.875 16.875 0 0 1 9 2.623047v-8.748047c0-2.216-1.784-4-4-4z" fill="#d50f25" stroke-width="3"/><path d="m34.5 14.625a16.875 16.875 0 0 0 -16.875 16.875 16.875 16.875 0 0 0 2.609375 9h19.265625c2.216 0 4-1.784 4-4v-19.251953a16.875 16.875 0 0 0 -9-2.623047z" fill="#009925" stroke-width="3"/><path d="m11.5 4.5c-2.216 0-4 1.784-4 4v6.529297c1.286423 2.92271 4.121239 5.332031 8.589844 5.332031h1.603516s-.437203 1.060234-.439453 2.083984c0 1.50975.541359 2.357109 1.693359 3.662109-5.258178.320357-8.984525 1.515527-11.447266 3.191407v7.201172c0 2.216 1.784 4 4 4h1.560547c-2.626212-1.160749-4.300781-3.197331-4.300781-5.878906 0-3.582 2.980047-6.664547 11.154297-6.779297.6075 0 1.042969.050781 1.042969.050781s1.434297 1.022109 2.435547 1.787109c2.331 1.84275 3.783203 3.252969 3.783203 5.761719 0 2.121069-1.212904 3.956487-3.349609 5.058594h3.513672c2.362455-2.016139 3.574219-4.639279 3.574219-7.244141 0-3.7845-1.885656-5.86-6.660156-9.4375-1.404-1.09125-1.675781-1.784813-1.675781-2.601563 0-1.17.698578-1.943828.955078-2.236328.45225-.477 1.234844-1.022203 1.527344-1.283203 1.60425-1.359 3.871094-3.370766 3.871094-7.384766 0-2.132214-.697495-4.032946-2.21875-5.8125l-5.478518.000001c1.380855 1.560996 3.121094 4.651244 3.121094 8.369141 0 4.56975-3.551156 5.820313-5.472656 5.820313-.9405 0-2.067484-.263516-3.021484-.916016-2.1195-1.37475-4.222656-5.032969-4.222656-9.386719 0-1.613243.398782-2.910911 1.056641-3.886719z" fill="#fff"/><g stroke-width="3"><path d="m19.914063 27.841797c-1.021781.014344-1.962414.075469-2.826172.177734s-1.650842.245236-2.365234.425781c-.714393.180545-1.357957.399254-1.931641.648438-.573684.249183-1.077898.529711-1.519531.837891s-.820433.644418-1.138672 1.001953-.575795.735564-.779297 1.132813c-.203502.397248-.351796.812915-.449219 1.240234-.097422.42732-.144531.866703-.144531 1.314453 0 .540562.069246 1.054734.199219 1.541016.129973.486281.320156.944844.568359 1.373047s.553512.827031.908203 1.193359.759547.701297 1.208984 1.001953c.43291.2896.909804.544335 1.419922.769531h10.761719c.399336-.205987.770753-.43492 1.103516-.689453.361898-.27682.682381-.579363.960938-.90625.278556-.326887.514619-.677576.705078-1.046875s.335987-.758054.433594-1.162109.146484-.82275.146484-1.253906c0-.313594-.022109-.61037-.066406-.892578-.044298-.282209-.110923-.549825-.197267-.806641-.086343-.256817-.192218-.502816-.318359-.740235s-.271859-.46739-.435547-.691406c-.327375-.448031-.727344-.874305-1.191406-1.304688-.464063-.430383-.991469-.865484-1.574219-1.326172-1.00125-.765-2.435547-1.787109-2.435547-1.787109s-.435469-.050781-1.042969-.050781z" fill="#eeb211"/><path d="m12.695313 4.5c-.057149.084699-.116864.166219-.169922.255859-.186034.314297-.347084.659-.478516 1.033204-.131432.374203-.233314.777812-.302734 1.210937s-.105469.895656-.105469 1.386719c0 .544219.032086 1.078267.09375 1.597656.061664.51939.152406 1.023363.267578 1.511719.115172.488355.255492.960993.416016 1.412109.160523.451116.341344.881391.539063 1.289063s.411914.792368.638672 1.150391c.226758.358022.46525.69002.712891.992188s.503305.574345.763672.814453.526078.447297.791016.619141c.2385.163125.487656.301531.742188.417969.254531.116437.514125.211469.773438.285156.518625.147375 1.035609.212891 1.505859.212891.240187 0 .506132-.019368.787109-.0625.280978-.043132.577371-.110736.878906-.205078s.608296-.215512.910156-.369141c.30186-.153628.598906-.339555.880859-.560547s.549202-.477004.791016-.773438c.241813-.296433.45723-.631768.638672-1.011719.181441-.379951.328851-.803844.429688-1.275391.100837-.471546.15625-.991281.15625-1.5625 0-.529313-.035142-1.047509-.099609-1.548828-.06447-.50132-.158569-.986973-.275393-1.455079-.116824-.468105-.256993-.917985-.414063-1.347656-.157069-.429671-.332375-.838594-.517578-1.224609-.370406-.772031-.785039-1.451492-1.195312-2.017578-.210062-.289839-.417862-.547786-.619141-.775391h-8.539063zm-5.195313 10.529297v14.269531c.23028-.156758.458028-.31496.710938-.46289.350133-.204799.722932-.40144 1.117187-.587891.788511-.372902 1.665457-.706547 2.636719-.996094s2.036856-.53366 3.199219-.726563c1.162362-.192902 2.421391-.335 3.783203-.417969-.288-.32625-.537164-.623527-.75-.910156s-.387563-.561797-.527344-.84375-.243664-.57059-.3125-.882813c-.068836-.312222-.103516-.647952-.103516-1.025389.000563-.255937.027121-.514496.068359-.757813.041238-.243316.097641-.471516.152344-.667969.109406-.392906.21875-.658203.21875-.658203h-1.603516c-.395719 0-.77816-.018244-1.148438-.054688s-.727334-.09185-1.072266-.162109c-.689862-.14052-1.328926-.345453-1.917969-.605469s-1.128208-.575105-1.617188-.933594c-.488977-.358488-.928685-.761327-1.318357-1.197265-.389672-.435937-.730364-.904121-1.021484-1.396484-.188119-.318159-.346932-.647928-.494141-.982422z" fill="#3369e8"/></g></svg>