<svg xmlns="http://www.w3.org/2000/svg" fill="#FF5722" viewBox="0 0 48 48"><path d="m20 5l-4 4v4h-8c-2.21 0-3.98 1.79-3.98 4l-.02 22c0 2.21 1.79 4 4 4h32c2.21 0 4-1.79 4-4v-22c0-2.21-1.79-4-4-4h-8v-4l-4-4h-8m0 4h8v4h-8v-4m5.201 9c-.238.054-.565.018-.789.1l-.133-.02c.304-.039.612-.054.922-.08m-1.354.143c-.159.089-.316.159-.465.264.604-.144.576.057 1.191-.023-.216.032-.477.118-.436.15.69.08.795-.213 1.434 0l-.039-.189c.887.321 1.073.266 2.037.777.339.016.373-.208.885 0 .09.158-.021.187.607.561.07-.028-.125-.204-.279-.346 1.263.675 2.636 2.114 3.055 3.654-.392-.723-.041.369-.176.313.175.471.318.958.406 1.461-.116-.413-.369-1.408-.813-2.051-.036.415-.572-.287-.279.625.223.323.046-.326.32.248.004.273.109.543.17.898-.094-.015-.21-.392-.279-.287.095.447.253.681.313.715-.031.075-.11-.07-.115.234.037.701.196.404.271.438-.076.345-.385.751-.232 1.344-.044-.18-.13-.359-.195-.529-.06.506.113.605-.121 1.219.169-.553.151-1.053-.008-.813.07.786-.622 1.39-.547 1.887l-.203-.277c-.545.791-.012.436-.383 1.035.136-.235-.072-.097.105-.363-.118.007-.526.501-.898.791-1.465 1.175-3.213 1.328-4.906.695-.066.054.301.341.572.48.645.238 1.375.25 1.949.229-1.241.519-3.61-.528-4.385-1.916.175.038.775.977 1.225 1.129-.266-.213-.472-.485-.662-.764.359.413.797.749 1.273.973-.031-.116.132-.139-.094-.291-1.436-1.1-2.285-2.035-1.99-4.199.219-.165.277-1.069.779-1.385.306-.676 1.225-1.299 2.205-1.314 1-.055 1.845.535 2.27 1.09-.772-.72-2.037-.94-3.115-.406-1.103.496-1.757 1.711-1.662 2.92.041-.06.078-.023.098-.172-.034 2.35 2.531 4.072 4.379 3.203l.023.049c.749-.204.651-.373 1.141-.709-.038.079-.328.279-.154.283.238-.063.982-.755 1.348-1.08.168-.362-.09-.197.145-.652l.287-.143c.159-.46.336-.719.316-1.254l-.168.352c.246-.745.104-1.555.139-2.256l-.068-.02c-.06-1.764-1.584-3.639-2.941-4.273-1.17-.54-2.971-.632-3.803-.225.115-.101.571-.144.434-.223-1.302.129-1.011.454-2.01.709-.274.264.8-.212.223.131-.536.148-.787-.093-1.58.729.071.114.504-.339.143.115-.746-.093-2.355 1.706-2.697 2.303l.18.031c-.294.735-.68 1.204-.732 1.645-.076 1.083-.455 3.059.07 3.666l-.051.508c.072.144.127.291.217.426l-.117.008c.553 1.743.593.033 1.322 1.844-.106-.036-.211-.075-.365-.283-.018.159.223.635.512 1.01l-.121.139c.161.292.308.357.42.459-.6-.328.558 1.08.662 1.26l.092-.164c-.013.236.169.542.512.965l.287-.012c.118.233.548.652.809.672l-.174.227c.655.207.318.276 1.123.561l-.162-.287c.411.356.538.668 1.117.941.804.28.91.168 1.734.404-.699-.02-1.522-.013-2.074-.211-3.771-1.022-7.219-5.444-6.967-10-.058-.922.091-2.075-.063-2.305.216-.702.466-1.558.969-2.576-.036-.068.082.199.338-.236.155-.34.281-.714.477-1.045l.1-.023c.101-.583 1.361-1.479 1.736-1.93l.027.174c.819-.768 2.278-1.284 3.1-1.65-.216.239.483-.024.986-.055m.498.115c.591.017.547.055.354.098l-.008.016-.115.012.123-.027c.029-.042-.177-.066-.354-.098m-7.801 4.02c-.003.198.333-.195.092.35-.451.315-.04.128-.092-.35m-.367 1.52c-.04.184-.058.375-.162.693.03-.25-.125-.327.162-.693m11.811 2.215c.041-.001.069.1.049.398-.06.24-.108-.148-.17-.18.026-.114.08-.218.121-.219m3.623 1.01c-.089.68-.299 1.351-.625 1.965.295-.582.487-1.21.576-1.844l.049-.121m-3.838.223c-.051.308-.195.607-.393.879.024-.234-.551.102.115-.736-.058.236-.617.857.002.467.112-.2.231-.39.275-.609m-1.352 1.281c-.097.092-.205.186-.324.279-.433-.067-.826-.234-.494-.238.276.025.549.025.818-.041m-4.182.041c.076.153.145.306.26.434l.102.301c-.139-.235-.288-.466-.361-.734m-.254.455c.273.528.421.689.621 1.08-.278-.231-.45-.552-.668-.848l.047-.232"/></svg>