<svg height="111.092995" width="111.092995" xmlns="http://www.w3.org/2000/svg"><g stroke-width="2" transform="matrix(1.32253562 0 0 1.32253562 -7.935211 -7.935211)"><rect height="63.522396" rx="7.058044" transform="matrix(.70710678 -.70710678 .70710678 .70710678 0 0)" width="63.522396" x="-31.761198" y="36.121052"/><rect fill="#000080" height="60.49752" rx="6.721947" transform="matrix(.70710678 -.70710678 .70710678 .70710678 0 0)" width="60.49752" x="-30.24876" y="37.633492"/><path d="m48 8c-1.718258 0-3.437288.657991-4.753906 1.974609l-33.271485 33.271485c-2.633236 2.633236-2.633236 6.874576 0 9.507813l15.248047 15.246093 42.777344-42.777344-15.246094-15.248047c-1.316618-1.316618-3.035648-1.974609-4.753906-1.974609z" fill="#0f0"/><rect fill="#008000" height="36" rx="4" transform="matrix(1.12886935 -1.12886935 1.12886935 1.12886935 7.360703 48)" width="36"/></g><g stroke="#000"><path d="m10.62317 21.430463h26.43427l1.61049 1.612652v4.949186l-1.277286 1.557044h-2.887778v24.5791l24.879311-24.5791h-4.109529l-1.44389-1.557044v-5.227229l1.332822-1.223393h26.767474l1.332819 1.334611v4.893576l-60.532249 62.170655h-6.886238l-1.993252-1.15235v-59.461259h-3.33803l-1.22175-1.223393v-5.227229l1.332817-1.445826z" fill="#c0c0c0" stroke-width="4.401037"/><path d="m37.338397 23.946027 1.492207-.786427-1.531475-1.533533h-26.663373l-1.354768 1.356586v5.13144l1.502024 1.504042.716654-1.504042-.942445-.943714v-3.617567l.706834-.62914h25.446048l.628295 1.022355z" fill="#fff" stroke-width=".220052"/><path d="m15.621248 27.9923v60.057518l.777478.889742-.609701 1.163555-1.722734-1.719644v-58.834127z" fill="#fff" stroke-width=".220052"/><path d="m11.31359 27.9923-.444275 1.445828h3.220984l1.777094-1.445828z" fill="#808080" stroke-width=".220052"/><path d="m55.559026 29.61617.706834-1.45489-1.020984-.943714v-3.224351l1.178059-1.179645h24.582138l.942445 1.258286 1.335132-.943714-1.3744-1.376248h-26.427764l-1.315495 1.317267v5.170758l1.364583 1.287778m-21.357205 24.828497-2.567185 6.23735 28.980221-29.097813v-3.46028z" fill="#fff" stroke-width=".220052"/><path d="m37.279573 23.766031 1.277288-.834132v5.060401l-1.471656 1.473633h-2.86001v24.940551l-2.610108 6.172581v-32.586766h4.775941l.888544-.722914v-3.503355z" fill="#808080" stroke-width=".220052"/><path d="m81.947519 23.788742 1.341424-.775513v4.864934l-60.842003 62.254702h-6.459499l.617141-1.227933h4.947844l60.316557-62.363692z" fill="#808080" stroke-width=".220052"/><path d="m60.465094 28.075711-1.360584 1.418026h-3.55419l.833014-1.418026h4.081761z" fill="#808080" stroke-width=".220052"/><g fill="#c0c0c0" stroke-miterlimit="10" transform="matrix(.21990411 0 0 .22019967 -41.956726 -60.136832)"><path d="m400.03125 559.986328a1.23301 1.23301 0 0 0 -.802734.296875l-5.3125 4.5625a1.23301 1.23301 0 0 0 -.357422.521484l-5.3125 14.875a1.23301 1.23301 0 0 0 .289063 1.285156l4.0625 4.0625a1.23301 1.23301 0 0 0 .871094.361328h16.40625a1.23301 1.23301 0 0 0 .875-.363281l4.28125-4.3125a1.23301 1.23301 0 0 0 .308594-.523438l4.5625-15.65625a1.23301 1.23301 0 0 0 -.3125-1.216797l-3.53125-3.53125a1.23301 1.23301 0 0 0 -.871095-.361327zm-30.0625 41.9375a1.23301 1.23301 0 0 0 -1.195313.931641l-2.03125 8.0625a1.23301 1.23301 0 0 0 1.195313 1.533203h9.636719l-23.925781 68.328125a1.23301 1.23301 0 0 0 1.164063 1.640625h34.84375a1.23301 1.23301 0 0 0 1.177734-.867188l2.28125-7.34375a1.23301 1.23301 0 0 0 -1.177735-1.597656h-7.867188l23.689453-69.054688a1.23301 1.23301 0 0 0 -1.166016-1.632813h-36.625zm110.875.25a1.23301 1.23301 0 0 0 -.923828.416016l-7.226563 8.177734h-11.544922l-7.699219-7.96875a1.23301 1.23301 0 0 0 -.886719-.375h-27.53125a1.23301 1.23301 0 0 0 -1.169922.841797l-2.53125 7.5625a1.23301 1.23301 0 0 0 1.169923 1.623047h7.373047l-22.947266 67.589844a1.23301 1.23301 0 0 0 1.167969 1.628906h29.3125a1.23301 1.23301 0 0 0 1.166016-.833984l2.25-6.59375a1.23301 1.23301 0 0 0 -1.166016-1.63086h-5.126953l14.623047-46.003906h26.482422l-16.6875 53.462891a1.23301 1.23301 0 0 0 1.177734 1.599609h28.28125a1.23301 1.23301 0 0 0 1.138672-.757813l2.53125-6.0625a1.23301 1.23301 0 0 0 -1.138672-1.707031h-5.126953l14.873047-46.785156h25.197266l-16.931641 53.708984a1.23301 1.23301 0 0 0 1.175781 1.603516h31.0625a1.23301 1.23301 0 0 0 1.150391-.791016l2.53125-6.59375a1.23301 1.23301 0 0 0 -1.150391-1.673828h-6.173828l18.726563-60.779297a1.23301 1.23301 0 0 0 -.189453-1.099609l-5.8125-7.8125a1.23301 1.23301 0 0 0 -.988281-.496094h-22.21875a1.23301 1.23301 0 0 0 -.912109.402344l-6.976563 7.660156h-12.287109l-7.226563-7.912109a1.23301 1.23301 0 0 0 -.910157-.400391z" stroke-width="8"/><path d="m400.03125 561.21875-5.3125 4.5625-5.3125 14.875 4.0625 4.0625h16.40625l4.28125-4.3125 4.5625-15.65625-3.53125-3.53125zm-30.0625 41.9375-2.03125 8.0625h11.375l-24.5 69.96875h34.84375l2.28125-7.34375h-9.59375l24.25-70.6875zm110.875.25-7.59375 8.59375h-12.625l-8.0625-8.34375h-27.53125l-2.53125 7.5625h9.09375l-23.5 69.21875h29.3125l2.25-6.59375h-6.8125l15.40625-48.46875h29.0625l-17.1875 55.0625h28.28125l2.53125-6.0625h-6.8125l15.65625-49.25h27.78125l-17.4375 55.3125h31.0625l2.53125-6.59375h-7.84375l19.21875-62.375-5.8125-7.8125h-22.21875l-7.34375 8.0625h-13.375l-7.59375-8.3125z"/></g></g></svg>