<?xml version="1.0" encoding="UTF-8" standalone="no"?>
<!-- Created with Inkscape (http://www.inkscape.org/) -->

<svg
   xmlns:dc="http://purl.org/dc/elements/1.1/"
   xmlns:cc="http://creativecommons.org/ns#"
   xmlns:rdf="http://www.w3.org/1999/02/22-rdf-syntax-ns#"
   xmlns:svg="http://www.w3.org/2000/svg"
   xmlns="http://www.w3.org/2000/svg"
   xmlns:sodipodi="http://sodipodi.sourceforge.net/DTD/sodipodi-0.dtd"
   xmlns:inkscape="http://www.inkscape.org/namespaces/inkscape"
   version="1.1"
   width="48"
   height="48"
   id="svg1325"
   inkscape:version="0.91 r13725"
   sodipodi:docname="xfce4-panel-colorized.svg">
  <metadata
     id="metadata32">
    <rdf:RDF>
      <cc:Work
         rdf:about="">
        <dc:format>image/svg+xml</dc:format>
        <dc:type
           rdf:resource="http://purl.org/dc/dcmitype/StillImage" />
        <dc:title>Xfce Panel</dc:title>
      </cc:Work>
    </rdf:RDF>
  </metadata>
  <sodipodi:namedview
     pagecolor="#ffffff"
     bordercolor="#666666"
     borderopacity="1"
     objecttolerance="10"
     gridtolerance="10"
     guidetolerance="10"
     inkscape:pageopacity="0"
     inkscape:pageshadow="2"
     inkscape:window-width="1366"
     inkscape:window-height="713"
     id="namedview30"
     showgrid="false"
     inkscape:zoom="15.12754324507628"
     inkscape:cx="33.91751406775871"
     inkscape:cy="25.93773950500207"
     inkscape:window-x="0"
     inkscape:window-y="30"
     inkscape:window-maximized="1"
     inkscape:current-layer="svg1325"
     fit-margin-top="0"
     fit-margin-left="0"
     fit-margin-right="0"
     fit-margin-bottom="0" />
  <title
     id="title3450">Xfce Panel</title>
  <defs
     id="defs1327" />
  <path
     d="M 6.55151339485275,14.93682497191679 c 0.10915723562,-0.0182605041 2.830986818969996,1.41843537958999 4.660486435300001,1.91491819661999 3.26234050470999,0.83369345941 6.24022293444,3.34288961724002 7.67955644649999,4.78425207420001 0.10672250174,0.12335984992 1.23623612757001,-0.84566423431998 2.41829942631,-0.77586852976001 1.61463435142,0.09779514418 6.61070827318,1.50263659294 7.27823114528,0.54598907258998 0.40477450755,-0.56161194831997 0.37576059547999,-1.25064163635997 0.88076498109001,-1.53286787195 0.2718786166,-0.07608543375 -1.01061745468999,-2.42174863263997 0.35242772913003,-3.1732698236 0.97186460709998,-0.48572940906 1.79541334200997,2.23366544041002 2.04497356470999,2.53841296439001 0.11179486399,0.13634509728001 0.70485545826,0.16961979364001 0.63465396472001,-0.14101167055 -0.07608543375,-0.33741353687001 -1.03537058247003,-2.94683957276002 0.14101167054995,-3.38468588218001 1.91065741233001,-0.75659355320999 1.57202650852,3.33883172744002 1.62173565857001,3.45529316469999 0.10570802929004,0.24793706678 6.65433058853004,0.43906367636 7.05139510546002,3.38468588218004 0.22967656268002,1.62112697509999 -5.24644572242002,3.71641837333 -5.78208717602001,4.08974423492998 -0.53543855911001,0.37332586159998 -0.49080177130998,0.97044434567001 -0.2820233411,1.33991521195999 0.24002418166999,0.40071661775 1.83538355653999,1.75321128809003 1.62193855306001,2.39740129383999 -0.14669271627005,0.37210849466 -3.12416935702002,-0.99174826712 -3.31428149414999,-0.70505835275002 -0.43358552512999,0.54761222850999 2.16752183667,1.91836740294999 1.26930792944,2.89104358801 -0.35607982994998,0.23292287452 -4.45292537203002,-1.71527001846004 -4.44257775304,-1.69234294109004 -0.10996881358,0.04179626494 -5.78898558868001,1.03739952737002 -10.15405764654,-0.28222623558996 -0.15379402342,-0.04341942086 -2.80156711792,2.55768794094003 -3.10266254108,2.46821147084998 -0.41167292020999,-0.15095350056 0.60685741959,-2.26227356349996 0.49364229417001,-2.67962752942996 -0.18503977488002,-0.23251708554005 -1.87697692698998,0.94406806197001 -1.97436628218997,0.35263062361999 -0.11646143726001,-0.77728879119002 1.48478187781997,-1.67083612515002 1.41031959998996,-2.18598523526003 -0.41289028714999,-2.92655012375998 0.18443109141,-4.63553041302998 1.19870064691999,-6.06411051711997 0.33822511482998,-0.52590251808001 -3.97510884807997,-3.78317066054003 -7.09785794366998,-5.06871014918002 -3.122546201100011,-1.28553948864 -4.793179431760007,-2.37508289994 -4.607530973410008,-2.47673303942998 z"
     id="path14"
     style="fill:#FF5722;fill-opacity:1;fill-rule:evenodd;stroke:#FF5722;stroke-width:0.2028944969pt;stroke-linecap:butt;stroke-linejoin:miter;stroke-opacity:1"
     inkscape:connector-curvature="0" />
  <path
     d="m 34.61432913774915,24.72189869894279 c -0.03428916881,-0.11970774909999 2.13100082846998,-1.42939168205001 2.44447281552,-1.12829625888999 0.56424957669001,0.20451764591999 -2.4245891555,1.28026423189997 -2.44447281552,1.12829625888999 z"
     id="path7"
     style="fill:#ffffff;fill-opacity:1;fill-rule:evenodd;stroke:#FF5722;stroke-width:0.1217366934pt;stroke-linecap:butt;stroke-linejoin:miter;stroke-opacity:1"
     inkscape:connector-curvature="0" />
  <path
     d="m 35.64848235327916,25.91288935524281 c -0.1907208206,-0.11524407032001 1.29629289660999,-1.84918038186 1.66109718962999,-1.66109718963002 0.53259803625,0.52914882992002 -1.68605321189998,1.7022847711 -1.66109718962999,1.66109718963002 z"
     id="path8"
     style="fill:#ffffff;fill-opacity:1;fill-rule:evenodd;stroke:#FF5722;stroke-width:0.1217366934pt;stroke-linecap:butt;stroke-linejoin:miter;stroke-opacity:1"
     inkscape:connector-curvature="0" />
  <path
     d="m 41.50908969692918,17.88983253717278 c -0.18077899059,-0.14953323913002 -1.59840279222,2.08717561863 -1.28493080517,2.31928691519 0.18848898121,0.14101167055 1.36568281218998,-2.23954938062 1.28493080517,-2.31928691519 z"
     id="path13"
     style="fill:#FF5722;fill-opacity:1;fill-rule:evenodd;stroke:#FF5722;stroke-width:0.1217366934pt;stroke-linecap:butt;stroke-linejoin:miter;stroke-opacity:1"
     inkscape:connector-curvature="0" />
  <ellipse
     cx="35.09739303588867"
     cy="21.0911865234375"
     rx="0.5654746294021606"
     ry="0.6438236832618713"
     id="ellipse17"
     style="fill:#ffffff;fill-opacity:1;fill-rule:evenodd;stroke:#FF5722;stroke-width:0.1131584287pt;stroke-linecap:butt;stroke-linejoin:miter;stroke-opacity:1" />
  <path
     d="m 39.87942086380017,17.57643562108408 c -0.08947647009,-0.10388197887998 -0.56424957669001,2.30650456232 -0.34471773851,2.41322706406001 0.18848898120998,0.14101167055 0.51677226603001,-2.28783826923999 0.34471773851,-2.41322706406001 z"
     id="path18"
     style="fill:#FF5722;fill-opacity:1;fill-rule:evenodd;stroke:#FF5722;stroke-width:0.1217366934pt;stroke-linecap:butt;stroke-linejoin:miter;stroke-opacity:1"
     inkscape:connector-curvature="0" />
  <path
     d="m 33.82813327844814,20.8384981603428 c -0.56222063179001,0.39747030591 0.30860251929,2.64675862204999 1.7408347242,1.33342258827999 -1.12525284153997,0.03307180187 -1.50060764803999,-0.29642884989 -1.7408347242,-1.33342258827999 z"
     id="path21"
     style="fill:#ffffff;fill-opacity:1;fill-rule:evenodd;stroke:#FF5722;stroke-width:0.1217366934pt;stroke-linecap:butt;stroke-linejoin:miter;stroke-opacity:1"
     inkscape:connector-curvature="0" />
</svg>
