<svg fill="#2196f3" height="48" viewBox="0 0 48 48" width="48" xmlns="http://www.w3.org/2000/svg"><path d="m10 6c-2.21 0-4 1.79-4 4v28c0 2.21 1.79 4 4 4h28c2.21 0 4-1.79 4-4v-28c0-2.21-1.79-4-4-4zm2.134766 2.939453h1.482422v3.667969c.20345-.280762.447591-.495931.732421-.646484.284831-.150554.617676-.226563.996094-.226563.826009 0 1.462565.32194 1.910156.964844.451661.642903.677735 1.492838.677735 2.550781v.128906c0 .964356-.226074 1.742025-.677735 2.332032-.447591.585937-1.080566.878906-1.898437.878906-.41097 0-.769043-.083171-1.074219-.25-.301107-.16683-.552409-.412923-.755859-.734375l-.148438.855469h-1.24414zm10.455078 2.794922c.431315 0 .802083.097656 1.111328.292969.309245.195312.54069.488281.695312.878906.203451-.366211.472982-.651855.806641-.859375s.724284-.3125 1.171875-.3125c.663249 0 1.185872.227865 1.568359.683594.386556.45166.580079 1.138834.580079 2.0625v3.980469h-1.484376v-3.986329c0-.561523-.097656-.955729-.292968-1.183593-.191244-.227865-.480632-.341797-.867188-.341797-.317383 0-.584961.084961-.804687.255859-.219727.170899-.378907.400554-.476563.689453 0 .061035.001791.115397.00586.160157.004069.044759.005859.086263.005859.126953v4.279297h-1.482422v-3.986329c0-.541178-.099446-.930013-.298828-1.166015-.195313-.240072-.484701-.359375-.867187-.359375-.301107 0-.557943.059733-.769532.177734-.207519.113932-.37207.276693-.49414.488281v4.845704h-1.482422v-6.603516h1.355468l.078126.859375c.215657-.313314.486979-.553711.8125-.724609.32552-.170899.70166-.257813 1.128906-.257813zm10.693359 0c.813802 0 1.446777.32373 1.898438.970703.455729.642904.683593 1.491048.683593 2.544922v.128906c0 .960287-.226074 1.734212-.677734 2.324219s-1.081055.886719-1.886719.886719c-.374349 0-.705241-.068848-.99414-.203125-.2889-.134278-.536621-.33138-.744141-.591797v3.205078h-1.484375v-9.142578h1.251953l.146484.830078c.211589-.309245.466635-.546224.763672-.708984.301107-.162761.648275-.244141 1.042969-.244141zm-18.310547 1.214844c-.32959 0-.606282.074219-.830078.220703-.219726.146484-.395182.348958-.52539.609375v2.771484c.126139.264486.301595.470703.52539.617188.223796.142415.504069.21289.841797.21289.512695 0 .885254-.179036 1.117187-.537109.231934-.362142.347657-.850423.347657-1.464844v-.128906c0-.687663-.117513-1.242839-.353516-1.666016-.236002-.423177-.610351-.634765-1.123047-.634765zm17.896485 0c-.309245 0-.571452.066894-.78711.201172-.215657.130208-.389323.312825-.519531.548828v2.986328c.130208.231933.303874.41097.519531.537109.215658.122071.481446.181641.798828.181641.504558 0 .880697-.184408 1.128907-.554688.252278-.374349.378906-.86442.378906-1.470703v-.128906c0-.675456-.128418-1.227051-.384766-1.654297-.252278-.431315-.630208-.646484-1.134765-.646484zm-3.869141 11.050781 9 12h-28l7-9 5 6.009766z" fill="#2196f3"/></svg>