<?xml version="1.0" encoding="UTF-8" standalone="no"?>
<svg
   xmlns:dc="http://purl.org/dc/elements/1.1/"
   xmlns:cc="http://creativecommons.org/ns#"
   xmlns:rdf="http://www.w3.org/1999/02/22-rdf-syntax-ns#"
   xmlns:svg="http://www.w3.org/2000/svg"
   xmlns="http://www.w3.org/2000/svg"
   xmlns:sodipodi="http://sodipodi.sourceforge.net/DTD/sodipodi-0.dtd"
   xmlns:inkscape="http://www.inkscape.org/namespaces/inkscape"
   fill="#4CAF50"
   width="48"
   height="48"
   viewBox="0 0 48 48"
   id="svg2"
   version="1.1"
   inkscape:version="0.91 r13725"
   sodipodi:docname="folder-.svg">
  <metadata
     id="metadata10">
    <rdf:RDF>
      <cc:Work
         rdf:about="">
        <dc:format>image/svg+xml</dc:format>
        <dc:type
           rdf:resource="http://purl.org/dc/dcmitype/StillImage" />
        <dc:title />
      </cc:Work>
    </rdf:RDF>
  </metadata>
  <defs
     id="defs8" />
  <sodipodi:namedview
     pagecolor="#ffffff"
     bordercolor="#666666"
     borderopacity="1"
     objecttolerance="10"
     gridtolerance="10"
     guidetolerance="10"
     inkscape:pageopacity="0"
     inkscape:pageshadow="2"
     inkscape:window-width="1366"
     inkscape:window-height="713"
     id="namedview6"
     showgrid="false"
     inkscape:zoom="11.02408851011358"
     inkscape:cx="13.40953921234281"
     inkscape:cy="17.1708534761523"
     inkscape:window-x="0"
     inkscape:window-y="30"
     inkscape:window-maximized="1"
     inkscape:current-layer="svg2"
     inkscape:snap-bbox="true"
     inkscape:bbox-paths="true"
     inkscape:bbox-nodes="true" />
  <path
     d="M 8,8 C 5.79,8 4.019531200000001,9.789999999999999 4.019531200000001,12 L 4,36 c 0,2.21 1.79,4 4,4 l 32,0 c 2.21,0 4,-1.79 4,-4 l 0,-20 c 0,-2.21 -1.79,-4 -4,-4 L 24,12 20,8 8,8 Z"
     id="path4184"
     style="fill:#87cf3e;fill-opacity:1" />
  <path
     inkscape:connector-curvature="0"
     style="display:inline;overflow:visible;visibility:visible;fill:#ffffff;fill-opacity:1;fill-rule:evenodd;stroke:none;stroke-width:1;marker:none;enable-background:accumulate"
     id="path4197"
     d="m 30.18645135537824,21.62343307218492 c -0.70077062614655,0 -1.32342642050305,0.26017315178487 -1.82371880266949,0.76555392036713 -0.50004327595025,0.50511075834795 -0.76259600180018,1.13570311159199 -0.76259425979866,1.8473473111749 l 0,3.59720699174755 1.63159519793974,0 0,-3.59720699174755 c 0,-0.27276259671032 0.089000599237,-0.48604280980029 0.28375288424798,-0.68277400852863 0.19539334156732,-0.1973600612741 0.40230305512882,-0.28670557681038 0.67096498028045,-0.28670557681038 0.27429207403764,0 0.47809754090517,0.0888960791463 0.67391767284287,0.28670557681038 0.19475402701249,0.19673119872833 0.283756368251,0.41001141181831 0.283756368251,0.68277400852863 l 0,3.59720699174755 1.63159345593823,0 0,-3.59720699174755 c 0,-0.27276259671032 0.0890023412385,-0.48604280980029 0.28375811025251,-0.68277400852863 0.19581838993618,-0.19780949766411 0.39962385680375,-0.28670557681038 0.67392115684589,-0.28670557681038 0.26866366715312,0 0.4755681547101,0.0893455155363 0.6709580122744,0.28670557681038 0.19475402701249,0.19673119872833 0.28375636825101,0.41001141181831 0.28375636825101,0.68277400852863 l 0.008866787695,4.20315524960485 c 0,0.89661166210238 -0.8538577189994,1.65227275588425 -1.95081871697,1.65227275588425 l -5.26129748588757,-0.0206862679521 c -0.84652389263492,0 -1.56952420007293,-0.82395974705317 -1.56952420007293,-1.88283884997534 l 0,-7.91513575295581 -1.54291861098397,0 0,8.21957664715733 c 0,0.87209473282595 0.31912074094109,1.6368577845067 0.93994046570421,2.25527528918515 0.53062933849358,0.52376236853429 1.16878372030022,0.86327672117347 1.88578980053628,0.9399561437178 l 5.85836850404092,-1.393601209e-5 c 0.90022457323773,0 1.69111416359182,-0.33473081648791 2.32915879930314,-0.98430053420099 l 0.00296140257,0 c 0.54265089092623,-0.55752758383658 0.85988678623159,-1.22556948558033 0.93698254713724,-1.97739991803786 l -0.005905385125,-4.48986082641525 c 0,-0.7116441995829 -0.26254401584237,-1.34223655282694 -0.76259425979864,-1.84734731117491 -0.50028715616196,-0.50538076858224 -1.12294817652299,-0.76555392036712 -1.8237153186665,-0.76555392036712 -0.68786239494445,0 -1.28974307927176,0.25578504997677 -1.77643042963143,0.72416396444789 -0.48526413512453,-0.46760720780139 -1.08293788580099,-0.72416396444789 -1.77051633449902,-0.72416396444789 z" />
  <path
     inkscape:connector-curvature="0"
     style="display:inline;overflow:visible;visibility:visible;fill:#c7f994;fill-opacity:1;fill-rule:evenodd;stroke:none;stroke-width:1;marker:none;enable-background:accumulate"
     id="path4201"
     d="m 28.33737075269914,34.94991361124311 c -3.70874212254058,0 -6.92720662960579,-2.81157650395748 -6.92720662960579,-6.51699488761362 l -0.003327222887,-4.49917705050011 0,-1.14728742164516 -2.35131009052658,0 0,-5.71654345096153 9.91553357495177,0.0466960925241 3.10173472776418,0.00667186579 C 35.78486968382828,17.12327875883679 39,19.93150887789019 39,23.64025448443378 l 0,11.30965738480785 -10.66262402129586,0 0,0 0,0 z m 9.15177217414024,-3.03381234681939 c 0,-2.46378590213596 0,-8.27584503798846 0,-8.27584503798846 0,-2.7648612494168 -2.42467971019861,-5.0061238784414 -5.41635304044868,-5.0061238784414 l -3.10506717665612,0 0,-0.00667186579 -8.39802031401521,-0.0366952618451 0,2.6848371839699 c 0,0 0.33730549472227,0 0.9407452704026,0 0.63868743426918,0 1.40722366122444,0.60020139487002 1.40722366122444,1.48097652122899 l 0.00667186579,5.67302999519948 c 0,2.76486299141828 2.42469190420919,5.00612213643988 5.41302581756123,5.00612213643988 l 7.37818643297752,0 c 0.94588765886532,0 1.77358574116273,-0.59902380184806 1.77358574116273,-1.51962979277332 z" />
</svg>
