<svg height="128" width="128" xmlns="http://www.w3.org/2000/svg" xmlns:xlink="http://www.w3.org/1999/xlink"><linearGradient id="a" gradientTransform="matrix(-.2652794 0 0 .2652645 207.89862 -12.55861)" gradientUnits="userSpaceOnUse" x1="541.33502" x2="606.91248" y1="104.50665" y2="303.14029"><stop offset="0" stop-color="#fff" stop-opacity="0"/><stop offset="1" stop-color="#fff" stop-opacity=".27451"/></linearGradient><g fill-rule="evenodd" stroke-linejoin="round" stroke-miterlimit="10" transform="matrix(.6736842 0 0 .6736842 -451.20009273421 -293.47245848024)"><path d="m128 0c-11.39482 27.937051-18.31337 46.237163-31 73.34375 7.7785 8.245207 17.33826 17.811753 32.84375 28.65625-16.66992-6.859577-28.03357-13.728504-36.53125-20.875-16.236461 33.87989-41.690855 82.12139-93.3125 174.875 40.562707-23.41756 72.007597-37.86167 101.3125-43.375-1.25376-5.40435-1.923505-11.27752-1.875-17.375l.03125-1.28125c.64379-25.99398 14.16934-45.98224 30.1875-44.625 16.01815 1.35723 28.48754 23.53727 27.84375 49.53125-.12127 4.89622-.6905 9.60082-1.65625 13.96875 28.98953 5.67316 60.13787 20.05292 100.15625 43.15625-7.89193-14.52962-14.96051-27.61983-21.6875-40.09375-10.59609-8.21269-21.64301-18.89743-44.1875-30.46875 15.4958 4.02645 26.60184 8.6825 35.25 13.875-68.39515-127.339832-73.92078-144.272124-97.375-199.3125z" fill="#1793d1" stroke-linecap="round" transform="matrix(.7421875 0 0 .7421875 669.75015 435.62318)"/><path d="m818.22607 548.55277c-41.18143-55.89508-50.72685-100.94481-53.14467-111.70015 21.96737 50.6686 21.81733 51.28995 53.14467 111.70015z" fill="#fff" fill-opacity=".16568" stroke-width="36.099998"/><path d="m64.25.5625c-.709431 1.744053-1.406947 3.420829-2.0625 5.03125-.728354 1.789204-1.43661 3.51291-2.125 5.1875-.688337 1.674611-1.354919 3.324465-2.03125 4.9375-.676372 1.61311-1.370189 3.207878-2.0625 4.8125-.692264 1.604561-1.388844 3.194653-2.125 4.84375-.736155 1.649152-1.504571 3.347022-2.3125 5.09375-.807997 1.746742-1.654846 3.540181-2.5625 5.4375-.123667.258501-.280434.550644-.40625.8125 3.878876 4.108773 8.660438 8.885706 16.375 14.28125-8.313487-3.420951-14.004734-6.84292-18.25-10.40625-.21918.447437-.399232.854397-.625 1.3125-.83219 1.68868-1.756518 3.523935-2.6875 5.375-.227333.452004-.422489.849784-.65625 1.3125-.105529.211775-.236811.44221-.34375.65625-3.647487 7.300522-8.134834 15.978733-13.875 26.71875 16.222751-9.145022 33.749479-22.285761 65.53125-10.9375-1.594664-3.020254-3.06067-5.868296-4.4375-8.53125-1.376808-2.663033-2.655975-5.141769-3.84375-7.5-1.187678-2.358184-2.285213-4.581525-3.3125-6.6875-1.027274-2.10593-1.979504-4.093635-2.875-6-.895549-1.906324-1.738819-3.740721-2.53125-5.5-.792482-1.759259-1.531878-3.46028-2.25-5.125-.718195-1.664808-1.421319-3.283527-2.09375-4.90625-.672492-1.622771-1.313327-3.241619-1.96875-4.875-.259239-.645913-.521558-1.315448-.78125-1.96875-1.769204-4.155137-3.590483-8.448793-5.6875-13.375z" fill="url(#a)" stroke-linecap="round" stroke-width=".714167" transform="matrix(1.484375 0 0 1.484375 669.75015 435.62319)"/></g></svg>