<?xml version="1.0" encoding="UTF-8" standalone="no"?>
<svg
   xmlns:dc="http://purl.org/dc/elements/1.1/"
   xmlns:cc="http://creativecommons.org/ns#"
   xmlns:rdf="http://www.w3.org/1999/02/22-rdf-syntax-ns#"
   xmlns:svg="http://www.w3.org/2000/svg"
   xmlns="http://www.w3.org/2000/svg"
   xmlns:sodipodi="http://sodipodi.sourceforge.net/DTD/sodipodi-0.dtd"
   xmlns:inkscape="http://www.inkscape.org/namespaces/inkscape"
   fill="#9C27B0"
   width="48"
   height="48"
   viewBox="0 0 48 48"
   id="svg2"
   version="1.1"
   inkscape:version="0.91 r13725"
   sodipodi:docname="folder-collection.svg">
  <metadata
     id="metadata10">
    <rdf:RDF>
      <cc:Work
         rdf:about="">
        <dc:format>image/svg+xml</dc:format>
        <dc:type
           rdf:resource="http://purl.org/dc/dcmitype/StillImage" />
        <dc:title />
      </cc:Work>
    </rdf:RDF>
  </metadata>
  <defs
     id="defs8" />
  <sodipodi:namedview
     pagecolor="#ffffff"
     bordercolor="#666666"
     borderopacity="1"
     objecttolerance="10"
     gridtolerance="10"
     guidetolerance="10"
     inkscape:pageopacity="0"
     inkscape:pageshadow="2"
     inkscape:window-width="1366"
     inkscape:window-height="713"
     id="namedview6"
     showgrid="false"
     inkscape:zoom="8.739158711327772"
     inkscape:cx="18.62236390746408"
     inkscape:cy="19.91491434666104"
     inkscape:window-x="0"
     inkscape:window-y="30"
     inkscape:window-maximized="1"
     inkscape:current-layer="svg2"
     inkscape:snap-bbox="true"
     inkscape:bbox-nodes="true" />
  <path
     d="m 8,12 -4,0 0,28 c 0,2.21 1.79,4 4,4 l 28,0 0,-4 -28,0 0,-28 z"
     id="path4146" />
  <path
     d="m 16,4 c -2.21,0 -4,1.790000000000001 -4,4 l 0,24 c 0,2.21 1.79,4 4,4 l 24,0 c 2.21,0 4,-1.79 4,-4 L 44,8 C 44,5.79 42.21,4.000000000000001 40,4 L 16,4 Z"
     id="path4195" />
  <path
     inkscape:connector-curvature="0"
     style="fill:#ffffff;fill-opacity:1"
     d="m 18,11 9.943359375,0.046875 3.109375,0.005859375 C 34.7748240289973,11.05273437500028 38,13.8687837560721 38,17.587890625 l 0,11.341796875 -10.693359375,0 c -3.71924890631214,0 -6.9453125,-2.81938725960171 -6.9453125,-6.53515625 l -0.00390625,-4.51171875 0,-1.150390625 -2.357421875,0 L 18,11 Z"
     id="path4323" />
  <path
     inkscape:connector-curvature="0"
     style="fill:#9C27B0"
     d="m 19.517578125,12.525390625 0,2.69140625 0.943359375,0 c 0.64058860292029,0 1.412109375,0.60118654479859 1.412109375,1.484375 L 21.87890625,22.390625 c 0,2.77256974035566 2.43145575446701,5.01953125 5.427734375,5.01953125 l 7.3984375,0 c 0.94852565195159,0 1.77929687500002,-0.60026552113515 1.779296875,-1.5234375 l 0,-8.298828125 c 0,-2.77256974035565 -2.43181106986107,-5.01953125 -5.431640625,-5.01953125 l -3.11328125,0 0,-0.0078125 -8.421875,-0.03515625 z"
     id="path4321" />
  <path
     inkscape:connector-curvature="0"
     style="fill:#ffffff;fill-opacity:1"
     d="m 23.33203125,14.212890625 1.548828125,0 0,7.9375 c -1e-14,1.06180046588261 0.7233791980924,1.88671875 1.572265625,1.88671875 l 5.27734375,0.021484375 c 1.09972444747456,0 1.955078125,-0.75715335776376 1.955078125,-1.65625 L 33.677734375,18.1875 c 7e-15,-0.27356400204535 -0.0898548466706,-0.48825694829128 -0.28515625,-0.685546875 C 33.19663755344159,17.30409504875429 32.9881949179024,17.21484375 32.71875,17.21484375 c -0.27505539457986,0 -0.47941456628885,0.0887541679095 -0.67578125,0.287109375 -0.19551445940577,0.19728992670872 -0.283203125,0.41205389164678 -0.283203125,0.685546875 l 0,3.60546875 -1.63671875,0 0,-3.60546875 c 1e-14,-0.27356400204535 -0.0898548466707,-0.48825694829128 -0.28515625,-0.685546875 -0.19636668371117,-0.19835520709052 -0.40072585542014,-0.287109375 -0.67578125,-0.287109375 -0.26944491790239,0 -0.47593442844156,0.0891802800622 -0.671875,0.287109375 -0.19551445940576,0.19728992670872 -0.28515625,0.41205389164678 -0.28515625,0.685546875 l 0,3.60546875 -1.63671875,0 0,-3.60546875 c 0,-0.71302766888246 0.26227990863446,-1.34701031280182 0.763671875,-1.853515625 0.50167604113403,-0.50678938696664 1.12734816647491,-0.767578125 1.830078125,-0.767578125 l 0.001953125,0 c 0.6895204817908,0 1.28877054659536,0.25762607593319 1.775390625,0.7265625 0.48782739617067,-0.469646610988 1.09144544344071,-0.7265625 1.78125,-0.7265625 0.70272995852509,0 1.32673303363446,0.26078873803336 1.828125,0.767578125 C 35.05029111005768,16.8402056124297 35.3125,17.47376214419634 35.3125,18.1875 l 0.005859375,4.501953125 c -0.0772683370263,0.75393443554343 -0.39530790597835,1.4233627306332 -0.939453125,1.982421875 l -0.001953125,0 c -0.63980739730696,0.65138344412248 -1.43321890446565,0.98828125 -2.3359375,0.98828125 l -5.875,0 c -0.7189932390205,-0.0769132435657 -1.35855295863872,-0.41817614677433 -1.890625,-0.943359375 -0.62254985512189,-0.62027725697401 -0.943359375,-1.3871945752372 -0.943359375,-2.26171875 l 0,-8.24218749999999 z"
     id="path4184" />
</svg>
