<?xml version="1.0" encoding="UTF-8" standalone="no"?>
<svg
   xmlns:dc="http://purl.org/dc/elements/1.1/"
   xmlns:cc="http://creativecommons.org/ns#"
   xmlns:rdf="http://www.w3.org/1999/02/22-rdf-syntax-ns#"
   xmlns:svg="http://www.w3.org/2000/svg"
   xmlns="http://www.w3.org/2000/svg"
   xmlns:xlink="http://www.w3.org/1999/xlink"
   xmlns:sodipodi="http://sodipodi.sourceforge.net/DTD/sodipodi-0.dtd"
   xmlns:inkscape="http://www.inkscape.org/namespaces/inkscape"
   width="24.881355"
   height="28.743809"
   viewBox="0 0 24.881355 28.743809"
   id="svg2"
   version="1.1"
   inkscape:version="0.91 r13725"
   sodipodi:docname="application-pdf3.svg"
   style="fill:#795548">
  <metadata
     id="metadata10">
    <rdf:RDF>
      <cc:Work
         rdf:about="">
        <dc:format>image/svg+xml</dc:format>
        <dc:type
           rdf:resource="http://purl.org/dc/dcmitype/StillImage" />
        <dc:title></dc:title>
      </cc:Work>
    </rdf:RDF>
  </metadata>
  <defs
     id="defs8">
    <linearGradient
       id="linearGradient3174">
      <stop
         offset="0"
         style="stop-color:#c30000;stop-opacity:1"
         id="stop3176" />
      <stop
         offset="1"
         style="stop-color:#f12300;stop-opacity:1"
         id="stop3178" />
    </linearGradient>
    <linearGradient
       gradientTransform="scale(1.0058652,0.994169)"
       gradientUnits="userSpaceOnUse"
       id="ButtonShadow"
       y2="7.0165396"
       x2="45.447727"
       y1="92.539597"
       x1="45.447727">
      <stop
         offset="0"
         style="stop-color:#000000;stop-opacity:1"
         id="stop3750" />
      <stop
         offset="1"
         style="stop-color:#000000;stop-opacity:0.58823532"
         id="stop3752" />
    </linearGradient>
    <linearGradient
       id="linearGradient3737">
      <stop
         offset="0"
         style="stop-color:#ffffff;stop-opacity:1"
         id="stop3739" />
      <stop
         offset="1"
         style="stop-color:#ffffff;stop-opacity:0"
         id="stop3741" />
    </linearGradient>
    <linearGradient
       id="linearGradient3700">
      <stop
         offset="0"
         style="stop-color:#e6e6e6;stop-opacity:1"
         id="stop3702" />
      <stop
         offset="1"
         style="stop-color:#f5f5f5;stop-opacity:1"
         id="stop3704" />
    </linearGradient>
    <linearGradient
       gradientUnits="userSpaceOnUse"
       xlink:href="#linearGradient3700"
       id="linearGradient3706"
       y2="5.9877172"
       x2="48"
       y1="90"
       x1="48" />
    <filter
       id="filter3174"
       style="color-interpolation-filters:sRGB">
      <feGaussianBlur
         id="feGaussianBlur3176"
         stdDeviation="1.71" />
    </filter>
    <linearGradient
       gradientUnits="userSpaceOnUse"
       xlink:href="#linearGradient3737"
       id="linearGradient3188"
       y2="63.893143"
       x2="36.357143"
       y1="6"
       x1="36.357143" />
    <linearGradient
       gradientUnits="userSpaceOnUse"
       xlink:href="#linearGradient3174"
       id="linearGradient3203"
       y2="6.398416"
       x2="56.633896"
       y1="89.164001"
       x1="56.633896"
       gradientTransform="translate(9.7247346,-24.801049)" />
    <linearGradient
       gradientTransform="matrix(1.0058652,0,0,0.994169,100,0)"
       gradientUnits="userSpaceOnUse"
       id="ButtonShadow-0"
       y2="7.0165396"
       x2="45.447727"
       y1="92.539597"
       x1="45.447727">
      <stop
         offset="0"
         style="stop-color:#000000;stop-opacity:1"
         id="stop3750-8" />
      <stop
         offset="1"
         style="stop-color:#000000;stop-opacity:0.58823532"
         id="stop3752-5" />
    </linearGradient>
    <linearGradient
       gradientTransform="matrix(1.0238095,0,0,1.0119048,-1.1428571,-98.071429)"
       gradientUnits="userSpaceOnUse"
       xlink:href="#ButtonShadow-0"
       id="linearGradient3780"
       y2="90.238609"
       x2="32.251034"
       y1="6.1317081"
       x1="32.251034" />
    <linearGradient
       gradientTransform="translate(0,-97)"
       gradientUnits="userSpaceOnUse"
       xlink:href="#ButtonShadow-0"
       id="linearGradient3721"
       y2="90.238609"
       x2="32.251034"
       y1="6.1317081"
       x1="32.251034" />
    <radialGradient
       gradientTransform="matrix(1.1573129,0,0,0.99590774,-7.551021,0.1971319)"
       gradientUnits="userSpaceOnUse"
       xlink:href="#linearGradient3737"
       id="radialGradient2903"
       fy="90.171875"
       fx="48"
       r="42"
       cy="90.171875"
       cx="48" />
    <clipPath
       id="clipPath3613">
      <rect
         style="fill:#ffffff;fill-opacity:1;fill-rule:nonzero;stroke:none"
         id="rect3615"
         y="6"
         x="6"
         ry="6"
         rx="6"
         height="84"
         width="84" />
    </clipPath>
    <filter
       id="filter3794"
       height="1.3839999"
       width="1.3839999"
       y="-0.192"
       x="-0.192"
       style="color-interpolation-filters:sRGB">
      <feGaussianBlur
         stdDeviation="5.28"
         id="feGaussianBlur3796" />
    </filter>
    <linearGradient
       gradientUnits="userSpaceOnUse"
       xlink:href="#linearGradient3737"
       id="linearGradient3822"
       y2="138.66119"
       x2="48"
       y1="20.220806"
       x1="48" />
  </defs>
  <sodipodi:namedview
     pagecolor="#ffffff"
     bordercolor="#666666"
     borderopacity="1"
     objecttolerance="10"
     gridtolerance="10"
     guidetolerance="10"
     inkscape:pageopacity="0"
     inkscape:pageshadow="2"
     inkscape:window-width="1366"
     inkscape:window-height="713"
     id="namedview6"
     showgrid="false"
     inkscape:snap-bbox="true"
     inkscape:snap-bbox-midpoints="true"
     inkscape:snap-object-midpoints="true"
     inkscape:snap-bbox-edge-midpoints="true"
     inkscape:bbox-nodes="true"
     inkscape:zoom="6.9532167"
     inkscape:cx="-15.98432"
     inkscape:cy="25.648579"
     inkscape:window-x="0"
     inkscape:window-y="30"
     inkscape:window-maximized="1"
     inkscape:current-layer="svg2"
     fit-margin-top="0"
     fit-margin-left="0"
     fit-margin-right="0"
     fit-margin-bottom="0" />
  <path
     style="fill:#d81000;fill-opacity:1"
     d="m -77.365038,-26.194117 c -2.21,0 -3.980468,1.79 -3.980468,4 l -0.01953,32 c 0,2.21 1.770469,4 3.980469,4 l 24.019531,0 c 2.21,0 4,-1.79 4,-4 l 0,-24 -12,-12 -16,0 z m 14,3 11,11 -11,0 0,-11 z"
     id="path4290"
     inkscape:connector-curvature="0" />
  <g
     id="layer2"
     style="display:none"
     transform="translate(-62.813559,-2.7891129)">
    <rect
       width="86"
       height="85"
       rx="6"
       ry="6"
       x="5"
       y="7"
       id="rect3745"
       style="opacity:0.9;fill:url(#ButtonShadow);fill-opacity:1;fill-rule:nonzero;stroke:none;filter:url(#filter3174)" />
  </g>
  <path
     style="fill:#ffffff;fill-opacity:1;stroke:#d81000;stroke-width:2.76645875;stroke-miterlimit:4;stroke-dasharray:none;stroke-opacity:1"
     d="m -54.323411,-1.5123184 c -2.018942,0 -3.636353,1.6662009 -3.636353,3.7233544 l -0.01784,29.786832 c 0,2.057154 1.617409,3.723355 3.636352,3.723355 l 21.943001,0 c 2.018942,0 3.654193,-1.666201 3.654193,-3.723355 l 0,-22.340124 -10.96258,-11.1700624 -14.616772,0 z"
     id="path4317"
     inkscape:connector-curvature="0" />
  <path
     style="fill:#ffffff;fill-opacity:1;stroke:#d81000;stroke-width:3;stroke-miterlimit:4;stroke-dasharray:none;stroke-opacity:1"
     d="m 47.186441,-24.594198 11,11 -11,0 0,-11 z"
     id="path4311"
     inkscape:connector-curvature="0" />
  <path
     style="display:inline;fill:#d81000;fill-opacity:1;fill-rule:evenodd;stroke:none"
     id="path4144"
     inkscape:connector-curvature="0"
     d="M 18.054699,0 C 16.703683,2.974284 15.679929,6.033916 15.000673,9.117174 14.648101,9.397746 14.289845,9.659894 13.922779,9.925593 9.734967,12.956907 4.711446,14.937554 0,14.821021 l 0,2.245612 c 4.169078,0.393586 6.942556,1.099137 8.830592,3.610082 1.867347,2.483427 2.912887,4.9391 2.912887,8.067093 l 1.437189,0 c 0,-3.118653 -1.353181,-6.823273 -3.182359,-8.920425 -1.807674,-2.0725 -4.090666,-3.032391 -7.168841,-3.744817 4.116396,-0.551117 8.203547,-2.381379 11.722083,-4.895428 -1.014741,5.892679 -0.84934,11.876737 0.404209,17.56067 l 9.925596,0 C 19.921766,24.247027 17.776314,16.186389 17.785227,8.578227 20.581885,5.974811 22.755228,2.989906 23.893287,0 L 22.366273,0 C 21.420052,2.190161 19.834078,4.437651 17.83014,6.512265 17.952158,4.220018 18.317843,2.025856 18.818209,0 l -0.76351,0 z" />
</svg>
