<?xml version="1.0" encoding="UTF-8" standalone="no"?>
<svg
   xmlns:dc="http://purl.org/dc/elements/1.1/"
   xmlns:cc="http://creativecommons.org/ns#"
   xmlns:rdf="http://www.w3.org/1999/02/22-rdf-syntax-ns#"
   xmlns:svg="http://www.w3.org/2000/svg"
   xmlns="http://www.w3.org/2000/svg"
   xmlns:xlink="http://www.w3.org/1999/xlink"
   xmlns:sodipodi="http://sodipodi.sourceforge.net/DTD/sodipodi-0.dtd"
   xmlns:inkscape="http://www.inkscape.org/namespaces/inkscape"
   fill="#795548"
   width="48"
   height="48"
   viewBox="0 0 48 48"
   id="svg2"
   version="1.1"
   inkscape:version="0.91 r13725"
   sodipodi:docname="text-x-java15.svg">
  <metadata
     id="metadata10">
    <rdf:RDF>
      <cc:Work
         rdf:about="">
        <dc:format>image/svg+xml</dc:format>
        <dc:type
           rdf:resource="http://purl.org/dc/dcmitype/StillImage" />
        <dc:title></dc:title>
      </cc:Work>
    </rdf:RDF>
  </metadata>
  <defs
     id="defs8">
    <linearGradient
       x1="64"
       y1="60"
       x2="62"
       y2="7"
       id="linearGradient3724"
       xlink:href="#linearGradient3763"
       gradientUnits="userSpaceOnUse"
       gradientTransform="matrix(1.231823,0,0,1.231823,-157.81615,7.1708322)" />
    <linearGradient
       id="linearGradient3763">
      <stop
         id="stop3765"
         style="stop-color:#ff7700;stop-opacity:1"
         offset="0" />
      <stop
         id="stop3767"
         style="stop-color:#ffb15d;stop-opacity:1"
         offset="1" />
    </linearGradient>
    <clipPath
       id="clipPath3716">
      <path
         d="m -118,6 c -3.324,0 -6,2.676 -6,6 l 0,72 c 0,3.324 2.676,6 6,6 l 72,0 c 3.324,0 6,-2.676 6,-6 l 0,-72 c 0,-3.324 -2.676,-6 -6,-6 l -72,0 z m 42.53125,9.4375 c 0,0 6.742786,6.784262 -6.4375,17.1875 -10.569721,8.348428 -2.406258,13.091934 0,18.53125 -6.170339,-5.566626 -10.691951,-10.439321 -7.65625,-15 4.457852,-6.693689 16.821977,-9.970594 14.09375,-20.71875 z m 8.125,13.34375 c -14.197756,8.233791 -11.545654,10.600025 -8.125,15.40625 3.661158,5.156183 -4.3125,9.25 -4.3125,9.25 0,0 3.954627,-3.226804 0.8125,-6.84375 -10.643745,-12.265213 11.625144,-17.8125 11.625,-17.8125 z m 3.59375,21.875 c 6.598371,-0.338475 10.187997,8.957958 -4.59375,12.84375 -1.44e-4,0 0.16215,-0.192534 0.21875,-0.34375 12.215092,-6.34575 6.567276,-12.446464 2.625,-11.625 -0.964039,0.201189 -1.40625,0.375 -1.40625,0.375 0,0 0.378571,-0.570411 1.0625,-0.8125 0.731171,-0.256932 1.41116,-0.40248 2.09375,-0.4375 z m -26.40625,0.625 c 0.519115,-0.01358 0.8125,0 0.8125,0 0,0 -11.82939,2.822105 -4.1875,3.84375 3.227673,0.431901 9.630792,0.315402 15.625,-0.1875 4.897387,-0.41102 9.8125,-1.25 9.8125,-1.25 0,0 -1.719415,0.709928 -2.96875,1.5625 -12.017218,3.160705 -35.24553,1.700167 -28.5625,-1.53125 4.236968,-2.049735 7.911406,-2.39676 9.46875,-2.4375 z m -1.9375,7.40625 c 0,0 -2.823626,2.059601 1.4375,2.5 5.511613,0.569005 9.87295,0.637302 17.40625,-0.8125 0,0 1.050477,1.047931 2.6875,1.625 -15.407629,4.506818 -32.55548,0.346355 -21.53125,-3.3125 z m 1.53125,7.125 c 0,0 -2.476708,1.449143 1.78125,1.9375 5.159208,0.589021 7.816289,0.511854 13.5,-0.5625 0,0 1.474997,0.907513 3.5625,1.71875 -12.745505,5.460632 -28.85383,-0.296827 -18.84375,-3.09375 z m -6.46875,4.71875 c 0.614519,0.02364 1.14585,0.147618 1.46875,0.375 0,0 -0.852618,-0.05906 -2.28125,0.25 -1.370161,0.295952 -5.69609,1.676512 -3.375,2.6875 6.461397,2.810602 29.707491,2.165274 37.0625,-0.0625 3.867966,-1.173437 2.03125,-2.71875 2.03125,-2.71875 6.739204,3.040884 -14.609199,9.149373 -40.59375,4.9375 -8.33743,-1.353006 1.38587,-5.63424 5.6875,-5.46875 z M -58,74.375 c -0.426144,5.547328 -18.43383,6.718207 -30.15625,5.96875 -7.704246,-0.495845 -9.1875,-1.71875 -9.1875,-1.71875 7.318718,1.208433 19.649918,1.415115 29.65625,-0.46875 C -58.817879,76.487689 -58,74.375 -58,74.375 Z"
         inkscape:connector-curvature="0"
         id="path3718"
         style="display:inline;fill:#ff00ff;fill-opacity:1;fill-rule:nonzero;stroke:none" />
    </clipPath>
    <filter
       style="color-interpolation-filters:sRGB"
       x="-0.16965857"
       y="-0.1250829"
       width="1.3393171"
       height="1.2501658"
       id="filter3720">
      <feGaussianBlur
         id="feGaussianBlur3722"
         stdDeviation="3.3931715" />
    </filter>
    <linearGradient
       x1="64"
       y1="60"
       x2="62"
       y2="7"
       id="linearGradient3769"
       xlink:href="#linearGradient3763"
       gradientUnits="userSpaceOnUse"
       gradientTransform="matrix(0.57151406,0,0,0.57151406,-21.074833,11.838275)" />
    <linearGradient
       inkscape:collect="always"
       xlink:href="#linearGradient3763"
       id="linearGradient4180"
       gradientUnits="userSpaceOnUse"
       gradientTransform="matrix(0.57151406,0,0,0.57151406,-21.074833,11.838275)"
       x1="64"
       y1="60"
       x2="62"
       y2="7" />
  </defs>
  <sodipodi:namedview
     pagecolor="#ffffff"
     bordercolor="#666666"
     borderopacity="1"
     objecttolerance="10"
     gridtolerance="10"
     guidetolerance="10"
     inkscape:pageopacity="0"
     inkscape:pageshadow="2"
     inkscape:window-width="1366"
     inkscape:window-height="713"
     id="namedview6"
     showgrid="false"
     inkscape:snap-bbox="true"
     inkscape:bbox-paths="true"
     inkscape:bbox-nodes="true"
     inkscape:snap-bbox-edge-midpoints="true"
     inkscape:snap-object-midpoints="true"
     inkscape:snap-bbox-midpoints="true"
     inkscape:snap-midpoints="true"
     inkscape:object-paths="true"
     inkscape:zoom="2.4583333"
     inkscape:cx="13.051612"
     inkscape:cy="14.360056"
     inkscape:window-x="0"
     inkscape:window-y="30"
     inkscape:window-maximized="1"
     inkscape:current-layer="svg2"
     inkscape:snap-intersection-paths="false"
     inkscape:snap-smooth-nodes="true"
     inkscape:object-nodes="true" />
  <path
     d="M 12 4 C 9.79 4 8.0195312 5.79 8.0195312 8 L 8.0058594 31.642578 C 9.0030725 31.401596 9.8270219 31.318932 10.296875 31.306641 C 10.564853 31.299653 10.744141 31.306641 10.744141 31.306641 L 10.919922 33.171875 C 12.09208 33.188152 13.382945 33.15227 14.837891 33.058594 L 14.492188 32.53125 C 14.492188 32.53125 14.785865 32.26768 14.951172 31.925781 L 13.474609 32.994141 C 12.025472 31.686789 10.730104 30.449674 9.9140625 29.117188 C 9.0980217 27.784701 8.8353184 26.118329 9.7578125 24.732422 C 10.986658 22.88725 13.01197 21.73966 14.4375 20.447266 C 15.150266 19.801069 15.707247 19.145204 16.015625 18.443359 C 16.324003 17.741514 16.427378 16.984272 16.158203 15.923828 L 15.261719 12.392578 L 17.833984 14.970703 C 17.833984 14.970703 18.903984 16.078912 18.927734 17.837891 C 18.944864 19.106633 18.404637 20.663281 16.917969 22.378906 C 17.658457 21.981734 18.391941 21.641994 19.011719 21.412109 C 19.481593 21.237825 19.883779 21.108246 20.173828 21.021484 C 20.18797 21.017254 20.205959 21.102555 20.220703 21.107422 C 20.295635 21.063623 20.317735 21.036723 20.394531 20.992188 L 20.626953 20.857422 L 21.128906 22.794922 L 21.396484 22.722656 C 20.592756 23.188767 19.922482 23.614349 19.363281 24 L 32 24 L 32 28 L 17.628906 28 C 17.73186 28.144794 17.825865 28.277111 17.941406 28.439453 L 17.943359 28.441406 C 18.503267 29.229952 18.670335 30.139458 18.509766 30.904297 C 18.423056 31.317319 18.258861 31.677827 18.060547 32 L 20.310547 32 C 20.368095 31.909528 20.648242 31.489206 21.257812 31.273438 L 21.259766 31.273438 L 21.259766 31.271484 C 21.687585 31.121149 22.113939 31.042492 22.523438 31.021484 C 23.574536 30.967566 24.556894 31.352366 25.248047 32 L 32 32 L 32 36 L 25.621094 36 C 25.387646 36.356267 25.106533 36.700626 24.742188 37.013672 C 23.824327 37.802298 22.504197 38.455511 20.685547 38.933594 L 20.560547 38.966797 L 20.111328 38.109375 L 19.695312 38.230469 C 18.980742 38.439485 18.264717 38.576124 17.552734 38.712891 L 17.742188 38.830078 C 17.742188 38.830078 18.359912 39.210627 19.240234 39.552734 L 21.521484 40.439453 L 19.271484 41.404297 C 16.230574 42.707133 12.979077 42.72542 10.708984 42.236328 L 11.148438 42.546875 C 11.97906 42.574684 12.740502 42.641498 13.611328 42.630859 C 17.053817 42.588812 20.634946 42.219202 22.087891 41.779297 C 22.458161 41.666967 22.629012 41.553487 22.646484 41.539062 C 22.663956 41.524637 22.53435 41.677702 22.525391 41.855469 C 22.519594 41.97049 22.553721 41.925721 22.576172 41.984375 C 22.646444 41.948939 22.808406 41.900453 22.857422 41.869141 C 22.978348 41.791896 22.976198 41.779169 22.953125 41.826172 L 23.736328 40.574219 C 23.818239 40.611179 23.883399 40.680139 23.960938 40.722656 L 23.964844 40.716797 C 23.964844 40.716797 23.9881 40.740703 23.990234 40.742188 C 24.156103 40.835956 24.326293 40.915749 24.472656 41.064453 C 24.695812 41.29118 24.897463 41.65084 24.90625 42.046875 C 24.912727 42.338739 24.792855 42.536836 24.681641 42.740234 L 26.232422 43.097656 C 26.22433 43.202997 26.175671 43.288109 26.154297 43.386719 L 26.166016 43.388672 C 26.166016 43.388672 26.146986 43.424134 26.142578 43.433594 C 26.093715 43.6369 26.013857 43.82302 25.917969 44 L 36 44 C 38.21 44 40 42.21 40 40 L 40 16 L 28 4 L 12 4 z M 26 7 L 37 18 L 26 18 L 26 7 z M 13.527344 25.599609 C 13.191698 25.991848 12.966378 26.344298 12.847656 26.640625 C 12.621378 27.205402 12.654185 27.614986 12.832031 28.123047 C 13.179846 29.116666 14.316021 30.260984 15.005859 31.755859 C 15.117287 31.491376 15.158942 31.256485 14.746094 30.78125 C 13.373894 29.200009 12.928869 27.570801 13.294922 26.179688 C 13.349595 25.971915 13.445121 25.790454 13.527344 25.599609 z M 16 35.6875 C 14.040788 35.896338 11.980297 35.957313 10.142578 35.892578 C 10.182858 35.898925 10.145819 35.895477 10.193359 35.900391 C 12.167487 36.104195 13.761131 36.157764 16 35.857422 L 16 35.6875 z M 9.7753906 35.894531 C 9.7432583 35.893139 9.7038231 35.897969 9.671875 35.896484 L 9.9316406 36.400391 C 9.91902 36.226521 9.8579046 36.000094 9.7753906 35.894531 z M 19.109375 36 C 19.263193 36.106205 19.482021 36.235036 19.746094 36.328125 L 20.5625 36.615234 C 20.925669 36.403973 21.235092 36.199864 21.515625 36 L 19.109375 36 z M 8 38.412109 L 8 39.162109 C 8.0805149 39.027076 8.1724652 38.904258 8.28125 38.8125 C 8.388686 38.72188 8.5661505 38.695865 8.6855469 38.623047 C 8.4707455 38.554479 8.2122823 38.511526 8.0234375 38.423828 C 8.0156024 38.42019 8.0078397 38.415773 8 38.412109 z M 10.242188 38.978516 L 10.636719 39.898438 C 10.635702 39.900641 10.714071 39.907535 10.775391 39.613281 C 10.806325 39.46484 10.779406 39.226379 10.691406 39.070312 C 10.674778 39.040823 10.66732 39.0503 10.650391 39.027344 C 10.514354 39.010866 10.372266 38.997761 10.242188 38.978516 z "
     id="path4" />
  <path
     style="fill:url(#linearGradient4180);fill-opacity:1;fill-rule:evenodd;stroke-width:4.3107357;stroke-miterlimit:4;stroke-dasharray:none"
     id="path2907"
     inkscape:connector-curvature="0"
     d="m 17.127308,15.678135 c 1.265782,4.986693 -4.468436,6.502989 -6.536692,9.608579 -1.4084375,2.115964 0.691325,4.382647 3.554103,6.965328 -1.116403,-2.523614 -4.903906,-4.735111 0,-8.60843 6.115098,-4.826665 2.982589,-7.965477 2.982589,-7.965477 z m 3.76842,6.179496 c 6.7e-5,0 -10.331913,2.57855 -5.393663,8.269093 1.457814,1.678111 -0.375057,3.179047 -0.375057,3.179047 0,0 3.698923,-1.894103 2.0003,-4.286355 -1.58704,-2.229887 -2.818741,-3.341653 3.76842,-7.161785 z m 1.678823,10.162233 c -0.316693,0.01625 -0.643057,0.07725 -0.98229,0.196458 -0.317314,0.112319 -0.482215,0.375056 -0.482215,0.375056 0,0 0.19568,-0.08525 0.642954,-0.178598 1.82905,-0.381124 4.452821,2.449503 -1.214468,5.393664 -0.02626,0.07016 -0.107226,0.160738 -0.107159,0.160738 6.858109,-1.802844 5.204544,-6.104356 2.143178,-5.947318 z m -12.251832,0.285757 c -0.7225423,0.0189 -2.4277389,0.174178 -4.3935139,1.125169 -3.1006467,1.499241 7.6764969,2.180826 13.2519809,0.714392 0.579639,-0.395557 1.375206,-0.732253 1.375206,-0.732253 0,0 -2.282071,0.398679 -4.554253,0.589375 -2.78106,0.233325 -5.753579,0.289683 -7.2510837,0.0893 -3.5455146,-0.474 1.9467197,-1.785982 1.9467197,-1.785982 0,0 -0.134209,-0.0063 -0.375056,0 z m -0.9108507,3.429084 c -5.1147805,1.697555 2.8530037,3.626918 10.0014957,1.535944 -0.75951,-0.267735 -1.250187,-0.750112 -1.250187,-0.750112 -3.495135,0.672648 -5.515479,0.639051 -8.072636,0.375057 C 8.1135581,36.691267 9.4118683,35.734705 9.4118683,35.734705 Z m 0.7143927,3.304066 c -4.6442552,1.297654 2.83793,3.980148 8.751309,1.446645 -0.968514,-0.37638 -1.660963,-0.803692 -1.660963,-0.803692 -2.637003,0.498455 -3.875139,0.541179 -6.268795,0.267898 -1.9755133,-0.226577 -0.821551,-0.910851 -0.821551,-0.910851 z M 7.125812,41.235528 C 5.1300366,41.158748 0.61434375,43.143884 4.4825597,43.771621 16.538298,45.725753 26.45137,42.896408 23.324663,41.485566 c 0,0 0.848003,0.705761 -0.94657,1.250186 C 18.965678,43.769346 8.1769069,44.075474 5.1790928,42.771472 4.1022014,42.302416 6.1150592,41.658595 6.7507563,41.521286 7.4135815,41.377896 7.8044851,41.414127 7.8044851,41.414127 7.654673,41.308631 7.410923,41.246497 7.125812,41.235528 Z m 18.109851,1.785982 c 0,0 -0.385542,0.976119 -4.500673,1.750261 -4.642517,0.874034 -10.356479,0.77498 -13.7520561,0.214318 0,0 0.694049,0.57364 4.2684951,0.803691 5.43871,0.347717 13.786521,-0.194544 13.984234,-2.76827 z" />
  <path
     style="opacity:0.8;fill:#ffffff;fill-opacity:1;fill-rule:evenodd;stroke-width:4.3107357;stroke-miterlimit:4;stroke-dasharray:none"
     id="path3783"
     inkscape:connector-curvature="0"
     d="m 17.130898,16.137619 c 0.09682,0.381442 0.139803,0.744306 0.159485,1.087402 0.01132,-0.294886 0.004,-0.603719 -0.0435,-0.927916 -0.002,-0.0026 0.0019,-0.01196 0,-0.0145 -0.07371,-0.09525 -0.115989,-0.144987 -0.115989,-0.144987 z m 0.782929,2.000819 c -0.0827,1.370151 -0.913236,3.254918 -3.769659,5.5095 -1.943951,1.535419 -2.515573,2.807542 -2.435779,3.943643 0.09323,-1.018898 0.750061,-2.148231 2.435779,-3.479685 3.192384,-2.519757 3.856473,-4.580139 3.769659,-5.973458 z m 2.986729,4.19012 c 1.6e-5,0 -0.645407,0.147803 -1.536861,0.478457 -0.01268,0.0081 -0.0309,0.0064 -0.0435,0.0145 -2.798656,1.797314 -3.581059,2.926643 -3.436188,3.958142 0.15024,-1.093591 1.421092,-2.365964 5.016545,-4.451097 z M 10.15703,26.982636 c -0.13226,1.761753 1.673456,3.639672 3.987138,5.726981 -0.13955,-0.315452 -0.321123,-0.618363 -0.521952,-0.927916 -0.0093,-0.01437 -0.01959,-0.02913 -0.029,-0.0435 -1.845894,-1.706836 -3.277015,-3.27379 -3.436188,-4.755569 z m 4.030634,0.420462 c -0.07698,0.928453 0.277669,1.989306 1.319381,3.189711 0.337053,0.387986 0.487885,0.763715 0.536451,1.116399 0.05993,-0.474508 -0.04533,-1.015018 -0.536451,-1.580357 -0.869247,-1.001668 -1.256772,-1.914021 -1.319381,-2.725753 z m 3.363695,3.117217 c -0.124265,1.037868 -1.050285,1.873291 -1.725343,2.348788 -0.277894,0.549632 -0.695937,0.898918 -0.695937,0.898918 0,0 2.667066,-1.365935 2.42128,-3.247706 z m 5.016546,1.957323 c -0.316693,0.01625 -0.63218,0.08378 -0.971412,0.202982 -0.317315,0.112319 -0.492956,0.376965 -0.492956,0.376965 0,0 0.205168,-0.08064 0.652441,-0.173984 0.914525,-0.190562 2.027637,0.421833 2.2038,1.449869 0.100182,-0.939425 -0.543859,-1.61919 -1.304881,-1.855832 -0.02845,6.96e-4 -0.05829,-0.0015 -0.08699,0 z m -12.25139,0.289974 c -0.4053899,0.01061 -1.1187981,0.07706 -2.015317,0.289973 -0.6060423,0.263995 -0.9791327,0.555996 -0.5654488,0.782929 0.6480917,-0.518612 2.9577318,-1.072902 2.9577318,-1.072902 0,0 -0.136118,-0.0063 -0.376966,0 z m 10.236072,1.116399 c 0,0 -0.563221,0.08452 -1.261385,0.188482 -0.0382,0.02452 -0.07926,0.04743 -0.11599,0.07249 -4.554971,1.198024 -12.5771892,0.958379 -13.6722604,0.0145 -1.3504238,1.304847 8.4452444,1.824241 13.6722604,0.449459 0.579639,-0.395558 1.377375,-0.724934 1.377375,-0.724934 z m 4.654078,0.492955 c -0.111546,1.070066 -1.079382,2.281861 -3.421689,3.160713 -0.363699,0.243192 -0.77219,0.492828 -1.246887,0.739433 -0.02626,0.07016 -0.101558,0.159486 -0.101491,0.159486 3.743509,-0.984086 4.943367,-2.718083 4.770067,-4.059632 z M 9.4175968,36.2038 c -0.149053,0.04947 -0.293285,0.09523 -0.4204619,0.144987 0.00116,0.06734 0.020628,0.139666 0.072493,0.202982 C 9.1915486,36.350706 9.4175968,36.2038 9.4175968,36.2038 Z m -1.5513594,0.88442 c -0.7987871,1.360716 5.6413486,2.378108 11.5409536,0.652441 -0.24602,-0.08673 -0.441377,-0.196395 -0.623443,-0.304472 C 13.760694,38.736191 8.5417291,38.143801 7.8662374,37.08822 Z m 2.2617946,2.421281 c -0.104057,0.02908 -0.1979371,0.0566 -0.2899734,0.08699 0.020048,0.02744 0.050991,0.04589 0.086992,0.07249 0.094663,-0.0988 0.2029812,-0.159485 0.2029812,-0.159485 z m -1.3773748,0.739433 c -0.782684,1.310938 5.2045868,2.801911 10.1200828,0.695936 -0.200585,-0.07795 -0.377747,-0.153907 -0.55095,-0.231979 -4.207111,1.552893 -8.9654576,0.634691 -9.5691328,-0.463957 z m -1.6238528,1.449868 c -0.441931,-0.017 -1.0096972,0.0694 -1.5803567,0.21748 -0.5133472,0.228118 -0.8998859,0.517847 -0.5364514,0.768431 0.00255,-0.0023 0.011877,0.0023 0.014499,0 0.3718901,-0.320586 1.3223572,-0.608893 1.7253436,-0.695937 0.6628252,-0.14339 1.0584041,-0.11599 1.0584041,-0.11599 C 7.6584306,41.767291 7.4119154,41.709771 7.1268044,41.698802 Z M 23.321836,41.94528 c 0,0 0.07209,0.07036 0.130488,0.173984 0.01548,-0.02557 0.03365,-0.04769 0.0435,-0.07249 -0.05442,-0.03094 -0.108077,-0.07175 -0.173985,-0.101491 z m 0.507454,0.376966 c -0.09537,0.151544 -0.289389,0.296887 -0.55095,0.449459 -0.0074,0.0061 -0.02121,0.0084 -0.029,0.0145 -0.174619,0.136892 -0.440428,0.290164 -0.869921,0.420461 -0.08954,0.02712 -0.205053,0.04639 -0.304473,0.07249 -3.126146,1.033279 -9.911247,1.737114 -17.5869053,0.492955 -0.8260252,-0.134048 -1.2677818,-0.326403 -1.4353699,-0.55095 -0.2438443,0.409321 0.070357,0.793392 1.4353699,1.014908 11.0725343,1.794763 20.3260683,-0.44343 19.3412463,-1.913826 z m 1.406373,1.159894 c 0,0 -0.0809,0.161619 -0.434961,0.405964 -0.01161,0.01173 -0.03146,0.01738 -0.0435,0.029 -1.59169,1.53523 -6.891331,2.037258 -11.352471,1.957323 -0.0049,-8.9e-5 -0.0096,8.9e-5 -0.0145,0 -2.433253,0.01441 -4.7106308,-0.140131 -6.4084194,-0.420462 0,0 0.6881674,0.567376 4.2626134,0.797427 5.43871,0.347717 13.793519,-0.195522 13.991232,-2.769249 z" />
  <path
     style="fill:url(#linearGradient3769);fill-opacity:1;fill-rule:evenodd;stroke-width:4.3107357;stroke-miterlimit:4;stroke-dasharray:none"
     id="path3672"
     inkscape:connector-curvature="0"
     d="m 17.127308,15.678135 c 1.265782,4.986693 -4.468436,6.502989 -6.536692,9.608579 -1.4084375,2.115964 0.691325,4.382647 3.554103,6.965328 -1.116403,-2.523614 -4.903906,-4.735111 0,-8.60843 6.115098,-4.826665 2.982589,-7.965477 2.982589,-7.965477 z m 3.76842,6.179496 c 6.7e-5,0 -10.331913,2.57855 -5.393663,8.269093 1.457814,1.678111 -0.375057,3.179047 -0.375057,3.179047 0,0 3.698923,-1.894103 2.0003,-4.286355 -1.58704,-2.229887 -2.818741,-3.341653 3.76842,-7.161785 z m 1.678823,10.162233 c -0.316693,0.01625 -0.643057,0.07725 -0.98229,0.196458 -0.317314,0.112319 -0.482215,0.375056 -0.482215,0.375056 0,0 0.19568,-0.08525 0.642954,-0.178598 1.82905,-0.381124 4.452821,2.449503 -1.214468,5.393664 -0.02626,0.07016 -0.107226,0.160738 -0.107159,0.160738 6.858109,-1.802844 5.204544,-6.104356 2.143178,-5.947318 z m -12.251832,0.285757 c -0.7225423,0.0189 -2.4277389,0.174178 -4.3935139,1.125169 -3.1006467,1.499241 7.6764969,2.180826 13.2519809,0.714392 0.579639,-0.395557 1.375206,-0.732253 1.375206,-0.732253 0,0 -2.282071,0.398679 -4.554253,0.589375 -2.78106,0.233325 -5.753579,0.289683 -7.2510837,0.0893 -3.5455146,-0.474 1.9467197,-1.785982 1.9467197,-1.785982 0,0 -0.134209,-0.0063 -0.375056,0 z m -0.9108507,3.429084 c -5.1147805,1.697555 2.8530037,3.626918 10.0014957,1.535944 -0.75951,-0.267735 -1.250187,-0.750112 -1.250187,-0.750112 -3.495135,0.672648 -5.515479,0.639051 -8.072636,0.375057 C 8.1135581,36.691267 9.4118683,35.734705 9.4118683,35.734705 Z m 0.7143927,3.304066 c -4.6442552,1.297654 2.83793,3.980148 8.751309,1.446645 -0.968514,-0.37638 -1.660963,-0.803692 -1.660963,-0.803692 -2.637003,0.498455 -3.875139,0.541179 -6.268795,0.267898 -1.9755133,-0.226577 -0.821551,-0.910851 -0.821551,-0.910851 z M 7.125812,41.235528 C 5.1300366,41.158748 0.61434375,43.143884 4.4825597,43.771621 16.538298,45.725753 26.45137,42.896408 23.324663,41.485566 c 0,0 0.848003,0.705761 -0.94657,1.250186 C 18.965678,43.769346 8.1769069,44.075474 5.1790928,42.771472 4.1022014,42.302416 6.1150592,41.658595 6.7507563,41.521286 7.4135815,41.377896 7.8044851,41.414127 7.8044851,41.414127 7.654673,41.308631 7.410923,41.246497 7.125812,41.235528 Z m 18.109851,1.785982 c 0,0 -0.385542,0.976119 -4.500673,1.750261 -4.642517,0.874034 -10.356479,0.77498 -13.7520561,0.214318 0,0 0.694049,0.57364 4.2684951,0.803691 5.43871,0.347717 13.786521,-0.194544 13.984234,-2.76827 z" />
  <path
     style="fill:#d45500;fill-opacity:1;fill-rule:evenodd;stroke-width:4.3107357;stroke-miterlimit:4;stroke-dasharray:none"
     id="path2931"
     inkscape:connector-curvature="0"
     d="m 17.130898,15.673661 c 0.05268,0.207552 0.08679,0.413052 0.115989,0.608945 0.0019,0.0026 -0.002,0.01189 0,0.0145 0.209812,0.273307 0.6088,0.908225 0.66694,1.841333 0.09434,-1.563101 -0.782929,-2.464777 -0.782929,-2.464777 z m 0.159485,1.55136 c -0.145746,3.797785 -4.861004,5.302338 -6.698393,8.061269 -0.361793,0.54354 -0.489614,1.101117 -0.43496,1.667349 0.03551,-0.40843 0.170878,-0.806648 0.43496,-1.203391 1.910051,-2.868037 6.936013,-4.382941 6.698393,-8.525227 z m 3.610173,4.639579 c 5.5e-5,0 -7.005968,1.738725 -6.712892,5.538498 0.195347,-2.356156 3.208166,-3.86273 5.132535,-4.581585 0.0126,-0.0081 0.03082,-0.0064 0.0435,-0.0145 0.463543,-0.296748 0.957379,-0.606352 1.536861,-0.942415 z m -5.016545,4.929553 c -0.116547,0.904023 0.529775,1.674673 1.246887,2.682257 0.253757,0.357379 0.377295,0.713415 0.420461,1.043905 0.05594,-0.467239 -0.04285,-0.976049 -0.420461,-1.507863 -0.591389,-0.830936 -1.14037,-1.499886 -1.246887,-2.218299 z m -4.175622,0.88442 c -0.09184,1.518411 1.049149,2.783127 1.884829,4.059632 0.0094,0.01436 0.01968,0.02913 0.029,0.0435 0.172399,0.159091 0.342913,0.302436 0.521952,0.463958 -0.662864,-1.498396 -2.267982,-2.875572 -2.435779,-4.567086 z m 4.335107,4.030635 c -0.117958,0.933986 -0.913417,1.594855 -0.913417,1.594855 0,0 0.307845,-0.161596 0.695937,-0.43496 0.165135,-0.326614 0.277674,-0.722767 0.21748,-1.159895 z m 6.524409,0.304472 c -0.316693,0.01625 -0.63218,0.08378 -0.971412,0.202982 -0.317315,0.112319 -0.492956,0.376966 -0.492956,0.376966 0,0 0.205168,-0.08064 0.652441,-0.173985 0.295209,-0.06151 0.600506,-0.0348 0.898919,0.05799 1.349596,-0.03294 2.41056,0.8062 2.551768,1.899328 0.138944,-1.332888 -1.063019,-2.444116 -2.63876,-2.363286 z m -12.25139,0.289974 c -0.7225418,0.0189 -2.4273265,0.179906 -4.3931015,1.130897 -0.5675291,0.274415 -0.6658056,0.513464 -0.4204619,0.724935 0.090028,-0.08699 0.2266713,-0.167274 0.4204619,-0.260977 0.8628551,-0.417426 1.6764049,-0.674353 2.3777845,-0.840924 0.928139,-0.404301 2.392283,-0.753931 2.392283,-0.753931 0,0 -0.136118,-0.0063 -0.376966,0 z m 10.236072,1.116399 c 0,0 -2.280405,0.389251 -4.552587,0.579947 -2.78106,0.233325 -5.751838,0.287376 -7.2493428,0.08699 C 8.2353452,34.0181 7.9138399,33.938209 7.7357492,33.840514 7.3877191,34.119013 7.5119067,34.385341 8.7506572,34.55095 10.248162,34.751334 13.21894,34.697283 16,34.463958 c 1.26416,-0.106097 2.415635,-0.261088 3.291202,-0.391465 0.564739,-0.362465 1.261385,-0.65244 1.261385,-0.65244 z m 3.407191,0.942414 c -0.118269,0.970146 -1.025001,2.205606 -3.421689,3.450687 -0.02626,0.07016 -0.101558,0.159486 -0.101491,0.159486 0.49417,-0.129906 0.939937,-0.281711 1.348378,-0.434961 1.786599,-1.194634 2.304943,-2.32271 2.174802,-3.175212 z M 9.4175968,35.739842 C 8.028426,36.200897 7.6038284,36.678157 7.8662374,37.08822 8.007127,36.848218 8.3618772,36.597332 8.9971349,36.348787 8.9918968,36.043028 9.4175968,35.739842 9.4175968,35.739842 Z m 8.7427072,0.782929 c -3.495134,0.672647 -5.518611,0.640961 -8.075768,0.376966 -0.5989095,-0.0619 -0.8900125,-0.195507 -1.0149077,-0.347968 -0.1783041,0.294046 -0.1592271,0.690576 1.0149077,0.811926 2.557157,0.263994 4.580634,0.295681 8.075768,-0.376966 0,0 0.243437,0.223882 0.623444,0.44946 0.210161,-0.05439 0.414336,-0.09832 0.623443,-0.159486 -0.75951,-0.267736 -1.246887,-0.753932 -1.246887,-0.753932 z m -8.032272,2.522772 c -1.2415826,0.346911 -1.6074603,0.78465 -1.3773748,1.203391 0.1377941,-0.230795 0.4862586,-0.45394 1.0874014,-0.652441 -0.1924353,-0.263373 0.2899734,-0.55095 0.2899734,-0.55095 z m -0.2029812,0.623443 c -0.2082587,0.217354 -0.3287588,0.583662 1.0294062,0.739433 2.393656,0.273281 3.62643,0.237479 6.263433,-0.260976 0,0 0.438798,0.266556 1.1019,0.565448 0.187439,-0.06918 0.366157,-0.152806 0.55095,-0.231978 -0.968514,-0.37638 -1.65285,-0.797428 -1.65285,-0.797428 -2.637003,0.498455 -3.869777,0.534257 -6.263433,0.260976 -0.565624,-0.06487 -0.876337,-0.162364 -1.0294062,-0.275475 z m -2.7982464,1.565858 c -1.5695943,-0.06038 -4.6913455,1.159329 -4.0741306,1.98632 0.2941558,-0.493775 1.3967268,-1.020218 2.4937739,-1.304882 0.4243536,-0.188571 0.9336884,-0.333209 1.2033909,-0.391464 0.6628252,-0.14339 1.0584041,-0.11599 1.0584041,-0.11599 C 7.6584306,41.303333 7.4119154,41.245813 7.1268044,41.234844 Z m 16.1950316,0.246478 c 0,0 0.297816,0.253427 0.173985,0.565449 0.156137,0.08877 0.268623,0.178655 0.333469,0.275475 0.187925,-0.298632 0.03646,-0.595496 -0.507454,-0.840924 z m 0.130488,0.637942 c -0.120732,0.19948 -0.418125,0.424802 -1.072902,0.623443 -3.412415,1.033594 -14.1976273,1.332999 -17.1954414,0.029 -0.062819,-0.02736 -0.1168079,-0.05858 -0.1594856,-0.08699 -0.0026,0.0023 -0.011938,-0.0023 -0.014499,0 -0.2074059,0.183105 -0.2154272,0.381336 0.1739843,0.55095 2.9191556,1.269786 13.2013244,1.012204 16.8909684,0.0435 0.481305,-0.159085 0.87786,-0.32367 1.174394,-0.492955 0.0078,-0.0061 0.02162,-0.0084 0.029,-0.0145 0.311151,-0.256905 0.261577,-0.497003 0.173984,-0.652441 z m 1.783339,0.898918 c 0,0 -0.379462,0.980199 -4.494593,1.754341 -4.642517,0.874035 -10.363675,0.778143 -13.7592524,0.217481 0,0 0.6881674,0.567376 4.2626134,0.797427 0.675369,0.04318 1.401895,0.07345 2.145806,0.08699 0.0049,8.9e-5 0.0096,-8.9e-5 0.0145,0 2.429108,-0.01508 5.019608,-0.201779 7.336335,-0.637943 2.378994,-0.447538 3.483971,-0.964456 4.016136,-1.31938 0.01204,-0.01161 0.03188,-0.01726 0.0435,-0.029 0.257805,-0.260462 0.410247,-0.548206 0.434961,-0.869922 z" />
</svg>
