<?xml version="1.0" encoding="UTF-8" standalone="no"?>
<!-- Created with Inkscape (http://www.inkscape.org/) -->

<svg
   xmlns:dc="http://purl.org/dc/elements/1.1/"
   xmlns:cc="http://creativecommons.org/ns#"
   xmlns:rdf="http://www.w3.org/1999/02/22-rdf-syntax-ns#"
   xmlns:svg="http://www.w3.org/2000/svg"
   xmlns="http://www.w3.org/2000/svg"
   xmlns:sodipodi="http://sodipodi.sourceforge.net/DTD/sodipodi-0.dtd"
   xmlns:inkscape="http://www.inkscape.org/namespaces/inkscape"
   width="48"
   height="48"
   viewBox="0 0 48 48"
   id="svg4160"
   version="1.1"
   inkscape:version="0.91 r13725"
   sodipodi:docname="text-xml11.svg">
  <defs
     id="defs4162" />
  <sodipodi:namedview
     id="base"
     pagecolor="#ffffff"
     bordercolor="#666666"
     borderopacity="1.0"
     inkscape:pageopacity="0.0"
     inkscape:pageshadow="2"
     inkscape:zoom="5.579545509401966"
     inkscape:cx="-31.16339683824432"
     inkscape:cy="8.730173626429856"
     inkscape:document-units="px"
     inkscape:current-layer="layer1"
     showgrid="false"
     units="px"
     inkscape:window-width="1366"
     inkscape:window-height="713"
     inkscape:window-x="0"
     inkscape:window-y="30"
     inkscape:window-maximized="1"
     inkscape:snap-bbox="true"
     inkscape:bbox-paths="true"
     inkscape:bbox-nodes="true"
     inkscape:snap-bbox-edge-midpoints="false"
     inkscape:snap-page="true" />
  <metadata
     id="metadata4165">
    <rdf:RDF>
      <cc:Work
         rdf:about="">
        <dc:format>image/svg+xml</dc:format>
        <dc:type
           rdf:resource="http://purl.org/dc/dcmitype/StillImage" />
        <dc:title />
      </cc:Work>
    </rdf:RDF>
  </metadata>
  <g
     inkscape:label="Layer 1"
     inkscape:groupmode="layer"
     id="layer1"
     transform="translate(0,-1004.3622)">
    <path
       style="fill:#4caf50"
       d="M 12 4 C 9.789999999999999 4 8.019531249999998 5.789999999999964 8.01953125 8 L 8 40 C 8 42.21000000000004 9.770468749999999 44 11.98046875 44 L 36 44 C 38.21 44 40 42.21000000000004 40 40 L 40 16 L 28 4 L 12 4 z M 26 7 L 37 18 L 26 18 L 26 7 z M 17.12109375 23.109375 L 19 24.6640625 L 13.6953125 31.048828125 L 19 37.4453125 L 17.12109375 39 L 10.52734375 31.048828125 L 17.12109375 23.109375 z M 25.759765625 23.109375 L 28 23.109375 L 22.240234375 39 L 20 39 L 25.759765625 23.109375 z M 30.876953125 23.109375 L 37.470703125 31.056640625 L 30.876953125 39 L 29 37.4453125 L 34.302734375 31.056640625 L 29 24.6640625 L 30.876953125 23.109375 z "
       transform="translate(0,1004.3622)"
       id="path4142" />
  </g>
</svg>
