<svg xmlns="http://www.w3.org/2000/svg" fill="#00E676" viewBox="0 0 48 48"><path d="m12 4c-2.21 0-3.98 1.79-3.98 4l-.02 32c0 2.21 1.77 4 3.98 4h24.02c2.21 0 4-1.79 4-4v-24l-12-12h-16m14 3l11 11h-11v-11m-2.102 16.795c1.719 0 3.113.576 4.188 1.729 1.081 1.146 1.621 2.588 1.621 4.326v2.529c0 1.738-.54 3.18-1.621 4.326-1.074 1.146-2.469 1.719-4.188 1.719-1.66 0-3.01-.573-4.055-1.719-1.035-1.146-1.551-2.588-1.551-4.326v-2.529c0-1.732.516-3.174 1.551-4.326 1.042-1.152 2.395-1.729 4.055-1.729m0 1.582c-1.12 0-2.02.417-2.688 1.25-.664.833-.996 1.901-.996 3.203v2.549c0 1.315.332 2.389.996 3.223.671.833 1.568 1.25 2.688 1.25 1.191 0 2.135-.413 2.832-1.24.703-.833 1.055-1.911 1.055-3.232v-2.549c0-1.302-.352-2.37-1.055-3.203-.703-.833-1.647-1.25-2.832-1.25" fill="#0072c6"/></svg>