<svg xmlns="http://www.w3.org/2000/svg" fill="#00E676" viewBox="0 0 48 48"><g fill="#f7df1e"><path d="m12 4c-2.21 0-3.98 1.79-3.98 4l-.01 15.932h16.06v.068h7.932v4h-7.932v4h7.932v4h-7.932v8h11.932c2.21 0 4-1.79 4-4v-24l-12-12h-16m14 3l11 11h-11v-11"/><path stroke="#000" stroke-width=".135" d="m.068 27.933h20v20h-20z"/></g><path d="m13.502 43.558c.403.658.927 1.141 1.854 1.141.779 0 1.276-.389 1.276-.927 0-.644-.511-.873-1.368-1.248l-.47-.202c-1.356-.578-2.257-1.302-2.257-2.832 0-1.41 1.074-2.483 2.752-2.483 1.195 0 2.054.416 2.673 1.505l-1.463.94c-.322-.578-.67-.805-1.21-.805-.55 0-.899.349-.899.805 0 .564.349.792 1.156 1.141l.47.201c1.597.685 2.498 1.383 2.498 2.952 0 1.692-1.329 2.619-3.114 2.619-1.745 0-2.873-.832-3.425-1.922zm-6.639.163c.295.524.564.967 1.21.967.617 0 1.01-.242 1.01-1.181v-6.39h1.879v6.416c0 1.946-1.141 2.832-2.806 2.832-1.505 0-2.376-.779-2.819-1.717z" fill="#000"/></svg>