<?xml version="1.0" encoding="UTF-8" standalone="no"?>
<svg
   xmlns:dc="http://purl.org/dc/elements/1.1/"
   xmlns:cc="http://creativecommons.org/ns#"
   xmlns:rdf="http://www.w3.org/1999/02/22-rdf-syntax-ns#"
   xmlns:svg="http://www.w3.org/2000/svg"
   xmlns="http://www.w3.org/2000/svg"
   xmlns:sodipodi="http://sodipodi.sourceforge.net/DTD/sodipodi-0.dtd"
   xmlns:inkscape="http://www.inkscape.org/namespaces/inkscape"
   fill="#CDDC39"
   width="48"
   height="48"
   viewBox="0 0 48 48"
   id="svg2"
   version="1.1"
   inkscape:version="0.91 r13725"
   sodipodi:docname="nm-signal-75-secure.svg">
  <metadata
     id="metadata12">
    <rdf:RDF>
      <cc:Work
         rdf:about="">
        <dc:format>image/svg+xml</dc:format>
        <dc:type
           rdf:resource="http://purl.org/dc/dcmitype/StillImage" />
      </cc:Work>
    </rdf:RDF>
  </metadata>
  <defs
     id="defs10" />
  <sodipodi:namedview
     pagecolor="#ffffff"
     bordercolor="#666666"
     borderopacity="1"
     objecttolerance="10"
     gridtolerance="10"
     guidetolerance="10"
     inkscape:pageopacity="0"
     inkscape:pageshadow="2"
     inkscape:window-width="1366"
     inkscape:window-height="713"
     id="namedview8"
     showgrid="false"
     inkscape:snap-bbox="true"
     inkscape:bbox-nodes="true"
     inkscape:zoom="3.897603885191483"
     inkscape:cx="-41.35392550197385"
     inkscape:cy="5.420121020637595"
     inkscape:window-x="0"
     inkscape:window-y="30"
     inkscape:window-maximized="1"
     inkscape:current-layer="svg2" />
  <path
     style="fill:#CDDC39;fill-opacity:1;opacity:0.3"
     d="M 24 6 C 22.1720527192616 6 20.39379034810003 6.188151443124819 18.6328125 6.421875 C 17.40460724444753 6.602981459876572 16.21551956625927 6.82467812234066 15.09375 7.1015625 C 14.96799425396007 7.129922928182134 14.84403162103354 7.161881199472197 14.71875 7.19140625 C 6.949282120997093 9.193196465646475 2.062559874497059 12.97858745228587 1.021484375 13.783203125 C 0.9697656275763831 13.82317497600436 0.7524925743405494 13.9759813049427 0.720703125 14 L 23.98046875 42.98046875 L 24 43 L 30.7890625 34.369140625 L 30.7890625 29.125 C 30.7890625 27.8485 31.061671875 26.631921875 31.552734375 25.525390625 C 32.043796875 24.418859375 32.7549625 23.4230625 33.6328125 22.5859375 C 34.5106625 21.7488125 35.55448125 21.06984375 36.71484375 20.6015625 C 37.87520625 20.13328125 39.15163437500001 19.875 40.490234375 19.875 C 41.03343437500001 19.875 41.5465125 19.94943750000001 42.0703125 20.0234375 L 46.978515625 13.783203125 C 45.93744012550295 12.97858745228588 41.05071787900292 9.193196465646471 33.28125 7.19140625 C 33.15596837896646 7.161881199472197 33.03200574603993 7.129922928182132 32.90625 7.1015625 C 31.78448043374073 6.824678122340659 30.59539275555247 6.602981459876573 29.3671875 6.421875 C 27.60620965189997 6.188151443124818 25.8279472807384 6.000000000000001 24 6 z "
     id="path4" />
  <path
     d="M 24 16 C 14.37 16 7.920312500000001 21.25015625 7.0703125 21.91015625 L 23.990234375 42.98046875 L 24 43 L 30.7890625 34.369140625 L 30.7890625 29.125 C 30.7890625 27.8485 31.061671875 26.631921875 31.552734375 25.525390625 C 32.043796875 24.418859375 32.7549625 23.4230625 33.6328125 22.5859375 C 34.5106625 21.7488125 35.55448125 21.06984375 36.71484375 20.6015625 C 37.22928327926977 20.39395290746675 37.76884930603352 20.23413100448771 38.32421875 20.11328125 C 35.4549007226683 18.35743401351108 30.46841842397336 16 24 16 z M 38.3359375 20.12109375 C 39.72604272998143 20.97278644920909 40.65867019220787 21.69467167367116 40.939453125 21.91015625 C 40.65854311163993 21.69457414672367 39.72677885721497 20.97319444418965 38.3359375 20.12109375 z "
     id="path6" />
  <path
     style="fill:#CDDC39"
     d="M 41.720703125 26 C 38.960703125 26 36.720703125 28.24000000000001 36.720703125 31 L 36.720703125 34 C 35.620703125 34 34.720703125 34.9 34.720703125 36 L 34.720703125 44 C 34.720703125 45.1 35.620703125 46.00000000000001 36.720703125 46 L 46.720703125 46 C 47.820703125 46 48.72070312499999 45.1 48.720703125 44 L 48.720703125 36 C 48.720703125 34.9 47.820703125 34 46.720703125 34 L 46.720703125 31 C 46.720703125 28.24 44.480703125 26 41.720703125 26 z M 41.720703125 28 C 43.380703125 28 44.720703125 29.34 44.720703125 31 L 44.720703125 34 L 38.720703125 34 L 38.720703125 31 C 38.720703125 29.34 40.06070312500001 28 41.720703125 28 z "
     id="path4156" />
  <path
     id="path4161"
     d="m -92.97743846775641,0.4745689001513967 c 0.55999999999999,0 1.09,0.079999999999998 1.62999999999998,0.16 l 5.37000000000002,-7.160000000000001 c -6.69000000000001,-5.020000000000006 -14.99999999999999,-8.000000000000007 -23.99999999999998,-8.000000000000007 -9,0 -17.31,2.98 -24,8.000000000000007 l 23.9999999999999,32.000000000000007 7,-9.33 0,-5.67000000000001 c 0,-5.519999999999993 4.48000000000009,-9.99999999999999289 10.00000000000009,-9.99999999999999289 z"
     style="fill:#CDDC39"
     inkscape:connector-curvature="0" />
</svg>
