<?xml version="1.0" encoding="UTF-8" standalone="no"?>
<!-- Created with Inkscape (http://www.inkscape.org/) -->

<svg
   xmlns:dc="http://purl.org/dc/elements/1.1/"
   xmlns:cc="http://creativecommons.org/ns#"
   xmlns:rdf="http://www.w3.org/1999/02/22-rdf-syntax-ns#"
   xmlns:svg="http://www.w3.org/2000/svg"
   xmlns="http://www.w3.org/2000/svg"
   xmlns:sodipodi="http://sodipodi.sourceforge.net/DTD/sodipodi-0.dtd"
   xmlns:inkscape="http://www.inkscape.org/namespaces/inkscape"
   width="48"
   height="48"
   id="svg2"
   version="1.1"
   inkscape:version="0.91 r13725"
   sodipodi:docname="progress-80-symbolic.svg">
  <defs
     id="defs4" />
  <sodipodi:namedview
     id="base"
     pagecolor="#ffffff"
     bordercolor="#666666"
     borderopacity="1.0"
     inkscape:pageopacity="0.0"
     inkscape:pageshadow="2"
     inkscape:zoom="5.784473795166692"
     inkscape:cx="10.18464824491427"
     inkscape:cy="22.92783258251448"
     inkscape:document-units="px"
     inkscape:current-layer="layer1"
     showgrid="false"
     inkscape:window-width="1366"
     inkscape:window-height="713"
     inkscape:window-x="0"
     inkscape:window-y="30"
     inkscape:window-maximized="1" />
  <metadata
     id="metadata7">
    <rdf:RDF>
      <cc:Work
         rdf:about="">
        <dc:format>image/svg+xml</dc:format>
        <dc:type
           rdf:resource="http://purl.org/dc/dcmitype/StillImage" />
        <dc:title />
      </cc:Work>
    </rdf:RDF>
  </metadata>
  <g
     inkscape:label="Layer 1"
     inkscape:groupmode="layer"
     id="layer1"
     transform="translate(0,-1004.3622)"
     style="opacity:1">
    <path
       style="fill:#CDDC39;fill-opacity:1;stroke:none"
       d="m 24.382812,1008.2372 c 0.0078,0.3618 0.0024,0.6692 0,3.3633 l 0,4.211 c 6.76763,0.2044 12.195313,5.7335 12.195313,12.5507 0,6.9467 -5.631419,12.5781 -12.578125,12.5781 -6.946706,0 -12.578125,-5.6314 -12.578125,-12.5781 0,-1.4437 0.262178,-2.8126 0.710938,-4.1016 -0.0507,0.014 -0.400506,-0.072 -3.882813,-1.2031 -1.8232238,-0.5925 -2.9003534,-0.9496 -3.3359375,-1.0937 -0.6737239,2.0075 -1.0390625,4.1629 -1.0390625,6.3984 0,11.1147 9.01027,20.125 20.125,20.125 11.11473,0 20.125,-9.0103 20.125,-20.125 0,-10.9869 -8.804105,-19.921 -19.742188,-20.125 z"
       id="path2993"
       inkscape:connector-curvature="0" />
    <path
       style="fill:none;stroke:#000000;stroke-width:1px;stroke-linecap:butt;stroke-linejoin:miter;stroke-opacity:1"
       d="m -63.134534,996.41356 0,-11.0888"
       id="path3791-6"
       inkscape:connector-curvature="0" />
  </g>
</svg>
