<?xml version="1.0" encoding="UTF-8" standalone="no"?>
<svg
   xmlns:dc="http://purl.org/dc/elements/1.1/"
   xmlns:cc="http://creativecommons.org/ns#"
   xmlns:rdf="http://www.w3.org/1999/02/22-rdf-syntax-ns#"
   xmlns:svg="http://www.w3.org/2000/svg"
   xmlns="http://www.w3.org/2000/svg"
   xmlns:sodipodi="http://sodipodi.sourceforge.net/DTD/sodipodi-0.dtd"
   xmlns:inkscape="http://www.inkscape.org/namespaces/inkscape"
   fill="#9C27B0"
   width="48"
   height="48"
   viewBox="0 0 48 48"
   id="svg2"
   version="1.1"
   inkscape:version="0.91 r13725"
   sodipodi:docname="document-print-preview.svg">
  <metadata
     id="metadata10">
    <rdf:RDF>
      <cc:Work
         rdf:about="">
        <dc:format>image/svg+xml</dc:format>
        <dc:type
           rdf:resource="http://purl.org/dc/dcmitype/StillImage" />
        <dc:title></dc:title>
      </cc:Work>
    </rdf:RDF>
  </metadata>
  <defs
     id="defs8" />
  <sodipodi:namedview
     pagecolor="#ffffff"
     bordercolor="#666666"
     borderopacity="1"
     objecttolerance="10"
     gridtolerance="10"
     guidetolerance="10"
     inkscape:pageopacity="0"
     inkscape:pageshadow="2"
     inkscape:window-width="1366"
     inkscape:window-height="713"
     id="namedview6"
     showgrid="false"
     inkscape:snap-bbox="true"
     inkscape:bbox-paths="true"
     inkscape:bbox-nodes="true"
     inkscape:snap-bbox-midpoints="true"
     inkscape:zoom="3.4766084"
     inkscape:cx="-1.2706734"
     inkscape:cy="31.46109"
     inkscape:window-x="0"
     inkscape:window-y="30"
     inkscape:window-maximized="1"
     inkscape:current-layer="svg2" 
     fit-margin-top="0"
     fit-margin-left="0"
     fit-margin-right="0"
     fit-margin-bottom="0" />
  <path
     d="M 12 4 C 9.79 4 8.0195313 5.79 8.0195312 8 L 8 40 C 8 42.21 9.7704686 44 11.980469 44 L 36 44 C 38.21 44 40 42.21 40 40 L 40 16 L 28 4 L 12 4 z M 26 7 L 37 18 L 26 18 L 26 7 z M 21.755859 22.255859 C 25.345859 22.255859 28.255859 25.165859 28.255859 28.755859 C 28.255859 30.370859 27.665547 31.845469 26.685547 32.980469 L 26.960938 33.255859 L 27.755859 33.255859 L 32.744141 38.255859 L 31.255859 39.744141 L 26.255859 34.755859 L 26.255859 33.964844 L 25.980469 33.689453 C 24.845469 34.664453 23.370859 35.255859 21.755859 35.255859 C 18.165859 35.255859 15.255859 32.345859 15.255859 28.755859 C 15.255859 25.165859 18.165859 22.255859 21.755859 22.255859 z M 21.755859 24.255859 C 19.270859 24.255859 17.255859 26.270859 17.255859 28.755859 C 17.255859 31.240859 19.270859 33.255859 21.755859 33.255859 C 24.240859 33.255859 26.255859 31.240859 26.255859 28.755859 C 26.255859 26.270859 24.240859 24.255859 21.755859 24.255859 z "
     id="path4206" />
</svg>
