<?xml version="1.0" encoding="UTF-8" standalone="no"?>
<svg
   xmlns:dc="http://purl.org/dc/elements/1.1/"
   xmlns:cc="http://creativecommons.org/ns#"
   xmlns:rdf="http://www.w3.org/1999/02/22-rdf-syntax-ns#"
   xmlns:svg="http://www.w3.org/2000/svg"
   xmlns="http://www.w3.org/2000/svg"
   xmlns:sodipodi="http://sodipodi.sourceforge.net/DTD/sodipodi-0.dtd"
   xmlns:inkscape="http://www.inkscape.org/namespaces/inkscape"
   width="48"
   height="48"
   viewBox="0 0 48 48"
   id="svg2"
   version="1.1"
   inkscape:version="0.91 r13725"
   sodipodi:docname="address-book-new.svg"
   style="fill:#673AB7">
  <metadata
     id="metadata10">
    <rdf:RDF>
      <cc:Work
         rdf:about="">
        <dc:format>image/svg+xml</dc:format>
        <dc:type
           rdf:resource="http://purl.org/dc/dcmitype/StillImage" />
        <dc:title></dc:title>
      </cc:Work>
    </rdf:RDF>
  </metadata>
  <defs
     id="defs8" />
  <sodipodi:namedview
     pagecolor="#ffffff"
     bordercolor="#666666"
     borderopacity="1"
     objecttolerance="10"
     gridtolerance="10"
     guidetolerance="10"
     inkscape:pageopacity="0"
     inkscape:pageshadow="2"
     inkscape:window-width="527"
     inkscape:window-height="395"
     id="namedview6"
     showgrid="false"
     fit-margin-top="0"
     fit-margin-left="0"
     fit-margin-right="0"
     fit-margin-bottom="0"
     inkscape:zoom="0.01"
     inkscape:cx="-2218.003443723141"
     inkscape:cy="6432.795576772503"
     inkscape:window-x="87"
     inkscape:window-y="113"
     inkscape:window-maximized="0"
     inkscape:current-layer="svg2" />
  <path
     d="m 16,21 -6,0 0,-6 -4,0 0,6 -6,0 0,4 6,0 0,6 4,0 0,-6 6,0 0,-4 z m 20,2 c 3.31,0 5.98000000000001,-2.69 5.98000000000001,-6 C 41.98000000000001,13.69 39.31,11 36,11 c -0.64,0 -1.25,0.1 -1.83,0.29 1.13000000000001,1.62 1.81000000000001,3.59 1.81000000000001,5.71 0,2.12 -0.68,4.09000000000001 -1.81000000000001,5.71 C 34.75,22.9 35.36,23 36,23 Z m -10,0 c 3.31,0 5.98,-2.69 5.98,-6 0,-3.31 -2.67,-6 -5.98,-6 -3.31,0 -6,2.69 -6,6 0,3.31 2.69,6 6,6 z m 13.24,4.32 C 40.9,28.77 42,30.64 42,33 l 0,4 6,0 0,-4 c 0,-3.08 -4.75,-4.97 -8.76,-5.68 z M 26,27 c -4,0 -12,2 -12,6 l 0,4 24,0 0,-4 c 0,-4 -8,-6 -12,-6 z"
     id="path4"
     inkscape:connector-curvature="0" />
</svg>
