<svg fill="#bdbdbd" viewBox="0 0 48 48" xmlns="http://www.w3.org/2000/svg"><path d="m24 0c-2.61 0-4.810859 1.68-5.630859 4h-8.369141c-2.21 0-4 1.79-4 4v32c0 2.21 1.79 4 4 4h28c2.21 0 4-1.79 4-4v-32c0-2.21-1.79-4-4-4h-8.369141c-.82-2.32-3.020859-4-5.630859-4zm0 4c1.1 0 2 .89 2 2s-.9 2-2 2-2-.89-2-2 .9-2 2-2zm-14 4h4v6h20v-6h4v32h-28zm11.945313 8.671875-7.941407 21.328125h4.673828l1.464844-4.394531h7.705078l1.480469 4.394531h4.671875l-7.984375-21.328125zm2.035156 5.390625 2.679687 7.984375h-5.332031z" fill="#bdbdbd"/></svg>