<svg xmlns="http://www.w3.org/2000/svg" fill="#FFEB3B" viewBox="0 0 48 48"><g fill="#d70a53"><path d="m8 12h-4v28c0 2.21 1.79 4 4 4h28v-4h-28v-28"/><path d="m16 4c-2.21 0-4 1.79-4 4v24c0 2.21 1.79 4 4 4h24c2.21 0 4-1.79 4-4v-24c0-2.21-1.79-4-4-4h-24m13.451 3c-.295.067-.702.022-.98.123l-.168-.023c.378-.049.763-.067 1.148-.1m-1.684.178c-.198.111-.395.198-.58.328.752-.179.718.071 1.484-.029-.269.039-.595.147-.543.188.859.1.99-.265 1.785 0l-.049-.236c1.105.399 1.335.332 2.535.969.422.02.465-.259 1.102 0 .112.197-.026.232.756.697.087-.035-.155-.256-.348-.432 1.572.84 3.282 2.632 3.803 4.549-.488-.899-.051.459-.219.389.217.586.396 1.193.506 1.818-.144-.514-.46-1.753-1.012-2.553-.045.516-.71-.356-.346.779.278.402.056-.406.398.309.005.34.134.676.209 1.119-.118-.019-.26-.488-.346-.357.119.557.312.846.387.889-.038.093-.136-.086-.143.293.045.872.244.503.338.545-.095.429-.479.934-.289 1.672-.054-.224-.161-.448-.242-.66-.075.63.141.754-.15 1.518.21-.689.186-1.311-.012-1.012.087.979-.775 1.731-.682 2.35l-.25-.346c-.679.984-.017.542-.479 1.287.169-.293-.088-.119.133-.451-.146.008-.654.623-1.117.984-1.824 1.462-4 1.653-6.109.865-.082.067.378.426.715.6.802.297 1.711.31 2.426.283-1.545.646-4.494-.657-5.459-2.385.218.048.966 1.215 1.525 1.404-.331-.265-.587-.602-.824-.949.447.514.99.933 1.584 1.211-.019-.072.023-.115.033-.164.011-.049-.01-.104-.15-.199-1.787-1.369-2.843-2.532-2.477-5.227.272-.206.345-1.329.971-1.723.381-.842 1.524-1.617 2.744-1.637 1.246-.069 2.296.665 2.824 1.355-.962-.896-2.535-1.168-3.877-.504-1.373.618-2.187 2.13-2.068 3.635.051-.075.097-.029.121-.215-.042 2.925 3.151 5.07 5.451 3.988l.027.061c.932-.254.812-.464 1.422-.883-.048.098-.41.349-.193.354.297-.079 1.222-.941 1.678-1.346.209-.451-.11-.244.182-.811l.355-.18c.198-.572.416-.894.393-1.559l-.207.436c.306-.927.129-1.936.172-2.809l-.084-.023c-.075-2.196-1.973-4.529-3.662-5.318-1.456-.673-3.697-.788-4.732-.281.143-.126.71-.18.539-.277-1.621.161-1.259.565-2.502.883-.341.329.994-.263.275.164-.667.184-.977-.116-1.965.906.088.142.627-.42.178.145-.928-.115-2.934 2.123-3.359 2.865l.223.039c-.365.915-.845 1.498-.91 2.047-.094 1.348-.566 3.808.088 4.564l-.063.631c.09.179.158.361.27.529l-.146.012c.688 2.17.738.039 1.646 2.293-.132-.044-.263-.092-.455-.352-.023.198.279.79.639 1.254l-.152.174c.2.364.385.443.523.57-.747-.408.692 1.345.822 1.568l.115-.205c-.017.294.212.674.639 1.201l.355-.014c.146.289.681.811 1.01.836l-.215.283c.815.258.396.343 1.398.697l-.203-.357c.511.443.669.83 1.391 1.17 1 .349 1.133.21 2.16.504-.87-.025-1.894-.016-2.582-.262-4.694-1.272-8.988-6.777-8.674-12.447-.072-1.148.115-2.583-.076-2.869.268-.874.58-1.939 1.205-3.207-.045-.085.102.249.42-.293.193-.424.351-.889.594-1.301l.125-.029c.125-.726 1.695-1.842 2.162-2.402l.031.215c1.019-.956 2.837-1.596 3.859-2.053-.269.297.601-.03 1.229-.068m.619.143c.735.021.682.07.441.123l-.01.02-.145.014.154-.033c.036-.053-.221-.084-.441-.123m-9.709 5.01c-.004.247.414-.244.113.434-.561.392-.049.161-.113-.434m-.457 1.891c-.049.23-.072.467-.201.863.038-.311-.156-.407.201-.863m14.699 2.756c.051-.001.087.127.063.498-.074.299-.134-.185-.211-.225.033-.142.097-.272.148-.273m4.512 1.252c-.11.847-.373 1.681-.779 2.445.368-.724.608-1.504.719-2.293l.061-.152m-4.777.277c-.063.384-.243.755-.488 1.094.03-.292-.685.128.145-.916-.072.294-.771 1.068 0 .582.14-.249.289-.486.344-.76m-1.682 1.594c-.12.114-.256.233-.404.35-.539-.083-1.03-.291-.617-.297.344.031.686.029 1.021-.053m-5.207.055c.095.19.181.38.324.539l.127.375c-.173-.292-.36-.58-.451-.914m-.316.564c.34.657.526.858.775 1.344-.346-.288-.561-.686-.832-1.055l.057-.289"/></g></svg>