<?xml version="1.0" encoding="UTF-8" standalone="no"?>
<svg
   xmlns:dc="http://purl.org/dc/elements/1.1/"
   xmlns:cc="http://creativecommons.org/ns#"
   xmlns:rdf="http://www.w3.org/1999/02/22-rdf-syntax-ns#"
   xmlns:svg="http://www.w3.org/2000/svg"
   xmlns="http://www.w3.org/2000/svg"
   xmlns:sodipodi="http://sodipodi.sourceforge.net/DTD/sodipodi-0.dtd"
   xmlns:inkscape="http://www.inkscape.org/namespaces/inkscape"
   width="48"
   height="48"
   viewBox="0 0 48 48"
   id="svg2"
   version="1.1"
   inkscape:version="0.91 r13725"
   sodipodi:docname="help-contents.svg"
   style="fill:#E91E63">
  <metadata
     id="metadata10">
    <rdf:RDF>
      <cc:Work
         rdf:about="">
        <dc:format>image/svg+xml</dc:format>
        <dc:type
           rdf:resource="http://purl.org/dc/dcmitype/StillImage" />
        <dc:title />
      </cc:Work>
    </rdf:RDF>
  </metadata>
  <defs
     id="defs8" />
  <sodipodi:namedview
     pagecolor="#ffffff"
     bordercolor="#666666"
     borderopacity="1"
     objecttolerance="10"
     gridtolerance="10"
     guidetolerance="10"
     inkscape:pageopacity="0"
     inkscape:pageshadow="2"
     inkscape:window-width="668"
     inkscape:window-height="480"
     id="namedview6"
     showgrid="false"
     fit-margin-top="0"
     fit-margin-left="0"
     fit-margin-right="0"
     fit-margin-bottom="0"
     inkscape:zoom="6.549153645833334"
     inkscape:cx="20"
     inkscape:cy="20"
     inkscape:window-x="0"
     inkscape:window-y="30"
     inkscape:window-maximized="0"
     inkscape:current-layer="svg2" />
  <path
     d="M 24,4 C 12.95,4 4,12.95 4,24 4,35.05 12.95,44 24,44 35.05,44 44,35.05 44,24 44,12.95 35.05,4 24,4 Z m 2,34 -4,0 0,-4 4,0 0,4 z m 4.13,-15.49 -1.79,1.84 C 26.9,25.79 26,27 26,30 l -4,0 0,-1 c 0,-2.21 0.9,-4.21 2.34,-5.66 l 2.49,-2.52 C 27.55,20.1 28,19.1 28,18 c 0,-2.21 -1.79,-4 -4,-4 -2.21,0 -4,1.79 -4,4 l -4,0 c 0,-4.42 3.58,-8 8,-8 4.42,0 8,3.58 8,8 0,1.76 -0.71,3.35 -1.87,4.51 z"
     id="path4"
     inkscape:connector-curvature="0" />
</svg>
