<?xml version="1.0" encoding="UTF-8" standalone="no"?>
<!-- Created with Inkscape (http://www.inkscape.org/) -->

<svg
   xmlns:dc="http://purl.org/dc/elements/1.1/"
   xmlns:cc="http://creativecommons.org/ns#"
   xmlns:rdf="http://www.w3.org/1999/02/22-rdf-syntax-ns#"
   xmlns:svg="http://www.w3.org/2000/svg"
   xmlns="http://www.w3.org/2000/svg"
   xmlns:sodipodi="http://sodipodi.sourceforge.net/DTD/sodipodi-0.dtd"
   xmlns:inkscape="http://www.inkscape.org/namespaces/inkscape"
   id="svg2"
   version="1.1"
   inkscape:version="0.91 r13725"
   xml:space="preserve"
   width="40.72375106811523"
   height="39.71858978271484"
   viewBox="0 0 40.72375106811523 39.71858978271484"
   sodipodi:docname="github.svg"><metadata
     id="metadata8"><rdf:RDF><cc:Work
         rdf:about=""><dc:format>image/svg+xml</dc:format><dc:type
           rdf:resource="http://purl.org/dc/dcmitype/StillImage" /><dc:title></dc:title></cc:Work></rdf:RDF></metadata><defs
     id="defs6" /><sodipodi:namedview
     pagecolor="#ffffff"
     bordercolor="#666666"
     borderopacity="1"
     objecttolerance="10"
     gridtolerance="10"
     guidetolerance="10"
     inkscape:pageopacity="0"
     inkscape:pageshadow="2"
     inkscape:window-width="1366"
     inkscape:window-height="713"
     id="namedview4"
     showgrid="false"
     inkscape:zoom="5.656854265907148"
     inkscape:cx="5.189476861112524"
     inkscape:cy="-10.29864620893808"
     inkscape:window-x="0"
     inkscape:window-y="31"
     inkscape:window-maximized="1"
     inkscape:current-layer="g10"
     inkscape:snap-bbox="true"
     inkscape:bbox-nodes="true"
     inkscape:snap-page="true"
     inkscape:snap-intersection-paths="true"
     inkscape:object-nodes="true"
     inkscape:snap-smooth-nodes="true"
     inkscape:snap-midpoints="true"
     inkscape:object-paths="false"
     inkscape:bbox-paths="false"
     inkscape:snap-nodes="false"
     fit-margin-top="0"
     fit-margin-left="0"
     fit-margin-right="0"
     fit-margin-bottom="0" /><g
     id="g10"
     inkscape:groupmode="layer"
     inkscape:label="GitHub-Mark"
     transform="matrix(1.25,0,0,-1.25,-437.940001723855,309.5155340751906)"><path
       inkscape:connector-curvature="0"
       id="path24"
       style="fill:#1b1817;fill-opacity:1;fill-rule:evenodd;stroke:none"
       d="m 366.6400037242339,247.6124235048953 c -8.9949999999999,0 -16.2879999999999,-7.293 -16.2879999999999,-16.29 0,-7.197 4.6669999999999,-13.302 11.1399999999999,-15.457 0.815,-0.149 1.112,0.354 1.112,0.786 0,0.386 -0.014,1.411 -0.022,2.77 -4.531,-0.984 -5.4869999999999,2.184 -5.4869999999999,2.184 -0.741,1.881 -1.8090000000001,2.382 -1.8090000000001,2.382 -1.479,1.011 0.1120000000001,0.991 0.1120000000001,0.991 1.6349999999999,-0.116 2.495,-1.679 2.495,-1.679 1.4529999999999,-2.489 3.8129999999999,-1.77 4.7409999999999,-1.354 0.1480000000001,1.053 0.568,1.771 1.034,2.178 -3.6169999999999,0.411 -7.42,1.8090000000001 -7.42,8.051 0,1.778 0.6350000000001,3.232 1.677,4.371 -0.1679999999999,0.412 -0.7269999999999,2.068 0.159,4.3110000000001 0,0 1.368,0.438 4.48,-1.67 1.299,0.361 2.693,0.542 4.078,0.548 1.3830000000001,-0.006 2.7770000000001,-0.187 4.0780000000001,-0.548 3.11,2.108 4.4749999999999,1.67 4.4749999999999,1.67 0.889,-2.2430000000001 0.3300000000001,-3.8990000000001 0.1620000000001,-4.3110000000001 1.0439999999999,-1.139 1.675,-2.593 1.675,-4.3709999999999 0,-6.258 -3.8090000000001,-7.635 -7.4380000000001,-8.0380000000001 0.5850000000001,-0.503 1.1060000000001,-1.4969999999999 1.1060000000001,-3.017 0,-2.1769999999999 -0.02,-3.934 -0.02,-4.468 0,-0.436 0.2929999999999,-0.943 1.1199999999999,-0.784 6.4680000000001,2.159 11.1310000000001,8.2600000000001 11.1310000000001,15.455 0,8.997 -7.2940000000001,16.29 -16.291,16.29" /></g></svg>