<?xml version="1.0" encoding="UTF-8" standalone="no"?>
<!-- Created with Inkscape (http://www.inkscape.org/) -->

<svg
   xmlns:dc="http://purl.org/dc/elements/1.1/"
   xmlns:cc="http://creativecommons.org/ns#"
   xmlns:rdf="http://www.w3.org/1999/02/22-rdf-syntax-ns#"
   xmlns:svg="http://www.w3.org/2000/svg"
   xmlns="http://www.w3.org/2000/svg"
   xmlns:sodipodi="http://sodipodi.sourceforge.net/DTD/sodipodi-0.dtd"
   xmlns:inkscape="http://www.inkscape.org/namespaces/inkscape"
   width="48"
   height="48"
   viewBox="0 0 47.99999927917836 47.99999927799897"
   id="svg5027"
   version="1.1"
   inkscape:version="0.91 r13725"
   sodipodi:docname="AdobeReader.svg">
  <defs
     id="defs5029" />
  <sodipodi:namedview
     id="base"
     pagecolor="#ffffff"
     bordercolor="#666666"
     borderopacity="1.0"
     inkscape:pageopacity="0.0"
     inkscape:pageshadow="2"
     inkscape:zoom="1.713609313964843"
     inkscape:cx="-70.87834351856742"
     inkscape:cy="-38.14138879514482"
     inkscape:document-units="px"
     inkscape:current-layer="layer1"
     showgrid="false"
     fit-margin-top="0"
     fit-margin-left="0"
     fit-margin-right="0"
     fit-margin-bottom="0"
     inkscape:window-width="1366"
     inkscape:window-height="713"
     inkscape:window-x="0"
     inkscape:window-y="30"
     inkscape:window-maximized="1"
     units="px" />
  <metadata
     id="metadata5032">
    <rdf:RDF>
      <cc:Work
         rdf:about="">
        <dc:format>image/svg+xml</dc:format>
        <dc:type
           rdf:resource="http://purl.org/dc/dcmitype/StillImage" />
        <dc:title></dc:title>
      </cc:Work>
    </rdf:RDF>
  </metadata>
  <g
     inkscape:label="Layer 1"
     inkscape:groupmode="layer"
     id="layer1"
     transform="translate(-136.3981599795554,-399.5357294153434)">
    <path
       inkscape:connector-curvature="0"
       id="path4464"
       style="opacity:1;fill:#d41818;fill-opacity:1;fill-rule:nonzero;stroke:none"
       d="m 159.0173006045554,420.5962762903434 c 0.033154545505,-0.010555151531 0.050775177968,0.062673041492 0.091796875,0.177734375 0.050499272804,0.1416464850635 0.3348232722867,0.7205238589884 0.625,1.287109375 1.1950499359782,2.3333882227486 2.5189441148407,3.8947562651074 4.376953125,5.173828125 0.1261995434223,-0.028521057156 0.3745182439217,-0.073323734085 0.384765625,-0.083984375 -2.800628148e-4,3.386411877e-4 3.090823544e-4,0.00163157698 0,0.001953125 -0.010197735125,0.010608992822 -0.2576590486478,0.05566174787 -0.3828125,0.083984375 -7.506010749e-4,-5.178570568e-4 -0.00120161155,-0.00143577568 -0.001953125,-0.001953125 -0.1665910499099,0.03764952493 -0.2439480681422,0.064343677387 -0.5078125,0.111328125 -0.7913528525377,0.140911030205 -1.6294223609234,0.3220382393867 -2.47265625,0.52734375 -0.836913929292,0.2037667648543 -1.6736531030973,0.430643209509 -2.4765625,0.671875 -0.2274225564919,0.068178218637 -0.4182846533679,0.1410849813718 -0.638671875,0.2109375 -0.5304764616153,0.1684785291248 -1.0666734596118,0.3373675568002 -1.537109375,0.509765625 -0.6514434344119,0.2382758702438 -1.2282269378215,0.4741148614101 -1.703125,0.701171875 -0.00877713655,0.00420037769 -0.022545323752,0.00947907743 -0.03125,0.013671875 -2.743909075e-4,5.639240775e-4 2.750171793e-4,0.00138967914 0,0.001953125 -0.048505803827,0.023363880577 -0.1100568799707,0.047199978752 -0.15625,0.0703125 -5.36828618e-4,2.686385482e-4 5.335401839e-4,-0.00219384906 0,-0.001953125 0.046193120029,-0.023112521248 0.1077441961731,-0.046948619423 0.15625,-0.0703125 0.077244992085,-0.1587527491279 0.09533831195,-0.2241544615843 0.216796875,-0.44140625 1.8053093360738,-3.2291335200533 3.0187893019915,-5.838777246737 3.703125,-7.98828125 0.2170933336629,-0.6818912131563 0.2982559279464,-0.9374894583065 0.353515625,-0.955078125 z m -12.619140625,-15.060546875 c -2.21,0 -4,1.79 -4,4 l 0,28 c 0,2.21 1.79,4 4,4 l 28,0 c 2.21,0 4,-1.79 4,-4 l 0,-28 c 0,-2.21 -1.79,-4 -4,-4 l -28,0 z m 12.38671875,3.998046875 c 0.4854791688548,0 0.7919914868052,0.067404139653 0.97265625,0.255859375 0.030641327285,0.031734797695 0.052471304796,0.072438237314 0.076171875,0.111328125 0.010831555612,0.017962249184 0.025715327795,0.031220276807 0.03515625,0.05078125 0,0 0.001953125,0.001953125 0.001953125,0.001953125 0.029825362552,0.062291620201 0.053450575898,0.1333995580166 0.0703125,0.212890625 0,0 0,0.001953125 0,0.001953125 0.033824214868,0.1604528294481 0.042311631761,0.3573891493363 0.033203125,0.59765625 0,0 0,0.001953125 0,0.001953125 -0.00327055875,0.083187138861 -0.00970104642,0.1108398363109 -0.013671875,0.173828125 0.00298874449,0.085304746952 0.017452111678,0.1483305844719 0.013671875,0.248046875 -0.016619272753,0.43839854612 -0.03613038245,0.57421875 -0.119140625,0.57421875 -0.084804788007,-0.7126288495667 -0.4110532642634,-1.1759523633817 -0.99609375,-1.34375 -0.059043090999,0.022569272761 -0.1780696741036,0.2371656435819 -0.26953125,0.47265625 -0.1128884927775,0.2906640110636 -0.1834526756844,0.8627544677557 -0.20703125,1.517578125 -0.00118842854,0.2696408000456 0.00510105824,0.5456709744979 0.017578125,0.81640625 0.014259844857,0.2577055104553 0.032983479085,0.5128617817456 0.0625,0.751953125 0.00305997216,0.025098910151 0.00258156901,0.053328501155 0.005859375,0.078125 0,0 0,0.001953125 0,0.001953125 0.077357277915,0.5849063178693 0.1655384612406,1.1278885131868 0.2421875,1.525390625 0,0 0,0.001953125 0,0.001953125 0.07646861794,0.396066601375 0.1423137801892,0.6484375 0.17578125,0.6484375 0.1624759396405,-0.6455544252223 0.3080674338343,-1.3255160857435 0.453125,-2.0234375 0.1450778108263,-0.6977904934835 0.2895812043031,-1.4118494572478 0.44921875,-2.126953125 7.68465692e-4,4.73106539e-4 0.0012002866,0.00717640721 0.001953125,0.0078125 0.046789688126,0.039533827084 0.058305962652,0.4170593785354 0.052734375,0.935546875 4.61636387e-5,0.0021147615 -4.52587999e-5,0.0017835666 0,0.00390625 -3.03042544e-5,0.00277653095 3.15742946e-5,0.0069796768 0,0.009765625 0.024592413228,1.2017128443668 -0.1601919647816,4.1898573883092 -0.361328125,5.228515625 -0.00656526209,0.033902534103 -0.00138299874,0.051136753406 -0.005859375,0.080078125 0,0 0,0.001953125 0,0.001953125 0.02674319265,0.1288011080752 0.069657233086,0.2676226053085 0.1640625,0.5234375 0,0 0,0.001953125 0,0.001953125 0.1786736810113,0.4840728823491 0.3610635107415,0.9391993609729 0.546875,1.369140625 0,0 0,0.001953125 0,0.001953125 0.1858087318918,0.4298388033876 0.3763818772329,0.834824915426 0.57421875,1.216796875 0,0 0,0.001953125 0,0.001953125 0.1978469949798,0.3818925399472 0.4043757006751,0.7397926670659 0.619140625,1.080078125 0,0 0,0.001953125 0,0.001953125 0.2147920036533,0.3402344422199 0.4391803312525,0.6619148114897 0.67578125,0.966796875 0,0 0,0.001953125 0,0.001953125 0.2366483444733,0.3048612948033 0.4866483928773,0.59142774887 0.75,0.8671875 0.7910737712617,0.8283462123965 1.7137143960267,1.5401337262426 2.833984375,2.21875 l 0.521484375,0.31640625 1.44140625,-0.09375 c 1.6239036994348,-0.1067126668287 3.7016422713967,-0.061456894187 4.578125,0.1015625 0.8128541374736,0.1511869030637 1.4371476655362,0.3897803151519 1.80859375,0.68359375 0.1232526850327,0.097492735173 0.2205528860497,0.1996509431147 0.28515625,0.30859375 0,0 0,0.001953125 0,0.001953125 0.00115067398,0.00194043434 8.17213744e-4,0.00582443697 0.001953125,0.0078125 0.048139687622,0.084253706378 0.078217212747,0.2097258003837 0.09765625,0.337890625 0.00340175661,0.024011216528 0.00556328369,0.038701828478 0.0078125,0.0625 0.015583452027,0.138850988857 0.012793234273,0.2575598724219 -0.01171875,0.33203125 0.04085745389,0.2410586805614 0.031470962561,0.4980465929608 -0.05078125,0.498046875 -0.3779987626667,-1.2979190179846 -3.5573733378025,-1.360032303191 -5.724609375,-1.068359375 0.6008957638732,0.2464054792775 1.3767129255486,0.5464634802149 1.892578125,0.708984375 1.1925335775678,0.351904849019 2.7783463658277,0.9600559060518 3.830078125,0.466796875 l 0,0.001953125 c -2.9542959e-6,0.052154928112 -0.1351235696864,0.1580832175994 -0.30078125,0.26171875 0,0 -0.001953125,0.001953125 -0.001953125,0.001953125 -0.1668590002533,0.104158409249 -0.3649554126827,0.2068063067497 -0.494140625,0.251953125 -0.099803508125,0.034879686824 -0.2515897067473,0.057979305018 -0.431640625,0.072265625 0.4461601570128,0.034707050357 0.8698224016716,0.00416354266 1.228515625,-0.1640625 -5.9393939e-6,0.1048536365228 -0.5385045753654,0.4233782384993 -0.796875,0.513671875 -0.4100510915316,0.1433061214297 -1.6311331917591,0.1093891290666 -2.568359375,-0.07421875 -1.385731456649,-0.2714723034423 -3.2760135282434,-0.9326428247243 -4.6328125,-1.61328125 l -0.521484375,-0.259765625 -1.03125,0.130859375 c -3.0962646107608,0.3747413945083 -6.2545767119165,1.0140017753119 -8.884765625,1.806640625 -0.6580780616051,0.1983197578769 -1.2467632233999,0.3613285492425 -1.302734375,0.361328125 -0.1588410305442,0 -0.353931589964,0.2581741954049 -0.9765625,1.2890625 -1.9202238817028,3.1793130351293 -3.6468911457474,5.2276047868961 -4.951171875,5.875 -0.6709720616246,0.333044303536 -1.0709157866819,0.3167036862144 -1.859375,-0.083984375 -0.3471880382193,-0.1764383343664 -0.4456131605978,-0.372729262571 -0.357421875,-0.77734375 0,0 0,-0.001953125 0,-0.001953125 -0.030146360463,-0.089112282061 -0.039211384749,-0.1932836985497 -0.01953125,-0.322265625 0.018921792639,-0.1240118168719 0.055853471979,-0.2686771882875 0.1171875,-0.4453125 0.00323232636,-0.00935631983 0.00445302645,-0.013902232572 0.0078125,-0.0234375 0,0 0,-0.001953125 0,-0.001953125 0.1693993183657,-0.4801115189886 0.5293064599123,-1.0411771886499 1.009765625,-1.607421875 0,0 0,-0.001953125 0,-0.001953125 0.2402107672655,-0.2829947810371 0.5114986819574,-0.5664553572988 0.8046875,-0.841796875 0.293900505365,-0.276009882439 0.6088723090932,-0.5441864121271 0.939453125,-0.79296875 0.9838039739883,-0.7403722798986 1.8680084091268,-1.2334870508871 1.8359375,-1.0859375 -0.010183136938,0.048563128808 -0.1232376566996,0.1685105169019 -0.365234375,0.373046875 0,0 0,0.001953125 0,0.001953125 -0.1861415354633,0.1572230426419 -0.3677709320056,0.3244283661305 -0.548828125,0.4921875 0.8248080348274,-0.5312309742745 1.2783863545651,-0.6865284072918 0.548828125,-0.0703125 -1.7452658259738,1.4741256039157 -3.3142040683664,3.4803428822083 -3.568359375,4.50390625 0.035640358268,0.015523990035 0.092321525914,0.011047411532 0.208984375,-0.0078125 0.5793314554249,-0.093649818324 1.2539931889926,-0.5464829369132 2.021484375,-1.359375 0.2555214065951,-0.270636754085 0.5226086271438,-0.5814066021897 0.798828125,-0.931640625 0,0 0,-0.001953125 0,-0.001953125 0.5528890193212,-0.7011678282752 1.1478768877331,-1.5604374801321 1.783203125,-2.580078125 0,0 0,-0.001953125 0,-0.001953125 0.3175595948991,-0.5096993472899 0.6463407871341,-1.0592761069876 0.984375,-1.6484375 0,0 0,-0.001953125 0,-0.001953125 0.3380795151728,-0.5892786324581 0.6864435469124,-1.2180280460107 1.044921875,-1.88671875 0,0 0,-0.001953125 0,-0.001953125 0.4731790318049,-0.8826920226643 0.9100030661168,-1.7278583960136 1.310546875,-2.544921875 0,0 0,-0.001953125 0,-0.001953125 0.8011898691581,-1.6344365376184 1.4641511174482,-3.1518138276985 2.013671875,-4.611328125 0,0 0,-0.001953125 0,-0.001953125 0.2745981766312,-0.7294165712946 0.5207081408184,-1.4447095839019 0.7421875,-2.15234375 l 0,-0.001953125 0.21875,-0.681640625 -0.23828125,-0.923828125 c -0.4715959401098,-1.8563915179695 -0.675443465906,-3.2822733916639 -0.677734375,-4.78125 -1.06727605e-4,-0.069377734539 0.00616267463,-0.1257845674346 0.0078125,-0.19140625 -7.16610016e-5,-0.00454844786 6.79849153e-5,-0.0091225577 0,-0.013671875 0,0 0,-0.001953125 0,-0.001953125 -0.00105542407,-0.07178665942 -0.00770236155,-0.1427784907618 -0.0078125,-0.21484375 l 0,-0.001953125 c -5.564732805e-4,-0.3617326137991 0.012894066349,-0.6960468209786 0.0390625,-0.998046875 0,0 0,-0.001953125 0,-0.001953125 0.026208096731,-0.301750891994 0.065951498147,-0.5714602856013 0.1171875,-0.806640625 0,0 0,-0.001953125 0,-0.001953125 0.051262321554,-0.2348720669807 0.1148657491431,-0.4341998017642 0.189453125,-0.595703125 0,0 0,-0.001953125 0,-0.001953125 0.074609459861,-0.1611775645548 0.161576588851,-0.2822547018881 0.2578125,-0.36328125 0,0 0,-0.001953125 0,-0.001953125 0.1941999396887,-0.1627796972168 0.2906801659338,-0.185546875 0.7734375,-0.185546875 z m -0.314453125,1.474609375 c -0.00976794525,0.067777635217 -0.021214455287,0.1306006584125 -0.029296875,0.205078125 0.00875468841,-0.074577667768 0.01886875081,-0.137321864983 0.029296875,-0.205078125 z m -0.884765625,3.818359375 c 0.023253508305,0.158404152937 0.055792335344,0.3274401442979 0.083984375,0.490234375 -0.027800720857,-0.1626318768647 -0.061126523638,-0.3319872781927 -0.083984375,-0.490234375 z m 2.150390625,0.5078125 c -0.016834737633,0.2534170053415 -0.028953427628,0.4636118987046 -0.048828125,0.70703125 0.019046684813,-0.2306734407192 0.032436546046,-0.4670712900136 0.048828125,-0.70703125 z m -0.095703125,1.23828125 c -0.048531583906,0.5070602411065 -0.1008076424614,0.9624561653652 -0.15625,1.25390625 0.05482152799,-0.2882740273216 0.1074057749004,-0.7500610096812 0.15625,-1.25390625 z m -0.73828125,3.828125 c -0.036647649539,0.1020719266584 -0.1008831528951,0.305389581417 -0.16015625,0.490234375 0.059829718953,-0.1865022621526 0.12337785618,-0.3882680699705 0.16015625,-0.490234375 z m 5.5703125,6.68359375 c 0.019192948464,0.022849691956 0.018440315417,0.036920575094 0.017578125,0.05078125 0.00160774049,-0.013655728217 0.00151471212,-0.027803040526 -0.017578125,-0.05078125 z m 3.400390625,0.69921875 c 0.033456974546,0.032629937424 0.4073255992333,0.1800334930494 0.720703125,0.30859375 -0.3127810169917,-0.128238705376 -0.6797594036352,-0.2748423391083 -0.716796875,-0.30859375 -0.00116042138,2.241945915e-4 -0.00274695132,-2.243880524e-4 -0.00390625,0 z m -5.197265625,0.48046875 c -0.2268418741545,0.035873370982 -0.4519149509886,0.074865313555 -0.677734375,0.11328125 0.2266047529188,-0.03846292549 0.4501301349581,-0.077368709654 0.677734375,-0.11328125 z m -2.087890625,0.37109375 c -0.2470764582217,0.048320354615 -0.4942256291329,0.097332434221 -0.73828125,0.1484375 0.2451116189274,-0.051235095659 0.4901000432001,-0.1000132511227 0.73828125,-0.1484375 z m -2.248046875,0.48828125 c -0.1549104222029,0.037164352004 -0.3159278469484,0.069214565779 -0.46875,0.107421875 0.1530152539332,-0.038244017964 0.3136023205384,-0.070232021828 0.46875,-0.107421875 z m -0.541015625,0.12890625 c -0.6603325037371,0.1661724325463 -1.3052444090558,0.3393742976877 -1.916015625,0.5234375 -0.6077972023499,0.1831670147372 -1.0787782485939,0.3116535022204 -1.203125,0.333984375 -0.041287653785,0.089600085764 -0.1464842287456,0.28348037053 -0.146484375,0.30078125 0,0.050184909167 0.024218409045,0.081653522751 0.0546875,0.06640625 0.7821316246473,-0.3913360643796 1.9443781968051,-0.8155875121941 3.2109375,-1.224609375 z m 14.189453125,0.587890625 c 0.044015025394,0.00331789489 0.087320560875,0.00511240118 0.130859375,0.0078125 -0.045753686188,-0.00276173105 -0.084578189736,-0.00436466486 -0.130859375,-0.0078125 z m -21.79296875,2.783203125 c -0.350274848803,0.3257193734954 -0.6788744811891,0.6699005952302 -0.994140625,1.013671875 0.31718232065,-0.3466944219681 0.6412062140804,-0.6855315402545 0.994140625,-1.013671875 z m -1.580078125,1.69921875 c -0.173444793285,0.2111707965368 -0.3596609181561,0.4243007494275 -0.5078125,0.626953125 0.1486320724032,-0.2038362342195 0.3336477758058,-0.4145486806915 0.5078125,-0.626953125 z m -0.6953125,0.892578125 c -0.064220191493,0.093419290503 -0.1283443835102,0.1875633529237 -0.185546875,0.27734375 0.057451365807,-0.090419366161 0.1209995602135,-0.1832389642577 0.185546875,-0.27734375 z m -0.357421875,0.568359375 c -0.048912883553,0.085262934521 -0.1018812786602,0.1718421383699 -0.142578125,0.251953125 0.040685308697,-0.080295648188 0.093668221484,-0.1664821955801 0.142578125,-0.251953125 z m -0.271484375,0.546875 c -0.022927285881,0.057001940524 -0.055186895959,0.1190401176772 -0.072265625,0.171875 0.01706334157,-0.052775912393 0.049396422314,-0.1149443394041 0.072265625,-0.171875 z m 1.29296875,0.998046875 c -0.1121517196486,0.052715516264 -0.2192142862159,0.095680131278 -0.3203125,0.126953125 0.1014817382171,-0.032000185144 0.2075423873707,-0.073812339381 0.3203125,-0.126953125 z m -1.419921875,0.048828125 c 0.012218667954,0.074236203032 0.060099718051,0.099197641354 0.20703125,0.078125 -0.063764813732,-0.019399083539 -0.1382877751886,-0.050862004713 -0.20703125,-0.078125 z m 0.31640625,0.099609375 c 0.076517333134,0.018318199839 0.154021335418,0.038592207467 0.2265625,0.044921875 -0.072797064692,-0.00682849298 -0.1498565080103,-0.026377108007 -0.2265625,-0.044921875 z m 0.615234375,0.01953125 c -0.06817049202,0.013353447803 -0.1377627045413,0.020478407297 -0.205078125,0.0234375 0.068093304959,-0.00346169231 0.136127125481,-0.00928544467 0.205078125,-0.0234375 z" />
  </g>
</svg>
