<?xml version="1.0" encoding="UTF-8" standalone="no"?>
<svg
   xmlns:dc="http://purl.org/dc/elements/1.1/"
   xmlns:cc="http://creativecommons.org/ns#"
   xmlns:rdf="http://www.w3.org/1999/02/22-rdf-syntax-ns#"
   xmlns:svg="http://www.w3.org/2000/svg"
   xmlns="http://www.w3.org/2000/svg"
   xmlns:sodipodi="http://sodipodi.sourceforge.net/DTD/sodipodi-0.dtd"
   xmlns:inkscape="http://www.inkscape.org/namespaces/inkscape"
   width="34"
   height="34"
   viewBox="0 0 34 34"
   id="svg2"
   version="1.1"
   inkscape:version="0.91 r13725"
   sodipodi:docname="chrome-app-list.svg"
   style="fill:#FFEB3B">
  <metadata
     id="metadata10">
    <rdf:RDF>
      <cc:Work
         rdf:about="">
        <dc:format>image/svg+xml</dc:format>
        <dc:type
           rdf:resource="http://purl.org/dc/dcmitype/StillImage" />
        <dc:title></dc:title>
      </cc:Work>
    </rdf:RDF>
  </metadata>
  <defs
     id="defs8" />
  <sodipodi:namedview
     pagecolor="#ffffff"
     bordercolor="#666666"
     borderopacity="1"
     objecttolerance="10"
     gridtolerance="10"
     guidetolerance="10"
     inkscape:pageopacity="0"
     inkscape:pageshadow="2"
     inkscape:window-width="1366"
     inkscape:window-height="713"
     id="namedview6"
     showgrid="false"
     inkscape:zoom="5.491911049139335"
     inkscape:cx="26.90671125068399"
     inkscape:cy="6.021823152966839"
     inkscape:window-x="0"
     inkscape:window-y="30"
     inkscape:window-maximized="1"
     inkscape:current-layer="svg2"
     fit-margin-top="0"
     fit-margin-left="0"
     fit-margin-right="0"
     fit-margin-bottom="0"
     inkscape:snap-bbox="true"
     inkscape:bbox-nodes="true"
     inkscape:snap-page="true" />
  <path
     style="fill:#d50f25;fill-opacity:1"
     d="m 4,3.999999999999987 0,6.000000000000009 6,0 0,-6.000000000000011 -6,0 z"
     id="path4167"
     inkscape:connector-curvature="0" />
  <path
     style="fill:#d50f25;fill-opacity:1"
     d="m 14,3.999999999999987 0,6.000000000000009 6,0 0,-6.000000000000011 -6,0 z"
     id="path4165"
     inkscape:connector-curvature="0" />
  <path
     style="fill:#d50f25;fill-opacity:1"
     d="m 24,3.999999999999987 0,6.000000000000009 6,0 0,-6.000000000000011 -6,0 z"
     id="path4163"
     inkscape:connector-curvature="0" />
  <path
     style="fill:#009925;fill-opacity:1"
     d="m 4,13.99999999999999 0,5.99999999999999 6,0 0,-5.99999999999999 -6,0 z"
     id="path4161"
     inkscape:connector-curvature="0" />
  <path
     style="fill:#3369e8;fill-opacity:1"
     d="m 14,13.99999999999999 0,5.99999999999999 6,0 0,-5.99999999999999 -6,0 z"
     id="path4159"
     inkscape:connector-curvature="0" />
  <path
     style="fill:#eeb211;fill-opacity:1"
     d="m 24,13.99999999999999 0,5.99999999999999 6,0 0,-5.99999999999999 -6,0 z"
     id="path4157"
     inkscape:connector-curvature="0" />
  <path
     style="fill:#009925;fill-opacity:1"
     d="m 4,23.99999999999998 0,6.00000000000003 6,0 0,-6.00000000000003 -6,0 z"
     id="path4155"
     inkscape:connector-curvature="0" />
  <path
     style="fill:#eeb211;fill-opacity:1"
     d="m 14,23.99999999999998 0,6.00000000000003 6,0 0,-6.00000000000003 -6,0 z"
     id="path4153"
     inkscape:connector-curvature="0" />
  <path
     style="fill:#eeb211;fill-opacity:1"
     d="m 24,23.99999999999998 0,6.00000000000003 6,0 0,-6.00000000000003 -6,0 z"
     id="path4151"
     inkscape:connector-curvature="0" />
</svg>
