<?xml version="1.0" encoding="UTF-8" standalone="no"?>
<svg
   xmlns:dc="http://purl.org/dc/elements/1.1/"
   xmlns:cc="http://creativecommons.org/ns#"
   xmlns:rdf="http://www.w3.org/1999/02/22-rdf-syntax-ns#"
   xmlns:svg="http://www.w3.org/2000/svg"
   xmlns="http://www.w3.org/2000/svg"
   xmlns:xlink="http://www.w3.org/1999/xlink"
   xmlns:sodipodi="http://sodipodi.sourceforge.net/DTD/sodipodi-0.dtd"
   xmlns:inkscape="http://www.inkscape.org/namespaces/inkscape"
   viewBox="0 0 256 256"
   id="svg2"
   version="1.1"
   inkscape:version="0.91 r13725"
   sodipodi:docname="google-chrome.svg">
  <metadata
     id="metadata59">
    <rdf:RDF>
      <cc:Work
         rdf:about="">
        <dc:format>image/svg+xml</dc:format>
        <dc:type
           rdf:resource="http://purl.org/dc/dcmitype/StillImage" />
        <dc:title />
      </cc:Work>
    </rdf:RDF>
  </metadata>
  <sodipodi:namedview
     pagecolor="#ffffff"
     bordercolor="#666666"
     borderopacity="1"
     objecttolerance="10"
     gridtolerance="10"
     guidetolerance="10"
     inkscape:pageopacity="0"
     inkscape:pageshadow="2"
     inkscape:window-width="691"
     inkscape:window-height="480"
     id="namedview57"
     showgrid="false"
     inkscape:zoom="1.22796630859375"
     inkscape:cx="-30.37288135593234"
     inkscape:cy="127.9999999999999"
     inkscape:window-x="0"
     inkscape:window-y="30"
     inkscape:window-maximized="0"
     inkscape:current-layer="svg2" />
  <defs
     id="defs4">
    <linearGradient
       id="5"
       gradientUnits="userSpaceOnUse"
       x1="164"
       y1="161"
       x2="109"
       y2="217"
       xlink:href="#4" />
    <linearGradient
       id="4"
       gradientUnits="userSpaceOnUse"
       y1="140"
       x2="0"
       y2="60">
      <stop
         offset="0%"
         stop-opacity=".15"
         id="stop8" />
      <stop
         offset="30%"
         stop-opacity=".06"
         id="stop10" />
      <stop
         offset="100%"
         stop-opacity=".03"
         id="stop12" />
    </linearGradient>
    <linearGradient
       id="6"
       gradientUnits="userSpaceOnUse"
       x1="139"
       y1="179"
       x2="147"
       y2="100"
       xlink:href="#4" />
    <linearGradient
       id="3"
       gradientUnits="userSpaceOnUse"
       x1="187"
       y1="220"
       x2="138"
       y2="102">
      <stop
         offset="0%"
         stop-color="#e4b022"
         id="stop16" />
      <stop
         offset="30%"
         stop-color="#fcd209"
         id="stop18" />
    </linearGradient>
    <linearGradient
       id="1"
       gradientUnits="userSpaceOnUse"
       y1="16"
       x2="0"
       y2="107">
      <stop
         offset="0%"
         stop-color="#f06b59"
         id="stop21" />
      <stop
         offset="100%"
         stop-color="#df2227"
         id="stop23" />
    </linearGradient>
    <linearGradient
       id="0"
       y1="87"
       x2="87"
       y2="169"
       x1="87"
       gradientUnits="userSpaceOnUse">
      <stop
         offset="0%"
         stop-color="#81b4e0"
         id="stop26" />
      <stop
         offset="100%"
         stop-color="#0c5a94"
         id="stop28" />
    </linearGradient>
    <linearGradient
       id="2"
       gradientUnits="userSpaceOnUse"
       x1="72"
       y1="225"
       x2="118"
       y2="149">
      <stop
         offset="0%"
         stop-color="#388b41"
         id="stop31" />
      <stop
         offset="100%"
         stop-color="#4cb749"
         id="stop33" />
    </linearGradient>
    <linearGradient
       inkscape:collect="always"
       xlink:href="#4"
       id="linearGradient4162"
       gradientUnits="userSpaceOnUse"
       y1="140"
       x2="0"
       y2="60" />
  </defs>
  <g
     id="g4161"
     transform="translate(0.2632004688413758,0.4166598731713976)">
    <circle
       id="circle35"
       r="110"
       cy="128"
       cx="128"
       style="fill:#ffffff" />
    <g
       id="g37"
       style="fill-opacity:0.1">
      <path
         id="path39"
         d="m 198,148 a 70,70 0 0 0 -140,0 l 20,0 a 50,50 0 0 1 100,0"
         inkscape:connector-curvature="0" />
      <circle
         id="circle41"
         r="38"
         cy="142"
         cx="133" />
    </g>
    <circle
       id="circle43"
       r="41"
       cy="128"
       cx="128"
       style="fill:url(#0)" />
    <path
       id="path45"
       d="M 228,78 A 112,112 0 0 0 35,65 l 45,78 a 50,50 0 0 1 47,-65"
       style="fill:url(#1)"
       inkscape:connector-curvature="0" />
    <path
       id="path47"
       d="m 35,65 a 112,112 0 0 0 84,174 l 47,-80 A 50,50 0 0 1 80,143"
       style="fill:url(#2)"
       inkscape:connector-curvature="0" />
    <path
       id="path49"
       d="M 119,239 A 112,112 0 0 0 228,78 l -101,0 a 50,50 0 0 1 39,81"
       style="fill:url(#3)"
       inkscape:connector-curvature="0" />
    <path
       id="path51"
       d="m 35,65 45,78 a 50,50 0 0 1 2,-34 L 37,62"
       style="fill:url(#linearGradient4162)"
       inkscape:connector-curvature="0" />
    <path
       id="path53"
       d="m 119,239 47,-80 a 50,50 0 0 1 -29,17 l -20,63"
       style="fill:url(#5)"
       inkscape:connector-curvature="0" />
    <path
       id="path55"
       d="m 228,78 -101,0 a 50,50 0 0 1 39,19 l 64,-16"
       style="fill:url(#6)"
       inkscape:connector-curvature="0" />
  </g>
</svg>
