<svg xmlns="http://www.w3.org/2000/svg" xmlns:xlink="http://www.w3.org/1999/xlink" viewBox="0 0 48 48"><defs><linearGradient id="3" gradientUnits="userSpaceOnUse" y1="140" x2="0" y2="60"><stop offset="0%" stop-opacity=".15"/><stop offset="30%" stop-opacity=".06"/><stop offset="100%" stop-opacity=".03"/></linearGradient><linearGradient id="2" gradientUnits="userSpaceOnUse" x1="164" y1="161" x2="109" y2="217" xlink:href="#3" gradientTransform="matrix(.16114 0 0 .16109 3.417 3.447)"/><linearGradient xlink:href="#3" id="0" gradientUnits="userSpaceOnUse" y1="140" x2="0" y2="60" gradientTransform="matrix(.16114 0 0 .16109 3.417 3.447)"/><linearGradient id="1" gradientUnits="userSpaceOnUse" x1="139" y1="179" x2="147" y2="100" xlink:href="#3" gradientTransform="matrix(.16114 0 0 .16109 3.417 3.447)"/></defs><ellipse cx="24.04" cy="24.07" rx="17.725" ry="17.72" fill="#fff"/><ellipse cx="24.04" cy="24.07" rx="6.607" ry="6.605" fill="#3369e8"/><path d="M40.15608 16.01238A18.04731 18.04263 0 0 0 9.0567 13.918142L16.308 26.484a8.05683 8.05475 0 0 1 7.573423 -10.47117" fill="#d50f25"/><path d="M9.0567 13.918142A18.04731 18.04263 0 0 0 22.592181 41.948658L30.17 29.06A8.05683 8.05475 0 0 1 16.307852 26.483546" fill="#009925"/><path d="M22.592181 41.948658A18.04731 18.04263 0 0 0 40.15608 16.01238h-16.275a8.05683 8.05475 0 0 1 6.28433 13.04869" fill="#eeb211"/><path d="m9.06 13.918l7.251 12.565a8.05683 8.05475 0 0 1 .322273 -5.477227l-7.251-7.571" fill="url(#0)"/><path d="m22.592 41.949l7.573-12.888a8.05683 8.05475 0 0 1 -4.672963 2.738614l-3.223 10.149" fill="url(#2)"/><path d="m40.16 16.01h-16.275a8.05683 8.05475 0 0 1 6.28433 3.060804l10.313-2.578" fill="url(#1)"/></svg>