<?xml version="1.0" encoding="UTF-8" standalone="no"?>
<svg
   xmlns:dc="http://purl.org/dc/elements/1.1/"
   xmlns:cc="http://creativecommons.org/ns#"
   xmlns:rdf="http://www.w3.org/1999/02/22-rdf-syntax-ns#"
   xmlns:svg="http://www.w3.org/2000/svg"
   xmlns="http://www.w3.org/2000/svg"
   xmlns:sodipodi="http://sodipodi.sourceforge.net/DTD/sodipodi-0.dtd"
   xmlns:inkscape="http://www.inkscape.org/namespaces/inkscape"
   fill="#FFEB3B"
   width="48"
   height="48"
   viewBox="0 0 48 48"
   id="svg2"
   version="1.1"
   inkscape:version="0.91 r13725"
   sodipodi:docname="system-file-manager-xfce.svg">
  <metadata
     id="metadata10">
    <rdf:RDF>
      <cc:Work
         rdf:about="">
        <dc:format>image/svg+xml</dc:format>
        <dc:type
           rdf:resource="http://purl.org/dc/dcmitype/StillImage" />
      </cc:Work>
    </rdf:RDF>
  </metadata>
  <defs
     id="defs8" />
  <sodipodi:namedview
     pagecolor="#ffffff"
     bordercolor="#666666"
     borderopacity="1"
     objecttolerance="10"
     gridtolerance="10"
     guidetolerance="10"
     inkscape:pageopacity="0"
     inkscape:pageshadow="2"
     inkscape:window-width="1366"
     inkscape:window-height="713"
     id="namedview6"
     showgrid="false"
     inkscape:snap-bbox="true"
     inkscape:snap-bbox-edge-midpoints="false"
     inkscape:snap-bbox-midpoints="true"
     inkscape:snap-object-midpoints="true"
     inkscape:zoom="5.491911049139325"
     inkscape:cx="-3.890610146665693"
     inkscape:cy="6.290503457470006"
     inkscape:window-x="0"
     inkscape:window-y="30"
     inkscape:window-maximized="1"
     inkscape:current-layer="svg2"
     inkscape:bbox-nodes="true"
     inkscape:bbox-paths="true" />
  <path
     d="M 20 5 L 16 9 L 16 13 L 8 13 C 5.79 13 4.019531250000001 14.79 4.01953125 17 L 4 39 C 4 41.21 5.789999999999999 43 8 43 L 40 43 C 42.21 43 44 41.21 44 39 L 44 17 C 44 14.79 42.21 13 40 13 L 32 13 L 32 9 L 28 5 L 20 5 z M 20 9 L 28 9 L 28 13 L 20 13 L 20 9 z M 6.140625 18.74609375 C 6.249782235620003 18.7278332459 8.971281633669999 20.16562655797 10.80078125 20.662109375 C 14.06312175471 21.49580283441 17.04113523794 24.00395004304001 18.48046875 25.4453125 C 18.58719125174 25.56867234991999 19.71637420125999 24.60012617044003 20.8984375 24.669921875 C 22.51307185142 24.76771701918 27.51021150290001 26.17344439535002 28.177734375 25.216796875 C 28.58250888255 24.65518492668004 28.55358936439 23.96581998559002 29.05859375 23.68359375 C 29.3304723666 23.60750831625 28.04711106617997 21.26128681596002 29.41015625 20.509765625 C 30.3820208571 20.02403621594 31.20551790229998 22.74408060102002 31.455078125 23.048828125 C 31.56687298899 23.18517322228001 32.16004524353998 23.21883458919001 32.08984375 22.908203125 C 32.01375831625 22.57078958813 31.05408649698 19.96128380942 32.23046875 19.5234375 C 34.14112616233 18.76684394679 33.80380647495002 22.86205418774002 33.853515625 22.978515625 C 33.95922365429003 23.22645269178 40.50723235807001 23.41765904417995 40.904296875 26.36328125 C 41.13397343768001 27.9844082251 35.6586883286 30.07979913840002 35.123046875 30.453125 C 34.58760831589001 30.8264508616 34.63106531979002 31.42349788371002 34.83984375 31.79296875 C 35.07986793166999 32.19368536775004 36.67633562847998 33.54526311925002 36.462890625 34.189453125 C 36.31619790872996 34.56156161966 33.33854963712997 33.19768508562999 33.1484375 33.484375 C 32.71485197487 34.03198722851 35.31618265722999 35.40232381493998 34.41796875 36.375 C 34.06188892005 36.60792287452002 29.96426175600999 34.66066667263001 29.974609375 34.68359375 C 29.86464056142 34.72539001494 24.18538455786 35.72001638796 19.8203125 34.400390625 C 19.66651847658 34.35697120414 17.01789229816001 36.95861709508999 16.716796875 36.869140625 C 16.30512395479001 36.71818712443999 17.32415262542 34.60680709092999 17.2109375 34.189453125 C 17.02589772511998 33.95693603945998 15.33371748019999 35.13440618835 15.236328125 34.54296875 C 15.11986668773999 33.76567995880999 16.72094665283 32.87061786010998 16.646484375 32.35546875 C 16.23359408785001 29.42891862624 16.83143356949002 27.72154885408998 17.845703125 26.29296875 C 18.18392823983 25.76706623192 13.87079597059 22.50819573864 10.748046875 21.22265625 C 7.625500673900007 19.93711676136 5.954976541649997 18.84774388948999 6.140625 18.74609375 z M 39.46875 21.38671875 C 39.64080452752003 21.51210754482 39.31153585620998 23.93983979554999 39.123046875 23.798828125 C 38.90351503682 23.69210562326 39.37927352991 21.28283677112001 39.46875 21.38671875 z M 41.09765625 21.69921875 C 41.17840825702 21.77895628457 40.00098898121 24.16054292055 39.8125 24.01953125 C 39.49902801295001 23.78741995344 40.91687725941 21.54968551087 41.09765625 21.69921875 z "
     id="path4188" />
  <path
     inkscape:connector-curvature="0"
     style="fill:#4caf50;fill-opacity:1;fill-rule:evenodd;stroke:#4caf50;stroke-width:0.1217366934pt;stroke-linecap:butt;stroke-linejoin:miter;stroke-opacity:1"
     id="path7"
     d="m 34.20347536972096,28.53178913437657 c -0.03428916881,-0.11970774909999 2.13100082847,-1.42939168205 2.44447281552001,-1.12829625888999 0.56424957668998,0.20451764591999 -2.42458915550002,1.28026423189997 -2.44447281552001,1.12829625888999 z" />
  <path
     inkscape:connector-curvature="0"
     style="fill:#4caf50;fill-opacity:1;fill-rule:evenodd;stroke:#4caf50;stroke-width:0.1217366934pt;stroke-linecap:butt;stroke-linejoin:miter;stroke-opacity:1"
     id="path8"
     d="m 35.23762858525096,29.72277979067657 c -0.1907208206,-0.11524407032001 1.29629289661,-1.84918038186 1.66109718963,-1.66109718963 0.53259803624999,0.52914882992 -1.6860532119,1.7022847711 -1.66109718963,1.66109718963 z" />
  <ellipse
     style="fill:#4caf50;fill-opacity:1;fill-rule:evenodd;stroke:#4caf50;stroke-width:0.1131584287pt;stroke-linecap:butt;stroke-linejoin:miter;stroke-opacity:1"
     id="ellipse17"
     ry="0.6438236832618713"
     rx="0.5654746294021606"
     cy="24.90107727050781"
     cx="34.6865348815918" />
  <path
     inkscape:connector-curvature="0"
     style="fill:#4caf50;fill-opacity:1;fill-rule:evenodd;stroke:#4caf50;stroke-width:0.1217366934pt;stroke-linecap:butt;stroke-linejoin:miter;stroke-opacity:1"
     id="path21"
     d="m 33.41727951041995,24.64838859577657 c -0.56222063179001,0.39747030591 0.30860251929,2.64675862205 1.7408347242,1.33342258828 -1.12525284153999,0.03307180187 -1.50060764804001,-0.29642884989001 -1.7408347242,-1.33342258828 z" />
</svg>
