<?xml version="1.0" encoding="UTF-8" standalone="no"?>
<!-- Created with Inkscape (http://www.inkscape.org/) -->

<svg
   xmlns:dc="http://purl.org/dc/elements/1.1/"
   xmlns:cc="http://creativecommons.org/ns#"
   xmlns:rdf="http://www.w3.org/1999/02/22-rdf-syntax-ns#"
   xmlns:svg="http://www.w3.org/2000/svg"
   xmlns="http://www.w3.org/2000/svg"
   xmlns:xlink="http://www.w3.org/1999/xlink"
   xmlns:sodipodi="http://sodipodi.sourceforge.net/DTD/sodipodi-0.dtd"
   xmlns:inkscape="http://www.inkscape.org/namespaces/inkscape"
   version="1.0"
   width="128"
   height="128"
   id="svg3486"
   inkscape:version="0.91 r13725"
   sodipodi:docname="drive-harddisk2.svg">
  <metadata
     id="metadata83">
    <rdf:RDF>
      <cc:Work
         rdf:about="">
        <dc:format>image/svg+xml</dc:format>
        <dc:type
           rdf:resource="http://purl.org/dc/dcmitype/StillImage" />
        <dc:title></dc:title>
      </cc:Work>
    </rdf:RDF>
  </metadata>
  <sodipodi:namedview
     pagecolor="#ffffff"
     bordercolor="#666666"
     borderopacity="1"
     objecttolerance="10"
     gridtolerance="10"
     guidetolerance="10"
     inkscape:pageopacity="0"
     inkscape:pageshadow="2"
     inkscape:window-width="1366"
     inkscape:window-height="713"
     id="namedview81"
     showgrid="false"
     inkscape:zoom="1.84375"
     inkscape:cx="31.526003"
     inkscape:cy="32.020671"
     inkscape:window-x="0"
     inkscape:window-y="30"
     inkscape:window-maximized="1"
     inkscape:current-layer="svg3486"
     inkscape:snap-bbox="true"
     inkscape:bbox-paths="true"
     inkscape:bbox-nodes="true" />
  <defs
     id="defs3488">
    <linearGradient
       id="linearGradient5048">
      <stop
         id="stop5050"
         style="stop-color:#000000;stop-opacity:0"
         offset="0" />
      <stop
         id="stop5056"
         style="stop-color:#000000;stop-opacity:1"
         offset="0.5" />
      <stop
         id="stop5052"
         style="stop-color:#000000;stop-opacity:0"
         offset="1" />
    </linearGradient>
    <linearGradient
       x1="302.85715"
       y1="366.64789"
       x2="302.85715"
       y2="609.50507"
       id="linearGradient2624"
       xlink:href="#linearGradient5048"
       gradientUnits="userSpaceOnUse"
       gradientTransform="matrix(0.2086243,0,0,0.05625201,-11.402788,87.091152)" />
    <radialGradient
       cx="605.71429"
       cy="486.64789"
       r="117.14286"
       fx="605.71429"
       fy="486.64789"
       id="radialGradient2621"
       xlink:href="#linearGradient5060"
       gradientUnits="userSpaceOnUse"
       gradientTransform="matrix(0.122534,0,0,0.05625201,40.472356,87.091152)" />
    <radialGradient
       cx="605.71429"
       cy="486.64789"
       r="117.14286"
       fx="605.71429"
       fy="486.64789"
       id="radialGradient2618"
       xlink:href="#linearGradient5060"
       gradientUnits="userSpaceOnUse"
       gradientTransform="matrix(-0.122534,0,0,0.05625201,87.527672,87.091152)" />
    <linearGradient
       id="linearGradient2215">
      <stop
         id="stop2223"
         style="stop-color:#7a7a7a;stop-opacity:1"
         offset="0" />
      <stop
         id="stop2219"
         style="stop-color:#474747;stop-opacity:1"
         offset="1" />
    </linearGradient>
    <linearGradient
       x1="29.9375"
       y1="41"
       x2="30"
       y2="49.999996"
       id="linearGradient2714"
       xlink:href="#linearGradient2215"
       gradientUnits="userSpaceOnUse"
       gradientTransform="matrix(2.7797939,0,0,2.0106954,-16.614014,15.013338)" />
    <linearGradient
       id="linearGradient3484">
      <stop
         id="stop3486"
         style="stop-color:#969696;stop-opacity:1"
         offset="0" />
      <stop
         id="stop3488"
         style="stop-color:#b4b4b4;stop-opacity:1"
         offset="1" />
    </linearGradient>
    <linearGradient
       x1="17.813944"
       y1="29.796696"
       x2="18.072828"
       y2="10.000001"
       id="linearGradient2710"
       xlink:href="#linearGradient3484"
       gradientUnits="userSpaceOnUse"
       gradientTransform="matrix(2.7717117,0,0,2.8041475,-2.5210903,-6.9397837)" />
    <linearGradient
       id="linearGradient7056">
      <stop
         id="stop7064"
         style="stop-color:#e6e6e6;stop-opacity:1"
         offset="0" />
      <stop
         id="stop7060"
         style="stop-color:#c8c8c8;stop-opacity:1"
         offset="1" />
    </linearGradient>
    <radialGradient
       cx="11.734284"
       cy="8.4900017"
       r="23.047892"
       fx="11.734284"
       fy="8.4900017"
       id="radialGradient2708"
       xlink:href="#linearGradient7056"
       gradientUnits="userSpaceOnUse"
       gradientTransform="matrix(3.8158369,1.9550356,-1.297462,2.5920017,-2.657338,-12.37557)" />
    <radialGradient
       cx="141.74666"
       cy="206.42612"
       r="78.728165"
       fx="141.74666"
       fy="206.42612"
       id="radialGradient2704"
       xlink:href="#linearGradient4035"
       gradientUnits="userSpaceOnUse"
       gradientTransform="matrix(0.9720948,-0.0142358,0.00719451,0.8190959,-77.067288,-77.616391)" />
    <linearGradient
       id="linearGradient7609">
      <stop
         id="stop7611"
         style="stop-color:#ffffff;stop-opacity:1"
         offset="0" />
      <stop
         id="stop7677"
         style="stop-color:#e7e7e7;stop-opacity:1"
         offset="0.47025558" />
      <stop
         id="stop7613"
         style="stop-color:#8c8c8c;stop-opacity:1"
         offset="0.67183787" />
      <stop
         id="stop7617"
         style="stop-color:#dddddd;stop-opacity:1"
         offset="0.83542866" />
      <stop
         id="stop7615"
         style="stop-color:#a8a8a8;stop-opacity:1"
         offset="1" />
    </linearGradient>
    <radialGradient
       cx="142.62215"
       cy="191.85428"
       r="78.728165"
       fx="142.62215"
       fy="191.85428"
       id="radialGradient2701"
       xlink:href="#linearGradient7609"
       gradientUnits="userSpaceOnUse"
       gradientTransform="matrix(0.4932064,0,0,-0.3486482,-8.2964585,119.46245)" />
    <radialGradient
       cx="113.0654"
       cy="97.587898"
       r="2.5631001"
       fx="113.667"
       fy="98"
       id="radialGradient2697"
       xlink:href="#radialGradient4241"
       gradientUnits="userSpaceOnUse"
       gradientTransform="matrix(-1.0068548,0,0,0.9756095,124.84131,-3.2068583)" />
    <radialGradient
       cx="113.0654"
       cy="97.587898"
       r="2.5631001"
       fx="113.667"
       fy="98"
       id="radialGradient2693"
       xlink:href="#radialGradient4241"
       gradientUnits="userSpaceOnUse"
       gradientTransform="matrix(0.7477745,-0.1585924,0.084228,0.6299819,-68.769481,-18.546726)" />
    <radialGradient
       cx="113.0654"
       cy="97.587898"
       r="2.5631001"
       fx="113.667"
       fy="98"
       id="radialGradient2689"
       xlink:href="#radialGradient4241"
       gradientUnits="userSpaceOnUse"
       gradientTransform="matrix(0.7564903,0.1411284,-0.07792703,0.6130007,24.07117,-50.778011)" />
    <linearGradient
       id="linearGradient5060">
      <stop
         id="stop5062"
         style="stop-color:#000000;stop-opacity:1"
         offset="0" />
      <stop
         id="stop5064"
         style="stop-color:#000000;stop-opacity:0"
         offset="1" />
    </linearGradient>
    <linearGradient
       x1="7.0625"
       y1="35.28125"
       x2="24.6875"
       y2="35.28125"
       id="linearGradient2686"
       xlink:href="#linearGradient5060"
       gradientUnits="userSpaceOnUse"
       gradientTransform="matrix(2.8154099,0,0,2.6966282,0.4945617,11.359533)" />
    <linearGradient
       id="linearGradient4236">
      <stop
         id="stop4238"
         style="stop-color:#eeeeee;stop-opacity:1"
         offset="0" />
      <stop
         id="stop4240"
         style="stop-color:#eeeeee;stop-opacity:0"
         offset="1" />
    </linearGradient>
    <linearGradient
       x1="12.277412"
       y1="37.205811"
       x2="12.221823"
       y2="33.758667"
       id="linearGradient2683"
       xlink:href="#linearGradient4236"
       gradientUnits="userSpaceOnUse"
       gradientTransform="matrix(2.7758664,0,0,2.9914128,-1.725507,4.105388)" />
    <linearGradient
       id="linearGradient4035">
      <stop
         id="stop4037"
         style="stop-color:#f5f5f5;stop-opacity:1"
         offset="0" />
      <stop
         id="stop4039"
         style="stop-color:#e7e7e7;stop-opacity:1"
         offset="0.47025558" />
      <stop
         id="stop4041"
         style="stop-color:#8c8c8c;stop-opacity:1"
         offset="0.69348532" />
      <stop
         id="stop4043"
         style="stop-color:#dddddd;stop-opacity:1"
         offset="0.83542866" />
      <stop
         id="stop4045"
         style="stop-color:#a8a8a8;stop-opacity:1"
         offset="1" />
    </linearGradient>
    <radialGradient
       cx="127.31733"
       cy="143.82751"
       r="78.728165"
       fx="127.31733"
       fy="143.82751"
       id="radialGradient2680"
       xlink:href="#linearGradient4035"
       gradientUnits="userSpaceOnUse"
       gradientTransform="matrix(0.5208152,-0.07516752,0.01692892,0.3022039,-21.928264,5.2860233)" />
    <radialGradient
       cx="113.0654"
       cy="97.587898"
       r="2.5631001"
       fx="113.667"
       fy="98"
       id="radialGradient4241"
       gradientUnits="userSpaceOnUse">
      <stop
         id="stop4243"
         style="stop-color:#eeeeee;stop-opacity:1"
         offset="0" />
      <stop
         id="stop4245"
         style="stop-color:#cecece;stop-opacity:1"
         offset="0.16" />
      <stop
         id="stop4247"
         style="stop-color:#888888;stop-opacity:1"
         offset="0.4675" />
      <stop
         id="stop4249"
         style="stop-color:#555555;stop-opacity:1"
         offset="1" />
    </radialGradient>
    <radialGradient
       cx="113.0654"
       cy="97.587898"
       r="2.5631001"
       fx="113.667"
       fy="98"
       id="radialGradient2676"
       xlink:href="#radialGradient4241"
       gradientUnits="userSpaceOnUse"
       gradientTransform="matrix(1.0068545,0,0,0.9756095,3.158733,-3.2068583)" />
    <linearGradient
       id="linearGradient6310-8">
      <stop
         id="stop6312-6"
         style="stop-color:#ffffff;stop-opacity:1"
         offset="0" />
      <stop
         id="stop6314-6"
         style="stop-color:#ffffff;stop-opacity:0"
         offset="1" />
    </linearGradient>
    <radialGradient
       cx="24"
       cy="42"
       r="21"
       fx="24"
       fy="42"
       id="radialGradient2673"
       xlink:href="#linearGradient6310-8"
       gradientUnits="userSpaceOnUse"
       gradientTransform="matrix(2.8095237,-3.195635e-8,7.8140219e-8,1.0714284,-3.428568,61.499973)" />
  </defs>
  <path
     style="display:inline;fill:#673AB7;fill-opacity:1;fill-rule:evenodd;stroke:none;stroke-width:0.9279989;stroke-linecap:round;stroke-linejoin:round;stroke-miterlimit:4;stroke-dasharray:none;stroke-dashoffset:0;stroke-opacity:1;enable-background:new"
     d="M 1.4648438 98.464844 L 1.4863281 98.589844 L 1.5332031 98.857422 L 4.2421875 114.53516 L 124.03516 114.53516 L 126.4707 98.873047 L 126.48438 98.791016 L 126.53516 98.464844 L 1.4648438 98.464844 z "
     id="rect6431" />
  <path
     style="display:inline;overflow:visible;visibility:visible;fill:#673AB7;fill-opacity:1;fill-rule:evenodd;stroke:none;stroke-width:0.99578357;stroke-linecap:round;stroke-linejoin:round;stroke-miterlimit:4;stroke-dasharray:none;stroke-dashoffset:0;stroke-opacity:1;marker:none;enable-background:accumulate"
     d="m 25.400391,21.498047 c -3.61082,0 -5.680013,0.555896 -6.441407,3.726693 L 1.4980469,97.394518 123.0293,97.462844 l 3.47265,0.002 -18.875,-72.240056 c -0.5337,-2.057166 -3.32937,-3.726693 -5.67968,-3.726693 l -76.546879,0 z m -0.66211,0.507564 c 1.127917,0.06124 2.033812,0.572634 2.222657,1.354806 0.253274,1.048402 -0.875176,2.187297 -2.519532,2.53587 -1.645104,0.34873 -3.172577,-0.226941 -3.410156,-1.278672 -0.235319,-1.046386 0.894099,-2.170441 2.523438,-2.516348 0.407161,-0.08631 0.807621,-0.11607 1.183593,-0.09566 z m 76.712889,0 c 0.19519,0.01084 0.39551,0.03583 0.60156,0.07418 1.64764,0.307225 2.96857,1.411595 2.94727,2.469494 -0.0214,1.063539 -1.3892,1.67866 -3.05273,1.368472 C 100.283,25.607428 98.9627,24.491287 99,23.430696 c 0.03336,-0.922935 1.08485,-1.500973 2.45117,-1.425085 z m -73.240232,1.993165 0.847656,0 32.677734,0 0.13086,0 0,0.05271 c 0.793323,-0.02396 1.552259,0.725373 1.84375,1.567593 0.308678,0.892135 0.34519,1.858687 0.226562,2.844312 -0.237029,1.971233 -1.242145,4.116565 -3.123047,5.179108 l -0.09375,0.05466 -0.113281,0.05271 L 25.087891,44.377482 23,44.98851 l 0.714844,-2.842359 4.214844,-17.005354 0.28125,-1.142021 z m 49.017578,0 15.845703,0 c 2.524915,0 4.52655,1.215496 4.658203,2.824792 0,0 1.716759,20.934515 1.851562,22.57099 6.701346,4.257411 10.736066,9.652709 11.337896,15.310871 l -0.002,0 c 0.0507,0.499412 0.0801,0.997872 0.0801,1.497314 0,5.259412 -2.93304,10.446493 -8.38477,14.748646 C 93.8775,87.84731 79.443367,91.965532 64,91.965532 48.556656,91.965532 34.121397,87.84731 25.384766,80.951389 19.415656,76.24011 16.46648,70.47147 17.080078,64.705429 17.754604,58.365676 22.62253,52.42389 30.785156,47.967522 33.55804,46.271108 45.639458,42.406154 50.273438,41.583925 63.49868,38.082432 72.363535,34.232802 72.654297,26.860658 c 0.06412,-1.631711 2.031148,-2.861882 4.574219,-2.861882 z m 0,0.650074 c -0.896865,0 -1.620959,0.344212 -1.636719,0.778916 C 75.231568,34.505928 63.740416,38.813189 51.175781,42.132485 46.642312,42.870829 34.004747,47.072638 32.605469,48.152978 25.133409,52.215416 20.622488,58.380084 20.007812,64.154917 18.582872,77.549616 38.278563,89.105603 64,89.105603 c 25.721464,0 45.41622,-11.555987 43.99023,-24.950686 -0.57297,-5.392895 -4.6079,-11.291543 -11.267574,-15.244497 L 94.798828,25.455095 C 94.762498,25.009199 93.98943,24.64885 93.072266,24.64885 l -15.84375,0 z M 29.412109,25.049044 26.083984,40.430193 60.513672,30.122735 c 1.109862,-0.666999 1.551607,-3.723195 1.654297,-4.57784 0.03378,-0.271576 -0.0042,-0.352314 -0.01953,-0.495851 l -32.734376,0 -0.002,0 z M 64,56.982644 c 5.482657,0 10.486622,1.317218 13.384766,3.523667 1.763842,1.342068 2.668393,2.937392 2.613281,4.611025 C 79.850739,69.59704 72.972094,72.974821 64,72.974821 c -8.973236,0 -15.853056,-3.377781 -15.998047,-7.857485 C 48.000812,65.068894 48,65.022441 48,64.974829 48,63.353822 48.901994,61.811643 50.615234,60.506311 53.513378,58.299862 58.516232,56.982644 64,56.982644 Z m 0,2.506586 c -8.431405,0 -12.728138,3.347333 -12.626953,6.403118 0.09779,3.008193 5.751449,5.411416 12.626953,5.411416 6.875504,0 12.527181,-2.40407 12.625,-5.411416 C 76.72497,62.835717 72.431376,59.48923 64,59.48923 Z M 11.248047,87.967488 c 2.19394,7.83e-4 3.870944,1.332014 3.746094,2.982916 -0.126866,1.659676 -2.027104,3.014151 -4.242188,3.014151 -2.2140725,0 -3.8901948,-1.354475 -3.7421874,-3.014151 0.1470028,-1.650902 2.0453518,-2.982916 4.2382814,-2.982916 z m 105.503903,0 c 2.19292,0 4.09126,1.332014 4.23828,2.982916 0.14801,1.659676 -1.52811,3.014151 -3.74218,3.014151 -2.21508,0 -4.11532,-1.354475 -4.24219,-3.014151 -0.12484,-1.650902 1.55215,-2.982133 3.74609,-2.982916 z"
     id="path6345"
     inkscape:connector-curvature="0" />
</svg>
