<?xml version="1.0" encoding="UTF-8" standalone="no"?>
<svg
   xmlns:dc="http://purl.org/dc/elements/1.1/"
   xmlns:cc="http://creativecommons.org/ns#"
   xmlns:rdf="http://www.w3.org/1999/02/22-rdf-syntax-ns#"
   xmlns:svg="http://www.w3.org/2000/svg"
   xmlns="http://www.w3.org/2000/svg"
   xmlns:sodipodi="http://sodipodi.sourceforge.net/DTD/sodipodi-0.dtd"
   xmlns:inkscape="http://www.inkscape.org/namespaces/inkscape"
   fill="#673AB7"
   width="48"
   height="48"
   viewBox="0 0 48 48"
   id="svg2"
   version="1.1"
   inkscape:version="0.91 r13725"
   sodipodi:docname="xfce-display-internal.svg">
  <metadata
     id="metadata10">
    <rdf:RDF>
      <cc:Work
         rdf:about="">
        <dc:format>image/svg+xml</dc:format>
        <dc:type
           rdf:resource="http://purl.org/dc/dcmitype/StillImage" />
      </cc:Work>
    </rdf:RDF>
  </metadata>
  <defs
     id="defs8" />
  <sodipodi:namedview
     pagecolor="#ffffff"
     bordercolor="#666666"
     borderopacity="1"
     objecttolerance="10"
     gridtolerance="10"
     guidetolerance="10"
     inkscape:pageopacity="0"
     inkscape:pageshadow="2"
     inkscape:window-width="1366"
     inkscape:window-height="713"
     id="namedview6"
     showgrid="false"
     inkscape:snap-bbox="true"
     inkscape:bbox-nodes="true"
     inkscape:zoom="3.795750125125504"
     inkscape:cx="-32.27592208105948"
     inkscape:cy="-5.610657151462433"
     inkscape:window-x="0"
     inkscape:window-y="30"
     inkscape:window-maximized="1"
     inkscape:current-layer="svg2" />
  <path
     id="path4204"
     style="fill:#673AB7"
     d="m 18,6 c -2.21,0 -4,1.79 -4,4 l 4,0 0,-3.999999999999999 z m 20,0 0,4 4,0 C 42,7.79 40.21,6.000000000000001 38,6.000000000000001 Z m -12,0 -4,0 0,4 4,0 0,-3.999999999999999 z m 12,20 4,0 0,-4 -4,0 0,4 z m 0,-8 4,0 0,-4 -4,0 0,4 z m 0,16 c 2.21,0 4,-1.79 4,-4 l -4,0 0,4 z m -8,-24 4,0 0,-4 -4,0 0,4 z m -20,4 c -2.21,0 -4,1.79 -4,4 l 0,20 c 0,2.21 1.79,4 4,4 l 20,0 c 2.21,0 4,-1.79 4,-4 l 0,-20 c 0,-2.21 -1.79,-4 -4,-4 l -20,0 z m 0,4 20,0 0,20 -20,0 0,-20 z" />
</svg>
