<?xml version="1.0" encoding="UTF-8" standalone="no"?>
<svg
   xmlns:dc="http://purl.org/dc/elements/1.1/"
   xmlns:cc="http://creativecommons.org/ns#"
   xmlns:rdf="http://www.w3.org/1999/02/22-rdf-syntax-ns#"
   xmlns:svg="http://www.w3.org/2000/svg"
   xmlns="http://www.w3.org/2000/svg"
   xmlns:sodipodi="http://sodipodi.sourceforge.net/DTD/sodipodi-0.dtd"
   xmlns:inkscape="http://www.inkscape.org/namespaces/inkscape"
   width="82"
   height="28"
   viewBox="0 0 82 28"
   id="svg2"
   version="1.1"
   inkscape:version="0.91 r13725"
   sodipodi:docname="xfce-display-extend1.svg"
   style="fill:#673AB7">
  <metadata
     id="metadata10">
    <rdf:RDF>
      <cc:Work
         rdf:about="">
        <dc:format>image/svg+xml</dc:format>
        <dc:type
           rdf:resource="http://purl.org/dc/dcmitype/StillImage" />
        <dc:title></dc:title>
      </cc:Work>
    </rdf:RDF>
  </metadata>
  <defs
     id="defs8" />
  <sodipodi:namedview
     pagecolor="#ffffff"
     bordercolor="#666666"
     borderopacity="1"
     objecttolerance="10"
     gridtolerance="10"
     guidetolerance="10"
     inkscape:pageopacity="0"
     inkscape:pageshadow="2"
     inkscape:window-width="1366"
     inkscape:window-height="713"
     id="namedview6"
     showgrid="false"
     inkscape:snap-bbox="true"
     inkscape:bbox-nodes="true"
     inkscape:zoom="3.199383580048599"
     inkscape:cx="3.809042798804555"
     inkscape:cy="-25.63546990591293"
     inkscape:window-x="0"
     inkscape:window-y="30"
     inkscape:window-maximized="1"
     inkscape:current-layer="svg2"
     inkscape:object-paths="true"
     inkscape:snap-intersection-paths="true"
     inkscape:object-nodes="true"
     inkscape:snap-smooth-nodes="true"
     inkscape:snap-midpoints="true"
     inkscape:snap-nodes="false"
     inkscape:snap-page="true"
     showguides="false"
     fit-margin-top="0"
     fit-margin-left="0"
     fit-margin-right="0"
     fit-margin-bottom="0" />
  <path
     inkscape:connector-curvature="0"
     id="path4632"
     d="M 45.63671875,0 C 43.62217323541641,0 42,1.560999999999987 42,3.499999999999998 L 42,24.5 c 0,1.939 1.62217323541641,3.5 3.63671875,3.5 l 32.7265625,0 C 80.37782676458357,28 82,26.439 82,24.5 l 0,-21 C 82,1.56099999999998 80.37782676458357,1.77635683940025e-15 78.36328125,1.77635683940025e-15 l -32.7265625,0 z M 46,3.999999999999998 l 32,0 L 78,24 46,24 46,3.999999999999998 Z"
     style="opacity:1;fill:#673AB7;fill-opacity:1;fill-rule:nonzero;stroke:none;stroke-width:4;stroke-miterlimit:4;stroke-dasharray:none;stroke-opacity:1" />
  <path
     style="opacity:1;fill:#673AB7;fill-opacity:1;fill-rule:nonzero;stroke:none;stroke-width:4;stroke-miterlimit:4;stroke-dasharray:none;stroke-opacity:1"
     d="M 3.63671875,0 C 1.622173235416419,0 0,1.560999999999989 0,3.5 l 0,21 C 0,26.43899999999999 1.622173235416419,28 3.63671875,28 l 32.7265625,0 C 38.37782676458359,28 40,26.43899999999999 40,24.5 l 0,-21 C 40,1.560999999999979 38.37782676458359,0 36.36328125,0 L 3.63671875,0 Z M 4,4 36,4 36,24 4,24 4,4 Z"
     id="rect4278"
     inkscape:connector-curvature="0" />
  <path
     style="opacity:1;fill:#673AB7;fill-opacity:1;fill-rule:nonzero;stroke:none;stroke-width:4;stroke-miterlimit:4;stroke-dasharray:none;stroke-opacity:1"
     d="m -41.72459758515572,84.26180093636122 c -1.61163641166688,0 -2.91015624999998,1.11499999999999 -2.91015625,2.5 l 0,14.99999999999997 c 0,1.385 1.29851983833312,2.5 2.91015625,2.5 l 26.18164062500001,0 c 1.61163641166686,0 2.908203125,-1.115 2.908203125,-2.5 l 0,-14.99999999999997 c 0,-1.38500000000002 -1.29656671333314,-2.5 -2.908203125,-2.5 l -26.18164062500001,0 z m 1.08984375,4 24.00000000000001,0 0,11.99999999999997 -24.00000000000001,0 0,-11.99999999999997 z"
     id="path4638"
     inkscape:connector-curvature="0" />
  <path
     style="opacity:1;fill:#673AB7;fill-opacity:1;fill-rule:nonzero;stroke:none;stroke-width:4;stroke-miterlimit:4;stroke-dasharray:none;stroke-opacity:1"
     d="m 44.29324335278248,49.07002610737323 c -1.51090913593772,0 -2.728515625,1.00349999999999 -2.728515625,2.25 l 0,13.49999999999999 c 0,1.2465 1.21760648906228,2.25 2.728515625,2.25 l 24.54492187499997,0 c 1.51090913593771,0 2.7265625,-1.0035 2.7265625,-2.25 l 0,-13.49999999999999 c 0,-1.24650000000002 -1.21565336406229,-2.25 -2.7265625,-2.25 l -24.54492187499997,0 z m 1.271484375,4 21.99999999999997,0 0,10 -21.99999999999997,0 0,-10 z"
     id="path4138"
     inkscape:connector-curvature="0" />
  <path
     id="path4144"
     d="m 14.29324335278248,49.07002610737323 c -1.51090913593771,0 -2.72851562499998,1.00349999999998 -2.728515625,2.25 l 0,13.49999999999999 c 0,1.2465 1.21760648906229,2.25 2.728515625,2.25 l 24.544921875,0 c 1.51090913593771,0 2.7265625,-1.0035 2.7265625,-2.25 l 0,-13.49999999999999 c 0,-1.24650000000002 -1.21565336406229,-2.25 -2.7265625,-2.25 l -24.544921875,0 z m 1.271484375,4 22,0 0,10 -22,0 0,-10 z"
     style="opacity:1;fill:#673AB7;fill-opacity:1;fill-rule:nonzero;stroke:none;stroke-width:4;stroke-miterlimit:4;stroke-dasharray:none;stroke-opacity:1"
     inkscape:connector-curvature="0" />
</svg>
