<svg xmlns="http://www.w3.org/2000/svg" fill="#00C853" viewBox="0 0 48 48"><path d="m8 8c-2.21 0-3.98 1.79-3.98 4l-.02 24c0 2.21 1.79 4 4 4h32c2.21 0 4-1.79 4-4v-20c0-2.21-1.79-4-4-4h-16l-4-4h-12m18.434 9c4.105 0 7.432 3.328 7.432 7.434 0 1.847-.674 3.532-1.795 4.83l.314.314h.908l5.707 5.719-1.703 1.703-5.719-5.707v-.902l-.314-.314c-1.298 1.115-2.983 1.789-4.83 1.789-4.105 0-7.434-3.326-7.434-7.432 0-4.105 3.328-7.434 7.434-7.434m0 2.287c-2.842 0-5.146 2.305-5.146 5.146 0 2.842 2.305 5.145 5.146 5.145 2.842 0 5.145-2.303 5.145-5.145 0-2.842-2.303-5.146-5.145-5.146"/></svg>