<?xml version="1.0" encoding="UTF-8" standalone="no"?>
<svg
   xmlns:dc="http://purl.org/dc/elements/1.1/"
   xmlns:cc="http://creativecommons.org/ns#"
   xmlns:rdf="http://www.w3.org/1999/02/22-rdf-syntax-ns#"
   xmlns:svg="http://www.w3.org/2000/svg"
   xmlns="http://www.w3.org/2000/svg"
   xmlns:sodipodi="http://sodipodi.sourceforge.net/DTD/sodipodi-0.dtd"
   xmlns:inkscape="http://www.inkscape.org/namespaces/inkscape"
   fill="#607D8B"
   width="48"
   height="48"
   viewBox="0 0 48 48"
   id="svg2"
   version="1.1"
   inkscape:version="0.91 r13725"
   sodipodi:docname="empathy.svg">
  <metadata
     id="metadata10">
    <rdf:RDF>
      <cc:Work
         rdf:about="">
        <dc:format>image/svg+xml</dc:format>
        <dc:type
           rdf:resource="http://purl.org/dc/dcmitype/StillImage" />
      </cc:Work>
    </rdf:RDF>
  </metadata>
  <defs
     id="defs8" />
  <sodipodi:namedview
     pagecolor="#ffffff"
     bordercolor="#666666"
     borderopacity="1"
     objecttolerance="10"
     gridtolerance="10"
     guidetolerance="10"
     inkscape:pageopacity="0"
     inkscape:pageshadow="2"
     inkscape:window-width="1366"
     inkscape:window-height="713"
     id="namedview6"
     showgrid="false"
     inkscape:snap-bbox="true"
     inkscape:bbox-nodes="true"
     inkscape:zoom="3.795750125125503"
     inkscape:cx="-18.12696707186586"
     inkscape:cy="36.71879046173436"
     inkscape:window-x="0"
     inkscape:window-y="30"
     inkscape:window-maximized="1"
     inkscape:current-layer="svg2" />
  <path
     d="M 8 4 C 5.79 4 4.019531249999999 5.790000000000001 4.01953125 8 L 4 44 L 12 36 L 40 36 C 42.21 36 44 34.21 44 32 L 44 8 C 44 5.79 42.21 4.000000000000001 40 4 L 8 4 z M 23.994140625 10 C 29.519140625 10 34 14.475 34 20 C 34 25.525 29.519140625 30 23.994140625 30 C 18.469140625 30 14 25.525 14 20 C 14 14.475 18.469140625 10 23.994140625 10 z M 24 12 C 19.58 12 16 15.58 16 20 C 16 24.42000000000001 19.58 28 24 28 C 28.42 28 32 24.42000000000001 32 20 C 32 15.58 28.42 12 24 12 z M 20.5 16 C 21.33 16 22 16.67 22 17.5 C 22 18.33 21.33 19 20.5 19 C 19.66999999999999 19 19 18.33 19 17.5 C 19 16.67 19.67 16 20.5 16 z M 27.5 16 C 28.33 16 29 16.67 29 17.5 C 29 18.33 28.33 19 27.5 19 C 26.67 19 26 18.33 26 17.5 C 26 16.67 26.67 16 27.5 16 z M 18.89453125 22 L 29.10546875 22 C 28.30546875000001 24.045 26.33 25.5 24 25.5 C 21.66999999999999 25.5 19.69453125000001 24.045 18.89453125 22 z "
     id="path4157" />
</svg>
