<svg height="48" viewBox="0 0 48 47.999998" width="48" xmlns="http://www.w3.org/2000/svg"><g transform="matrix(.19898023 0 0 .19898023 -18.226589 -30.234448)"><path d="m126.93 296.67-35.33-15.363v-8.508l35.33-15.293v10.02l-24.645 9.422 24.645 9.773z" fill="#00f" transform="translate(0 2.94)"/><path d="m225.55 312.54 13.465-19.23-12.902-18.11h12.06l6.609 10.266 6.961-10.266h11.602l-12.656 17.684 13.816 19.652h-12.13l-7.594-11.566-7.664 11.566h-11.566m44.09-37.34h9.105v5.098c3.258-3.961 7.137-5.941 11.637-5.941 2.391 0 4.465.492 6.223 1.477 1.758.984 3.199 2.473 4.324 4.465 1.641-1.992 3.41-3.48 5.309-4.465 1.898-.984 3.926-1.477 6.082-1.477 2.742 0 5.062.557 6.961 1.67 1.898 1.113 3.316 2.748 4.254 4.904.68 1.594 1.019 4.172 1.02 7.734v23.871h-9.879v-21.34c0-3.703-.34-6.094-1.02-7.172-.914-1.406-2.32-2.109-4.219-2.109-1.383 0-2.684.422-3.902 1.266-1.219.844-2.098 2.08-2.637 3.709s-.809 4.201-.809 7.717v17.93h-9.879v-20.461c0-3.633-.176-5.977-.527-7.03-.352-1.055-.897-1.84-1.635-2.355-.738-.516-1.74-.773-3.01-.773-1.523 0-2.895.41-4.113 1.23-1.219.82-2.092 2-2.619 3.551-.527 1.547-.791 4.113-.791 7.699v18.14h-9.879v-37.34m64.723 37.34v-51.54h9.879v51.54z" fill="#d40000" transform="translate(-90.57 -14.08)"/><g fill="#00f"><path d="m367.77 289.1 12.762-53.3h7.418l-12.902 53.3h-7.277" transform="translate(-93.71 9.714)"/><path d="m297.46 299.6v-9.949l24.68-9.703-24.68-9.598v-9.879l35.37 15.293v8.438z"/></g></g></svg>