<?xml version="1.0" encoding="UTF-8" standalone="no"?>
<svg
   xmlns:dc="http://purl.org/dc/elements/1.1/"
   xmlns:cc="http://creativecommons.org/ns#"
   xmlns:rdf="http://www.w3.org/1999/02/22-rdf-syntax-ns#"
   xmlns:svg="http://www.w3.org/2000/svg"
   xmlns="http://www.w3.org/2000/svg"
   xmlns:sodipodi="http://sodipodi.sourceforge.net/DTD/sodipodi-0.dtd"
   xmlns:inkscape="http://www.inkscape.org/namespaces/inkscape"
   width="48"
   height="48"
   preserveAspectRatio="xMidYMid"
   id="svg2"
   version="1.1"
   inkscape:version="0.91 r13725"
   sodipodi:docname="atom.svg">
  <metadata
     id="metadata26">
    <rdf:RDF>
      <cc:Work
         rdf:about="">
        <dc:format>image/svg+xml</dc:format>
        <dc:type
           rdf:resource="http://purl.org/dc/dcmitype/StillImage" />
        <dc:title></dc:title>
      </cc:Work>
    </rdf:RDF>
  </metadata>
  <sodipodi:namedview
     pagecolor="#ffffff"
     bordercolor="#666666"
     borderopacity="1"
     objecttolerance="10"
     gridtolerance="10"
     guidetolerance="10"
     inkscape:pageopacity="0"
     inkscape:pageshadow="2"
     inkscape:window-width="1366"
     inkscape:window-height="713"
     id="namedview24"
     showgrid="false"
     inkscape:zoom="8.267232231546059"
     inkscape:cx="3.766455245995644"
     inkscape:cy="29.37096744471215"
     inkscape:window-x="0"
     inkscape:window-y="31"
     inkscape:window-maximized="1"
     inkscape:current-layer="svg2"
     inkscape:snap-bbox="true"
     inkscape:bbox-nodes="true"
     inkscape:bbox-paths="false"
     inkscape:snap-page="true"
     inkscape:snap-bbox-edge-midpoints="true" />
  <defs
     id="defs4" />
  <path
     inkscape:connector-curvature="0"
     style="fill:#42a674;fill-opacity:1"
     d="M 24,4 A 20,20 0 0 0 4,23.99999999999999 20,20 0 0 0 24,44.00000000000001 20,20 0 0 0 44,23.99999999999999 20,20 0 0 0 24,4 Z m -5.451171875,7.164062500000011 c 1.1803951388014,-0.0855358796233 2.53019571770551,0.51289490750004 4.052734375,1.76171874999999 0.30792916664379,0.25660763886985 0.36012326386989,0.71941458335617 0.103515625,1.02734375 -0.2566076388699,0.32503634256848 -0.71941458335621,0.35817013886985 -1.02734375,0.1015625 -1.18039513880129,-0.97510902770545 -2.23947175931511,-1.486868402774 -2.9921875,-1.435546875 -0.17107175924659,0.0171071759247 -0.32603321760271,0.0507119213014 -0.462890625,0.119140625 -0.8382516203082,0.42767939811641 -1.17996481479449,2.05287060202061 -0.90625,4.32812499999999 0.068428703699,0.53032245366437 0.17126539352739,1.07757037041098 0.291015625,1.625 1.09485925917809,-0.17107175924656 2.2741427084247,-0.272897222226 3.505859375,-0.32421875 3.0963988423629,-3.96886481452044 6.48437256962339,-6.53602881945204 8.896484375,-6.63867187499998 C 30.65983831013699,11.71140844907531 31.2241240741096,11.84832083335617 31.703125,12.15625 c 0.9066803240068,0.58164398143833 1.84686736106161,2.01848888914393 1.1796875,5.45703124999999 -0.085535879623,0.39346504626711 -0.46005057873289,0.6499890046233 -0.853515625,0.564453125 -0.4105722221918,-0.0855358796233 -0.66756712962331,-0.46052152780822 -0.58203125,-0.87109375 0.39346504626711,-2.00496101836981 0.18678043976021,-3.4858428241096 -0.548828125,-3.96484374999999 -0.20528611109589,-0.14370027776709 -0.4952761574315,-0.2072875231473 -0.8203125,-0.1953125 -1.55675300914379,0.0598751157363 -4.26035844928089,1.83206944469188 -7.048828125,5.16796874999999 0.4105722221918,0.00684287037 0.8384165509589,0.022682546298 1.283203125,0.044921875 3.66093564787661,0.19160037035617 7.0838432872261,0.89635861119183 9.6328125,1.98437499999999 1.2830381943493,0.54742962958902 2.29126423616441,1.17021208338359 3.009765625,1.84765625 l -0.08984375,0.048828125 c 0.8279873147534,0.79548368049656 1.22124340277401,1.6407072222877 1.169921875,2.5234375 -0.051321527774,1.00932337955475 -0.718262268733,2.44515900471236 -3.609375,3.560546875 -0.085535879623,0.0342143518493 -0.17227662037669,0.052734375 -0.2578125,0.052734375 -0.29937557868149,0 -0.5809506944521,-0.17206863428084 -0.68359375,-0.462890625 -0.15396458332191,-0.37122571756506 0.033798379658,-0.79599525464042 0.41015625,-0.94140625 1.6679496526541,-0.64665124995205 2.6462003703733,-1.47916585654113 2.685546875,-2.283203125 0.051321527774,-0.95800185178077 -1.1794914353425,-2.05230405099317 -3.30078125,-2.958984375 -2.39500462945199,-1.02643055547941 -5.64490173637,-1.67705543982877 -9.134765625,-1.86523437499999 -0.70139421291091,-0.0342143518493 -1.36898761578769,-0.05078125 -2.001953125,-0.05078125 l -0.359375,0 c -0.44478657404099,0.61585833328766 -0.9067759259589,1.26493171301371 -1.3515625,1.94921874999999 -0.4276793981164,0.67573344902396 -0.8384858796575,1.34989958338359 -1.21484375,2.02734375 0.30792916664379,0.7082370832808 0.64367206021239,1.42017048616441 1.009765625,2.138671875 1.58412449062331,3.11350601828761 3.50587129643838,5.81655682883567 5.421875,7.59570312500002 1.6799246758014,1.56188516192118 3.1910452546918,2.24017939811643 4.029296875,1.8125 0.8040372684589,-0.41057222219174 1.1637995370206,-1.93144456034251 0.94140625,-4.05273437500002 -0.24463261572258,-2.42066539333896 -1.18018472232879,-5.40395449096239 -2.6171875,-8.392578125 -0.17107175924659,-0.36609356478766 -0.017453819418,-0.80353761575343 0.341796875,-0.974609375 0.36780428238009,-0.17620391202395 0.80353761575342,-0.0242966897877 0.974609375,0.341796875 1.5156957869246,3.1374560645821 2.49216645835281,6.2905905325994 2.75390625,8.87890625 0.1317252546198,1.31040967582873 0.081297337945,2.42925717599318 -0.158203125,3.33593750000002 -0.27371481479449,1.06064490732872 -0.80392488431511,1.77840995373289 -1.556640625,2.171875 C 29.96737826391791,36.83466331017123 29.55611469904111,36.9375 29.111328125,36.9375 c -0.4790009258904,-2e-14 -0.99944537041099,-0.11940358797946 -1.546875,-0.341796875 -0.9066803240068,-0.36780428238012 -1.88177256952059,-1.04102851858907 -2.908203125,-1.9921875 -2.0357539350342,-1.89889652763692 -4.07107268530831,-4.73838877339052 -5.73046875,-8.00585937500001 -0.19844324072599,-0.38833289348973 -0.38482777779109,-0.76473807873286 -0.564453125,-1.158203125 -0.82969803234579,1.69361041654102 -1.43715335650691,3.3478694677021 -1.779296875,4.82421874999999 -0.51321527773971,2.24104004613006 -0.3467497453116,3.88204319448289 0.4453125,4.40039062500002 0.7407407175377,0.48926523144518 2.20579671308911,0.0520014350958 3.90625,-1.15234375 0.3301684953459,-0.23950046294519 0.78589016205481,-0.16342564812328 1.025390625,0.171875 0.227525439798,0.32674706016096 0.15316134256849,0.78003078705481 -0.171875,1.01953125 -1.71756046283551,1.2265845137979 -3.0170784722946,1.625 -3.9921875,1.625 -0.66717986106161,0 -1.1802827546575,-0.1882339120548 -1.556640625,-0.427734375 -0.73560856476021,-0.4790009258904 -1.19759791667809,-1.30061388897265 -1.3515625,-2.4296875 -0.13001453702739,-0.96484472215066 -0.034491666644,-2.15365138898978 0.2734375,-3.51367187500003 0.4447865740411,-1.9108715507842 1.2839776621233,-4.05395115756859 2.447265625,-6.22656250000002 -0.4618937499657,-1.14104863417462 -0.8385552083561,-2.25818541674662 -1.146484375,-3.3359375 -3.21614907383551,0.67573344902395 -5.11469409722599,1.87287951397266 -5.166015625,3.001953125 -0.034214351849,0.80403726845891 0.85582731493159,1.72768368061646 2.4296875,2.548828125 0.35925069441779,0.17107175924657 0.49529050924659,0.61535868058221 0.32421875,0.974609375 -0.18817893517121,0.35925069441784 -0.63293680558221,0.49677268517123 -0.9921875,0.30859375 -2.75425532386981,-1.41989560174653 -3.268118402774011,-2.90864537044523 -3.216796875,-3.91796875 0.051321527774,-1.04353773140407 0.7873555557878,-2.54866076397265 3.91796875,-3.677734375 0.71850138883559,-0.25660763886985 1.5064402778425,-0.47978981482877 2.37890625,-0.66796875 -0.13685740739729,-0.58164398143834 -0.2225869213014,-1.16350787041098 -0.291015625,-1.7109375 C 15.67463136575341,15.86822500010276 15.70776516205481,14.68847060178079 15.947265625,13.73046875 16.2209804397946,12.61850231489731 16.75213240746581,11.84807222219176 17.5390625,11.4375 c 0.30792916664379,-0.15396458332191 0.6505149305822,-0.2392231481507 1.009765625,-0.2734375 z m 1.484375,8.67968749999998 c -0.71850138883559,0.051321527774 -1.3953478704178,0.1241757175993 -2.03515625,0.21484375 0.1813360648014,0.63467622680478 0.39331203705481,1.28692863430824 0.6328125,1.947265625 0.21897185183559,-0.36438284719519 0.44531918983219,-0.72912474539727 0.6796875,-1.091796875 0.2360790277603,-0.36438284719519 0.4780236342774,-0.72132611113698 0.72265625,-1.0703125 z m 4.080078125,2.73046875 c 0.88101956011979,0 1.59375,0.71468356488017 1.59375,1.595703125 0,0.88273027771232 -0.71273043988021,1.595703125 -1.59375,1.595703125 -0.8810195601198,0 -1.595703125,-0.71297284728769 -1.595703125,-1.595703125 0,-0.88101956011982 0.7146835648802,-1.595703125 1.595703125,-1.595703125 z"
     id="path4242" />
</svg>
