<svg xmlns="http://www.w3.org/2000/svg" viewBox="0 0 48 48"><path d="m24.827 5.618c-.84 0-1.776.027-2.796.086-.96 0-1.814.214-2.594.634-.3 0-.89.027-1.729.086-.78 0-1.288.027-1.528.086-.54.06-1.101.139-1.7.259-.54.06-1.048.301-1.528.721l-1.902 1.902c-.18.3-.339.62-.519.98-.12.36-.202.762-.202 1.182 0 .96.375 1.788 1.095 2.507.78.66 1.634.98 2.594.98.36 0 .762-.026 1.182-.086.42-.06.822-.139 1.182-.259h6.197c.54 0 1.048.161 1.528.461.48.3.721.699.721 1.239 0 .48-.188.855-.548 1.095-.3.18-.673.312-1.153.432-.48.06-.961.142-1.441.202-.48 0-.855.053-1.095.173-.12.06-.387.166-.807.346-.36.12-.601.228-.721.288-.84.3-1.694.459-2.594.519-.9 0-1.783.241-2.623.721-1.2.72-2.321 1.629-3.401 2.709-1.02 1.02-1.876 2.144-2.536 3.343-.12.12-.252.305-.432.605-.12.3-.202.488-.202.548v4.496c0 0 .135.402.375 1.182.24.72.428 1.281.548 1.7.36 1.2 1.027 2.242 2.046 3.142 1.08.84 2.095 1.588 3.055 2.248 0 .06.082.142.202.202.18.06.286.086.346.086.3.12.889.334 1.729.634.9.3 1.487.459 1.787.519h.721.634c.12.06.308.034.548-.086.12-.06.387-.192.807-.432.48-.24.773-.401.893-.461 1.02-.42 2.035-.822 3.055-1.182 1.08-.42 2.204-.605 3.343-.605h.605c.36 0 .601.026.721.086.84.36 1.723.759 2.623 1.239.9.42 1.836.634 2.796.634.72 0 1.386-.132 2.046-.432.72-.3 1.389-.728 1.989-1.268.6-.54 1.081-1.127 1.441-1.787.36-.66.548-1.355.548-2.075v-.548c-.06-.24-.195-.695-.375-1.355-.18-.66-.286-1.115-.346-1.355v-.259c0-.66.026-1.329.086-1.989.12-.66.226-1.3.346-1.96 0-.06 0-.195 0-.375 0-.24 0-.481 0-.721.06-.3.115-.567.115-.807 0-.24 0-.401 0-.461.12-.42.252-.793.432-1.153.18-.42.288-.875.288-1.355 0-.66-.082-1.329-.202-1.989-.06-.66-.139-1.3-.259-1.96-.24-1.86-.56-3.465-.98-4.784-.42-1.38-1.036-2.556-1.816-3.516-.78-.96-1.795-1.761-3.055-2.421-1.2-.72-2.697-1.333-4.496-1.873-1.74-.48-3.424-.721-5.04-.721m-2.507 20.953h3.314c.24 0 .454.161.634.461.24.24.401.454.461.634v.893c0 .18 0 .421 0 .721 0 .3-.082.541-.202.721-.12.12-.361.334-.721.634l-.605.605c0 .12-.108.202-.288.202h-.98c-.84 0-1.562-.188-2.162-.548-.6-.42-.893-1.115-.893-2.075 0-.36.106-.815.346-1.355.24-.6.615-.893 1.095-.893z" fill="#4caf50"/></svg>