<svg height="24" viewBox="0 0 24 24" width="24" xmlns="http://www.w3.org/2000/svg"><path d="m12.583593 7.689031-2.299218 5.421906h3.171093zm-7.583593-4.689031c-1.108 0-2 .892-2 2v14c0 1.108.892 2 2 2h14c1.108 0 2-.892 2-2v-14c0-1.108-.892-2-2-2zm6.753906 1.974609c.0093-.00103.018014-.00103.027344 0h2.763672c.05987-.000184.116756.046899.126953.105469l2.277344 12.847656c.01196.07254-.050958.146603-.125.146484h-2.490234c-.05987.000184-.116757-.046901-.126953-.105469l-.492188-2.882813h-4.316406l-1.349609 2.917969c-.020817.04138-.066697.069563-.113281.070313h-2.109375c-.085527-.0017-.148822-.105303-.111328-.181641l5.955078-12.847656c.01575-.034289.047234-.060854.083984-.070313z" fill="#f44336"/></svg>