<?xml version="1.0" encoding="UTF-8" standalone="no"?>
<!-- Generator: Adobe Illustrator 15.1.0, SVG Export Plug-In . SVG Version: 6.00 Build 0)  -->

<svg
   xmlns:dc="http://purl.org/dc/elements/1.1/"
   xmlns:cc="http://creativecommons.org/ns#"
   xmlns:rdf="http://www.w3.org/1999/02/22-rdf-syntax-ns#"
   xmlns:svg="http://www.w3.org/2000/svg"
   xmlns="http://www.w3.org/2000/svg"
   xmlns:sodipodi="http://sodipodi.sourceforge.net/DTD/sodipodi-0.dtd"
   xmlns:inkscape="http://www.inkscape.org/namespaces/inkscape"
   version="1.1"
   id="svg2408"
   x="0px"
   y="0px"
   width="48"
   height="48"
   viewBox="0 0 48 48"
   enable-background="new 0 0 96 96"
   xml:space="preserve"
   inkscape:version="0.91 r13725"
   sodipodi:docname="autokey.svg"><metadata
     id="metadata106"><rdf:RDF><cc:Work
         rdf:about=""><dc:format>image/svg+xml</dc:format><dc:type
           rdf:resource="http://purl.org/dc/dcmitype/StillImage" /><dc:title></dc:title></cc:Work></rdf:RDF></metadata><defs
     id="defs104" /><sodipodi:namedview
     pagecolor="#ffffff"
     bordercolor="#666666"
     borderopacity="1"
     objecttolerance="10"
     gridtolerance="10"
     guidetolerance="10"
     inkscape:pageopacity="0"
     inkscape:pageshadow="2"
     inkscape:window-width="1366"
     inkscape:window-height="713"
     id="namedview102"
     showgrid="false"
     inkscape:zoom="2.035837076264076"
     inkscape:cx="184.0690980817124"
     inkscape:cy="49.207621785965"
     inkscape:window-x="0"
     inkscape:window-y="30"
     inkscape:window-maximized="1"
     inkscape:current-layer="svg2408"
     inkscape:snap-bbox="true"
     inkscape:snap-bbox-edge-midpoints="false"
     inkscape:bbox-nodes="true"
     fit-margin-top="0"
     fit-margin-left="0"
     fit-margin-right="0"
     fit-margin-bottom="0" /><filter
     id="filter3794"
     x="-0.1920000016689301"
     width="1.383999943733215"
     y="-0.1920000016689301"
     height="1.383999943733215"
     style="color-interpolation-filters:sRGB"><feGaussianBlur
       id="feGaussianBlur3796"
       stdDeviation="5.28" /></filter><filter
     id="filter3218"
     style="color-interpolation-filters:sRGB"><feGaussianBlur
       id="feGaussianBlur3220"
       stdDeviation="1.71" /></filter><path
     style="opacity:1;fill:#BF360C;fill-opacity:1;fill-rule:nonzero;stroke:none;stroke-width:2;stroke-miterlimit:4;stroke-dasharray:none;stroke-opacity:1"
     d="M 10.00027901785714,6 C 7.784279093333652,6 6,7.78427909333365 6,10.00027901785714 L 6,37.99972098214286 C 6,40.21572090666634 7.784279093333652,42 10.00027901785714,42 l 27.99944196428572,0 C 40.21572090666634,42 42,40.21572090666634 42,37.99972098214286 L 42,10.00027901785714 C 42,7.78427909333365 40.21572090666634,6 37.99972098214286,6 L 10.00027901785714,6 Z m 13.52427455357143,5.82924107142857 5.20647321428572,0 4.29575892857142,23.45675223214286 -4.69084821428571,0 -0.96261160714286,-5.67103794642857 -8.50613839285714,0 -2.61244419642857,5.67103794642857 -3.97014508928572,0 11.23995535714286,-23.45675223214286 z m 1.61467633928572,4.10658482142857 -4.828125,10.41378348214286 6.66713169642857,0 -1.83900669642857,-10.41378348214286 z"
     id="rect4183"
     inkscape:connector-curvature="0" /><g
     id="layer2"
     display="none"
     style="display:none"
     transform="translate(-6,-42)"><g
       id="rect3745"
       display="inline"
       enable-background="new    "
       style="display:inline;opacity:0.9;filter:url(#filter3218)"><linearGradient
         id="SVGID_1_"
         gradientUnits="userSpaceOnUse"
         x1="37.86769866943359"
         y1="-22.71290016174316"
         x2="37.86769866943359"
         y2="62.78559875488281"
         gradientTransform="matrix(1.0059,0,0,-0.9942,9.910399999999999,69.4184)"><stop
           offset="0"
           style="stop-color:#000000"
           id="stop10" /><stop
           offset="1"
           style="stop-color:#000000;stop-opacity:0.5882"
           id="stop12" /></linearGradient><path
         d="m 12,7 72,0 c 3.86599999999999,0 7,3.134 7,7 l 0,71 c 0,3.86599999999999 -3.13400000000001,7 -7,7 L 12,92 C 8.134,92 5,88.86599999999998 5,85 L 5,14 C 5,10.134 8.134,7 12,7 Z"
         id="path14"
         inkscape:connector-curvature="0"
         style="fill:url(#SVGID_1_)" /></g></g></svg>