<svg xmlns="http://www.w3.org/2000/svg" viewBox="0 0 48 48"><path d="m16 12.828v-5.656l-7.314 7.313 2.83 2.83 4.484-4.486m1.172-6.828l-1.172 1.172v20.828h4v-22h-2.828m6.828125 14a8 8 0 0 0 -8 8 8 8 0 0 0 8 8 8 8 0 0 0 8 -8 8 8 0 0 0 -8 -8zm0 4a4 4 0 0 1 4 4 4 4 0 0 1 -4 4 4 4 0 0 1 -4 -4 4 4 0 0 1 4 -4m0-10v4a10 10 0 0 1 10 10 10 10 0 0 1 -10 10 10 10 0 0 1 -10 -10h-4a14 14 0 0 0 8.642578 12.933594 14 14 0 0 0 15.257813 -3.033203 14 14 0 0 0 3.033203 -15.257813 14 14 0 0 0 -12.933594 -8.642578" fill="#3465a4"/></svg>