<svg height="48" width="48" xmlns="http://www.w3.org/2000/svg"><path d="m16 12.828125v-5.65625l-7.314453 7.3125 2.830078 2.830078zm1.171875-6.828125-1.171875 1.171875v20.828125h4v-22zm6.828125 14a8 8 0 0 0 -8 8 8 8 0 0 0 8 8 8 8 0 0 0 8-8 8 8 0 0 0 -8-8zm0 4a4 4 0 0 1 4 4 4 4 0 0 1 -4 4 4 4 0 0 1 -4-4 4 4 0 0 1 4-4zm0-10v4a10 10 0 0 1 10 10 10 10 0 0 1 -10 10 10 10 0 0 1 -10-10h-4a14 14 0 0 0 8.642578 12.933594 14 14 0 0 0 15.257813-3.033203 14 14 0 0 0 3.033203-15.257813 14 14 0 0 0 -12.933594-8.642578z" fill="#3465a4" stroke-width="3"/></svg>