<svg xmlns="http://www.w3.org/2000/svg" viewBox="0 0 256 256"><defs><linearGradient id="0" gradientUnits="userSpaceOnUse" gradientTransform="matrix(-.39377 0 0 .39375 978.35 416.98)" x1="541.34" y1="104.51" x2="606.91" y2="303.14"><stop stop-color="#fff" stop-opacity="0"/><stop offset="1" stop-color="#fff" stop-opacity=".275"/></linearGradient></defs><g transform="matrix(1.34737 0 0 1.34737-902.4-586.94)" fill-rule="evenodd"><path d="m764.75 435.62c-8.457 20.735-13.592 34.32-23.01 54.43 5.773 6.119 12.868 13.22 24.376 21.268-12.372-5.091-20.806-10.189-27.11-15.493-12.05 25.15-30.942 60.949-69.26 129.79 30.11-17.38 53.44-28.1 75.19-32.19-.931-4.01-1.428-8.37-1.392-12.896l.023-.951c.478-19.292 10.516-34.13 22.405-33.12 11.888 1.01 21.14 17.469 20.665 36.761-.09 3.634-.512 7.126-1.229 10.367 21.516 4.211 44.634 14.883 74.33 32.03-5.857-10.784-11.1-20.499-16.1-29.757-7.864-6.095-16.06-14.03-32.795-22.614 11.501 2.988 19.744 6.444 26.16 10.298-50.762-94.51-54.863-107.08-72.27-147.93" fill="#1793d1"/><path d="m818.23 548.55c-41.18-55.895-50.727-100.94-53.14-111.7 21.967 50.669 21.817 51.29 53.14 111.7" fill="#fff" fill-opacity=".166"/><path d="m765.1 436.43c-1.056 2.597-2.086 5.117-3.062 7.515-1.081 2.656-2.109 5.191-3.131 7.677-1.022 2.486-2.034 4.912-3.038 7.306-1 2.394-2.01 4.762-3.038 7.144-1.028 2.382-2.062 4.788-3.154 7.236-1.093 2.448-2.233 4.945-3.433 7.538-1.199 2.593-2.456 5.278-3.804 8.094-.187.39-.413.834-.603 1.229 5.755 6.096 12.841 13.15 24.283 21.15-12.34-5.078-20.765-10.158-27.07-15.447-.327.668-.614 1.264-.951 1.948-.444.9-.976 1.923-1.438 2.853-.81 1.66-1.656 3.366-2.528 5.126-.335.667-.629 1.243-.974 1.925-5.507 11.05-12.34 24.283-21.13 40.728 24.1-13.576 50.09-33.16 97.3-16.305-2.367-4.483-4.543-8.688-6.587-12.64-2.044-3.953-3.942-7.655-5.706-11.156-1.763-3.5-3.392-6.801-4.917-9.927-1.525-3.126-2.938-6.077-4.268-8.906-1.329-2.83-2.581-5.553-3.757-8.164-1.176-2.611-2.297-5.113-3.363-7.584-1.066-2.471-2.087-4.897-3.085-7.306-.998-2.409-1.973-4.812-2.946-7.236-.348-.866-.696-1.769-1.044-2.644-2.663-6.253-5.398-12.732-8.558-20.16" fill="url(#0)"/></g></svg>