<?xml version="1.0" encoding="UTF-8" standalone="no"?>
<svg
   xmlns:dc="http://purl.org/dc/elements/1.1/"
   xmlns:cc="http://creativecommons.org/ns#"
   xmlns:rdf="http://www.w3.org/1999/02/22-rdf-syntax-ns#"
   xmlns:svg="http://www.w3.org/2000/svg"
   xmlns="http://www.w3.org/2000/svg"
   xmlns:sodipodi="http://sodipodi.sourceforge.net/DTD/sodipodi-0.dtd"
   xmlns:inkscape="http://www.inkscape.org/namespaces/inkscape"
   width="48"
   height="48"
   id="svg4472"
   version="1.1"
   inkscape:version="0.91 r13725"
   sodipodi:docname="goa-account-google.svg">
  <sodipodi:namedview
     pagecolor="#ffffff"
     bordercolor="#666666"
     borderopacity="1"
     objecttolerance="10"
     gridtolerance="10"
     guidetolerance="10"
     inkscape:pageopacity="0"
     inkscape:pageshadow="2"
     inkscape:window-width="1366"
     inkscape:window-height="713"
     id="namedview44"
     showgrid="false"
     fit-margin-top="0"
     fit-margin-left="0"
     fit-margin-right="0"
     fit-margin-bottom="0"
     inkscape:zoom="10.59106606955267"
     inkscape:cx="11.14928870819093"
     inkscape:cy="11.13097628882592"
     inkscape:window-x="0"
     inkscape:window-y="30"
     inkscape:window-maximized="1"
     inkscape:current-layer="svg4472"
     inkscape:snap-intersection-paths="true"
     inkscape:object-paths="true"
     inkscape:object-nodes="true"
     inkscape:snap-smooth-nodes="true"
     inkscape:snap-midpoints="true"
     inkscape:snap-page="true"
     inkscape:snap-nodes="false"
     inkscape:snap-bbox="true"
     inkscape:bbox-nodes="true"
     inkscape:snap-bbox-edge-midpoints="true" />
  <defs
     id="defs4474" />
  <metadata
     id="metadata4477">
    <rdf:RDF>
      <cc:Work
         rdf:about="">
        <dc:format>image/svg+xml</dc:format>
        <dc:type
           rdf:resource="http://purl.org/dc/dcmitype/StillImage" />
        <dc:title />
      </cc:Work>
    </rdf:RDF>
  </metadata>
  <g
     id="g4745">
    <path
       id="path4726"
       d="m 26.712890625,4.5 c 0.76062748935141,0.889777026396475 1.31515687233787,1.809283459463945 1.6796875,2.7734375 0.36453062766214,0.964154040536055 0.5390625,1.972955688540693 0.5390625,3.0390625 0,1.0035 -0.1413232421875,1.88194384765625 -0.37890625,2.65625 -0.2375830078125,0.77430615234375 -0.57145703124999,1.443966796875 -0.955078125,2.03125 -0.58478470380168,0.89524335231412 -1.27210533155951,1.56005259664947 -1.927734375,2.14453125 A 16.875,16.875 0 0 1 34.5,14.625 a 16.875,16.875 0 0 1 9,2.623046875 L 43.5,8.5 c 0,-2.216000000000001 -1.784,-4 -4,-4 l -12.787109375,0 z"
       style="opacity:1;fill:#d50f25;fill-opacity:1;fill-rule:nonzero;stroke:none;stroke-width:3;stroke-miterlimit:4;stroke-dasharray:none;stroke-opacity:1"
       inkscape:connector-curvature="0" />
    <path
       id="path4553"
       d="M 34.5,14.625 A 16.875,16.875 0 0 0 17.625,31.5 a 16.875,16.875 0 0 0 2.609375,9 L 39.5,40.5 c 2.216,0 4,-1.784 4,-4 l 0,-19.251953125 A 16.875,16.875 0 0 0 34.5,14.625 Z"
       style="opacity:1;fill:#009925;fill-opacity:1;fill-rule:nonzero;stroke:none;stroke-width:3;stroke-miterlimit:4;stroke-dasharray:none;stroke-opacity:1"
       inkscape:connector-curvature="0" />
    <path
       id="path4429"
       d="m 11.5,4.5 c -2.216000000000003,0 -4,1.784 -4,4 l 0,6.529296875 c 1.286422973362903,2.92271012428633 4.12123921364994,5.33203125 8.58984375,5.33203125 l 1.603515625,0 c 0,0 -0.43720312499977,1.06023437499996 -0.439453125,2.083984375 0,1.50975000000001 0.54135937500002,2.35710937499993 1.693359375,3.662109375 C 13.68908762375552,26.42777761857022 9.962740892028271,27.62294784329718 7.5,29.298828125 L 7.5,36.5 c 0,2.216 1.783999999999997,4 4,4 l 1.560546875,0 c -2.62621167617073,-1.16074914108595 -4.300781250000002,-3.19733073692102 -4.30078125,-5.87890625 0,-3.58200000000019 2.980046874999861,-6.66454687499976 11.154296875,-6.779296875 0.60750000000006,0 1.04296875,0.05078125 1.04296875,0.05078125 0,0 1.434296875,1.02210937500026 2.435546875,1.787109375 2.33100000000008,1.84275000000022 3.783203125,3.25296875 3.783203125,5.76171875 0,2.12106902362519 -1.21290353151236,3.95648678455115 -3.349609375,5.05859375 l 3.513671875,0 c 2.36245489756189,-2.0161392798142 3.57421875,-4.63927866036596 3.57421875,-7.244140625 0,-3.78450000000006 -1.88565625000024,-5.85999999999997 -6.66015625,-9.4375 -1.40399999999994,-1.09124999999996 -1.67578124999999,-1.7848125 -1.67578125,-2.6015625 0,-1.16999999999995 0.69857812499995,-1.94382812499997 0.955078125,-2.236328125 0.45225000000003,-0.47699999999997 1.23484374999978,-1.02220312500003 1.52734375,-1.283203125 1.60425000000005,-1.35899999999998 3.87109375000001,-3.37076562499999 3.87109375,-7.384765625 0,-2.132213622918613 -0.69749502129718,-4.032945947207052 -2.21875,-5.8125 L 21.234375,4.5 c 1.38085541349238,1.560996232926491 3.12109375000001,4.651244193886033 3.12109375,8.369140625 0,4.56974999999995 -3.55115625000006,5.8203125 -5.47265625,5.8203125 -0.9404999999999,0 -2.06748437499986,-0.26351562499996 -3.021484375,-0.916015625 -2.11950000000001,-1.37474999999999 -4.22265625,-5.03296875 -4.22265625,-9.38671875 0,-1.613242784096889 0.39878171900177,-2.910910982923319 1.056640625,-3.88671875 L 11.5,4.5 Z"
       style="fill:#ffffff;fill-opacity:1"
       inkscape:connector-curvature="0" />
    <path
       id="path4637"
       d="m 19.9140625,27.841796875 c -1.02178125000002,0.01434375 -1.96241357421874,0.0754692382812 -2.826171875,0.177734375 -0.86375830078125,0.10226513671877 -1.650841796875,0.24523632812499 -2.365234375,0.42578125 -0.714392578125,0.18054492187504 -1.35795654296875,0.39925439453124 -1.931640625,0.6484375 -0.57368408203125,0.24918310546874 -1.07789843749999,0.52971093750002 -1.51953125,0.837890625 -0.44163281250002,0.3081796875 -0.82043310546875,0.64441845703125 -1.138671875,1.001953125 -0.318238769531254,0.35753466796875 -0.57579492187501,0.735564453125 -0.779296875,1.1328125 -0.203501953124997,0.39724804687502 -0.351796386718759,0.81291455078125 -0.44921875,1.240234375 -0.0974223632813,0.42731982421877 -0.144531250000002,0.86670312499996 -0.14453125,1.314453125 0,0.54056249999996 0.06924609375,1.05473437500003 0.19921875,1.541015625 0.129972656250033,0.48628124999999 0.320156249999968,0.94484375000002 0.568359375,1.373046875 0.248203125000018,0.42820312499997 0.553511718749959,0.82703124999999 0.908203125,1.193359375 0.35469140625,0.36632812499999 0.75954687499995,0.701296875 1.208984375,1.001953125 0.43291035647595,0.28960023221074 0.90980445437726,0.54433538675968 1.419921875,0.76953125 l 10.76171875,0 c 0.39933615396551,-0.20598683709146 0.77075349362379,-0.43491951100579 1.103515625,-0.689453125 0.36189843749998,-0.2768203125 0.68238134765628,-0.57936279296874 0.9609375,-0.90625 0.27855615234374,-0.32688720703125 0.514619140625,-0.677576171875 0.705078125,-1.046875 0.19045898437502,-0.36929882812501 0.33598681640627,-0.75805419921875 0.43359375,-1.162109375 0.0976069335937,-0.40405517578124 0.146484375,-0.82275 0.146484375,-1.25390625 0,-0.31359375000001 -0.022109375,-0.6103701171875 -0.06640625,-0.892578125 C 27.065078125,34.2666201171875 26.99845312499999,33.99900390625001 26.912109375,33.7421875 26.825765625,33.48537109375001 26.71989062500003,33.23937207031246 26.59375,33.001953125 26.46760937500001,32.76453417968753 26.32189062500003,32.5345625 26.158203125,32.310546875 c -0.32737499999999,-0.44803124999999 -0.72734374999999,-0.8743046875 -1.19140625,-1.3046875 -0.46406250000001,-0.4303828125 -0.99146874999995,-0.86548437499997 -1.57421875,-1.326171875 -1.00124999999997,-0.76499999999975 -2.435546875,-1.787109375 -2.435546875,-1.787109375 0,0 -0.43546874999996,-0.05078125 -1.04296875,-0.05078125 z"
       style="opacity:1;fill:#eeb211;fill-opacity:1;fill-rule:nonzero;stroke:none;stroke-width:3;stroke-miterlimit:4;stroke-dasharray:none;stroke-opacity:1"
       inkscape:connector-curvature="0" />
    <path
       id="path4657"
       d="M 12.6953125,4.5 C 12.63816353860289,4.5846993732377 12.57844904730163,4.666219180281626 12.525390625,4.755859375 12.33935693359375,5.070156249999988 12.17830664062501,5.414859375000014 12.046875,5.7890625 11.91544335937501,6.163265624999984 11.81356103515627,6.566874999999983 11.744140625,7 c -0.0694204101563,0.433124999999997 -0.10546875,0.895656249999992 -0.10546875,1.38671875 0,0.544218749999999 0.0320859375,1.07826660156249 0.09375,1.59765625 0.0616640625,0.5193896484375 0.15240624999997,1.02336328125002 0.267578125,1.51171875 0.11517187500001,0.48835546875001 0.25549218749997,0.96099316406251 0.416015625,1.412109375 0.16052343750002,0.4511162109375 0.34134374999997,0.88139062500003 0.5390625,1.2890625 0.19771875000002,0.40767187500002 0.41191406249996,0.79236816406248 0.638671875,1.150390625 0.22675781250001,0.3580224609375 0.46524999999996,0.69001953125001 0.712890625,0.9921875 0.24764062500001,0.30216796875002 0.50330468749999,0.5743447265625 0.763671875,0.814453125 0.26036718750002,0.24010839843748 0.52607812499999,0.44729687499998 0.791015625,0.619140625 0.23850000000002,0.163125 0.48765624999999,0.30153125000001 0.7421875,0.41796875 0.25453125,0.11643749999999 0.51412500000002,0.21146874999999 0.7734375,0.28515625 0.51862499999996,0.14737499999999 1.03560937500005,0.212890625 1.505859375,0.212890625 0.24018749999999,0 0.5061318359375,-0.0193676757813 0.787109375,-0.0625 0.28097753906251,-0.0431323242187 0.57737109374997,-0.11073632812497 0.87890625,-0.205078125 0.30153515625001,-0.094341796875 0.60829589843749,-0.21551220703131 0.91015625,-0.369140625 0.30186035156256,-0.15362841796876 0.59890624999997,-0.33955468749997 0.880859375,-0.560546875 0.28195312500003,-0.22099218750003 0.54920214843747,-0.47700439453129 0.791015625,-0.7734375 0.24181347656251,-0.29643310546875 0.45723046875,-0.63176757812498 0.638671875,-1.01171875 0.18144140625003,-0.37995117187502 0.32885058593751,-0.80384423828128 0.4296875,-1.275390625 0.10083691406252,-0.47154638671877 0.15625,-0.99128125 0.15625,-1.5625 0,-0.52931250000003 -0.0351416015625,-1.04750878906249 -0.099609375,-1.548828125 C 24.1913916015625,10.81899316406249 24.09729296875001,10.33333984375001 23.98046875,9.865234375 23.86364453124999,9.397128906249962 23.72347558593753,8.947249023437477 23.56640625,8.517578125 23.40933691406248,8.087907226562478 23.23403125000003,7.678984375000041 23.048828125,7.29296875 22.67842187499997,6.520937500000004 22.26378906250001,5.841476562499951 21.853515625,5.275390625 21.64345352015478,4.98555172078253 21.43565445838532,4.727604634827315 21.234375,4.5 l -8.5390625,0 z M 7.5,15.029296875 l 0,14.26953125 C 7.730280065254889,29.14207002004524 7.958028248855459,28.98386805304333 8.2109375,28.8359375 8.56107067871091,28.63113916015624 8.933869628906293,28.43449804687501 9.328125,28.248046875 c 0.788510742187521,-0.37290234375 1.66545703125,-0.70654687500003 2.63671875,-0.99609375 0.97126171874999,-0.289546875 2.03685644531249,-0.53366015625003 3.19921875,-0.7265625 1.16236230468752,-0.19290234375003 2.42139062500002,-0.33500000000001 3.783203125,-0.41796875 -0.28799999999995,-0.32625000000003 -0.53716406250003,-0.62352734375001 -0.75,-0.91015625 -0.21283593750005,-0.28662890625 -0.38756250000003,-0.56179687499997 -0.52734375,-0.84375 -0.13978125000002,-0.28195312500001 -0.2436640625,-0.57058984375 -0.3125,-0.8828125 C 17.2885859375,23.15848046874998 17.25390625,22.82275 17.25390625,22.4453125 c 5.6250000005e-4,-0.2559375 0.02712109375,-0.51449609375 0.068359375,-0.7578125 0.04123828125,-0.24331640625002 0.097640625,-0.47151562499999 0.15234375,-0.66796875 0.10940624999995,-0.39290625000002 0.21875,-0.658203125 0.21875,-0.658203125 l -1.603515625,0 c -0.39571874999995,0 -0.7781597900391,-0.0182436523438 -1.1484375,-0.0546875 -0.37027770996093,-0.0364438476562 -0.72733447265626,-0.091849609375 -1.072265625,-0.162109375 -0.68986230468748,-0.14051953124997 -1.32892578125001,-0.345453125 -1.91796875,-0.60546875 -0.58904296874998,-0.260015625 -1.12820800781251,-0.57510546875001 -1.6171875,-0.93359375 C 9.845004882812526,18.24698046874999 9.405296874999988,17.84414062499999 9.015625,17.408203125 8.625953125,16.97226562500001 8.285260742187489,16.50408203125 7.994140625,16.01171875 7.806022438088217,15.69355974173392 7.647208683633419,15.36379139956905 7.5,15.029296875 Z"
       style="opacity:1;fill:#3369e8;fill-opacity:1;fill-rule:nonzero;stroke:none;stroke-width:3;stroke-miterlimit:4;stroke-dasharray:none;stroke-opacity:1"
       inkscape:connector-curvature="0" />
  </g>
</svg>
