<?xml version="1.0" encoding="UTF-8" standalone="no"?>
<svg
   xmlns:dc="http://purl.org/dc/elements/1.1/"
   xmlns:cc="http://creativecommons.org/ns#"
   xmlns:rdf="http://www.w3.org/1999/02/22-rdf-syntax-ns#"
   xmlns:svg="http://www.w3.org/2000/svg"
   xmlns="http://www.w3.org/2000/svg"
   xmlns:sodipodi="http://sodipodi.sourceforge.net/DTD/sodipodi-0.dtd"
   xmlns:inkscape="http://www.inkscape.org/namespaces/inkscape"
   width="38.18359375"
   height="38.18359375"
   viewBox="0 0 38.18359375 38.18359375"
   id="svg2"
   version="1.1"
   inkscape:version="0.91 r13725"
   sodipodi:docname="audio-input-microphone-muted-symbolic.svg"
   style="fill:#795548">
  <metadata
     id="metadata10">
    <rdf:RDF>
      <cc:Work
         rdf:about="">
        <dc:format>image/svg+xml</dc:format>
        <dc:type
           rdf:resource="http://purl.org/dc/dcmitype/StillImage" />
        <dc:title></dc:title>
      </cc:Work>
    </rdf:RDF>
  </metadata>
  <defs
     id="defs8" />
  <sodipodi:namedview
     pagecolor="#ffffff"
     bordercolor="#666666"
     borderopacity="1"
     objecttolerance="10"
     gridtolerance="10"
     guidetolerance="10"
     inkscape:pageopacity="0"
     inkscape:pageshadow="2"
     inkscape:window-width="1366"
     inkscape:window-height="713"
     id="namedview6"
     showgrid="false"
     inkscape:snap-bbox="true"
     inkscape:bbox-nodes="true"
     inkscape:object-paths="true"
     inkscape:snap-smooth-nodes="true"
     inkscape:snap-midpoints="true"
     inkscape:zoom="5.368001304915684"
     inkscape:cx="44.31154319368515"
     inkscape:cy="19.19274669142012"
     inkscape:window-x="0"
     inkscape:window-y="30"
     inkscape:window-maximized="1"
     inkscape:current-layer="svg2"
     fit-margin-top="0"
     fit-margin-left="0"
     fit-margin-right="0"
     fit-margin-bottom="0" />
  <path
     d="M 2.828125,0 0,2.828125 l 12.18359375,12.18359375 0,3.171875 c 0,3.31 2.69,6 6,6 0.92627188207743,0 1.79951519302616,-0.21517543142394 2.580078125,-0.591796875 L 23.921875,26.75 c -1.69329174509229,1.0398569459922 -3.68010923935054,1.6328125 -5.73828125,1.6328125 -5.52,0 -10.59960937500001,-4.19921875 -10.599609375,-10.19921875 l -3.400390625,0 c 0,6.83 5.440000000000002,12.469453125 12,13.439453125 l 0,6.560546875 4,0 0,-6.560546875 c 2.23218012631095,-0.33006321989659 4.33028502559972,-1.20463431006502 6.130859375,-2.48046875 l 9.041015625,9.041015625 2.828125,-2.828125 -8.953125,-8.953125 L 26.8828125,24.0546875 23.58203125,20.75390625 12.18359375,9.35546875 2.828125,0 Z m 15.35546875,0.18359375 c -2.5720008025238,0 -4.76311353352694,1.6211787994001129 -5.615234375,3.900390625 l 11.599609375,11.599609375 0.015625,-9.5 c 0,-3.32 -2.68,-6 -6,-6 z m 10.599609375,18 c 0,0.6661773522065 -0.0727145791769,1.30531493653896 -0.19140625,1.923828125 L 31.3046875,22.8203125 c 0.56099362785341,-1.44719050030971 0.87890625,-3.00665706375182 0.87890625,-4.63671875 l -3.400390625,0 z"
     id="path4"
     inkscape:connector-curvature="0" />
</svg>
