<?xml version="1.0" encoding="UTF-8" standalone="no"?>
<svg
   xmlns:dc="http://purl.org/dc/elements/1.1/"
   xmlns:cc="http://creativecommons.org/ns#"
   xmlns:rdf="http://www.w3.org/1999/02/22-rdf-syntax-ns#"
   xmlns:svg="http://www.w3.org/2000/svg"
   xmlns="http://www.w3.org/2000/svg"
   xmlns:sodipodi="http://sodipodi.sourceforge.net/DTD/sodipodi-0.dtd"
   xmlns:inkscape="http://www.inkscape.org/namespaces/inkscape"
   width="48"
   height="48"
   viewBox="0 0 48 48"
   id="svg2"
   version="1.1"
   inkscape:version="0.91 r13725"
   sodipodi:docname="text-x-gtkrc.svg"
   style="fill:#4caf50">
  <metadata
     id="metadata10">
    <rdf:RDF>
      <cc:Work
         rdf:about="">
        <dc:format>image/svg+xml</dc:format>
        <dc:type
           rdf:resource="http://purl.org/dc/dcmitype/StillImage" />
        <dc:title />
      </cc:Work>
    </rdf:RDF>
  </metadata>
  <defs
     id="defs8" />
  <sodipodi:namedview
     pagecolor="#ffffff"
     bordercolor="#666666"
     borderopacity="1"
     objecttolerance="10"
     gridtolerance="10"
     guidetolerance="10"
     inkscape:pageopacity="0"
     inkscape:pageshadow="2"
     inkscape:window-width="1366"
     inkscape:window-height="713"
     id="namedview6"
     showgrid="false"
     fit-margin-top="0"
     fit-margin-left="0"
     fit-margin-right="0"
     fit-margin-bottom="0"
     inkscape:zoom="4.890030063882008"
     inkscape:cx="0.5797168596106488"
     inkscape:cy="19.8982446717497"
     inkscape:window-x="0"
     inkscape:window-y="30"
     inkscape:window-maximized="1"
     inkscape:current-layer="svg2"
     inkscape:snap-bbox="true"
     inkscape:bbox-nodes="true" />
  <path
     d="M 28,4 12,4 c -2.210000000000001,0 -3.98,1.79 -3.98,4 L 8,40 c 0,2.21 1.77,4 3.98,4 L 36,44 c 2.21,0 4,-1.79 4,-4 L 40,16 28,4 Z"
     id="path4192"
     style="fill:#729fcf;fill-opacity:1" />
  <g
     id="layer1"
     transform="translate(-117.0733828903184,-24.73019330280712)">
    <path
       style="display:inline;fill:#729fcf;fill-opacity:1;fill-rule:evenodd;stroke:#ffffff;stroke-width:2.1236445904;stroke-linecap:butt;stroke-linejoin:round;stroke-miterlimit:4;stroke-dasharray:none;stroke-opacity:1"
       id="path6976"
       d="M 20.88413,30.82696 53.816977,55.527708 107.33282,39.060543 70.587303,17.177763 20.88413,30.82696 Z"
       inkscape:connector-curvature="0" />
    <path
       style="display:inline;fill:#e40000;fill-opacity:1;fill-rule:evenodd;stroke:#ffffff;stroke-width:2.1236445904;stroke-linecap:butt;stroke-linejoin:round;stroke-miterlimit:4;stroke-dasharray:none;stroke-opacity:1"
       id="path6978"
       d="m 22.94243,82.287118 -2.0583,-51.46015799999999 32.93284700000001,24.70074800000002 0,55.57715199999997 L 22.94243,82.287118 Z"
       inkscape:connector-curvature="0" />
    <path
       style="display:inline;fill:#7fe719;fill-opacity:1;fill-rule:evenodd;stroke:#ffffff;stroke-width:2.1236445904;stroke-linecap:butt;stroke-linejoin:round;stroke-miterlimit:4;stroke-dasharray:none;stroke-opacity:1"
       id="path6980"
       d="m 53.816977,111.10486 49.399213,-20.58416 4.11663,-51.460157 -53.51584299999995,16.46716500000001 0,55.57715199999999 z"
       inkscape:connector-curvature="0" />
    <path
       style="fill:none;stroke:#ffffff;stroke-width:1.25;stroke-linecap:butt;stroke-linejoin:miter;stroke-miterlimit:4;stroke-dasharray:none;stroke-opacity:1"
       id="path6982"
       d="m 23.216626,81.319479 47.269104,-13.958037 32.89849,23.08307399999999"
       inkscape:connector-curvature="0" />
    <path
       style="fill:#babdb6;fill-rule:evenodd;stroke:#ffffff;stroke-width:1.25;stroke-linecap:butt;stroke-linejoin:miter;stroke-miterlimit:4;stroke-dasharray:none;stroke-opacity:1"
       id="path6984"
       d="m 70.434539,17.875593 0,49.10928399999999"
       inkscape:connector-curvature="0" />
  </g>
  <path
     style="fill:#e40000;fill-opacity:1"
     d="M 8.009765625 24 L 8 40 C 8 42.21 9.770468750000001 44 11.98046875 44 L 24 44 L 24 24 L 8.009765625 24 z "
     id="path4210" />
  <rect
     y="12.34362983703613"
     x="64.03237915039062"
     height="20"
     width="16"
     id="rect4232"
     style="opacity:1;fill:#0e85cd;fill-opacity:1;fill-rule:nonzero;stroke:none;stroke-width:3;stroke-miterlimit:4;stroke-dasharray:none;stroke-opacity:1" />
  <path
     style="fill:#7fe719;fill-opacity:1"
     d="M 24 24 L 24 44 L 36 44 C 38.21 44 40 42.21 40 40 L 40 24 L 24 24 z "
     id="path4236" />
  <path
     d="m 32,36 -16,0 0,-4 16,0 0,4 z"
     id="path4190"
     style="fill:#ffffff;fill-opacity:1" />
  <path
     d="m 32,28 -16,0 0,-4 16,0 0,4 z"
     id="path4188"
     style="fill:#ffffff;fill-opacity:1" />
  <path
     d="M 26,18 26,7 37,18 26,18 Z"
     id="path4"
     style="fill:#ffffff;fill-opacity:1" />
</svg>
