<?xml version="1.0" encoding="UTF-8" standalone="no"?>
<svg
   xmlns:dc="http://purl.org/dc/elements/1.1/"
   xmlns:cc="http://creativecommons.org/ns#"
   xmlns:rdf="http://www.w3.org/1999/02/22-rdf-syntax-ns#"
   xmlns:svg="http://www.w3.org/2000/svg"
   xmlns="http://www.w3.org/2000/svg"
   xmlns:sodipodi="http://sodipodi.sourceforge.net/DTD/sodipodi-0.dtd"
   xmlns:inkscape="http://www.inkscape.org/namespaces/inkscape"
   fill="#FFC107"
   width="48"
   height="48"
   viewBox="0 0 48 48"
   id="svg2"
   version="1.1"
   inkscape:version="0.91 r13725"
   sodipodi:docname="text-x-javascript3.svg">
  <metadata
     id="metadata10">
    <rdf:RDF>
      <cc:Work
         rdf:about="">
        <dc:format>image/svg+xml</dc:format>
        <dc:type
           rdf:resource="http://purl.org/dc/dcmitype/StillImage" />
        <dc:title></dc:title>
      </cc:Work>
    </rdf:RDF>
  </metadata>
  <defs
     id="defs8" />
  <sodipodi:namedview
     pagecolor="#ffffff"
     bordercolor="#666666"
     borderopacity="1"
     objecttolerance="10"
     gridtolerance="10"
     guidetolerance="10"
     inkscape:pageopacity="0"
     inkscape:pageshadow="2"
     inkscape:window-width="1366"
     inkscape:window-height="713"
     id="namedview6"
     showgrid="false"
     inkscape:zoom="8"
     inkscape:cx="-1.9341931"
     inkscape:cy="8.6214362"
     inkscape:window-x="0"
     inkscape:window-y="30"
     inkscape:window-maximized="1"
     inkscape:current-layer="svg2"
     inkscape:snap-bbox="true"
     inkscape:bbox-paths="true"
     inkscape:bbox-nodes="true"
     inkscape:snap-bbox-edge-midpoints="true"
     inkscape:snap-bbox-midpoints="true" />
  <path
     style="fill:#f7df1e;fill-opacity:1"
     d="M 12 4 C 9.79 4 8.0195313 5.79 8.0195312 8 L 8.0058594 29.964844 A 8 9.8495684 0 0 1 16 39.8125 A 8 9.8495684 0 0 1 15.230469 44 L 36 44 C 38.21 44 40 42.21 40 40 L 40 16 L 28 4 L 12 4 z M 26 7 L 37 18 L 26 18 L 26 7 z M 16 24 L 32 24 L 32 28 L 16 28 L 16 24 z M 16 32 L 32 32 L 32 36 L 16 36 L 16 32 z M 3.7148438 32.5 L 3.7148438 34.089844 L 5.8613281 34.089844 L 5.8613281 32.5 L 3.7148438 32.5 z M 10.59375 35.855469 C 9.6318359 35.855469 8.8613281 36.09375 8.2851562 36.572266 C 7.7138672 37.045898 7.4296875 37.625 7.4296875 38.308594 C 7.4296875 38.953125 7.6650391 39.463867 8.1386719 39.839844 C 8.6171875 40.210938 9.3261719 40.491211 10.263672 40.681641 C 10.878906 40.813477 11.298828 40.963867 11.523438 41.134766 C 11.75293 41.305664 11.867188 41.509766 11.867188 41.744141 C 11.867188 42.012695 11.762695 42.224609 11.552734 42.380859 C 11.347656 42.537109 11.047852 42.615234 10.652344 42.615234 C 10.227539 42.615234 9.8828125 42.520508 9.6191406 42.330078 C 9.3554688 42.139648 9.2158203 41.831055 9.2011719 41.40625 L 7.2460938 41.40625 L 7.2304688 41.451172 C 7.2011719 42.134766 7.4931641 42.744141 8.1035156 43.28125 C 8.71875 43.813477 9.5527344 44.080078 10.607422 44.080078 C 11.608398 44.080078 12.415039 43.855469 13.025391 43.40625 C 13.635742 42.952148 13.939453 42.369141 13.939453 41.65625 C 13.939453 40.992188 13.704102 40.47168 13.230469 40.095703 C 12.756836 39.714844 12.03125 39.425781 11.054688 39.230469 C 10.419922 39.108398 9.9970703 38.970703 9.7871094 38.814453 C 9.5820312 38.658203 9.4804688 38.457031 9.4804688 38.212891 C 9.4804688 37.958984 9.578125 37.75 9.7734375 37.583984 C 9.9736328 37.413086 10.24707 37.326172 10.59375 37.326172 C 10.984375 37.326172 11.27832 37.426758 11.478516 37.626953 C 11.683594 37.827148 11.787109 38.086914 11.787109 38.404297 L 13.851562 38.404297 L 13.867188 38.359375 C 13.891602 37.636719 13.602539 37.038086 13.001953 36.564453 C 12.40625 36.09082 11.604492 35.855469 10.59375 35.855469 z M 3.7597656 36.001953 L 3.7597656 44.21875 C 3.7597656 44.638672 3.6816406 44.948242 3.5253906 45.148438 C 3.3691406 45.353516 3.1474609 45.457031 2.859375 45.457031 C 2.7324219 45.457031 2.6123047 45.450195 2.5 45.435547 C 2.3876953 45.420898 2.2744141 45.398438 2.1621094 45.369141 L 2.0605469 47.001953 C 2.2412109 47.045898 2.4111328 47.078125 2.5722656 47.097656 C 2.7333984 47.117188 2.9121094 47.126953 3.1074219 47.126953 C 3.9863281 47.126953 4.6728516 46.873047 5.1660156 46.365234 C 5.6591797 45.862305 5.90625 45.146484 5.90625 44.21875 L 5.90625 36.001953 L 3.7597656 36.001953 z "
     id="path4189" />
</svg>
