<?xml version="1.0" encoding="UTF-8" standalone="no"?>
<svg
   xmlns:dc="http://purl.org/dc/elements/1.1/"
   xmlns:cc="http://creativecommons.org/ns#"
   xmlns:rdf="http://www.w3.org/1999/02/22-rdf-syntax-ns#"
   xmlns:svg="http://www.w3.org/2000/svg"
   xmlns="http://www.w3.org/2000/svg"
   xmlns:sodipodi="http://sodipodi.sourceforge.net/DTD/sodipodi-0.dtd"
   xmlns:inkscape="http://www.inkscape.org/namespaces/inkscape"
   width="38.975925"
   height="43.406776"
   viewBox="0 0 38.975925 43.406776"
   id="svg2"
   version="1.1"
   inkscape:version="0.91 r13725"
   sodipodi:docname="text-x-script.svg"
   style="fill:#FFC107">
  <metadata
     id="metadata10">
    <rdf:RDF>
      <cc:Work
         rdf:about="">
        <dc:format>image/svg+xml</dc:format>
        <dc:type
           rdf:resource="http://purl.org/dc/dcmitype/StillImage" />
        <dc:title></dc:title>
      </cc:Work>
    </rdf:RDF>
  </metadata>
  <defs
     id="defs8" />
  <sodipodi:namedview
     pagecolor="#ffffff"
     bordercolor="#666666"
     borderopacity="1"
     objecttolerance="10"
     gridtolerance="10"
     guidetolerance="10"
     inkscape:pageopacity="0"
     inkscape:pageshadow="2"
     inkscape:window-width="1366"
     inkscape:window-height="713"
     id="namedview6"
     showgrid="false"
     inkscape:zoom="13.906433"
     inkscape:cx="-2.0030073"
     inkscape:cy="19.303146"
     inkscape:window-x="0"
     inkscape:window-y="30"
     inkscape:window-maximized="1"
     inkscape:current-layer="svg2"
     fit-margin-top="0"
     fit-margin-left="0"
     fit-margin-right="0"
     fit-margin-bottom="0" />
  <path
     d="m 26.975926,0 -16,0 C 8.7659255,0 6.9959255,1.79 6.9959255,4 l -0.02,32 c 0,2.21 1.77,4 3.9800005,4 l 24.02,0 c 2.21,0 4,-1.79 4,-4 l 0,-24 -12,-12 z m 4,32 -16,0 0,-4 16,0 0,4 z m 0,-8 -16,0 0,-4 16,0 0,4 z m -6,-10 0,-11 11,11 -11,0 z"
     id="path4"
     inkscape:connector-curvature="0" />
  <path
     inkscape:connector-curvature="0"
     d="m 23.123123,22.507879 -19.8198198,0 c -1.2167167,0 -2.2022022,0.985486 -2.2022022,2.202202 l 0,15.415416 c 0,1.216717 0.9854855,2.18018 2.2022022,2.18018 l 19.8198198,0 c 1.216717,0 2.202203,-0.968969 2.202203,-2.18018 l 0,-15.415416 c 0,-1.216716 -0.985486,-2.202202 -2.202203,-2.202202 z"
     id="path4140"
     style="fill:#000000;fill-opacity:1;stroke:#FFC107;stroke-width:2.20220208;stroke-miterlimit:4;stroke-dasharray:none;stroke-opacity:1" />
  <text
     xml:space="preserve"
     style="font-style:normal;font-variant:normal;font-weight:bold;font-stretch:normal;font-size:11.01101112px;line-height:100%;font-family:Inconsolata;-inkscape-font-specification:'Inconsolata, Bold';text-align:start;letter-spacing:0px;word-spacing:0px;writing-mode:lr-tb;text-anchor:start;fill:#FFC107;fill-opacity:1;stroke:none;stroke-width:1px;stroke-linecap:butt;stroke-linejoin:miter;stroke-opacity:1"
     x="4.4744668"
     y="33.716022"
     id="text4144"
     sodipodi:linespacing="100%"><tspan
       sodipodi:role="line"
       id="tspan4146"
       x="4.4744668"
       y="33.716022"
       style="font-style:normal;font-variant:normal;font-weight:bold;font-stretch:normal;font-size:11.01101112px;line-height:100%;font-family:Inconsolata;-inkscape-font-specification:'Inconsolata, Bold';text-align:start;writing-mode:lr-tb;text-anchor:start;fill:#FFC107;fill-opacity:1">&gt;_</tspan></text>
</svg>
