<?xml version="1.0" encoding="UTF-8" standalone="no"?>
<!-- Created with Inkscape (http://www.inkscape.org/) -->

<svg
   xmlns:dc="http://purl.org/dc/elements/1.1/"
   xmlns:cc="http://creativecommons.org/ns#"
   xmlns:rdf="http://www.w3.org/1999/02/22-rdf-syntax-ns#"
   xmlns:svg="http://www.w3.org/2000/svg"
   xmlns="http://www.w3.org/2000/svg"
   xmlns:sodipodi="http://sodipodi.sourceforge.net/DTD/sodipodi-0.dtd"
   xmlns:inkscape="http://www.inkscape.org/namespaces/inkscape"
   width="48"
   height="48"
   viewBox="0 0 48 48"
   id="svg4160"
   version="1.1"
   inkscape:version="0.91 r13725"
   sodipodi:docname="text-xml1.svg">
  <defs
     id="defs4162" />
  <sodipodi:namedview
     id="base"
     pagecolor="#ffffff"
     bordercolor="#666666"
     borderopacity="1.0"
     inkscape:pageopacity="0.0"
     inkscape:pageshadow="2"
     inkscape:zoom="4.439304764150295"
     inkscape:cx="-32.3116077200233"
     inkscape:cy="-5.138335749485499"
     inkscape:document-units="px"
     inkscape:current-layer="layer1"
     showgrid="false"
     units="px"
     inkscape:window-width="1366"
     inkscape:window-height="713"
     inkscape:window-x="0"
     inkscape:window-y="30"
     inkscape:window-maximized="1"
     inkscape:snap-bbox="true"
     inkscape:bbox-paths="true"
     inkscape:bbox-nodes="true"
     inkscape:snap-bbox-edge-midpoints="false"
     inkscape:snap-page="true"
     inkscape:snap-midpoints="true"
     inkscape:snap-smooth-nodes="true"
     inkscape:snap-intersection-paths="true"
     inkscape:object-nodes="true"
     inkscape:snap-nodes="false" />
  <metadata
     id="metadata4165">
    <rdf:RDF>
      <cc:Work
         rdf:about="">
        <dc:format>image/svg+xml</dc:format>
        <dc:type
           rdf:resource="http://purl.org/dc/dcmitype/StillImage" />
        <dc:title></dc:title>
      </cc:Work>
    </rdf:RDF>
  </metadata>
  <g
     inkscape:label="Layer 1"
     inkscape:groupmode="layer"
     id="layer1"
     transform="translate(0,-1004.3622)">
    <path
       style="fill:#000000;fill-opacity:1"
       d="m -27.54442904043262,1025.843909940238 -5.73293096944549,6.900792153905 5.73293096944549,6.90984534138 1.63183704262542,-1.351188230856 -4.61033572236891,-5.558657110524 4.61033572236891,-5.549603923048 -1.63183704262542,-1.351188230857 z"
       id="path4200" />
    <path
       style="fill:#4caf50"
       d="M 12 4 C 9.789999999999999 4 8.019531249999998 5.789999999999964 8.01953125 8 L 8 40 C 8 42.21000000000004 9.770468749999999 44 11.98046875 44 L 36 44 C 38.21 44 40 42.21000000000004 40 40 L 40 16 L 28 4 L 12 4 z M 26 7 L 37 18 L 26 18 L 26 7 z M 26.4375 22.654296875 L 28.25 23.5 L 21.48828125 38 L 19.67578125 37.154296875 L 26.4375 22.654296875 z M 17.142578125 24.654296875 L 18.67578125 25.94140625 L 14.611328125 30.783203125 L 18.67578125 35.626953125 L 17.142578125 36.912109375 L 12 30.783203125 L 17.142578125 24.654296875 z M 30.783203125 24.654296875 L 35.92578125 30.783203125 L 30.783203125 36.912109375 L 29.25 35.626953125 L 33.314453125 30.783203125 L 29.25 25.94140625 L 30.783203125 24.654296875 z "
       transform="translate(0,1004.3622)"
       id="path4172" />
    <path
       style="opacity:1;fill:#471313;fill-opacity:1;fill-rule:nonzero;stroke:none;stroke-width:4;stroke-miterlimit:4;stroke-dasharray:none;stroke-opacity:1"
       d="m -14.80177100833073,1048.780694398021 1.63183704262537,1.351188230857 -4.61033572236886,5.549603923048 -2.75443228970204,0 z"
       id="rect4192"
       inkscape:connector-curvature="0"
       sodipodi:nodetypes="ccccc" />
    <path
       style="fill:#000000;fill-opacity:1"
       d="m -19.74963462323156,1025.843909940238 -5.00414937759336,13.810637495285 1.94869860430026,0 5.00414937759337,-13.810637495285 -1.94869860430027,0 z"
       id="path4198" />
    <path
       style="fill:#000000;fill-opacity:1"
       d="m -15.01029097932361,1025.843909940238 -1.63183704262542,1.353451527726 4.61033572236893,5.556393813655 -4.61033572236893,5.554130516786 1.63183704262542,1.351188230856 5.732930969445502,-6.905318747642 -5.732930969445502,-6.909845341381 z"
       id="path4194" />
    <rect
       y="1063.36279296875"
       x="-31.88127517700195"
       height="16"
       width="1.999878168106079"
       id="rect4203"
       style="opacity:1;fill:#000000;fill-opacity:1;fill-rule:nonzero;stroke:none;stroke-width:4;stroke-miterlimit:4;stroke-dasharray:none;stroke-opacity:1" />
    <path
       style="opacity:1;fill:#a82929;fill-opacity:1;fill-rule:nonzero;stroke:none;stroke-width:4;stroke-miterlimit:4;stroke-dasharray:none;stroke-opacity:1"
       d="m -65.37694305679349,1040.176414229759 -5.142578125,6.12890625 5.142578125,6.12890625 1.53320312499999,-1.28515625 -4.06445312499999,-4.84375 4.06445312499999,-4.841796875 -1.53320312499999,-1.287109375 z"
       id="rect4205"
       inkscape:connector-curvature="0" />
    <rect
       style="opacity:1;fill:#000000;fill-opacity:1;fill-rule:nonzero;stroke:none;stroke-width:4;stroke-miterlimit:4;stroke-dasharray:none;stroke-opacity:1"
       id="rect4209"
       width="1.999878168106079"
       height="16"
       x="387.9248962402344"
       y="964.6085815429688"
       transform="matrix(0.9063077870366498,0.4226182617406994,-0.4226182617406994,0.9063077870366498,0,0)" />
    <path
       inkscape:connector-curvature="0"
       id="path4212"
       d="m -51.73613946206319,1040.176414229759 5.142578125,6.12890625 -5.142578125,6.12890625 -1.533203125,-1.28515625 4.064453125,-4.84375 -4.064453125,-4.841796875 1.533203125,-1.287109375 z"
       style="opacity:1;fill:#a82929;fill-opacity:1;fill-rule:nonzero;stroke:none;stroke-width:4;stroke-miterlimit:4;stroke-dasharray:none;stroke-opacity:1" />
  </g>
</svg>
