<?xml version="1.0" encoding="UTF-8" standalone="no"?>
<svg
   xmlns:dc="http://purl.org/dc/elements/1.1/"
   xmlns:cc="http://creativecommons.org/ns#"
   xmlns:rdf="http://www.w3.org/1999/02/22-rdf-syntax-ns#"
   xmlns:svg="http://www.w3.org/2000/svg"
   xmlns="http://www.w3.org/2000/svg"
   xmlns:sodipodi="http://sodipodi.sourceforge.net/DTD/sodipodi-0.dtd"
   xmlns:inkscape="http://www.inkscape.org/namespaces/inkscape"
   width="28"
   height="44"
   viewBox="0 0 28 44"
   id="svg2"
   version="1.1"
   inkscape:version="0.91 r13725"
   sodipodi:docname="gpm-phone-0001.svg"
   style="fill:#795548">
  <metadata
     id="metadata10">
    <rdf:RDF>
      <cc:Work
         rdf:about="">
        <dc:format>image/svg+xml</dc:format>
        <dc:type
           rdf:resource="http://purl.org/dc/dcmitype/StillImage" />
        <dc:title></dc:title>
      </cc:Work>
    </rdf:RDF>
  </metadata>
  <defs
     id="defs8" />
  <sodipodi:namedview
     pagecolor="#ffffff"
     bordercolor="#666666"
     borderopacity="1"
     objecttolerance="10"
     gridtolerance="10"
     guidetolerance="10"
     inkscape:pageopacity="0"
     inkscape:pageshadow="2"
     inkscape:window-width="1366"
     inkscape:window-height="713"
     id="namedview6"
     showgrid="false"
     inkscape:snap-bbox="true"
     inkscape:bbox-nodes="true"
     inkscape:snap-bbox-edge-midpoints="true"
     inkscape:bbox-paths="true"
     inkscape:zoom="5.368001304915686"
     inkscape:cx="74.08092800164845"
     inkscape:cy="-11.90780091106472"
     inkscape:window-x="0"
     inkscape:window-y="30"
     inkscape:window-maximized="1"
     inkscape:current-layer="svg2"
     fit-margin-top="0"
     fit-margin-left="0"
     fit-margin-right="0"
     fit-margin-bottom="0" />
  <path
     d="M 24,0.02 4,0 C 1.789999999999999,0 0,1.79 0,4 l 0,36 c 0,2.21 1.789999999999999,4 4,4 l 20,0 c 2.21,0 4,-1.79 4,-4 L 28,4 C 28,1.79 26.21,0.02 24,0.02 Z M 24,36 4,36 4,8 24,8 24,36 Z"
     id="path4"
     inkscape:connector-curvature="0" />
  <path
     id="path4138"
     d="m 66.1013310471894,0.206289075430047 -19.99999999999997,-0.02 c -2.21,0 -4,1.79 -4,3.9999999999999996 l 0,36 c 0,2.21 1.79,4 4,4 l 19.99999999999997,0 c 2.21000000000001,0 4,-1.79 4,-4 l 0,-36 c 0,-2.209999999999999 -1.78999999999999,-3.98 -4,-3.98 z m 0,35.9799999999999968 -19.99999999999997,0 0,-28 19.99999999999997,0 0,28 z"
     inkscape:connector-curvature="0" />
  <path
     inkscape:connector-curvature="0"
     d="m 66.1013310471894,0.206289075430047 -19.99999999999997,-0.02 c -2.21,0 -4,1.79 -4,3.9999999999999996 l 0,36 c 0,2.21 1.79,4 4,4 l 19.99999999999997,0 c 2.21000000000001,0 4,-1.79 4,-4 l 0,-36 c 0,-2.209999999999999 -1.78999999999999,-3.98 -4,-3.98 z m 0,35.9799999999999968 -19.99999999999997,0 0,-28 19.99999999999997,0 0,28 z"
     id="path4140" />
  <rect
     style="opacity:1;fill:#691313;fill-opacity:1;fill-rule:nonzero;stroke:none;stroke-width:4;stroke-miterlimit:4;stroke-dasharray:none;stroke-opacity:1"
     id="rect4142"
     width="28.00000190734863"
     height="10"
     x="42.1013298034668"
     y="0.1862890720367432" />
  <rect
     y="10.18628883361816"
     x="42.1013298034668"
     height="34"
     width="28"
     id="rect4144"
     style="opacity:1;fill:#000000;fill-opacity:1;fill-rule:nonzero;stroke:none;stroke-width:4;stroke-miterlimit:4;stroke-dasharray:none;stroke-opacity:1" />
</svg>
