<?xml version="1.0" encoding="UTF-8" standalone="no"?>
<!-- Created with Inkscape (http://www.inkscape.org/) -->

<svg
   xmlns:dc="http://purl.org/dc/elements/1.1/"
   xmlns:cc="http://creativecommons.org/ns#"
   xmlns:rdf="http://www.w3.org/1999/02/22-rdf-syntax-ns#"
   xmlns:svg="http://www.w3.org/2000/svg"
   xmlns="http://www.w3.org/2000/svg"
   xmlns:sodipodi="http://sodipodi.sourceforge.net/DTD/sodipodi-0.dtd"
   xmlns:inkscape="http://www.inkscape.org/namespaces/inkscape"
   id="svg7384"
   version="1.1"
   inkscape:version="0.91 r13725"
   height="36"
   sodipodi:docname="utilities-system-monitor-symbolic.svg"
   width="36">
  <metadata
     id="metadata90">
    <rdf:RDF>
      <cc:Work
         rdf:about="">
        <dc:format>image/svg+xml</dc:format>
        <dc:type
           rdf:resource="http://purl.org/dc/dcmitype/StillImage" />
        <dc:title>Gnome Symbolic Icon Theme</dc:title>
      </cc:Work>
    </rdf:RDF>
  </metadata>
  <sodipodi:namedview
     inkscape:object-paths="true"
     inkscape:cy="21.41218709204062"
     inkscape:current-layer="layer11"
     inkscape:window-width="1366"
     pagecolor="#ffffff"
     showborder="true"
     showguides="true"
     inkscape:snap-nodes="false"
     objecttolerance="10"
     showgrid="true"
     inkscape:object-nodes="true"
     inkscape:pageshadow="2"
     inkscape:guide-bbox="true"
     inkscape:window-x="0"
     inkscape:snap-bbox="true"
     bordercolor="#666666"
     id="namedview88"
     inkscape:window-maximized="1"
     inkscape:snap-global="true"
     inkscape:window-y="30"
     gridtolerance="10"
     inkscape:zoom="8.734374990782857"
     inkscape:window-height="713"
     borderopacity="1"
     guidetolerance="10"
     inkscape:snap-bbox-midpoints="false"
     inkscape:cx="-7.851850247473873"
     inkscape:bbox-paths="false"
     inkscape:snap-grids="true"
     inkscape:pageopacity="1"
     inkscape:snap-to-guides="true"
     fit-margin-top="0"
     fit-margin-left="0"
     fit-margin-right="0"
     fit-margin-bottom="0" />
  <title
     id="title9167">Gnome Symbolic Icon Theme</title>
  <defs
     id="defs7386" />
  <g
     transform="translate(-141.9749552962493,-489.2898032224522)"
     inkscape:groupmode="layer"
     id="layer9"
     inkscape:label="status"
     style="display:inline" />
  <g
     transform="translate(-141.9749552962493,-489.2898032224522)"
     inkscape:groupmode="layer"
     id="layer10"
     inkscape:label="devices" />
  <g
     transform="translate(-141.9749552962493,-489.2898032224522)"
     inkscape:groupmode="layer"
     id="layer11"
     inkscape:label="apps">
    <path
       id="path4153"
       style="font-style:normal;font-variant:normal;font-weight:500;font-stretch:normal;font-size:medium;line-height:125%;font-family:Roboto;-inkscape-font-specification:'Roboto, Medium';text-align:center;letter-spacing:0px;word-spacing:0px;writing-mode:lr-tb;text-anchor:middle;fill:#FF5722;fill-opacity:1;stroke:none;stroke-width:1px;stroke-linecap:butt;stroke-linejoin:miter;stroke-opacity:1"
       d="m 145.9749552962493,489.2898032224522 c -2.2099999999999,0 -4,1.7900000000001 -4,4 l 0,27.9999999999998 c 0,2.2099999999997 1.7900000000001,4 4,4 l 28,0 c 2.21,0 4,-1.7900000000003 4,-4 l 0,-27.9999999999994 c 0,-2.21 -1.79,-4 -4,-4 l -28,0 z m 0,4 28,0 0,27.9999999999998 -28,0 0,-27.9999999999994 z m 16.953125,5.0138153710054 a 1.125112499999999,1.125112499999999 0 0 0 -0.7734375,0.7734375 l -3.796875,13.7109374999998 -1.96875,-2.6718749999998 a 1.125112499999999,1.125112499999999 0 0 0 -0.9140625,-0.4921875 l -5.625,0 -1.125,0 0,2.25 1.125,0 5.0625,0 2.953125,4.0078124999998 a 1.125112499999999,1.125112499999999 0 0 0 1.96875,-0.3515625 l 3.4453125,-12.2343749999998 2.390625,7.8046875 a 1.125112499999999,1.125112499999999 0 0 0 1.0546875,0.7734375 l 3.375,0 1.125,0 0,-2.25 -1.125,0 -2.53125,0 -3.234375,-10.546875 a 1.125112499999999,1.125112499999999 0 0 0 -1.40625,-0.7734375 z" />
  </g>
  <g
     transform="translate(-141.9749552962493,-489.2898032224522)"
     inkscape:groupmode="layer"
     id="layer12"
     inkscape:label="actions" />
  <g
     transform="translate(-141.9749552962493,-489.2898032224522)"
     inkscape:groupmode="layer"
     id="layer13"
     inkscape:label="places" />
  <g
     transform="translate(-141.9749552962493,-489.2898032224522)"
     inkscape:groupmode="layer"
     id="layer14"
     inkscape:label="mimetypes" />
  <g
     transform="translate(-141.9749552962493,-489.2898032224522)"
     inkscape:groupmode="layer"
     id="layer15"
     inkscape:label="emblems"
     style="display:inline" />
  <g
     transform="translate(-141.9749552962493,-489.2898032224522)"
     inkscape:groupmode="layer"
     id="g4953"
     inkscape:label="categories"
     style="display:inline" />
</svg>
