<?xml version="1.0" encoding="UTF-8" standalone="no"?>
<svg
   xmlns:dc="http://purl.org/dc/elements/1.1/"
   xmlns:cc="http://creativecommons.org/ns#"
   xmlns:rdf="http://www.w3.org/1999/02/22-rdf-syntax-ns#"
   xmlns:svg="http://www.w3.org/2000/svg"
   xmlns="http://www.w3.org/2000/svg"
   xmlns:sodipodi="http://sodipodi.sourceforge.net/DTD/sodipodi-0.dtd"
   xmlns:inkscape="http://www.inkscape.org/namespaces/inkscape"
   fill="#FF5722"
   width="48"
   height="48"
   viewBox="0 0 48 48"
   id="svg2"
   version="1.1"
   inkscape:version="0.91 r13725"
   sodipodi:docname="xfce-edit.svg">
  <metadata
     id="metadata10">
    <rdf:RDF>
      <cc:Work
         rdf:about="">
        <dc:format>image/svg+xml</dc:format>
        <dc:type
           rdf:resource="http://purl.org/dc/dcmitype/StillImage" />
        <dc:title></dc:title>
      </cc:Work>
    </rdf:RDF>
  </metadata>
  <defs
     id="defs8" />
  <sodipodi:namedview
     pagecolor="#ffffff"
     bordercolor="#666666"
     borderopacity="1"
     objecttolerance="10"
     gridtolerance="10"
     guidetolerance="10"
     inkscape:pageopacity="0"
     inkscape:pageshadow="2"
     inkscape:window-width="1366"
     inkscape:window-height="713"
     id="namedview6"
     showgrid="false"
     inkscape:snap-bbox="true"
     inkscape:bbox-nodes="true"
     inkscape:snap-page="true"
     inkscape:zoom="4.916666666666667"
     inkscape:cx="24"
     inkscape:cy="24"
     inkscape:window-x="0"
     inkscape:window-y="30"
     inkscape:window-maximized="1"
     inkscape:current-layer="svg2" />
  <path
     style="fill:#FF5722"
     d="M 9.994140625 6.005859375 C 7.784140625000002 6.005859375 5.994140624999997 7.795859374999994 5.994140625 10.005859375 L 5.994140625 38.005859375 C 5.994140625 40.21585937500001 7.784140625000003 42.005859375 9.994140625 42.005859375 L 37.994140625 42.005859375 C 40.204140625 42.005859375 41.994140625 40.21585937500001 41.994140625 38.005859375 L 41.994140625 10.005859375 C 41.994140625 7.795859374999997 40.204140625 6.005859375000001 37.994140625 6.005859375 L 9.994140625 6.005859375 z M 32.181640625 11 C 32.55183092920892 11 32.92337233252883 11.14016920752882 33.205078125 11.421875 L 36.578125 14.794921875 C 37.14153658494233 15.35833345994236 37.14153658494233 16.27643216505764 36.578125 16.83984375 L 33.93359375 19.484375 L 28.515625 14.06640625 L 31.16015625 11.421875 C 31.44186204247118 11.14016920752882 31.81145032079108 11 32.181640625 11 z M 26.984375 15.59765625 L 32.40234375 21.015625 L 16.41796875 37 L 11 37 L 11 31.58203125 L 26.984375 15.59765625 z "
     id="path4154" />
</svg>
