<?xml version="1.0" encoding="UTF-8" standalone="no"?>
<svg
   xmlns:dc="http://purl.org/dc/elements/1.1/"
   xmlns:cc="http://creativecommons.org/ns#"
   xmlns:rdf="http://www.w3.org/1999/02/22-rdf-syntax-ns#"
   xmlns:svg="http://www.w3.org/2000/svg"
   xmlns="http://www.w3.org/2000/svg"
   xmlns:xlink="http://www.w3.org/1999/xlink"
   xmlns:sodipodi="http://sodipodi.sourceforge.net/DTD/sodipodi-0.dtd"
   xmlns:inkscape="http://www.inkscape.org/namespaces/inkscape"
   viewBox="0 0 256 256"
   id="svg2"
   version="1.1"
   inkscape:version="0.91 r13725"
   sodipodi:docname="google-chrome1.svg">
  <metadata
     id="metadata59">
    <rdf:RDF>
      <cc:Work
         rdf:about="">
        <dc:format>image/svg+xml</dc:format>
        <dc:type
           rdf:resource="http://purl.org/dc/dcmitype/StillImage" />
        <dc:title />
      </cc:Work>
    </rdf:RDF>
  </metadata>
  <sodipodi:namedview
     pagecolor="#ffffff"
     bordercolor="#666666"
     borderopacity="1"
     objecttolerance="10"
     gridtolerance="10"
     guidetolerance="10"
     inkscape:pageopacity="0"
     inkscape:pageshadow="2"
     inkscape:window-width="1366"
     inkscape:window-height="713"
     id="namedview57"
     showgrid="false"
     inkscape:zoom="1.682590988835047"
     inkscape:cx="65.13093855335653"
     inkscape:cy="88.84763348898174"
     inkscape:window-x="0"
     inkscape:window-y="30"
     inkscape:window-maximized="1"
     inkscape:current-layer="svg2" />
  <defs
     id="defs4">
    <linearGradient
       id="5"
       gradientUnits="userSpaceOnUse"
       x1="164"
       y1="161"
       x2="109"
       y2="217"
       xlink:href="#4"
       gradientTransform="translate(0.2632004688413758,0.4166598731713976)" />
    <linearGradient
       id="4"
       gradientUnits="userSpaceOnUse"
       y1="140"
       x2="0"
       y2="60">
      <stop
         offset="0%"
         stop-opacity=".15"
         id="stop8" />
      <stop
         offset="30%"
         stop-opacity=".06"
         id="stop10" />
      <stop
         offset="100%"
         stop-opacity=".03"
         id="stop12" />
    </linearGradient>
    <linearGradient
       id="6"
       gradientUnits="userSpaceOnUse"
       x1="139"
       y1="179"
       x2="147"
       y2="100"
       xlink:href="#4"
       gradientTransform="translate(0.2632004688413758,0.4166598731713976)" />
    <linearGradient
       id="3"
       gradientUnits="userSpaceOnUse"
       x1="187"
       y1="220"
       x2="138"
       y2="102"
       gradientTransform="translate(0.2632004688413758,0.4166598731713976)">
      <stop
         offset="0%"
         stop-color="#e4b022"
         id="stop16" />
      <stop
         offset="30%"
         stop-color="#fcd209"
         id="stop18" />
    </linearGradient>
    <linearGradient
       id="1"
       gradientUnits="userSpaceOnUse"
       y1="16"
       x2="0"
       y2="107"
       gradientTransform="translate(0.2632004688413758,0.4166598731713976)">
      <stop
         offset="0%"
         stop-color="#f06b59"
         id="stop21" />
      <stop
         offset="100%"
         stop-color="#df2227"
         id="stop23" />
    </linearGradient>
    <linearGradient
       id="0"
       y1="87"
       x2="87"
       y2="169"
       x1="87"
       gradientUnits="userSpaceOnUse"
       gradientTransform="translate(0.2632004688413758,0.4166598731713976)">
      <stop
         offset="0%"
         stop-color="#81b4e0"
         id="stop26" />
      <stop
         offset="100%"
         stop-color="#0c5a94"
         id="stop28" />
    </linearGradient>
    <linearGradient
       id="2"
       gradientUnits="userSpaceOnUse"
       x1="72"
       y1="225"
       x2="118"
       y2="149"
       gradientTransform="translate(0.2632004688413758,0.4166598731713976)">
      <stop
         offset="0%"
         stop-color="#388b41"
         id="stop31" />
      <stop
         offset="100%"
         stop-color="#4cb749"
         id="stop33" />
    </linearGradient>
    <linearGradient
       inkscape:collect="always"
       xlink:href="#4"
       id="linearGradient4162"
       gradientUnits="userSpaceOnUse"
       y1="140"
       x2="0"
       y2="60"
       gradientTransform="translate(0.2632004688413758,0.4166598731713976)" />
  </defs>
  <circle
     style="fill:#ffffff"
     cx="128.2631988525391"
     cy="128.4166564941406"
     r="110"
     id="circle35" />
  <g
     style="fill-opacity:0.1"
     id="g37"
     transform="translate(0.2632004688413758,0.4166598731713976)">
    <path
       inkscape:connector-curvature="0"
       d="m 198,148 a 70,70 0 0 0 -140,0 l 20,0 a 50,50 0 0 1 100,0"
       id="path39" />
    <circle
       cx="133"
       cy="142"
       r="38"
       id="circle41" />
  </g>
  <circle
     style="fill:#3369e8;fill-opacity:1"
     cx="128.2631988525391"
     cy="128.4166564941406"
     r="41"
     id="circle43" />
  <path
     inkscape:connector-curvature="0"
     style="fill:#d50f25;fill-opacity:1"
     d="m 228.2632004688414,78.41665987317138 a 112,112 0 0 0 -193.00000000000002,-13 l 45,78.00000000000001 A 50,50 0 0 1 127.2632004688414,78.41665987317139"
     id="path45" />
  <path
     inkscape:connector-curvature="0"
     style="fill:#009925;fill-opacity:1"
     d="m 35.26320046884139,65.41665987317138 a 112,112 0 0 0 84.00000000000002,174 l 47,-80 a 50,50 0 0 1 -86.00000000000002,-16"
     id="path47" />
  <path
     inkscape:connector-curvature="0"
     style="fill:#eeb211;fill-opacity:1"
     d="m 119.2632004688414,239.4166598731714 a 112,112 0 0 0 109,-161 l -101,0 a 50,50 0 0 1 39,81.00000000000001"
     id="path49" />
  <path
     inkscape:connector-curvature="0"
     style="fill:url(#linearGradient4162)"
     d="m 35.26320046884139,65.41665987317138 45,78.00000000000001 a 50,50 0 0 1 2,-34 l -45,-47"
     id="path51" />
  <path
     inkscape:connector-curvature="0"
     style="fill:url(#5)"
     d="m 119.2632004688414,239.4166598731714 47,-80 a 50,50 0 0 1 -29,17 l -20,63"
     id="path53" />
  <path
     inkscape:connector-curvature="0"
     style="fill:url(#6)"
     d="m 228.2632004688414,78.41665987317138 -101,0 a 50,50 0 0 1 39,19 l 64,-16"
     id="path55" />
  <g
     style="fill:#E91E63"
     id="g4187"
     transform="translate(-135.7324418996012,113.1357001068072)">
    <path
       inkscape:connector-curvature="0"
       style="fill:#d50f25;fill-opacity:1"
       id="path4154"
       d="m 8,16 8,0 0,-8 -8,0 0,8 z" />
    <path
       inkscape:connector-curvature="0"
       style="fill:#eeb211;fill-opacity:1"
       id="path4152"
       d="m 20,40 8,0 0,-8 -8,0 0,8 z" />
    <path
       inkscape:connector-curvature="0"
       style="fill:#009925;fill-opacity:1"
       id="path4150"
       d="m 8,40 8,0 0,-8 -8,0 0,8 z" />
    <path
       inkscape:connector-curvature="0"
       style="fill:#009925;fill-opacity:1"
       id="path4148"
       d="m 8,28 8,0 0,-8 -8,0 0,8 z" />
    <path
       inkscape:connector-curvature="0"
       style="fill:#3369e8;fill-opacity:1"
       id="path4146"
       d="m 20,28 8,0 0,-8 -8,0 0,8 z" />
    <path
       inkscape:connector-curvature="0"
       style="fill:#d50f25;fill-opacity:1"
       id="path4144"
       d="m 32,8 0,8 8,0 0,-8 -8,0 z" />
    <path
       inkscape:connector-curvature="0"
       style="fill:#d50f25;fill-opacity:1"
       id="path4142"
       d="m 20,16 8,0 0,-8 -8,0 0,8 z" />
    <path
       inkscape:connector-curvature="0"
       style="fill:#eeb211;fill-opacity:1"
       id="path4140"
       d="m 32,28 8,0 0,-8 -8,0 0,8 z" />
    <path
       inkscape:connector-curvature="0"
       style="fill:#eeb211;fill-opacity:1"
       id="path4"
       d="m 32,40 8,0 0,-8 -8,0 0,8 z" />
  </g>
</svg>
