<svg xmlns="http://www.w3.org/2000/svg" fill="#FFC107" viewBox="0 0 48 48"><path d="m8 12h-4v28c0 2.21 1.79 4 4 4h28v-4h-28v-28"/><path d="m16 4c-2.21 0-4 1.79-4 4v24c0 2.21 1.79 4 4 4h24c2.21 0 4-1.79 4-4v-24c0-2.21-1.79-4-4-4h-24m12 6c5.523 0 10 4.477 10 10 0 5.523-4.477 10-10 10-5.523 0-10-4.477-10-10 0-5.523 4.477-10 10-10m3.564 2.787c-.516-.064-1.044.177-1.32.656-.369.638-.15 1.456.488 1.824.639.369 1.456.15 1.824-.488.369-.639.148-1.455-.49-1.824-.16-.092-.33-.147-.502-.168m-3.564 1.412c-.923 0-1.795.218-2.57.602l.928 1.662c.499-.232 1.055-.363 1.643-.363 2.037 0 3.71 1.563 3.885 3.555l1.902-.027c-.094-1.471-.737-2.791-1.725-3.762-.508.192-1.093.162-1.6-.131-.507-.293-.827-.788-.914-1.324-.493-.137-1.012-.211-1.549-.211m-3.217.975c-1.168.781-2.037 1.975-2.398 3.373.422.344.689.866.689 1.453 0 .587-.27 1.109-.691 1.453.361 1.398 1.232 2.592 2.4 3.373l.975-1.635c-1-.706-1.658-1.872-1.658-3.191 0-1.319.656-2.486 1.658-3.191l-.975-1.635m-3.584 3.492c-.738 0-1.334.596-1.334 1.334 0 .737.596 1.336 1.334 1.336.737 0 1.336-.599 1.336-1.336 0-.738-.599-1.334-1.336-1.334m10.686 1.68c-.175 1.992-1.847 3.555-3.885 3.555-.587 0-1.143-.131-1.643-.363l-.928 1.662c.775.384 1.647.602 2.57.602.537 0 1.055-.074 1.549-.211.087-.536.407-1.031.914-1.324.507-.293 1.092-.321 1.6-.129.987-.971 1.631-2.293 1.725-3.764l-1.902-.027m-.65 4.219c-.172.021-.342.076-.502.168-.639.369-.857 1.186-.488 1.824.369.639 1.186.857 1.824.488.638-.369.857-1.186.488-1.824-.276-.479-.806-.72-1.322-.656"/></svg>