<svg xmlns="http://www.w3.org/2000/svg" fill="#00E676" viewBox="0 0 48 48"><path d="m24 0c-2.61 0-4.811 1.68-5.631 4h-8.369c-2.21 0-4 1.79-4 4v32c0 2.21 1.79 4 4 4h28c2.21 0 4-1.79 4-4v-32c0-2.21-1.79-4-4-4h-8.369c-.82-2.32-3.02-4-5.631-4m0 4c1.1 0 2 .89 2 2 0 1.11-.9 2-2 2-1.1 0-2-.89-2-2 0-1.11.9-2 2-2m-14 4h4v6h20v-6h4v32h-28v-32"/><text x="24.09" y="35.744" font-family="Roboto" letter-spacing="0" word-spacing="0" text-anchor="middle" text-align="center" font-weight="bold" line-height="125%" font-size="20"><tspan x="24.09" y="35.744" text-align="center" line-height="125%" font-size="25">G</tspan></text></svg>