<?xml version="1.0" encoding="UTF-8" standalone="no"?>
<svg
   xmlns:dc="http://purl.org/dc/elements/1.1/"
   xmlns:cc="http://creativecommons.org/ns#"
   xmlns:rdf="http://www.w3.org/1999/02/22-rdf-syntax-ns#"
   xmlns:svg="http://www.w3.org/2000/svg"
   xmlns="http://www.w3.org/2000/svg"
   xmlns:sodipodi="http://sodipodi.sourceforge.net/DTD/sodipodi-0.dtd"
   xmlns:inkscape="http://www.inkscape.org/namespaces/inkscape"
   fill="#03A9F4"
   width="48"
   height="48"
   viewBox="0 0 48 48"
   id="svg2"
   version="1.1"
   inkscape:version="0.91 r13725"
   sodipodi:docname="gnome-settings-default-applications.svg">
  <metadata
     id="metadata10">
    <rdf:RDF>
      <cc:Work
         rdf:about="">
        <dc:format>image/svg+xml</dc:format>
        <dc:type
           rdf:resource="http://purl.org/dc/dcmitype/StillImage" />
      </cc:Work>
    </rdf:RDF>
  </metadata>
  <defs
     id="defs8" />
  <sodipodi:namedview
     pagecolor="#ffffff"
     bordercolor="#666666"
     borderopacity="1"
     objecttolerance="10"
     gridtolerance="10"
     guidetolerance="10"
     inkscape:pageopacity="0"
     inkscape:pageshadow="2"
     inkscape:window-width="1366"
     inkscape:window-height="713"
     id="namedview6"
     showgrid="false"
     inkscape:snap-bbox="true"
     inkscape:bbox-nodes="true"
     inkscape:snap-intersection-paths="true"
     inkscape:object-nodes="true"
     inkscape:snap-smooth-nodes="true"
     inkscape:object-paths="true"
     inkscape:snap-nodes="false"
     inkscape:zoom="1.738304171792717"
     inkscape:cx="-51.09730508104705"
     inkscape:cy="-38.78344594564159"
     inkscape:window-x="0"
     inkscape:window-y="30"
     inkscape:window-maximized="1"
     inkscape:current-layer="svg2" />
  <g
     style="fill:#03A9F4"
     id="g4148"
     transform="matrix(1.25,0,0,1.25,-6,-6)" />
  <path
     id="path4153"
     d="m 21.998046875,14 c -0.25,0 -0.460234375,0.17992187499999 -0.490234375,0.419921875 L 21.13671875,17.0703125 c -0.61,0.25 -1.16945312499999,0.59046875 -1.689453125,0.98046875 l -2.490234375,-1 c -0.23,-0.09 -0.48937500000001,-0.00125 -0.609375,0.21875 l -2,3.4609375 c -0.13,0.22 -0.070859375,0.48867187499999 0.119140625,0.638671875 L 16.578125,23.01953125 c -0.04,0.32 -0.0703125,0.65046875000003 -0.0703125,0.98046875 0,0.33000000000002 0.0303125,0.66046875 0.0703125,0.98046875 l -2.111328125,1.650390625 c -0.19,0.15 -0.239140625,0.418671875 -0.119140625,0.638671875 l 2,3.4609375 c 0.13,0.21999999999999 0.389375,0.29874999999999 0.609375,0.21875 l 2.490234375,-1 c 0.52,0.4 1.079453125,0.73046875 1.689453125,0.98046875 l 0.37109375,2.650390625 C 21.5478125,33.82007812500001 21.75804687500001,34 21.998046875,34 l 4,0 c 0.25,0 0.44828125000001,-0.17992187499999 0.48828125,-0.419921875 l 0.37109375,-2.650390625 c 0.61,-0.25 1.169453125,-0.59046874999999 1.689453125,-0.98046875 l 2.490234375,1 c 0.22999999999999,0.09 0.489375,0.00125 0.609375,-0.21875 l 2,-3.4609375 c 0.12999999999999,-0.22 0.070859375,-0.488671875 -0.119140625,-0.638671875 L 31.427734375,24.98046875 c 0.04,-0.32 0.0703125,-0.64046875000001 0.0703125,-0.98046875 0,-0.32999999999999 -0.0303125,-0.66046875 -0.0703125,-0.98046875 l 2.109375,-1.650390625 c 0.19,-0.15 0.239140625,-0.418671875 0.119140625,-0.638671875 l -2,-3.4609375 c -0.12,-0.22 -0.389375,-0.29874999999999 -0.609375,-0.21875 l -2.490234375,1 c -0.52,-0.4 -1.079453125,-0.73046875 -1.689453125,-0.98046875 l -0.369140625,-2.650390625 c -0.04,-0.24 -0.25,-0.419921875 -0.5,-0.419921875 l -4,0 z m 2,7 c 1.65999999999999,0 3,1.34000000000001 3,3 0,1.65999999999999 -1.34000000000001,3 -3,3 -1.66,0 -3,-1.34000000000001 -3,-3 0,-1.65999999999999 1.34000000000001,-3 3,-3 z m -19.998046875,-17 0,10 10,0 0,-10 -10,0 z m 15,0 0,6.92578125 A 14,14 0 0 1 24,10 a 14,14 0 0 1 5,0.94140625 l 0,-6.94140625 -10,0 z m 15,0 0,10 10,0 0,-10 -10,0 z m -30,15 0,10 6.927734375,0 A 14,14 0 0 1 10,24 14,14 0 0 1 10.94140625,19 l -6.94140625,0 z m 33.072265625,0 A 14,14 0 0 1 38,24 14,14 0 0 1 37.05859375,29 L 44,29 44,19 37.072265625,19 Z m -33.072265625,15 0,10 10,0 0,-10 -10,0 z m 30,0 0,10 10,0 0,-10 -10,0 z M 19,37.05859375 19,44 29,44 29,37.072265625 A 14,14 0 0 1 24,38 14,14 0 0 1 19,37.05859375 Z" />
</svg>
