<?xml version="1.0" encoding="UTF-8" standalone="no"?>
<svg
   xmlns:dc="http://purl.org/dc/elements/1.1/"
   xmlns:cc="http://creativecommons.org/ns#"
   xmlns:rdf="http://www.w3.org/1999/02/22-rdf-syntax-ns#"
   xmlns:svg="http://www.w3.org/2000/svg"
   xmlns="http://www.w3.org/2000/svg"
   xmlns:sodipodi="http://sodipodi.sourceforge.net/DTD/sodipodi-0.dtd"
   xmlns:inkscape="http://www.inkscape.org/namespaces/inkscape"
   width="36"
   height="36"
   viewBox="0 0 36 36"
   id="svg2"
   version="1.1"
   inkscape:version="0.91 r13725"
   sodipodi:docname="application-default-icon.svg"
   style="fill:#4caf50">
  <metadata
     id="metadata10">
    <rdf:RDF>
      <cc:Work
         rdf:about="">
        <dc:format>image/svg+xml</dc:format>
        <dc:type
           rdf:resource="http://purl.org/dc/dcmitype/StillImage" />
        <dc:title></dc:title>
      </cc:Work>
    </rdf:RDF>
  </metadata>
  <defs
     id="defs8" />
  <sodipodi:namedview
     pagecolor="#ffffff"
     bordercolor="#666666"
     borderopacity="1"
     objecttolerance="10"
     gridtolerance="10"
     guidetolerance="10"
     inkscape:pageopacity="0"
     inkscape:pageshadow="2"
     inkscape:window-width="1366"
     inkscape:window-height="713"
     id="namedview6"
     showgrid="false"
     inkscape:zoom="11.72153409940573"
     inkscape:cx="-24.5413245629116"
     inkscape:cy="12.64520986369191"
     inkscape:window-x="0"
     inkscape:window-y="30"
     inkscape:window-maximized="1"
     inkscape:current-layer="svg2"
     fit-margin-top="0"
     fit-margin-left="0"
     fit-margin-right="0"
     fit-margin-bottom="0" />
  <path
     d="M 4,0 C 1.79,0 8.881784197001252e-16,1.790000000000001 0,4 l 0,28 c 0,2.21 1.790000000000001,4 4,4 l 28,0 c 2.21,0 4,-1.79 4,-4 L 36,4 C 36,1.79 34.21,8.881784197001252e-16 32,0 L 4,0 Z m 14,6 c 2.19883312500002,5.160035250000011 2.71686093749999,6.74743762499997 9.12890625,18.685546875 -0.81076500000001,-0.48679687499999 -1.85195625,-0.92330156249999 -3.3046875,-1.30078125 2.11354593750001,1.08481125000002 3.14919468749999,2.0874821875 4.142578125,2.857421875 C 28.59745218749998,27.4116175 29.26013156249999,28.637848125 30,30 c -3.75172312500001,-2.16593718749998 -6.6728565625,-3.513063125 -9.390625,-4.044921875 0.0905390625,-0.40949343750001 0.1448809375,-0.85152625 0.15625,-1.310546875 0.0603553125,-2.43693562500001 -1.1096265625,-4.5153378125 -2.611328125,-4.642578125 -1.5017025,-0.12724125 -2.7697228125,1.74665812499999 -2.830078125,4.18359375 L 15.322265625,24.3046875 c -0.00454734375,0.57163875000001 0.05824125,1.1222484375 0.17578125,1.62890625 C 12.75071221874999,26.45046843750001 9.80275378125,27.80460374999999 6,30 10.83952921875001,21.30434906249998 13.22587865625,16.78170843750001 14.748046875,13.60546875 15.544704375,14.27545275 16.60907,14.91941465625 18.171875,15.5625 16.7182353125,14.54582840625 15.822984375,13.64994128125 15.09375,12.876953125 16.2831215625,10.33571059375 16.931735625,8.61909853125001 18,6 Z"
     id="path4188"
     inkscape:connector-curvature="0" />
</svg>
