<?xml version="1.0" encoding="UTF-8" standalone="no"?>
<!-- Generator: Adobe Illustrator 15.1.0, SVG Export Plug-In . SVG Version: 6.00 Build 0)  -->

<svg
   xmlns:dc="http://purl.org/dc/elements/1.1/"
   xmlns:cc="http://creativecommons.org/ns#"
   xmlns:rdf="http://www.w3.org/1999/02/22-rdf-syntax-ns#"
   xmlns:svg="http://www.w3.org/2000/svg"
   xmlns="http://www.w3.org/2000/svg"
   xmlns:sodipodi="http://sodipodi.sourceforge.net/DTD/sodipodi-0.dtd"
   xmlns:inkscape="http://www.inkscape.org/namespaces/inkscape"
   version="1.1"
   id="svg2408"
   x="0px"
   y="0px"
   width="96px"
   height="96px"
   viewBox="0 0 96 96"
   enable-background="new 0 0 96 96"
   xml:space="preserve"
   inkscape:version="0.91 r13725"
   sodipodi:docname="autokey1.svg"><metadata
     id="metadata106"><rdf:RDF><cc:Work
         rdf:about=""><dc:format>image/svg+xml</dc:format><dc:type
           rdf:resource="http://purl.org/dc/dcmitype/StillImage" /></cc:Work></rdf:RDF></metadata><defs
     id="defs104" /><sodipodi:namedview
     pagecolor="#ffffff"
     bordercolor="#666666"
     borderopacity="1"
     objecttolerance="10"
     gridtolerance="10"
     guidetolerance="10"
     inkscape:pageopacity="0"
     inkscape:pageshadow="2"
     inkscape:window-width="1366"
     inkscape:window-height="713"
     id="namedview102"
     showgrid="false"
     inkscape:zoom="3.2395833"
     inkscape:cx="10.95819897577567"
     inkscape:cy="48"
     inkscape:window-x="0"
     inkscape:window-y="30"
     inkscape:window-maximized="1"
     inkscape:current-layer="svg2408"
     inkscape:snap-bbox="true"
     inkscape:snap-bbox-edge-midpoints="false"
     inkscape:bbox-nodes="true" /><filter
     id="filter3794"
     x="-0.192"
     width="1.3839999"
     y="-0.192"
     height="1.3839999"
     color-interpolation-filters="sRGB"><feGaussianBlur
       id="feGaussianBlur3796"
       stdDeviation="5.28" /></filter><filter
     id="filter3218"
     color-interpolation-filters="sRGB"><feGaussianBlur
       id="feGaussianBlur3220"
       stdDeviation="1.71" /></filter><path
     style="opacity:1;fill:#3F51B5;fill-opacity:1;fill-rule:nonzero;stroke:none;stroke-width:2;stroke-miterlimit:4;stroke-dasharray:none;stroke-opacity:1"
     d="M 15.333984375 6 C 10.16331788444519 5.999999999999997 6 10.16331788444519 6 15.333984375 L 6 80.666015625 C 5.999999999999997 85.83668211555481 10.16331788444519 90 15.333984375 90 L 80.666015625 90 C 85.83668211555481 90 90 85.83668211555481 90 80.666015625 L 90 15.333984375 C 90 10.16331788444519 85.83668211555481 6 80.666015625 6 L 15.333984375 6 z M 46.890625 19.6015625 L 59.0390625 19.6015625 L 69.0625 74.333984375 L 58.1171875 74.333984375 L 55.87109375 61.1015625 L 36.0234375 61.1015625 L 29.927734375 74.333984375 L 20.6640625 74.333984375 L 46.890625 19.6015625 z M 50.658203125 29.18359375 L 39.392578125 53.482421875 L 54.94921875 53.482421875 L 50.658203125 29.18359375 z "
     id="rect4183" /><g
     id="layer2"
     display="none"><g
       id="rect3745"
       display="inline"
       opacity="0.9"
       filter="url(#filter3218)"
       enable-background="new    "><linearGradient
         id="SVGID_1_"
         gradientUnits="userSpaceOnUse"
         x1="37.8677"
         y1="-22.7129"
         x2="37.8677"
         y2="62.7856"
         gradientTransform="matrix(1.0059 0 0 -0.9942 9.9104 69.4184)"><stop
           offset="0"
           style="stop-color:#000000"
           id="stop10" /><stop
           offset="1"
           style="stop-color:#000000;stop-opacity:0.5882"
           id="stop12" /></linearGradient><path
         fill="url(#SVGID_1_)"
         d="M12,7h72c3.866,0,7,3.134,7,7v71c0,3.866-3.134,7-7,7H12c-3.866,0-7-3.134-7-7V14    C5,10.134,8.134,7,12,7z"
         id="path14" /></g></g></svg>