<?xml version="1.0" encoding="UTF-8" standalone="no"?>
<!-- Created with Inkscape (http://www.inkscape.org/) -->

<svg
   xmlns:dc="http://purl.org/dc/elements/1.1/"
   xmlns:cc="http://creativecommons.org/ns#"
   xmlns:rdf="http://www.w3.org/1999/02/22-rdf-syntax-ns#"
   xmlns:svg="http://www.w3.org/2000/svg"
   xmlns="http://www.w3.org/2000/svg"
   xmlns:sodipodi="http://sodipodi.sourceforge.net/DTD/sodipodi-0.dtd"
   xmlns:inkscape="http://www.inkscape.org/namespaces/inkscape"
   version="1.1"
   width="48"
   height="16"
   id="svg1325"
   inkscape:version="0.91 r13725"
   sodipodi:docname="xfce4-panel.svg">
  <metadata
     id="metadata32">
    <rdf:RDF>
      <cc:Work
         rdf:about="">
        <dc:format>image/svg+xml</dc:format>
        <dc:type
           rdf:resource="http://purl.org/dc/dcmitype/StillImage" />
        <dc:title>Xfce Panel</dc:title>
      </cc:Work>
    </rdf:RDF>
  </metadata>
  <sodipodi:namedview
     pagecolor="#ffffff"
     bordercolor="#666666"
     borderopacity="1"
     objecttolerance="10"
     gridtolerance="10"
     guidetolerance="10"
     inkscape:pageopacity="0"
     inkscape:pageshadow="2"
     inkscape:window-width="1366"
     inkscape:window-height="713"
     id="namedview30"
     showgrid="false"
     inkscape:zoom="8.288376249785745"
     inkscape:cx="-7.324451723222573"
     inkscape:cy="18.85471282059607"
     inkscape:window-x="0"
     inkscape:window-y="30"
     inkscape:window-maximized="1"
     inkscape:current-layer="svg1325"
     fit-margin-top="0"
     fit-margin-left="0"
     fit-margin-right="0"
     fit-margin-bottom="0"
     inkscape:snap-bbox="true"
     inkscape:bbox-nodes="true" />
  <title
     id="title3450">Xfce Panel</title>
  <defs
     id="defs1327" />
  <path
     style="opacity:1;fill:#3F51B5;fill-opacity:1;fill-rule:nonzero;stroke:none;stroke-width:0.5;stroke-miterlimit:4;stroke-dasharray:none;stroke-opacity:1"
     d="M 0 0 L 0 16 L 48 16 L 48 0 L 0 0 z M 4.076171875 3.068359375 C 4.1355603049208 3.0584245075411 5.615964793037421 3.841210117534942 6.611328125 4.111328125 C 8.386247390235258 4.564910018205528 10.00792729440862 5.928698420246519 10.791015625 6.712890625 C 10.8490794059263 6.78000617405547 11.46235166316248 6.253042353823888 12.10546875 6.291015625 C 12.98393180819655 6.34422235961306 15.70323165067019 7.108367292428603 16.06640625 6.587890625 C 16.28662914533829 6.282338256931656 16.27016759605413 5.907455145947663 16.544921875 5.75390625 C 16.69284101272095 5.71251096892137 15.99474546290344 4.438171864640622 16.736328125 4.029296875 C 17.26508384864431 3.765029400594054 17.7138328530621 5.244354350853084 17.849609375 5.41015625 C 17.9104328413315 5.4843365936929 18.23350654600854 5.501034384217013 18.1953125 5.33203125 C 18.1539172189214 5.148456976843306 17.63145813581634 3.728450419180457 18.271484375 3.490234375 C 19.31100267344645 3.078599699954147 19.12725195802862 5.307731373095665 19.154296875 5.37109375 C 19.2118087188453 5.505987172608216 22.77420620147769 5.610286116468012 22.990234375 7.212890625 C 23.11519293014935 8.094886080515248 20.13517277879351 9.234387154174218 19.84375 9.4375 C 19.55243760862267 9.640612845825785 19.57781759872026 9.965000140082202 19.69140625 10.166015625 C 19.82199456337603 10.3840307720141 20.69034631185256 11.12022307853431 20.57421875 11.470703125 C 20.4944086480804 11.67315364632853 18.87296425898845 10.93191320589574 18.76953125 11.087890625 C 18.53363334155994 11.3858262613499 19.9496225915602 12.13095897669085 19.4609375 12.66015625 C 19.26720758455205 12.78688100380871 17.0373389917733 11.7277605969683 17.04296875 11.740234375 C 16.9831387704144 11.7629741827392 13.89440612233481 12.30389725502768 11.51953125 11.5859375 C 11.4358575885131 11.5623145929311 9.995846175655144 12.97836835054846 9.83203125 12.9296875 C 9.608055182510586 12.84755926234 10.16120555324499 11.69777004014328 10.099609375 11.470703125 C 9.998936051416756 11.34419914602369 9.078376584780635 11.98388869325118 9.025390625 11.662109375 C 8.962028248095644 11.23921518350075 9.833480931748955 10.75292989975636 9.79296875 10.47265625 C 9.568330358013331 8.88042815859175 9.89348580636787 7.951065922532243 10.4453125 7.173828125 C 10.62932832282151 6.887703942184503 8.282957097883012 5.115430294104456 6.583984375 4.416015625 C 4.885122039533198 3.716600955895539 3.975167389168153 3.123663470521033 4.076171875 3.068359375 z "
     id="path4173" />
  <path
     d="M 19.3444717728575,8.392758483196921 C 19.32581629951807,8.327629907633227 20.50387080530765,7.615079135999814 20.67441936335159,7.778894061654963 20.98140676783068,7.890164577194307 19.35528973964605,8.47543865793796 19.3444717728575,8.392758483196921 Z"
     id="path7"
     style="fill:#3F51B5;fill-opacity:1;fill-rule:evenodd;stroke:#3F51B5;stroke-width:0.0662324488pt;stroke-linecap:butt;stroke-linejoin:miter;stroke-opacity:1"
     inkscape:connector-curvature="0" />
  <path
     d="M 19.90711643327819,9.040732616347684 C 19.8033522620411,8.978032563940587 20.61238163544176,8.034661705012762 20.81085820978674,8.136990839839125 21.10062517733712,8.42488122131394 19.89353878108441,9.063141261838241 19.90711643327819,9.040732616347684 Z"
     id="path8"
     style="fill:#3F51B5;fill-opacity:1;fill-rule:evenodd;stroke:#3F51B5;stroke-width:0.0662324488pt;stroke-linecap:butt;stroke-linejoin:miter;stroke-opacity:1"
     inkscape:connector-curvature="0" />
  <path
     d="M 23.09565695049447,4.675683017168752 C 22.99730176265166,4.59432749142222 22.2260248855947,5.811238367717614 22.39657344363864,5.93752157186147 22.49912335329742,6.014240826127191 23.13959114214593,4.719065271739151 23.09565695049447,4.675683017168752 Z"
     id="path13"
     style="fill:#ffffff;fill-opacity:1;fill-rule:evenodd;stroke:#3F51B5;stroke-width:0.0662324488pt;stroke-linecap:butt;stroke-linejoin:miter;stroke-opacity:1"
     inkscape:connector-curvature="0" />
  <ellipse
     cx="19.6072883605957"
     cy="6.417422294616699"
     rx="0.3076539039611816"
     ry="0.3502807319164276"
     id="ellipse17"
     style="fill:#3F51B5;fill-opacity:1;fill-rule:evenodd;stroke:#3F51B5;stroke-width:0.0615653336pt;stroke-linecap:butt;stroke-linejoin:miter;stroke-opacity:1" />
  <path
     d="m 22.20901418475679,4.505175302468813 c -0.0486808505485,-0.05651835709935 -0.3069874044791,1.254884147471512 -0.18754822014023,1.312947928397802 0.10254990965877,0.07671925426571 0.28115674908603,-1.244728505180228 0.18754822014023,-1.312947928397802 z"
     id="path18"
     style="fill:#ffffff;fill-opacity:1;fill-rule:evenodd;stroke:#3F51B5;stroke-width:0.0662324488pt;stroke-linecap:butt;stroke-linejoin:miter;stroke-opacity:1"
     inkscape:connector-curvature="0" />
  <path
     d="m 18.91673157378665,6.279943336943873 c -0.30588353031699,0.216248948354744 0.16789926005491,1.440003844455125 0.94712403107896,0.725466099329941 -0.61220861029881,0.01799314884218 -0.8164253302867,-0.161276015082325 -0.94712403107896,-0.725466099329942 z"
     id="path21"
     style="fill:#3F51B5;fill-opacity:1;fill-rule:evenodd;stroke:#3F51B5;stroke-width:0.0662324488pt;stroke-linecap:butt;stroke-linejoin:miter;stroke-opacity:1"
     inkscape:connector-curvature="0" />
</svg>
