<?xml version="1.0" encoding="UTF-8" standalone="no"?>
<svg
   xmlns:dc="http://purl.org/dc/elements/1.1/"
   xmlns:cc="http://creativecommons.org/ns#"
   xmlns:rdf="http://www.w3.org/1999/02/22-rdf-syntax-ns#"
   xmlns:svg="http://www.w3.org/2000/svg"
   xmlns="http://www.w3.org/2000/svg"
   xmlns:sodipodi="http://sodipodi.sourceforge.net/DTD/sodipodi-0.dtd"
   xmlns:inkscape="http://www.inkscape.org/namespaces/inkscape"
   fill="#8BC34A"
   width="48"
   height="48"
   viewBox="0 0 48 48"
   id="svg2"
   version="1.1"
   inkscape:version="0.91 r13725"
   sodipodi:docname="media-optical-cd-audio.svg">
  <metadata
     id="metadata10">
    <rdf:RDF>
      <cc:Work
         rdf:about="">
        <dc:format>image/svg+xml</dc:format>
        <dc:type
           rdf:resource="http://purl.org/dc/dcmitype/StillImage" />
      </cc:Work>
    </rdf:RDF>
  </metadata>
  <defs
     id="defs8" />
  <sodipodi:namedview
     pagecolor="#ffffff"
     bordercolor="#666666"
     borderopacity="1"
     objecttolerance="10"
     gridtolerance="10"
     guidetolerance="10"
     inkscape:pageopacity="0"
     inkscape:pageshadow="2"
     inkscape:window-width="1366"
     inkscape:window-height="713"
     id="namedview6"
     showgrid="false"
     inkscape:snap-bbox="true"
     inkscape:bbox-nodes="true"
     inkscape:snap-page="true"
     inkscape:zoom="5.368001304915683"
     inkscape:cx="-0.4517725505153436"
     inkscape:cy="8.956571763683083"
     inkscape:window-x="0"
     inkscape:window-y="30"
     inkscape:window-maximized="1"
     inkscape:current-layer="svg2" />
  <path
     d="m 20,0 c -11.05,0 -20,8.949999999999999 -20,20 0,11.05 8.949999999999999,20 20,20 11.05,0 20,-8.95 20,-20 0,-11.05 -8.95,-20 -20,-20 z m 0,29 c -4.97,0 -9,-4.03 -9,-9 0,-4.97 4.03,-9 9,-9 4.97,0 9,4.03 9,9 0,4.97 -4.03,9 -9,9 z m 0,-11 c -1.1,0 -2,0.9 -2,2 0,1.1 0.9,2 2,2 1.1,0 2,-0.9 2,-2 0,-1.1 -0.9,-2 -2,-2 z"
     id="path4"
     inkscape:connector-curvature="0" />
  <path
     style="fill:#8BC34A"
     d="m 48,31.99999999999999 -6,0 L 42,43 c 0,2.76000000000001 -2.23999999999999,5 -5,5 -2.76,0 -5,-2.23999999999999 -5,-5 0,-2.75999999999997 2.24,-5 5,-5 1.13,0 2.16000000000001,0.39000000000001 3,1.02000000000001 L 40,28 l 8,0 0,4 z"
     id="path4154"
     inkscape:connector-curvature="0" />
</svg>
