<?xml version="1.0" encoding="UTF-8" standalone="no"?>
<svg
   xmlns:dc="http://purl.org/dc/elements/1.1/"
   xmlns:cc="http://creativecommons.org/ns#"
   xmlns:rdf="http://www.w3.org/1999/02/22-rdf-syntax-ns#"
   xmlns:svg="http://www.w3.org/2000/svg"
   xmlns="http://www.w3.org/2000/svg"
   xmlns:sodipodi="http://sodipodi.sourceforge.net/DTD/sodipodi-0.dtd"
   xmlns:inkscape="http://www.inkscape.org/namespaces/inkscape"
   fill="#795548"
   width="48"
   height="48"
   viewBox="0 0 48 48"
   id="svg2"
   version="1.1"
   inkscape:version="0.91 r13725"
   sodipodi:docname="gnome-logs.svg">
  <metadata
     id="metadata10">
    <rdf:RDF>
      <cc:Work
         rdf:about="">
        <dc:format>image/svg+xml</dc:format>
        <dc:type
           rdf:resource="http://purl.org/dc/dcmitype/StillImage" />
      </cc:Work>
    </rdf:RDF>
  </metadata>
  <defs
     id="defs8" />
  <sodipodi:namedview
     pagecolor="#ffffff"
     bordercolor="#666666"
     borderopacity="1"
     objecttolerance="10"
     gridtolerance="10"
     guidetolerance="10"
     inkscape:pageopacity="0"
     inkscape:pageshadow="2"
     inkscape:window-width="1366"
     inkscape:window-height="713"
     id="namedview6"
     showgrid="false"
     inkscape:snap-bbox="true"
     inkscape:bbox-nodes="true"
     inkscape:snap-bbox-edge-midpoints="false"
     inkscape:zoom="5.368001304915684"
     inkscape:cx="4.100481949784701"
     inkscape:cy="31.79484632604608"
     inkscape:window-x="0"
     inkscape:window-y="30"
     inkscape:window-maximized="1"
     inkscape:current-layer="svg2" />
  <path
     style="fill:#795548"
     d="M 12 4 C 9.789999999999999 4 8.019531249999998 5.790000000000001 8.01953125 8 L 8 40 C 8 42.21 9.770468750000001 44 11.98046875 44 L 36 44 C 38.21 44 40 42.21 40 40 L 40 16 L 28 4 L 12 4 z M 26 7 L 37 18 L 26 18 L 26 7 z M 20.98046875 24 L 22.3984375 25.173828125 L 18.392578125 29.99609375 L 22.3984375 34.826171875 L 20.98046875 36 L 16 29.99609375 L 20.98046875 24 z M 27.01953125 24 L 32 30.001953125 L 27.01953125 36 L 25.6015625 34.826171875 L 29.607421875 30.001953125 L 25.6015625 25.173828125 L 27.01953125 24 z "
     id="path4297" />
</svg>
