<svg xmlns="http://www.w3.org/2000/svg" fill="#FF5722" viewBox="0 0 48 48"><path d="m44 11.44l-9.19-7.71-2.57 3.06 9.19 7.71 2.57-3.06"/><path d="m15.76 6.78l-2.57-3.06-9.19 7.71 2.57 3.06 9.19-7.71"/><path d="m23.99 8c-9.95 0-17.99 8.06-17.99 18 0 9.94 8.04 18 17.99 18 9.95 0 18.01-8.06 18.01-18 0-9.94-8.06-18-18.01-18m.01 4c7.73 0 14 6.27 14 14 0 7.73-6.26 14-14 14-7.73 0-14-6.27-14-14 0-7.73 6.27-14 14-14"/><text x="23.94" y="33.71" font-family="Roboto" letter-spacing="0" word-spacing="0" text-anchor="middle" text-align="center" fill="#FF5722" line-height="125%" font-size="15"><tspan x="23.94" y="33.71" text-align="center" line-height="125%" font-weight="bold" font-size="22.5">Z</tspan></text></svg>