<svg xmlns="http://www.w3.org/2000/svg" viewBox="0 0 22 22"><defs><filter color-interpolation-filters="sRGB"><feGaussianBlur stdDeviation="1.71"/></filter><linearGradient y1="-22.713" x2="0" y2="62.786" gradientUnits="userSpaceOnUse" gradientTransform="matrix(1.0059 0 0-.9942 9.91 69.42)"><stop/><stop offset="1" stop-opacity=".588"/></linearGradient></defs><path d="m11.584 6.689l-2.299 5.422h3.171m-8.455-10.111c-1.108 0-2 .892-2 2v14c0 1.108.892 2 2 2h14c1.108 0 2-.892 2-2v-14c0-1.108-.892-2-2-2h-14m6.754 1.975c.009-.001.018-.001.027 0h2.764c.06 0 .117.047.127.105l2.277 12.848c.012.073-.051.147-.125.146h-2.49c-.06 0-.117-.047-.127-.105l-.492-2.883h-4.316l-1.35 2.918c-.021.041-.067.07-.113.07h-2.109c-.086-.002-.149-.105-.111-.182l5.955-12.848c.016-.034.047-.061.084-.07z" fill="#00C853"/></svg>