<svg xmlns="http://www.w3.org/2000/svg" xmlns:xlink="http://www.w3.org/1999/xlink" viewBox="0 0 256 256"><defs><linearGradient id="5" gradientUnits="userSpaceOnUse" x1="164" y1="161" x2="109" y2="217" xlink:href="#4"/><linearGradient id="4" gradientUnits="userSpaceOnUse" y1="140" x2="0" y2="60"><stop offset="0%" stop-opacity=".15"/><stop offset="30%" stop-opacity=".06"/><stop offset="100%" stop-opacity=".03"/></linearGradient><linearGradient id="6" gradientUnits="userSpaceOnUse" x1="139" y1="179" x2="147" y2="100" xlink:href="#4"/><linearGradient id="3" gradientUnits="userSpaceOnUse" x1="187" y1="220" x2="138" y2="102"><stop offset="0%" stop-color="#e4b022"/><stop offset="30%" stop-color="#fcd209"/></linearGradient><linearGradient id="1" gradientUnits="userSpaceOnUse" y1="16" x2="0" y2="107"><stop offset="0%" stop-color="#f06b59"/><stop offset="100%" stop-color="#df2227"/></linearGradient><linearGradient id="0" y1="0%" x2="0" y2="100%"><stop offset="0%" stop-color="#81b4e0"/><stop offset="100%" stop-color="#0c5a94"/></linearGradient><linearGradient id="2" gradientUnits="userSpaceOnUse" x1="72" y1="225" x2="118" y2="149"><stop offset="0%" stop-color="#388b41"/><stop offset="100%" stop-color="#4cb749"/></linearGradient></defs><circle fill="#fff" r="110" cy="128" cx="128"/><g fill-opacity=".1"><path d="M198 148A70 70 0 0 0 58 148H78A50 50 0 0 1 178 148"/><circle r="38" cy="142" cx="133"/></g><circle fill="url(#0)" r="41" cy="128" cx="128"/><path fill="url(#1)" d="M228 78A112 112 0 0 0 35 65L80 143A50 50 0 0 1 127 78"/><path fill="url(#2)" d="M35 65A112 112 0 0 0 119 239L166 159A50 50 0 0 1 80 143"/><path fill="url(#3)" d="M119 239A112 112 0 0 0 228 78H127A50 50 0 0 1 166 159"/><path fill="url(#4)" d="m35 65l45 78a50 50 0 0 1 2 -34l-45-47"/><path fill="url(#5)" d="m119 239l47-80a50 50 0 0 1 -29 17l-20 63"/><path fill="url(#6)" d="m228 78h-101a50 50 0 0 1 39 19l64-16"/></svg>