<?xml version="1.0" encoding="UTF-8" standalone="no"?>
<svg
   xmlns:dc="http://purl.org/dc/elements/1.1/"
   xmlns:cc="http://creativecommons.org/ns#"
   xmlns:rdf="http://www.w3.org/1999/02/22-rdf-syntax-ns#"
   xmlns:svg="http://www.w3.org/2000/svg"
   xmlns="http://www.w3.org/2000/svg"
   xmlns:xlink="http://www.w3.org/1999/xlink"
   xmlns:sodipodi="http://sodipodi.sourceforge.net/DTD/sodipodi-0.dtd"
   xmlns:inkscape="http://www.inkscape.org/namespaces/inkscape"
   fill="#9C27B0"
   width="48"
   height="48"
   viewBox="0 0 48 48"
   id="svg2"
   version="1.1"
   inkscape:version="0.91 r13725"
   sodipodi:docname="text-x-java15.svg">
  <metadata
     id="metadata10">
    <rdf:RDF>
      <cc:Work
         rdf:about="">
        <dc:format>image/svg+xml</dc:format>
        <dc:type
           rdf:resource="http://purl.org/dc/dcmitype/StillImage" />
        <dc:title></dc:title>
      </cc:Work>
    </rdf:RDF>
  </metadata>
  <defs
     id="defs8">
    <linearGradient
       id="linearGradient5723">
      <stop
         offset="0"
         style="stop-color:#ff7700;stop-opacity:1"
         id="stop5725" />
      <stop
         offset="1"
         style="stop-color:#ffb15d;stop-opacity:1"
         id="stop5727" />
    </linearGradient>
    <linearGradient
       x1="64"
       y1="60"
       x2="62"
       y2="7"
       id="linearGradient3724"
       xlink:href="#linearGradient3763"
       gradientUnits="userSpaceOnUse"
       gradientTransform="matrix(1.231823,0,0,1.231823,-157.81615,7.1708322)" />
    <linearGradient
       id="linearGradient3763">
      <stop
         id="stop3765"
         style="stop-color:#ff7700;stop-opacity:1"
         offset="0" />
      <stop
         id="stop3767"
         style="stop-color:#ffb15d;stop-opacity:1"
         offset="1" />
    </linearGradient>
    <clipPath
       id="clipPath3716">
      <path
         d="m -118,6 c -3.324,0 -6,2.676 -6,6 l 0,72 c 0,3.324 2.676,6 6,6 l 72,0 c 3.324,0 6,-2.676 6,-6 l 0,-72 c 0,-3.324 -2.676,-6 -6,-6 l -72,0 z m 42.53125,9.4375 c 0,0 6.742786,6.784262 -6.4375,17.1875 -10.569721,8.348428 -2.406258,13.091934 0,18.53125 -6.170339,-5.566626 -10.691951,-10.439321 -7.65625,-15 4.457852,-6.693689 16.821977,-9.970594 14.09375,-20.71875 z m 8.125,13.34375 c -14.197756,8.233791 -11.545654,10.600025 -8.125,15.40625 3.661158,5.156183 -4.3125,9.25 -4.3125,9.25 0,0 3.954627,-3.226804 0.8125,-6.84375 -10.643745,-12.265213 11.625144,-17.8125 11.625,-17.8125 z m 3.59375,21.875 c 6.598371,-0.338475 10.187997,8.957958 -4.59375,12.84375 -1.44e-4,0 0.16215,-0.192534 0.21875,-0.34375 12.215092,-6.34575 6.567276,-12.446464 2.625,-11.625 -0.964039,0.201189 -1.40625,0.375 -1.40625,0.375 0,0 0.378571,-0.570411 1.0625,-0.8125 0.731171,-0.256932 1.41116,-0.40248 2.09375,-0.4375 z m -26.40625,0.625 c 0.519115,-0.01358 0.8125,0 0.8125,0 0,0 -11.82939,2.822105 -4.1875,3.84375 3.227673,0.431901 9.630792,0.315402 15.625,-0.1875 4.897387,-0.41102 9.8125,-1.25 9.8125,-1.25 0,0 -1.719415,0.709928 -2.96875,1.5625 -12.017218,3.160705 -35.24553,1.700167 -28.5625,-1.53125 4.236968,-2.049735 7.911406,-2.39676 9.46875,-2.4375 z m -1.9375,7.40625 c 0,0 -2.823626,2.059601 1.4375,2.5 5.511613,0.569005 9.87295,0.637302 17.40625,-0.8125 0,0 1.050477,1.047931 2.6875,1.625 -15.407629,4.506818 -32.55548,0.346355 -21.53125,-3.3125 z m 1.53125,7.125 c 0,0 -2.476708,1.449143 1.78125,1.9375 5.159208,0.589021 7.816289,0.511854 13.5,-0.5625 0,0 1.474997,0.907513 3.5625,1.71875 -12.745505,5.460632 -28.85383,-0.296827 -18.84375,-3.09375 z m -6.46875,4.71875 c 0.614519,0.02364 1.14585,0.147618 1.46875,0.375 0,0 -0.852618,-0.05906 -2.28125,0.25 -1.370161,0.295952 -5.69609,1.676512 -3.375,2.6875 6.461397,2.810602 29.707491,2.165274 37.0625,-0.0625 3.867966,-1.173437 2.03125,-2.71875 2.03125,-2.71875 6.739204,3.040884 -14.609199,9.149373 -40.59375,4.9375 -8.33743,-1.353006 1.38587,-5.63424 5.6875,-5.46875 z M -58,74.375 c -0.426144,5.547328 -18.43383,6.718207 -30.15625,5.96875 -7.704246,-0.495845 -9.1875,-1.71875 -9.1875,-1.71875 7.318718,1.208433 19.649918,1.415115 29.65625,-0.46875 C -58.817879,76.487689 -58,74.375 -58,74.375 Z"
         inkscape:connector-curvature="0"
         id="path3718"
         style="display:inline;fill:#ff00ff;fill-opacity:1;fill-rule:nonzero;stroke:none" />
    </clipPath>
    <filter
       style="color-interpolation-filters:sRGB"
       x="-0.16965857"
       y="-0.1250829"
       width="1.3393171"
       height="1.2501658"
       id="filter3720">
      <feGaussianBlur
         id="feGaussianBlur3722"
         stdDeviation="3.3931715" />
    </filter>
    <linearGradient
       x1="64"
       y1="60"
       x2="62"
       y2="7"
       id="linearGradient3769"
       xlink:href="#linearGradient3763"
       gradientUnits="userSpaceOnUse"
       gradientTransform="matrix(0.57151406,0,0,0.57151406,-21.074833,11.838275)" />
    <linearGradient
       inkscape:collect="always"
       xlink:href="#linearGradient3763"
       id="linearGradient4180"
       gradientUnits="userSpaceOnUse"
       gradientTransform="matrix(0.57151406,0,0,0.57151406,-21.074833,11.838275)"
       x1="64"
       y1="60"
       x2="62"
       y2="7" />
    <linearGradient
       inkscape:collect="always"
       xlink:href="#linearGradient3763"
       id="linearGradient5745"
       x1="-2.1460953"
       y1="30.781292"
       x2="30.348743"
       y2="30.781292"
       gradientUnits="userSpaceOnUse" />
  </defs>
  <sodipodi:namedview
     pagecolor="#ffffff"
     bordercolor="#666666"
     borderopacity="1"
     objecttolerance="10"
     gridtolerance="10"
     guidetolerance="10"
     inkscape:pageopacity="0"
     inkscape:pageshadow="2"
     inkscape:window-width="1366"
     inkscape:window-height="713"
     id="namedview6"
     showgrid="false"
     inkscape:snap-bbox="true"
     inkscape:bbox-paths="true"
     inkscape:bbox-nodes="true"
     inkscape:snap-bbox-edge-midpoints="true"
     inkscape:snap-object-midpoints="true"
     inkscape:snap-bbox-midpoints="true"
     inkscape:snap-midpoints="true"
     inkscape:object-paths="true"
     inkscape:zoom="9.8333334"
     inkscape:cx="19.725204"
     inkscape:cy="11.612667"
     inkscape:window-x="0"
     inkscape:window-y="30"
     inkscape:window-maximized="1"
     inkscape:current-layer="svg2"
     inkscape:snap-intersection-paths="false"
     inkscape:snap-smooth-nodes="true"
     inkscape:object-nodes="true" />
  <path
     d="M28 4H12C9.79 4 8.02 5.79 8.02 8L8 40c0 2.21 1.77 4 3.98 4H36c2.21 0 4-1.79 4-4V16L28 4zm4 32H16v-4h16v4zm0-8H16v-4h16v4zm-6-10V7l11 11H26z"
     id="path4" />
  <path
     style="color:#000000;font-style:normal;font-variant:normal;font-weight:normal;font-stretch:normal;font-size:medium;line-height:normal;font-family:sans-serif;text-indent:0;text-align:start;text-decoration:none;text-decoration-line:none;text-decoration-style:solid;text-decoration-color:#000000;letter-spacing:normal;word-spacing:normal;text-transform:none;direction:ltr;block-progression:tb;writing-mode:lr-tb;baseline-shift:baseline;text-anchor:start;white-space:normal;clip-rule:nonzero;display:inline;overflow:visible;visibility:visible;opacity:0.6;isolation:auto;mix-blend-mode:normal;color-interpolation:sRGB;color-interpolation-filters:linearRGB;solid-color:#000000;solid-opacity:1;fill:#ffffff;fill-opacity:1;fill-rule:evenodd;stroke:none;stroke-width:4.3107357;stroke-linecap:butt;stroke-linejoin:miter;stroke-miterlimit:4;stroke-dasharray:none;stroke-dashoffset:0;stroke-opacity:1;filter:url(#filter3720);color-rendering:auto;image-rendering:auto;shape-rendering:auto;text-rendering:auto;enable-background:accumulate"
     d="m -79.498047,8.3671875 1.931641,7.6093745 c 0.58017,2.285647 0.358028,3.918907 -0.306641,5.431641 -0.664668,1.512734 -1.864119,2.925567 -3.400391,4.318359 -3.072542,2.785585 -7.437324,5.259304 -10.085937,9.236329 -1.988314,2.987139 -1.424884,6.57722 0.333984,9.449218 1.758869,2.871998 4.552359,5.539599 7.675782,8.357422 l 3.183593,-2.302734 c -0.356297,0.736918 -0.988281,1.30664 -0.988281,1.306641 l 0.744141,1.134765 c -3.135943,0.201906 -5.918882,0.279224 -8.445313,0.244141 l -0.378906,-4.019532 c 0,0 -0.387253,-0.01706 -0.964844,-0.002 -1.777203,0.04649 -5.757524,0.416196 -10.351561,2.638672 -0.54223,0.262181 -1.01529,0.534632 -1.47266,0.976563 -0.45736,0.441931 -0.98025,1.22517 -0.92578,2.207031 0.0545,0.981861 0.64442,1.676203 1.11524,2.052734 0.47081,0.376531 0.92384,0.583181 1.4082,0.767579 1.060306,0.403665 2.387421,0.670532 3.878905,0.873046 -0.36808,0.337781 -0.734953,0.690959 -0.966797,1.234375 -0.280603,0.657704 -0.317896,1.533542 -0.07031,2.220703 0.495168,1.374323 1.500389,1.916092 2.484375,2.373047 0.40703,0.189022 0.964758,0.279947 1.427734,0.427735 -0.257343,0.15695 -0.63953,0.212884 -0.871094,0.408203 -0.809533,0.682824 -1.314725,2.045487 -1.109375,3.232422 -0.431188,-0.109776 -0.860865,-0.147214 -1.298828,-0.164063 -2.926258,-0.112577 -6.358738,0.940255 -8.822268,2.496094 -0.61588,0.38896 -1.17858,0.807977 -1.66797,1.451172 -0.48938,0.643195 -0.93565,1.778631 -0.57031,2.894531 0.36534,1.115901 1.22573,1.715125 2.03906,2.097656 0.81334,0.382532 1.73293,0.619771 2.89649,0.808594 0.70359,0.114046 1.3565,0.144597 2.05273,0.244141 l 2.308596,1.90625 c 0,0 0.408294,0.301126 0.802735,0.488281 0.39444,0.187155 0.93787,0.394487 1.705078,0.607422 1.534414,0.42587 3.969946,0.87223 7.927734,1.126953 6.002479,0.38376 13.514667,0.285446 19.761719,-0.640625 3.123526,-0.463036 5.922634,-1.114375 8.169922,-2.136719 2.013195,-0.91585 3.795254,-2.349763 4.300781,-4.453125 0.0095,-0.02039 0.05078,-0.0957 0.05078,-0.0957 l -0.02344,-0.0059 c 0.04607,-0.21254 0.150527,-0.394046 0.167969,-0.621094 l -3.34375,-0.771484 c 0.239708,-0.438398 0.500288,-0.865066 0.486328,-1.494141 -0.01894,-0.853602 -0.452611,-1.630462 -0.933594,-2.119141 -0.315466,-0.320513 -0.685461,-0.489301 -1.042969,-0.691406 -0.0046,-0.0032 -0.05469,-0.05664 -0.05469,-0.05664 l -0.0078,0.01367 c -0.167124,-0.09164 -0.307826,-0.240649 -0.484375,-0.320312 l -1.6875,2.697266 c 0.04973,-0.101308 0.05361,-0.07079 -0.207031,0.0957 -0.105647,0.06749 -0.452053,0.171669 -0.603516,0.248047 -0.04839,-0.126421 -0.123821,-0.02943 -0.111328,-0.277344 0.01931,-0.383152 0.299376,-0.714686 0.261719,-0.683594 -0.03766,0.03109 -0.40701,0.273513 -1.205078,0.515625 -3.131631,0.948157 -10.849703,1.74531 -18.269532,1.835937 -1.87695,0.02293 -3.516342,-0.119749 -5.30664,-0.179687 l -0.949219,-0.667969 c 4.892885,1.054172 11.900797,1.013168 18.455078,-1.794922 l 4.851563,-2.078125 -4.919922,-1.912109 c -1.897419,-0.737367 -3.228516,-1.556641 -3.228516,-1.556641 l -0.40625,-0.251953 c 1.534585,-0.294782 3.075072,-0.592462 4.615235,-1.042968 l 0.896484,-0.261719 0.970703,1.851562 0.269531,-0.07227 c 3.919859,-1.030444 6.763861,-2.438893 8.742188,-4.138672 1.978327,-1.69978 3.090703,-3.76886 3.189453,-5.835938 0.197499,-4.134156 -3.646162,-7.301913 -7.970703,-7.080078 -0.88262,0.04528 -1.800548,0.216989 -2.722656,0.541016 l -0.002,0.002 -0.002,0 c -1.4592,0.51651 -2.146484,1.695312 -2.146484,1.695312 l -0.564453,0.900391 c -0.462527,0.07867 -3.102602,0.401552 -5.582031,0.722656 0.0656,-0.06803 0.126648,-0.09188 0.191406,-0.162109 0.934039,-1.012908 1.831648,-2.304616 2.177734,-3.953125 0.346087,-1.648509 -0.01585,-3.608988 -1.222656,-5.308594 l -0.002,-0.002 c -0.882473,-1.239928 -1.629422,-2.247538 -1.994141,-2.986328 -0.364718,-0.73879 -0.408964,-1.033248 -0.246094,-1.564453 0.325742,-1.062411 2.717552,-3.72936 9.6875,-7.771485 l -0.576171,0.15625 -1.083985,-4.175781 -0.501953,0.291016 c -0.165524,0.09599 -0.211542,0.153644 -0.373047,0.248047 -0.03178,-0.01049 -0.06913,-0.194664 -0.09961,-0.185547 -0.625162,0.187004 -1.495061,0.464198 -2.507813,0.839844 -1.335848,0.495486 -2.915694,1.229884 -4.511718,2.085937 3.204316,-3.697803 4.370904,-7.054457 4.333984,-9.789063 -0.05119,-3.791245 -2.357422,-6.177734 -2.357422,-6.177734 l -5.546875,-5.5566405 z m -3.738281,28.4628905 c -0.17722,0.411341 -0.384113,0.804126 -0.501953,1.251953 -0.788978,2.998362 0.173264,6.511767 3.130859,9.919922 0.889839,1.024306 0.796809,1.529551 0.556641,2.099609 -1.486856,-3.222007 -3.935878,-5.688464 -4.685547,-7.830078 -0.383324,-1.095058 -0.452552,-1.979963 0.03516,-3.197265 0.25589,-0.638693 0.741404,-1.398722 1.464844,-2.244141 z m 18.169922,16.796875 c 0.726445,-0.151371 2.037084,0.512523 2.185547,1.378906 0.07423,0.433192 0.02387,1.104243 -0.830079,2.205079 -0.724703,0.934224 -2.222429,2.122139 -4.359374,3.365234 l -1.761719,-0.621094 c -1.145975,-0.403969 -1.900391,-1.121094 -1.900391,-1.121094 l -0.80664,-0.794922 -1.111329,0.214844 c -7.368857,1.418155 -11.356643,1.340265 -16.771484,0.78125 -0.102466,-0.01059 -0.02451,-0.0039 -0.111328,-0.01758 6.413508,0.225919 14.173317,-0.142871 20.03125,-1.683594 l 0.359375,-0.09375 0.308594,-0.208984 c 0.961244,-0.655973 2.58789,-1.375 2.58789,-1.375 l -0.326172,-1.107422 1.541016,-0.671875 c 0,0 0.134661,-0.07675 0.964844,-0.25 z m -26.257813,5.394531 c 0.177848,0.227527 0.312642,0.713137 0.339844,1.087891 l -0.5625,-1.085937 c 0.06886,0.0032 0.153399,-0.005 0.222656,-0.002 z m 1.009766,6.648438 c 0.280367,0.04148 0.585696,0.068 0.878906,0.103516 0.03649,0.04948 0.0501,0.03019 0.08594,0.09375 0.189671,0.336381 0.248314,0.848022 0.18164,1.167968 -0.132167,0.634226 -0.30102,0.621938 -0.298828,0.617188 l -0.847656,-1.982422 z"
     clip-path="url(#clipPath3716)"
     id="path3707"
     inkscape:connector-curvature="0"
     transform="matrix(0.46395794,0,0,0.46395794,52.145223,8.5113107)" />
  <path
     style="fill:url(#linearGradient4180);fill-opacity:1;fill-rule:evenodd;stroke-width:4.3107357;stroke-miterlimit:4;stroke-dasharray:none"
     id="path2907"
     inkscape:connector-curvature="0"
     d="m 17.127308,15.678135 c 1.265782,4.986693 -4.468436,6.502989 -6.536692,9.608579 -1.4084375,2.115964 0.691325,4.382647 3.554103,6.965328 -1.116403,-2.523614 -4.903906,-4.735111 0,-8.60843 6.115098,-4.826665 2.982589,-7.965477 2.982589,-7.965477 z m 3.76842,6.179496 c 6.7e-5,0 -10.331913,2.57855 -5.393663,8.269093 1.457814,1.678111 -0.375057,3.179047 -0.375057,3.179047 0,0 3.698923,-1.894103 2.0003,-4.286355 -1.58704,-2.229887 -2.818741,-3.341653 3.76842,-7.161785 z m 1.678823,10.162233 c -0.316693,0.01625 -0.643057,0.07725 -0.98229,0.196458 -0.317314,0.112319 -0.482215,0.375056 -0.482215,0.375056 0,0 0.19568,-0.08525 0.642954,-0.178598 1.82905,-0.381124 4.452821,2.449503 -1.214468,5.393664 -0.02626,0.07016 -0.107226,0.160738 -0.107159,0.160738 6.858109,-1.802844 5.204544,-6.104356 2.143178,-5.947318 z m -12.251832,0.285757 c -0.7225423,0.0189 -2.4277389,0.174178 -4.3935139,1.125169 -3.1006467,1.499241 7.6764969,2.180826 13.2519809,0.714392 0.579639,-0.395557 1.375206,-0.732253 1.375206,-0.732253 0,0 -2.282071,0.398679 -4.554253,0.589375 -2.78106,0.233325 -5.753579,0.289683 -7.2510837,0.0893 -3.5455146,-0.474 1.9467197,-1.785982 1.9467197,-1.785982 0,0 -0.134209,-0.0063 -0.375056,0 z m -0.9108507,3.429084 c -5.1147805,1.697555 2.8530037,3.626918 10.0014957,1.535944 -0.75951,-0.267735 -1.250187,-0.750112 -1.250187,-0.750112 -3.495135,0.672648 -5.515479,0.639051 -8.072636,0.375057 C 8.1135581,36.691267 9.4118683,35.734705 9.4118683,35.734705 Z m 0.7143927,3.304066 c -4.6442552,1.297654 2.83793,3.980148 8.751309,1.446645 -0.968514,-0.37638 -1.660963,-0.803692 -1.660963,-0.803692 -2.637003,0.498455 -3.875139,0.541179 -6.268795,0.267898 -1.9755133,-0.226577 -0.821551,-0.910851 -0.821551,-0.910851 z M 7.125812,41.235528 C 5.1300366,41.158748 0.61434375,43.143884 4.4825597,43.771621 16.538298,45.725753 26.45137,42.896408 23.324663,41.485566 c 0,0 0.848003,0.705761 -0.94657,1.250186 C 18.965678,43.769346 8.1769069,44.075474 5.1790928,42.771472 4.1022014,42.302416 6.1150592,41.658595 6.7507563,41.521286 7.4135815,41.377896 7.8044851,41.414127 7.8044851,41.414127 7.654673,41.308631 7.410923,41.246497 7.125812,41.235528 Z m 18.109851,1.785982 c 0,0 -0.385542,0.976119 -4.500673,1.750261 -4.642517,0.874034 -10.356479,0.77498 -13.7520561,0.214318 0,0 0.694049,0.57364 4.2684951,0.803691 5.43871,0.347717 13.786521,-0.194544 13.984234,-2.76827 z" />
  <path
     style="opacity:0.8;fill:#ffffff;fill-opacity:1;fill-rule:evenodd;stroke-width:4.3107357;stroke-miterlimit:4;stroke-dasharray:none"
     id="path3783"
     inkscape:connector-curvature="0"
     d="m 17.130898,16.137619 c 0.09682,0.381442 0.139803,0.744306 0.159485,1.087402 0.01132,-0.294886 0.004,-0.603719 -0.0435,-0.927916 -0.002,-0.0026 0.0019,-0.01196 0,-0.0145 -0.07371,-0.09525 -0.115989,-0.144987 -0.115989,-0.144987 z m 0.782929,2.000819 c -0.0827,1.370151 -0.913236,3.254918 -3.769659,5.5095 -1.943951,1.535419 -2.515573,2.807542 -2.435779,3.943643 0.09323,-1.018898 0.750061,-2.148231 2.435779,-3.479685 3.192384,-2.519757 3.856473,-4.580139 3.769659,-5.973458 z m 2.986729,4.19012 c 1.6e-5,0 -0.645407,0.147803 -1.536861,0.478457 -0.01268,0.0081 -0.0309,0.0064 -0.0435,0.0145 -2.798656,1.797314 -3.581059,2.926643 -3.436188,3.958142 0.15024,-1.093591 1.421092,-2.365964 5.016545,-4.451097 z M 10.15703,26.982636 c -0.13226,1.761753 1.673456,3.639672 3.987138,5.726981 -0.13955,-0.315452 -0.321123,-0.618363 -0.521952,-0.927916 -0.0093,-0.01437 -0.01959,-0.02913 -0.029,-0.0435 -1.845894,-1.706836 -3.277015,-3.27379 -3.436188,-4.755569 z m 4.030634,0.420462 c -0.07698,0.928453 0.277669,1.989306 1.319381,3.189711 0.337053,0.387986 0.487885,0.763715 0.536451,1.116399 0.05993,-0.474508 -0.04533,-1.015018 -0.536451,-1.580357 -0.869247,-1.001668 -1.256772,-1.914021 -1.319381,-2.725753 z m 3.363695,3.117217 c -0.124265,1.037868 -1.050285,1.873291 -1.725343,2.348788 -0.277894,0.549632 -0.695937,0.898918 -0.695937,0.898918 0,0 2.667066,-1.365935 2.42128,-3.247706 z m 5.016546,1.957323 c -0.316693,0.01625 -0.63218,0.08378 -0.971412,0.202982 -0.317315,0.112319 -0.492956,0.376965 -0.492956,0.376965 0,0 0.205168,-0.08064 0.652441,-0.173984 0.914525,-0.190562 2.027637,0.421833 2.2038,1.449869 0.100182,-0.939425 -0.543859,-1.61919 -1.304881,-1.855832 -0.02845,6.96e-4 -0.05829,-0.0015 -0.08699,0 z m -12.25139,0.289974 c -0.4053899,0.01061 -1.1187981,0.07706 -2.015317,0.289973 -0.6060423,0.263995 -0.9791327,0.555996 -0.5654488,0.782929 0.6480917,-0.518612 2.9577318,-1.072902 2.9577318,-1.072902 0,0 -0.136118,-0.0063 -0.376966,0 z m 10.236072,1.116399 c 0,0 -0.563221,0.08452 -1.261385,0.188482 -0.0382,0.02452 -0.07926,0.04743 -0.11599,0.07249 -4.554971,1.198024 -12.5771892,0.958379 -13.6722604,0.0145 -1.3504238,1.304847 8.4452444,1.824241 13.6722604,0.449459 0.579639,-0.395558 1.377375,-0.724934 1.377375,-0.724934 z m 4.654078,0.492955 c -0.111546,1.070066 -1.079382,2.281861 -3.421689,3.160713 -0.363699,0.243192 -0.77219,0.492828 -1.246887,0.739433 -0.02626,0.07016 -0.101558,0.159486 -0.101491,0.159486 3.743509,-0.984086 4.943367,-2.718083 4.770067,-4.059632 z M 9.4175968,36.2038 c -0.149053,0.04947 -0.293285,0.09523 -0.4204619,0.144987 0.00116,0.06734 0.020628,0.139666 0.072493,0.202982 C 9.1915486,36.350706 9.4175968,36.2038 9.4175968,36.2038 Z m -1.5513594,0.88442 c -0.7987871,1.360716 5.6413486,2.378108 11.5409536,0.652441 -0.24602,-0.08673 -0.441377,-0.196395 -0.623443,-0.304472 C 13.760694,38.736191 8.5417291,38.143801 7.8662374,37.08822 Z m 2.2617946,2.421281 c -0.104057,0.02908 -0.1979371,0.0566 -0.2899734,0.08699 0.020048,0.02744 0.050991,0.04589 0.086992,0.07249 0.094663,-0.0988 0.2029812,-0.159485 0.2029812,-0.159485 z m -1.3773748,0.739433 c -0.782684,1.310938 5.2045868,2.801911 10.1200828,0.695936 -0.200585,-0.07795 -0.377747,-0.153907 -0.55095,-0.231979 -4.207111,1.552893 -8.9654576,0.634691 -9.5691328,-0.463957 z m -1.6238528,1.449868 c -0.441931,-0.017 -1.0096972,0.0694 -1.5803567,0.21748 -0.5133472,0.228118 -0.8998859,0.517847 -0.5364514,0.768431 0.00255,-0.0023 0.011877,0.0023 0.014499,0 0.3718901,-0.320586 1.3223572,-0.608893 1.7253436,-0.695937 0.6628252,-0.14339 1.0584041,-0.11599 1.0584041,-0.11599 C 7.6584306,41.767291 7.4119154,41.709771 7.1268044,41.698802 Z M 23.321836,41.94528 c 0,0 0.07209,0.07036 0.130488,0.173984 0.01548,-0.02557 0.03365,-0.04769 0.0435,-0.07249 -0.05442,-0.03094 -0.108077,-0.07175 -0.173985,-0.101491 z m 0.507454,0.376966 c -0.09537,0.151544 -0.289389,0.296887 -0.55095,0.449459 -0.0074,0.0061 -0.02121,0.0084 -0.029,0.0145 -0.174619,0.136892 -0.440428,0.290164 -0.869921,0.420461 -0.08954,0.02712 -0.205053,0.04639 -0.304473,0.07249 -3.126146,1.033279 -9.911247,1.737114 -17.5869053,0.492955 -0.8260252,-0.134048 -1.2677818,-0.326403 -1.4353699,-0.55095 -0.2438443,0.409321 0.070357,0.793392 1.4353699,1.014908 11.0725343,1.794763 20.3260683,-0.44343 19.3412463,-1.913826 z m 1.406373,1.159894 c 0,0 -0.0809,0.161619 -0.434961,0.405964 -0.01161,0.01173 -0.03146,0.01738 -0.0435,0.029 -1.59169,1.53523 -6.891331,2.037258 -11.352471,1.957323 -0.0049,-8.9e-5 -0.0096,8.9e-5 -0.0145,0 -2.433253,0.01441 -4.7106308,-0.140131 -6.4084194,-0.420462 0,0 0.6881674,0.567376 4.2626134,0.797427 5.43871,0.347717 13.793519,-0.195522 13.991232,-2.769249 z" />
  <path
     style="fill:url(#linearGradient3769);fill-opacity:1;fill-rule:evenodd;stroke-width:4.3107357;stroke-miterlimit:4;stroke-dasharray:none"
     id="path3672"
     inkscape:connector-curvature="0"
     d="m 17.127308,15.678135 c 1.265782,4.986693 -4.468436,6.502989 -6.536692,9.608579 -1.4084375,2.115964 0.691325,4.382647 3.554103,6.965328 -1.116403,-2.523614 -4.903906,-4.735111 0,-8.60843 6.115098,-4.826665 2.982589,-7.965477 2.982589,-7.965477 z m 3.76842,6.179496 c 6.7e-5,0 -10.331913,2.57855 -5.393663,8.269093 1.457814,1.678111 -0.375057,3.179047 -0.375057,3.179047 0,0 3.698923,-1.894103 2.0003,-4.286355 -1.58704,-2.229887 -2.818741,-3.341653 3.76842,-7.161785 z m 1.678823,10.162233 c -0.316693,0.01625 -0.643057,0.07725 -0.98229,0.196458 -0.317314,0.112319 -0.482215,0.375056 -0.482215,0.375056 0,0 0.19568,-0.08525 0.642954,-0.178598 1.82905,-0.381124 4.452821,2.449503 -1.214468,5.393664 -0.02626,0.07016 -0.107226,0.160738 -0.107159,0.160738 6.858109,-1.802844 5.204544,-6.104356 2.143178,-5.947318 z m -12.251832,0.285757 c -0.7225423,0.0189 -2.4277389,0.174178 -4.3935139,1.125169 -3.1006467,1.499241 7.6764969,2.180826 13.2519809,0.714392 0.579639,-0.395557 1.375206,-0.732253 1.375206,-0.732253 0,0 -2.282071,0.398679 -4.554253,0.589375 -2.78106,0.233325 -5.753579,0.289683 -7.2510837,0.0893 -3.5455146,-0.474 1.9467197,-1.785982 1.9467197,-1.785982 0,0 -0.134209,-0.0063 -0.375056,0 z m -0.9108507,3.429084 c -5.1147805,1.697555 2.8530037,3.626918 10.0014957,1.535944 -0.75951,-0.267735 -1.250187,-0.750112 -1.250187,-0.750112 -3.495135,0.672648 -5.515479,0.639051 -8.072636,0.375057 C 8.1135581,36.691267 9.4118683,35.734705 9.4118683,35.734705 Z m 0.7143927,3.304066 c -4.6442552,1.297654 2.83793,3.980148 8.751309,1.446645 -0.968514,-0.37638 -1.660963,-0.803692 -1.660963,-0.803692 -2.637003,0.498455 -3.875139,0.541179 -6.268795,0.267898 -1.9755133,-0.226577 -0.821551,-0.910851 -0.821551,-0.910851 z M 7.125812,41.235528 C 5.1300366,41.158748 0.61434375,43.143884 4.4825597,43.771621 16.538298,45.725753 26.45137,42.896408 23.324663,41.485566 c 0,0 0.848003,0.705761 -0.94657,1.250186 C 18.965678,43.769346 8.1769069,44.075474 5.1790928,42.771472 4.1022014,42.302416 6.1150592,41.658595 6.7507563,41.521286 7.4135815,41.377896 7.8044851,41.414127 7.8044851,41.414127 7.654673,41.308631 7.410923,41.246497 7.125812,41.235528 Z m 18.109851,1.785982 c 0,0 -0.385542,0.976119 -4.500673,1.750261 -4.642517,0.874034 -10.356479,0.77498 -13.7520561,0.214318 0,0 0.694049,0.57364 4.2684951,0.803691 5.43871,0.347717 13.786521,-0.194544 13.984234,-2.76827 z" />
  <path
     style="fill:#d45500;fill-opacity:1;fill-rule:evenodd;stroke-width:4.3107357;stroke-miterlimit:4;stroke-dasharray:none"
     id="path2931"
     inkscape:connector-curvature="0"
     d="m 17.130898,15.673661 c 0.05268,0.207552 0.08679,0.413052 0.115989,0.608945 0.0019,0.0026 -0.002,0.01189 0,0.0145 0.209812,0.273307 0.6088,0.908225 0.66694,1.841333 0.09434,-1.563101 -0.782929,-2.464777 -0.782929,-2.464777 z m 0.159485,1.55136 c -0.145746,3.797785 -4.861004,5.302338 -6.698393,8.061269 -0.361793,0.54354 -0.489614,1.101117 -0.43496,1.667349 0.03551,-0.40843 0.170878,-0.806648 0.43496,-1.203391 1.910051,-2.868037 6.936013,-4.382941 6.698393,-8.525227 z m 3.610173,4.639579 c 5.5e-5,0 -7.005968,1.738725 -6.712892,5.538498 0.195347,-2.356156 3.208166,-3.86273 5.132535,-4.581585 0.0126,-0.0081 0.03082,-0.0064 0.0435,-0.0145 0.463543,-0.296748 0.957379,-0.606352 1.536861,-0.942415 z m -5.016545,4.929553 c -0.116547,0.904023 0.529775,1.674673 1.246887,2.682257 0.253757,0.357379 0.377295,0.713415 0.420461,1.043905 0.05594,-0.467239 -0.04285,-0.976049 -0.420461,-1.507863 -0.591389,-0.830936 -1.14037,-1.499886 -1.246887,-2.218299 z m -4.175622,0.88442 c -0.09184,1.518411 1.049149,2.783127 1.884829,4.059632 0.0094,0.01436 0.01968,0.02913 0.029,0.0435 0.172399,0.159091 0.342913,0.302436 0.521952,0.463958 -0.662864,-1.498396 -2.267982,-2.875572 -2.435779,-4.567086 z m 4.335107,4.030635 c -0.117958,0.933986 -0.913417,1.594855 -0.913417,1.594855 0,0 0.307845,-0.161596 0.695937,-0.43496 0.165135,-0.326614 0.277674,-0.722767 0.21748,-1.159895 z m 6.524409,0.304472 c -0.316693,0.01625 -0.63218,0.08378 -0.971412,0.202982 -0.317315,0.112319 -0.492956,0.376966 -0.492956,0.376966 0,0 0.205168,-0.08064 0.652441,-0.173985 0.295209,-0.06151 0.600506,-0.0348 0.898919,0.05799 1.349596,-0.03294 2.41056,0.8062 2.551768,1.899328 0.138944,-1.332888 -1.063019,-2.444116 -2.63876,-2.363286 z m -12.25139,0.289974 c -0.7225418,0.0189 -2.4273265,0.179906 -4.3931015,1.130897 -0.5675291,0.274415 -0.6658056,0.513464 -0.4204619,0.724935 0.090028,-0.08699 0.2266713,-0.167274 0.4204619,-0.260977 0.8628551,-0.417426 1.6764049,-0.674353 2.3777845,-0.840924 0.928139,-0.404301 2.392283,-0.753931 2.392283,-0.753931 0,0 -0.136118,-0.0063 -0.376966,0 z m 10.236072,1.116399 c 0,0 -2.280405,0.389251 -4.552587,0.579947 -2.78106,0.233325 -5.751838,0.287376 -7.2493428,0.08699 C 8.2353452,34.0181 7.9138399,33.938209 7.7357492,33.840514 7.3877191,34.119013 7.5119067,34.385341 8.7506572,34.55095 10.248162,34.751334 13.21894,34.697283 16,34.463958 c 1.26416,-0.106097 2.415635,-0.261088 3.291202,-0.391465 0.564739,-0.362465 1.261385,-0.65244 1.261385,-0.65244 z m 3.407191,0.942414 c -0.118269,0.970146 -1.025001,2.205606 -3.421689,3.450687 -0.02626,0.07016 -0.101558,0.159486 -0.101491,0.159486 0.49417,-0.129906 0.939937,-0.281711 1.348378,-0.434961 1.786599,-1.194634 2.304943,-2.32271 2.174802,-3.175212 z M 9.4175968,35.739842 C 8.028426,36.200897 7.6038284,36.678157 7.8662374,37.08822 8.007127,36.848218 8.3618772,36.597332 8.9971349,36.348787 8.9918968,36.043028 9.4175968,35.739842 9.4175968,35.739842 Z m 8.7427072,0.782929 c -3.495134,0.672647 -5.518611,0.640961 -8.075768,0.376966 -0.5989095,-0.0619 -0.8900125,-0.195507 -1.0149077,-0.347968 -0.1783041,0.294046 -0.1592271,0.690576 1.0149077,0.811926 2.557157,0.263994 4.580634,0.295681 8.075768,-0.376966 0,0 0.243437,0.223882 0.623444,0.44946 0.210161,-0.05439 0.414336,-0.09832 0.623443,-0.159486 -0.75951,-0.267736 -1.246887,-0.753932 -1.246887,-0.753932 z m -8.032272,2.522772 c -1.2415826,0.346911 -1.6074603,0.78465 -1.3773748,1.203391 0.1377941,-0.230795 0.4862586,-0.45394 1.0874014,-0.652441 -0.1924353,-0.263373 0.2899734,-0.55095 0.2899734,-0.55095 z m -0.2029812,0.623443 c -0.2082587,0.217354 -0.3287588,0.583662 1.0294062,0.739433 2.393656,0.273281 3.62643,0.237479 6.263433,-0.260976 0,0 0.438798,0.266556 1.1019,0.565448 0.187439,-0.06918 0.366157,-0.152806 0.55095,-0.231978 -0.968514,-0.37638 -1.65285,-0.797428 -1.65285,-0.797428 -2.637003,0.498455 -3.869777,0.534257 -6.263433,0.260976 -0.565624,-0.06487 -0.876337,-0.162364 -1.0294062,-0.275475 z m -2.7982464,1.565858 c -1.5695943,-0.06038 -4.6913455,1.159329 -4.0741306,1.98632 0.2941558,-0.493775 1.3967268,-1.020218 2.4937739,-1.304882 0.4243536,-0.188571 0.9336884,-0.333209 1.2033909,-0.391464 0.6628252,-0.14339 1.0584041,-0.11599 1.0584041,-0.11599 C 7.6584306,41.303333 7.4119154,41.245813 7.1268044,41.234844 Z m 16.1950316,0.246478 c 0,0 0.297816,0.253427 0.173985,0.565449 0.156137,0.08877 0.268623,0.178655 0.333469,0.275475 0.187925,-0.298632 0.03646,-0.595496 -0.507454,-0.840924 z m 0.130488,0.637942 c -0.120732,0.19948 -0.418125,0.424802 -1.072902,0.623443 -3.412415,1.033594 -14.1976273,1.332999 -17.1954414,0.029 -0.062819,-0.02736 -0.1168079,-0.05858 -0.1594856,-0.08699 -0.0026,0.0023 -0.011938,-0.0023 -0.014499,0 -0.2074059,0.183105 -0.2154272,0.381336 0.1739843,0.55095 2.9191556,1.269786 13.2013244,1.012204 16.8909684,0.0435 0.481305,-0.159085 0.87786,-0.32367 1.174394,-0.492955 0.0078,-0.0061 0.02162,-0.0084 0.029,-0.0145 0.311151,-0.256905 0.261577,-0.497003 0.173984,-0.652441 z m 1.783339,0.898918 c 0,0 -0.379462,0.980199 -4.494593,1.754341 -4.642517,0.874035 -10.363675,0.778143 -13.7592524,0.217481 0,0 0.6881674,0.567376 4.2626134,0.797427 0.675369,0.04318 1.401895,0.07345 2.145806,0.08699 0.0049,8.9e-5 0.0096,-8.9e-5 0.0145,0 2.429108,-0.01508 5.019608,-0.201779 7.336335,-0.637943 2.378994,-0.447538 3.483971,-0.964456 4.016136,-1.31938 0.01204,-0.01161 0.03188,-0.01726 0.0435,-0.029 0.257805,-0.260462 0.410247,-0.548206 0.434961,-0.869922 z" />
  <use
     x="0"
     y="0"
     xlink:href="#path3707"
     id="use5675"
     style="fill-opacity:1.0;fill-rule:nonzero;stroke:none;stroke-opacity:1;opacity:1;fill:url(#linearGradient5745)"
     transform="translate(1.0511489,10.350252)"
     width="100%"
     height="100%" />
</svg>
