<?xml version="1.0" encoding="UTF-8" standalone="no"?>
<svg
   xmlns:dc="http://purl.org/dc/elements/1.1/"
   xmlns:cc="http://creativecommons.org/ns#"
   xmlns:rdf="http://www.w3.org/1999/02/22-rdf-syntax-ns#"
   xmlns:svg="http://www.w3.org/2000/svg"
   xmlns="http://www.w3.org/2000/svg"
   xmlns:sodipodi="http://sodipodi.sourceforge.net/DTD/sodipodi-0.dtd"
   xmlns:inkscape="http://www.inkscape.org/namespaces/inkscape"
   fill="#9C27B0"
   width="48"
   height="48"
   viewBox="0 0 48 48"
   id="svg2"
   version="1.1"
   inkscape:version="0.91 r13725"
   sodipodi:docname="text-xhtml+xml2.svg">
  <metadata
     id="metadata10">
    <rdf:RDF>
      <cc:Work
         rdf:about="">
        <dc:format>image/svg+xml</dc:format>
        <dc:type
           rdf:resource="http://purl.org/dc/dcmitype/StillImage" />
        <dc:title></dc:title>
      </cc:Work>
    </rdf:RDF>
  </metadata>
  <defs
     id="defs8" />
  <sodipodi:namedview
     pagecolor="#ffffff"
     bordercolor="#666666"
     borderopacity="1"
     objecttolerance="10"
     gridtolerance="10"
     guidetolerance="10"
     inkscape:pageopacity="0"
     inkscape:pageshadow="2"
     inkscape:window-width="1366"
     inkscape:window-height="713"
     id="namedview6"
     showgrid="false"
     inkscape:snap-bbox="true"
     inkscape:bbox-paths="true"
     inkscape:bbox-nodes="true"
     inkscape:zoom="5.6568543"
     inkscape:cx="-4.8865653"
     inkscape:cy="43.254657"
     inkscape:window-x="0"
     inkscape:window-y="30"
     inkscape:window-maximized="1"
     inkscape:current-layer="svg2" />
  <path
     d="M 12 4 C 9.79 4 8.0195312 5.79 8.0195312 8 L 8 40 C 8 42.21 9.7704688 44 11.980469 44 L 36 44 C 38.21 44 40 42.21 40 40 L 40 16 L 28 4 L 12 4 z M 26 7 L 37 18 L 26 18 L 26 7 z M 24 22.859375 C 27.454278 22.859375 30.251953 25.657051 30.251953 29.111328 C 30.251953 32.565606 27.454278 35.363281 24 35.363281 C 20.545723 35.363281 17.748047 32.565606 17.748047 29.111328 C 17.748047 25.657051 20.545723 22.859375 24 22.859375 z "
     id="path4" />
  <path
     style="fill:#9C27B0;fill-opacity:1"
     d="M 24 23.857422 C 21.096799 23.857422 18.746094 26.208127 18.746094 29.111328 C 18.746094 32.01453 21.096799 34.365234 24 34.365234 C 26.903202 34.365234 29.253906 32.01453 29.253906 29.111328 C 29.253906 26.208127 26.903202 23.857422 24 23.857422 z M 25.576172 25.214844 C 27.115789 25.837521 28.203125 27.345762 28.203125 29.111328 C 28.203125 30.204298 27.78339 31.198476 27.097656 31.947266 C 26.963662 31.521638 26.569228 31.212891 26.101562 31.212891 L 25.576172 31.212891 L 25.576172 29.636719 C 25.576172 29.347712 25.339788 29.111328 25.050781 29.111328 L 21.898438 29.111328 L 21.898438 28.060547 L 22.949219 28.060547 C 23.238226 28.060547 23.474609 27.824162 23.474609 27.535156 L 23.474609 26.484375 L 24.525391 26.484375 C 25.106031 26.484375 25.576172 26.014234 25.576172 25.433594 L 25.576172 25.214844 z M 19.90625 28.171875 L 22.423828 30.6875 L 22.423828 31.212891 C 22.423828 31.793531 22.893969 32.263672 23.474609 32.263672 L 23.474609 33.279297 C 21.401645 33.021819 19.796875 31.255231 19.796875 29.111328 C 19.796875 28.788167 19.835312 28.474018 19.90625 28.171875 z "
     id="path4238" />
  <text
     xml:space="preserve"
     style="font-style:normal;font-variant:normal;font-weight:500;font-stretch:normal;font-size:15px;line-height:125%;font-family:Inconsolata;-inkscape-font-specification:'Inconsolata, Medium';text-align:start;letter-spacing:0px;word-spacing:0px;writing-mode:lr-tb;text-anchor:start;fill:#ffffff;fill-opacity:1;stroke:none;stroke-width:1px;stroke-linecap:butt;stroke-linejoin:miter;stroke-opacity:1"
     x="10.989"
     y="33.709"
     id="text4290"
     sodipodi:linespacing="125%"><tspan
       sodipodi:role="line"
       id="tspan4292"
       x="10.989"
       y="33.709">&lt;</tspan></text>
  <text
     xml:space="preserve"
     style="font-style:normal;font-variant:normal;font-weight:500;font-stretch:normal;font-size:15px;line-height:125%;font-family:Inconsolata;-inkscape-font-specification:'Inconsolata, Medium';text-align:start;letter-spacing:0px;word-spacing:0px;writing-mode:lr;text-anchor:start;fill:#ffffff;fill-opacity:1;stroke:none;stroke-width:1px;stroke-linecap:butt;stroke-linejoin:miter;stroke-opacity:1;"
     x="29.601"
     y="33.709"
     id="text4290-5"
     sodipodi:linespacing="125%"><tspan
       sodipodi:role="line"
       id="tspan4312">&gt;</tspan></text>
</svg>
