<?xml version="1.0" encoding="UTF-8" standalone="no"?>
<svg
   xmlns:dc="http://purl.org/dc/elements/1.1/"
   xmlns:cc="http://creativecommons.org/ns#"
   xmlns:rdf="http://www.w3.org/1999/02/22-rdf-syntax-ns#"
   xmlns:svg="http://www.w3.org/2000/svg"
   xmlns="http://www.w3.org/2000/svg"
   xmlns:xlink="http://www.w3.org/1999/xlink"
   xmlns:sodipodi="http://sodipodi.sourceforge.net/DTD/sodipodi-0.dtd"
   xmlns:inkscape="http://www.inkscape.org/namespaces/inkscape"
   fill="#9C27B0"
   width="48"
   height="48"
   viewBox="0 0 48 48"
   id="svg2"
   version="1.1"
   inkscape:version="0.91 r13725"
   sodipodi:docname="text-x-python.svg">
  <metadata
     id="metadata10">
    <rdf:RDF>
      <cc:Work
         rdf:about="">
        <dc:format>image/svg+xml</dc:format>
        <dc:type
           rdf:resource="http://purl.org/dc/dcmitype/StillImage" />
        <dc:title />
      </cc:Work>
    </rdf:RDF>
  </metadata>
  <defs
     id="defs8">
    <linearGradient
       id="linearGradient2795">
      <stop
         id="stop2797"
         offset="0"
         style="stop-color:#b8b8b8;stop-opacity:0.49803922;" />
      <stop
         id="stop2799"
         offset="1"
         style="stop-color:#7f7f7f;stop-opacity:0;" />
    </linearGradient>
    <linearGradient
       id="linearGradient2787">
      <stop
         id="stop2789"
         offset="0"
         style="stop-color:#7f7f7f;stop-opacity:0.5;" />
      <stop
         id="stop2791"
         offset="1"
         style="stop-color:#7f7f7f;stop-opacity:0;" />
    </linearGradient>
    <linearGradient
       id="linearGradient3676">
      <stop
         id="stop3678"
         offset="0"
         style="stop-color:#b2b2b2;stop-opacity:0.5;" />
      <stop
         id="stop3680"
         offset="1"
         style="stop-color:#b3b3b3;stop-opacity:0;" />
    </linearGradient>
    <linearGradient
       id="linearGradient3236">
      <stop
         id="stop3244"
         offset="0"
         style="stop-color:#f4f4f4;stop-opacity:1" />
      <stop
         id="stop3240"
         offset="1"
         style="stop-color:white;stop-opacity:1" />
    </linearGradient>
    <linearGradient
       id="linearGradient4671">
      <stop
         id="stop4673"
         offset="0"
         style="stop-color:#ffd43b;stop-opacity:1;" />
      <stop
         id="stop4675"
         offset="1"
         style="stop-color:#ffe873;stop-opacity:1" />
    </linearGradient>
    <linearGradient
       id="linearGradient4689">
      <stop
         id="stop4691"
         offset="0"
         style="stop-color:#5a9fd4;stop-opacity:1;" />
      <stop
         id="stop4693"
         offset="1"
         style="stop-color:#306998;stop-opacity:1;" />
    </linearGradient>
    <linearGradient
       gradientTransform="translate(100.2702,99.61116)"
       gradientUnits="userSpaceOnUse"
       xlink:href="#linearGradient4671"
       id="linearGradient2987"
       y2="144.75717"
       x2="-65.308502"
       y1="144.75717"
       x1="224.23996" />
    <linearGradient
       gradientTransform="translate(100.2702,99.61116)"
       gradientUnits="userSpaceOnUse"
       xlink:href="#linearGradient4689"
       id="linearGradient2990"
       y2="76.313133"
       x2="26.670298"
       y1="77.475983"
       x1="172.94208" />
    <linearGradient
       y2="144.75717"
       x2="-65.308502"
       y1="144.75717"
       x1="224.23996"
       gradientTransform="matrix(0.562541,0,0,0.567972,-11.5974,-7.60954)"
       gradientUnits="userSpaceOnUse"
       id="linearGradient2255"
       xlink:href="#linearGradient4671"
       inkscape:collect="always" />
    <linearGradient
       y2="76.313133"
       x2="26.670298"
       y1="76.176224"
       x1="172.94208"
       gradientTransform="matrix(0.562541,0,0,0.567972,-11.5974,-7.60954)"
       gradientUnits="userSpaceOnUse"
       id="linearGradient2258"
       xlink:href="#linearGradient4689"
       inkscape:collect="always" />
    <radialGradient
       gradientUnits="userSpaceOnUse"
       gradientTransform="matrix(1,0,0,0.177966,0,108.7434)"
       r="29.036913"
       fy="132.28575"
       fx="61.518883"
       cy="132.28575"
       cx="61.518883"
       id="radialGradient2801"
       xlink:href="#linearGradient2795"
       inkscape:collect="always" />
  </defs>
  <sodipodi:namedview
     pagecolor="#ffffff"
     bordercolor="#666666"
     borderopacity="1"
     objecttolerance="10"
     gridtolerance="10"
     guidetolerance="10"
     inkscape:pageopacity="0"
     inkscape:pageshadow="2"
     inkscape:window-width="1366"
     inkscape:window-height="713"
     id="namedview6"
     showgrid="false"
     inkscape:zoom="4.9166667"
     inkscape:cx="-10.685417"
     inkscape:cy="21.90906"
     inkscape:window-x="0"
     inkscape:window-y="30"
     inkscape:window-maximized="1"
     inkscape:current-layer="svg2"
     inkscape:snap-bbox="true"
     inkscape:bbox-paths="true"
     inkscape:bbox-nodes="true"
     inkscape:snap-bbox-edge-midpoints="true"
     inkscape:snap-bbox-midpoints="false"
     inkscape:snap-object-midpoints="false"
     inkscape:snap-others="false"
     inkscape:snap-page="true" />
  <g
     id="g4169"
     transform="matrix(1.25,0,0,1.25,-6.0000001,-6)">
    <path
       id="path4772"
       d="m 23.812613,8.0002593 c -1.305038,0.00608 -2.551192,0.1184472 -3.647793,0.3124897 -3.230445,0.5707146 -3.81862,1.765657 -3.818621,3.968616 l 0,2.908234 7.635158,0 0,0.970802 -7.635158,0 -2.864487,0 c -2.218635,0 -4.1609352,1.333874 -4.768588,3.870702 -0.7009189,2.907792 -0.7320086,4.721869 0,7.75807 0.5426481,2.260033 1.837478,3.870702 4.056113,3.870703 l 2.624911,0 0,-3.487382 c 0,-2.519707 2.181794,-4.743589 4.770672,-4.743589 l 7.624742,0 c 2.122542,0 3.816539,-1.747415 3.816538,-3.879036 l 0,-7.268504 c 0,-2.068841 -1.744869,-3.6233349 -3.816538,-3.968616 C 26.478166,8.0944503 25.117651,7.9941944 23.812613,8.0002593 Z m -4.129026,2.3415867 c 0.394264,0 0.752913,0.162866 1.012465,0.42707 0.259553,0.264203 0.420819,0.628861 0.42082,1.031215 -1e-6,0.400927 -0.161267,0.764712 -0.42082,1.027049 -0.259552,0.262336 -0.618199,0.422902 -1.012465,0.422902 -0.395681,0 -0.753267,-0.160566 -1.012466,-0.422902 -0.2592,-0.262337 -0.42082,-0.626121 -0.42082,-1.027049 0,-0.402353 0.16162,-0.767012 0.42082,-1.031215 0.259199,-0.264204 0.616785,-0.42707 1.012466,-0.42707 z"
       style="opacity:1;fill:#3776ab;fill-opacity:1;stroke:none"
       inkscape:connector-curvature="0" />
    <path
       id="path4797"
       d="m 32.558151,16.160401 0,3.389468 c 0,2.628141 -2.227755,4.839419 -4.768589,4.839419 l -7.624742,0 c -2.088626,0 -3.81862,1.78945 -3.818621,3.881119 l 0,7.268504 c 0,2.06884 1.800653,3.285494 3.818621,3.879036 2.416477,0.710539 4.73345,0.838951 7.624742,0 1.921876,-0.556446 3.816539,-1.67608 3.816538,-3.879036 l 0,-2.910317 -7.624743,0 0,-0.968718 7.624743,0 3.816538,0 c 2.218635,0 3.04496,-1.547894 3.816537,-3.870703 0.797013,-2.391295 0.763101,-4.690479 0,-7.75807 -0.5483,-2.208666 -1.59508,-3.870702 -3.816537,-3.870702 l -2.864487,0 z m -4.289438,18.40771 c 0.791361,0 1.433285,0.650181 1.433285,1.452034 -1e-6,0.804706 -0.641924,1.458285 -1.433285,1.458285 -0.788534,0 -1.431201,-0.653579 -1.431202,-1.458285 1e-6,-0.801853 0.642667,-1.452034 1.431202,-1.452034 z"
       style="opacity:1;fill:#ffd343;fill-opacity:1;stroke:none"
       inkscape:connector-curvature="0" />
  </g>
</svg>
