<?xml version="1.0" encoding="UTF-8" standalone="no"?>
<svg
   xmlns:dc="http://purl.org/dc/elements/1.1/"
   xmlns:cc="http://creativecommons.org/ns#"
   xmlns:rdf="http://www.w3.org/1999/02/22-rdf-syntax-ns#"
   xmlns:svg="http://www.w3.org/2000/svg"
   xmlns="http://www.w3.org/2000/svg"
   xmlns:sodipodi="http://sodipodi.sourceforge.net/DTD/sodipodi-0.dtd"
   xmlns:inkscape="http://www.inkscape.org/namespaces/inkscape"
   width="48"
   height="48"
   viewBox="0 0 48 48"
   id="svg2"
   version="1.1"
   inkscape:version="0.91 r13725"
   sodipodi:docname="application-default-icon.svg"
   style="fill:#FF9800">
  <metadata
     id="metadata10">
    <rdf:RDF>
      <cc:Work
         rdf:about="">
        <dc:format>image/svg+xml</dc:format>
        <dc:type
           rdf:resource="http://purl.org/dc/dcmitype/StillImage" />
        <dc:title />
      </cc:Work>
    </rdf:RDF>
  </metadata>
  <defs
     id="defs8" />
  <sodipodi:namedview
     pagecolor="#ffffff"
     bordercolor="#666666"
     borderopacity="1"
     objecttolerance="10"
     gridtolerance="10"
     guidetolerance="10"
     inkscape:pageopacity="0"
     inkscape:pageshadow="2"
     inkscape:window-width="1366"
     inkscape:window-height="713"
     id="namedview6"
     showgrid="false"
     inkscape:zoom="58.92889662072449"
     inkscape:cx="-30.24867943101069"
     inkscape:cy="12.64520986369191"
     inkscape:window-x="0"
     inkscape:window-y="30"
     inkscape:window-maximized="1"
     inkscape:current-layer="svg2"
     fit-margin-top="0"
     fit-margin-left="0"
     fit-margin-right="0"
     fit-margin-bottom="0" />
  <path
     d="M 10,6 C 7.79,6 6.000000000000001,7.790000000000001 6,10 l 0,28 c 0,2.21 1.790000000000001,4 4,4 l 28,0 c 2.21,0 4,-1.79 4,-4 L 42,10 C 42,7.79 40.21,6.000000000000001 38,6 L 10,6 Z m 14,6 c 2.19883312500002,5.16003525000001 2.71686093749999,6.74743762499997 9.12890625,18.685546875 -0.81076500000001,-0.48679687499999 -1.85195625,-0.92330156249999 -3.3046875,-1.30078125 2.11354593750001,1.08481125000002 3.14919468749999,2.0874821875 4.142578125,2.857421875 C 34.59745218749998,33.4116175 35.26013156249999,34.63784812500001 36,36 c -3.75172312500001,-2.16593718749998 -6.6728565625,-3.513063125 -9.390625,-4.044921875 0.0905390625,-0.40949343750001 0.1448809375,-0.85152625 0.15625,-1.310546875 0.0603553125,-2.43693562500001 -1.1096265625,-4.5153378125 -2.611328125,-4.642578125 -1.5017025,-0.12724125 -2.7697228125,1.74665812499999 -2.830078125,4.18359375 L 21.322265625,30.3046875 c -0.00454734375,0.57163875000001 0.05824125,1.1222484375 0.17578125,1.62890625 C 18.75071221874999,32.45046843750001 15.80275378125,33.80460374999999 12,36 16.83952921875001,27.30434906249998 19.22587865625,22.78170843750001 20.748046875,19.60546875 21.544704375,20.27545275 22.60907,20.91941465625 24.171875,21.5625 22.7182353125,20.54582840625 21.822984375,19.64994128125 21.09375,18.876953125 22.2831215625,16.33571059375 22.931735625,14.61909853125001 24,12 Z"
     id="path4188"
     inkscape:connector-curvature="0" />
</svg>
