<?xml version="1.0" encoding="UTF-8" standalone="no"?>
<svg
   xmlns:dc="http://purl.org/dc/elements/1.1/"
   xmlns:cc="http://creativecommons.org/ns#"
   xmlns:rdf="http://www.w3.org/1999/02/22-rdf-syntax-ns#"
   xmlns:svg="http://www.w3.org/2000/svg"
   xmlns="http://www.w3.org/2000/svg"
   xmlns:sodipodi="http://sodipodi.sourceforge.net/DTD/sodipodi-0.dtd"
   xmlns:inkscape="http://www.inkscape.org/namespaces/inkscape"
   width="48"
   height="48"
   viewBox="0 0 48 48"
   id="svg2"
   version="1.1"
   inkscape:version="0.91 r13725"
   sodipodi:docname="applications-system.svg"
   style="fill:#009688">
  <metadata
     id="metadata10">
    <rdf:RDF>
      <cc:Work
         rdf:about="">
        <dc:format>image/svg+xml</dc:format>
        <dc:type
           rdf:resource="http://purl.org/dc/dcmitype/StillImage" />
        <dc:title></dc:title>
      </cc:Work>
    </rdf:RDF>
  </metadata>
  <defs
     id="defs8" />
  <sodipodi:namedview
     pagecolor="#ffffff"
     bordercolor="#666666"
     borderopacity="1"
     objecttolerance="10"
     gridtolerance="10"
     guidetolerance="10"
     inkscape:pageopacity="0"
     inkscape:pageshadow="2"
     inkscape:window-width="668"
     inkscape:window-height="480"
     id="namedview6"
     showgrid="false"
     fit-margin-top="0"
     fit-margin-left="0"
     fit-margin-right="0"
     fit-margin-bottom="0"
     inkscape:zoom="8.723677317301432"
     inkscape:cx="-18.50638082797858"
     inkscape:cy="19.99999999999999"
     inkscape:window-x="0"
     inkscape:window-y="30"
     inkscape:window-maximized="0"
     inkscape:current-layer="svg2" />
  <path
     d="m 38.85499999999999,25.95 c 0.08,-0.64 0.14,-1.29 0.14,-1.95 0,-0.66 -0.06,-1.31 -0.14,-1.95 L 43.085,18.74 c 0.38000000000001,-0.3 0.49,-0.84 0.24,-1.28 l -4,-6.93 C 39.075,10.1 38.55499999999999,9.919999999999999 38.10500000000001,10.1 L 33.125,12.11 c -1.03,-0.79 -2.16000000000001,-1.46 -3.38000000000001,-1.97 l -0.75,-5.300000000000004 c -0.09,-0.470000000000002 -0.5,-0.84 -1,-0.84 l -8,0 c -0.5,0 -0.91,0.369999999999998 -0.99,0.84 l -0.75,5.300000000000004 c -1.22,0.51 -2.35,1.17 -3.38,1.97 L 9.894999999999987,10.1 c -0.449999999999998,-0.17 -0.969999999999995,0 -1.219999999999995,0.43 L 4.67499999999999,17.46 c -0.25,0.43 -0.140000000000002,0.97 0.24,1.28 l 4.219999999999999,3.31 c -0.08,0.64 -0.140000000000001,1.29 -0.140000000000001,1.95 0,0.66 0.06,1.31 0.140000000000001,1.95 L 4.914999999999987,29.26000000000001 C 4.534999999999987,29.56 4.424999999999988,30.1 4.674999999999988,30.54000000000002 L 8.674999999999991,37.47 c 0.25,0.43 0.769999999999996,0.61 1.219999999999999,0.43 l 4.979999999999999,-2.01 c 1.03,0.79 2.16,1.46 3.38,1.97 l 0.75,5.3 c 0.08,0.47000000000001 0.49,0.84 0.99,0.84 l 8,0 c 0.5,0 0.90999999999998,-0.37 0.98999999999999,-0.84 l 0.75,-5.3 c 1.22,-0.51 2.35,-1.17 3.38,-1.97 l 4.98000000000001,2.01 c 0.45000000000001,0.17 0.97,0 1.22,-0.43 l 4,-6.93 c 0.25,-0.43 0.14,-0.97 -0.24000000000001,-1.28 l -4.22,-3.31 z m -14.86,5.05 c -3.87,0 -7,-3.13 -7,-7 0,-3.87 3.13,-7 7,-7 3.86999999999999,0 7,3.13 7,7 0,3.87 -3.13000000000001,7 -7,7 z"
     id="path4"
     inkscape:connector-curvature="0" />
</svg>
