<?xml version="1.0" encoding="UTF-8" standalone="no"?>
<svg
   xmlns:dc="http://purl.org/dc/elements/1.1/"
   xmlns:cc="http://creativecommons.org/ns#"
   xmlns:rdf="http://www.w3.org/1999/02/22-rdf-syntax-ns#"
   xmlns:svg="http://www.w3.org/2000/svg"
   xmlns="http://www.w3.org/2000/svg"
   xmlns:sodipodi="http://sodipodi.sourceforge.net/DTD/sodipodi-0.dtd"
   xmlns:inkscape="http://www.inkscape.org/namespaces/inkscape"
   fill="#f57900"
   width="48"
   height="48"
   viewBox="0 0 48 48"
   id="svg2"
   version="1.1"
   inkscape:version="0.91 r13725"
   sodipodi:docname="image-xcf.svg">
  <metadata
     id="metadata10">
    <rdf:RDF>
      <cc:Work
         rdf:about="">
        <dc:format>image/svg+xml</dc:format>
        <dc:type
           rdf:resource="http://purl.org/dc/dcmitype/StillImage" />
        <dc:title></dc:title>
      </cc:Work>
    </rdf:RDF>
  </metadata>
  <defs
     id="defs8" />
  <sodipodi:namedview
     pagecolor="#ffffff"
     bordercolor="#666666"
     borderopacity="1"
     objecttolerance="10"
     gridtolerance="10"
     guidetolerance="10"
     inkscape:pageopacity="0"
     inkscape:pageshadow="2"
     inkscape:window-width="1366"
     inkscape:window-height="713"
     id="namedview6"
     showgrid="false"
     inkscape:zoom="4.9166667"
     inkscape:cx="24.074825"
     inkscape:cy="24.050928"
     inkscape:window-x="0"
     inkscape:window-y="30"
     inkscape:window-maximized="1"
     inkscape:current-layer="svg2"
     inkscape:snap-bbox="true"
     inkscape:bbox-paths="true"
     inkscape:bbox-nodes="true"
     inkscape:snap-bbox-edge-midpoints="true" />
  <path
     d="M 10 6 C 7.79 6 6 7.79 6 10 L 6 38 C 6 40.21 7.79 42 10 42 L 38 42 C 40.21 42 42 40.21 42 38 L 42 10 C 42 7.79 40.21 6 38 6 L 10 6 z M 31.59375 10.222656 C 31.736165 10.222656 31.878906 10.233398 32.025391 10.257812 C 32.171875 10.278158 32.336426 10.308919 32.519531 10.349609 L 32.367188 11.498047 C 32.285807 11.481771 32.195475 11.467285 32.09375 11.455078 C 31.996094 11.442871 31.889323 11.4375 31.775391 11.4375 C 31.453939 11.4375 31.211589 11.527832 31.048828 11.710938 C 30.890137 11.894043 30.8125 12.15625 30.8125 12.498047 L 30.8125 13.267578 L 32.154297 13.267578 L 32.154297 14.367188 L 30.8125 14.367188 L 30.8125 19.871094 L 29.328125 19.871094 L 29.328125 14.367188 L 28.320312 14.367188 L 28.320312 13.267578 L 29.328125 13.267578 L 29.328125 12.498047 C 29.328125 11.769694 29.525228 11.209147 29.919922 10.814453 C 30.318685 10.419759 30.877604 10.222656 31.59375 10.222656 z M 25.007812 13.146484 C 25.80127 13.146484 26.443197 13.37793 26.935547 13.841797 C 27.431966 14.301595 27.672526 14.887533 27.65625 15.599609 L 27.644531 15.636719 L 26.294922 15.636719 C 26.294922 15.274577 26.175618 14.967122 25.935547 14.714844 C 25.699544 14.462565 25.390299 14.335938 25.007812 14.335938 C 24.450358 14.335938 24.054199 14.538411 23.822266 14.945312 C 23.590332 15.348145 23.474609 15.856445 23.474609 16.466797 L 23.474609 16.679688 C 23.474609 17.302246 23.590332 17.815918 23.822266 18.21875 C 24.054199 18.617513 24.450358 18.816406 25.007812 18.816406 C 25.369954 18.816406 25.673665 18.709635 25.921875 18.498047 C 26.170085 18.282389 26.294922 18.014811 26.294922 17.693359 L 27.636719 17.693359 L 27.650391 17.730469 C 27.670736 18.348958 27.41748 18.880534 26.892578 19.328125 C 26.371745 19.775716 25.744303 20 25.007812 20 C 24.035319 20 23.288411 19.687174 22.767578 19.060547 C 22.250814 18.433919 21.992188 17.639974 21.992188 16.679688 L 21.992188 16.466797 C 21.992188 15.510579 22.250814 14.718424 22.767578 14.091797 C 23.288411 13.4611 24.035319 13.146484 25.007812 13.146484 z M 15.535156 13.267578 L 17.21875 13.267578 L 18.421875 15.53125 L 19.642578 13.267578 L 21.345703 13.267578 L 19.269531 16.533203 L 21.40625 19.871094 L 19.720703 19.871094 L 18.445312 17.552734 L 17.169922 19.871094 L 15.472656 19.871094 L 17.609375 16.533203 L 15.535156 13.267578 z M 29 24 L 38 36 L 10 36 L 17 27 L 22 33.009766 L 29 24 z "
     id="path4163" />
</svg>
