<?xml version="1.0" encoding="UTF-8" standalone="no"?>
<svg
   xmlns:dc="http://purl.org/dc/elements/1.1/"
   xmlns:cc="http://creativecommons.org/ns#"
   xmlns:rdf="http://www.w3.org/1999/02/22-rdf-syntax-ns#"
   xmlns:svg="http://www.w3.org/2000/svg"
   xmlns="http://www.w3.org/2000/svg"
   xmlns:xlink="http://www.w3.org/1999/xlink"
   xmlns:sodipodi="http://sodipodi.sourceforge.net/DTD/sodipodi-0.dtd"
   xmlns:inkscape="http://www.inkscape.org/namespaces/inkscape"
   fill="#8BC34A"
   width="48"
   height="48"
   viewBox="0 0 48 48"
   id="svg2"
   version="1.1"
   inkscape:version="0.91 r13725"
   sodipodi:docname="AdobeReader.svg">
  <metadata
     id="metadata10">
    <rdf:RDF>
      <cc:Work
         rdf:about="">
        <dc:format>image/svg+xml</dc:format>
        <dc:type
           rdf:resource="http://purl.org/dc/dcmitype/StillImage" />
        <dc:title />
      </cc:Work>
    </rdf:RDF>
  </metadata>
  <defs
     id="defs8">
    <linearGradient
       gradientTransform="scale(1.0058652,0.994169)"
       gradientUnits="userSpaceOnUse"
       id="ButtonShadow"
       y2="7.0165396"
       x2="45.447727"
       y1="92.539597"
       x1="45.447727">
      <stop
         offset="0"
         style="stop-color:#000000;stop-opacity:1"
         id="stop3750" />
      <stop
         offset="1"
         style="stop-color:#000000;stop-opacity:0.58823532"
         id="stop3752" />
    </linearGradient>
    <filter
       id="filter3174"
       color-interpolation-filters="sRGB">
      <feGaussianBlur
         id="feGaussianBlur3176"
         stdDeviation="1.71" />
    </filter>
    <linearGradient
       id="linearGradient3826">
      <stop
         offset="0"
         style="stop-color:#ff3920;stop-opacity:1"
         id="stop3828" />
      <stop
         offset="1"
         style="stop-color:#ff3920;stop-opacity:0"
         id="stop3830" />
    </linearGradient>
    <linearGradient
       id="linearGradient3737">
      <stop
         offset="0"
         style="stop-color:#ffffff;stop-opacity:1"
         id="stop3739" />
      <stop
         offset="1"
         style="stop-color:#ffffff;stop-opacity:0"
         id="stop3741" />
    </linearGradient>
    <linearGradient
       id="linearGradient3700">
      <stop
         offset="0"
         style="stop-color:#970303;stop-opacity:1"
         id="stop3702" />
      <stop
         offset="1"
         style="stop-color:#f31d0c;stop-opacity:1"
         id="stop3704" />
    </linearGradient>
    <linearGradient
       gradientUnits="userSpaceOnUse"
       xlink:href="#linearGradient3700"
       id="linearGradient3706"
       y2="5.9877172"
       x2="48"
       y1="90"
       x1="48" />
    <linearGradient
       gradientTransform="translate(100,0)"
       gradientUnits="userSpaceOnUse"
       xlink:href="#linearGradient3737"
       id="linearGradient3188"
       y2="63.893143"
       x2="36.357143"
       y1="6"
       x1="36.357143" />
    <radialGradient
       gradientTransform="matrix(0,0.99292131,-1.0017097,0,33.187478,-41.553843)"
       gradientUnits="userSpaceOnUse"
       xlink:href="#linearGradient3826"
       id="radialGradient3832"
       fy="-14.78724"
       fx="48"
       r="42"
       cy="-14.78724"
       cx="48" />
    <linearGradient
       gradientUnits="userSpaceOnUse"
       xlink:href="#linearGradient3737"
       id="linearGradient2956"
       y2="63.893143"
       x2="36.357143"
       y1="6"
       x1="36.357143" />
    <filter
       id="filter3174-7"
       color-interpolation-filters="sRGB">
      <feGaussianBlur
         stdDeviation="1.71"
         id="feGaussianBlur3176-7" />
    </filter>
    <linearGradient
       gradientTransform="scale(1.0058652,0.9941689999999997)"
       gradientUnits="userSpaceOnUse"
       xlink:href="#ButtonShadow"
       id="linearGradient2964"
       y2="7.0165396"
       x2="45.447727"
       y1="92.539597"
       x1="45.447727" />
    <radialGradient
       gradientTransform="matrix(1.1573129,0,0,0.9959077399999999,-7.551021000000002,0.1971319)"
       gradientUnits="userSpaceOnUse"
       xlink:href="#linearGradient3737"
       id="radialGradient2855"
       fy="90.171875"
       fx="48"
       r="42"
       cy="90.171875"
       cx="48" />
    <clipPath
       id="clipPath3613">
      <rect
         style="fill:#ffffff;fill-opacity:1;fill-rule:nonzero;stroke:none"
         id="rect3615"
         y="6"
         x="6"
         ry="6"
         rx="6"
         height="84"
         width="84" />
    </clipPath>
    <filter
       id="filter3794-7"
       color-interpolation-filters="sRGB"
       height="1.3839999"
       width="1.3839999"
       y="-0.192"
       x="-0.192">
      <feGaussianBlur
         stdDeviation="5.28"
         id="feGaussianBlur3796-7" />
    </filter>
    <linearGradient
       gradientUnits="userSpaceOnUse"
       xlink:href="#linearGradient3737"
       id="linearGradient2862"
       y2="138.66119"
       x2="48"
       y1="20.220806"
       x1="48" />
    <linearGradient
       gradientTransform="matrix(1.0058652,0,0,0.994169,100,0)"
       gradientUnits="userSpaceOnUse"
       id="ButtonShadow-0"
       y2="7.0165396"
       x2="45.447727"
       y1="92.539597"
       x1="45.447727">
      <stop
         offset="0"
         style="stop-color:#000000;stop-opacity:1"
         id="stop3750-8" />
      <stop
         offset="1"
         style="stop-color:#000000;stop-opacity:0.58823532"
         id="stop3752-5" />
    </linearGradient>
    <linearGradient
       gradientTransform="matrix(1.0238095,0,0,1.0119048,-1.1428571,-98.07142899999999)"
       gradientUnits="userSpaceOnUse"
       xlink:href="#ButtonShadow-0"
       id="linearGradient3780"
       y2="90.238609"
       x2="32.251034"
       y1="6.1317081"
       x1="32.251034" />
    <linearGradient
       gradientTransform="translate(0,-97)"
       gradientUnits="userSpaceOnUse"
       xlink:href="#ButtonShadow-0"
       id="linearGradient3721"
       y2="90.238609"
       x2="32.251034"
       y1="6.1317081"
       x1="32.251034" />
  </defs>
  <sodipodi:namedview
     pagecolor="#ffffff"
     bordercolor="#666666"
     borderopacity="1"
     objecttolerance="10"
     gridtolerance="10"
     guidetolerance="10"
     inkscape:pageopacity="0"
     inkscape:pageshadow="2"
     inkscape:window-width="1366"
     inkscape:window-height="713"
     id="namedview6"
     showgrid="false"
     inkscape:zoom="4.1441880687005"
     inkscape:cx="-16.19968804881874"
     inkscape:cy="7.887242088349733"
     inkscape:window-x="0"
     inkscape:window-y="30"
     inkscape:window-maximized="1"
     inkscape:current-layer="svg2"
     inkscape:snap-bbox="true"
     inkscape:bbox-paths="true"
     inkscape:bbox-nodes="true" />
  <g
     id="layer2"
     style="display:none"
     transform="translate(97.171924,-29.544574)">
    <rect
       width="86"
       height="85"
       rx="6"
       ry="6"
       x="5"
       y="7"
       id="rect3745"
       style="opacity:0.9;fill:url(#ButtonShadow);fill-opacity:1;fill-rule:nonzero;stroke:none;filter:url(#filter3174)" />
  </g>
  <path
     style="fill:#d41818;fill-opacity:1;stroke:none"
     d="M 10 6 C 7.79 6 6.000000000000001 7.790000000000001 6 10 L 6 38 C 6 40.21 7.790000000000001 42 10 42 L 38 42 C 40.21 42 42 40.21 42 38 L 42 10 C 42 7.79 40.21 6.000000000000001 38 6 L 10 6 z M 22.49609375 10.7265625 C 22.98167359930578 10.72656249999999 23.40866290751824 10.78929073255856 23.712890625 11.103515625 C 24.01711795330488 11.41774051744146 24.0593575300082 11.83452342716552 24.041015625 12.318359375 C 24.0332048455916 12.5244020538097 24.020235475683 12.66308550260485 23.9921875 12.8046875 C 23.9781627338048 12.87548849869757 23.9719159534933 12.95274527632895 23.89453125 13.060546875 C 23.85583889825334 13.1144478689239 23.7628734375251 13.1307418846585 23.6875 13.169921875 C 23.77948739731294 13.24477070212936 23.828217409065 13.3225514038187 23.845703125 13.365234375 C 23.86677705150531 13.41667071192378 23.875776182526 13.4522089904346 23.8828125 13.486328125 C 23.896885134948 13.55456950754566 23.900863792376 13.6103788409103 23.90625 13.681640625 C 23.91701073994239 13.82416419317934 23.92031105185144 14.00643433313935 23.919921875 14.216796875 C 23.9191407970591 14.63752195872129 23.9020449849947 15.18710365562585 23.87109375 15.7734375 C 23.80918894494941 16.94610518874829 23.70581781672482 18.22731811929921 23.578125 18.88671875 C 23.54789763394919 19.04280785568988 23.54473235614 19.065043107033 23.5546875 19.12890625 C 23.56464186550604 19.19276939296702 23.603916579826 19.32825876486649 23.701171875 19.591796875 C 24.9923470284255 23.09054424898951 26.34139913294289 24.8347324385652 29.00390625 26.451171875 C 29.0090939774294 26.4543203157284 29.010425597265 26.459738292503 29.015625 26.462890625 L 29.3671875 26.658203125 L 30.572265625 26.583984375 C 32.09570269089334 26.48387368926702 33.96489771481611 26.52567692646534 34.876953125 26.6953125 C 35.92620193720595 26.89046756721394 36.71326494242139 27.17746261855284 37.08984375 27.8125 C 37.22911029710964 28.04735188441412 37.251771778854 28.25833943576927 37.26171875 28.470703125 C 37.2666924301613 28.57688496961536 37.2744252819904 28.68097136401839 37.248046875 28.798828125 C 37.23485767150479 28.8577565054908 37.2103448756712 28.9284321078794 37.150390625 29.017578125 C 37.1454247283756 29.02496080987139 37.121515689382 29.021443286138 37.115234375 29.029296875 A 0.4449607218853262 0.4449607218853265 0 0 1 37.19921875 29.28515625 C 37.1992074638713 29.48708494031316 37.1215038193917 29.5600231762346 37.078125 29.61328125 C 37.0347461806083 29.66653932376542 36.9958127232456 29.6905063503028 36.95703125 29.72265625 C 36.87946869268557 29.78695916280914 36.7894924480187 29.8504488091279 36.701171875 29.904296875 C 36.5245307289626 30.01199300674429 36.34292685977227 30.1100491978502 36.166015625 30.171875 C 35.83980213965005 30.28588046685981 35.47159230073784 30.2807084091733 35.01171875 30.26953125 C 34.55184519926215 30.25835448000358 34.03804579475422 30.213530492959 33.576171875 30.123046875 C 32.24506795497084 29.8622765906339 30.51101843314331 29.24982278971105 29.22265625 28.603515625 L 28.845703125 28.421875 L 28.029296875 28.51953125 C 25.21397090533564 28.86027076132982 22.349672640763 29.45376704126002 19.966796875 30.171875 C 19.6616471975572 30.26383554411014 19.37307785495143 30.343668959199 19.15234375 30.404296875 C 19.04197669752429 30.43461102748891 18.9462257442598 30.4584579928712 18.873046875 30.4765625 C 18.83645724578169 30.48561475356439 18.8048746632648 30.495765213062 18.775390625 30.501953125 C 18.76380833272439 30.5135572111792 18.743787518586 30.5303120634473 18.701171875 30.5859375 C 18.58983382627995 30.73126508739395 18.40224382298578 31.01759457406237 18.119140625 31.486328125 C 16.34050589807629 34.43121223603812 14.78978755333894 36.3543084824603 13.3984375 37.044921875 C 13.05751779978797 37.21414102930365 12.73101065736282 37.3132004261236 12.376953125 37.298828125 C 12.02289559263718 37.28445543469961 11.68184227905182 37.167332783304 11.294921875 36.970703125 C 11.04023520317556 36.84127341198722 10.7793182078585 36.60422180606173 10.7109375 36.2890625 C 10.64255679214151 35.97390319393826 10.73794808420068 35.70384859154412 10.857421875 35.365234375 C 11.22625723076557 34.31988161225377 12.25679231713791 33.14316470421371 13.521484375 32.19140625 C 14.14003583584347 31.72590870458204 14.69618727831856 31.36680343320283 15.052734375 31.193359375 C 15.14187105187616 31.14999845774351 15.20932782386106 31.1228359922879 15.3203125 31.09765625 C 15.37580483806947 31.085066378856 15.44314753009549 31.0489346674414 15.61328125 31.109375 C 15.69834791536382 31.13959497169088 15.8120651154989 31.22115531808687 15.869140625 31.33984375 C 15.9262173020317 31.45853218191313 15.9183734017165 31.5649381112252 15.904296875 31.6328125 C 15.88252671110751 31.73777271847875 15.8595032439429 31.7661867768816 15.83203125 31.802734375 C 16.43139045441486 30.84801078235517 17.06874561432579 29.74883618378017 17.75390625 28.470703125 C 19.48239437208558 25.24629390794822 20.64848878125957 22.5708846959556 21.451171875 20.005859375 L 21.669921875 19.3125 L 21.4375 18.388671875 C 20.99941685035094 16.66420083637496 20.783429390368 15.30596212219459 20.78125 13.888671875 C 20.78019143896411 13.20048733519012 20.83330202535589 12.61553742986576 20.939453125 12.13671875 C 21.04560422464411 11.65790007013424 21.18314582875025 11.27144572290263 21.5 11.005859375 C 21.60773076848407 10.91555867016119 21.76519233820336 10.8171068808823 21.9375 10.775390625 C 22.10980766179663 10.7336747582944 22.26765394339014 10.7265625 22.49609375 10.7265625 z M 22.740234375 12.208984375 C 22.68271014458918 12.36279913117007 22.5927329784112 12.88467734480792 22.5703125 13.462890625 C 22.550432178898 13.97558014459999 22.5777056006308 14.5368419196458 22.630859375 15.04296875 C 22.7450699380605 14.49026134229738 22.85544981380405 13.982840187429 22.982421875 13.4140625 A 0.4449607218853262 0.4449607218853265 0 0 1 23.166015625 13.146484375 A 0.4449607218853262 0.4449607218853265 0 0 1 23.04296875 12.87890625 C 23.00087032244956 12.52514760545909 22.89404913117008 12.34154190236777 22.740234375 12.208984375 z M 22.763671875 22.060546875 C 22.12590325040945 24.02499331128833 21.03754723577707 26.37291818781011 19.443359375 29.236328125 C 21.38898599710657 28.41856948756545 24.22158876499607 27.56734913214333 26.765625 27.107421875 C 25.20006187499978 25.9415122422769 24.00764188421817 24.51099734398701 22.970703125 22.486328125 C 22.89479495848105 22.33811323454524 22.8338536933269 22.20127283530257 22.763671875 22.060546875 z M 33.490234375 28.125 C 33.20324845686165 28.12647288844137 32.91201115831055 28.137704319939 32.626953125 28.154296875 C 32.88563508638128 28.24892756148787 33.18006542190968 28.365763092383 33.357421875 28.421875 C 33.3600293599044 28.42269227138801 33.366572057781 28.42105772861199 33.369140625 28.421875 C 33.92981020190616 28.5877262178313 34.55724328733659 28.80351440861314 35.1328125 28.919921875 C 35.60386593414905 29.01519120070109 35.99837109089041 29.0131147988482 36.32421875 28.931640625 A 0.4449607218853262 0.4449607218853265 0 0 1 36.32421875 28.908203125 C 36.27946652549961 28.75453975862515 36.11999581972822 28.59096621759546 35.765625 28.4453125 C 35.41125418027176 28.29965878240456 34.89633705984648 28.2015137565005 34.330078125 28.154296875 C 34.06043110582948 28.13181276617355 33.77722029313835 28.12352711155863 33.490234375 28.125 z M 15.7109375 31.97265625 C 15.63866268856605 32.04746849450532 15.5482062508059 32.12840960938926 15.4296875 32.228515625 C 14.58383885578248 32.94295520273833 13.76905030780887 33.81074648378138 13.1796875 34.587890625 C 12.88500590150713 34.97646269560932 12.64460168035699 35.34196298261277 12.486328125 35.64453125 C 12.4743154031267 35.6674965760032 12.4855491362939 35.6710478661072 12.474609375 35.693359375 C 12.95914545199022 35.4290351276266 13.56111538236892 34.9527865980469 14.298828125 34.015625 C 14.73268481404246 33.4644704079346 15.21264324295781 32.75541543483115 15.7109375 31.97265625 z "
     id="path3727" />
</svg>
