<?xml version="1.0" encoding="UTF-8" standalone="no"?>
<svg
   xmlns:dc="http://purl.org/dc/elements/1.1/"
   xmlns:cc="http://creativecommons.org/ns#"
   xmlns:rdf="http://www.w3.org/1999/02/22-rdf-syntax-ns#"
   xmlns:svg="http://www.w3.org/2000/svg"
   xmlns="http://www.w3.org/2000/svg"
   xmlns:sodipodi="http://sodipodi.sourceforge.net/DTD/sodipodi-0.dtd"
   xmlns:inkscape="http://www.inkscape.org/namespaces/inkscape"
   width="36"
   height="36"
   viewBox="0 0 36 36"
   id="svg2"
   version="1.1"
   inkscape:version="0.91 r13725"
   sodipodi:docname="tap-create.svg"
   style="fill:#4caf50">
  <metadata
     id="metadata10">
    <rdf:RDF>
      <cc:Work
         rdf:about="">
        <dc:format>image/svg+xml</dc:format>
        <dc:type
           rdf:resource="http://purl.org/dc/dcmitype/StillImage" />
        <dc:title></dc:title>
      </cc:Work>
    </rdf:RDF>
  </metadata>
  <defs
     id="defs8" />
  <sodipodi:namedview
     pagecolor="#ffffff"
     bordercolor="#666666"
     borderopacity="1"
     objecttolerance="10"
     gridtolerance="10"
     guidetolerance="10"
     inkscape:pageopacity="0"
     inkscape:pageshadow="2"
     inkscape:window-width="1366"
     inkscape:window-height="713"
     id="namedview6"
     showgrid="false"
     inkscape:zoom="5.512044289728465"
     inkscape:cx="-3.577090457229339"
     inkscape:cy="14.9247037165675"
     inkscape:window-x="0"
     inkscape:window-y="30"
     inkscape:window-maximized="1"
     inkscape:current-layer="svg2"
     inkscape:snap-bbox="true"
     inkscape:bbox-paths="true"
     inkscape:bbox-nodes="true"
     fit-margin-top="0"
     fit-margin-left="0"
     fit-margin-right="0"
     fit-margin-bottom="0"
     inkscape:object-paths="true"
     inkscape:snap-intersection-paths="true"
     inkscape:object-nodes="true"
     inkscape:snap-smooth-nodes="true"
     inkscape:snap-midpoints="true" />
  <path
     d="M 6 0 C 5.070000000000002 0 4.239453125000001 0.4298437499999999 3.689453125 1.08984375 L 0.919921875 4.44921875 C 0.3399218749999999 5.149218750000001 0 6.030000000000001 0 7 L 0 32 C 0 34.21 1.790000000000001 36 4 36 L 32 36 C 34.21 36 36 34.21 36 32 L 36 7 C 36 6.030000000000001 35.65984375 5.149218750000002 35.08984375 4.44921875 L 32.3203125 1.08984375 C 31.7603125 0.4298437499999999 30.93000000000001 0 30 0 L 6 0 z M 5.880859375 2 L 29.880859375 2 L 31.75 4 L 4.25 4 L 5.880859375 2 z M 16.572265625 10 L 19.427734375 10 L 19.427734375 18.572265625 L 28 18.572265625 L 28 21.427734375 L 19.427734375 21.427734375 L 19.427734375 30 L 16.572265625 30 L 16.572265625 21.427734375 L 8 21.427734375 L 8 18.572265625 L 16.572265625 18.572265625 L 16.572265625 10 z "
     id="path4138" />
</svg>
