<?xml version="1.0" encoding="UTF-8" standalone="no"?>
<svg
   xmlns:dc="http://purl.org/dc/elements/1.1/"
   xmlns:cc="http://creativecommons.org/ns#"
   xmlns:rdf="http://www.w3.org/1999/02/22-rdf-syntax-ns#"
   xmlns:svg="http://www.w3.org/2000/svg"
   xmlns="http://www.w3.org/2000/svg"
   xmlns:sodipodi="http://sodipodi.sourceforge.net/DTD/sodipodi-0.dtd"
   xmlns:inkscape="http://www.inkscape.org/namespaces/inkscape"
   version="1.1"
   width="48"
   height="48"
   id="svg2"
   inkscape:version="0.91 r13725"
   sodipodi:docname="audacious-panel.svg">
  <metadata
     id="metadata13">
    <rdf:RDF>
      <cc:Work
         rdf:about="">
        <dc:format>image/svg+xml</dc:format>
        <dc:type
           rdf:resource="http://purl.org/dc/dcmitype/StillImage" />
        <dc:title />
        <dc:title />
      </cc:Work>
    </rdf:RDF>
  </metadata>
  <defs
     id="defs11" />
  <sodipodi:namedview
     pagecolor="#ffffff"
     bordercolor="#666666"
     borderopacity="1"
     objecttolerance="10"
     gridtolerance="10"
     guidetolerance="10"
     inkscape:pageopacity="0"
     inkscape:pageshadow="2"
     inkscape:window-width="1366"
     inkscape:window-height="713"
     id="namedview9"
     showgrid="false"
     inkscape:zoom="4.898708108348549"
     inkscape:cx="33.84984802200916"
     inkscape:cy="17.00470076764146"
     inkscape:window-x="0"
     inkscape:window-y="30"
     inkscape:window-maximized="1"
     inkscape:current-layer="svg2"
     inkscape:snap-bbox="true"
     inkscape:bbox-nodes="true" />
  <path
     style="fill:#4caf50;fill-opacity:1"
     d="m 24.44891278087365,13.61775810417717 c -0.46657473388713,1.537139898e-5 -0.98663373811167,0.0147309240133 -1.55315177096422,0.0480356217824 -0.53322358268271,1.94704387e-5 -1.00785139249042,0.11900127178886 -1.44106865347194,0.35226122640426 -0.16664184861772,1.537139896e-5 -0.49416895693877,0.0147309240133 -0.96071243564796,0.0480356217824 -0.43324492949968,1.537139897e-5 -0.71533879388399,0.0147309240133 -0.84862931815571,0.0480356217824 -0.29994210810878,0.0333456881664 -0.61145887964225,0.0774795365102 -0.9447005617205,0.1441068653472 -0.29989599391187,0.0333046977692 -0.58203802201296,0.16706148780962 -0.84862931815571,0.40029684818665 l -1.05678367921275,1.05678367921276 c -0.0999868512625,0.1666449228975 -0.18824737463051,0.34446741474631 -0.2882137306944,0.54440371353385 -0.0666616582948,0.19997011586527 -0.11209285271162,0.42322482689088 -0.11208311749226,0.65648683102611 -9.73521935e-6,0.53322358268275 0.20853505937157,0.99314096367579 0.60845120924372,1.39303303168955 0.4332218724012,0.36659505594412 0.90785019458888,0.54441908493282 1.44106865347194,0.54440371353385 0.19994142258719,1.537139896e-5 0.42319613361278,-0.0146950574157 0.65648683102612,-0.0480356217824 0.23326712793493,-0.0333098215687 0.45652132658053,-0.0774441822925 0.6564868310261,-0.14410686534721 l 3.44255289440521,0 c 0.29991392721068,1.383425909e-5 0.58200727921503,0.0895768274998 0.8486293181557,0.25618998283947 0.26658668472304,0.16664133623775 0.40027891488786,0.38859408977054 0.40029684818666,0.68851057888104 -1.79332988e-5,0.26661793990096 -0.10428930583434,0.47516170973194 -0.30422560462185,0.60845120924371 -0.16664492289751,0.0999889007824 -0.37388724761568,0.17354155723556 -0.64047495709866,0.240178108912 -0.26662050180078,0.0333405643667 -0.53400752403022,0.0787681721238 -0.8005936963733,0.11208311749226 -0.26661998942081,1.229711917e-5 -0.47516478401172,0.0294362290283 -0.6084512092437,0.0960712435648 -0.0666657573345,0.0333354405671 -0.21506841631396,0.0921781805856 -0.44833246996906,0.19214248712958 -0.19996755396545,0.0666626830547 -0.33366029651021,0.12680379390623 -0.40029684818665,0.16011873927467 -0.4665706348474,0.16663979909785 -0.94120100655491,0.25489878532595 -1.44106865347195,0.28821373069439 -0.49989531543517,1.178473922e-5 -0.99053294965048,0.13370401490402 -1.45708052739941,0.40029684818665 -0.66652435455375,0.3999171746321 -1.28955277382104,0.90526779956185 -1.889401123441,1.50511614918182 -0.56654365185084,0.56654365185082 -1.04247290677133,1.19087351623093 -1.40904490561702,1.85737737558606 -0.0666590963949,0.0666596087749 -0.14020919094827,0.16962953619761 -0.24017810891199,0.3362493524768 -0.0666611459148,0.16663518767815 -0.1120913155717,0.27090041165409 -0.11208311749226,0.30422560462185 l 0,2.49785233268471 c -8.19807943e-6,5.12379967e-6 0.0748448787266,0.22325932244529 0.20815436105706,0.65648683102611 0.13329411093148,0.3999094889326 0.23756292156717,0.7114242109462 0.30422560462186,0.94470056172051 0.19994552162692,0.66651410695444 0.57029939699926,1.24541123977779 1.13684304885009,1.74529425809381 0.59984834961997,0.46655885010819 1.16404017742834,0.88234391989737 1.6972586363114,1.24892616634237 -1.075997927e-5,0.0333200691681 0.0454173601577,0.0787579245245 0.11208311749227,0.11208311749224 0.099964818924,0.0333200691681 0.15880192276287,0.0480356217824 0.19214248712959,0.0480356217824 0.16661622961943,0.0666514106954 0.49414333794046,0.18563372442556 0.96071243564796,0.35226122640425 0.49987072119686,0.16662750197866 0.82609484726514,0.25488853772664 0.9927361835029,0.28821373069438 l 0.40029684818665,0 0.35226122640425,0 c 0.0666370640564,0.0333251929678 0.17090946135188,0.0186198879528 0.30422560462187,-0.0480356217824 0.0666370640564,-0.0333251929678 0.21503869827591,-0.10687631228104 0.44833246996905,-0.240178108912 0.26658924662287,-0.13330179663096 0.42970489631679,-0.22286991367136 0.49636809175145,-0.25618998283944 0.56651803285253,-0.23327840029417 1.13070986066092,-0.45653259893977 1.6972586363114,-0.65648683102611 0.59984322582032,-0.23327737553423 1.22417309020042,-0.33624832771686 1.85737737558607,-0.3362493524768 l 0.33624935247678,0 c 0.19993373688771,0 0.33362494229259,0.0147104288147 0.40029684818665,0.0480356217824 0.46653681776966,0.19995423208635 0.95717701388481,0.42190698561914 1.45708052739942,0.68851057888104 0.49986149835749,0.23327840029415 1.01992306448181,0.35226122640425 1.55315177096422,0.35226122640425 0.39988335755435,0 0.77024030720648,-0.0735506069333 1.13684304885008,-0.24017810891199 0.39988182041445,-0.16662698959871 0.77154175231933,-0.40459161705899 1.10481930099517,-0.7045224528085 0.33322989733905,-0.29992878622966 0.60061691956849,-0.62615393705791 0.80059369637331,-0.99273618350289 0.19992707594817,-0.36657814740526 0.30419947324361,-0.75294748336484 0.30422560462186,-1.15285492277757 l 0,-0.30422560462186 c -0.0332534597726,-0.13352621905592 -0.1081890297531,-0.38595020914765 -0.20815436105707,-0.7525580745909 -0.10001656930052,-0.3665566274467 -0.15883778936046,-0.61923680752126 -0.19214248712958,-0.75255807459091 l 0,-0.14410686534719 c -2.561899829e-5,-0.36657558550544 0.0146848098163,-0.73823193075051 0.0480356217824,-1.10481930099516 0.0666252793172,-0.36657404836553 0.12547058123551,-0.72222005682307 0.1921424871296,-1.08880742706769 -2.613137826e-5,-0.0333200691681 -2.613137825e-5,-0.10817058407434 0,-0.20815436105706 -2.613137826e-5,-0.13329462331143 -2.613137825e-5,-0.26698685347622 0,-0.40029684818666 0.0332944501698,-0.16661981627921 0.0640213643316,-0.3150229876386 0.0640474957098,-0.44833246996905 -2.613137825e-5,-0.13329411093146 -2.613137824e-5,-0.22285966607204 0,-0.25618998283945 0.0666252793172,-0.2332707145947 0.14017537387054,-0.44051303931283 0.24017810891199,-0.64047495709865 0.0999509846649,-0.23326968983474 0.1600931202764,-0.48594423372968 0.16011873927465,-0.75255807459091 -2.561899828e-5,-0.3665699493258 -0.0454583505551,-0.73822680695086 -0.11208311749225,-1.10481930099516 -0.0333508119661,-0.36656943694584 -0.0774800488901,-0.72221493302339 -0.1441068653472,-1.08880742706769 -0.1333279280092,-1.03308098200043 -0.31115041985798,-1.92479633147009 -0.54440371353384,-2.65797107195937 -0.23330453167238,-0.76646919065908 -0.57554104404814,-1.42022503646811 -1.00874805743037,-1.95344861915086 -0.43325568947894,-0.53319283988478 -0.99744495538749,-0.97839979206319 -1.69725863631141,-1.34499740990715 -0.66660633534827,-0.39996380120896 -1.49814778164856,-0.74082457337687 -2.49785233268472,-1.0407718052853 -0.96650232926014,-0.26659129614273 -1.90228747957779,-0.40029684818665 -2.80207793730656,-0.40029684818665 z m -1.39303303168956,11.64063234526786 1.8413655016586,0 c 0.13328386333216,8.19807946e-6 0.25226720182222,0.0895701665603 0.35226122640425,0.25618998283946 0.13328437571213,0.13330999471041 0.22284429467308,0.25229179606057 0.25618998283946,0.35226122640425 l 0,0.49636809175145 c -1.844567877e-5,0.0999827522228 -1.844567877e-5,0.23367600714752 0,0.40029684818665 -1.844567877e-5,0.16663416291823 -0.0454481029558,0.30032690546301 -0.11208311749227,0.40029684818666 -0.0666688316142,0.0666570468751 -0.20036157415901,0.18563987298518 -0.40029684818664,0.35226122640425 l -0.33624935247679,0.33624935247679 c -1.793329879e-5,0.0666514106954 -0.0601600689102,0.11208875367188 -0.16011873927466,0.11208311749227 l -0.54440371353384,0 c -0.46657370912719,5.63617959e-6 -0.86765398628139,-0.10426676111584 -1.20089054455996,-0.30422560462187 -0.33327140011626,-0.23327276411452 -0.49638346315043,-0.61964158769413 -0.49636809175146,-1.15285492277756 -1.537139897e-5,-0.1999460340069 0.0588253190997,-0.4526210902818 0.19214248712959,-0.7525580745909 0.133286425232,-0.33324783063785 0.34183173220288,-0.49635989367201 0.60845120924372,-0.49636809175145 z"
     id="path4135"
     inkscape:connector-curvature="0" />
  <path
     style="opacity:1;fill:#4caf50;fill-opacity:1;fill-rule:nonzero;stroke:none;stroke-width:3;stroke-miterlimit:4;stroke-dasharray:none;stroke-opacity:1"
     d="M 24 6 A 18 18 0 0 0 6 24 A 18 18 0 0 0 24 42 A 18 18 0 0 0 42 24 A 18 18 0 0 0 24 6 z M 24 10 A 14 14 0 0 1 38 24 A 14 14 0 0 1 24 38 A 14 14 0 0 1 10 24 A 14 14 0 0 1 24 10 z "
     id="path4133" />
</svg>
