<?xml version="1.0" encoding="UTF-8" standalone="no"?>
<svg
   xmlns:dc="http://purl.org/dc/elements/1.1/"
   xmlns:cc="http://creativecommons.org/ns#"
   xmlns:rdf="http://www.w3.org/1999/02/22-rdf-syntax-ns#"
   xmlns:svg="http://www.w3.org/2000/svg"
   xmlns="http://www.w3.org/2000/svg"
   xmlns:sodipodi="http://sodipodi.sourceforge.net/DTD/sodipodi-0.dtd"
   xmlns:inkscape="http://www.inkscape.org/namespaces/inkscape"
   width="48"
   height="48"
   viewBox="0 0 48 48"
   id="svg2"
   version="1.1"
   inkscape:version="0.91 r13725"
   sodipodi:docname="printer-error.svg"
   style="fill:#00C853">
  <metadata
     id="metadata10">
    <rdf:RDF>
      <cc:Work
         rdf:about="">
        <dc:format>image/svg+xml</dc:format>
        <dc:type
           rdf:resource="http://purl.org/dc/dcmitype/StillImage" />
        <dc:title />
      </cc:Work>
    </rdf:RDF>
  </metadata>
  <defs
     id="defs8">
    <clipPath
       clipPathUnits="userSpaceOnUse"
       id="clipPath3388">
      <rect
         ry="0"
         y="38.09328460693359"
         x="72.36754608154297"
         height="8.007170677185059"
         width="8.82422924041748"
         id="rect3390"
         style="opacity:1;fill:#ffffff;fill-opacity:1;fill-rule:evenodd;stroke:#000000;stroke-width:2.0086014271;stroke-miterlimit:4;stroke-dasharray:none;stroke-opacity:1" />
    </clipPath>
  </defs>
  <sodipodi:namedview
     pagecolor="#ffffff"
     bordercolor="#666666"
     borderopacity="1"
     objecttolerance="10"
     gridtolerance="10"
     guidetolerance="10"
     inkscape:pageopacity="0"
     inkscape:pageshadow="2"
     inkscape:window-width="1366"
     inkscape:window-height="713"
     id="namedview6"
     showgrid="false"
     inkscape:zoom="5.348394134533503"
     inkscape:cx="43.62640823342419"
     inkscape:cy="-0.7930682209649973"
     inkscape:window-x="0"
     inkscape:window-y="30"
     inkscape:window-maximized="1"
     inkscape:current-layer="svg2"
     inkscape:snap-bbox="true"
     inkscape:bbox-nodes="true"
     inkscape:snap-smooth-nodes="true"
     inkscape:object-nodes="true"
     borderlayer="true"
     fit-margin-top="0"
     fit-margin-left="0"
     fit-margin-right="0"
     fit-margin-bottom="0"
     inkscape:snap-nodes="true" />
  <path
     style="fill:#00C853"
     d="M 14.486328125 6 L 22.486328125 14 L 36 14 L 36 6 L 14.486328125 6 z M 12 9.171875 L 12 14 L 16.828125 14 L 12 9.171875 z M 10 16 C 6.69 16 3.999999999999999 18.69000000000001 4 22 L 4 34 L 12 34 L 12 42 L 36 42 L 36 34 L 36.828125 34 L 32 29.171875 L 32 38 L 16 38 L 16 28 L 30.828125 28 L 18.828125 16 L 10 16 z M 24.486328125 16 L 42.484375 34 L 44 34 L 44 22 C 44 18.69 41.31 16 38 16 L 24.486328125 16 z M 38 20 C 39.11 20 40 20.88999999999999 40 22 C 40 23.10999999999999 39.11 24 38 24 C 36.89 24 35.99999999999999 23.11 36 22 C 36 20.88999999999999 36.89000000000002 20 38 20 z "
     id="path4-3" />
  <path
     d="m -30.80569953319777,17.49577607680865 -28,0 c -3.31,0 -5.99999999999999,2.69 -5.99999999999999,6 l 0,12.00000000000001 7.99999999999999,0 0,8 24,0 0,-8 8,0 0,-12.00000000000001 c 0,-3.31 -2.68999999999999,-6 -6,-6 z m -6,22.00000000000001 -16,0 0,-10.00000000000001 16,0 0,10.00000000000001 z m 6,-14.00000000000001 c -1.11,0 -2,-0.89 -2,-2 0,-1.11 0.89,-2 2,-2 1.11,0 2,0.89 2,2 0,1.11 -0.89,2 -2,2 z m -2,-17.999999999999996 -24,0 0,7.999999999999997 24,0 0,-7.999999999999997 z"
     id="path4"
     inkscape:connector-curvature="0"
     style="fill:#f44336;fill-opacity:1" />
  <g
     id="g3385"
     transform="translate(2,2)" />
  <rect
     style="opacity:1;fill:#00C853;fill-opacity:1;fill-rule:nonzero;stroke:none;stroke-width:3;stroke-miterlimit:4;stroke-dasharray:none;stroke-opacity:1"
     id="rect4145"
     width="4"
     height="58"
     x="-2"
     y="5.053823947906494"
     transform="matrix(0.7071067811865475,-0.7071067811865474,0.7071067811865474,0.7071067811865475,0,0)" />
  <g
     style="fill:#00C853"
     id="g4157"
     transform="translate(-73.97506849620253,58.10729397896994)">
    <path
       id="path4149"
       d="M 47.28,14 C 46.38,13.32 37.43,6 24,6 20.99,6 18.22,6.38 15.7,6.96 L 36.36,27.6 47.28,14 Z M 6.55,2.89 4,5.440000000000002 8.109999999999999,9.55 C 3.829999999999999,11.52 1.189999999999999,13.65 0.7199999999999997,14.01 L 23.98,42.99 24,43 l 0.02,-0.02 7.8,-9.72 6.63,6.63 L 41,37.34000000000001 6.55,2.89 Z"
       inkscape:connector-curvature="0" />
  </g>
  <rect
     y="40.18891525268555"
     x="-45.98891448974609"
     height="53"
     width="4"
     id="rect4169"
     style="opacity:1;fill:#000000;fill-opacity:1;fill-rule:nonzero;stroke:none;stroke-width:3;stroke-miterlimit:4;stroke-dasharray:none;stroke-opacity:1"
     transform="matrix(0.7071067811865475,-0.7071067811865474,0.7071067811865474,0.7071067811865475,0,0)" />
</svg>
