<svg xmlns="http://www.w3.org/2000/svg" viewBox="0 0 34 23.09090995788574" fill="#9C27B0"><path d="m12.709 14.364c-.9-2.542-3.316-4.364-6.164-4.364-3.616 0-6.545 2.929-6.545 6.545 0 3.616 2.929 6.545 6.545 6.545 2.847 0 5.264-1.822 6.164-4.364h4.745v4.364h4.364v-4.364h2.182v-4.364h-11.291m-6.164 4.364c-1.205 0-2.182-.976-2.182-2.182 0-1.205.976-2.182 2.182-2.182 1.205 0 2.182.976 2.182 2.182 0 1.205-.976 2.182-2.182 2.182"/><path d="m22.709 4.364c-.9-2.542-3.316-4.364-6.164-4.364-3.616 0-6.545 2.929-6.545 6.545 0 3.616 2.929 6.545 6.545 6.545 2.847 0 5.264-1.822 6.164-4.364h4.745v4.364h4.364v-4.364h2.182v-4.364h-11.291m-6.164 4.364c-1.205 0-2.182-.976-2.182-2.182 0-1.205.976-2.182 2.182-2.182 1.205 0 2.182.976 2.182 2.182 0 1.205-.976 2.182-2.182 2.182"/></svg>