<?xml version="1.0" encoding="UTF-8" standalone="no"?>
<svg
   xmlns:dc="http://purl.org/dc/elements/1.1/"
   xmlns:cc="http://creativecommons.org/ns#"
   xmlns:rdf="http://www.w3.org/1999/02/22-rdf-syntax-ns#"
   xmlns:svg="http://www.w3.org/2000/svg"
   xmlns="http://www.w3.org/2000/svg"
   xmlns:sodipodi="http://sodipodi.sourceforge.net/DTD/sodipodi-0.dtd"
   xmlns:inkscape="http://www.inkscape.org/namespaces/inkscape"
   fill="#E91E63"
   width="48"
   height="48"
   viewBox="0 0 48 48"
   id="svg2"
   version="1.1"
   inkscape:version="0.91 r13725"
   sodipodi:docname="preferences-system-network-proxy.svg">
  <metadata
     id="metadata10">
    <rdf:RDF>
      <cc:Work
         rdf:about="">
        <dc:format>image/svg+xml</dc:format>
        <dc:type
           rdf:resource="http://purl.org/dc/dcmitype/StillImage" />
      </cc:Work>
    </rdf:RDF>
  </metadata>
  <defs
     id="defs8" />
  <sodipodi:namedview
     pagecolor="#ffffff"
     bordercolor="#666666"
     borderopacity="1"
     objecttolerance="10"
     gridtolerance="10"
     guidetolerance="10"
     inkscape:pageopacity="0"
     inkscape:pageshadow="2"
     inkscape:window-width="1366"
     inkscape:window-height="713"
     id="namedview6"
     showgrid="false"
     inkscape:snap-bbox="true"
     inkscape:bbox-nodes="true"
     inkscape:zoom="5.368001304915685"
     inkscape:cx="-10.94279097752374"
     inkscape:cy="25.98764726709811"
     inkscape:window-x="0"
     inkscape:window-y="30"
     inkscape:window-maximized="1"
     inkscape:current-layer="svg2"
     inkscape:snap-page="true" />
  <path
     d="m -32.52258146095074,-19.82574450197745 -3.08,-2.55 -10.82,13.030000000000001 10.82,13.039999999999999 3.08,-2.549999999999997 -8.7,-10.490000000000001 8.7,-10.48 z"
     id="path4159"
     inkscape:connector-curvature="0" />
  <path
     d="m -40.91652766562362,43.78539158182308 0,4 4.00000000000001,0 0,-4 -4.00000000000001,0 z"
     id="path4181"
     inkscape:connector-curvature="0" />
  <path
     d="m -19.81668231229845,21.11941345478803 0,4 4,0 0,-4 -4,0 z"
     id="path4157"
     inkscape:connector-curvature="0" />
  <path
     d="m -21.09187893073265,51.94359659460916 -3.08000000000001,2.55 8.7,10.49 -8.7,10.48000000000002 3.07999999999999,2.54999999999998 10.82000000000002,-13.03 -10.82,-13.03999999999999 z"
     id="path4"
     inkscape:connector-curvature="0" />
  <g
     style="fill:#E91E63"
     id="g4148"
     transform="translate(5.772050558649802,19.53066915458296)" />
  <path
     style="fill:#E91E63"
     id="path4140"
     d="m -9.316682312298452,10.61941345478803 -0.749999999999998,0 0,-1.499999999999995 c 0,-2.069999999999999 -1.68,-3.75 -3.75,-3.75 -2.07,0 -3.75,1.680000000000001 -3.75,3.75 l 0,1.499999999999995 -0.75,0 c -0.82875,0 -1.5,0.67125000000001 -1.5,1.5 l 0,7.5 c 0,0.82875 0.67125,1.5 1.5,1.5 l 8.999999999999998,0 c 0.828749999999998,0 1.499999999999998,-0.67125 1.499999999999998,-1.5 l 0,-7.5 c 0,-0.82874999999999 -0.671250000000001,-1.5 -1.499999999999998,-1.5 z m -4.499999999999999,6.75 c -0.82875,0 -1.5,-0.67125 -1.5,-1.5 0,-0.82874999999999 0.67125,-1.5 1.5,-1.5 0.82875,0 1.5,0.67125000000001 1.5,1.5 0,0.82875 -0.67125,1.5 -1.5,1.5 z m 2.32500000000001,-6.75 -4.65000000000001,0 0,-1.499999999999995 c 0,-1.282499999999999 1.04250000000001,-2.324999999999998 2.325,-2.324999999999998 1.28249999999999,0 2.32500000000001,1.042499999999999 2.32500000000001,2.324999999999998 l 0,1.499999999999995 z"
     inkscape:connector-curvature="0" />
  <g
     style="fill:#E91E63"
     id="g4199"
     transform="matrix(0.5,0,0,0.5,26,26)">
    <path
       id="path4191"
       d="M 24,4 C 12.95,4 4,12.95 4,24 4,35.05 12.95,44 24,44 35.05,44 44,35.05 44,24 44,12.95 35.05,4 24,4 Z M 22,39.86 C 14.11,38.88 8,32.16 8,24 8,22.77 8.15,21.57 8.419999999999998,20.42 L 18,30 l 0,2 c 0,2.21 1.79,4 4,4 l 0,3.86 z M 35.79,34.79 C 35.28,33.17 33.78,32 32,32 l -2,0 0,-6 c 0,-1.1 -0.9,-2 -2,-2 l -12,0 0,-4 4,0 c 1.1,0 2,-0.9 2,-2 l 0,-4 4,0 c 2.21,0 4,-1.79 4,-4 L 30,9.169999999999998 C 35.86,11.54 40,17.28 40,24 c 0,4.16 -1.6,7.94 -4.21,10.79 z"
       inkscape:connector-curvature="0" />
  </g>
  <g
     style="fill:#E91E63"
     id="g4212"
     transform="matrix(0.5,0,0,0.5,0,-4)">
    <path
       id="path4204"
       d="m 40,36 c 2.21,0 3.98,-1.79 3.98,-4 L 44,12 C 44,9.789999999999999 42.21,8 40,8 L 8,8 C 5.79,8 4,9.789999999999999 4,12 l 0,20 c 0,2.21 1.79,4 4,4 l -8,0 0,4 48,0 0,-4 -8,0 z M 8,12 40,12 40,32 8,32 8,12 Z"
       inkscape:connector-curvature="0" />
  </g>
  <g
     style="fill:#E91E63"
     id="g4225"
     transform="matrix(0.5,0,0,0.5,12,12)">
    <path
       id="path4217"
       d="M 13.98,22 6,30 13.98,38 l 0,-6 14.02,0 0,-4 -14.02,0 0,-6 z M 42,18 l -7.98,-8 0,6 -14.02,0 0,4 14.02,0 0,6 7.98,-8 z"
       inkscape:connector-curvature="0" />
  </g>
</svg>
