<?xml version="1.0" encoding="UTF-8" standalone="no"?>
<svg
   xmlns:dc="http://purl.org/dc/elements/1.1/"
   xmlns:cc="http://creativecommons.org/ns#"
   xmlns:rdf="http://www.w3.org/1999/02/22-rdf-syntax-ns#"
   xmlns:svg="http://www.w3.org/2000/svg"
   xmlns="http://www.w3.org/2000/svg"
   xmlns:sodipodi="http://sodipodi.sourceforge.net/DTD/sodipodi-0.dtd"
   xmlns:inkscape="http://www.inkscape.org/namespaces/inkscape"
   width="48"
   height="48"
   viewBox="0 0 48 48.00000000000001"
   id="svg2"
   version="1.1"
   inkscape:version="0.91 r13725"
   sodipodi:docname="terminal.svg"
   style="fill:#4caf50">
  <metadata
     id="metadata10">
    <rdf:RDF>
      <cc:Work
         rdf:about="">
        <dc:format>image/svg+xml</dc:format>
        <dc:type
           rdf:resource="http://purl.org/dc/dcmitype/StillImage" />
        <dc:title></dc:title>
      </cc:Work>
    </rdf:RDF>
  </metadata>
  <defs
     id="defs8" />
  <sodipodi:namedview
     pagecolor="#ffffff"
     bordercolor="#666666"
     borderopacity="1"
     objecttolerance="10"
     gridtolerance="10"
     guidetolerance="10"
     inkscape:pageopacity="0"
     inkscape:pageshadow="2"
     inkscape:window-width="1366"
     inkscape:window-height="713"
     id="namedview6"
     showgrid="false"
     inkscape:snap-bbox="true"
     inkscape:bbox-paths="true"
     inkscape:bbox-nodes="true"
     inkscape:zoom="3.474912547354295"
     inkscape:cx="93.20941819046897"
     inkscape:cy="68.72486470977724"
     inkscape:window-x="0"
     inkscape:window-y="30"
     inkscape:window-maximized="1"
     inkscape:current-layer="svg2"
     fit-margin-top="0"
     fit-margin-left="0"
     fit-margin-right="0"
     fit-margin-bottom="0"
     inkscape:snap-page="true" />
  <path
     d="m 43.15110810574082,76.52537147662502 -36,0 c -2.21,0 -4,1.79000000000002 -4,4 l 0,28.00000000000007 c 0,2.21 1.79,3.96 4,3.96 l 36,0 c 2.21,0 4,-1.7600000000001 4,-3.96 l 0,-28.00000000000007 c 0,-2.20999999999998 -1.79,-4 -4,-4 z"
     id="path4140"
     style="fill:#000000;fill-opacity:1;stroke:#4caf50;stroke-width:4;stroke-miterlimit:4;stroke-dasharray:none;stroke-opacity:1"
     inkscape:connector-curvature="0" />
  <path
     d="m 43.15110810574082,108.5553714766251 -36,0 0,-28.06000000000004 36,0 0,28.06000000000004 z"
     id="path4"
     style="fill:none;stroke:none"
     inkscape:connector-curvature="0" />
  <text
     xml:space="preserve"
     style="font-style:normal;font-variant:normal;font-weight:bold;font-stretch:normal;font-size:20px;line-height:100%;font-family:Inconsolata;-inkscape-font-specification:'Inconsolata, Bold';text-align:start;letter-spacing:0px;word-spacing:0px;writing-mode:lr-tb;text-anchor:start;fill:#4caf50;fill-opacity:1;stroke:none;stroke-width:1px;stroke-linecap:butt;stroke-linejoin:miter;stroke-opacity:1"
     x="9.278367"
     y="96.883438"
     id="text4144"
     sodipodi:linespacing="100%"><tspan
       sodipodi:role="line"
       id="tspan4146"
       x="9.278367"
       y="96.883438"
       style="font-style:normal;font-variant:normal;font-weight:bold;font-stretch:normal;font-size:20px;line-height:100%;font-family:Inconsolata;-inkscape-font-specification:'Inconsolata, Bold';text-align:start;writing-mode:lr-tb;text-anchor:start;fill:#4caf50;fill-opacity:1">&gt;_</tspan></text>
  <rect
     style="opacity:1;fill:#4caf50;fill-opacity:1;fill-rule:nonzero;stroke:none;stroke-width:3;stroke-miterlimit:4;stroke-dasharray:none;stroke-opacity:1"
     id="rect4146"
     width="36"
     height="36"
     x="6"
     y="6"
     rx="4"
     ry="4" />
  <rect
     y="10"
     x="10"
     height="28"
     width="28"
     id="rect4148"
     style="opacity:1;fill:#000000;fill-opacity:1;fill-rule:nonzero;stroke:none;stroke-width:3;stroke-miterlimit:4;stroke-dasharray:none;stroke-opacity:1" />
  <text
     sodipodi:linespacing="100%"
     id="text4160"
     y="25.639999"
     x="13.26"
     style="font-style:normal;font-variant:normal;font-weight:bold;font-stretch:normal;font-size:20px;line-height:100%;font-family:Inconsolata;-inkscape-font-specification:'Inconsolata, Bold';text-align:start;letter-spacing:0px;word-spacing:0px;writing-mode:lr-tb;text-anchor:start;fill:#4caf50;fill-opacity:1;stroke:none;stroke-width:1px;stroke-linecap:butt;stroke-linejoin:miter;stroke-opacity:1"
     xml:space="preserve"><tspan
       style="font-style:normal;font-variant:normal;font-weight:bold;font-stretch:normal;font-size:20px;line-height:100%;font-family:Inconsolata;-inkscape-font-specification:'Inconsolata, Bold';text-align:start;writing-mode:lr-tb;text-anchor:start;fill:#4caf50;fill-opacity:1"
       y="25.639999"
       x="13.26"
       id="tspan4162"
       sodipodi:role="line">&gt;_</tspan></text>
  <g
     style="fill:#4caf50"
     id="g4169"
     transform="translate(-35.52552024245461,-56.62088495699649)">
    <path
       inkscape:connector-curvature="0"
       id="path4-2"
       d="m 22,26 8,-8 -6,0 0,-18 -4,0 0,18 -6,0 8,8 z M 40,0 28,0 28,3.97 40,3.97 40,32.03 l -36,0 0,-28.059999999999998 12,0 L 16,3.552713678800501e-15 l -12,0 C 1.79,1.77635683940025e-15 0,1.789999999999999 0,4 l 0,28 c 0,2.21 1.79,4 4,4 l 36,0 c 2.21,0 4,-1.79 4,-4 L 44,4 C 44,1.789999999999999 42.21,0 40,0 Z" />
  </g>
  <rect
     ry="4"
     rx="5.333333492279053"
     y="18.37441253662109"
     x="94.96641540527344"
     height="36"
     width="48"
     id="rect4172"
     style="opacity:1;fill:#4caf50;fill-opacity:1;fill-rule:nonzero;stroke:none;stroke-width:3;stroke-miterlimit:4;stroke-dasharray:none;stroke-opacity:1" />
</svg>
