<?xml version="1.0" encoding="UTF-8" standalone="no"?>
<!-- Created with Inkscape (http://www.inkscape.org/) -->

<svg
   xmlns:dc="http://purl.org/dc/elements/1.1/"
   xmlns:cc="http://creativecommons.org/ns#"
   xmlns:rdf="http://www.w3.org/1999/02/22-rdf-syntax-ns#"
   xmlns:svg="http://www.w3.org/2000/svg"
   xmlns="http://www.w3.org/2000/svg"
   xmlns:xlink="http://www.w3.org/1999/xlink"
   xmlns:sodipodi="http://sodipodi.sourceforge.net/DTD/sodipodi-0.dtd"
   xmlns:inkscape="http://www.inkscape.org/namespaces/inkscape"
   width="256"
   height="256"
   id="svg2424"
   sodipodi:version="0.32"
   inkscape:version="0.91 r13725"
   version="1.0"
   sodipodi:docname="xfce4-whiskermenu-alternative.svg"
   inkscape:output_extension="org.inkscape.output.svg.inkscape"
   inkscape:export-filename="/home/thayer/archlinux-logo-contest/archer-full-detail.png"
   inkscape:export-xdpi="90"
   inkscape:export-ydpi="90">
  <defs
     id="defs2426">
    <linearGradient
       gradientUnits="userSpaceOnUse"
       id="path1082_2_"
       y2="129.3468017578125"
       x2="112.4985275268555"
       y1="6.137209892272949"
       x1="112.4985427856445"
       gradientTransform="translate(287,-83)">
      <stop
         id="stop193"
         offset="0"
         style="stop-color:#ffffff;stop-opacity:0" />
      <stop
         id="stop195"
         offset="1"
         style="stop-color:#ffffff;stop-opacity:0.27450982;" />
      <midPointStop
         id="midPointStop197"
         style="stop-color:#FFFFFF"
         offset="0" />
      <midPointStop
         id="midPointStop199"
         style="stop-color:#FFFFFF"
         offset="0.5" />
      <midPointStop
         id="midPointStop201"
         style="stop-color:#000000"
         offset="1" />
    </linearGradient>
    <linearGradient
       id="linearGradient3388">
      <stop
         style="stop-color:#000000;stop-opacity:0;"
         offset="0"
         id="stop3390" />
      <stop
         style="stop-color:#000000;stop-opacity:0.37113401;"
         offset="1"
         id="stop3392" />
    </linearGradient>
    <linearGradient
       inkscape:collect="always"
       id="linearGradient4346">
      <stop
         style="stop-color:#00bdec;stop-opacity:1"
         offset="0"
         id="stop4348" />
      <stop
         style="stop-color:#40bfde;stop-opacity:1"
         offset="1"
         id="stop4350" />
    </linearGradient>
    <linearGradient
       inkscape:collect="always"
       xlink:href="#linearGradient4346"
       id="linearGradient4352"
       x1="400.6141967773438"
       y1="634.150634765625"
       x2="616.4855346679688"
       y2="666.9779052734375"
       gradientUnits="userSpaceOnUse" />
    <linearGradient
       inkscape:collect="always"
       id="linearGradient5323">
      <stop
         style="stop-color:#6e6e6e;stop-opacity:1"
         offset="0"
         id="stop5325" />
      <stop
         style="stop-color:#4d4d4d;stop-opacity:1"
         offset="1"
         id="stop5327" />
    </linearGradient>
    <linearGradient
       inkscape:collect="always"
       xlink:href="#linearGradient5323"
       id="linearGradient5329"
       x1="291.8359069824219"
       y1="238.0823669433594"
       x2="650.8136596679688"
       y2="348.96875"
       gradientUnits="userSpaceOnUse" />
    <linearGradient
       inkscape:collect="always"
       xlink:href="#path1082_2_"
       id="linearGradient2216"
       gradientUnits="userSpaceOnUse"
       gradientTransform="matrix(-0.3937741,0,0,0.393752,978.3496999999998,416.9815)"
       x1="541.3350219726562"
       y1="104.5066528320312"
       x2="606.9124755859375"
       y2="303.1402893066406" />
  </defs>
  <sodipodi:namedview
     id="base"
     pagecolor="#ffffff"
     bordercolor="#666666"
     borderopacity="1.0"
     gridtolerance="10000"
     guidetolerance="10"
     objecttolerance="10"
     inkscape:pageopacity="0.0"
     inkscape:pageshadow="2"
     inkscape:zoom="2.111572265625"
     inkscape:cx="128.00000199474"
     inkscape:cy="127.9999960395118"
     inkscape:document-units="px"
     inkscape:current-layer="g2210"
     inkscape:window-width="740"
     inkscape:window-height="511"
     inkscape:window-x="624"
     inkscape:window-y="40"
     showgrid="false"
     inkscape:window-maximized="0"
     fit-margin-top="0"
     fit-margin-left="0"
     fit-margin-right="0"
     fit-margin-bottom="0" />
  <metadata
     id="metadata2429">
    <rdf:RDF>
      <cc:Work
         rdf:about="">
        <dc:format>image/svg+xml</dc:format>
        <dc:type
           rdf:resource="http://purl.org/dc/dcmitype/StillImage" />
        <dc:title />
      </cc:Work>
    </rdf:RDF>
  </metadata>
  <g
     inkscape:label="Layer 1"
     inkscape:groupmode="layer"
     id="layer1"
     transform="translate(-269.51782800526,-73.60124703951186)">
    <g
       id="g2424"
       transform="matrix(1.3473684,0,0,1.3473684,-632.8823599999999,-513.3436599999997)">
      <g
         id="g2210">
        <path
           style="fill:#4caf50;fill-opacity:1;fill-rule:evenodd;stroke:none;stroke-width:1;stroke-linecap:round;stroke-linejoin:round;stroke-miterlimit:10;stroke-dasharray:none;stroke-opacity:1"
           d="m 764.750151484375,435.6231814843746 c -8.45709296875,20.7345300390626 -13.591954296875,34.3166444140626 -23.0078125,54.434814453125 5.77310546875,6.1194895703126 12.8682398437497,13.2196604296875 24.376220703125,21.268310546875 -12.37220625,-5.0910923046875 -20.8061652343752,-10.1891240625 -27.113037109375,-15.4931640625 -12.0504983984378,25.1452308593749 -30.9424314453128,60.9494691406248 -69.25537109375,129.7900390625002 30.1051341015625,-17.3802203125 53.4431383984374,-28.1004582031252 75.19287109375,-32.1923828125 -0.930525,-4.0110410156251 -1.4276013671877,-8.3700343750003 -1.3916015625,-12.8955078125 l 0.023193359375,-0.950927734375 c 0.477812890625,-19.2924070312501 10.51630703125,-34.12744375 22.40478515625,-33.1201171875 11.888470703125,1.007319140625 21.14309609375,17.4690675781248 20.665283203125,36.761474609375 -0.090005078125,3.63391328125 -0.5124804687503,7.1256085937498 -1.229248046875,10.367431640625 21.5156667968749,4.2105484374998 44.6335753906247,14.8830265624998 74.334716796875,32.030029296875 -5.857291796875,-10.7837023437502 -11.103503515625,-20.4990925781251 -16.09619140625,-29.757080078125 -7.8642855468751,-6.0953558593751 -16.0631714843751,-14.025436328125 -32.79541015625,-22.613525390625 11.5007890624997,2.9883808593751 19.7435531249998,6.4440429687501 26.162109375,10.2978515625 -50.7620253906252,-94.5100315625001 -54.8630789062502,-107.07696703125 -72.2705078125,-147.9272460937502 z"
           id="path2518"
           inkscape:connector-curvature="0" />
        <path
           style="fill:#4caf50;fill-opacity:1;fill-rule:evenodd;stroke:none;stroke-width:36.0999984741;stroke-linecap:butt;stroke-linejoin:round;stroke-miterlimit:10;stroke-opacity:1"
           d="m 818.2260714843752,548.5527714843747 c -41.1814300000002,-55.89508 -50.7268500000002,-100.94481 -53.1446700000002,-111.70015 21.9673699999998,50.6686 21.8173300000001,51.28995 53.1446700000002,111.70015 z"
           id="path2522"
           sodipodi:nodetypes="ccc"
           inkscape:connector-curvature="0" />
        <path
           style="fill:#4caf50;fill-opacity:1;fill-rule:evenodd;stroke:none;stroke-width:0.7141668797;stroke-linecap:round;stroke-linejoin:round;stroke-miterlimit:10;stroke-dasharray:none;stroke-opacity:1"
           d="m 765.0980514843751,436.4349514843747 c -1.0564100000001,2.5970500000001 -2.0855900000001,5.1172000000001 -3.0615200000002,7.51465 -1.0811500000001,2.65585 -2.1092799999999,5.1912800000001 -3.1311099999997,7.6770000000001 -1.0217400000002,2.48575 -2.0343900000003,4.91156 -3.0383300000002,7.3059099999999 -1.00398,2.39446 -2.0106800000001,4.76169 -3.0383300000002,7.1435500000001 -1.0275799999996,2.38177 -2.0615599999998,4.78845 -3.1542899999996,7.23633 -1.0927300000002,2.44796 -2.2333500000001,4.94504 -3.4326200000004,7.53784 -1.1993699999997,2.59282 -2.45641,5.27815 -3.8037099999999,8.09448 -0.1866199999999,0.39008 -0.4131199999997,0.83402 -0.6030300000001,1.2292499999999 5.7552100000001,6.09563 12.8413300000002,13.1497600000001 24.2834500000002,21.15234 -12.3402099999998,-5.0779200000001 -20.7651099999999,-10.15751 -27.0666500000001,-15.4467700000001 -0.3271700000001,0.6679100000001 -0.6138699999999,1.2643100000001 -0.9509299999997,1.94824 -0.4436500000002,0.9002400000001 -0.9763200000001,1.9231500000001 -1.4379900000002,2.8527800000001 -0.8096699999998,1.6603200000001 -1.6557400000002,3.3657600000001 -2.52807,5.1257400000001 -0.33524,0.6665199999998 -0.6294800000001,1.2428299999999 -0.9741300000001,1.9250399999999 -5.5073300000001,11.0526499999999 -12.3396199999997,24.2830399999996 -21.12915,40.7275399999999 24.0955699999998,-13.5758100000004 50.08533,-33.16242 97.2961500000002,-16.30493 -2.3670800000001,-4.4831900000004 -4.5431900000001,-8.6875600000002 -6.5869200000003,-12.6403800000003 -2.0436999999999,-3.9529399999999 -3.9424600000001,-7.6554999999996 -5.70556,-11.1560099999999 -1.7629700000001,-3.50043 -3.3921199999999,-6.8006899999999 -4.9169999999998,-9.92675 -1.5248600000001,-3.12599 -2.9383200000002,-6.0765000000002 -4.2675700000002,-8.90625 -1.32934,-2.8297 -2.5810600000001,-5.55264 -3.7573299999998,-8.16407 -1.1763400000001,-2.6113999999998 -2.2970800000002,-5.1131499999998 -3.3630400000003,-7.5842199999998 -1.0660699999999,-2.4712 -2.0865699999996,-4.89718 -3.0847099999999,-7.30591 -0.9982300000001,-2.4088 -1.97267,-4.81178 -2.94556,-7.23633 -0.3477199999998,-0.86638 -0.6955299999998,-1.7689 -1.0436999999999,-2.64404 -2.66339,-6.25269 -5.3982000000002,-12.73163 -8.5583499999999,-20.15503 z"
           id="path2520"
           inkscape:connector-curvature="0" />
      </g>
    </g>
  </g>
</svg>
