<?xml version="1.0" encoding="UTF-8" standalone="no"?>
<svg
   xmlns:dc="http://purl.org/dc/elements/1.1/"
   xmlns:cc="http://creativecommons.org/ns#"
   xmlns:rdf="http://www.w3.org/1999/02/22-rdf-syntax-ns#"
   xmlns:svg="http://www.w3.org/2000/svg"
   xmlns="http://www.w3.org/2000/svg"
   xmlns:sodipodi="http://sodipodi.sourceforge.net/DTD/sodipodi-0.dtd"
   xmlns:inkscape="http://www.inkscape.org/namespaces/inkscape"
   fill="#673AB7"
   width="48"
   height="48"
   viewBox="0 0 48 48"
   id="svg2"
   version="1.1"
   inkscape:version="0.91 r13725"
   sodipodi:docname="folder-system.svg">
  <metadata
     id="metadata10">
    <rdf:RDF>
      <cc:Work
         rdf:about="">
        <dc:format>image/svg+xml</dc:format>
        <dc:type
           rdf:resource="http://purl.org/dc/dcmitype/StillImage" />
        <dc:title></dc:title>
      </cc:Work>
    </rdf:RDF>
  </metadata>
  <defs
     id="defs8" />
  <sodipodi:namedview
     pagecolor="#ffffff"
     bordercolor="#666666"
     borderopacity="1"
     objecttolerance="10"
     gridtolerance="10"
     guidetolerance="10"
     inkscape:pageopacity="0"
     inkscape:pageshadow="2"
     inkscape:window-width="1366"
     inkscape:window-height="713"
     id="namedview6"
     showgrid="false"
     inkscape:zoom="5.6568543"
     inkscape:cx="-6.4622203"
     inkscape:cy="19.447356"
     inkscape:window-x="0"
     inkscape:window-y="30"
     inkscape:window-maximized="1"
     inkscape:current-layer="svg2"
     inkscape:snap-bbox="true"
     inkscape:bbox-paths="true"
     inkscape:snap-bbox-edge-midpoints="true" />
  <path
     d="M 40,12 24,12 20,8 8,8 C 5.79,8 4.02,9.79 4.02,12 L 4,36 c 0,2.21 1.79,4 4,4 l 32,0 c 2.21,0 4,-1.79 4,-4 l 0,-20 c 0,-2.21 -1.79,-4 -4,-4 z"
     id="path3382"
     inkscape:connector-curvature="0" />
  <path
     d="m 79.186441,15.966102 -6,0 0,11 c 0,2.76 -2.24,5 -5,5 -2.76,0 -5,-2.24 -5,-5 0,-2.76 2.24,-5 5,-5 1.13,0 2.16,0.39 3,1.02 l 0,-11.02 8,0 0,4 z"
     id="path3340"
     inkscape:connector-curvature="0"
     style="fill:#ffffff;fill-opacity:1" />
  <path
     inkscape:connector-curvature="0"
     d="m 31.4275,27.975 c 0.04,-0.32 0.07,-0.645 0.07,-0.975 0,-0.33 -0.03,-0.655 -0.07,-0.975 l 2.115,-1.655 c 0.19,-0.15 0.245,-0.42 0.12,-0.64 l -2,-3.465 c -0.125,-0.215 -0.385,-0.305 -0.61,-0.215 l -2.49,1.005 c -0.515,-0.395 -1.08,-0.73 -1.69,-0.985 l -0.375,-2.65 c -0.045,-0.235 -0.25,-0.42 -0.5,-0.42 l -4,0 c -0.25,0 -0.455,0.185 -0.495,0.42 l -0.375,2.65 c -0.61,0.255 -1.175,0.585 -1.69,0.985 l -2.49,-1.005 c -0.225,-0.085 -0.485,0 -0.61,0.215 l -2,3.465 c -0.125,0.215 -0.07,0.485 0.12,0.64 l 2.11,1.655 c -0.04,0.32 -0.07,0.645 -0.07,0.975 0,0.33 0.03,0.655 0.07,0.975 l -2.11,1.655 c -0.19,0.15 -0.245,0.42 -0.12,0.64 l 2,3.465 c 0.125,0.215 0.385,0.305 0.61,0.215 l 2.49,-1.005 c 0.515,0.395 1.08,0.73 1.69,0.985 l 0.375,2.65 c 0.04,0.235 0.245,0.42 0.495,0.42 l 4,0 c 0.25,0 0.455,-0.185 0.495,-0.42 l 0.375,-2.65 c 0.61,-0.255 1.175,-0.585 1.69,-0.985 l 2.49,1.005 c 0.225,0.085 0.485,0 0.61,-0.215 l 2,-3.465 c 0.125,-0.215 0.07,-0.485 -0.12,-0.64 l -2.11,-1.655 z m -7.43,2.525 c -1.935,0 -3.5,-1.565 -3.5,-3.5 0,-1.935 1.565,-3.5 3.5,-3.5 1.935,0 3.5,1.565 3.5,3.5 0,1.935 -1.565,3.5 -3.5,3.5 z"
     id="path4"
     style="fill:#ffffff;fill-opacity:1" />
</svg>
