<svg xmlns="http://www.w3.org/2000/svg" viewBox="0 0 96 96"><defs><clipPath><rect width="84" height="84" rx="6" x="6" y="6" fill="#fff"/></clipPath><filter x="-.192" y="-.192" width="1.384" height="1.384" color-interpolation-filters="sRGB"><feGaussianBlur stdDeviation="5.28"/></filter><filter color-interpolation-filters="sRGB"><feGaussianBlur stdDeviation="1.71"/></filter><linearGradient y1="20.221" x2="0" y2="138.66" gradientUnits="userSpaceOnUse"><stop stop-color="#fff"/><stop offset="1" stop-color="#fff" stop-opacity="0"/></linearGradient><linearGradient y1="92.54" x2="0" y2="7.02" gradientUnits="userSpaceOnUse" gradientTransform="scale(1.0059.99417)"><stop/><stop offset="1" stop-opacity=".588"/></linearGradient></defs><path d="m12 6c-3.324 0-6 2.676-6 6v72c0 3.324 2.676 6 6 6h72c3.324 0 6-2.676 6-6v-72c0-3.324-2.676-6-6-6h-72m12 10a8 8 0 0 1 0 16 8 8 0 0 1 0 -16m48 0a8 8 0 0 1 0 16 8 8 0 0 1 0 -16m-24 24a8 8 0 0 1 0 16 8 8 0 0 1 0 -16m-24 24a8 8 0 0 1 0 16 8 8 0 0 1 0 -16m48 0a8 8 0 0 1 0 16 8 8 0 0 1 0 -16" fill="#2196F3"/></svg>