<?xml version="1.0" encoding="UTF-8" standalone="no"?>
<svg
   xmlns:dc="http://purl.org/dc/elements/1.1/"
   xmlns:cc="http://creativecommons.org/ns#"
   xmlns:rdf="http://www.w3.org/1999/02/22-rdf-syntax-ns#"
   xmlns:svg="http://www.w3.org/2000/svg"
   xmlns="http://www.w3.org/2000/svg"
   xmlns:sodipodi="http://sodipodi.sourceforge.net/DTD/sodipodi-0.dtd"
   xmlns:inkscape="http://www.inkscape.org/namespaces/inkscape"
   width="40"
   height="40"
   viewBox="0 0 40 40"
   id="svg2"
   version="1.1"
   inkscape:version="0.91 r13725"
   sodipodi:docname="system-file-manager.svg"
   style="fill:#4CAF50">
  <metadata
     id="metadata10">
    <rdf:RDF>
      <cc:Work
         rdf:about="">
        <dc:format>image/svg+xml</dc:format>
        <dc:type
           rdf:resource="http://purl.org/dc/dcmitype/StillImage" />
        <dc:title />
      </cc:Work>
    </rdf:RDF>
  </metadata>
  <defs
     id="defs8" />
  <sodipodi:namedview
     pagecolor="#ffffff"
     bordercolor="#666666"
     borderopacity="1"
     objecttolerance="10"
     gridtolerance="10"
     guidetolerance="10"
     inkscape:pageopacity="0"
     inkscape:pageshadow="2"
     inkscape:window-width="1366"
     inkscape:window-height="713"
     id="namedview6"
     showgrid="false"
     inkscape:zoom="9.833333328144912"
     inkscape:cx="10.6900688323897"
     inkscape:cy="21.82585656493822"
     inkscape:window-x="0"
     inkscape:window-y="30"
     inkscape:window-maximized="1"
     inkscape:current-layer="svg2"
     fit-margin-top="0"
     fit-margin-left="0"
     fit-margin-right="0"
     fit-margin-bottom="0"
     inkscape:snap-bbox="true"
     inkscape:snap-page="true"
     inkscape:bbox-nodes="true"
     inkscape:snap-intersection-paths="true"
     inkscape:object-paths="true" />
  <path
     d="m 0,8 0,28 c 0,2.21 1.79,4 4,4 L 32,40 32,36 4,36 4,8 0,8 Z"
     id="path4136"
     inkscape:connector-curvature="0" />
  <path
     d="M 12,0 C 9.789999999999999,0 8,1.79 8,4 l 0,24 c 0,2.21 1.789999999999999,4 4,4 l 24,0 c 2.21,0 4,-1.79 4,-4 L 40,4 C 40,1.79 38.21,0 36,0 L 12,0 Z m 12,6 c 0.0145,0.03403 0.024732,0.056174 0.039062,0.089844 0.327332,0.768953 0.612453,1.439164 0.888672,2.087889999999999 0.00412,0.00966 0.007619,0.02165 0.011719,0.03125 0.034858,0.081779 0.076578,0.178606 0.111328,0.259766000000001 C 25.121843,8.632167 25.222362,8.866892999999999 25.289062,9.019531 26.01231,10.687759 26.812993,12.413438 28.320312,15.34375 c 0.06583,0.128399 0.14906,0.288299 0.21875,0.423828 0.80527200000001,1.5574 1.781506,3.406837 3.06836,5.802734 -0.675638,-0.405663 -1.543295,-0.769417 -2.753906,-1.083984 1.761288,0.90401 2.62335,1.739244 3.451172,2.38086 C 32.830232,23.841711 33.383442,24.864873 34,26 c -3.126436,-1.804948 -5.559406,-2.927877 -7.824219,-3.371094 0.075447,-0.341244 0.119407,-0.709279 0.128907,-1.091797 0.050296,-2.03078 -0.924364,-3.763106 -2.175782,-3.86914 -1.251418,-0.106034 -2.307122,1.455549 -2.357422,3.486328 l -0.003906,0.099609 c -0.003789,0.476366 0.048534,0.935206 0.146484,1.357422 C 19.624617,23.042056 17.168961,24.170503 14,26 c 1.962073,-3.525447 3.407845,-6.17558 4.554688,-8.326172 0.800119,-1.500808 1.445407,-2.7472 1.974609,-3.802734 0.267001,-0.532623 0.541941,-1.07868 0.759765,-1.533203 0.002,0.0017 0.00386,0.004159 0.00586,0.005859 0.118029,0.09907 0.253347,0.195179 0.386719,0.292969 0.053158,0.039017 0.098476,0.078347 0.154297,0.117187 0.052648,0.036595 0.116745,0.072925 0.171874,0.109375 0.150296,0.099522 0.300398,0.200178 0.470704,0.298828 0.0013,8e-4 0.002606,0.001185 0.003906,0.001953 0.232881,0.134777 0.48442,0.268628 0.759766,0.402344 0.276344,0.134081 0.575668,0.266676 0.90039,0.400391 -0.299821,-0.209768 -0.57054,-0.413857 -0.818359,-0.611328 -0.002,-0.0015 -0.00396,-0.002307 -0.00586,-0.003907 -0.745397,-0.594481 -1.276369,-1.132216 -1.730468,-1.613281 -0.0026,-0.0027 -0.007266,-0.005112 -0.009766,-0.007812 C 22.569268,9.612766999999999 23.109779,8.182582 24,6 Z"
     id="path4144"
     inkscape:connector-curvature="0" />
</svg>
