<svg xmlns="http://www.w3.org/2000/svg" viewBox="0 0 47.999999 48.000001" enable-background="new 0 0 401.98 559.472"><defs><clipPath id="K"><path fill="#fff" fill-rule="evenodd" stroke="#fff" stroke-width="2" d="m-35.56-105.49h500.21v314.11h-500.21z"/></clipPath><clipPath id="D"><path fill="#fff" fill-rule="evenodd" stroke="#fff" stroke-width="2" d="m-35.56-105.49h500.21v314.11h-500.21z"/></clipPath><clipPath id="B"><path fill="#fff" fill-rule="evenodd" stroke="#fff" stroke-width="2" d="m-35.56-105.49h500.21v314.11h-500.21z"/></clipPath><clipPath id="C"><path fill="#fff" fill-rule="evenodd" stroke="#fff" stroke-width="2" d="m-35.56-105.49h500.21v314.11h-500.21z"/></clipPath><clipPath id="E"><path fill="#fff" fill-rule="evenodd" stroke="#fff" stroke-width="2" d="m-35.56-105.49h500.21v314.11h-500.21z"/></clipPath><clipPath id="J"><path fill="#fff" fill-rule="evenodd" stroke="#fff" stroke-width="2" d="m-35.56-105.49h500.21v314.11h-500.21z"/></clipPath><clipPath id="F"><path fill="#fff" fill-rule="evenodd" stroke="#fff" stroke-width="2" d="m-35.56-105.49h500.21v314.11h-500.21z"/></clipPath><clipPath id="I"><path fill="#fff" fill-rule="evenodd" stroke="#fff" stroke-width="2" d="m-35.56-105.49h500.21v314.11h-500.21z"/></clipPath><clipPath id="G"><path fill="#fff" fill-rule="evenodd" stroke="#fff" stroke-width="2" d="m-35.56-105.49h500.21v314.11h-500.21z"/></clipPath><clipPath id="H"><path fill="#fff" fill-rule="evenodd" stroke="#fff" stroke-width="2" d="m-35.56-105.49h500.21v314.11h-500.21z"/></clipPath><clipPath id="A"><path fill="#fff" fill-rule="evenodd" stroke="#fff" stroke-width="2" d="m-35.56-105.49h500.21v314.11h-500.21z"/></clipPath><clipPath id="9"><path fill="#fff" fill-rule="evenodd" stroke="#fff" stroke-width="2" d="m-35.56-105.49h500.21v314.11h-500.21z"/></clipPath><clipPath id="2"><path fill="#fff" fill-rule="evenodd" stroke="#fff" stroke-width="2" d="m-35.56-105.49h500.21v314.11h-500.21z"/></clipPath><clipPath id="0"><path fill="#fff" fill-rule="evenodd" stroke="#fff" stroke-width="2" d="m-35.56-105.49h500.21v314.11h-500.21z"/></clipPath><clipPath id="1"><path fill="#fff" fill-rule="evenodd" stroke="#fff" stroke-width="2" d="m-35.56-105.49h500.21v314.11h-500.21z"/></clipPath><clipPath id="3"><path fill="#fff" fill-rule="evenodd" stroke="#fff" stroke-width="2" d="m-35.56-105.49h500.21v314.11h-500.21z"/></clipPath><clipPath id="8"><path fill="#fff" fill-rule="evenodd" stroke="#fff" stroke-width="2" d="m-35.56-105.49h500.21v314.11h-500.21z"/></clipPath><clipPath id="4"><path fill="#fff" fill-rule="evenodd" stroke="#fff" stroke-width="2" d="m-35.56-105.49h500.21v314.11h-500.21z"/></clipPath><clipPath id="7"><path fill="#fff" fill-rule="evenodd" stroke="#fff" stroke-width="2" d="m-35.56-105.49h500.21v314.11h-500.21z"/></clipPath><clipPath id="5"><path fill="#fff" fill-rule="evenodd" stroke="#fff" stroke-width="2" d="m-35.56-105.49h500.21v314.11h-500.21z"/></clipPath><clipPath id="6"><path fill="#fff" fill-rule="evenodd" stroke="#fff" stroke-width="2" d="m-35.56-105.49h500.21v314.11h-500.21z"/></clipPath></defs><g transform="matrix(.11462 0 0 .11462 1.4 11.219)" stroke="#795548" stroke-width="8"><g fill-rule="evenodd"><g stroke-linecap="round"><path clip-path="url(#K)" d="m10.634 300.49c.764 15.751 16.499 8.463 23.626 3.539 6.765-4.675 8.743-.789 9.337-10.01.389-6.06 1.088-12.13.744-18.216-10.23-.927-21.357 1.509-29.744 7.602-4.32 3.139-12.42 13.158-3.963 17.09" fill="#fff"/><path clip-path="url(#J)" d="m10.634 300.49c2.29-.852 4.717-1.457 6.271-3.528" fill="#c6b198"/><g fill="#fff"><path clip-path="url(#I)" d="m46.997 112.85c-60.3-16.956-15.461-93.66 32.959-62.11l-32.959 62.11z"/><path clip-path="url(#H)" d="m314.89 44.984c47.727-33.523 90.86 42.11 35.388 61.14l-35.388-61.14"/></g></g><g fill="#795548"><path clip-path="url(#C)" d="m49.51 91.67c-7.955-4.208-13.791-9.923-8.925-19.12 4.505-8.518 12.874-7.593 20.83-3.385l-11.905 22.509"/><path clip-path="url(#B)" d="m337.72 83.67c7.955-4.208 13.791-9.923 8.925-19.12-4.505-8.518-12.874-7.593-20.83-3.385l11.905 22.509z"/></g><g stroke-linecap="round"><path clip-path="url(#A)" d="m392.48 298.49c-.764 15.751-16.499 8.463-23.626 3.539-6.765-4.675-8.743-.789-9.337-10.01-.389-6.06-1.088-12.13-.744-18.216 10.23-.927 21.357 1.509 29.744 7.602 4.319 3.139 12.42 13.158 3.963 17.09" fill="#fff"/><path clip-path="url(#9)" d="m392.48 298.49c-2.29-.852-4.717-1.457-6.271-3.528" fill="#c6b198"/></g></g><g clip-path="url(#8)" fill="#fff"><path d="m195.51 13.12c60.37 0 116.95 8.633 146.45 66.63 26.478 65.01 17.06 135.1 21.1 203.81 3.468 58.992 11.157 127.14-16.21 181.81-28.79 57.51-100.73 71.982-160 69.863-46.555-1.666-102.79-16.854-129.07-59.39-30.826-49.9-16.232-124.1-13.993-179.62 2.652-65.771-17.815-131.74 3.792-196.1 22.415-66.763 82.87-81.85 147.93-86.998" fill="#fff" fill-rule="evenodd" stroke-linecap="round"/></g><g fill-rule="evenodd"><g fill="#fff" stroke-linecap="round"><path clip-path="url(#7)" d="m206.17 94.16c10.838 63 113.82 46.34 99.03-17.197-13.264-56.98-102.63-41.21-99.03 17.197"/><path clip-path="url(#6)" d="m83.1 104.35c14.05 54.85 101.86 40.807 98.55-14.213-3.966-65.895-111.98-53.18-98.55 14.213"/><path clip-path="url(#5)" d="m218.59 169.76c.046 8.191 1.861 17.387.312 26.1-2.091 3.952-6.193 4.37-9.729 5.967-4.89-.767-9-3.978-10.963-8.552-1.255-9.946.468-19.576.785-29.526l19.595 6.01z"/></g><g clip-path="url(#4)"><ellipse ry="16.06" rx="14.829" cy="95.4" cx="107.32" fill="#795548"/><ellipse ry="4.082" rx="3.496" cy="99.03" cx="114.07" fill="#fff"/></g><g clip-path="url(#3)"><ellipse ry="16.06" rx="14.582" cy="91.4" cx="231.57" fill="#795548"/><ellipse ry="4.082" rx="3.438" cy="95.03" cx="238.2" fill="#fff"/></g><g fill="#fff" stroke-linecap="round"><path clip-path="url(#2)" d="m176.22 168.87c-6.47 15.68 3.608 47.03 21.16 23.908-1.255-9.946.468-19.576.785-29.526l-21.948 5.618z"/><path clip-path="url(#1)" d="m178.43 138.67c-12.06 1.028-21.916 15.366-15.646 26.709 8.303 15.02 26.836-1.329 38.38.203 13.285.272 24.17 14.05 34.84 2.49 11.867-12.854-5.109-25.373-18.377-30.97l-39.2 1.568z"/></g><path clip-path="url(#0)" d="m176.91 138.04c-.893-20.891 38.938-23.503 43.642-6.02 4.692 17.446-41.681 21.498-43.642 6.02z" fill="#795548"/><path d="m37.86 209.88l325.26-.007" fill="none"/></g></g></svg>