<svg xmlns="http://www.w3.org/2000/svg" xmlns:xlink="http://www.w3.org/1999/xlink" viewBox="0 0 625 750"><defs><path id="P" d="M328.86324 320.64151A18.08748 27.1312 0 1 1 292.68828 320.64151 18.08748 27.1312 0 1 1 328.86324 320.64151"/><path id="Q" d="m415.07 495.76c-3.01 24.906-35.813 76.63-69.52 81.53-34.26 5.336-66.43-34.06-74.15-71.11-9.889-41.21 22.587-57.6 71.938-56.627 53.3 1.654 74.12 13.891 71.73 46.21"/><linearGradient xlink:href="#0" id="G" gradientUnits="userSpaceOnUse" x1="867.35" y1="234.74" x2="867.33" y2="314.84" gradientTransform="scale(.57267 1.74621)"/><linearGradient xlink:href="#0" id="O" gradientUnits="userSpaceOnUse" x1="288.82" y1="398.85" x2="288.38" y2="482.56" gradientTransform="scale(1.22194.81837)"/><linearGradient xlink:href="#0" id="F" gradientUnits="userSpaceOnUse" y1="242.94" x2="0" y2="331.45" gradientTransform="scale(.57171 1.74915)"/><linearGradient xlink:href="#3" id="D" gradientUnits="userSpaceOnUse" x1="320.75" y1="498.18" x2="321.32" y2="614.5" gradientTransform="scale(1.0748.93041)"/><linearGradient xlink:href="#0" id="E" gradientUnits="userSpaceOnUse" x1="322.48" y1="435.27" x2="323.25" y2="488.48" gradientTransform="scale(1.077.9285)"/><linearGradient xlink:href="#1" id="H" gradientUnits="userSpaceOnUse" x1="236.25" y1="657.11" x2="212.51" y2="737.41" gradientTransform="scale(1.01151.98862)"/><linearGradient xlink:href="#1" id="N" gradientUnits="userSpaceOnUse" x1="284.69" y1="410.46" x2="285.46" y2="485.7" gradientTransform="scale(1.21868.82056)"/><linearGradient xlink:href="#2" id="I" gradientUnits="userSpaceOnUse" x1="381.57" y1="655.73" x2="279.64" y2="386.67" gradientTransform="scale(1.0655.93853)"/><linearGradient xlink:href="#0" id="M" gradientUnits="userSpaceOnUse" x1="316.94" y1="474.02" x2="371.61" y2="582.64" gradientTransform="scale(1.0655.93853)"/><linearGradient xlink:href="#0" id="K" gradientUnits="userSpaceOnUse" gradientTransform="scale(1.0077.99234)" x1="117.89" y1="587.24" x2="182.25" y2="704.73"/><linearGradient xlink:href="#1" id="J" gradientUnits="userSpaceOnUse" x1="218.12" y1="630.3" x2="203.13" y2="737.85" gradientTransform="scale(1.0099.99025)"/><linearGradient xlink:href="#0" id="L" gradientUnits="userSpaceOnUse" x1="223.1" y1="570.42" x2="230.53" y2="710.98" gradientTransform="scale(.9995 1.0005)"/><linearGradient xlink:href="#2" id="C" gradientUnits="userSpaceOnUse" x1="375.17" y1="419.78" x2="377.49" y2="324.04" gradientTransform="scale(.64978 1.53897)"/><linearGradient id="3"><stop stop-color="#fff" stop-opacity=".8"/><stop offset="1" stop-color="#fff" stop-opacity="0"/></linearGradient><linearGradient xlink:href="#2" id="5" gradientUnits="userSpaceOnUse" x1="400.58" y1="369.53" x2="400.84" y2="304.08" gradientTransform="scale(.57526 1.73834)"/><linearGradient id="2"><stop stop-color="#ffeed7"/><stop offset="1" stop-color="#bdbfc2"/></linearGradient><linearGradient id="0"><stop stop-color="#fff" stop-opacity=".65"/><stop offset="1" stop-color="#fff" stop-opacity="0"/></linearGradient><linearGradient id="1"><stop stop-color="#ffa63f"/><stop offset="1" stop-color="#ff0"/></linearGradient><linearGradient xlink:href="#2" id="B" gradientUnits="userSpaceOnUse" spreadMethod="reflect" y1="528.87" x2="0" y2="394.1" gradientTransform="scale(.81286 1.23023)"/><linearGradient xlink:href="#0" id="A" gradientUnits="userSpaceOnUse" x1="389.64" y1="242.28" x2="387.07" y2="281.33" gradientTransform="scale(.8165 1.22474)"/><linearGradient xlink:href="#2" id="8" gradientUnits="userSpaceOnUse" x1="381.39" y1="277.5" x2="380.55" y2="245.68" gradientTransform="scale(.8165 1.22474)"/><linearGradient xlink:href="#0" id="9" gradientUnits="userSpaceOnUse" gradientTransform="scale(.8165 1.22474)" x1="379.1" y1="240.93" x2="376.8" y2="281.02"/><linearGradient xlink:href="#2" id="7" gradientUnits="userSpaceOnUse" gradientTransform="scale(.8165 1.22474)" x1="378.94" y1="278.6" x2="380.27" y2="243.92"/><linearGradient xlink:href="#3" id="6" gradientUnits="userSpaceOnUse" x1="303.02" y1="237.93" x2="297.09" y2="330.1" gradientTransform="scale(1.11607.896)"/><radialGradient id="4" gradientTransform="scale(1.04523.95673)" cx="446.78" cy="1219.41" r="195.07" gradientUnits="userSpaceOnUse"><stop stop-color="#3f2600" stop-opacity=".6"/><stop offset="1" stop-color="#3f2600" stop-opacity="0"/></radialGradient></defs><path transform="matrix(1.4177 0 0 .41475-349.55 157.94)" d="M670.88202 1166.6423A203.89551 186.63016 0 1 1 263.091 1166.6423 203.89551 186.63016 0 1 1 670.88202 1166.6423" fill="url(#4)"/><path transform="matrix(1.25 0 0 1.25-125.3-231.76)" d="m223.63 632.24c-22.388-32.22-26.754-136.98 25.487-201.43 25.886-30.918 32.49-52.46 34.531-81.39 1.389-32.979-23.325-131.44 69.883-138.94 94.41-7.532 89.34 85.66 88.79 134.97-.451 41.64 30.574 65.24 51.796 97.69 39.28 59.63 35.957 162.3-7.399 217.87-54.917 69.57-101.95 39.4-133.19 41.93-58.49 3.202-60.43 34.391-129.9-70.71"/><path transform="matrix(-1.67739-.02245-.02112 1.4709 862.83-357.27)" d="m246.57 470.86c-12.239 12.496-44.4 69.09 4.869 105.36 17.369 12.633-16.377 59.5-32 36.31-27.57-41.618-8.831-106.94 8.315-130.19 11.652-16.487 29.23-22.676 18.821-11.48" fill="url(#5)"/><path transform="matrix(-1.67755 0 0 1.52374 863.87-382.33)" d="m256.51 459.84c-19.915 17.717-56.18 80.09-3.288 120.61 17.37 12.632-15.393 52.46-33.79 32.09-63.963-70.82 1.669-152.25 24.26-180.25 20.19-24.347 38.08 5.752 12.816 27.555z" stroke="#000" stroke-width=".977"/><path transform="matrix(1.26626-.07137-.04598 1.19574-108.61-190.01)" d="M399.56879 258.15753A58.37323 46.863022 0 1 1 282.82233 258.15753 58.37323 46.863022 0 1 1 399.56879 258.15753" fill="url(#6)"/><use transform="matrix(1.30445-.07553.07713 1.34257-166-241.87)" fill="url(#7)" xlink:href="#P"/><use transform="matrix(-1.81082.04951.03173 1.55333 896.71-349.03)" fill="url(#8)" xlink:href="#P"/><use transform="matrix(-.8232-.00176-.01823.85266 602.92-102.24)" xlink:href="#P"/><use transform="matrix(.59438-.0723.06882.70584 56.696-31.834)" xlink:href="#P"/><use transform="matrix(-.48032-.03645-.04679.47561 502.74 22.76)" fill="url(#9)" xlink:href="#P"/><use transform="matrix(.35691-.04082.04132.39854 138.58 50.738)" fill="url(#A)" xlink:href="#P"/><path transform="matrix(1.25 0 0 1.25-125.3-232.48)" d="m258.7 495.43c12.836-29.1 40.11-80.23 40.695-119.76 0-31.442 94.18-38.951 101.74-7.558 7.558 31.393 26.741 78.48 38.95 101.16 12.208 22.672 47.809 94.7 9.884 157.55-34.16 55.644-137.73 99.67-193.01-7.557-18.603-37.21-15.285-83.32 1.744-123.83" fill="url(#B)"/><path transform="matrix(1.38936-.11107.10221 1.30214-202.34-230.19)" d="m242.91 473.81c-11.263 18.967-35.5 69.31 12.137 102.05 51.31 34.82 46.47 97.06-15.607 61.955-56.777-31.789-22.845-137.78-4.51-162.27 12.11-17.214 29.897-38.03 7.98-1.736" fill="url(#C)"/><path transform="matrix(1.25 0 0 1.25-125.3-231.76)" d="m256.51 449.72c-17.465 28.508-59.38 95.81-3.288 130.72 75.57 46.36 54.17 92.71-14.799 50.974-97.11-58.26-11.825-175.62 27.13-220.34 44.44-50.2 8.554 9.09-9.04 38.641z" stroke="#000" stroke-width="1.25"/><path d="m421.48 504.73c0 32.412-29.27 74.52-79.53 74.14-51.828.455-73.949-41.726-73.949-74.14 0-32.412 34.379-58.717 76.74-58.717 42.36 0 76.74 26.305 76.74 58.717" transform="matrix(1.30209 0 0 1.22525-140.71-217.81)" fill="url(#D)"/><path d="m398.23 412.29c-.612 38.572-23.18 47.671-51.74 47.671-28.561 0-49.29-5.694-51.741-47.671 0-26.314 23.18-41.542 51.741-41.542 28.56 0 51.74 15.228 51.74 41.542" transform="matrix(1.1868 0 0 1.06708-100.13-164.33)" fill="url(#E)"/><path transform="matrix(1.25 0 0 1.25-125.3-231.76)" d="m234.28 456.48c17.716-26.996 55.02-68.36 6.977 5.813-38.951 61.04-14.403 100.27-1.744 111.04 36.527 32.562 34.966 54.35 6.395 37.21-61.62-36.626-48.835-98.25-11.628-154.06" fill="url(#F)"/><path transform="matrix(1.25 0 0 1.25-125.3-231.76)" d="m490.66 467.52c-15.319-31.701-64.13-111.9 2.326-18.603 60.46 84.3 18.02 143.01 10.464 148.83-7.557 5.813-33.14 17.44-25.579-2.907 7.557-20.347 45.23-58.973 12.789-127.32" fill="url(#G)"/><path transform="matrix(1.25 0 0 1.25-125.3-231.76)" d="m220.91 716.92c-40.442-21.416-99.25 4.124-77.902-54.07 4.276-13.238-6.375-33.01.581-45.926 8.139-15.698 25.58-12.209 36.05-22.674 10.318-10.891 16.859-29.649 36.04-26.742 19.18 2.907 31.945 26.461 45.34 55.23 9.883 20.638 44.941 49.664 42.65 72.76-2.696 35.5-43.03 42.19-82.76 21.421z" fill="url(#H)" stroke="#e68c3f" stroke-width="6.25"/><use transform="matrix(.59821.26858-.23962.61721 389.82 76.21)" fill="url(#I)" xlink:href="#Q"/><path transform="matrix(-1.1685.42315.47528 1.16478 417.59-278.07)" d="m220.27 718.4c-41.33-23.59-99.89 5.605-77.26-55.55 4.736-13.07-6.596-33.552.36-46.47 8.139-15.698 25.801-11.665 36.27-22.13 10.318-10.891 18.827-27.868 38.01-24.961 19.18 2.907 29.977 24.68 43.38 53.45 9.883 20.638 43.42 48.971 41.12 72.07-2.696 35.5-42.724 45.47-81.88 23.595z" fill="url(#J)" stroke="#e68c3f" stroke-width="6.251"/><path transform="matrix(-.9451.34375.42408.95606 403.58-128.59)" d="m216.48 675.68c-86.53-57.5-47.31-70.96-36.843-81.42 10.318-10.891 18.827-27.868 38.01-24.961 19.18 2.907 29.977 24.68 43.38 53.45 9.883 20.638 43.06 48.918 41.12 72.07-2.616 27.11-48.19 5.487-85.67-19.13" fill="url(#K)"/><path transform="matrix(1.0043-.05229-.0174 1.04575-66.56-92.72)" d="m216.51 677.07c-86.53-57.5-46.797-73.57-33.946-81.28 15.399-9.942 15.16-30.831 34.34-27.924 19.18 2.907 30.725 26.11 44.12 54.875 9.883 20.638 43.06 48.918 41.12 72.07-2.616 27.11-48.17 6.878-85.65-17.736" fill="url(#L)"/><use transform="matrix(.51558.21526-.20653.49467 402.55 158.31)" xlink:href="#Q"/><use transform="matrix(.35123.14946-.12886.34347 413.77 254.04)" fill="url(#M)" xlink:href="#Q"/><g stroke="#e68c3f"><path transform="matrix(1.25 0 0 1.25-125.3-231.76)" d="m309.95 338.73c7.147-6.77 24.811-27.07 57.961-5.755 6.162 4.01 11.162 4.377 23.02 9.455 23.726 9.749 12.382 33.26-12.744 41.11-10.758 3.489-20.536 16.556-40.13 15.439-16.734-.977-21.12-11.874-31.398-17.906-18.269-10.311-20.965-24.25-11.1-31.653 9.866-7.399 13.725-10.06 14.389-10.688z" fill="url(#N)" stroke-width="3.75"/><path transform="matrix(1.25 0 0 1.25-125.3-231.76)" d="m391.25 357.64c-9.883.581-31.393 22.09-54.07 22.09-22.673 0-36.04-20.929-39.532-20.929" fill="none" stroke-width="2.5"/></g><path transform="matrix(.62789 0 0 .59567 81.61-12.435)" d="m309.95 338.73c7.147-6.77 29.691-25.348 59.59-6.328 6.299 3.766 12.804 7.865 22.478 13.464 19.16 11.748 9.671 28.678-13.286 39.39-10.418 4.495-27.593 14.415-40.671 13.721-14.533-1.408-23.935-11.399-33.567-17.906-17.67-12.303-16.597-22.24-8.389-30.508 6.205-5.679 13.183-11.204 13.847-11.833" fill="url(#O)"/></svg>