<?xml version="1.0" encoding="UTF-8" standalone="no"?>
<svg
   xmlns:dc="http://purl.org/dc/elements/1.1/"
   xmlns:cc="http://creativecommons.org/ns#"
   xmlns:rdf="http://www.w3.org/1999/02/22-rdf-syntax-ns#"
   xmlns:svg="http://www.w3.org/2000/svg"
   xmlns="http://www.w3.org/2000/svg"
   xmlns:sodipodi="http://sodipodi.sourceforge.net/DTD/sodipodi-0.dtd"
   xmlns:inkscape="http://www.inkscape.org/namespaces/inkscape"
   fill="#2196F3"
   width="48"
   height="48"
   viewBox="0 0 48 48"
   id="svg2"
   version="1.1"
   inkscape:version="0.91 r13725"
   sodipodi:docname="zoom-best-fit.svg">
  <metadata
     id="metadata10">
    <rdf:RDF>
      <cc:Work
         rdf:about="">
        <dc:format>image/svg+xml</dc:format>
        <dc:type
           rdf:resource="http://purl.org/dc/dcmitype/StillImage" />
      </cc:Work>
    </rdf:RDF>
  </metadata>
  <defs
     id="defs8" />
  <sodipodi:namedview
     pagecolor="#ffffff"
     bordercolor="#666666"
     borderopacity="1"
     objecttolerance="10"
     gridtolerance="10"
     guidetolerance="10"
     inkscape:pageopacity="0"
     inkscape:pageshadow="2"
     inkscape:window-width="1366"
     inkscape:window-height="713"
     id="namedview6"
     showgrid="false"
     inkscape:snap-bbox="true"
     inkscape:bbox-nodes="true"
     inkscape:object-nodes="true"
     inkscape:object-paths="true"
     inkscape:snap-intersection-paths="true"
     inkscape:snap-smooth-nodes="false"
     inkscape:zoom="2.385346546564954"
     inkscape:cx="-40.38377358809224"
     inkscape:cy="12.65989546672492"
     inkscape:window-x="0"
     inkscape:window-y="30"
     inkscape:window-maximized="1"
     inkscape:current-layer="svg2"
     inkscape:snap-nodes="false" />
  <path
     id="path4169"
     style="opacity:1;fill:#2196F3;fill-opacity:1;fill-rule:nonzero;stroke:none;stroke-width:3;stroke-miterlimit:4;stroke-dasharray:none;stroke-opacity:1"
     d="m 14,24 0,-4 2,0 0,2 2,0 0,2 -4,0 z m 10,0 0,-4 -2,0 0,2 -2,0 0,2 4,0 z m 0,-10 0,4 -2,0 0,-2 -2,0 0,-2 4,0 z m -10,0 0,4 2,0 0,-2 2,0 0,-2 -4,0 z M 19,6 C 11.82,6 6,11.82 6,19 6,26.18 11.82,32 19,32 c 3.23,0 6.17921875000001,-1.18085937499999 8.44921875,-3.130859375 L 28,29.419921875 28,31 38,40.98046875 40.98046875,38 31,28 29.41015625,28 28.859375,27.44921875 C 30.819375,25.17921875 32,22.22999999999999 32,19 32,11.82 26.18,6 19,6 Z m 0,4 c 4.97,0 9,4.03 9,9 0,4.97 -4.03,9 -9,9 -4.97,0 -9,-4.03 -9,-9 0,-4.97 4.03,-9 9,-9 z" />
</svg>
