<?xml version="1.0" encoding="UTF-8" standalone="no"?>
<svg
   xmlns:dc="http://purl.org/dc/elements/1.1/"
   xmlns:cc="http://creativecommons.org/ns#"
   xmlns:rdf="http://www.w3.org/1999/02/22-rdf-syntax-ns#"
   xmlns:svg="http://www.w3.org/2000/svg"
   xmlns="http://www.w3.org/2000/svg"
   xmlns:sodipodi="http://sodipodi.sourceforge.net/DTD/sodipodi-0.dtd"
   xmlns:inkscape="http://www.inkscape.org/namespaces/inkscape"
   fill="#00BCD4"
   width="48"
   height="48"
   viewBox="0 0 48 48"
   id="svg2"
   version="1.1"
   inkscape:version="0.91 r13725"
   sodipodi:docname="nm-device-wired-secure.svg">
  <metadata
     id="metadata10">
    <rdf:RDF>
      <cc:Work
         rdf:about="">
        <dc:format>image/svg+xml</dc:format>
        <dc:type
           rdf:resource="http://purl.org/dc/dcmitype/StillImage" />
      </cc:Work>
    </rdf:RDF>
  </metadata>
  <defs
     id="defs8" />
  <sodipodi:namedview
     pagecolor="#ffffff"
     bordercolor="#666666"
     borderopacity="1"
     objecttolerance="10"
     gridtolerance="10"
     guidetolerance="10"
     inkscape:pageopacity="0"
     inkscape:pageshadow="2"
     inkscape:window-width="1366"
     inkscape:window-height="713"
     id="namedview6"
     showgrid="false"
     inkscape:snap-page="true"
     inkscape:snap-bbox="true"
     inkscape:bbox-nodes="true"
     inkscape:zoom="3.897603885191483"
     inkscape:cx="-32.23566725571409"
     inkscape:cy="9.017283998226858"
     inkscape:window-x="0"
     inkscape:window-y="30"
     inkscape:window-maximized="1"
     inkscape:current-layer="svg2" />
  <path
     d="M32 34.02V20h-4v14.02h-6L30 42l8-7.98h-6zM18 6l-8 7.98h6V28h4V13.98h6L18 6z"
     id="path4" />
  <path
     style="fill:#00BCD4"
     d="m 41.49182074150719,99.69402934072343 c 0.56,0 1.09,0.08 1.62999999999999,0.15999999999998 l 5.37000000000001,-7.15999999999998 c -6.69,-5.02000000000001 -15,-8 -24.00000000000001,-8 -9,0 -17.309999999999977,2.97999999999999 -23.9999999999999964,8 l 23.9999999999999964,32.00000000000007 7,-9.33 0,-5.67 c 0,-5.5200000000001 4.48000000000001,-10.00000000000006 10.00000000000001,-10.00000000000006 z"
     id="path4156"
     inkscape:connector-curvature="0" />
  <path
     style="fill:#00BCD4"
     d="m 46.49182074150719,112.6940293407234 0,-3 c 0,-2.76 -2.24000000000001,-5 -5,-5 -2.76,0 -5,2.24 -5,5 l 0,3 c -1.10000000000001,0 -2,0.9 -2,2 l 0,8 c 0,1.1 0.89999999999999,2 2,2 l 10,0 c 1.09999999999999,0 2,-0.9 2,-2 l 0,-8 c 0,-1.1 -0.90000000000001,-2 -2,-2 z"
     id="path4154"
     inkscape:connector-curvature="0" />
  <path
     style="fill:#00BCD4"
     d="m 44.49182074150719,112.6940293407234 -6,0 0,-3 c 0,-1.66 1.34,-3 3,-3 1.65999999999998,0 3,1.34 3,3 l 0,3 z"
     id="path4140"
     inkscape:connector-curvature="0" />
  <path
     style="fill:#00BCD4"
     d="m 43,32 c -1.97142857142857,0 -3.57142857142857,1.792 -3.57142857142857,4 l 0,2.4 C 38.64285714285714,38.4 38,39.12000000000001 38,40 l 0,6.39999999999999 C 38,47.27999999999998 38.64285714285714,48 39.42857142857143,48 l 7.14285714285716,0 C 47.35714285714288,48 48,47.27999999999999 48,46.39999999999999 L 48,40 c 0,-0.88 -0.64285714285712,-1.6 -1.42857142857141,-1.6 l 0,-2.4 c 0,-2.208 -1.60000000000001,-4.00000000000001 -3.57142857142859,-4.00000000000001 z m 0,1.6 c 1.18571428571429,0 2.14285714285716,1.07199999999998 2.14285714285716,2.4 l 0,2.4 -4.2857142857143,0 0,-2.4 c 0,-1.32800000000002 0.95714285714287,-2.4 2.14285714285714,-2.4 z"
     id="path4158"
     inkscape:connector-curvature="0" />
</svg>
