<?xml version="1.0" encoding="UTF-8" standalone="no"?>
<svg
   xmlns:dc="http://purl.org/dc/elements/1.1/"
   xmlns:cc="http://creativecommons.org/ns#"
   xmlns:rdf="http://www.w3.org/1999/02/22-rdf-syntax-ns#"
   xmlns:svg="http://www.w3.org/2000/svg"
   xmlns="http://www.w3.org/2000/svg"
   xmlns:xlink="http://www.w3.org/1999/xlink"
   xmlns:sodipodi="http://sodipodi.sourceforge.net/DTD/sodipodi-0.dtd"
   xmlns:inkscape="http://www.inkscape.org/namespaces/inkscape"
   fill="#FF5722"
   width="48"
   height="48"
   viewBox="0 0 48 48"
   id="svg2"
   version="1.1"
   inkscape:version="0.91 r13725"
   sodipodi:docname="application-x-jar2.svg">
  <metadata
     id="metadata10">
    <rdf:RDF>
      <cc:Work
         rdf:about="">
        <dc:format>image/svg+xml</dc:format>
        <dc:type
           rdf:resource="http://purl.org/dc/dcmitype/StillImage" />
        <dc:title></dc:title>
      </cc:Work>
    </rdf:RDF>
  </metadata>
  <defs
     id="defs8">
    <linearGradient
       gradientTransform="scale(1.0058652,0.994169)"
       gradientUnits="userSpaceOnUse"
       id="ButtonShadow"
       y2="7.0165396"
       x2="45.447727"
       y1="92.539597"
       x1="45.447727">
      <stop
         offset="0"
         style="stop-color:#000000;stop-opacity:1"
         id="stop3750" />
      <stop
         offset="1"
         style="stop-color:#000000;stop-opacity:0.58823532"
         id="stop3752" />
    </linearGradient>
    <linearGradient
       id="linearGradient3737">
      <stop
         offset="0"
         style="stop-color:#ffffff;stop-opacity:1"
         id="stop3739" />
      <stop
         offset="1"
         style="stop-color:#ffffff;stop-opacity:0"
         id="stop3741" />
    </linearGradient>
    <linearGradient
       id="linearGradient3700">
      <stop
         offset="0"
         style="stop-color:#e1e1e1;stop-opacity:1"
         id="stop3702" />
      <stop
         offset="1"
         style="stop-color:#f0f0f0;stop-opacity:1"
         id="stop3704" />
    </linearGradient>
    <filter
       color-interpolation-filters="sRGB"
       id="filter3174">
      <feGaussianBlur
         stdDeviation="1.71"
         id="feGaussianBlur3176" />
    </filter>
    <linearGradient
       gradientUnits="userSpaceOnUse"
       xlink:href="#linearGradient3737"
       id="linearGradient3188"
       y2="63.893143"
       x2="36.357143"
       y1="6"
       x1="36.357143" />
    <filter
       color-interpolation-filters="sRGB"
       id="filter3794"
       height="1.3839999"
       width="1.3839999"
       y="-0.192"
       x="-0.192">
      <feGaussianBlur
         stdDeviation="5.28"
         id="feGaussianBlur3796" />
    </filter>
    <linearGradient
       gradientUnits="userSpaceOnUse"
       xlink:href="#linearGradient3737"
       id="linearGradient3613"
       y2="138.66119"
       x2="48"
       y1="20.220806"
       x1="48" />
    <radialGradient
       gradientTransform="matrix(1.1573129,0,0,0.99590774,-7.5510206,0.19713193)"
       gradientUnits="userSpaceOnUse"
       xlink:href="#linearGradient3737"
       id="radialGradient3619"
       fy="90.171875"
       fx="48"
       r="42"
       cy="90.171875"
       cx="48" />
    <clipPath
       id="clipPath3613">
      <rect
         style="fill:#ffffff;fill-opacity:1;fill-rule:nonzero;stroke:none"
         id="rect3615"
         y="6"
         x="6"
         ry="6"
         rx="6"
         height="84"
         width="84" />
    </clipPath>
    <linearGradient
       gradientUnits="userSpaceOnUse"
       xlink:href="#linearGradient3700"
       id="linearGradient3617"
       y2="5.9877172"
       x2="48"
       y1="90"
       x1="48" />
    <linearGradient
       gradientTransform="matrix(1.0058652,0,0,0.994169,100,0)"
       gradientUnits="userSpaceOnUse"
       id="ButtonShadow-0-1"
       y2="7.0165396"
       x2="45.447727"
       y1="92.539597"
       x1="45.447727">
      <stop
         offset="0"
         style="stop-color:#000000;stop-opacity:1"
         id="stop3750-8-1" />
      <stop
         offset="1"
         style="stop-color:#000000;stop-opacity:0.58823532"
         id="stop3752-5-2" />
    </linearGradient>
    <linearGradient
       gradientTransform="matrix(1.0238095,0,0,1.0119048,-1.1428571,-98.071429)"
       gradientUnits="userSpaceOnUse"
       xlink:href="#ButtonShadow-0-1"
       id="linearGradient3780-1"
       y2="90.238609"
       x2="32.251034"
       y1="6.1317081"
       x1="32.251034" />
    <linearGradient
       gradientTransform="translate(0,-97)"
       gradientUnits="userSpaceOnUse"
       xlink:href="#ButtonShadow-0-1"
       id="linearGradient3721-3"
       y2="90.238609"
       x2="32.251034"
       y1="6.1317081"
       x1="32.251034" />
    <linearGradient
       gradientTransform="scale(1.0058652,0.994169)"
       gradientUnits="userSpaceOnUse"
       id="ButtonShadow-5"
       y2="7.0165396"
       x2="45.447727"
       y1="92.539597"
       x1="45.447727">
      <stop
         offset="0"
         style="stop-color:#000000;stop-opacity:1"
         id="stop3750-9" />
      <stop
         offset="1"
         style="stop-color:#000000;stop-opacity:0.58823532"
         id="stop3752-9" />
    </linearGradient>
    <filter
       style="color-interpolation-filters:sRGB"
       id="filter3174-1">
      <feGaussianBlur
         stdDeviation="1.71"
         id="feGaussianBlur3176-5" />
    </filter>
    <linearGradient
       gradientTransform="scale(1.0058652,0.994169)"
       gradientUnits="userSpaceOnUse"
       id="ButtonShadow-8"
       y2="7.0165396"
       x2="45.447727"
       y1="92.539597"
       x1="45.447727">
      <stop
         offset="0"
         style="stop-color:#000000;stop-opacity:1"
         id="stop3750-3" />
      <stop
         offset="1"
         style="stop-color:#000000;stop-opacity:0.58823532"
         id="stop3752-0" />
    </linearGradient>
    <filter
       style="color-interpolation-filters:sRGB"
       id="filter3174-0">
      <feGaussianBlur
         stdDeviation="1.71"
         id="feGaussianBlur3176-1" />
    </filter>
  </defs>
  <sodipodi:namedview
     pagecolor="#ffffff"
     bordercolor="#666666"
     borderopacity="1"
     objecttolerance="10"
     gridtolerance="10"
     guidetolerance="10"
     inkscape:pageopacity="0"
     inkscape:pageshadow="2"
     inkscape:window-width="1366"
     inkscape:window-height="713"
     id="namedview6"
     showgrid="false"
     inkscape:zoom="3.4766084"
     inkscape:cx="-15.538543"
     inkscape:cy="16.259877"
     inkscape:window-x="0"
     inkscape:window-y="30"
     inkscape:window-maximized="1"
     inkscape:current-layer="svg2"
     inkscape:snap-bbox="true"
     inkscape:bbox-paths="true"
     inkscape:bbox-nodes="true"
     inkscape:snap-bbox-midpoints="false" />
  <path
     d="M 12 6 C 11.07 6 10.239453 6.4298437 9.6894531 7.0898438 L 6.9199219 10.449219 C 6.3399219 11.149219 6 12.03 6 13 L 6 38 C 6 40.21 7.79 42 10 42 L 38 42 C 40.21 42 42 40.21 42 38 L 42 13 C 42 12.03 41.659844 11.149219 41.089844 10.449219 L 38.320312 7.0898438 C 37.760312 6.4298437 36.93 6 36 6 L 12 6 z M 26.384766 12.716797 C 26.384766 12.716797 29.271306 15.658346 23.648438 20.177734 C 21.221209 22.129929 21.115477 23.629044 21.689453 24.966797 C 22.210455 24.346281 22.946233 23.812637 23.681641 23.269531 C 23.789987 21.852277 24.96743 20.768019 26.269531 19.992188 C 26.311797 19.613924 26.288931 19.204053 26.166016 18.748047 C 26.166016 18.748047 26.528629 19.12135 26.671875 19.767578 C 28.252175 18.912794 29.865259 18.494141 29.865234 18.494141 C 28.432043 19.340514 27.425438 20.035061 26.705078 20.644531 C 26.599733 21.310686 26.203859 22.134201 25.248047 23.082031 C 25.293812 23.455687 25.478973 23.820148 25.714844 24.199219 C 27.110676 23.327375 28.875023 22.910156 28.875 22.910156 C 27.495093 23.663755 26.635053 24.250497 26.078125 24.755859 C 26.179795 24.900595 26.276547 25.040475 26.384766 25.195312 C 27.090796 26.207852 26.76853 27.117097 26.21875 27.822266 C 26.751276 28.610571 26.380935 29.314602 25.873047 29.822266 C 27.7754 29.631212 29.546875 29.316406 29.546875 29.316406 C 29.546875 29.316406 28.810326 29.637437 28.277344 30.007812 C 27.279937 30.274947 26.0853 30.446321 24.855469 30.570312 C 24.826402 30.585481 24.732422 30.640625 24.732422 30.640625 C 24.732422 30.640625 24.782689 30.591308 24.802734 30.574219 C 22.956765 30.757232 21.027557 30.80527 19.392578 30.71875 C 19.200191 30.893218 19.331028 31.059188 20.164062 31.164062 C 21.236832 31.299257 23.374916 31.266781 25.367188 31.109375 C 26.994916 30.980731 28.628906 30.705078 28.628906 30.705078 C 28.628906 30.705078 28.053908 30.938233 27.638672 31.205078 C 25.166043 31.817498 21.277757 31.871459 19.193359 31.585938 C 18.964426 31.792309 18.405564 32.416464 19.910156 32.580078 C 20.094235 32.478953 20.318426 32.376091 20.640625 32.275391 C 20.640625 32.275391 20.409023 32.437976 20.355469 32.617188 C 22.505619 32.820201 24.336016 32.810527 27.345703 32.220703 C 27.345703 32.220703 27.787953 32.678998 28.486328 32.929688 C 28.162932 33.026014 27.837216 33.106959 27.511719 33.185547 C 27.602477 33.22908 27.695517 33.273002 27.802734 33.308594 C 25.069136 34.061567 22.183286 34.039116 20.630859 33.683594 C 17.933496 33.385624 16.709529 32.458762 19.095703 31.574219 C 17.879757 31.396615 17.325616 31.098203 18.150391 30.722656 C 18.231333 30.685781 18.303261 30.666228 18.382812 30.632812 C 16.145701 30.420857 14.831013 29.962518 16.099609 29.337891 C 17.907152 28.447443 19.462571 28.300903 20.126953 28.283203 C 20.348414 28.277303 20.470703 28.285156 20.470703 28.285156 C 20.470703 28.285156 15.42347 29.507348 18.683594 29.951172 C 19.124307 30.011226 19.734785 30.040129 20.404297 30.054688 C 20.773438 29.998986 21.092665 29.967732 21.289062 29.962891 C 21.461589 29.958691 21.556641 29.964844 21.556641 29.964844 C 21.556641 29.964844 21.342449 30.018689 21.166016 30.0625 C 22.428601 30.060545 23.877202 30.000655 25.298828 29.880859 C 25.426379 29.572361 25.449965 29.197264 25.210938 28.791016 C 24.841487 29.060801 24.544922 29.226562 24.544922 29.226562 C 24.544922 29.226562 24.826726 28.978365 25.070312 28.587891 C 25.043872 28.555221 25.034241 28.523118 25.003906 28.490234 C 23.894616 27.286484 23.862521 26.288547 24.339844 25.486328 C 24.078753 25.078423 23.897872 24.686853 23.792969 24.316406 C 22.945452 24.993014 22.512638 25.593912 22.357422 26.142578 C 22.823734 26.845232 23.339801 27.528371 23.646484 28.234375 C 23.166927 27.793819 22.724341 27.365613 22.306641 26.943359 C 22.483203 28.036239 23.571086 28.946191 24.03125 29.925781 C 22.232955 28.398023 20.856466 27.031717 21.224609 25.755859 C 20.058047 24.319885 19.545155 22.980592 20.378906 21.705078 C 22.280678 18.797197 27.548662 17.386025 26.384766 12.716797 z M 31.689453 28.017578 C 34.312956 28.145683 35.510496 31.950216 29.421875 33.580078 C 29.421834 33.580078 29.459621 33.527801 29.490234 33.486328 C 29.197223 33.589813 28.883796 33.689587 28.529297 33.777344 C 28.529237 33.777344 28.592518 33.725064 28.611328 33.677734 C 32.671213 31.691592 30.794654 29.781955 29.484375 30.039062 C 29.163961 30.102038 29.019531 30.15625 29.019531 30.15625 C 29.019531 30.15625 29.139874 29.980067 29.367188 29.904297 C 29.69121 29.79707 30.006838 29.756341 30.298828 29.769531 C 31.483429 29.823023 32.284923 30.767406 31.833984 31.779297 C 33.762967 29.722016 31.98223 28.105244 30.646484 28.388672 C 30.235215 28.476074 30.048828 28.552734 30.048828 28.552734 C 30.048828 28.552734 30.202369 28.308294 30.494141 28.203125 C 30.910042 28.054305 31.314668 27.999278 31.689453 28.017578 z M 21.158203 34.505859 C 21.158203 34.505859 20.332845 34.958477 21.748047 35.111328 C 23.462793 35.295683 24.339443 35.269853 26.228516 34.933594 C 26.228516 34.933594 26.726107 35.226561 27.419922 35.480469 C 27.342332 35.511773 27.261871 35.533528 27.183594 35.5625 C 27.4246 35.684213 27.666474 35.810966 27.996094 35.941406 C 24.528493 37.454245 20.492414 36.980852 19.121094 36.125 C 19.008602 36.1364 18.905535 36.144458 18.742188 36.177734 C 18.441492 36.238898 17.718189 36.451212 17.476562 36.679688 C 17.610663 36.706039 17.730745 36.742708 17.814453 36.802734 C 17.814453 36.802734 17.647206 36.8066 17.40625 36.830078 C 17.411677 36.897694 17.458922 36.965633 17.609375 37.027344 C 19.756923 37.90703 27.489037 37.695312 29.933594 36.998047 C 31.219174 36.630774 30.607422 36.15625 30.607422 36.15625 C 32.847305 37.108009 25.741857 39.019438 17.105469 37.701172 C 16.3249 37.581886 16.032163 37.389445 16.03125 37.175781 C 15.372082 37.426704 14.735834 37.791401 15.404297 38.087891 C 16.295559 38.482675 17.968212 38.703845 19.886719 38.810547 C 19.153109 38.662318 18.898438 38.517578 18.898438 38.517578 C 21.330931 38.895801 25.433995 38.964627 28.759766 38.375 C 31.707726 37.852761 31.978516 37.193359 31.978516 37.193359 C 31.953778 37.496609 31.741254 37.756827 31.402344 37.980469 C 32.784292 37.481956 32.087891 36.880859 32.087891 36.880859 C 34.962916 38.201883 25.843135 40.855119 14.757812 39.025391 C 11.635489 38.509422 14.46084 37.009795 16.439453 36.699219 C 17.050378 36.314415 18.193132 35.985959 18.933594 35.990234 C 18.372328 35.529945 18.554252 34.990082 19.960938 34.589844 C 19.960938 34.589844 19.141797 35.078601 20.191406 35.339844 C 20.005957 35.052604 20.250381 34.744726 21.158203 34.505859 z M 33.845703 38.320312 C 33.663907 40.730188 25.985301 41.23769 20.984375 40.912109 C 17.697651 40.696705 17.056641 40.15625 17.056641 40.15625 C 20.178894 40.681219 25.44602 40.777375 29.714844 39.958984 C 33.49873 39.234125 33.845703 38.320312 33.845703 38.320312 z "
     id="path4188" />
  <path
     d="m 10.25,10 1.63,-2 24,0 1.87,2 -27.5,0 z"
     id="path4"
     style="fill:#ffffff;fill-opacity:1" />
  <g
     id="g4203"
     transform="matrix(0.28571428,0,0,0.28571428,10.285715,14.285715)">
    <g
       style="display:none"
       id="layer2">
      <rect
         style="opacity:0.9;fill:url(#ButtonShadow);fill-opacity:1;fill-rule:nonzero;stroke:none;filter:url(#filter3174)"
         id="rect3745"
         y="7"
         x="5"
         ry="6"
         rx="6"
         height="85"
         width="86" />
    </g>
    <g
       transform="matrix(1.2727273,0,0,1.2727273,-13.090916,-10.545456)"
       id="layer3">
      <g
         id="g3678"
         transform="matrix(1.1301798,0,0,1.1301798,137.30438,-15.095426)">
        <path
           style="fill:#0074bd;fill-rule:evenodd"
           id="path3616"
           inkscape:connector-curvature="0"
           d="m -86.682454,70.020561 c 0,0 -2.230343,1.298159 1.589079,1.736219 4.627848,0.528358 6.99267,0.452269 12.091002,-0.511436 0,0 1.343115,0.840206 3.215621,1.567893 -11.432816,4.898228 -25.874818,-0.283815 -16.895702,-2.792676 l 0,0 z" />
        <path
           style="fill:#0074bd;fill-rule:evenodd"
           id="path3618"
           inkscape:connector-curvature="0"
           d="m -88.080213,63.627558 c 0,0 -2.501885,1.852354 1.320378,2.247395 4.943959,0.510402 8.846833,0.552257 15.604261,-0.748227 0,0 0.932442,0.947169 2.400864,1.464804 -13.820761,4.04265 -29.214325,0.318049 -19.325503,-2.963972 l 0,0 z" />
        <path
           style="fill:#ea2d2e;fill-rule:evenodd"
           id="path3620"
           inkscape:connector-curvature="0"
           d="m -76.303512,52.781491 c 2.818512,3.244428 -0.739056,6.161637 -0.739056,6.161637 0,0 7.15247,-3.69166 3.868382,-8.316795 -3.068352,-4.311221 -5.420773,-6.452815 7.314724,-13.838589 1.29e-4,0 -19.991571,4.991756 -10.44405,15.993747 l 0,0 z" />
        <path
           style="fill:#0074bd;fill-rule:evenodd"
           id="path3622"
           inkscape:connector-curvature="0"
           d="m -61.182912,74.749947 c 0,0 1.651086,1.361071 -1.818508,2.413654 -6.5975,1.99833 -27.464801,2.601097 -33.260721,0.07996 -2.082041,-0.906864 1.824192,-2.163814 3.053238,-2.429285 1.281494,-0.277226 2.013186,-0.226586 2.013186,-0.226586 -2.317154,-1.63171 -14.976823,3.20464 -6.429691,4.591677 23.308341,3.778083 42.48761,-1.701727 36.442496,-4.429424 l 0,0 z" />
        <path
           style="fill:#0074bd;fill-rule:evenodd"
           id="path3624"
           inkscape:connector-curvature="0"
           d="m -85.609073,57.002801 c 0,0 -10.613022,2.521521 -3.758189,3.437944 2.895247,0.38742 8.663393,0.298283 14.040243,-0.152823 4.392994,-0.368688 8.801619,-1.157221 8.801619,-1.157221 0,0 -1.54787,0.664 -2.668531,1.428763 -10.779538,2.835177 -31.599689,1.514799 -25.604956,-1.383807 5.067458,-2.451504 9.189814,-2.172856 9.189814,-2.172856 l 0,0 z" />
        <path
           style="fill:#0074bd;fill-rule:evenodd"
           id="path3626"
           inkscape:connector-curvature="0"
           d="m -66.569322,67.644371 c 10.957035,-5.692186 5.890352,-11.162953 2.3541,-10.426093 -0.864751,0.180468 -1.252687,0.336779 -1.252687,0.336779 0,0 0.322182,-0.504717 0.935672,-0.721874 6.9959,-2.45835 12.374946,7.253103 -2.25605,11.099266 -1.3e-4,0 0.168196,-0.152436 0.218965,-0.288078 l 0,0 z" />
        <path
           style="fill:#ea2d2e;fill-rule:evenodd"
           id="path3628"
           inkscape:connector-curvature="0"
           d="m -73.174057,24.859253 c 0,0 6.066817,6.070304 -5.756002,15.40209 -9.481121,7.488603 -2.161747,11.756806 -0.0034,16.635915 -5.534841,-4.993307 -9.594543,-9.38953 -6.871497,-13.480494 3.998728,-6.004292 15.078099,-8.916333 12.630858,-18.557511 l 0,0 z" />
        <path
           style="fill:#0074bd;fill-rule:evenodd"
           id="path3630"
           inkscape:connector-curvature="0"
           d="m -84.531817,83.073848 c 10.5151,0.672267 26.666709,-0.374114 27.048961,-5.35011 0,0 -0.734792,1.886328 -8.690908,3.383041 -8.975758,1.689842 -20.048799,1.493096 -26.613745,0.409123 0,0 1.344923,1.113169 8.255692,1.557946 l 0,0 z" />
      </g>
    </g>
  </g>
  <path
     style="fill:#0074bd;fill-rule:evenodd"
     d="m -4.4466874,15.424727 c 1.005753,3.962278 -3.548032,5.159342 -5.191406,7.626953 -1.1191026,1.681282 0.549539,3.486941 2.824218,5.539063 -0.887023,-2.00519 -3.8964986,-3.758313 0,-6.835938 4.858877,-3.835126 2.367188,-6.330078 2.367188,-6.330078 z m 3.005859,4.902344 c 5.3e-5,0 -8.216757,2.050728 -4.292969,6.572265 1.158336,1.333378 -0.302734,2.533204 -0.302734,2.533203 0,0 2.93952,-1.517156 1.589844,-3.417968 -1.261015,-1.771802 -2.228106,-2.652136 3.005859,-5.6875 z m 1.57812503,8.080078 c -0.323863,-0.01553 -0.673811,0.03191 -1.033203,0.158203 -0.25212903,0.08925 -0.38476603,0.296875 -0.38476603,0.296875 0,0 0.160235,-0.0645 0.51562503,-0.138672 1.453309,-0.302831 3.53431197,1.945813 -0.96875003,4.285156 -0.02087,0.05574 -0.089896,0.117188 -0.089843,0.117188 5.261345,-1.38309 4.227978,-4.610041 1.96093703,-4.71875 z m -9.99218703,0.226562 c -0.5741106,0.01502 -1.9185216,0.138903 -3.4804686,0.894532 -2.463683,1.191254 6.0933216,1.733544 10.5234366,0.568359 0.460563,-0.314298 1.097657,-0.587891 1.097657,-0.587891 0,0 -1.811779,0.325042 -3.617188,0.476563 -2.209748,0.185397 -4.581612,0.22172 -5.7714836,0.0625 -2.817161,-0.376626 1.5449216,-1.412109 1.5449216,-1.412109 0,0 -0.105505,-0.007 -0.296875,-0.002 z m -0.7187496,2.72461 c -4.064053,1.348827 2.2633796,2.878223 7.9433586,1.216797 -0.603483,-0.212735 -0.988281,-0.601563 -0.988281,-0.601563 -2.777131,0.534466 -4.380269,0.516403 -6.4121096,0.306641 -1.570853,-0.162352 -0.542968,-0.921875 -0.542968,-0.921875 z m 0.5742176,2.626953 c -3.6901866,1.031078 2.244764,3.15953 6.94336,1.146484 -0.769553,-0.299061 -1.320313,-0.642578 -1.320313,-0.642578 -2.095284,0.396058 -3.066822,0.426125 -4.96875,0.208985 -1.5696846,-0.180033 -0.654297,-0.712891 -0.654297,-0.712891 z m -2.3847646,1.742187 c -1.585785,-0.06101 -5.1849,1.522702 -2.111328,2.021485 9.5791326,1.552695 17.4609496,-0.699299 14.97656163,-1.820313 0,0 0.67786697,0.559603 -0.748047,0.992188 -2.71140403,0.821263 -11.28794663,1.069328 -13.66992163,0.0332 -0.855666,-0.372698 0.750754,-0.890899 1.25586,-1 0.526662,-0.113933 0.828125,-0.0918 0.828125,-0.0918 -0.119037,-0.08382 -0.30471,-0.12605 -0.53125,-0.134766 z m 14.3847646,1.423828 c 0,0 -0.300551,0.775515 -3.570312,1.390626 -3.688807,0.694482 -8.239475,0.613453 -10.9374996,0.167968 0,0 0.552429,0.45588 3.3925776,0.638672 4.321438,0.276284 10.958138,-0.152258 11.115234,-2.197266 z"
     id="path3616-0"
     inkscape:connector-curvature="0" />
  <g
     id="layer2-3"
     style="display:none"
     transform="matrix(0.28571428,0,0,0.28571428,10.285715,14.285715)">
    <rect
       width="86"
       height="85"
       rx="6"
       ry="6"
       x="5"
       y="7"
       id="rect3745-9"
       style="opacity:0.9;fill:url(#ButtonShadow-5);fill-opacity:1;fill-rule:nonzero;stroke:none;filter:url(#filter3174-1)" />
  </g>
  <path
     style="fill:#0074bd;fill-rule:evenodd"
     d="m -15.773826,8.5465354 c 1.163896,4.6692276 -4.10388,6.0798496 -6.005652,8.9877306 -1.295067,1.981256 0.634604,4.111357 3.266944,6.529617 -1.02645,-2.362955 -4.507139,-4.430196 0.0021,-8.05693 5.62287,-4.519388 2.736676,-7.4604176 2.736676,-7.4604176 z m 3.480272,5.7769696 c 6.1e-5,0 -9.508213,2.418394 -4.967463,7.746663 1.340468,1.571278 -0.351481,2.984568 -0.351481,2.984568 0,0 3.400566,-1.789511 1.838672,-4.029467 -1.459292,-2.087925 -2.576662,-3.12483 3.480272,-6.701764 z m 1.82445,9.522191 c -0.374785,-0.0183 -0.778727,0.03734 -1.194628,0.18616 -0.291772,0.105169 -0.444939,0.350302 -0.444939,0.350302 0,0 0.186045,-0.07674 0.597314,-0.164142 1.6818242,-0.356861 4.0896192,2.293616 -1.121488,5.050345 -0.02414,0.06569 -0.103674,0.14012 -0.103612,0.14012 6.0886212,-1.629862 4.8908602,-5.43468 2.267357,-5.562785 z m -11.562304,0.266229 c -0.664382,0.0177 -2.219252,0.164459 -4.026795,1.054907 -2.851062,1.403797 7.051215,2.043654 12.177905,0.670578 0.532982,-0.370376 1.269802,-0.692598 1.269802,-0.692598 0,0 -2.098013,0.381928 -4.187298,0.560482 -2.557201,0.218476 -5.299144,0.261692 -6.676108,0.07406 -3.260124,-0.443824 1.785848,-1.665433 1.785848,-1.665433 0,0 -0.121893,-0.0079 -0.343354,-0.002 z m -0.830958,3.210761 c -4.703071,1.589484 2.61825,3.393093 9.191331,1.435235 -0.698375,-0.25069 -1.141805,-0.70861 -1.141805,-0.70861 -3.213798,0.629825 -5.070415,0.6095 -7.421736,0.362311 -1.817849,-0.191318 -0.62779,-1.088936 -0.62779,-1.088936 z m 0.664361,3.096664 c -4.27042,1.215043 2.597916,3.723376 8.035303,1.351162 -0.890554,-0.352419 -1.527825,-0.758652 -1.527825,-0.758652 -2.424739,0.466723 -3.550712,0.504097 -5.751693,0.248213 -1.816497,-0.212152 -0.755785,-0.840723 -0.755785,-0.840723 z m -2.761057,2.051765 c -1.835128,-0.07189 -5.998932,1.796276 -2.442082,2.384051 11.085323,1.829728 20.2052752,-0.824821 17.33025,-2.145845 0,0 0.7866562,0.659239 -0.863465,1.169005 -3.137736,0.967793 -13.062169,1.259025 -15.818679,0.03803 -0.990206,-0.439195 0.866094,-1.046442 1.450622,-1.17501 0.609472,-0.134261 0.958953,-0.110095 0.958953,-0.110095 -0.137752,-0.09878 -0.353438,-0.149867 -0.615599,-0.160138 z m 16.6476052,1.677444 c 0,0 -0.348555,0.914551 -4.1324412,1.63941 -4.268824,0.818391 -9.535129,0.723139 -12.657382,0.19817 0,0 0.640518,0.539244 3.927242,0.754648 5.000926,0.325581 12.6807852,-0.182352 12.8625812,-2.592228 z"
     id="path3616-2-7-8"
     inkscape:connector-curvature="0" />
</svg>
