<?xml version="1.0" encoding="UTF-8" standalone="no"?>
<svg
   xmlns:dc="http://purl.org/dc/elements/1.1/"
   xmlns:cc="http://creativecommons.org/ns#"
   xmlns:rdf="http://www.w3.org/1999/02/22-rdf-syntax-ns#"
   xmlns:svg="http://www.w3.org/2000/svg"
   xmlns="http://www.w3.org/2000/svg"
   xmlns:xlink="http://www.w3.org/1999/xlink"
   xmlns:sodipodi="http://sodipodi.sourceforge.net/DTD/sodipodi-0.dtd"
   xmlns:inkscape="http://www.inkscape.org/namespaces/inkscape"
   fill="#FF5722"
   width="48"
   height="48"
   viewBox="0 0 48 48"
   id="svg2"
   version="1.1"
   inkscape:version="0.91 r13725"
   sodipodi:docname="text-x-python4.svg">
  <metadata
     id="metadata10">
    <rdf:RDF>
      <cc:Work
         rdf:about="">
        <dc:format>image/svg+xml</dc:format>
        <dc:type
           rdf:resource="http://purl.org/dc/dcmitype/StillImage" />
        <dc:title></dc:title>
      </cc:Work>
    </rdf:RDF>
  </metadata>
  <defs
     id="defs8">
    <linearGradient
       id="linearGradient2795">
      <stop
         id="stop2797"
         offset="0"
         style="stop-color:#b8b8b8;stop-opacity:0.49803922;" />
      <stop
         id="stop2799"
         offset="1"
         style="stop-color:#7f7f7f;stop-opacity:0;" />
    </linearGradient>
    <linearGradient
       id="linearGradient2787">
      <stop
         id="stop2789"
         offset="0"
         style="stop-color:#7f7f7f;stop-opacity:0.5;" />
      <stop
         id="stop2791"
         offset="1"
         style="stop-color:#7f7f7f;stop-opacity:0;" />
    </linearGradient>
    <linearGradient
       id="linearGradient3676">
      <stop
         id="stop3678"
         offset="0"
         style="stop-color:#b2b2b2;stop-opacity:0.5;" />
      <stop
         id="stop3680"
         offset="1"
         style="stop-color:#b3b3b3;stop-opacity:0;" />
    </linearGradient>
    <linearGradient
       id="linearGradient3236">
      <stop
         id="stop3244"
         offset="0"
         style="stop-color:#f4f4f4;stop-opacity:1" />
      <stop
         id="stop3240"
         offset="1"
         style="stop-color:white;stop-opacity:1" />
    </linearGradient>
    <linearGradient
       id="linearGradient4671">
      <stop
         id="stop4673"
         offset="0"
         style="stop-color:#ffd43b;stop-opacity:1;" />
      <stop
         id="stop4675"
         offset="1"
         style="stop-color:#ffe873;stop-opacity:1" />
    </linearGradient>
    <linearGradient
       id="linearGradient4689">
      <stop
         id="stop4691"
         offset="0"
         style="stop-color:#5a9fd4;stop-opacity:1;" />
      <stop
         id="stop4693"
         offset="1"
         style="stop-color:#306998;stop-opacity:1;" />
    </linearGradient>
    <linearGradient
       gradientTransform="translate(100.2702,99.61116)"
       gradientUnits="userSpaceOnUse"
       xlink:href="#linearGradient4671"
       id="linearGradient2987"
       y2="144.75717"
       x2="-65.308502"
       y1="144.75717"
       x1="224.23996" />
    <linearGradient
       gradientTransform="translate(100.2702,99.61116)"
       gradientUnits="userSpaceOnUse"
       xlink:href="#linearGradient4689"
       id="linearGradient2990"
       y2="76.313133"
       x2="26.670298"
       y1="77.475983"
       x1="172.94208" />
    <linearGradient
       y2="144.75717"
       x2="-65.308502"
       y1="144.75717"
       x1="224.23996"
       gradientTransform="matrix(0.562541,0,0,0.567972,-11.5974,-7.60954)"
       gradientUnits="userSpaceOnUse"
       id="linearGradient2255"
       xlink:href="#linearGradient4671"
       inkscape:collect="always" />
    <linearGradient
       y2="76.313133"
       x2="26.670298"
       y1="76.176224"
       x1="172.94208"
       gradientTransform="matrix(0.562541,0,0,0.567972,-11.5974,-7.60954)"
       gradientUnits="userSpaceOnUse"
       id="linearGradient2258"
       xlink:href="#linearGradient4689"
       inkscape:collect="always" />
    <radialGradient
       gradientUnits="userSpaceOnUse"
       gradientTransform="matrix(1,0,0,0.177966,0,108.7434)"
       r="29.036913"
       fy="132.28575"
       fx="61.518883"
       cy="132.28575"
       cx="61.518883"
       id="radialGradient2801"
       xlink:href="#linearGradient2795"
       inkscape:collect="always" />
  </defs>
  <sodipodi:namedview
     pagecolor="#ffffff"
     bordercolor="#666666"
     borderopacity="1"
     objecttolerance="10"
     gridtolerance="10"
     guidetolerance="10"
     inkscape:pageopacity="0"
     inkscape:pageshadow="2"
     inkscape:window-width="1366"
     inkscape:window-height="713"
     id="namedview6"
     showgrid="false"
     inkscape:zoom="4.9166667"
     inkscape:cx="-5.0839277"
     inkscape:cy="17.714673"
     inkscape:window-x="0"
     inkscape:window-y="30"
     inkscape:window-maximized="1"
     inkscape:current-layer="g4438"
     inkscape:snap-bbox="true"
     inkscape:bbox-paths="true"
     inkscape:bbox-nodes="true"
     inkscape:snap-bbox-edge-midpoints="false"
     inkscape:snap-bbox-midpoints="false"
     inkscape:snap-object-midpoints="true"
     inkscape:snap-others="true" />
  <path
     d="M28 4H12C9.79 4 8.02 5.79 8.02 8L8 40c0 2.21 1.77 4 3.98 4H36c2.21 0 4-1.79 4-4V16L28 4zm4 32H16v-4h16v4zm0-8H16v-4h16v4zm-6-10V7l11 11H26z"
     id="path4" />
  <g
     id="g4438"
     transform="matrix(0.21995924,0,0,0.21995924,11.774517,23.336683)">
    <g
       id="g4461"
       transform="matrix(1.2135432,0,0,1.2135432,-52.607101,-23.974687)">
      <path
         style="opacity:1;fill:#3776ab;fill-opacity:1;stroke:none"
         d="M 54.918785,9.1924875e-4 C 50.335133,0.02221925 45.957847,0.41313725 42.106285,1.0946692 30.76007,3.0991732 28.700037,7.2947712 28.700035,15.03217 l 0,10.21875 26.8125,0 0,3.40625 -26.8125,0 -10.0625,0 c -7.792459,0 -14.6157582,4.683717 -16.7500002,13.59375 -2.46181899,10.212966 -2.57101499,16.586023 0,27.25 1.90593,7.937852 6.457543,13.593748 14.2500002,13.59375 l 9.21875,0 0,-12.25 c 0,-8.849903 7.657144,-16.656249 16.75,-16.65625 l 26.78125,0 c 7.454951,0 13.406253,-6.138165 13.40625,-13.625 l 0,-25.53125 c 0,-7.2663388 -6.12998,-12.7247778 -13.40625,-13.9375008 C 64.281549,0.32794425 59.502438,-0.02037875 54.918785,9.1924875e-4 Z m -14.5,8.21875095125 c 2.769548,0 5.03125,2.2986448 5.03125,5.1249998 -2e-6,2.816335 -2.261702,5.09375 -5.03125,5.09375 -2.779476,-2e-6 -5.03125,-2.277416 -5.03125,-5.09375 0,-2.826354 2.251774,-5.1249998 5.03125,-5.1249998 z"
         id="path3505"
         inkscape:connector-curvature="0" />
      <path
         style="opacity:1;fill:#ffd343;fill-opacity:1;stroke:none"
         d="m 85.637531,28.65717 0,11.90625 c 0,9.230755 -7.82589,16.999999 -16.749996,17 l -26.78125,0 c -7.335833,0 -13.406249,6.278482 -13.40625,13.625 l 0,25.531254 c 0,7.266336 6.318588,11.540316 13.40625,13.624996 8.487331,2.49561 16.626238,2.94663 26.78125,0 6.750156,-1.95439 13.406253,-5.88761 13.40625,-13.624996 l 0,-10.21875 -26.78125,0 0,-3.406254 26.78125,0 13.406246,0 c 7.792459,0 10.696259,-5.435408 13.406249,-13.59375 2.79933,-8.398887 2.68022,-16.475776 0,-27.25 C 107.1805,34.493478 103.5024,28.65717 95.700031,28.65717 l -10.0625,0 z M 70.575035,93.313424 c 2.779478,0 5.031251,2.27742 5.03125,5.09375 -10e-7,2.826346 -2.251774,5.124996 -5.03125,5.124996 -2.769549,0 -5.031249,-2.29865 -5.03125,-5.124996 2e-6,-2.81633 2.261697,-5.09375 5.03125,-5.09375 z"
         id="path3512"
         inkscape:connector-curvature="0" />
    </g>
  </g>
</svg>
