<?xml version="1.0" encoding="UTF-8" standalone="no"?>
<svg
   xmlns:dc="http://purl.org/dc/elements/1.1/"
   xmlns:cc="http://creativecommons.org/ns#"
   xmlns:rdf="http://www.w3.org/1999/02/22-rdf-syntax-ns#"
   xmlns:svg="http://www.w3.org/2000/svg"
   xmlns="http://www.w3.org/2000/svg"
   xmlns:sodipodi="http://sodipodi.sourceforge.net/DTD/sodipodi-0.dtd"
   xmlns:inkscape="http://www.inkscape.org/namespaces/inkscape"
   fill="#FF5722"
   width="48"
   height="48"
   viewBox="0 0 48 48"
   id="svg2"
   version="1.1"
   inkscape:version="0.91 r13725"
   sodipodi:docname="text-x-perl3.svg">
  <metadata
     id="metadata10">
    <rdf:RDF>
      <cc:Work
         rdf:about="">
        <dc:format>image/svg+xml</dc:format>
        <dc:type
           rdf:resource="http://purl.org/dc/dcmitype/StillImage" />
        <dc:title></dc:title>
      </cc:Work>
    </rdf:RDF>
  </metadata>
  <defs
     id="defs8" />
  <sodipodi:namedview
     pagecolor="#ffffff"
     bordercolor="#666666"
     borderopacity="1"
     objecttolerance="10"
     gridtolerance="10"
     guidetolerance="10"
     inkscape:pageopacity="0"
     inkscape:pageshadow="2"
     inkscape:window-width="1366"
     inkscape:window-height="713"
     id="namedview6"
     showgrid="false"
     inkscape:snap-bbox="true"
     inkscape:bbox-paths="true"
     inkscape:bbox-nodes="true"
     inkscape:zoom="8.5896609"
     inkscape:cx="16.97934"
     inkscape:cy="10.561763"
     inkscape:window-x="0"
     inkscape:window-y="30"
     inkscape:window-maximized="1"
     inkscape:current-layer="svg2"
     inkscape:snap-text-baseline="true"
     inkscape:snap-page="true"
     inkscape:snap-bbox-edge-midpoints="true"
     inkscape:snap-bbox-midpoints="true" />
  <path
     style="fill:#40426c;fill-opacity:1"
     d="M 12.001953 4 C 9.7919533 4 8.0214844 5.79 8.0214844 8 L 8.0019531 40 C 8.0019531 42.21 9.7724219 44 11.982422 44 L 13.003906 44 C 12.147174 43.03113 11.498661 42.061849 10.912109 40.857422 C 9.8872329 38.752946 9.4457612 36.849892 9.4453125 34.517578 C 9.444858 32.15722 9.9078603 30.174288 10.947266 28.087891 C 11.709708 26.55747 12.475343 25.49263 13.685547 24.269531 C 15.917115 22.014123 18.72629 20.584529 21.908203 20.083984 C 22.397154 20.007074 23.189599 19.967092 23.984375 19.966797 C 24.779149 19.966497 25.575613 20.005411 26.070312 20.082031 C 31.926661 20.988578 36.705561 25.306914 38.109375 30.962891 C 38.951189 34.354527 38.596542 37.739709 37.070312 40.859375 C 36.51091 42.002811 35.7886 43.048882 34.964844 44 L 36.001953 44 C 38.211953 44 40.001953 42.21 40.001953 40 L 40.001953 16 L 28.001953 4 L 12.001953 4 z M 26.001953 7 L 37.001953 18 L 26.001953 18 L 26.001953 7 z "
     id="path4247" />
  <path
     d="m -67.630617,5.3970284 c -2.21,0 -3.980469,1.79 -3.980469,4 l -0.01367,22.6855466 c 0.380882,-0.376011 0.812026,-0.782443 1.373046,-1.275391 1.091388,-0.958969 1.905585,-1.769678 2.308594,-2.296875 0.752559,-0.984316 1.197704,-2.09477 1.318359,-3.285156 0.0327,-0.322556 0.08089,-0.504397 0.138672,-0.539063 0.01926,-0.0118 0.03897,-0.0074 0.06055,0.01367 0.02174,0.02174 0.03715,0.287417 0.03516,0.589844 -0.0067,1.011651 -0.353996,2.350831 -0.916015,3.533203 -0.512838,1.07887 -1.013261,1.853389 -2.371094,3.66211 -1.091233,1.453612 -1.545189,2.123623 -1.863281,2.748047 -0.03297,0.06473 -0.05577,0.125881 -0.08594,0.189453 l -0.002,3.925781 c 0.03093,0.0688 0.054,0.134718 0.08789,0.205078 0.73959,1.535493 2.449923,3.31165 3.880859,4.03125 0.332036,0.166993 0.473446,0.266539 0.462891,0.322266 -0.04884,0.257945 -1.716808,-0.139649 -2.746094,-0.654297 -0.606357,-0.30319 -1.135152,-0.653055 -1.603515,-1.039063 0.373064,1.817937 1.966424,3.183594 3.896484,3.183594 l 0.482422,0 c 0.06606,-0.07652 0.09414,-0.121724 0.189453,-0.224609 0.406039,-0.438295 0.721953,-0.86343 0.894531,-1.199219 0.06203,-0.120709 0.122957,-0.166016 0.214844,-0.166016 0.109868,0 0.128906,0.02167 0.128906,0.167969 0,0.259498 -0.140332,0.747196 -0.320313,1.119141 -0.04378,0.09047 -0.112742,0.195825 -0.191406,0.302734 l 0.828125,0 c -0.0056,-0.02014 -0.004,-0.0247 -0.0098,-0.04492 -0.197859,-0.692202 -0.199438,-0.98202 -0.0098,-1.345703 0.108343,-0.20781 0.213126,-0.309472 0.318359,-0.304687 0.105234,0.0062 0.212711,0.114157 0.326172,0.332031 0.143365,0.275278 0.141381,0.815175 -0.0039,1.222656 -0.01376,0.03863 -0.02413,0.09299 -0.03906,0.140625 l 0.695313,0 c -0.23847,-0.397938 -0.405595,-0.854291 -0.421875,-1.230469 -0.01091,-0.252291 -0.001,-0.282773 0.09766,-0.296875 l 0,-0.002 c 0.08824,-0.01243 0.147629,0.05257 0.300782,0.326172 0.212517,0.380028 0.51633,0.771065 0.927734,1.203125 l 19.611328,0 c 2.21,0 4,-1.79 4,-4 l 0,-24 -12,-11.9999996 -16,0 z m 14,3 11,10.9999996 -11,0 0,-10.9999996 z M -65.720461,23.930231 c 0.02508,0 0.05397,0.02061 0.08398,0.05664 0.137096,0.165192 -0.02582,3.267716 -0.261719,4.988281 -0.286467,2.089404 -0.655716,3.30304 -1.53711,5.048828 -0.514184,1.018485 -0.700876,1.554401 -0.785156,2.255859 -0.180449,1.501945 0.209958,2.868412 1.40625,4.90625 0.23904,0.407171 0.486381,0.828532 0.548828,0.9375 0.151499,0.264219 0.31836,0.765278 0.31836,0.958985 0,0.143013 -0.01534,0.158203 -0.173828,0.158203 -0.574561,0 -1.815473,-1.083991 -2.636719,-2.300781 -0.862706,-1.278293 -1.271637,-2.553583 -1.279297,-3.990235 -0.0077,-1.448765 0.261276,-2.17789 1.509766,-4.095703 1.05778,-1.62483 1.527073,-2.561331 1.933593,-3.855469 0.415401,-1.322403 0.745872,-3.383105 0.748047,-4.660156 4.41e-4,-0.261859 0.04975,-0.411123 0.125,-0.408203 z m 2.089844,1.466797 16,0 0,4 -15.212891,0 c 0.326206,0.240782 0.71986,0.518023 1.40625,0.980469 0.623833,0.420279 1.413635,0.973952 1.753907,1.230469 0.526301,0.396703 1.37245,1.194162 1.921875,1.789062 l 10.130859,0 0,4 -8.689453,0 c -0.10706,1.563788 -0.80109,2.949381 -2.175781,4.324219 -1.179578,1.179638 -2.482993,1.961399 -3.697266,2.216797 -0.19653,0.04162 -0.480706,0.07617 -0.628906,0.07617 -0.251755,0 -0.283297,-0.01709 -0.498047,-0.236329 -0.413201,-0.421708 -0.719827,-0.564962 -1.828125,-0.859375 l -0.25586,-0.06836 -0.191406,-0.488281 c -0.420045,-1.077939 -0.749376,-2.396011 -0.865234,-3.462891 -0.07812,-0.719351 -0.06553,-2.12329 0.02539,-2.902344 0.101398,-0.868824 0.167911,-1.256712 0.566407,-3.277343 0.555808,-2.818322 0.713963,-3.99084 0.794922,-5.869141 0.02615,-0.606656 0.07156,-1.126216 0.09961,-1.154297 0.02867,-0.02858 0.05535,-0.04083 0.08008,-0.03711 0.07419,0.01056 0.133548,0.172125 0.199219,0.519531 0.179237,0.948097 0.579923,1.925153 1.025391,2.5 0.01072,0.01384 0.02775,0.02916 0.03906,0.04297 l 0,-3.324219 z"
     id="path4"
     style="fill:#40426c;fill-opacity:1"
     inkscape:connector-curvature="0" />
  <path
     id="path15769"
     style="fill:#40426c"
     d="m 23.567095,22.168578 c -0.233937,0.0093 -0.04198,0.01677 0.4259,0.01677 0.467871,0 0.658623,-0.0075 0.424685,-0.01677 -0.233937,-0.0093 -0.616647,-0.0093 -0.850585,0 z m 0.423472,0.111639 c -0.669002,2.49e-4 -1.336917,0.03355 -1.748492,0.09828 -2.678379,0.421335 -5.04274,1.625202 -6.921165,3.523694 -1.018691,1.029544 -1.662438,1.926014 -2.304224,3.214248 -0.87492,1.756225 -1.264733,3.424915 -1.26435,5.411749 3.78e-4,1.963227 0.371325,3.565008 1.234015,5.336453 0.620378,1.273883 1.308897,2.235275 2.345479,3.276125 2.089001,2.097604 4.785547,3.362417 7.680747,3.602531 1.358304,0.112696 2.611532,0 4.043009,-0.360327 3.404946,-0.8605 6.371932,-3.292526 7.948905,-6.515906 1.284705,-2.625981 1.58345,-5.474993 0.874852,-8.329906 -1.181662,-4.760924 -5.203416,-8.396754 -10.133003,-9.159841 -0.416413,-0.06449 -1.08677,-0.09735 -1.755773,-0.0971 z m -0.440459,1.135716 c 0.02508,0 0.05371,0.01988 0.08372,0.05591 0.137096,0.165192 -0.02619,3.267675 -0.262092,4.98824 -0.286467,2.089404 -0.65597,3.304329 -1.537363,5.050117 -0.514186,1.018485 -0.700782,1.554255 -0.785062,2.255714 -0.180449,1.501945 0.211238,2.867898 1.40753,4.905737 0.23904,0.407171 0.486005,0.829003 0.548452,0.937971 0.151499,0.264219 0.317907,0.766069 0.317907,0.959776 0,0.143013 -0.01503,0.156494 -0.173514,0.156494 -0.574561,0 -1.81666,-1.082536 -2.637906,-2.299326 -0.862706,-1.278293 -1.271251,-2.554226 -1.278911,-3.990878 -0.0077,-1.448765 0.260967,-2.177373 1.509455,-4.095186 1.05778,-1.62483 1.52762,-2.561992 1.93414,-3.856128 0.415401,-1.322403 0.746486,-3.383539 0.748661,-4.66059 4.41e-4,-0.261859 0.04973,-0.41065 0.124979,-0.40773 z m -0.766862,0.755943 c 0.01926,-0.0118 0.0403,-0.0068 0.06188,0.01429 0.02174,0.02174 0.03718,0.28733 0.03519,0.589757 -0.0067,1.011651 -0.354089,2.351014 -0.916108,3.533386 -0.512838,1.07887 -1.014341,1.853264 -2.372175,3.661985 -1.091232,1.453612 -1.544458,2.123884 -1.862549,2.748307 -0.775767,1.523006 -0.775998,2.708608 0,4.319646 0.73959,1.535493 2.449478,3.312467 3.880414,4.032067 0.332036,0.166993 0.47407,0.265834 0.463515,0.321561 -0.04884,0.257945 -1.716612,-0.139347 -2.745898,-0.653995 -2.619237,-1.309667 -3.956387,-3.400251 -3.965351,-6.200432 -0.0037,-1.169139 0.162561,-1.938812 0.613974,-2.835655 0.502614,-0.998605 1.250803,-1.835807 3.041963,-3.409632 1.091388,-0.958969 1.906069,-1.769768 2.309078,-2.296965 0.752559,-0.984316 1.198298,-2.094249 1.318953,-3.284635 0.0327,-0.322556 0.07933,-0.505267 0.137112,-0.539933 z m 1.591966,0.971953 c 0.07419,0.01056 0.134538,0.173143 0.200209,0.520549 0.179237,0.948097 0.579845,1.924709 1.025312,2.499556 0.25723,0.331936 0.663302,0.641445 2.232634,1.698759 0.623833,0.420279 1.413074,0.973879 1.753346,1.230395 0.708984,0.534403 2.003298,1.800644 2.362466,2.311502 0.720761,1.025132 1.02034,1.914583 1.022887,3.035885 0.004,1.749205 -0.693859,3.262457 -2.197446,4.766204 -1.179578,1.179638 -2.484134,1.962605 -3.698407,2.218003 -0.19653,0.04162 -0.479121,0.07523 -0.627321,0.07523 -0.251755,0 -0.283953,-0.01615 -0.498703,-0.235393 -0.413201,-0.421708 -0.719064,-0.565839 -1.827362,-0.860252 l -0.257238,-0.06797 -0.190502,-0.487747 c -0.420045,-1.077939 -0.749288,-2.39736 -0.865146,-3.46424 -0.07812,-0.719351 -0.06665,-2.123386 0.02427,-2.90244 0.101396,-0.868824 0.16937,-1.255493 0.567866,-3.276124 0.555808,-2.818322 0.713811,-3.990878 0.79477,-5.869179 0.02615,-0.606656 0.07145,-1.125838 0.0995,-1.153919 0.02867,-0.02858 0.05414,-0.04224 0.07887,-0.03852 z m 0.671003,4.022375 c -0.01418,0 -0.0032,0.04225 0.02427,0.09344 0.137766,0.257448 0.539697,0.71581 1.531296,1.743613 1.636836,1.696647 1.88387,1.991059 2.427989,2.896352 0.34611,0.575903 0.579558,1.12795 0.752301,1.783684 0.09111,0.345915 0.109362,0.567951 0.110418,1.294695 0.0012,0.791913 -0.0124,0.9289 -0.140753,1.424537 -0.250205,0.966175 -0.579529,1.659495 -1.354141,2.853857 l -0.0995,0.155314 0.231757,-0.180785 c 0.449139,-0.350077 1.408211,-1.320415 1.733932,-1.753305 0.880583,-1.170382 1.194428,-2.333122 0.924602,-3.427835 -0.122716,-0.497936 -0.573844,-1.403973 -0.975564,-1.959624 -0.384261,-0.531483 -1.496198,-1.716837 -2.327278,-2.480172 -0.618848,-0.568448 -2.797723,-2.443768 -2.839329,-2.443768 z m 11.307563,4.965192 c -0.0097,-0.221043 -0.01815,-0.05405 -0.0182,0.371262 -7.4e-5,0.425373 0.0072,0.605971 0.01699,0.401641 0.0098,-0.204269 0.0109,-0.551861 0.0012,-0.772903 z m -24.709434,0 c -0.0033,0.05778 -0.0048,0.185755 -0.0049,0.370081 -9e-5,0.368653 0.0082,0.5267 0.0182,0.350636 0.01004,-0.176001 0.0099,-0.478428 0,-0.670955 -0.005,-0.09629 -0.01004,-0.107787 -0.01335,-0.0497 z m 12.501537,9.05547 c 0.105234,0.0062 0.211727,0.115802 0.325188,0.333676 0.143365,0.275278 0.141587,0.814403 -0.0037,1.221884 -0.05685,0.159538 -0.130695,0.420527 -0.163808,0.580003 -0.05318,0.256205 -0.07502,0.290002 -0.185648,0.290002 -0.09554,0 -0.124979,-0.02796 -0.124979,-0.116486 0,-0.06386 -0.07025,-0.360017 -0.155314,-0.65766 -0.197859,-0.692202 -0.199372,-0.983135 -0.0097,-1.346818 0.108343,-0.20781 0.212674,-0.309385 0.317907,-0.304601 z m -0.74502,0.105551 c 0.109868,0 0.128619,0.02237 0.128619,0.168671 0,0.259498 -0.13914,0.748053 -0.319121,1.119998 -0.18758,0.3876 -0.76945,1.004631 -1.11025,1.178147 -0.361141,0.183891 -0.46239,0.135806 -0.401632,-0.188054 0.05435,-0.289691 0.144589,-0.429287 0.593348,-0.913679 0.406039,-0.438295 0.722902,-0.861804 0.89548,-1.197593 0.06203,-0.120709 0.121669,-0.16749 0.213556,-0.16749 z m 1.397823,0.06088 c 0.08824,-0.01243 0.147768,0.05281 0.30092,0.326407 0.218211,0.39021 0.528797,0.790485 0.957363,1.236483 0.333678,0.34722 0.443283,0.535895 0.492636,0.844472 l 0.03398,0.212345 -0.173514,0 c -0.203552,0 -0.583522,-0.243346 -0.906401,-0.575096 -0.43913,-0.451279 -0.778013,-1.189454 -0.80205,-1.744856 -0.01091,-0.252291 -0.0016,-0.28323 0.09707,-0.297332 z m -1.025313,3.510337 c -0.120513,0.01118 -0.0214,0.01926 0.219624,0.01926 0.241026,0 0.340135,-0.0087 0.219622,-0.01926 -0.120513,-0.01118 -0.318733,-0.01118 -0.439246,0 z"
     inkscape:connector-curvature="0" />
</svg>
