<?xml version="1.0" encoding="UTF-8" standalone="no"?>
<svg
   xmlns:dc="http://purl.org/dc/elements/1.1/"
   xmlns:cc="http://creativecommons.org/ns#"
   xmlns:rdf="http://www.w3.org/1999/02/22-rdf-syntax-ns#"
   xmlns:svg="http://www.w3.org/2000/svg"
   xmlns="http://www.w3.org/2000/svg"
   xmlns:sodipodi="http://sodipodi.sourceforge.net/DTD/sodipodi-0.dtd"
   xmlns:inkscape="http://www.inkscape.org/namespaces/inkscape"
   fill="#FF5722"
   width="48"
   height="48"
   viewBox="0 0 48 48"
   id="svg2"
   version="1.1"
   inkscape:version="0.91 r13725"
   sodipodi:docname="text-x-script6.svg">
  <metadata
     id="metadata10">
    <rdf:RDF>
      <cc:Work
         rdf:about="">
        <dc:format>image/svg+xml</dc:format>
        <dc:type
           rdf:resource="http://purl.org/dc/dcmitype/StillImage" />
        <dc:title></dc:title>
      </cc:Work>
    </rdf:RDF>
  </metadata>
  <defs
     id="defs8" />
  <sodipodi:namedview
     pagecolor="#ffffff"
     bordercolor="#666666"
     borderopacity="1"
     objecttolerance="10"
     gridtolerance="10"
     guidetolerance="10"
     inkscape:pageopacity="0"
     inkscape:pageshadow="2"
     inkscape:window-width="1366"
     inkscape:window-height="713"
     id="namedview6"
     showgrid="false"
     inkscape:snap-bbox="true"
     inkscape:bbox-paths="true"
     inkscape:bbox-nodes="true"
     inkscape:zoom="6.975303"
     inkscape:cx="27.758115"
     inkscape:cy="35.296916"
     inkscape:window-x="0"
     inkscape:window-y="30"
     inkscape:window-maximized="1"
     inkscape:current-layer="svg2" />
  <path
     d="M 42,6 6,6 C 3.79,6 2,7.79 2,10 l 0,28 c 0,2.21 1.79,3.96 4,3.96 l 36,0 c 2.21,0 4,-1.76 4,-3.96 L 46,10 C 46,7.79 44.21,6 42,6 Z"
     id="path4140"
     style="fill:#4caf5f;stroke:#FF5722;stroke-opacity:1;stroke-width:4;stroke-miterlimit:4;stroke-dasharray:none;fill-opacity:0" />
  <path
     d="m 42,38.03 -36,0 0,-28.06 36,0 0,28.06 z"
     id="path4"
     style="fill:none;stroke:none" />
  <path
     inkscape:connector-curvature="0"
     d="m 42.162831,9.5309838 -36.3256624,0 c -2.2299922,0 -4.0361848,1.4384742 -4.0361848,3.2144642 l 0,22.501249 c 0,1.775992 1.8061926,3.182319 4.0361848,3.182319 l 36.3256624,0 c 2.229993,0 4.036185,-1.414364 4.036185,-3.182319 l 0,-22.501249 c 0,-1.77599 -1.806192,-3.2144642 -4.036185,-3.2144642 z"
     id="path4140-6"
     style="fill:none;fill-opacity:1;stroke:#FF5722;stroke-width:3.60196805;stroke-miterlimit:4;stroke-dasharray:none;stroke-opacity:1" />
  <path
     inkscape:connector-curvature="0"
     d="m 39.176463,13.062988 -30.3529275,0 c -1.8633325,0 -3.3725479,1.086846 -3.3725479,2.428701 l 0,17.00091 c 0,1.341857 1.5092154,2.404413 3.3725479,2.404413 l 30.3529275,0 c 1.863335,0 3.372548,-1.068628 3.372548,-2.404413 l 0,-17.00091 c 0,-1.341855 -1.509213,-2.428701 -3.372548,-2.428701 z"
     id="path4140-6-8"
     style="fill:#000000;fill-opacity:1;stroke:#FF5722;stroke-width:2.86197686;stroke-miterlimit:4;stroke-dasharray:none;stroke-opacity:1" />
  <text
     xml:space="preserve"
     style="font-style:normal;font-variant:normal;font-weight:bold;font-stretch:normal;font-size:20px;line-height:100%;font-family:Inconsolata;-inkscape-font-specification:'Inconsolata, Bold';text-align:start;letter-spacing:0px;word-spacing:0px;writing-mode:lr-tb;text-anchor:start;fill:#FF5722;fill-opacity:1;stroke:none;stroke-width:1px;stroke-linecap:butt;stroke-linejoin:miter;stroke-opacity:1"
     x="8.9680004"
     y="28.790001"
     id="text4144"
     sodipodi:linespacing="100%"><tspan
       sodipodi:role="line"
       id="tspan4146"
       x="8.9680004"
       y="28.790001"
       style="font-style:normal;font-variant:normal;font-weight:bold;font-stretch:normal;font-size:20px;line-height:100%;font-family:Inconsolata;-inkscape-font-specification:'Inconsolata, Bold';text-align:start;writing-mode:lr-tb;text-anchor:start;fill:#FF5722;fill-opacity:1">&gt;_</tspan></text>
  <path
     inkscape:connector-curvature="0"
     d="m 40.812778,11.894055 -33.4650752,0 c -2.0543836,0 -3.7183419,1.198281 -3.7183419,2.67772 l 0,18.744047 c 0,1.47944 1.6639583,2.650941 3.7183419,2.650941 l 33.4650752,0 c 2.054387,0 3.718342,-1.178196 3.718342,-2.650941 l 0,-18.744047 c 0,-1.479439 -1.663955,-2.67772 -3.718342,-2.67772 z"
     id="path4140-6-8-0"
     style="fill:none;fill-opacity:1;stroke:#FF5722;stroke-width:3.15542126;stroke-miterlimit:4;stroke-dasharray:none;stroke-opacity:1" />
</svg>
