<?xml version="1.0" encoding="UTF-8" standalone="no"?>
<svg
   xmlns:dc="http://purl.org/dc/elements/1.1/"
   xmlns:cc="http://creativecommons.org/ns#"
   xmlns:rdf="http://www.w3.org/1999/02/22-rdf-syntax-ns#"
   xmlns:svg="http://www.w3.org/2000/svg"
   xmlns="http://www.w3.org/2000/svg"
   xmlns:sodipodi="http://sodipodi.sourceforge.net/DTD/sodipodi-0.dtd"
   xmlns:inkscape="http://www.inkscape.org/namespaces/inkscape"
   fill="#1793D1"
   width="48"
   height="48"
   viewBox="0 0 48 48"
   id="svg2"
   version="1.1"
   inkscape:version="0.91 r13725"
   sodipodi:docname="nm-signal-75-secure.svg">
  <metadata
     id="metadata12">
    <rdf:RDF>
      <cc:Work
         rdf:about="">
        <dc:format>image/svg+xml</dc:format>
        <dc:type
           rdf:resource="http://purl.org/dc/dcmitype/StillImage" />
      </cc:Work>
    </rdf:RDF>
  </metadata>
  <defs
     id="defs10" />
  <sodipodi:namedview
     pagecolor="#ffffff"
     bordercolor="#666666"
     borderopacity="1"
     objecttolerance="10"
     gridtolerance="10"
     guidetolerance="10"
     inkscape:pageopacity="0"
     inkscape:pageshadow="2"
     inkscape:window-width="1366"
     inkscape:window-height="713"
     id="namedview8"
     showgrid="false"
     inkscape:snap-bbox="true"
     inkscape:bbox-nodes="true"
     inkscape:zoom="3.897603885191483"
     inkscape:cx="48.2410545438599"
     inkscape:cy="5.420121020637595"
     inkscape:window-x="0"
     inkscape:window-y="30"
     inkscape:window-maximized="1"
     inkscape:current-layer="svg2"
     inkscape:snap-page="true" />
  <g
     style="fill:#1793D1"
     id="g4260" />
  <path
     id="path4208"
     style="fill:#1793D1"
     d="m 42,32 c -2.208,0 -3.9996526516162,1.68000002561371 -4,3.75 L 38,38 37.71484375,38 C 36.76535412955281,38 36,38.74275846004487 36,39.666015625 l 0,6.666015625 C 36,47.25528841495514 36.76535412955281,48 37.71484375,48 l 8.572265625,0 C 47.2365989954472,48 48,47.25528841495514 48,46.33203125 l 0,-6.666015625 C 48,38.74275846004487 47.2365989954472,38.00000000000001 46.287109375,38 L 46,38 46,35.75 C 46,33.67999999999998 44.20800000000011,32 42,32 Z m 0,2 c 1.10666666666671,0 2,0.89333333333332 2,2 l 0,2 -4,0 0,-2 c 0,-1.10666666666669 0.89333333333329,-2.00000000000002 2,-2 z M 24.02,42.98 47.28,14 C 46.38,13.32 37.43,6 24,6 10.57,6 1.62,13.32 0.7199999999999997,14 L 23.98,42.98000000000001 l 0.02,0.02 0.02,-0.02 z" />
</svg>
