<svg xmlns="http://www.w3.org/2000/svg" viewBox="0 0 47.99999927917836 47.99999927799897"><path d="m159.02 420.6c.033-.011.051.063.092.178.05.142.335.721.625 1.287 1.195 2.333 2.519 3.895 4.377 5.174.126-.029.375-.073.385-.084 0 0 0 .002 0 .002-.01.011-.258.056-.383.084-.001-.001-.001-.001-.002-.002-.167.038-.244.064-.508.111-.791.141-1.629.322-2.473.527-.837.204-1.674.431-2.477.672-.227.068-.418.141-.639.211-.53.168-1.067.337-1.537.51-.651.238-1.228.474-1.703.701-.009.004-.023.009-.031.014 0 .001 0 .001 0 .002-.049.023-.11.047-.156.07-.001 0 .001-.002 0-.002.046-.023.108-.047.156-.07.077-.159.095-.224.217-.441 1.805-3.229 3.02-5.839 3.703-7.988.217-.682.298-.937.354-.955m-12.619-15.06c-2.21 0-4 1.79-4 4v28c0 2.21 1.79 4 4 4h28c2.21 0 4-1.79 4-4v-28c0-2.21-1.79-4-4-4h-28m12.387 3.998c.485 0 .792.067.973.256.031.032.052.072.076.111.011.018.026.031.035.051 0 0 .002.002.002.002.03.062.053.133.07.213 0 0 0 .002 0 .002.034.16.042.357.033.598 0 0 0 .002 0 .002-.003.083-.01.111-.014.174.003.085.017.148.014.248-.017.438-.036.574-.119.574-.085-.713-.411-1.176-.996-1.344-.059.023-.178.237-.27.473-.113.291-.183.863-.207 1.518-.001.27.005.546.018.816.014.258.033.513.063.752.003.025.003.053.006.078 0 0 0 .002 0 .002.077.585.166 1.128.242 1.525 0 0 0 .002 0 .002.076.396.142.648.176.648.162-.646.308-1.326.453-2.023.145-.698.29-1.412.449-2.127.001 0 .001.007.002.008.047.04.058.417.053.936 0 .002 0 .002 0 .004 0 .003 0 .007 0 .01.025 1.202-.16 4.19-.361 5.229-.007.034-.001.051-.006.08 0 0 0 .002 0 .002.027.129.07.268.164.523 0 0 0 .002 0 .002.179.484.361.939.547 1.369 0 0 0 .002 0 .002.186.43.376.835.574 1.217 0 0 0 .002 0 .002.198.382.404.74.619 1.08 0 0 0 .002 0 .002.215.34.439.662.676.967 0 0 0 .002 0 .002.237.305.487.591.75.867.791.828 1.714 1.54 2.834 2.219l.521.316 1.441-.094c1.624-.107 3.702-.061 4.578.102.813.151 1.437.39 1.809.684.123.097.221.2.285.309 0 0 0 .002 0 .002.001.002.001.006.002.008.048.084.078.21.098.338.003.024.006.039.008.063.016.139.013.258-.012.332.041.241.031.498-.051.498-.378-1.298-3.557-1.36-5.725-1.068.601.246 1.377.546 1.893.709 1.193.352 2.778.96 3.83.467v.002c0 .052-.135.158-.301.262 0 0-.002.002-.002.002-.167.104-.365.207-.494.252-.1.035-.252.058-.432.072.446.035.87.004 1.229-.164 0 .105-.539.423-.797.514-.41.143-1.631.109-2.568-.074-1.386-.271-3.276-.933-4.633-1.613l-.521-.26-1.031.131c-3.096.375-6.255 1.014-8.885 1.807-.658.198-1.247.361-1.303.361-.159 0-.354.258-.977 1.289-1.92 3.179-3.647 5.228-4.951 5.875-.671.333-1.071.317-1.859-.084-.347-.176-.446-.373-.357-.777 0 0 0-.002 0-.002-.03-.089-.039-.193-.02-.322.019-.124.056-.269.117-.445.003-.009.004-.014.008-.023 0 0 0-.002 0-.002.169-.48.529-1.041 1.01-1.607 0 0 0-.002 0-.002.24-.283.511-.566.805-.842.294-.276.609-.544.939-.793.984-.74 1.868-1.233 1.836-1.086-.01.049-.123.169-.365.373 0 0 0 .002 0 .002-.186.157-.368.324-.549.492.825-.531 1.278-.687.549-.07-1.745 1.474-3.314 3.48-3.568 4.504.036.016.092.011.209-.008.579-.094 1.254-.546 2.02-1.359.256-.271.523-.581.799-.932 0 0 0-.002 0-.002.553-.701 1.148-1.56 1.783-2.58 0 0 0-.002 0-.002.318-.51.646-1.059.984-1.648 0 0 0-.002 0-.002.338-.589.686-1.218 1.045-1.887 0 0 0-.002 0-.002.473-.883.91-1.728 1.311-2.545 0 0 0-.002 0-.002.801-1.634 1.464-3.152 2.01-4.611 0 0 0-.002 0-.002.275-.729.521-1.445.742-2.152v-.002l.219-.682-.238-.924c-.472-1.856-.675-3.282-.678-4.781 0-.069.006-.126.008-.191 0-.005 0-.009 0-.014 0 0 0-.002 0-.002-.001-.072-.008-.143-.008-.215v-.002c-.001-.362.013-.696.039-.998 0 0 0-.002 0-.002.026-.302.066-.571.117-.807 0 0 0-.002 0-.002.051-.235.115-.434.189-.596 0 0 0-.002 0-.002.075-.161.162-.282.258-.363 0 0 0-.002 0-.002.194-.163.291-.186.773-.186m-.314 1.475c-.01.068-.021.131-.029.205.009-.075.019-.137.029-.205m-.885 3.818c.023.158.056.327.084.49-.028-.163-.061-.332-.084-.49m2.15.508c-.017.253-.029.464-.049.707.019-.231.032-.467.049-.707m-.096 1.238c-.049.507-.101.962-.156 1.254.055-.288.107-.75.156-1.254m-.738 3.828c-.037.102-.101.305-.16.49.06-.187.123-.388.16-.49m5.57 6.684c.019.023.018.037.018.051.002-.014.002-.028-.018-.051m3.4.699c.033.033.407.18.721.309-.313-.128-.68-.275-.717-.309-.001 0-.003 0-.004 0m-5.197.48c-.227.036-.452.075-.678.113.227-.038.45-.077.678-.113m-2.088.371c-.247.048-.494.097-.738.148.245-.051.49-.1.738-.148m-2.248.488c-.155.037-.316.069-.469.107.153-.038.314-.07.469-.107m-.541.129c-.66.166-1.305.339-1.916.523-.608.183-1.079.312-1.203.334-.041.09-.146.283-.146.301 0 .05.024.082.055.066.782-.391 1.944-.816 3.211-1.225m14.189.588c.044.003.087.005.131.008-.046-.003-.085-.004-.131-.008m-21.793 2.783c-.35.326-.679.67-.994 1.014.317-.347.641-.686.994-1.014m-1.58 1.699c-.173.211-.36.424-.508.627.149-.204.334-.415.508-.627m-.695.893c-.064.093-.128.188-.186.277.057-.09.121-.183.186-.277m-.357.568c-.049.085-.102.172-.143.252.041-.08.094-.166.143-.252m-.271.547c-.023.057-.055.119-.072.172.017-.053.049-.115.072-.172m1.293.998c-.112.053-.219.096-.32.127.101-.032.208-.074.32-.127m-1.42.049c.012.074.06.099.207.078-.064-.019-.138-.051-.207-.078m.316.1c.077.018.154.039.227.045-.073-.007-.15-.026-.227-.045m.615.02c-.068.013-.138.02-.205.023.068-.003.136-.009.205-.023" fill="#d41818" transform="translate(-136.4-399.54)"/></svg>