<svg xmlns="http://www.w3.org/2000/svg" viewBox="0 0 48 48"><path d="m26.713 4.5c.761.89 1.315 1.809 1.68 2.773.365.964.539 1.973.539 3.039 0 1-.141 1.882-.379 2.656-.238.774-.571 1.444-.955 2.031-.585.895-1.272 1.56-1.928 2.145a16.875 16.875 0 0 1 8.830078 -2.519531 16.875 16.875 0 0 1 9 2.623047v-8.748c0-2.216-1.784-4-4-4h-12.787" fill="#d50f25"/><path d="M34.5 14.625A16.875 16.875 0 0 0 17.625 31.5a16.875 16.875 0 0 0 2.609375 9H39.5c2.216 0 4-1.784 4-4v-19.252A16.875 16.875 0 0 0 34.5 14.625" fill="#009925"/><path d="m11.5 4.5c-2.216 0-4 1.784-4 4v6.529c1.286 2.923 4.121 5.332 8.59 5.332h1.604c0 0-.437 1.06-.439 2.084 0 1.51.541 2.357 1.693 3.662-5.258.32-8.985 1.516-11.447 3.191v7.201c0 2.216 1.784 4 4 4h1.561c-2.626-1.161-4.301-3.197-4.301-5.879 0-3.582 2.98-6.665 11.154-6.779.608 0 1.043.051 1.043.051 0 0 1.434 1.022 2.436 1.787 2.331 1.843 3.783 3.253 3.783 5.762 0 2.121-1.213 3.956-3.35 5.059h3.514c2.362-2.02 3.574-4.639 3.574-7.244 0-3.785-1.886-5.86-6.66-9.438-1.404-1.091-1.676-1.785-1.676-2.602 0-1.17.699-1.944.955-2.236.452-.477 1.235-1.022 1.527-1.283 1.604-1.359 3.871-3.371 3.871-7.385 0-2.132-.697-4.03-2.219-5.813h-5.479c1.381 1.561 3.121 4.651 3.121 8.369 0 4.57-3.551 5.82-5.473 5.82-.94 0-2.067-.264-3.02-.916-2.12-1.375-4.223-5.03-4.223-9.387 0-1.613.399-2.911 1.057-3.887h-1.195" fill="#fff"/><path d="m19.914 27.842c-1.022.014-1.962.075-2.826.178-.864.102-1.651.245-2.365.426-.714.181-1.358.399-1.932.648-.574.249-1.078.53-1.52.838-.442.308-.82.644-1.139 1-.318.358-.576.736-.779 1.133-.204.397-.352.813-.449 1.24-.097.427-.145.867-.145 1.314 0 .541.069 1.055.199 1.541.13.486.32.945.568 1.373.248.428.554.827.908 1.193.355.366.76.701 1.209 1 .433.29.91.544 1.42.77h10.762c.399-.206.771-.435 1.104-.689.362-.277.682-.579.961-.906.279-.327.515-.678.705-1.047.19-.369.336-.758.434-1.162.098-.404.146-.823.146-1.254 0-.314-.022-.61-.066-.893-.044-.282-.111-.55-.197-.807-.086-.257-.192-.503-.318-.74-.126-.237-.272-.467-.436-.691-.327-.448-.727-.874-1.191-1.305-.464-.43-.991-.865-1.574-1.326-1-.765-2.436-1.787-2.436-1.787 0 0-.435-.051-1.043-.051" fill="#eeb211"/><path d="m12.695 4.5c-.057.085-.117.166-.17.256-.186.314-.347.659-.479 1.033-.131.374-.233.778-.303 1.211-.069.433-.105.896-.105 1.387 0 .544.032 1.078.094 1.598.062.519.152 1.023.268 1.512.115.488.255.961.416 1.412.161.451.341.881.539 1.289.198.408.412.792.639 1.15.227.358.465.69.713.992.248.302.503.574.764.814.26.24.526.447.791.619.239.163.488.302.742.418.255.116.514.211.773.285.519.147 1.036.213 1.506.213.24 0 .506-.019.787-.063.281-.043.577-.111.879-.205.302-.094.608-.216.91-.369.302-.154.599-.34.881-.561.282-.221.549-.477.791-.773.242-.296.457-.632.639-1.012.181-.38.329-.804.43-1.275.101-.472.156-.991.156-1.563 0-.529-.035-1.048-.1-1.549-.064-.501-.159-.987-.275-1.455-.117-.468-.257-.918-.414-1.348-.157-.43-.332-.839-.518-1.225-.37-.772-.785-1.451-1.195-2.02-.21-.29-.418-.548-.619-.775h-8.539m-5.195 10.529v14.27c.23-.157.458-.315.711-.463.35-.205.723-.401 1.117-.588.789-.373 1.665-.707 2.637-.996.971-.29 2.037-.534 3.199-.727 1.162-.193 2.421-.335 3.783-.418-.288-.326-.537-.624-.75-.91-.213-.287-.388-.562-.527-.844-.14-.282-.244-.571-.313-.883-.069-.312-.104-.648-.104-1.025.001-.256.027-.514.068-.758.041-.243.098-.472.152-.668.109-.393.219-.658.219-.658h-1.604c-.396 0-.778-.018-1.148-.055-.37-.036-.727-.092-1.072-.162-.69-.141-1.329-.345-1.918-.605-.589-.26-1.128-.575-1.617-.934-.489-.358-.929-.761-1.318-1.197-.39-.436-.73-.904-1.021-1.396-.188-.318-.347-.648-.494-.982" fill="#3369e8"/></svg>