<svg xmlns="http://www.w3.org/2000/svg" xmlns:xlink="http://www.w3.org/1999/xlink" viewBox="0 0 48 48"><defs><path id="0" d="m8.156 30.578c0 .285-.238.516-.531.516-.293 0-.531-.231-.531-.516 0-.285.238-.516.531-.516.293 0 .531.231.531.516"/><use id="1" xlink:href="#Y"/><path id="Y" d="m32.856 27.786c0 2.581-4.631 4.675-10.337 4.675-5.706 0-10.337-2.094-10.337-4.675 0-2.581 4.631-4.675 10.337-4.675 5.706 0 10.337 2.094 10.337 4.675"/><linearGradient xlink:href="#E" id="B" gradientUnits="userSpaceOnUse" gradientTransform="matrix(.45983 0-.39117 1.37011 40.625-13.299)" x1="15.335" y1="33.06" x2="20.329" y2="36.38"/><linearGradient xlink:href="#F" id="C" gradientUnits="userSpaceOnUse" x1="7.738" y1="30.642" x2="7.639" y2="30.45"/><linearGradient id="A" x1="50.51" y1="40.47" x2="2.4" y2="11.449" gradientUnits="userSpaceOnUse"><stop stop-color="#babdb6"/><stop offset="1" stop-color="#555753"/></linearGradient><linearGradient id="D" xlink:href="#5"/><linearGradient id="E"><stop stop-color="#fff" stop-opacity="0"/><stop offset=".5" stop-color="#fff"/><stop offset="1" stop-color="#fff" stop-opacity="0"/></linearGradient><linearGradient xlink:href="#F" id="H" gradientUnits="userSpaceOnUse" x1="40.617" y1="30.555" x2="40.711" y2="30.359"/><linearGradient id="F"><stop/><stop offset="1" stop-color="#fff"/></linearGradient><linearGradient id="G" gradientUnits="userSpaceOnUse" y1="39" x2="0" y2="37.996"><stop/><stop offset="1" stop-opacity="0"/></linearGradient><linearGradient id="I"><stop stop-color="#d0d0cb"/><stop offset="1" stop-color="#babdb6"/></linearGradient><linearGradient id="2" gradientUnits="userSpaceOnUse" gradientTransform="matrix(1 0 0 .99556 0-3.931)" x1="24.749" y1="35.35" x2="24.999" y2="14.998"><stop stop-color="#fdfdfc"/><stop offset="1" stop-color="#fff" stop-opacity=".371"/></linearGradient><linearGradient xlink:href="#E" id="3" gradientUnits="userSpaceOnUse" gradientTransform="matrix(1 0 0 1.42294 10.5-14.957)" x1="15.335" y1="33.06" x2="20.329" y2="36.38"/><linearGradient id="4" gradientUnits="userSpaceOnUse" x1="53.813" y1="93.57" x2="-2.814" y2="85.5"><stop stop-color="#555753"/><stop offset="1" stop-color="#2e3436"/></linearGradient><linearGradient id="9" x1="35.723" y1="36.22" x2="11.953" y2="17.984" gradientUnits="userSpaceOnUse"><stop stop-color="#fff"/><stop offset="1" stop-color="#555753"/></linearGradient><linearGradient id="8" x1="8.094" y1="13.796" x2="20.502" y2="29.456" gradientUnits="userSpaceOnUse" gradientTransform="matrix(1.0029 0 0 1.06904-.118-1.915)"><stop stop-color="#2f302e"/><stop offset="1" stop-color="#555753"/></linearGradient><linearGradient id="5" gradientUnits="userSpaceOnUse" y1="43.19" x2="0" y2="34.05"><stop stop-color="#fff"/><stop offset="1" stop-color="#fff" stop-opacity="0"/></linearGradient><linearGradient id="7" gradientUnits="userSpaceOnUse" x1="19.679" y1="20.903" x2="23.19" y2="32.1"><stop stop-color="#fff"/><stop offset=".25" stop-color="#babdb6"/><stop offset=".375" stop-color="#eeeeec"/><stop offset=".5" stop-color="#babdb6"/><stop offset="1" stop-color="#eeeeec"/></linearGradient><linearGradient xlink:href="#E" id="6" gradientUnits="userSpaceOnUse" gradientTransform="matrix(1 0 0 1.42294-.875-15.05)" x1="15.335" y1="33.06" x2="20.329" y2="36.38"/><radialGradient xlink:href="#I" id="X" gradientUnits="userSpaceOnUse" gradientTransform="matrix(.29978-.25515.1669.42617-2.086 27.06)" cx="25.25" cy="16.48" r="21.98"/><radialGradient xlink:href="#I" id="S" gradientUnits="userSpaceOnUse" gradientTransform="matrix(1.03299-.5964.57512.99614-12.235 11.554)" cx="25.25" cy="16.48" r="21.98"/><radialGradient id="R" gradientUnits="userSpaceOnUse" gradientTransform="matrix(1.38975 0 0 1.34887-2.92-10.638)" cx="7.519" cy="30.3" r=".531"><stop stop-color="#fff"/><stop offset=".5" stop-color="#fff"/><stop offset="1" stop-color="#cccfca"/></radialGradient><radialGradient id="T" cx="7.625" cy="30.578" r=".531" gradientTransform="matrix(1 0 0 .97059 0 .899)" gradientUnits="userSpaceOnUse"><stop stop-color="#d3d7cf"/><stop offset=".5" stop-color="#babdb6"/><stop offset="1" stop-color="#eeeeec" stop-opacity="0"/></radialGradient><radialGradient id="V" gradientUnits="userSpaceOnUse" gradientTransform="matrix(1.56949 0 0 1.52333-4.289-15.921)" cx="7.534" cy="30.31" r=".531"><stop stop-color="#eeeeec"/><stop offset="1" stop-color="#888a85"/></radialGradient><radialGradient id="W" gradientUnits="userSpaceOnUse" gradientTransform="matrix(1.38975 0 0 1.34887-2.92-10.638)" cx="7.519" cy="30.3" r=".531"><stop stop-color="#fff"/><stop offset=".5" stop-color="#fff"/><stop offset="1" stop-color="#888a85"/></radialGradient><radialGradient id="U" gradientUnits="userSpaceOnUse" gradientTransform="matrix(1.66248 0 0 1.61358-4.989-18.656)" cx="7.518" cy="30.574" r=".531"><stop stop-color="#babdb6"/><stop offset="1" stop-color="#2e3436"/></radialGradient><radialGradient xlink:href="#D" id="Q" cx="7.625" cy="30.578" r=".531" gradientTransform="matrix(1.35117 0 0 1.57652-2.678-17.629)" gradientUnits="userSpaceOnUse"/><radialGradient id="J" cx="21.366" cy="28.457" r="4.621" gradientTransform="matrix(1.15427-1.60478 1.46327 1.2076-43.596 25.552)" gradientUnits="userSpaceOnUse"><stop stop-color="#ef2929"/><stop offset="1" stop-color="#c00"/></radialGradient><radialGradient id="K" cx="23.571" cy="22.566" r="11.155" gradientTransform="matrix(1 0 0 .61209 0 8.753)" gradientUnits="userSpaceOnUse"><stop stop-color="#8ae234"/><stop offset="1" stop-color="#73d216"/></radialGradient><radialGradient id="P" cx="21.885" cy="21.09" r="10.683" gradientTransform="matrix(.68596-.92125 1.44483.71285-25.656 33.737)" gradientUnits="userSpaceOnUse"><stop stop-color="#fff" stop-opacity="0"/><stop offset="1" stop-color="#fff"/></radialGradient><radialGradient id="L" cx="25.526" cy="26.02" r="6.535" gradientTransform="matrix(.52342-.91271 1.02528.67463-12.879 29.478)" gradientUnits="userSpaceOnUse"><stop stop-color="#fcaf3e"/><stop offset="1" stop-color="#f57900"/></radialGradient><radialGradient xlink:href="#D" id="N" cx="22.519" cy="27.786" r="10.337" gradientTransform="matrix(1 0 0 .45223 0 15.22)" gradientUnits="userSpaceOnUse"/><radialGradient xlink:href="#D" id="O" gradientUnits="userSpaceOnUse" gradientTransform="matrix(.68596-.92125 1.44483.71285-25.656 33.737)" cx="24.691" cy="23.19" r="10.683"/><radialGradient id="M" cx="24" cy="30.27" r="14" gradientTransform="matrix(1 0 0 .30469 0 21.04)" gradientUnits="userSpaceOnUse" xlink:href="#G"/></defs><g transform="translate(-318-42)"><g transform="translate(318-3.996)"><g stroke-linecap="square" color="#000" stroke-dashoffset="1.4"><path d="m4.518 80.5h38.964c.564 0 1.018.454 1.018 1.018v2.964c0 1.316-.45 3.02-2.456 3.02h-1.544v1h-33v-1h-1.857c-1.271 0-2.143-.885-2.143-2.256v-3.726c0-.564.454-1.018 1.018-1.018z" fill="url(#4)" stroke-linejoin="round" stroke="#2e3436"/><path transform="translate(0 50)" d="m4.594 31.594v3.73c0 .6.376 1.105.886 1.105h36.946c.512 0 .98-.507.98-1.016v-3.818h-38.813z" opacity=".1" fill="none" stroke="url(#5)"/></g><g transform="translate(0 50)" opacity=".5" fill-rule="evenodd"><path d="m26.14 32.09c0 0-1.503 5.534-3.226 5.911 0 0 6.231-.126 6.231-.126 1.387-.317 3.359-5.785 3.359-5.785h-6.364" opacity=".11" fill="url(#3)"/><path d="m14.77 32c0 0-1.503 5.534-3.226 5.911 0 0 6.231-.126 6.231-.126 1.387-.317 3.359-5.785 3.359-5.785h-6.364" opacity=".11" fill="url(#6)"/><path d="m34.886 32c0 0-2.212 5.328-3.109 5.692 0 0 2.9-.121 2.9-.121.725-.306 3.135-5.571 3.135-5.571h-2.926" opacity=".11" fill="url(#B)"/></g></g><path d="m11.693 10.499h24.573c1.684 0 2.397.117 3.04 2.385l5.074 17.881c.501 1.765-1.356 2.735-3.04 2.735h-34.722c-1.868 0-3.489-1.181-3.04-2.735l5.25-18.15c.568-1.965 1.18-2.113 2.864-2.113z" transform="translate(318 45)" fill="url(#S)" stroke="#888a85" stroke-linecap="round"/><g color="#000"><path d="m14.313 15.531l-3.844 2.563-3.625 12.594c1.447.7 3.789 1.478 3.594 3.844h2.063v-4.03c2.737 2.435 7.088 4 12 4 7.778 0 14.19-3.945 14.938-9h.219l-2.156-7.406-5.156-2.563h-18.03" transform="translate(318 42)" fill="url(#A)"/><path d="m14.25 20l-3.875 2.75-2.375 8.781c1.246.671 2.489 1.591 2.344 3.469 0 0 14.156-.5 14.156-.5 6.703 0 12.39-2.923 14.313-6.969l-1.313-4.781-5.188-2.75h-18.06" transform="translate(318 42)" fill="url(#8)"/><path d="m24 16c-7.728 0-14 3.584-14 8v8.813c.305.464.496 1.01.438 1.719 0 0 14.06-.031 14.06-.031 5.855 0 10.996-2.239 13.5-5.5v-5c0-4.416-6.272-8-14-8z" transform="matrix(.96653 0 0 .97472 318.8 42.873)" fill="url(#7)" stroke="#555753" stroke-width=".966"/><g transform="translate(318 42)"><path d="m10 25v7.813c.305.464.496 1.01.438 1.719 0 0 14.06-.031 14.06-.031 5.855 0 10.996-2.239 13.5-5.5v-4c0 4.416-6.272 8-14 8-7.728 0-14-3.584-14-8" fill="#555753"/><path d="m10 26v6.813c.305.464.496 1.01.438 1.719 0 0 14.06-.031 14.06-.031 5.855 0 10.996-2.239 13.5-5.5v-3c0 4.416-6.272 8-14 8-7.728 0-14-3.584-14-8" fill="url(#M)"/></g><path transform="matrix(1.40049 0 0 1.07628 312.53 39.42)" d="m10.33 31.2h3.57v3.717h-3.57v-3.717" fill="#babdb6"/><use transform="matrix(.33858 0 0 .42782 320.88 62.11)" fill="#555753" xlink:href="#Y"/><use transform="matrix(6.58824 0 0-3.87879 278.26 191.61)" fill="#d3d7cf" xlink:href="#0"/><use transform="matrix(4.70588 0 0-2.90909 292.62 161.45)" fill="url(#Q)" xlink:href="#0"/><path d="m7.5 31c-1.468-1.317-1.681-.694-2.851 3.173.354 1.722 1.83 1.426 3.351 1.827 1.656 0 3.176.04 2.737-1.766-.521-1.556-1.674-2.773-3.237-3.234" transform="translate(318 42)" fill="url(#X)"/></g><path d="m11.688 11.5c-.803 0-1.097.071-1.219.156-.122.085-.358.402-.688 1.307l-5.25 18.14c-.134.367-.055.534.313.84.367.306 1.067.56 1.781.56h34.719c.64 0 1.393-.238 1.781-.529.388-.291.488-.383.313-.871l-5.063-17.858c-.377-1.048-.682-1.439-.844-1.556-.162-.116-.444-.187-1.25-.187h-24.594z" transform="translate(318 45)" fill="none" stroke="url(#2)" stroke-linecap="round"/><g transform="translate(325 44)" opacity=".303" color="#000"><path d="m19.251 35.5h12.497c.416 0 .751.333.751.747v.506c0 .414-.335.747-.751.747h-12.497c-.416 0-.751-.333-.751-.747v-.506c0-.414.335-.747.751-.747z" stroke-dashoffset="1.4" stroke-linecap="square" fill="#fff" stroke="#eeeeec"/><path d="m19 36h1v1h-1v-1"/><path d="m22 36h1v1h-1v-1"/><path d="m24 36h1v1h-1v-1"/><path d="m26 36h1v1h-1v-1"/><path d="m29 36h2v1h-2v-1"/></g><g color="#000"><use transform="matrix(-2.6286 0 0 1.77777 378.79 21.22)" fill="url(#V)" xlink:href="#0"/><use transform="matrix(1.41177 0 0 .9697 347.99 45.85)" fill="url(#U)" xlink:href="#0"/></g><path d="m40.33 30.26l.875.43" transform="translate(318 45)" opacity=".4" fill="none" stroke="url(#H)" stroke-linecap="round" stroke-width=".3"/><g color="#000"><path transform="translate(318 45)" d="m8 38h32.03v1h-32.03v-1" opacity=".12" fill="url(#G)"/><use transform="matrix(-2.6286 0 0 1.77777 345.79 21.22)" fill="url(#R)" xlink:href="#0"/><use transform="matrix(1.41177 0 0 .9697 314.99 45.85)" fill="url(#U)" xlink:href="#0"/></g><path d="m7.33 30.696l.871-.439" transform="translate(318 45)" opacity=".4" fill="none" stroke="url(#C)" stroke-linecap="round" stroke-width=".3"/><g color="#000"><use transform="matrix(-1.3543 0 0 1.71127 372.5 18.451)" fill="url(#N)" xlink:href="#Y"/><path transform="matrix(-1.07116 0 0 1 367.85 42.26)" d="m24.13 31.737c-3.607 0-6.691-.782-9.242-2.343l9.242-5.657z" opacity=".883" fill="url(#J)"/><path transform="matrix(-1.07116 0 0 1 367.85 42.26)" d="m14.89 29.393c-5.102-3.123-5.102-8.191 0-11.314 5.102-3.123 13.382-3.123 18.484 0l-9.242 5.657z" opacity=".765" fill="url(#K)"/><path transform="matrix(-1.07116 0 0 1 367.85 42.26)" d="m33.374 18.08c2.551 1.561 3.828 3.449 3.828 5.657h-13.07z" opacity=".907" fill="url(#L)"/><path d="m39.547 25.5l-2.047-7.406-5.156-2.563h-18.03l-3.844 2.563-3.625 12.594c1.447.7 3.789 1.478 3.594 3.844 0 0 14.06-.031 14.06-.031 7.778 0 14.299-3.945 15.05-9z" transform="translate(318 42)" stroke-linecap="round" fill="none" stroke-linejoin="round" stroke="url(#9)"/><use transform="matrix(-7.52941 0 0-3.87879 399.41 184.61)" fill="url(#W)" xlink:href="#0"/><use transform="matrix(-5.64706 0 0 2.90909 385.06-22.455)" fill="url(#T)" xlink:href="#0"/><g fill="none"><use transform="matrix(-1.2092 0 0 1.39041 369.23 27.366)" opacity=".668" stroke="url(#P)" stroke-width=".771" xlink:href="#1"/><use transform="matrix(-1.30593 0 0 1.60431 371.41 21.423)" opacity=".263" stroke="#000" stroke-width=".691" xlink:href="#1"/><use transform="matrix(-.43531 0 0 .53477 351.8 51.14)" stroke="url(#O)" stroke-width="2.073" xlink:href="#1"/><use transform="matrix(-.53205 0 0 .64173 353.98 47.669)" opacity=".202" stroke="#000" stroke-width="1.711" xlink:href="#1"/></g></g></g></svg>