<svg height="48" viewBox="0 0 47.999999 48" width="48" xmlns="http://www.w3.org/2000/svg"><g transform="matrix(.07998572 0 0 .07996178 3.99976 4.00088)"><path d="m57.42 0c-2.039 0-4.061.112-6.06.328-1.976.185-3.822.488-5.646.902-3.913.832-7.701 2.077-11.307 3.693-.673.302-1.338.618-1.998.945-.042.021-.085.038-.127.059-.549.256-1.081.516-1.576.779-.638.339-1.297.737-1.967 1.16-.098.058-.197.117-.295.176-.122.074-.246.144-.367.219-7.955 4.862-14.681 11.69-19.402 20-.235.404-.458.817-.686 1.229-.261.473-.522.946-.771 1.428-.498.915-.967 1.848-1.41 2.799-1.397 2.58-2.458 4.415-3.264 8.193l-2.01 5.588-.02 16.85c-.182 8.993-.297 22.565-.367 44.02v.129c-.171 34.381-.114 86.32-.113 166.23v.984 2.357 195.32l-.031 26.777h.004v.063l1.223-.229s.002.002.002.002c.001 0 .05-.008.051-.008s.001.004.002.004c.012 0 .257-.039.281-.041.038.025.076.045.115.045 1.357 0 224.63-37.4 318.44-53.35 9.951-1.691 16.84-2.944 22.04-4.254 1.897-.407 3.251-.73 3.873-.934.315-.103.669-.241 1.053-.404.022-.008.085-.022.104-.029.64-.243 1.275-.514 1.906-.799 4.23-1.692 7.154-3.798 10.561-6.998 1.052-.941 2.072-1.953 3.07-3.01 6.707-6.82 12.599-17.191 15.666-27.449.091-.261.195-.516.283-.777.121-.357.23-.74.336-1.168l1.521-4.332.02-12.971c.161-6.385.265-16.14.336-29.797.008-1.505.02-2.402.027-4.02 0-.076.002-.113.002-.189 0-.004 0-.01 0-.014.019-4.434.028-10.606.041-15.953.016-4.03.025-9.01.035-13.531.001-.37.001-.588.002-.961.001-.414-.001-1.267 0-1.686 0-.247 0-.564 0-.813.046-24.05.038-53.938.037-94.21v-.441-.059-1.318c0-.504 0-.921 0-1.424v-145.15l.037-21.52h-.004v-.26-.02l-.033-.008v-.121l-2.25-.52c-1.989-.46-106.04-17.56-262.01-43.06-10.347-1.692-19.473-3.133-27.465-4.352-1.527-.248-5.815-.951-7.06-1.152-8.402-1.36-14.777-2.21-19.994-2.598-.035-.004-.237-.035-.264-.037-.278-.024-.556-.039-.834-.059-.677-.065-1.384-.137-1.914-.176-.117-.011-.164-.01-.268-.02-.189-.013-.393-.028-.561-.037-.147-.008-.387-.031-.484-.031-.096 0-.191.005-.287.006-.012 0-.058-.006-.068-.006-.03 0-.062.002-.092.002-.019 0-.05-.002-.068-.002" fill="#80c342"/><g fill="#fff"><path d="m147.53 93.56c3.282-.006 5.961.011 8.273.064 2.032.16 4.047.345 6.01.586 20.743 3.116 37.08 11.481 49.33 25.291 15.984 18.02 25.788 47.39 28.768 85.31.15 3.034.276 6.267.377 9.656.29 11.978.287 26.13-.018 38-1.655 30.891-6.411 55.13-14.504 73.61-1.042 2.317-2.127 4.583-3.287 6.768-2.074 3.906-4.268 7.477-6.602 10.754-6.614 8.885-17.436 18.14-26.49 22.525-.904.437-1.643.79-2.373 1.145l-3.271 1.525-1.889.699.027.168-.666.311.029.113-.008.004.426 1.619c-.211 1.734.832 4.288 2.629 9.17.842 2.288 1.812 4.27 2.92 6 .03.047.062.092.092.139.299.459.609.899.93 1.32.119.158.239.316.361.469.228.282.464.552.703.816.136.152.263.319.402.465.005.006.009.01.014.016.179.228.354.433.521.611.904.962 1.958 1.736 3.252 2.357 1.588.922 3.372 1.593 5.346 2.068.014.003.029.006.043.01.561.134 1.139.253 1.734.354.093.016.189.03.283.045.525.083 1.058.159 1.609.217.261.028.532.047.799.07.419.035.835.074 1.27.096.777.041 1.574.066 2.402.066h1.242l3.811.287v2.973l-.219 12.137-.23 12.688c-.016.048-.028.102-.045.148-.324.894-.828 1.503-1.615 1.936-.021.011-.043.022-.064.033-.065.035-.138.065-.207.098l-.863.143c-1.788.293-6.77.988-11.07 1.545-1.382.179-2.717.32-4.03.441-1.707.136-3.369.244-4.959.299-.166.004-.332.009-.498.012-.611.018-1.21.026-1.805.031-.844.005-1.659-.005-2.475-.016-.397-.008-.806-.007-1.195-.021-.406-.015-.793-.045-1.191-.066-7.656-.511-14.255-2.405-20.662-5.82-10.676-5.69-19.229-19.517-24.49-39.594l-1.912-7.299-.514-2.453-.141-.043-.018-.064-7.266-2.256c-4.119-1.279-8.02-2.928-11.725-4.932-9.345-5.185-17.562-12.837-24.393-22.682-.014-.02-.027-.039-.041-.059-.162-.234-.32-.476-.48-.713-9.895-14.946-16.804-35.21-20.783-60.889-1.223-8.243-2.146-16.916-2.762-25.791-.916-17.83-.654-45.22.643-60.58.182-1.9.38-3.78.594-5.643 5.447-43.912 19.672-73.1 42.32-87.13.839-.52 1.693-1.01 2.555-1.488.399-.22.797-.443 1.201-.654.364-.191.732-.376 1.1-.561.746-.372 1.497-.738 2.26-1.082.004-.002.008-.004.012-.006.248-.112.502-.215.752-.324.59-.257 1.187-.504 1.787-.744.534-.213 1.071-.42 1.613-.619 4.874-1.697 10.18-2.87 15.73-3.521 2.675-.113 5.961-.151 10.598-.16"/><path d="m280.05 110.34c2.182.167 6.498.596 11.539 1.162 5.751.646 10.05 1.109 12.03 1.305l1.693.219c.086.111.17.707.246 1.678l.242 21.914v.008l.232 21.1v.002 3.01.002.021.014l3.25.553c1.788.304 8.09.858 14 1.23l8.799.555 1.951.143v14.768.09c-.001 13.441-.151 14.668-1.75 14.352-.962-.19-7.262-.576-14-.857l-11.43-.477-.82-.059v.023.027.563.002.006.014.021.148.053.061.066l-.111-.006.111 22.631v35.619 2.521.256c0 23.633-.005 38.838.236 48.916.127 6.294.316 10.186.604 12.529.022.262.046.425.068.576.119 1.388.247 2.46.396 2.898.155.454.338.866.535 1.26.898 2.639 2.233 3.243 4.221 4.271.175.09.366.168.557.248 1.876 1.025 3.053 1.298 5.852.965.356-.03.741-.071 1.154-.127 3.553-.216 7.703-1.134 11.877-2.719 2.75-1.044 5.349-1.898 5.777-1.898.411 0 .626 5.52.508 12.383l-.008.387-.221 10.967-.041 1.914c-.061.268-.125.52-.201.715l-2.215.953-4.928 1.879c-4.03 1.537-11.752 3.697-17.16 4.799-2.296.468-4.468.824-6.58 1.121-.541.064-1.082.128-1.619.182-.798.065-1.596.122-2.383.172-.827.052-1.641.095-2.432.127-1.554.063-3.01.098-4.375.102-4.677-.081-8.789-.582-11.479-1.545-.918-.329-1.79-.691-2.639-1.07-2.452-1.098-4.635-2.415-6.572-3.996-2.954-2.545-5.403-5.811-7.416-9.838-2.638-5.278-4.01-8.595-4.721-19.301-.317-7.361-.475-22.453-.658-45.678l-.119-15.771-.002-.336c0-1.241-.004-2.128-.004-3.414v-1.307c.001-13.591.013-24.01-.008-32.479l-.008-31.965h-3.275c-1.156-.377-2.709 0-4.807 0h-2.627l-2-.227c-.07-.083-.139-.169-.201-.264l-.088-4.717v-10.668-.209-.023-.016-.006-.016-.453c0-9.08.151-13.462.594-15.12l8.322.475 8.555.488.377.029.473-1.779.445-1.613c.514-1.861 3.097-12.608 5.742-23.883 2.385-10.165 4.219-17.827 4.658-19.508.058-.214.079-.274.123-.428.243-.293.565-.512 1.012-.662.206-.026.455-.043.717-.059"/></g><path d="m156.1 129.02c-10.203.049-18.08 6.231-23.459 18.283-1.398 3-2.603 6.428-3.639 10.395-.003.013-.006.025-.01.037-.95 3.504-1.762 7.321-2.434 11.451-1.557 9.576-2.596 25.688-3.055 43.19-.031 1.041-.068 2.023-.096 3.092-.256 9.83-.275 19.249-.09 28.21.195 13.294.749 25.669 1.709 34.813 1.777 16.932 4.532 29.948 8.428 39.5.323.828.648 1.635.984 2.396.4.905.875 1.824 1.398 2.742 2.418 4.58 5.201 8.111 8.379 10.666.121.101.245.196.367.295.049.038.096.078.145.115 1.491 1.185 3.062 2.173 4.719 2.951.89.418 1.732.735 2.582.98 1.702.597 3.184.765 5.279.674 2.26.028 4.566-.307 6.838-.998.005-.001.009-.003.014-.004.324-.091.639-.2.957-.303 8.901-2.887 15.39-10.721 19.842-24.2.559-1.628 1.065-3.31 1.51-5.04.041-.161.08-.346.121-.51 1.931-7.349 3.386-16.07 4.404-26.26 2.769-27.733 2.239-84.51-.984-105.5-.755-4.915-1.665-9.442-2.732-13.582-.001-.005-.003-.009-.004-.014-1.902-8.284-4.399-14.387-7.758-19.344-5.846-9.413-13.639-14.09-23.416-14.04" fill="#80c342"/></g><g transform="matrix(1.14867622 0 0 1.14867622 -7.226889 -7.136459)"><path d="m47.207031 24.728516c-.015849-.015849-.470565.537949-1.026367 1.163086-.540687.608137-.961574 1.078311-1.601829 1.66929-.64868.598756-1.063481 1.0113-1.795193 1.559708-1.75234 1.313355-1.977832 1.446558-2.63623 1.891048-.010049.006784 0 0 0 0s-.17106.106933-.246608.154312c-.029674.01861-.381906.229301-.381906.229301s.000884-.00051 0 0c-.318315.196219-.524492.307816-.847023.489505-.463186.260923-2.065258 1.138229-3.62851 1.922772-3.040989 1.526171-4.045352 2.124182-4.930084 2.969806-.000933.000946-.002964.00101-.003906.001953-.107853.108015-.274295.202344-.373047.3125l-.001953.001953c-.550206.579143-1.064279 1.523698-1.214844 1.84375v.001953c-.01357.15454-.027317.30972-.068359.439453-.111095.35117-.130537.78799-.185547 1.189453-.100621 1.01001-.063237 2.38221.115234 3.583984.082504.511596.182561 1.042902.300781 1.59375.000446.002078.001516.00379.001953.005859.031382.148452.040348.274354.080078.431641.095334.377419.078653.633709.195313 1.035156l.226563.779297 1.638672-.0625c.901008-.033839 2.088639-.138691 2.638672-.234375.434768-.075632 1.077773-.338323 1.71875-.523438.033504-.009676.059092-.018263.089844-.027344.174591-.051555.318988-.096312.509766-.15625.357699-.122338.617894-.338093.949219-.482422h.001953c.677102-.294884 1.381716-.559278 1.939453-.986328.141849-.108611.237757-.295983.373047-.414063l.001952-.001951c.333605-.288625.61901-.670788.919922-1.015625l.001953-.001953c.346654-.396685.74661-.691297 1.058594-1.169922.201692-.309422.370976-.791379.558594-1.144531.000643-.001211.001309-.002698.001953-.003906.217743-.408551.441044-.833209.650391-1.326172v-.001953c.119823-.282289.251189-.442322.371094-.759766.510831-1.35241 1.031175-3.048106 1.640625-5.296875.073812-.272352.112033-.368543.181641-.619141.000464-.00167.001487-.002223.001953-.003906.188259-.679367.323939-1.097268.490234-1.664063.002546-.008679.005263-.016698.007813-.025391.363852-1.240716.75564-2.618469 1.072266-3.636719l.005859-.019531.238281-.769531c.134434-.434237.412726-1.263371.617188-1.841797.204462-.578425.357646-1.064229.341797-1.080078z" fill="#eaeaeb"/><path d="m47.103516 24.966797-1.845703 1.849609c-.434576.435407-.732997.789405-1.138139 1.164211-.439753.400861-.973786.850867-1.336031 1.139982-.2758.220122-.627445.497832-.902784.70362-.64975.485623-1.194779.852194-1.927706 1.309241-.731137.455931-1.540227.874971-2.473853 1.374012-.855883.457485-1.907444 1.046841-3.0298 1.598109-.519723.255272-.595232.310871-1.029578.540903-1.025787.543263-1.951951 1.068249-2.587891 1.544922-.402608.306815-.749856.636407-1.0625.980469-.391168.419059-.687572.89369-.929688 1.382813-.130819.264281-.317268.44649-.421875.746094-.046128.132113-.098321.316952-.130859.423828-.025333.083208-.018786.25146-.037109.330078-.094457.405293-.160309.655111-.15625 1.705078.00274.70873.2045 1.412612.275391 2.003906.079852.666037.132843 1.397356.353516 2.261719.073362.287354.024022.415585.117188.751953l.330078 1.189453h1.066406c.425233-.000344.830654-.07676 1.25-.105469.051781-.003545.102633-.009704.154297-.013672 1.53533-.137654 2.709352-.354179 3.923828-.742188 1.195551-.381962 2.213834-.895872 3.107422-1.580078s1.661227-1.538456 2.355469-2.603516c.570488-.875205 1.0712-1.883918 1.582031-3.236328s1.031175-3.048106 1.640625-5.296875c.993015-3.664059 1.991318-7.049935 2.455078-8.326172zm-.746094 1.224609-.378906 1.177734-.378906 1.175781-.533203.03125-.53125.033203-2.716797 3.283203c-1.494816 1.80649-3.257148 3.936322-3.916016 4.732423l-1.197266 1.447266h-3.623047c-1.979846 0-3.580445-.040273-3.599609-.089844-.000114-.000296-.021484.000296-.021484 0 0-.003949.043262-.035791.044922-.041016.052856-.166351.887439-.937128 1.429688-1.306641.260542-.177545 1.231831-.705304 2.158203-1.173828 5.092171-2.575428 11.703116-6.677335 11.052734-6.857422-.176959-.048999-.01781-.245474 1-1.234375zm-2.523438 4.345703c.062002-.006977.047905.187641 0 .798828-.144746 1.846694-.543349 4.169402-1.015625 5.919922l-.220703.816406h-2.416016c-1.905214 0-2.399062-.027087-2.335938-.130859.127312-.209292 5.62359-7.057718 5.851563-7.291016.063876-.065368.108536-.11011.136719-.113281z" fill="#e3e3e3"/><path d="m47.013672 25.060547c-.015114-.015114-.406977.397918-.869141.917969-1.049041 1.180435-2.762064 2.72606-4.263672 3.845703-.335985.25052-1.366114.940751-1.733447 1.187429 0 0 .001942-.001327 0 0-.199885.136552.205515-.130655 0 0-.201202.127913-.836132.508249-1.040123.631675-.47372.286627-1.371346.783343-2.45056 1.344345-.544521.286716-.772534.399466-1.408683.717411-1.474356.736877-2.998302 1.523962-3.386719 1.75-.631875.367718-1.155183.807891-1.646484 1.253906l-.001952.001953c-.15909.146565-.338945.286599-.478516.441406-.330395.352308-.55395.715177-.767578 1.078125-.000713.001255-.001241.002651-.001953.003906-.159584.281422-.290997.581046-.404297.890625-.175134.497888-.227557 1.110667-.285156 1.716797-.012485.211708.021692.453527.021484.697266v.003906c-.00001.201565.011928.363166.019531.578125.019186.542452-.013992.929857.046875 1.458984v.001953c.037638.326074-.021022.618518.029297.898438.070108.384227.137669.768448.234375 1.183594.091456.392609.107762.697235.222656 1.119141l.322266 1.183594h.863281c.40123 0 .791873-.084187 1.191406-.109375.233129-.014697.463407-.039347.695313-.0625.398052-.040288.692286-.142472 1.052734-.199219h.001953c.680195-.107063 1.373127-.204545 1.986329-.376954h.001953c.460655-.129579.89464-.302635 1.322266-.480469.627643-.244428 1.199804-.544508 1.734375-.882813.297564-.193012.613855-.365277.886719-.589844.001041-.000861.000912-.003045.001953-.003906.660257-.546634 1.247072-1.212728 1.791016-1.978516l.001952-.001952c.098635-.138922.228511-.212547.324219-.359375.570488-.875205 1.0712-1.883918 1.582031-3.236328.099478-.263366.219525-.740298.320313-1.03125.000576-.001664.001376-.004193.001953-.005859.213802-.617902.447907-1.424451.675781-2.1875.004059-.013591.007679-.025646.011719-.039063.306255-1.036699.57807-1.908769.896484-3.076172 1.002564-3.675698 1.678182-5.940098 2.208984-7.394531.17318-.474524.304176-.875511.289063-.890625zm-.601563 1.070313c-.000573.003614-.14302.426507-.316406.939453-.341475 1.010216-1.074752 3.411188-1.261719 4.132813-.111526.430452-.132659.447266-.529297.447266-.469763 0-.389062-.22387-.689453 1.947266-.342088 2.472504-1.509463 6.465288-2.416016 8.263672-.421235.83563-1.094942 1.721419-1.808594 2.447266-.036002.036617-.055523.087348-.091797.123047l-.595702.587888h-.134766-3.171875-3.304688l5.291016-6.619141c2.909988-3.641218 5.421437-6.827641 5.582031-7.080078s.394511-.587821.519531-.746094.20097-.314655.169922-.345703-.329458.27409-.664063.675781c-.334604.401691-.692692.75061-.794922.777344-.194869.050959-1.48208 1.584436-7.470703 8.892578l-3.630858 4.431641-1.125.007813c-.618989.004005-1.148994-.028842-1.175781-.072266-.127764-.207112-.314354-2.329583-.3125-3.552734.00134-.884084.077169-1.507412.246094-2.058594.095675-.312176.324153-.607477.498047-.886719.163416-.262416.252356-.529517.5-.808594.613336-.691184 1.224537-1.085222 3.632813-2.34375 2.691297-1.406431 6.049717-3.30727 6.351563-3.59375.125191-.118817.652744-.496692 1.173828-.839844 1.363138-.897673 2.869493-2.134167 4.291016-3.523438.681287-.66583 1.238854-1.206739 1.238281-1.203125z" fill="#dbdbdb"/><path d="m47.123047 24.857422c-.016147-.015467-.455478.450087-.976563 1.035156-.482437.541676-1.093882 1.047854-1.650391 1.572266.553611-.519777 1.242916-1.030014 1.648438-1.486328.462164-.520051.854027-.933083.869141-.917969s-.115883.416101-.289063.890625c-.530802 1.454433-1.20642 3.718834-2.208984 7.394531-.322468 1.182262-.599698 2.072147-.908203 3.115234.215941-.723089.404123-1.192405.642578-2.072265.993015-3.664059 1.991318-7.049935 2.455078-8.326172l.277344-.765625c.018661-.064607.095616-.286033.099609-.308594.001689-.009541.042224-.129702.041016-.130859zm-.607422 1.115234c0-.036552-.579809.503678-1.289063 1.201172-1.430662 1.406942-2.745762 2.506182-4.392578 3.595703s-3.626857 2.169098-6.390625 3.537109c-2.594131 1.284045-3.775464 2.037246-4.603516 2.931641-.574563.620597-.968228 1.239356-1.21875 1.958984s-.356881 1.538515-.353516 2.558594c.004464 1.353037.06625 1.825856.519531 3.880859.291382 1.321015.293241 1.854895.001953.695313-.011361-.045226-.018216-.085982-.029297-.130859.029639.170298.016126.266112.080078.507813l.341797 1.289063 1.535156-.0625c.223051-.009339.39062-.061777.605469-.076172.277965-.018624.517444-.072169.783203-.099609.31956-.03494.564198-.120448.863281-.164063.692172-.100937 1.376384-.207443 1.998047-.378906.457743-.128862.88935-.300043 1.314453-.476563.632238-.243429 1.202131-.548278 1.742188-.884766.297071-.192764.612319-.365619.884766-.589844.662215-.54768 1.249646-1.216383 1.794922-1.984375.38343-.542228.661317-1.401739.996094-2.072266.024755-.050831.055215-.06322.080078-.115234.017172-.035924.037728-.128081.054688-.164063.634295-1.345722 1.229336-3.296007 2.037109-6.138672-.011051.065926-.087938.123047-.195313.123047-.140921 0-.231656.093432-.277344.289063-.55999 2.397816-1.305691 4.77056-1.96875 6.259766-.469988 1.055575-1.23465 2.039328-2.111328 2.908203-.173481.171937-.348346.300593-.533203.460938-.772314.669902-1.630247 1.217472-2.533203 1.621094-.522279.203242-.974765.364307-1.482422.507813-.465892.134084-.966809.22376-1.449219.337891-.345873.081828-.663347.201446-1.039063.242188-.286604.031078-.326304-.002619-.605469.015625-.77803.050846-1.6875.108108-1.6875.041016 0-.030132 1.008462-1.297761 2.242188-2.816406 4.462032-5.492507 9.415734-11.772351 11.314453-14.341797.316758-.428653-.890906.888211-2.125 2.316406-.700413.810575-1.484764 1.686724-1.744141 1.947266-.478657.480807-2.835379 3.312272-7.6875 9.236328-2.366474 2.889278-2.694423 3.24967-2.771484 3.046875-.188298-.495527-.501056-2.137436-.650391-3.414063-.100751-.861292-.106343-1.535632-.099609-2.201172.002758-.272623-.002021-.576871.021484-.822266.049886-.520807.177612-.963652.332031-1.384766.136202-.371435.353475-.720387.582031-1.037109.616585-.854433 1.49209-1.589602 2.919922-2.333984 1.238449-.64565 1.529297-.837058 1.34375-.880859-.181347-.04281.143348-.23644 1.384766-.826172 4.425501-2.10232 7.439907-4.120759 10.144531-6.792969.638582-.630929 1.145792-1.095616 1.181641-1.085938.00239.000645.001906.002845 0 .007813-.404568 1.054288-2.296115 7.579243-2.416016 8.306641.118685-.421684.155549-.385119.289063-.871094.909346-3.309912 1.644849-5.81458 2.050781-6.990234.118079-.341979.214844-.650948.214844-.6875zm-17.755859 20.228516c-.005479-.031483-.005885-.054892-.015625-.09375-.244443-.975173-.291244-1.676523-.375-2.355469-.044165-.358012-.153645-.793522-.230469-1.226563.074738 1.076521.279174 2.290957.621094 3.675781zm-.621094-3.675781c-.014918-.214878-.032844-.433017-.037109-.636719-.008616-.41142.024202-.783045.072265-1.138672-.060241.314817-.082236.588293-.080078 1.009766.001168.228105.001533.521051.044922.765625zm.035156-1.775391c.029432-.153811.060068-.306315.083984-.466797.005038-.033803.009696-.069868.013672-.105469-.039921.183641-.071108.375834-.097656.572266zm.097656-.572266c.077362-.355876.171004-.695082.283203-1.019531-.060221.150716-.165026.284406-.208984.441406-.04279.168289-.052428.383011-.074219.578125z" fill="#cbcbcb"/><path d="m47.147036 24.849344c0-.021514-.371568.374899-.825708.881015-2.139338 2.384186-3.345611 3.467759-6.13675 5.257816-1.553734.996465-3.640074 2.056889-5.198637 2.820797-1.624461.796207-3.276721 1.687451-3.807795 2.042681-1.61862 1.082677-2.780579 3.058895-2.910579 4.014087-.015625.114803-.254595 2.700324-.014081 4.052209.177696.998794.686135 3.244054.894521 3.79215l.110204.289901 1.496595-.068672c5.861369-.269582 9.083396-2.179928 11.248622-6.668782.852357-1.76707 1.448508-3.70038 3.937943-12.772357.135451-.49361.462178-1.506056.725989-2.249724.263812-.743669.479675-1.369606.479675-1.39112zm-.7704 1.35884c.002029.001134.001989.004275 0 .009458-.253047.65943-1.271643 4.092885-2.022737 6.818256-1.167204 4.235244-2.115322 7.178474-2.368358 7.352417-.042112.028949-.218694.384234-.392499.789521-.435148 1.014697-.733046 1.50958-1.479119 2.456768-1.654828 2.100913-4.049545 3.377877-7.234811 3.857963-.576844.086942-1.494448.158385-2.03898.158727-.934057.000585-.980806-.009803-.828997-.183605 1.655589-1.895432 12.918293-16.103145 13.334891-16.821738.323478-.55797-7.308908 8.412695-11.405293 13.405208-1.439227 1.754074-2.652656 3.151526-2.696503 3.10545-.114099-.119898-.491602-1.936053-.677056-3.257187-.201438-1.434999-.203889-3.48749-.00514-4.234219.263804-.991149.689122-1.713927 1.470689-2.499328.997089-1.00198 1.621963-1.388863 4.928546-3.05076 1.548303-.778181 3.277354-1.68166 3.842337-2.007728 2.449293-1.413559 4.569377-3.017634 6.47428-4.898527.596427-.58891 1.068314-1.01769 1.09875-1.000677z" fill="#bec0c0"/><g fill="#868482"><path d="m47.146484 24.835938c.000012-.013981-.370079.388415-.824219.894531-.609969.67978-1.330501 1.270017-2.007813 1.898438-.627881.582558-1.222982 1.182374-1.896484 1.710938-.194141.152975-.347961.34334-.537109.484375-.312533.233034-1.394254.957991-1.733447 1.187429-.649815.438516-.805097.495442-1.475537.873117-.332477.187292-1.04059.60649-2.12737 1.160298-.331524.170327-.93412.478919-1.296458.660014-.355413.177634-.471813.246905-.816406.421875-2.286963 1.170382-3.484135 1.880006-4.261719 2.615234-.093729.086146-.229018.154276-.316406.242188-.286847.288564-.424286.593097-.634766.892578-.207334.29831-.466037.584906-.603516.916016-.087011.209561-.162354.430355-.228516.658203-.001574.005477-.004298.010137-.005859.015625-.015221.053486-.023076.11341-.037109.167969-.004753.018478-.009056.038037-.013672.056641-.039379.157682-.079934.316773-.109375.486328-.00153.008816-.004357.016548-.005859.025391-.008569.050446-.009936.106878-.017578.158203-.002651.017807-.005274.036774-.007813.054688-.026118.184489-.051821.3732-.066406.574219-.000383.005438-.00158.010177-.001953.015625-.001922.028021-.000282.059619-.001953.087889-.013278.214535-.025391.429987-.025391.666016 0 .039807.007397.081687.007813.123047.000073.007235.001868.014206.001953.021484.008422.720205.171239 1.913295.254256 2.394806.078758.456809.166688.815994.368791 1.628632.026476.106459.036396.145459.0625.248047.118918.467344.194744.780948.28125 1.132813.001225.012612-.002411.014667 0 .029297.009341.056684.033212.135282.0625.21875.001036.002953.00089.00483.001953.007813.004572.012826.004684.019836.009766.033203.016667.058711.063079.280057.072266.294922.001117.001808.039088-.001724.041016 0 .065941.058971.567151.074751 1.402344.03125.442834-.023065.68731-.145553 1.09375-.183594 1.225085-.114663 2.347543-.282983 3.296875-.552734.487863-.141239.956274-.315398 1.408203-.511719 1.001199-.429291 1.92291-.931656 2.720703-1.646484.067477-.060459.163906-.075982.230469-.138672.133081-.125337.197396-.332004.320313-.458984.514047-.531045.929885-1.249899 1.341797-1.917969.282135-.457589.635491-.723499.917969-1.314453.186475-.390111.44681-1.451027.617188-1.875.40686-1.012444.89488-2.47961 1.470703-4.478516.2145-.744612.275878-.679971.548828-1.667969.35144-1.27211.508525-1.843389.751953-2.724609.166505-.602756.47283-1.708346.515625-1.863281.070837-.256459.293851-.910514.486328-1.486328.093807-.280632.140755-.451197.236328-.724609.291675-.834415.529285-1.528988.529297-1.542969zm-.632813 1.099609-.019531.056641-.246094.722656c-.469256 1.373854-1.171887 3.750544-2.044922 6.923828-.83896 3.049427-1.488537 5.042943-2.148438 6.626953-.040736.097781-.092026.306502-.132813.400391-.420942.968979-.804732 1.784193-1.299912 2.427144-.193436.241983-.093585.166611-.290922.400607-.144187.169624-.601098.656751-.75682.820686-.018514.01949-.045792.02951-.064453.048828-.381238.39466-.842285.837973-1.287745 1.162204-.60732.442041-1.239486.777019-1.977866 1.094274-.536481.230506-1.123344.422782-1.735157.590634-.282061.077384-.538248.121604-.837123.186091-.434237.093695-1.474803.19681-2.3125.228516-.080048.00303-.000437-.010496-.072266-.007812-1.288041.048121-1.440608.052728-1.294921-.148438.08502-.117397 1.268874-1.580568 2.632812-3.251953 3.772105-4.622383 10.987544-13.806031 10.285156-13.091797-.389082.395644-5.045129 5.846941-7.193359 8.421875-2.328287 2.790756-3.814232 4.629436-4.966797 6.150391-.874653 1.154214-1.435321 1.721337-1.537109 1.55664-.028953-.046847-.229585-.934838-.447266-1.974609-.352722-1.684804-.397377-2.063463-.402344-3.470703-.005702-1.615627.061117-2.224663.531387-3.191256.025651-.052724.089169-.113098.117051-.168119.031907-.062965.063931-.176443.105722-.244794.589469-.964099.352754-.719308 1.728674-1.854031.240912-.198682.244465-.131559.483963-.293753.25741-.174325 1.424382-.774532 2.355469-1.267578.588278-.311516.832682-.470565 1.488281-.800781 5.014696-2.525829 7.15019-3.955762 9.839844-6.585938l.654297-.640625z"/><path d="m47.104065 24.966333-1.846945 1.850646c-2.990751 2.996466-4.96954 4.343433-10.271178 6.991992-1.622534.810575-3.304196 1.710081-3.737067 1.998887-1.624658 1.08395-2.675818 2.423082-3.00676 4.0134-.334369 1.606781-.180955 3.092709.160166 4.988376.152661.848366.636945 2.557887.797334 3.026498.055141.161108.716464.167964 2.367536.024673 1.578991-.137036 2.758907-.36005 3.996335-.755391 2.391103-.763924 4.075663-2.053726 5.464145-4.183846 1.140975-1.750411 2.004362-4.036077 3.223262-8.533615.993015-3.664059 1.991157-7.049306 2.454918-8.325543zm-.588646 1.012808c0 .026744-.21208.680924-.471246 1.453624-.463229 1.381114-.820377 2.612083-2.216622 7.639441-1.219315 4.390299-2.164816 6.667476-3.49651 8.42156-1.598227 2.105158-4.002805 3.458882-7.089449 3.9914-1.057439.182433-3.274926.329109-3.37582.223286-.038265-.040134.674432-.981153 1.583771-2.091203s2.327795-2.859054 3.151917-3.886747c1.404549-1.751496 1.48008-1.868518 1.20587-1.8673-.250268.001111-.511731.267065-1.80932 1.840571-1.891604 2.293832-3.682252 4.617945-4.136968 5.369362-.347521.574276-.504553.708081-.504553.429713 0-.082022-.041029-.164922-.091083-.184222-.102977-.039705-.698365-2.704182-.854698-3.824861-.174538-1.251177-.13103-2.872009.101363-3.780656.272696-1.06623.649971-1.739164 1.422989-2.537982.888761-.918424 1.905564-1.545775 5.131477-3.166104 5.317846-2.671075 7.211743-3.939176 10.106695-6.767267.738202-.721153 1.342186-1.289361 1.342186-1.262617z"/><path d="m47.012777 25.060295c-.015114-.015114-.405487.397973-.867651.918024-1.049041 1.180435-2.763246 2.726189-4.264854 3.845832-1.635085 1.219168-3.550264 2.339529-6.63239 3.879963-1.474356.736877-2.998506 1.524685-3.386923 1.750722-1.541166.896876-2.736937 2.09984-3.232514 3.251841-.75495 1.754928-.704064 4.187312.159755 7.626077.291288 1.159582.290971.624016-.000411-.696999-.453281-2.055004-.516332-2.525897-.520796-3.878935-.006731-2.040157.42416-3.277994 1.573286-4.519187.828052-.894395 2.009765-1.646642 4.603896-2.930687 5.527535-2.736023 7.920371-4.319153 10.781694-7.133037.709253-.697494 1.289551-1.238311 1.289551-1.201758 0 .036552-.096572.346385-.214651.688364-.405932 1.175654-1.140531 3.680641-2.049877 6.990553-1.140887 4.152694-1.692627 5.814352-2.471366 7.4435-.785238 1.642744-1.51101 2.687709-2.528319 3.640228-2.073818 1.941741-5.229422 3.018474-8.855591 3.021564l-1.01363.000822-.138372-.333902c-.166861-.402839-.256965-.242613-.098279.174764l.111849.293603 1.707545-.05798c2.576534-.087573 4.476899-.521788 6.227555-1.423194 2.712487-1.39665 4.440281-3.754694 5.839579-7.969642.28832-.868473.955792-3.161134 1.483231-5.09488 1.002564-3.675698 1.679652-5.940955 2.210454-7.395388.17318-.474524.302343-.875154.287229-.890267z"/></g></g></svg>