<svg xmlns="http://www.w3.org/2000/svg" viewBox="0 0 47.99999913727135 48.00000115230691"><g transform="matrix(.07999 0 0 .07996 4 4)"><path d="m57.42 0c-2.039 0-4.061.112-6.06.328-1.976.185-3.822.488-5.646.902-3.913.832-7.701 2.077-11.307 3.693-.673.302-1.338.618-1.998.945-.042.021-.085.038-.127.059-.549.256-1.081.516-1.576.779-.638.339-1.297.737-1.967 1.16-.098.058-.197.117-.295.176-.122.074-.246.144-.367.219-7.955 4.862-14.681 11.69-19.402 20-.235.404-.458.817-.686 1.229-.261.473-.522.946-.771 1.428-.498.915-.967 1.848-1.41 2.799-1.397 2.58-2.458 4.415-3.264 8.193l-2.01 5.588-.02 16.85c-.182 8.993-.297 22.565-.367 44.02 0 .036 0 .093 0 .129-.171 34.381-.114 86.32-.113 166.23 0 .376 0 .608 0 .984 0 .894 0 1.457 0 2.357v195.32l-.031 26.777h.004v.063l1.223-.229c0 0 .002.002.002.002.001 0 .05-.008.051-.008.001 0 .001.004.002.004.012 0 .257-.039.281-.041.038.025.076.045.115.045 1.357 0 224.63-37.4 318.44-53.35 9.951-1.691 16.84-2.944 22.04-4.254 1.897-.407 3.251-.73 3.873-.934.315-.103.669-.241 1.053-.404.022-.008.085-.022.104-.029.64-.243 1.275-.514 1.906-.799 4.23-1.692 7.154-3.798 10.561-6.998 1.052-.941 2.072-1.953 3.07-3.01 6.707-6.82 12.599-17.191 15.666-27.449.091-.261.195-.516.283-.777.121-.357.23-.74.336-1.168l1.521-4.332.02-12.971c.161-6.385.265-16.14.336-29.797.008-1.505.02-2.402.027-4.02 0-.076.002-.113.002-.189 0-.004 0-.01 0-.014.019-4.434.028-10.606.041-15.953.016-4.03.025-9.01.035-13.531.001-.37.001-.588.002-.961.001-.414-.001-1.267 0-1.686 0-.247 0-.564 0-.813.046-24.05.038-53.938.037-94.21v-.441-.059-1.318c0-.504 0-.921 0-1.424v-145.15l.037-21.52h-.004v-.26-.02l-.033-.008v-.121l-2.25-.52c-1.989-.46-106.04-17.56-262.01-43.06-10.347-1.692-19.473-3.133-27.465-4.352-1.527-.248-5.815-.951-7.06-1.152-8.402-1.36-14.777-2.21-19.994-2.598-.035-.004-.237-.035-.264-.037-.278-.024-.556-.039-.834-.059-.677-.065-1.384-.137-1.914-.176-.117-.011-.164-.01-.268-.02-.189-.013-.393-.028-.561-.037-.147-.008-.387-.031-.484-.031-.096 0-.191.005-.287.006-.012 0-.058-.006-.068-.006-.03 0-.062.002-.092.002-.019 0-.05-.002-.068-.002" fill="#80c342"/><g fill="#fff"><path d="m147.53 93.56c3.282-.006 5.961.011 8.273.064 2.032.16 4.047.345 6.01.586 20.743 3.116 37.08 11.481 49.33 25.291 15.984 18.02 25.788 47.39 28.768 85.31.15 3.034.276 6.267.377 9.656.29 11.978.287 26.13-.018 38-1.655 30.891-6.411 55.13-14.504 73.61-1.042 2.317-2.127 4.583-3.287 6.768-2.074 3.906-4.268 7.477-6.602 10.754-6.614 8.885-17.436 18.14-26.49 22.525-.904.437-1.643.79-2.373 1.145l-3.271 1.525-1.889.699.027.168-.666.311.029.113-.008.004.426 1.619c-.211 1.734.832 4.288 2.629 9.17.842 2.288 1.812 4.27 2.92 6 .03.047.062.092.092.139.299.459.609.899.93 1.32.119.158.239.316.361.469.228.282.464.552.703.816.136.152.263.319.402.465.005.006.009.01.014.016.179.228.354.433.521.611.904.962 1.958 1.736 3.252 2.357 1.588.922 3.372 1.593 5.346 2.068.014.003.029.006.043.01.561.134 1.139.253 1.734.354.093.016.189.03.283.045.525.083 1.058.159 1.609.217.261.028.532.047.799.07.419.035.835.074 1.27.096.777.041 1.574.066 2.402.066h1.242l3.811.287v2.973l-.219 12.137-.23 12.688c-.016.048-.028.102-.045.148-.324.894-.828 1.503-1.615 1.936-.021.011-.043.022-.064.033-.065.035-.138.065-.207.098l-.863.143c-1.788.293-6.77.988-11.07 1.545-1.382.179-2.717.32-4.03.441-1.707.136-3.369.244-4.959.299-.166.004-.332.009-.498.012-.611.018-1.21.026-1.805.031-.844.005-1.659-.005-2.475-.016-.397-.008-.806-.007-1.195-.021-.406-.015-.793-.045-1.191-.066-7.656-.511-14.255-2.405-20.662-5.82-10.676-5.69-19.229-19.517-24.49-39.594l-1.912-7.299-.514-2.453-.141-.043-.018-.064-7.266-2.256c-4.119-1.279-8.02-2.928-11.725-4.932-9.345-5.185-17.562-12.837-24.393-22.682-.014-.02-.027-.039-.041-.059-.162-.234-.32-.476-.48-.713-9.895-14.946-16.804-35.21-20.783-60.889-1.223-8.243-2.146-16.916-2.762-25.791-.916-17.83-.654-45.22.643-60.58.182-1.9.38-3.78.594-5.643 5.447-43.912 19.672-73.1 42.32-87.13.839-.52 1.693-1.01 2.555-1.488.399-.22.797-.443 1.201-.654.364-.191.732-.376 1.1-.561.746-.372 1.497-.738 2.26-1.082.004-.002.008-.004.012-.006.248-.112.502-.215.752-.324.59-.257 1.187-.504 1.787-.744.534-.213 1.071-.42 1.613-.619 4.874-1.697 10.18-2.87 15.73-3.521 2.675-.113 5.961-.151 10.598-.16"/><path d="m280.05 110.34c2.182.167 6.498.596 11.539 1.162 5.751.646 10.05 1.109 12.03 1.305l1.693.219c.086.111.17.707.246 1.678l.242 21.914v.008l.232 21.1v.002 3.01.002.021.014l3.25.553c1.788.304 8.09.858 14 1.23l8.799.555 1.951.143v14.768.09c-.001 13.441-.151 14.668-1.75 14.352-.962-.19-7.262-.576-14-.857l-11.43-.477-.82-.059v.023.027.563.002.006.014.021.148.053.061.066l-.111-.006.111 22.631v35.619 2.521.256c0 23.633-.005 38.838.236 48.916.127 6.294.316 10.186.604 12.529.022.262.046.425.068.576.119 1.388.247 2.46.396 2.898.155.454.338.866.535 1.26.898 2.639 2.233 3.243 4.221 4.271.175.09.366.168.557.248 1.876 1.025 3.053 1.298 5.852.965.356-.03.741-.071 1.154-.127 3.553-.216 7.703-1.134 11.877-2.719 2.75-1.044 5.349-1.898 5.777-1.898.411 0 .626 5.52.508 12.383l-.008.387-.221 10.967-.041 1.914c-.061.268-.125.52-.201.715l-2.215.953-4.928 1.879c-4.03 1.537-11.752 3.697-17.16 4.799-2.296.468-4.468.824-6.58 1.121-.541.064-1.082.128-1.619.182-.798.065-1.596.122-2.383.172-.827.052-1.641.095-2.432.127-1.554.063-3.01.098-4.375.102-4.677-.081-8.789-.582-11.479-1.545-.918-.329-1.79-.691-2.639-1.07-2.452-1.098-4.635-2.415-6.572-3.996-2.954-2.545-5.403-5.811-7.416-9.838-2.638-5.278-4.01-8.595-4.721-19.301-.317-7.361-.475-22.453-.658-45.678l-.119-15.771-.002-.336c0-1.241-.004-2.128-.004-3.414v-1.307c.001-13.591.013-24.01-.008-32.479l-.008-31.965h-3.275c-1.156-.377-2.709 0-4.807 0h-2.627l-2-.227c-.07-.083-.139-.169-.201-.264l-.088-4.717v-10.668-.209-.023-.016-.006-.016-.453c0-9.08.151-13.462.594-15.12l8.322.475 8.555.488.377.029.473-1.779.445-1.613c.514-1.861 3.097-12.608 5.742-23.883 2.385-10.165 4.219-17.827 4.658-19.508.058-.214.079-.274.123-.428.243-.293.565-.512 1.012-.662.206-.026.455-.043.717-.059"/></g><path d="m156.1 129.02c-10.203.049-18.08 6.231-23.459 18.283-1.398 3-2.603 6.428-3.639 10.395-.003.013-.006.025-.01.037-.95 3.504-1.762 7.321-2.434 11.451-1.557 9.576-2.596 25.688-3.055 43.19-.031 1.041-.068 2.023-.096 3.092-.256 9.83-.275 19.249-.09 28.21.195 13.294.749 25.669 1.709 34.813 1.777 16.932 4.532 29.948 8.428 39.5.323.828.648 1.635.984 2.396.4.905.875 1.824 1.398 2.742 2.418 4.58 5.201 8.111 8.379 10.666.121.101.245.196.367.295.049.038.096.078.145.115 1.491 1.185 3.062 2.173 4.719 2.951.89.418 1.732.735 2.582.98 1.702.597 3.184.765 5.279.674 2.26.028 4.566-.307 6.838-.998.005-.001.009-.003.014-.004.324-.091.639-.2.957-.303 8.901-2.887 15.39-10.721 19.842-24.2.559-1.628 1.065-3.31 1.51-5.04.041-.161.08-.346.121-.51 1.931-7.349 3.386-16.07 4.404-26.26 2.769-27.733 2.239-84.51-.984-105.5-.755-4.915-1.665-9.442-2.732-13.582-.001-.005-.003-.009-.004-.014-1.902-8.284-4.399-14.387-7.758-19.344-5.846-9.413-13.639-14.09-23.416-14.04" fill="#80c342"/></g><g transform="matrix(1.14868 0 0 1.14868-7.227-7.136)"><path d="m47.21 24.729c-.016-.016-.471.538-1.026 1.163-.541.608-.962 1.078-1.602 1.669-.649.599-1.063 1.01-1.795 1.56-1.752 1.313-1.978 1.447-2.636 1.891 0 0-.171.107-.247.154-.03.019-.382.229-.382.229-.318.196-.524.308-.847.49-.463.261-2.065 1.138-3.629 1.923-3.041 1.526-4.045 2.124-4.93 2.97-.001.001-.003.001-.004.002-.108.108-.274.202-.373.313l-.002.002c-.55.579-1.064 1.524-1.215 1.844v.002c-.014.155-.027.31-.068.439-.111.351-.131.788-.186 1.189-.101 1.01-.063 2.382.115 3.584.083.512.183 1.043.301 1.594 0 .002.002.004.002.006.031.148.04.274.08.432.095.377.079.634.195 1.035l.227.779 1.639-.063c.901-.034 2.089-.139 2.639-.234.435-.076 1.078-.338 1.719-.523.034-.01.059-.018.09-.027.175-.052.319-.096.51-.156.358-.122.618-.338.949-.482h.002c.677-.295 1.382-.559 1.939-.986.142-.109.238-.296.373-.414l.002-.002c.334-.289.619-.671.92-1.016l.002-.002c.347-.397.747-.691 1.059-1.17.202-.309.371-.791.559-1.145.001-.001.001-.003.002-.004.218-.409.441-.833.65-1.326v-.002c.12-.282.251-.442.371-.76.511-1.352 1.031-3.048 1.641-5.297.074-.272.112-.369.182-.619 0-.002.001-.002.002-.004.188-.679.324-1.097.49-1.664.003-.009.005-.017.008-.025.364-1.241.756-2.618 1.072-3.637l.006-.02.238-.77c.134-.434.413-1.263.617-1.842.204-.578.358-1.064.342-1.08" fill="#eaeaeb"/><path d="m47.1 24.967l-1.846 1.85c-.435.435-.733.789-1.138 1.164-.44.401-.974.851-1.336 1.14-.276.22-.627.498-.903.704-.65.486-1.195.852-1.928 1.309-.731.456-1.54.875-2.474 1.374-.856.457-1.907 1.047-3.03 1.598-.52.255-.595.311-1.03.541-1.026.543-1.952 1.068-2.588 1.545-.403.307-.75.636-1.063.98-.391.419-.688.894-.93 1.383-.131.264-.317.446-.422.746-.046.132-.098.317-.131.424-.025.083-.019.251-.037.33-.094.405-.16.655-.156 1.705.003.709.204 1.413.275 2 .08.666.133 1.397.354 2.262.073.287.024.416.117.752l.33 1.189h1.066c.425 0 .831-.077 1.25-.105.052-.004.103-.01.154-.014 1.535-.138 2.709-.354 3.924-.742 1.196-.382 2.214-.896 3.107-1.58.894-.684 1.661-1.538 2.355-2.604.57-.875 1.071-1.884 1.582-3.236.511-1.352 1.031-3.048 1.641-5.297.993-3.664 1.991-7.05 2.455-8.326zm-.746 1.225l-.379 1.178-.379 1.176-.533.031-.531.033-2.717 3.283c-1.495 1.806-3.257 3.936-3.916 4.732l-1.197 1.447h-3.623c-1.98 0-3.58-.04-3.6-.09 0 0-.021 0-.021 0 0-.004.043-.036.045-.041.053-.166.887-.937 1.43-1.307.261-.178 1.232-.705 2.158-1.174 5.092-2.575 11.703-6.677 11.05-6.857-.177-.049-.018-.245 1-1.234zm-2.523 4.346c.062-.007.048.188 0 .799-.145 1.847-.543 4.169-1.016 5.92l-.221.816h-2.416c-1.905 0-2.399-.027-2.336-.131.127-.209 5.624-7.06 5.852-7.291.064-.065.109-.11.137-.113" fill="#e3e3e3"/><path d="m47.01 25.06c-.015-.015-.407.398-.869.918-1.049 1.18-2.762 2.726-4.264 3.846-.336.251-1.366.941-1.733 1.187-.201.128-.836.508-1.04.632-.474.287-1.371.783-2.451 1.344-.545.287-.773.399-1.409.717-1.474.737-2.998 1.524-3.387 1.75-.632.368-1.155.808-1.646 1.254l-.002.002c-.159.147-.339.287-.479.441-.33.352-.554.715-.768 1.078-.001.001-.001.003-.002.004-.16.281-.291.581-.404.891-.175.498-.228 1.111-.285 1.717-.012.212.022.454.021.697v.004c0 .202.012.363.02.578.019.542-.014.93.047 1.459v.002c.038.326-.021.619.029.898.07.384.138.768.234 1.184.091.393.108.697.223 1.119l.322 1.184h.863c.401 0 .792-.084 1.191-.109.233-.015.463-.039.695-.063.398-.04.692-.142 1.053-.199h.002c.68-.107 1.373-.205 1.986-.377h.002c.461-.13.895-.303 1.322-.48.628-.244 1.2-.545 1.734-.883.298-.193.614-.365.887-.59.001-.001.001-.003.002-.004.66-.547 1.247-1.213 1.791-1.979l.002-.002c.099-.139.229-.213.324-.359.57-.875 1.071-1.884 1.582-3.236.099-.263.22-.74.32-1.031.001-.002.001-.004.002-.006.214-.618.448-1.424.676-2.188.004-.014.008-.026.012-.039.306-1.037.578-1.909.896-3.076 1-3.676 1.678-5.94 2.209-7.395.173-.475.304-.876.289-.891m-.602 1.07c-.001.004-.143.427-.316.939-.341 1.01-1.075 3.411-1.262 4.133-.112.43-.133.447-.529.447-.47 0-.389-.224-.689 1.947-.342 2.473-1.509 6.465-2.416 8.264-.421.836-1.095 1.721-1.809 2.447-.036.037-.056.087-.092.123l-.596.588h-.135-3.172-3.305l5.291-6.619c2.91-3.641 5.421-6.828 5.582-7.08.161-.252.395-.588.52-.746.125-.158.201-.315.17-.346-.031-.031-.329.274-.664.676-.335.402-.693.751-.795.777-.195.051-1.482 1.584-7.471 8.893l-3.631 4.432-1.125.008c-.619.004-1.149-.029-1.176-.072-.128-.207-.314-2.33-.313-3.553.001-.884.077-1.507.246-2.059.096-.312.324-.607.498-.887.163-.262.252-.53.5-.809.613-.691 1.225-1.085 3.633-2.344 2.691-1.406 6.05-3.307 6.352-3.594.125-.119.653-.497 1.174-.84 1.363-.898 2.869-2.134 4.291-3.523.681-.666 1.239-1.207 1.238-1.203" fill="#dbdbdb"/><path d="m47.12 24.857c-.016-.015-.455.45-.977 1.035-.482.542-1.094 1.048-1.65 1.572.554-.52 1.243-1.03 1.648-1.486.462-.52.854-.933.869-.918.015.015-.116.416-.289.891-.531 1.454-1.206 3.719-2.209 7.395-.322 1.182-.6 2.072-.908 3.115.216-.723.404-1.192.643-2.072.993-3.664 1.991-7.05 2.455-8.326l.277-.766c.019-.065.096-.286.1-.309.002-.01.042-.13.041-.131m-.607 1.115c0-.037-.58.504-1.289 1.201-1.431 1.407-2.746 2.506-4.393 3.596-1.647 1.09-3.627 2.169-6.391 3.537-2.594 1.284-3.775 2.037-4.604 2.932-.575.621-.968 1.239-1.219 1.959-.251.72-.357 1.539-.354 2.559.004 1.353.066 1.826.52 3.881.291 1.321.293 1.855.002.695-.011-.045-.018-.086-.029-.131.03.17.016.266.08.508l.342 1.289 1.535-.063c.223-.009.391-.062.605-.076.278-.019.517-.072.783-.1.32-.035.564-.12.863-.164.692-.101 1.376-.207 1.998-.379.458-.129.889-.3 1.314-.477.632-.243 1.202-.548 1.742-.885.297-.193.612-.366.885-.59.662-.548 1.25-1.216 1.795-1.984.383-.542.661-1.402.996-2.072.025-.051.055-.063.08-.115.017-.036.038-.128.055-.164.634-1.346 1.229-3.296 2.037-6.139-.011.066-.088.123-.195.123-.141 0-.232.093-.277.289-.56 2.398-1.306 4.771-1.969 6.26-.47 1.056-1.235 2.039-2.111 2.908-.173.172-.348.301-.533.461-.772.67-1.63 1.217-2.533 1.621-.522.203-.975.364-1.482.508-.466.134-.967.224-1.449.338-.346.082-.663.201-1.039.242-.287.031-.326-.003-.605.016-.778.051-1.688.108-1.688.041 0-.03 1.01-1.298 2.242-2.816 4.462-5.493 9.416-11.772 11.314-14.342.317-.429-.891.888-2.125 2.316-.7.811-1.485 1.687-1.744 1.947-.479.481-2.835 3.312-7.688 9.236-2.366 2.889-2.694 3.25-2.771 3.047-.188-.496-.501-2.137-.65-3.414-.101-.861-.106-1.536-.1-2.201.003-.273-.002-.577.021-.822.05-.521.178-.964.332-1.385.136-.371.353-.72.582-1.037.617-.854 1.492-1.59 2.92-2.334 1.238-.646 1.529-.837 1.344-.881-.181-.043.143-.236 1.385-.826 4.426-2.102 7.44-4.121 10.145-6.793.639-.631 1.146-1.096 1.182-1.086.002.001.002.003 0 .008-.405 1.054-2.296 7.579-2.416 8.307.119-.422.156-.385.289-.871.909-3.31 1.645-5.815 2.051-6.99.118-.342.215-.651.215-.688m-17.756 20.229c-.005-.031-.006-.055-.016-.094-.244-.975-.291-1.677-.375-2.355-.044-.358-.154-.794-.23-1.227.075 1.077.279 2.291.621 3.676m-.621-3.676c-.015-.215-.033-.433-.037-.637-.009-.411.024-.783.072-1.139-.06.315-.082.588-.08 1.01.001.228.002.521.045.766m.035-1.775c.029-.154.06-.306.084-.467.005-.034.01-.07.014-.105-.04.184-.071.376-.098.572m.098-.572c.077-.356.171-.695.283-1.02-.06.151-.165.284-.209.441-.043.168-.052.383-.074.578z" fill="#cbcbcb"/><path d="m47.15 24.849c0-.022-.372.375-.826.881-2.139 2.384-3.346 3.468-6.137 5.258-1.554.996-3.64 2.057-5.199 2.821-1.624.796-3.277 1.687-3.808 2.043-1.619 1.083-2.781 3.059-2.911 4.01-.016.115-.255 2.7-.014 4.052.178.999.686 3.244.895 3.792l.11.29 1.497-.069c5.861-.27 9.08-2.18 11.249-6.669.852-1.767 1.449-3.7 3.938-12.772.135-.494.462-1.506.726-2.25.264-.744.48-1.37.48-1.391m-.77 1.359c.002.001.002.004 0 .009-.253.659-1.272 4.093-2.023 6.818-1.167 4.235-2.115 7.178-2.368 7.352-.042.029-.219.384-.392.79-.435 1.015-.733 1.51-1.479 2.457-1.655 2.101-4.05 3.378-7.235 3.858-.577.087-1.494.158-2.039.159-.934.001-.981-.01-.829-.184 1.656-1.895 12.918-16.1 13.335-16.822.323-.558-7.309 8.413-11.405 13.405-1.439 1.754-2.653 3.152-2.697 3.105-.114-.12-.492-1.936-.677-3.257-.201-1.435-.204-3.487-.005-4.234.264-.991.689-1.714 1.471-2.499.997-1 1.622-1.389 4.929-3.051 1.548-.778 3.277-1.682 3.842-2.01 2.449-1.414 4.569-3.02 6.474-4.899.596-.589 1.068-1.018 1.099-1" fill="#bec0c0"/><g fill="#868482"><path d="m47.15 24.836c0-.014-.37.388-.824.895-.61.68-1.331 1.27-2.01 1.898-.628.583-1.223 1.182-1.896 1.711-.194.153-.348.343-.537.484-.313.233-1.394.958-1.733 1.187-.65.439-.805.495-1.476.873-.332.187-1.041.606-2.127 1.16-.332.17-.934.479-1.296.66-.355.178-.472.247-.816.422-2.287 1.17-3.484 1.88-4.262 2.615-.094.086-.229.154-.316.242-.287.289-.424.593-.635.893-.207.298-.466.585-.604.916-.087.21-.162.43-.229.658-.002.005-.004.01-.006.016-.015.053-.023.113-.037.168-.005.018-.009.038-.014.057-.039.158-.08.317-.109.486-.002.009-.004.017-.006.025-.009.05-.01.107-.018.158-.003.018-.005.037-.008.055-.026.184-.052.373-.066.574 0 .005-.002.01-.002.016-.002.028 0 .06-.002.088-.013.215-.025.43-.025.666 0 .04.007.082.008.123 0 .007.002.014.002.021.008.72.171 1.913.254 2.395.079.457.167.816.369 1.629.026.106.036.145.063.248.119.467.195.781.281 1.133.001.013-.002.015 0 .029.009.057.033.135.063.219.001.003.001.005.002.008.005.013.005.02.01.033.017.059.063.28.072.295.001.002.039-.002.041 0 .066.059.567.075 1.402.031.443-.023.687-.146 1.094-.184 1.225-.115 2.348-.283 3.297-.553.488-.141.956-.315 1.408-.512 1-.429 1.923-.932 2.721-1.646.067-.06.164-.076.23-.139.133-.125.197-.332.32-.459.514-.531.93-1.25 1.342-1.918.282-.458.635-.723.918-1.314.186-.39.447-1.451.617-1.875.407-1.012.895-2.48 1.471-4.479.214-.745.276-.68.549-1.668.351-1.272.509-1.843.752-2.725.167-.603.473-1.708.516-1.863.071-.256.294-.911.486-1.486.094-.281.141-.451.236-.725.292-.834.529-1.529.529-1.543m-.633 1.1l-.02.057-.246.723c-.469 1.374-1.172 3.751-2.045 6.924-.839 3.049-1.489 5.04-2.148 6.627-.041.098-.092.307-.133.4-.421.969-.805 1.784-1.3 2.427-.193.242-.094.167-.291.401-.144.17-.601.657-.757.821-.019.019-.046.03-.064.049-.381.395-.842.838-1.288 1.162-.607.442-1.239.777-1.978 1.094-.536.231-1.123.423-1.735.591-.282.077-.538.122-.837.186-.434.094-1.475.197-2.313.229-.08.003 0-.01-.072-.008-1.288.048-1.441.053-1.295-.148.085-.117 1.269-1.581 2.633-3.252 3.772-4.622 10.988-13.806 10.285-13.09-.389.396-5.05 5.847-7.193 8.422-2.328 2.791-3.814 4.629-4.967 6.15-.875 1.154-1.435 1.721-1.537 1.557-.029-.047-.23-.935-.447-1.975-.353-1.685-.397-2.063-.402-3.471-.006-1.616.061-2.225.531-3.191.026-.053.089-.113.117-.168.032-.063.064-.176.106-.245.589-.964.353-.719 1.729-1.854.241-.199.244-.132.484-.294.257-.174 1.424-.775 2.355-1.268.588-.312.833-.471 1.488-.801 5.01-2.526 7.15-3.956 9.84-6.586l.654-.641z"/><path d="m47.1 24.966l-1.847 1.851c-2.991 2.996-4.97 4.343-10.271 6.992-1.623.811-3.304 1.71-3.737 1.999-1.625 1.084-2.676 2.423-3.01 4.01-.334 1.607-.181 3.093.16 4.988.153.848.637 2.558.797 3.03.055.161.716.168 2.368.025 1.579-.137 2.759-.36 3.996-.755 2.391-.764 4.076-2.054 5.464-4.184 1.141-1.75 2-4.04 3.223-8.534.993-3.664 1.991-7.05 2.455-8.326zm-.589 1.013c0 .027-.212.681-.471 1.454-.463 1.381-.82 2.612-2.217 7.639-1.219 4.39-2.165 6.667-3.497 8.422-1.598 2.105-4 3.459-7.089 3.991-1.057.182-3.275.329-3.376.223-.038-.04.674-.981 1.584-2.091.909-1.11 2.328-2.859 3.152-3.887 1.405-1.751 1.48-1.869 1.206-1.867-.25.001-.512.267-1.809 1.841-1.892 2.294-3.682 4.618-4.137 5.369-.348.574-.505.708-.505.43 0-.082-.041-.165-.091-.184-.103-.04-.698-2.704-.855-3.825-.175-1.251-.131-2.872.101-3.781.273-1.066.65-1.739 1.423-2.538.889-.918 1.906-1.546 5.131-3.166 5.318-2.671 7.212-3.939 10.11-6.767.738-.721 1.342-1.289 1.342-1.263"/><path d="m47.01 25.06c-.015-.015-.405.398-.868.918-1.049 1.18-2.763 2.726-4.265 3.846-1.635 1.219-3.55 2.34-6.632 3.88-1.474.737-2.999 1.525-3.387 1.751-1.541.897-2.737 2.1-3.233 3.252-.755 1.755-.704 4.187.16 7.626.291 1.16.291.624 0-.697-.453-2.055-.516-2.526-.521-3.879-.007-2.04.424-3.278 1.573-4.519.828-.894 2.01-1.647 4.604-2.931 5.528-2.736 7.92-4.319 10.782-7.133.709-.697 1.29-1.238 1.29-1.202 0 .037-.097.346-.215.688-.406 1.176-1.141 3.681-2.05 6.991-1.141 4.153-1.693 5.814-2.471 7.443-.785 1.643-1.511 2.688-2.528 3.64-2.074 1.942-5.229 3.02-8.856 3.02h-1.014l-.138-.334c-.167-.403-.257-.243-.098.175l.112.294 1.708-.058c2.577-.088 4.477-.522 6.228-1.423 2.712-1.397 4.44-3.755 5.84-7.97.288-.868.956-3.161 1.483-5.095 1-3.676 1.68-5.941 2.21-7.395.173-.475.302-.875.287-.89"/></g></g></svg>