<?xml version="1.0" encoding="UTF-8" standalone="no"?>
<svg
   xmlns:dc="http://purl.org/dc/elements/1.1/"
   xmlns:cc="http://creativecommons.org/ns#"
   xmlns:rdf="http://www.w3.org/1999/02/22-rdf-syntax-ns#"
   xmlns:svg="http://www.w3.org/2000/svg"
   xmlns="http://www.w3.org/2000/svg"
   xmlns:sodipodi="http://sodipodi.sourceforge.net/DTD/sodipodi-0.dtd"
   xmlns:inkscape="http://www.inkscape.org/namespaces/inkscape"
   width="48"
   height="48"
   viewBox="0 0 36 40"
   id="svg2"
   version="1.1"
   inkscape:version="0.91 r13725"
   sodipodi:docname="x-office-calendar.svg"
   style="fill:#2196F3">
  <metadata
     id="metadata10">
    <rdf:RDF>
      <cc:Work
         rdf:about="">
        <dc:format>image/svg+xml</dc:format>
        <dc:type
           rdf:resource="http://purl.org/dc/dcmitype/StillImage" />
        <dc:title></dc:title>
      </cc:Work>
    </rdf:RDF>
  </metadata>
  <defs
     id="defs8" />
  <sodipodi:namedview
     pagecolor="#ffffff"
     bordercolor="#666666"
     borderopacity="1"
     objecttolerance="10"
     gridtolerance="10"
     guidetolerance="10"
     inkscape:pageopacity="0"
     inkscape:pageshadow="2"
     inkscape:window-width="668"
     inkscape:window-height="480"
     id="namedview6"
     showgrid="false"
     fit-margin-top="0"
     fit-margin-left="0"
     fit-margin-right="0"
     fit-margin-bottom="0"
     inkscape:zoom="3.084285696414625"
     inkscape:cx="-30.86330603930437"
     inkscape:cy="3.350031340082328"
     inkscape:window-x="0"
     inkscape:window-y="30"
     inkscape:window-maximized="0"
     inkscape:current-layer="svg2" />
  <path
     d="m 29.66666620307501,6.666667196485717 -1.6666666004393,0 0,-3.333333200878573 -3.33333320087857,0 0,3.333333200878573 -13.33333280351428,0 0,-3.333333200878573 -3.333333200878572,0 0,3.333333200878573 -1.666666600439287,0 c -1.84166659348541,0 -3.31666653487418,1.49166660739316 -3.31666653487418,3.333333200878574 L 3.000000596046431,33.3333328035143 c 0,1.84166659348543 1.491666607393161,3.33333320087858 3.333333200878572,3.33333320087858 l 23.333332406150006,0 c 1.84166659348542,0 3.33333320087858,-1.49166660739315 3.33333320087858,-3.33333320087858 l 0,-23.33333240615001 c 0,-1.841666593485417 -1.49166660739316,-3.333333200878575 -3.33333320087858,-3.333333200878575 z m 0,26.666665607028583 -23.333332406150013,0 0,-18.33333260483214 23.333332406150013,0 0,18.33333260483214 z M 9.666666997803568,18.33333339956072 l 8.333333002196431,0 0,8.33333300219644 -8.333333002196431,0 z"
     id="path4"
     inkscape:connector-curvature="0" />
</svg>
