<?xml version="1.0" encoding="UTF-8" standalone="no"?>
<!-- Created with Inkscape (http://www.inkscape.org/) -->

<svg
   xmlns:dc="http://purl.org/dc/elements/1.1/"
   xmlns:cc="http://creativecommons.org/ns#"
   xmlns:rdf="http://www.w3.org/1999/02/22-rdf-syntax-ns#"
   xmlns:svg="http://www.w3.org/2000/svg"
   xmlns="http://www.w3.org/2000/svg"
   xmlns:sodipodi="http://sodipodi.sourceforge.net/DTD/sodipodi-0.dtd"
   xmlns:inkscape="http://www.inkscape.org/namespaces/inkscape"
   version="1.1"
   width="48"
   height="24"
   id="svg1325"
   inkscape:version="0.91 r13725"
   sodipodi:docname="xfce4-panel.svg">
  <metadata
     id="metadata32">
    <rdf:RDF>
      <cc:Work
         rdf:about="">
        <dc:format>image/svg+xml</dc:format>
        <dc:type
           rdf:resource="http://purl.org/dc/dcmitype/StillImage" />
        <dc:title>Xfce Panel</dc:title>
      </cc:Work>
    </rdf:RDF>
  </metadata>
  <sodipodi:namedview
     pagecolor="#ffffff"
     bordercolor="#666666"
     borderopacity="1"
     objecttolerance="10"
     gridtolerance="10"
     guidetolerance="10"
     inkscape:pageopacity="0"
     inkscape:pageshadow="2"
     inkscape:window-width="1366"
     inkscape:window-height="713"
     id="namedview30"
     showgrid="false"
     inkscape:zoom="6.570469316561428"
     inkscape:cx="10.59612321603606"
     inkscape:cy="4.429079205615768"
     inkscape:window-x="0"
     inkscape:window-y="30"
     inkscape:window-maximized="1"
     inkscape:current-layer="svg1325"
     fit-margin-top="0"
     fit-margin-left="0"
     fit-margin-right="0"
     fit-margin-bottom="0"
     inkscape:snap-bbox="true"
     inkscape:bbox-nodes="true"
     inkscape:snap-page="true" />
  <title
     id="title3450">Xfce Panel</title>
  <defs
     id="defs1327" />
  <g
     id="g4141"
     transform="matrix(0.75,0,0,0.75,6,3)">
    <path
       id="path4225"
       d="M 48,2 48,0 0,0 0,24 48,24 48,22 46,22 2,22 2,2 46,2 48,2 Z"
       style="opacity:1;fill:#2196F3;fill-opacity:1;fill-rule:nonzero;stroke:none;stroke-width:4;stroke-miterlimit:4;stroke-dasharray:none;stroke-opacity:1"
       inkscape:connector-curvature="0" />
    <path
       inkscape:connector-curvature="0"
       style="fill:#2196F3;fill-opacity:1;fill-rule:evenodd;stroke:#2196F3;stroke-width:0.2028944969pt;stroke-linecap:butt;stroke-linejoin:miter;stroke-opacity:1"
       id="path14"
       d="m 8.140659631143869,2.936824971916763 c 0.10915723562,-0.0182605041 2.83098681897,1.418435379589995 4.660486435299991,1.914918196619992 3.26234050471,0.833693459409999 6.24022293444001,3.342889617240008 7.67955644650001,4.7842520742 0.10672250174,0.123359849919987 1.23623612757,-0.845664234319981 2.41829942631,-0.775868529760013 1.61463435142,0.09779514418 6.61070827317999,1.502636592940018 7.27823114528,0.545989072589979 0.40477450755,-0.561611948319959 0.37576059547998,-1.250641636359973 0.88076498109001,-1.532867871949988 0.27187861659999,-0.07608543375 -1.01061745469,-2.421748632639971 0.35242772913002,-3.17326982359999 0.9718646071,-0.485729409060001 1.79541334200999,2.233665440410029 2.04497356471001,2.538412964390018 0.11179486399002,0.136345097280015 0.70485545826002,0.169619793640013 0.63465396472,-0.141011670549998 -0.07608543375,-0.337413536870015 -1.03537058247003,-2.946839572760025 0.14101167054996,-3.384685882180014 1.91065741233,-0.756593553209999 1.57202650851999,3.338831727440016 1.62173565857001,3.455293164699989 0.10570802929004,0.247937066780006 6.65433058853003,0.43906367636 7.05139510546001,3.384685882180033 0.22967656268001,1.6211269751 -5.24644572242002,3.71641837333001 -5.78208717602003,4.08974423492999 -0.53543855911001,0.37332586159999 -0.49080177130998,0.97044434567002 -0.2820233411,1.33991521195999 0.24002418166999,0.40071661775002 1.83538355653999,1.75321128809002 1.62193855306002,2.39740129384 -0.14669271627003,0.37210849465999 -3.12416935702,-0.99174826712001 -3.31428149414998,-0.70505835275002 -0.43358552512997,0.54761222851002 2.16752183666999,1.91836740295 1.26930792943999,2.89104358801001 -0.35607982994997,0.23292287452002 -4.45292537203001,-1.71527001846002 -4.44257775304,-1.69234294109001 -0.10996881358,0.04179626494 -5.78898558868001,1.03739952737 -10.15405764654,-0.28222623558998 -0.15379402342001,-0.04341942086 -2.80156711792,2.55768794094001 -3.10266254108,2.46821147085 -0.41167292021,-0.15095350056 0.60685741959,-2.26227356349999 0.49364229417001,-2.67962752942998 -0.18503977488003,-0.23251708554003 -1.87697692699004,0.94406806196998 -1.97436628219004,0.35263062362001 -0.11646143726,-0.77728879119002 1.48478187782003,-1.67083612515003 1.41031959999002,-2.18598523526005 -0.41289028714999,-2.92655012375997 0.18443109141,-4.63553041302997 1.19870064691999,-6.06411051711996 C 20.18427366305386,9.95636564244676 15.8709397001439,6.699097499986748 12.74819060455389,5.413558011346758 9.625644403453881,4.128018522706756 7.955011172793885,3.038475111406755 8.140659631143885,2.936824971916776 Z" />
    <path
       inkscape:connector-curvature="0"
       style="fill:#ffffff;fill-opacity:1;fill-rule:evenodd;stroke:#ffffff;stroke-width:0.1217366934pt;stroke-linecap:butt;stroke-linejoin:miter;stroke-opacity:1"
       id="path7"
       d="m 36.20347537404026,12.72189869894276 c -0.03428916881,-0.11970774909998 2.13100082846999,-1.42939168204999 2.44447281552001,-1.12829625888999 0.56424957669001,0.20451764592 -2.42458915550001,1.28026423189998 -2.44447281552001,1.12829625888999 z" />
    <path
       inkscape:connector-curvature="0"
       style="fill:#ffffff;fill-opacity:1;fill-rule:evenodd;stroke:#ffffff;stroke-width:0.1217366934pt;stroke-linecap:butt;stroke-linejoin:miter;stroke-opacity:1"
       id="path8"
       d="m 37.23762858957028,13.91288935524277 c -0.19072082059999,-0.11524407032001 1.29629289661001,-1.84918038186 1.66109718963,-1.66109718963 0.53259803624999,0.52914882992 -1.68605321189999,1.70228477109999 -1.66109718963,1.66109718963 z" />
    <path
       inkscape:connector-curvature="0"
       style="fill:#2196F3;fill-opacity:1;fill-rule:evenodd;stroke:#2196F3;stroke-width:0.1217366934pt;stroke-linecap:butt;stroke-linejoin:miter;stroke-opacity:1"
       id="path13"
       d="m 43.09823593322029,5.889832537172758 c -0.18077899059,-0.149533239130012 -1.59840279222,2.087175618629999 -1.28493080517,2.319286915189992 0.18848898121,0.141011670549995 1.36568281219001,-2.239549380619993 1.28493080517,-2.319286915189991 z" />
    <ellipse
       style="fill:#ffffff;fill-opacity:1;fill-rule:evenodd;stroke:#ffffff;stroke-width:0.1131584287pt;stroke-linecap:butt;stroke-linejoin:miter;stroke-opacity:1"
       id="ellipse17"
       ry="0.6438236832618713"
       rx="0.5654746294021606"
       cy="9.091187477111816"
       cx="36.68653869628906" />
    <path
       inkscape:connector-curvature="0"
       style="fill:#2196F3;fill-opacity:1;fill-rule:evenodd;stroke:#2196F3;stroke-width:0.1217366934pt;stroke-linecap:butt;stroke-linejoin:miter;stroke-opacity:1"
       id="path18"
       d="m 41.46856710009128,5.576435621084057 c -0.08947647009,-0.103881978879989 -0.56424957669001,2.306504562320001 -0.34471773851,2.41322706406001 0.18848898120998,0.141011670549988 0.51677226603001,-2.287838269240013 0.34471773851,-2.413227064060014 z" />
    <path
       inkscape:connector-curvature="0"
       style="fill:#ffffff;fill-opacity:1;fill-rule:evenodd;stroke:#ffffff;stroke-width:0.1217366934pt;stroke-linecap:butt;stroke-linejoin:miter;stroke-opacity:1"
       id="path21"
       d="m 35.41727951473925,8.838498160342762 c -0.56222063179,0.397470305910012 0.30860251929001,2.646758622050008 1.74083472420001,1.333422588280007 -1.12525284153998,0.03307180187 -1.50060764803998,-0.296428849890003 -1.74083472420001,-1.333422588280007 z" />
  </g>
</svg>
