<?xml version="1.0" encoding="UTF-8" standalone="no"?>
<svg
   xmlns:dc="http://purl.org/dc/elements/1.1/"
   xmlns:cc="http://creativecommons.org/ns#"
   xmlns:rdf="http://www.w3.org/1999/02/22-rdf-syntax-ns#"
   xmlns:svg="http://www.w3.org/2000/svg"
   xmlns="http://www.w3.org/2000/svg"
   xmlns:sodipodi="http://sodipodi.sourceforge.net/DTD/sodipodi-0.dtd"
   xmlns:inkscape="http://www.inkscape.org/namespaces/inkscape"
   width="40"
   height="40"
   viewBox="0 0 40 40"
   id="svg2"
   version="1.1"
   inkscape:version="0.91 r13725"
   sodipodi:docname="folder-templates.svg"
   style="fill:#4caf50">
  <metadata
     id="metadata10">
    <rdf:RDF>
      <cc:Work
         rdf:about="">
        <dc:format>image/svg+xml</dc:format>
        <dc:type
           rdf:resource="http://purl.org/dc/dcmitype/StillImage" />
        <dc:title />
      </cc:Work>
    </rdf:RDF>
  </metadata>
  <defs
     id="defs8" />
  <sodipodi:namedview
     pagecolor="#ffffff"
     bordercolor="#666666"
     borderopacity="1"
     objecttolerance="10"
     gridtolerance="10"
     guidetolerance="10"
     inkscape:pageopacity="0"
     inkscape:pageshadow="2"
     inkscape:window-width="1366"
     inkscape:window-height="713"
     id="namedview6"
     showgrid="false"
     inkscape:snap-intersection-paths="false"
     inkscape:zoom="6.179518388275631"
     inkscape:cx="-2.767396875247904"
     inkscape:cy="28.76339126425072"
     inkscape:window-x="0"
     inkscape:window-y="30"
     inkscape:window-maximized="1"
     inkscape:current-layer="svg2"
     fit-margin-top="0"
     fit-margin-left="0"
     fit-margin-right="0"
     fit-margin-bottom="0" />
  <path
     id="path4"
     d="m 0,8 0,28 c 0,2.21 1.79,4 4,4 L 32,40 32,36 4,36 4,8 0,8 Z M 12,0 C 9.789999999999999,0 8,1.79 8,4 l 0,24 c 0,2.21 1.789999999999999,4 4,4 l 24,0 c 2.21,0 4,-1.79 4,-4 L 40,4 C 40,1.79 38.21,0 36,0 L 12,0 Z m 10.80078125,4 2.3984375,0 7.6015625,17.599609375 -3.361328125,0 L 28,18.078125 l -8,0 -1.439453125,3.521484375 -3.361328125,0 L 22.80078125,4 Z M 24,7.16796875 l -2.9921875,8.033203125 5.984375,0 L 24,7.16796875 Z m -11.201171875,17.6328125 22.40234375,0 0,3.19921875 -22.40234375,0 0,-3.19921875 z" />
</svg>
