<?xml version="1.0" encoding="UTF-8" standalone="no"?>
<svg
   xmlns:dc="http://purl.org/dc/elements/1.1/"
   xmlns:cc="http://creativecommons.org/ns#"
   xmlns:rdf="http://www.w3.org/1999/02/22-rdf-syntax-ns#"
   xmlns:svg="http://www.w3.org/2000/svg"
   xmlns="http://www.w3.org/2000/svg"
   xmlns:sodipodi="http://sodipodi.sourceforge.net/DTD/sodipodi-0.dtd"
   xmlns:inkscape="http://www.inkscape.org/namespaces/inkscape"
   fill="#9C27B0"
   width="48"
   height="48"
   viewBox="0 0 48 48"
   id="svg2"
   version="1.1"
   inkscape:version="0.91 r13725"
   sodipodi:docname="template1.svg">
  <metadata
     id="metadata10">
    <rdf:RDF>
      <cc:Work
         rdf:about="">
        <dc:format>image/svg+xml</dc:format>
        <dc:type
           rdf:resource="http://purl.org/dc/dcmitype/StillImage" />
        <dc:title></dc:title>
      </cc:Work>
    </rdf:RDF>
  </metadata>
  <defs
     id="defs8" />
  <sodipodi:namedview
     pagecolor="#ffffff"
     bordercolor="#666666"
     borderopacity="1"
     objecttolerance="10"
     gridtolerance="10"
     guidetolerance="10"
     inkscape:pageopacity="0"
     inkscape:pageshadow="2"
     inkscape:window-width="1366"
     inkscape:window-height="713"
     id="namedview6"
     showgrid="false"
     inkscape:zoom="3.4766083"
     inkscape:cx="-30.390966"
     inkscape:cy="41.92415"
     inkscape:window-x="0"
     inkscape:window-y="30"
     inkscape:window-maximized="1"
     inkscape:current-layer="svg2" />
  <path
     d="M 8,8 22,8 22,4 8,4 C 5.79,4 4,5.79 4,8 L 4,22 8,22 8,8 Z"
     id="path4254" />
  <path
     d="m 40,4 -14,0 0,4 14,0 0,14 4,0 0,-14 C 44,5.79 42.21,4 40,4 Z"
     id="path4248" />
  <path
     d="m 40,40 -14,0 0,4 14,0 c 2.21,0 4,-1.79 4,-4 l 0,-14 -4,0 0,14 z"
     id="path4246" />
  <path
     d="m 8,26 -4,0 0,14 c 0,2.21 1.79,4 4,4 l 14,0 0,-4 -14,0 0,-14 z"
     id="path4" />
  <g
     fill="#ffffff"
     style="fill:#9C27B0"
     id="g4154"
     transform="matrix(0.83333333,0,0,0.83333333,4.0000001,4.8333334)">
    <path
       id="path4146"
       d="m 10,34 0,4 28,0 0,-4 -28,0 z m 9,-8.4 10,0 1.8,4.4 4.2,0 -9.5,-22 -3,0 -9.5,22 4.2,0 1.8,-4.4 z M 24,11.96 27.74,22 20.26,22 24,11.96 Z"
       inkscape:connector-curvature="0" />
  </g>
</svg>
