<?xml version="1.0" encoding="UTF-8" standalone="no"?>
<svg
   xmlns:dc="http://purl.org/dc/elements/1.1/"
   xmlns:cc="http://creativecommons.org/ns#"
   xmlns:rdf="http://www.w3.org/1999/02/22-rdf-syntax-ns#"
   xmlns:svg="http://www.w3.org/2000/svg"
   xmlns="http://www.w3.org/2000/svg"
   xmlns:sodipodi="http://sodipodi.sourceforge.net/DTD/sodipodi-0.dtd"
   xmlns:inkscape="http://www.inkscape.org/namespaces/inkscape"
   width="48"
   height="48"
   preserveAspectRatio="xMidYMid"
   id="svg2"
   version="1.1"
   inkscape:version="0.91 r13725"
   sodipodi:docname="atom.svg">
  <metadata
     id="metadata26">
    <rdf:RDF>
      <cc:Work
         rdf:about="">
        <dc:format>image/svg+xml</dc:format>
        <dc:type
           rdf:resource="http://purl.org/dc/dcmitype/StillImage" />
        <dc:title></dc:title>
      </cc:Work>
    </rdf:RDF>
  </metadata>
  <sodipodi:namedview
     pagecolor="#ffffff"
     bordercolor="#666666"
     borderopacity="1"
     objecttolerance="10"
     gridtolerance="10"
     guidetolerance="10"
     inkscape:pageopacity="0"
     inkscape:pageshadow="2"
     inkscape:window-width="1366"
     inkscape:window-height="713"
     id="namedview24"
     showgrid="false"
     inkscape:zoom="1.461453995070342"
     inkscape:cx="9.03132986621813"
     inkscape:cy="20.61346147432174"
     inkscape:window-x="0"
     inkscape:window-y="31"
     inkscape:window-maximized="1"
     inkscape:current-layer="svg2"
     inkscape:snap-bbox="true"
     inkscape:bbox-nodes="true"
     inkscape:bbox-paths="false"
     inkscape:snap-page="true"
     inkscape:snap-bbox-edge-midpoints="true" />
  <defs
     id="defs4" />
  <g
     transform="matrix(0.1710717592465701,0,0,0.1710717592465701,2.150717310548128,2.102814816439036)"
     id="g4244">
    <circle
       style="fill:#42a674;fill-opacity:1"
       id="circle4246"
       r="116.9100036621094"
       cy="128"
       cx="127.7199859619141" />
    <path
       style="fill:#f2f8f6"
       inkscape:connector-curvature="0"
       id="path4248"
       d="m 100.3100118385986,109.9600038134713 c -1.36999999999989,2.12 -2.7,4.25 -3.98000000000008,6.38 -1.39999999999992,-3.86 -2.63999999999987,-7.67 -3.69999999999989,-11.38 3.74000000000002,-0.53 7.69999999999986,-0.95 11.89999999999996,-1.25 -1.43,2.04 -2.8399999999999,4.12 -4.22,6.25 z m 103.14,7.47 c -4.2,-3.96 -10.1000000000001,-7.6 -17.6000000000001,-10.8 -14.8999999999999,-6.36 -34.8999999999999,-10.47999999999999 -56.2999999999999,-11.59999999999998 -2.6,-0.12999999999998 -5.1,-0.22999999999999 -7.5,-0.26999999999998 16.3,-19.50000000000003 32.1,-29.85000000000002 41.2,-30.20000000000003 1.9,-0.07 3.5999999999999,0.29999999999998 4.8,1.14 4.3,2.79999999999998 5.5,11.44999999999999 3.2,23.17 -0.5,2.40000000000002 1,4.60000000000002 3.4,5.10000000000002 2.3,0.5 4.5,-1 5,-3.30000000000001 3.8999999999999,-20.10000000000002 -1.6000000000001,-28.50000000000001 -6.9,-31.9 -2.8,-1.8 -6.1,-2.60000000000001 -9.9000000000001,-2.5 -14.0999999999999,0.60000000000002 -33.8999999999999,15.59999999999999 -52,38.80000000000002 -7.1999999999999,0.29999999999997 -14.09999999999991,0.90000000000001 -20.5,1.90000000000001 -0.69999999999999,-3.20000000000002 -1.2999999999999,-6.40000000000001 -1.69999999999999,-9.50000000000001 -1.59999999999991,-13.30000000000001 0.40000000000009,-22.80000000000001 5.30000000000013,-25.3 0.80000000000001,-0.39999999999997 1.69999999999988,-0.59999999999998 2.69999999999987,-0.7 4.40000000000009,-0.3 10.60000000000008,2.69999999999999 17.50000000000008,8.39999999999995 1.8,1.5 4.5,1.30000000000004 6,-0.59999999999998 1.5,-1.80000000000001 1.2,-4.5 -0.6,-5.99999999999994 -8.9,-7.30000000000001 -16.8,-10.79999999999999 -23.7,-10.29999999999999 -2.10000000000001,0.20000000000001 -4.10000000000001,0.70000000000001 -5.89999999999996,1.59999999999998 -4.60000000000004,2.40000000000002 -7.69999999999999,6.90000000000002 -9.30000000000013,13.39999999999994 -1.39999999999992,5.60000000000002 -1.59999999999991,12.5 -0.59999999999991,20.60000000000005 0.39999999999998,3.20000000000003 0.89999999999998,6.60000000000001 1.69999999999999,10 -5.10000000000008,1.10000000000001 -9.69999999999999,2.39999999999995 -13.90000000000009,3.89999999999995 -18.2999999999999,6.6 -22.59999999999989,15.4000000000001 -22.89999999999989,21.5000000000001 -0.3000000000002,5.9 2.6999999999998,14.6 18.8,22.9 2.09999999999989,1.1 4.69999999999997,0.3000000000001 5.8,-1.8 1,-2.1 0.19999999999997,-4.7 -1.90000000000009,-5.7 -9.19999999999988,-4.8 -14.3999999999999,-10.1999999999999 -14.19999999999988,-14.9 0.30000000000001,-6.5999999999999 11.39999999999984,-13.5999999999999 30.19999999999979,-17.5499999999999 1.80000000000014,6.2999999999999 4,12.83 6.7,19.5 -6.7999999999999,12.6999999999999 -11.7,25.2299999999999 -14.2999999999999,36.3999999999999 -1.80000000000003,7.9499999999999 -2.36000000000004,14.9 -1.60000000000002,20.5399999999999 0.89999999999992,6.6 3.60000000000002,11.4 7.89999999999992,14.2 2.19999999999996,1.4 5.19999999999996,2.5 9.10000000000008,2.5 5.69999999999976,0 13.30000000000008,-2.33 23.33999999999999,-9.5 1.8999999999999,-1.4 2.33,-4.05 1,-5.96 -1.3999999999999,-1.96 -4.07,-2.4 -6,-1 -9.94000000000007,7.04 -18.50000000000013,9.6 -22.83000000000012,6.74 -4.63000000000001,-3.03 -5.59999999999992,-12.63 -2.59999999999992,-25.73 2,-8.63 5.55000000000001,-18.3 10.39999999999992,-28.1999999999999 1.05000000000014,2.3000000000001 2.13999999999996,4.5 3.30000000000014,6.7700000000001 9.69999999999989,19.0999999999999 21.60000000000009,35.6999999999999 33.5,46.8 6,5.56 11.7,9.5 17,11.65 3.2,1.3 6.2400000000001,2 9.04,2 2.6,0 5,-0.6 7.2799999999999,-1.7 4.4000000000001,-2.3 7.5,-6.5 9.1000000000001,-12.6999999999999 1.3999999999999,-5.3000000000001 1.6999999999998,-11.8400000000001 0.93,-19.5 -1.53,-15.13 -7.2400000000001,-33.56 -16.1,-51.9000000000001 -1,-2.14 -3.55,-3.03 -5.6999999999999,-2 -2.1000000000001,1 -3,3.56 -2,5.7 8.3999999999999,17.4700000000001 13.87,34.9 15.3000000000001,49.05 1.3000000000002,12.4000000000001 -0.8000000000001,21.3000000000001 -5.5,23.7 -4.8999999999999,2.5 -13.73,-1.47 -23.5500000000001,-10.6 -11.2,-10.4 -22.44,-26.1999999999999 -31.7,-44.4 -2.1399999999998,-4.2 -4.1000000000001,-8.36 -5.89999999999999,-12.5 2.19999999999989,-3.96 4.60000000000008,-7.9 7.10000000000008,-11.85 2.6000000000001,-4 5.3000000000002,-7.8 7.9,-11.4 l 2.1,0 c 3.7,0 7.6000000000001,0.1 11.7,0.3 20.3999999999999,1.1 39.3999999999999,4.9 53.3999999999999,10.9 12.4,5.3 19.6000000000001,11.7 19.3000000000001,17.3 -0.2299999999998,4.7 -5.95,9.57 -15.7,13.35 -2.1999999999997,0.85 -3.3,3.33 -2.3999999999998,5.5 0.5999999999999,1.7 2.25,2.7 4,2.7 0.5,0 1,-0.1 1.5,-0.3000000000001 16.8999999999998,-6.5200000000001 20.8,-14.9199999999999 21.0999999999999,-20.8199999999999 0.3000000000001,-5.16 -2,-10.1 -6.84,-14.75 z" />
    <path
       style="fill:#f1f8f3"
       inkscape:connector-curvature="0"
       id="path4250"
       d="m 119.0600118385986,128.9900038134713 c 0,5.16 4.17,9.3300000000001 9.32,9.3300000000001 5.1499999999999,0 9.32,-4.17 9.32,-9.3300000000001 0,-5.15 -4.1700000000001,-9.33 -9.32,-9.33 -5.15,0 -9.33,4.18 -9.33,9.33" />
  </g>
</svg>
