<svg xmlns="http://www.w3.org/2000/svg" viewBox="0 0 256 256"><path d="m128 256.00002a128 128 0 1 1 0 -256 128 128 0 0 1 0 256" fill="#00BCD4"/><path d="m176.71 47.17c-8.773 1.332-13.06 55.66-9.138 63 6.709-4.381 16.716-25.324 19.838-32.463-2.435 6.624-5.49 38.03-4.232 38.4 2.65 3.545 38.61-55.741 28.16-59.972-1.502-.608-11.596 17.932-20.01 36.839.096-8.09 6.63-32.524 3.968-39.941-5.326-1.578-15.45 21.63-19.598 32.487-1.297-5.513 5.69-35.68 1.01-38.35m-79.33 5.723c-2.66.063-4.746.87-5.483.866-17.03 2.392-11.928 26.27-4.713 48.646.616 5.729-5.332 3.33-9.21-2.669-13.08-32.01-18.861-30.979-22.508-31.91-3.493-.72-15.635 5.662-15.366 18.612.046 3.72 4.678 21.25 4.713 26.692-15.335 26.338-21.577 52.4-2.357 79.35 19.382 25.682 77.07 26.539 87.38 20.488 3.937-2.765 62.806-31.769 76.37-43.02 20.223-16.725-.525-37.796-5.41-40.735-41.9-27.404-84.73-21.696-85.29-26.04-.296-5.02-.12-18.989-.842-23.95-2.844-23.09-11.438-26.469-17.289-26.331m56.822 85.68c-1.475 8.06-17.657 26.06-22.676 31.28 3.774-4.259 33.34-20.239 34.19-19.19 4.294 1.072-35.12 52.22-43.07 44.22-1.142-1.15 8.73-15.348 24.888-27.774-7.42 3.218-28.97 15.02-36.839 15.438-3.516-4.3 19.1-18.668 23.926-26.932-5.585.938-35.09 14.798-39.36 11.518-2.167-8.604 49.556-23.665 58.938-28.567" fill="#fff" fill-rule="evenodd"/></svg>