<svg xmlns="http://www.w3.org/2000/svg" fill="#00BCD4" viewBox="0 0 48 48"><path d="m25.13 16c0 0 .555 1.988.555 3.6 0 1.545-1.013 2.801-2.561 2.801-1.549 0-2.719-1.253-2.719-2.801l.019-.27c-1.508 1.804-2.419 4.129-2.419 6.668 0 3.315 2.685 6 6 6 3.315 0 6-2.685 6-6 0-4.046-1.946-7.654-4.875-9.998m-1.342 13.748c-1.335 0-2.419-1.054-2.419-2.355 0-1.219.784-2.074 2.111-2.34 1.327-.266 2.7-.904 3.461-1.931.292.968.446 1.988.446 3.03 0 1.984-1.612 3.6-3.6 3.6zm-5.783-23.748v4h-4c-2.21 0-4 1.79-4 4v4h-4v4h4v4h-4v4h4v4c0 2.21 1.79 4 4 4h4v4h4v-4h4v4h4v-4h4c2.21 0 4-1.79 4-4v-4h4v-4h-4v-4h4v-4h-4v-4c0-2.21-1.79-4-4-4h-4v-4h-4v4h-4v-4h-4m-4 8h20v20h-20v-20" fill="#00BCD4"/></svg>