<?xml version="1.0" encoding="UTF-8" standalone="no"?>
<svg
   xmlns:dc="http://purl.org/dc/elements/1.1/"
   xmlns:cc="http://creativecommons.org/ns#"
   xmlns:rdf="http://www.w3.org/1999/02/22-rdf-syntax-ns#"
   xmlns:svg="http://www.w3.org/2000/svg"
   xmlns="http://www.w3.org/2000/svg"
   xmlns:sodipodi="http://sodipodi.sourceforge.net/DTD/sodipodi-0.dtd"
   xmlns:inkscape="http://www.inkscape.org/namespaces/inkscape"
   fill="#2196F3"
   width="48"
   height="48"
   viewBox="0 0 48 48"
   id="svg2"
   version="1.1"
   inkscape:version="0.91 r13725"
   sodipodi:docname="zperm_data_setting.svg">
  <metadata
     id="metadata10">
    <rdf:RDF>
      <cc:Work
         rdf:about="">
        <dc:format>image/svg+xml</dc:format>
        <dc:type
           rdf:resource="http://purl.org/dc/dcmitype/StillImage" />
      </cc:Work>
    </rdf:RDF>
  </metadata>
  <defs
     id="defs8" />
  <sodipodi:namedview
     pagecolor="#ffffff"
     bordercolor="#666666"
     borderopacity="1"
     objecttolerance="10"
     gridtolerance="10"
     guidetolerance="10"
     inkscape:pageopacity="0"
     inkscape:pageshadow="2"
     inkscape:window-width="1366"
     inkscape:window-height="713"
     id="namedview6"
     showgrid="false"
     inkscape:snap-bbox="true"
     inkscape:bbox-nodes="true"
     inkscape:snap-intersection-paths="true"
     inkscape:object-nodes="true"
     inkscape:snap-smooth-nodes="true"
     inkscape:object-paths="true"
     inkscape:snap-nodes="false"
     inkscape:zoom="3.47660834175105"
     inkscape:cx="13.5189530874876"
     inkscape:cy="13.46453922304914"
     inkscape:window-x="0"
     inkscape:window-y="30"
     inkscape:window-maximized="1"
     inkscape:current-layer="svg2" />
  <g
     style="fill:#2196F3"
     id="g4148"
     transform="matrix(1.25,0,0,1.25,-6,-6)">
    <path
       d="M 4 4 L 4 14 L 14 14 L 14 4 L 4 4 z M 19 4 L 19 12.064453125 A 12.70694541931152 13 0 0 1 24 11 A 12.70694541931152 13 0 0 1 29 12.05078125 L 29 4 L 19 4 z M 34 4 L 34 14 L 44 14 L 44 4 L 34 4 z M 4 19 L 4 29 L 12.283203125 29 A 12.70694541931152 13 0 0 1 11.29296875 24 A 12.70694541931152 13 0 0 1 12.275390625 19 L 4 19 z M 35.716796875 19 A 12.70694541931152 13 0 0 1 36.70703125 24 A 12.70694541931152 13 0 0 1 35.724609375 29 L 44 29 L 44 19 L 35.716796875 19 z M 4 34 L 4 44 L 14 44 L 14 34 L 4 34 z M 34 34 L 34 44 L 44 44 L 44 34 L 34 34 z M 29 35.935546875 A 12.70694541931152 13 0 0 1 24 37 A 12.70694541931152 13 0 0 1 19 35.94921875 L 19 44 L 29 44 L 29 35.935546875 z "
       transform="matrix(0.8,0,0,0.8,4.800000000000001,4.800000000000001)"
       id="path4140" />
  </g>
  <path
     d="M 21.998046875 14 C 21.748046875 14 21.5378125 14.17992187499999 21.5078125 14.419921875 L 21.13671875 17.0703125 C 20.52671875 17.3203125 19.96726562500001 17.66078125 19.447265625 18.05078125 L 16.95703125 17.05078125 C 16.72703125 16.96078125 16.46765624999999 17.04953125 16.34765625 17.26953125 L 14.34765625 20.73046875 C 14.21765625 20.95046875 14.276796875 21.21914062499999 14.466796875 21.369140625 L 16.578125 23.01953125 C 16.538125 23.33953125 16.5078125 23.67000000000003 16.5078125 24 C 16.5078125 24.33000000000002 16.538125 24.66046875 16.578125 24.98046875 L 14.466796875 26.630859375 C 14.276796875 26.780859375 14.22765625 27.04953125 14.34765625 27.26953125 L 16.34765625 30.73046875 C 16.47765625 30.95046874999999 16.73703125 31.02921874999999 16.95703125 30.94921875 L 19.447265625 29.94921875 C 19.967265625 30.34921875 20.52671875 30.6796875 21.13671875 30.9296875 L 21.5078125 33.580078125 C 21.5478125 33.82007812500001 21.75804687500001 34 21.998046875 34 L 25.998046875 34 C 26.248046875 34 26.44632812500001 33.82007812500001 26.486328125 33.580078125 L 26.857421875 30.9296875 C 27.467421875 30.6796875 28.026875 30.33921875000001 28.546875 29.94921875 L 31.037109375 30.94921875 C 31.26710937499999 31.03921875 31.526484375 30.95046874999999 31.646484375 30.73046875 L 33.646484375 27.26953125 C 33.77648437499999 27.04953125 33.71734375000002 26.780859375 33.52734375 26.630859375 L 31.427734375 24.98046875 C 31.467734375 24.66046875 31.498046875 24.33999999999999 31.498046875 24 C 31.498046875 23.67000000000001 31.467734375 23.33953125 31.427734375 23.01953125 L 33.537109375 21.369140625 C 33.727109375 21.219140625 33.77625 20.95046875 33.65625 20.73046875 L 31.65625 17.26953125 C 31.53625 17.04953125 31.266875 16.97078125000001 31.046875 17.05078125 L 28.556640625 18.05078125 C 28.036640625 17.65078125 27.4771875 17.3203125 26.8671875 17.0703125 L 26.498046875 14.419921875 C 26.458046875 14.179921875 26.248046875 14 25.998046875 14 L 21.998046875 14 z M 23.998046875 21 C 25.65804687499999 21 26.998046875 22.34000000000001 26.998046875 24 C 26.998046875 25.65999999999999 25.65804687499999 27 23.998046875 27 C 22.338046875 27 20.998046875 25.65999999999999 20.998046875 24 C 20.998046875 22.34000000000001 22.33804687500001 21 23.998046875 21 z "
     id="path4153" />
  <path
     d="m 102.2455516197797,17.16400322345763 c -0.25,0 -0.460234375,0.17992187499999 -0.490234375,0.419921875 l -0.37109375,2.650390625 c -0.61,0.25 -1.169453125,0.59046874999999 -1.689453125,0.98046875 l -2.490234375,-1 c -0.22999999999999,-0.09 -0.48937500000001,-0.00125 -0.609375,0.21875 l -1.99999999999997,3.4609375 c -0.13000000000001,0.21999999999999 -0.070859375,0.488671875 0.119140625,0.638671875 l 2.11132812499997,1.650390625 c -0.04,0.32 -0.0703125,0.65046875 -0.0703125,0.98046875 0,0.33000000000001 0.0303125,0.66046875000001 0.0703125,0.98046875 l -2.11132812499997,1.650390625 c -0.19,0.14999999999999 -0.23914062500002,0.418671875 -0.119140625,0.638671875 l 1.99999999999997,3.4609375 c 0.13000000000001,0.21999999999999 0.389375,0.29874999999996 0.609375,0.21875 l 2.490234375,-1 c 0.52,0.40000000000001 1.079453125,0.73046875000002 1.689453125,0.98046875 l 0.37109375,2.650390625 c 0.04,0.24 0.250234375,0.419921875 0.490234375,0.419921875 l 4,0 c 0.25,0 0.450234375,-0.17992187500001 0.490234375,-0.419921875 l 0.369140625,-2.650390625 c 0.61,-0.25 1.169453125,-0.59046875 1.689453125,-0.98046875 l 2.490234375,1 c 0.23,0.09 0.491328125,0.00125 0.611328125,-0.21875 l 2,-3.4609375 c 0.13,-0.22 0.06890625,-0.488671875 -0.12109375,-0.638671875 l -2.099609375,-1.650390625 c 0.04,-0.32 0.0703125,-0.64046875000002 0.0703125,-0.98046875 0,-0.33 -0.0303125,-0.66046875 -0.0703125,-0.98046875 l 2.109375,-1.650390625 c 0.19,-0.15 0.24109375,-0.41867187500001 0.12109375,-0.638671875 l -2,-3.4609375 c -0.12,-0.22 -0.391328125,-0.29875 -0.611328125,-0.21875 l -2.490234375,1 c -0.52,-0.4 -1.079453125,-0.73046875 -1.689453125,-0.98046875 l -0.369140625,-2.650390625 c -0.04,-0.24000000000001 -0.25,-0.419921875 -0.5,-0.419921875 l -4,0 z"
     id="path4170"
     style="stroke:#000000;stroke-width:6;stroke-miterlimit:4;stroke-dasharray:none;stroke-opacity:1"
     inkscape:connector-curvature="0" />
  <g
     style="fill:#2196F3"
     id="g4197"
     transform="matrix(0.5,0,0,0.5,34.14802256420339,74.91715449911865)">
    <path
       id="path4189"
       d="M 24,34.54 36.36,42 33.09000000000001,27.94 44,18.49 29.62,17.25 24,4 18.38,17.25 4,18.49 14.91,27.94 11.64,42 Z"
       inkscape:connector-curvature="0" />
  </g>
  <path
     style="fill:#2196F3"
     d="m 99.66189730305086,-26.80151139552544 -5,-5 1.41500000000001,-1.415 3.58499999999999,3.58500000000002 7.58500000000004,-7.58500000000002 1.415,1.415 -9.00000000000004,9 z"
     id="path4203" />
</svg>
