<svg xmlns="http://www.w3.org/2000/svg" fill="#1793d1" viewBox="0 0 48 48"><path d="m30 19h-12c-1.11 0-2 .9-2 2v24c0 1.1.89 2 2 2h12c1.11 0 2-.9 2-2v-24c0-1.1-.89-2-2-2m-6 12c-2.21 0-4-1.79-4-4 0-2.21 1.79-4 4-4 2.21 0 4 1.79 4 4 0 2.21-1.79 4-4 4m-9.9-17.9l2.83 2.83c1.81-1.81 4.31-2.93 7.07-2.93 2.76 0 5.26 1.12 7.07 2.93l2.83-2.83c-2.53-2.53-6.03-4.1-9.9-4.1-3.87 0-7.37 1.57-9.9 4.1m9.9-12.1c-6.07 0-11.57 2.46-15.56 6.44l2.83 2.83c3.26-3.26 7.76-5.27 12.73-5.27 4.97 0 9.47 2.01 12.73 5.27l2.83-2.83c-3.99-3.98-9.49-6.44-15.56-6.44"/></svg>