<svg xmlns="http://www.w3.org/2000/svg" fill="#1793D1" viewBox="0 0 48 48"><path d="m20 5l-4 4v4h-8c-2.21 0-3.98 1.79-3.98 4l-.02 22c0 2.21 1.79 4 4 4h32c2.21 0 4-1.79 4-4v-22c0-2.21-1.79-4-4-4h-8v-4l-4-4h-8m0 4h8v4h-8v-4m4 9c5.522 0 10 4.477 10 10 0 5.523-4.478 10-10 10-5.522 0-10-4.477-10-10 0-5.523 4.477-10 10-10m.049 1.385c-3.304 0-5.192 1.353-6.424 2.877.944.259 1.602.475 1.814.545.003-.143.025-1.43.025-1.43l.02-.039.047-.016c.29.042 6.487.958 9.1 2.479.323.189.48.389.68.594.721.745 1.678 3.849 1.779 4.49l-.039.066c-.037.014-.129.077-.248.158-.609.426-2.031 1.422-3.855 1.26-1.641-.146-3.783-1.088-6.365-2.789.114.268.651 1.544.74 1.758l.037.043c.374.193 3.962 2.024 5.742 1.986 1.437-.029 2.97-.73 3.584-1.098l.195-.037c.055.043.046.124.029.201-.038.176-.123.499-.182.648l-.047.125c-.07.186-.139.366-.27.473-.362.329-.939.59-1.844.986-1.399.611-3.667.997-5.773.984-.754-.017-1.484-.101-2.125-.174-1.337-.152-2.421-.275-3.07.229 1.578 1.784 3.884 2.91 6.453 2.91 4.758 0 8.617-3.857 8.617-8.615 0-4.758-3.859-8.615-8.617-8.615m2.275 4.561c-.66.01-1.279.257-1.764.711-.519.481-.819 1.136-.844 1.844-.047 1.458 1.101 2.69 2.561 2.744.71.023 1.381-.228 1.898-.713.516-.482.814-1.135.84-1.842.05-1.461-1.097-2.692-2.559-2.744-.044-.002-.089-.001-.133 0m-.07.781c.061-.004.12-.002.182 0 1.019.036 1.819.889 1.785 1.91-.015.491-.225.951-.586 1.289-.362.335-.831.509-1.326.494-1.019-.038-1.815-.897-1.781-1.916.016-.493.228-.949.586-1.285.315-.295.715-.466 1.141-.492m.486.924c-.454 0-.822.246-.822.549 0 .301.368.549.822.549.453 0 .818-.247.818-.549 0-.303-.366-.549-.818-.549"/></svg>