<?xml version="1.0" encoding="UTF-8" standalone="no"?>
<svg
   xmlns:dc="http://purl.org/dc/elements/1.1/"
   xmlns:cc="http://creativecommons.org/ns#"
   xmlns:rdf="http://www.w3.org/1999/02/22-rdf-syntax-ns#"
   xmlns:svg="http://www.w3.org/2000/svg"
   xmlns="http://www.w3.org/2000/svg"
   xmlns:sodipodi="http://sodipodi.sourceforge.net/DTD/sodipodi-0.dtd"
   xmlns:inkscape="http://www.inkscape.org/namespaces/inkscape"
   fill="#1793d1"
   width="48"
   height="48"
   viewBox="0 0 48 48"
   id="svg2"
   version="1.1"
   inkscape:version="0.91 r13725"
   sodipodi:docname="system-run.svg">
  <metadata
     id="metadata10">
    <rdf:RDF>
      <cc:Work
         rdf:about="">
        <dc:format>image/svg+xml</dc:format>
        <dc:type
           rdf:resource="http://purl.org/dc/dcmitype/StillImage" />
      </cc:Work>
    </rdf:RDF>
  </metadata>
  <defs
     id="defs8" />
  <sodipodi:namedview
     pagecolor="#ffffff"
     bordercolor="#666666"
     borderopacity="1"
     objecttolerance="10"
     gridtolerance="10"
     guidetolerance="10"
     inkscape:pageopacity="0"
     inkscape:pageshadow="2"
     inkscape:window-width="640"
     inkscape:window-height="480"
     id="namedview6"
     showgrid="false"
     inkscape:zoom="6.549153645833334"
     inkscape:cx="23.99999999999999"
     inkscape:cy="24"
     inkscape:window-x="0"
     inkscape:window-y="30"
     inkscape:window-maximized="0"
     inkscape:current-layer="svg2" />
  <path
     d="m 38.85500000000001,25.95 c 0.08,-0.64 0.14,-1.29 0.14,-1.95 0,-0.66 -0.06,-1.31 -0.14,-1.95 l 4.23,-3.31 C 43.46500000000001,18.44 43.575,17.9 43.325,17.46 l -4,-6.93 c -0.25,-0.43 -0.77,-0.609999999999998 -1.21999999999999,-0.43 l -4.97999999999999,2.01 c -1.03,-0.79 -2.16000000000001,-1.46 -3.38000000000001,-1.97 L 28.995,4.84 C 28.905,4.37 28.495,4 27.995,4 l -8,0 c -0.5,0 -0.91,0.37 -0.99,0.84 L 18.255,10.14 c -1.22,0.51 -2.35,1.17 -3.38,1.97 L 9.895000000000001,10.1 C 9.445000000000002,9.929999999999999 8.925,10.1 8.675,10.53 l -4,6.93 c -0.25,0.43 -0.14,0.97 0.24,1.28 l 4.220000000000001,3.31 C 9.055000000000001,22.69 8.995,23.34 8.995,24 c 0,0.66 0.06,1.31 0.140000000000002,1.95 l -4.22,3.31 c -0.38,0.3 -0.49,0.84 -0.24,1.28 L 8.675,37.47 c 0.25,0.43 0.77,0.61 1.220000000000001,0.43 L 14.875,35.89 c 1.03,0.79 2.16,1.46 3.38,1.97 l 0.75,5.3 C 19.085,43.63 19.495,44 19.995,44 l 8,0 c 0.5,0 0.91,-0.37 0.99,-0.84 l 0.75,-5.3 c 1.22,-0.51 2.35,-1.17 3.38,-1.97 l 4.98,2.01 c 0.45,0.17 0.97,0 1.22,-0.43 l 4,-6.93 c 0.25,-0.43 0.14,-0.97 -0.24000000000001,-1.28 l -4.22,-3.31 z M 23.995,31 c -3.87,0 -7,-3.13 -7,-7 0,-3.87 3.13,-7 7,-7 3.87,0 7,3.13 7,7 0,3.87 -3.13,7 -7,7 z"
     id="path4"
     inkscape:connector-curvature="0" />
</svg>
