<svg xmlns="http://www.w3.org/2000/svg" xmlns:xlink="http://www.w3.org/1999/xlink" viewBox="0 0 96 96"><defs><clipPath id="0"><rect width="84" height="84" rx="6" x="6" y="6" fill="#fff"/></clipPath><clipPath id="1"><rect width="84" height="84" rx="6" x="6" y="6" fill="#f00"/></clipPath><filter x="-.192" y="-.192" width="1.384" height="1.384" color-interpolation-filters="sRGB" id="3"><feGaussianBlur stdDeviation="5.28"/></filter><filter x="-.129" y="-.112" width="1.257" height="1.225" color-interpolation-filters="sRGB" id="2"><feGaussianBlur stdDeviation="6.16921"/></filter><linearGradient y1="6" x2="0" y2="63.893" id="9" xlink:href="#7" gradientUnits="userSpaceOnUse"/><linearGradient y1="-90.87" x2="0" y2="-6.761" id="B" xlink:href="#4" gradientUnits="userSpaceOnUse"/><linearGradient x1="6.571" x2="88.9" id="8" gradientUnits="userSpaceOnUse"><stop stop-color="#373795"/><stop offset=".5" stop-color="#7343bc"/><stop offset="1" stop-color="#c83737"/></linearGradient><linearGradient y1="20.221" x2="0" y2="138.66" id="A" xlink:href="#7" gradientUnits="userSpaceOnUse"/><linearGradient x1="-90" x2="-6" id="6" gradientUnits="userSpaceOnUse"><stop/><stop offset="1" stop-opacity="0"/></linearGradient><linearGradient y1="6.132" x2="0" y2="90.24" id="5" xlink:href="#4" gradientUnits="userSpaceOnUse" gradientTransform="matrix(1.02381 0 0 1.0119-1.143-98.07)"/><linearGradient y1="92.54" x2="0" y2="7.02" id="4" gradientUnits="userSpaceOnUse" gradientTransform="matrix(1.0059 0 0 .99417 100 0)"><stop/><stop offset="1" stop-opacity=".588"/></linearGradient><linearGradient id="7"><stop stop-color="#fff"/><stop offset="1" stop-color="#fff" stop-opacity="0"/></linearGradient><radialGradient cx="48" cy="90.17" r="42" id="C" xlink:href="#7" gradientUnits="userSpaceOnUse" gradientTransform="matrix(1.15731 0 0 .99591-7.551.197)"/></defs><g fill="url(#5)"><path d="m12-95.03c-5.511 0-10.03 4.52-10.03 10.03v71c0 5.511 4.52 10.03 10.03 10.03h72c5.511 0 10.03-4.52 10.03-10.03v-71c0-5.511-4.52-10.03-10.03-10.03h-72" transform="scale(1-1)" opacity=".08"/><path d="m12-94.03c-4.972 0-9.03 4.06-9.03 9.03v71c0 4.972 4.06 9.03 9.03 9.03h72c4.972 0 9.03-4.06 9.03-9.03v-71c0-4.972-4.06-9.03-9.03-9.03h-72" transform="scale(1-1)" opacity=".1"/><path d="m12-93c-4.409 0-8 3.591-8 8v71c0 4.409 3.591 8 8 8h72c4.409 0 8-3.591 8-8v-71c0-4.409-3.591-8-8-8h-72" transform="scale(1-1)" opacity=".2"/><rect width="86" height="85" rx="7" x="5" y="-92" transform="scale(1-1)" opacity=".3"/></g><rect width="84" height="84" rx="6" x="6" y="-91" transform="scale(1-1)" opacity=".45" fill="url(#B)"/><rect y="6" x="6" rx="6" height="84" width="84" fill="url(#8)"/><path clip-path="url(#1)" d="m34.844-16.16c-16.61-.066-33.2.599-43.719 1.969-10.02 1.949 1.43 23.06 1.594 33.406-.092 2.167.142 4.38.844 6.438 6.721-7.944 17.426-11.1 27.5-11.563 5.397.705 6.969 7.347 11.938 8.781 5.464.652 9.424-3.897 13.906-6.188 4.047-2.462 9.366-4.767 13.938-2.344 3.587 2.574 5.33 8.194 10.406 8.25 5.578.489 11.188-.039 16.719-.781 7.682-3.667 18.12-28.18 12.438-33.906-4.546-3.855-16.268-.556-21.781-1.75-10.557-1.46-27.17-2.246-43.781-2.313m36.531 89.06c-3.221-.034-6.299 2.153-7.938 5.25-2.91 5.05-9.486 2.795-12.875-.438-3.304-3.965-9.794-3.376-13.188.156-4.451 1.942-8.988-.741-13.156-2.156-5.124-2.328-10.504.589-14.625 3.594-5.591 3.054-10.562 7.124-15.313 11.344-.549 1.016-.501 22.968-1.781 24.938 34.07-7.656 65.3-4.872 101.5-2.813 7.484-3.411 4.31-27.849-4.281-31.875-4.98-1.411-9.534-3.851-13.969-6.469-1.394-1.046-2.911-1.516-4.375-1.531" opacity=".6" filter="url(#2)"/><path d="m12 6c-3.324 0-6 2.676-6 6v2 68 2c0 .335.041.651.094.969.049.296.097.597.188.875.01.03.021.064.031.094.099.288.235.547.375.813.145.274.316.536.5.781.184.246.374.473.594.688.44.428.943.815 1.5 1.094.279.14.573.247.875.344-.256-.1-.487-.236-.719-.375-.007-.004-.024.004-.031 0-.032-.019-.062-.043-.094-.063-.12-.077-.231-.164-.344-.25-.106-.081-.213-.161-.313-.25-.178-.161-.347-.345-.5-.531-.108-.13-.218-.265-.313-.406-.025-.038-.038-.086-.063-.125-.065-.103-.13-.205-.188-.313-.101-.195-.206-.416-.281-.625-.008-.022-.024-.041-.031-.063-.032-.092-.036-.187-.063-.281-.03-.107-.07-.203-.094-.313-.073-.342-.125-.698-.125-1.063v-2-68-2c0-2.782 2.218-5 5-5h2 68 2c2.782 0 5 2.218 5 5v2 68 2c0 .364-.052.721-.125 1.063-.044.207-.088.398-.156.594-.008.022-.023.041-.031.063-.063.174-.138.367-.219.531-.042.083-.079.17-.125.25-.055.097-.127.188-.188.281-.094.141-.205.276-.313.406-.143.174-.303.347-.469.5-.011.01-.02.021-.031.031-.138.126-.285.234-.438.344-.103.073-.204.153-.313.219-.007.004-.024-.004-.031 0-.232.139-.463.275-.719.375.302-.097.596-.204.875-.344.557-.279 1.06-.666 1.5-1.094.22-.214.409-.442.594-.688.184-.246.355-.508.5-.781.14-.265.276-.525.375-.813.01-.031.021-.063.031-.094.09-.278.139-.579.188-.875.052-.318.094-.634.094-.969v-2-68-2c0-3.324-2.676-6-6-6h-72" opacity=".2" fill="url(#9)"/><path d="m12 90c-3.324 0-6-2.676-6-6v-2-68-2c0-.335.041-.651.094-.969.049-.296.097-.597.188-.875.01-.03.021-.064.031-.094.099-.288.235-.547.375-.813.145-.274.316-.536.5-.781.184-.246.374-.473.594-.688.44-.428.943-.815 1.5-1.094.279-.14.573-.247.875-.344-.256.1-.487.236-.719.375-.007.004-.024-.005-.031 0-.032.019-.062.043-.094.063-.12.077-.231.164-.344.25-.106.081-.213.161-.313.25-.178.161-.347.345-.5.531-.108.13-.218.265-.313.406-.025.038-.038.086-.063.125-.065.103-.13.205-.188.313-.101.195-.206.416-.281.625-.008.022-.024.041-.031.063-.032.092-.036.187-.063.281-.03.107-.07.203-.094.313-.073.342-.125.698-.125 1.063v2 68 2c0 2.782 2.218 5 5 5h2 68 2c2.782 0 5-2.218 5-5v-2-68-2c0-.364-.052-.721-.125-1.063-.044-.207-.088-.398-.156-.594-.008-.022-.023-.041-.031-.063-.063-.174-.138-.367-.219-.531-.042-.083-.079-.17-.125-.25-.055-.097-.127-.188-.188-.281-.094-.141-.205-.276-.313-.406-.143-.174-.303-.347-.469-.5-.011-.01-.02-.021-.031-.031-.138-.126-.285-.234-.438-.344-.103-.073-.204-.153-.313-.219-.007-.005-.024.004-.031 0-.232-.139-.463-.275-.719-.375.302.097.596.204.875.344.557.279 1.06.666 1.5 1.094.22.214.409.442.594.688.184.246.355.508.5.781.14.265.276.525.375.813.01.031.021.063.031.094.09.278.139.579.188.875.052.318.094.634.094.969v2 68 2c0 3.324-2.676 6-6 6h-72" opacity=".2" fill="url(#C)"/><rect transform="matrix(0-1 1 0 0 0)" y="6" x="-90" rx="6" height="84" width="84" opacity=".3" fill="url(#6)"/><rect width="66" height="66" rx="12" x="15" y="15" clip-path="url(#0)" opacity=".1" fill="url(#A)" filter="url(#3)" stroke="#fff" stroke-linecap="round" stroke-width=".5"/><g color="#000"><g fill="#fff" fill-opacity=".45"><path d="m15.03 18.875c-.322 0-.528.191-.656.344-.129.153-.239.311-.313.5-.146.378-.244.852-.344 1.469-.199 1.234-.33 2.961-.438 5.03-.216 4.14-.304 9.656-.375 15.16-.071 5.5-.118 10.982-.313 15.09-.097 2.056-.232 3.795-.406 4.969-.07.471-.14.758-.219 1.031-.038-.093-.057-.128-.094-.25-.183-.604-.349-1.513-.469-2.625-.24-2.224-.337-5.22-.438-8.219-.101-2.999-.222-6.01-.406-8.281-.092-1.135-.18-2.082-.344-2.781-.082-.35-.177-.631-.313-.875-.068-.122-.152-.236-.281-.344-.13-.108-.33-.219-.563-.219-.281 0-.509.155-.625.281-.116.126-.191.235-.25.375-.117.279-.176.635-.25 1.063-.148.854-.263 2.024-.344 3.438-.161 2.828-.222 6.596-.313 10.344-.091 3.748-.211 7.492-.469 10.281-.129 1.395-.295 2.539-.5 3.313-.065.245-.152.375-.219.531-.031-.089-.061-.18-.094-.281v1.656c.021.001.041 0 .063 0 .24 0 .441-.104.594-.219.153-.115.285-.23.375-.375.179-.29.292-.66.406-1.094.229-.867.4-2.051.531-3.469.262-2.836.378-6.592.469-10.344.091-3.752.153-7.484.313-10.281.08-1.399.176-2.557.313-3.344.014-.083.016-.113.031-.188.139.613.224 1.505.313 2.594.181 2.23.306 5.249.406 8.25.101 3 .192 6 .438 8.281.123 1.138.286 2.073.5 2.781.107.354.231.658.406.906.175.248.479.5.906.5.334 0 .567-.191.688-.344.12-.153.182-.312.25-.5.135-.376.221-.852.313-1.469.183-1.233.34-2.962.438-5.03.196-4.139.242-9.657.313-15.16.071-5.5.161-10.983.375-15.09.107-2.055.249-3.766.438-4.938.058-.363.091-.564.156-.813.057.21.135.363.188.656.191 1.061.32 2.602.438 4.469.235 3.734.373 8.719.469 13.719.096 4.999.188 10.02.375 13.781.094 1.881.18 3.441.344 4.563.082.561.193 1 .313 1.344.06.172.141.324.25.469.109.145.288.344.625.344.356 0 .672-.178.844-.375.172-.197.276-.425.375-.688.198-.525.356-1.219.469-2.031.226-1.625.291-3.75.406-5.875.116-2.125.23-4.249.438-5.813.104-.782.26-1.438.406-1.844.049.158.111.267.156.5.153.789.255 1.968.344 3.375.177 2.814.263 6.578.344 10.344.081 3.766.136 7.52.375 10.344.12 1.412.314 2.586.531 3.438.109.426.198.779.375 1.063.089.142.213.263.375.375.162.112.416.21.656.188.299-.027.492-.192.625-.344.133-.151.232-.309.313-.5.162-.383.264-.888.375-1.5.222-1.224.408-2.912.531-4.938.246-4.05.304-9.397.375-14.75.071-5.353.148-10.714.313-14.719.082-2 .191-3.662.344-4.813.014-.109.016-.151.031-.25.019.125.076.172.094.313.157 1.226.263 3 .344 5.156.162 4.304.189 10.08.25 15.844.061 5.767.163 11.542.406 15.875.122 2.166.274 3.963.5 5.25.113.643.24 1.17.406 1.563.083.196.166.345.313.5.146.155.404.326.719.313.262-.011.506-.117.656-.25.151-.133.254-.301.344-.469.179-.336.291-.763.406-1.281.231-1.036.414-2.455.531-4.156.235-3.402.266-7.882.313-12.375.046-4.493.087-8.995.25-12.344.082-1.674.212-3.054.375-4 .064-.371.086-.602.156-.813.035.073.09.09.125.188.173.483.324 1.239.438 2.156.226 1.834.347 4.321.438 6.813.091 2.491.151 5 .344 6.906.096.953.226 1.736.406 2.344.09.304.158.558.313.781.154.223.45.477.844.5.283.016.523-.119.656-.25.134-.131.211-.285.281-.438.141-.305.219-.678.313-1.156.187-.957.356-2.276.469-3.875.226-3.198.327-7.461.438-11.719.111-4.258.233-8.505.438-11.688.102-1.591.247-2.943.406-3.844.013-.072.018-.09.031-.156.025.124.039.169.063.313.162 1 .308 2.482.406 4.25.196 3.535.279 8.26.375 13 .096 4.74.21 9.507.438 13.09.114 1.793.212 3.291.406 4.375.097.542.233.97.375 1.313.071.171.128.328.25.469.122.141.36.291.656.313.387.028.717-.181.906-.406.189-.225.335-.503.438-.813.205-.62.307-1.418.406-2.406.198-1.977.253-4.594.313-7.219.06-2.625.106-5.259.313-7.219.103-.98.261-1.812.438-2.344.088-.266.179-.44.25-.531.018-.023.023-.021.031-.031.008.005.017-.009.031 0 .036.024.112.092.188.219.151.254.304.702.406 1.281.205 1.158.26 2.771.313 4.406.053 1.635.119 3.284.313 4.563.097.639.183 1.184.406 1.625.112.221.265.43.469.594.204.164.51.281.813.281.227 0 .419-.08.563-.188.144-.108.264-.244.344-.375.16-.262.248-.558.344-.938.192-.758.337-1.801.438-3.03.201-2.46.27-5.719.344-8.969.074-3.25.133-6.493.344-8.906.105-1.207.26-2.214.438-2.875.036-.134.087-.178.125-.281.071.238.123.456.188.844.178 1.062.303 2.633.406 4.5.207 3.735.325 8.719.406 13.719.081 5 .135 10.02.344 13.781.104 1.883.249 3.437.438 4.563.094.563.204 1.025.344 1.375.07.175.124.324.25.469.126.145.377.313.688.313.362 0 .6-.211.719-.375.119-.164.179-.353.25-.563.142-.419.273-.953.375-1.656.203-1.407.348-3.411.469-5.781.241-4.74.31-11.03.406-17.313.096-6.282.193-12.534.375-17.188.091-2.327.222-4.253.375-5.563.03.153.07.263.094.469.174 1.497.326 3.642.438 6.188.223 5.092.352 11.835.469 18.563.116 6.728.228 13.416.438 18.438.105 2.511.238 4.622.406 6.094.084.736.168 1.294.281 1.719.057.212.122.399.219.563.048.082.107.163.219.25.112.087.317.175.531.156.293-.026.453-.18.563-.313.11-.132.219-.283.281-.438.125-.31.194-.703.281-1.188.174-.969.328-2.307.438-3.906.219-3.198.314-7.428.438-11.656.123-4.228.252-8.459.469-11.625.109-1.583.243-2.876.406-3.781.042-.234.111-.358.156-.531.136.481.225 1.165.313 2.031.186 1.84.287 4.331.375 6.844.088 2.512.203 5.05.438 6.969.117.96.251 1.763.469 2.375.109.306.251.559.438.781.186.222.493.438.875.438.442 0 .76-.267.938-.531.177-.264.269-.588.375-.969.213-.762.359-1.8.469-3.03.22-2.463.308-5.718.375-8.969.067-3.251.124-6.491.313-8.906.094-1.207.21-2.212.375-2.875.041-.164.051-.226.094-.344.064.182.128.337.188.625.177.862.34 2.15.438 3.688.194 3.075.221 7.187.281 11.313.06 4.125.164 8.261.375 11.375.105 1.557.233 2.868.438 3.813.102.472.212.847.375 1.156.081.155.167.28.313.406.145.127.366.25.625.25.276 0 .511-.114.656-.25.146-.136.262-.301.344-.469.164-.336.27-.756.375-1.281.211-1.051.361-2.506.469-4.25.216-3.487.291-8.125.344-12.75.053-4.625.095-9.236.281-12.688.093-1.726.231-3.181.406-4.156.059-.329.122-.509.188-.719.046.127.082.202.125.375.179.719.332 1.792.438 3.094.211 2.602.301 6.094.375 9.594.074 3.5.112 7.01.313 9.656.1 1.323.247 2.44.438 3.25.095.405.188.725.344 1 .078.137.171.26.313.375.142.115.354.219.594.219.351 0 .663-.178.844-.375.181-.197.302-.424.406-.688.209-.528.352-1.218.469-2.031.234-1.627.359-3.749.469-5.875.109-2.126.178-4.248.375-5.813.098-.782.233-1.437.375-1.844.016-.045.015-.055.031-.094.041.097.116.141.156.281.159.552.269 1.387.375 2.406.212 2.038.328 4.813.438 7.563.109 2.75.22 5.476.438 7.563.109 1.043.219 1.942.406 2.594.094.326.188.58.344.813.156.233.454.5.875.5.244 0 .488-.104.625-.219.137-.115.206-.239.281-.375.151-.272.279-.596.375-1 .191-.808.327-1.927.438-3.25.222-2.645.304-6.156.406-9.656.102-3.5.202-6.988.406-9.594.102-1.303.245-2.369.406-3.094.013-.058.018-.072.031-.125.039.168.059.253.094.469.158.979.292 2.429.375 4.156.167 3.454.221 8.06.281 12.688.06 4.626.136 9.261.375 12.75.119 1.744.275 3.197.5 4.25.113.526.233.944.406 1.281.087.169.193.334.344.469.151.135.385.25.656.25v-1.344c-.088-.215-.199-.458-.281-.844-.208-.971-.351-2.401-.469-4.125-.236-3.449-.315-8.06-.375-12.688-.06-4.624-.113-9.266-.281-12.75-.084-1.742-.206-3.174-.375-4.219-.085-.522-.18-.952-.313-1.281-.066-.165-.126-.298-.25-.438-.124-.14-.356-.313-.656-.313-.25 0-.462.102-.594.219-.132.117-.242.271-.313.406-.142.271-.223.597-.313 1-.179.806-.303 1.897-.406 3.219-.207 2.644-.304 6.157-.406 9.656-.102 3.5-.188 6.989-.406 9.594-.109 1.302-.267 2.371-.438 3.094-.048.203-.106.298-.156.438-.027-.073-.037-.097-.063-.188-.159-.552-.3-1.387-.406-2.406-.212-2.038-.328-4.781-.438-7.531-.109-2.75-.22-5.507-.438-7.594-.109-1.043-.187-1.942-.375-2.594-.094-.326-.219-.58-.375-.813-.156-.233-.454-.5-.875-.5-.361 0-.619.208-.781.406-.162.198-.283.426-.375.688-.183.523-.335 1.188-.438 2-.204 1.623-.266 3.751-.375 5.875-.109 2.124-.245 4.252-.469 5.813-.112.78-.247 1.442-.406 1.844-.034.087-.092.095-.125.156-.065-.151-.092-.321-.156-.594-.17-.721-.308-1.792-.406-3.094-.197-2.604-.238-6.093-.313-9.594-.074-3.5-.16-7.01-.375-9.656-.107-1.324-.267-2.438-.469-3.25-.101-.406-.21-.724-.375-1-.082-.138-.166-.263-.313-.375-.146-.112-.39-.219-.625-.219-.286 0-.49.143-.625.281-.135.139-.239.302-.313.469-.148.333-.249.726-.344 1.25-.189 1.048-.312 2.507-.406 4.25-.188 3.486-.228 8.125-.281 12.75-.053 4.625-.13 9.237-.344 12.688-.107 1.725-.274 3.153-.469 4.125-.073.361-.14.598-.219.813-.066-.181-.125-.338-.188-.625-.186-.86-.302-2.151-.406-3.688-.208-3.074-.315-7.188-.375-11.313-.06-4.125-.085-8.262-.281-11.375-.098-1.556-.244-2.839-.438-3.781-.097-.471-.19-.848-.344-1.156-.077-.154-.172-.309-.313-.438-.14-.128-.393-.25-.656-.25-.227 0-.419.079-.563.188-.144.108-.233.244-.313.375-.159.262-.28.558-.375.938-.189.759-.31 1.801-.406 3.03-.192 2.46-.245 5.719-.313 8.969-.067 3.249-.159 6.494-.375 8.906-.108 1.206-.254 2.216-.438 2.875-.076.272-.178.43-.25.563-.057-.092-.062-.166-.125-.344-.175-.491-.355-1.259-.469-2.188-.227-1.858-.318-4.396-.406-6.906-.088-2.51-.184-5.01-.375-6.906-.096-.947-.193-1.721-.375-2.313-.091-.296-.208-.563-.375-.781-.167-.218-.514-.439-.906-.406-.293.025-.452.18-.563.313-.11.132-.187.283-.25.438-.125.31-.225.703-.313 1.188-.174.968-.297 2.308-.406 3.906-.219 3.197-.314 7.428-.438 11.656-.123 4.228-.252 8.426-.469 11.594-.105 1.532-.282 2.785-.438 3.688-.031-.21-.034-.311-.063-.563-.163-1.429-.302-3.53-.406-6.03-.209-5-.321-11.71-.438-18.438-.116-6.728-.245-13.482-.469-18.594-.112-2.556-.259-4.68-.438-6.219-.089-.769-.163-1.385-.281-1.844-.059-.23-.132-.424-.219-.594-.087-.17-.215-.373-.594-.469-.186-.047-.391-.017-.531.063-.141.079-.226.17-.281.25-.111.161-.162.305-.219.5-.114.39-.202.947-.281 1.625-.159 1.356-.284 3.288-.375 5.625-.183 4.674-.279 10.938-.375 17.219-.096 6.281-.167 12.567-.406 17.281-.12 2.357-.273 4.335-.469 5.688-.061.424-.151.645-.219.938-.042-.179-.087-.272-.125-.5-.178-1.062-.303-2.633-.406-4.5-.207-3.735-.294-8.719-.375-13.719-.081-5-.167-10.02-.375-13.781-.104-1.883-.249-3.437-.438-4.563-.094-.563-.173-1.025-.313-1.375-.07-.175-.124-.324-.25-.469-.126-.145-.377-.313-.688-.313-.448 0-.737.3-.906.563-.169.263-.304.557-.406.938-.204.76-.361 1.8-.469 3.03-.215 2.462-.27 5.718-.344 8.969-.074 3.25-.147 6.492-.344 8.906-.099 1.207-.207 2.212-.375 2.875-.073.286-.151.461-.219.594-.033-.043-.088-.051-.125-.125-.141-.279-.254-.782-.344-1.375-.18-1.187-.259-2.831-.313-4.469-.053-1.637-.088-3.268-.313-4.531-.112-.632-.276-1.162-.531-1.594-.128-.216-.302-.413-.531-.563-.229-.15-.511-.239-.813-.219-.388.026-.692.265-.875.5-.183.235-.33.488-.438.813-.215.649-.331 1.521-.438 2.531-.213 2.02-.284 4.655-.344 7.281-.06 2.626-.12 5.239-.313 7.156-.096.958-.211 1.754-.375 2.25-.027.081-.066.093-.094.156-.082-.237-.174-.512-.25-.938-.183-1.018-.325-2.504-.438-4.281-.225-3.555-.31-8.292-.406-13.03-.096-4.739-.209-9.468-.406-13.03-.099-1.782-.203-3.278-.375-4.344-.086-.533-.186-.949-.313-1.281-.063-.166-.133-.328-.25-.469-.117-.141-.341-.313-.656-.313-.297 0-.538.148-.656.281-.118.133-.187.284-.25.438-.127.307-.196.705-.281 1.188-.171.965-.303 2.3-.406 3.906-.206 3.212-.327 7.461-.438 11.719-.111 4.258-.214 8.523-.438 11.688-.112 1.582-.233 2.896-.406 3.781-.047.241-.106.36-.156.531-.01-.029-.022-.032-.031-.063-.149-.503-.281-1.26-.375-2.188-.188-1.855-.253-4.35-.344-6.844-.091-2.494-.204-4.978-.438-6.875-.117-.948-.253-1.74-.469-2.344-.108-.302-.252-.561-.438-.781-.185-.22-.495-.438-.875-.438-.286 0-.525.144-.656.281-.131.137-.211.275-.281.438-.14.325-.225.742-.313 1.25-.175 1.017-.293 2.434-.375 4.125-.165 3.381-.204 7.853-.25 12.344-.046 4.491-.08 8.984-.313 12.344-.116 1.68-.32 3.081-.531 4.03-.084.377-.16.631-.25.844-.101-.28-.22-.66-.313-1.188-.214-1.219-.348-3.01-.469-5.156-.241-4.3-.345-10.05-.406-15.813-.061-5.765-.087-11.547-.25-15.875-.082-2.164-.18-3.94-.344-5.219-.082-.639-.221-1.149-.344-1.531-.061-.191-.106-.375-.219-.531-.113-.156-.359-.364-.719-.344-.346.02-.552.225-.656.375-.104.15-.159.316-.219.5-.119.368-.201.835-.281 1.438-.16 1.204-.261 2.892-.344 4.906-.166 4.03-.242 9.368-.313 14.719-.071 5.351-.131 10.702-.375 14.719-.122 2.01-.321 3.688-.531 4.844-.095.523-.177.913-.281 1.188-.063-.149-.126-.258-.188-.5-.193-.756-.351-1.923-.469-3.313-.236-2.779-.294-6.518-.375-10.281-.081-3.764-.165-7.558-.344-10.406-.089-1.424-.207-2.605-.375-3.469-.084-.432-.178-.777-.313-1.063-.067-.143-.153-.282-.281-.406-.128-.124-.36-.25-.625-.25-.36 0-.648.208-.813.406-.165.198-.281.426-.375.688-.189.524-.267 1.188-.375 2-.215 1.624-.384 3.75-.5 5.875-.116 2.125-.189 4.25-.406 5.813-.101.728-.235 1.312-.375 1.719-.057-.233-.136-.43-.188-.781-.155-1.066-.251-2.631-.344-4.5-.186-3.737-.279-8.718-.375-13.719-.096-5-.232-10.02-.469-13.781-.119-1.883-.266-3.436-.469-4.563-.101-.563-.196-1.024-.344-1.375-.074-.175-.151-.325-.281-.469-.13-.144-.383-.313-.688-.313"/><path d="m15.03 16.969c-1.11 0-1.788.669-2.094 1.031-.207.245-.452.584-.625 1.031-.223.575-.36 1.167-.469 1.844-.223 1.384-.36 3.16-.469 5.25-.17 3.253-.216 7.594-.281 11.813-.093-.101-.134-.216-.25-.313-.344-.285-.967-.656-1.781-.656-.916 0-1.619.492-2 .906-.197.214-.45.489-.625.906-.256.609-.281 1.139-.344 1.5-.035.203-.06.46-.094.688v30.813c.021 0 .043.001.063 0 .024-.001.064.002.094 0 .015-.001.017-.025.063-.031.011-.002.062 0 .063 0 0 0 0-.03 0-.031.016-.002.016-.029.031-.031.001.006 0 .063 0 .063l.063-.031h.031c0 0-.029-.055-.031-.063.583-.088 1.146-.249 1.438-.469.223-.168.538-.463.813-.906.362-.585.535-1.168.656-1.625.276-1.044.457-2.306.594-3.781.004-.044-.004-.112 0-.156.462.534 1.16 1.063 2.188 1.063 1.064 0 1.796-.596 2.188-1.094.354-.45.488-.911.531-1.031.202-.562.306-1.141.406-1.813.082-.553.122-1.459.188-2.156.105.303.242.658.5 1 .314.417.982 1.094 2.156 1.094.811 0 1.487-.378 2-.844.057 2.47.082 5.05.25 7.03.127 1.5.342 2.765.594 3.75.101.396.24.978.625 1.594.263.42.602.696.906.906.391.269 1.059.637 1.875.563.971-.089 1.583-.631 1.906-1 .199-.227.353-.522.5-.813.035.24.055.624.094.844.119.678.221 1.344.5 2 .147.346.369.725.688 1.063.402.426 1.175.95 2.188.906.664-.029 1.322-.286 1.813-.719.398-.351.639-.734.781-1 .343-.644.446-1.258.563-1.781.261-1.172.471-2.668.594-4.438.173-2.497.18-5.76.219-8.906.435.413.979.798 1.781.844.895.051 1.639-.365 2.063-.781.38-.373.578-.766.688-1 .067.686.115 1.518.219 2.094.117.649.259 1.244.469 1.75.038.091.204.522.563.938.433.501 1.112.94 1.938 1 1.114.081 1.997-.494 2.5-1.094.355-.423.64-.916.813-1.438.299-.902.399-1.808.5-2.813.105-1.049.111-2.419.156-3.656.09.092.112.195.219.281.537.431 1.228.719 2 .719.678 0 1.246-.231 1.688-.563.221-.166.375-.367.531-.563.049 2.235.055 4.765.156 6.594.107 1.93.293 3.545.5 4.781.102.612.208 1.175.438 1.75.032.081.18.559.563 1 .426.49 1.173 1 2.125 1 1.096 0 1.859-.619 2.25-1.156.326-.448.467-.903.531-1.094.045.568.072 1.406.125 1.875.089.779.19 1.394.344 1.969.082.305.211.679.438 1.063.126.214.326.502.688.781.414.32 1.104.628 1.844.563.977-.087 1.563-.624 1.875-1 .163-.196.386-.532.563-.969.241-.598.295-1.116.375-1.563.19-1.058.386-2.436.5-4.094.142-2.069.204-4.815.281-7.406.462.502 1.181 1.031 2.188 1.031 1.059 0 1.796-.568 2.281-1.156.013.217.017.542.031.75.108 1.594.257 2.972.5 4.094.113.519.229 1.082.531 1.656.174.332.412.643.75.938.381.331 1.046.719 1.875.719.787 0 1.461-.336 1.938-.781.334-.312.583-.658.75-1 .292-.597.418-1.187.531-1.75.24-1.197.42-2.706.531-4.5.036-.58.034-1.46.063-2.094.13.16.221.319.406.469.397.321.999.656 1.781.656.944 0 1.724-.461 2.219-1 .106-.116.134-.225.219-.344.02.223.009.537.031.75.111 1.062.244 2.02.5 2.906.11.381.238.86.563 1.344.419.625 1.262 1.344 2.469 1.344.701 0 1.373-.293 1.844-.688.17-.143.172-.237.281-.375.031.614.024 1.467.063 2.031.123 1.79.303 3.288.563 4.5.125.583.263 1.167.563 1.75.104.202.307.667.75 1.063.485.434 1.168.719 1.938.719v-38.5c-.077-.444-.16-.885-.344-1.344-.076-.189-.219-.612-.563-1-.368-.416-1.085-.969-2.094-.969-.726 0-1.393.288-1.844.688-.319.283-.572.597-.75.938-.3.574-.382 1.109-.469 1.5-.214.962-.362 2.104-.469 3.469-.016.201-.017.509-.031.719-.426-.617-1.251-1.313-2.438-1.313-.996 0-1.678.515-2.094.969-.059-1.849-.096-3.864-.219-5.375-.113-1.393-.29-2.594-.531-3.563-.123-.496-.291-.994-.594-1.5-.112-.187-.349-.574-.781-.906-.425-.327-1.07-.625-1.781-.625-.961 0-1.631.497-2 .875-.302.31-.529.644-.688 1-.257.579-.337 1.159-.438 1.719-.104.575-.146 1.439-.219 2.156-.11-.219-.325-.609-.719-.969-.457-.417-1.147-.781-1.938-.781-.675 0-1.274.228-1.719.563-.462.348-.704.779-.781.906-.267.441-.461.936-.594 1.469-.238.954-.369 2.069-.469 3.344-.022.283-.013.701-.031 1-.03-.043-.03-.082-.063-.125-.514-.671-1.438-1.251-2.563-1.156-.99.083-1.575.639-1.875 1-.03.036-.035.058-.063.094-.079-3.485-.127-7.328-.25-10.125-.113-2.581-.249-4.723-.438-6.344-.091-.78-.178-1.451-.344-2.094-.089-.347-.218-.663-.375-.969-.271-.527-.751-1.201-1.813-1.469-.596-.15-1.349-.081-1.938.25-.454.255-.7.591-.875.844-.251.362-.407.71-.5 1.031-.17.583-.291 1.217-.375 1.938-.17 1.451-.283 3.42-.375 5.781-.018.47-.015 1.22-.031 1.719-.084-.2-.123-.366-.375-.656-.426-.491-1.173-1-2.125-1-1.321 0-2.132.898-2.5 1.469-.276.429-.509.919-.656 1.469-.25.931-.418 2.042-.531 3.344-.185 2.116-.223 4.792-.281 7.438-.076-.06-.103-.132-.188-.188-.559-.366-1.248-.581-2-.531-.952.063-1.598.585-2.031 1.063-.081-3.514-.161-7.119-.313-9.844-.099-1.792-.209-3.337-.406-4.563-.102-.631-.253-1.174-.438-1.656-.073-.191-.199-.599-.531-1-.394-.476-1.135-1-2.125-1-.894 0-1.644.432-2.094.938-.36.406-.507.835-.563.969-.252.609-.297 1.154-.375 1.594-.191 1.076-.363 2.442-.469 4.094-.133 2.074-.2 4.852-.281 7.469-.457-.508-1.191-1.063-2.219-1.063-.886 0-1.604.427-2.031.875-.197.207-.311.436-.438.656-.017-.611-.01-1.495-.031-2.063-.082-2.18-.164-4-.344-5.406-.1-.782-.29-1.416-.438-1.875-.022-.068-.151-.579-.5-1.063-.407-.563-1.232-1.189-2.344-1.125-1.085.062-1.754.73-2.094 1.219-.254.366-.414.703-.5.969-.185.572-.259 1.145-.344 1.781-.177 1.332-.291 3.062-.375 5.094-.062 1.508-.084 3.676-.125 5.469-.13-.236-.245-.502-.5-.75-.435-.423-1.135-.781-1.938-.781-.791 0-1.365.343-1.813.719-.011-.473-.022-.854-.031-1.344-.096-5.01-.228-10.05-.469-13.875-.121-1.924-.307-3.5-.531-4.75-.099-.552-.165-1.166-.438-1.813-.131-.311-.316-.659-.625-1-.404-.446-1.158-.938-2.094-.938" opacity=".1"/><path d="m15.03 18.09c-.629 0-1.065.406-1.25.625-.158.187-.322.42-.438.719-.183.473-.304.99-.406 1.625-.209 1.294-.329 3.045-.438 5.125-.217 4.164-.304 9.686-.375 15.188-.058 4.464-.133 8.518-.25 12.219-.03-.809-.097-1.423-.125-2.25-.101-3-.22-6.01-.406-8.313-.093-1.14-.19-2.115-.375-2.906-.091-.389-.191-.731-.375-1.063-.1-.179-.258-.387-.469-.563-.23-.191-.583-.406-1.063-.406-.567 0-.943.265-1.188.531-.153.167-.311.368-.406.594-.173.411-.208.827-.281 1.25-.157.905-.293 2.1-.375 3.531-.163 2.856-.222 6.6-.313 10.344-.091 3.744-.215 7.502-.469 10.25-.01.107-.021.179-.031.281v5.781c.028 0 .064 0 .063 0 .464 0 .828-.198 1.063-.375.179-.135.389-.313.563-.594.258-.418.381-.863.5-1.313.25-.944.429-2.154.563-3.594.258-2.791.379-6.42.469-10.06.072 1.76.098 3.65.25 5.063.126 1.166.294 2.121.531 2.906.12.395.284.774.531 1.125.277.393.8.844 1.531.844.63 0 1.085-.367 1.313-.656.202-.257.272-.52.344-.719.171-.475.282-.966.375-1.594.189-1.274.339-3.037.438-5.125.197-4.165.242-9.69.313-15.188.045-3.502.162-6.462.25-9.594.089 2.552.197 4.816.25 7.594.096 4.999.187 10.03.375 13.813.094 1.884.171 3.472.344 4.656.088.603.238 1.073.375 1.469.085.245.19.483.344.688.149.198.608.656 1.25.656.614 0 1.107-.276 1.438-.656.262-.302.39-.613.5-.906.229-.608.413-1.368.531-2.219.2-1.437.256-3.245.344-5.03.061 1.902.143 3.591.188 5.656.081 3.763.132 7.503.375 10.375.123 1.446.33 2.652.563 3.563.108.424.2.851.469 1.281.156.249.368.438.594.594.3.207.659.389 1.156.344.55-.051.961-.403 1.156-.625.182-.208.328-.428.438-.688.212-.501.294-1.067.406-1.688.231-1.273.438-2.954.563-5 .173-2.852.193-6.688.25-10.344.065 4.668.144 9.415.344 12.969.122 2.179.295 3.995.531 5.344.117.67.228 1.258.438 1.75.1.236.253.49.469.719.263.278.699.589 1.313.563.449-.02.817-.165 1.125-.438.261-.23.426-.49.531-.688.245-.459.35-.967.469-1.5.244-1.097.443-2.523.563-4.25.238-3.444.267-7.946.313-12.438.032-3.148.117-5.879.188-8.625.009.241.022.415.031.656.09 2.485.146 4.979.344 6.938.099.98.234 1.815.438 2.5.087.293.187.638.438 1 .261.378.734.803 1.438.844.554.032.945-.2 1.219-.469.243-.239.391-.518.469-.688.195-.424.249-.829.344-1.313.196-1 .385-2.346.5-3.969.228-3.23.327-7.493.438-11.75.015-.559.047-.975.063-1.531.026 1.218.069 2.164.094 3.406.096 4.742.209 9.512.438 13.13.114 1.794.229 3.276.438 4.438.107.595.244 1.108.406 1.5.063.153.146.391.375.656.271.314.661.556 1.188.594.696.051 1.24-.303 1.563-.688.264-.315.466-.676.594-1.063.244-.736.337-1.594.438-2.594.204-2.031.253-4.626.313-7.25.052-2.295.138-4.44.281-6.25.041.702.1 1.262.125 2.031.053 1.639.108 3.306.313 4.656.097.643.197 1.245.5 1.844.151.299.348.597.656.844.358.287.809.469 1.313.469.409 0 .77-.148 1.031-.344.228-.171.396-.372.531-.594.23-.377.338-.762.438-1.156.211-.832.366-1.901.469-3.156.204-2.501.27-5.751.344-9 .017-.733.045-1.279.063-2 .099 2.908.228 5.695.281 8.969.081 4.997.134 10.02.344 13.813.105 1.899.272 3.48.469 4.656.099.591.199 1.092.375 1.531.065.162.149.427.375.688.267.307.692.594 1.281.594.664 0 1.123-.384 1.344-.688.213-.293.307-.58.375-.781.159-.47.299-1.039.406-1.781.211-1.459.348-3.496.469-5.875.242-4.767.31-11.06.406-17.344.015-.973.047-1.691.063-2.656.036 1.827.093 3.265.125 5.125.116 6.727.227 13.43.438 18.469.105 2.52.234 4.647.406 6.156.085.75.18 1.316.313 1.813.066.246.163.527.313.781.073.123.211.318.406.469.272.21.594.354 1.063.313.537-.048.936-.404 1.094-.594.133-.16.292-.373.406-.656.173-.429.226-.861.313-1.344.182-1.013.358-2.35.469-3.969.221-3.229.314-7.463.438-11.688.062-2.12.175-3.83.25-5.813.083 2.062.146 4.161.344 5.781.119.979.275 1.812.531 2.531.135.379.314.735.563 1.031.297.353.795.719 1.469.719.755 0 1.312-.456 1.594-.875.272-.405.362-.805.469-1.188.237-.849.388-1.934.5-3.188.224-2.505.308-5.746.375-9 .005-.229.027-.396.031-.625.023 1.447.072 2.591.094 4.094.06 4.131.162 8.295.375 11.438.106 1.57.247 2.882.469 3.906.109.502.222.965.438 1.375.106.201.278.432.5.625.25.218.62.438 1.125.438.489 0 .895-.195 1.188-.469.223-.209.379-.44.5-.688.219-.448.328-.924.438-1.469.224-1.117.391-2.582.5-4.344.218-3.519.291-8.185.344-12.813.029-2.525.109-4.583.156-6.906.023.875.075 1.546.094 2.438.074 3.494.109 6.997.313 9.688.102 1.347.262 2.497.469 3.375.1.425.188.802.406 1.188.11.194.276.413.5.594.258.208.629.406 1.094.406.613 0 1.083-.272 1.406-.625.264-.288.439-.624.563-.938.249-.63.411-1.347.531-2.188.241-1.682.359-3.839.469-5.969.007-.128.025-.216.031-.344.048 1 .115 1.802.156 2.844.109 2.751.216 5.496.438 7.625.109 1.051.22 1.962.438 2.719.102.355.216.701.438 1.031.257.384.782.844 1.531.844.463 0 .817-.147 1.125-.406.249-.209.393-.457.469-.594.186-.336.327-.722.438-1.188.209-.884.357-2.036.469-3.375.2-2.392.286-5.517.375-8.625.018 1.219.046 2.161.063 3.406.06 4.628.134 9.288.375 12.813.121 1.761.291 3.22.531 4.344.119.554.243 1.029.469 1.469.11.214.249.495.5.719.284.254.696.438 1.188.438v-7.719c-.207-3.35-.287-7.677-.344-12.06-.06-4.623-.112-9.272-.281-12.781-.085-1.757-.229-3.215-.406-4.313-.089-.547-.173-1.012-.344-1.438-.073-.183-.173-.428-.375-.656-.234-.265-.653-.594-1.25-.594-.46 0-.821.164-1.094.406-.225.199-.389.412-.5.625-.204.39-.283.806-.375 1.219-.195.878-.333 1.976-.438 3.313-.21 2.679-.304 6.189-.406 9.688-.055 1.877-.151 3.397-.219 5.125-.034-.763-.094-1.343-.125-2.125-.109-2.75-.216-5.526-.438-7.656-.108-1.036-.182-1.94-.406-2.719-.115-.399-.274-.741-.469-1.031-.257-.384-.782-.844-1.531-.844-.659 0-1.126.383-1.375.688-.227.277-.384.607-.5.938-.207.59-.392 1.302-.5 2.156-.212 1.687-.266 3.825-.375 5.938-.022.428-.069.733-.094 1.156-.082-2.109-.167-4.197-.219-6.625-.074-3.502-.157-7-.375-9.688-.11-1.35-.281-2.494-.5-3.375-.11-.441-.247-.847-.469-1.219-.096-.16-.248-.4-.5-.594-.289-.222-.625-.375-1.094-.375-.544 0-.966.304-1.188.531-.21.215-.362.448-.469.688-.186.42-.275.885-.375 1.438-.201 1.113-.343 2.588-.438 4.344-.189 3.516-.228 8.158-.281 12.781-.035 3.043-.131 5.617-.219 8.313-.073-2.118-.185-4-.219-6.313-.06-4.12-.082-8.286-.281-11.438-.1-1.578-.263-2.872-.469-3.875-.1-.488-.195-.921-.406-1.344-.098-.195-.226-.435-.469-.656-.301-.275-.685-.469-1.188-.469-.408 0-.769.146-1.031.344-.269.203-.41.446-.5.594-.203.334-.359.718-.469 1.156-.211.845-.34 1.91-.438 3.156-.195 2.502-.246 5.753-.313 9-.05 2.423-.164 4.569-.281 6.625-.07-1.255-.171-2.355-.219-3.719-.088-2.512-.18-5-.375-6.938-.097-.957-.191-1.77-.406-2.469-.107-.349-.253-.709-.5-1.031-.329-.429-.875-.779-1.594-.719-.541.046-.94.409-1.094.594-.181.217-.295.458-.375.656-.157.388-.251.83-.344 1.344-.185 1.029-.327 2.361-.438 3.969-.221 3.228-.314 7.463-.438 11.688-.076-3.254-.189-6.166-.25-9.719-.116-6.729-.244-13.497-.469-18.625-.113-2.567-.255-4.71-.438-6.281-.089-.771-.172-1.391-.313-1.938-.071-.275-.164-.521-.281-.75-.112-.219-.502-.726-1.094-.875-.393-.099-.746-.071-1.094.125-.245.138-.421.34-.531.5-.172.249-.281.504-.344.719-.139.477-.231 1.055-.313 1.75-.163 1.394-.283 3.34-.375 5.688-.184 4.69-.279 10.969-.375 17.25-.063 4.143-.185 7.689-.281 11.375-.05-2.136-.12-3.928-.156-6.188-.081-5-.165-10.02-.375-13.813-.105-1.899-.272-3.48-.469-4.656-.094-.564-.153-1.055-.344-1.531-.065-.162-.149-.427-.375-.688-.267-.307-.692-.594-1.281-.594-.794 0-1.321.562-1.563.938-.21.326-.38.707-.5 1.156-.224.835-.39 1.898-.5 3.156-.219 2.509-.27 5.753-.344 9-.047 2.049-.142 3.769-.219 5.594-.043-1.342-.082-2.69-.281-3.813-.122-.686-.301-1.328-.625-1.875-.18-.305-.412-.591-.75-.813-.355-.233-.827-.376-1.313-.344-.678.045-1.155.45-1.438.813-.225.289-.426.62-.563 1.031-.254.766-.361 1.664-.469 2.688-.218 2.073-.284 4.716-.344 7.344-.005.196-.027.336-.031.531-.11-2.926-.213-5.857-.281-9.219-.096-4.741-.207-9.446-.406-13.03-.099-1.788-.193-3.308-.375-4.438-.091-.563-.219-1.03-.375-1.438-.071-.186-.169-.439-.375-.688-.231-.279-.653-.594-1.25-.594-.555 0-.974.252-1.25.563-.213.24-.305.487-.375.656-.179.434-.227.863-.313 1.344-.181 1.019-.334 2.348-.438 3.969-.208 3.237-.327 7.491-.438 11.75-.059 2.26-.145 4.095-.219 6.188-.086-2.234-.191-4.472-.406-6.219-.119-.969-.277-1.791-.531-2.5-.134-.375-.311-.733-.563-1.031-.298-.353-.793-.719-1.469-.719-.546 0-.949.248-1.219.531-.201.21-.345.443-.438.656-.19.442-.254.916-.344 1.438-.186 1.078-.323 2.513-.406 4.219-.166 3.409-.204 7.885-.25 12.375-.042 4.081-.104 7.957-.281 11.156-.008-.13-.024-.18-.031-.313-.24-4.274-.345-10.02-.406-15.781-.061-5.761-.086-11.555-.25-15.906-.082-2.171-.174-3.952-.344-5.281-.089-.698-.244-1.277-.375-1.688-.051-.158-.118-.438-.344-.75-.235-.325-.697-.695-1.375-.656-.633.036-1.061.447-1.25.719-.184.265-.283.501-.344.688-.146.451-.23.975-.313 1.594-.167 1.256-.261 2.946-.344 4.969-.167 4.048-.242 9.399-.313 14.75-.07 5.283-.141 10.502-.375 14.469-.124-2.41-.219-4.961-.281-7.844-.081-3.764-.163-7.561-.344-10.438-.09-1.44-.226-2.635-.406-3.563-.09-.463-.198-.873-.375-1.25-.093-.198-.227-.42-.438-.625-.277-.269-.646-.469-1.156-.469-.659 0-1.129.355-1.406.688-.238.286-.386.62-.5.938-.236.656-.331 1.35-.438 2.156-.157 1.187-.239 2.748-.344 4.25-.1-3.091-.213-6.188-.281-9.75-.096-5-.23-10.05-.469-13.844-.119-1.897-.287-3.441-.5-4.625-.103-.574-.179-1.097-.375-1.563-.088-.208-.23-.458-.438-.688-.262-.289-.659-.563-1.25-.563" opacity=".25"/></g><path d="m47.781 13.938c-2.219.022-4.544.33-6.813.938-14.281 3.827-22.768 18.496-19.16 32.781.016.062.015.125.031.188 0 0 0 .063 0 .063.006.022.025.041.031.063.003.01-.003.021 0 .031.004.018-.006.012 0 .031.016.055.017.059.031.094.001.003.03.153.031.156.001.002.03-.002.031 0 .003.005-.003.027 0 .031.013.023.026.023.031.031.005.014-.003.022 0 .031.004.012-.004.02 0 .031.002.006-.003.024 0 .031.003.008.062.125.063.125 0 0 .021.012.031.031.006.011-.007.02 0 .031.002.005-.005.017 0 .031.003.005.031-.001.031 0 .002.005-.004.022 0 .031.002.004.024.017.031.031.018.035.019.071.031.094-2.658 1.879-4.142 5.141-3.25 8.469l2.594 9.656c1.147 4.281 5.601 6.801 9.875 5.656l4.625-1.25c.03-.001.049-.024.094-.031h.031.031c.018-.004.012.006.031 0 .055-.016.059-.017.094-.031.003-.001.153-.03.156-.031.001-.001-.023-.024 0-.031.005-.002.019.004.031 0 .023-.013.023-.026.031-.031.027-.01.062 0 .063 0 .006-.002.024.002.031 0 .007-.002.068-.051.094-.063.003-.001.026.002.031 0 0 0 .012-.021.031-.031.03-.017.058-.028.063-.031.007-.005.028.002.031 0 .004-.002.017-.024.031-.031.045-.023.125-.031.125-.031 0 0 .053-.064.094-.094 0 0 .017-.02.031-.031.016-.014.025.005.031 0 .017-.013.02-.022.031-.031.009-.008-.005-.027 0-.031.009-.009.024.008.031 0 .003-.003-.002-.029 0-.031.003-.003.03.001.031 0 .005-.003.026.004.031 0 .006-.004.093-.062.094-.063.001-.001.078-.078.094-.094.001-.001.047-.047.063-.063.016-.016-.046.017.031-.063-.099.102.016.016.031 0 .016-.016.062-.093.063-.094 0 0 .02-.017.031-.031.011-.014.02-.017.031-.031.021-.023.031-.063.031-.063.008-.008.094-.094.094-.094.001-.001.047-.071.063-.094.015-.023-.048.059.031-.063.002-.002.092-.122.094-.125 0 0-.003-.025 0-.031.005-.007.023-.02.031-.031.008-.012.024-.02.031-.031.008-.016.059-.145 0-.031.003-.004.024-.02.031-.031.007-.011.062-.094.063-.094 0-.001.028-.114.031-.125.004-.011-.004-.02 0-.031.001-.003.131-.324.063-.125.024-.07-.008-.039 0-.063.008-.023.031-.092.031-.094.008-.023.062-.124.063-.125 0 0-.006-.056 0-.094.006-.04.031-.083.031-.094.001-.02 0-.024 0-.031.001-.015 0-.025 0-.031 0-.012 0-.025 0-.031.001-.016 0-.026 0-.031 0-.012 0-.026 0-.031.002-.032.031-.088.031-.094 0-.007 0-.024 0-.031-.001.011-.031.001-.031 0 0-.001.031-.133.031-.156 0-.001 0-.07 0-.094 0-.023.002.093 0-.063 0-.002.001-.053 0-.094 0 .023 0-.033 0-.031 0-.006 0-.026 0-.031 0-.002.001-.021 0-.031 0-.012 0-.019 0-.031 0-.006 0-.022 0-.031 0-.004 0-.02 0-.031 0-.011-.031-.125-.031-.125 0 0-.028-.146-.031-.156-.003-.01.001-.027 0-.031-.004-.012-.027-.02-.031-.031-.004-.012.002-.024 0-.031-.011-.043-.031-.092-.031-.094l-5.094-19.06c0 0 0-.031 0-.031 0 0-.031-.094-.031-.094v-.031c-.001-.029-.015-.027-.031-.094-.01-.042.019.001 0-.063.069.226-.03-.183-.031-.188-.002-.005-.092-.245-.094-.25-.001-.001-.084-.109-.094-.125-.01-.016-.02-.043-.031-.063-.012-.019-.023-.048-.031-.063-.054-.094-.022-.016-.031-.031-.009-.015-.02-.043-.031-.063-.023-.039-.061-.123-.063-.125 0 0-.083-.114-.094-.125-.01-.011-.027.004-.031 0-.008-.009.004-.027 0-.031-.008-.008-.024.007-.031 0-.014-.014-.016-.047-.031-.063-.002-.002-.008.031-.031 0-.012-.016-.021-.048-.031-.063-.003-.004-.025-.023-.031-.031-.007-.008-.062-.094-.063-.094.002.002-.183-.184-.188-.188-.004-.003-.246-.184-.25-.188-.002-.002-.086-.039-.125-.063-.039-.023.043.017-.094-.063.001-.034 0-.08 0-.094 0-.002 0-.07 0-.094 0-.023.002.093 0-.063 0-.002.001-.053 0-.094 0-.012 0-.051 0-.063 0-.002.001-.021 0-.031 0-.012 0-.019 0-.031 0-.006 0-.022 0-.031 0-.005 0-.02 0-.031 0-.011-.031-.125-.031-.125 0 0-.028-.146-.031-.156 0 0 .003-.019 0-.031-.004-.012-.027-.02-.031-.031-.004-.012.002-.024 0-.031-.011-.043-.031-.092-.031-.094-.391-1.453-.594-2.888-.594-4.375 0-9.395 7.542-16.938 16.938-16.938 9.395 0 16.938 7.542 16.938 16.938 0 1.487-.203 2.922-.594 4.375-.001.002-.019.074-.031.125-.004.012-.027.02-.031.031-.001.004.003.021 0 .031-.003.01-.031.156-.031.156 0 0-.031.114-.031.125 0 .011 0 .027 0 .031 0 .009 0 .025 0 .031 0 .012 0 .02 0 .031 0 .012 0 .025 0 .031 0 .011 0 .051 0 .063-.001.041 0 .092 0 .094-.002.155 0 .039 0 .063 0 .023 0 .092 0 .094 0 .023.031.155.031.156 0 .001-.03.011-.031 0-.004.002.003.029 0 .031-.007.004-.031 0-.031 0-.002.001-.063.071-.094.094-.031.023.022-.058-.094.031.076-.059.012.023 0 .031-.012.009-.016.02-.031.031-.031.023-.123.092-.125.094-.002.002-.07.07-.094.094-.012.012-.022.022-.031.031-.009.009.03-.032-.031.031-.002.002-.032 0-.063.031-.031.031-.124.155-.125.156-.001.001-.055.083-.063.094-.007.011-.023.02-.031.031-.001.002-.008.032-.031.063-.023.031-.124.154-.125.156-.002.004-.197.39-.094.188-.001.002-.047.118-.063.156-.015.039-.03.06-.031.063-.008.015-.024.017-.031.031-.004.007.004.023 0 .031-.002.004.004.022 0 .031-.004.009-.062.093-.063.094-.001.003-.049.248-.031.188a1.050399 1.050399 0 0 0 0 .03125 1.050399 1.050399 0 0 0 -.03125 .15625l-.031.094v.031l-5.094 19.03c-.001.002-.019.074-.031.125-.004.012-.027.02-.031.031-.001.004.003.021 0 .031-.003.01-.031.156-.031.156 0 0-.031.114-.031.125 0 .011 0 .027 0 .031 0 .009 0 .025 0 .031 0 .012 0 .02 0 .031 0 .012 0 .025 0 .031 0 .011 0 .051 0 .063-.001.041 0 .092 0 .094-.002.155 0 .039 0 .063 0 .023 0 .092 0 .094 0 .023.031.155.031.156 0 .001-.03.011-.031 0 0 .007 0 .024 0 .031 0 .008.031.125.031.125 0 .012 0 .018 0 .031 0 .007 0 .02 0 .031 0 .006-.001.016 0 .031 0 .008-.001.011 0 .031.001.01.025.054.031.094.006.038 0 .094 0 .094 0 .001.055.102.063.125 0 .001.023.071.031.094.008.023-.024-.007 0 .063-.068-.199.061.122.063.125.004.012-.004.021 0 .031.004.011.031.124.031.125 0 0 .056.083.063.094.007.011.029.027.031.031.005.008-.002.028 0 .031.008.016.062.092.063.094.002.003.092.123.094.125.079.122.016.039.031.063.015.023.062.093.063.094 0 0 .086.086.094.094 0 0-.006.025 0 .031.005.007.094.094.094.094.001.001.047.078.063.094.016.016.131.102.031 0 .077.079.016.047.031.063.016.016.061.061.063.063.015.016.093.093.094.094 0 0 .088.059.094.063.006.004.026-.003.031 0 .01.007.02.024.031.031.002.002.123.092.125.094.04.03.094.094.094.094 0 0 .08.009.125.031.014.007.027.029.031.031.009.004.026-.002.031 0 .004.003.032.014.063.031.019.011.031.031.031.031.005.002.028-.001.031 0 .026.011.087.06.094.063.007.002.026-.002.031 0 .001.001.102.024.125.031.023.008-.001.031 0 .031.003.001.153.03.156.031.035.014.039.016.094.031.02.006.014-.004.031 0 .056.014.055.027.094.031.024.003.044-.001.063 0 .039.001.101.034.125.031l4.5 1.219c4.274 1.145 8.728-1.376 9.875-5.656l2.594-9.656c.901-3.362-.601-6.695-3.313-8.563.004-.009-.001-.028 0-.031.002-.004-.004-.022 0-.031.002-.003.02-.012.031-.031.004-.011-.002-.025 0-.031.011-.019.031-.031.031-.031.002-.005-.001-.028 0-.031.011-.026.06-.087.063-.094.002-.007-.002-.026 0-.031-.001.001.008-.055 0-.031.003-.009-.005-.018 0-.031.005-.008.018-.008.031-.031.003-.005-.003-.026 0-.031.008-.023.031.001.031 0 .016-.027.009-.101.031-.156.014-.035.016-.039.031-.094.006-.02-.004-.014 0-.031.014-.056.027-.055.031-.094h-.031c.006-.021.026-.041.031-.063.001-.039.034-.101.031-.125 0 0-.029 0-.031 0 .005-.021.026-.041.031-.063 0 0 .001-.024 0-.031 1.125-4.471 1.132-9.198-.063-13.656-3.256-12.151-14.284-20.15-26.344-20.03m-24.563 35.875c.029.016.057.029.063.031.011.005-.003.03 0 .031-.004-.002-.009.001-.063-.031v-.031z" opacity=".05"/><path d="m47.781 15c-2.138.021-4.357.292-6.531.875-13.845 3.71-22.07 17.999-18.375 31.844 0 .001-.003.019 0 .031.008.027.031.061.031.063.001.003.03.091.031.094.001.003.03.091.031.094.001.003.03.091.031.094.001.003.061.091.063.094.001.003.03.091.031.094.002.002.061.06.063.063.002.002.061.091.063.094.002.002.061.091.063.094.002.002.06.06.063.063.002.002.06.06.063.063.002.002.06.061.063.063.002.002.091.061.094.063.002.002.06.061.063.063.002.002.091.061.094.063.002.001.039.017.063.031-3 1.419-4.731 4.75-3.844 8.06l2.594 9.656c.998 3.725 4.87 5.935 8.594 4.938l4.781-1.281c.001 0 .019.003.031 0 .027-.008.061-.031.063-.031.003-.001.091-.03.094-.031.003-.001.091-.03.094-.031.003-.001.091-.03.094-.031.003-.001.091-.061.094-.063.003-.001.091-.03.094-.031.002-.002.06-.061.063-.063.002-.002.091-.061.094-.063.002-.002.091-.061.094-.063.002-.002.06-.06.063-.063.002-.002.06-.06.063-.063.002-.002.061-.06.063-.063.002-.002.061-.091.063-.094.002-.002.061-.06.063-.063.002-.002.061-.091.063-.094.002-.002.061-.091.063-.094.002-.003.03-.06.031-.063.001-.003.061-.091.063-.094.001-.003.03-.091.031-.094.001-.003.03-.091.031-.094.001-.003.03-.091.031-.094.001-.003.031-.091.031-.094.001-.003-.001-.091 0-.094.001-.003.031-.091.031-.094 0-.003 0-.122 0-.125 0-.003 0-.091 0-.094 0-.003 0-.091 0-.094 0-.003 0-.091 0-.094 0-.003 0-.091 0-.094 0-.003 0-.091 0-.094 0-.003-.031-.091-.031-.094-.001-.003-.03-.122-.031-.125l-5.156-19.313c0-.001.002-.024 0-.031-.012-.039-.03-.152-.031-.156-.002-.005-.06-.151-.063-.156-.002-.005-.091-.152-.094-.156-.003-.005-.091-.152-.094-.156-.003-.004-.122-.121-.125-.125-.003-.004-.09-.121-.094-.125-.004-.004-.121-.122-.125-.125-.004-.003-.152-.122-.156-.125-.004-.003-.152-.091-.156-.094-.005-.003-.151-.06-.156-.063-.005-.002-.151-.092-.156-.094-.005-.002-.151-.03-.156-.031-.005-.001-.182-.03-.188-.031-.001 0-.021.001-.031 0 .003-.007 0-.031 0-.031.001-.003.03-.091.031-.094.001-.003.03-.091.031-.094.001-.003.03-.091.031-.094.001-.003.031-.091.031-.094.001-.003-.001-.091 0-.094.001-.003.031-.091.031-.094 0-.003 0-.122 0-.125 0-.003 0-.091 0-.094 0-.003 0-.091 0-.094 0-.003 0-.091 0-.094 0-.003 0-.091 0-.094 0-.003 0-.091 0-.094 0-.003-.031-.091-.031-.094-.001-.003-.03-.122-.031-.125-.409-1.522-.656-3.061-.656-4.656 0-9.961 8.04-18 18-18 9.961 0 18 8.04 18 18 0 1.595-.247 3.134-.656 4.656-.001.003-.031.122-.031.125-.001.003-.031.091-.031.094 0 .003 0 .091 0 .094 0 .003 0 .091 0 .094 0 .003 0 .091 0 .094 0 .003 0 .091 0 .094 0 .003 0 .091 0 .094 0 .003 0 .122 0 .125 0 .003.031.091.031.094.001.003-.001.091 0 .094.001.003.03.091.031.094.001.003.03.091.031.094.001.003.03.091.031.094.001.003.03.091.031.094 0 .001-.004.024 0 .031-.004.001-.121.03-.125.031-.004.001-.152.061-.156.063-.004.002-.121.029-.125.031-.004.002-.121.092-.125.094-.004.002-.121.06-.125.063-.004.002-.121.091-.125.094-.004.003-.122.091-.125.094-.003.003-.091.091-.094.094-.003.003-.122.122-.125.125-.003.003-.06.09-.063.094-.003.004-.091.121-.094.125-.002.004-.06.121-.063.125-.002.004-.061.152-.063.156-.002.004-.061.121-.063.125-.001.003-.021.089-.031.125v.031l-5.156 19.313c-.001.003-.031.122-.031.125-.001.003-.031.091-.031.094 0 .003 0 .091 0 .094 0 .003 0 .091 0 .094 0 .003 0 .091 0 .094 0 .003 0 .091 0 .094 0 .003 0 .091 0 .094 0 .003 0 .122 0 .125 0 .003.031.091.031.094.001.003-.001.091 0 .094.001.003.03.091.031.094.001.003.03.091.031.094.001.003.03.091.031.094.001.003.03.091.031.094.001.003.061.091.063.094.001.003.03.06.031.063.002.003.061.091.063.094.002.002.061.091.063.094.002.002.061.06.063.063.002.002.061.092.063.094.002.002.06.06.063.063.002.002.06.06.063.063.002.002.06.061.063.063.002.002.091.061.094.063.002.002.091.061.094.063.002.002.06.061.063.063.002.002.091.03.094.031.003.001.091.061.094.063.003.001.091.03.094.031.003.001.091.03.094.031.003.001.091.03.094.031.002.001.035.023.063.031.012.003.03 0 .031 0l4.781 1.281c3.723.998 7.596-1.213 8.594-4.938l2.594-9.656c.894-3.336-.864-6.694-3.906-8.094.002-.002.091-.061.094-.063.002-.002.06-.061.063-.063.002-.002.092-.061.094-.063.002-.002.06-.06.063-.063.002-.002.06-.06.063-.063.002-.002.061-.06.063-.063.002-.002.061-.091.063-.094.002-.002.061-.091.063-.094.002-.002.061-.06.063-.063.002-.002.03-.091.031-.094.001-.003.061-.091.063-.094.001-.003.03-.091.031-.094.001-.003.03-.091.031-.094.001-.003.03-.091.031-.094.001-.002.023-.035.031-.063.003-.012 0-.03 0-.031 1.174-4.402 1.179-9.07 0-13.469-3.132-11.689-13.754-19.366-25.344-19.25" opacity=".1"/><path d="m47.781 15.906c-2.067.021-4.187.283-6.281.844-13.376 3.584-21.334 17.375-17.75 30.75a1.09561 1.09561 0 0 0 1.34375 .78125l3.906-1.031a1.09561 1.09561 0 0 0 .78125 -1.34375c-.426-1.583-.688-3.217-.688-4.906 0-10.454 8.453-18.906 18.906-18.906 10.454 0 18.906 8.453 18.906 18.906 0 1.69-.262 3.323-.688 4.906a1.09561 1.09561 0 0 0 .78125 1.34375l3.906 1.031a1.09561 1.09561 0 0 0 1.34375 -.78125c1.14-4.256 1.14-8.744 0-13-3.02-11.285-13.289-18.705-24.469-18.594m-17.625 32.03125a1.09561 1.09561 0 0 0 -.1875 .03125l-4.844 1.313c-3.244.869-5.181 4.226-4.313 7.469l2.594 9.656c.869 3.244 4.226 5.181 7.469 4.313l4.813-1.281a1.09561 1.09561 0 0 0 .78125 -1.34375l-5.156-19.344a1.09561 1.09561 0 0 0 -1.15625 -.8125zm35.5625 0a1.09561 1.09561 0 0 0 -.90625 .8125l-5.156 19.344a1.09561 1.09561 0 0 0 .78125 1.34375l4.813 1.281c3.243.869 6.599-1.068 7.469-4.313l2.594-9.656c.869-3.243-1.068-6.599-4.313-7.469l-4.844-1.313a1.09561 1.09561 0 0 0 -.4375 -.03125" opacity=".15"/><path d="m47.781 17c-1.979.02-4 .276-6 .813-12.803 3.431-20.399 16.603-16.969 29.406l3.906-1.031c-.446-1.659-.719-3.387-.719-5.188 0-11.05 8.954-20 20-20 11.05 0 20 8.954 20 20 0 1.8-.273 3.528-.719 5.188l3.906 1.031c1.09-4.069 1.09-8.368 0-12.438-2.895-10.803-12.717-17.888-23.406-17.781m-17.531 32.03l-4.844 1.313c-2.676.717-4.248 3.449-3.531 6.125l2.594 9.656c.717 2.676 3.449 4.248 6.125 3.531l4.813-1.281-5.156-19.344m35.625 0l-5.156 19.344 4.813 1.281c2.676.717 5.408-.856 6.125-3.531l2.594-9.656c.717-2.676-.856-5.408-3.531-6.125l-4.844-1.313" opacity=".3"/><path d="m47.781 16c-1.979.02-4 .276-6 .813-12.803 3.431-20.399 16.603-16.969 29.406l3.906-1.031c-.446-1.659-.719-3.387-.719-5.188 0-11.05 8.954-20 20-20 11.05 0 20 8.954 20 20 0 1.8-.273 3.528-.719 5.188l3.906 1.031c1.09-4.069 1.09-8.368 0-12.438-2.895-10.803-12.717-17.888-23.406-17.781m-17.531 32.03l-4.844 1.313c-2.676.717-4.248 3.449-3.531 6.125l2.594 9.656c.717 2.676 3.449 4.248 6.125 3.531l4.813-1.281-5.156-19.344m35.625 0l-5.156 19.344 4.813 1.281c2.676.717 5.408-.856 6.125-3.531l2.594-9.656c.717-2.676-.856-5.408-3.531-6.125l-4.844-1.313" fill="#fff"/></g></svg>