<?xml version="1.0" encoding="UTF-8" standalone="no"?>
<svg
   xmlns:dc="http://purl.org/dc/elements/1.1/"
   xmlns:cc="http://creativecommons.org/ns#"
   xmlns:rdf="http://www.w3.org/1999/02/22-rdf-syntax-ns#"
   xmlns:svg="http://www.w3.org/2000/svg"
   xmlns="http://www.w3.org/2000/svg"
   xmlns:sodipodi="http://sodipodi.sourceforge.net/DTD/sodipodi-0.dtd"
   xmlns:inkscape="http://www.inkscape.org/namespaces/inkscape"
   fill="#9C27B0"
   width="48"
   height="48"
   viewBox="0 0 48 48"
   id="svg2"
   version="1.1"
   inkscape:version="0.91 r13725"
   sodipodi:docname="zperm_data_setting.svg">
  <metadata
     id="metadata10">
    <rdf:RDF>
      <cc:Work
         rdf:about="">
        <dc:format>image/svg+xml</dc:format>
        <dc:type
           rdf:resource="http://purl.org/dc/dcmitype/StillImage" />
      </cc:Work>
    </rdf:RDF>
  </metadata>
  <defs
     id="defs8" />
  <sodipodi:namedview
     pagecolor="#ffffff"
     bordercolor="#666666"
     borderopacity="1"
     objecttolerance="10"
     gridtolerance="10"
     guidetolerance="10"
     inkscape:pageopacity="0"
     inkscape:pageshadow="2"
     inkscape:window-width="1366"
     inkscape:window-height="713"
     id="namedview6"
     showgrid="false"
     inkscape:snap-bbox="true"
     inkscape:bbox-nodes="true"
     inkscape:snap-intersection-paths="true"
     inkscape:object-nodes="true"
     inkscape:snap-smooth-nodes="true"
     inkscape:object-paths="true"
     inkscape:snap-nodes="false"
     inkscape:zoom="3.47660834175105"
     inkscape:cx="13.5189530874876"
     inkscape:cy="13.46453922304914"
     inkscape:window-x="0"
     inkscape:window-y="30"
     inkscape:window-maximized="1"
     inkscape:current-layer="svg2" />
  <path
     style="fill:#9C27B0"
     d="M 24 14 C 18.47499999999994 14 14 18.47499999999999 14 24 C 14 29.51999999999999 18.47499999999994 34 24 34 C 29.52 34 34.00000000000001 29.51999999999999 34 24 C 34 18.47499999999999 29.51999999999999 13.99999999999999 24 14 z M 22.4453125 16.22265625 L 25.5546875 16.22265625 C 25.74913194444445 16.22265625 25.91167534722222 16.36744791666667 25.939453125 16.55078125 L 26.228515625 18.611328125 C 26.70073784722221 18.80577256944445 27.13936631944444 19.06584201388891 27.544921875 19.376953125 L 29.478515625 18.599609375 C 29.65629340277777 18.5329427083333 29.85507812500001 18.60091145833333 29.955078125 18.767578125 L 31.51171875 21.4609375 C 31.61171875 21.62760416666667 31.5663194444445 21.83841145833334 31.421875 21.955078125 L 29.77734375 23.244140625 C 29.8106770833333 23.48858506944447 29.833984375 23.74444444444444 29.833984375 24 C 29.833984375 24.25555555555556 29.81067708333341 24.51171875 29.77734375 24.76171875 L 31.421875 26.05078125 C 31.56631944444445 26.16744791666667 31.61171874999999 26.37825520833332 31.51171875 26.544921875 L 29.955078125 29.23828125 C 29.8606336805556 29.40494791666669 29.65629340277777 29.47291666666666 29.478515625 29.40625 L 27.5390625 28.623046875 C 27.13906250000001 28.93415798611114 26.70043402777779 29.18867187500001 26.22265625 29.388671875 L 25.93359375 31.44921875 C 25.9113715277778 31.63255208333332 25.74913194444444 31.77734374999999 25.5546875 31.77734375 L 22.4453125 31.77734375 C 22.25086805555558 31.77734375 22.08832465277777 31.63255208333336 22.060546875 31.44921875 L 21.771484375 29.388671875 C 21.29926215277778 29.19422743055556 20.86063368055556 28.93415798611115 20.455078125 28.623046875 L 18.521484375 29.400390625 C 18.34370659722223 29.4670572916666 18.14492187499999 29.39908854166666 18.044921875 29.232421875 L 16.48828125 26.5390625 C 16.38828125 26.37239583333331 16.43368055555549 26.16158854166666 16.578125 26.044921875 L 18.22265625 24.76171875 C 18.1893229166667 24.51171875 18.166015625 24.26111111111112 18.166015625 24 C 18.166015625 23.74444444444444 18.18932291666661 23.48828125 18.22265625 23.23828125 L 16.578125 21.955078125 C 16.43368055555555 21.83841145833334 16.38828125000002 21.62760416666667 16.48828125 21.4609375 L 18.044921875 18.767578125 C 18.144921875 18.60091145833333 18.34370659722223 18.53294270833335 18.521484375 18.599609375 L 20.455078125 19.376953125 C 20.855078125 19.07139756944446 21.29370659722222 18.81132812500001 21.771484375 18.611328125 L 22.060546875 16.55078125 C 22.0883246527778 16.36744791666667 22.25086805555555 16.22265625 22.4453125 16.22265625 z "
     id="path4230" />
  <g
     style="fill:#9C27B0"
     id="g4148"
     transform="matrix(1.25,0,0,1.25,-6,-6)">
    <path
       d="M 4 4 L 4 14 L 14 14 L 14 4 L 4 4 z M 19 4 L 19 12.064453125 A 12.70694541931152 13 0 0 1 24 11 A 12.70694541931152 13 0 0 1 29 12.05078125 L 29 4 L 19 4 z M 34 4 L 34 14 L 44 14 L 44 4 L 34 4 z M 4 19 L 4 29 L 12.283203125 29 A 12.70694541931152 13 0 0 1 11.29296875 24 A 12.70694541931152 13 0 0 1 12.275390625 19 L 4 19 z M 35.716796875 19 A 12.70694541931152 13 0 0 1 36.70703125 24 A 12.70694541931152 13 0 0 1 35.724609375 29 L 44 29 L 44 19 L 35.716796875 19 z M 4 34 L 4 44 L 14 44 L 14 34 L 4 34 z M 34 34 L 34 44 L 44 44 L 44 34 L 34 34 z M 29 35.935546875 A 12.70694541931152 13 0 0 1 24 37 A 12.70694541931152 13 0 0 1 19 35.94921875 L 19 44 L 29 44 L 29 35.935546875 z "
       transform="matrix(0.8,0,0,0.8,4.800000000000001,4.800000000000001)"
       id="path4140" />
  </g>
  <g
     id="g4164"
     transform="translate(39.22999023038008,10.73675247430508)">
    <path
       id="path4153"
       d="m 45.41,38.98000000000001 c 0.04,-0.32 0.07,-0.64 0.07,-0.97999999999999 0,-0.32999999999999 -0.03,-0.65999999999999 -0.07,-0.97999999999999 l 2.11000000000001,-1.64999999999999 c 0.19,-0.15 0.23999999999999,-0.42000000000001 0.12,-0.64000000000001 l -2,-3.46000000000001 c -0.12,-0.22 -0.39,-0.3 -0.61,-0.22 L 42.54,32.05000000000003 c -0.52,-0.4 -1.07999999999999,-0.73000000000001 -1.68999999999999,-0.98000000000001 l -0.37,-2.64999999999999 c -0.04,-0.24 -0.25,-0.42000000000001 -0.5,-0.42000000000001 l -4,0 c -0.25,0 -0.45999999999998,0.18 -0.48999999999998,0.42000000000001 l -0.36999999999999,2.64999999999999 c -0.61,0.25 -1.16999999999999,0.59 -1.69,0.98000000000001 l -2.49000000000002,-1.00000000000001 c -0.23,-0.09 -0.48999999999999,0 -0.60999999999998,0.22 l -2,3.46000000000001 c -0.13,0.22 -0.07,0.49000000000001 0.12,0.64000000000001 l 2.11,1.64999999999999 c -0.04,0.32 -0.07,0.65000000000002 -0.07,0.97999999999999 0,0.33000000000002 0.03,0.65999999999999 0.07,0.97999999999999 L 28.45,40.63 c -0.19,0.15 -0.24,0.42000000000001 -0.12,0.64000000000001 l 2,3.46 C 30.46,44.95 30.72,45.03 30.94,44.95 l 2.49,-1 c 0.52,0.4 1.08,0.73 1.69,0.98 l 0.37,2.65 C 35.53,47.82 35.74,48 35.98,48 l 4,0 c 0.25,0 0.45,-0.18 0.49,-0.42 l 0.37,-2.65 C 41.45,44.68 42.01,44.34000000000001 42.53,43.95 l 2.49000000000001,1 C 45.25,45.04000000000002 45.50999999999999,44.95 45.63,44.73000000000001 l 2,-3.46 C 47.76,41.05000000000001 47.7,40.78 47.51,40.63 l -2.1,-1.64999999999999 z"
       inkscape:connector-curvature="0" />
    <path
       id="path4"
       d="m 37.98,41 c -1.66,0 -3,-1.34 -3,-3 0,-1.65999999999999 1.34,-3 3,-3 1.66,0 3,1.34000000000001 3,3 0,1.66 -1.34,3 -3,3 z"
       inkscape:connector-curvature="0" />
  </g>
  <path
     d="m 102.2455516197797,17.16400322345763 c -0.25,0 -0.460234375,0.17992187499999 -0.490234375,0.419921875 l -0.37109375,2.650390625 c -0.61,0.25 -1.169453125,0.59046874999999 -1.689453125,0.98046875 l -2.490234375,-1 c -0.22999999999999,-0.09 -0.48937500000001,-0.00125 -0.609375,0.21875 l -1.99999999999997,3.4609375 c -0.13000000000001,0.21999999999999 -0.070859375,0.488671875 0.119140625,0.638671875 l 2.11132812499997,1.650390625 c -0.04,0.32 -0.0703125,0.65046875 -0.0703125,0.98046875 0,0.33000000000001 0.0303125,0.66046875000001 0.0703125,0.98046875 l -2.11132812499997,1.650390625 c -0.19,0.14999999999999 -0.23914062500002,0.418671875 -0.119140625,0.638671875 l 1.99999999999997,3.4609375 c 0.13000000000001,0.21999999999999 0.389375,0.29874999999996 0.609375,0.21875 l 2.490234375,-1 c 0.52,0.40000000000001 1.079453125,0.73046875000002 1.689453125,0.98046875 l 0.37109375,2.650390625 c 0.04,0.24 0.250234375,0.419921875 0.490234375,0.419921875 l 4,0 c 0.25,0 0.450234375,-0.17992187500001 0.490234375,-0.419921875 l 0.369140625,-2.650390625 c 0.61,-0.25 1.169453125,-0.59046875 1.689453125,-0.98046875 l 2.490234375,1 c 0.23,0.09 0.491328125,0.00125 0.611328125,-0.21875 l 2,-3.4609375 c 0.13,-0.22 0.06890625,-0.488671875 -0.12109375,-0.638671875 l -2.099609375,-1.650390625 c 0.04,-0.32 0.0703125,-0.64046875000002 0.0703125,-0.98046875 0,-0.33 -0.0303125,-0.66046875 -0.0703125,-0.98046875 l 2.109375,-1.650390625 c 0.19,-0.15 0.24109375,-0.41867187500001 0.12109375,-0.638671875 l -2,-3.4609375 c -0.12,-0.22 -0.391328125,-0.29875 -0.611328125,-0.21875 l -2.490234375,1 c -0.52,-0.4 -1.079453125,-0.73046875 -1.689453125,-0.98046875 l -0.369140625,-2.650390625 c -0.04,-0.24000000000001 -0.25,-0.419921875 -0.5,-0.419921875 l -4,0 z"
     id="path4170"
     style="stroke:#000000;stroke-width:6;stroke-miterlimit:4;stroke-dasharray:none;stroke-opacity:1"
     inkscape:connector-curvature="0" />
  <g
     style="fill:#9C27B0"
     id="g4197"
     transform="matrix(0.5,0,0,0.5,34.14802256420339,74.91715449911865)">
    <path
       id="path4189"
       d="M 24,34.54 36.36,42 33.09000000000001,27.94 44,18.49 29.62,17.25 24,4 18.38,17.25 4,18.49 14.91,27.94 11.64,42 Z"
       inkscape:connector-curvature="0" />
  </g>
  <path
     style="fill:#9C27B0"
     d="m 99.66189730305086,-26.80151139552544 -5,-5 1.41500000000001,-1.415 3.58499999999999,3.58500000000002 7.58500000000004,-7.58500000000002 1.415,1.415 -9.00000000000004,9 z"
     id="path4203" />
  <path
     style="fill:#9C27B0"
     d="m 24.00000000000001,21.77777777777777 c -1.22777777777779,0 -2.22222222222224,0.99444444444445 -2.22222222222224,2.22222222222221 0,1.22777777777779 0.99444444444445,2.22222222222223 2.22222222222224,2.22222222222223 1.22777777777777,0 2.22222222222221,-0.99444444444444 2.22222222222221,-2.22222222222223 0,-1.22777777777776 -0.99444444444444,-2.22222222222221 -2.22222222222221,-2.22222222222221 z"
     id="path4237"
     inkscape:connector-curvature="0" />
</svg>
