<?xml version="1.0" encoding="UTF-8" standalone="no"?>
<svg
   xmlns:dc="http://purl.org/dc/elements/1.1/"
   xmlns:cc="http://creativecommons.org/ns#"
   xmlns:rdf="http://www.w3.org/1999/02/22-rdf-syntax-ns#"
   xmlns:svg="http://www.w3.org/2000/svg"
   xmlns="http://www.w3.org/2000/svg"
   xmlns:sodipodi="http://sodipodi.sourceforge.net/DTD/sodipodi-0.dtd"
   xmlns:inkscape="http://www.inkscape.org/namespaces/inkscape"
   fill="#9C27B0"
   width="48"
   height="48"
   viewBox="0 0 48 48"
   id="svg2"
   version="1.1"
   inkscape:version="0.91 r13725"
   sodipodi:docname="preferences-desktop-theme.svg">
  <metadata
     id="metadata10">
    <rdf:RDF>
      <cc:Work
         rdf:about="">
        <dc:format>image/svg+xml</dc:format>
        <dc:type
           rdf:resource="http://purl.org/dc/dcmitype/StillImage" />
      </cc:Work>
    </rdf:RDF>
  </metadata>
  <defs
     id="defs8" />
  <sodipodi:namedview
     pagecolor="#ffffff"
     bordercolor="#666666"
     borderopacity="1"
     objecttolerance="10"
     gridtolerance="10"
     guidetolerance="10"
     inkscape:pageopacity="0"
     inkscape:pageshadow="2"
     inkscape:window-width="1366"
     inkscape:window-height="713"
     id="namedview6"
     showgrid="false"
     inkscape:zoom="10.73600260416667"
     inkscape:cx="24"
     inkscape:cy="23.99999999999999"
     inkscape:window-x="0"
     inkscape:window-y="30"
     inkscape:window-maximized="1"
     inkscape:current-layer="svg2" />
  <path
     d="M 8 8 C 5.79 8 4.000000000000001 9.789999999999999 4 12 L 4 32 C 4 34.21 5.790000000000001 36 8 36 L 0 36 L 0 40 L 48 40 L 48 36 L 40 36 C 42.21 36 43.98046874999999 34.21 43.98046875 32 L 44 12 C 44 9.789999999999999 42.21 8 40 8 L 8 8 z M 8 12 L 40 12 L 40 32 L 8 32 L 8 12 z "
     id="path4154" />
  <g
     style="fill:#9C27B0"
     id="g4148"
     transform="matrix(0.4445061814140854,0,0,0.4445061814140853,13.9002374756686,11.43655888216992)">
    <path
       id="path4140"
       d="M 14,28 C 10.69,28 8,30.69 8,34 8,36.62 5.690000000000003,38 4,38 5.84,40.44 8.99,42 12,42 c 4.42,0 8,-3.58 8,-8 0,-3.31 -2.69,-6 -6,-6 z M 41.41,9.259999999999999 38.74,6.59 C 37.96,5.81 36.69,5.81 35.91,6.59 L 18,24.5 23.5,30 41.41,12.09 C 42.2,11.3 42.2,10.04 41.41,9.259999999999999 Z"
       inkscape:connector-curvature="0" />
  </g>
</svg>
