<svg xmlns="http://www.w3.org/2000/svg" fill="#2196F3" viewBox="0 0 48 48"><defs><clipPath id="0"><path d="m72.37 38.09h8.824v8.01h-8.824z"/></clipPath></defs><path d="m36 14h-28c-3.31 0-6 2.69-6 6v12h8v8h24v-8h8v-12c0-3.31-2.69-6-6-6m-6 22h-16v-10h16v10m6-14c-1.11 0-2-.89-2-2 0-1.11.89-2 2-2 1.11 0 2 .89 2 2 0 1.11-.89 2-2 2m-2-18h-24v8h24v-8"/><path d="m79.06 37.898l-2.585 2.585-2.585-2.585-1.415 1.415 2.585 2.585-2.585 2.585 1.415 1.415 2.585-2.585 2.585 2.585 1.415-1.415-2.585-2.585 2.585-2.585-1.415-1.415m-2.585-6c-5.525 0-10 4.475-10 10 0 5.525 4.475 10 10 10 5.525 0 10-4.475 10-10 0-5.525-4.475-10-10-10zm0 18c-4.41 0-8-3.59-8-8 0-4.41 3.59-8 8-8 4.41 0 8 3.59 8 8 0 4.41-3.59 8-8 8" clip-path="url(#0)" transform="matrix(1.49866 0 0 1.49866-72.45-23.09)" fill="#f44336"/></svg>