<svg fill="#bdbdbd" height="48" viewBox="0 0 48 48" width="48" xmlns="http://www.w3.org/2000/svg"><path d="m8.005 40.5v7.5h7.5l22.13-22.13-7.5-7.5zm35.41-20.41c.78-.78.78-2.05 0-2.83l-4.67-4.67c-.78-.78-2.05-.78-2.83 0l-3.66 3.66 7.5 7.5zm-35.415-20.09c-2.21 0-3.980469 1.79-3.980469 4l-.019531 32c0 1.300526.623259 2.443385 1.578125 3.173828l7.173828-7.173828h-.751953v-4h4.753906l4-4h-8.753906v-4h12.753906l5.626953-5.626953.373047-.373047h-8.753906v-11l9.876953 9.876953 2.5-2.5-10.376953-10.376953zm28 31.255859-8.744141 8.744141h4.744141c2.21 0 4-1.79 4-4z" fill="#bdbdbd"/></svg>