<svg height="48" viewBox="0 0 48 40" width="48" xmlns="http://www.w3.org/2000/svg"><path d="m10 6c-2.21 0-4 1.79-4 4v26.291016c1.200945-1.057788 3.471055-3.135561 6.044922-5.591797-1.009037-.595339-1.921115-1.283759-2.736328-2.082031-.957752-.93785-1.359384-2.086655-1.3125-3.326172-.007811-.163632-.008634-.328674 0-.496094-.200506-5.788338 9.943322-14.044036 18.857422-13.789063.342156.009787.679709.030909 1.017578.066407 1.732917.182066 2.397404.920447 2.289062 2.029297.00093.008988.003107.016338.003907.02539.000978.010733.00311.022381.003906.033203.000664.009398.001426.017879.001953.027344.006938.117521.004013.239595-.009766.367188.294013 3.135006-7.243052 10.089909-13.976562 15.646484 2.760744 1.29558 6.520822 1.485003 8.767578 1.210937 7.687993-1.206958 17.048828-6.240234 17.048828-6.240234v-14.171875c0-2.21-1.79-4-4-4zm16.175781 5.429688c-.029771.000548-.060052.003176-.089843.003906.15919-.002779.317869-.002529.476562 0-.128881-.001075-.257412-.00629-.386719-.003906zm2.628907.255859c.022568.006916.042481.016215.064453.023437.013797.004558.029406.007042.042968.011719-.035038-.012185-.070798-.023786-.107421-.035156zm.392578.150391c.026341.012352.049009.028086.074218.041015.006931.003571.014639.006151.021485.009766-.031568-.016794-.062301-.034923-.095703-.050781zm-3.746094 2.279296c.024663.006404.045439.013805.068359.021485-.015727-.005255-.026413-.012922-.042968-.017578-.007686-.002162-.017527-.001875-.025391-.003907zm.201172.078125c.020558.010942.039948.022826.058594.035157-.007177-.004755-.010115-.01303-.017579-.017578-.004415-.002723-.009154-.005164-.013671-.007813-.007595-.004402-.019464-.005569-.027344-.009766zm-.966797.291016c-2.779599.028236-8.206873 1.778055-10.716797 6.511719-.784031 1.478667-1.158117 2.759671-1.230469 3.867187.123893 1.434819.820024 2.534048 1.845703 3.365235 5.151892-5.054972 10.61681-10.853239 11.333985-13.347657-.111409-.21773-.340268-.348527-.712891-.378906-.160115-.013054-.334225-.01946-.519531-.017578zm-8.503906.101563c-.014594.008817-.030352.016546-.044922.02539.00298-.001809.006784-.002098.009765-.003906.011592-.007039.02355-.014463.035157-.021484zm9.554687 1.185546c-.037901.086845-.07318.173223-.11914.265625.017487-.035179.036406-.073041.052734-.107421.000694-.001468.001261-.00244.001953-.003907.025601-.054211.041778-.102113.064453-.154297zm-.6875 1.246094c-.047519.07323-.098342.147644-.148437.222656.030162-.045174.068614-.094249.097656-.138671.018536-.028461.03271-.055838.050781-.083985zm-12.36914.13086c-.042924.037926-.084478.077115-.126954.115234.006878-.006179.014596-.011404.021485-.017578.035696-.031948.069457-.065845.105469-.097656zm8.044921 5.195312c-.47875.523966-.983989 1.061986-1.496093 1.601563.242825-.255759.482657-.510851.71875-.763672.232351-.249069.468731-.49887.693359-.744141.029334-.031998.054794-.061826.083984-.09375zm-12.541015 1.271484c-.01052.041374-.021578.083765-.03125.125.004436-.018853.011011-.037758.015625-.05664.005453-.022409.009922-.045911.015625-.06836zm4.625.154297c-.005006.029909-.012997.062119-.017578.091797-.006677.043026-.007878.08441-.013672.126953.009777-.071946.018946-.145417.03125-.21875zm-4.744141.419922c-.010062.062831-.017434.125078-.02539.1875.003015-.02352.008402-.048686.011718-.072265.005445-.038964.007413-.076115.013672-.115235zm33.935547 1.294922-.005859 3.46875h.005859zm-24.464844.212891c-.139296.142263-.273888.283565-.414062.425781.100488-.101894.198777-.202763.298828-.304688.039575-.040346.075736-.080748.115234-.121093zm-4.535156.796875c.006838.018902.012461.037885.019531.05664.032402.08602.068298.170937.105469.253907.019976.044525.041182.087205.0625.130859-.069283-.143008-.132883-.288983-.1875-.441406zm.234375.533203c.034357.066574.068041.134688.105469.199219.034333.059078.070583.116445.107422.173828-.076669-.120206-.147389-.245366-.212891-.373047zm.605469.902344c.016345.019214.030229.039599.046875.058593.061224.069736.128207.136309.193359.203125-.082692-.085044-.164007-.17192-.240234-.261718zm.365234.390625c.005851.005631.009747.011967.015625.017578.116155.110714.23679.217807.363281.320312-.132842-.107652-.257693-.221114-.378906-.33789zm27.794922 1.851562c-13.093617 3.73165-22.39187 4.083751-28.541016 1.257813-4.156405 3.317763-7.458984 5.71875-7.458984 5.71875v.851562c0 2.21 1.79 4 4 4h28c2.21 0 4-1.79 4-4z" fill="#d41818" transform="translate(0 -4)"/></svg>