<?xml version="1.0" encoding="UTF-8" standalone="no"?>
<svg
   xmlns:dc="http://purl.org/dc/elements/1.1/"
   xmlns:cc="http://creativecommons.org/ns#"
   xmlns:rdf="http://www.w3.org/1999/02/22-rdf-syntax-ns#"
   xmlns:svg="http://www.w3.org/2000/svg"
   xmlns="http://www.w3.org/2000/svg"
   xmlns:xlink="http://www.w3.org/1999/xlink"
   xmlns:sodipodi="http://sodipodi.sourceforge.net/DTD/sodipodi-0.dtd"
   xmlns:inkscape="http://www.inkscape.org/namespaces/inkscape"
   width="48"
   height="48"
   viewBox="0 0 48 48"
   id="svg2"
   version="1.1"
   inkscape:version="0.91 r13725"
   sodipodi:docname="thunar.svg"
   style="fill:#263238">
  <metadata
     id="metadata10">
    <rdf:RDF>
      <cc:Work
         rdf:about="">
        <dc:format>image/svg+xml</dc:format>
        <dc:type
           rdf:resource="http://purl.org/dc/dcmitype/StillImage" />
        <dc:title />
      </cc:Work>
    </rdf:RDF>
  </metadata>
  <defs
     id="defs8">
    <linearGradient
       id="linearGradient2415"
       inkscape:collect="always">
      <stop
         id="stop2417"
         offset="0"
         style="stop-color:#eeeeec;stop-opacity:1;" />
      <stop
         id="stop2419"
         offset="1"
         style="stop-color:#eeeeec;stop-opacity:0;" />
    </linearGradient>
    <linearGradient
       gradientTransform="translate(-110.1118849005537,-10.69760855389823)"
       y2="15.22452"
       x2="29"
       y1="-0.025480289"
       x1="21.664345"
       gradientUnits="userSpaceOnUse"
       id="linearGradient2498"
       xlink:href="#linearGradient2415"
       inkscape:collect="always" />
  </defs>
  <sodipodi:namedview
     pagecolor="#ffffff"
     bordercolor="#666666"
     borderopacity="1"
     objecttolerance="10"
     gridtolerance="10"
     guidetolerance="10"
     inkscape:pageopacity="0"
     inkscape:pageshadow="2"
     inkscape:window-width="1366"
     inkscape:window-height="713"
     id="namedview6"
     showgrid="false"
     inkscape:zoom="3.187504786226558"
     inkscape:cx="6.151797657353725"
     inkscape:cy="18.87497341931468"
     inkscape:window-x="0"
     inkscape:window-y="31"
     inkscape:window-maximized="1"
     inkscape:current-layer="svg2"
     fit-margin-top="0"
     fit-margin-left="0"
     fit-margin-right="0"
     fit-margin-bottom="0"
     inkscape:snap-page="true"
     inkscape:snap-bbox="true"
     inkscape:bbox-nodes="true"
     showguides="false"
     inkscape:object-paths="true"
     inkscape:snap-intersection-paths="true"
     inkscape:snap-smooth-nodes="true"
     inkscape:snap-midpoints="true"
     inkscape:object-nodes="true"
     inkscape:snap-nodes="false" />
  <path
     style="opacity:1;fill:#263238;fill-opacity:1;fill-rule:nonzero;stroke:none;stroke-width:0.5;stroke-miterlimit:4;stroke-dasharray:none;stroke-opacity:1"
     d="m 12,6 c -2.216000000000003,9e-16 -4,1.783999999999999 -4,4 l 0,12 c 0,2.216 1.783999999999997,4 4,4 l 8,0 0,12 0,2 c 0,1.108 0.892,2 2,2 l 4,0 c 1.108,0 2,-0.892 2,-2 l 0,-4 0,-10 8,0 c 2.216,0 4,-1.784 4,-4 L 40,10 C 40,7.784000000000001 38.216,6 36,6 L 12,6 Z"
     id="path4215" />
  <path
     style="opacity:1;fill:#212121;fill-opacity:1;fill-rule:nonzero;stroke:none;stroke-width:0.5;stroke-miterlimit:4;stroke-dasharray:none;stroke-opacity:1"
     d="m 36,10.369140625 -1.05859375,1.111328125 c -1.10646095857296,1.16272659093486 -1.95497470815114,2.65371707875261 -3.279296875,4.400390625 -0.78968115997833,1.04152320422942 -2.09185705968397,1.86015834439781 -3.72265625,2.501953125 0,0 0.171825309995,1.84310827422341 -0.39453125,3.2734375 -0.60700738072355,1.53298921046522 -2.07683535640134,2.44812352748411 -2.580078125,3.541015625 L 24.59375,26 23.896484375,25.408203125 c -0.61627987833831,-0.52188601194148 -2.11685187545453,-1.43260311156088 -3.119140625,-2.9375 -0.63187875784512,-0.9487395447494 -0.84182746635542,-2.24280253965927 -0.75,-3.685546875 C 18.33132507223704,18.30554401140512 16.95590827591868,17.59380145974429 16.080078125,16.595703125 14.6132072394509,14.9240513070199 13.95450203983082,12.96607252076561 12.890625,11.701171875 L 12,10.6484375 l 1.416015625,0.044921875 c 2.40848744208213,0.07894235906 5.00952313688098,0.0133564680353 7.4296875,0.603515625 0.62851442380218,0.15326174608469 1.2066753417493,0.3999360738335 1.78515625,0.693359375 -0.68838204442707,0.44108357711423 -1.11670748504786,0.8910277237827 -1.3828125,1.24609375 -0.005430199777,0.007246462196 -0.74109949445993,-0.35184170474701 -1.1484375,-0.451171875 -1.77340898216779,-0.4324457092045 -2.62031849477374,-0.02638818642 -4.6171875,-0.080078125 0.80708966351853,1.27615802080503 0.67257914183996,1.99973723109299 1.630859375,3.091796875 0.72755781577851,0.82912777747997 2.4816449235495,1.34330953206581 4.0546875,1.87109375 1.57304257645059,0.5277840851665 3.91213821016519,0.24483170814926 4.20703125,0.1796875 l -0.05078125,1.294921875 c -0.38982196014614,0.0882459243214 -0.82977150741392,0.16069899776501 -1.318359375,0.185546875 -1.46576360275831,0.0745441627759 -2.29062147374636,-0.26806571847363 -2.38671875,-0.310546875 -0.0560624977492,1.11679692563064 0.20380275036576,2.07939327629358 0.701171875,2.826171875 0.6214976497624,0.93315394201468 2.07853746256728,1.57296568915948 2.255859375,1.6484375 0.69997266644551,-1.04563342732734 1.34106583375857,-1.30370690503704 1.814453125,-2.404296875 0.28698937742064,-0.66723214651713 0.82107755421804,-1.66930988672918 0.060546875,-4.041015625 -0.47368867396748,-1.47719636395665 -1.08426832385923,-1.83453382850733 -1.70703125,-2.224609375 l 1.15625,-0.8828125 c 0.37229662101172,0.24971351215263 0.79569169439943,0.60283954914116 1.138671875,1.0390625 0.86089112698386,1.09493140970608 0.80172599703009,2.07830868906857 0.791015625,2.1953125 0,0 1.6227623828823,-1.23643952087769 2.2890625,-2.115234375 0.86411074421112,-1.13968740835918 1.18041190447613,-1.88226591740013 1.982421875,-3.119140625 -1.77969951677521,0.10897308980855 -2.93917325998001,-0.29981699979371 -4.845703125,0.28515625 -0.51557025146705,0.15819008387768 -1.5902660648008,0.80652058852383 -2.8671875,1.91015625 -1.27692010752184,1.10363698915334 -1.90890190653775,1.78435034474906 -2.240234375,2.50390625 l -1.642578125,-0.38671875 c 0.019098636625,-0.045966840266 1.91650968396346,-3.35765728973718 3.8203125,-4.22265625 1.90380547139098,-0.86499630490836 8.06996563719848,-1.47698918874524 10.05859375,-1.578125 L 36,10.369140625 Z"
     id="rect4141" />
  <path
     inkscape:connector-curvature="0"
     sodipodi:nodetypes="csczczc"
     id="path2534"
     d="m -93.7600409005537,3.626430446101772 c 1.648156,-2.324039000000001 1.648156,-6.324039000000001 7.648156,-6.324039000000001 6,0 6,4 8,6 -3,0 -8,0 -10,-4 -2,-4.0000000000000008 1,-6.0000000000000008 2,-7.0000000000000008 1,2 4,3 2,7.0000000000000008 -2,4 -6,4 -9.648156,4.324038999999999 z"
     style="display:none;fill:none;fill-opacity:1;fill-rule:evenodd;stroke:url(#linearGradient2498);stroke-width:1px;stroke-linecap:butt;stroke-linejoin:miter;stroke-opacity:1"
     sodipodi:insensitive="true" />
  <path
     style="opacity:1;fill:#212121;fill-opacity:1;fill-rule:nonzero;stroke:none;stroke-width:0.5;stroke-miterlimit:4;stroke-dasharray:none;stroke-opacity:1"
     d="M 20,26.876953125 20,31.37890625 28,36 28,31.49609375 20,26.876953125 Z"
     id="path4146"
     inkscape:connector-curvature="0" />
  <rect
     transform="matrix(6.123233995736766e-17,-1,1,6.123233995736766e-17,0,0)"
     y="12.04988384246826"
     x="-35.95011520385742"
     height="15.90023326873779"
     width="3.900233507156372"
     id="rect4211"
     style="opacity:1;fill:#212121;fill-opacity:1;fill-rule:nonzero;stroke:#212121;stroke-width:0.0997664705;stroke-miterlimit:4;stroke-dasharray:none;stroke-opacity:1" />
</svg>
