<svg xmlns="http://www.w3.org/2000/svg" viewBox="0 0 48 48" fill="#607D8B"><defs><filter color-interpolation-filters="sRGB"><feGaussianBlur stdDeviation="1.71"/></filter><linearGradient gradientTransform="scale(1.0059.99417)" gradientUnits="userSpaceOnUse" y2="7.02" x2="0" y1="92.54"><stop/><stop offset="1" stop-opacity=".588"/></linearGradient></defs><path d="m35.12 10.1v5.595c-5.586.098-6.959 5.546-6.959 5.546h4.213v5.595h-6.533c-3.929 12.12-12.971 11.04-12.971 11.04v-5.595c0 0 5.737 1.064 8.663-9.619 3.659-13.364 13.586-12.564 13.586-12.564m-25.12-4.104c-2.21 0-4 1.79-4 4v28c0 2.21 1.79 4 4 4h28c2.21 0 4-1.79 4-4v-28c0-2.21-1.79-4-4-4h-28" fill="#d41818"/></svg>