<svg height="48" width="48" xmlns="http://www.w3.org/2000/svg"><path d="m19.217342 16.032033-5.945298-4.9334-2.5439 1.660955v-1.862248l8.489199-5.090946 8.489485 5.090946v1.862248l-2.543614-1.660955-5.94587 4.9334zm14.382658 11.030011-8.471757 5.531561-5.928143-4.947982 8.542095-5.274512 5.857804 4.690933zm-14.399986-9.965444 5.928143-4.948268 8.471757 5.531561-5.857804 4.691219-8.542095-5.274512zm-14.399986.583293 8.472043-5.531561 5.927857 4.948268-8.542095 5.274512-5.857804-4.691219zm8.472015 14.913627-8.472043-5.531561 5.857804-4.690933 8.542095 5.274512-5.927857 4.947982z" fill="#f44336" transform="matrix(1.25 0 0 -1.25 0 48)"/></svg>