<?xml version="1.0" encoding="UTF-8" standalone="no"?>
<svg
   xmlns:dc="http://purl.org/dc/elements/1.1/"
   xmlns:cc="http://creativecommons.org/ns#"
   xmlns:rdf="http://www.w3.org/1999/02/22-rdf-syntax-ns#"
   xmlns:svg="http://www.w3.org/2000/svg"
   xmlns="http://www.w3.org/2000/svg"
   xmlns:sodipodi="http://sodipodi.sourceforge.net/DTD/sodipodi-0.dtd"
   xmlns:inkscape="http://www.inkscape.org/namespaces/inkscape"
   viewBox="0 0 47.99999913727135 48.00000115230691"
   id="svg2"
   version="1.1"
   inkscape:version="0.91 r13725"
   sodipodi:docname="qtdesigner.svg"
   width="48"
   height="48">
  <metadata
     id="metadata18">
    <rdf:RDF>
      <cc:Work
         rdf:about="">
        <dc:format>image/svg+xml</dc:format>
        <dc:type
           rdf:resource="http://purl.org/dc/dcmitype/StillImage" />
        <dc:title />
      </cc:Work>
    </rdf:RDF>
  </metadata>
  <defs
     id="defs16" />
  <sodipodi:namedview
     pagecolor="#ffffff"
     bordercolor="#666666"
     borderopacity="1"
     objecttolerance="10"
     gridtolerance="10"
     guidetolerance="10"
     inkscape:pageopacity="0"
     inkscape:pageshadow="2"
     inkscape:window-width="1366"
     inkscape:window-height="713"
     id="namedview14"
     showgrid="false"
     inkscape:snap-bbox="true"
     inkscape:bbox-nodes="true"
     inkscape:snap-page="true"
     inkscape:zoom="5.519462097795827"
     inkscape:cx="37.79289383243665"
     inkscape:cy="3.036781429753262"
     inkscape:window-x="0"
     inkscape:window-y="31"
     inkscape:window-maximized="1"
     inkscape:current-layer="svg2" />
  <g
     id="g4160"
     transform="matrix(0.0799857243326652,0,0,0.0799617782699869,3.999760042827006,4.000879579561002)">
    <path
       id="path4"
       d="M 57.42,0 C 55.381,0 53.359,0.112 51.36,0.328 49.384,0.5129999999999999 47.538,0.816 45.714,1.23 41.801,2.062 38.013,3.307 34.407,4.923 33.734,5.225 33.069,5.541000000000003 32.409,5.868000000000002 c -0.042,0.021 -0.085,0.038 -0.127,0.059 -0.549,0.255999999999995 -1.081,0.516 -1.57600000000001,0.779 -0.638,0.339 -1.297,0.737 -1.96699999999999,1.16 -0.098,0.058 -0.197,0.117 -0.29500000000001,0.175999999999997 -0.122,0.074 -0.24599999999999,0.143999999999998 -0.367,0.218999999999999 C 20.12199999999999,13.123 13.396,19.951 8.674999999999993,28.261 c -0.234999999999999,0.404 -0.458,0.817 -0.686,1.229 -0.260999999999997,0.473 -0.521999999999998,0.946 -0.771,1.428 -0.497999999999998,0.915 -0.966999999999999,1.848 -1.41,2.799 -1.396999999999998,2.58 -2.458000000000001,4.415 -3.264,8.193 l -2.0099999999999997,5.588 -0.02,16.84999999999999 c -0.182,8.99300000000001 -0.297,22.56500000000001 -0.367,44.02000000000001 0,0.036 0,0.093 0,0.129 -0.17099999999999999,34.381 -0.11399999999999999,86.32 -0.11299999999999998,166.23 0,0.376 0,0.608 0,0.984 0,0.894 0,1.457 0,2.357 l 0,195.32 -0.031,26.777 0.004,0 0,0.063 1.223000000000000087,-0.229 c 0,0 0.002,0.002 0.002,0.002 0.001,0 0.05,-0.008 0.051,-0.008 0.001,0 0.001,0.004 0.002,0.004 0.012,0 0.257,-0.039 0.281,-0.041 0.038,0.025 0.076,0.045 0.115,0.045 C 3.037999999999994,500.001 226.311,462.6010000000001 320.121,446.651 c 9.951,-1.691 16.84,-2.944 22.04,-4.254 1.897,-0.407 3.251,-0.73 3.873,-0.934 0.315,-0.103 0.669,-0.241 1.053,-0.404 0.022,-0.008 0.085,-0.022 0.104,-0.029 0.64,-0.243 1.275,-0.514 1.906,-0.799 4.23,-1.692 7.154,-3.798 10.561,-6.998 1.052,-0.941 2.072,-1.953 3.07,-3.01 6.707,-6.82 12.5989999999998,-17.191 15.666,-27.449 0.091,-0.261 0.1949999999998,-0.516 0.283,-0.777 0.121,-0.357 0.23,-0.74 0.336,-1.168 l 1.521,-4.332 0.02,-12.971 c 0.161,-6.385 0.265,-16.14 0.336,-29.797 0.008,-1.505 0.02,-2.402 0.027,-4.02 0,-0.076 0.002,-0.113 0.002,-0.189 0,-0.004 0,-0.01 0,-0.014 0.019,-4.434 0.028,-10.606 0.041,-15.953 0.016,-4.03 0.025,-9.01 0.035,-13.531 C 380.996,319.652 380.996,319.434 380.997,319.061 c 9.9999999998e-4,-0.414 -0.001,-1.267 0,-1.686 0,-0.247 0,-0.564 0,-0.813 0.046,-24.05 0.038,-53.938 0.037,-94.21 l 0,-0.441 0,-0.059 0,-1.318 c 0,-0.504 0,-0.921 0,-1.424 l 0,-145.15000000000003 L 381.071,52.44 l -0.004,0 0,-0.25999999999999 0,-0.02 -0.033,-0.008 0,-0.121 -2.25,-0.52000000000002 C 376.795,51.051 272.7439999999999,33.95100000000001 116.774,8.451 c -10.347,-1.691999999999997 -19.47300000000005,-3.132999999999996 -27.46500000000006,-4.352 C 87.78199999999992,3.851 83.49399999999994,3.148 82.24899999999992,2.947 c -8.402,-1.36 -14.777,-2.2099999999999999 -19.99399999999997,-2.5979999999999998 -0.035,-0.004 -0.237,-0.035 -0.26400000000001,-0.037 -0.27800000000001,-0.024 -0.55599999999999,-0.039 -0.83400000000001,-0.059 -0.67699999999999,-0.065 -1.384,-0.137 -1.914,-0.17600000000000004 -0.11699999999999,-0.011 -0.164,-0.01 -0.268,-0.02 -0.189,-0.013 -0.393,-0.028 -0.561,-0.037 -0.147,-0.008 -0.387,-0.031 -0.484,-0.031 -0.096,0 -0.191,0.005 -0.287,0.006 -0.012,0 -0.058,-0.006 -0.068,-0.006 -0.03,0 -0.062,0.002 -0.092,0.002 -0.019,0 -0.05,-0.002 -0.068,-0.002"
       inkscape:connector-curvature="0"
       style="fill:#80c342" />
    <g
       id="g6"
       style="fill:#ffffff">
      <path
         id="path8"
         d="m 147.53,93.56 c 3.282,-0.006 5.961,0.011 8.273,0.064 2.032,0.16 4.047,0.345 6.01,0.586 20.743,3.116 37.08,11.48100000000001 49.33,25.29100000000001 15.984,18.02 25.788,47.39 28.768,85.31 0.15,3.034 0.276,6.267 0.377,9.656 0.29,11.978 0.287,26.13 -0.018,38 -1.655,30.891 -6.411,55.13 -14.504,73.61 -1.042,2.317 -2.127,4.583 -3.287,6.768 -2.074,3.9059999999999 -4.268,7.477 -6.602,10.754 -6.614,8.885 -17.436,18.14 -26.49,22.525 -0.904,0.437 -1.643,0.79 -2.373,1.145 l -3.271,1.5249999999999 -1.889,0.699 L 181.881,369.661 l -0.666,0.3109999999999 0.029,0.113 -0.008,0.004 L 181.662,371.708 c -0.2110000000001,1.734 0.8319999999999,4.288 2.6289999999999,9.17 0.8420000000001,2.2880000000002 1.8120000000001,4.27 2.92,6 0.03,0.047 0.062,0.092 0.092,0.1390000000002 C 187.602,387.476 187.912,387.916 188.233,388.337 c 0.119,0.158 0.239,0.316 0.3609999999999,0.469 0.2280000000001,0.282 0.464,0.552 0.703,0.816 0.136,0.152 0.2630000000001,0.319 0.402,0.4649999999999 0.005,0.006 0.009,0.01 0.014,0.016 0.179,0.228 0.3540000000001,0.433 0.521,0.6109999999999 0.904,0.962 1.958,1.736 3.252,2.3570000000001 1.588,0.922 3.3720000000001,1.593 5.346,2.0679999999999 0.014,0.003 0.029,0.006 0.043,0.01 0.561,0.1340000000001 1.139,0.2529999999999 1.734,0.354 0.093,0.016 0.189,0.03 0.2829999999999,0.045 0.5250000000001,0.083 1.058,0.1589999999999 1.6090000000001,0.2169999999999 0.261,0.028 0.532,0.047 0.799,0.07 0.419,0.035 0.835,0.074 1.27,0.096 0.777,0.041 1.5740000000001,0.066 2.402,0.066 l 1.2419999999999,0 3.8110000000001,0.287 0,2.973 -0.219,12.137 -0.23,12.688 c -0.016,0.048 -0.028,0.1019999999999 -0.045,0.148 -0.3240000000001,0.894 -0.828,1.503 -1.6150000000001,1.936 -0.021,0.011 -0.043,0.022 -0.064,0.033 -0.065,0.035 -0.1380000000001,0.065 -0.207,0.098 l -0.863,0.143 c -1.7880000000001,0.293 -6.77,0.988 -11.07,1.545 -1.382,0.179 -2.717,0.3200000000001 -4.03,0.441 -1.707,0.136 -3.369,0.244 -4.959,0.2989999999999 -0.166,0.004 -0.332,0.009 -0.498,0.012 -0.611,0.018 -1.21,0.026 -1.805,0.031 -0.844,0.005 -1.659,-0.005 -2.475,-0.016 -0.397,-0.008 -0.806,-0.007 -1.195,-0.021 -0.406,-0.015 -0.793,-0.045 -1.191,-0.066 -7.656,-0.5110000000001 -14.255,-2.4049999999999 -20.662,-5.82 -10.676,-5.69 -19.229,-19.517 -24.49,-39.594 l -1.912,-7.2989999999999 -0.5140000000001,-2.453 -0.1409999999999,-0.043 -0.018,-0.064 -7.2660000000001,-2.256 c -4.119,-1.279 -8.0199999999999,-2.928 -11.7249999999999,-4.932 -9.345,-5.185 -17.56200000000224,-12.837 -24.39300000000226,-22.682 -0.014,-0.02 -0.027,-0.039 -0.041,-0.059 -0.16200000000002,-0.2339999999999 -0.32000000000005,-0.476 -0.47999999999999,-0.713 -9.89500000000001,-14.9460000000001 -16.80400000000003,-35.21 -20.78300000000003,-60.8890000000001 -1.22299999999997,-8.243 -2.146,-16.916 -2.762,-25.791 -0.91600000000004,-17.8299999999999 -0.65400000000001,-45.22 0.643,-60.5799999999999 0.18199999999996,-1.9 0.38000000000001,-3.78 0.59399999999998,-5.643 5.44699999999996,-43.912 19.67199999999997,-73.0999999999999 42.32000000000228,-87.13 0.839,-0.5199999999999 1.693,-1.01 2.555,-1.488 0.399,-0.2199999999999 0.797,-0.4429999999999 1.201,-0.6539999999999 0.364,-0.191 0.732,-0.3760000000001 1.0999999999994,-0.5610000000001 0.7459999999991,-0.37200000000087 1.497,-0.73800000000094 2.2600000000006,-1.08200000000083 0.004,-0.002 0.008,-0.004 0.012,-0.006 0.248,-0.11199999999999 0.5019999999996,-0.21499999999993 0.7519999999996,-0.32399999999996 0.5900000000004,-0.25700000000003 1.1869999999995,-0.50399999999998 1.7870000000004,-0.74400000000006 0.534,-0.21299999999992 1.071,-0.41999999999993 1.613,-0.61899999999994 4.8739999999997,-1.69700000000002 10.1799999999999,-2.87000000000005 15.73,-3.52100000000006 2.675,-0.113 5.961,-0.15099999999998 10.598,-0.15999999999991"
         inkscape:connector-curvature="0" />
      <path
         id="path10"
         d="m 280.05,110.34 c 2.182,0.167 6.498,0.596 11.539,1.162 5.751,0.646 10.05,1.109 12.03,1.305 l 1.693,0.219 c 0.086,0.111 0.17,0.707 0.2459999999999,1.678 L 305.8,136.618 l 0,0.008 0.232,21.1 0,0.002 0,3.01 0,0.002 0,0.021 0,0.014 3.25,0.553 c 1.7880000000002,0.304 8.09,0.858 14,1.23 l 8.799,0.555 1.951,0.143 0,14.768 0,0.09 C 334.031,191.555 333.881,192.782 332.282,192.466 c -0.962,-0.19 -7.262,-0.576 -14,-0.857 l -11.43,-0.477 -0.82,-0.059 0,0.023 0,0.027 0,0.563 0,0.002 0,0.006 0,0.014 0,0.021 0,0.148 0,0.053 0,0.061 0,0.066 -0.111,-0.006 0.111,22.631 0,35.619 0,2.521 0,0.256 c 0,23.633 -0.005,38.838 0.236,48.916 0.127,6.294 0.316,10.186 0.604,12.529 0.022,0.262 0.046,0.425 0.068,0.576 C 307.059,316.487 307.187,317.559 307.336,317.997 c 0.1549999999999,0.454 0.338,0.866 0.535,1.26 0.8980000000001,2.639 2.233,3.243 4.221,4.271 0.1750000000002,0.09 0.366,0.168 0.5570000000001,0.248 1.8759999999999,1.025 3.053,1.298 5.8519999999999,0.965 0.3560000000001,-0.03 0.741,-0.071 1.154,-0.127 3.5530000000001,-0.216 7.703,-1.134 11.877,-2.719 2.75,-1.044 5.349,-1.898 5.777,-1.898 0.411,0 0.626,5.5199999999999 0.508,12.3829999999999 l -0.008,0.387 -0.221,10.967 -0.041,1.914 c -0.061,0.2679999999999 -0.125,0.5199999999999 -0.201,0.7149999999999 l -2.215,0.953 -4.928,1.879 c -4.0299999999999,1.537 -11.752,3.697 -17.16,4.799 -2.296,0.468 -4.4680000000001,0.824 -6.58,1.1209999999999 -0.541,0.064 -1.0820000000001,0.128 -1.6190000000001,0.182 -0.798,0.065 -1.596,0.1220000000001 -2.3829999999999,0.1720000000001 -0.827,0.052 -1.6410000000001,0.095 -2.4320000000001,0.127 -1.5539999999999,0.063 -3.0099999999998,0.098 -4.375,0.102 -4.677,-0.081 -8.7889999999998,-0.5820000000001 -11.4789999999998,-1.5450000000001 -0.918,-0.3290000000001 -1.79,-0.6909999999999 -2.639,-1.07 -2.452,-1.0980000000001 -4.635,-2.415 -6.5720000000002,-3.9959999999999 -2.954,-2.545 -5.403,-5.811 -7.4159999999998,-9.8380000000001 -2.638,-5.278 -4.01,-8.595 -4.7210000000002,-19.3009999999999 -0.317,-7.361 -0.475,-22.453 -0.658,-45.678 l -0.119,-15.7710000000001 -0.002,-0.3360000000001 c 0,-1.2409999999999 -0.004,-2.1279999999999 -0.004,-3.4139999999999 l 0,-1.307 c 9.9999999998e-4,-13.591 0.013,-24.01 -0.008,-32.479 l -0.008,-31.965 -3.275,0 c -1.1559999999999,-0.3770000000001 -2.7089999999999,0 -4.807,0 l -2.627,0 -2,-0.227 c -0.07,-0.083 -0.139,-0.1690000000001 -0.201,-0.2640000000001 l -0.088,-4.717 0,-10.668 0,-0.209 0,-0.023 0,-0.016 0,-0.006 0,-0.016 0,-0.453 c 0,-9.08 0.151,-13.462 0.5939999999999,-15.12 l 8.322,0.475 8.555,0.488 0.377,0.029 0.473,-1.779 0.445,-1.613 c 0.5140000000001,-1.861 3.097,-12.608 5.7420000000001,-23.883 2.385,-10.165 4.219,-17.827 4.658,-19.508 0.058,-0.214 0.079,-0.274 0.123,-0.428 0.243,-0.293 0.565,-0.512 1.012,-0.662 0.206,-0.026 0.455,-0.043 0.717,-0.059"
         inkscape:connector-curvature="0" />
    </g>
    <path
       id="path12"
       d="m 156.1,129.02 c -10.203,0.049 -18.08,6.231 -23.459,18.283 -1.398,3 -2.603,6.428 -3.639,10.395 -0.003,0.013 -0.006,0.025 -0.01,0.037 -0.95,3.504 -1.762,7.321 -2.434,11.451 -1.557,9.576 -2.596,25.688 -3.055,43.19 -0.031,1.041 -0.068,2.023 -0.096,3.092 -0.256,9.83 -0.275,19.249 -0.09,28.21 0.195,13.294 0.749,25.669 1.709,34.813 1.777,16.9320000000001 4.532,29.948 8.428,39.5 0.323,0.828 0.648,1.635 0.984,2.3960000000001 0.4,0.9049999999999 0.875,1.824 1.398,2.742 2.418,4.58 5.201,8.111 8.379,10.666 0.121,0.101 0.245,0.1960000000001 0.367,0.2950000000001 0.049,0.038 0.096,0.078 0.145,0.115 1.491,1.185 3.062,2.173 4.719,2.951 0.89,0.418 1.732,0.7350000000002 2.582,0.9800000000001 1.702,0.5969999999999 3.184,0.7649999999999 5.279,0.6739999999999 2.26,0.028 4.566,-0.307 6.838,-0.998 0.005,-9.999999999e-4 0.009,-0.003 0.014,-0.004 0.324,-0.091 0.639,-0.2 0.957,-0.303 8.901,-2.887 15.39,-10.721 19.842,-24.2 0.559,-1.6279999999998 1.065,-3.31 1.51,-5.04 0.041,-0.161 0.08,-0.346 0.121,-0.51 1.931,-7.349 3.386,-16.07 4.404,-26.26 2.769,-27.733 2.239,-84.51 -0.984,-105.5 -0.755,-4.915 -1.665,-9.442 -2.732,-13.582 -9.9999999998e-4,-0.005 -0.003,-0.009 -0.004,-0.014 -1.902,-8.284 -4.399,-14.387 -7.758,-19.344 -5.846,-9.413 -13.639,-14.09 -23.416,-14.04"
       inkscape:connector-curvature="0"
       style="fill:#80c342" />
  </g>
  <g
     style="fill:#e0c31e;fill-opacity:1"
     id="g4153"
     transform="matrix(0.5556327267676065,0,0,0.5556327267676063,24.66620363939437,24.66342547576054)">
    <path
       id="path4145"
       d="M 6,34.5 6,42 13.5,42 35.63,19.87 28.12999999999999,12.37 6,34.5 Z M 41.41,14.09 c 0.78,-0.78 0.78,-2.05 0,-2.83 L 36.74,6.59 C 35.96,5.81 34.69,5.81 33.91,6.59 l -3.66,3.66 7.5,7.5 3.66,-3.66 z"
       inkscape:connector-curvature="0"
       style="fill:#e0c31e;fill-opacity:1" />
  </g>
</svg>
