<svg xmlns="http://www.w3.org/2000/svg" fill="#607D8B" viewBox="0 0 48 48"><path d="m20 5l-4 4v4h-8c-2.21 0-3.98 1.79-3.98 4l-.02 22c0 2.21 1.79 4 4 4h32c2.21 0 4-1.79 4-4v-22c0-2.21-1.79-4-4-4h-8v-4l-4-4h-8m0 4h8v4h-8v-4" fill="#294172"/><g transform="matrix(.08668 0 0 .09071-6.936 32.722)"><g fill="none" stroke="#3c6eb4" stroke-width="29.21"><path d="m303.97-52.11c0 0 47.845 0 47.845 0 0 0 0 47.845 0 47.845 0 26.41-21.434 47.845-47.845 47.845-26.41 0-47.845-21.434-47.845-47.845 0-26.41 21.434-47.845 47.845-47.845z"/><path d="m399.43-52.01c0 0-47.845 0-47.845 0 0 0 0-47.845 0-47.845 0-26.41 21.434-47.845 47.845-47.845 26.41 0 47.845 21.434 47.845 47.845 0 26.41-21.434 47.845-47.845 47.845z"/></g><g fill="#fff"><path d="m366.46-66.68v62.35c0 34.504-27.975 62.48-62.48 62.48-5.235 0-8.956-.591-13.802-1.858-7.07-1.849-12.84-7.643-12.843-14.381 0-8.145 5.912-14.07 14.75-14.07 4.206 0 5.733.808 11.895.808 18.19 0 32.948-14.735 32.98-32.927v-28.657c0-2.568-2.087-4.648-4.659-4.648l-21.665-.004c-8.07 0-14.594-6.438-14.594-14.533-.004-8.145 6.589-14.557 14.748-14.557"/><path d="m336.95-37.446v-62.35c0-34.504 27.975-62.48 62.48-62.48 5.235 0 8.956.591 13.802 1.858 7.07 1.849 12.84 7.643 12.843 14.381 0 8.145-5.912 14.07-14.75 14.07-4.206 0-5.733-.808-11.895-.808-18.19 0-32.948 14.735-32.98 32.927v28.657c0 2.568 2.087 4.648 4.659 4.648l21.665.004c8.07 0 14.594 6.438 14.594 14.533.004 8.145-6.589 14.557-14.748 14.557"/></g><path d="m470.5 49.38c0 0 0-5.531 0-5.531l-2.529 5.798c0 0-2.461-5.798-2.461-5.798v5.531h-1.418v-8.735h1.487c0 0 2.434 5.581 2.434 5.581l2.397-5.581h1.505v8.735h-1.416m-10.333-7.272v7.272h-1.482v-7.272h-2.485v-1.463h6.449v1.463" fill="#3c6eb4"/></g></svg>