<?xml version="1.0" encoding="UTF-8" standalone="no"?>
<svg
   xmlns:dc="http://purl.org/dc/elements/1.1/"
   xmlns:cc="http://creativecommons.org/ns#"
   xmlns:rdf="http://www.w3.org/1999/02/22-rdf-syntax-ns#"
   xmlns:svg="http://www.w3.org/2000/svg"
   xmlns="http://www.w3.org/2000/svg"
   xmlns:sodipodi="http://sodipodi.sourceforge.net/DTD/sodipodi-0.dtd"
   xmlns:inkscape="http://www.inkscape.org/namespaces/inkscape"
   width="528"
   height="48"
   viewBox="0 0 422.4 48"
   id="svg2"
   version="1.1"
   inkscape:version="0.91 r13725"
   sodipodi:docname="process-working.svg">
  <metadata
     id="metadata110">
    <rdf:RDF>
      <cc:Work
         rdf:about="">
        <dc:format>image/svg+xml</dc:format>
        <dc:type
           rdf:resource="http://purl.org/dc/dcmitype/StillImage" />
        <dc:title></dc:title>
      </cc:Work>
    </rdf:RDF>
  </metadata>
  <defs
     id="defs108" />
  <sodipodi:namedview
     pagecolor="#ffffff"
     bordercolor="#666666"
     borderopacity="1"
     objecttolerance="10"
     gridtolerance="10"
     guidetolerance="10"
     inkscape:pageopacity="0"
     inkscape:pageshadow="2"
     inkscape:window-width="1366"
     inkscape:window-height="713"
     id="namedview106"
     showgrid="false"
     inkscape:snap-bbox="true"
     inkscape:bbox-nodes="true"
     inkscape:bbox-paths="true"
     inkscape:snap-page="true"
     inkscape:snap-bbox-midpoints="true"
     inkscape:snap-object-midpoints="true"
     inkscape:zoom="1.109650612237886"
     inkscape:cx="274.3991916245236"
     inkscape:cy="-9.777792944686766"
     inkscape:window-x="0"
     inkscape:window-y="30"
     inkscape:window-maximized="1"
     inkscape:current-layer="svg2" />
  <path
     inkscape:connector-curvature="0"
     style="opacity:1;fill:#673AB7;fill-opacity:1;fill-rule:nonzero;stroke:none;stroke-width:3;stroke-miterlimit:4;stroke-dasharray:none;stroke-opacity:1"
     d="m 19.19999694824219,6.000000039146017 0,4.000000000000003 a 14,14 0 0 1 9.892578125,4.107421875 l 2.8359375,-2.8359375 a 18,18 0 0 0 -12.728515625,-5.271484375000003 z"
     id="circle4153" />
  <path
     inkscape:connector-curvature="0"
     style="opacity:1;fill:#673AB7;fill-opacity:1;fill-rule:nonzero;stroke:none;stroke-width:3;stroke-miterlimit:4;stroke-dasharray:none;stroke-opacity:1"
     d="m 73.34843440909652,6 -1.3671875,3.755859375 a 14,14 0 0 1 9.21875,13.138671875 l 4,0 a 18,18 0 0 0 -5.271484375,-12.728515625 A 18,18 0 0 0 73.34843440909652,6 Z"
     id="circle4153-3" />
  <path
     inkscape:connector-curvature="0"
     style="opacity:1;fill:#673AB7;fill-opacity:1;fill-rule:nonzero;stroke:none;stroke-width:3;stroke-miterlimit:4;stroke-dasharray:none;stroke-opacity:1"
     d="m 126.7689229663621,10.212890625 -2.5703125,3.064453125 A 14,14 0 0 1 129.2005635913621,24 a 14,14 0 0 1 -14,14 l 0,4 a 18,18 0 0 0 15.587890625,-9 18,18 0 0 0 0,-18 18,18 0 0 0 -4.01953125,-4.787109375 z"
     id="circle4153-6" />
  <path
     inkscape:connector-curvature="0"
     style="opacity:1;fill:#673AB7;fill-opacity:1;fill-rule:nonzero;stroke:none;stroke-width:3;stroke-miterlimit:4;stroke-dasharray:none;stroke-opacity:1"
     d="m 178.768554443767,15.01191687052506 -3.458984375,1.99609374999999 a 14,14 0 0 1 1.890625,6.9921875 14,14 0 0 1 -14,14.00000000000001 14,14 0 0 1 -14,-14.00000000000001 l -4,0 a 18,18 0 0 0 11.111328125,16.62890625000001 18,18 0 0 0 19.6171875,-3.900390625 18,18 0 0 0 3.900390625,-19.61718750000001 18,18 0 0 0 -1.060546875,-2.09960937499999 z"
     id="circle4153-36" />
  <path
     inkscape:connector-curvature="0"
     style="opacity:1;fill:#673AB7;fill-opacity:1;fill-rule:nonzero;stroke:none;stroke-width:3;stroke-miterlimit:4;stroke-dasharray:none;stroke-opacity:1"
     d="m 211.1999969482422,6 a 18,18 0 0 0 -18,18 18,18 0 0 0 18,18 18,18 0 0 0 18.0000000000001,-18 18,18 0 0 0 -0.27734375,-3.125 l -3.9375,0.693359375 a 14,14 0 0 1 0.21484375,2.431640625 14,14 0 0 1 -14.0000000000001,14 14,14 0 0 1 -14,-14 14,14 0 0 1 14,-14 l 0,-4 z"
     id="circle4153-5" />
  <path
     inkscape:connector-curvature="0"
     style="opacity:1;fill:#673AB7;fill-opacity:1;fill-rule:nonzero;stroke:none;stroke-width:3;stroke-miterlimit:4;stroke-dasharray:none;stroke-opacity:1"
     d="m 258.9068366743922,6.003017801748002 a 18,18 0 0 0 -13.98828125,7.041015624999998 18,18 0 0 0 -0.462890625,21.28125 18,18 0 0 0 20.15625,6.841796875 18,18 0 0 0 12.587890625,-17.166015625 l -4,0 a 14,14 0 0 1 -14,14 14,14 0 0 1 -14,-14 14,14 0 0 1 14,-14 14,14 0 0 1 4.783203125,0.861328125 l 1.373046875,-3.775390624999997 a 18,18 0 0 0 -6.44921875,-1.083984375 z"
     id="ellipse4145" />
  <path
     inkscape:connector-curvature="0"
     style="opacity:1;fill:#673AB7;fill-opacity:1;fill-rule:nonzero;stroke:none;stroke-width:3;stroke-miterlimit:4;stroke-dasharray:none;stroke-opacity:1"
     d="m 307.5282921575943,6.003906248594035 a 18,18 0 0 0 -10.21875,2.95703125 18,18 0 0 0 -7.353515625,20.201171874999996 18,18 0 0 0 17.244140625,12.83789062500001 l 0,-4 a 14,14 0 0 1 -14,-14.00000000000001 14,14 0 0 1 14,-13.999999999999996 14,14 0 0 1 8.998046875,3.277343750000005 l 2.572265625,-3.06640625 a 18,18 0 0 0 -11.2421875,-4.207031250000006 z"
     id="ellipse4145-0" />
  <path
     inkscape:connector-curvature="0"
     style="opacity:1;fill:#673AB7;fill-opacity:1;fill-rule:nonzero;stroke:none;stroke-width:3;stroke-miterlimit:4;stroke-dasharray:none;stroke-opacity:1"
     d="m 355.8875122070313,6.013190004117975 a 18,18 0 0 0 -5.345703125,0.599609375 18,18 0 0 0 -13.341796875,17.386718749999996 l 4,0 a 14,14 0 0 1 14,-13.999999999999996 14,14 0 0 1 12.109375,7.007812499999997 l 3.478515625,-2.0078125 a 18,18 0 0 0 -14.900390625,-8.986328124999996 z"
     id="ellipse4145-6" />
  <path
     inkscape:connector-curvature="0"
     style="opacity:1;fill:#673AB7;fill-opacity:1;fill-rule:nonzero;stroke:none;stroke-width:3;stroke-miterlimit:4;stroke-dasharray:none;stroke-opacity:1"
     d="m 403.3141412782518,6.000000000000229 0,4.000000000000001 a 14,14 0 0 1 13.78515625,11.5703125 l 3.94140625,-0.6953125 a 18,18 0 0 0 -17.7265625,-14.875000000000003 z"
     id="ellipse4145-61" />
</svg>
