<svg xmlns="http://www.w3.org/2000/svg" viewBox="0 0 16 16"><g transform="matrix(.16842 0 0 .16842-112.8-89.37)" fill-opacity=".118"><path d="m717.25 530.62c-4.229 10.367-6.145 15.778-10.853 25.837 2.887 3.06 5.783 7.99 11.537 12.01-4.962-.342-10.893-3.631-14.05-6.283-6.03 12.573-14.982 29.01-34.14 63.43 15.05-8.69 26.722-14.05 37.596-16.1-.465-2.01-.714-4.185-.696-6.448l.012-.475c.239-9.646 5.258-17.06 11.202-16.56 5.944.504 10.572 8.735 10.333 18.381-.045 1.817-.256 3.563-.615 5.184 10.758 2.105 22.317 7.442 37.17 16.02-2.929-5.392-5.229-8.463-7.725-13.09-4.74-4.501-9.314-8.535-16.721-13.09 4.781.525 8.814 1.513 12.02 3.44-25.381-47.26-26.374-51.83-35.08-72.25"/><path d="m743.99 587.09c-20.591-27.948-25.363-50.47-26.572-55.85 10.984 25.334 10.909 25.645 26.572 55.85"/><path d="m717.44 530.99c-.53 1.304-.995 2.508-1.484 3.711-.541 1.328-1.159 2.654-1.67 3.896-.511 1.243-.982 2.514-1.484 3.711-.502 1.197-.971 2.334-1.484 3.525-.514 1.191-1.124 2.487-1.67 3.711-.546 1.224-1.07 2.415-1.67 3.711-.511 1.129-.897 1.899-1.484 3.154 2.887 3.06 5.75 8.04 11.504 12.06-4.962-.342-10.948-3.657-14.1-6.309-3.095 6.458-6.991 14.267-12.617 24.678 11.963-6.779 24.836-16.336 48.24-7.979-.798-1.512-1.504-2.879-2.227-4.268-.441-.858-.699-1.228-1.113-2.041-1.022-1.976-1.902-3.816-2.783-5.566-.881-1.75-1.65-3.447-2.412-5.01-.762-1.563-1.562-3.038-2.227-4.453-.665-1.415-1.267-2.776-1.855-4.082-.588-1.306-1.137-2.475-1.67-3.711-.533-1.236-.985-2.507-1.484-3.711-.315-.759-.62-1.467-.928-2.227-.169-.399-.387-.897-.557-1.299-.05-.125-.135-.245-.186-.371-.43-1.02-.855-2.281-1.299-3.34-1.05-2.506-2.066-4.799-3.34-7.793"/></g></svg>