<svg xmlns="http://www.w3.org/2000/svg" fill="#3F51B5" viewBox="0 0 48 48"><path d="m12 4c-2.21 0-3.98 1.79-3.98 4l-.02 32c0 2.21 1.77 4 3.98 4h24.02c2.21 0 4-1.79 4-4v-24l-12-12h-16m14 3l11 11h-11v-11m-4.244 15.256c3.59 0 6.5 2.91 6.5 6.5 0 1.615-.59 3.09-1.57 4.225l.275.275h.795l4.988 5-1.488 1.488-5-4.988v-.791l-.275-.275c-1.135.975-2.61 1.566-4.225 1.566-3.59 0-6.5-2.91-6.5-6.5 0-3.59 2.91-6.5 6.5-6.5m0 2c-2.485 0-4.5 2.02-4.5 4.5 0 2.485 2.02 4.5 4.5 4.5 2.485 0 4.5-2.02 4.5-4.5 0-2.485-2.02-4.5-4.5-4.5"/></svg>