<svg height="77.665001" width="77.665001" xmlns="http://www.w3.org/2000/svg" xmlns:xlink="http://www.w3.org/1999/xlink"><linearGradient id="a" gradientUnits="userSpaceOnUse" x1="174.0737" x2="132.276306" y1="215.548798" y2="141.753296"><stop offset="0" stop-color="#fb7655"/><stop offset=".41" stop-color="#e42b1e"/><stop offset=".99" stop-color="#900"/><stop offset="1" stop-color="#900"/></linearGradient><linearGradient id="b"><stop offset="0" stop-color="#871101"/><stop offset=".99" stop-color="#911209"/><stop offset="1" stop-color="#911209"/></linearGradient><linearGradient id="c" gradientUnits="userSpaceOnUse" x1="194.895004" x2="141.027603" xlink:href="#b" y1="153.557602" y2="117.409302"/><linearGradient id="d" gradientUnits="userSpaceOnUse" x1="151.795395" x2="97.929703" xlink:href="#b" y1="217.785202" y2="181.638"/><linearGradient id="e" gradientUnits="userSpaceOnUse" x1="38.696301" x2="47.046902" y1="127.390602" y2="181.661407"><stop offset="0" stop-color="#fff"/><stop offset=".23" stop-color="#e57252"/><stop offset=".46" stop-color="#de3b20"/><stop offset=".99" stop-color="#a60003"/><stop offset="1" stop-color="#a60003"/></linearGradient><linearGradient id="f" gradientUnits="userSpaceOnUse" x1="96.132797" x2="99.209602" y1="76.715302" y2="132.102097"><stop offset="0" stop-color="#fff"/><stop offset=".23" stop-color="#e4714e"/><stop offset=".56" stop-color="#be1a0d"/><stop offset=".99" stop-color="#a80d00"/><stop offset="1" stop-color="#a80d00"/></linearGradient><linearGradient id="g" gradientUnits="userSpaceOnUse" x1="147.102997" x2="156.314102" y1="25.521" y2="65.216202"><stop offset="0" stop-color="#fff"/><stop offset=".18" stop-color="#e46342"/><stop offset=".4" stop-color="#c82410"/><stop offset=".99" stop-color="#a80d00"/><stop offset="1" stop-color="#a80d00"/></linearGradient><linearGradient id="h" gradientUnits="userSpaceOnUse" x1="118.976097" x2="158.668594" y1="11.5415" y2="-8.3048"><stop offset="0" stop-color="#fff"/><stop offset=".54" stop-color="#c81f11"/><stop offset=".99" stop-color="#bf0905"/><stop offset="1" stop-color="#bf0905"/></linearGradient><linearGradient id="i" gradientUnits="userSpaceOnUse" x1="3.9033" x2="7.1702" y1="113.554703" y2="146.262802"><stop offset="0" stop-color="#fff"/><stop offset=".31" stop-color="#de4024"/><stop offset=".99" stop-color="#bf190b"/><stop offset="1" stop-color="#bf190b"/></linearGradient><linearGradient id="j" gradientUnits="userSpaceOnUse" x1="125.4443" x2="279.015198" y1="77.524507" y2="-80.3893"><stop offset="0" stop-color="#bd0012"/><stop offset=".07" stop-color="#fff"/><stop offset=".17" stop-color="#fff"/><stop offset=".27" stop-color="#c82f1c"/><stop offset=".33" stop-color="#820c01"/><stop offset=".46" stop-color="#a31601"/><stop offset=".72" stop-color="#b31301"/><stop offset=".99" stop-color="#e82609"/><stop offset="1" stop-color="#e82609"/></linearGradient><linearGradient id="k" gradientUnits="userSpaceOnUse" x1="243.074699" x2="196.817699" y1="93.453203" y2="82.036592"><stop offset="0" stop-color="#8c0c01"/><stop offset=".54" stop-color="#990c00"/><stop offset=".99" stop-color="#a80d0e"/><stop offset="1" stop-color="#a80d0e"/></linearGradient><linearGradient id="l" gradientUnits="userSpaceOnUse" x1="322.525894" x2="281.432693" y1="37.934603" y2="1.103998"><stop offset="0" stop-color="#7e110b"/><stop offset=".99" stop-color="#9e0c00"/><stop offset="1" stop-color="#9e0c00"/></linearGradient><linearGradient id="m" gradientUnits="userSpaceOnUse" x1="337.623505" x2="317.154205" y1="-29.643" y2="-51.526199"><stop offset="0" stop-color="#79130d"/><stop offset=".99" stop-color="#9e120b"/><stop offset="1" stop-color="#9e120b"/></linearGradient><radialGradient id="n" cx="287.831497" cy="1.808199" gradientUnits="userSpaceOnUse" r="50.357601"><stop offset="0" stop-color="#a80d00"/><stop offset=".99" stop-color="#7e0e08"/><stop offset="1" stop-color="#7e0e08"/></radialGradient><radialGradient id="o" cx="218.0923" cy="68.171007" gradientUnits="userSpaceOnUse" r="66.943703"><stop offset="0" stop-color="#a30c00"/><stop offset=".99" stop-color="#800e08"/><stop offset="1" stop-color="#800e08"/></radialGradient><linearGradient id="p" gradientUnits="userSpaceOnUse" x1="170.669901" x2="153.9887" y1="119.755907" y2="63.162004"><stop offset="0" stop-color="#8b2114"/><stop offset=".43" stop-color="#9e100a"/><stop offset=".99" stop-color="#b3100c"/><stop offset="1" stop-color="#b3100c"/></linearGradient><linearGradient id="q" gradientUnits="userSpaceOnUse" x1="298.641098" x2="336.039001" y1="-67.7821" y2="-51.274099"><stop offset="0" stop-color="#b31000"/><stop offset=".44" stop-color="#910f08"/><stop offset=".99" stop-color="#791c12"/><stop offset="1" stop-color="#791c12"/></linearGradient><g fill-rule="evenodd" transform="matrix(.24293957 0 0 .24293957 -20.217606 33.679752)"><path d="m153.5 130.41-113.12 67.17 146.469-9.939 11.281-147.691z" fill="url(#a)" transform="translate(144 -77.58)"/><path d="m140.209 145.93 46.88 41.61-12.589-86.89z" fill="url(#c)" transform="translate(144 -77.58)"/><path d="m40.87 197.391 146.389-9.851-92.229-7.24z" fill="url(#d)" transform="translate(144 -77.58)"/><path d="m13.34 132.771 27.66 64.639 23.04-75.48z" fill="url(#e)" transform="translate(144 -77.58)"/><path d="m58.33 120.01 81.87 26.17-21.2-83.04z" fill="url(#f)" transform="translate(144 -77.58)"/><path d="m120 69.1 73.32-4.79-57.35-46.84z" fill="url(#g)" transform="translate(144 -77.58)"/><path d="m111.49.52 55.01.25-33.73 18.64z" fill="url(#h)" transform="translate(144 -77.58)"/><path d="m2.7 101.62-2.7 56.47 14.13-25.77z" fill="url(#i)" transform="translate(144 -77.58)"/><path d="m145.94 23.07 11.5 32.62 49.97-11.211 57.05-53.02 16.1-51.139-25.351-17.9-43.1 16.13c-13.579 12.63-39.929 37.62-40.879 38.09-.94.48-17.4 31.59-25.29 46.43z" fill="#fff"/><path d="m186.32-35.53c29.43-29.18 67.37-46.42 81.93-31.73 14.551 14.69-.88 50.39-30.31 79.56s-66.9 47.36-81.45 32.67c-14.56-14.68.4-51.33 29.83-80.5z" fill="url(#j)"/><path d="m185 119.8 22.86-75.72 75.92 24.39c-27.45 25.74-57.98 47.5-98.78 51.33z" fill="url(#k)"/><path d="m264.56-8.69 19.49 77.2c22.93-24.11 43.51-50.03 53.589-82.09z" fill="url(#l)"/><path d="m337.44-13.19c7.8-23.54 9.6-57.31-27.181-63.58l-30.18 16.67z" fill="url(#m)"/><path d="m144 80.17c1.08 38.851 29.11 39.43 41.05 39.771l-27.58-64.411z" fill="#9e1209"/><path d="m264.669-8.57c17.62 10.83 53.131 32.58 53.851 32.98 1.119.63 15.31-23.93 18.53-37.81z" fill="url(#n)"/><path d="m207.83 44.08 30.56 58.96c18.07-9.8 32.22-21.74 45.18-34.53z" fill="url(#o)"/><path d="m157.35 55.61-4.33 51.56c8.17 11.16 19.41 12.13 31.2 11.26-8.53-21.23-25.57-63.68-26.87-62.82z" fill="url(#p)"/><path d="m279.9-59.97 60.71 8.52c-3.24-13.73-13.19-22.59-30.15-25.36z" fill="url(#q)"/></g></svg>