<svg xmlns="http://www.w3.org/2000/svg" viewBox="0 0 48 48"><path d="m76.43 355c-2.871 0-5.177 2.293-5.177 5.142v25.717c0 2.852 2.309 5.142 5.177 5.142h21.858c2.871 0 5.177-2.293 5.177-5.142v-25.717c0-2.852-2.309-5.142-5.177-5.142h-21.858m-1.481 4.535h24.82v6.68h-24.82v-6.68m.422 8.93h3.656c.249 0 .422.173.422.422v3.656c0 .249-.173.422-.422.422h-3.656c-.249 0-.422-.173-.422-.422v-3.656c0-.249.173-.422.422-.422m6.75 0h3.656c.249 0 .422.173.422.422v3.656c0 .249-.173.422-.422.422h-3.656c-.249 0-.422-.173-.422-.422v-3.656c0-.249.173-.422.422-.422m6.75 0h3.656c.249 0 .422.173.422.422v3.656c0 .249-.173.422-.422.422h-3.656c-.249 0-.422-.173-.422-.422v-3.656c0-.249.173-.422.422-.422m6.75 0h3.656c.249 0 .422.173.422.422v3.656c0 .249-.173.422-.422.422h-3.656c-.249 0-.422-.173-.422-.422v-3.656c0-.249.173-.422.422-.422m-20.25 6.75h3.656c.249 0 .422.173.422.422v3.656c0 .249-.173.422-.422.422h-3.656c-.249 0-.422-.173-.422-.422v-3.656c0-.249.173-.422.422-.422m6.75 0h3.656c.249 0 .422.173.422.422v3.656c0 .249-.173.422-.422.422h-3.656c-.249 0-.422-.173-.422-.422v-3.656c0-.249.173-.422.422-.422m6.75 0h3.656c.249 0 .422.173.422.422v3.656c0 .249-.173.422-.422.422h-3.656c-.249 0-.422-.173-.422-.422v-3.656c0-.249.173-.422.422-.422m6.75 0h3.656c.249 0 .422.173.422.422v3.656c0 .249-.173.422-.422.422h-3.656c-.249 0-.422-.173-.422-.422v-3.656c0-.249.173-.422.422-.422m-20.25 6.75h3.656c.249 0 .422.173.422.422v3.656c0 .249-.173.422-.422.422h-3.656c-.249 0-.422-.173-.422-.422v-3.656c0-.249.173-.422.422-.422m6.75 0h3.656c.249 0 .422.173.422.422v3.656c0 .249-.173.422-.422.422h-3.656c-.249 0-.422-.173-.422-.422v-3.656c0-.249.173-.422.422-.422m6.75 0h3.656c.249 0 .422.173.422.422v3.656c0 .249-.173.422-.422.422h-3.656c-.249 0-.422-.173-.422-.422v-3.656c0-.249.173-.422.422-.422m6.75 0h3.656c.249 0 .422.173.422.422v3.656c0 .249-.173.422-.422.422h-3.656c-.249 0-.422-.173-.422-.422v-3.656c0-.249.173-.422.422-.422" fill="#263238" transform="translate(-63.36-349)"/></svg>