<?xml version="1.0" encoding="UTF-8" standalone="no"?>
<svg
   xmlns:dc="http://purl.org/dc/elements/1.1/"
   xmlns:cc="http://creativecommons.org/ns#"
   xmlns:rdf="http://www.w3.org/1999/02/22-rdf-syntax-ns#"
   xmlns:svg="http://www.w3.org/2000/svg"
   xmlns="http://www.w3.org/2000/svg"
   xmlns:sodipodi="http://sodipodi.sourceforge.net/DTD/sodipodi-0.dtd"
   xmlns:inkscape="http://www.inkscape.org/namespaces/inkscape"
   width="48"
   height="48"
   viewBox="0 0 48 48"
   id="svg2"
   version="1.1"
   inkscape:version="0.91 r13725"
   sodipodi:docname="application-rss+xml.svg"
   style="fill:#00C853">
  <metadata
     id="metadata10">
    <rdf:RDF>
      <cc:Work
         rdf:about="">
        <dc:format>image/svg+xml</dc:format>
        <dc:type
           rdf:resource="http://purl.org/dc/dcmitype/StillImage" />
        <dc:title />
      </cc:Work>
    </rdf:RDF>
  </metadata>
  <defs
     id="defs8" />
  <sodipodi:namedview
     pagecolor="#ffffff"
     bordercolor="#666666"
     borderopacity="1"
     objecttolerance="10"
     gridtolerance="10"
     guidetolerance="10"
     inkscape:pageopacity="0"
     inkscape:pageshadow="2"
     inkscape:window-width="1366"
     inkscape:window-height="713"
     id="namedview6"
     showgrid="false"
     fit-margin-top="0"
     fit-margin-left="0"
     fit-margin-right="0"
     fit-margin-bottom="0"
     inkscape:zoom="4.890030063882013"
     inkscape:cx="-9.553453598155265"
     inkscape:cy="-4.008239178056456"
     inkscape:window-x="0"
     inkscape:window-y="30"
     inkscape:window-maximized="1"
     inkscape:current-layer="svg2" />
  <g
     id="layer14"
     inkscape:label="mimetypes"
     transform="matrix(2.999998685938074,0,0,2.999998685938074,-1682.99984441413,-902.9995939548648)"
     style="fill:#f36f24;fill-opacity:1">
    <ellipse
       ry="3.2360680103302"
       rx="2"
       cy="97.1875"
       cx="323.0625"
       id="path4983"
       style="color:#000000;display:inline;overflow:visible;visibility:visible;fill:#f36f24;fill-opacity:1;fill-rule:nonzero;stroke:none;stroke-width:1.6960272789;marker:none;enable-background:new"
       transform="matrix(1.0000007,0,0,0.6180342599999999,241.93747,252.93479)" />
    <path
       inkscape:connector-curvature="0"
       d="m 563.0001999999999,303 0,1 c 0,0.55016 0.4534699999997,1 1,1 4.97056,0 9,4.02944 9,9 0,0.55016 0.4534699999997,1 1,1 l 1,0 0,-1 c 0,-6.07513 -4.9248700000004,-11 -11,-11 l -1,0 z m 0,4 0,1 c 0,0.55016 0.4534699999997,1 1,1 2.7614299999999,0 5,2.23857 5,5 0,0.55016 0.4534699999997,1 1,1 l 1,0 0,-1 c 0,-3.866 -3.134,-7 -7,-7 l -1,0 z"
       id="path5814"
       style="color:#000000;display:inline;overflow:visible;visibility:visible;fill:#f36f24;fill-opacity:1;fill-rule:nonzero;stroke:none;stroke-width:1.3333349228;marker:none;enable-background:new" />
  </g>
</svg>
