<?xml version="1.0" encoding="UTF-8" standalone="no"?>
<!-- Created with Inkscape (http://www.inkscape.org/) -->

<svg
   xmlns:dc="http://purl.org/dc/elements/1.1/"
   xmlns:cc="http://creativecommons.org/ns#"
   xmlns:rdf="http://www.w3.org/1999/02/22-rdf-syntax-ns#"
   xmlns:svg="http://www.w3.org/2000/svg"
   xmlns="http://www.w3.org/2000/svg"
   xmlns:sodipodi="http://sodipodi.sourceforge.net/DTD/sodipodi-0.dtd"
   xmlns:inkscape="http://www.inkscape.org/namespaces/inkscape"
   version="1.0"
   width="48"
   height="48"
   id="svg1903"
   inkscape:version="0.91 r13725"
   sodipodi:docname="emblem-gnome.svg">
  <metadata
     id="metadata24">
    <rdf:RDF>
      <cc:Work
         rdf:about="">
        <dc:format>image/svg+xml</dc:format>
        <dc:type
           rdf:resource="http://purl.org/dc/dcmitype/StillImage" />
        <dc:title></dc:title>
      </cc:Work>
    </rdf:RDF>
  </metadata>
  <sodipodi:namedview
     pagecolor="#ffffff"
     bordercolor="#666666"
     borderopacity="1"
     objecttolerance="10"
     gridtolerance="10"
     guidetolerance="10"
     inkscape:pageopacity="0"
     inkscape:pageshadow="2"
     inkscape:window-width="1366"
     inkscape:window-height="713"
     id="namedview22"
     showgrid="false"
     inkscape:zoom="4.335282878489304"
     inkscape:cx="83.82307787485685"
     inkscape:cy="38.18266851312879"
     inkscape:window-x="0"
     inkscape:window-y="30"
     inkscape:window-maximized="1"
     inkscape:current-layer="svg1903" />
  <defs
     id="defs1905" />
  <path
     id="path3783"
     style="fill:#795548;fill-opacity:1;fill-rule:nonzero;stroke:none;stroke-miterlimit:4"
     d="m 27.25298251185428,34.5884322678843 c 0.33698630136986,2.57351598173515 -1.88797564687976,3.84444444444444 -4.06697108066971,2.18538812785389 C 16.24932954381775,31.4925418569254 34.67124735203693,28.85783866057836 33.45693989389386,21.64261796042616 32.4490251298147,15.65357686453575 14.0730738360552,17.4974124809741 11.98053197912978,26.8684931506849 c -1.41643835616439,6.33820395738204 5.83044140030441,15.13150684931507 13.39208523592084,15.13150684931507 3.71993911719939,0 8.01065449010655,-3.35890410958904 8.81339421613395,-7.61400304414002 0.61308980213089,-3.24474885844751 -7.21430745814308,-1.94459665144597 -6.9330289193303,0.20243531202435 l 0,0 z M 17.33547870667924,17.15433789954335 c 1.89923896499239,-0.38721461187214 2.00334855403348,-8.177777777777773 -1.38356164383561,-6.78021308980213 -3.38751902587519,1.39786910197869 -0.51415525114156,7.16803652968037 1.38356164383561,6.78021308980213 l 0,0 z m -4.49528158295282,3.59543378995434 c 1.59543378995434,-0.70228310502284 0.2054794520548,-7.57138508371385 -2.50745814307457,-5.69802130898021 -2.711719939117204,1.87366818873668 0.91202435312024,6.39999999999999 2.50745814307457,5.69802130898021 z m 10.2806697108067,-5.40456621004566 c 2.24322678843227,0.13698630136986 4.70441400304414,-8.560730593607306 0.4882800608828,-8.013698630136984 -4.21461187214612,0.547031963470321 -2.7324200913242,7.876712328767124 -0.4882800608828,8.013698630136984 z M 35.55648327288929,5.999999999999976 c -7.48919330289193,0 -8.89406392694064,10.666971080669704 -4.68097412480974,10.666971080669704 4.21248097412481,0 12.17047184170473,-10.666971080669704 4.68097412480974,-10.666971080669704 z" />
</svg>
