<?xml version="1.0" encoding="UTF-8" standalone="no"?>
<svg
   xmlns:dc="http://purl.org/dc/elements/1.1/"
   xmlns:cc="http://creativecommons.org/ns#"
   xmlns:rdf="http://www.w3.org/1999/02/22-rdf-syntax-ns#"
   xmlns:svg="http://www.w3.org/2000/svg"
   xmlns="http://www.w3.org/2000/svg"
   xmlns:sodipodi="http://sodipodi.sourceforge.net/DTD/sodipodi-0.dtd"
   xmlns:inkscape="http://www.inkscape.org/namespaces/inkscape"
   width="42"
   height="36"
   viewBox="0 0 42 36"
   id="svg2"
   version="1.1"
   inkscape:version="0.91 r13725"
   sodipodi:docname="text-x-bak.svg"
   style="fill:#03A9F4">
  <metadata
     id="metadata10">
    <rdf:RDF>
      <cc:Work
         rdf:about="">
        <dc:format>image/svg+xml</dc:format>
        <dc:type
           rdf:resource="http://purl.org/dc/dcmitype/StillImage" />
        <dc:title></dc:title>
      </cc:Work>
    </rdf:RDF>
  </metadata>
  <defs
     id="defs8" />
  <sodipodi:namedview
     pagecolor="#ffffff"
     bordercolor="#666666"
     borderopacity="1"
     objecttolerance="10"
     gridtolerance="10"
     guidetolerance="10"
     inkscape:pageopacity="0"
     inkscape:pageshadow="2"
     inkscape:window-width="668"
     inkscape:window-height="480"
     id="namedview6"
     showgrid="false"
     fit-margin-top="0"
     fit-margin-left="0"
     fit-margin-right="0"
     fit-margin-bottom="0"
     inkscape:zoom="4.916666666666668"
     inkscape:cx="23.99999999999999"
     inkscape:cy="17.99999999999999"
     inkscape:window-x="0"
     inkscape:window-y="30"
     inkscape:window-maximized="0"
     inkscape:current-layer="svg2" />
  <path
     d="m 28,18 c 0,-2.21 -1.79,-4 -4,-4 -2.21,0 -4,1.79 -4,4 0,2.21 1.79,4 4,4 2.21,0 4,-1.79 4,-4 z M 24,0 C 14.06,0 6,8.06 6,18 l -6,0 8,8 8,-8 -6,0 c 0,-7.73 6.27,-14 14,-14 7.73,0 14,6.27 14,14 0,7.73 -6.27,14 -14,14 -3.03,0 -5.82,-0.97 -8.12,-2.61 l -2.83,2.87 C 16.09,34.6 19.88,36 24,36 33.94,36 42,27.94 42,18 42,8.06 33.94,0 24,0 Z"
     id="path4"
     inkscape:connector-curvature="0" />
</svg>
