<svg xmlns="http://www.w3.org/2000/svg" viewBox="0 0 47.9999986881344 48.00000129865752" enable-background="new 0 0 401.98 559.472"><defs><clipPath id="0"><path d="m-35.56-105.49h500.21v314.11h-500.21z"/></clipPath></defs><g transform="matrix(.09961 0 0 .09961 6 13.989)" fill-rule="evenodd"><g stroke="#000" stroke-linecap="round" stroke-width="3"><path transform="translate(-16.459-11.623)" clip-path="url(#0)" d="m10.634 300.49c.764 15.751 16.499 8.463 23.626 3.539 6.765-4.675 8.743-.789 9.337-10.01.389-6.06 1.088-12.13.744-18.216-10.23-.927-21.357 1.509-29.744 7.602-4.32 3.139-12.42 13.158-3.963 17.09" fill="#fff"/><path transform="translate(-16.459-11.623)" clip-path="url(#0)" d="m10.634 300.49c2.29-.852 4.717-1.457 6.271-3.528" fill="#c6b198"/><g fill="#fff"><path transform="translate(-16.459-11.623)" clip-path="url(#0)" d="m46.997 112.85c-60.3-16.956-15.461-93.66 32.959-62.11l-32.959 62.11"/><path transform="translate(-16.459-11.623)" clip-path="url(#0)" d="m314.89 44.984c47.727-33.523 90.86 42.11 35.388 61.14l-35.388-61.14"/></g></g><path transform="translate(-16.459-11.623)" clip-path="url(#0)" d="m49.51 91.67c-7.955-4.208-13.791-9.923-8.925-19.12 4.505-8.518 12.874-7.593 20.83-3.385l-11.905 22.509"/><path transform="translate(-16.459-11.623)" clip-path="url(#0)" d="m337.72 83.67c7.955-4.208 13.791-9.923 8.925-19.12-4.505-8.518-12.874-7.593-20.83-3.385l11.905 22.509"/><g stroke="#000" stroke-linecap="round"><g stroke-width="3"><path transform="translate(-16.459-11.623)" clip-path="url(#0)" d="m392.48 298.49c-.764 15.751-16.499 8.463-23.626 3.539-6.765-4.675-8.743-.789-9.337-10.01-.389-6.06-1.088-12.13-.744-18.216 10.23-.927 21.357 1.509 29.744 7.602 4.319 3.139 12.42 13.158 3.963 17.09" fill="#fff"/><path transform="translate(-16.459-11.623)" clip-path="url(#0)" d="m392.48 298.49c-2.29-.852-4.717-1.457-6.271-3.528" fill="#c6b198"/><path d="m179.05 1.5c-65.06 5.147-125.51 20.235-147.93 86.998-12.285 36.593-10.964 73.71-8.03 111.01h322.09c-.434-44.755-2.474-89.14-19.678-131.38-29.499-57.996-86.09-66.63-146.45-66.63" fill="#fff"/></g><g fill="#fff"><path transform="translate(-16.459-11.623)" clip-path="url(#0)" d="m206.17 94.16c10.838 63 113.82 46.34 99.03-17.197-13.264-56.98-102.63-41.21-99.03 17.197" stroke-width="2.908"/><path transform="translate(-16.459-11.623)" clip-path="url(#0)" d="m83.1 104.35c14.05 54.85 101.86 40.807 98.55-14.213-3.966-65.895-111.98-53.18-98.55 14.213" stroke-width="2.821"/><path transform="translate(-16.459-11.623)" clip-path="url(#0)" d="m218.59 169.76c.046 8.191 1.861 17.387.312 26.1-2.091 3.952-6.193 4.37-9.729 5.967-4.89-.767-9-3.978-10.963-8.552-1.255-9.946.468-19.576.785-29.526l19.595 6.01z" stroke-width="3"/></g></g><g transform="translate(-16.459-11.623)" clip-path="url(#0)"><ellipse ry="16.06" rx="14.829" cy="95.4" cx="107.32"/><ellipse ry="4.082" rx="3.496" cy="99.03" cx="114.07" fill="#fff"/></g><g transform="translate(-16.459-11.623)" clip-path="url(#0)"><ellipse ry="16.06" rx="14.582" cy="91.4" cx="231.57"/><ellipse ry="4.082" rx="3.438" cy="95.03" cx="238.2" fill="#fff"/></g><g fill="#fff" stroke-linecap="round" stroke-width="3"><path transform="translate(-16.459-11.623)" clip-path="url(#0)" d="m176.22 168.87c-6.47 15.68 3.608 47.03 21.16 23.908-1.255-9.946.468-19.576.785-29.526l-21.948 5.618z" stroke="#000"/><path transform="translate(-16.459-11.623)" clip-path="url(#0)" d="m178.43 138.67c-12.06 1.028-21.916 15.366-15.646 26.709 8.303 15.02 26.836-1.329 38.38.203 13.285.272 24.17 14.05 34.84 2.49 11.867-12.854-5.109-25.373-18.377-30.97l-39.2 1.568z" stroke="#231f20"/></g><path transform="translate(-16.459-11.623)" clip-path="url(#0)" d="m176.91 138.04c-.893-20.891 38.938-23.503 43.642-6.02 4.692 17.446-41.681 21.498-43.642 6.02"/><path d="m21.401 198.26l325.26-.007" fill="none" stroke="#000" stroke-width="2.493"/></g></svg>