<svg xmlns="http://www.w3.org/2000/svg" clip-rule="evenodd" stroke-miterlimit="10" viewBox="0 0 174.35 209.78" width="744.09" height="895.3"><path d="m43.08.36c-2.14-.36-4.24-.44-6.27-.28h-.01c0 0-13.88.94-14.51.99-12.67 1.01-22.29 11.43-22.29 25.82v169.66l14.19 13.23 142.6-23.97c9.81-1.7 17.56-13.27 17.56-25.77v-138.16l-131.27-21.52" fill="#0c481e"/><path d="m174.35 160.04c0 12.5-7.75 24.07-17.56 25.78l-142.6 23.96v-183.79c0-16.72 13.34-28.2 28.89-25.63l131.27 21.52v138.16" fill="#66b036"/><path d="m130.42 45.91l11.52 1.24v20.21l12.96.92v12.68l-12.96-.6v46.33c0 4.03.44 6.62 1.34 7.79.8 1.07 2.04 1.59 3.71 1.59.16 0 .33 0 .49-.01 2.55-.15 5.33-.93 8.35-2.31v11.65c-5.14 2.25-10.18 3.6-15.13 4.02-.71.05-1.41.08-2.08.08-4.48 0-7.9-1.3-10.24-3.93-2.73-3.05-4.09-7.95-4.09-14.67v-51.36l-6.23-.28v-13.59l7.59.55 4.77-20.31" fill="#fff"/><g fill="#0c481e"><path d="m154.9 80.96l-12.96-.6v.28l6.94.32h6.02"/><path d="m144.64 135.6c.66.32 1.43.47 2.35.47.16 0 .33 0 .49-.01 2.55-.15 5.33-.93 8.35-2.31h-6.02c-1.82.83-3.53 1.46-5.17 1.85"/><path d="m128.38 145.57c-2.73-3.05-4.09-7.95-4.09-14.67v-51.36l-6.23-.28v-13.59h-6.01v3.04c.87 3.27 1.55 6.82 2.06 10.64l4.17.19v51.36c0 6.72 1.36 11.62 4.09 14.67 2.34 2.63 5.76 3.93 10.24 3.93h6.01c-4.48 0-7.9-1.3-10.24-3.93m2.04-99.66h-6.01l-4.67 19.88 5.91.43 4.77-20.31"/></g><path d="m91.15 132.4c2.35-6.04 3.51-17.91 3.51-35.61 0-15.89-1.15-26.82-3.48-32.81-2.34-6.03-5.83-9.29-10.52-9.7-.36-.03-.71-.05-1.06-.05-4.34 0-7.68 2.54-10.01 7.63-2.52 5.54-3.79 17.04-3.79 34.44 0 16.81 1.24 28.75 3.74 35.75 2.35 6.67 5.87 9.98 10.5 9.98.21 0 .41-.01.62-.02 4.63-.3 8.12-3.5 10.49-9.61m17.98 3.75c-4.12 9.71-10.4 16.06-18.99 19 .87 4.45 2.18 7.45 3.92 9.02 1.35 1.22 3.43 1.82 6.22 1.82.81 0 1.68-.05 2.59-.15v13.12l-5.96.79c-1.75.22-3.42.34-5 .34-5.22 0-9.44-1.27-12.62-3.83-4.21-3.37-7.31-9.89-9.3-19.53-9.13-1.95-16.26-7.76-21.19-17.5-5-9.91-7.55-24.4-7.55-43.34 0-20.43 3.49-35.51 10.35-45.08 5.78-8.06 13.86-12.03 24.02-12.03 1.62 0 3.31.1 5.04.3 11.95 1.38 20.62 7.02 26.26 16.79 5.54 9.56 8.25 23.27 8.25 41.26 0 16.49-2 29.45-6.04 39.02" fill="#fff"/><g fill="#0c481e"><path d="m100.28 165.99c.81 0 1.67-.05 2.59-.15h-4.83c.67.1 1.45.15 2.24.15"/><path d="m84.85 63.98c2.34 5.99 3.49 16.92 3.49 32.81 0 17.7-1.16 29.57-3.52 35.61-1.89 4.88-4.52 7.91-7.86 9.08.97.36 2 .55 3.08.55.21 0 .41-.01.62-.02 4.63-.3 8.12-3.5 10.49-9.61 2.35-6.04 3.51-17.91 3.51-35.61 0-15.89-1.15-26.82-3.48-32.81-2.34-6.03-5.83-9.29-10.52-9.7-.36-.03-.71-.05-1.06-.05-1.09 0-2.12.16-3.08.49 3.6 1.11 6.37 4.21 8.33 9.26m-2.34 114.27c-.11-.05-.23-.1-.34-.16-.01 0-.02-.01-.03-.01-.11-.05-.21-.11-.31-.16-.02-.01-.04-.02-.06-.03-.09-.05-.18-.1-.28-.15-.03-.02-.05-.03-.08-.05-.08-.04-.17-.09-.25-.14-.04-.02-.07-.04-.11-.07-.07-.04-.14-.08-.21-.12-.05-.03-.1-.06-.14-.09-.06-.04-.12-.08-.18-.12-.06-.03-.11-.07-.17-.11-.05-.03-.1-.06-.15-.1-.06-.04-.13-.09-.19-.13-.04-.03-.08-.06-.12-.09-.07-.05-.15-.11-.22-.17-.03-.01-.06-.03-.08-.05-.1-.08-.2-.16-.3-.24-4.21-3.37-7.31-9.89-9.3-19.53-9.13-1.95-16.26-7.76-21.19-17.5-5-9.91-7.55-24.4-7.55-43.34 0-20.43 3.49-35.51 10.35-45.08 5.78-8.06 13.86-12.03 24.02-12.03.03 0-6.35-.01-6.35-.01v.01c-10.15 0-18.22 3.97-24 12.03-6.86 9.57-10.35 24.65-10.35 45.08 0 18.94 2.55 33.43 7.55 43.34 4.94 9.74 12.06 15.55 21.2 17.5 1.98 9.64 5.09 16.16 9.29 19.53 3.18 2.56 7.4 3.83 12.62 3.83.1 0 .2 0 .3 0h5.54c-3.41-.06-6.38-.66-8.9-1.83-.01 0-.01 0-.01-.01"/></g></svg>