<?xml version="1.0" encoding="UTF-8" standalone="no"?>
<svg
   xmlns:dc="http://purl.org/dc/elements/1.1/"
   xmlns:cc="http://creativecommons.org/ns#"
   xmlns:rdf="http://www.w3.org/1999/02/22-rdf-syntax-ns#"
   xmlns:svg="http://www.w3.org/2000/svg"
   xmlns="http://www.w3.org/2000/svg"
   xmlns:sodipodi="http://sodipodi.sourceforge.net/DTD/sodipodi-0.dtd"
   xmlns:inkscape="http://www.inkscape.org/namespaces/inkscape"
   fill="#4CAF50"
   width="48"
   height="48"
   viewBox="0 0 48 48"
   id="svg2"
   version="1.1"
   inkscape:version="0.91 r13725"
   sodipodi:docname="gnome-logs.svg">
  <metadata
     id="metadata10">
    <rdf:RDF>
      <cc:Work
         rdf:about="">
        <dc:format>image/svg+xml</dc:format>
        <dc:type
           rdf:resource="http://purl.org/dc/dcmitype/StillImage" />
      </cc:Work>
    </rdf:RDF>
  </metadata>
  <defs
     id="defs8" />
  <sodipodi:namedview
     pagecolor="#ffffff"
     bordercolor="#666666"
     borderopacity="1"
     objecttolerance="10"
     gridtolerance="10"
     guidetolerance="10"
     inkscape:pageopacity="0"
     inkscape:pageshadow="2"
     inkscape:window-width="1366"
     inkscape:window-height="713"
     id="namedview6"
     showgrid="false"
     inkscape:snap-bbox="true"
     inkscape:bbox-nodes="true"
     inkscape:snap-bbox-edge-midpoints="false"
     inkscape:zoom="5.368001304915684"
     inkscape:cx="11.55204496698636"
     inkscape:cy="31.79484632604608"
     inkscape:window-x="0"
     inkscape:window-y="30"
     inkscape:window-maximized="1"
     inkscape:current-layer="svg2" />
  <path
     d="M 24 2 C 21.39 2 19.18914062500001 3.68 18.369140625 6 L 10 6 C 7.79 6 6 7.789999999999999 6 10 L 6 38 C 6 40.21 7.789999999999999 42 10 42 L 38 42 C 40.21 42 42 40.21 42 38 L 42 10 C 42 7.79 40.21 6 38 6 L 29.630859375 6 C 28.810859375 3.68 26.61 2 24 2 z M 24 6 C 25.1 6 26 6.89 26 8 C 26 9.109999999999999 25.1 10 24 10 C 22.9 10 22 9.109999999999999 22 8 C 22 6.890000000000001 22.9 6 24 6 z M 20.296875 14 L 22.658203125 15.955078125 L 15.986328125 23.990234375 L 22.658203125 32.03515625 L 20.296875 33.990234375 L 12 23.990234375 L 20.296875 14 z M 27.703125 14 L 36 23.998046875 L 27.703125 33.990234375 L 25.341796875 32.03515625 L 32.013671875 23.998046875 L 25.341796875 15.955078125 L 27.703125 14 z "
     id="path4265" />
  <g
     style="fill:#000000;fill-opacity:1"
     transform="translate(7.096439213333185,-23.15309021484047)"
     id="g4208">
    <path
       inkscape:connector-curvature="0"
       style="fill:#000000;fill-opacity:1"
       d="m 56.94364142009489,-1.45679545519873 -3.07999999999999,-2.549999999999999 -10.82,13.029999999999999 10.82,13.039999999999999 3.07999999999999,-2.55 -8.7,-10.489999999999998 8.7,-10.48 z"
       id="path4210" />
    <path
       inkscape:connector-curvature="0"
       style="fill:#000000;fill-opacity:1"
       d="m 76.9436414200949,-4.016795455198729 -3.08000000000001,2.549999999999999 8.7,10.49 -8.7,10.480000000000011 3.07999999999997,2.54999999999999 L 87.76364142009488,9.02320454480127 76.94364142009489,-4.016795455198729 Z"
       id="path4212" />
  </g>
  <path
     style="fill:#4CAF50"
     d="m 17.42324367445479,-14.14305202115658 8,0 0,-4 -8,0 0,4 z"
     id="path4242" />
  <path
     style="fill:#4CAF50"
     d="m 3.423243674454792,-38.14305202115658 0,4 36.000000000000014,0 0,-4 -36.000000000000014,0 z"
     id="path4240" />
  <path
     style="fill:#4CAF50"
     d="m 9.423243674454791,-24.14305202115658 24.00000000000001,0 0,-4 -24.00000000000001,0 0,4 z"
     id="path4226" />
</svg>
