<svg xmlns="http://www.w3.org/2000/svg" fill="#CDDC39" viewBox="0 0 48 48"><path d="m8 4c-2.21 0-3.98 1.79-3.98 4l-.02 36 8-8h28c2.21 0 4-1.79 4-4v-24c0-2.21-1.79-4-4-4h-32m15.994 6c5.525 0 10.01 4.475 10.01 10 0 5.525-4.481 10-10.01 10-5.525 0-9.994-4.475-9.994-10 0-5.525 4.469-10 9.994-10m.006 2c-4.42 0-8 3.58-8 8 0 4.42 3.58 8 8 8 4.42 0 8-3.58 8-8 0-4.42-3.58-8-8-8m-3.5 4c.83 0 1.5.67 1.5 1.5 0 .83-.67 1.5-1.5 1.5-.83 0-1.5-.67-1.5-1.5 0-.83.67-1.5 1.5-1.5m7 0c.83 0 1.5.67 1.5 1.5 0 .83-.67 1.5-1.5 1.5-.83 0-1.5-.67-1.5-1.5 0-.83.67-1.5 1.5-1.5m-8.605 6h10.211c-.8 2.045-2.775 3.5-5.105 3.5-2.33 0-4.305-1.455-5.105-3.5"/></svg>