<?xml version="1.0" encoding="UTF-8" standalone="no"?>
<svg
   xmlns:dc="http://purl.org/dc/elements/1.1/"
   xmlns:cc="http://creativecommons.org/ns#"
   xmlns:rdf="http://www.w3.org/1999/02/22-rdf-syntax-ns#"
   xmlns:svg="http://www.w3.org/2000/svg"
   xmlns="http://www.w3.org/2000/svg"
   xmlns:sodipodi="http://sodipodi.sourceforge.net/DTD/sodipodi-0.dtd"
   xmlns:inkscape="http://www.inkscape.org/namespaces/inkscape"
   width="48"
   height="48"
   viewBox="0 0 48.00000000000001 48"
   id="svg2"
   version="1.1"
   inkscape:version="0.91 r13725"
   sodipodi:docname="battery-caution.svg"
   style="fill:#f44336">
  <metadata
     id="metadata10">
    <rdf:RDF>
      <cc:Work
         rdf:about="">
        <dc:format>image/svg+xml</dc:format>
        <dc:type
           rdf:resource="http://purl.org/dc/dcmitype/StillImage" />
        <dc:title></dc:title>
      </cc:Work>
    </rdf:RDF>
  </metadata>
  <defs
     id="defs8" />
  <sodipodi:namedview
     pagecolor="#ffffff"
     bordercolor="#666666"
     borderopacity="1"
     objecttolerance="10"
     gridtolerance="10"
     guidetolerance="10"
     inkscape:pageopacity="0"
     inkscape:pageshadow="2"
     inkscape:window-width="668"
     inkscape:window-height="480"
     id="namedview6"
     showgrid="false"
     fit-margin-top="0"
     fit-margin-left="0"
     fit-margin-right="0"
     fit-margin-bottom="0"
     inkscape:zoom="6.549153645833335"
     inkscape:cx="-12.90372284904816"
     inkscape:cy="20.01000000000001"
     inkscape:window-x="0"
     inkscape:window-y="30"
     inkscape:window-maximized="0"
     inkscape:current-layer="svg2" />
  <path
     d="m 31.32499999999999,7.994999999999996 -3.32999999999999,0 0,-3.999999999999999 -8,0 0,3.999999999999999 -3.33000000000001,0 c -1.48,0 -2.67,1.19000000000001 -2.67,2.670000000000003 l 9e-15,30.67000000000002 C 13.995,42.80499999999999 15.185,44.005 16.665,44.005 l 14.67,0 c 1.46999999999999,0 2.67000000000001,-1.18999999999997 2.67000000000001,-2.66999999999998 l 0,-30.67000000000002 c -0.01,-1.479999999999993 -1.20000000000002,-2.670000000000003 -2.68000000000002,-2.670000000000003 z M 25.995,35.99500000000001 l -4,0 L 21.995,31.995 l 4,0 0,4.00000000000001 z m 0,-8.00000000000002 -4,0 L 21.995,17.995 l 4,0 0,10 z"
     id="path4"
     inkscape:connector-curvature="0" />
</svg>
