<?xml version="1.0" encoding="UTF-8" standalone="no"?>
<svg
   xmlns:dc="http://purl.org/dc/elements/1.1/"
   xmlns:cc="http://creativecommons.org/ns#"
   xmlns:rdf="http://www.w3.org/1999/02/22-rdf-syntax-ns#"
   xmlns:svg="http://www.w3.org/2000/svg"
   xmlns="http://www.w3.org/2000/svg"
   xmlns:sodipodi="http://sodipodi.sourceforge.net/DTD/sodipodi-0.dtd"
   xmlns:inkscape="http://www.inkscape.org/namespaces/inkscape"
   width="48"
   height="44"
   viewBox="0 0 48 44"
   id="svg2"
   version="1.1"
   inkscape:version="0.91 r13725"
   sodipodi:docname="applets-screenshooter-symbolic.svg"
   style="fill:#4caf50">
  <metadata
     id="metadata12">
    <rdf:RDF>
      <cc:Work
         rdf:about="">
        <dc:format>image/svg+xml</dc:format>
        <dc:type
           rdf:resource="http://purl.org/dc/dcmitype/StillImage" />
        <dc:title></dc:title>
      </cc:Work>
    </rdf:RDF>
  </metadata>
  <defs
     id="defs10" />
  <sodipodi:namedview
     pagecolor="#ffffff"
     bordercolor="#666666"
     borderopacity="1"
     objecttolerance="10"
     gridtolerance="10"
     guidetolerance="10"
     inkscape:pageopacity="0"
     inkscape:pageshadow="2"
     inkscape:window-width="1366"
     inkscape:window-height="713"
     id="namedview8"
     showgrid="false"
     inkscape:snap-page="true"
     inkscape:snap-bbox="true"
     inkscape:bbox-nodes="true"
     inkscape:zoom="12.79753430668955"
     inkscape:cx="-58.30324660327673"
     inkscape:cy="11.24258470473736"
     inkscape:window-x="0"
     inkscape:window-y="30"
     inkscape:window-maximized="1"
     inkscape:current-layer="svg2"
     fit-margin-top="0"
     fit-margin-left="0"
     fit-margin-right="0"
     fit-margin-bottom="0" />
  <path
     id="path4142"
     style="fill:#4caf50"
     d="m 8.604228440844963e-16,12 0,28 C 8.604228440844963e-16,42.21 1.79,44 4.000000000000002,44 L 32,44 32,40 4,40 4,12 0,12 Z M 22,0 18.34,4 12,4 C 9.789999999999999,4 8,5.79 8,8 l 0,24 c 0,2.21 1.789999999999999,4 4,4 l 32,0 c 2.21,0 4,-1.79 4,-4 L 48,8 C 48,5.79 46.21,4 44,4 L 37.66,4 34,0 22,0 Z m 6,30 c -5.52,0 -10,-4.48000000000001 -10,-10 0,-5.52 4.48,-10 10,-10 5.52,0 10,4.48 10,10 0,5.51999999999999 -4.48,10 -10,10 z M 34.40000009536743,20 A 6.400000095367431,6.400000095367431 0 0 1 28,26.40000009536743 6.400000095367431,6.400000095367431 0 0 1 21.59999990463257,20 6.400000095367431,6.400000095367431 0 0 1 28,13.59999990463257 6.400000095367431,6.400000095367431 0 0 1 34.40000009536743,20 Z"
     inkscape:connector-curvature="0" />
</svg>
