<?xml version="1.0" encoding="UTF-8" standalone="no"?>
<!-- Created with Inkscape (http://www.inkscape.org/) -->

<svg
   xmlns:dc="http://purl.org/dc/elements/1.1/"
   xmlns:cc="http://creativecommons.org/ns#"
   xmlns:rdf="http://www.w3.org/1999/02/22-rdf-syntax-ns#"
   xmlns:svg="http://www.w3.org/2000/svg"
   xmlns="http://www.w3.org/2000/svg"
   xmlns:sodipodi="http://sodipodi.sourceforge.net/DTD/sodipodi-0.dtd"
   xmlns:inkscape="http://www.inkscape.org/namespaces/inkscape"
   version="1.0"
   width="96"
   height="96"
   id="svg2408"
   inkscape:version="0.91 r13725"
   sodipodi:docname="vim11.svg">
  <sodipodi:namedview
     pagecolor="#ffffff"
     bordercolor="#666666"
     borderopacity="1"
     objecttolerance="10"
     gridtolerance="10"
     guidetolerance="10"
     inkscape:pageopacity="0"
     inkscape:pageshadow="2"
     inkscape:window-width="1366"
     inkscape:window-height="713"
     id="namedview98"
     showgrid="false"
     inkscape:snap-bbox="true"
     inkscape:bbox-nodes="true"
     inkscape:snap-bbox-midpoints="true"
     inkscape:snap-object-midpoints="true"
     inkscape:zoom="2.072094063539742"
     inkscape:cx="-58.13292412554152"
     inkscape:cy="43.45466753596629"
     inkscape:window-x="0"
     inkscape:window-y="30"
     inkscape:window-maximized="1"
     inkscape:current-layer="svg2408" />
  <defs
     id="defs2410">
    <linearGradient
       x1="45.447727"
       y1="92.539597"
       x2="45.447727"
       y2="7.0165396"
       id="ButtonShadow"
       gradientUnits="userSpaceOnUse"
       gradientTransform="scale(1.0058652,0.994169)">
      <stop
         id="stop3750"
         style="stop-color:#000000;stop-opacity:1"
         offset="0" />
      <stop
         id="stop3752"
         style="stop-color:#000000;stop-opacity:0.58823532"
         offset="1" />
    </linearGradient>
    <filter
       color-interpolation-filters="sRGB"
       id="filter3174">
      <feGaussianBlur
         id="feGaussianBlur3176"
         stdDeviation="1.71" />
    </filter>
  </defs>
  <metadata
     id="metadata2413">
    <rdf:RDF>
      <cc:Work
         rdf:about="">
        <dc:format>image/svg+xml</dc:format>
        <dc:type
           rdf:resource="http://purl.org/dc/dcmitype/StillImage" />
        <dc:title />
      </cc:Work>
    </rdf:RDF>
  </metadata>
  <rect
     transform="matrix(0.7071067811865475,-0.7071067811865475,0.7071067811865475,0.7071067811865475,0,0)"
     style="opacity:1;fill:#000000;fill-opacity:1;fill-rule:nonzero;stroke:none;stroke-width:2;stroke-miterlimit:4;stroke-dasharray:none;stroke-opacity:1"
     id="rect4236"
     width="63.52239608764648"
     height="63.52239608764648"
     x="-31.76119804382324"
     y="36.12105178833008"
     ry="7.058043956756592"
     rx="7.058043956756592" />
  <rect
     rx="6.721946716308594"
     ry="6.721946716308594"
     y="37.63349151611328"
     x="-30.24876022338867"
     height="60.49752044677734"
     width="60.49752044677734"
     id="rect4583"
     style="opacity:1;fill:#000080;fill-opacity:1;fill-rule:nonzero;stroke:none;stroke-width:2;stroke-miterlimit:4;stroke-dasharray:none;stroke-opacity:1"
     transform="matrix(0.7071067811865475,-0.7071067811865475,0.7071067811865475,0.7071067811865475,0,0)" />
  <path
     style="opacity:1;fill:#00ff00;fill-opacity:1;fill-rule:nonzero;stroke:none;stroke-width:2;stroke-miterlimit:4;stroke-dasharray:none;stroke-opacity:1"
     d="M 48 8 C 46.28174202072567 8.000000000000002 44.56271189732777 8.657991227672222 43.24609375 9.974609375 L 9.974609375 43.24609375 C 7.341373080344441 45.87933004465554 7.341373080344447 50.12066995534445 9.974609375 52.75390625 L 25.22265625 68 L 68 25.22265625 L 52.75390625 9.974609375 C 51.43728810267223 8.657991227672225 49.71825797927433 7.999999999999999 48 8 z "
     id="rect4585" />
  <g
     style="fill:#008000;fill-opacity:1"
     id="g3431"
     transform="matrix(1.128869348226487,-1.128869348226487,1.128869348226487,1.128869348226487,7.36070346384649,48)">
    <rect
       rx="4"
       ry="4"
       y="0"
       x="0"
       height="36"
       width="36"
       id="rect4183"
       style="opacity:1;fill:#008000;fill-opacity:1;fill-rule:nonzero;stroke:none;stroke-width:2;stroke-miterlimit:4;stroke-dasharray:none;stroke-opacity:1" />
  </g>
  <path
     id="path4444"
     d="m 16.62310201397838,13.88396302989573 26.43427017138611,0 1.6104896098554,1.61265163237077 0,4.94918594920108 -1.27728604073729,1.55704387370301 -2.88777809021466,0 0,24.57909981225064 24.87931123688776,-24.57909981225064 -4.10952857635095,0 -1.44389026491831,-1.55704387370301 0,-5.22722918104081 1.33282159533831,-1.22339288319549 26.76747374050423,0 1.33281915571631,1.33461061978149 0,4.89357597128283 -60.53224926833014,62.17065483180863 -6.8862379969856,0 -1.99325165973981,-1.15235023760847 0,-59.46125850124663 -3.33802984236941,0 -1.2217504861363,-1.22339288319547 0,-5.22722918104082 1.33281671609434,-1.44582613711701 z"
     style="fill:#c0c0c0;fill-opacity:1;stroke:#000000;stroke-width:4.4010372162;stroke-linecap:butt;stroke-linejoin:miter;stroke-miterlimit:4;stroke-dasharray:none;stroke-opacity:1"
     inkscape:connector-curvature="0" />
  <path
     id="path4450"
     d="m 43.33832881030166,16.39952780640889 1.4922069781002,-0.78642690697461 -1.53147513338302,-1.53353313437563 -26.66337263128003,0 -1.35476843461041,1.35658563779354 0,5.13143967362265 1.50202401692091,1.5040415150702 0.716653592399,-1.5040415150702 -0.9424454852751,-0.94371406376987 0,-3.61756687903385 0.70683411395632,-0.62913975017932 25.44604761940338,0 0.62829536376875,1.02235542291709 z"
     style="fill:#ffffff;fill-opacity:1;stroke:#000000;stroke-width:0.2200518399px;stroke-linecap:butt;stroke-linejoin:miter;stroke-opacity:1"
     inkscape:connector-curvature="0" />
  <path
     id="path4454"
     d="m 21.62117994696952,20.44580061146758 0,60.05751783667465 0.77747824743818,0.88974189268801 -0.60970056508799,1.1635552331592 -1.72273417722656,-1.71964391608921 0,-58.83412717272967 z"
     style="fill:#ffffff;fill-opacity:1;stroke:#000000;stroke-width:0.2200518399px;stroke-linecap:butt;stroke-linejoin:miter;stroke-opacity:1"
     inkscape:connector-curvature="0"
     sodipodi:nodetypes="ccccccc" />
  <path
     id="path4456"
     d="m 17.3135223512981,20.44580061146758 -0.44427467832008,1.44582835636747 3.22098409895473,0 1.77709383403642,-1.44582835636747 -4.55380325467107,0 z"
     style="fill:#808080;fill-opacity:1;stroke:#000000;stroke-width:0.2200518399px;stroke-linecap:butt;stroke-linejoin:miter;stroke-opacity:1"
     inkscape:connector-curvature="0" />
  <path
     sodipodi:nodetypes="cccccccccccccccccc"
     id="path4458"
     d="m 61.55895778976665,22.06967055489179 0.70683411395634,-1.45488955597798 -1.02098423546268,-0.94371406376989 0,-3.22435120629608 1.17805929621585,-1.17964479896284 24.58213844469387,0 0.9424454852751,1.25828615811001 1.33513191734703,-0.94371406376989 -1.37440007262984,-1.37624819683077 -26.42776369958323,0 -1.31549540008366,1.3172671774704 0,5.17075813394579 1.36458303380914,1.28777777741543 m -21.35720459776431,24.82849695920866 -2.56718492707676,6.2373498761958 28.98022062880696,-29.09781331206422 0,-3.46027972223854 -26.4130357017302,26.32074315810696 z"
     style="fill:#ffffff;fill-opacity:1;stroke:#000000;stroke-width:0.2200518399px;stroke-linecap:butt;stroke-linejoin:miter;stroke-opacity:1"
     inkscape:connector-curvature="0" />
  <path
     sodipodi:nodetypes="ccccccccccc"
     id="path4460"
     d="m 43.27950464528061,16.21953105970069 1.27728848035926,-0.83413191476971 0,5.0604014665366 -1.47165560259684,1.47363334532659 -2.86001031291417,0 0,24.94055135321635 -2.61010763607559,6.1725810516471 0,-32.58676575019004 4.7759405938311,0 0.88854447739624,-0.72291417818374 0,-3.50335537358315 z"
     style="fill:#808080;fill-opacity:1;stroke:#000000;stroke-width:0.2200518399px;stroke-linecap:butt;stroke-linejoin:miter;stroke-opacity:1"
     inkscape:connector-curvature="0" />
  <path
     id="path4464"
     d="m 87.94745089444512,16.24224286886406 1.34142370241628,-0.77551263323362 0,4.86493432490194 -60.84200319104051,62.25470228506574 -6.45949932140984,0 0.61714141210668,-1.2279334696278 4.94784367693819,0 60.31655741042361,-62.36369189419424 z"
     style="fill:#808080;fill-opacity:1;stroke:#000000;stroke-width:0.2200518399px;stroke-linecap:butt;stroke-linejoin:miter;stroke-opacity:1"
     inkscape:connector-curvature="0"
     sodipodi:nodetypes="ccccccccc" />
  <path
     sodipodi:nodetypes="ccccc"
     id="path4466"
     d="m 66.46502538003346,20.529211139844 -1.36058449339485,1.41802558665883 -3.55419010769477,0 L 62.383264580983,20.529211139844 c 0.0277677773005,0 4.08176079905045,0 4.08176079905045,0 z"
     style="fill:#808080;fill-opacity:1;stroke:#000000;stroke-width:0.2200518399px;stroke-linecap:butt;stroke-linejoin:miter;stroke-opacity:1"
     inkscape:connector-curvature="0" />
  <g
     transform="matrix(0.2199041116452758,0,0,0.2201996715464186,-35.9567939670943,-67.68333137256493)"
     id="g4468"
     style="fill:#c0c0c0;fill-opacity:1">
    <path
       sodipodi:type="inkscape:offset"
       inkscape:radius="1.232886910438538"
       inkscape:original="M 400.03125 561.21875 L 394.71875 565.78125 L 389.40625 580.65625 L 393.46875 584.71875 L 409.875 584.71875 L 414.15625 580.40625 L 418.71875 564.75 L 415.1875 561.21875 L 400.03125 561.21875 z M 369.96875 603.15625 L 367.9375 611.21875 L 379.3125 611.21875 L 354.8125 681.1875 L 389.65625 681.1875 L 391.9375 673.84375 L 382.34375 673.84375 L 406.59375 603.15625 L 369.96875 603.15625 z M 480.84375 603.40625 L 473.25 612 L 460.625 612 L 452.5625 603.65625 L 425.03125 603.65625 L 422.5 611.21875 L 431.59375 611.21875 L 408.09375 680.4375 L 437.40625 680.4375 L 439.65625 673.84375 L 432.84375 673.84375 L 448.25 625.375 L 477.3125 625.375 L 460.125 680.4375 L 488.40625 680.4375 L 490.9375 674.375 L 484.125 674.375 L 499.78125 625.125 L 527.5625 625.125 L 510.125 680.4375 L 541.1875 680.4375 L 543.71875 673.84375 L 535.875 673.84375 L 555.09375 611.46875 L 549.28125 603.65625 L 527.0625 603.65625 L 519.71875 611.71875 L 506.34375 611.71875 L 498.75 603.40625 L 480.84375 603.40625 z "
       style="fill:#c0c0c0;fill-opacity:1;stroke:#000000;stroke-width:8;stroke-linecap:butt;stroke-linejoin:miter;stroke-miterlimit:10;stroke-dasharray:none;stroke-opacity:1"
       id="path4470"
       d="m 400.03125,559.986328125 a 1.233010199129581,1.233010199129581 0 0 0 -0.802734375,0.296875 l -5.3125,4.5625 a 1.233010199129581,1.233010199129581 0 0 0 -0.357421875,0.521484375 l -5.3125,14.875 a 1.233010199129581,1.233010199129581 0 0 0 0.2890625,1.28515625 l 4.0625,4.0625 a 1.233010199129581,1.233010199129581 0 0 0 0.87109375,0.361328125 l 16.40625,0 a 1.233010199129581,1.233010199129581 0 0 0 0.875,-0.36328125 l 4.28125,-4.3125 a 1.233010199129581,1.233010199129581 0 0 0 0.30859375,-0.5234375 l 4.5625,-15.65625 a 1.233010199129581,1.233010199129581 0 0 0 -0.3125,-1.216796875 l -3.53125,-3.53125 A 1.233010199129581,1.233010199129581 0 0 0 415.1875,559.986328125 l -15.15625,0 z m -30.0625,41.9375 a 1.233010199129581,1.233010199129581 0 0 0 -1.1953125,0.931640625 l -2.03125,8.0625 a 1.233010199129581,1.233010199129581 0 0 0 1.1953125,1.533203125 l 9.63671875,0 -23.92578125,68.328125 a 1.233010199129581,1.233010199129581 0 0 0 1.1640625,1.640625 l 34.84375,0 a 1.233010199129581,1.233010199129581 0 0 0 1.177734375,-0.8671875 l 2.28125,-7.34375 A 1.233010199129581,1.233010199129581 0 0 0 391.9375,672.611328125 l -7.8671875,0 23.689453125,-69.0546875 a 1.233010199129581,1.233010199129581 0 0 0 -1.166015625,-1.6328125 l -36.625,0 z m 110.875,0.25 a 1.233010199129581,1.233010199129581 0 0 0 -0.923828125,0.416015625 l -7.2265625,8.177734375 -11.544921875,0 -7.69921875,-7.96875 a 1.233010199129581,1.233010199129581 0 0 0 -0.88671875,-0.375 l -27.53125,0 a 1.233010199129581,1.233010199129581 0 0 0 -1.169921875,0.841796875 l -2.53125,7.5625 A 1.233010199129581,1.233010199129581 0 0 0 422.5,612.451171875 l 7.373046875,0 -22.947265625,67.58984375 a 1.233010199129581,1.233010199129581 0 0 0 1.16796875,1.62890625 l 29.3125,0 a 1.233010199129581,1.233010199129581 0 0 0 1.166015625,-0.833984375 l 2.25,-6.59375 A 1.233010199129581,1.233010199129581 0 0 0 439.65625,672.611328125 l -5.126953125,0 14.623046875,-46.00390625 26.482421875,0 -16.6875,53.462890625 A 1.233010199129581,1.233010199129581 0 0 0 460.125,681.669921875 l 28.28125,0 a 1.233010199129581,1.233010199129581 0 0 0 1.138671875,-0.7578125 l 2.53125,-6.0625 A 1.233010199129581,1.233010199129581 0 0 0 490.9375,673.142578125 l -5.126953125,0 14.873046875,-46.78515625 25.197265625,0 -16.931640625,53.708984375 A 1.233010199129581,1.233010199129581 0 0 0 510.125,681.669921875 l 31.0625,0 a 1.233010199129581,1.233010199129581 0 0 0 1.150390625,-0.791015625 l 2.53125,-6.59375 A 1.233010199129581,1.233010199129581 0 0 0 543.71875,672.611328125 l -6.173828125,0 18.7265625,-60.779296875 a 1.233010199129581,1.233010199129581 0 0 0 -0.189453125,-1.099609375 l -5.8125,-7.8125 a 1.233010199129581,1.233010199129581 0 0 0 -0.98828125,-0.49609375 l -22.21875,0 a 1.233010199129581,1.233010199129581 0 0 0 -0.912109375,0.40234375 l -6.9765625,7.66015625 -12.287109375,0 -7.2265625,-7.912109375 A 1.233010199129581,1.233010199129581 0 0 0 498.75,602.173828125 l -17.90625,0 z" />
    <path
       d="m 400.03125,561.21875 -5.3125,4.5625 -5.3125,14.875 4.0625,4.0625 16.40625,0 4.28125,-4.3125 4.5625,-15.65625 -3.53125,-3.53125 -15.15625,0 z m -30.0625,41.9375 -2.03125,8.0625 11.375,0 -24.5,69.96875 34.84375,0 2.28125,-7.34375 -9.59375,0 24.25,-70.6875 -36.625,0 z m 110.875,0.25 L 473.25,612 l -12.625,0 -8.0625,-8.34375 -27.53125,0 -2.53125,7.5625 9.09375,0 -23.5,69.21875 29.3125,0 2.25,-6.59375 -6.8125,0 15.40625,-48.46875 29.0625,0 -17.1875,55.0625 28.28125,0 2.53125,-6.0625 -6.8125,0 15.65625,-49.25 27.78125,0 -17.4375,55.3125 31.0625,0 2.53125,-6.59375 -7.84375,0 19.21875,-62.375 -5.8125,-7.8125 -22.21875,0 -7.34375,8.0625 -13.375,0 -7.59375,-8.3125 -17.90625,0 z"
       id="path4472"
       style="fill:#c0c0c0;fill-opacity:1;stroke:#000000;stroke-width:1;stroke-linecap:butt;stroke-linejoin:miter;stroke-miterlimit:10;stroke-dasharray:none;stroke-opacity:1"
       inkscape:original="M 400.03125 561.21875 L 394.71875 565.78125 L 389.40625 580.65625 L 393.46875 584.71875 L 409.875 584.71875 L 414.15625 580.40625 L 418.71875 564.75 L 415.1875 561.21875 L 400.03125 561.21875 z M 369.96875 603.15625 L 367.9375 611.21875 L 379.3125 611.21875 L 354.8125 681.1875 L 389.65625 681.1875 L 391.9375 673.84375 L 382.34375 673.84375 L 406.59375 603.15625 L 369.96875 603.15625 z M 480.84375 603.40625 L 473.25 612 L 460.625 612 L 452.5625 603.65625 L 425.03125 603.65625 L 422.5 611.21875 L 431.59375 611.21875 L 408.09375 680.4375 L 437.40625 680.4375 L 439.65625 673.84375 L 432.84375 673.84375 L 448.25 625.375 L 477.3125 625.375 L 460.125 680.4375 L 488.40625 680.4375 L 490.9375 674.375 L 484.125 674.375 L 499.78125 625.125 L 527.5625 625.125 L 510.125 680.4375 L 541.1875 680.4375 L 543.71875 673.84375 L 535.875 673.84375 L 555.09375 611.46875 L 549.28125 603.65625 L 527.0625 603.65625 L 519.71875 611.71875 L 506.34375 611.71875 L 498.75 603.40625 L 480.84375 603.40625 z "
       inkscape:radius="0"
       sodipodi:type="inkscape:offset" />
  </g>
  <g
     id="layer2"
     style="display:none">
    <rect
       width="86"
       height="85"
       rx="6"
       ry="6"
       x="5"
       y="7"
       id="rect3745"
       style="opacity:0.9;fill:url(#ButtonShadow);fill-opacity:1;fill-rule:nonzero;stroke:none;filter:url(#filter3174)" />
  </g>
  <g
     transform="matrix(1.24769770067138,-1.24769770067138,1.24769770067138,1.24769770067138,3.082882775830312,48)"
     id="g4234"
     style="fill:#000000;fill-opacity:1" />
</svg>
