<svg xmlns="http://www.w3.org/2000/svg" viewBox="0 0 256 256"><defs><linearGradient id="1" x1="165.46" y1="92.66" x2="224.15" y2="86.29" gradientUnits="userSpaceOnUse"><stop stop-color="#b2cde9"/><stop offset="1" stop-color="#c4dbee"/></linearGradient><linearGradient id="2" x1="-382.04" y1="37.28" x2="-381.39" y2="165.57" gradientUnits="userSpaceOnUse"><stop stop-color="#d7def0"/><stop offset=".5" stop-color="#fff"/><stop offset="1" stop-color="#d5def0"/></linearGradient><linearGradient id="0" x1="-397.81" y1="149.19" x2="-397.56" y2="51.36" gradientUnits="userSpaceOnUse"><stop stop-color="#3b79bc"/><stop offset="1" stop-color="#94b8e0"/></linearGradient><radialGradient id="5" cx="-383.27" cy="217.91" r="59.4" gradientTransform="matrix(-1.28616-.08596.11454-1.71368-425.02 469.5)" gradientUnits="userSpaceOnUse"><stop stop-color="#96d0e1"/><stop offset=".678" stop-color="#89b7e1"/><stop offset="1" stop-color="#699dd3"/></radialGradient><radialGradient id="3" cx="-94.87" cy="165.27" r="60.48" gradientTransform="matrix(.81294 1.6998-2.15191 1.02916 564.39 118.48)" gradientUnits="userSpaceOnUse"><stop stop-color="#d0e2f1"/><stop offset=".856" stop-color="#cadef0"/><stop offset="1" stop-color="#95bee3"/></radialGradient><radialGradient id="6" cx="-118.78" cy="121.49" r="25.492" gradientUnits="userSpaceOnUse" gradientTransform="matrix(.02178-.95744.97872.02222-235.1 5.068)"><stop stop-color="#fff"/><stop offset="1" stop-opacity="0"/></radialGradient><radialGradient id="4" cx="-123.5" cy="-11.571" r="95.63" gradientTransform="matrix(-.00757.55751-1.03146-.01398 113.24 103.21)" gradientUnits="userSpaceOnUse"><stop stop-color="#658db6"/><stop offset=".768" stop-color="#527fab"/><stop offset="1" stop-color="#4071a0"/></radialGradient></defs><path d="m-92.74576 122.57627a25.491526 25.491526 0 1 1 -50.983056 0 25.491526 25.491526 0 1 1 50.983056 0" transform="matrix(4.68085 0 0 4.79787 685.1-449.7)" fill="url(#6)"/><path d="m232.17 88.12c0 15.674-19.791 34.932-45.844 34.932-26.05 0-59.922-16.08-59.922-31.755 0-15.674 21.12-28.38 47.17-28.38 19.903 0 46.36 18.293 56.46 20.352.792 1.711 1.369 2.925 2.134 4.852" fill="url(#1)"/><path d="m38.822 65.972c12.381-9.611 35.31-1.245 51.29 19.335 15.975 20.58 17.695 51.07 5.313 60.676-12.381 9.611-34.18-5.292-50.15-25.872-12.204-15.722-4.051-41.19-8.616-50.43.616-1.122 1.382-2.457 2.164-3.709" fill="#2e5c91"/><path d="m230.04 83.26c-7.01-.033-61.07.29-107.67.065-17.371 5.108-31.705 13.259-39.18 29.15-5.336-4.542-40.746-42.22-44.41-46.44 31.39-41.649 74.53-45.559 82.915-45.559 8.387 0 70.64-8.632 108.34 62.78" fill="url(#4)"/><path d="m117.12 243.97c-12.498-9.459-14.575-36.939 1.146-57.714 15.722-20.774 41.04-34.948 53.53-25.489 12.498 9.459 7.448 38.967-8.274 59.741-12.01 15.87-35.491 16.885-43.23 23.695-1.239-.046-1.955-.06-3.18-.234" fill="#699dd3"/><path d="m120.3 244.2c3.584-6.02 28.859-52.899 52.691-92.94 4.411-17.561 5.347-33.642-4.558-48.15 6.622-2.294 58.24-13.976 63.737-14.988 19.966 48.18 1.45 87.34-2.805 94.57-4.255 7.228-28.402 65.26-109.06 61.51" fill="url(#3)"/><path d="m36.697 69.64c3.469 6.09 30.723 52.78 53.779 93.27 13.09 12.505 27.685 19.485 45.19 18.03-1.274 6.891-16.629 57.75-18.464 63.03-51.756-6.422-76.67-41.855-80.85-49.12-4.185-7.269-42.73-56.915.348-125.21" fill="url(#5)"/><path transform="matrix(.77295 0 0 .77619 435.91 53.28)" d="m-338.44 101.42c0 32.65-26.468 59.12-59.12 59.12-32.65 0-59.12-26.468-59.12-59.12 0-32.65 26.468-59.12 59.12-59.12 32.65 0 59.12 26.468 59.12 59.12z" fill="url(#0)" stroke="url(#2)" stroke-width="10.07"/><g fill="#fff"><path d="m163.55 108.9c18.53 17.1 16.03 29.558 10.06 44-3.109-22.25-2.345-32.427-10.06-44"/><path d="m101.42 173.64c-22.646-14.473-29.81-45.72-8.813-62.99-10.848 19.775-6.225 32.399 8.813 62.99"/></g></svg>