<?xml version="1.0" encoding="UTF-8" standalone="no"?>
<svg
   xmlns:dc="http://purl.org/dc/elements/1.1/"
   xmlns:cc="http://creativecommons.org/ns#"
   xmlns:rdf="http://www.w3.org/1999/02/22-rdf-syntax-ns#"
   xmlns:svg="http://www.w3.org/2000/svg"
   xmlns="http://www.w3.org/2000/svg"
   xmlns:sodipodi="http://sodipodi.sourceforge.net/DTD/sodipodi-0.dtd"
   xmlns:inkscape="http://www.inkscape.org/namespaces/inkscape"
   fill="#4CAF50"
   width="48"
   height="48"
   viewBox="0 0 48 48"
   id="svg2"
   version="1.1"
   inkscape:version="0.91 r13725"
   sodipodi:docname="system-file-manager-arch.svg">
  <metadata
     id="metadata10">
    <rdf:RDF>
      <cc:Work
         rdf:about="">
        <dc:format>image/svg+xml</dc:format>
        <dc:type
           rdf:resource="http://purl.org/dc/dcmitype/StillImage" />
      </cc:Work>
    </rdf:RDF>
  </metadata>
  <defs
     id="defs8" />
  <sodipodi:namedview
     pagecolor="#ffffff"
     bordercolor="#666666"
     borderopacity="1"
     objecttolerance="10"
     gridtolerance="10"
     guidetolerance="10"
     inkscape:pageopacity="0"
     inkscape:pageshadow="2"
     inkscape:window-width="1366"
     inkscape:window-height="713"
     id="namedview6"
     showgrid="false"
     inkscape:snap-bbox="true"
     inkscape:snap-bbox-edge-midpoints="false"
     inkscape:snap-bbox-midpoints="true"
     inkscape:snap-object-midpoints="true"
     inkscape:zoom="12.35903677003018"
     inkscape:cx="26.35994940714563"
     inkscape:cy="19.27066691964672"
     inkscape:window-x="0"
     inkscape:window-y="30"
     inkscape:window-maximized="1"
     inkscape:current-layer="svg2" />
  <path
     d="m 20,5 -4,4 0,4 -8,0 C 5.79,13 4.01953125,14.79 4.01953125,17 L 4,39 c 0,2.21 1.790000000000001,4 4,4 l 32,0 c 2.21,0 4,-1.79 4,-4 l 0,-22 c 0,-2.21 -1.79,-4 -4,-4 l -8,0 0,-4 -4,-4 -8,0 z m 0,4 8,0 0,4 -8,0 0,-4 z m 4,9 c 0.0145,0.03403 0.0247325,0.05617375 0.0390625,0.08984375 0.32733200000001,0.76895300000001 0.61245287500001,1.439164625 0.888671875,2.087890625 0.00412,0.00966 0.00761875,0.02165 0.01171875,0.03125 0.034858,0.081779 0.076578125,0.178605625 0.111328125,0.259765625 0.071062,0.16341699999998 0.17158125,0.39814324999999 0.23828125,0.55078125 0.72324800000001,1.66822799999998 1.52393099999999,3.39390674999998 3.03125,6.32421875 0.06583,0.128399 0.14906,0.288299125 0.21875,0.423828125 0.80527200000003,1.5574 1.78150537499999,3.40683737499996 3.068359375,5.802734375 -0.67563799999999,-0.40566300000003 -1.54329525000001,-0.76941737500003 -2.75390625,-1.083984375 1.761288,0.90401000000002 2.62334987499999,1.73924337500004 3.451171875,2.380859375 C 32.83023150000001,35.84171050000002 33.38344200000002,36.864873 34,38 c -3.12643600000001,-1.80494799999999 -5.55940574999998,-2.92787675000001 -7.82421875,-3.37109375 0.075447,-0.34124400000001 0.11940625,-0.70927887500001 0.12890625,-1.091796875 0.050296,-2.03078000000004 -0.92436324999999,-3.76310662499999 -2.17578125,-3.869140625 -1.251418,-0.10603400000001 -2.30712187500001,1.45554912499996 -2.357421875,3.486328125 l -0.00390625,0.099609375 c -0.003789,0.476366 0.048534375,0.93520587499997 0.146484375,1.357421875 C 19.6246175,35.04205612499999 17.168961,36.17050300000001 14,38 c 1.96207299999999,-3.525447 3.40784450000001,-6.175579875 4.5546875,-8.326171875 0.800119,-1.50080800000001 1.445407375,-2.747200375 1.974609375,-3.802734375 0.267001,-0.532623 0.541941625,-1.07868012499998 0.759765625,-1.533203125 0.002,0.0017 0.003859375,0.004159375 0.005859375,0.005859375 0.118029,0.09907 0.25334675000001,0.19517875000001 0.38671875,0.29296875 0.053158,0.039017 0.098475875,0.0783475 0.154296875,0.1171875 0.052648,0.036595 0.116746,0.072925 0.171875,0.109375 0.150296,0.099522 0.30039712499999,0.20017812500001 0.470703125,0.298828125 0.0013,8e-4 0.00260625,0.001185125 0.00390625,0.001953125 0.232881,0.134777 0.484419625,0.26862775000001 0.759765625,0.40234375 0.27634400000001,0.134081 0.575668625,0.26667562500002 0.900390625,0.400390625 -0.29982100000001,-0.20976799999999 -0.570540375,-0.413857125 -0.818359375,-0.611328125 -0.002,-0.0015 -0.003959375,-0.00230625 -0.005859375,-0.00390625 -0.74539700000002,-0.594481 -1.27636975,-1.13221625 -1.73046875,-1.61328125 -0.0026,-0.0027 -0.007265625,-0.0051125 -0.009765625,-0.0078125 C 22.56926800000001,21.61276675 23.10977899999999,20.18258199999999 24,18 Z"
     id="path4158"
     inkscape:connector-curvature="0"
     style="fill:#1793d1;fill-opacity:1" />
</svg>
