<?xml version="1.0" encoding="UTF-8" standalone="no"?>
<svg
   xmlns:dc="http://purl.org/dc/elements/1.1/"
   xmlns:cc="http://creativecommons.org/ns#"
   xmlns:rdf="http://www.w3.org/1999/02/22-rdf-syntax-ns#"
   xmlns:svg="http://www.w3.org/2000/svg"
   xmlns="http://www.w3.org/2000/svg"
   xmlns:xlink="http://www.w3.org/1999/xlink"
   xmlns:sodipodi="http://sodipodi.sourceforge.net/DTD/sodipodi-0.dtd"
   xmlns:inkscape="http://www.inkscape.org/namespaces/inkscape"
   width="48"
   height="48"
   viewBox="0 0 48 48"
   id="svg2"
   version="1.1"
   inkscape:version="0.91 r13725"
   sodipodi:docname="zthunar.svg"
   style="fill:#4CAF50">
  <metadata
     id="metadata10">
    <rdf:RDF>
      <cc:Work
         rdf:about="">
        <dc:format>image/svg+xml</dc:format>
        <dc:type
           rdf:resource="http://purl.org/dc/dcmitype/StillImage" />
        <dc:title></dc:title>
      </cc:Work>
    </rdf:RDF>
  </metadata>
  <defs
     id="defs8">
    <linearGradient
       id="linearGradient2415"
       inkscape:collect="always">
      <stop
         id="stop2417"
         offset="0"
         style="stop-color:#eeeeec;stop-opacity:1;" />
      <stop
         id="stop2419"
         offset="1"
         style="stop-color:#eeeeec;stop-opacity:0;" />
    </linearGradient>
    <linearGradient
       gradientTransform="translate(-110.1118849005537,-10.69760855389823)"
       y2="15.22452"
       x2="29"
       y1="-0.025480289"
       x1="21.664345"
       gradientUnits="userSpaceOnUse"
       id="linearGradient2498"
       xlink:href="#linearGradient2415"
       inkscape:collect="always" />
  </defs>
  <sodipodi:namedview
     pagecolor="#ffffff"
     bordercolor="#666666"
     borderopacity="1"
     objecttolerance="10"
     gridtolerance="10"
     guidetolerance="10"
     inkscape:pageopacity="0"
     inkscape:pageshadow="2"
     inkscape:window-width="1366"
     inkscape:window-height="713"
     id="namedview6"
     showgrid="false"
     inkscape:zoom="7.999999987336736"
     inkscape:cx="19.4587605429168"
     inkscape:cy="27.88600762748757"
     inkscape:window-x="0"
     inkscape:window-y="30"
     inkscape:window-maximized="1"
     inkscape:current-layer="svg2"
     fit-margin-top="0"
     fit-margin-left="0"
     fit-margin-right="0"
     fit-margin-bottom="0"
     inkscape:snap-page="true"
     inkscape:snap-bbox="true"
     inkscape:bbox-nodes="true"
     showguides="false" />
  <path
     style="opacity:1;fill:#4CAF50;fill-opacity:1;fill-rule:nonzero;stroke:none;stroke-width:0.5;stroke-miterlimit:4;stroke-dasharray:none;stroke-opacity:1"
     d="M 12 6 C 9.783999999999999 6.000000000000001 8 7.783999999999999 8 10 L 8 22 C 8 24.216 9.783999999999999 26 12 26 L 20 26 L 20 38 L 20 40 C 20 41.108 20.892 42 22 42 L 26 42 C 27.108 42 28 41.108 28 40 L 28 36 L 28 26 L 36 26 C 38.216 26 40 24.216 40 22 L 40 10 C 40 7.784000000000001 38.216 6 36 6 L 12 6 z M 36 10.369140625 L 34.94140625 11.48046875 C 33.83494529142703 12.64319534093486 32.98643154184886 14.13418582875261 31.662109375 15.880859375 C 30.87242821502167 16.92238257922942 29.57025231531603 17.74101771939781 27.939453125 18.3828125 C 27.939453125 18.3828125 28.111278434995 20.22592077422341 27.544921875 21.65625 C 26.93791449427645 23.18923921046522 25.46808651859866 24.10437352748411 24.96484375 25.197265625 L 24.59375 26 L 23.896484375 25.408203125 C 23.28020449666169 24.88631711305852 21.77963249954547 23.97560001343912 20.77734375 22.470703125 C 20.14546499215488 21.5219635802506 19.93551628364458 20.22790058534073 20.02734375 18.78515625 C 18.33132507223704 18.30554401140512 16.95590827591868 17.59380145974429 16.080078125 16.595703125 C 14.6132072394509 14.9240513070199 13.95450203983082 12.96607252076561 12.890625 11.701171875 L 12 10.6484375 L 13.416015625 10.693359375 C 15.82450306708213 10.77230173406 18.42553876188098 10.70671584303533 20.845703125 11.296875 C 21.47421754880218 11.45013674608469 22.0523784667493 11.6968110738335 22.630859375 11.990234375 C 21.94247733057293 12.43131795211423 21.51415188995214 12.8812620987827 21.248046875 13.236328125 C 21.242616675223 13.243574587196 20.50694738054007 12.88448642025299 20.099609375 12.78515625 C 18.32620039283221 12.3527105407955 17.47929088022626 12.75876806358 15.482421875 12.705078125 C 16.28951153851853 13.98123614580503 16.15500101683996 14.70481535609299 17.11328125 15.796875 C 17.84083906577851 16.62600277747997 19.5949261735495 17.14018453206581 21.16796875 17.66796875 C 22.74101132645059 18.1957528351665 25.08010696016519 17.91280045814926 25.375 17.84765625 L 25.32421875 19.142578125 C 24.93439678985386 19.2308240493214 24.49444724258608 19.30327712276501 24.005859375 19.328125 C 22.54009577224169 19.4026691627759 21.71523790125364 19.06005928152637 21.619140625 19.017578125 C 21.5630781272508 20.13437505063064 21.82294337536576 21.09697140129358 22.3203125 21.84375 C 22.9418101497624 22.77690394201468 24.39884996256728 23.41671568915948 24.576171875 23.4921875 C 25.27614454144551 22.44655407267266 25.91723770875857 22.18848059496296 26.390625 21.087890625 C 26.67761437742064 20.42065847848287 27.21170255421804 19.41858073827082 26.451171875 17.046875 C 25.97748320103252 15.56967863604335 25.36690355114077 15.21234117149267 24.744140625 14.822265625 L 25.900390625 13.939453125 C 26.27268724601172 14.18916663715263 26.69608231939943 14.54229267414116 27.0390625 14.978515625 C 27.89995362698386 16.07344703470608 27.84078849703009 17.05682431406857 27.830078125 17.173828125 C 27.830078125 17.173828125 29.4528405078823 15.93738860412231 30.119140625 15.05859375 C 30.98325136921112 13.91890634164082 31.29955252947613 13.17632783259987 32.1015625 11.939453125 C 30.32186298322479 12.04842621480855 29.16238924001999 11.63963612520629 27.255859375 12.224609375 C 26.74028912353295 12.38279945887768 25.6655933101992 13.03112996352383 24.388671875 14.134765625 C 23.11175176747816 15.23840261415334 22.47976996846225 15.91911596974906 22.1484375 16.638671875 L 20.505859375 16.251953125 C 20.524958011625 16.205986284734 22.42236905896346 12.89429583526282 24.326171875 12.029296875 C 26.22997734639098 11.16430057009164 32.39613751219848 10.55230768625476 34.384765625 10.451171875 L 36 10.369140625 z "
     id="rect4141" />
  <path
     inkscape:connector-curvature="0"
     sodipodi:nodetypes="csczczc"
     id="path2534"
     d="m -93.7600409005537,3.626430446101772 c 1.648156,-2.324039000000001 1.648156,-6.324039000000001 7.648156,-6.324039000000001 6,0 6,4 8,6 -3,0 -8,0 -10,-4 -2,-4.0000000000000008 1,-6.0000000000000008 2,-7.0000000000000008 1,2 4,3 2,7.0000000000000008 -2,4 -6,4 -9.648156,4.324038999999999 z"
     style="display:none;fill:none;fill-opacity:1;fill-rule:evenodd;stroke:url(#linearGradient2498);stroke-width:1px;stroke-linecap:butt;stroke-linejoin:miter;stroke-opacity:1"
     sodipodi:insensitive="true" />
</svg>
