<svg xmlns="http://www.w3.org/2000/svg" fill="#1793D1" viewBox="0 0 48 48"><path d="m24.1 0c-13.26 0-24 10.74-24 24 0 13.26 10.74 24 24 24 13.26 0 24-10.74 24-24 0-13.26-10.74-24-24-24m0 4.801c10.584 0 19.2 8.615 19.2 19.2 0 10.584-8.617 19.2-19.2 19.2-10.584 0-19.2-8.615-19.2-19.2 0-10.584 8.615-19.2 19.2-19.2"/><path d="m17.01 29.92c-.38 0-.73-.05-1.05-.17-.31-.11-.58-.27-.8-.47-.22-.2-.39-.45-.51-.73-.12-.29-.18-.6-.18-.94h-2.6c0 .72.14 1.35.42 1.9.28.55.65 1.01 1.12 1.37.47.37 1.01.64 1.63.83.62.2 1.26.29 1.94.29.74 0 1.43-.1 2.07-.3.64-.2 1.19-.5 1.66-.89.47-.39.83-.87 1.1-1.44.26-.57.4-1.22.4-1.95 0-.39-.05-.76-.14-1.12-.1-.36-.25-.7-.45-1.02-.21-.32-.48-.6-.81-.86-.33-.25-.74-.46-1.21-.63.4-.18.75-.4 1.05-.66.3-.26.55-.54.75-.83.2-.3.35-.6.45-.92.1-.32.15-.64.15-.95 0-.73-.12-1.37-.36-1.92-.24-.55-.58-1.01-1.02-1.38-.44-.37-.96-.65-1.58-.84-.64-.2-1.32-.29-2.06-.29-.72 0-1.39.11-2 .32-.61.21-1.13.51-1.57.89-.44.38-.78.83-1.03 1.35-.25.52-.37 1.09-.37 1.7h2.6c0-.34.06-.64.18-.9.12-.27.29-.5.5-.68.21-.19.47-.34.76-.44.29-.1.61-.16.95-.16.8 0 1.39.21 1.78.62.39.41.58.99.58 1.73 0 .36-.05.68-.16.97-.11.29-.27.54-.49.75-.22.21-.5.37-.82.49-.33.12-.72.18-1.16.18h-1.54v2.05h1.54c.44 0 .84.05 1.19.15.35.1.65.25.9.47.25.21.44.48.58.8.13.32.2.7.2 1.14 0 .81-.23 1.43-.7 1.86-.45.42-1.08.63-1.89.63"/><path d="m24.2 16v16h4.59c1.11 0 2.11-.179 3.02-.539.91-.36 1.68-.871 2.32-1.531.64-.66 1.14-1.461 1.48-2.391.35-.93.52-1.979.52-3.139v-.791c0-1.16-.179-2.199-.529-3.139-.35-.94-.841-1.74-1.471-2.4-.63-.66-1.39-1.171-2.27-1.531-.89-.36-1.86-.539-2.93-.539h-4.73m2.779 2.24h1.951c1.44 0 2.529.459 3.289 1.369.75.92 1.131 2.24 1.131 3.98v.82h-.01c0 .83-.091 1.59-.291 2.25-.19.67-.47 1.229-.85 1.689-.38.46-.85.811-1.42 1.061-.57.24-1.23.369-1.99.369h-1.811v-11.539"/></svg>