<?xml version="1.0" encoding="UTF-8" standalone="no"?>
<!-- Created with Inkscape (http://www.inkscape.org/) -->

<svg
   xmlns:dc="http://purl.org/dc/elements/1.1/"
   xmlns:cc="http://creativecommons.org/ns#"
   xmlns:rdf="http://www.w3.org/1999/02/22-rdf-syntax-ns#"
   xmlns:svg="http://www.w3.org/2000/svg"
   xmlns="http://www.w3.org/2000/svg"
   xmlns:sodipodi="http://sodipodi.sourceforge.net/DTD/sodipodi-0.dtd"
   xmlns:inkscape="http://www.inkscape.org/namespaces/inkscape"
   width="256"
   height="256"
   id="svg2424"
   sodipodi:version="0.32"
   inkscape:version="0.91 r13725"
   version="1.0"
   sodipodi:docname="emblem-archlinux-lollipop.svg"
   inkscape:output_extension="org.inkscape.output.svg.inkscape"
   inkscape:export-filename="/home/thayer/archlinux-logo-contest/archer-full-detail.png"
   inkscape:export-xdpi="90"
   inkscape:export-ydpi="90">
  <defs
     id="defs2426" />
  <sodipodi:namedview
     id="base"
     pagecolor="#ffffff"
     bordercolor="#666666"
     borderopacity="1.0"
     gridtolerance="10000"
     guidetolerance="10"
     objecttolerance="10"
     inkscape:pageopacity="0.0"
     inkscape:pageshadow="2"
     inkscape:zoom="1.453125"
     inkscape:cx="24.77419554312712"
     inkscape:cy="127.9999960395118"
     inkscape:document-units="px"
     inkscape:current-layer="g2210"
     inkscape:window-width="740"
     inkscape:window-height="511"
     inkscape:window-x="624"
     inkscape:window-y="40"
     showgrid="false"
     inkscape:window-maximized="0"
     fit-margin-top="0"
     fit-margin-left="0"
     fit-margin-right="0"
     fit-margin-bottom="0" />
  <metadata
     id="metadata2429">
    <rdf:RDF>
      <cc:Work
         rdf:about="">
        <dc:format>image/svg+xml</dc:format>
        <dc:type
           rdf:resource="http://purl.org/dc/dcmitype/StillImage" />
        <dc:title></dc:title>
      </cc:Work>
    </rdf:RDF>
  </metadata>
  <g
     inkscape:label="Layer 1"
     inkscape:groupmode="layer"
     id="layer1"
     transform="translate(-269.51782800526,-73.60124703951186)">
    <g
       id="g2424"
       transform="matrix(1.3473684,0,0,1.3473684,-632.8823599999999,-513.3436599999997)">
      <g
         id="g2210">
        <path
           style="fill:#9E9E9E;fill-opacity:1;fill-rule:evenodd;stroke:none;stroke-width:1;stroke-linecap:round;stroke-linejoin:round;stroke-miterlimit:10;stroke-dasharray:none;stroke-opacity:1"
           d="M 128,0 C 116.60518,27.937051 109.68663,46.237163 97,73.34375 104.7785,81.58895699999999 114.33826,91.15550299999999 129.84375,102 113.17383,95.14042299999998 101.81018,88.27149599999998 93.3125,81.125 77.07603899999999,115.00489 51.621645,163.24639 0,256 c 40.56270700000001,-23.41756 72.007597,-37.86167 101.3125,-43.375 -1.25376,-5.40435 -1.92350500000001,-11.27752 -1.875,-17.375 l 0.03125,-1.28125 c 0.64379,-25.99398 14.16934000000001,-45.98224 30.1875,-44.625 16.01815,1.35723 28.48754,23.53727 27.84375,49.53125 -0.12127,4.89622 -0.6905,9.60082 -1.65625,13.96875 C 184.83328,218.51691 215.98162,232.89667 256,256 c -7.89193,-14.52962 -14.96051,-27.61983 -21.6875,-40.09375 -10.59609,-8.21269 -21.64301,-18.89743 -44.1875,-30.46875 15.4958,4.02645 26.60184,8.6825 35.25,13.875 C 156.97985,71.97266799999998 151.45422,55.040376 128,0 Z"
           id="path2518"
           transform="matrix(0.7421875,0,0,0.7421875,669.7501499999998,435.62318)"
           inkscape:connector-curvature="0" />
      </g>
    </g>
  </g>
</svg>
