<svg xmlns="http://www.w3.org/2000/svg" fill="#673AB7" viewBox="0 0 48 48"><path d="m12 6c-.93 0-1.761.43-2.311 1.09l-2.77 3.359c-.58.7-.92 1.581-.92 2.551v25c0 2.21 1.79 4 4 4h28c2.21 0 4-1.79 4-4v-25c0-.97-.34-1.851-.91-2.551l-2.77-3.359c-.56-.66-1.39-1.09-2.32-1.09h-24m14.713 5.727c0 0 2.818 2.819-2.672 7.152-4.403 3.477-1 5.459-.002 7.725-2.57-2.319-4.456-4.36-3.191-6.26 1.857-2.788 7-4.14 5.865-8.617m3.396 5.539c-5.914 3.43-4.821 4.424-3.396 6.426 1.525 2.148-1.795 3.861-1.795 3.861 0 0 1.651-1.355.342-2.861-4.433-5.109 4.85-7.426 4.85-7.426m1.783 9.129c2.562.123 3.732 3.769-2.213 5.332 0 0 .078-.07.102-.133 5.088-2.643 2.734-5.184 1.092-4.842-.402.084-.58.156-.58.156 0 0 .149-.233.434-.334.406-.143.8-.197 1.166-.18m-11.289.256c.216-.006.336.002.336.002 0 0-4.929 1.17-1.746 1.596 1.344.18 4.02.139 6.521-.07 2.04-.171 4.086-.537 4.086-.537 0 0-.718.307-1.238.662-5.01 1.317-14.674.703-11.891-.643 1.765-.854 3.283-.993 3.932-1.01m-.813 3.078c0 0-1.162.86.613 1.043 2.296.237 4.108.256 7.246-.348 0 0 .433.441 1.115.682-6.418 1.877-13.567.147-8.975-1.377m.65 2.969c0 0-1.035.603.738.807 2.149.245 3.246.209 5.613-.238 0 0 .625.391 1.494.729-5.309 2.275-12.02-.132-7.846-1.297m-2.697 1.969c.256.01.467.058.602.152 0 0-.34-.023-.936.105-.571.123-2.385.706-1.418 1.127 2.691 1.171 12.382.891 15.445-.037 1.611-.489.844-1.121.844-1.121 2.807 1.267-6.098 3.811-16.922 2.057-3.473-.564.593-2.352 2.385-2.283m16.256 1.607c-.178 2.311-7.678 2.797-12.561 2.484-3.209-.207-3.834-.723-3.834-.723 3.049.503 8.191.595 12.359-.189 3.695-.695 4.04-1.572 4.04-1.572" fill="#ea2d2e"/><path d="m10.25 10l1.63-2h24l1.87 2h-27.5" fill="#fff"/></svg>