<svg xmlns="http://www.w3.org/2000/svg" fill="#673AB7" viewBox="0 0 48 48"><g fill="#a8b9cc"><path d="m12 4c-2.21 0-3.98 1.79-3.98 4l-.01 15.215c.571-.056 1.165-.09 1.797-.09.081 0 .163.012.244.014.124-.003.247-.014.371-.014 2.222 0 4.058.37 5.578.971v-.096h16v4h-11.03c1.01 1.425 1.579 2.885 1.887 4h9.143v4h-8.813c.028.458.041.905.041 1.332 0 1.158-.084 2.324-.33 3.498 0 0 .146 1.411-.404 3.17h13.506c2.21 0 4-1.79 4-4v-24l-12-12h-16m14 3l11 11h-11v-11"/><path d="m14.185 34.507c0 0-.322-3.01-3.305-3.09-2.983-.083-4.515 2.255-4.515 5.595 0 3.34 1.693 6.01 4.596 6.01 2.903 0 3.225-3.34 3.225-3.34l5.563.334c0 0 .328 3.02-2 5.319-2.328 2.302-5.185 2.678-7.181 2.662-1.995-.016-4.762.031-7.438-2.709-2.675-2.74-3.13-5.402-3.13-8.02 0-2.615.507-6.079 3.689-8.706 2.162-1.785 4.354-2.443 6.546-2.443 9.151 0 9.766 8.44 9.766 8.44l-5.815-.057"/></g></svg>