<svg xmlns="http://www.w3.org/2000/svg" fill="#673AB7" viewBox="0 0 48 48"><g fill="#3776ab"><path d="m12 4c-2.21 0-3.98 1.79-3.98 4l-.008 13.145c.446-.764 1.326-1.271 3.045-1.574.995-.176 2.126-.278 3.311-.283 1.184-.006 2.419.085 3.609.283 1.88.313 3.463 1.726 3.463 3.604v.826h10.561v4h-3.691c.019.069.041.134.059.205.351 1.411.522 2.641.52 3.795h3.113v4h-3.309c-.083.416-.185.83-.324 1.246-.7 2.108-1.449 3.514-3.463 3.514h-3.465v.877.643 1.721h14.561c2.21 0 4-1.79 4-4v-24l-12-12h-16m14 3l11 11h-11v-11"/><path d="m14.214 21c-1.019.005-1.993.093-2.849.244-2.523.446-2.983 1.379-2.983 3.1v2.272h5.964v.758h-5.964-2.237c-1.733 0-3.25 1.042-3.725 3.02-.547 2.271-.572 3.688 0 6.06.424 1.765 1.435 3.02 3.168 3.02h2.05v-2.724c0-1.968 1.704-3.705 3.726-3.705h5.956c1.658 0 2.981-1.365 2.981-3.03v-5.677c0-1.616-1.363-2.83-2.981-3.1-1.024-.171-2.087-.249-3.106-.244m-3.225 1.829c.308 0 .588.127.791.334.203.206.329.491.329.805 0 .313-.126.597-.329.802-.203.205-.483.33-.791.33-.309 0-.588-.125-.791-.33-.202-.205-.329-.489-.329-.802 0-.314.126-.599.329-.805.202-.206.482-.334.791-.334z"/></g><path d="m21.05 27.379v2.648c0 2.053-1.74 3.78-3.725 3.78h-5.956c-1.631 0-2.983 1.398-2.983 3.03v5.677c0 1.616 1.407 2.566 2.983 3.03 1.888.555 3.697.655 5.956 0 1.501-.435 2.981-1.309 2.981-3.03v-2.273h-5.956v-.757h5.956 2.981c1.733 0 2.378-1.209 2.981-3.02.623-1.868.596-3.664 0-6.06-.428-1.725-1.246-3.02-2.981-3.02h-2.237m-3.351 14.378c.618 0 1.12.508 1.12 1.134 0 .629-.501 1.139-1.12 1.139-.616 0-1.118-.511-1.118-1.139 0-.626.502-1.134 1.118-1.134" fill="#ffd343"/></svg>