<?xml version="1.0" encoding="UTF-8" standalone="no"?>
<svg
   xmlns:dc="http://purl.org/dc/elements/1.1/"
   xmlns:cc="http://creativecommons.org/ns#"
   xmlns:rdf="http://www.w3.org/1999/02/22-rdf-syntax-ns#"
   xmlns:svg="http://www.w3.org/2000/svg"
   xmlns="http://www.w3.org/2000/svg"
   xmlns:sodipodi="http://sodipodi.sourceforge.net/DTD/sodipodi-0.dtd"
   xmlns:inkscape="http://www.inkscape.org/namespaces/inkscape"
   fill="#673AB7"
   width="48"
   height="48"
   viewBox="0 0 48 48"
   id="svg2"
   version="1.1"
   inkscape:version="0.91 r13725"
   sodipodi:docname="sidebar-places.svg">
  <metadata
     id="metadata10">
    <rdf:RDF>
      <cc:Work
         rdf:about="">
        <dc:format>image/svg+xml</dc:format>
        <dc:type
           rdf:resource="http://purl.org/dc/dcmitype/StillImage" />
      </cc:Work>
    </rdf:RDF>
  </metadata>
  <defs
     id="defs8" />
  <sodipodi:namedview
     pagecolor="#ffffff"
     bordercolor="#666666"
     borderopacity="1"
     objecttolerance="10"
     gridtolerance="10"
     guidetolerance="10"
     inkscape:pageopacity="0"
     inkscape:pageshadow="2"
     inkscape:window-width="1366"
     inkscape:window-height="713"
     id="namedview6"
     showgrid="false"
     inkscape:snap-bbox="true"
     inkscape:bbox-nodes="true"
     inkscape:bbox-paths="false"
     inkscape:zoom="3.795750125125502"
     inkscape:cx="-11.77776596795882"
     inkscape:cy="27.33054700475361"
     inkscape:window-x="0"
     inkscape:window-y="30"
     inkscape:window-maximized="1"
     inkscape:current-layer="svg2" />
  <path
     id="path3382"
     style="fill:#673AB7"
     d="m 44,7.999999999999991 -16,0 -4.00000000000002,-3.999999999999997 -12,0 c -2.209999999999976,0 -3.979999999999984,1.789999999999999 -3.979999999999984,3.999999999999997 L 8,32 c 0,2.21 1.79000000000001,4 3.99999999999998,4 l 32.00000000000004,0 c 2.21000000000001,0 4,-1.79000000000002 4,-4 l 0,-20.00000000000001 c 0,-2.21000000000001 -1.78999999999999,-3.999999999999999 -4,-3.999999999999999 z M 4,12 0,12 0,40 c 0,2.21 1.79,4 4,4 l 28,0 0,-4 -28,0 0,-28 z"
     inkscape:connector-curvature="0" />
</svg>
