<?xml version="1.0" encoding="UTF-8" standalone="no"?>
<!-- Created with Inkscape (http://www.inkscape.org/) -->

<svg
   xmlns:dc="http://purl.org/dc/elements/1.1/"
   xmlns:cc="http://creativecommons.org/ns#"
   xmlns:rdf="http://www.w3.org/1999/02/22-rdf-syntax-ns#"
   xmlns:svg="http://www.w3.org/2000/svg"
   xmlns="http://www.w3.org/2000/svg"
   xmlns:sodipodi="http://sodipodi.sourceforge.net/DTD/sodipodi-0.dtd"
   xmlns:inkscape="http://www.inkscape.org/namespaces/inkscape"
   width="351.45703125"
   height="338.5797424316406"
   viewBox="0 0 351.4570161118423 338.579736536538"
   id="svg2"
   version="1.1"
   inkscape:version="0.91 r13725"
   sodipodi:docname="emblem-jquery.svg">
  <defs
     id="defs4" />
  <sodipodi:namedview
     id="base"
     pagecolor="#ffffff"
     bordercolor="#666666"
     borderopacity="1.0"
     inkscape:pageopacity="0.0"
     inkscape:pageshadow="2"
     inkscape:zoom="0.7888671874999998"
     inkscape:cx="94.37792977407867"
     inkscape:cy="151.8102949641464"
     inkscape:document-units="px"
     inkscape:current-layer="layer1"
     showgrid="false"
     fit-margin-top="0"
     fit-margin-left="0"
     fit-margin-right="0"
     fit-margin-bottom="0"
     units="px"
     inkscape:window-width="1366"
     inkscape:window-height="713"
     inkscape:window-x="0"
     inkscape:window-y="31"
     inkscape:window-maximized="1" />
  <metadata
     id="metadata7">
    <rdf:RDF>
      <cc:Work
         rdf:about="">
        <dc:format>image/svg+xml</dc:format>
        <dc:type
           rdf:resource="http://purl.org/dc/dcmitype/StillImage" />
        <dc:title></dc:title>
      </cc:Work>
    </rdf:RDF>
  </metadata>
  <g
     inkscape:label="Layer 1"
     inkscape:groupmode="layer"
     id="layer1"
     transform="translate(-498.6562370989097,-345.5927614562274)">
    <path
       style="fill:#0868ac"
       d="M 210.08203125 0 L 200.150390625 13.6875 C 186.8833906250001 33.21050000000008 185.58315625 57.4565312499999 194.78515625 79.01953125 C 204.4941562500002 101.90553125 224.3855624999999 119.861046875 247.6015625 128.373046875 C 248.5595625000001 128.7300468749999 249.514375 129.047 250.484375 129.375 C 250.9083750000001 129.5039999999999 251.3298593750003 129.6493906249998 251.755859375 129.775390625 C 253.1228593750002 130.205390625 254.4805312500001 130.70665625 255.89453125 130.97265625 C 320.05253125 143.36865625 337.4509843750001 98.04890625000013 342.083984375 91.37890625 C 326.8419843750003 113.32590625 301.2269687499999 118.5937968749999 269.79296875 110.966796875 C 267.3139687500002 110.361796875 264.5825000000004 109.4651875 262.1875 108.6171875 C 259.1185000000003 107.5231874999999 256.0951562500002 106.276234375 253.16015625 104.865234375 C 247.5751562500001 102.184234375 242.2602187499999 98.931078125 237.32421875 95.205078125 C 209.2002187500001 73.86507812500003 191.7300312500002 33.15499999999997 210.08203125 0 z M 137.298828125 15.88671875 L 118.912109375 41.83984375 C 96.40910937499996 74.22384375000001 97.62959375000025 117.5723125 115.18359375 151.8203125 C 118.1275937500002 157.5623125 121.4367187500002 163.1315468750001 125.13671875 168.435546875 C 128.5087187500002 173.2665468749999 132.2457031249996 179.0173906250003 136.720703125 182.900390625 C 138.3437031249999 184.6863906250003 140.0394843750003 186.4295781249998 141.771484375 188.142578125 C 142.2094843750001 188.5875781250001 142.6545625 189.0180781250001 143.1015625 189.455078125 C 144.7825625000004 191.085078125 146.4937187500002 192.68909375 148.26171875 194.24609375 C 148.33471875 194.30409375 148.397703125 194.3776874999996 148.470703125 194.4296875 C 148.488703125 194.4506875 148.50653125 194.4574687499999 148.51953125 194.48046875 C 150.4755312500004 196.1934687500001 152.4949218750003 197.840890625 154.544921875 199.462890625 C 155.0009218750004 199.8098906249996 155.4511562500003 200.1742500000003 155.91015625 200.53125 C 157.9671562499999 202.1062500000004 160.0638437499998 203.6558125000005 162.21484375 205.1328125 C 162.27884375 205.1768125 162.3324375000001 205.2244843749999 162.3984375 205.271484375 C 163.3454375 205.9274843750003 164.3124375000001 206.53796875 165.2734375 207.16796875 C 165.7344374999999 207.4679687500002 166.1717187500001 207.7873593749999 166.63671875 208.068359375 C 168.1717187500001 209.0523593749999 169.7266406250002 210.0106874999999 171.306640625 210.9296875 C 171.5306406249998 211.0686875 171.7497500000003 211.1854999999998 171.96875 211.3125 C 173.3307500000002 212.0965000000001 174.7116562500003 212.8681406249999 176.09765625 213.619140625 C 176.57865625 213.8901406249997 177.0724531250005 214.13171875 177.564453125 214.38671875 C 178.5194531250004 214.88671875 179.4771718749996 215.3958593749996 180.451171875 215.880859375 C 180.5971718749996 215.949859375 180.7516249999996 216.0161249999997 180.890625 216.078125 C 182.8736249999997 217.0551249999996 184.8740156250003 217.9947656249999 186.916015625 218.884765625 C 187.3500156250002 219.077765625 187.8020937500003 219.2486406249998 188.24609375 219.431640625 C 189.87609375 220.1236406249999 191.5275937499997 220.8035000000001 193.18359375 221.4375 C 193.8875937499997 221.7044999999997 194.5978749999996 221.9578906249995 195.296875 222.212890625 C 196.8028750000001 222.7718906249997 198.3139843750002 223.2819687499997 199.833984375 223.79296875 C 200.5219843749999 224.0119687500002 201.195765625 224.2352656249999 201.884765625 224.447265625 C 204.0467656249999 225.1182656249998 206.1873593750003 225.9687500000001 208.443359375 226.34375 C 324.6333593750004 245.59375 351.45703125 156.134765625 351.45703125 156.134765625 C 327.27403125 190.9587656249997 280.4475156249999 207.5774687500001 230.478515625 194.60546875 C 228.2615156249998 194.0214687499997 226.0743437499997 193.3861718749997 223.90234375 192.701171875 C 223.2343437500001 192.5011718749996 222.5838281249997 192.2834531249999 221.923828125 192.064453125 C 220.3788281249997 191.564453125 218.8423593749999 191.0325156250002 217.318359375 190.478515625 C 216.6223593750001 190.2225156250004 215.9261875000001 189.9670781250002 215.2421875 189.705078125 C 213.5751875000001 189.0630781250002 211.924015625 188.4000312499996 210.291015625 187.70703125 C 209.8420156249999 187.5180312499999 209.3930781250001 187.3425781249998 208.955078125 187.142578125 C 206.9030781250001 186.248578125 204.88453125 185.3082187500002 202.89453125 184.32421875 C 201.87053125 183.8252187500001 200.8645156250002 183.2972968749999 199.853515625 182.779296875 C 199.270515625 182.4762968749999 198.6826093750001 182.174 198.099609375 181.875 C 196.8046093749998 181.174 195.5189062500001 180.4430781249997 194.25390625 179.705078125 C 193.95090625 179.532078125 193.6370781249997 179.3685468750001 193.330078125 179.185546875 C 191.7600781250002 178.2645468750002 190.2107812500002 177.3177968750001 188.67578125 176.341796875 C 188.2017812500003 176.0407968749997 187.7444843750004 175.713296875 187.271484375 175.404296875 C 186.2574843750001 174.7482968749997 185.2499062500002 174.082203125 184.25390625 173.408203125 C 182.11390625 171.9312031249998 180.0306093749997 170.3824531249996 177.974609375 168.814453125 C 177.5006093749997 168.4404531249996 177.027546875 168.0751718749998 176.560546875 167.701171875 C 154.6895468749999 150.4311718749997 137.3533749999999 126.8332187499999 129.109375 100.07421875 C 120.4713750000002 72.32121875000001 122.332828125 41.1687187500001 137.298828125 15.88671875 z M 46.60546875 48.712890625 L 22.318359375 79.51953125 C -8.797640624999872 124.24653125 -4.924296874999982 182.4301250000002 18.845703125 229.953125 C 19.41070312499994 231.0911250000004 20.00389062500017 232.2149843750002 20.587890625 233.333984375 C 20.96189062500025 234.0449843749999 21.31121875000019 234.7746093750001 21.69921875 235.474609375 C 21.91821875000016 235.8946093750001 22.16457812499982 236.3050781249998 22.392578125 236.705078125 C 22.79757812500009 237.464078125 23.21281249999993 238.183828125 23.6328125 238.923828125 C 24.37081250000017 240.2258281249999 25.12734374999991 241.5185000000001 25.90234375 242.8125 C 26.33034375000011 243.5235 26.7523124999999 244.2343125 27.1953125 244.9453125 C 28.05231249999974 246.3313125 28.931078125 247.6994062499998 29.830078125 249.06640625 C 30.2040781249998 249.64940625 30.56817187499962 250.2318750000001 30.951171875 250.796875 C 32.19117187500001 252.6458749999997 33.45767187499973 254.490734375 34.763671875 256.302734375 C 34.79667187500002 256.350734375 34.83304687500004 256.400265625 34.873046875 256.447265625 C 35.0790468749999 256.7352656250001 35.30757812500008 257.0195468750002 35.517578125 257.310546875 C 36.647578125 258.8715468749998 37.81414062499982 260.4105937499997 38.994140625 261.93359375 C 39.42814062499974 262.4885937499998 39.86473437500024 263.0456093749998 40.302734375 263.599609375 C 41.35473437500025 264.9236093750001 42.42762500000026 266.236828125 43.515625 267.548828125 C 43.92262500000027 268.0368281249999 44.33218749999992 268.5316718749999 44.7421875 269.013671875 C 46.20418749999999 270.734671875 47.69479687500029 272.4489999999996 49.216796875 274.125 C 49.24379687500004 274.154 49.28059374999998 274.190703125 49.30859375 274.220703125 C 49.37259374999996 274.293703125 49.42646874999991 274.336203125 49.48046875 274.408203125 C 50.96646874999999 276.0312031249996 52.48929687500026 277.6171249999996 54.029296875 279.203125 C 54.50729687500007 279.6951249999997 54.99432812499992 280.1888281250001 55.486328125 280.673828125 C 56.68032812500019 281.8768281250001 57.89218749999998 283.0573750000002 59.1171875 284.234375 C 59.61518749999982 284.709375 60.10751562499991 285.194484375 60.603515625 285.646484375 C 62.24051562499983 287.1884843750003 63.89407812499985 288.7017343750001 65.580078125 290.177734375 C 65.609078125 290.202734375 65.63020312500009 290.225234375 65.658203125 290.240234375 C 65.94420312500017 290.4952343750001 66.24239062499998 290.7364687500001 66.525390625 290.98046875 C 68.01139062499999 292.2674687499997 69.52487499999984 293.5428750000003 71.046875 294.796875 C 71.666875 295.2998749999999 72.29496875000018 295.7920156250001 72.91796875 296.291015625 C 74.16296875000012 297.2870156250001 75.42050000000017 298.2703281249997 76.6875 299.236328125 C 77.3565000000001 299.7473281249997 78.02717187499991 300.257578125 78.701171875 300.767578125 C 80.09917187499991 301.7955781249999 81.50964062500009 302.8087812500004 82.931640625 303.80078125 C 83.44964062500014 304.17578125 83.9526562499999 304.5405312499996 84.47265625 304.89453125 C 84.61665624999989 304.9965312499995 84.74853124999993 305.0982656249997 84.89453125 305.197265625 C 86.24353124999982 306.1272656249997 87.62395312499996 307.0200625 89.001953125 307.9140625 C 89.59495312500019 308.3080625 90.18229687499991 308.7166093750002 90.779296875 309.099609375 C 92.89329687500026 310.4376093750002 95.0399843749999 311.7601093750003 97.208984375 313.037109375 C 97.79798437499983 313.3761093750003 98.39237500000024 313.7030625000001 98.984375 314.0390625 C 100.5793750000003 314.9610625000006 102.184546875 315.8610468750003 103.810546875 316.748046875 C 104.6905468750001 317.2220468749999 105.593421875 317.6670468750001 106.482421875 318.123046875 C 107.6284218750001 318.725046875 108.7675937500002 319.3339687500002 109.93359375 319.91796875 C 110.19859375 320.0489687500002 110.4734218750001 320.1766875000002 110.732421875 320.3046875 C 111.202421875 320.5306875000005 111.675484375 320.7483281249997 112.146484375 320.986328125 C 113.954484375 321.8493281249996 115.7761406250002 322.6995312500002 117.619140625 323.51953125 C 118.0111406250001 323.6955312499997 118.3903437499998 323.8661093750003 118.77734375 324.037109375 C 120.8863437499999 324.9601093749999 123.0121562500001 325.8464062500002 125.16015625 326.69140625 C 125.6761562499998 326.9034062500001 126.197796875 327.0987343749997 126.716796875 327.302734375 C 128.7037968750001 328.0687343749997 130.717234375 328.8232031250001 132.740234375 329.533203125 C 132.995234375 329.625203125 133.2410937499999 329.708875 133.49609375 329.796875 C 135.7150937500002 330.5728750000004 137.9578437499998 331.2911406249997 140.21484375 331.994140625 C 140.7528437499999 332.1511406249997 141.2929375 332.3234687500001 141.8359375 332.48046875 C 144.1329375000003 333.1724687499999 146.401484375 334.0005000000002 148.771484375 334.4375 C 299.2574843750001 361.8795 342.9707031249999 244.00390625 342.970703125 244.00390625 C 306.2577031250003 291.8329062500003 241.0906093750002 304.4493437499999 179.349609375 290.40234375 C 177.0086093750001 289.8743437500001 174.7390312500004 289.1457031250004 172.45703125 288.470703125 C 171.8770312500001 288.2997031250004 171.3092812499999 288.1242187499996 170.73828125 287.94921875 C 168.5102812499998 287.2672187499996 166.2995156249999 286.5490156250005 164.103515625 285.791015625 C 163.8025156249998 285.6820156250002 163.4984062499999 285.5718906249999 163.19140625 285.462890625 C 161.2224062499998 284.769890625 159.2768437499999 284.0409687499997 157.33984375 283.29296875 C 156.7928437499997 283.0739687500002 156.2462187499999 282.8654843750004 155.69921875 282.646484375 C 153.57521875 281.8084843750004 151.4658124999997 280.9344375000002 149.3828125 280.0234375 C 148.9538124999998 279.8404375 148.54409375 279.6478437500002 148.12109375 279.46484375 C 146.32909375 278.65284375 144.55796875 277.8343749999998 142.79296875 276.984375 C 142.28296875 276.7403750000001 141.77290625 276.4991406249999 141.25390625 276.244140625 C 139.8679062499999 275.5691406249997 138.4978593750001 274.8524375000003 137.130859375 274.1484375 C 136.2158593749999 273.6684375000002 135.2858593750001 273.2109843750002 134.380859375 272.708984375 C 132.7118593749999 271.814984375 131.0734062499998 270.8855000000001 129.44140625 269.9375 C 128.8894062499998 269.6274999999997 128.3294375000002 269.3298125 127.7734375 269.0078125 C 125.6044375000002 267.7328125 123.4608437499998 266.409359375 121.33984375 265.068359375 C 120.7548437499997 264.6963593749997 120.18246875 264.2951093749999 119.60546875 263.912109375 C 118.0664687500002 262.921109375 116.5343437500002 261.9101875000001 115.02734375 260.8671875 C 114.52734375 260.5321875000002 114.0447343750002 260.1670312500004 113.552734375 259.83203125 C 112.0957343750007 258.80403125 110.6566093750002 257.762078125 109.224609375 256.705078125 C 108.576609375 256.2240781250001 107.93859375 255.73490625 107.30859375 255.25390625 C 105.9975937500002 254.2509062500002 104.6933437500002 253.2401718750001 103.40234375 252.201171875 C 102.8193437500001 251.7381718749998 102.2361093749997 251.272640625 101.662109375 250.806640625 C 100.0211093749999 249.4576406250003 98.39882812500025 248.1000312499997 96.798828125 246.70703125 C 96.63182812500008 246.5610312499997 96.44862500000011 246.4167656249997 96.265625 246.259765625 C 94.53462500000001 244.7387656249997 92.83334374999993 243.178328125 91.15234375 241.611328125 C 90.66334374999985 241.1443281249999 90.19089062500018 240.6935625000001 89.712890625 240.2265625 C 88.467890625 239.0415624999998 87.24206250000009 237.8480468750001 86.0390625 236.623046875 C 85.55606250000017 236.142046875 85.07360937499993 235.6695000000001 84.599609375 235.1875 C 83.06860937499982 233.6205000000001 81.56479687500007 232.02996875 80.091796875 230.41796875 C 80.01879687500002 230.33796875 79.94314062499984 230.2656406250004 79.869140625 230.181640625 C 78.31014062499992 228.479640625 76.7878750000001 226.7365156250005 75.296875 224.978515625 C 74.89187499999991 224.4945156250003 74.50160937499982 224.0306406249998 74.099609375 223.556640625 C 72.98760937499981 222.2146406249999 71.88359374999982 220.8592812500002 70.80859375 219.48828125 C 70.4035937499998 219.0002812500003 70.0005625 218.4933281249997 69.6015625 217.986328125 C 68.30556250000018 216.3053281249996 67.04078125000001 214.6287812500002 65.80078125 212.92578125 C 31.52178125 166.1687812500005 19.20746874999998 101.6768906250002 46.60546875 48.712890625 z "
       transform="translate(498.6562370989097,345.5927614562274)"
       id="path4139" />
  </g>
</svg>
