<?xml version="1.0" encoding="UTF-8" standalone="no"?>
<svg
   xmlns:dc="http://purl.org/dc/elements/1.1/"
   xmlns:cc="http://creativecommons.org/ns#"
   xmlns:rdf="http://www.w3.org/1999/02/22-rdf-syntax-ns#"
   xmlns:svg="http://www.w3.org/2000/svg"
   xmlns="http://www.w3.org/2000/svg"
   xmlns:sodipodi="http://sodipodi.sourceforge.net/DTD/sodipodi-0.dtd"
   xmlns:inkscape="http://www.inkscape.org/namespaces/inkscape"
   viewBox="0 0 40 40"
   id="svg2"
   version="1.1"
   inkscape:version="0.91 r13725"
   sodipodi:docname="emblem-documents.svg"
   width="40"
   height="40"
   style="fill:#bdbdbd">
  <metadata
     id="metadata10">
    <rdf:RDF>
      <cc:Work
         rdf:about="">
        <dc:format>image/svg+xml</dc:format>
        <dc:type
           rdf:resource="http://purl.org/dc/dcmitype/StillImage" />
        <dc:title></dc:title>
      </cc:Work>
    </rdf:RDF>
  </metadata>
  <defs
     id="defs8" />
  <sodipodi:namedview
     pagecolor="#ffffff"
     bordercolor="#666666"
     borderopacity="1"
     objecttolerance="10"
     gridtolerance="10"
     guidetolerance="10"
     inkscape:pageopacity="0"
     inkscape:pageshadow="2"
     inkscape:window-width="1366"
     inkscape:window-height="713"
     id="namedview6"
     showgrid="false"
     inkscape:zoom="17.40625"
     inkscape:cx="16"
     inkscape:cy="16"
     inkscape:window-x="0"
     inkscape:window-y="31"
     inkscape:window-maximized="1"
     inkscape:current-layer="svg2" />
  <path
     d="M 8,4 C 5.79,4 4,5.79 4,8 l 0,24 c 0,2.21 1.79,4 4,4 l 24,0 c 2.21,0 4,-1.79 4,-4 L 36,8 C 36,5.79 34.21,4 32,4 L 8,4 m 2,6 20,0 0,4 -20,0 0,-4 z m 0,8 20,0 0,4 -20,0 0,-4 m 0,8 12,0 0,4 -12,0 0,-4"
     id="path4"
     inkscape:connector-curvature="0" />
</svg>
