<?xml version="1.0" encoding="UTF-8" standalone="no"?>
<svg
   xmlns:dc="http://purl.org/dc/elements/1.1/"
   xmlns:cc="http://creativecommons.org/ns#"
   xmlns:rdf="http://www.w3.org/1999/02/22-rdf-syntax-ns#"
   xmlns:svg="http://www.w3.org/2000/svg"
   xmlns="http://www.w3.org/2000/svg"
   xmlns:sodipodi="http://sodipodi.sourceforge.net/DTD/sodipodi-0.dtd"
   xmlns:inkscape="http://www.inkscape.org/namespaces/inkscape"
   fill="#2196F3"
   width="48"
   height="48"
   viewBox="0 0 48 48"
   id="svg2"
   version="1.1"
   inkscape:version="0.91 r13725"
   sodipodi:docname="image-bmp.svg">
  <metadata
     id="metadata10">
    <rdf:RDF>
      <cc:Work
         rdf:about="">
        <dc:format>image/svg+xml</dc:format>
        <dc:type
           rdf:resource="http://purl.org/dc/dcmitype/StillImage" />
        <dc:title></dc:title>
      </cc:Work>
    </rdf:RDF>
  </metadata>
  <defs
     id="defs8" />
  <sodipodi:namedview
     pagecolor="#ffffff"
     bordercolor="#666666"
     borderopacity="1"
     objecttolerance="10"
     gridtolerance="10"
     guidetolerance="10"
     inkscape:pageopacity="0"
     inkscape:pageshadow="2"
     inkscape:window-width="1366"
     inkscape:window-height="713"
     id="namedview6"
     showgrid="false"
     inkscape:zoom="4.9166667"
     inkscape:cx="24.074825"
     inkscape:cy="24.050928"
     inkscape:window-x="0"
     inkscape:window-y="30"
     inkscape:window-maximized="1"
     inkscape:current-layer="svg2"
     inkscape:snap-bbox="true"
     inkscape:bbox-paths="true"
     inkscape:bbox-nodes="true"
     inkscape:snap-bbox-edge-midpoints="true" />
  <path
     d="M 10 6 C 7.79 6 6 7.79 6 10 L 6 38 C 6 40.21 7.79 42 10 42 L 38 42 C 40.21 42 42 40.21 42 38 L 42 10 C 42 7.79 40.21 6 38 6 L 10 6 z M 12.134766 8.9394531 L 13.617188 8.9394531 L 13.617188 12.607422 C 13.820638 12.32666 14.064779 12.111491 14.349609 11.960938 C 14.63444 11.810384 14.967285 11.734375 15.345703 11.734375 C 16.171712 11.734375 16.808268 12.056315 17.255859 12.699219 C 17.70752 13.342122 17.933594 14.192057 17.933594 15.25 L 17.933594 15.378906 C 17.933594 16.343262 17.70752 17.120931 17.255859 17.710938 C 16.808268 18.296875 16.175293 18.589844 15.357422 18.589844 C 14.946452 18.589844 14.588379 18.506673 14.283203 18.339844 C 13.982096 18.173014 13.730794 17.926921 13.527344 17.605469 L 13.378906 18.460938 L 12.134766 18.460938 L 12.134766 8.9394531 z M 22.589844 11.734375 C 23.021159 11.734375 23.391927 11.832031 23.701172 12.027344 C 24.010417 12.222656 24.241862 12.515625 24.396484 12.90625 C 24.599935 12.540039 24.869466 12.254395 25.203125 12.046875 C 25.536784 11.839355 25.927409 11.734375 26.375 11.734375 C 27.038249 11.734375 27.560872 11.96224 27.943359 12.417969 C 28.329915 12.869629 28.523438 13.556803 28.523438 14.480469 L 28.523438 18.460938 L 27.039062 18.460938 L 27.039062 14.474609 C 27.039062 13.913086 26.941406 13.51888 26.746094 13.291016 C 26.55485 13.063151 26.265462 12.949219 25.878906 12.949219 C 25.561523 12.949219 25.293945 13.03418 25.074219 13.205078 C 24.854492 13.375977 24.695312 13.605632 24.597656 13.894531 C 24.597656 13.955566 24.599447 14.009928 24.603516 14.054688 C 24.607585 14.099447 24.609375 14.140951 24.609375 14.181641 L 24.609375 18.460938 L 23.126953 18.460938 L 23.126953 14.474609 C 23.126953 13.933431 23.027507 13.544596 22.828125 13.308594 C 22.632812 13.068522 22.343424 12.949219 21.960938 12.949219 C 21.659831 12.949219 21.402995 13.008952 21.191406 13.126953 C 20.983887 13.240885 20.819336 13.403646 20.697266 13.615234 L 20.697266 18.460938 L 19.214844 18.460938 L 19.214844 11.857422 L 20.570312 11.857422 L 20.648438 12.716797 C 20.864095 12.403483 21.135417 12.163086 21.460938 11.992188 C 21.786458 11.821289 22.162598 11.734375 22.589844 11.734375 z M 33.283203 11.734375 C 34.097005 11.734375 34.72998 12.058105 35.181641 12.705078 C 35.63737 13.347982 35.865234 14.196126 35.865234 15.25 L 35.865234 15.378906 C 35.865234 16.339193 35.63916 17.113118 35.1875 17.703125 C 34.73584 18.293132 34.106445 18.589844 33.300781 18.589844 C 32.926432 18.589844 32.59554 18.520996 32.306641 18.386719 C 32.017741 18.252441 31.77002 18.055339 31.5625 17.794922 L 31.5625 21 L 30.078125 21 L 30.078125 11.857422 L 31.330078 11.857422 L 31.476562 12.6875 C 31.688151 12.378255 31.943197 12.141276 32.240234 11.978516 C 32.541341 11.815755 32.888509 11.734375 33.283203 11.734375 z M 14.972656 12.949219 C 14.643066 12.949219 14.366374 13.023438 14.142578 13.169922 C 13.922852 13.316406 13.747396 13.51888 13.617188 13.779297 L 13.617188 16.550781 C 13.743327 16.815267 13.918783 17.021484 14.142578 17.167969 C 14.366374 17.310384 14.646647 17.380859 14.984375 17.380859 C 15.49707 17.380859 15.869629 17.201823 16.101562 16.84375 C 16.333496 16.481608 16.449219 15.993327 16.449219 15.378906 L 16.449219 15.25 C 16.449219 14.562337 16.331706 14.007161 16.095703 13.583984 C 15.859701 13.160807 15.485352 12.949219 14.972656 12.949219 z M 32.869141 12.949219 C 32.559896 12.949219 32.297689 13.016113 32.082031 13.150391 C 31.866374 13.280599 31.692708 13.463216 31.5625 13.699219 L 31.5625 16.685547 C 31.692708 16.91748 31.866374 17.096517 32.082031 17.222656 C 32.297689 17.344727 32.563477 17.404297 32.880859 17.404297 C 33.385417 17.404297 33.761556 17.219889 34.009766 16.849609 C 34.262044 16.47526 34.388672 15.985189 34.388672 15.378906 L 34.388672 15.25 C 34.388672 14.574544 34.260254 14.022949 34.003906 13.595703 C 33.751628 13.164388 33.373698 12.949219 32.869141 12.949219 z M 29 24 L 38 36 L 10 36 L 17 27 L 22 33.009766 L 29 24 z "
     id="path4163" />
</svg>
