<svg xmlns="http://www.w3.org/2000/svg" xmlns:xlink="http://www.w3.org/1999/xlink" fill="#FFC107" viewBox="0 0 48 48"><defs><clipPath><path d="m 2764.8,0 c 1526.93,0 2764.81,651.164 2764.81,1454.39 0,803.24 -1237.88,1454.4 -2764.81,1454.4 C 1237.87,2908.79 0,2257.63 0,1454.39 0,651.164 1237.87,0 2764.8,0"/></clipPath><radialGradient gradientTransform="matrix(.10144 0 0 .09131-.701 40.568)" gradientUnits="userSpaceOnUse" id="0" r="146" cy="-48.545" cx="77.914"><stop stop-color="#dddce9"/><stop offset=".37" stop-color="#5664a3"/><stop offset="1"/></radialGradient></defs><path d="m12 4c-2.21 0-3.98 1.79-3.98 4l-.012 22.1a17.741177 11.152942 0 0 1 5.992188 -.666015 17.741177 11.152942 0 0 1 11.306641 2.564453h6.693v4h-1.854a17.741177 11.152942 0 0 1 1.59375 4.587891 17.741177 11.152942 0 0 1 -.857422 3.412109h5.117c2.21 0 4-1.79 4-4v-24l-12-12h-16m14 3l11 11h-11v-11m-10 17h16v4h-16v-4" fill="#6c7eb7"/><g transform="matrix(1.4 0 0 1.4-2.81-16.493)"><ellipse ry="5.109" rx="9.815" cy="40.773" cx="12.01" fill="#6c7eb7" stroke="url(#0)" stroke-width=".37"/><path id="1" d="m4.948 43.798l1.076-5.445h2.487c1.076.067 1.613.605 1.613 1.546 0 1.613-1.277 2.555-2.42 2.487h-1.21l-.269 1.412h-1.277zm1.815-2.42l.336-2.02h.874c.471 0 .807.202.807.605-.067 1.143-.605 1.345-1.21 1.412h-.807z" fill="#000" fill-rule="evenodd" stroke="#fff" stroke-linejoin="round" stroke-width=".134"/><path d="m9.721 42.39l1.076-5.445h1.277l-.269 1.412h1.21c1.076.067 1.479.605 1.345 1.277l-.471 2.756h-1.345l.471-2.487c.067-.336.067-.538-.403-.538h-1.01l-.605 3.03h-1.277z" fill="#000" stroke="#fff" stroke-linejoin="round" stroke-width=".134"/><use xlink:href="#1" transform="translate(9.01)" width="48" height="48"/></g></svg>