<svg xmlns="http://www.w3.org/2000/svg" xmlns:xlink="http://www.w3.org/1999/xlink" viewBox="0 0 77.67 77.67"><defs><linearGradient x1="298.64" y1="-67.782" x2="336.04" y2="-51.27" id="8" gradientUnits="userSpaceOnUse"><stop stop-color="#b31000"/><stop stop-color="#b31000"/><stop offset=".44" stop-color="#910f08"/><stop offset=".99" stop-color="#791c12"/><stop offset="1" stop-color="#791c12"/></linearGradient><linearGradient x1="322.53" y1="37.935" x2="281.43" y2="1.104" id="7" gradientUnits="userSpaceOnUse"><stop stop-color="#7e110b"/><stop stop-color="#7e110b"/><stop offset=".99" stop-color="#9e0c00"/><stop offset="1" stop-color="#9e0c00"/></linearGradient><linearGradient x1="125.44" y1="77.52" x2="279.02" y2="-80.39" id="A" gradientUnits="userSpaceOnUse"><stop stop-color="#bd0012"/><stop stop-color="#bd0012"/><stop offset=".07" stop-color="#fff"/><stop offset=".17" stop-color="#fff"/><stop offset=".27" stop-color="#c82f1c"/><stop offset=".33" stop-color="#820c01"/><stop offset=".46" stop-color="#a31601"/><stop offset=".72" stop-color="#b31301"/><stop offset=".99" stop-color="#e82609"/><stop offset="1" stop-color="#e82609"/></linearGradient><linearGradient x1="147.1" y1="25.521" x2="156.31" y2="65.22" id="C" gradientUnits="userSpaceOnUse"><stop stop-color="#fff"/><stop stop-color="#fff"/><stop offset=".18" stop-color="#e46342"/><stop offset=".4" stop-color="#c82410"/><stop offset=".99" stop-color="#a80d00"/><stop offset="1" stop-color="#a80d00"/></linearGradient><linearGradient x1="170.67" y1="119.76" x2="153.99" y2="63.16" id="D" gradientUnits="userSpaceOnUse"><stop stop-color="#8b2114"/><stop stop-color="#8b2114"/><stop offset=".43" stop-color="#9e100a"/><stop offset=".99" stop-color="#b3100c"/><stop offset="1" stop-color="#b3100c"/></linearGradient><linearGradient x1="243.07" y1="93.45" x2="196.82" y2="82.04" id="B" gradientUnits="userSpaceOnUse"><stop stop-color="#8c0c01"/><stop stop-color="#8c0c01"/><stop offset=".54" stop-color="#990c00"/><stop offset=".99" stop-color="#a80d0e"/><stop offset="1" stop-color="#a80d0e"/></linearGradient><linearGradient x1="3.903" y1="113.55" x2="7.17" y2="146.26" id="9" gradientUnits="userSpaceOnUse"><stop stop-color="#fff"/><stop stop-color="#fff"/><stop offset=".31" stop-color="#de4024"/><stop offset=".99" stop-color="#bf190b"/><stop offset="1" stop-color="#bf190b"/></linearGradient><linearGradient x1="174.07" y1="215.55" x2="132.28" y2="141.75" id="0" gradientUnits="userSpaceOnUse"><stop stop-color="#fb7655"/><stop stop-color="#fb7655"/><stop offset=".41" stop-color="#e42b1e"/><stop offset=".99" stop-color="#900"/><stop offset="1" stop-color="#900"/></linearGradient><linearGradient x1="96.13" y1="76.72" x2="99.21" y2="132.1" id="6" gradientUnits="userSpaceOnUse"><stop stop-color="#fff"/><stop stop-color="#fff"/><stop offset=".23" stop-color="#e4714e"/><stop offset=".56" stop-color="#be1a0d"/><stop offset=".99" stop-color="#a80d00"/><stop offset="1" stop-color="#a80d00"/></linearGradient><linearGradient x1="337.62" y1="-29.643" x2="317.15" y2="-51.53" id="2" gradientUnits="userSpaceOnUse"><stop stop-color="#79130d"/><stop stop-color="#79130d"/><stop offset=".99" stop-color="#9e120b"/><stop offset="1" stop-color="#9e120b"/></linearGradient><linearGradient x1="118.98" y1="11.542" x2="158.67" y2="-8.305" id="1" gradientUnits="userSpaceOnUse"><stop stop-color="#fff"/><stop stop-color="#fff"/><stop offset=".54" stop-color="#c81f11"/><stop offset=".99" stop-color="#bf0905"/><stop offset="1" stop-color="#bf0905"/></linearGradient><linearGradient x1="194.9" y1="153.56" x2="141.03" y2="117.41" id="4" gradientUnits="userSpaceOnUse"><stop stop-color="#871101"/><stop stop-color="#871101"/><stop offset=".99" stop-color="#911209"/><stop offset="1" stop-color="#911209"/></linearGradient><linearGradient x1="151.8" y1="217.79" x2="97.93" y2="181.64" id="5" gradientUnits="userSpaceOnUse" xlink:href="#4"/><linearGradient x1="38.696" y1="127.39" x2="47.05" y2="181.66" id="3" gradientUnits="userSpaceOnUse"><stop stop-color="#fff"/><stop stop-color="#fff"/><stop offset=".23" stop-color="#e57252"/><stop offset=".46" stop-color="#de3b20"/><stop offset=".99" stop-color="#a60003"/><stop offset="1" stop-color="#a60003"/></linearGradient><radialGradient cx="218.09" cy="68.17" r="66.944" id="G" gradientUnits="userSpaceOnUse"><stop stop-color="#a30c00"/><stop stop-color="#a30c00"/><stop offset=".99" stop-color="#800e08"/><stop offset="1" stop-color="#800e08"/></radialGradient><radialGradient cx="218.09" cy="68.17" r="66.944" id="E" xlink:href="#G" gradientUnits="userSpaceOnUse"/><radialGradient cx="287.83" cy="1.808" r="50.36" id="H" gradientUnits="userSpaceOnUse"><stop stop-color="#a80d00"/><stop stop-color="#a80d00"/><stop offset=".99" stop-color="#7e0e08"/><stop offset="1" stop-color="#7e0e08"/></radialGradient><radialGradient cx="287.83" cy="1.808" r="50.36" id="F" xlink:href="#H" gradientUnits="userSpaceOnUse"/></defs><g transform="matrix(.24294 0 0 .24294-20.22 33.68)" fill-rule="evenodd"><path transform="translate(144-77.58)" fill="url(#0)" d="m153.5 130.41l-113.12 67.17 146.47-9.94 11.28-147.69z"/><path transform="translate(144-77.58)" fill="url(#4)" d="m140.21 145.93l46.88 41.61-12.59-86.89z"/><path transform="translate(144-77.58)" fill="url(#5)" d="m40.87 197.39l146.39-9.85-92.23-7.24z"/><path transform="translate(144-77.58)" fill="url(#3)" d="M13.34 132.77 41 197.41 64.04 121.93z"/><path transform="translate(144-77.58)" fill="url(#6)" d="m58.33 120.01l81.87 26.17-21.2-83.04z"/><path transform="translate(144-77.58)" fill="url(#C)" d="m120 69.1l73.32-4.79-57.35-46.84z"/><path transform="translate(144-77.58)" fill="url(#1)" d="m111.49.52l55.01.25-33.73 18.64z"/><path transform="translate(144-77.58)" fill="url(#9)" d="M2.7 101.62 0 158.09 14.13 132.32z"/><path d="m145.94 23.07l11.5 32.62 49.97-11.211 57.05-53.02 16.1-51.14-25.351-17.9-43.1 16.13c-13.579 12.63-39.929 37.62-40.879 38.09-.94.48-17.4 31.59-25.29 46.43" fill="#fff"/><path d="m186.32-35.53c29.43-29.18 67.37-46.42 81.93-31.73 14.551 14.69-.88 50.39-30.31 79.56-29.43 29.17-66.9 47.36-81.45 32.67-14.56-14.68.4-51.33 29.83-80.5" fill="url(#A)"/><path d="m185 119.8l22.86-75.72 75.92 24.39c-27.45 25.74-57.98 47.5-98.78 51.33" fill="url(#B)"/><path d="m264.56-8.69l19.49 77.2c22.93-24.11 43.51-50.03 53.589-82.09l-73.08 4.89" fill="url(#7)"/><path d="m337.44-13.19c7.8-23.54 9.6-57.31-27.18-63.58l-30.18 16.67 57.36 46.91" fill="url(#2)"/><path d="m144 80.17c1.08 38.851 29.11 39.43 41.05 39.771l-27.58-64.41-13.47 24.64" fill="#9e1209"/><path d="m264.67-8.57c17.62 10.83 53.13 32.58 53.851 32.98 1.119.63 15.31-23.93 18.53-37.81l-72.38 4.83" fill="url(#F)"/><path d="m207.83 44.08l30.56 58.96c18.07-9.8 32.22-21.74 45.18-34.53l-75.74-24.43" fill="url(#E)"/><path d="m157.35 55.61l-4.33 51.56c8.17 11.16 19.41 12.13 31.2 11.26-8.53-21.23-25.57-63.68-26.87-62.82" fill="url(#D)"/><path d="m279.9-59.97l60.71 8.52c-3.24-13.73-13.19-22.59-30.15-25.36l-30.56 16.84" fill="url(#8)"/></g></svg>