<?xml version="1.0" encoding="UTF-8" standalone="no"?>
<svg
   xmlns:dc="http://purl.org/dc/elements/1.1/"
   xmlns:cc="http://creativecommons.org/ns#"
   xmlns:rdf="http://www.w3.org/1999/02/22-rdf-syntax-ns#"
   xmlns:svg="http://www.w3.org/2000/svg"
   xmlns="http://www.w3.org/2000/svg"
   xmlns:sodipodi="http://sodipodi.sourceforge.net/DTD/sodipodi-0.dtd"
   xmlns:inkscape="http://www.inkscape.org/namespaces/inkscape"
   fill="#9E9E9E"
   width="48"
   height="48"
   viewBox="0 0 48 48"
   id="svg2"
   version="1.1"
   inkscape:version="0.91 r13725"
   sodipodi:docname="folder-android.svg">
  <metadata
     id="metadata10">
    <rdf:RDF>
      <cc:Work
         rdf:about="">
        <dc:format>image/svg+xml</dc:format>
        <dc:type
           rdf:resource="http://purl.org/dc/dcmitype/StillImage" />
        <dc:title />
      </cc:Work>
    </rdf:RDF>
  </metadata>
  <defs
     id="defs8" />
  <sodipodi:namedview
     pagecolor="#ffffff"
     bordercolor="#666666"
     borderopacity="1"
     objecttolerance="10"
     gridtolerance="10"
     guidetolerance="10"
     inkscape:pageopacity="0"
     inkscape:pageshadow="2"
     inkscape:window-width="1366"
     inkscape:window-height="713"
     id="namedview6"
     showgrid="false"
     inkscape:zoom="4"
     inkscape:cx="-17.118181"
     inkscape:cy="30.282413"
     inkscape:window-x="0"
     inkscape:window-y="30"
     inkscape:window-maximized="1"
     inkscape:current-layer="svg2"
     inkscape:snap-bbox="true"
     inkscape:bbox-paths="true"
     inkscape:snap-bbox-edge-midpoints="false"
     inkscape:bbox-nodes="true" />
  <path
     d="M 40,12 24,12 20,8 8,8 C 5.79,8 4.02,9.79 4.02,12 L 4,36 c 0,2.21 1.79,4 4,4 l 32,0 c 2.21,0 4,-1.79 4,-4 l 0,-20 c 0,-2.21 -1.79,-4 -4,-4 z"
     id="path3382"
     inkscape:connector-curvature="0" />
  <path
     d="m 79.186441,15.966102 -6,0 0,11 c 0,2.76 -2.24,5 -5,5 -2.76,0 -5,-2.24 -5,-5 0,-2.76 2.24,-5 5,-5 1.13,0 2.16,0.39 3,1.02 l 0,-11.02 8,0 0,4 z"
     id="path3340"
     inkscape:connector-curvature="0"
     style="fill:#ffffff;fill-opacity:1" />
  <g
     style="fill:#ffffff;fill-opacity:1"
     id="g4144"
     transform="matrix(0.41664497,0,0,0.41664497,14.000521,17.001041)">
    <path
       id="path4136"
       d="m 12,36 c 0,1.1 0.9,2 2,2 l 2,0 0,7 c 0,1.66 1.34,3 3,3 1.66,0 3,-1.34 3,-3 l 0,-7 4,0 0,7 c 0,1.66 1.34,3 3,3 1.66,0 3,-1.34 3,-3 l 0,-7 2,0 c 1.1,0 2,-0.9 2,-2 l 0,-20 -24,0 0,20 z M 7,16 c -1.66,0 -3,1.34 -3,3 l 0,14 c 0,1.66 1.34,3 3,3 1.66,0 3,-1.34 3,-3 L 10,19 C 10,17.34 8.66,16 7,16 Z m 34,0 c -1.66,0 -3,1.34 -3,3 l 0,14 c 0,1.66 1.34,3 3,3 1.66,0 3,-1.34 3,-3 l 0,-14 c 0,-1.66 -1.34,-3 -3,-3 z M 31.06,4.32 33.67,1.71 c 0.39,-0.39 0.39,-1.02 0,-1.41 -0.39,-0.39 -1.02,-0.39 -1.41,0 L 29.3,3.25 C 27.7,2.46 25.91,2 24,2 22.08,2 20.28,2.46 18.67,3.26 L 15.7,0.29 c -0.39,-0.39 -1.02,-0.39 -1.41,0 -0.39,0.39 -0.39,1.02 0,1.41 l 2.62,2.62 C 13.94,6.51 12,10.03 12,14 l 24,0 C 36,10.02 34.05,6.5 31.06,4.32 Z M 20,10 l -2,0 0,-2 2,0 0,2 z m 10,0 -2,0 0,-2 2,0 0,2 z"
       inkscape:connector-curvature="0"
       style="fill:#ffffff;fill-opacity:1" />
  </g>
</svg>
