<?xml version="1.0" encoding="UTF-8" standalone="no"?>
<svg
   xmlns:dc="http://purl.org/dc/elements/1.1/"
   xmlns:cc="http://creativecommons.org/ns#"
   xmlns:rdf="http://www.w3.org/1999/02/22-rdf-syntax-ns#"
   xmlns:svg="http://www.w3.org/2000/svg"
   xmlns="http://www.w3.org/2000/svg"
   xmlns:sodipodi="http://sodipodi.sourceforge.net/DTD/sodipodi-0.dtd"
   xmlns:inkscape="http://www.inkscape.org/namespaces/inkscape"
   fill="#9E9E9E"
   width="48"
   height="48"
   viewBox="0 0 48 48"
   id="svg2"
   version="1.1"
   inkscape:version="0.91 r13725"
   sodipodi:docname="folder-arch.svg">
  <metadata
     id="metadata10">
    <rdf:RDF>
      <cc:Work
         rdf:about="">
        <dc:format>image/svg+xml</dc:format>
        <dc:type
           rdf:resource="http://purl.org/dc/dcmitype/StillImage" />
        <dc:title></dc:title>
      </cc:Work>
    </rdf:RDF>
  </metadata>
  <defs
     id="defs8" />
  <sodipodi:namedview
     pagecolor="#ffffff"
     bordercolor="#666666"
     borderopacity="1"
     objecttolerance="10"
     gridtolerance="10"
     guidetolerance="10"
     inkscape:pageopacity="0"
     inkscape:pageshadow="2"
     inkscape:window-width="1366"
     inkscape:window-height="713"
     id="namedview6"
     showgrid="false"
     inkscape:zoom="4.9166667"
     inkscape:cx="-0.40677944"
     inkscape:cy="24"
     inkscape:window-x="0"
     inkscape:window-y="30"
     inkscape:window-maximized="1"
     inkscape:current-layer="svg2"
     inkscape:snap-bbox="true"
     inkscape:bbox-paths="true"
     inkscape:bbox-nodes="true" />
  <path
     d="M 40,12 24,12 20,8 8,8 C 5.79,8 4.02,9.79 4.02,12 L 4,36 c 0,2.21 1.79,4 4,4 l 32,0 c 2.21,0 4,-1.79 4,-4 l 0,-20 c 0,-2.21 -1.79,-4 -4,-4 z"
     id="path3382"
     inkscape:connector-curvature="0" />
  <path
     inkscape:connector-curvature="0"
     style="fill:#ffffff;fill-opacity:1;fill-rule:evenodd;stroke:none;stroke-width:1;stroke-linecap:round;stroke-linejoin:round;stroke-miterlimit:10;stroke-dasharray:none;stroke-opacity:1"
     d="m 29,17 c -0.890221,2.182582 -1.430732,3.612278 -2.421875,5.72998 0.607695,0.644157 1.354551,1.391544 2.565918,2.23877 C 27.841705,24.432845 26.95392,23.89621 26.290039,23.33789 25.021565,25.984757 23.032941,29.753624 19,37 c 3.168961,-1.829497 5.625593,-2.957944 7.915039,-3.388672 -0.09795,-0.422216 -0.150274,-0.881056 -0.146485,-1.357422 l 0.0024,-0.100098 c 0.0503,-2.030779 1.10698,-3.592362 2.358398,-3.486328 1.251418,0.106034 2.225589,1.838849 2.175293,3.869629 -0.0095,0.382518 -0.05395,0.750064 -0.129395,1.091308 2.264807,0.443216 4.698271,1.566635 7.824707,3.371583 -0.616558,-1.135127 -1.168791,-2.1578 -1.694336,-3.132325 -0.82782,-0.641616 -1.690861,-1.476361 -3.452149,-2.380371 1.210611,0.314567 2.078269,0.678321 2.753907,1.083985 C 31.264007,22.622864 30.832317,21.300029 28.999957,17 Z"
     id="path2518" />
  <path
     inkscape:connector-curvature="0"
     style="fill:#ffffff;fill-opacity:1;fill-rule:evenodd;stroke:none;stroke-width:36.09999847;stroke-linecap:butt;stroke-linejoin:round;stroke-miterlimit:10;stroke-opacity:1"
     d="m 34.629044,28.887325 c -4.334887,-5.883693 -5.339668,-10.62577 -5.594175,-11.75791 2.312354,5.333536 2.296561,5.398942 5.594175,11.75791 z"
     id="path2522"
     sodipodi:nodetypes="ccc" />
  <path
     inkscape:connector-curvature="0"
     style="fill:#ffffff;fill-opacity:1;fill-rule:evenodd;stroke:none;stroke-width:0.71416688;stroke-linecap:round;stroke-linejoin:round;stroke-miterlimit:10;stroke-dasharray:none;stroke-opacity:1"
     d="m 29.039062,17.087892 c -0.110848,0.272508 -0.219835,0.534504 -0.322265,0.786132 -0.113806,0.279564 -0.224471,0.548893 -0.332032,0.810547 -0.107552,0.261658 -0.211706,0.519448 -0.317382,0.771485 -0.105683,0.252048 -0.214092,0.501231 -0.322266,0.751953 -0.108166,0.250713 -0.217007,0.499164 -0.332031,0.756836 -0.115024,0.25768 -0.235089,0.522972 -0.361328,0.795898 -0.12625,0.272929 -0.25857,0.553154 -0.400391,0.84961 -0.01932,0.04039 -0.04382,0.08604 -0.06348,0.126953 0.606075,0.641996 1.353194,1.388391 2.558594,2.231445 -1.298982,-0.534524 -2.188239,-1.069206 -2.851562,-1.625977 -0.03425,0.06991 -0.06238,0.1335 -0.09766,0.205079 -0.130029,0.263856 -0.274455,0.550614 -0.419921,0.839843 -0.03552,0.07063 -0.06601,0.132779 -0.102539,0.205079 -0.01649,0.03309 -0.037,0.0691 -0.05371,0.102539 -0.56992,1.140706 -1.271068,2.496677 -2.167969,4.174804 2.534805,-1.428909 5.273356,-3.48215 10.239258,-1.708984 -0.249167,-0.471915 -0.47823,-0.916921 -0.69336,-1.333008 -0.215126,-0.416099 -0.414996,-0.803401 -0.600586,-1.171875 -0.185574,-0.368466 -0.357064,-0.715863 -0.517578,-1.044922 -0.160511,-0.329051 -0.309297,-0.63963 -0.449219,-0.9375 -0.139923,-0.297863 -0.271685,-0.584487 -0.395502,-0.859375 -0.123826,-0.274884 -0.239355,-0.540669 -0.351563,-0.800781 -0.112218,-0.260126 -0.222081,-0.513051 -0.327148,-0.766602 -0.105077,-0.253558 -0.205208,-0.506503 -0.307616,-0.761718 -0.04051,-0.100924 -0.0815,-0.205539 -0.122072,-0.307618 -0.276438,-0.64924 -0.561013,-1.320124 -0.888672,-2.089843 z"
     id="path2520" />
</svg>
