<?xml version="1.0" encoding="UTF-8" standalone="no"?>
<svg
   xmlns:dc="http://purl.org/dc/elements/1.1/"
   xmlns:cc="http://creativecommons.org/ns#"
   xmlns:rdf="http://www.w3.org/1999/02/22-rdf-syntax-ns#"
   xmlns:svg="http://www.w3.org/2000/svg"
   xmlns="http://www.w3.org/2000/svg"
   xmlns:sodipodi="http://sodipodi.sourceforge.net/DTD/sodipodi-0.dtd"
   xmlns:inkscape="http://www.inkscape.org/namespaces/inkscape"
   fill="#9E9E9E"
   width="48"
   height="48"
   viewBox="0 0 48 48"
   id="svg2"
   version="1.1"
   inkscape:version="0.91 r13725"
   sodipodi:docname="folder-recent.svg">
  <metadata
     id="metadata10">
    <rdf:RDF>
      <cc:Work
         rdf:about="">
        <dc:format>image/svg+xml</dc:format>
        <dc:type
           rdf:resource="http://purl.org/dc/dcmitype/StillImage" />
        <dc:title />
      </cc:Work>
    </rdf:RDF>
  </metadata>
  <defs
     id="defs8" />
  <sodipodi:namedview
     pagecolor="#ffffff"
     bordercolor="#666666"
     borderopacity="1"
     objecttolerance="10"
     gridtolerance="10"
     guidetolerance="10"
     inkscape:pageopacity="0"
     inkscape:pageshadow="2"
     inkscape:window-width="1366"
     inkscape:window-height="713"
     id="namedview6"
     showgrid="false"
     inkscape:zoom="6.924027240959862"
     inkscape:cx="-4.011124406483383"
     inkscape:cy="1.331448757548465"
     inkscape:window-x="0"
     inkscape:window-y="30"
     inkscape:window-maximized="1"
     inkscape:current-layer="svg2"
     inkscape:snap-bbox="true"
     inkscape:bbox-paths="true"
     inkscape:snap-bbox-edge-midpoints="true"
     inkscape:bbox-nodes="true" />
  <path
     d="M 40,12 24,12 20,8 8,8 C 5.79,8 4.02,9.79 4.02,12 L 4,36 c 0,2.21 1.79,4 4,4 l 32,0 c 2.21,0 4,-1.79 4,-4 l 0,-20 c 0,-2.21 -1.79,-4 -4,-4 z"
     id="path3382"
     inkscape:connector-curvature="0" />
  <path
     style="opacity:1;fill:#000000;fill-opacity:1;fill-rule:nonzero;stroke:none;stroke-width:3;stroke-miterlimit:4;stroke-dasharray:none;stroke-opacity:1"
     id="path4133"
     sodipodi:type="arc"
     sodipodi:cx="24"
     sodipodi:cy="26"
     sodipodi:rx="10"
     sodipodi:ry="10"
     sodipodi:start="3.141592653589793"
     sodipodi:end="2.356194490192345"
     d="m 14,26 a 10,10 0 0 1 8.04909677983871,-9.8078528040323 10,10 0 0 1 11.18969854527415,5.9810184803814 10,10 0 0 1 -3.68309299491684,12.14153044667636 10,10 0 0 1 -12.62677014206149,-1.24362831115998 L 24,26 Z" />
  <circle
     r="8"
     cy="26"
     cx="24"
     id="circle4135"
     style="opacity:1;fill:#ffffff;fill-opacity:1;fill-rule:nonzero;stroke:none;stroke-width:3;stroke-miterlimit:4;stroke-dasharray:none;stroke-opacity:1" />
  <path
     style="opacity:1;fill:#000000;fill-opacity:1;fill-rule:nonzero;stroke:none;stroke-width:3;stroke-miterlimit:4;stroke-dasharray:none;stroke-opacity:1"
     d="m 11,26 4,4 4,-4 -8,0 z"
     id="path4190" />
  <g
     style="fill:#4caf50"
     id="g4147"
     transform="translate(-1.813767430870246,44.76333613368508)">
    <path
       id="path4159"
       d="m 14,48 4,0 0,-4 -4,0 0,4 z"
       inkscape:connector-curvature="0" />
    <path
       id="path4157"
       d="m 22,48 4,0 0,-4 -4,0 0,4 z"
       inkscape:connector-curvature="0" />
    <path
       id="path4"
       d="m 30,48 4,0 0,-4 -4,0 0,4 z"
       inkscape:connector-curvature="0" />
    <path
       inkscape:connector-curvature="0"
       d="M 24,6.9999999 C 14.612222,6.9999999 6.9999996,14.612222 6.9999996,24 L 1.3333329,24 8.8888884,31.555556 16.444445,24 10.777778,24 c 0,-7.300555 5.921667,-13.222222 13.222222,-13.222222 7.300556,0 13.222223,5.921667 13.222223,13.222222 0,7.300556 -5.921667,13.222222 -13.222223,13.222222 -2.861666,0 -5.496666,-0.916111 -7.668889,-2.465 l -2.672777,2.710556 C 16.529445,39.67777800000001 20.108889,41 24,41 33.387778,41 41,33.387778 41,24 41,14.612222 33.387778,6.9999999 24,6.9999999 Z M 27.777778,24 c 0,-2.087222 -1.690555,-3.777778 -3.777778,-3.777778 -2.087222,0 -3.777778,1.690556 -3.777778,3.777778 0,2.087222 1.690556,3.777778 3.777778,3.777778 2.087223,0 3.777778,-1.690556 3.777778,-3.777778 z"
       style="fill:#4caf50"
       id="path4140" />
  </g>
  <circle
     style="opacity:1;fill:#ff0000;fill-opacity:1;fill-rule:nonzero;stroke:none;stroke-width:3;stroke-miterlimit:4;stroke-dasharray:none;stroke-opacity:1"
     id="path4192"
     cx="24"
     cy="26"
     r="2" />
</svg>
