<?xml version="1.0" encoding="UTF-8" standalone="no"?>
<svg
   xmlns:dc="http://purl.org/dc/elements/1.1/"
   xmlns:cc="http://creativecommons.org/ns#"
   xmlns:rdf="http://www.w3.org/1999/02/22-rdf-syntax-ns#"
   xmlns:svg="http://www.w3.org/2000/svg"
   xmlns="http://www.w3.org/2000/svg"
   xmlns:sodipodi="http://sodipodi.sourceforge.net/DTD/sodipodi-0.dtd"
   xmlns:inkscape="http://www.inkscape.org/namespaces/inkscape"
   fill="#9E9E9E"
   width="48"
   height="48"
   viewBox="0 0 48 48"
   id="svg2"
   version="1.1"
   inkscape:version="0.91 r13725"
   sodipodi:docname="user-desktop.svg">
  <metadata
     id="metadata10">
    <rdf:RDF>
      <cc:Work
         rdf:about="">
        <dc:format>image/svg+xml</dc:format>
        <dc:type
           rdf:resource="http://purl.org/dc/dcmitype/StillImage" />
        <dc:title></dc:title>
      </cc:Work>
    </rdf:RDF>
  </metadata>
  <defs
     id="defs8" />
  <sodipodi:namedview
     pagecolor="#ffffff"
     bordercolor="#666666"
     borderopacity="1"
     objecttolerance="10"
     gridtolerance="10"
     guidetolerance="10"
     inkscape:pageopacity="0"
     inkscape:pageshadow="2"
     inkscape:window-width="1366"
     inkscape:window-height="713"
     id="namedview6"
     showgrid="false"
     inkscape:zoom="4.9166667"
     inkscape:cx="51.152542"
     inkscape:cy="24"
     inkscape:window-x="0"
     inkscape:window-y="30"
     inkscape:window-maximized="1"
     inkscape:current-layer="svg2" />
  <path
     d="M 40,8 8,8 C 5.79,8 4.02,9.79 4.02,12 L 4,36 c 0,2.21 1.79,4 4,4 l 32,0 c 2.21,0 4,-1.79 4,-4 L 44,12 C 44,9.79 42.21,8 40,8 Z"
     id="path4144" />
  <path
     d="m 30,36 -22,0 0,-8 22,0 0,8 z"
     id="path4142"
     style="fill:#ffffff;fill-opacity:1" />
  <path
     d="m 30,26 -22,0 0,-8 22,0 0,8 z"
     id="path4140"
     style="fill:#ffffff;fill-opacity:1" />
  <path
     d="m 40,36 -8,0 0,-18 8,0 0,18 z"
     id="path4"
     style="fill:#ffffff;fill-opacity:1" />
</svg>
