<svg xmlns="http://www.w3.org/2000/svg" viewBox="0 0 24 24"><path d="m13.262 13.499h-1.762v-2.5" opacity=".3" fill="none" stroke="#000" stroke-linejoin="round" stroke-linecap="round"/><g fill-rule="evenodd"><path d="m11.5 6c-4.14 0-7.5 3.36-7.5 7.5 0 4.14 3.36 7.5 7.5 7.5 1.965 0 3.756-.762 5.094-2h5.406l-3.344-3.344c.208-.688.344-1.401.344-2.156 0-4.14-3.36-7.5-7.5-7.5m0 3c2.484 0 4.5 2.02 4.5 4.5 0 2.484-2.02 4.5-4.5 4.5-2.484 0-4.5-2.02-4.5-4.5 0-2.484 2.02-4.5 4.5-4.5" opacity=".3"/><path d="m11.5 5c-4.14 0-7.5 3.36-7.5 7.5 0 4.14 3.36 7.5 7.5 7.5 1.965 0 3.756-.762 5.094-2h5.406l-3.344-3.344c.208-.688.344-1.401.344-2.156 0-4.14-3.36-7.5-7.5-7.5m0 3c2.484 0 4.5 2.02 4.5 4.5 0 2.484-2.02 4.5-4.5 4.5-2.484 0-4.5-2.02-4.5-4.5 0-2.484 2.02-4.5 4.5-4.5" fill="#FFEB3B"/></g><g fill="none" stroke-linecap="round"><path d="m13.262 12.499h-1.762v-2.5" stroke="#FFEB3B" stroke-linejoin="round"/><path d="m15.75 12.499c0 2.347-1.903 4.251-4.25 4.251-2.347 0-4.25-1.903-4.25-4.251 0-2.347 1.903-4.251 4.25-4.251 2.347 0 4.25 1.903 4.25 4.251z" opacity=".3" stroke="#fff" stroke-width=".5"/></g></svg>