<svg xmlns="http://www.w3.org/2000/svg" fill="#00C853" viewBox="0 0 48 48"><path d="m12 6c-.93 0-1.761.43-2.311 1.09l-2.77 3.359c-.58.7-.92 1.581-.92 2.551v25c0 2.21 1.79 4 4 4h28c2.21 0 4-1.79 4-4v-25c0-.97-.34-1.851-.91-2.551l-2.77-3.359c-.56-.66-1.39-1.09-2.32-1.09h-24m-.119 2h24l1.869 2h-27.5l1.631-2m13.402 8c-.261.059-.621.019-.867.109l-.148-.021c.335-.043.675-.059 1.016-.088m-1.488.156c-.175.098-.35.174-.514.289.665-.159.633.066 1.313-.023-.238.035-.527.128-.48.164.76.088.875-.234 1.578 0l-.045-.207c.976.353 1.181.291 2.242.854.373.018.41-.229.973 0 .099.174-.023.206.668.617.077-.031-.137-.225-.307-.381 1.389.743 2.899 2.325 3.359 4.02-.431-.795-.043.406-.191.344.192.518.35 1.054.447 1.607-.128-.454-.407-1.549-.895-2.256-.04.456-.628-.314-.307.689.245.355.049-.36.352.271.005.3.121.599.188.99-.103-.017-.231-.434-.307-.318.105.492.276.749.342.787-.034.082-.121-.077-.127.258.04.771.216.446.299.482-.084.379-.423.826-.256 1.479-.048-.198-.141-.397-.213-.584-.066.557.122.665-.135 1.34.185-.609.167-1.157-.008-.893.077.865-.686 1.529-.604 2.076l-.221-.305c-.6.87-.013.478-.422 1.137.15-.259-.08-.107.115-.4-.129.008-.576.552-.986.871-1.612 1.292-3.536 1.461-5.398.766-.072.059.333.376.631.529.71.262 1.511.273 2.143.25-1.365.571-3.972-.581-4.824-2.107.193.042.855 1.075 1.35 1.242-.292-.234-.519-.533-.729-.84.395.454.876.825 1.4 1.07-.034-.128.145-.153-.104-.32-1.579-1.21-2.513-2.238-2.189-4.619.241-.182.305-1.176.857-1.523.337-.744 1.347-1.43 2.426-1.447 1.101-.061 2.029.588 2.496 1.199-.85-.792-2.241-1.033-3.428-.445-1.213.545-1.931 1.881-1.826 3.211.045-.066.086-.025.107-.189-.037 2.585 2.784 4.48 4.816 3.523l.025.055c.824-.225.717-.411 1.256-.781-.042.087-.363.308-.172.313.262-.07 1.082-.832 1.484-1.189.185-.398-.1-.214.158-.715l.316-.158c.175-.506.369-.791.348-1.381l-.186.387c.271-.819.114-1.711.152-2.482l-.074-.02c-.066-1.94-1.743-4-3.236-4.701-1.287-.594-3.267-.696-4.182-.248.126-.112.628-.158.477-.244-1.433.142-1.113.499-2.211.779-.301.291.88-.233.244.145-.589.162-.865-.103-1.738.801.078.126.556-.372.158.127-.82-.102-2.593 1.877-2.969 2.533l.197.033c-.323.809-.749 1.326-.807 1.811-.083 1.192-.498 3.365.08 4.03l-.057.557c.079.158.14.32.238.469l-.129.01c.608 1.918.652.036 1.455 2.027-.116-.039-.235-.082-.404-.311-.02.175.249.698.566 1.107l-.135.154c.177.321.34.392.463.504-.661-.36.612 1.189.727 1.387l.102-.182c-.015.26.187.595.564 1.061l.314-.012c.129.256.602.719.889.74l-.191.248c.721.228.351.304 1.236.617l-.18-.316c.452.392.593.735 1.23 1.035.884.308 1 .186 1.908.445-.769-.022-1.673-.015-2.281-.232-4.148-1.123-7.944-5.989-7.666-11-.064-1.015.103-2.283-.066-2.535.237-.772.51-1.714 1.063-2.834-.04-.075.092.219.373-.26.17-.374.309-.787.523-1.15l.111-.025c.111-.642 1.497-1.626 1.91-2.121l.029.189c.901-.845 2.506-1.411 3.41-1.814-.237.263.532-.027 1.086-.061m.549.127c.65.018.601.063.389.109l-.01.016-.129.012.139-.027c.032-.046-.194-.074-.389-.109m-8.582 4.428c-.004.218.367-.216.102.383-.496.347-.045.143-.102-.383m-.404 1.668c-.044.203-.064.415-.178.766.033-.274-.138-.362.178-.766m12.992 2.438c.045-.001.077.111.055.439-.066.264-.12-.162-.188-.197.029-.125.088-.241.133-.242m3.986 1.107c-.097.748-.33 1.485-.689 2.16.325-.64.537-1.33.635-2.027l.055-.133m-4.223.244c-.056.339-.215.667-.432.967.027-.258-.606.112.127-.811-.064.26-.679.945.002.516.124-.22.254-.43.303-.672m-1.486 1.408c-.106.101-.226.206-.357.309-.476-.073-.909-.257-.545-.262.304.028.606.026.902-.047m-4.6.049c.084.168.158.336.285.477l.113.33c-.153-.258-.318-.511-.398-.807m-.281.498c.301.581.465.76.686 1.189-.306-.254-.497-.608-.736-.934l.051-.256"/></svg>