<svg xmlns="http://www.w3.org/2000/svg" fill="#3E2723" viewBox="0 0 48 48"><path d="m8 8c-2.21 0-3.98 1.79-3.98 4l-.02 24c0 2.21 1.79 4 4 4h32c2.21 0 4-1.79 4-4v-20c0-2.21-1.79-4-4-4h-16l-4-4h-12m-1.037 8.746c.109-.018 2.831 1.42 4.66 1.916 3.262.834 6.24 3.342 7.68 4.783.107.123 1.236-.845 2.418-.775 1.615.098 6.61 1.504 7.277.547.405-.562.376-1.251.881-1.533.272-.076-1.01-2.422.354-3.174.972-.486 1.795 2.234 2.045 2.539.112.136.705.17.635-.141-.076-.337-1.036-2.947.141-3.385 1.911-.757 1.571 3.339 1.621 3.455.106.248 6.656.439 7.05 3.385.23 1.621-5.248 3.717-5.783 4.09-.535.373-.49.97-.281 1.34.24.401 1.835 1.752 1.621 2.396-.147.372-3.124-.992-3.314-.705-.434.548 2.168 1.918 1.27 2.891-.356.233-4.452-1.714-4.441-1.691-.11.042-5.789 1.036-10.154-.283-.154-.043-2.802 2.558-3.104 2.469-.412-.151.607-2.262.494-2.68-.185-.233-1.877.945-1.975.354-.116-.777 1.485-1.672 1.41-2.188-.413-2.927.185-4.634 1.199-6.06.338-.526-3.975-3.785-7.098-5.07-3.123-1.286-4.793-2.375-4.607-2.477m33.33 2.641c.172.125-.157 2.553-.346 2.412-.22-.107.256-2.516.346-2.412m1.629.313c.081.08-1.097 2.461-1.285 2.32-.313-.232 1.104-2.47 1.285-2.32m-6.412109 2.558594a.565475 .643824 0 0 0 -.564453 .642578 .565475 .643824 0 0 0 .564453 .644531 .565475 .643824 0 0 0 .566406 -.644531 .565475 .643824 0 0 0 -.566406 -.642578m-1.27.391c-.562.397.31 2.647 1.742 1.334-1.125.033-1.502-.297-1.742-1.334m3.035 2.713c-.624.051-2.278 1.065-2.248 1.17.02.152 3.01-.922 2.443-1.127-.039-.038-.106-.05-.195-.043m.447.701c-.365-.188-1.853 1.545-1.662 1.66-.025.041 2.195-1.131 1.662-1.66"/></svg>