<svg xmlns="http://www.w3.org/2000/svg" viewBox="0 0 64 64"><defs><linearGradient id="0" gradientUnits="userSpaceOnUse" gradientTransform="matrix(-.39377 0 0 .39375 978.35 416.98)" x1="541.34" y1="104.51" x2="606.91" y2="303.14"><stop stop-color="#fff" stop-opacity="0"/><stop offset="1" stop-color="#fff" stop-opacity=".275"/></linearGradient></defs><g transform="matrix(.33684 0 0 .33684-225.6-146.73)" fill-rule="evenodd"><path d="m128 0c-11.395 27.937-18.313 46.24-31 73.34 7.778 8.245 17.338 17.812 32.844 28.656-16.67-6.86-28.03-13.729-36.531-20.875-16.236 33.88-41.691 82.12-93.31 174.88 40.563-23.418 72.01-37.862 101.31-43.37-1.254-5.404-1.924-11.278-1.875-17.375l.031-1.281c.644-25.994 14.169-45.982 30.19-44.625 16.02 1.357 28.488 23.537 27.844 49.53-.121 4.896-.69 9.601-1.656 13.969 28.99 5.673 60.14 20.05 100.16 43.16-7.892-14.53-14.961-27.62-21.688-40.09-10.596-8.213-21.643-18.897-44.19-30.469 15.496 4.03 26.602 8.683 35.25 13.875-68.4-127.34-73.921-144.27-97.37-199.31" transform="matrix(.74219 0 0 .74219 669.75 435.62)" fill="#1793d1"/><path d="m818.23 548.55c-41.18-55.895-50.727-100.94-53.14-111.7 21.967 50.669 21.817 51.29 53.14 111.7" fill="#fff" fill-opacity=".166"/><path d="m765.12 436.37c-1.068 2.626-2.076 5.186-3.062 7.607-1.081 2.656-2.132 5.214-3.154 7.7-1.022 2.486-2.058 4.842-3.062 7.236-1 2.394-1.941 4.762-2.969 7.144-1.028 2.382-2.154 4.788-3.247 7.236-1.093 2.448-2.233 4.922-3.433 7.515-1.199 2.593-2.456 5.348-3.804 8.164-.183.382-.371.819-.557 1.206 5.758 6.099 12.856 13.144 24.307 21.15-12.372-5.091-20.783-10.189-27.09-15.493-.329.671-.589 1.261-.928 1.948-1.247 2.585-2.584 5.144-3.989 7.979-.335.666-.583 1.267-.928 1.948-1.485 2.98-3.046 6.07-4.731 9.37-.334.651-.678 1.191-1.021 1.855-1.02 1.98-4.275 8.223-7.607 14.565-1.943 3.705-3.469 6.74-5.659 10.854-.621 1.182-1.898 3.548-2.227 4.175 24.12-13.578 50.14-33.3 97.41-16.421-2.367-4.483-4.636-8.664-6.68-12.617-2.044-3.953-3.896-7.632-5.659-11.133-1.763-3.5-3.392-6.801-4.917-9.927-1.525-3.126-2.938-6.076-4.268-8.906-1.329-2.83-2.627-5.553-3.804-8.164-1.176-2.611-2.274-5.136-3.34-7.607-1.066-2.471-2.063-4.92-3.062-7.329-.998-2.409-1.996-4.719-2.969-7.144-.423-1.055-.782-2.178-1.206-3.247-2.636-6.19-5.224-12.325-8.35-19.668" fill="url(#0)"/></g></svg>