<svg xmlns="http://www.w3.org/2000/svg" width="141.73" height="141.73" viewBox="70.866 70.866 141.732 141.732" enable-background="new 70.866 70.866 141.732 141.732"><path fill="#dd4814" d="m181.82 101.64c-10.707-10.708-24.943-16.605-40.09-16.605-15.14 0-29.379 5.897-40.09 16.605-10.709 10.708-16.608 24.944-16.608 40.09 0 15.14 5.898 29.379 16.607 40.09 10.708 10.709 24.945 16.605 40.09 16.605s29.379-5.896 40.09-16.604c10.708-10.709 16.604-24.945 16.604-40.09.002-15.14-5.897-29.379-16.604-40.09m-43.615 74.69c-8.302-8.302-21.762-8.302-30.06.001v-31.891c8.303-8.301 21.763-8.301 30.06 0v31.89m0-38.968c-8.302-8.303-21.762-8.303-30.06 0v-31.89c8.303-8.303 21.763-8.303 30.06 0v31.89m37.15 42.485c-8.302 8.303-21.762 8.303-30.06 0v-31.891c8.303 8.303 21.763 8.303 30.06.001v31.89m0-38.97c-8.302 8.302-21.762 8.302-30.06 0v-31.889c8.303 8.302 21.763 8.302 30.06 0v31.889"/></svg>