<?xml version="1.0" encoding="UTF-8" standalone="no"?>
<svg
   xmlns:dc="http://purl.org/dc/elements/1.1/"
   xmlns:cc="http://creativecommons.org/ns#"
   xmlns:rdf="http://www.w3.org/1999/02/22-rdf-syntax-ns#"
   xmlns:svg="http://www.w3.org/2000/svg"
   xmlns="http://www.w3.org/2000/svg"
   xmlns:sodipodi="http://sodipodi.sourceforge.net/DTD/sodipodi-0.dtd"
   xmlns:inkscape="http://www.inkscape.org/namespaces/inkscape"
   fill="#009688"
   width="48"
   height="48"
   viewBox="0 0 48 48"
   id="svg2"
   version="1.1"
   inkscape:version="0.91 r13725"
   sodipodi:docname="applications-development1.svg">
  <metadata
     id="metadata10">
    <rdf:RDF>
      <cc:Work
         rdf:about="">
        <dc:format>image/svg+xml</dc:format>
        <dc:type
           rdf:resource="http://purl.org/dc/dcmitype/StillImage" />
      </cc:Work>
    </rdf:RDF>
  </metadata>
  <defs
     id="defs8" />
  <sodipodi:namedview
     pagecolor="#ffffff"
     bordercolor="#666666"
     borderopacity="1"
     objecttolerance="10"
     gridtolerance="10"
     guidetolerance="10"
     inkscape:pageopacity="0"
     inkscape:pageshadow="2"
     inkscape:window-width="1366"
     inkscape:window-height="713"
     id="namedview6"
     showgrid="false"
     inkscape:snap-page="true"
     inkscape:snap-bbox="true"
     inkscape:bbox-paths="true"
     inkscape:snap-bbox-edge-midpoints="true"
     inkscape:bbox-nodes="true"
     inkscape:zoom="6.9532167"
     inkscape:cx="11.202114"
     inkscape:cy="33.577548"
     inkscape:window-x="0"
     inkscape:window-y="30"
     inkscape:window-maximized="1"
     inkscape:current-layer="svg2" />
  <path
     inkscape:connector-curvature="0"
     style="fill:#009688"
     d="M 29.83,31.17 39,22 29.83,12.83 27,15.66 33.34,22 27,28.35 l 2.83,2.82 z"
     id="path4156" />
  <path
     inkscape:connector-curvature="0"
     style="fill:#009688"
     d="m 20.999995,28.35 -6.34,-6.34 6.34,-6.35 -2.83,-2.83 -9.17,9.17 9.17,9.17 2.83,-2.82 z"
     id="path4154" />
  <path
     d="M 8 8 C 5.79 8 4 9.79 4 12 L 4 32 C 4 34.21 5.79 36 8 36 L 0 36 L 0 40 L 48 40 L 48 36 L 40 36 C 42.21 36 43.980469 34.21 43.980469 32 L 44 12 C 44 9.79 42.21 8 40 8 L 8 8 z M 8 12 L 40 12 L 40 32 L 8 32 L 8 12 z "
     id="path4187" />
</svg>
