<?xml version="1.0" encoding="UTF-8" standalone="no"?>
<svg
   xmlns:dc="http://purl.org/dc/elements/1.1/"
   xmlns:cc="http://creativecommons.org/ns#"
   xmlns:rdf="http://www.w3.org/1999/02/22-rdf-syntax-ns#"
   xmlns:svg="http://www.w3.org/2000/svg"
   xmlns="http://www.w3.org/2000/svg"
   xmlns:sodipodi="http://sodipodi.sourceforge.net/DTD/sodipodi-0.dtd"
   xmlns:inkscape="http://www.inkscape.org/namespaces/inkscape"
   version="1.1"
   width="24"
   height="24"
   id="svg2"
   inkscape:version="0.91 r13725"
   sodipodi:docname="audacious-panel.svg">
  <metadata
     id="metadata13">
    <rdf:RDF>
      <cc:Work
         rdf:about="">
        <dc:format>image/svg+xml</dc:format>
        <dc:type
           rdf:resource="http://purl.org/dc/dcmitype/StillImage" />
        <dc:title></dc:title>
        <dc:title />
      </cc:Work>
    </rdf:RDF>
  </metadata>
  <defs
     id="defs11" />
  <sodipodi:namedview
     pagecolor="#ffffff"
     bordercolor="#666666"
     borderopacity="1"
     objecttolerance="10"
     gridtolerance="10"
     guidetolerance="10"
     inkscape:pageopacity="0"
     inkscape:pageshadow="2"
     inkscape:window-width="1366"
     inkscape:window-height="713"
     id="namedview9"
     showgrid="false"
     inkscape:zoom="12.35903676350912"
     inkscape:cx="18.80601378467611"
     inkscape:cy="21.1009489074766"
     inkscape:window-x="0"
     inkscape:window-y="30"
     inkscape:window-maximized="1"
     inkscape:current-layer="svg2"
     inkscape:snap-bbox="true"
     inkscape:bbox-nodes="true" />
  <path
     id="path7"
     style="fill:#4caf50;fill-opacity:1"
     d="m 12.1640625,8.197239195328556 c -0.1707380625,5.625e-6 -0.361048125,0.005390625 -0.568359375,0.017578125 -0.1951275,7.125e-6 -0.3688125,0.04354725 -0.52734375,0.12890625 -0.0609808125,5.625e-6 -0.180835875,0.005390625 -0.3515625,0.017578125 -0.158541375,5.625e-6 -0.261770625,0.005390625 -0.310546875,0.017578125 -0.109760625,0.0122025 -0.223756875,0.0283528125 -0.345703125,0.052734375 -0.10974375,0.0121875 -0.212981249999999,0.061125 -0.310537499999999,0.146474999999999 l -0.38671875,0.38671875 c -0.036589125,0.0609819375 -0.068887125,0.126054187499999 -0.10546875,0.19921875 -0.024394125,0.0731769375 -0.0410191875,0.154874625 -0.041015625,0.240234375 -3.562500002e-6,0.195127500000002 0.0763111875,0.363429374999999 0.22265625,0.509765625 0.158532937499999,0.134151562500005 0.332218124999999,0.199224375000005 0.52734375,0.199218750000005 0.0731664375,5.625e-6 0.154864125,-0.0053775 0.240234374999998,-0.017578125 0.085361625,-0.012189375 0.167059125,-0.028339875 0.240234375,-0.052734375 l 1.259765625,0 c 0.1097503125,5.0625e-6 0.212979375,0.0327796875 0.310546875,0.09375 0.0975545625,0.060980625 0.1464778125,0.142201875 0.146484375,0.251953125 -6.5625e-6,0.097566 -0.0381635625,0.173880375 -0.111328125,0.22265625 -0.0609819375,0.036589875 -0.1368200625,0.0635056875 -0.234375,0.087890625 -0.0975669375,0.012200625 -0.195414375,0.028824375 -0.29296875,0.041015625 -0.09756675,4.5e-6 -0.1738815,0.010771875 -0.22265625,0.03515625 -0.024395625,0.01219875 -0.078702,0.033731625 -0.1640625,0.0703125 -0.073176,0.0243945 -0.1220994375,0.0464025 -0.146484375,0.05859375 -0.1707365625,0.0609800625 -0.3444225,0.0932775 -0.52734375,0.10546875 -0.182931375,4.3125e-6 -0.362475,0.0489275625 -0.533203124999998,0.146484375 -0.243907499999999,0.14634543749999 -0.471898124999999,0.33127312499999 -0.69140625,0.55078125 -0.207320625000003,0.207320625 -0.381481874999999,0.4357875 -0.515625,0.6796875 -0.0243931875,0.024393375 -0.0513080625,0.062074125 -0.087890625,0.123046875 -0.0243939375,0.060978375 -0.041018625,0.099133125 -0.041015625,0.111328125 l 0,0.9140625 c -3e-6,1.87499999e-6 0.0273886875,0.081699375 0.076171875,0.240234375 0.0487775625,0.14634262499999 0.086933625,0.260338125 0.111328125,0.345703125 0.0731679375,0.24390375 0.208694999999997,0.455745 0.416015625,0.638671875 0.219508125000001,0.17073225 0.425968124999999,0.322884375 0.62109375,0.45703125 -3.937500001e-6,0.012193125 0.01662,0.028820625 0.041015625,0.041015625 0.0365810625,0.012193125 0.058111875,0.017578125 0.0703125,0.017578125 0.0609714375,0.024390375 0.180826499999998,0.0679306875 0.351562499999998,0.12890625 0.182922375,0.0609755625 0.30230062499999,0.09327375 0.36328125,0.10546875 l 0.146484375,0 0.12890625,0 c 0.024385125,0.012195 0.0625425,0.00681375 0.111328125,-0.017578125 0.024385125,-0.012195 0.078691125,-0.03911025 0.1640625,-0.087890625 0.0975555,-0.048780375 0.15724593749999,-0.081556875 0.181640625,-0.09375 0.20731125,-0.08536575 0.41377125,-0.16706325000001 0.62109375,-0.240234375 0.21950625,-0.085365375 0.447973125,-0.12304650000001 0.6796875,-0.123046875 l 0.123046875,0 c 0.073163625,0 0.12208650000001,0.005383125 0.146484375,0.017578125 0.1707241875,0.073171125 0.35026875,0.154392375 0.533203125,0.251953125 0.18291900000001,0.08536575 0.37323,0.12890625 0.568359375,0.12890625 0.1463330625,0 0.28186125,-0.0269150625 0.416015625,-0.087890625 0.1463325,-0.060975375 0.2823375,-0.148056 0.404296875,-0.2578125 0.1219419375,-0.10975575 0.219789375,-0.22913437500001 0.29296875,-0.36328125 0.0731611875,-0.134145375 0.1113185625,-0.275533125 0.111328125,-0.421875 l 0,-0.111328125 c -0.01216875,-0.0488625 -0.0395625,-0.14131875 -0.07614375,-0.275475 -0.0366,-0.13413750000001 -0.058125,-0.22661250000001 -0.0703125,-0.27540000000001 l 0,-0.052734375 c -9.375e-6,-0.1341444375 0.00537375,-0.27014812499999 0.017578125,-0.404296875 0.0243808125,-0.13414387499999 0.045914625,-0.26428874999999 0.0703125,-0.3984375 -9.5625e-6,-0.012193125 -9.5625e-6,-0.039583875 0,-0.076171875 -9.5625e-6,-0.04877775 -9.5625e-6,-0.097701 0,-0.146484375 0.01218375,-0.06097275 0.0234279375,-0.1152793125 0.0234375,-0.1640625 -9.5625e-6,-0.0487775625 -9.5625e-6,-0.081553125 0,-0.09375 0.0243808125,-0.0853629375 0.0512956875,-0.16120106249999 0.087890625,-0.234375 0.036576,-0.0853625625 0.058584375,-0.17782612499999 0.05859375,-0.275390625 -9.375e-6,-0.13414237499999 -0.016635,-0.27014625 -0.041015625,-0.404296875 -0.012204375,-0.1341421875 -0.028353,-0.264286875 -0.052734375,-0.3984375 -0.0487899375,-0.37804499999998 -0.1138621875,-0.70435875 -0.19921875,-0.972656250000005 -0.0853753125,-0.280481249999999 -0.21061312499999,-0.519716249999989 -0.369140625,-0.71484375 -0.1585453125,-0.19511625 -0.365004375,-0.358035000000001 -0.62109375,-0.4921875 -0.2439375,-0.14636249999999 -0.54825,-0.271125 -0.91408125,-0.3808875 -0.35368125,-0.09755625 -0.69613125,-0.146474999999997 -1.0254,-0.146474999999997 z m -0.509765625,4.259775000000003 0.673828125,0 c 0.0487738125,3e-6 0.0923145,0.03277725 0.12890625,0.09375 0.048774,0.048783375 0.0815475,0.0923235 0.09375,0.12890625 l 0,0.181640625 c -6.75e-6,0.036587625 -6.75e-6,0.08551125 0,0.146484375 -6.75e-6,0.060978 -0.01663125,0.1099014375 -0.041015625,0.146484375 -0.02439675,0.0243924375 -0.0733201875,0.0679329375 -0.146484375,0.12890625 -0.0609823125,0.0609778125 -0.098662125,0.09865875 -0.123046875,0.123046875 -6.5625e-6,0.024390375 -0.0220149375,0.0410176875 -0.05859375,0.041015625 l -0.19921875,0 c -0.1707376875,2.0625e-6 -0.31750875000001,-0.0381553125 -0.439453125,-0.111328125 -0.121957125,-0.0853636875 -0.18164625,-0.22675125 -0.181640625,-0.421875 -5.625e-6,-0.073168125 0.0215265,-0.165631875 0.0703125,-0.275390625 0.04877475,-0.1219485 0.1250896875,-0.181637625 0.22265625,-0.181640625 z M 12.2626953125,3.003870445328557 A 9,9 0 0 0 3,11.99996419532856 a 9,9 0 0 0 18,0 9,9 0 0 0 -8.7373046875,-8.99609375 z M 12.197265625,5.252893882828559 A 6.75,6.75 0 0 1 18.75,11.99996419532856 a 6.75,6.75 0 0 1 -13.5,0 6.75,6.75 0 0 1 6.947265625,-6.747070312500002 z"
     inkscape:connector-curvature="0" />
</svg>
