<svg fill="#CDDC39" viewBox="0 0 48 48" xmlns="http://www.w3.org/2000/svg"><path d="m19.28 15.28c.45-1 .72-2.11.72-3.28 0-4.42-3.58-8-8-8s-8 3.58-8 8 3.58 8 8 8c1.17 0 2.28-.27 3.28-.72l4.72 4.72-4.72 4.72c-1-.45-2.11-.72-3.28-.72-4.42 0-8 3.58-8 8s3.58 8 8 8 8-3.58 8-8c0-1.17-.27-2.28-.72-3.28l4.72-4.72 14 14h6v-2zm-7.28.72c-2.21 0-4-1.79-4-4s1.79-4 4-4 4 1.79 4 4-1.79 4-4 4zm0 24c-2.21 0-4-1.79-4-4s1.79-4 4-4 4 1.79 4 4-1.79 4-4 4zm12-15c-.55 0-1-.45-1-1s.45-1 1-1 1 .45 1 1-.45 1-1 1zm14-19-12 12 4 4 14-14v-2z" fill="#CDDC39"/></svg>