<svg fill="#CDDC39" height="48" viewBox="0 0 48 48" width="48" xmlns="http://www.w3.org/2000/svg"><path d="m35.46 24.04 7.96-7.96c.78-.78.78-2.05 0-2.83l-8.67-8.67c-.78-.78-2.05-.78-2.83 0l-7.96 7.96-7.96-7.95c-.39-.39-.9-.59-1.41-.59s-1.02.2-1.41.59l-8.68 8.67c-.78.78-.78 2.05 0 2.83l7.96 7.96-7.96 7.95c-.78.78-.78 2.05 0 2.83l8.67 8.67c.78.78 2.05.78 2.83 0l7.96-7.96 7.96 7.96c.39.39.9.59 1.41.59s1.02-.2 1.41-.59l8.67-8.67c.78-.78.78-2.05 0-2.83zm-11.46-6.04c1.1 0 2 .9 2 2s-.9 2-2 2-2-.9-2-2 .9-2 2-2zm-9.42 3.92-7.25-7.25 7.26-7.26 7.25 7.25zm5.42 4.08c-1.1 0-2-.9-2-2s.9-2 2-2 2 .9 2 2-.9 2-2 2zm4 4c-1.1 0-2-.9-2-2s.9-2 2-2 2 .9 2 2-.9 2-2 2zm4-8c1.1 0 2 .9 2 2s-.9 2-2 2-2-.9-2-2 .9-2 2-2zm5.33 18.67-7.25-7.25 7.26-7.26 7.25 7.25z" fill="#CDDC39"/></svg>