<svg fill="#CDDC39" viewBox="0 0 48 48" xmlns="http://www.w3.org/2000/svg"><g fill="#CDDC39"><path d="m10.302 10-2.828 2.828 29.698 29.698 2.828-2.828z"/><path d="m24 8c-3.166 0-5.894 1.841-7.191 4.508l10.682 10.682c2.668-1.299 4.51-4.03 4.51-7.189 0-4.42-3.58-8-8-8m-7.854 9.502c.612 3.209 3.14 5.743 6.354 6.354zm7.854 10.498c-5.33 0-16 2.67-16 8v4h30.645l-11.795-11.795c-1.037-.131-2.01-.205-2.85-.205m10.539 2.238 5.441 5.441c-.193-2.359-2.501-4.169-5.441-5.441m5.461 9.461-.301.301h.301z"/></g></svg>