<?xml version="1.0" encoding="UTF-8" standalone="no"?>
<svg
   xmlns:dc="http://purl.org/dc/elements/1.1/"
   xmlns:cc="http://creativecommons.org/ns#"
   xmlns:rdf="http://www.w3.org/1999/02/22-rdf-syntax-ns#"
   xmlns:svg="http://www.w3.org/2000/svg"
   xmlns="http://www.w3.org/2000/svg"
   xmlns:sodipodi="http://sodipodi.sourceforge.net/DTD/sodipodi-0.dtd"
   xmlns:inkscape="http://www.inkscape.org/namespaces/inkscape"
   fill="#CDDC39"
   width="48"
   height="48"
   viewBox="0 0 48 48"
   id="svg2"
   version="1.1"
   inkscape:version="0.91 r13725"
   sodipodi:docname="zoom-original.svg">
  <metadata
     id="metadata10">
    <rdf:RDF>
      <cc:Work
         rdf:about="">
        <dc:format>image/svg+xml</dc:format>
        <dc:type
           rdf:resource="http://purl.org/dc/dcmitype/StillImage" />
        <dc:title></dc:title>
      </cc:Work>
    </rdf:RDF>
  </metadata>
  <defs
     id="defs8" />
  <sodipodi:namedview
     pagecolor="#ffffff"
     bordercolor="#666666"
     borderopacity="1"
     objecttolerance="10"
     gridtolerance="10"
     guidetolerance="10"
     inkscape:pageopacity="0"
     inkscape:pageshadow="2"
     inkscape:window-width="1366"
     inkscape:window-height="713"
     id="namedview6"
     showgrid="false"
     inkscape:zoom="4.732452091598368"
     inkscape:cx="-11.80421182352778"
     inkscape:cy="24.98172692428032"
     inkscape:window-x="0"
     inkscape:window-y="30"
     inkscape:window-maximized="1"
     inkscape:current-layer="svg2"
     inkscape:snap-bbox="true"
     inkscape:bbox-paths="true"
     inkscape:bbox-nodes="true"
     inkscape:object-paths="true"
     inkscape:snap-intersection-paths="true"
     inkscape:object-nodes="true"
     inkscape:snap-smooth-nodes="true"
     inkscape:snap-bbox-edge-midpoints="false"
     inkscape:snap-midpoints="true"
     inkscape:snap-nodes="true" />
  <path
     id="path4458"
     style="fill:#CDDC39;fill-opacity:1"
     d="m 2.71875,19.4765625 5.763671875,5.763671875 5.763671875,-5.763671875 -4.322265625,0 -2.880859375,0 -4.32421875,0 z M 19.509765625,6.509765625 c -7.16860304755393,0 -12.977657900996447,5.80251570212994 -12.99609375,12.966796875 l 0.529296875,0 2.880859375,0 0.591796875,0 c 0.0189385668332,-4.95384525741171 4.03585680781045,-8.966796875 8.994140625,-8.966796875 4.96999999999999,0 9,4.03000000000003 9,9 0,4.97 -4.03000000000002,9 -9,9 -1.89432183121019,0 -3.64950721081651,-0.58806393379752 -5.099609375,-1.587890625 l -2.7578125,2.796875 c 2.09158757072838,1.45486962062498 5.11145616463988,2.791015625 7.857421875,2.791015625 3.23000000000001,0 6.17921875000001,-1.18085937499997 8.44921875,-3.130859375 l 0.55078125,0.55078125 0,1.580078125 10,9.98046875 2.98046875,-2.98046875 -9.98046875,-10 -1.58984375,0 -0.55078125,-0.55078125 c 1.96000000000001,-2.26999999999995 3.14062500000001,-5.21921874999999 3.140625,-8.44921875 0,-7.17999999999999 -5.82000000000001,-13 -13,-13 z m 0,10.09375 c -1.60509416487707,0 -2.904296875,1.30115583512292 -2.904296875,2.90625 0,1.60509416487708 1.29920271012293,2.904296875 2.904296875,2.904296875 1.60509493388687,0 2.90624999999999,-1.29920271012292 2.90625,-2.904296875 0,-1.60509416487707 -1.30115506611311,-2.90625 -2.90625,-2.90625 z" />
</svg>
