<svg fill="#CDDC39" viewBox="0 0 48 48" xmlns="http://www.w3.org/2000/svg"><path d="m10 6c-2.21 0-4 1.79-4 4v28c0 2.21 1.79 4 4 4h28c2.21 0 4-1.79 4-4v-28c0-2.21-1.79-4-4-4zm14 8c5.522 0 10 4.478 10 10s-4.478 10-10 10c-2.289 0-4.395-.778-6.084-2.078l1.572-1.594c1.278.911 2.828 1.449 4.512 1.449 4.294 0 7.777-3.483 7.777-7.777s-3.483-7.777-7.777-7.777-7.777 3.483-7.777 7.777h3.332l-4.443 4.445-4.445-4.445h3.334c0-5.522 4.478-10 10-10m0 7.777c1.228 0 2.223.995 2.223 2.223s-.995 2.223-2.223 2.223-2.223-.995-2.223-2.223.995-2.223 2.223-2.223" fill="#CDDC39"/></svg>