<?xml version="1.0" encoding="UTF-8" standalone="no"?>
<svg
   xmlns:dc="http://purl.org/dc/elements/1.1/"
   xmlns:cc="http://creativecommons.org/ns#"
   xmlns:rdf="http://www.w3.org/1999/02/22-rdf-syntax-ns#"
   xmlns:svg="http://www.w3.org/2000/svg"
   xmlns="http://www.w3.org/2000/svg"
   xmlns:sodipodi="http://sodipodi.sourceforge.net/DTD/sodipodi-0.dtd"
   xmlns:inkscape="http://www.inkscape.org/namespaces/inkscape"
   fill="#673AB7"
   width="48"
   height="48"
   viewBox="0 0 48 48"
   id="svg2"
   version="1.1"
   inkscape:version="0.91 r13725"
   sodipodi:docname="ooo-draw.svg">
  <metadata
     id="metadata10">
    <rdf:RDF>
      <cc:Work
         rdf:about="">
        <dc:format>image/svg+xml</dc:format>
        <dc:type
           rdf:resource="http://purl.org/dc/dcmitype/StillImage" />
        <dc:title />
      </cc:Work>
    </rdf:RDF>
  </metadata>
  <defs
     id="defs8" />
  <sodipodi:namedview
     pagecolor="#ffffff"
     bordercolor="#666666"
     borderopacity="1"
     objecttolerance="10"
     gridtolerance="10"
     guidetolerance="10"
     inkscape:pageopacity="0"
     inkscape:pageshadow="2"
     inkscape:window-width="1366"
     inkscape:window-height="713"
     id="namedview6"
     showgrid="false"
     inkscape:zoom="8.739158736674277"
     inkscape:cx="18.44412815096331"
     inkscape:cy="-17.84601764730089"
     inkscape:window-x="0"
     inkscape:window-y="30"
     inkscape:window-maximized="1"
     inkscape:current-layer="svg2"
     inkscape:snap-bbox="true"
     inkscape:bbox-paths="true"
     inkscape:bbox-nodes="true"
     inkscape:snap-bbox-edge-midpoints="true"
     inkscape:snap-bbox-midpoints="true"
     inkscape:snap-object-midpoints="true" />
  <path
     style="fill:#feb32d;fill-opacity:1"
     d="M 12 4 C 9.789999999999999 4 8.019531349999999 5.790000000000001 8.01953125 8 L 8 40 C 8 42.21 9.77046795 44 11.98046875 44 L 36 44 C 38.21 44 40 42.21 40 40 L 40 16 L 28 4 L 12 4 z M 26 7 L 37 18 L 26 18 L 26 7 z M 30.662109375 22.001953125 C 30.918359375 22.001953125 31.174140625 22.099921875 31.369140625 22.294921875 L 32.705078125 23.630859375 C 33.10007812499999 24.020859375 33.100078125 24.649921875 32.705078125 25.044921875 L 23.75 34 L 21 31.25 L 29.955078125 22.294921875 C 30.150078125 22.099921875 30.405859375 22.001953125 30.662109375 22.001953125 z M 19 33 C 20.655 33 22 34.345 22 36 C 22 38.21 20.21 40 18 40 C 16.495 40 14.92 39.22 14 38 C 14.845 38 16 37.31 16 36 C 16 34.345 17.345 33 19 33 z "
     id="path4152" />
</svg>
