<?xml version="1.0" encoding="UTF-8" standalone="no"?>
<svg
   xmlns:dc="http://purl.org/dc/elements/1.1/"
   xmlns:cc="http://creativecommons.org/ns#"
   xmlns:rdf="http://www.w3.org/1999/02/22-rdf-syntax-ns#"
   xmlns:svg="http://www.w3.org/2000/svg"
   xmlns="http://www.w3.org/2000/svg"
   xmlns:sodipodi="http://sodipodi.sourceforge.net/DTD/sodipodi-0.dtd"
   xmlns:inkscape="http://www.inkscape.org/namespaces/inkscape"
   fill="#00BCD4"
   width="48"
   height="48"
   viewBox="0 0 48 48"
   id="svg2"
   version="1.1"
   inkscape:version="0.91 r13725"
   sodipodi:docname="zoom-best-fit.svg">
  <metadata
     id="metadata10">
    <rdf:RDF>
      <cc:Work
         rdf:about="">
        <dc:format>image/svg+xml</dc:format>
        <dc:type
           rdf:resource="http://purl.org/dc/dcmitype/StillImage" />
      </cc:Work>
    </rdf:RDF>
  </metadata>
  <defs
     id="defs8" />
  <sodipodi:namedview
     pagecolor="#ffffff"
     bordercolor="#666666"
     borderopacity="1"
     objecttolerance="10"
     gridtolerance="10"
     guidetolerance="10"
     inkscape:pageopacity="0"
     inkscape:pageshadow="2"
     inkscape:window-width="1366"
     inkscape:window-height="713"
     id="namedview6"
     showgrid="false"
     inkscape:snap-bbox="false"
     inkscape:bbox-nodes="true"
     inkscape:object-nodes="true"
     inkscape:object-paths="true"
     inkscape:snap-intersection-paths="true"
     inkscape:snap-smooth-nodes="false"
     inkscape:zoom="10.73600260416667"
     inkscape:cx="24"
     inkscape:cy="23.99999999999999"
     inkscape:window-x="0"
     inkscape:window-y="30"
     inkscape:window-maximized="1"
     inkscape:current-layer="svg2" />
  <path
     id="path4140"
     style="fill:#00BCD4;fill-opacity:1"
     d="M 14.71428571428571,20.71428571428571 13,20.71428571428571 13,25 l 4.28571428571428,0 0,-1.71428571428571 -2.57142857142857,0 0,-2.57142857142858 z M 13,17.28571428571429 l 1.71428571428571,0 0,-2.57142857142857 2.57142857142857,0 0,-1.71428571428571 -4.28571428571428,0 0,4.28571428571428 z m 10.28571428571428,6 -2.57142857142857,0 0,1.71428571428571 L 25,25 l 0,-4.28571428571429 -1.71428571428572,0 0,2.57142857142858 z m -2.57142857142857,-10.28571428571428 0,1.71428571428571 2.57142857142857,0 0,2.57142857142857 1.71428571428572,0 0,-4.28571428571428 -4.28571428571429,0 z M 31,28 29.41,28 28.86,27.45 C 30.82,25.18 32,22.23 32,19 32,11.82 26.18,6 19,6 11.82,6 6,11.82 6,19 6,26.18 11.82,32 19,32 c 3.23,0 6.18,-1.18 8.45,-3.13 L 28,29.42 28,31 38,40.98000000000001 40.98,38 31,28 Z m -12,0 c -4.97,0 -9,-4.03 -9,-9 0,-4.97 4.03,-9 9,-9 4.97,0 9,4.03 9,9 0,4.97 -4.03,9 -9,9 z" />
</svg>
