<?xml version="1.0" encoding="UTF-8" standalone="no"?>
<!-- Created with Inkscape (http://www.inkscape.org/) -->

<svg
   xmlns:dc="http://purl.org/dc/elements/1.1/"
   xmlns:cc="http://creativecommons.org/ns#"
   xmlns:rdf="http://www.w3.org/1999/02/22-rdf-syntax-ns#"
   xmlns:svg="http://www.w3.org/2000/svg"
   xmlns="http://www.w3.org/2000/svg"
   xmlns:sodipodi="http://sodipodi.sourceforge.net/DTD/sodipodi-0.dtd"
   xmlns:inkscape="http://www.inkscape.org/namespaces/inkscape"
   version="1.0"
   width="48"
   height="48"
   id="svg2408"
   inkscape:version="0.91 r13725"
   sodipodi:docname="emblem-java.svg">
  <sodipodi:namedview
     pagecolor="#ffffff"
     bordercolor="#666666"
     borderopacity="1"
     objecttolerance="10"
     gridtolerance="10"
     guidetolerance="10"
     inkscape:pageopacity="0"
     inkscape:pageshadow="2"
     inkscape:window-width="1366"
     inkscape:window-height="713"
     id="namedview56"
     showgrid="false"
     inkscape:zoom="3.8976039484375"
     inkscape:cx="7.617843446555369"
     inkscape:cy="25.19416938339227"
     inkscape:window-x="0"
     inkscape:window-y="30"
     inkscape:window-maximized="1"
     inkscape:current-layer="svg2408"
     inkscape:snap-page="true"
     inkscape:snap-bbox="true"
     inkscape:bbox-nodes="true" />
  <defs
     id="defs2410">
    <linearGradient
       x1="45.44772720336914"
       y1="92.53959655761719"
       x2="45.44772720336914"
       y2="7.016539573669434"
       id="ButtonShadow"
       gradientUnits="userSpaceOnUse"
       gradientTransform="scale(1.0058652,0.9941689999999997)">
      <stop
         id="stop3750"
         style="stop-color:#000000;stop-opacity:1"
         offset="0" />
      <stop
         id="stop3752"
         style="stop-color:#000000;stop-opacity:0.58823532"
         offset="1" />
    </linearGradient>
    <filter
       id="filter3174"
       style="color-interpolation-filters:sRGB">
      <feGaussianBlur
         id="feGaussianBlur3176"
         stdDeviation="1.71" />
    </filter>
  </defs>
  <metadata
     id="metadata2413">
    <rdf:RDF>
      <cc:Work
         rdf:about="">
        <dc:format>image/svg+xml</dc:format>
        <dc:type
           rdf:resource="http://purl.org/dc/dcmitype/StillImage" />
        <dc:title></dc:title>
      </cc:Work>
    </rdf:RDF>
  </metadata>
  <g
     id="layer2"
     style="display:none"
     transform="translate(0,-48)">
    <rect
       width="86"
       height="85"
       rx="6"
       ry="6"
       x="5"
       y="7"
       id="rect3745"
       style="opacity:0.9;fill:url(#ButtonShadow);fill-opacity:1;fill-rule:nonzero;stroke:none;filter:url(#filter3174)" />
  </g>
  <g
     id="layer3"
     transform="matrix(0.5454545400628028,0,0,0.5454545400628028,-1.906322252587299,-1.090908793737938)">
    <g
       transform="matrix(1.1301798,0,0,1.1301798,137.30438,-15.095426)"
       id="g3678">
      <path
         d="m -86.682454,70.020561 c 0,0 -2.230343,1.29815899999998 1.58907900000001,1.73621900000001 4.627848,0.528358 6.99266999999999,0.45226899999999 12.09100199999999,-0.511436 0,0 1.34311500000001,0.84020599999998 3.215621,1.567893 -11.43281599999999,4.898228 -25.874818,-0.283815 -16.895702,-2.792676 l 0,0 z"
         inkscape:connector-curvature="0"
         id="path3616"
         style="fill:#0074bd;fill-rule:evenodd" />
      <path
         d="m -88.080213,63.627558 c 0,0 -2.501885,1.85235399999998 1.32037800000001,2.247395 4.94395900000002,0.510402 8.846833,0.552257 15.60426099999999,-0.748227 0,0 0.93244199999999,0.94716899999999 2.400864,1.464804 -13.82076099999999,4.04265 -29.214325,0.31804899999999 -19.325503,-2.963972 l 0,0 z"
         inkscape:connector-curvature="0"
         id="path3618"
         style="fill:#0074bd;fill-rule:evenodd" />
      <path
         d="m -76.30351199999998,52.781491 c 2.818512,3.244428 -0.73905600000002,6.161637 -0.73905600000002,6.161637 0,0 7.15247000000001,-3.69166 3.868382,-8.316795 -3.068352,-4.311221 -5.420773,-6.452815 7.31472400000001,-13.83858899999999 C -65.859333,36.78774400000001 -85.851033,41.77950000000002 -76.30351200000001,52.781491 l 0,0 z"
         inkscape:connector-curvature="0"
         id="path3620"
         style="fill:#ea2d2e;fill-rule:evenodd" />
      <path
         d="m -61.182912,74.749947 c 0,0 1.651086,1.361071 -1.81850800000001,2.41365399999998 -6.5975,1.99833000000001 -27.46480099999999,2.60109700000001 -33.26072099999998,0.07996 C -98.344182,76.336697 -94.437949,75.07974699999998 -93.208903,74.814276 c 1.281494,-0.27722600000001 2.013186,-0.22658600000001 2.013186,-0.22658600000001 C -93.512871,72.95598000000001 -106.17254,77.79233 -97.62540799999999,79.17936700000001 c 23.308341,3.77808299999998 42.48760999999998,-1.70172700000002 36.44249599999999,-4.429424 l 0,0 z"
         inkscape:connector-curvature="0"
         id="path3622"
         style="fill:#0074bd;fill-rule:evenodd" />
      <path
         d="m -85.60907299999999,57.002801 c 0,0 -10.613022,2.521521 -3.758189,3.437944 2.89524700000001,0.38742 8.66339300000001,0.298283 14.040243,-0.152823 4.392994,-0.36868799999999 8.801619,-1.157221 8.801619,-1.157221 0,0 -1.54787,0.66400000000001 -2.668531,1.42876300000001 C -79.97346899999999,63.394641 -100.79362,62.074263 -94.79888699999999,59.17565700000002 c 5.067458,-2.451504 9.189814,-2.17285600000001 9.189814,-2.17285600000001 l 0,0 z"
         inkscape:connector-curvature="0"
         id="path3624"
         style="fill:#0074bd;fill-rule:evenodd" />
      <path
         d="m -66.56932199999998,67.644371 c 10.95703499999998,-5.692186 5.89035199999999,-11.16295299999999 2.3541,-10.42609299999999 -0.86475100000001,0.18046799999999 -1.25268700000001,0.336779 -1.25268700000001,0.336779 0,0 0.322182,-0.504717 0.935672,-0.721874 C -57.53633700000001,54.374833 -52.157291,64.086286 -66.78828699999999,67.932449 c -1.3e-4,0 0.16819599999999,-0.15243599999999 0.21896500000001,-0.288078 l 0,0 z"
         inkscape:connector-curvature="0"
         id="path3626"
         style="fill:#0074bd;fill-rule:evenodd" />
      <path
         d="m -73.174057,24.859253 c 0,0 6.066817,6.070304 -5.75600199999998,15.40209 C -88.41118,47.749946 -81.091806,52.018149 -78.93345899999998,56.897258 -84.46829999999998,51.90395099999999 -88.528002,47.507728 -85.804956,43.416764 c 3.998728,-6.004292 15.07809900000001,-8.91633300000001 12.630858,-18.55751100000001 l 0,0 z"
         inkscape:connector-curvature="0"
         id="path3628"
         style="fill:#ea2d2e;fill-rule:evenodd" />
      <path
         d="m -84.531817,83.07384799999998 c 10.51510000000002,0.67226700000002 26.66670899999998,-0.37411399999999 27.04896099999999,-5.35011 0,0 -0.734792,1.88632800000002 -8.69090799999999,3.38304100000002 -8.975758,1.689842 -20.04879899999999,1.49309599999998 -26.61374499999999,0.40912299999999 0,0 1.34492299999999,1.113169 8.255692,1.55794599999999 l 0,0 z"
         inkscape:connector-curvature="0"
         id="path3630"
         style="fill:#0074bd;fill-rule:evenodd" />
    </g>
  </g>
</svg>
