<svg xmlns="http://www.w3.org/2000/svg" fill="#FF9800" viewBox="0 0 48 48"><path d="m12 6c-.93 0-1.761.43-2.311 1.09l-2.77 3.359c-.58.7-.92 1.581-.92 2.551v25c0 2.21 1.79 4 4 4h28c2.21 0 4-1.79 4-4v-25c0-.97-.34-1.851-.91-2.551l-2.77-3.359c-.56-.66-1.39-1.09-2.32-1.09h-24m-.119 2h24l1.869 2h-27.5l1.631-2"/><g font-family="Roboto" fill="#fff" text-anchor="middle" text-align="center" word-spacing="0" line-height="120.0000047684%" font-weight="500" letter-spacing="0" font-size="12.5"><text x="23.976" y="35.33"><tspan x="23.976" y="35.33">gz</tspan></text><text y="25.872" x="23.966"><tspan y="25.872" x="23.966">tar.</tspan></text></g></svg>