<svg xmlns="http://www.w3.org/2000/svg" fill="#FF9800" viewBox="0 0 48 48"><path d="m35.27 20.861l3.171-4.585c.318-.45.963-1.376 2.722-1.4v-.518c-.491.041-1.305.041-1.819.041-.706 0-1.586 0-2.12-.041v.518c.686.064.855.493.855.839 0 .256-.105.429-.257.642l-2.829 4.104-3.171-4.642c-.149-.234-.17-.301-.17-.365 0-.193.234-.558.943-.578v-.518c-.686.041-1.735.041-2.441.041-.555 0-1.626 0-2.144-.041v.518c1.177 0 1.562.044 2.036.71l4.135 6.073-3.729 5.447c-.92 1.332-2.313 1.355-2.722 1.355v.518c.49-.041 1.305-.041 1.819-.041.578 0 1.586 0 2.12.041v-.518c-.663-.064-.855-.493-.855-.839 0-.277.105-.429.213-.582l3.428-5 3.729 5.481c.169.237.169.301.169.365 0 .169-.192.537-.943.582v.518c.686-.041 1.735-.041 2.441-.041.555 0 1.626 0 2.147.041v-.518c-1.373 0-1.589-.105-2.01-.71m-10.491.47h-.385c-.47 3.178-.747 4.906-4.517 4.906h-2.975c-.856 0-.897-.108-.897-.846v-5.991h2.02c2.02 0 2.215.741 2.215 2.55h.344v-5.576h-.344c0 1.779-.193 2.506-2.215 2.506h-2.02v-5.312c0-.724.041-.832.897-.832h2.931c3.317 0 3.703 1.318 4 4.152h.386l-.514-4.74h-10.853v.589c1.518 0 1.761 0 1.761.963v11.567c0 .963-.24.963-1.761.963v.517h11.154m-9.985-19.252h-12.377l-.362 4.74h.385c.277-3.55.582-4.172 3.905-4.172.385 0 1.01 0 1.183 0 .409.064.409.325.409.818v11.667c0 .775-.065 1.01-1.87 1.01h-.608v.518c1.028-.02 2.1-.041 3.151-.041 1.048 0 2.123.021 3.151.041v-.518h-.598c-1.779 0-1.843-.236-1.843-1.01v-11.667c0-.473 0-.73.386-.818.169 0 .791 0 1.176 0 3.279 0 3.601.618 3.878 4.172h.386" fill="#333"/></svg>