<svg xmlns="http://www.w3.org/2000/svg" fill="#FF9800" viewBox="0 0 48 48"><path d="m28 2c-2.21 0-4 1.79-4 4v36c0 2.21 1.79 4 4 4h16c2.21 0 4-1.79 4-4v-36c0-2.21-1.79-4-4-4h-16m0 4h16v36h-16v-4h8v-4h-8v-4h8v-4h-8v-4h8v-4h-8v-4h8v-4h-8v-4zm-24-2c-2.21 0-3.98 1.79-3.98 4l-.02 32c0 2.21 1.77 4 3.98 4h18.574c-.343-.59-.555-1.267-.555-2v-14.25l-6.25 6.25-2.75-2.75 8.955-8.955c.013-.013.031-.017.045-.029v-4.266h-4v-11l4 4v-5l-2-2h-16m7 29c1.655 0 3 1.345 3 3 0 2.21-1.79 4-4 4-1.505 0-3.08-.78-4-2 .845 0 2-.69 2-2 0-1.655 1.345-3 3-3z" fill="#008272"/></svg>