<?xml version="1.0" encoding="UTF-8" standalone="no"?>
<svg
   xmlns:dc="http://purl.org/dc/elements/1.1/"
   xmlns:cc="http://creativecommons.org/ns#"
   xmlns:rdf="http://www.w3.org/1999/02/22-rdf-syntax-ns#"
   xmlns:svg="http://www.w3.org/2000/svg"
   xmlns="http://www.w3.org/2000/svg"
   xmlns:sodipodi="http://sodipodi.sourceforge.net/DTD/sodipodi-0.dtd"
   xmlns:inkscape="http://www.inkscape.org/namespaces/inkscape"
   fill="#673AB7"
   width="48"
   height="48"
   viewBox="0 0 48 48"
   id="svg2"
   version="1.1"
   inkscape:version="0.91 r13725"
   sodipodi:docname="emblem-cool1.svg">
  <metadata
     id="metadata10">
    <rdf:RDF>
      <cc:Work
         rdf:about="">
        <dc:format>image/svg+xml</dc:format>
        <dc:type
           rdf:resource="http://purl.org/dc/dcmitype/StillImage" />
      </cc:Work>
    </rdf:RDF>
  </metadata>
  <defs
     id="defs8" />
  <sodipodi:namedview
     pagecolor="#ffffff"
     bordercolor="#666666"
     borderopacity="1"
     objecttolerance="10"
     gridtolerance="10"
     guidetolerance="10"
     inkscape:pageopacity="0"
     inkscape:pageshadow="2"
     inkscape:window-width="1366"
     inkscape:window-height="713"
     id="namedview6"
     showgrid="false"
     inkscape:snap-bbox="true"
     inkscape:bbox-nodes="true"
     inkscape:zoom="3.897603885191478"
     inkscape:cx="-4.568296099168904"
     inkscape:cy="-3.150907753633049"
     inkscape:window-x="0"
     inkscape:window-y="30"
     inkscape:window-maximized="1"
     inkscape:current-layer="svg2" />
  <path
     id="path4189"
     d="M 23.990234375,4 C 12.940234375,4 4.000000000000003,12.95 4,24 4,35.05 12.940234375,44 23.990234375,44 35.040234375,44 44,35.05 44,24 44,12.95 35.04023437499999,4 23.990234375,4 Z M 24,8 C 32.84000000000001,8 40,15.16 40,24 40,32.84000000000001 32.84000000000001,40 24,40 15.16,40 8.000000000000005,32.84000000000001 8,24 8,15.16 15.16,8.000000000000005 24,8 Z m -2.00002861022949,7.999998092651371 4,0 0,2 -4,0 z m -7.4589881918742,6.514226e-8 a 4,4 0 0 0 -0.05078125,0.08203125 4,4 0 0 0 -0.173828125,0.361328125 4,4 0 0 0 -0.13671875,0.375 4,4 0 0 0 -0.099609375,0.38671875 4,4 0 0 0 -0.05859375,0.396484375 4,4 0 0 0 -0.021484375,0.3984375 4,4 0 0 0 0.009765625,0.283203125 4,4 0 0 0 0.048828125,0.396484375 4,4 0 0 0 0.087890625,0.390625 4,4 0 0 0 0.126953125,0.37890625 4,4 0 0 0 0.162109375,0.365234375 4,4 0 0 0 0.19921875,0.34765625 4,4 0 0 0 0.232421875,0.32421875 4,4 0 0 0 0.263671875,0.30078125 4,4 0 0 0 0.29296875,0.2734375 4,4 0 0 0 0.318359375,0.2421875 4,4 0 0 0 0.33984375,0.208984375 4,4 0 0 0 0.361328125,0.173828125 4,4 0 0 0 0.375,0.13671875 4,4 0 0 0 0.38671875,0.09765625 4,4 0 0 0 0.396484375,0.060546875 4,4 0 0 0 0.3984375,0.01953125 4,4 0 0 0 0.283203125,-0.009765625 4,4 0 0 0 0.396484375,-0.046875 4,4 0 0 0 0.390625,-0.087890625 4,4 0 0 0 0.37890625,-0.126953125 4,4 0 0 0 0.365234375,-0.162109375 4,4 0 0 0 0.34765625,-0.19921875 4,4 0 0 0 0.32421875,-0.232421875 4,4 0 0 0 0.30078125,-0.265625 4,4 0 0 0 0.2734375,-0.291015625 4,4 0 0 0 0.2421875,-0.318359375 4,4 0 0 0 0.208984375,-0.341796875 4,4 0 0 0 0.173828125,-0.359375 4,4 0 0 0 0.13671875,-0.375 4,4 0 0 0 0.099609375,-0.388671875 4,4 0 0 0 0.05859375,-0.39453125 4,4 0 0 0 0.01953125,-0.400390625 4,4 0 0 0 -0.009765625,-0.283203125 4,4 0 0 0 -0.046875,-0.396484375 4,4 0 0 0 -0.087890625,-0.390625 4,4 0 0 0 -0.126953125,-0.37890625 4,4 0 0 0 -0.162109375,-0.365234375 4,4 0 0 0 -0.107421875,-0.185546875 l -6.91796875,0 z m 0,0 -0.541015625,0 0,2 a 4,4 0 0 1 0.021484375,-0.3984375 4,4 0 0 1 0.05859375,-0.396484375 4,4 0 0 1 0.099609375,-0.38671875 4,4 0 0 1 0.13671875,-0.375 4,4 0 0 1 0.173828125,-0.361328125 4,4 0 0 1 0.05078125,-0.08203125 z m 7.458984375,2 0,-2 -0.541015625,0 a 4,4 0 0 1 0.107421875,0.185546875 4,4 0 0 1 0.162109375,0.365234375 4,4 0 0 1 0.126953125,0.37890625 4,4 0 0 1 0.087890625,0.390625 4,4 0 0 1 0.046875,0.396484375 4,4 0 0 1 0.009765625,0.283203125 z m 4.54107847120894,-2 a 4,4 0 0 0 -0.05078125,0.08203125 4,4 0 0 0 -0.173828125,0.361328125 4,4 0 0 0 -0.13671875,0.375 4,4 0 0 0 -0.099609375,0.38671875 4,4 0 0 0 -0.05859375,0.396484375 4,4 0 0 0 -0.021484375,0.3984375 4,4 0 0 0 0.009765625,0.283203125 4,4 0 0 0 0.048828125,0.396484375 4,4 0 0 0 0.087890625,0.390625 4,4 0 0 0 0.126953125,0.37890625 4,4 0 0 0 0.162109375,0.365234375 4,4 0 0 0 0.19921875,0.34765625 4,4 0 0 0 0.232421875,0.32421875 4,4 0 0 0 0.26367187500001,0.30078125 4,4 0 0 0 0.29296875,0.2734375 4,4 0 0 0 0.318359375,0.2421875 4,4 0 0 0 0.33984375,0.208984375 4,4 0 0 0 0.361328125,0.173828125 4,4 0 0 0 0.375,0.13671875 4,4 0 0 0 0.38671874999999,0.09765625 4,4 0 0 0 0.396484375,0.060546875 4,4 0 0 0 0.39843750000001,0.01953125 4,4 0 0 0 0.283203125,-0.009765625 4,4 0 0 0 0.396484375,-0.046875 4,4 0 0 0 0.390625,-0.087890625 4,4 0 0 0 0.37890625,-0.126953125 4,4 0 0 0 0.365234375,-0.162109375 4,4 0 0 0 0.34765625000001,-0.19921875 4,4 0 0 0 0.32421875,-0.232421875 4,4 0 0 0 0.30078125,-0.265625 4,4 0 0 0 0.2734375,-0.291015625 4,4 0 0 0 0.2421875,-0.318359375 4,4 0 0 0 0.208984375,-0.341796875 4,4 0 0 0 0.173828125,-0.359375 4,4 0 0 0 0.13671875,-0.375 4,4 0 0 0 0.099609375,-0.388671875 4,4 0 0 0 0.05859375,-0.39453125 4,4 0 0 0 0.01953125,-0.400390625 4,4 0 0 0 -0.009765625,-0.283203125 4,4 0 0 0 -0.046875,-0.396484375 4,4 0 0 0 -0.087890625,-0.390625 4,4 0 0 0 -0.126953125,-0.37890625 4,4 0 0 0 -0.162109375,-0.365234375 4,4 0 0 0 -0.107421875,-0.185546875 l -6.91796875000002,0 z m 0,0 -0.541015625,0 0,2 a 4,4 0 0 1 0.021484375,-0.3984375 4,4 0 0 1 0.05859375,-0.396484375 4,4 0 0 1 0.099609375,-0.38671875 4,4 0 0 1 0.13671875,-0.375 4,4 0 0 1 0.173828125,-0.361328125 4,4 0 0 1 0.05078125,-0.08203125 z m 7.45898437500002,2 0,-2 -0.541015625,0 a 4,4 0 0 1 0.107421875,0.185546875 4,4 0 0 1 0.162109375,0.365234375 4,4 0 0 1 0.126953125,0.37890625 4,4 0 0 1 0.087890625,0.390625 4,4 0 0 1 0.046875,0.396484375 4,4 0 0 1 0.009765625,0.283203125 z M 14.00003433227539,28 l 20,0 0,4 -20,0 z" />
</svg>
