<?xml version="1.0" encoding="UTF-8" standalone="no"?>
<!-- Generator: Adobe Illustrator 15.0.0, SVG Export Plug-In . SVG Version: 6.00 Build 0)  -->

<svg
   xmlns:dc="http://purl.org/dc/elements/1.1/"
   xmlns:cc="http://creativecommons.org/ns#"
   xmlns:rdf="http://www.w3.org/1999/02/22-rdf-syntax-ns#"
   xmlns:svg="http://www.w3.org/2000/svg"
   xmlns="http://www.w3.org/2000/svg"
   xmlns:sodipodi="http://sodipodi.sourceforge.net/DTD/sodipodi-0.dtd"
   xmlns:inkscape="http://www.inkscape.org/namespaces/inkscape"
   version="1.1"
   id="レイヤー_1"
   x="0px"
   y="0px"
   width="48"
   height="48"
   viewBox="0 0 47.999999 48.000001"
   enable-background="new 0 0 401.98 559.472"
   xml:space="preserve"
   inkscape:version="0.91 r13725"
   sodipodi:docname="emblem-gopher-head-colored.svg"><metadata
     id="metadata61"><rdf:RDF><cc:Work
         rdf:about=""><dc:format>image/svg+xml</dc:format><dc:type
           rdf:resource="http://purl.org/dc/dcmitype/StillImage" /><dc:title></dc:title></cc:Work></rdf:RDF></metadata><defs
     id="defs59"><clipPath
       clipPathUnits="userSpaceOnUse"
       id="clipPath5336"><g
         id="g5338"><rect
           y="-105.49365"
           x="-35.559658"
           height="314.11032"
           width="500.20587"
           id="rect5340"
           style="opacity:1;fill:#ffffff;fill-opacity:1;fill-rule:evenodd;stroke:#ffffff;stroke-width:2;stroke-miterlimit:4;stroke-dasharray:none;stroke-opacity:1" /></g></clipPath><clipPath
       clipPathUnits="userSpaceOnUse"
       id="clipPath5342"><g
         id="g5344"><rect
           y="-105.49365"
           x="-35.559658"
           height="314.11032"
           width="500.20587"
           id="rect5346"
           style="opacity:1;fill:#ffffff;fill-opacity:1;fill-rule:evenodd;stroke:#ffffff;stroke-width:2;stroke-miterlimit:4;stroke-dasharray:none;stroke-opacity:1" /></g></clipPath><clipPath
       clipPathUnits="userSpaceOnUse"
       id="clipPath5348"><g
         id="g5350"><rect
           y="-105.49365"
           x="-35.559658"
           height="314.11032"
           width="500.20587"
           id="rect5352"
           style="opacity:1;fill:#ffffff;fill-opacity:1;fill-rule:evenodd;stroke:#ffffff;stroke-width:2;stroke-miterlimit:4;stroke-dasharray:none;stroke-opacity:1" /></g></clipPath><clipPath
       clipPathUnits="userSpaceOnUse"
       id="clipPath5354"><g
         id="g5356"><rect
           y="-105.49365"
           x="-35.559658"
           height="314.11032"
           width="500.20587"
           id="rect5358"
           style="opacity:1;fill:#ffffff;fill-opacity:1;fill-rule:evenodd;stroke:#ffffff;stroke-width:2;stroke-miterlimit:4;stroke-dasharray:none;stroke-opacity:1" /></g></clipPath><clipPath
       clipPathUnits="userSpaceOnUse"
       id="clipPath5360"><g
         id="g5362"><rect
           y="-105.49365"
           x="-35.559658"
           height="314.11032"
           width="500.20587"
           id="rect5364"
           style="opacity:1;fill:#ffffff;fill-opacity:1;fill-rule:evenodd;stroke:#ffffff;stroke-width:2;stroke-miterlimit:4;stroke-dasharray:none;stroke-opacity:1" /></g></clipPath><clipPath
       clipPathUnits="userSpaceOnUse"
       id="clipPath5366"><g
         id="g5368"><rect
           y="-105.49365"
           x="-35.559658"
           height="314.11032"
           width="500.20587"
           id="rect5370"
           style="opacity:1;fill:#ffffff;fill-opacity:1;fill-rule:evenodd;stroke:#ffffff;stroke-width:2;stroke-miterlimit:4;stroke-dasharray:none;stroke-opacity:1" /></g></clipPath><clipPath
       clipPathUnits="userSpaceOnUse"
       id="clipPath5372"><g
         id="g5374"><rect
           y="-105.49365"
           x="-35.559658"
           height="314.11032"
           width="500.20587"
           id="rect5376"
           style="opacity:1;fill:#ffffff;fill-opacity:1;fill-rule:evenodd;stroke:#ffffff;stroke-width:2;stroke-miterlimit:4;stroke-dasharray:none;stroke-opacity:1" /></g></clipPath><clipPath
       clipPathUnits="userSpaceOnUse"
       id="clipPath5378"><g
         id="g5380"><rect
           y="-105.49365"
           x="-35.559658"
           height="314.11032"
           width="500.20587"
           id="rect5382"
           style="opacity:1;fill:#ffffff;fill-opacity:1;fill-rule:evenodd;stroke:#ffffff;stroke-width:2;stroke-miterlimit:4;stroke-dasharray:none;stroke-opacity:1" /></g></clipPath><clipPath
       clipPathUnits="userSpaceOnUse"
       id="clipPath5390"><g
         id="g5392"><rect
           y="-105.49365"
           x="-35.559658"
           height="314.11032"
           width="500.20587"
           id="rect5394"
           style="opacity:1;fill:#ffffff;fill-opacity:1;fill-rule:evenodd;stroke:#ffffff;stroke-width:2;stroke-miterlimit:4;stroke-dasharray:none;stroke-opacity:1" /></g></clipPath><clipPath
       clipPathUnits="userSpaceOnUse"
       id="clipPath5396"><g
         id="g5398"><rect
           y="-105.49365"
           x="-35.559658"
           height="314.11032"
           width="500.20587"
           id="rect5400"
           style="opacity:1;fill:#ffffff;fill-opacity:1;fill-rule:evenodd;stroke:#ffffff;stroke-width:2;stroke-miterlimit:4;stroke-dasharray:none;stroke-opacity:1" /></g></clipPath><clipPath
       clipPathUnits="userSpaceOnUse"
       id="clipPath5402"><g
         id="g5404"><rect
           y="-105.49365"
           x="-35.559658"
           height="314.11032"
           width="500.20587"
           id="rect5406"
           style="opacity:1;fill:#ffffff;fill-opacity:1;fill-rule:evenodd;stroke:#ffffff;stroke-width:2;stroke-miterlimit:4;stroke-dasharray:none;stroke-opacity:1" /></g></clipPath><clipPath
       clipPathUnits="userSpaceOnUse"
       id="clipPath5408"><g
         id="g5410"><rect
           y="-105.49365"
           x="-35.559658"
           height="314.11032"
           width="500.20587"
           id="rect5412"
           style="opacity:1;fill:#ffffff;fill-opacity:1;fill-rule:evenodd;stroke:#ffffff;stroke-width:2;stroke-miterlimit:4;stroke-dasharray:none;stroke-opacity:1" /></g></clipPath><clipPath
       clipPathUnits="userSpaceOnUse"
       id="clipPath5414"><g
         id="g5416"><rect
           y="-105.49365"
           x="-35.559658"
           height="314.11032"
           width="500.20587"
           id="rect5418"
           style="opacity:1;fill:#ffffff;fill-opacity:1;fill-rule:evenodd;stroke:#ffffff;stroke-width:2;stroke-miterlimit:4;stroke-dasharray:none;stroke-opacity:1" /></g></clipPath><clipPath
       clipPathUnits="userSpaceOnUse"
       id="clipPath5420"><g
         id="g5422"><rect
           y="-105.49365"
           x="-35.559658"
           height="314.11032"
           width="500.20587"
           id="rect5424"
           style="opacity:1;fill:#ffffff;fill-opacity:1;fill-rule:evenodd;stroke:#ffffff;stroke-width:2;stroke-miterlimit:4;stroke-dasharray:none;stroke-opacity:1" /></g></clipPath><clipPath
       clipPathUnits="userSpaceOnUse"
       id="clipPath5426"><g
         id="g5428"><rect
           y="-105.49365"
           x="-35.559658"
           height="314.11032"
           width="500.20587"
           id="rect5430"
           style="opacity:1;fill:#ffffff;fill-opacity:1;fill-rule:evenodd;stroke:#ffffff;stroke-width:2;stroke-miterlimit:4;stroke-dasharray:none;stroke-opacity:1" /></g></clipPath><clipPath
       clipPathUnits="userSpaceOnUse"
       id="clipPath5432"><g
         id="g5434"><rect
           y="-105.49365"
           x="-35.559658"
           height="314.11032"
           width="500.20587"
           id="rect5436"
           style="opacity:1;fill:#ffffff;fill-opacity:1;fill-rule:evenodd;stroke:#ffffff;stroke-width:2;stroke-miterlimit:4;stroke-dasharray:none;stroke-opacity:1" /></g></clipPath><clipPath
       clipPathUnits="userSpaceOnUse"
       id="clipPath5438"><g
         id="g5440"><rect
           y="-105.49365"
           x="-35.559658"
           height="314.11032"
           width="500.20587"
           id="rect5442"
           style="opacity:1;fill:#ffffff;fill-opacity:1;fill-rule:evenodd;stroke:#ffffff;stroke-width:2;stroke-miterlimit:4;stroke-dasharray:none;stroke-opacity:1" /></g></clipPath><clipPath
       clipPathUnits="userSpaceOnUse"
       id="clipPath5444"><g
         id="g5446"><rect
           y="-105.49365"
           x="-35.559658"
           height="314.11032"
           width="500.20587"
           id="rect5448"
           style="opacity:1;fill:#ffffff;fill-opacity:1;fill-rule:evenodd;stroke:#ffffff;stroke-width:2;stroke-miterlimit:4;stroke-dasharray:none;stroke-opacity:1" /></g></clipPath><clipPath
       clipPathUnits="userSpaceOnUse"
       id="clipPath5450"><g
         id="g5452"><rect
           y="-105.49365"
           x="-35.559658"
           height="314.11032"
           width="500.20587"
           id="rect5454"
           style="opacity:1;fill:#ffffff;fill-opacity:1;fill-rule:evenodd;stroke:#ffffff;stroke-width:2;stroke-miterlimit:4;stroke-dasharray:none;stroke-opacity:1" /></g></clipPath><clipPath
       clipPathUnits="userSpaceOnUse"
       id="clipPath5456"><g
         id="g5458"><rect
           y="-105.49365"
           x="-35.559658"
           height="314.11032"
           width="500.20587"
           id="rect5460"
           style="opacity:1;fill:#ffffff;fill-opacity:1;fill-rule:evenodd;stroke:#ffffff;stroke-width:2;stroke-miterlimit:4;stroke-dasharray:none;stroke-opacity:1" /></g></clipPath></defs><sodipodi:namedview
     pagecolor="#ffffff"
     bordercolor="#666666"
     borderopacity="1"
     objecttolerance="10"
     gridtolerance="10"
     guidetolerance="10"
     inkscape:pageopacity="0"
     inkscape:pageshadow="2"
     inkscape:window-width="1366"
     inkscape:window-height="713"
     id="namedview57"
     showgrid="false"
     inkscape:zoom="4.850973570400751"
     inkscape:cx="-44.24356894744724"
     inkscape:cy="-11.74448548798715"
     inkscape:window-x="0"
     inkscape:window-y="30"
     inkscape:window-maximized="1"
     inkscape:current-layer="レイヤー_1"
     inkscape:snap-bbox="true"
     inkscape:bbox-nodes="true" /><path
     inkscape:connector-curvature="0"
     d="m 10.634,300.493 c 0.764,15.751 16.499,8.463 23.62600000000001,3.539 6.765,-4.675 8.743,-0.789 9.337,-10.015 0.389,-6.064 1.088,-12.128 0.744,-18.216 -10.23,-0.927 -21.357,1.509 -29.744,7.602 -4.32,3.139 -12.420000000000008,13.158 -3.963,17.0899999999999"
     id="path3"
     style="clip-rule:evenodd;fill:#ffffff;fill-opacity:1;fill-rule:evenodd;stroke:#4caf50;stroke-width:8;stroke-linecap:round;stroke-miterlimit:4;stroke-dasharray:none;stroke-opacity:1"
     clip-path="url(#clipPath5456)"
     transform="matrix(0.0982497235199759,0,0,0.0982497235199759,4.628580940600317,13.04498248222356)" /><path
     inkscape:connector-curvature="0"
     d="m 10.634,300.493 c 2.29,-0.852 4.717,-1.457 6.271,-3.528"
     id="path5"
     clip-path="url(#clipPath5450)"
     style="clip-rule:evenodd;fill:#c6b198;fill-rule:evenodd;stroke:#4caf50;stroke-width:8;stroke-linecap:round;stroke-miterlimit:4;stroke-dasharray:none;stroke-opacity:1"
     transform="matrix(0.0982497235199759,0,0,0.0982497235199759,4.628580940600317,13.04498248222356)" /><path
     inkscape:connector-curvature="0"
     d="M 46.997,112.853 C -13.3,95.897 31.536,19.189 79.956,50.74 L 46.997,112.853 Z"
     id="path7"
     style="clip-rule:evenodd;fill:#ffffff;fill-opacity:1;fill-rule:evenodd;stroke:#4caf50;stroke-width:8;stroke-linecap:round;stroke-miterlimit:4;stroke-dasharray:none;stroke-opacity:1"
     clip-path="url(#clipPath5444)"
     transform="matrix(0.0982497235199759,0,0,0.0982497235199759,4.628580940600317,13.04498248222356)" /><path
     inkscape:connector-curvature="0"
     d="M 314.895,44.984 C 362.622,11.461 405.751,87.09499999999998 350.283,106.125 L 314.895,44.984 Z"
     id="path9"
     style="clip-rule:evenodd;fill:#ffffff;fill-opacity:1;fill-rule:evenodd;stroke:#4caf50;stroke-width:8;stroke-linecap:round;stroke-miterlimit:4;stroke-dasharray:none;stroke-opacity:1"
     clip-path="url(#clipPath5438)"
     transform="matrix(0.0982497235199759,0,0,0.0982497235199759,4.628580940600317,13.04498248222356)" /><path
     inkscape:connector-curvature="0"
     d="m 325.161,494.343 c 12.123,7.501 34.282,30.1819999999997 16.096,41.18 -17.474,15.999 -27.254,-17.5610000000004 -42.591,-22.211 6.605,-8.97 14.977,-17.149 26.495,-18.969 z"
     id="path11"
     style="clip-rule:evenodd;fill:#ffffff;fill-opacity:1;fill-rule:evenodd;stroke:#4caf50;stroke-width:8;stroke-linecap:round;stroke-miterlimit:4;stroke-dasharray:none;stroke-opacity:1"
     clip-path="url(#clipPath5432)"
     transform="matrix(0.0982497235199759,0,0,0.0982497235199759,4.628580940600317,13.04498248222356)" /><path
     inkscape:connector-curvature="0"
     d="m 341.257,535.522 c -2.696,-5.3610000000001 -3.601,-11.6180000000004 -8.102,-15.9390000000002"
     id="path13"
     clip-path="url(#clipPath5426)"
     style="clip-rule:evenodd;fill:none;fill-rule:evenodd;stroke:#4caf50;stroke-width:8;stroke-linecap:round;stroke-miterlimit:4;stroke-dasharray:none;stroke-opacity:1"
     transform="matrix(0.0982497235199759,0,0,0.0982497235199759,4.628580940600317,13.04498248222356)" /><path
     inkscape:connector-curvature="0"
     d="m 108.579,519.975 c -14.229,2.202 -22.238,15.039 -34.10000000000001,21.558 -11.178,6.6649999999997 -15.45399999999999,-2.134 -16.461,-3.92 -1.752,-0.7990000000002 -1.605,0.7439999999997 -4.309,-1.979 -10.362,-16.3540000000003 10.797,-28.308 21.815,-36.432 C 90.86999999999999,496.1 100.487,509.404 108.579,519.975 Z"
     id="path15"
     style="clip-rule:evenodd;fill:#ffffff;fill-opacity:1;fill-rule:evenodd;stroke:#4caf50;stroke-width:8;stroke-linecap:round;stroke-miterlimit:4;stroke-dasharray:none;stroke-opacity:1"
     clip-path="url(#clipPath5420)"
     transform="matrix(0.0982497235199759,0,0,0.0982497235199759,4.628580940600317,13.04498248222356)" /><path
     inkscape:connector-curvature="0"
     d="M 58.019,537.6119999999998 C 58.561,531.379 63.503,527.2049999999999 65.85699999999998,521.9349999999999"
     id="path17"
     clip-path="url(#clipPath5414)"
     style="clip-rule:evenodd;fill:none;fill-rule:evenodd;stroke:#4caf50;stroke-width:8;stroke-linecap:round;stroke-miterlimit:4;stroke-dasharray:none;stroke-opacity:1"
     transform="matrix(0.0982497235199759,0,0,0.0982497235199759,4.628580940600317,13.04498248222356)" /><path
     inkscape:connector-curvature="0"
     d="M 49.513,91.667 C 41.558,87.459 35.722,81.74399999999998 40.588,72.543 45.09300000000001,64.025 53.46200000000001,64.95 61.418,69.158 L 49.513,91.667 Z"
     id="path19"
     clip-path="url(#clipPath5408)"
     style="clip-rule:evenodd;fill:#4caf50;fill-opacity:1;fill-rule:evenodd;stroke:#4caf50;stroke-width:8;stroke-miterlimit:4;stroke-dasharray:none;stroke-opacity:1"
     transform="matrix(0.0982497235199759,0,0,0.0982497235199759,4.628580940600317,13.04498248222356)" /><path
     inkscape:connector-curvature="0"
     d="M 337.716,83.667 C 345.671,79.459 351.507,73.74399999999998 346.641,64.543 c -4.505,-8.51799999999999 -12.874,-7.593 -20.83,-3.385 L 337.716,83.667 Z"
     id="path21"
     clip-path="url(#clipPath5402)"
     style="clip-rule:evenodd;fill:#4caf50;fill-opacity:1;fill-rule:evenodd;stroke:#4caf50;stroke-width:8;stroke-miterlimit:4;stroke-dasharray:none;stroke-opacity:1"
     transform="matrix(0.0982497235199759,0,0,0.0982497235199759,4.628580940600317,13.04498248222356)" /><path
     inkscape:connector-curvature="0"
     d="m 392.475,298.493 c -0.764,15.751 -16.499,8.463 -23.6259999999999,3.539 -6.765,-4.675 -8.743,-0.789 -9.337,-10.015 C 359.1230000000001,285.953 358.424,279.889 358.768,273.801 c 10.2300000000001,-0.927 21.357,1.509 29.7440000000001,7.602 4.319,3.139 12.42,13.158 3.963,17.0899999999999"
     id="path23"
     style="clip-rule:evenodd;fill:#ffffff;fill-opacity:1;fill-rule:evenodd;stroke:#4caf50;stroke-width:8;stroke-linecap:round;stroke-miterlimit:4;stroke-dasharray:none;stroke-opacity:1"
     clip-path="url(#clipPath5396)"
     transform="matrix(0.0982497235199759,0,0,0.0982497235199759,4.628580940600317,13.04498248222356)" /><path
     inkscape:connector-curvature="0"
     d="m 392.475,298.493 c -2.29,-0.852 -4.717,-1.457 -6.271,-3.528"
     id="path25"
     clip-path="url(#clipPath5390)"
     style="clip-rule:evenodd;fill:#c6b198;fill-rule:evenodd;stroke:#4caf50;stroke-width:8;stroke-linecap:round;stroke-miterlimit:4;stroke-dasharray:none;stroke-opacity:1"
     transform="matrix(0.0982497235199759,0,0,0.0982497235199759,4.628580940600317,13.04498248222356)" /><path
     style="clip-rule:evenodd;fill:#ffffff;fill-opacity:1;fill-rule:evenodd;stroke:#4caf50;stroke-width:0.785997808;stroke-linecap:round;stroke-miterlimit:4;stroke-dasharray:none;stroke-opacity:1"
     d="M 23.837890625 14.333984375 C 17.44566536306685 14.83967570195733 11.50500192770026 16.32336620863584 9.302734375 22.8828125 C 8.066248912919406 26.56583040410723 8.242283791598927 30.30329302306282 8.544921875 34.05859375 L 40.16015625 34.05859375 C 40.12273274256068 29.57021468488632 39.95127784491196 25.11519904232181 38.2265625 20.880859375 C 35.32829390588424 15.18276840973547 29.76873518528335 14.333984375 23.837890625 14.333984375 z "
     id="path29" /><path
     inkscape:connector-curvature="0"
     d="m 206.169,94.15999999999999 c 10.838,63.00300000000002 113.822,46.345 99.03,-17.197 C 291.935,19.983 202.567,35.755 206.169,94.15999999999999"
     id="path31"
     clip-path="url(#clipPath5378)"
     style="clip-rule:evenodd;fill:#ffffff;fill-rule:evenodd;stroke:#4caf50;stroke-width:8;stroke-linecap:round;stroke-miterlimit:4;stroke-dasharray:none;stroke-opacity:1"
     transform="matrix(0.0982497235199759,0,0,0.0982497235199759,4.628580940600317,13.04498248222356)" /><path
     inkscape:connector-curvature="0"
     d="M 83.10299999999999,104.35 C 97.15,159.2 184.967,145.157 181.657,90.137 177.691,24.242 69.673,36.957 83.10299999999999,104.35"
     id="path33"
     clip-path="url(#clipPath5372)"
     style="clip-rule:evenodd;fill:#ffffff;fill-rule:evenodd;stroke:#4caf50;stroke-width:8;stroke-linecap:round;stroke-miterlimit:4;stroke-dasharray:none;stroke-opacity:1"
     transform="matrix(0.0982497235199759,0,0,0.0982497235199759,4.628580940600317,13.04498248222356)" /><path
     inkscape:connector-curvature="0"
     d="m 218.594,169.762 c 0.046,8.191 1.861,17.387 0.312,26.101 -2.091,3.952 -6.193,4.37 -9.729,5.967 -4.89,-0.767 -9.002,-3.978 -10.963,-8.552 -1.255,-9.946 0.468,-19.576 0.785,-29.526 l 19.595,6.01 z"
     id="path35"
     clip-path="url(#clipPath5366)"
     style="clip-rule:evenodd;fill:#ffffff;fill-rule:evenodd;stroke:#4caf50;stroke-width:8;stroke-linecap:round;stroke-miterlimit:4;stroke-dasharray:none;stroke-opacity:1"
     transform="matrix(0.0982497235199759,0,0,0.0982497235199759,4.628580940600317,13.04498248222356)" /><g
     id="g37"
     clip-path="url(#clipPath5360)"
     style="stroke:#4caf50;stroke-width:8;stroke-miterlimit:4;stroke-dasharray:none;stroke-opacity:1"
     transform="matrix(0.0982497235199759,0,0,0.0982497235199759,4.628580940600317,13.04498248222356)"><ellipse
       cx="107.3239974975586"
       cy="95.40399932861328"
       rx="14.82900047302246"
       ry="16.0620002746582"
       id="ellipse39"
       style="clip-rule:evenodd;fill:#4caf50;fill-opacity:1;fill-rule:evenodd;stroke:#4caf50;stroke-width:8;stroke-miterlimit:4;stroke-dasharray:none;stroke-opacity:1" /><ellipse
       cx="114.0690002441406"
       cy="99.02899932861328"
       rx="3.496000051498413"
       ry="4.081999778747559"
       id="ellipse41"
       style="clip-rule:evenodd;fill:#ffffff;fill-rule:evenodd;stroke:#4caf50;stroke-width:8;stroke-miterlimit:4;stroke-dasharray:none;stroke-opacity:1" /></g><g
     id="g43"
     clip-path="url(#clipPath5354)"
     style="stroke:#4caf50;stroke-width:8;stroke-miterlimit:4;stroke-dasharray:none;stroke-opacity:1"
     transform="matrix(0.0982497235199759,0,0,0.0982497235199759,4.628580940600317,13.04498248222356)"><ellipse
       cx="231.5709991455078"
       cy="91.40399932861328"
       rx="14.58199977874756"
       ry="16.0620002746582"
       id="ellipse45"
       style="clip-rule:evenodd;fill:#4caf50;fill-opacity:1;fill-rule:evenodd;stroke:#4caf50;stroke-width:8;stroke-miterlimit:4;stroke-dasharray:none;stroke-opacity:1" /><ellipse
       cx="238.2039947509766"
       cy="95.02899932861328"
       rx="3.437999963760376"
       ry="4.081999778747559"
       id="ellipse47"
       style="clip-rule:evenodd;fill:#ffffff;fill-rule:evenodd;stroke:#4caf50;stroke-width:8;stroke-miterlimit:4;stroke-dasharray:none;stroke-opacity:1" /></g><path
     inkscape:connector-curvature="0"
     d="m 176.217,168.87 c -6.47,15.68 3.608,47.035 21.163,23.908 -1.255,-9.946 0.468,-19.576 0.785,-29.526 l -21.948,5.618 z"
     id="path49"
     clip-path="url(#clipPath5348)"
     style="clip-rule:evenodd;fill:#ffffff;fill-rule:evenodd;stroke:#4caf50;stroke-width:8;stroke-linecap:round;stroke-miterlimit:4;stroke-dasharray:none;stroke-opacity:1"
     transform="matrix(0.0982497235199759,0,0,0.0982497235199759,4.628580940600317,13.04498248222356)" /><path
     inkscape:connector-curvature="0"
     style="clip-rule:evenodd;fill:#ffffff;fill-opacity:1;fill-rule:evenodd;stroke:#4caf50;stroke-width:8;stroke-linecap:round;stroke-miterlimit:4;stroke-dasharray:none;stroke-opacity:1"
     id="path53"
     d="m 178.431,138.673 c -12.059,1.028 -21.916,15.366 -15.646,26.709 8.303,15.024 26.836,-1.329 38.379,0.203 13.285,0.272 24.17,14.047 34.84,2.49 11.867,-12.854 -5.109,-25.373 -18.377,-30.97 l -39.196,1.568 z"
     clip-path="url(#clipPath5342)"
     transform="matrix(0.0982497235199759,0,0,0.0982497235199759,4.628580940600317,13.04498248222356)" /><path
     inkscape:connector-curvature="0"
     style="clip-rule:evenodd;fill:#4caf50;fill-opacity:1;fill-rule:evenodd;stroke:#4caf50;stroke-width:8;stroke-miterlimit:4;stroke-dasharray:none;stroke-opacity:1"
     id="path55"
     d="m 176.913,138.045 c -0.893,-20.891 38.938,-23.503 43.642,-6.016 4.692,17.446 -41.681,21.498 -43.642,6.016 -1.565,-12.363 0,0 0,0 z"
     clip-path="url(#clipPath5336)"
     transform="matrix(0.0982497235199759,0,0,0.0982497235199759,4.628580940600317,13.04498248222356)" /><path
     style="fill:none;fill-rule:evenodd;stroke:#4caf50;stroke-width:0.785997808;stroke-linecap:butt;stroke-linejoin:miter;stroke-miterlimit:4;stroke-dasharray:none;stroke-opacity:1"
     d="M 8.348346519979234,33.66606577088237 40.30534182176988,33.66537802281772"
     id="path5462"
     inkscape:connector-type="polyline"
     inkscape:connector-curvature="0" /></svg>