<?xml version="1.0" encoding="UTF-8" standalone="no"?>
<svg
   xmlns:dc="http://purl.org/dc/elements/1.1/"
   xmlns:cc="http://creativecommons.org/ns#"
   xmlns:rdf="http://www.w3.org/1999/02/22-rdf-syntax-ns#"
   xmlns:svg="http://www.w3.org/2000/svg"
   xmlns="http://www.w3.org/2000/svg"
   xmlns:sodipodi="http://sodipodi.sourceforge.net/DTD/sodipodi-0.dtd"
   xmlns:inkscape="http://www.inkscape.org/namespaces/inkscape"
   width="48"
   height="48"
   viewBox="0 0 48 48"
   id="svg2"
   version="1.1"
   inkscape:version="0.91 r13725"
   sodipodi:docname="ejector.svg"
   fill="#FFC107">
  <metadata
     id="metadata10">
    <rdf:RDF>
      <cc:Work
         rdf:about="">
        <dc:format>image/svg+xml</dc:format>
        <dc:type
           rdf:resource="http://purl.org/dc/dcmitype/StillImage" />
        <dc:title />
      </cc:Work>
    </rdf:RDF>
  </metadata>
  <defs
     id="defs8" />
  <sodipodi:namedview
     pagecolor="#ffffff"
     bordercolor="#666666"
     borderopacity="1"
     objecttolerance="10"
     gridtolerance="10"
     guidetolerance="10"
     inkscape:pageopacity="0"
     inkscape:pageshadow="2"
     inkscape:window-width="1366"
     inkscape:window-height="713"
     id="namedview6"
     showgrid="false"
     inkscape:snap-bbox="true"
     inkscape:bbox-nodes="true"
     inkscape:snap-bbox-edge-midpoints="false"
     inkscape:snap-bbox-midpoints="true"
     inkscape:snap-object-midpoints="true"
     inkscape:zoom="6.953216679833328"
     inkscape:cx="22.14733416490115"
     inkscape:cy="15.92269255840256"
     inkscape:window-x="0"
     inkscape:window-y="30"
     inkscape:window-maximized="1"
     inkscape:current-layer="svg2" />
  <path
     style="fill:#FFC107"
     d="M 10 6 C 7.789999999999992 6 6 7.789999999999997 6 10 L 6 38 C 6 40.21 7.789999999999992 42 10 42 L 38 42 C 40.21 42 42 40.21000000000002 42 38 L 42 10 C 42 7.790000000000001 40.21 6.000000000000001 38 6 L 10 6 z M 23.96875 16 A 0.7006109064407048 0.4985007402904016 0 0 1 24.609375 16.25390625 L 31.904296875 25.251953125 A 0.7006109064407048 0.4985007402904016 0 0 1 31.294921875 26.001953125 L 16.703125 26.001953125 A 0.7006109064407048 0.4985007402904016 0 0 1 16 25.486328125 A 0.7006109064407048 0.4985007402904016 0 0 1 16.09375 25.251953125 L 23.390625 16.25390625 A 0.7006109064407048 0.4985007402904016 0 0 1 23.90625 16.00390625 A 0.7006109064407048 0.4985007402904016 0 0 1 23.96875 16 z M 17 28.001953125 L 30.998046875 28.001953125 C 31.55197034718129 28.001953125 31.998046875 28.44615031103774 31.998046875 29 L 31.998046875 31 C 31.99804687500001 31.55384968896228 31.5519703471813 32 30.998046875 32 L 17 32 C 16.44607652781876 32 16 31.55384968896228 16 31 L 16 29 C 16 28.44615031103772 16.44607652781873 28.001953125 17 28.001953125 z "
     id="path4160" />
</svg>
