<?xml version="1.0" encoding="UTF-8" standalone="no"?>
<svg
   xmlns:dc="http://purl.org/dc/elements/1.1/"
   xmlns:cc="http://creativecommons.org/ns#"
   xmlns:rdf="http://www.w3.org/1999/02/22-rdf-syntax-ns#"
   xmlns:svg="http://www.w3.org/2000/svg"
   xmlns="http://www.w3.org/2000/svg"
   xmlns:sodipodi="http://sodipodi.sourceforge.net/DTD/sodipodi-0.dtd"
   xmlns:inkscape="http://www.inkscape.org/namespaces/inkscape"
   width="34"
   height="23.09090995788574"
   viewBox="0 0 34 23.09090995788574"
   id="svg2"
   version="1.1"
   inkscape:version="0.91 r13725"
   sodipodi:docname="gcr-key-pair.svg"
   style="fill:#FFC107">
  <metadata
     id="metadata10">
    <rdf:RDF>
      <cc:Work
         rdf:about="">
        <dc:format>image/svg+xml</dc:format>
        <dc:type
           rdf:resource="http://purl.org/dc/dcmitype/StillImage" />
        <dc:title></dc:title>
      </cc:Work>
    </rdf:RDF>
  </metadata>
  <defs
     id="defs8" />
  <sodipodi:namedview
     pagecolor="#ffffff"
     bordercolor="#666666"
     borderopacity="1"
     objecttolerance="10"
     gridtolerance="10"
     guidetolerance="10"
     inkscape:pageopacity="0"
     inkscape:pageshadow="2"
     inkscape:window-width="1366"
     inkscape:window-height="713"
     id="namedview6"
     showgrid="false"
     inkscape:zoom="5.368001304915684"
     inkscape:cx="6.335877007225541"
     inkscape:cy="40.24264605005139"
     inkscape:window-x="0"
     inkscape:window-y="30"
     inkscape:window-maximized="1"
     inkscape:current-layer="svg2"
     inkscape:snap-page="true"
     inkscape:snap-bbox="true"
     inkscape:bbox-nodes="true"
     fit-margin-top="0"
     fit-margin-left="0"
     fit-margin-right="0"
     fit-margin-bottom="0" />
  <path
     d="M 12.7090909090909,14.36363636363639 C 11.80909090909091,11.82181818181819 9.39272727272726,10 6.545454545454544,10 2.929090909090905,10 0,12.92909090909092 0,16.54545454545457 c 0,3.61636363636363 2.929090909090905,6.54545454545454 6.545454545454544,6.54545454545454 2.847272727272716,0 5.263636363636367,-1.82181818181819 6.163636363636346,-4.36363636363636 l 4.74545454545456,0 0,4.36363636363636 4.36363636363637,0 0,-4.36363636363636 2.18181818181819,0 0,-4.36363636363638 -11.29090909090915,0 z m -6.163636363636356,4.36363636363636 c -1.205454545454551,0 -2.181818181818179,-0.97636363636363 -2.181818181818179,-2.18181818181818 0,-1.20545454545456 0.976363636363628,-2.18181818181818 2.181818181818179,-2.18181818181818 1.205454545454538,0 2.181818181818175,0.97636363636362 2.181818181818175,2.18181818181818 0,1.20545454545455 -0.976363636363637,2.18181818181818 -2.181818181818175,2.18181818181818 z"
     id="path4"
     inkscape:connector-curvature="0" />
  <path
     inkscape:connector-curvature="0"
     id="path4142"
     d="M 22.7090909090909,4.363636363636389 C 21.80909090909091,1.821818181818187 19.39272727272726,-3.552713678800501e-15 16.54545454545454,-3.552713678800501e-15 12.92909090909091,-3.552713678800501e-15 10,2.929090909090917 10,6.545454545454568 c 0,3.616363636363632 2.92909090909091,6.545454545454542 6.54545454545454,6.545454545454542 2.84727272727272,0 5.26363636363637,-1.82181818181819 6.16363636363635,-4.363636363636364 l 4.74545454545456,0 0,4.363636363636364 4.36363636363637,0 0,-4.363636363636364 2.1818181818182,0 0,-4.36363636363638 -11.29090909090916,0 z m -6.16363636363636,4.363636363636357 c -1.20545454545455,0 -2.18181818181817,-0.976363636363627 -2.18181818181817,-2.181818181818178 0,-1.205454545454561 0.97636363636362,-2.181818181818179 2.18181818181817,-2.181818181818179 1.20545454545454,0 2.18181818181818,0.976363636363618 2.18181818181818,2.181818181818179 0,1.205454545454551 -0.97636363636364,2.181818181818178 -2.18181818181818,2.181818181818178 z" />
</svg>
