<?xml version="1.0" encoding="UTF-8" standalone="no"?>
<svg
   xmlns:dc="http://purl.org/dc/elements/1.1/"
   xmlns:cc="http://creativecommons.org/ns#"
   xmlns:rdf="http://www.w3.org/1999/02/22-rdf-syntax-ns#"
   xmlns:svg="http://www.w3.org/2000/svg"
   xmlns="http://www.w3.org/2000/svg"
   xmlns:sodipodi="http://sodipodi.sourceforge.net/DTD/sodipodi-0.dtd"
   xmlns:inkscape="http://www.inkscape.org/namespaces/inkscape"
   fill="#FFC107"
   width="48"
   height="48"
   viewBox="0 0 48 48"
   id="svg2"
   version="1.1"
   inkscape:version="0.91 r13725"
   sodipodi:docname="system-software-install (copy 1).svg">
  <metadata
     id="metadata10">
    <rdf:RDF>
      <cc:Work
         rdf:about="">
        <dc:format>image/svg+xml</dc:format>
        <dc:type
           rdf:resource="http://purl.org/dc/dcmitype/StillImage" />
      </cc:Work>
    </rdf:RDF>
  </metadata>
  <defs
     id="defs8" />
  <sodipodi:namedview
     pagecolor="#ffffff"
     bordercolor="#666666"
     borderopacity="1"
     objecttolerance="10"
     gridtolerance="10"
     guidetolerance="10"
     inkscape:pageopacity="0"
     inkscape:pageshadow="2"
     inkscape:window-width="1366"
     inkscape:window-height="713"
     id="namedview6"
     showgrid="false"
     inkscape:snap-bbox="true"
     inkscape:snap-bbox-edge-midpoints="false"
     inkscape:snap-bbox-midpoints="true"
     inkscape:snap-object-midpoints="true"
     inkscape:zoom="4.916666666666667"
     inkscape:cx="24"
     inkscape:cy="24"
     inkscape:window-x="0"
     inkscape:window-y="30"
     inkscape:window-maximized="1"
     inkscape:current-layer="svg2" />
  <path
     d="M 20 4 L 16 8 L 16 12 L 8 12 C 5.79 12 4.019531249999999 13.79 4.01953125 16 L 4 38 C 4 40.21 5.790000000000001 42 8 42 L 40 42 C 42.21 42 44 40.21 44 38 L 44 16 C 44 13.79 42.21 12 40 12 L 32 12 L 32 8 L 28 4 L 20 4 z M 20 8 L 28 8 L 28 12 L 20 12 L 20 8 z M 24 17 C 24.0145 17.03403 24.0247325 17.05617375 24.0390625 17.08984375 C 24.36639450000001 17.85879675000001 24.65151537500001 18.529008375 24.927734375 19.177734375 C 24.931854375 19.187394375 24.935353125 19.199384375 24.939453125 19.208984375 C 24.974311125 19.290763375 25.01603125000001 19.38759 25.05078125 19.46875 C 25.12184325 19.63216699999998 25.2223625 19.86689324999999 25.2890625 20.01953125 C 26.01231050000001 21.68775924999998 26.81299349999999 23.41343799999998 28.3203125 26.34375 C 28.3861425 26.472149 28.4693725 26.632049125 28.5390625 26.767578125 C 29.34433450000003 28.324978125 30.32056787499999 30.17441549999996 31.607421875 32.5703125 C 30.93178387500001 32.16464949999997 30.06412662499999 31.80089512499997 28.853515625 31.486328125 C 30.614803625 32.39033812500002 31.47686549999999 33.22557150000004 32.3046875 33.8671875 C 32.83023150000001 34.84171050000002 33.38344200000002 35.864873 34 37 C 30.87356399999999 35.19505200000001 28.44059425000002 34.07212324999999 26.17578125 33.62890625 C 26.25122825 33.28766224999999 26.2951875 32.91962737499998 26.3046875 32.537109375 C 26.3549835 30.50632937499996 25.38032425000001 28.77400275000001 24.12890625 28.66796875 C 22.87748825 28.56193474999999 21.82178437499999 30.12351787499996 21.771484375 32.154296875 L 21.767578125 32.25390625 C 21.763789125 32.73027225 21.81611249999998 33.18911212499997 21.9140625 33.611328125 C 19.6246175 34.04205612499999 17.168961 35.17050300000001 14 37 C 15.96207299999999 33.474553 17.40784450000001 30.824420125 18.5546875 28.673828125 C 19.3548065 27.17302012499999 20.000094875 25.92662775 20.529296875 24.87109375 C 20.796297875 24.33847075 21.0712385 23.79241362500002 21.2890625 23.337890625 C 21.2910625 23.339590625 21.292921875 23.34204999999999 21.294921875 23.34375 C 21.412950875 23.44282 21.54826862500001 23.53892875000001 21.681640625 23.63671875 C 21.734798625 23.67573575 21.78011650000001 23.71506625 21.8359375 23.75390625 C 21.8885855 23.79050125 21.9526835 23.82683125 22.0078125 23.86328125 C 22.1581085 23.96280325 22.30820962499999 24.06345937500001 22.478515625 24.162109375 C 22.479815625 24.162909375 22.481121875 24.16329450000001 22.482421875 24.1640625 C 22.715302875 24.2988395 22.9668415 24.43269025000001 23.2421875 24.56640625 C 23.51853150000001 24.70048725 23.817856125 24.83308187500002 24.142578125 24.966796875 C 23.84275712499999 24.75702887500001 23.57203775 24.55293975 23.32421875 24.35546875 C 23.32221875 24.35396875 23.32025937499999 24.35316250000001 23.318359375 24.3515625 C 22.57296237499998 23.7570815 22.041989625 23.21934625 21.587890625 22.73828125 C 21.585290625 22.73558125 21.58062500000001 22.73316875000001 21.578125 22.73046875 C 22.56926800000001 20.61276675 23.10977899999999 19.18258199999999 24 17 z "
     id="path4158" />
</svg>
