<svg xmlns="http://www.w3.org/2000/svg" viewBox="0 0 297.4499950262842 337.3409901938701"><g transform="translate(-321.01-255.63)" fill-rule="evenodd"><path d="m348.08 559.25l-27.07-303.62h297.45l-27.1 303.57-121.81 33.77-121.47-33.721" fill="#1572b6"/><path d="m469.74 567.16l98.43-27.29 23.16-259.41h-121.58v286.7" fill="#33a9dc"/><g transform="translate(375.94 314.96)" fill="none"><path d="m93.8 75.5h49.28l3.403-38.13h-52.678v-37.24h.129 93.25l-.893 9.991-9.152 102.62h-83.33v-37.24" fill="#fff"/><path d="m94.02 172.2l-.163.046-41.472-11.199-2.652-29.698h-20.15-17.228l5.216 58.47 76.28 21.18.172-.048v-38.744" fill="#ebebeb"/><path d="m139.91 111.16l-4.484 49.87-41.532 11.21v38.742l76.34-21.16.56-6.29 6.478-72.37h-37.36" fill="#fff"/><g fill="#ebebeb"><path d="m93.93.125v23.13 14.02.092h-89.83-.119l-.747-8.37-1.697-18.878-.89-9.991h93.28"/><path d="m93.8 75.5v23.13 14.02.092h-40.828-.119l-.746-8.369-1.698-18.878-.89-9.991h44.28"/></g></g></g></svg>