<svg height="2072" width="2072" xmlns="http://www.w3.org/2000/svg" xmlns:xlink="http://www.w3.org/1999/xlink"><linearGradient id="a"><stop offset="0" stop-color="#321e1d"/><stop offset=".020122" stop-color="#555548" stop-opacity="0"/><stop offset="1" stop-color="#fff" stop-opacity="0"/></linearGradient><linearGradient id="b" gradientUnits="userSpaceOnUse" x1="576.6493" x2="1017.8839" y1="1435.5206" y2="502.13968"><stop offset="0" stop-color="#1011a1"/><stop offset="1" stop-color="#6969e1"/></linearGradient><linearGradient id="c" gradientUnits="userSpaceOnUse" x1="1170.61908" x2="1787.21616" y1="728.41388" y2="1769.275"><stop offset="0" stop-color="#b40e0e"/><stop offset="1" stop-color="#ff5959"/></linearGradient><linearGradient id="d" gradientUnits="userSpaceOnUse" x1="1425.17749" x2="554.022" y1="1842.8141" y2="1769.275"><stop offset="0" stop-color="#01a300"/><stop offset="1" stop-color="#01df00"/></linearGradient><linearGradient id="e" gradientUnits="userSpaceOnUse" x1="1119.7074" x2="1108.39368" y1="1520.3735" y2="1141.3643"><stop offset="0" stop-color="#848484"/><stop offset="1" stop-color="#d2d2d2"/></linearGradient><filter id="f"><feGaussianBlur stdDeviation="9.076659"/></filter><linearGradient id="g" gradientTransform="matrix(1.9188939 .98349385 -.45611308 .88992183 3476.0418 1285.266)" gradientUnits="userSpaceOnUse" x1="-1238.0465" x2="-555.82379" y1="919.71448" y2="917.51282"><stop offset="0" stop-color="#cbcaf2"/><stop offset=".026368" stop-color="#5555d2" stop-opacity="0"/><stop offset="1" stop-color="#fff" stop-opacity="0"/></linearGradient><linearGradient id="h" gradientTransform="matrix(-1.9407023 .93972781 -.43581582 -.90003588 -412.21511 3168.6506)" gradientUnits="userSpaceOnUse" x1="-1238.0465" x2="-552.84039" xlink:href="#a" y1="919.71448" y2="913.40582"/><linearGradient id="i" gradientTransform="matrix(.02700295 -2.1560608 .90368745 .01314507 114.37039 -755.42907)" gradientUnits="userSpaceOnUse" x1="-1238.0465" x2="-555.83728" xlink:href="#a" y1="919.71448" y2="915.30005"/><linearGradient id="j" gradientTransform="matrix(3.1362513 .00261809 .06431073 .7601511 4936.1356 68.133286)" gradientUnits="userSpaceOnUse" x1="-1238.0465" x2="-554.89746" y1="919.71448" y2="917.6181"><stop offset="0" stop-color="#f6b1b2"/><stop offset=".028216" stop-color="#c51f1f" stop-opacity="0"/><stop offset="1" stop-color="#fff" stop-opacity="0"/></linearGradient><linearGradient id="k" gradientTransform="matrix(-2.1510215 -.07025797 -.03821188 -.48210687 -1498.469 1058.0104)" gradientUnits="userSpaceOnUse" x1="-1229.327" x2="-555.82379" y1="918.44379" y2="917.51282"><stop offset="0" stop-color="#321e1d"/><stop offset=".020122" stop-color="#5a5bd7" stop-opacity="0"/><stop offset="1" stop-color="#fff" stop-opacity="0"/></linearGradient><linearGradient id="l" gradientTransform="matrix(-1.3798164 -1.6569612 .7684458 -.63991489 -2195.6367 413.8935)" gradientUnits="userSpaceOnUse" x1="-1237.1112" x2="-555.82379" y1="920.41797" y2="917.51282"><stop offset="0" stop-color="#321e1d"/><stop offset=".015467" stop-color="#555548" stop-opacity="0"/><stop offset="1" stop-color="#fff" stop-opacity="0"/></linearGradient><linearGradient id="m" gradientTransform="matrix(.85312044 -1.9803029 .91840135 .39565006 2182.2918 -885.93458)" gradientUnits="userSpaceOnUse" x1="-1242.2334" x2="-551.12549" y1="915.73645" y2="910.64618"><stop offset="0" stop-color="#321e1d"/><stop offset=".017393" stop-color="#555548" stop-opacity="0"/><stop offset="1" stop-color="#fff" stop-opacity="0"/></linearGradient><linearGradient id="n" gradientTransform="matrix(1.3829904 1.654313 -.7672176 .6413869 2529.8389 3432.8719)" gradientUnits="userSpaceOnUse" x1="-1238.0465" x2="-555.86682" y1="919.71448" y2="915.4801"><stop offset="0" stop-color="#cbf595"/><stop offset=".018269" stop-color="#01da00" stop-opacity="0"/><stop offset="1" stop-color="#fff" stop-opacity="0"/></linearGradient><linearGradient id="o" gradientTransform="matrix(1.3829904 1.654313 -.7672176 .6413869 2930.535 3096.9376)" gradientUnits="userSpaceOnUse" x1="-1242.5582" x2="-866.86804" y1="918.09875" y2="917.18665"><stop offset="0" stop-color="#ebebec"/><stop offset=".005183" stop-color="#d3d3d3" stop-opacity="0"/><stop offset="1" stop-color="#fff" stop-opacity="0"/></linearGradient><linearGradient id="p" gradientTransform="matrix(-.83179183 1.989334 -.83312221 -.35033011 1447.5752 4603.6836)" gradientUnits="userSpaceOnUse" x1="-1238.0465" x2="-555.82379" y1="919.71448" y2="917.51282"><stop offset="0" stop-color="#32691d"/><stop offset=".020122" stop-color="#01d200" stop-opacity="0"/><stop offset="1" stop-color="#fff" stop-opacity="0"/></linearGradient><path d="m1971.5575 1939.9137-1797.08691-.1258c-11.0291-1.2221-8.5403-6.713-5.9958-12.2215l900.87981-1799.4856c3.3139-5.2772 6.2883-4.4372 9.0861-.4108l900.8561 1799.4363c4.5781 9.1667 1.5811 13.1503-7.7393 12.8074z" fill="none" filter="url(#f)" opacity=".539749" stroke="#3a393b" stroke-width="22.5"/><path d="m1143.3083 1084.3217-984.61711 841.7401 901.81951-1801.95966z" fill="url(#b)" stroke="#000"/><path d="m1060.5637 125.61959c13.4152 80.71591 11.94 94.79031-18.0349 140.07316l-796.60851 1579.13925-84.6029 76.9268z" fill="url(#g)"/><path d="m1147.188 1083.1536-50.1671 40.0537-52.7887-888.7261c-4.0533-47.4341-6.2416-43.17076-6.5492-68.17004l25.1004-48.95208z" fill="url(#k)"/><path d="m1188.9362 1609.9939-127.9574-1486.05369 902.9741 1802.28589z" fill="url(#c)" stroke="#000"/><path d="m1060.9071 120.07731c24.1749 30.04558 39.608 75.93991 48.9654 112.17843l179.3742 1415.10436-98.4276-38.4391-129.912-1488.84369z" fill="url(#j)"/><path d="m743.40929 1423.8349 1221.47011 502.1736-1805.95141-.1985z" fill="url(#d)" stroke="#000"/><path d="m1963.6891 1926.5277-56.7139-24.6169-795.9854-1603.05217c-21.9472-24.37845-34.3449-39.62306-41.2192-51.95192-1.1264-32.3188-2.943-61.0813-9.9138-126.2626z" fill="url(#h)"/><path d="m745.26609 1425.0475 397.42281-339.0381 55.3298 523.5716z" fill="url(#e)" stroke="#000" stroke-width="4"/><path d="m742.72829 1426.2554c17.4821 6.7504 20.8419 8.2827 35.806 14.4205-16.1593 13.8305-69.88 86.4885-91.4281 103.8499l-428.4072 362.6992-98.8195 18.3883z" fill="url(#n)"/><path d="m1962.8676 1925.4594-68.0643-1.0486-1174.86681-479.6332 23.5048-18.7167 470.76241 191.9416z" fill="url(#p)"/><path d="m159.98259 1925.4405 50.2958-42.8864 1643.00831.1531 110.3276 42.727-1803.63171.01z" fill="url(#i)"/><path d="m1199.8469 1610.9874-2.1608-22.3386 610.5884 235.1678c39.4555 18.7661 69.1058 27.2993 88.8249 43.327 12.6947 5.2081 34.7241 12.6345 46.1135 16.4736 13.9264 9.2219 11.5065 23.9583 20.3177 41.5431z" fill="url(#m)"/><path d="m1958.5868 1931.807-1797.08691-.1258c-11.0291-1.2221-8.5403-6.713-5.9958-12.2215l900.87981-1799.48562c3.3139-5.27718 6.2883-4.43721 9.0861-.4108l900.8561 1799.43632c4.5781 9.1667 1.5811 13.1503-7.7393 12.8074z" fill="none" stroke="#000" stroke-width="12.2"/><path d="m160.09059 1924.1505 25.5248-54.5322 52.0681-38.5691 899.32641-780.8749c4.7998 18.518 1.8803 6.9336 6.1315 33.989z" fill="url(#l)"/><path d="m1141.0494 1090.571c-7.8922 86.6075-17.7158 81.5443-53.2471 118.0205l-263.40721 244.6992-74.9445-29.2367z" fill="url(#o)"/></svg>