<svg xmlns="http://www.w3.org/2000/svg" fill="#00E676" viewBox="0 0 48 48"><path d="m20 5l-4 4v4h-8c-2.21 0-3.98 1.79-3.98 4l-.02 22c0 2.21 1.79 4 4 4h32c2.21 0 4-1.79 4-4v-22c0-2.21-1.79-4-4-4h-8v-4l-4-4h-8m0 4h8v4h-8v-4m-13.859 9.746c.109-.018 2.831 1.42 4.66 1.916 3.262.834 6.24 3.342 7.68 4.783.107.123 1.236-.845 2.418-.775 1.615.098 6.612 1.504 7.279.547.405-.562.376-1.251.881-1.533.272-.076-1.011-2.422.352-3.174.972-.486 1.795 2.234 2.045 2.539.112.136.705.17.635-.141-.076-.337-1.036-2.947.141-3.385 1.911-.757 1.573 3.339 1.623 3.455.106.248 6.654.439 7.05 3.385.23 1.621-5.246 3.717-5.781 4.09-.535.373-.492.97-.283 1.34.24.401 1.836 1.752 1.623 2.396-.147.372-3.124-.992-3.314-.705-.434.548 2.168 1.918 1.27 2.891-.356.233-4.454-1.714-4.443-1.691-.11.042-5.789 1.036-10.154-.283-.154-.043-2.802 2.558-3.104 2.469-.412-.151.607-2.262.494-2.68-.185-.233-1.877.945-1.975.354-.116-.777 1.485-1.672 1.41-2.188-.413-2.927.185-4.634 1.199-6.06.338-.526-3.975-3.785-7.098-5.07-3.123-1.286-4.793-2.375-4.607-2.477m33.33 2.641c.172.125-.157 2.553-.346 2.412-.22-.107.256-2.516.346-2.412m1.629.313c.081.08-1.097 2.461-1.285 2.32-.313-.232 1.104-2.47 1.285-2.32"/><g fill="#00E676" fill-rule="evenodd" stroke="#00E676"><g stroke-width=".152"><path d="m34.2 28.532c-.034-.12 2.131-1.429 2.444-1.128.564.205-2.425 1.28-2.444 1.128z"/><path d="m35.24 29.723c-.191-.115 1.296-1.849 1.661-1.661.533.529-1.686 1.702-1.661 1.661z"/></g><ellipse ry=".644" rx=".565" cy="24.901" cx="34.687" stroke-width=".141"/><path d="m33.417 24.648c-.562.397.309 2.647 1.741 1.333-1.125.033-1.501-.296-1.741-1.333z" stroke-width=".152"/></g></svg>