<?xml version="1.0" encoding="UTF-8" standalone="no"?>
<svg
   xmlns:dc="http://purl.org/dc/elements/1.1/"
   xmlns:cc="http://creativecommons.org/ns#"
   xmlns:rdf="http://www.w3.org/1999/02/22-rdf-syntax-ns#"
   xmlns:svg="http://www.w3.org/2000/svg"
   xmlns="http://www.w3.org/2000/svg"
   xmlns:sodipodi="http://sodipodi.sourceforge.net/DTD/sodipodi-0.dtd"
   xmlns:inkscape="http://www.inkscape.org/namespaces/inkscape"
   fill="#00E676"
   width="48"
   height="48"
   viewBox="0 0 48 48"
   id="svg2"
   version="1.1"
   inkscape:version="0.91 r13725"
   sodipodi:docname="xfce-sensors.svg">
  <metadata
     id="metadata10">
    <rdf:RDF>
      <cc:Work
         rdf:about="">
        <dc:format>image/svg+xml</dc:format>
        <dc:type
           rdf:resource="http://purl.org/dc/dcmitype/StillImage" />
      </cc:Work>
    </rdf:RDF>
  </metadata>
  <defs
     id="defs8" />
  <sodipodi:namedview
     pagecolor="#ffffff"
     bordercolor="#666666"
     borderopacity="1"
     objecttolerance="10"
     gridtolerance="10"
     guidetolerance="10"
     inkscape:pageopacity="0"
     inkscape:pageshadow="2"
     inkscape:window-width="1366"
     inkscape:window-height="713"
     id="namedview6"
     showgrid="false"
     inkscape:snap-bbox="true"
     inkscape:bbox-nodes="true"
     inkscape:snap-page="true"
     inkscape:zoom="4.415373763398262"
     inkscape:cx="7.214316221936492"
     inkscape:cy="6.269090938716875"
     inkscape:window-x="0"
     inkscape:window-y="31"
     inkscape:window-maximized="1"
     inkscape:current-layer="svg2" />
  <path
     id="path4140"
     style="fill:#00E676"
     d="m 25.12500000000002,16 c 0,0 0.555,1.9875 0.555,3.6 0,1.545 -1.01250000000001,2.80125000000001 -2.56125000000001,2.80125000000001 -1.54875000000001,0 -2.71875,-1.25250000000001 -2.71875,-2.80125000000001 l 0.01875,-0.27 C 18.91125000000001,21.13375 18,23.45875 18,25.99750000000001 c 0,3.31499999999999 2.685,6 6,6 3.315,0 6,-2.68500000000001 6,-6 C 30,21.95125 28.05375,18.34375 25.125,16 Z m -1.3425,13.74750000000001 C 22.44750000000002,29.74750000000001 21.36375,28.69375 21.36375,27.3925 c 0,-1.21875 0.78375,-2.07375 2.11125000000002,-2.34000000000001 1.32749999999998,-0.26625 2.7,-0.90375000000001 3.46125,-1.93125000000002 C 27.22875000000001,24.08875000000001 27.3825,25.10875 27.3825,26.1475 c 0,1.98375 -1.61249999999999,3.6 -3.60000000000001,3.6 z M 18,6 l 0,4 -4,0 c -2.21,0 -4,1.79 -4,4 l 0,4 -4,0 0,4 4,0 0,4 -4,0 0,4 4,0 0,4 c 0,2.21 1.79,4 4,4 l 4,0 0,4 4,0 0,-4 4,0 0,4 4,0 0,-4 4,0 c 2.21,0 4,-1.79 4,-4 l 0,-4 4,0 0,-4 -4,0 0,-4 4,0 0,-4 -4,0 0,-4 c 0,-2.21 -1.79,-4 -4,-4 l -4,0 0,-4 -4,0 0,4 -4,0 0,-4 -4,0 z m -4,8 20,0 0,20 -20,0 0,-20 z" />
</svg>
