<?xml version="1.0" encoding="UTF-8" standalone="no"?>
<svg
   xmlns:dc="http://purl.org/dc/elements/1.1/"
   xmlns:cc="http://creativecommons.org/ns#"
   xmlns:rdf="http://www.w3.org/1999/02/22-rdf-syntax-ns#"
   xmlns:svg="http://www.w3.org/2000/svg"
   xmlns="http://www.w3.org/2000/svg"
   xmlns:sodipodi="http://sodipodi.sourceforge.net/DTD/sodipodi-0.dtd"
   xmlns:inkscape="http://www.inkscape.org/namespaces/inkscape"
   width="48"
   height="48"
   viewBox="0 0 48 48"
   id="svg2"
   version="1.1"
   inkscape:version="0.91 r13725"
   sodipodi:docname="gpm-keyboard-100.svg"
   style="fill:#795548">
  <metadata
     id="metadata10">
    <rdf:RDF>
      <cc:Work
         rdf:about="">
        <dc:format>image/svg+xml</dc:format>
        <dc:type
           rdf:resource="http://purl.org/dc/dcmitype/StillImage" />
        <dc:title></dc:title>
      </cc:Work>
    </rdf:RDF>
  </metadata>
  <defs
     id="defs8" />
  <sodipodi:namedview
     pagecolor="#ffffff"
     bordercolor="#666666"
     borderopacity="1"
     objecttolerance="10"
     gridtolerance="10"
     guidetolerance="10"
     inkscape:pageopacity="0"
     inkscape:pageshadow="2"
     inkscape:window-width="683"
     inkscape:window-height="480"
     id="namedview6"
     showgrid="false"
     fit-margin-top="0"
     fit-margin-left="0"
     fit-margin-right="0"
     fit-margin-bottom="0"
     inkscape:zoom="6.549153645833334"
     inkscape:cx="-2.903722849048162"
     inkscape:cy="13.99999999999999"
     inkscape:window-x="0"
     inkscape:window-y="30"
     inkscape:window-maximized="0"
     inkscape:current-layer="svg2" />
  <path
     d="M 40,10 8,10 C 5.79,10 4.02,11.79 4.02,14 L 4,34 c 0,2.21 1.79,4 4,4 l 32,0 c 2.21,0 4,-1.79 4,-4 l 0,-20 c 0,-2.21 -1.79,-4 -4,-4 z m -18,6 4,0 0,4 -4,0 0,-4 z m 0,6 4,0 0,4 -4,0 0,-4 z m -6,-6 4,0 0,4 -4,0 0,-4 z m 0,6 4,0 0,4 -4,0 0,-4 z m -2,4 -4,0 0,-4 4,0 0,4 z m 0,-6 -4,0 0,-4 4,0 0,4 z m 18,14 -16,0 0,-4 16,0 0,4 z m 0,-8 -4,0 0,-4 4,0 0,4 z m 0,-6 -4,0 0,-4 4,0 0,4 z m 6,6 -4,0 0,-4 4,0 0,4 z m 0,-6 -4,0 0,-4 4,0 0,4 z"
     id="path4"
     inkscape:connector-curvature="0" />
</svg>
