<svg xmlns="http://www.w3.org/2000/svg" viewBox="0 0 48 48" fill="#3F51B5"><path d="m10 6c-2.21 0-4 1.79-4 4v28c0 2.21 1.79 4 4 4h28c2.21 0 4-1.79 4-4v-28c0-2.21-1.79-4-4-4h-28m14 6c2.199 5.16 2.717 6.747 9.129 18.686-.811-.487-1.852-.923-3.305-1.301 2.114 1.085 3.149 2.087 4.143 2.857.631 1.169 1.293 2.396 2.033 3.758-3.752-2.166-6.673-3.513-9.391-4.045.091-.409.145-.852.156-1.311.06-2.437-1.11-4.515-2.611-4.643-1.502-.127-2.77 1.747-2.83 4.184l-.002.119c-.005.572.058 1.122.176 1.629-2.747.517-5.695 1.871-9.498 4.066 4.84-8.696 7.226-13.218 8.748-16.395.797.67 1.861 1.314 3.424 1.957-1.454-1.017-2.349-1.913-3.078-2.686 1.189-2.541 1.838-4.258 2.906-6.877"/></svg>