<svg xmlns="http://www.w3.org/2000/svg" viewBox="0 0 111.09 111.09"><defs><filter color-interpolation-filters="sRGB"><feGaussianBlur stdDeviation="1.71"/></filter><linearGradient gradientUnits="userSpaceOnUse" gradientTransform="scale(1.0059.99417)" y1="92.54" x2="0" y2="7.02"><stop/><stop offset="1" stop-opacity=".588"/></linearGradient></defs><g transform="matrix(1.32254 0 0 1.32254-7.935-7.935)"><g transform="matrix(.70711-.70711.70711.70711 0 0)"><rect rx="7.06" y="36.12" x="-31.761" height="63.52" width="63.52"/><rect width="60.5" height="60.5" x="-30.25" y="37.633" rx="6.722" fill="#000080"/></g><path d="m48 8c-1.718 0-3.437.658-4.754 1.975l-33.27 33.27c-2.633 2.633-2.633 6.875 0 9.508l15.248 15.246 42.777-42.777-15.246-15.248c-1.317-1.317-3.036-1.975-4.754-1.975" fill="#0f0"/><rect width="36" height="36" rx="4" transform="matrix(1.12887-1.12887 1.12887 1.12887 7.361 48)" fill="#008000"/></g><g stroke="#000"><path d="m10.623 21.43h26.434l1.61 1.613v4.949l-1.277 1.557h-2.888v24.579l24.879-24.579h-4.11l-1.444-1.557v-5.227l1.333-1.223h26.767l1.333 1.335v4.894l-60.53 62.17h-6.886l-1.993-1.152v-59.46h-3.338l-1.222-1.223v-5.227l1.333-1.446z" fill="#c0c0c0" stroke-width="4.401"/><g stroke-width=".22"><g fill="#fff"><path d="m37.34 23.946l1.492-.786-1.531-1.534h-26.663l-1.355 1.357v5.131l1.502 1.504.717-1.504-.942-.944v-3.618l.707-.629h25.446l.628 1.022z"/><path d="m15.621 27.992v60.06l.777.89-.61 1.164-1.723-1.72v-58.834z"/></g><path d="m11.314 27.992l-.444 1.446h3.221l1.777-1.446h-4.554z" fill="#808080"/><path d="m55.56 29.616l.707-1.455-1.021-.944v-3.224l1.178-1.18h24.582l.942 1.258 1.335-.944-1.374-1.376h-26.428l-1.315 1.317v5.171l1.365 1.288m-21.357 24.828l-2.567 6.237 28.98-29.1v-3.46l-26.413 26.321z" fill="#fff"/><g fill="#808080"><path d="m37.28 23.766l1.277-.834v5.06l-1.472 1.474h-2.86v24.941l-2.61 6.173v-32.587h4.776l.889-.723v-3.503z"/><path d="m81.948 23.789l1.341-.776v4.865l-60.842 62.25h-6.459l.617-1.228h4.948l60.32-62.36z"/><path d="m60.47 28.08l-1.361 1.418h-3.554l.833-1.418c.028 0 4.082 0 4.082 0z"/></g></g><g transform="matrix(.2199 0 0 .2202-41.957-60.14)" fill="#c0c0c0" stroke-miterlimit="10"><path d="m400.03125 559.98633a1.23301 1.23301 0 0 0 -.802734 .296875l-5.313 4.563a1.23301 1.23301 0 0 0 -.357422 .521484l-5.313 14.875a1.23301 1.23301 0 0 0 .289063 1.285156l4.063 4.063a1.23301 1.23301 0 0 0 .871094 .361328h16.406a1.23301 1.23301 0 0 0 .875 -.363281l4.281-4.313a1.23301 1.23301 0 0 0 .308594 -.523438l4.563-15.656a1.23301 1.23301 0 0 0 -.3125 -1.216797l-3.531-3.531A1.23301 1.23301 0 0 0 415.1875 559.98633h-15.16zm-30.0625 41.9375a1.23301 1.23301 0 0 0 -1.195313 .931641l-2.031 8.06a1.23301 1.23301 0 0 0 1.195313 1.533203h9.637l-23.926 68.33a1.23301 1.23301 0 0 0 1.164063 1.640625h34.844a1.23301 1.23301 0 0 0 1.177734 -.867188l2.281-7.344A1.23301 1.23301 0 0 0 391.9375 672.61133h-7.867l23.689-69.05a1.23301 1.23301 0 0 0 -1.166016 -1.632813h-36.625zm110.875.25a1.23301 1.23301 0 0 0 -.923828 .416016l-7.227 8.178h-11.545l-7.699-7.969a1.23301 1.23301 0 0 0 -.886719 -.375h-27.531a1.23301 1.23301 0 0 0 -1.169922 .841797l-2.531 7.563A1.23301 1.23301 0 0 0 422.5 612.45117h7.373l-22.947 67.59a1.23301 1.23301 0 0 0 1.167969 1.628906h29.31a1.23301 1.23301 0 0 0 1.166016 -.833984l2.25-6.594A1.23301 1.23301 0 0 0 439.65625 672.61133h-5.127l14.623-46h26.482l-16.688 53.46A1.23301 1.23301 0 0 0 460.125 681.66992h28.28a1.23301 1.23301 0 0 0 1.138672 -.757813l2.531-6.06A1.23301 1.23301 0 0 0 490.9375 673.14258h-5.127l14.873-46.785h25.2l-16.932 53.709A1.23301 1.23301 0 0 0 510.125 681.66992h31.06a1.23301 1.23301 0 0 0 1.150391 -.791016l2.531-6.594A1.23301 1.23301 0 0 0 543.71875 672.61133h-6.174l18.727-60.779a1.23301 1.23301 0 0 0 -.189453 -1.099609l-5.813-7.813a1.23301 1.23301 0 0 0 -.988281 -.496094h-22.22a1.23301 1.23301 0 0 0 -.912109 .402344l-6.977 7.66h-12.287l-7.227-7.912A1.23301 1.23301 0 0 0 498.75 602.17383h-17.906z" stroke-width="8"/><path d="m400.03 561.22l-5.313 4.563-5.313 14.875 4.063 4.063h16.406l4.281-4.313 4.563-15.656-3.531-3.531h-15.16zm-30.06 41.938l-2.031 8.06h11.375l-24.5 69.969h34.844l2.281-7.344h-9.594l24.25-70.69h-36.625zm110.88.25l-7.594 8.594h-12.625l-8.06-8.344h-27.531l-2.531 7.563h9.09l-23.5 69.22h29.31l2.25-6.594h-6.813l15.406-48.47h29.06l-17.188 55.06h28.28l2.531-6.06h-6.813l15.656-49.25h27.781l-17.438 55.31h31.06l2.531-6.594h-7.844l19.219-62.37-5.813-7.813h-22.22l-7.344 8.06h-13.375l-7.594-8.313h-17.906z"/></g></g></svg>