<?xml version="1.0" encoding="UTF-8" standalone="no"?>
<svg
   xmlns:dc="http://purl.org/dc/elements/1.1/"
   xmlns:cc="http://creativecommons.org/ns#"
   xmlns:rdf="http://www.w3.org/1999/02/22-rdf-syntax-ns#"
   xmlns:svg="http://www.w3.org/2000/svg"
   xmlns="http://www.w3.org/2000/svg"
   xmlns:sodipodi="http://sodipodi.sourceforge.net/DTD/sodipodi-0.dtd"
   xmlns:inkscape="http://www.inkscape.org/namespaces/inkscape"
   width="18"
   height="18"
   viewBox="0 0 18 18"
   id="svg2"
   version="1.1"
   inkscape:version="0.91 r13725"
   sodipodi:docname="preferences-desktop-keyboard-shortcuts1.svg"
   style="fill:#4caf50">
  <metadata
     id="metadata10">
    <rdf:RDF>
      <cc:Work
         rdf:about="">
        <dc:format>image/svg+xml</dc:format>
        <dc:type
           rdf:resource="http://purl.org/dc/dcmitype/StillImage" />
        <dc:title></dc:title>
      </cc:Work>
    </rdf:RDF>
  </metadata>
  <defs
     id="defs8" />
  <sodipodi:namedview
     pagecolor="#ffffff"
     bordercolor="#666666"
     borderopacity="1"
     objecttolerance="10"
     gridtolerance="10"
     guidetolerance="10"
     inkscape:pageopacity="0"
     inkscape:pageshadow="2"
     inkscape:window-width="1366"
     inkscape:window-height="713"
     id="namedview6"
     showgrid="false"
     inkscape:snap-bbox="true"
     inkscape:bbox-nodes="true"
     inkscape:zoom="5.208627810663323"
     inkscape:cx="22.57121480708622"
     inkscape:cy="8.897437951881916"
     inkscape:window-x="0"
     inkscape:window-y="30"
     inkscape:window-maximized="1"
     inkscape:current-layer="svg2"
     inkscape:snap-page="true"
     fit-margin-top="0"
     fit-margin-left="0"
     fit-margin-right="0"
     fit-margin-bottom="0" />
  <path
     style="fill:#4caf50"
     d="M 2,0 C 0.8950000000000271,0 0,0.8950000000000208 0,2 l 0.009765625,14 c 0,0.82845763131206 0.496198976975353645,1.53810122004426 1.2109375,1.841796875 C 1.459285614531435,17.94317166184182 1.723457631312069,18 2,18 l 1,0 2,0 8,0 2,0 1,0 c 1.10499999999999,0 2,-0.89499999999999 2,-2 L 18,2 C 18,0.8950000000000208 17.105,0 16,0 L 2,0 Z M 2,2 16,2 16,13 2,13 2,2 Z"
     id="path4156"
     inkscape:connector-curvature="0" />
  <g
     style="fill:#4caf50;fill-opacity:1"
     id="g4139"
     transform="matrix(0.25,0,0,0.25,3.999999999999999,0.7573601872253412)">
    <path
       style="fill:#4caf50;fill-opacity:1"
       inkscape:connector-curvature="0"
       id="path4-8"
       d="m 31.11269837220811,31.11269487482957 5.65685424949238,5.6568542494924 0,-19.79898987322334 -19.79898987322336,0 5.79827560572969,5.79827560572967 C 15.69777054234136,29.83990266869378 8.48528137423858,32.52690843720267 7.105427357601002e-15,31.11269487482957 8.48528137423858,36.76954912432197 19.79898987322332,39.59797624906821 31.11269837220809,31.11269487482957 Z" />
  </g>
</svg>
