<?xml version="1.0" encoding="UTF-8" standalone="no"?>
<svg
   xmlns:dc="http://purl.org/dc/elements/1.1/"
   xmlns:cc="http://creativecommons.org/ns#"
   xmlns:rdf="http://www.w3.org/1999/02/22-rdf-syntax-ns#"
   xmlns:svg="http://www.w3.org/2000/svg"
   xmlns="http://www.w3.org/2000/svg"
   xmlns:sodipodi="http://sodipodi.sourceforge.net/DTD/sodipodi-0.dtd"
   xmlns:inkscape="http://www.inkscape.org/namespaces/inkscape"
   width="36"
   height="36"
   viewBox="0 0 36 36"
   id="svg2"
   version="1.1"
   inkscape:version="0.91 r13725"
   sodipodi:docname="xfce4-appfinder.svg"
   style="fill:#FFC107">
  <metadata
     id="metadata10">
    <rdf:RDF>
      <cc:Work
         rdf:about="">
        <dc:format>image/svg+xml</dc:format>
        <dc:type
           rdf:resource="http://purl.org/dc/dcmitype/StillImage" />
        <dc:title></dc:title>
      </cc:Work>
    </rdf:RDF>
  </metadata>
  <defs
     id="defs8" />
  <sodipodi:namedview
     pagecolor="#ffffff"
     bordercolor="#666666"
     borderopacity="1"
     objecttolerance="10"
     gridtolerance="10"
     guidetolerance="10"
     inkscape:pageopacity="0"
     inkscape:pageshadow="2"
     inkscape:window-width="1366"
     inkscape:window-height="713"
     id="namedview6"
     showgrid="false"
     inkscape:zoom="4.916666666666667"
     inkscape:cx="5"
     inkscape:cy="9"
     inkscape:window-x="0"
     inkscape:window-y="30"
     inkscape:window-maximized="1"
     inkscape:current-layer="svg2"
     fit-margin-top="0"
     fit-margin-left="0"
     fit-margin-right="0"
     fit-margin-bottom="0" />
  <path
     d="M 13.84615384615385,0 C 6.20307692307692,-1.4210854715202e-14 0,6.203076923076923 0,13.84615384615384 c -1.4210854715202e-14,7.64307692307693 6.203076923076921,13.84615384615385 13.84615384615385,13.84615384615385 2.82461538461537,0 5.44121394230769,-0.85867788461539 7.62890625,-2.29867788461538 L 32.08143028846154,36 36,32.08143028846154 25.39362980769231,21.47506009615384 c 1.44000000000003,-2.1876923076923 2.29867788461538,-4.80429086538461 2.29867788461538,-7.62890625 C 27.69230769230769,6.203076923076923 21.48923076923074,0 13.84615384615383,0 Z m 0,5.538461538461544 c 4.58307692307692,0 8.3076923076923,3.724615384615379 8.3076923076923,8.307692307692295 0,4.58307692307693 -3.72461538461538,8.30769230769231 -8.3076923076923,8.30769230769231 -4.58307692307692,0 -8.30769230769231,-3.72461538461538 -8.30769230769231,-8.30769230769231 0,-4.583076923076917 3.72461538461539,-8.307692307692295 8.30769230769231,-8.307692307692295 z"
     id="path4142"
     inkscape:connector-curvature="0" />
</svg>
