<svg height="44.468021mm" viewBox="0 0 122.536068 157.563855" width="34.582401mm" xmlns="http://www.w3.org/2000/svg" xmlns:xlink="http://www.w3.org/1999/xlink"><radialGradient id="a" cx="346.786346" cy="514.245422" gradientTransform="matrix(1 0 0 1.5816993 808.870573 -484.065588)" gradientUnits="userSpaceOnUse" r="48.528633"><stop offset="0" stop-color="#fff"/><stop offset="1" stop-color="#a94436"/></radialGradient><linearGradient id="b" gradientUnits="userSpaceOnUse" x1="1174.95648" x2="1203.401426" y1="317.357934" y2="302.459253"><stop offset="0" stop-color="#fff"/><stop offset="1" stop-color="#c0815e"/></linearGradient><g transform="translate(-1082.143703 -251.025192)"><path d="m1084.104053 406.750002s.23769-37.32232.23769-75.2629c0-73.48834-6.19225-78.96191 26.78086-78.96191h91.77881v106.00014c0 34.89428 6.52269 48.56371-30.14808 48.56371s-88.64928-.33904-88.64928-.33904z" fill="#a62c39"/><path d="m1159.773653 266.388772s5.88106 1.17621 10.97798 9.80176c5.09691 8.62555 32.14978 75.66961 32.14978 75.66961v-54.4978l-25.09251-40.77533 7.05726 8.62555 13.3304-10.97798-17.2511-1.17621z" fill="url(#b)"/><path d="m1107.628283 253.450442s38.81498 25.87666 57.63436 30.97357c18.81938 5.09692 38.42291 10.58591 38.42291 10.58591l-44.69604 109.77973 19.21146.78414 25.09251-61.94713-.78414-90.56829z" fill="url(#a)" opacity=".668224"/><path d="m1143.698763 369.111242 40.3775 38.83434-75.27177-1.58765s-2.35242-23.9163-1.56828-36.46255c.78414-12.54626 4.70485-12.54626 4.70485-12.54626z" fill="#fff" fill-opacity=".439614"/><path d="m1180.945463 407.142072-36.46256-37.63876-33.32599-12.54626-25.87665-57.63436 27.44494-45.87225-18.42732-.78414-7.44934 7.05727-2.74449 5.48899-1.96035 142.71365z" fill-opacity=".362319"/><path d="m1203.293483 347.155292s-36.85463 11.76211-58.81058 22.74009c-21.95594 10.97797-33.71806 37.63876-33.71806 37.63876s47.04846-2.35242 64.69163-1.56828 25.87666.78414 27.44494-23.9163.39207-34.89427.39207-34.89427z" fill="#83222d" opacity=".5"/><g fill="#fff"><path d="m1095.464323 370.570642v23.15625h5.90625v-6.03125l5.375 5.375h9.0625l-7.1875-7.1875s5.17087-.0835 5.5625-7.5625c0-6.86123-5.17717-7.75-11.15625-7.75zm6.1875 6.28125h5.09375v4.125h-5.09375z"/><path d="m1127.214323 370.664392c-3.23371-.0182-7.71875.28158-7.71875 6.375v16.09375h6.0625v-3.9375h5.875v3.84375h6.09375v-16.875c0-5.29295-5.88051-5.5-9.03125-5.5-.39384 0-.81929.003-1.28125 0zm-1.5625 5.8125h5.6875v6.34375h-5.6875z"/><path d="m1143.600708 370.679535h6.273128v22.151983h-6.273128z"/><path d="m1156.441053 370.973572v22.15198h15.09472v-5.88105h-8.9196v-16.36895z"/><path d="m1191.531363 370.777532v5.97908h-10.09581v2.15639h4.31277c2.25441 0 6.95925-.098 6.95925 6.95925 0 7.05727-3.23458 7.44934-9.80176 7.44934s-7.93942 0-7.93942 0v-5.39097h9.11563c2.7445 0 2.89586-.89341 2.89586-1.67192 0-.77852-1.40319-1.14064-4.2569-1.14064s-8.14667-1.4022-8.14667-6.89119c0-5.48898 2.7445-7.54735 8.23349-7.54735 5.48898 0 8.72356.098 8.72356.098z"/><path d="m1100.963083 364.014322h52.14538s-11.56608-26.26872-8.62556-50.38106c2.94053-24.11233 21.95595-35.09031 32.73789-36.26652s16.663 5.48899 16.663 5.48899l2.35242-3.52863s-15.48679-15.68282-35.09031-13.91851c-19.60352 1.76432-33.12996 14.70265-41.55947 30.38547-8.42952 15.68282-13.3304 26.66079-16.663 43.12775s-1.96035 25.09251-1.96035 25.09251z"/><path d="m1090.573213 337.745602 10.19384.78414-1.76432 10.19383-9.60573-1.17621z"/><path d="m1106.648103 316.181722 2.7445-7.64537-9.01762-3.52864-2.94053 8.23348z"/><path d="m1119.390393 289.913002 5.29296-6.27313-6.86124-4.50881-5.48898 6.07709z"/><path d="m1133.308903 265.604632 4.70484 5.68502 6.46916-3.72467-4.70484-5.29295z"/><path d="m1156.245023 259.135472 1.17621 5.68502 8.03745-.19604-.78415-5.09691z"/><path d="m1183.493923 265.212562-.19604 3.52863 5.48899 2.94053 1.17621-1.76432z"/><path d="m1182.317713 280.307272v2.94053l5.29295.58811v-2.35243z"/><path d="m1165.458683 282.855732 2.54845 4.70485 3.72467-2.94053-.78414-3.13657z"/><path d="m1157.421233 288.932822 3.92071 5.88106-2.35243 4.11674-5.68502-6.27313z"/><path d="m1149.579823 305.203752-2.54846 5.09691 6.6652 5.68503 1.56828-6.46917z"/><path d="m1146.835333 323.042952-.39207 6.86124 8.23348 3.52863-.39207-6.46916z"/><path d="m1149.187753 347.351322 1.96035 7.05727 10.38987.58811-3.72467-7.64538z"/></g><path d="m1084.104053 406.750002s.23769-37.32232.23769-75.2629c0-73.48834-6.19225-78.96191 26.78086-78.96191h91.77881v106.00014c0 34.89428 4.9544 48.56371-30.14808 48.56371s-88.64928-.33904-88.64928-.33904z" fill="none" stroke="#5e000e" stroke-width="3"/></g></svg>