<svg xmlns="http://www.w3.org/2000/svg" viewBox="0 0 48.00000037208984 48.00000100723402"><g transform="translate(-284.1-940.69)"><path d="m308.04 944.69l-18.821 6.623 2.974 24.657 15.866 8.72 15.948-8.838 2.973-24.656-18.94-6.506" fill="#b2b2b2"/><path d="m325.11 952.62l-17.11-5.834v35.82l14.337-7.934 2.77-22.05" fill="#b52e31"/><path d="m291.33 952.72l2.549 22.05 14.12 7.828v-35.821l-16.664 5.94" fill="#e23237"/><path d="m311.96 964.6l-3.934-8.216-3.464 8.216h7.398m1.5 3.454h-10.428l-2.333 5.836-4.34.08 11.636-25.886 12.04 25.886h-4.02l-2.554-5.916" fill="#f2f2f2"/><path d="m308 948.09l.031 8.3 3.93 8.222h-3.952l-.009 3.443 5.465.005 2.555 5.917 4.153.077-12.172-25.964" fill="#b2b2b2"/></g></svg>