<?xml version="1.0" encoding="UTF-8" standalone="no"?>
<svg
   xmlns:dc="http://purl.org/dc/elements/1.1/"
   xmlns:cc="http://creativecommons.org/ns#"
   xmlns:rdf="http://www.w3.org/1999/02/22-rdf-syntax-ns#"
   xmlns:svg="http://www.w3.org/2000/svg"
   xmlns="http://www.w3.org/2000/svg"
   xmlns:sodipodi="http://sodipodi.sourceforge.net/DTD/sodipodi-0.dtd"
   xmlns:inkscape="http://www.inkscape.org/namespaces/inkscape"
   fill="#E91E63"
   width="48"
   height="48"
   viewBox="0 0 48 48"
   id="svg2"
   version="1.1"
   inkscape:version="0.91 r13725"
   sodipodi:docname="application-x-cd-image1.svg">
  <metadata
     id="metadata10">
    <rdf:RDF>
      <cc:Work
         rdf:about="">
        <dc:format>image/svg+xml</dc:format>
        <dc:type
           rdf:resource="http://purl.org/dc/dcmitype/StillImage" />
        <dc:title></dc:title>
      </cc:Work>
    </rdf:RDF>
  </metadata>
  <defs
     id="defs8" />
  <sodipodi:namedview
     pagecolor="#ffffff"
     bordercolor="#666666"
     borderopacity="1"
     objecttolerance="10"
     gridtolerance="10"
     guidetolerance="10"
     inkscape:pageopacity="0"
     inkscape:pageshadow="2"
     inkscape:window-width="1366"
     inkscape:window-height="713"
     id="namedview6"
     showgrid="false"
     inkscape:zoom="6.9532167"
     inkscape:cx="38.537465"
     inkscape:cy="11.23216"
     inkscape:window-x="0"
     inkscape:window-y="30"
     inkscape:window-maximized="1"
     inkscape:current-layer="svg2" />
  <path
     id="path4179"
     style="fill:#E91E63"
     d="m 24,18.994141 c -2.764438,0 -5.005859,2.241421 -5.005859,5.005859 0,2.764438 2.241421,5.005859 5.005859,5.005859 2.764438,0 5.005859,-2.241421 5.005859,-5.005859 0,-2.764438 -2.241421,-5.005859 -5.005859,-5.005859 z m 0,3.892578 c 0.611848,0 1.113281,0.501433 1.113281,1.113281 0,0.611848 -0.501433,1.113281 -1.113281,1.113281 -0.611848,0 -1.113281,-0.501433 -1.113281,-1.113281 0,-0.611848 0.501433,-1.113281 1.113281,-1.113281 z M 10,6 C 7.79,6 6,7.79 6,10 l 0,28 c 0,2.21 1.79,4 4,4 l 28,0 c 2.21,0 4,-1.79 4,-4 L 42,10 C 42,7.79 40.21,6 38,6 L 10,6 Z m 14,6.875 c 6.146286,0 11.125,4.978714 11.125,11.125 0,6.146286 -4.978714,11.125 -11.125,11.125 -6.146286,0 -11.125,-4.978714 -11.125,-11.125 0,-6.146286 4.978714,-11.125 11.125,-11.125 z" />
</svg>
