<?xml version="1.0" encoding="UTF-8" standalone="no"?>
<svg
   xmlns:dc="http://purl.org/dc/elements/1.1/"
   xmlns:cc="http://creativecommons.org/ns#"
   xmlns:rdf="http://www.w3.org/1999/02/22-rdf-syntax-ns#"
   xmlns:svg="http://www.w3.org/2000/svg"
   xmlns="http://www.w3.org/2000/svg"
   xmlns:sodipodi="http://sodipodi.sourceforge.net/DTD/sodipodi-0.dtd"
   xmlns:inkscape="http://www.inkscape.org/namespaces/inkscape"
   fill="#E91E63"
   width="48"
   height="48"
   viewBox="0 0 48 48"
   id="svg2"
   version="1.1"
   inkscape:version="0.91 r13725"
   sodipodi:docname="text-x-javascript6.svg">
  <metadata
     id="metadata10">
    <rdf:RDF>
      <cc:Work
         rdf:about="">
        <dc:format>image/svg+xml</dc:format>
        <dc:type
           rdf:resource="http://purl.org/dc/dcmitype/StillImage" />
        <dc:title></dc:title>
      </cc:Work>
    </rdf:RDF>
  </metadata>
  <defs
     id="defs8" />
  <sodipodi:namedview
     pagecolor="#ffffff"
     bordercolor="#666666"
     borderopacity="1"
     objecttolerance="10"
     gridtolerance="10"
     guidetolerance="10"
     inkscape:pageopacity="0"
     inkscape:pageshadow="2"
     inkscape:window-width="1366"
     inkscape:window-height="713"
     id="namedview6"
     showgrid="false"
     inkscape:zoom="4.9166667"
     inkscape:cx="9.7903658"
     inkscape:cy="19.143365"
     inkscape:window-x="0"
     inkscape:window-y="30"
     inkscape:window-maximized="1"
     inkscape:current-layer="svg2"
     inkscape:snap-bbox="true"
     inkscape:bbox-paths="true"
     inkscape:bbox-nodes="true"
     inkscape:snap-bbox-edge-midpoints="true"
     inkscape:snap-bbox-midpoints="true" />
  <path
     style="fill:#f7df1e;fill-opacity:1"
     inkscape:connector-curvature="0"
     d="M 28,4 12,4 C 9.79,4 8.02,5.79 8.02,8 L 8,40 c 0,2.21 1.77,4 3.98,4 L 36,44 c 2.21,0 4,-1.79 4,-4 L 40,16 28,4 Z m 4,32 -16,0 0,-4 16,0 0,4 z m 0,-8 -16,0 0,-4 16,0 0,4 z M 26,18 26,7 37,18 26,18 Z"
     id="path4198" />
  <path
     style="fill:#000000;fill-opacity:1"
     d="m 19.851561,22.686047 0,1.560547 1.779297,0 0,-1.560547 -1.779297,0 z m 6.744141,3.355469 c -0.917969,0 -1.657226,0.234375 -2.21875,0.703125 -0.561523,0.46875 -0.841797,1.035156 -0.841797,1.699218 0,0.634766 0.241211,1.136719 0.72461,1.507813 0.488281,0.366211 1.207031,0.649414 2.154296,0.849609 0.63965,0.136719 1.076172,0.295899 1.310547,0.476563 0.234375,0.180664 0.351563,0.408203 0.351563,0.681641 0,0.297851 -0.124024,0.533203 -0.373047,0.708984 -0.249023,0.175782 -0.603516,0.263672 -1.0625,0.263672 -0.449219,0 -0.830078,-0.104492 -1.142578,-0.314453 -0.3125,-0.209961 -0.478517,-0.544922 -0.498047,-1.003907 l -1.65625,0 -0.01367,0.04492 c -0.0293,0.683594 0.253905,1.289063 0.84961,1.816406 0.595703,0.527344 1.409179,0.791016 2.439453,0.791016 0.961914,0 1.734375,-0.22168 2.320312,-0.666016 0.59082,-0.444335 0.886719,-1.023437 0.886719,-1.736328 0,-0.644531 -0.241211,-1.152343 -0.72461,-1.523437 -0.478515,-0.375977 -1.216796,-0.667969 -2.21289,-0.873047 -0.649414,-0.126953 -1.080078,-0.270508 -1.294922,-0.431641 -0.209961,-0.166015 -0.316406,-0.387695 -0.316406,-0.666015 0,-0.278321 0.113281,-0.512696 0.33789,-0.703125 0.22461,-0.195309 0.550782,-0.292969 0.980469,-0.292969 0.43457,0 0.776372,0.117186 1.025391,0.351562 0.249023,0.234376 0.375,0.514649 0.375,0.841797 l 1.705078,0 0.01563,-0.04297 c 0.02441,-0.703125 -0.249024,-1.291993 -0.820313,-1.765625 -0.566406,-0.478516 -1.333984,-0.716797 -2.300781,-0.716797 z m -6.701172,0.144531 0,8.386719 c 0,0.439453 -0.08789,0.761719 -0.263672,0.966797 -0.170898,0.209961 -0.408203,0.314453 -0.710937,0.314453 -0.102539,0 -0.213867,-0.0078 -0.335938,-0.02734 -0.12207,-0.01464 -0.225583,-0.03418 -0.308593,-0.05859 L 18.173827,37.188 c 0.15625,0.04394 0.305664,0.07617 0.447266,0.0957 0.141601,0.0195 0.298828,0.0293 0.474609,0.0293 0.810547,0 1.444336,-0.240234 1.898438,-0.71875 0.454101,-0.473633 0.679687,-1.147461 0.679687,-2.021484 l 0,-8.386719 -1.779297,0 z"
     id="path4137"
     inkscape:connector-curvature="0" />
</svg>
