<?xml version="1.0" encoding="UTF-8" standalone="no"?>
<svg
   xmlns:dc="http://purl.org/dc/elements/1.1/"
   xmlns:cc="http://creativecommons.org/ns#"
   xmlns:rdf="http://www.w3.org/1999/02/22-rdf-syntax-ns#"
   xmlns:svg="http://www.w3.org/2000/svg"
   xmlns="http://www.w3.org/2000/svg"
   xmlns:xlink="http://www.w3.org/1999/xlink"
   xmlns:sodipodi="http://sodipodi.sourceforge.net/DTD/sodipodi-0.dtd"
   xmlns:inkscape="http://www.inkscape.org/namespaces/inkscape"
   fill="#E91E63"
   width="48"
   height="48"
   viewBox="0 0 48 48"
   id="svg2"
   version="1.1"
   inkscape:version="0.91 r13725"
   sodipodi:docname="text-x-python.svg">
  <metadata
     id="metadata10">
    <rdf:RDF>
      <cc:Work
         rdf:about="">
        <dc:format>image/svg+xml</dc:format>
        <dc:type
           rdf:resource="http://purl.org/dc/dcmitype/StillImage" />
        <dc:title />
      </cc:Work>
    </rdf:RDF>
  </metadata>
  <defs
     id="defs8">
    <linearGradient
       id="linearGradient2795">
      <stop
         id="stop2797"
         offset="0"
         style="stop-color:#b8b8b8;stop-opacity:0.49803922;" />
      <stop
         id="stop2799"
         offset="1"
         style="stop-color:#7f7f7f;stop-opacity:0;" />
    </linearGradient>
    <linearGradient
       id="linearGradient2787">
      <stop
         id="stop2789"
         offset="0"
         style="stop-color:#7f7f7f;stop-opacity:0.5;" />
      <stop
         id="stop2791"
         offset="1"
         style="stop-color:#7f7f7f;stop-opacity:0;" />
    </linearGradient>
    <linearGradient
       id="linearGradient3676">
      <stop
         id="stop3678"
         offset="0"
         style="stop-color:#b2b2b2;stop-opacity:0.5;" />
      <stop
         id="stop3680"
         offset="1"
         style="stop-color:#b3b3b3;stop-opacity:0;" />
    </linearGradient>
    <linearGradient
       id="linearGradient3236">
      <stop
         id="stop3244"
         offset="0"
         style="stop-color:#f4f4f4;stop-opacity:1" />
      <stop
         id="stop3240"
         offset="1"
         style="stop-color:white;stop-opacity:1" />
    </linearGradient>
    <linearGradient
       id="linearGradient4671">
      <stop
         id="stop4673"
         offset="0"
         style="stop-color:#ffd43b;stop-opacity:1;" />
      <stop
         id="stop4675"
         offset="1"
         style="stop-color:#ffe873;stop-opacity:1" />
    </linearGradient>
    <linearGradient
       id="linearGradient4689">
      <stop
         id="stop4691"
         offset="0"
         style="stop-color:#5a9fd4;stop-opacity:1;" />
      <stop
         id="stop4693"
         offset="1"
         style="stop-color:#306998;stop-opacity:1;" />
    </linearGradient>
    <linearGradient
       gradientTransform="translate(100.2702,99.61116)"
       gradientUnits="userSpaceOnUse"
       xlink:href="#linearGradient4671"
       id="linearGradient2987"
       y2="144.75717"
       x2="-65.308502"
       y1="144.75717"
       x1="224.23996" />
    <linearGradient
       gradientTransform="translate(100.2702,99.61116)"
       gradientUnits="userSpaceOnUse"
       xlink:href="#linearGradient4689"
       id="linearGradient2990"
       y2="76.313133"
       x2="26.670298"
       y1="77.475983"
       x1="172.94208" />
    <linearGradient
       y2="144.75717"
       x2="-65.308502"
       y1="144.75717"
       x1="224.23996"
       gradientTransform="matrix(0.562541,0,0,0.567972,-11.5974,-7.60954)"
       gradientUnits="userSpaceOnUse"
       id="linearGradient2255"
       xlink:href="#linearGradient4671"
       inkscape:collect="always" />
    <linearGradient
       y2="76.313133"
       x2="26.670298"
       y1="76.176224"
       x1="172.94208"
       gradientTransform="matrix(0.562541,0,0,0.567972,-11.5974,-7.60954)"
       gradientUnits="userSpaceOnUse"
       id="linearGradient2258"
       xlink:href="#linearGradient4689"
       inkscape:collect="always" />
    <radialGradient
       gradientUnits="userSpaceOnUse"
       gradientTransform="matrix(1,0,0,0.177966,0,108.7434)"
       r="29.036913"
       fy="132.28575"
       fx="61.518883"
       cy="132.28575"
       cx="61.518883"
       id="radialGradient2801"
       xlink:href="#linearGradient2795"
       inkscape:collect="always" />
  </defs>
  <sodipodi:namedview
     pagecolor="#ffffff"
     bordercolor="#666666"
     borderopacity="1"
     objecttolerance="10"
     gridtolerance="10"
     guidetolerance="10"
     inkscape:pageopacity="0"
     inkscape:pageshadow="2"
     inkscape:window-width="1366"
     inkscape:window-height="713"
     id="namedview6"
     showgrid="false"
     inkscape:zoom="13.906433"
     inkscape:cx="20.336688"
     inkscape:cy="30.65518"
     inkscape:window-x="0"
     inkscape:window-y="30"
     inkscape:window-maximized="1"
     inkscape:current-layer="svg2"
     inkscape:snap-bbox="true"
     inkscape:bbox-paths="true"
     inkscape:bbox-nodes="true"
     inkscape:snap-bbox-edge-midpoints="false"
     inkscape:snap-bbox-midpoints="false"
     inkscape:snap-object-midpoints="false"
     inkscape:snap-others="false"
     inkscape:snap-nodes="false" />
  <path
     d="m -60.40678,37.355932 c -2.21,0 -3.980469,1.79 -3.980469,4 l -0.0098,15.935547 14.160156,0 0,0.06445 9.830078,0 0,4 -7.695312,0 0,4 7.695312,0 0,4 -7.695312,0 0,4.244141 -2.134766,0 0,3.755859 13.830078,0 c 2.21,0 4,-1.79 4,-4 l 0,-24 -12,-12 -16,0 z m 14,3 11,11 -11,0 0,-11 z m -15.007812,13.257812 c 0.369635,0 0.70588,0.152692 0.949218,0.400391 0.243339,0.247699 0.394531,0.589577 0.394532,0.966797 -3e-6,0.375882 -0.151193,0.716942 -0.394532,0.962891 -0.243338,0.245948 -0.579583,0.396484 -0.949218,0.396484 -0.370965,0 -0.706212,-0.150536 -0.949219,-0.396484 -0.243008,-0.245949 -0.394531,-0.587008 -0.394531,-0.962891 0,-0.377219 0.151523,-0.719098 0.394531,-0.966797 0.243007,-0.247699 0.578256,-0.400391 0.949219,-0.400391 z"
     id="path4781"
     inkscape:connector-curvature="0" />
  <path
     style="fill:#E91E63"
     d="M 12 4 C 9.79 4 8.0195313 5.79 8.0195312 8 L 8 40 C 8 42.21 9.7704674 44 11.980469 44 L 36 44 C 38.21 44 40 42.21 40 40 L 40 16 L 28 4 L 12 4 z M 26 7 L 37 18 L 26 18 L 26 7 z M 20.666016 21.087891 C 20.970597 21.087891 21.246754 21.213863 21.447266 21.417969 C 21.647779 21.622074 21.773437 21.904012 21.773438 22.214844 C 21.773436 22.524573 21.647779 22.805149 21.447266 23.007812 C 21.246754 23.210476 20.970599 23.333984 20.666016 23.333984 C 20.360341 23.333984 20.083053 23.210476 19.882812 23.007812 C 19.682572 22.805149 19.558594 22.524573 19.558594 22.214844 C 19.558594 21.904013 19.682574 21.622074 19.882812 21.417969 C 20.083053 21.213863 20.360341 21.087891 20.666016 21.087891 z M 18.087891 23.972656 L 28.119141 23.972656 L 28.119141 25.583984 L 32 25.583984 L 32 37.556641 L 29.875 37.556641 L 29.875 39.25 L 19.84375 39.25 L 19.84375 37.556641 L 16 37.556641 L 16 25.583984 L 18.087891 25.583984 L 18.087891 23.972656 z M 18.087891 25.583984 L 18.087891 26.75 L 28.119141 26.75 L 28.119141 25.583984 L 18.087891 25.583984 z M 19.84375 37.556641 L 29.875 37.556641 L 29.875 36.472656 L 19.84375 36.472656 L 19.84375 37.556641 z M 27.296875 39.802734 C 27.908226 39.802734 28.404297 40.306324 28.404297 40.925781 C 28.404296 41.547441 27.908226 42.052734 27.296875 42.052734 C 26.687707 42.052734 26.191407 41.547441 26.191406 40.925781 C 26.191407 40.306324 26.687706 39.802734 27.296875 39.802734 z "
     id="path4190" />
  <path
     style="opacity:1;fill:#3776ab;fill-opacity:1;stroke:none"
     d="M 23.855469 19.279297 C 22.847286 19.283997 21.884267 19.371576 21.037109 19.521484 C 18.541489 19.962379 18.087891 20.884083 18.087891 22.585938 L 18.087891 24.833984 L 23.986328 24.833984 L 23.986328 25.583984 L 18.087891 25.583984 L 15.875 25.583984 C 14.161034 25.583984 12.658883 26.61444 12.189453 28.574219 C 11.647971 30.820579 11.623953 32.220845 12.189453 34.566406 C 12.608665 36.312351 13.610253 37.55664 15.324219 37.556641 L 17.351562 37.556641 L 17.351562 34.863281 C 17.351562 32.916728 19.03712 31.199219 21.037109 31.199219 L 26.927734 31.199219 C 28.567463 31.199219 29.875001 29.847915 29.875 28.201172 L 29.875 22.585938 C 29.875 20.987693 28.528162 19.788225 26.927734 19.521484 C 25.914639 19.352842 24.863651 19.274612 23.855469 19.279297 z M 20.666016 21.087891 C 20.970597 21.087891 21.246754 21.213863 21.447266 21.417969 C 21.647779 21.622074 21.773437 21.904012 21.773438 22.214844 C 21.773436 22.524573 21.647779 22.805149 21.447266 23.007812 C 21.246754 23.210476 20.970599 23.333984 20.666016 23.333984 C 20.360341 23.333984 20.083053 23.210476 19.882812 23.007812 C 19.682572 22.805149 19.558594 22.524573 19.558594 22.214844 C 19.558594 21.904013 19.682574 21.622074 19.882812 21.417969 C 20.083053 21.213863 20.360341 21.087891 20.666016 21.087891 z "
     id="path4263" />
  <path
     style="opacity:1;fill:#ffd343;fill-opacity:1;stroke:none"
     d="M 30.611328 25.583984 L 30.611328 28.201172 C 30.611328 30.231493 28.890607 31.939453 26.927734 31.939453 L 21.037109 31.939453 C 19.42358 31.939453 18.087891 33.323573 18.087891 34.939453 L 18.087891 40.552734 C 18.087891 42.150978 19.478165 43.092251 21.037109 43.550781 C 22.903913 44.099695 24.69412 44.198897 26.927734 43.550781 C 28.412442 43.120909 29.875001 42.254587 29.875 40.552734 L 29.875 38.304688 L 23.986328 38.304688 L 23.986328 37.556641 L 29.875 37.556641 L 32.824219 37.556641 C 34.538184 37.556641 35.177371 36.360848 35.773438 34.566406 C 36.389156 32.719055 36.362957 30.944029 35.773438 28.574219 C 35.349858 26.867956 34.540364 25.583984 32.824219 25.583984 L 30.611328 25.583984 z M 27.296875 39.802734 C 27.908226 39.802734 28.404297 40.306324 28.404297 40.925781 C 28.404296 41.547441 27.908226 42.052734 27.296875 42.052734 C 26.687707 42.052734 26.191407 41.547441 26.191406 40.925781 C 26.191407 40.306324 26.687706 39.802734 27.296875 39.802734 z "
     id="path4242" />
</svg>
