<?xml version="1.0" encoding="UTF-8" standalone="no"?>
<svg
   xmlns:dc="http://purl.org/dc/elements/1.1/"
   xmlns:cc="http://creativecommons.org/ns#"
   xmlns:rdf="http://www.w3.org/1999/02/22-rdf-syntax-ns#"
   xmlns:svg="http://www.w3.org/2000/svg"
   xmlns="http://www.w3.org/2000/svg"
   xmlns:xlink="http://www.w3.org/1999/xlink"
   xmlns:sodipodi="http://sodipodi.sourceforge.net/DTD/sodipodi-0.dtd"
   xmlns:inkscape="http://www.inkscape.org/namespaces/inkscape"
   fill="#E91E63"
   width="48"
   height="48"
   viewBox="0 0 48 48"
   id="svg2"
   version="1.1"
   inkscape:version="0.91 r13725"
   sodipodi:docname="text-x-python3.svg">
  <metadata
     id="metadata10">
    <rdf:RDF>
      <cc:Work
         rdf:about="">
        <dc:format>image/svg+xml</dc:format>
        <dc:type
           rdf:resource="http://purl.org/dc/dcmitype/StillImage" />
        <dc:title />
      </cc:Work>
    </rdf:RDF>
  </metadata>
  <defs
     id="defs8">
    <linearGradient
       id="linearGradient2795">
      <stop
         id="stop2797"
         offset="0"
         style="stop-color:#b8b8b8;stop-opacity:0.49803922;" />
      <stop
         id="stop2799"
         offset="1"
         style="stop-color:#7f7f7f;stop-opacity:0;" />
    </linearGradient>
    <linearGradient
       id="linearGradient2787">
      <stop
         id="stop2789"
         offset="0"
         style="stop-color:#7f7f7f;stop-opacity:0.5;" />
      <stop
         id="stop2791"
         offset="1"
         style="stop-color:#7f7f7f;stop-opacity:0;" />
    </linearGradient>
    <linearGradient
       id="linearGradient3676">
      <stop
         id="stop3678"
         offset="0"
         style="stop-color:#b2b2b2;stop-opacity:0.5;" />
      <stop
         id="stop3680"
         offset="1"
         style="stop-color:#b3b3b3;stop-opacity:0;" />
    </linearGradient>
    <linearGradient
       id="linearGradient3236">
      <stop
         id="stop3244"
         offset="0"
         style="stop-color:#f4f4f4;stop-opacity:1" />
      <stop
         id="stop3240"
         offset="1"
         style="stop-color:white;stop-opacity:1" />
    </linearGradient>
    <linearGradient
       id="linearGradient4671">
      <stop
         id="stop4673"
         offset="0"
         style="stop-color:#ffd43b;stop-opacity:1;" />
      <stop
         id="stop4675"
         offset="1"
         style="stop-color:#ffe873;stop-opacity:1" />
    </linearGradient>
    <linearGradient
       id="linearGradient4689">
      <stop
         id="stop4691"
         offset="0"
         style="stop-color:#5a9fd4;stop-opacity:1;" />
      <stop
         id="stop4693"
         offset="1"
         style="stop-color:#306998;stop-opacity:1;" />
    </linearGradient>
    <linearGradient
       gradientTransform="translate(100.2702,99.61116)"
       gradientUnits="userSpaceOnUse"
       xlink:href="#linearGradient4671"
       id="linearGradient2987"
       y2="144.75717"
       x2="-65.308502"
       y1="144.75717"
       x1="224.23996" />
    <linearGradient
       gradientTransform="translate(100.2702,99.61116)"
       gradientUnits="userSpaceOnUse"
       xlink:href="#linearGradient4689"
       id="linearGradient2990"
       y2="76.313133"
       x2="26.670298"
       y1="77.475983"
       x1="172.94208" />
    <linearGradient
       y2="144.75717"
       x2="-65.308502"
       y1="144.75717"
       x1="224.23996"
       gradientTransform="matrix(0.562541,0,0,0.567972,-11.5974,-7.60954)"
       gradientUnits="userSpaceOnUse"
       id="linearGradient2255"
       xlink:href="#linearGradient4671"
       inkscape:collect="always" />
    <linearGradient
       y2="76.313133"
       x2="26.670298"
       y1="76.176224"
       x1="172.94208"
       gradientTransform="matrix(0.562541,0,0,0.567972,-11.5974,-7.60954)"
       gradientUnits="userSpaceOnUse"
       id="linearGradient2258"
       xlink:href="#linearGradient4689"
       inkscape:collect="always" />
    <radialGradient
       gradientUnits="userSpaceOnUse"
       gradientTransform="matrix(1,0,0,0.177966,0,108.7434)"
       r="29.036913"
       fy="132.28575"
       fx="61.518883"
       cy="132.28575"
       cx="61.518883"
       id="radialGradient2801"
       xlink:href="#linearGradient2795"
       inkscape:collect="always" />
  </defs>
  <sodipodi:namedview
     pagecolor="#ffffff"
     bordercolor="#666666"
     borderopacity="1"
     objecttolerance="10"
     gridtolerance="10"
     guidetolerance="10"
     inkscape:pageopacity="0"
     inkscape:pageshadow="2"
     inkscape:window-width="1366"
     inkscape:window-height="713"
     id="namedview6"
     showgrid="false"
     inkscape:zoom="6.9532167"
     inkscape:cx="8.1479684"
     inkscape:cy="21.804651"
     inkscape:window-x="0"
     inkscape:window-y="30"
     inkscape:window-maximized="1"
     inkscape:current-layer="svg2"
     inkscape:snap-bbox="true"
     inkscape:bbox-paths="true"
     inkscape:bbox-nodes="true"
     inkscape:snap-bbox-edge-midpoints="false"
     inkscape:snap-bbox-midpoints="false"
     inkscape:snap-object-midpoints="false"
     inkscape:snap-others="false"
     inkscape:snap-nodes="false" />
  <path
     d="m -60.40678,37.355932 c -2.21,0 -3.980469,1.79 -3.980469,4 l -0.0098,15.935547 14.160156,0 0,0.06445 9.830078,0 0,4 -7.695312,0 0,4 7.695312,0 0,4 -7.695312,0 0,4.244141 -2.134766,0 0,3.755859 13.830078,0 c 2.21,0 4,-1.79 4,-4 l 0,-24 -12,-12 -16,0 z m 14,3 11,11 -11,0 0,-11 z m -15.007812,13.257812 c 0.369635,0 0.70588,0.152692 0.949218,0.400391 0.243339,0.247699 0.394531,0.589577 0.394532,0.966797 -3e-6,0.375882 -0.151193,0.716942 -0.394532,0.962891 -0.243338,0.245948 -0.579583,0.396484 -0.949218,0.396484 -0.370965,0 -0.706212,-0.150536 -0.949219,-0.396484 -0.243008,-0.245949 -0.394531,-0.587008 -0.394531,-0.962891 0,-0.377219 0.151523,-0.719098 0.394531,-0.966797 0.243007,-0.247699 0.578256,-0.400391 0.949219,-0.400391 z"
     id="path4781"
     inkscape:connector-curvature="0" />
  <g
     style="fill:#E91E63"
     id="g4172">
    <path
       id="path4164"
       d="M 28,4 12,4 C 9.79,4 8.02,5.79 8.02,8 L 8,40 c 0,2.21 1.77,4 3.98,4 L 36,44 c 2.21,0 4,-1.79 4,-4 L 40,16 28,4 Z m 4,32 -16,0 0,-4 16,0 0,4 z m 0,-8 -16,0 0,-4 16,0 0,4 z M 26,18 26,7 37,18 26,18 Z"
       inkscape:connector-curvature="0" />
  </g>
  <g
     id="g4158"
     transform="matrix(0.65921105,0,0,0.65921105,8.8660539,11.316161)">
    <path
       id="path4772"
       d="m 14.863281,18.0625 c -1.223515,0.0057 -2.391824,0.111048 -3.419922,0.292969 -3.028644,0.535063 -3.580077,1.655359 -3.5800778,3.720703 l 0,2.726562 7.1582028,0 0,0.910157 -7.1582028,0 -2.6855468,0 c -2.0800414,0 -3.9010098,1.25055 -4.47070315,3.628906 -0.65713351,2.726147 -0.68628119,4.426902 0,7.273437 0.50874995,2.118852 1.72269335,3.628906 3.80273435,3.628907 l 2.4609375,0 0,-3.269532 c 0,-2.362305 2.045501,-4.447265 4.4726559,-4.447265 l 7.148438,0 c 1.98995,0 3.578126,-1.638257 3.578125,-3.636719 l 0,-6.814453 c 0,-1.939604 -1.63587,-3.396991 -3.578125,-3.720703 -1.229476,-0.204662 -2.505002,-0.298655 -3.728516,-0.292969 z m -3.871093,2.195312 c 0.369635,0 0.70588,0.152692 0.949218,0.400391 0.243339,0.247699 0.394531,0.589577 0.394532,0.966797 -1e-6,0.375882 -0.151193,0.716942 -0.394532,0.962891 -0.243338,0.245948 -0.579581,0.396484 -0.949218,0.396484 -0.370963,0 -0.706212,-0.150536 -0.949219,-0.396484 C 9.7999609,22.341942 9.6484375,22.000883 9.6484375,21.625 c 0,-0.377219 0.1515236,-0.719098 0.3945315,-0.966797 0.243007,-0.247699 0.578256,-0.400391 0.949219,-0.400391 z"
       style="opacity:1;fill:#3776ab;fill-opacity:1;stroke:none"
       inkscape:connector-curvature="0" />
    <path
       id="path4797"
       d="m 23.0625,25.712891 0,3.177734 c 0,2.463966 -2.088591,4.537109 -4.470703,4.537109 l -7.148438,0 c -1.9581529,0 -3.5800774,1.677666 -3.5800778,3.638672 l 0,6.814453 c 0,1.939603 1.6881691,3.080255 3.5800778,3.636719 2.265524,0.666153 4.43776,0.786543 7.148438,0 1.801819,-0.521686 3.578126,-1.571378 3.578125,-3.636719 l 0,-2.728515 -7.148438,0 0,-0.908203 7.148438,0 3.578125,0 c 2.080041,0 2.854747,-1.4512 3.578125,-3.628907 0.747225,-2.241915 0.715431,-4.397473 0,-7.273437 -0.514049,-2.070694 -1.495438,-3.628906 -3.578125,-3.628906 l -2.685547,0 z m -4.021484,17.257812 c 0.741926,0 1.34375,0.609565 1.34375,1.361328 -10e-7,0.754437 -0.601824,1.367188 -1.34375,1.367188 -0.739276,0 -1.341796,-0.612751 -1.341797,-1.367188 1e-6,-0.751763 0.60252,-1.361328 1.341797,-1.361328 z"
       style="opacity:1;fill:#ffd343;fill-opacity:1;stroke:none"
       inkscape:connector-curvature="0" />
  </g>
</svg>
