<?xml version="1.0" encoding="UTF-8" standalone="no"?>
<svg
   xmlns:osb="http://www.openswatchbook.org/uri/2009/osb"
   xmlns:dc="http://purl.org/dc/elements/1.1/"
   xmlns:cc="http://creativecommons.org/ns#"
   xmlns:rdf="http://www.w3.org/1999/02/22-rdf-syntax-ns#"
   xmlns:svg="http://www.w3.org/2000/svg"
   xmlns="http://www.w3.org/2000/svg"
   xmlns:xlink="http://www.w3.org/1999/xlink"
   xmlns:sodipodi="http://sodipodi.sourceforge.net/DTD/sodipodi-0.dtd"
   xmlns:inkscape="http://www.inkscape.org/namespaces/inkscape"
   fill="#E91E63"
   width="48"
   height="48"
   viewBox="0 0 48 48"
   id="svg2"
   version="1.1"
   inkscape:version="0.91 r13725"
   sodipodi:docname="text-x-java17.svg">
  <metadata
     id="metadata10">
    <rdf:RDF>
      <cc:Work
         rdf:about="">
        <dc:format>image/svg+xml</dc:format>
        <dc:type
           rdf:resource="http://purl.org/dc/dcmitype/StillImage" />
        <dc:title></dc:title>
      </cc:Work>
    </rdf:RDF>
  </metadata>
  <defs
     id="defs8">
    <linearGradient
       id="linearGradient5664"
       osb:paint="solid">
      <stop
         style="stop-color:#000000;stop-opacity:1;"
         offset="0"
         id="stop5666" />
    </linearGradient>
    <linearGradient
       x1="64"
       y1="60"
       x2="62"
       y2="7"
       id="linearGradient3724"
       xlink:href="#linearGradient3763"
       gradientUnits="userSpaceOnUse"
       gradientTransform="matrix(1.231823,0,0,1.231823,-157.81615,7.1708322)" />
    <linearGradient
       id="linearGradient3763">
      <stop
         id="stop3765"
         style="stop-color:#ff7700;stop-opacity:1"
         offset="0" />
      <stop
         id="stop3767"
         style="stop-color:#ffb15d;stop-opacity:1"
         offset="1" />
    </linearGradient>
    <clipPath
       id="clipPath3716">
      <path
         d="m -118,6 c -3.324,0 -6,2.676 -6,6 l 0,72 c 0,3.324 2.676,6 6,6 l 72,0 c 3.324,0 6,-2.676 6,-6 l 0,-72 c 0,-3.324 -2.676,-6 -6,-6 l -72,0 z m 42.53125,9.4375 c 0,0 6.742786,6.784262 -6.4375,17.1875 -10.569721,8.348428 -2.406258,13.091934 0,18.53125 -6.170339,-5.566626 -10.691951,-10.439321 -7.65625,-15 4.457852,-6.693689 16.821977,-9.970594 14.09375,-20.71875 z m 8.125,13.34375 c -14.197756,8.233791 -11.545654,10.600025 -8.125,15.40625 3.661158,5.156183 -4.3125,9.25 -4.3125,9.25 0,0 3.954627,-3.226804 0.8125,-6.84375 -10.643745,-12.265213 11.625144,-17.8125 11.625,-17.8125 z m 3.59375,21.875 c 6.598371,-0.338475 10.187997,8.957958 -4.59375,12.84375 -1.44e-4,0 0.16215,-0.192534 0.21875,-0.34375 12.215092,-6.34575 6.567276,-12.446464 2.625,-11.625 -0.964039,0.201189 -1.40625,0.375 -1.40625,0.375 0,0 0.378571,-0.570411 1.0625,-0.8125 0.731171,-0.256932 1.41116,-0.40248 2.09375,-0.4375 z m -26.40625,0.625 c 0.519115,-0.01358 0.8125,0 0.8125,0 0,0 -11.82939,2.822105 -4.1875,3.84375 3.227673,0.431901 9.630792,0.315402 15.625,-0.1875 4.897387,-0.41102 9.8125,-1.25 9.8125,-1.25 0,0 -1.719415,0.709928 -2.96875,1.5625 -12.017218,3.160705 -35.24553,1.700167 -28.5625,-1.53125 4.236968,-2.049735 7.911406,-2.39676 9.46875,-2.4375 z m -1.9375,7.40625 c 0,0 -2.823626,2.059601 1.4375,2.5 5.511613,0.569005 9.87295,0.637302 17.40625,-0.8125 0,0 1.050477,1.047931 2.6875,1.625 -15.407629,4.506818 -32.55548,0.346355 -21.53125,-3.3125 z m 1.53125,7.125 c 0,0 -2.476708,1.449143 1.78125,1.9375 5.159208,0.589021 7.816289,0.511854 13.5,-0.5625 0,0 1.474997,0.907513 3.5625,1.71875 -12.745505,5.460632 -28.85383,-0.296827 -18.84375,-3.09375 z m -6.46875,4.71875 c 0.614519,0.02364 1.14585,0.147618 1.46875,0.375 0,0 -0.852618,-0.05906 -2.28125,0.25 -1.370161,0.295952 -5.69609,1.676512 -3.375,2.6875 6.461397,2.810602 29.707491,2.165274 37.0625,-0.0625 3.867966,-1.173437 2.03125,-2.71875 2.03125,-2.71875 6.739204,3.040884 -14.609199,9.149373 -40.59375,4.9375 -8.33743,-1.353006 1.38587,-5.63424 5.6875,-5.46875 z M -58,74.375 c -0.426144,5.547328 -18.43383,6.718207 -30.15625,5.96875 -7.704246,-0.495845 -9.1875,-1.71875 -9.1875,-1.71875 7.318718,1.208433 19.649918,1.415115 29.65625,-0.46875 C -58.817879,76.487689 -58,74.375 -58,74.375 Z"
         inkscape:connector-curvature="0"
         id="path3718"
         style="display:inline;fill:#ff00ff;fill-opacity:1;fill-rule:nonzero;stroke:none" />
    </clipPath>
    <filter
       style="color-interpolation-filters:sRGB"
       x="-0.16965857"
       y="-0.1250829"
       width="1.3393171"
       height="1.2501658"
       id="filter3720">
      <feGaussianBlur
         id="feGaussianBlur3722"
         stdDeviation="3.3931715" />
    </filter>
    <linearGradient
       x1="64"
       y1="60"
       x2="62"
       y2="7"
       id="linearGradient3769"
       xlink:href="#linearGradient3763"
       gradientUnits="userSpaceOnUse"
       gradientTransform="matrix(1.3215847,0,0,1.3215847,-37.067029,4.1956498)" />
    <linearGradient
       inkscape:collect="always"
       xlink:href="#linearGradient3763"
       id="linearGradient4180"
       gradientUnits="userSpaceOnUse"
       gradientTransform="matrix(1.3215847,0,0,1.3215847,-37.067029,4.1956498)"
       x1="64"
       y1="60"
       x2="62"
       y2="7" />
  </defs>
  <sodipodi:namedview
     pagecolor="#ffffff"
     bordercolor="#666666"
     borderopacity="1"
     objecttolerance="10"
     gridtolerance="10"
     guidetolerance="10"
     inkscape:pageopacity="0"
     inkscape:pageshadow="2"
     inkscape:window-width="1366"
     inkscape:window-height="713"
     id="namedview6"
     showgrid="false"
     inkscape:snap-bbox="true"
     inkscape:bbox-paths="true"
     inkscape:bbox-nodes="true"
     inkscape:snap-bbox-edge-midpoints="true"
     inkscape:snap-object-midpoints="true"
     inkscape:snap-bbox-midpoints="false"
     inkscape:snap-midpoints="true"
     inkscape:object-paths="false"
     inkscape:zoom="4.9166666"
     inkscape:cx="-6.6223334"
     inkscape:cy="33.602745"
     inkscape:window-x="0"
     inkscape:window-y="30"
     inkscape:window-maximized="1"
     inkscape:current-layer="layer4"
     inkscape:snap-intersection-paths="false"
     inkscape:snap-smooth-nodes="true"
     inkscape:object-nodes="true"
     inkscape:snap-nodes="false" />
  <path
     d="M28 4H12C9.79 4 8.02 5.79 8.02 8L8 40c0 2.21 1.77 4 3.98 4H36c2.21 0 4-1.79 4-4V16L28 4zm4 32H16v-4h16v4zm0-8H16v-4h16v4zm-6-10V7l11 11H26z"
     id="path4" />
  <g
     transform="matrix(0.46395794,0,0,0.46395794,-8.1693089,8.5113107)"
     id="layer4"
     style="display:inline;stroke-width:4.31073558;stroke-miterlimit:4;stroke-dasharray:none">
    <path
       d="m -75.476487,15.447143 c 2.728227,10.748156 -9.631123,14.016333 -14.088975,20.710022 -3.035701,4.560679 1.49006,9.446216 7.660399,15.012842 -2.406258,-5.439316 -10.569721,-10.205905 0,-18.554333 13.180286,-10.403238 6.428576,-17.168531 6.428576,-17.168531 z m 8.122332,13.319085 c 1.44e-4,0 -22.269074,5.557725 -11.625329,17.822938 3.142127,3.616946 -0.808384,6.852015 -0.808384,6.852015 0,0 7.972539,-4.082489 4.311381,-9.238672 -3.420654,-4.806225 -6.075424,-7.20249 8.122332,-15.436281 z m 3.61848,21.903351 c -0.68259,0.03502 -1.386025,0.166507 -2.117196,0.423439 -0.683929,0.242089 -1.03935,0.808384 -1.03935,0.808384 0,0 0.421762,-0.183755 1.385801,-0.384944 3.942276,-0.821464 9.597468,5.279579 -2.617624,11.625329 -0.0566,0.151216 -0.231111,0.34645 -0.230967,0.34645 14.781747,-3.885792 11.217707,-13.157133 4.619336,-12.818658 z m -26.407204,0.615911 c -1.557344,0.04074 -5.23267,0.375417 -9.469638,2.425152 -6.683033,3.231417 16.545675,4.700484 28.562893,1.539779 1.249335,-0.852572 2.964075,-1.578274 2.964075,-1.578274 0,0 -4.918703,0.859298 -9.81609,1.270318 -5.994208,0.502902 -12.40108,0.624374 -15.628753,0.192473 -7.641888,-1.021645 4.195897,-3.849448 4.195897,-3.849448 0,0 -0.289269,-0.01358 -0.808384,0 z m -1.963218,7.390938 c -11.024233,3.658855 6.149272,7.817342 21.556901,3.310524 -1.637023,-0.577069 -2.694613,-1.616767 -2.694613,-1.616767 -7.5333,1.449802 -11.887885,1.377389 -17.399498,0.808384 -4.261126,-0.440399 -1.46279,-2.502141 -1.46279,-2.502141 z m 1.539779,7.121476 c -10.010082,2.796923 6.116784,8.578684 18.862289,3.118052 -2.087503,-0.811237 -3.579986,-1.732251 -3.579986,-1.732251 -5.683711,1.074354 -8.35235,1.166439 -13.511558,0.577418 -4.257958,-0.488357 -1.770745,-1.963219 -1.770745,-1.963219 z m -6.467071,4.73482 c -4.301631,-0.16549 -14.034611,4.113208 -5.697181,5.466214 25.984551,4.211873 47.350866,-1.886407 40.611662,-4.927291 0,0 1.82776,1.521175 -2.040206,2.694612 -7.355009,2.227774 -30.608779,2.887592 -37.070176,0.07699 -2.32109,-1.010988 2.017357,-2.39866 3.387518,-2.694612 1.428632,-0.309057 2.271173,-0.230967 2.271173,-0.230967 -0.3229,-0.227382 -0.848271,-0.361304 -1.46279,-0.384945 z M -58,74.382171 c 0,0 -0.830984,2.103896 -9.700605,3.772457 -10.006332,1.883865 -22.322021,1.670367 -29.640739,0.461934 0,0 1.495931,1.236406 9.200177,1.732251 C -76.418747,81.09827 -58.426144,79.929499 -58,74.382171 Z"
       inkscape:connector-curvature="0"
       transform="matrix(1.072869,0,0,1.072869,132.24903,-3.4977138)"
       clip-path="url(#clipPath3716)"
       id="path3707"
       style="opacity:1;fill:#ffffff;fill-opacity:1;fill-rule:evenodd;stroke:#ffffff;stroke-width:4.3107357;stroke-miterlimit:4;stroke-dasharray:none;filter:url(#filter3720)" />
    <path
       d="M 51.272644,13.075047 C 54.199674,24.60641 40.939711,28.112736 36.15702,35.294188 32.90011,40.187199 37.755659,45.42874 44.375624,51.401 c -2.581599,-5.835673 -11.339926,-10.949599 0,-19.906368 14.140721,-11.161312 6.89702,-18.419585 6.89702,-18.419585 z m 8.714198,14.289633 c 1.55e-4,0 -23.891799,5.962711 -12.472455,19.121678 3.371091,3.880509 -0.86729,7.351315 -0.86729,7.351315 0,0 8.55349,-4.379976 4.625547,-9.911885 -3.669913,-5.15645 -6.518134,-7.727328 8.714198,-16.561108 z m 3.882155,23.499427 c -0.732329,0.03757 -1.487023,0.17864 -2.271474,0.454294 -0.733766,0.25973 -1.115086,0.86729 -1.115086,0.86729 0,0 0.452495,-0.197145 1.486783,-0.412994 4.229546,-0.881323 10.296826,5.664297 -2.808368,12.472455 -0.06072,0.162235 -0.247951,0.371696 -0.247797,0.371696 15.858878,-4.168946 12.03513,-14.115881 4.955942,-13.752741 z m -28.33147,0.660792 c -1.670826,0.04371 -5.61397,0.402773 -10.159681,2.60187 -7.17002,3.466887 17.751342,5.043004 30.644242,1.651981 1.340373,-0.914698 3.180064,-1.693281 3.180064,-1.693281 0,0 -5.277124,0.921914 -10.531378,1.362885 -6.431,0.539548 -13.304735,0.669871 -16.767605,0.206498 -8.198745,-1.096091 4.501648,-4.129953 4.501648,-4.129953 0,0 -0.310348,-0.01457 -0.86729,0 z m -2.106276,7.929508 c -11.827558,3.925472 6.597363,8.386984 23.127731,3.551758 -1.756311,-0.619119 -2.890967,-1.734579 -2.890967,-1.734579 -8.082244,1.555448 -12.754143,1.477758 -18.667382,0.86729 -4.57163,-0.47249 -1.569382,-2.684469 -1.569382,-2.684469 z m 1.651981,7.640411 c -10.739502,3.000732 6.562508,9.203804 20.236765,3.345261 -2.239617,-0.870351 -3.840856,-1.858478 -3.840856,-1.858478 -6.097877,1.152641 -8.960977,1.251436 -14.496131,0.619493 -4.568231,-0.523943 -1.899778,-2.106276 -1.899778,-2.106276 z m -6.93832,5.079841 c -4.615085,-0.177549 -15.057297,4.412934 -6.112329,5.864532 27.87802,4.518788 50.801277,-2.023868 43.570994,-5.286338 0,0 1.960947,1.632022 -2.188874,2.890966 -7.890961,2.390109 -32.83921,3.098008 -39.771437,0.0826 -2.490233,-1.084658 2.164354,-2.573448 3.634357,-2.890966 1.532735,-0.331577 2.436671,-0.247797 2.436671,-0.247797 -0.346429,-0.243951 -0.910083,-0.387632 -1.569382,-0.412996 z m 41.877713,4.129953 c 0,0 -0.891537,2.257204 -10.407478,4.047352 -10.735483,2.02114 -23.948604,1.792085 -31.80063,0.495594 0,0 1.604938,1.326502 9.870585,1.858479 12.576621,0.804069 31.880327,-0.449869 32.337523,-6.401425 z"
       inkscape:connector-curvature="0"
       id="path2907"
       style="fill:url(#linearGradient4180);fill-opacity:1;fill-rule:evenodd;stroke-width:4.3107357;stroke-miterlimit:4;stroke-dasharray:none" />
    <path
       d="m 51.280945,14.13757 c 0.223894,0.882057 0.323286,1.721153 0.368799,2.514537 0.02617,-0.681903 0.0092,-1.396055 -0.100582,-2.145738 -0.0046,-0.006 0.0045,-0.02765 0,-0.03353 -0.170451,-0.220268 -0.268217,-0.335272 -0.268217,-0.335272 z m 1.810466,4.626748 c -0.19123,3.168374 -2.111791,7.526762 -8.71706,12.740319 -4.495247,3.550543 -5.817081,6.492236 -5.632562,9.119387 0.215578,-2.356127 1.734462,-4.967628 5.632562,-8.046518 7.382154,-5.826756 8.917812,-10.591239 8.71706,-13.813188 z m 6.906595,9.689348 c 3.8e-5,0 -1.492458,0.341783 -3.553879,1.106396 -0.02932,0.01877 -0.07145,0.01483 -0.100581,0.03353 -6.471689,4.156158 -8.28094,6.767648 -7.945936,9.152914 0.347419,-2.52885 3.286172,-5.471118 11.600396,-10.292837 z M 35.154383,39.215883 c -0.305842,4.073925 3.869746,8.416477 9.219968,13.243227 -0.3227,-0.72946 -0.742574,-1.429919 -1.206978,-2.145738 -0.02155,-0.03323 -0.04531,-0.06737 -0.06705,-0.100581 -4.268495,-3.946934 -7.57786,-7.570401 -7.945936,-10.996908 z m 9.320549,0.972288 c -0.178004,2.146979 0.64209,4.600124 3.050971,7.375974 0.779411,0.89719 1.128201,1.766036 1.240505,2.581591 0.138581,-1.097265 -0.104819,-2.347154 -1.240505,-3.65446 -2.010069,-2.316283 -2.906192,-4.426034 -3.050971,-6.303105 z m 7.7783,7.208338 c -0.287355,2.399993 -2.428709,4.331848 -3.989731,5.4314 -0.64261,1.270985 -1.609304,2.078683 -1.609304,2.078683 0,0 6.167396,-3.158625 5.599035,-7.510083 z m 11.600397,4.526166 c -0.73233,0.03757 -1.461869,0.193726 -2.24632,0.469381 -0.733766,0.259729 -1.139923,0.871706 -1.139923,0.871706 0,0 0.474434,-0.186477 1.508722,-0.402326 2.114773,-0.440662 4.688763,0.975457 5.096128,3.352715 0.231663,-2.17235 -1.257636,-3.744259 -3.017445,-4.291476 -0.06578,0.0016 -0.134795,-0.0034 -0.201162,0 z m -28.330447,0.670544 c -0.937436,0.02453 -2.58714,0.178196 -4.660275,0.670543 -1.401429,0.610469 -2.264173,1.285699 -1.307559,1.810466 1.498665,-1.199253 6.83954,-2.481009 6.83954,-2.481009 0,0 -0.314764,-0.01457 -0.871706,0 z m 23.670172,2.581591 c 0,0 -1.302409,0.195452 -2.916863,0.435853 -0.08834,0.0567 -0.183294,0.109682 -0.268217,0.167635 -10.533039,2.770345 -29.083836,2.216183 -31.616108,0.03353 -3.122757,3.017365 19.529013,4.218425 31.616108,1.039341 1.340373,-0.914698 3.18508,-1.676357 3.18508,-1.676357 z m 10.762217,1.139923 c -0.257943,2.47445 -2.495994,5.276639 -7.912409,7.30892 -0.841026,0.562364 -1.785633,1.139627 -2.883335,1.709885 -0.06072,0.162235 -0.234845,0.368799 -0.23469,0.368799 8.656592,-2.275626 11.431176,-6.28537 11.030434,-9.387604 z m -36.511073,4.224422 c -0.344674,0.114394 -0.6782,0.220209 -0.972288,0.335271 0.0027,0.155716 0.0477,0.322967 0.167636,0.46938 0.281932,-0.464941 0.804652,-0.804651 0.804652,-0.804651 z m -3.587406,2.045156 c -1.847137,3.146558 13.04521,5.499203 26.687616,1.508722 -0.568903,-0.200545 -1.020652,-0.45415 -1.441667,-0.70407 -11.615448,3.006161 -23.683924,1.636302 -25.245949,-0.804652 z m 5.230236,5.599035 c -0.240625,0.06724 -0.457715,0.130886 -0.670543,0.201163 0.04636,0.06345 0.117913,0.106118 0.201163,0.167636 0.218902,-0.228461 0.46938,-0.368799 0.46938,-0.368799 z m -3.185079,1.709885 c -1.8099,3.03145 12.035228,6.479217 23.401955,1.609304 C 54.840367,71.32228 54.430692,71.146634 54.030172,70.9661 44.301533,74.557051 33.298204,72.433775 31.902249,69.893231 Z m -3.755042,3.352716 c -1.021933,-0.03932 -2.334851,0.160492 -3.65446,0.502907 -1.187078,0.527506 -2.080921,1.197484 -1.240505,1.776939 0.0059,-0.0053 0.02747,0.0053 0.03353,0 0.859969,-0.741331 3.057855,-1.40802 3.989732,-1.609303 1.532735,-0.331578 2.447482,-0.268217 2.447482,-0.268217 -0.346429,-0.243951 -0.916477,-0.376962 -1.575776,-0.402326 z m 37.449834,0.569962 c 0,0 0.16671,0.162699 0.301744,0.402325 0.03579,-0.05914 0.07782,-0.110276 0.100582,-0.167635 -0.125848,-0.07155 -0.249919,-0.165921 -0.402326,-0.23469 z m 1.17345,0.871706 c -0.220525,0.350436 -0.669192,0.686531 -1.274032,1.039341 -0.01706,0.01409 -0.04905,0.01942 -0.06705,0.03353 -0.403793,0.316554 -1.018456,0.670985 -2.011629,0.972287 -0.207049,0.06271 -0.474169,0.107276 -0.704071,0.167636 -7.228985,2.389382 -22.919038,4.016949 -40.66844,1.139923 -1.910123,-0.309976 -2.931653,-0.754782 -3.319189,-1.274032 -0.563872,0.946526 0.162695,1.834662 3.319189,2.346901 25.60443,4.150259 47.002556,-1.025399 44.725226,-4.425584 z m 3.252134,2.682172 c 0,0 -0.187075,0.373731 -1.005814,0.93876 -0.02685,0.02713 -0.07274,0.0402 -0.100582,0.06705 -3.680668,3.550108 -15.935703,4.71101 -26.251763,4.526166 -0.01139,-2.04e-4 -0.02214,2.07e-4 -0.03353,0 -5.62672,0.03331 -10.892991,-0.324042 -14.819003,-0.972288 0,0 1.591337,1.312017 9.856984,1.843994 12.576621,0.804069 31.896509,-0.452131 32.353705,-6.403687 z"
       inkscape:connector-curvature="0"
       id="path3783"
       style="opacity:1;fill:#ffffff;fill-opacity:1;fill-rule:evenodd;stroke-width:4.3107357;stroke-miterlimit:4;stroke-dasharray:none" />
    <path
       d="M 51.272644,13.075047 C 54.199674,24.60641 40.939711,28.112736 36.15702,35.294188 32.90011,40.187199 37.755659,45.42874 44.375624,51.401 c -2.581599,-5.835673 -11.339926,-10.949599 0,-19.906368 14.140721,-11.161312 6.89702,-18.419585 6.89702,-18.419585 z m 8.714198,14.289633 c 1.55e-4,0 -23.891799,5.962711 -12.472455,19.121678 3.371091,3.880509 -0.86729,7.351315 -0.86729,7.351315 0,0 8.55349,-4.379976 4.625547,-9.911885 -3.669913,-5.15645 -6.518134,-7.727328 8.714198,-16.561108 z m 3.882155,23.499427 c -0.732329,0.03757 -1.487023,0.17864 -2.271474,0.454294 -0.733766,0.25973 -1.115086,0.86729 -1.115086,0.86729 0,0 0.452495,-0.197145 1.486783,-0.412994 4.229546,-0.881323 10.296826,5.664297 -2.808368,12.472455 -0.06072,0.162235 -0.247951,0.371696 -0.247797,0.371696 15.858878,-4.168946 12.03513,-14.115881 4.955942,-13.752741 z m -28.33147,0.660792 c -1.670826,0.04371 -5.61397,0.402773 -10.159681,2.60187 -7.17002,3.466887 17.751342,5.043004 30.644242,1.651981 1.340373,-0.914698 3.180064,-1.693281 3.180064,-1.693281 0,0 -5.277124,0.921914 -10.531378,1.362885 -6.431,0.539548 -13.304735,0.669871 -16.767605,0.206498 -8.198745,-1.096091 4.501648,-4.129953 4.501648,-4.129953 0,0 -0.310348,-0.01457 -0.86729,0 z m -2.106276,7.929508 c -11.827558,3.925472 6.597363,8.386984 23.127731,3.551758 -1.756311,-0.619119 -2.890967,-1.734579 -2.890967,-1.734579 -8.082244,1.555448 -12.754143,1.477758 -18.667382,0.86729 -4.57163,-0.47249 -1.569382,-2.684469 -1.569382,-2.684469 z m 1.651981,7.640411 c -10.739502,3.000732 6.562508,9.203804 20.236765,3.345261 -2.239617,-0.870351 -3.840856,-1.858478 -3.840856,-1.858478 -6.097877,1.152641 -8.960977,1.251436 -14.496131,0.619493 -4.568231,-0.523943 -1.899778,-2.106276 -1.899778,-2.106276 z m -6.93832,5.079841 c -4.615085,-0.177549 -15.057297,4.412934 -6.112329,5.864532 27.87802,4.518788 50.801277,-2.023868 43.570994,-5.286338 0,0 1.960947,1.632022 -2.188874,2.890966 -7.890961,2.390109 -32.83921,3.098008 -39.771437,0.0826 -2.490233,-1.084658 2.164354,-2.573448 3.634357,-2.890966 1.532735,-0.331577 2.436671,-0.247797 2.436671,-0.247797 -0.346429,-0.243951 -0.910083,-0.387632 -1.569382,-0.412996 z m 41.877713,4.129953 c 0,0 -0.891537,2.257204 -10.407478,4.047352 -10.735483,2.02114 -23.948604,1.792085 -31.80063,0.495594 0,0 1.604938,1.326502 9.870585,1.858479 12.576621,0.804069 31.880327,-0.449869 32.337523,-6.401425 z"
       inkscape:connector-curvature="0"
       id="path3672"
       style="fill:url(#linearGradient3769);fill-opacity:1;fill-rule:evenodd;stroke-width:4.3107357;stroke-miterlimit:4;stroke-dasharray:none" />
    <path
       d="m 51.280945,13.064701 c 0.121826,0.479949 0.200695,0.955152 0.268217,1.408141 0.0045,0.0059 -0.0046,0.0275 0,0.03353 0.485174,0.632003 1.407806,2.100204 1.542249,4.257949 0.21816,-3.614558 -1.810466,-5.699617 -1.810466,-5.699617 z m 0.368799,3.587406 c -0.337027,8.782101 -11.240719,12.261272 -15.489547,18.641099 -0.836621,1.256896 -1.132197,2.546253 -1.005814,3.855623 0.08211,-0.944465 0.395144,-1.865315 1.005814,-2.782754 4.416854,-6.632127 16.039025,-10.135233 15.489547,-19.713968 z m 8.348262,10.72869 c 1.27e-4,0 -16.200791,4.020674 -15.523074,12.807374 0.451724,-5.44844 7.418651,-8.932284 11.868614,-10.594582 0.02913,-0.0187 0.07126,-0.01476 0.100581,-0.03353 1.07191,-0.686207 2.213869,-1.402145 3.553879,-2.179265 z M 48.39761,38.78003 c -0.269505,2.090487 1.225068,3.87256 2.883335,6.202524 0.586796,0.826413 0.872468,1.649721 0.972287,2.413955 0.129366,-1.080458 -0.09908,-2.257042 -0.972287,-3.486824 -1.367542,-1.921479 -2.637022,-3.468378 -2.883335,-5.129655 z m -9.655821,2.045157 c -0.212364,3.511215 2.42608,6.435778 4.35853,9.387604 0.02175,0.03322 0.0455,0.06735 0.06705,0.100581 0.398661,0.367886 0.792962,0.699361 1.206978,1.072869 C 42.841526,47.92131 39.129808,44.73669 38.741789,40.825187 Z m 10.024619,9.320549 c -0.27277,2.159775 -2.112211,3.687987 -2.112211,3.687987 0,0 0.711869,-0.37368 1.609304,-1.005814 0.381864,-0.75527 0.642101,-1.671346 0.502907,-2.682173 z m 15.087221,0.70407 c -0.73233,0.03757 -1.461869,0.193726 -2.24632,0.469381 -0.733766,0.259729 -1.139923,0.871706 -1.139923,0.871706 0,0 0.474434,-0.186477 1.508722,-0.402326 0.682648,-0.142245 1.388626,-0.08047 2.078683,0.134108 3.120844,-0.07616 5.574245,1.86428 5.90078,4.392058 0.321297,-3.082206 -2.458154,-5.651841 -6.101942,-5.464927 z M 35.523182,51.52035 c -1.670827,0.04371 -5.613017,0.416021 -10.158729,2.615118 -1.31237,0.634564 -1.539627,1.187347 -0.972287,1.676358 0.208183,-0.201158 0.524161,-0.386808 0.972287,-0.603489 1.99529,-0.965269 3.876564,-1.559394 5.498454,-1.944575 2.146254,-0.934918 5.531981,-1.743412 5.531981,-1.743412 0,0 -0.314764,-0.01457 -0.871706,0 z m 23.670172,2.581591 c 0,0 -5.273273,0.900115 -10.527527,1.341086 -6.431,0.539548 -13.300708,0.664536 -16.763578,0.201163 -1.191622,-0.159308 -1.935079,-0.34405 -2.346901,-0.569962 -0.804795,0.644008 -0.51762,1.259872 2.346901,1.642831 3.46287,0.463373 10.332578,0.338385 16.763578,-0.201163 2.923277,-0.245341 5.585979,-0.603746 7.610664,-0.905233 1.305919,-0.838175 2.916863,-1.508722 2.916863,-1.508722 z m 7.878882,2.179265 c -0.273491,2.243391 -2.370243,5.100303 -7.912409,7.979463 -0.06072,0.162235 -0.234845,0.368799 -0.23469,0.368799 1.142732,-0.300399 2.173536,-0.651436 3.118025,-1.005815 4.13138,-2.762505 5.330014,-5.3711 5.029074,-7.342447 z m -33.627738,3.18508 c -3.212357,1.066155 -4.194208,2.169785 -3.587406,3.118025 0.325797,-0.554987 1.146131,-1.135142 2.615118,-1.709885 -0.01211,-0.707046 0.972288,-1.40814 0.972288,-1.40814 z m 20.216875,1.810466 c -8.082244,1.555448 -12.761387,1.482174 -18.674626,0.871706 -1.384935,-0.143137 -2.05809,-0.452096 -2.346901,-0.804652 -0.412315,0.67996 -0.368201,1.596908 2.346901,1.877521 5.913239,0.610468 10.592382,0.683742 18.674626,-0.871706 0,0 0.56293,0.517711 1.441668,1.039342 0.485983,-0.125776 0.958122,-0.227359 1.441667,-0.368799 -1.756311,-0.619119 -2.883335,-1.743412 -2.883335,-1.743412 z m -18.574045,5.833725 c -2.87107,0.802208 -3.717135,1.814448 -3.185079,2.782754 0.318639,-0.533696 1.124437,-1.049702 2.514536,-1.508722 -0.444992,-0.609031 0.670543,-1.274032 0.670543,-1.274032 z m -0.46938,1.441668 c -0.481583,0.502614 -0.76023,1.349675 2.380428,1.709885 5.535155,0.631942 8.385855,0.549152 14.483732,-0.603489 0,0 1.014689,0.616392 2.548064,1.307559 0.433439,-0.159987 0.846711,-0.353355 1.274032,-0.536434 -2.239618,-0.870351 -3.822096,-1.843994 -3.822096,-1.843994 -6.097877,1.152641 -8.948577,1.235431 -14.483732,0.603489 -1.307964,-0.150014 -2.026467,-0.375455 -2.380428,-0.637016 z m -6.470741,3.620933 c -3.629573,-0.139635 -10.848395,2.680862 -9.421131,4.59322 0.680214,-1.141819 3.229829,-2.35918 5.766671,-3.017444 0.981287,-0.436058 2.159087,-0.770523 2.782754,-0.905233 1.532735,-0.331578 2.447482,-0.268217 2.447482,-0.268217 -0.346429,-0.243951 -0.916477,-0.376962 -1.575776,-0.402326 z m 37.449834,0.569962 c 0,0 0.688676,0.586031 0.402326,1.307559 0.361056,0.205278 0.621171,0.413127 0.771124,0.637016 0.434563,-0.690563 0.08432,-1.377042 -1.17345,-1.944575 z m 0.301744,1.475194 c -0.279184,0.461284 -0.966886,0.982324 -2.481009,1.441668 -7.890962,2.39011 -32.830981,3.082462 -39.763208,0.06705 -0.145263,-0.06327 -0.27011,-0.135454 -0.368799,-0.201163 -0.006,0.0053 -0.0276,-0.0053 -0.03353,0 -0.479611,0.423418 -0.49816,0.881813 0.402326,1.274032 6.750335,2.936288 30.527104,2.340649 39.059137,0.100582 1.112982,-0.367872 2.029986,-0.748462 2.7157,-1.139923 0.018,-0.01411 0.05,-0.01944 0.06705,-0.03353 0.719513,-0.594074 0.604877,-1.149283 0.402326,-1.508722 z m 4.12384,2.078684 c 0,0 -0.877477,2.266639 -10.393418,4.056786 -10.735484,2.02114 -23.965246,1.799398 -31.817271,0.502907 0,0 1.591337,1.312017 9.856984,1.843994 1.561742,0.09985 3.241779,0.169839 4.962019,0.201163 0.01138,2.07e-4 0.02213,-2.04e-4 0.03353,0 5.617135,-0.03487 11.607477,-0.466597 16.964741,-1.475195 5.501249,-1.0349 8.056429,-2.230235 9.287022,-3.050971 0.02784,-0.02685 0.07373,-0.03992 0.100582,-0.06705 0.596154,-0.602299 0.948665,-1.267684 1.005814,-2.011629 z"
       inkscape:connector-curvature="0"
       id="path2931"
       style="fill:#d45500;fill-opacity:1;fill-rule:evenodd;stroke-width:4.3107357;stroke-miterlimit:4;stroke-dasharray:none" />
  </g>
</svg>
