<?xml version="1.0" encoding="UTF-8" standalone="no"?>
<!-- Created with Inkscape (http://www.inkscape.org/) -->

<svg
   xmlns:dc="http://purl.org/dc/elements/1.1/"
   xmlns:cc="http://creativecommons.org/ns#"
   xmlns:rdf="http://www.w3.org/1999/02/22-rdf-syntax-ns#"
   xmlns:svg="http://www.w3.org/2000/svg"
   xmlns="http://www.w3.org/2000/svg"
   xmlns:sodipodi="http://sodipodi.sourceforge.net/DTD/sodipodi-0.dtd"
   xmlns:inkscape="http://www.inkscape.org/namespaces/inkscape"
   width="32"
   height="27"
   viewBox="0 0 32 27.000001"
   id="svg4921"
   version="1.1"
   inkscape:version="0.91 r13725"
   sodipodi:docname="view_day8.svg">
  <defs
     id="defs4923" />
  <sodipodi:namedview
     id="base"
     pagecolor="#ffffff"
     bordercolor="#666666"
     borderopacity="1.0"
     inkscape:pageopacity="0.0"
     inkscape:pageshadow="2"
     inkscape:zoom="5.6"
     inkscape:cx="41.357065"
     inkscape:cy="34.415816"
     inkscape:document-units="px"
     inkscape:current-layer="layer1"
     showgrid="false"
     units="px"
     inkscape:window-width="1366"
     inkscape:window-height="713"
     inkscape:window-x="0"
     inkscape:window-y="30"
     inkscape:window-maximized="1"
     inkscape:snap-bbox="true"
     inkscape:bbox-nodes="true"
     fit-margin-top="0"
     fit-margin-left="0"
     fit-margin-right="0"
     fit-margin-bottom="0" />
  <metadata
     id="metadata4926">
    <rdf:RDF>
      <cc:Work
         rdf:about="">
        <dc:format>image/svg+xml</dc:format>
        <dc:type
           rdf:resource="http://purl.org/dc/dcmitype/StillImage" />
        <dc:title></dc:title>
      </cc:Work>
    </rdf:RDF>
  </metadata>
  <g
     inkscape:label="Layer 1"
     inkscape:groupmode="layer"
     id="layer1"
     transform="translate(-2,-1020.8622)">
    <path
       id="rect4165-7-3"
       style="opacity:1;fill:#E91E63;fill-opacity:1;fill-rule:nonzero;stroke:none;stroke-width:6;stroke-miterlimit:4;stroke-dasharray:none;stroke-opacity:1"
       d="m 3.710889,1034.8622 28.578231,0 c 0.947831,0 1.71088,0.3402 1.71088,0.7628 l 0,4.4744 c 0,0.4226 -0.763049,0.7628 -1.71088,0.7628 l -28.578231,0 C 2.7630588,1040.8622 2,1040.522 2,1040.0994 l 0,-4.4744 c 0,-0.4226 0.7630588,-0.7628 1.710889,-0.7628 z m 0,-7 28.578231,0 c 0.947831,0 1.71088,0.3402 1.71088,0.7628 l 0,4.4744 c 0,0.4226 -0.763049,0.7628 -1.71088,0.7628 l -28.578231,0 C 2.7630588,1033.8622 2,1033.522 2,1033.0994 l 0,-4.4744 c 0,-0.4226 0.7630588,-0.7628 1.710889,-0.7628 z m 0,14 28.578231,0 c 0.947831,0 1.71088,0.3402 1.71088,0.7628 l 0,4.4744 c 0,0.4226 -0.763049,0.7628 -1.71088,0.7628 l -28.578231,0 C 2.7630588,1047.8622 2,1047.522 2,1047.0994 l 0,-4.4744 c 0,-0.4226 0.7630588,-0.7628 1.710889,-0.7628 z m 0,-21 28.578231,0 c 0.947831,0 1.71088,0.3402 1.71088,0.7628 l 0,4.4744 c 0,0.4226 -0.763049,0.7628 -1.71088,0.7628 l -28.578231,0 C 2.7630588,1026.8622 2,1026.522 2,1026.0994 l 0,-4.4744 c 0,-0.4226 0.7630588,-0.7628 1.710889,-0.7628 z"
       inkscape:connector-curvature="0" />
  </g>
</svg>
