<?xml version="1.0" encoding="UTF-8" standalone="no"?>
<svg
   xmlns:dc="http://purl.org/dc/elements/1.1/"
   xmlns:cc="http://creativecommons.org/ns#"
   xmlns:rdf="http://www.w3.org/1999/02/22-rdf-syntax-ns#"
   xmlns:svg="http://www.w3.org/2000/svg"
   xmlns="http://www.w3.org/2000/svg"
   xmlns:sodipodi="http://sodipodi.sourceforge.net/DTD/sodipodi-0.dtd"
   xmlns:inkscape="http://www.inkscape.org/namespaces/inkscape"
   width="48"
   height="48"
   viewBox="0 0 48 48"
   id="svg2"
   version="1.1"
   inkscape:version="0.91 r13725"
   sodipodi:docname="preferences-desktop-peripherals-directory.svg"
   style="fill:#607D8B">
  <metadata
     id="metadata10">
    <rdf:RDF>
      <cc:Work
         rdf:about="">
        <dc:format>image/svg+xml</dc:format>
        <dc:type
           rdf:resource="http://purl.org/dc/dcmitype/StillImage" />
        <dc:title></dc:title>
      </cc:Work>
    </rdf:RDF>
  </metadata>
  <defs
     id="defs8" />
  <sodipodi:namedview
     pagecolor="#ffffff"
     bordercolor="#666666"
     borderopacity="1"
     objecttolerance="10"
     gridtolerance="10"
     guidetolerance="10"
     inkscape:pageopacity="0"
     inkscape:pageshadow="2"
     inkscape:window-width="1366"
     inkscape:window-height="713"
     id="namedview6"
     showgrid="false"
     inkscape:snap-bbox="true"
     inkscape:bbox-nodes="true"
     inkscape:zoom="17.47831741343336"
     inkscape:cx="9.878142521121418"
     inkscape:cy="30.01050198755414"
     inkscape:window-x="0"
     inkscape:window-y="30"
     inkscape:window-maximized="1"
     inkscape:current-layer="svg2"
     inkscape:snap-page="true"
     fit-margin-top="0"
     fit-margin-left="0"
     fit-margin-right="0"
     fit-margin-bottom="0" />
  <path
     id="path4"
     d="M 26,9.405714285714308 C 19.23714285714286,10.24571428571431 14,16.0057142857143 14,23.00000000000002 l 12,0 0,-13.59428571428571 z M 14,33.6666666666667 c 0,7.36666666666668 6.265,13.33333333333332 14,13.33333333333332 7.73500000000002,0 14,-5.96666666666664 14,-13.33333333333332 l 0,-6.66666666666668 -28,0 0,6.66666666666668 z M 30,9.40571428571431 l 0,13.59428571428571 12,0 C 42,16.00571428571431 36.76285714285715,10.24571428571431 30,9.405714285714308 Z"
     inkscape:connector-curvature="0" />
  <path
     style="fill:#607D8B"
     d="m 34,1.000000000000033 -24,0 c -2.21,0 -4,1.789999999999999 -4,4.000000000000001 l 0,28.000000000000014 4,0 0,-28.000000000000021 24,0 0,-4.0000000000000479 z"
     id="path4162"
     inkscape:connector-curvature="0" />
</svg>
