<?xml version="1.0" encoding="UTF-8" standalone="no"?>
<svg
   xmlns:dc="http://purl.org/dc/elements/1.1/"
   xmlns:cc="http://creativecommons.org/ns#"
   xmlns:rdf="http://www.w3.org/1999/02/22-rdf-syntax-ns#"
   xmlns:svg="http://www.w3.org/2000/svg"
   xmlns="http://www.w3.org/2000/svg"
   xmlns:sodipodi="http://sodipodi.sourceforge.net/DTD/sodipodi-0.dtd"
   xmlns:inkscape="http://www.inkscape.org/namespaces/inkscape"
   height="286.2304382324219"
   viewBox="0 0 403.946533203125 286.2320119248744"
   id="svg2"
   version="1.1"
   inkscape:version="0.91 r13725"
   sodipodi:docname="emblem-greenraccoon23.svg"
   width="403.946533203125">
  <metadata
     id="metadata518">
    <rdf:RDF>
      <cc:Work
         rdf:about="">
        <dc:format>image/svg+xml</dc:format>
        <dc:type
           rdf:resource="http://purl.org/dc/dcmitype/StillImage" />
        <dc:title></dc:title>
      </cc:Work>
    </rdf:RDF>
  </metadata>
  <defs
     id="defs516" />
  <sodipodi:namedview
     pagecolor="#ffffff"
     bordercolor="#666666"
     borderopacity="1"
     objecttolerance="10"
     gridtolerance="10"
     guidetolerance="10"
     inkscape:pageopacity="0"
     inkscape:pageshadow="2"
     inkscape:window-width="1366"
     inkscape:window-height="713"
     id="namedview514"
     showgrid="false"
     inkscape:zoom="0.9482542924669252"
     inkscape:cx="330.7585087240003"
     inkscape:cy="199.2007327114445"
     inkscape:window-x="0"
     inkscape:window-y="30"
     inkscape:window-maximized="1"
     inkscape:current-layer="svg2"
     fit-margin-top="0"
     fit-margin-left="0"
     fit-margin-right="0"
     fit-margin-bottom="0" />
  <path
     style="fill:#fefefe;fill-opacity:1;stroke:none"
     d="M 99.890625 0.013671875 C 98.26817676485685 0.0708577053541212 96.6762643379124 0.3109297737920153 95.109375 0.7265625 C 92.3473568103441 1.427286074683841 89.680964111314 2.70321142302771 87.087890625 4.546875 C 85.46890284706343 5.669051266092249 83.86663800802361 6.989497203332451 82.27734375 8.5234375 C 68.36258218561883 21.95355805468429 66.90497928022398 42.19793610184152 77.654296875 72.71484375 L 82.119140625 85.39453125 C 81.83303384334964 86.29724641664698 81.22989480926346 87.56284638214574 80.20703125 89.34765625 L 40.724609375 144.67578125 C 24.33494381424234 167.642866688724 10.45369710746135 187.6696361001587 3.99609375 197.54296875 C 3.849558611130388 197.7641332969662 3.656392331978365 198.0472518739576 3.517578125 198.2578125 C 1.466749178772766 201.2665520991731 0.1972656250000006 203.1923365240633 0.197265625 203.34375 C 0.197265625 203.3459421108386 0.2216598832761205 203.3587329520477 0.22265625 203.361328125 C 0.2204618472841507 203.3687797033639 0.197265625 203.4057700587329 0.197265625 203.41015625 C 0.197265625 203.431268008652 0.2198792108362832 203.4606065054266 0.232421875 203.486328125 C 0.07012086306825527 203.7965069642823 -0.02710493522367652 204.0144082806841 0.0078125 204.05078125 C 0.00995824617556538 204.0530164416597 0.06677776588495848 204.0772783897856 0.0703125 204.080078125 C 0.07042068848800159 204.0960026274193 0.05378715517390151 204.133865280012 0.060546875 204.140625 C 0.9275440565635709 205.0076222027298 86.71161504815639 240.3027758643257 178.947265625 277.7421875 C 188.4311668384029 281.5918018217947 193.9862591516864 283.7871824048427 197.66796875 284.984375 C 199.5521841597052 285.6653149138979 201.0269944807737 286.153254772285 201.447265625 286.17578125 C 201.4543103354193 286.1761588455461 201.487493513191 286.165435216153 201.517578125 286.15625 C 201.5187542718003 286.1564951466339 201.581203942475 286.1815381803198 201.58203125 286.181640625 C 201.5832691847578 286.1817939172482 201.6232812799033 286.166060006942 201.625 286.166015625 L 201.62890625 286.166015625 C 201.6967302404308 286.1918016141775 201.7970873259007 286.2302053334961 201.802734375 286.23046875 C 201.8131338782418 286.2309538530571 202.0786291963187 286.1270658651687 202.119140625 286.115234375 C 203.684894104958 286.2975212983496 204.681911904469 286.0550271169517 205.822265625 285.5859375 C 207.8847654713185 284.7375189387648 236.5722680839051 273.0626193402283 269.572265625 259.642578125 C 302.572263166095 246.2225369097715 345.6035170849752 228.6653956862708 365.197265625 220.626953125 C 384.791014165025 212.5885105637292 401.5253906890339 205.7296555664275 402.384765625 205.384765625 C 403.0983041338944 205.0984037074717 403.6957919751863 204.4657661090976 403.880859375 203.86328125 L 403.8828125 203.861328125 C 403.9250121379933 203.8162424279908 403.9472656249999 203.7789586043108 403.947265625 203.75 C 403.947265625 203.7482100942719 403.922405921422 203.7115155935638 403.921875 203.708984375 C 403.9235894419864 203.699752810763 403.9241187032657 203.6908744030097 403.92578125 203.681640625 C 403.9279899336867 203.6772274050936 403.9472656250002 203.6656386120415 403.947265625 203.662109375 C 403.947265625 203.6596359086111 403.9324270419156 203.6363851805387 403.931640625 203.6328125 C 403.9386176327346 203.5882360247791 403.9472656250001 203.5431812578746 403.947265625 203.5 C 403.947265625 202.8084831162406 385.3143448903747 176.1247742577665 362.541015625 144.201171875 L 328.00390625 95.787109375 C 325.1571804473471 91.63394026440588 323.1474188367317 88.63470406630087 322.169921875 87.06640625 C 322.2404972432282 85.50103088512006 323.1175165351895 81.86348455154247 324.513671875 77.275390625 L 325.03515625 75.904296875 C 330.4222493969091 61.74117575037767 332.3762038586471 53.2406836282377 332.642578125 42.455078125 C 333.1097581241907 33.86556281131087 331.9861774391863 26.34971395318877 329.30859375 20.052734375 C 326.234976349059 12.44512977159586 321.083149419192 6.766995765054695 313.861328125 3.107421875 C 312.4168095049599 2.375428876246572 310.9750022066476 1.790427036055751 309.529296875 1.3359375 C 307.5531188356457 0.5677895362889883 305.9158330184659 0.262959925810765 303.9765625 0.28515625 C 293.4812405999716 -0.3794604377203148 282.2811077225868 6.30182896771057 267.650390625 21.421875 L 262.15625 27.099609375 L 258.166015625 31.134765625 L 249.94921875 28.15234375 C 249.4457442884464 27.96959234102844 248.9273096394186 27.79716881882148 248.4140625 27.62109375 C 248.2152052668192 27.55264658375122 248.0188304426314 27.48341837557249 247.818359375 27.416015625 C 247.0779230221472 27.16752237109143 246.3256594775948 26.9262021250916 245.56640625 26.69140625 C 245.4333971131925 26.65041815433578 245.3035583361903 26.60695958560395 245.169921875 26.56640625 C 217.6600146977589 18.18096849544201 178.3908729624662 18.70866348515474 153.21484375 28.154296875 L 145.607421875 31.0078125 L 136.12109375 21.267578125 C 121.858922383632 6.622025782275287 110.2526641803081 -0.3515550714459768 99.890625 0.013671875 z "
     transform="matrix(1.000005543262692,0,0,1.000005543262692,-0.0011138977761563,0)"
     id="path4552" />
  <path
     style="fill:#45804f;fill-opacity:1"
     d="M 99.88924370316043,0.0136270031790247 C 98.26678647436052,0.0708131505292258 96.67486522302732,0.3108865497496538 95.10796719943573,0.7265215799190229 92.34593369918744,1.427249038897713 89.67952621964212,2.703181460030962 87.08643835924063,4.546855256914775 85.46744160682952,5.669037743524854 83.86516788601474,6.989491000343755 82.27586481811555,8.523439800045323 68.36102612055574,21.95363480141583 66.90341513528504,42.19812506847863 77.65279231635221,72.71520187987273 l 4.46486849980185,12.67975778683866 c -0.28610836761541,0.90272017063428 -0.88925074505973,2.1683271516862 -1.9121199743246,3.9531469132104 l -39.48264073643611,55.3284316983311 c -16.38975641297929,22.9672127513119 -30.27108006715729,42.9940931763902 -36.728719220810411,52.8674805567081 -0.14653595115238,0.2211657729394 -0.339703301075811,0.5042859193314 -0.478518277537791,0.7148477125666 -2.050840314510818,3.0087562774071 -3.3203309053644107,4.9345513774263 -3.3203309053644107,5.0859656926877 0,0.00219212299 0.0243943935,0.014983035102 0.025390765747002,0.01757822244 -0.00219441488,0.00745161967 -0.025390765747002,0.044442180086 -0.025390765747002,0.048828395667 0,0.02111187568 0.022613711188999,0.050450535086 0.035156444879998,0.076172297241 -0.16230191160888907,0.3101805586851 -0.25952824884899077,0.5280830829712 -0.224610620068798283,0.564456253912 0.0021457580700001,0.00223520405 0.0589655927450003,0.026497286666 0.06250034645400149,0.0292970374 1.081890877188e-4,0.015924590693 -0.0165254364269991,0.053787453168 -0.009765679129998,0.060547210627 0.86700198755670143,0.8670020087231 86.65154850278996434,36.1623513206274 178.88771036607425912,73.6019704927954 9.4839537851587,3.8496356612181 15.0390768917781,6.0450284138375 18.7208068987752,7.2422276453478 1.8842258544062,0.6809436885267 3.3590443507357,1.1688862516925 3.7793178246353,1.1914128542778 0.00704474947,3.775976392e-4 0.040228111185,-0.010346091198 0.070312889761,-0.019531358267 0.00117615332,2.451479928e-4 0.06362617017,0.025288320499 0.064453482281,0.025390765747 0.00123794162,1.532930979e-4 0.041250258563,-0.015580704426 0.042968988187,-0.015625086614 4.906368456e-4,-2.6096075e-6 0.00340880449,5.4471155e-6 0.00390627165,0 0.067824366397,0.025786132116 0.1681820081726,0.064190064317 0.1738290885749,0.064453482281 0.010399560889,4.851057461e-4 0.2758963506761,-0.1034034580206 0.316408003923,-0.1152350137743 1.5657621593408,0.1822879338139 2.5627854855836,-0.060207591793 3.7031455273946,-0.5292998090318 2.0625112792969,-0.8484232642422 30.7501729142466,-12.5233875798139 63.7503533829967,-25.9435031858561 33.0001804687503,-13.4201156060423 76.0316729211748,-30.9773541533889 95.6255300744949,-39.0158412738585 19.5938571533203,-8.0384871204696 36.3283264403744,-14.8973801382061 37.1877061400814,-15.2422719914492 0.7135424642258,-0.2863635049076 1.3110336175497,-0.9190046101582 1.4961020432407,-1.5214928089876 0,0 0.00195313583,-0.00195313583 0.00195313583,-0.00195313583 0.042199871917,-0.045085946931 0.064453482281,-0.082369977285 0.064453482281,-0.111328742121 0,-0.00178991565 -0.024859841382,-0.038484619765 -0.025390765747,-0.04101585236 0.00171445149,-0.00923161541 0.0022437157,-0.018110072379 0.00390627165,-0.027343901574 0.00220869593,-0.00441324437 0.021484494093,-0.016002101662 0.021484494093,-0.019531358267 0,-0.0024734801 -0.014838665339,-0.025724337057 -0.015625086614,-0.0292970374 0.00697704641,-0.04457672232 0.015625086614,-0.089631738975 0.015625086614,-0.1328132362145 0,-0.6915207170192 -18.6330240217996,-27.3753774903012 -41.4064795257209,-59.2991568339817 L 328.003789445002,95.78759540050214 c -2.8467415828018,-4.15319213270151 -4.8565143340538,-7.1524449563607 -5.834016714308,-8.7207514661483 0.070575759446,-1.5653840421668 0.9475999129555,-5.20295053961924 2.3437629920219,-9.79106989917165 l 0.5214872657249,-1.37110135033279 c 5.3871230089815,-14.16319963452325 7.3410883020024,-22.66373887712407 7.6074640449379,-33.44940416780637 0.4671825888921,-8.58956292762891 -0.656404324415,-16.10545344807554 -3.3340028561512,-22.40246793207628 -3.0736344388096,-7.60764677435491 -8.2254899266067,-13.285812256284494 -15.4473512532512,-16.945406432318602 -1.4445266273864,-0.731997056382909 -2.8863419180152,-1.31700213939261 -4.3320552635873,-1.77149419480325 -1.9761889938283,-0.76815222175696 -3.6134838869134,-1.0729835219857797 -5.5527651552653,-1.0507870747564886 C 293.480932426769,-0.3795074887767953 282.2807374641056,6.301818952796243 267.6499392646106,21.42194879947274 l -5.4941710804648,5.67776584817314 -3.9902564939173,4.0351786179311 -8.2168424228635,-2.98243840734789 c -0.5034772524448,-0.18275242201063 -1.021914775292,-0.35517690000647 -1.5351647597744,-0.53125294485831 -0.1988583354987,-0.0684475456694 -0.3952342482438,-0.13767613759829 -0.5957064271389,-0.20507926180192 -0.740440457286,-0.24849463137197 -1.4927081718329,-0.48981621507329 -2.2519656081677,-0.72461339170011 -0.1330098741121,-0.040988322872 -0.2628493708448,-0.0844471325061 -0.3964865728171,-0.12500069290784 -27.5100596718832,-8.38548423724226 -66.7794190863442,-7.8577863223776 -91.9555878561539,1.58789942709484 l -7.6074640449379,2.8535314427867 -9.4863807102087,-9.74028836767782 C 121.857662862836,6.622017542296025 110.2513403229737,-0.3516019678158564 99.88924370316043,0.0136270031790247 Z M 93.39897335108642,12.93362049669993 c 0.047673240989,-0.002854794958 0.079110840621,0.0111991953214 0.1152350137744,0.0195313582669 0.21926410693401,0.35761154524517 -0.57624943827692,2.28378782489657 -1.81836945464372,4.4629153639751 -0.00804150332,0.0141077038602 -0.01535787001,0.0268873180992 -0.02343762992,0.0410158523604 -0.1798611840764,0.3012221717256 -0.3504971558735,0.61047278934355 -0.5156278582449,0.92773951767535 -5.70753660896681,10.25284065917724 -3.9417327900648,24.6373571171874 5.34768589346341,43.5158662185406 4.40793167560857,8.95806089606835 7.60291958811156,14.44410131441376 10.02739933420047,17.10751670593344 l 2.0761833837662,2.63478023019803 1.0214900373562,-0.6835975393397 c 0.3441379789939,-0.0075496403 0.6689774757882,-0.10178801557521 0.9707085058624,-0.30859546061633 17.7623157930822,-12.17434993768481 24.4319655704255,-16.24613744018896 31.0509533726372,-18.95908946963075 3.8286596481795,-1.56926863637652 8.4150981410265,-2.74240674529082 12.6641327002252,-3.41603456087195 1.1493204076295,-0.0464938491751 2.3797946989396,-0.0756205097147 3.8418181710893,-0.0820317047208 l 7.5664481925775,-0.0332033090536 c 0.7062078850046,0.20030720103768 1.2580850740903,0.45752807849688 1.5820400196148,0.7910200098074 0.7866549956512,0.97887432486229 6.2783800884151,14.66127690472051 12.2207708675677,30.4493875380184 5.9516032372577,15.81258686065671 11.8364877673331,30.4832514533059 13.0781974954824,32.60174321902511 0.9419247386698,1.6070259880895 1.7183205925998,3.0874315518335 2.3574349428087,4.4961186730286 0.016731928841,0.039524265693 0.036105448969,0.079681463691 0.05273466732,0.1191412854278 0.3653814789119,0.8670213908374 0.6927085849652,1.7034793024803 1.0000055432626,2.5156389447702 1.4228145951605,4.1678565619338 1.4638641906331,7.8725096950745 0.3730489428968,12.503975562437 -1.5410952143921,6.543298600405 -5.3051551608097,14.8089403351498 -9.6504441196503,21.195429991185 l -2.0605582971526,3.0273605313616 c -0.088976602149,0.047227721328 -0.1734603107379,0.081322263045 -0.2558607932957,0.1113287421211 l -1.6621185885089,-1.8984480235378 -0.00976567913,-0.01171881496 -2.4668105491031,-3.2929870037908 c -1.8759392579754,-2.5036935081093 -4.4788628834164,-4.8740178801279 -7.402384783136,-6.8867569248911 -2.1777413585693,-1.6866035046846 -4.3713123197555,-2.8960326916936 -6.7695687752899,-3.7246300214882 -2.0640072818172,-0.876260649831 -4.1422481510538,-1.5414359254495 -6.1328464957907,-1.8945417518844 -6.4211471293077,-1.1390265995895 -14.7110807839632,0.1574394323547 -24.0860710146788,3.5488477970865 -3.6438124127625,1.2069790630849 -7.3671423653435,2.7658247616698 -11.2559217691853,4.7090104781374 -1.427757271664,0.7134365950765 -3.0580379581637,1.6059454645815 -4.7597920096312,2.5683736120907 -7.2524268581195,3.9166786899309 -14.8385977109183,8.7892485425003 -22.49231218010386,14.5117991922692 -3.26564285888669,2.4416649901526 -5.93753291312228,4.8407753819719 -5.93753291312228,5.3301076710232 0,0.030855888108 0.059521562596,0.1057659618043 0.1328132362146,0.1894541751884 l -0.3242205472297,0.2812515590426 6.98441371622539,5.1758099407152 c 15.13413118527926,11.7788236341832 50.65194844864284,37.9494291124885 51.92606908824597,37.9494291124885 0.1259078773671,0 0.2305020135853,-0.011229484349 0.3378924980164,-0.021484494094 0.00101564206,4.59793463e-5 0.00487752296,0.00193348093 0.00585940748,0.00195313583 0.2146121113961,0.00429600203 0.3868040133275,-0.015249355726 0.5312529448583,-0.048828395667 0.018245684817,0.00862206259 0.1066058717475,0.068359753934 0.1132818779477,0.068359753934 0.1844231055189,0 0.2701422305606,-0.065958951841 0.2753921515627,-0.1875010393618 0.199151890058,-0.1276025094385 0.193163206963,-0.3960684649256 0.00781254331,-0.7793011948473 0.00399456033,-0.027435310491 0.00976567913,-0.053225833585 0.00976567913,-0.085937976374 0,-0.1382011497876 -0.1689069711276,-0.3910142799092 -0.4140647952572,-0.6914100826465 -0.8536239476086,-1.2889526245985 -3.0165304133336,-3.2646871980957 -6.4609733146738,-5.8652668875349 -3.781270678711,-2.8548871353045 -6.875038109931,-5.4112942851975 -6.875038109931,-5.6816721198265 0,-0.2703778346289 2.1093868849228,0.4074950935645 4.6875259840439,1.5078208582008 11.6275427842495,4.962527006119 12.4237530237608,4.9045817432861 7.5000415744702,-0.5429717598184 l -1.7949318247235,-1.9843859999119 c -0.096877291399,-0.1647816512944 -0.1286284524318,-0.2805427071927 -0.027343901574,-0.2968766456562 0.2976878721567,0.098196018574 0.5912099225718,0.194090721872 1.0136774940494,0.3750020787236 l 2.5175920805969,1.5136802656808 c 2.1562803723501,1.2962175352167 3.7936902749068,2.0993260626358 5.1543254466217,2.4062633384759 l 1.3086010038788,0.7714886515405 0.142578915348,-0.1523445944814 0.093750519681,0.048828395667 0.01171881496,0.00585940748 0.6347691436726,-0.6699255885531 c 1.2276670684532,-0.3218366961361 2.2954892420605,-1.2427015482171 3.5195507596862,-2.7988436396395 5.231053714536,-6.6502073224808 20.3581681335641,-22.1049439252298 22.1583259537408,-22.7188759359993 0.4870100910455,0.9012350916553 1.4548089021932,3.4272510855568 2.6054831927976,6.6680057123024 0.8902001807444,2.6840994605524 1.9057550461466,5.8435216103626 2.9824384073479,9.3516143381675 l 3.8359587636092,12.4903036116503 c 0.3693280760352,1.8024817632247 0.3626097633098,2.8124800981971 0.01171881496,3.4160345608719 l -3.0273605313617,2.1933715333673 c -0.060178395764,0.042477777076 -0.1180562769351,0.086156785904 -0.1777353602283,0.1289069645611 l -0.8945362086217,0.6484410944594 c -0.9176082494966,0.6647120121171 -1.7983679573992,1.4530511999017 -2.6367333660246,2.3222784979285 -2.8110056372449,2.7818612900108 -4.7668775050589,5.9436641878429 -5.8183916276945,9.3027859425004 -0.7916072723561,2.1362765066073 -1.2593453966602,4.276191333992 -1.2734445589986,6.2265970154716 -0.013801793129,1.9092691528849 0.5988566112707,4.2697647246622 1.5937588345749,6.6621463048224 0.5667373641671,1.6093863518814 1.3268763753056,3.212739993346 2.2968877321815,4.7910421828581 1.1267483192436,1.8333283694932 2.4077208992585,3.3617641988554 3.8672089368362,4.6211193659366 0.6193121420967,0.5985860506298 1.2459094766946,1.1213032784917 1.8691509861375,1.5351647597743 2.2161672402994,1.4716385910498 6.5999663039198,3.0600562962671 9.7422415035045,3.5312695746464 14.4021799806035,2.159740319806 26.5741275936757,-11.8852478146942 22.9102832470144,-26.4356934141808 -0.7760447645428,-3.0819532875457 -2.1446034606779,-5.5054122841862 -4.8047141336449,-8.3223117575046 -1.0767552081237,-1.210278404455 -2.3429462188563,-2.4321670290499 -3.843771306916,-3.7168174781814 l -1.599618242055,-1.3691482145062 -3.1445486809627,-2.8281406770399 c -0.070369635002,-0.1766542234187 -0.1137334589414,-0.3390160023034 -0.1289069645612,-0.4882839566712 0.015257624963,-0.1496812933798 0.021793654871,-0.2768915966465 0.04687525984,-0.4511743759643 l 4.3593991651608,-14.0742967670917 c 1.801300290753,-5.8169948582412 3.5540737589721,-11.0036699862449 4.6035411434965,-13.7305448615952 0.7086568072744,-1.0988095043021 1.4561933216816,-1.4723005487158 2.417982153436,-1.1757877676643 2.2550449074385,1.7564123886095 6.6930652694578,6.0716914620233 11.5860017238951,11.3555316963463 2.0472466362578,2.210804135098 3.9707943162731,4.1892845218016 5.7871414544674,6.0156583461896 l 7.2812903618815,7.7207459228856 0.1210944212545,-0.058594074801 0.021484494093,-0.00976567913 1.1836003109711,-0.5722687972187 c 1.2344918451704,-0.2829625593688 3.6768018672657,-1.3636046655616 5.9219078265087,-2.6504053168114 l 2.4101696101293,-1.3808670294663 0.6425816869793,-0.3105485964429 c 0.3179347218353,-0.043211305463 0.5468684454806,-0.010497345134 0.6972694901265,0.085937976374 l -1.8027443680302,2.0000110865253 c -1.5468834594727,1.7163915679748 -2.812515590426,3.4910332964136 -2.812515590426,3.9453343699036 9e-14,0.833732883374 1.7675351679686,0.2523857660508 10.3125571648964,-3.3945500667784 2.4994101166843,-1.0667249679109 4.5406763652761,-1.6986055520631 4.6640883541236,-1.4550861908803 -0.046186096666,0.093307002267 -0.1252829048168,0.2070652450951 -0.2343762992021,0.3378924980165 -0.8311978489104,0.8253203192887 -3.7569952358405,3.0572323147375 -7.2422276453478,5.5019836237715 -6.3757245377379,4.4723160691251 -7.9063887095722,5.8532727544772 -7.2031649288142,7.1465239898402 0.012146738269,0.025290716403 0.023102835379,0.05159110526 0.042968988187,0.072266025587 0.1080691541361,0.1776610380161 0.2512981884163,0.3548143827322 0.4355492893509,0.539065488165 0.9761332925215,0.9761333163529 3.0731890697363,-0.4777210496269 34.6330044787774,-24.0059924457847 11.8327942578631,-8.8215089684631 18.8270916229188,-13.6451984938408 21.7872301466705,-17.0586883102663 1.7127255044442,-1.4412178733246 2.7573985211229,-2.4135333449617 2.7636871947592,-2.6464990451581 2.667416362e-4,-0.00988151964 -0.00575474415,-0.023146387378 -0.00585940748,-0.033203309054 0.013885395765,-0.016116271348 0.033285439718,-0.036862106337 0.033203309054,-0.042968988187 -5.30501721e-5,-0.00394458193 -0.00371755784,-0.00965017056 -0.00390627165,-0.013671950787 0.00116047081,-0.00550689804 0.01757822244,-0.020715874632 0.01757822244,-0.025390765747 0,-0.035714139287 -0.041351007535,-0.099783886407 -0.062500346454,-0.1503914586548 -0.010971561094,-0.028958106894 -0.021755693318,-0.058412892314 -0.037109580707,-0.089844248028 -0.00503992264,-0.00894415143 -0.010830345793,-0.0186403154 -0.015625086614,-0.027343901574 -0.1713388516371,-0.5151093826407 -0.6784420711182,-1.1857784871725 -1.4648518700138,-1.9804797282586 -1.41289394746,-2.5220496219702 -6.1266122660977,-5.1093029503441 -13.4961685623931,-10.0176336550671 -19.7516219124874,-13.1551328741288 -32.557405460252,-18.096205918835 -47.2522150549888,-18.2344760779305 -10.8282571442604,-0.1018880053133 -19.3934771624835,3.9586758079503 -25.6602984909869,12.1660830644204 l -3.4609566848857,4.5312751179091 c -0.3760022084116,0.2853330196945 -0.6873171624749,0.4402568520745 -0.9668022342091,0.4902370924979 l -1.6543060452021,-2.0058704940054 -1.6836030826024,-2.666030403425 c -1.4695643234207,-2.3279405446008 -2.7341980704015,-4.5755459763066 -3.8398650352626,-6.7656625036366 -2.0497633395561,-4.4488127721718 -3.8186928014596,-9.3753620702331 -4.6660414899502,-13.2676516706708 -0.1273298190959,-0.7076625227167 -0.2476044722062,-1.4130102831014 -0.3300799547097,-2.1093866928197 -0.1101129330581,-0.929731438472 -0.16442685937,-1.7510747521537 -0.185547903535,-2.5507953896506 -0.00268329145,-0.7558743640949 0.023692639478,-1.499134320129 0.080078568894,-2.2304811140742 0.3548518903728,-3.033926430938 1.7069416102052,-6.4178965059371 4.9980745804867,-13.6543725643545 3.0881907417556,-6.7902508249694 9.7109309154361,-23.31458303477289 14.716878454071,-36.72090667750369 5.0059475386347,-13.40632364273064 9.7215904039764,-24.78800871346711 10.4785737101648,-25.29310895556998 0.2620617901091,-0.17486181339521 0.6174007271672,-0.31973023567897 1.0312557164898,-0.4433618326575 l 4.9258085548993,-0.2597670649491 c 0.5436898852322,-0.0286950746338 1.1001998885254,-0.0273392814867 1.6562591810288,-0.0273439015736 0.3624146432293,0.0205457019854 0.6692875632819,0.034410718674 1.0644590255433,0.0585940748006 0.7236760567532,0.0442868918229 1.4355831725004,0.10066375976159 2.1406368660466,0.16796968109489 2.4962821819524,0.32929694903504 5.1047107209421,0.84464662022678 7.5176197969105,1.56055552552125 2.0755816073907,0.61582401558181 4.0659089059235,1.30558818189222 6.0527679268966,2.08790219872624 0.3429990585274,0.13631979979634 0.6848585514712,0.27471873960339 1.0234431731829,0.41406479525719 0.8549089477913,0.3522885650864 1.7098565455739,0.71482129053075 2.5742330195707,1.11133428538372 0.068991865075,0.0310686673531 0.13812311331,0.0624921459302 0.2070323976288,0.0937505196809 5.4207321654217,2.50675666069056 11.1691967230535,5.95207239384158 18.7891666527092,11.14068675541086 0.6632613120942,0.45163001969513 1.2754800990031,0.85189578682933 1.9062605668444,1.27149142317191 3.7465946041263,2.57162192751727 6.984177467733,4.67156665787158 8.2734833618373,5.35354530094338 l 0.464846326751,0.33984563384324 0.078125433067,-0.095703655507 c 0.011522230432,0.00208035924 0.04609112644,0.019531358267 0.054687803147,0.019531358267 0.0283510417,0 0.064815244671,-0.017704038694 0.095703655508,-0.02343762992 0.033380700609,0.00724698472 0.079515902552,0.02343762992 0.1035161988143,0.02343762992 0.030131016464,0 0.070251697327,-0.021046781051 0.1074224704678,-0.03515644488 0.026389234324,0.0057841616 0.085408328891,0.03515644488 0.1035161988143,0.03515644488 1.6426765658939,0 8.1721071075797,-10.74876663907675 13.7110135033282,-22.56848447734449 0.7182560076181,-1.53271832725023 1.3616606146028,-3.03199651579744 1.9668077774717,-4.51565003129563 0.1055862957814,-0.24510980982242 0.2256085034936,-0.5089766190174 0.3222674114031,-0.74219161414025 0.5056537297281,-1.22002239279293 0.9406877926309,-2.41797325600252 1.332038633799,-3.62306695850059 0.038550635493,-0.11227453052328 0.075424718125,-0.22397023671071 0.1132818779479,-0.33593936218982 0.034886677184,-0.11039907710035 0.071472135268,-0.22143071842629 0.1054693346409,-0.33203309053644 0.045544288071,-0.13684109273759 0.08440129803,-0.2698692834561 0.1289069645612,-0.40625225195045 0.021585611108,-0.0678707416579 0.05146165859,-0.14800037647431 0.072266025587,-0.21484494093535 0.022758317777,-0.0731226208361 0.042027631865,-0.14746313173515 0.064453482281,-0.22070434841541 3.8325263178992,-12.00210500269479 3.624152677671,-22.21994335007331 -0.681644403513,-30.47868457541851 -2.6514518016889,-5.08562152111442 -0.6391499217153,-5.34034797405267 4.1738512616258,-0.52734667320493 1.7632168886255,1.76321693167349 3.1454832530586,3.9846467829842 4.1523667675324,6.6308961315954 0.036140272001,0.0984372773398 0.072235271644,0.19737086345992 0.1074224704676,0.29687664565611 0.094501006379,0.25845479200035 0.1840109548567,0.52268754558121 0.2714858799093,0.78906687398073 0.6330440819702,1.98090108696169 1.0910567169182,4.15491456043759 1.3671950786795,6.52152052530101 0.020011454849,0.1715054297737 0.030689151046,0.35192636687106 0.048828395667,0.52539353737826 1.1593636612465,11.84077260745648 -2.2546408835332,28.58788138224275 -10.1777907928554,49.0744907812859 -1.923926294486,4.97462839385514 -2.9765187474082,7.81995515915095 -3.4258002400054,9.76958540507805 l -0.8457078129545,2.1640744959669 0.6406285511526,0.90625502358179 c 0.011237115694,0.12406940693711 0.032284811599,0.22945573171542 0.070312889761,0.29101723817611 0.01034846114,0.016752538865 0.3133695585181,0.4321084611491 0.3339862263631,0.46289319092429 0.1902141672405,0.39492611311222 0.415178064224,0.7956340882062 0.7128945767399,1.25000692907841 1.1163097409897,1.7037040506079 12.1543284636049,16.9119758485371 24.5274797115097,33.79706234495629 9.3856705765837,12.8082051481712 17.6038379628146,24.2154814951152 21.1798049045714,29.3634440183815 0.9462762133642,1.7435608143418 1.381398162108,2.9646067879033 1.3593825353727,3.8027554545556 -0.1118184127516,0.09868451878 -0.2401976995624,0.1948064617226 -0.3867208936837,0.2890641023495 -0.9953934430387,0.4667638944349 -2.7536932526956,0.8631700226376 -5.443389548971,1.1992253975845 -1.3199110618716,0.1649120041574 -2.5360310535496,0.362540717934 -3.5898636494469,0.5683625255654 -0.1394610906459,0.00165189003 -0.2693404405468,0.013671950787 -0.4101585236039,0.013671950787 -1.2744826661378,0 -2.3505629659158,0.2591763351393 -2.7578277872792,0.6171909212324 l -0.835942133821,0.1093756062945 0.7031288976066,0.4941433641514 c 0.3987088823698,0.6765853914151 3.8833870972155,3.3624221101844 8.138716989796,6.2480815095651 1.6401162341589,1.1122091463295 3.1076133976523,2.1399628937723 4.4355714624016,3.0840014703355 0.6862133645752,0.4956482332237 1.3294324628548,0.9629281638689 1.8828229369243,1.3789138936396 0.1295404991385,0.1066088584833 0.2691802171587,0.2192275653847 0.3613301279367,0.3007829173096 l 1.9160262459779,1.6953218975625 c -0.5198215583447,0.2793166231462 -3.2910596852554,0.3183018104321 -6.7734750469435,0.066406618107 -3.7570196573092,-0.2717582743166 -6.2389862529199,-0.3391444931021 -7.5019947102969,-0.1386726436946 l -1.9121199743246,-0.1503914586548 0.9902398641295,0.5000027716313 c -0.00762005607,0.010327372879 -0.00754640857,0.022510229282 -0.013671950787,0.033203309054 -0.1415006471437,0.02076843805 -0.2264049547879,0.047556204087 -0.1875010393617,0.085937976374 0.00710023665,0.00700494188 0.1348271700658,0.066644025879 0.1523445944813,0.078125433067 0.056429360401,0.759759615029 2.8888253218105,2.2209507753501 8.5293441551331,4.6504164033368 5.7902533957732,2.4939588038001 13.904374257535,6.1174123965103 18.0293968161288,8.052779013422 l 6.162143533191,2.8906410234938 c -0.2097273519823,0.4397025194366 -1.4928793379397,0.6711913360407 -3.6972861199147,0.8378952696477 l -9.9648989877467,0.4160179310839 c -0.2513188176191,0.010471617656 -0.3332473333294,0.015253703373 -0.5761750688719,0.025390765747 -4.0659729117204,0.041349806699 -7.203458660057,0.1945641079864 -9.1914572003794,0.4511743759643 -2.4766225911175,0.1768872170458 -3.4063988084623,0.3702547707606 -3.0195479880549,0.70703516926 0.044480810237,0.053842612159 0.1119299685669,0.1103330387252 0.2187512125887,0.1718759527482 0.266955438419,0.5964742121919 2.7186059591426,1.5469940871661 6.943397863865,3.2031427557633 1.1342320271594,0.4446270737171 -0.7177138889874,1.4809713500774 -4.6875259840438,2.623061415238 -2.1695937031106,0.6241785138503 -4.0886747618008,1.3568645279076 -5.2851855470096,1.9726671849518 l -1.9023542951911,0.5410186239918 0.8808642578349,0.1054693346409 c -0.150716784976,0.1346883713208 -0.2558607932957,0.2603868732358 -0.2558607932957,0.3593769921099 0,0.5994532194837 3.2343932235484,1.113105300505 7.1875398422005,1.140631322784 2.1737735136057,0.015136129251 3.5738466124692,0.04397506773 4.5039312163356,0.1191412854277 0.00214398099,1.732691211e-4 0.00567422666,0.00177933041 0.00781254331,0.00195313583 0.249392738155,0.038613666779 0.4713263854521,0.08205032143 0.6621130452462,0.1308601003877 0.3031217514252,0.077548952849 0.5059905217773,0.1695033970535 0.6484410944594,0.2695327440826 -0.051036353949,0.2516749067915 -0.6812467346563,0.6273879168165 -1.7597753798432,1.2070379408913 -1.7187593994141,0.9237389583439 -37.5804883683233,15.5275185506863 -79.6918480003992,32.4513517603703 -29.9619197914696,12.0411817054354 -55.2045186027909,22.0851906381748 -68.0081894851698,27.0899939161201 -4.3967448519049,1.676286186182 -7.6733349521742,2.8948970018462 -9.0176281118044,3.3300965844979 -1.7116013777889,-0.4372992055026 -4.3821691784797,-1.3006305716124 -8.2051236079035,-2.6621241317716 C 163.188778687124,257.3801703353032 46.76435097947767,210.3304198957364 44.39284232373624,208.9522851986351 c -1.88131062345871,-1.0932700751219 -1.09039691182351,-1.3578874658129 4.16603871831898,-1.3886795727729 3.56882033324637,-0.020906086397 6.81686458666798,-0.5684277352982 7.21879001542747,-1.2187567558513 0.064312654454,-0.1040600633534 0.034497461071,-0.2274316377424 -0.037109580707,-0.3574238562834 l 0.080078568894,-0.00195313583 -0.095703655508,-0.027343901574 c -0.035427556289,-0.05755675975 -0.09639231492,-0.1185891338046 -0.15429773030807,-0.1796884960551 l 1.50000831489399,-0.2421888425089 -0.10742247046772,-0.027343901574 0.10742247046772,-0.013671950787 -2.92189119672071,-0.6855506751665 -0.17382908857492,-0.042968988187 c -2.13027532678965,-1.0255411110156 -5.62920989273496,-2.0693681426531 -7.99809121027485,-2.2050903483273 -0.8888860383729,-0.314611628356 -1.61305702562021,-0.6114249469143 -2.0761833837661,-0.861332899568 0.28319133277649,-0.7928788901927 2.26511288992879,-2.0143964212676 5.35745157259679,-3.0390793463219 1.39947607973842,-0.4637329187023 2.3929580191134,-0.8002838294011 2.87892220853361,-1.0585996180632 l 2.43360724004948,-0.7011757617798 -3.43165964748548,-0.082031704721 c -0.48712094646786,-0.3128093994854 -3.7829664714196,-0.3706379096656 -9.96099271609316,-0.4179710669107 -0.96255019028171,-0.041677657511 -1.71377596366063,-0.077348118795 -2.8574377144401,-0.1250006929078 l -5.80081340525431,-0.242188842509 c -1.49526216869851,-0.069347317029 -2.74664018885931,-0.143534044653 -3.74611451558172,-0.2382825708556 -1.46213605422254,-0.1956545589811 -2.32813790540849,-0.405847702079 -2.32813790540849,-0.6093783779258 0,-0.554421651094 7.45316699339373,-4.3328185989308 16.56259181028834,-8.3965309189185 4.04848893116792,-1.8060299829697 7.12772107282917,-3.2373596175664 9.36528628895439,-4.3769773876009 3.59822145975157,-1.6618117289571 6.09554963341901,-2.8902600825308 6.44925449971366,-3.2187678423767 0.028772048541,-0.020505215597 0.11088034102367,-0.064709784081 0.12304755708114,-0.078125433067 0.00606968191,-0.00669246947 -0.00499310818,-0.011228118309 -0.00195313583,-0.01757822244 9.23405004e-6,-2.662373362e-4 0.00195313583,-0.00169082294 0.00195313583,-0.00195313583 0,-0.00122206258 -0.00185674469,-0.00269197162 -0.00195313583,-0.00390627165 0.020430144584,-0.061714431769 -0.1216765014805,-0.104665768113 -0.33984563384316,-0.1386726436947 -0.1405464644591,-0.028258271407 -0.36243885546933,-0.04883782466 -0.58984701965892,-0.068359753934 l 0.30664232478948,-0.154297730308 -1.24024124994491,0.111328742121 c -0.37400582460745,-0.011582726631 -0.77116415663277,-0.016932509569 -1.23828811411829,-0.015625086614 -1.24759903914719,-0.2329816939344 -3.77368485588029,-0.1533134864628 -7.58793268667103,0.1503914586546 -2.926468455858,0.233016568719 -5.0590742986833,-5.694030961e-4 -4.7383075155376,-0.5195341298982 0.3207667831457,-0.5189647268021 3.88998233699079,-3.1883321882199 7.92973145634079,-5.9316735056421 4.0397491193497,-2.7433413174225 7.66317713295173,-5.5044105315454 8.05277901342189,-6.1347996316175 0.089572238384,-0.1449309296911 -0.029211085008,-0.3109435897709 -0.28711096652262,-0.4843776850178 l 0.35937699211003,-0.2558607932958 -1.02149003735623,-0.078125433067 c -0.069234627691,-0.028732557554 -0.12355951622827,-0.057065157068 -0.19921985432186,-0.085937976374 -0.072219920136,-0.028731663939 -0.14795682643014,-0.055264618371 -0.23242316337548,-0.082031704721 -1.24902325611943,-0.4412603121142 -3.2157675229465,-0.8876311429306 -5.54299947613189,-1.2070379408913 l -6.72855292292963,-0.9218801101953 c -0.03930765064,-0.041406278805 -0.077111277853,-0.084262409099 -0.1093756062943,-0.1269538287346 0.068395088677,-0.4675874606908 0.903769637969,-1.9587768005803 2.27345010226119,-4.1484604958788 0.47711116868288,-0.6702475942414 1.18815510930831,-1.6572768392121 1.77930673811,-2.4824356357166 l 19.81065669006539,-27.1173378176936 c 13.56104303266011,-18.5626019668578 25.1025684671026,-34.31547675998607 25.6485796760267,-35.00605342167427 0.080773751427,-0.1021599313366 0.1034246872357,-0.3405624049941 0.097656791334,-0.64453482280589 l 0.29882978148269,-0.4082053877772 -0.58984701965881,-1.5722743404814 0,-0.00195313583 c -0.5227132004763,-2.36011224070289 -1.68037056200819,-6.00781341400808 -3.18165826166971,-9.87310160389238 -0.059735019536,-0.1537966810677 -0.11261535715549,-0.3035164320446 -0.17187595274828,-0.4570337834442 -0.9996854224337,-2.96646123876332 -2.04793171657199,-6.0712911873693 -3.25392428725712,-9.53716224170269 -1.09677285959279,-3.15198733362125 -2.0708841942307,-6.13274006036184 -2.93751628333419,-8.96684658031055 -3.89320386304749,-13.92782224079153 -5.30552264820561,-25.80035930050463 -3.96486572817041,-34.05487627407871 0.64792727302553,-2.58448288649584 1.56331916894294,-5.05596606718013 2.65431158846491,-7.22855569456101 1.85291988498059,-2.79020253787737 4.69605821825118,-5.96974410581612 6.7891001335568,-7.65824557643169 1.1993643130413,-0.62024811589571 2.02203556311238,-1.035357163861 2.4101696101293,-1.05859961806324 z M 158.172769907266,154.1590127168082 c 3.4359415541229,-0.037921847034 6.9403601721251,1.319549267784 9.6250533539034,4.3242427202805 5.717307368989,6.3987781300703 4.3555248169285,16.0702405368614 -2.7832185530261,19.7618282943983 -10.1637746041838,5.255892242476 -21.3959230666425,-2.5466267346689 -19.3516697707944,-13.4434338950725 0.1800450683982,-0.9597227479111 0.4518435180035,-1.8618214756701 0.7988325531141,-2.7050931199586 0.7156765189232,-1.4089389351386 1.6978668785621,-2.78381036679 2.9843915431747,-4.0703350628115 0.995739612019,-0.995739636329 1.9966320688716,-1.8050294765249 3.0117354447481,-2.4511854624896 1.7687100235014,-0.9039610044629 3.7300903038381,-1.3941177705618 5.7148754288802,-1.4160234743466 z m 86.5004794922227,0.1210944212545 c 0.2773202864691,-0.0089430159 0.556404011875,-0.00878513099 0.8378952696479,0 1.2868171783906,0.040160598816 2.614187188087,0.2697088210879 3.9570531848637,0.71289457674 5.4150094946993,1.7871143364507 8.568406871667,6.5629444613126 8.568406871667,12.9785875683215 1e-13,4.0461950270956 -0.7593820219509,5.6918376881638 -3.9394749624237,8.5332504267865 -2.431157933123,2.1722393810767 -5.2277808854203,3.3119249399471 -7.9980912102748,3.5488477970865 -2.9137170824842,0.036474765865 -5.907442036878,-0.8099407887559 -8.3965309189186,-2.3691537577688 -1.8594786544698,-1.3730045497485 -3.4227249775649,-3.2932273812187 -4.4492434131883,-5.7500318737605 -1.3689143036716,-3.2762731719696 -1.2960709831596,-6.5390161769907 -0.2324231633755,-9.3574737456476 0.9231202007805,-2.089236816073 2.3343441814315,-4.0051619317138 4.066428791158,-5.5117493029049 2.0976599389441,-1.6505519468018 4.7168377405982,-2.6926476937377 7.5859795508443,-2.7851716888527 z"
     id="path4412"
     inkscape:connector-curvature="0" />
</svg>
