<?xml version="1.0" encoding="UTF-8" standalone="no"?>
<!-- Created with Inkscape (http://www.inkscape.org/) -->

<svg
   xmlns:dc="http://purl.org/dc/elements/1.1/"
   xmlns:cc="http://creativecommons.org/ns#"
   xmlns:rdf="http://www.w3.org/1999/02/22-rdf-syntax-ns#"
   xmlns:svg="http://www.w3.org/2000/svg"
   xmlns="http://www.w3.org/2000/svg"
   xmlns:sodipodi="http://sodipodi.sourceforge.net/DTD/sodipodi-0.dtd"
   xmlns:inkscape="http://www.inkscape.org/namespaces/inkscape"
   id="svg2"
   version="1.1"
   inkscape:version="0.91 r13725"
   xml:space="preserve"
   width="150.9700012207031"
   height="147.2422332763672"
   viewBox="0 0 150.9700012207031 147.2422332763672"
   sodipodi:docname="github.svg"><metadata
     id="metadata8"><rdf:RDF><cc:Work
         rdf:about=""><dc:format>image/svg+xml</dc:format><dc:type
           rdf:resource="http://purl.org/dc/dcmitype/StillImage" /><dc:title></dc:title></cc:Work></rdf:RDF></metadata><defs
     id="defs6" /><sodipodi:namedview
     pagecolor="#ffffff"
     bordercolor="#666666"
     borderopacity="1"
     objecttolerance="10"
     gridtolerance="10"
     guidetolerance="10"
     inkscape:pageopacity="0"
     inkscape:pageshadow="2"
     inkscape:window-width="1366"
     inkscape:window-height="713"
     id="namedview4"
     showgrid="false"
     inkscape:zoom="1.000000004220841"
     inkscape:cx="198.5479744488905"
     inkscape:cy="-19.81626626789287"
     inkscape:window-x="0"
     inkscape:window-y="31"
     inkscape:window-maximized="1"
     inkscape:current-layer="g10"
     inkscape:snap-bbox="true"
     inkscape:bbox-nodes="true"
     inkscape:snap-page="true"
     inkscape:snap-intersection-paths="true"
     inkscape:object-nodes="true"
     inkscape:snap-smooth-nodes="true"
     inkscape:snap-midpoints="true"
     inkscape:object-paths="false"
     inkscape:bbox-paths="false"
     inkscape:snap-nodes="false"
     fit-margin-top="0"
     fit-margin-left="0"
     fit-margin-right="0"
     fit-margin-bottom="0" /><g
     id="g10"
     inkscape:groupmode="layer"
     inkscape:label="GitHub-Mark"
     transform="matrix(1.25,0,0,-1.25,-135.9999992824486,309.5155340751907)"><path
       inkscape:connector-curvature="0"
       id="path5618"
       style="fill:#231f20;fill-opacity:1;fill-rule:nonzero;stroke:none"
       d="m 147.8968744259589,149.9109974505819 c 0.7179999999999,0.014 1.3078125,-0.3872499999999 1.3078125,-0.8812499999999 0.017,-0.4980000000001 -0.5632499999999,-0.9097499999994 -1.28125,-0.9187500000001 -0.7219999999999,-0.017 -1.3076250000001,0.3865625 -1.315625,0.8765624999999 0,0.503 0.5680624999999,0.9104375000008 1.2890625,0.9234375 z m 4.9765625,0.5828125 c 0.485203125,-0.05296875 0.8614375000001,-0.3107500000008 0.9296875,-0.68125 0.086,-0.485 -0.4135625000003,-0.9841875 -1.1265625,-1.1171875 -0.7010000000001,-0.129 -1.3500625000001,0.1721250000008 -1.4390625,0.653125 -0.087,0.498 0.4208750000001,0.9975624999999 1.121875,1.1265625000001 0.1784999999999,0.031 0.3523281249999,0.03640625 0.5140625,0.01875 z m -10.10625,0.2171875 c 0.1630468750001,-0.001875 0.3340000000001,-0.0290625 0.50625,-0.0828125 0.682,-0.2059999999999 1.1310624999999,-0.7549375000008 0.9890625,-1.2359375 -0.147,-0.4729999999999 -0.8253749999999,-0.6869375 -1.509375,-0.4859375 -0.683,0.207 -1.1301874999999,0.7594999999999 -0.9921875,1.2375000000001 0.1065,0.3577500000001 0.517109375,0.5728124999998 1.00625,0.5671874999999 z m -4.3953125,2.6234375000001 c 0.3354492187501,0.01576171875 0.7343750000002,-0.1396875000001 1.059375,-0.4484375000002 0.524,-0.485999999999 0.68325,-1.1827500000009 0.33125,-1.5437499999998 -0.3310000000001,-0.3650000000002 -1.0371250000001,-0.2667499999994 -1.553125,0.2312499999998 -0.528,0.4870000000001 -0.67475,1.1787500000007 -0.34375,1.54375 0.126,0.1372499999998 0.3049804687499,0.2077304687496 0.50625,0.2171875 z m -2.896875,3.4328124999999 c 0.3434531249999,0.018375 0.7501250000001,-0.2119375 1.034375,-0.6109375 0.3690000000001,-0.5459999999998 0.3686250000002,-1.190125 -0.009375,-1.453125 -0.3699999999999,-0.2579999999999 -0.9759999999999,-0.0166875 -1.35,0.5203125 -0.3699999999999,0.538 -0.3696249999999,1.1810625000001 0.009375,1.4390625000001 0.0935,0.0645 0.201140625,0.0985625 0.315625,0.1046874999999 z m -2.2671875,3.08125 c 0.246603515625,-0.032572265625 0.516875,-0.1756875 0.7390625,-0.4124999999999 0.3960000000001,-0.4260000000001 0.4728750000001,-0.9846875000002 0.171875,-1.2546875000001 -0.288,-0.267 -0.8518125,-0.143875 -1.2328125,0.2781250000001 -0.3960000000001,0.4209999999998 -0.4685625,0.9846874999997 -0.1765625,1.2546874999998 0.07425,0.06675 0.1633750000001,0.1104374999992 0.2625,0.1296875 0.07434375,0.0144375 0.153736328125,0.015544921874 0.2359375,0.0046875 z m -2.6359375,2.08125 c 0.074203125,0.00678955078 0.15346875,0.0042578125 0.234375,-0.0078125 0.107875,-0.01609375 0.2201875000002,-0.0500625 0.3296875,-0.1015625 0.438,-0.197 0.6885000000001,-0.6099375 0.5375,-0.9109375 -0.1329999999999,-0.3010000000001 -0.6059375000001,-0.3913749999999 -1.0359375,-0.1843749999999 -0.439,0.1969999999998 -0.6841875,0.6068124999999 -0.5421875,0.9078124999999 0.073125,0.17325 0.253953125,0.276506347656 0.4765625,0.296875 z m 8.4203125,60.7765625 c -1.0329788208008,0.020585632324 -1.528125,-0.1374999999999 -1.528125,-0.1374999999999 -3.28,-8.3180000000001 -1.2129375,-14.4592500000002 -0.5859375,-15.9812500000001 -3.8629999999999,-4.229 -6.221875,-9.6158124999999 -6.221875,-16.2078125 0,-23.1390000000007 14.0995000000001,-28.31775 27.5125,-29.84375 -1.7269999999995,-1.5079999999999 -3.291375,-4.1729999999999 -3.834375,-8.075 -3.4459999999999,-1.543 -12.1874374999997,-4.2122500000007 -17.5734375,5.0187500000001 -1e-13,0 -3.1922499999999,5.7974375 -9.25625,6.2234374999999 0,0 -5.8914999999998,0.0776875 -0.4125,-3.6703125 0,0 3.9576875000001,-1.8569374999999 6.7046875,-8.8359375 0,0 3.5453124999998,-10.778 20.3453125,-7.125 0.026,-5.0459999999999 0.08125,-9.80475 0.08125,-11.24375 0,-1.3867867864815 -0.8397377717294,-2.9796537526119 -3.0421875,-3.0046874999999 l 0,-0.0046875 36.075,0 c -2.2584980468751,-0.014861328125 -3.0890625,1.6023749999998 -3.0890625,3.0093749999999 -2e-13,1.989 0.06875,8.4918750000001 0.06875,16.571875 2e-13,5.634 -1.9308750000001,9.3088125000001 -4.096875,11.1828125 13.4469999999999,1.4950000000008 27.575,6.6018749999999 27.575,29.796875 0,6.5920000000002 -2.3420624999998,11.9788125 -6.2140625,16.2078125 0.6270000000001,1.5219999999998 2.6932499999999,7.66325 -0.59375,15.9812500000001 -3e-13,8e-13 -5.0630624999999,1.6223749999999 -16.5890625,-6.1906250000002 -4.826,1.3380000000001 -9.9961249999999,2.0088125000001 -15.128125,2.0328125 -5.1320000000001,-0.024 -10.2986249999999,-0.6948124999999 -15.115625,-2.0328125 -7.9330624999999,5.3714374999999 -12.8086965942382,6.2828366088872 -15.08125,6.328125 z" /></g></svg>