<svg xmlns="http://www.w3.org/2000/svg" viewBox="0 0 48 48" fill="#03A9F4" xmlns:xlink="http://www.w3.org/1999/xlink"><defs><path id="0" d="m24 42.7l-2.9-2.63c-10.3-9.35-17.1-15.52-17.1-23.07 0-6.17 4.83-11 11-11 3.48 0 6.82 1.62 9 4.17 2.18-2.55 5.52-4.17 9-4.17 6.17 0 11 4.83 11 11 0 7.55-6.8 13.72-17.1 23.07l-2.9 2.63"/></defs><g transform="translate(9-6)"><path d="m4 12c-2.21 0-4 1.79-4 4v28c0 2.21 1.79 4 4 4h22c2.21 0 4-1.79 4-4v-28c0-2.21-1.79-4-4-4h-22m0 4h22v28h-22v-28z"/><use transform="matrix(.275 0 0 .275 8.4 23.304)" xlink:href="#0"/><g font-family="Roboto" text-anchor="middle" text-align="center" word-spacing="0" line-height="125%" letter-spacing="0" font-size="15"><text y="22.332" x="7.358"><tspan y="22.332" x="7.358" text-align="center" line-height="125%" font-weight="900" font-size="7.5">A</tspan></text><text x="22.601" y="43" font-weight="normal"><tspan x="22.601" y="43" text-align="center" line-height="125%" font-weight="900" font-size="7.5">A</tspan></text></g><use transform="matrix(.11893 0 0 .11893 4.524 22.618)" xlink:href="#0"/><use transform="matrix(.11893 0 0 .11893 19.767 31.59)" xlink:href="#0"/></g></svg>