<?xml version="1.0" encoding="UTF-8" standalone="no"?>
<svg
   xmlns:dc="http://purl.org/dc/elements/1.1/"
   xmlns:cc="http://creativecommons.org/ns#"
   xmlns:rdf="http://www.w3.org/1999/02/22-rdf-syntax-ns#"
   xmlns:svg="http://www.w3.org/2000/svg"
   xmlns="http://www.w3.org/2000/svg"
   xmlns:sodipodi="http://sodipodi.sourceforge.net/DTD/sodipodi-0.dtd"
   xmlns:inkscape="http://www.inkscape.org/namespaces/inkscape"
   width="40"
   height="40"
   viewBox="0 0 40 40"
   id="svg2"
   version="1.1"
   inkscape:version="0.91 r13725"
   sodipodi:docname="applications-viewers.svg"
   style="fill:#4CAF50">
  <metadata
     id="metadata10">
    <rdf:RDF>
      <cc:Work
         rdf:about="">
        <dc:format>image/svg+xml</dc:format>
        <dc:type
           rdf:resource="http://purl.org/dc/dcmitype/StillImage" />
        <dc:title></dc:title>
      </cc:Work>
    </rdf:RDF>
  </metadata>
  <defs
     id="defs8" />
  <sodipodi:namedview
     pagecolor="#ffffff"
     bordercolor="#666666"
     borderopacity="1"
     objecttolerance="10"
     gridtolerance="10"
     guidetolerance="10"
     inkscape:pageopacity="0"
     inkscape:pageshadow="2"
     inkscape:window-width="668"
     inkscape:window-height="480"
     id="namedview6"
     showgrid="false"
     fit-margin-top="0"
     fit-margin-left="0"
     fit-margin-right="0"
     fit-margin-bottom="0"
     inkscape:zoom="4.916666666666668"
     inkscape:cx="19.99999999999999"
     inkscape:cy="19.99999999999999"
     inkscape:window-x="0"
     inkscape:window-y="30"
     inkscape:window-maximized="0"
     inkscape:current-layer="svg2" />
  <path
     d="M 14.8,17 24.33,0.4900000000000003 C 22.94,0.1799999999999997 21.49,0 20,0 15.2,0 10.81,1.689999999999999 7.36,4.51 L 14.69,17.2 14.8,17 Z M 39.08,14 C 37.24,8.15 32.78,3.480000000000002 27.08999999999999,1.320000000000002 L 19.77,14 39.08,14 Z m 0.52,2 -14.98,0 0.58,1 9.53,16.5 C 37.99,29.94 40,25.21 40,20 40,18.63 39.86,17.29 39.6,16 Z M 13.07,20 5.27,6.5 C 2.01,10.06 0,14.79 0,20 c 0,1.37 0.1399999999999997,2.71 0.4000000000000022,4 L 15.38,24 13.07,20 Z M 0.9199999999999999,26 C 2.76,31.85 7.220000000000001,36.52000000000001 12.91,38.68 L 20.23,26 0.9199999999999999,26 Z M 23.46,26 15.66,39.51 c 1.4,0.31 2.85,0.49 4.34,0.49 4.8,0 9.19,-1.69 12.64,-4.51 L 25.31,22.8 23.46,26 Z"
     id="path4"
     inkscape:connector-curvature="0" />
</svg>
