<svg xmlns="http://www.w3.org/2000/svg" viewBox="0 0 48 48" fill="#9C27B0"><path d="m18.8 21l9.53-16.51c-1.39-.31-2.84-.49-4.33-.49-4.8 0-9.19 1.69-12.64 4.51l7.33 12.69.11-.2m24.28-3c-1.84-5.85-6.3-10.52-11.99-12.68l-7.32 12.68h19.31m.52 2h-14.98l.58 1 9.53 16.5c3.26-3.56 5.27-8.29 5.27-13.5 0-1.37-.14-2.71-.4-4m-26.53 4l-7.8-13.5c-3.26 3.56-5.27 8.29-5.27 13.5 0 1.37.14 2.71.4 4h14.98l-2.31-4m-12.15 6c1.84 5.85 6.3 10.52 11.99 12.68l7.32-12.68h-19.31m22.54 0l-7.8 13.51c1.4.31 2.85.49 4.34.49 4.8 0 9.19-1.69 12.64-4.51l-7.33-12.69-1.85 3.2"/></svg>