<?xml version="1.0" encoding="UTF-8" standalone="no"?>
<svg
   xmlns:dc="http://purl.org/dc/elements/1.1/"
   xmlns:cc="http://creativecommons.org/ns#"
   xmlns:rdf="http://www.w3.org/1999/02/22-rdf-syntax-ns#"
   xmlns:svg="http://www.w3.org/2000/svg"
   xmlns="http://www.w3.org/2000/svg"
   xmlns:sodipodi="http://sodipodi.sourceforge.net/DTD/sodipodi-0.dtd"
   xmlns:inkscape="http://www.inkscape.org/namespaces/inkscape"
   width="48"
   height="48"
   viewBox="0 0 48 48"
   id="svg2"
   version="1.1"
   inkscape:version="0.91 r13725"
   sodipodi:docname="applications-viewers.svg"
   style="fill:#9C27B0">
  <metadata
     id="metadata10">
    <rdf:RDF>
      <cc:Work
         rdf:about="">
        <dc:format>image/svg+xml</dc:format>
        <dc:type
           rdf:resource="http://purl.org/dc/dcmitype/StillImage" />
        <dc:title />
      </cc:Work>
    </rdf:RDF>
  </metadata>
  <defs
     id="defs8" />
  <sodipodi:namedview
     pagecolor="#ffffff"
     bordercolor="#666666"
     borderopacity="1"
     objecttolerance="10"
     gridtolerance="10"
     guidetolerance="10"
     inkscape:pageopacity="0"
     inkscape:pageshadow="2"
     inkscape:window-width="668"
     inkscape:window-height="480"
     id="namedview6"
     showgrid="false"
     fit-margin-top="0"
     fit-margin-left="0"
     fit-margin-right="0"
     fit-margin-bottom="0"
     inkscape:zoom="6.549153645833334"
     inkscape:cx="20"
     inkscape:cy="20"
     inkscape:window-x="0"
     inkscape:window-y="30"
     inkscape:window-maximized="0"
     inkscape:current-layer="svg2" />
  <path
     d="M 18.8,21 28.33,4.490000000000001 C 26.94,4.18 25.49,4 24,4 c -4.8,0 -9.19,1.69 -12.64,4.51 L 18.69,21.2 18.8,21 Z M 43.08,18 C 41.24,12.15 36.78,7.480000000000003 31.08999999999999,5.320000000000002 L 23.77,18 43.08,18 Z m 0.52,2 -14.98,0 0.58,1 9.53,16.5 C 41.99,33.94 44,29.21 44,24 44,22.63 43.86,21.29 43.6,20 Z M 17.07,24 9.269999999999999,10.5 C 6.01,14.06 4,18.79 4,24 c 0,1.37 0.14,2.71 0.400000000000003,4 L 19.38,28 17.07,24 Z M 4.92,30 C 6.76,35.85 11.22,40.52000000000001 16.91,42.68 L 24.23,30 4.92,30 Z M 27.46,30 19.66,43.51 c 1.4,0.31 2.85,0.49 4.34,0.49 4.8,0 9.19,-1.69 12.64,-4.51 L 29.31,26.8 27.46,30 Z"
     id="path4"
     inkscape:connector-curvature="0" />
</svg>
