<?xml version="1.0" encoding="UTF-8" standalone="no"?>
<svg
   xmlns:dc="http://purl.org/dc/elements/1.1/"
   xmlns:cc="http://creativecommons.org/ns#"
   xmlns:rdf="http://www.w3.org/1999/02/22-rdf-syntax-ns#"
   xmlns:svg="http://www.w3.org/2000/svg"
   xmlns="http://www.w3.org/2000/svg"
   xmlns:xlink="http://www.w3.org/1999/xlink"
   xmlns:sodipodi="http://sodipodi.sourceforge.net/DTD/sodipodi-0.dtd"
   xmlns:inkscape="http://www.inkscape.org/namespaces/inkscape"
   fill="#00E676"
   width="48"
   height="48"
   viewBox="0 0 48 48"
   id="svg2"
   version="1.1"
   inkscape:version="0.91 r13725"
   sodipodi:docname="text-x-php.svg">
  <metadata
     id="metadata10">
    <rdf:RDF>
      <cc:Work
         rdf:about="">
        <dc:format>image/svg+xml</dc:format>
        <dc:type
           rdf:resource="http://purl.org/dc/dcmitype/StillImage" />
        <dc:title></dc:title>
      </cc:Work>
    </rdf:RDF>
  </metadata>
  <defs
     id="defs8">
    <clipPath
       id="clipPath18"
       clipPathUnits="userSpaceOnUse">
      <path
         inkscape:connector-curvature="0"
         id="path20"
         d="m 2764.8,0 c 1526.93,0 2764.81,651.164 2764.81,1454.39 0,803.24 -1237.88,1454.4 -2764.81,1454.4 C 1237.87,2908.79 0,2257.63 0,1454.39 0,651.164 1237.87,0 2764.8,0" />
    </clipPath>
    <clipPath
       id="clipPath18-5"
       clipPathUnits="userSpaceOnUse">
      <path
         inkscape:connector-curvature="0"
         id="path20-0"
         d="m 2764.8,0 c 1526.93,0 2764.81,651.164 2764.81,1454.39 0,803.24 -1237.88,1454.4 -2764.81,1454.4 C 1237.87,2908.79 0,2257.63 0,1454.39 0,651.164 1237.87,0 2764.8,0" />
    </clipPath>
    <clipPath
       id="clipPath18-5-0"
       clipPathUnits="userSpaceOnUse">
      <path
         inkscape:connector-curvature="0"
         id="path20-0-3"
         d="m 2764.8,0 c 1526.93,0 2764.81,651.164 2764.81,1454.39 0,803.24 -1237.88,1454.4 -2764.81,1454.4 C 1237.87,2908.79 0,2257.63 0,1454.39 0,651.164 1237.87,0 2764.8,0" />
    </clipPath>
    <linearGradient
       gradientUnits="userSpaceOnUse"
       id="linearGradient3798"
       y2="84"
       x2="299"
       y1="84"
       x1="150">
      <stop
         offset="0"
         style="stop-color:#dddce9;stop-opacity:1"
         id="stop3800" />
      <stop
         offset="0.37"
         style="stop-color:#5664a3;stop-opacity:1"
         id="stop3802" />
      <stop
         offset="1"
         style="stop-color:#000000;stop-opacity:1"
         id="stop3804" />
    </linearGradient>
    <radialGradient
       gradientTransform="matrix(0.101442,0,0,0.09130866,-0.70079751,40.567983)"
       gradientUnits="userSpaceOnUse"
       xlink:href="#linearGradient3798"
       id="radialGradient3870"
       fy="-48.544521"
       fx="77.914261"
       r="146"
       cy="-48.544521"
       cx="77.914261" />
    <radialGradient
       gradientTransform="matrix(0.14201881,0,0,0.12783213,-3.7909576,40.301906)"
       gradientUnits="userSpaceOnUse"
       xlink:href="#linearGradient3798"
       id="radialGradient3870-0"
       fy="-48.544521"
       fx="77.914261"
       r="146"
       cy="-48.544521"
       cx="77.914261" />
    <radialGradient
       gradientTransform="matrix(0.14201881,0,0,0.12783213,-3.7909565,40.301907)"
       gradientUnits="userSpaceOnUse"
       xlink:href="#linearGradient3798"
       id="radialGradient3870-0-4"
       fy="-48.544521"
       fx="77.914261"
       r="146"
       cy="-48.544521"
       cx="77.914261" />
  </defs>
  <sodipodi:namedview
     pagecolor="#ffffff"
     bordercolor="#666666"
     borderopacity="1"
     objecttolerance="10"
     gridtolerance="10"
     guidetolerance="10"
     inkscape:pageopacity="0"
     inkscape:pageshadow="2"
     inkscape:window-width="1366"
     inkscape:window-height="713"
     id="namedview6"
     showgrid="false"
     inkscape:snap-page="true"
     inkscape:snap-bbox="true"
     inkscape:bbox-paths="true"
     inkscape:bbox-nodes="true"
     inkscape:snap-bbox-edge-midpoints="true"
     inkscape:zoom="9.8333333"
     inkscape:cx="9.6319159"
     inkscape:cy="15.70703"
     inkscape:window-x="0"
     inkscape:window-y="30"
     inkscape:window-maximized="1"
     inkscape:current-layer="svg2"
     inkscape:snap-bbox-midpoints="false"
     inkscape:object-paths="true"
     inkscape:snap-others="false"
     inkscape:object-nodes="true" />
  <path
     d="M 12 4 C 9.79 4 8.0195313 5.79 8.0195312 8 L 8.0078125 30.101562 A 17.741177 11.152942 0 0 1 14 29.435547 A 17.741177 11.152942 0 0 1 25.306641 32 L 32 32 L 32 36 L 30.146484 36 A 17.741177 11.152942 0 0 1 31.740234 40.587891 A 17.741177 11.152942 0 0 1 30.882812 44 L 36 44 C 38.21 44 40 42.21 40 40 L 40 16 L 28 4 L 12 4 z M 26 7 L 37 18 L 26 18 L 26 7 z M 16 24 L 32 24 L 32 28 L 16 28 L 16 24 z "
     id="path4"
     style="fill:#6c7eb7;fill-opacity:1" />
  <g
     id="g13581"
     transform="matrix(1.4000001,0,0,1.4000001,-2.809841,-16.493274)">
    <ellipse
       style="fill:#6c7eb7;stroke:url(#radialGradient3870);stroke-width:0.36974791"
       id="ellipse3860"
       ry="5.1092439"
       rx="9.8151255"
       cy="40.772503"
       cx="12.007029" />
    <path
       style="fill:#000000;fill-opacity:1;fill-rule:evenodd;stroke:#ffffff;stroke-width:0.13445377;stroke-linejoin:round"
       id="p"
       d="m 4.9482052,43.797714 1.0756303,-5.445378 2.4873949,0 c 1.0756303,0.06723 1.6134456,0.605042 1.6134456,1.546219 0,1.613445 -1.2773111,2.554621 -2.4201683,2.487395 l -1.210084,0 -0.2689075,1.411764 -1.277311,0 z m 1.8151261,-2.420168 0.3361344,-2.016806 0.8739496,0 c 0.4705882,0 0.8067227,0.20168 0.8067227,0.605042 -0.067227,1.142857 -0.605042,1.344537 -1.210084,1.411764 l -0.8067227,0 z"
       inkscape:connector-curvature="0" />
    <path
       style="fill:#000000;fill-opacity:1;stroke:#ffffff;stroke-width:0.13445377;stroke-linejoin:round"
       id="h"
       d="m 9.7213144,42.38595 1.0756306,-5.445379 1.277311,0 -0.268908,1.411765 1.210084,0 c 1.07563,0.06723 1.478992,0.605042 1.344538,1.277311 l -0.470588,2.756303 -1.344538,0 0.470588,-2.487395 c 0.06723,-0.336135 0.06723,-0.537815 -0.403361,-0.537815 l -1.008404,0 -0.605042,3.02521 -1.2773106,0 z"
       inkscape:connector-curvature="0" />
    <use
       style="fill:#000000;fill-opacity:1"
       xlink:href="#p"
       id="p2"
       transform="translate(9.0084033,0)"
       x="0"
       y="0"
       width="100%"
       height="100%" />
  </g>
</svg>
