<svg xmlns="http://www.w3.org/2000/svg" viewBox="0 0 24 24"><path d="M12.262695 3.00383A9 9.00004 0 0 0 3 11.999964a9 9.00004 0 0 0 18 0 9 9.00004 0 0 0 -8.737305 -8.99613M12.219 6.93c.439 0 .896.065 1.367.195.488.146.893.313 1.219.508.341.179.617.396.828.656.211.26.378.579.492.953.114.358.201.793.266 1.297.033.179.054.352.07.531.033.179.055.36.055.539 0 .13-.029.253-.078.367-.049.098-.085.199-.117.313 0 .016 0 .06 0 .125 0 .065-.015.137-.031.219 0 .065 0 .13 0 .195 0 .049 0 .085 0 .102-.033.179-.061.352-.094.531-.016.179-.023.36-.023.539v.07c.016.065.045.188.094.367.049.179.085.302.102.367v.148c0 .195-.051.384-.148.563-.098.179-.228.338-.391.484-.163.146-.344.262-.539.344-.179.081-.36.117-.555.117-.26 0-.514-.058-.758-.172-.244-.13-.483-.238-.711-.336-.033-.016-.098-.023-.195-.023h-.164c-.309 0-.614.05-.906.164-.276.098-.552.206-.828.32-.033.016-.112.06-.242.125-.114.065-.186.101-.219.117-.065.033-.116.04-.148.023h-.172-.195c-.081-.016-.24-.059-.484-.141-.228-.081-.387-.139-.469-.172-.016 0-.045-.007-.094-.023-.033-.016-.055-.038-.055-.055-.26-.179-.535-.382-.828-.609-.276-.244-.457-.526-.555-.852-.033-.114-.083-.266-.148-.461-.065-.211-.102-.32-.102-.32v-1.219c0-.016.022-.067.055-.148.049-.081.085-.132.117-.164.179-.325.411-.63.688-.906.293-.293.597-.539.922-.734.228-.13.467-.195.711-.195.244-.016.475-.059.703-.141.033-.016.098-.046.195-.078.114-.049.186-.077.219-.094.065-.033.167-.047.297-.047.13-.016.261-.038.391-.055.13-.033.231-.068.313-.117.098-.065.148-.167.148-.297 0-.146-.065-.255-.195-.336-.13-.081-.268-.125-.414-.125h-1.68c-.098.033-.206.054-.32.07-.114.016-.223.023-.32.023C9.03 9.484 8.797 9.398 8.586 9.219 8.391 9.02 8.289 8.799 8.289 8.539c0-.114.022-.223.055-.32.049-.098.092-.184.141-.266L9 7.437C9.13 7.324 9.268 7.258 9.414 7.242c.163-.033.315-.054.461-.07.065-.016.203-.023.414-.023.228-.016.387-.023.469-.023.211-.114.443-.172.703-.172.276-.016.53-.023.758-.023m-.68 5.68c-.13 0-.232.08-.297.242-.065.146-.094.27-.094.367 0 .26.08.449.242.563.163.098.358.148.586.148h.266c.049 0 .078-.022.078-.055l.164-.164c.098-.081.163-.139.195-.172.033-.049.055-.114.055-.195 0-.081 0-.147 0-.195v-.242c-.016-.049-.06-.107-.125-.172-.049-.081-.107-.125-.172-.125h-.898" fill="#4caf50"/></svg>