<?xml version="1.0" encoding="UTF-8" standalone="no"?>
<svg
   xmlns:dc="http://purl.org/dc/elements/1.1/"
   xmlns:cc="http://creativecommons.org/ns#"
   xmlns:rdf="http://www.w3.org/1999/02/22-rdf-syntax-ns#"
   xmlns:svg="http://www.w3.org/2000/svg"
   xmlns="http://www.w3.org/2000/svg"
   xmlns:sodipodi="http://sodipodi.sourceforge.net/DTD/sodipodi-0.dtd"
   xmlns:inkscape="http://www.inkscape.org/namespaces/inkscape"
   fill="#00BCD4"
   width="48"
   height="48"
   viewBox="0 0 48 48"
   id="svg2"
   version="1.1"
   inkscape:version="0.91 r13725"
   sodipodi:docname="gnome-settings-default-applications5.svg">
  <metadata
     id="metadata10">
    <rdf:RDF>
      <cc:Work
         rdf:about="">
        <dc:format>image/svg+xml</dc:format>
        <dc:type
           rdf:resource="http://purl.org/dc/dcmitype/StillImage" />
        <dc:title></dc:title>
      </cc:Work>
    </rdf:RDF>
  </metadata>
  <defs
     id="defs8" />
  <sodipodi:namedview
     pagecolor="#ffffff"
     bordercolor="#666666"
     borderopacity="1"
     objecttolerance="10"
     gridtolerance="10"
     guidetolerance="10"
     inkscape:pageopacity="0"
     inkscape:pageshadow="2"
     inkscape:window-width="1366"
     inkscape:window-height="713"
     id="namedview6"
     showgrid="false"
     inkscape:snap-bbox="true"
     inkscape:bbox-nodes="true"
     inkscape:snap-intersection-paths="true"
     inkscape:object-nodes="true"
     inkscape:snap-smooth-nodes="true"
     inkscape:object-paths="true"
     inkscape:snap-nodes="false"
     inkscape:zoom="1.738304171792717"
     inkscape:cx="-132.5259350776756"
     inkscape:cy="-6.264171061376274"
     inkscape:window-x="0"
     inkscape:window-y="30"
     inkscape:window-maximized="1"
     inkscape:current-layer="svg2" />
  <g
     style="fill:#00BCD4"
     id="g4148"
     transform="matrix(1.25,0,0,1.25,-6,-6)">
    <path
       d="M 4 4 L 4 14 L 14 14 L 14 4 L 4 4 z M 19 4 L 19 10.935546875 C 20.55451589942486 10.34049076430502 22.23559677318213 10 24 10 C 25.76387435367431 10 27.44509288375135 10.33980411815557 29 10.935546875 L 29 4 L 19 4 z M 34 4 L 34 14 L 44 14 L 44 4 L 34 4 z M 4 19 L 4 29 L 10.935546875 29 C 10.33980411815557 27.44509288375135 10 25.76387435367431 10 24 C 10 22.23559677318213 10.34049076430502 20.55451589942486 10.935546875 19 L 4 19 z M 37.064453125 19 C 37.65988959730849 20.55440363915871 38 22.23575058651807 38 24 C 38 25.76395701974252 37.65877559654329 27.44503248917457 37.0625 29 L 44 29 L 44 19 L 37.064453125 19 z M 4 34 L 4 44 L 14 44 L 14 34 L 4 34 z M 34 34 L 34 44 L 44 44 L 44 34 L 34 34 z M 29 37.0625 C 27.44503248917457 37.65877559654329 25.76395701974252 38 24 38 C 22.23575058651807 38 20.55440363915871 37.65988959730849 19 37.064453125 L 19 44 L 29 44 L 29 37.0625 z "
       transform="matrix(0.8,0,0,0.8,4.800000000000001,4.800000000000001)"
       id="path4140" />
  </g>
  <g
     style="fill:#00BCD4"
     id="g4211"
     transform="matrix(0.5,0,0,0.5,12,12)">
    <path
       id="path4203"
       d="M 24,4 C 12.95,4 4,12.95 4,24 4,35.04 12.95,44 24,44 35.04,44 44,35.04 44,24 44,12.95 35.04,4 24,4 Z M 20,34 10,24 12.83,21.17 20,28.34 35.17,13.17 38,16 20,34 Z"
       inkscape:connector-curvature="0" />
  </g>
</svg>
