<?xml version="1.0" encoding="UTF-8" standalone="no"?>
<!-- Created with Inkscape (http://www.inkscape.org/) -->

<svg
   xmlns:dc="http://purl.org/dc/elements/1.1/"
   xmlns:cc="http://creativecommons.org/ns#"
   xmlns:rdf="http://www.w3.org/1999/02/22-rdf-syntax-ns#"
   xmlns:svg="http://www.w3.org/2000/svg"
   xmlns="http://www.w3.org/2000/svg"
   xmlns:xlink="http://www.w3.org/1999/xlink"
   xmlns:sodipodi="http://sodipodi.sourceforge.net/DTD/sodipodi-0.dtd"
   xmlns:inkscape="http://www.inkscape.org/namespaces/inkscape"
   version="1.0"
   width="96"
   height="96"
   id="svg2408"
   inkscape:version="0.91 r13725"
   sodipodi:docname="vim1.svg">
  <sodipodi:namedview
     pagecolor="#ffffff"
     bordercolor="#666666"
     borderopacity="1"
     objecttolerance="10"
     gridtolerance="10"
     guidetolerance="10"
     inkscape:pageopacity="0"
     inkscape:pageshadow="2"
     inkscape:window-width="1366"
     inkscape:window-height="713"
     id="namedview98"
     showgrid="false"
     inkscape:zoom="4.916666664072456"
     inkscape:cx="36.23664804879519"
     inkscape:cy="63.442239768169"
     inkscape:window-x="0"
     inkscape:window-y="30"
     inkscape:window-maximized="1"
     inkscape:current-layer="svg2408" />
  <defs
     id="defs2410">
    <linearGradient
       id="linearGradient3909">
      <stop
         id="stop3911"
         style="stop-color:#c6c3c6;stop-opacity:1"
         offset="0" />
      <stop
         id="stop3913"
         style="stop-color:#eae9ea;stop-opacity:1"
         offset="1" />
    </linearGradient>
    <linearGradient
       id="linearGradient3867">
      <stop
         id="stop3869"
         style="stop-color:#000000;stop-opacity:1"
         offset="0" />
      <stop
         id="stop3871"
         style="stop-color:#000000;stop-opacity:0"
         offset="1" />
    </linearGradient>
    <linearGradient
       id="linearGradient3844">
      <stop
         id="stop3846"
         style="stop-color:#0b700b;stop-opacity:1"
         offset="0" />
      <stop
         id="stop3848"
         style="stop-color:#28a528;stop-opacity:1"
         offset="1" />
    </linearGradient>
    <linearGradient
       x1="45.447727"
       y1="92.539597"
       x2="45.447727"
       y2="7.0165396"
       id="ButtonShadow"
       gradientUnits="userSpaceOnUse"
       gradientTransform="scale(1.0058652,0.994169)">
      <stop
         id="stop3750"
         style="stop-color:#000000;stop-opacity:1"
         offset="0" />
      <stop
         id="stop3752"
         style="stop-color:#000000;stop-opacity:0.58823532"
         offset="1" />
    </linearGradient>
    <linearGradient
       id="linearGradient3737">
      <stop
         id="stop3739"
         style="stop-color:#ffffff;stop-opacity:1"
         offset="0" />
      <stop
         id="stop3741"
         style="stop-color:#ffffff;stop-opacity:0"
         offset="1" />
    </linearGradient>
    <filter
       color-interpolation-filters="sRGB"
       id="filter3174">
      <feGaussianBlur
         id="feGaussianBlur3176"
         stdDeviation="1.71" />
    </filter>
    <filter
       x="-0.192"
       y="-0.192"
       width="1.3839999"
       height="1.3839999"
       color-interpolation-filters="sRGB"
       id="filter3794">
      <feGaussianBlur
         id="feGaussianBlur3796"
         stdDeviation="5.28" />
    </filter>
    <linearGradient
       x1="48"
       y1="20.220806"
       x2="48"
       y2="138.66119"
       id="linearGradient3613"
       xlink:href="#linearGradient3737"
       gradientUnits="userSpaceOnUse" />
    <clipPath
       id="clipPath3613">
      <rect
         width="84"
         height="84"
         rx="6"
         ry="6"
         x="6"
         y="6"
         id="rect3615"
         style="fill:#ffffff;fill-opacity:1;fill-rule:nonzero;stroke:none" />
    </clipPath>
    <linearGradient
       x1="45.447727"
       y1="92.539597"
       x2="45.447727"
       y2="7.0165396"
       id="ButtonShadow-0"
       gradientUnits="userSpaceOnUse"
       gradientTransform="matrix(1.0058652,0,0,0.994169,100,0)">
      <stop
         id="stop3750-8"
         style="stop-color:#000000;stop-opacity:1"
         offset="0" />
      <stop
         id="stop3752-5"
         style="stop-color:#000000;stop-opacity:0.58823532"
         offset="1" />
    </linearGradient>
    <linearGradient
       x1="32.251034"
       y1="6.1317081"
       x2="32.251034"
       y2="90.238609"
       id="linearGradient3780"
       xlink:href="#ButtonShadow-0"
       gradientUnits="userSpaceOnUse"
       gradientTransform="matrix(1.0238095,0,0,1.0119048,-1.1428571,-98.071429)" />
    <linearGradient
       x1="32.251034"
       y1="6.1317081"
       x2="32.251034"
       y2="90.238609"
       id="linearGradient3772"
       xlink:href="#ButtonShadow-0"
       gradientUnits="userSpaceOnUse"
       gradientTransform="matrix(1.0238095,0,0,1.0119048,-1.1428571,-98.071429)" />
    <linearGradient
       x1="32.251034"
       y1="6.1317081"
       x2="32.251034"
       y2="90.238609"
       id="linearGradient3725"
       xlink:href="#ButtonShadow-0"
       gradientUnits="userSpaceOnUse"
       gradientTransform="matrix(1.0238095,0,0,1.0119048,-1.1428571,-98.071429)" />
    <linearGradient
       x1="32.251034"
       y1="6.1317081"
       x2="32.251034"
       y2="90.238609"
       id="linearGradient3721"
       xlink:href="#ButtonShadow-0"
       gradientUnits="userSpaceOnUse"
       gradientTransform="translate(0,-97)" />
    <linearGradient
       x1="32.251034"
       y1="6.1317081"
       x2="32.251034"
       y2="90.238609"
       id="linearGradient3026"
       xlink:href="#ButtonShadow-0"
       gradientUnits="userSpaceOnUse"
       gradientTransform="matrix(1.0238095,0,0,1.0119048,-1.1428571,-98.071429)" />
    <linearGradient
       id="linearGradient854">
      <stop
         id="stop855"
         style="stop-color:#000000;stop-opacity:1"
         offset="0" />
      <stop
         id="stop877"
         style="stop-color:#f5f5f5;stop-opacity:1"
         offset="0.87778628" />
      <stop
         id="stop856"
         style="stop-color:#ffffff;stop-opacity:1"
         offset="1" />
    </linearGradient>
    <linearGradient
       x1="508.58997"
       y1="267.27991"
       x2="508.45602"
       y2="269.14072"
       id="linearGradient3776"
       xlink:href="#linearGradient854"
       gradientUnits="userSpaceOnUse"
       gradientTransform="matrix(0.80571178,0,0,3.2149984,-388.10346,-834.60928)" />
    <linearGradient
       x1="195.59776"
       y1="696.40906"
       x2="193.063"
       y2="694.71436"
       id="linearGradient3779"
       xlink:href="#linearGradient854"
       gradientUnits="userSpaceOnUse"
       gradientTransform="matrix(2.1044799,0,0,1.23088,-388.10346,-834.60928)" />
    <linearGradient
       x1="196.80382"
       y1="764.65295"
       x2="192.15778"
       y2="763.52991"
       id="linearGradient3782"
       xlink:href="#linearGradient854"
       gradientUnits="userSpaceOnUse"
       gradientTransform="matrix(2.3159568,0,0,1.1184848,-388.10346,-834.60928)" />
    <linearGradient
       x1="432.77563"
       y1="444.33771"
       x2="431.5174"
       y2="448.10916"
       id="linearGradient3785"
       xlink:href="#linearGradient854"
       gradientUnits="userSpaceOnUse"
       gradientTransform="matrix(1.4043897,0,0,1.8444751,-544.5943099999999,-797.7914799999997)" />
    <linearGradient
       x1="247.91669"
       y1="577.09601"
       x2="247.84926"
       y2="571.18286"
       id="linearGradient3788"
       xlink:href="#linearGradient854"
       gradientUnits="userSpaceOnUse"
       gradientTransform="matrix(1.7367898,0,0,1.4914657,-388.10346,-834.60928)" />
    <linearGradient
       x1="737.87024"
       y1="197.2177"
       x2="723.66583"
       y2="197.2661"
       id="linearGradient3791"
       xlink:href="#linearGradient854"
       gradientUnits="userSpaceOnUse"
       gradientTransform="matrix(0.5826671799999999,0,0,4.445698100000003,-388.10346,-834.60928)" />
    <linearGradient
       x1="279.12204"
       y1="547.95782"
       x2="275.03989"
       y2="543.9057"
       id="linearGradient3794"
       xlink:href="#linearGradient854"
       gradientUnits="userSpaceOnUse"
       gradientTransform="matrix(1.6002994,0,0,1.6186737,-388.10346,-834.60928)" />
    <radialGradient
       cx="48"
       cy="90.171875"
       r="42"
       fx="48"
       fy="90.171875"
       id="radialGradient3619-1"
       xlink:href="#linearGradient3737-9"
       gradientUnits="userSpaceOnUse"
       gradientTransform="matrix(1.1573129,0,0,0.99590774,-7.551021,0.1971319)" />
    <linearGradient
       id="linearGradient3737-9">
      <stop
         id="stop3739-7"
         style="stop-color:#ffffff;stop-opacity:1"
         offset="0" />
      <stop
         id="stop3741-0"
         style="stop-color:#ffffff;stop-opacity:0"
         offset="1" />
    </linearGradient>
    <linearGradient
       x1="36.357143"
       y1="6"
       x2="36.357143"
       y2="63.893143"
       id="linearGradient3188-2"
       xlink:href="#linearGradient3737-9"
       gradientUnits="userSpaceOnUse" />
    <linearGradient
       x1="48"
       y1="90"
       x2="48"
       y2="5.9877172"
       id="linearGradient2883"
       xlink:href="#linearGradient3844"
       gradientUnits="userSpaceOnUse" />
    <linearGradient
       x1="102.04063"
       y1="22.844667"
       x2="16.970562"
       y2="-62.225395"
       id="linearGradient3875"
       xlink:href="#linearGradient3867"
       gradientUnits="userSpaceOnUse" />
    <linearGradient
       x1="48"
       y1="80"
       x2="48"
       y2="15.501938"
       id="linearGradient3915"
       xlink:href="#linearGradient3909"
       gradientUnits="userSpaceOnUse" />
    <linearGradient
       x1="387.5567"
       y1="527.42371"
       x2="387.5567"
       y2="513.37085"
       id="linearGradient4031"
       xlink:href="#linearGradient3909"
       gradientUnits="userSpaceOnUse" />
    <linearGradient
       inkscape:collect="always"
       xlink:href="#linearGradient3909"
       id="linearGradient4226"
       gradientUnits="userSpaceOnUse"
       x1="48"
       y1="80"
       x2="48"
       y2="15.501938" />
  </defs>
  <metadata
     id="metadata2413">
    <rdf:RDF>
      <cc:Work
         rdf:about="">
        <dc:format>image/svg+xml</dc:format>
        <dc:type
           rdf:resource="http://purl.org/dc/dcmitype/StillImage" />
        <dc:title />
      </cc:Work>
    </rdf:RDF>
  </metadata>
  <g
     id="layer2"
     style="display:none">
    <rect
       width="86"
       height="85"
       rx="6"
       ry="6"
       x="5"
       y="7"
       id="rect3745"
       style="opacity:0.9;fill:url(#ButtonShadow);fill-opacity:1;fill-rule:nonzero;stroke:none;filter:url(#filter3174)" />
  </g>
  <g
     id="layer1">
    <rect
       width="84"
       height="84"
       rx="6"
       ry="6"
       x="6"
       y="6"
       id="rect2419-4"
       style="fill:url(#linearGradient2883);fill-opacity:1;fill-rule:nonzero;stroke:none" />
    <path
       d="M 48,8 8,48 48,88 88,48 48,8 z M 48,10.90625 85.0625,48 48,85.0625 10.90625,48 48,10.90625 z"
       inkscape:connector-curvature="0"
       id="rect3897"
       style="opacity:0.05;fill:#000000;fill-opacity:1;fill-rule:evenodd;stroke:none" />
    <path
       d="M 48,8 8,48 48,88 88,48 48,8 z M 48,9.9375 86.03125,48 48,86.03125 9.9375,48 48,9.9375 z"
       inkscape:connector-curvature="0"
       id="rect3890"
       style="opacity:0.1;fill:#000000;fill-opacity:1;fill-rule:evenodd;stroke:none" />
    <path
       d="M 12,6 C 8.676,6 6,8.676 6,12 l 0,2 0,68 0,2 c 0,0.334721 0.04135,0.6507 0.09375,0.96875 0.0487,0.295596 0.09704,0.596915 0.1875,0.875 0.00988,0.03038 0.020892,0.0636 0.03125,0.09375 0.098865,0.287771 0.2348802,0.547452 0.375,0.8125 0.1445918,0.273507 0.3156161,0.535615 0.5,0.78125 0.1843839,0.245635 0.3737765,0.473472 0.59375,0.6875 0.439947,0.428056 0.94291,0.814526 1.5,1.09375 0.278545,0.139612 0.5734731,0.246947 0.875,0.34375 -0.2562018,-0.100222 -0.4867109,-0.236272 -0.71875,-0.375 -0.00741,-0.0044 -0.023866,0.0045 -0.03125,0 -0.031933,-0.0193 -0.062293,-0.04251 -0.09375,-0.0625 -0.120395,-0.0767 -0.2310226,-0.163513 -0.34375,-0.25 -0.1061728,-0.0808 -0.2132809,-0.161112 -0.3125,-0.25 C 8.4783201,88.557317 8.3087904,88.373362 8.15625,88.1875 8.0486711,88.057245 7.9378561,87.922215 7.84375,87.78125 7.818661,87.74287 7.805304,87.69538 7.78125,87.65625 7.716487,87.553218 7.6510225,87.451733 7.59375,87.34375 7.4927417,87.149044 7.3880752,86.928049 7.3125,86.71875 7.30454,86.69694 7.288911,86.6782 7.28125,86.65625 7.2494249,86.5643 7.2454455,86.469419 7.21875,86.375 7.1884177,86.268382 7.1483606,86.171969 7.125,86.0625 7.0521214,85.720988 7,85.364295 7,85 L 7,83 7,15 7,13 C 7,10.218152 9.2181517,8 12,8 l 2,0 68,0 2,0 c 2.781848,0 5,2.218152 5,5 l 0,2 0,68 0,2 c 0,0.364295 -0.05212,0.720988 -0.125,1.0625 -0.04415,0.206893 -0.08838,0.397658 -0.15625,0.59375 -0.0077,0.02195 -0.0233,0.04069 -0.03125,0.0625 -0.06274,0.173739 -0.138383,0.367449 -0.21875,0.53125 -0.04158,0.0828 -0.07904,0.169954 -0.125,0.25 -0.0546,0.09721 -0.126774,0.18835 -0.1875,0.28125 -0.09411,0.140965 -0.204921,0.275995 -0.3125,0.40625 -0.143174,0.17445 -0.303141,0.346998 -0.46875,0.5 -0.01117,0.0102 -0.01998,0.02115 -0.03125,0.03125 -0.138386,0.125556 -0.285091,0.234436 -0.4375,0.34375 -0.102571,0.07315 -0.204318,0.153364 -0.3125,0.21875 -0.0074,0.0045 -0.02384,-0.0044 -0.03125,0 -0.232039,0.138728 -0.462548,0.274778 -0.71875,0.375 0.301527,-0.0968 0.596455,-0.204138 0.875,-0.34375 0.55709,-0.279224 1.060053,-0.665694 1.5,-1.09375 0.219973,-0.214028 0.409366,-0.441865 0.59375,-0.6875 0.184384,-0.245635 0.355408,-0.507743 0.5,-0.78125 0.14012,-0.265048 0.276135,-0.524729 0.375,-0.8125 0.01041,-0.03078 0.02133,-0.06274 0.03125,-0.09375 0.09046,-0.278085 0.1388,-0.579404 0.1875,-0.875 C 89.95865,84.6507 90,84.334721 90,84 l 0,-2 0,-68 0,-2 C 90,8.676 87.324,6 84,6 L 12,6 z"
       inkscape:connector-curvature="0"
       id="rect3728-7"
       style="opacity:0.31999996;fill:url(#linearGradient3188-2);fill-opacity:1;fill-rule:nonzero;stroke:none" />
    <path
       d="M 12,90 C 8.676,90 6,87.324 6,84 L 6,82 6,14 6,12 c 0,-0.334721 0.04135,-0.6507 0.09375,-0.96875 0.0487,-0.295596 0.09704,-0.596915 0.1875,-0.875 C 6.29113,10.12587 6.302142,10.09265 6.3125,10.0625 6.411365,9.774729 6.5473802,9.515048 6.6875,9.25 6.8320918,8.976493 7.0031161,8.714385 7.1875,8.46875 7.3718839,8.223115 7.5612765,7.995278 7.78125,7.78125 8.221197,7.353194 8.72416,6.966724 9.28125,6.6875 9.559795,6.547888 9.8547231,6.440553 10.15625,6.34375 9.9000482,6.443972 9.6695391,6.580022 9.4375,6.71875 c -0.00741,0.0044 -0.023866,-0.0045 -0.03125,0 -0.031933,0.0193 -0.062293,0.04251 -0.09375,0.0625 -0.120395,0.0767 -0.2310226,0.163513 -0.34375,0.25 -0.1061728,0.0808 -0.2132809,0.161112 -0.3125,0.25 C 8.4783201,7.442683 8.3087904,7.626638 8.15625,7.8125 8.0486711,7.942755 7.9378561,8.077785 7.84375,8.21875 7.818661,8.25713 7.805304,8.30462 7.78125,8.34375 7.716487,8.446782 7.6510225,8.548267 7.59375,8.65625 7.4927417,8.850956 7.3880752,9.071951 7.3125,9.28125 7.30454,9.30306 7.288911,9.3218 7.28125,9.34375 7.2494249,9.4357 7.2454455,9.530581 7.21875,9.625 7.1884177,9.731618 7.1483606,9.828031 7.125,9.9375 7.0521214,10.279012 7,10.635705 7,11 l 0,2 0,68 0,2 c 0,2.781848 2.2181517,5 5,5 l 2,0 68,0 2,0 c 2.781848,0 5,-2.218152 5,-5 l 0,-2 0,-68 0,-2 C 89,10.635705 88.94788,10.279012 88.875,9.9375 88.83085,9.730607 88.78662,9.539842 88.71875,9.34375 88.71105,9.3218 88.69545,9.30306 88.6875,9.28125 88.62476,9.107511 88.549117,8.913801 88.46875,8.75 88.42717,8.6672 88.38971,8.580046 88.34375,8.5 88.28915,8.40279 88.216976,8.31165 88.15625,8.21875 88.06214,8.077785 87.951329,7.942755 87.84375,7.8125 87.700576,7.63805 87.540609,7.465502 87.375,7.3125 87.36383,7.3023 87.35502,7.29135 87.34375,7.28125 87.205364,7.155694 87.058659,7.046814 86.90625,6.9375 86.803679,6.86435 86.701932,6.784136 86.59375,6.71875 c -0.0074,-0.0045 -0.02384,0.0044 -0.03125,0 -0.232039,-0.138728 -0.462548,-0.274778 -0.71875,-0.375 0.301527,0.0968 0.596455,0.204138 0.875,0.34375 0.55709,0.279224 1.060053,0.665694 1.5,1.09375 0.219973,0.214028 0.409366,0.441865 0.59375,0.6875 0.184384,0.245635 0.355408,0.507743 0.5,0.78125 0.14012,0.265048 0.276135,0.524729 0.375,0.8125 0.01041,0.03078 0.02133,0.06274 0.03125,0.09375 0.09046,0.278085 0.1388,0.579404 0.1875,0.875 C 89.95865,11.3493 90,11.665279 90,12 l 0,2 0,68 0,2 c 0,3.324 -2.676,6 -6,6 l -72,0 z"
       inkscape:connector-curvature="0"
       id="path3615-4"
       style="opacity:0.2;fill:url(#radialGradient3619-1);fill-opacity:1;fill-rule:nonzero;stroke:none" />
    <rect
       width="56.568558"
       height="56.568527"
       x="39.597973"
       y="-28.284264"
       transform="matrix(0.70710678,0.70710678,-0.70710678,0.70710678,0,0)"
       id="rect830"
       style="opacity:0.4;fill:url(#linearGradient3875);fill-opacity:1;fill-rule:evenodd;stroke:none" />
    <path
       d="M 8.5,48.5 8,49 48,89 88,49 87.5,48.5 48,88 8.5,48.5 z"
       inkscape:connector-curvature="0"
       id="rect3854"
       style="opacity:0.2;fill:#ffffff;fill-rule:evenodd;stroke:#000000;stroke-width:0" />
    <path
       d="M 48,8 8,48 48,88 88,48 48,8 z M 48,9 86.96875,48 48,86.96875 9,48 48,9 z"
       inkscape:connector-curvature="0"
       id="rect3886"
       style="opacity:0.15;fill:#000000;fill-opacity:1;fill-rule:evenodd;stroke:none" />
    <path
       d="M 48,8 8,48 8.5,48.5 48,9 87.5,48.5 88,48 48,8 z"
       inkscape:connector-curvature="0"
       id="rect3877"
       style="opacity:0.2;fill:#000000;fill-opacity:1;fill-rule:evenodd;stroke:none" />
  </g>
  <g
     id="layer5">
    <rect
       width="66"
       height="66"
       rx="12"
       ry="12"
       x="15"
       y="15"
       clip-path="url(#clipPath3613)"
       id="rect3171"
       style="opacity:0.1;fill:url(#linearGradient3613);fill-opacity:1;fill-rule:nonzero;stroke:#ffffff;stroke-width:0.5;stroke-linecap:round;stroke-linejoin:miter;stroke-miterlimit:4;stroke-opacity:1;stroke-dasharray:none;stroke-dashoffset:0;filter:url(#filter3794)" />
  </g>
  <path
     inkscape:connector-curvature="0"
     style="fill:#ffffff;fill-rule:evenodd;stroke:none"
     id="path3907"
     d="m 58.749630025,16.0000011925 c -1.024166525993,0.012324336882 -1.8520894361294,0.3262032940634 -2.42878260625,0.91473630625 -0.5766931701206,0.5885330121866 -0.8935659015192,1.4489867211248 -0.883193675,2.5234105 l 0.03154263125,2.649581025 -0.03154263125,0 c 0.08231365051,1.1826346866646 0.6449907893494,1.8810369920212 1.48250366875001,2.3341547125 0.84535160177779,0.4573590688472 1.99200750153339,0.6545797492494 3.12272049374999,0.6939378875 A 0.299775091027516,0.299775091027516 0 0 1 60.3267615875,25.4627905675 0.299775091027516,0.299775091027516 0 0 1 60.263676325,25.62050372375 L 40.86495810625,44.86150878625001 a 0.299775091027516,0.299775091027516 0 0 1 -0.53622473125,-0.22079841875 l 0,-19.68260190000001 a 0.299775091027516,0.299775091027516 0 0 1 0.0630852625,-0.15771315625 0.299775091027516,0.299775091027516 0 0 1 0.15771315625,-0.126170525 0.299775091027516,0.299775091027516 0 0 1 0.09462789375,0 c 0.8289090589598,0.028645755996 1.5220576236554,-0.2111357752634 2.0187284,-0.66239525625 0.4966707763446,-0.4512594809866 0.84119604936641,-1.1297288621216 0.883193675,-2.11335629375 l -0.03154263125,0 L 43.4829965,19.21734958 l 0.03154263125,0 c -0.057907224154,-1.2516439076544 -0.3785095562716,-1.9543723479722 -0.9462789375,-2.397239975 -0.5677693812284,-0.4428676270278 -1.4660621352962,-0.6530172534678 -2.80729418125,-0.6939378875 l 0,0.03154263125 -21.1335629375,0.126170525 0,-0.03154263125 c -1.0683776873172,0.091034557198 -1.9124352841906,0.3461735647604 -2.49186786875,0.8201084125 -0.5799281823816,0.4743396027838 -0.9647997612058,1.2047438001014 -1.10399209375,2.42878260625 l 0.03154263125,0 -0.03154263125,1.8294726125 -0.03154263125,0 c 0.06263104861,1.2566342042592 0.3298410426402,2.1710646731566 0.85165104375,2.77575155 0.5218100011098,0.6046868768434 1.3227960088408,0.9502023361454 2.61803839375,1.0093642 L 19.5736820125,25.147364255 a 0.299775091027516,0.299775091027516 0 0 1 0.3154263125,0.28388368125 l 0.0630852625,51.50911683125 -0.03154263125,0 c 0.114769756361,0.92538812665261 0.4449085614402,1.656735070133 0.97782156875,2.17644155624998 0.5391791402634,0.52581717698379 1.3089959814984,0.83504397456741 2.36569734375,0.85165104375001 l 4.920650475,0 0,0.03154263125 c 0.89687055991,-0.07817525729 1.7691338299882,-0.77998719491418 2.5234105,-1.54558893124998 L 82.40660346250001,25.17890688625 c 0.87886653067459,-0.897572068029 1.4620277065888,-1.5902058569826 1.387875775,-2.80729418125 a 0.299775091027516,0.299775091027516 0 0 1 -0.03154263125,-0.03154263125 l 0,-3.05963523125 C 83.77091058343,17.8621499522466 83.62202936392999,17.0355260938356 83.226711875,16.59931118625 82.83139438607001,16.1630962786644 82.109370939705,16.0042768592512 80.73484400625001,16.0000011925 l -21.98521398125001,0 z" />
  <path
     style="fill:url(#linearGradient3794);fill-opacity:0.75;fill-rule:evenodd;stroke-width:0.375"
     id="path853"
     inkscape:connector-curvature="0"
     d="M 82.664899,16.280607 20.779302,78.593085 c 0.598749,0.720168 1.221483,1.334563 2.473354,1.354231 l 4.905134,0.05006 c 1.031214,-0.07485 1.926379,-0.81354900000001 2.70283,-1.601669 L 82.314535,25.340101 C 83.20247300000001,24.433284 83.84614399999999,23.651409 83.766058,22.336961 l 0,-3.053193 c 0.0097,-1.697449 -0.365539,-2.513671 -1.101159,-3.003158 z" />
  <path
     style="fill:url(#linearGradient3791);fill-opacity:0.75;fill-rule:evenodd;stroke-width:0.375"
     id="path865"
     inkscape:connector-curvature="0"
     d="M 36.677436,52.704593 40.41624500000001,45.317797 40.313887,24.631373 l -3.733046,-1.190597 0.09656,29.263817 z" />
  <path
     style="fill:url(#linearGradient3788);fill-opacity:0.75;fill-rule:evenodd;stroke-width:0.25"
     id="path874"
     inkscape:connector-curvature="0"
     d="m 42.613352,16.761242 -8.336363,5.898831 6.240089,2.096276 0.04876,0 c 1.697418,0.03798 2.936958,-0.969765 3.022535,-2.973785 l 0,-2.63253 c -0.05489,-1.185512 -0.409202,-1.890585 -0.975009,-2.388792 z" />
  <path
     style="fill:url(#linearGradient3785);fill-opacity:0.75;fill-rule:evenodd;stroke-width:0.125"
     id="path903"
     inkscape:connector-curvature="0"
     d="m 68.180733,19.143451 -1.76034700000001,1.106502 1.30768600000002,0.502958 L 68.180733,19.143451 Z M 67.72807199999998,20.752911 62.094961,24.17301499999999 c -0.438129,-0.03155 -0.923057,-0.179054 -1.408277,-0.251479 l -0.352072,0.251479 c 0.417979,0.06179 0.781314,0.236655 1.207095,0.251475 l -4.27512699999999,4.224837 L 64.30796899999998,33.477707 l 3.420103,-12.724796 z" />
  <path
     style="fill:url(#linearGradient3782);fill-opacity:0.75;fill-rule:evenodd;stroke-width:0.375"
     id="path880"
     inkscape:connector-curvature="0"
     d="m 61.412249,19.996238 -5.83158799999998,2.614475 c 0.422465,1.954995 2.40726799999998,2.420789 5.04308199999999,2.562372 L 66.29993799999998,21.720519 61.412249,19.996238 Z" />
  <path
     style="fill:url(#linearGradient3779);fill-opacity:0.75;fill-rule:evenodd;stroke-width:0.375"
     id="path905"
     inkscape:connector-curvature="0"
     d="m 20.871473,20.127236 -5.6268,2.512076 c 0.422466,1.954995 1.588117,2.523183 4.633506,2.511176 l 5.471409,-5.910035 -4.478115,0.886783 z" />
  <path
     style="fill:url(#linearGradient3776);fill-opacity:0.75;fill-rule:evenodd;stroke-width:0.125"
     id="path906"
     inkscape:connector-curvature="0"
     d="m 23.253363,21.051612 -3.455961,4.173619 0.180338,4.06104 c -0.03926,0.559608 0.855735,7.717699 1.686282,4.890312 0.830545,-2.827403 1.022119,-13.435855 1.589341,-13.124971 z" />
  <path
     style="fill:url(#linearGradient4226);fill-opacity:1;fill-rule:evenodd;stroke-width:0.25"
     id="path846"
     inkscape:connector-curvature="0"
     d="m 26.414891,78.571611 c 0.595371,-0.05246 1.400825,-0.78795700000002 2.101246,-1.575917 L 79.65966699999998,25.000986 C 80.21999999999998,24.388119 80.830212,23.676868 80.8127,23.064001 l -0.10235900000002,-4.15981 c 0,-0.542825 -0.41891199999999,-0.934712 -1.10182299999998,-0.899691 L 58.808833,17.9559 c -0.893026,-0.03509 -1.681002,0.507783 -1.575935,1.470854 l 0,2.176971 c 0.03509,1.31612099999998 1.049464,1.505893 1.767396,1.470855 l 2.53482,0.0031 c 0.665398,0.280176 0.91854899999999,0.669393 0.95357299999999,1.474878 -0.08225,1.658324 -0.11716899999999,1.62980599999999 -1.70150600000001,3.231604 L 36.89983,52.341077 36.797472,23.589678 l 2.755635,0 C 40.060909,23.537218 40.720963,22.967317 40.808518,22.336939 l 0,-3.23025 c -0.01753,-0.612836 -0.402749,-1.068087 -1.155672,-1.050577 L 18.077179,18.056112 c -0.787958,-0.03508 -1.31325500000001,0.665399 -1.260738,1.470853 l -0.05117,2.392432 c -0.0032,0.80548699999999 0.576509,1.44404099999999 1.311936,1.51407 l 3.39987199999999,0 -0.05246,54.087955 c -0.05246,0.56033499999999 0.05246,0.858001 0.47278000000001,1.050622 l 4.517672,-1.7e-5 z" />
  <path
     style="fill:url(#linearGradient3915);fill-opacity:1;fill-rule:evenodd;stroke-width:0.25"
     id="path2933"
     inkscape:connector-curvature="0"
     d="m 26.414891,78.571611 c 0.595371,-0.05246 1.400825,-0.78795700000002 2.101246,-1.575917 L 79.65966699999998,25.000986 C 80.21999999999998,24.388119 80.830212,23.676868 80.8127,23.064001 l -0.10235900000002,-4.15981 c 0,-0.542825 -0.41891199999999,-0.934712 -1.10182299999998,-0.899691 L 58.808833,17.9559 c -0.893026,-0.03509 -1.681002,0.507783 -1.575935,1.470854 l 0,2.176971 c 0.03509,1.31612099999998 1.049464,1.505893 1.767396,1.470855 l 2.53482,0.0031 c 0.665398,0.280176 0.91854899999999,0.669393 0.95357299999999,1.474878 -0.08225,1.658324 -0.11716899999999,1.62980599999999 -1.70150600000001,3.231604 L 36.89983,52.341077 36.797472,23.589678 l 2.755635,0 C 40.060909,23.537218 40.720963,22.967317 40.808518,22.336939 l 0,-3.23025 c -0.01753,-0.612836 -0.402749,-1.068087 -1.155672,-1.050577 L 18.077179,18.056112 c -0.787958,-0.03508 -1.31325500000001,0.665399 -1.260738,1.470853 l -0.05117,2.392432 c -0.0032,0.80548699999999 0.576509,1.44404099999999 1.311936,1.51407 l 3.39987199999999,0 -0.05246,54.087955 c -0.05246,0.56033499999999 0.05246,0.858001 0.47278000000001,1.050622 l 4.517672,-1.7e-5 z" />
  <g
     id="layer6">
    <path
       d="m 49.46875,51 c -4.762044,-0.0941 -7.400457,5.821178 -4.9375,9.59375 -0.232138,0.158772 -0.580867,0.35896 -0.9375,0.625 -0.392297,0.292644 -0.794915,0.643788 -1.09375,1.15625 -0.28079,0.481518 -0.401136,1.12653 -0.25,1.78125 0.0097,0.04208 -0.01213,0.08288 0,0.125 0.315821,2.921623 -1.492711,5.691148 -2.84375,8.65625 A 0.79814732,0.79814732 0 0 0 39.375,72.96875 c -0.387313,0.935381 -1.175197,2.0423 -1.75,3.28125 -0.574803,1.23895 -0.879336,2.758586 -0.0625,4.25 a 0.79814732,0.79814732 0 0 0 0,0.03125 c 0.784044,1.359162 2.138049,1.838088 3.375,1.9375 1.236951,0.09941 2.452194,-0.09018 3.375,-0.03125 0.777834,0.07185 1.633104,0.06644 2.46875,-0.15625 0.532485,-0.141901 1.033944,-0.438665 1.46875,-0.8125 0.776718,0.744181 1.711244,1.172654 2.65625,1.25 1.181378,0.09669 2.339984,-0.06166 3.25,-0.03125 0.05485,0.01424 0.101671,-0.01129 0.15625,0 1.015614,0.210158 1.967838,-0.0417 2.75,-0.375 0.631255,-0.268993 1.023819,-0.506917 1.34375,-0.6875 0.873027,0.74728 1.907649,1.085683 2.90625,1.125 1.153888,0.04543 2.263096,-0.109415 3.15625,-0.0625 0.05427,0.01497 0.102375,-0.01172 0.15625,0 1.00252,0.21809 1.956819,-0.09465 2.6875,-0.4375 0.384974,-0.180635 0.729087,-0.351097 1,-0.5 0.128426,-0.07059 0.129092,-0.08232 0.21875,-0.125 0.869266,0.745645 1.913764,1.090611 2.90625,1.125 1.176141,0.04075 2.296184,-0.124525 3.1875,-0.0625 0.02052,0.003 0.04195,-0.0027 0.0625,0 2.08634,0.277677 4.337946,-0.833348 4.9375,-3.03125 0.0026,-0.0095 -0.0025,-0.02167 0,-0.03125 0.0063,-0.02376 0.02533,-0.03849 0.03125,-0.0625 0.305081,-0.856446 0.183636,-1.718564 -0.125,-2.40625 -0.240287,-0.535395 -0.599353,-0.915096 -0.9375,-1.3125 0.851867,-2.84974 3.285442,-5.309846 4.1875,-8.71875 a 0.79814732,0.79814732 0 0 0 0,-0.0625 c 0.406365,-1.956587 -0.350576,-3.928798 -1.65625,-5.34375 -1.291784,-1.3999 -3.170732,-2.28364 -5.15625,-2.0625 l 0,-0.03125 c -0.715431,0.01718 -1.625022,-0.105772 -2.59375,0 -0.729731,0.07968 -1.457275,0.485242 -2.0625,1.09375 -1.054031,-0.797265 -2.350159,-1.169715 -3.65625,-1.03125 -0.0078,5.74e-4 -0.02335,-5.21e-4 -0.03125,0 -0.687309,0.04539 -1.683211,-0.127874 -2.71875,-0.0625 -0.874992,0.05524 -1.785575,0.507186 -2.4375,1.3125 -0.02768,0.01 -0.0091,-0.007 -0.03125,0 -0.166149,0.05245 -0.22239,0.06114 -0.21875,0.0625 0.0041,0.0015 -0.04631,-0.02094 -0.15625,-0.15625 -0.219873,-0.270619 -0.647739,-1.004098 -1.5625,-1.1875 a 0.79814732,0.79814732 0 0 0 -0.03125,0 c -1.800467,-0.290011 -3.763756,-0.33181 -5.65625,0 0.171584,-0.329885 0.371197,-0.647327 0.5,-1.03125 0.133898,-0.399108 0.181138,-0.868126 0.0625,-1.34375 l 0.03125,0 C 55.47217,54.051684 52.869936,50.963146 49.5,51 c -0.01078,1.18e-4 -0.02046,-1.81e-4 -0.03125,0 z m 1.34375,19.0625 0.03125,0 c -0.189637,0.403575 -0.389824,0.768015 -0.53125,1.1875 -0.274803,0.385249 -0.515122,0.805386 -0.71875,1.28125 -0.248224,0.580081 -0.485484,1.183738 -0.71875,1.71875 -0.06461,0.148195 -0.122509,0.181525 -0.1875,0.3125 0.103121,-0.410042 0.291715,-0.835013 0.53125,-1.3125 0.114317,-0.227878 0.244882,-0.485451 0.375,-0.71875 0.441953,-0.792411 0.904209,-1.605528 1.21875,-2.46875 z"
       id="path4068"
       style="opacity:0.05;fill:#000000;fill-opacity:1;fill-rule:evenodd;stroke:none" />
    <path
       d="m 49.46875,51.8125 c -4.308698,-0.109607 -6.686925,5.648179 -3.980863,8.8305 0.09275,0.636391 -3.041464,1.433354 -2.466861,3.428373 0.43056,3.339096 -1.576888,6.293685 -2.906,9.210664 -0.888871,2.14667 -3.214809,4.378471 -1.865026,6.842963 1.277905,2.215285 4.026268,1.407679 6.122524,1.541553 1.410262,0.130271 3.216491,-0.103774 3.846226,-1.291553 1.278801,2.219552 4.026204,1.403796 6.122326,1.520346 1.612154,0.418582 3.458152,-0.893122 4.132048,-1.207823 1.511884,1.926474 4.123623,1.040961 6.220383,1.204378 1.539046,0.424672 3.21983,-1.005667 3.899938,-1.180861 1.498026,1.904695 4.087351,1.013086 6.162558,1.180578 1.783075,0.26125 3.674848,-0.677901 4.130865,-2.528818 0.533716,-1.350362 -0.360123,-2.511745 -1.199368,-3.4253 0.836668,-3.268028 3.456143,-5.795051 4.3125,-9.03125 0.686559,-3.305679 -2.593636,-6.88016 -6.00337,-6.458733 -1.619535,0.0389 -3.654606,-0.496969 -4.59038,1.239983 -0.891542,-1.01117 -2.30137,-1.365226 -3.69521,-1.210623 -1.669133,0.122693 -4.051285,-0.639629 -4.96104,1.210623 -1.404951,0.506962 -1.254126,-1.019009 -2.40625,-1.25 -2.086705,-0.336117 -4.400582,-0.427171 -6.446957,0.149202 -1.419292,0.826556 1.358297,-2.223809 0.696957,-3.336702 0.05697,-2.791085 -2.243937,-5.485896 -5.125,-5.4375 z m 3.375,9.46875 c -0.498041,1.211149 -1.164936,0.629837 0,0 z m -0.25,3.59375 c 1.152216,2.207947 -0.836771,4.563162 -1.529723,6.618538 -1.019753,1.165923 -1.815658,5.505676 -3.128032,4.666314 -0.741265,-2.093296 1.518112,-4.473557 2.202593,-6.483479 0.832922,-1.59177 1.763925,-3.139897 2.455162,-4.801373 z m 19,5.21875 c -0.864939,2.340099 -1.971199,4.762865 -3.21875,6.8125 -1.792945,-1.46494 0.607699,-3.724834 1.03125,-5.34375 0.523035,-0.724406 1.260312,-1.373538 2.1875,-1.46875 z M 61.5,70.1875 c -0.907638,2.168804 -1.959313,5.111062 -3.289439,6.594651 -1.582499,-1.393323 0.657133,-3.519072 0.976939,-5.063401 0.596872,-0.724267 1.36427,-1.352515 2.3125,-1.53125 z"
       inkscape:connector-curvature="0"
       id="path4062"
       style="opacity:0.1;fill:#000000;fill-opacity:1;fill-rule:evenodd;stroke:none" />
    <path
       d="m 49.46875,52.78125 c -2.318346,0 -4.15625,2.037967 -4.15625,4.46875 0,2.430799 1.837908,4.46875 4.15625,4.46875 2.318329,0 4.15625,-2.037948 4.15625,-4.46875 0,-2.430786 -1.837917,-4.46875 -4.15625,-4.46875 z m 7.71875,8.375 c -0.920316,0.01551 -1.783562,0.116472 -2.625,0.21875 -0.02985,0.0036 -0.06403,-0.0037 -0.09375,0 l 0,0.03125 c -0.299083,0.008 -0.585482,0.100722 -0.78125,0.28125 -0.219062,0.202009 -0.353832,0.466979 -0.4375,0.71875 -0.167336,0.503541 -0.168239,1.040963 0,1.5625 a 0.62309726,0.62309726 0 0 0 0.03125,0.09375 l 0.65625,1.3125 c 0.06001,0.583702 0.180423,0.976304 -0.3125,2.53125 -0.527965,1.665487 -1.763252,4.516176 -4.59375,9.65625 A 0.62309726,0.62309726 0 0 0 49,77.625 c -0.355544,0.780632 -0.310091,1.603169 0.0625,2.25 0.372591,0.646831 1.079226,1.101943 1.90625,1.09375 l 5,-0.0625 c 0.377421,-0.0088 0.637895,-0.182569 0.875,-0.375 0.237105,-0.192431 0.449706,-0.436561 0.625,-0.71875 0.350587,-0.564379 0.604632,-1.349517 0.25,-2.09375 a 0.62309726,0.62309726 0 0 0 -0.09375,-0.125 l -1,-1.21875 c -4.84e-4,-8.39e-4 7.69e-4,-0.0292 0,-0.03125 -0.0123,-0.03274 -0.03547,-0.198185 0,-0.5 0.03768,-0.320678 0.117129,-0.757482 0.28125,-1.25 0.318535,-0.955904 0.851614,-2.137913 1.4375,-3.34375 0.01025,-0.01345 0.02099,-0.01796 0.03125,-0.03125 0.01126,-0.02313 0.01995,-0.03936 0.03125,-0.0625 1.568612,-1.994406 3.206816,-2.098646 4.4375,-2.125 0.03349,0.06165 0.08781,0.218387 0.125,0.34375 -0.642808,1.752815 -1.453625,3.790383 -3.875,8.1875 A 0.62309726,0.62309726 0 0 0 59.0625,77.625 c -0.353721,0.776649 -0.331836,1.600749 0.03125,2.25 0.363086,0.649251 1.07929,1.101942 1.90625,1.09375 l 5.0625,-0.0625 c 0.377552,-0.0089 0.640122,-0.181107 0.875,-0.375 0.234878,-0.193893 0.454142,-0.435812 0.625,-0.71875 0.341716,-0.565875 0.570978,-1.354588 0.21875,-2.09375 a 0.62309726,0.62309726 0 0 0 -0.09375,-0.125 l -1,-1.21875 c -4.09e-4,-7.1e-4 6.99e-4,-0.02931 0,-0.03125 -0.01119,-0.0311 -0.04064,-0.192544 0,-0.5 0.04318,-0.326672 0.137857,-0.779387 0.3125,-1.28125 0.349286,-1.003726 0.941382,-2.234091 1.5625,-3.5 1.432915,-1.996083 2.941298,-2.029752 4.125,-2.03125 0.01547,0.01396 0.02915,0.0019 0.0625,0.09375 0.04677,0.128806 0.08567,0.35749 0.09375,0.59375 -0.673927,1.782716 -1.3333,3.625425 -3.65625,7.84375 a 0.62309726,0.62309726 0 0 0 -0.03125,0.0625 c -0.351906,0.772665 -0.322226,1.598366 0.03125,2.25 0.353476,0.651634 1.048088,1.101953 1.875,1.09375 l 5.03125,-0.0625 c 0.377288,-0.0088 0.635669,-0.183988 0.875,-0.375 0.239331,-0.191012 0.476549,-0.437321 0.65625,-0.71875 0.359402,-0.562859 0.607071,-1.344441 0.25,-2.09375 a 0.62309726,0.62309726 0 0 0 -0.09375,-0.125 l -1,-1.21875 c -0.09517,-0.16502 -0.105952,-0.64733 0.125,-1.34375 0.230952,-0.69642 0.650776,-1.546017 1.15625,-2.46875 1.010947,-1.845465 2.338488,-3.894246 2.96875,-5.59375 a 0.62309726,0.62309726 0 0 0 0,-0.03125 c 0.444873,-1.379087 -0.113564,-2.689273 -0.90625,-3.625 -0.792686,-0.935727 -1.80754,-1.575726 -2.65625,-1.84375 a 0.62309726,0.62309726 0 0 0 -0.1875,-0.03125 l -3.8125,-0.0625 a 0.62309726,0.62309726 0 0 0 -0.125,0.03125 c -0.447003,0.10196 -0.860592,0.324864 -1.09375,0.65625 -0.129689,0.184326 -0.151491,0.397671 -0.21875,0.59375 L 70.34375,62.625 c -0.02866,-0.15174 0.01072,-0.324395 -0.0625,-0.46875 -0.181447,-0.357704 -0.578561,-0.64582 -1,-0.6875 a 0.62309726,0.62309726 0 0 0 -0.0625,0 l -4,-0.0625 c -0.361078,-0.0074 -0.633394,0.0073 -0.90625,0.09375 -0.272856,0.08642 -0.537169,0.277243 -0.6875,0.5 -0.170106,0.252059 -0.154581,0.444534 -0.1875,0.65625 l -2.65625,0 c 6.36e-4,-0.02034 -1.04e-4,-0.04217 0,-0.0625 0.0017,-0.331145 -0.05778,-0.690109 -0.3125,-1 A 0.62309726,0.62309726 0 0 0 60.125,61.375 c -0.977051,-0.176853 -1.984534,-0.234814 -2.9375,-0.21875 z m -7.84375,0.6875 -2.65625,0.0625 c -0.960589,-0.01973 -1.701425,0.127276 -2.1875,0.6875 -0.486075,0.560224 -0.545299,1.301779 -0.5,2.15625 0.02267,0.747728 0.244907,1.010853 -0.25,2.65625 -0.494907,1.645397 -1.725757,4.527851 -4.6875,9.90625 a 0.62309726,0.62309726 0 0 0 -0.03125,0.0625 c -0.355571,0.780725 -0.310062,1.602962 0.0625,2.25 0.372562,0.647038 1.078837,1.102958 1.90625,1.09375 l 5.03125,-0.03125 c 0.383342,-0.0087 0.671822,-0.17748 0.90625,-0.375 0.234428,-0.19752 0.42381,-0.463672 0.59375,-0.75 0.339879,-0.572656 0.572156,-1.352145 0.21875,-2.09375 a 0.62309726,0.62309726 0 0 0 -0.09375,-0.125 l -1,-1.21875 c -5.64e-4,-9.78e-4 8.15e-4,-0.02914 0,-0.03125 -0.01386,-0.03588 -0.03976,-0.212518 0,-0.53125 0.0421,-0.337481 0.137272,-0.797379 0.3125,-1.3125 0.350456,-1.030242 0.924483,-2.304749 1.5625,-3.59375 0.638017,-1.289001 1.356609,-2.58692 1.9375,-3.6875 0.580891,-1.10058 1.039364,-1.962672 1.25,-2.53125 0.128041,-0.362782 0.179681,-0.715143 0.15625,-1.0625 -0.02343,-0.347357 -0.15582,-0.714344 -0.40625,-0.96875 -0.494476,-0.502327 -1.212399,-0.598322 -2.09375,-0.5625 -0.01138,4.62e-4 -0.01982,-5.08e-4 -0.03125,0 z"
       id="path4058"
       style="opacity:0.15;fill:#000000;fill-opacity:1;fill-rule:evenodd;stroke:none" />
    <path
       d="m 53.006556,57.244935 c 0,2.121594 -1.58231,3.841487 -3.534162,3.841487 -1.951868,0 -3.534161,-1.719893 -3.534161,-3.841487 0,-2.121576 1.582293,-3.84147 3.534161,-3.84147 1.951852,0 3.534162,1.719894 3.534162,3.84147 z M 39.605132,77.623348 c 5.943099,-10.792414 5.068055,-11.70392 5.031576,-12.907125 -0.08505,-1.604273 0.267379,-2.224115 2.041803,-2.18767 l 2.698108,-0.07292 c 1.640735,-0.07293 2.187653,0.510438 1.750122,1.750105 -0.700435,1.890711 -5.99003,10.484627 -4.98888,12.220626 l 1.063624,1.32511 c 0.448597,0.941359 -0.598119,2.295246 -1.180781,2.308482 l -5.030073,0.04252 c -1.227507,0.01366 -1.944576,-1.25181 -1.385516,-2.479334 z M 59.994356,62.012992 c -1.853925,-0.335573 -3.744329,-0.233615 -5.452421,-0.0222 -0.66843,-0.04867 -0.929968,1.035546 -0.686892,1.789078 l 0.709179,1.41834 c 0.09137,1.144302 0.66498,2.349436 -5.014873,12.663827 -0.559077,1.227507 0.190817,2.494261 1.418341,2.482101 l 5.014873,-0.05055 c 0.582663,-0.01366 1.613649,-1.33809 1.165069,-2.279483 l -1.06376,-1.317032 c -0.483676,-0.838718 0.546883,-3.314534 1.772939,-5.825361 1.772477,-2.327234 3.818977,-2.458942 5.116181,-2.4821 0.386911,0.0883 0.543963,0.532008 0.658525,1.013105 -0.655843,1.799871 -1.497123,3.911064 -4.001784,8.459425 -0.559061,1.227507 0.140213,2.49426 1.367703,2.4821 l 5.065527,-0.05055 c 0.582663,-0.01366 1.613666,-1.338089 1.165069,-2.279483 l -1.06376,-1.317032 c -0.490678,-0.850861 0.572911,-3.377638 1.823593,-5.926669 1.639147,-2.349112 3.62478,-2.380792 4.862893,-2.380792 0.494248,0.151997 0.607648,0.776212 0.60787,1.418341 -0.684364,1.806002 -1.366166,3.728035 -3.748495,8.054189 -0.559061,1.227507 0.140213,2.494278 1.367703,2.482101 l 5.014856,-0.05055 c 0.582662,-0.01366 1.664354,-1.338073 1.21574,-2.279483 l -1.06376,-1.317015 c -1.001167,-1.736015 3.024083,-6.79466 4.198527,-9.961552 0.729229,-2.260577 -1.772921,-4.238063 -3.158438,-4.675611 l -3.815015,-0.05875 c -0.688087,0.15695 -0.832194,0.553339 -1.021457,1.274439 l -2.610137,-0.0222 c 0.05141,-0.667491 -0.122623,-1.108369 -0.614257,-1.156991 l -3.99731,-0.05875 c -1.289502,-0.02647 -1.161961,0.437274 -1.327348,1.229898 l -3.892636,0.0016 c 0.214675,-0.418693 0.210593,-0.983252 -0.01366,-1.256079 z"
       inkscape:connector-curvature="0"
       id="path4052"
       style="opacity:0.3;fill:#000000;fill-opacity:1;fill-rule:evenodd;stroke:none" />
    <path
       d="m 385.80394,513.51428 c 0,1.24227 -0.9265,2.24933 -2.06938,2.24933 -1.14289,0 -2.06938,-1.00706 -2.06938,-2.24933 0,-1.24226 0.92649,-2.24932 2.06938,-2.24932 1.14288,0 2.06938,1.00706 2.06938,2.24932 z m -7.84702,11.9323 c 3.4799,-6.31935 2.96753,-6.85307 2.94617,-7.55759 -0.0498,-0.93936 0.15656,-1.3023 1.19555,-1.28096 l 1.57984,-0.0427 c 0.96071,-0.0427 1.28095,0.29888 1.02476,1.02475 -0.41013,1.10708 -3.50738,6.13913 -2.92117,7.15562 l 0.62279,0.7759 c 0.26267,0.5512 -0.35022,1.34395 -0.69139,1.3517 l -2.94529,0.0249 c -0.71875,0.008 -1.13862,-0.73298 -0.81127,-1.45174 z m 11.93863,-9.14043 c -1.08554,-0.19649 -2.19244,-0.13679 -3.19259,-0.013 -0.39139,-0.0285 -0.54453,0.60635 -0.4022,1.04757 l 0.41525,0.83049 c 0.0535,0.67003 0.38937,1.37568 -2.93639,7.41513 -0.32736,0.71875 0.11173,1.46048 0.83049,1.45336 l 2.93639,-0.0296 c 0.34117,-0.008 0.94485,-0.7835 0.68219,-1.33472 l -0.62287,-0.77117 c -0.28321,-0.4911 0.32022,-1.94078 1.03812,-3.41096 1.03785,-1.36268 2.23615,-1.4398 2.99571,-1.45336 0.22655,0.0517 0.31851,0.31151 0.38559,0.59321 -0.38402,1.05389 -0.87662,2.29007 -2.34319,4.9533 -0.32735,0.71875 0.0821,1.46048 0.80084,1.45336 l 2.96605,-0.0296 c 0.34117,-0.008 0.94486,-0.7835 0.68219,-1.33472 l -0.62287,-0.77117 c -0.28731,-0.49821 0.33546,-1.97773 1.06778,-3.47028 0.95978,-1.37549 2.12244,-1.39404 2.8474,-1.39404 0.2894,0.089 0.3558,0.4545 0.35593,0.83049 -0.40072,1.05748 -0.79994,2.1829 -2.19488,4.71602 -0.32735,0.71875 0.0821,1.46049 0.80084,1.45336 l 2.93638,-0.0296 c 0.34117,-0.008 0.97454,-0.78349 0.71186,-1.33472 l -0.62287,-0.77116 c -0.58622,-1.0165 1.77071,-3.97852 2.45839,-5.83285 0.42699,-1.32365 -1.03811,-2.48154 -1.84938,-2.73774 l -2.23383,-0.0344 c -0.4029,0.0919 -0.48728,0.324 -0.5981,0.74623 l -1.52833,-0.013 c 0.0301,-0.39084 -0.0718,-0.64899 -0.35967,-0.67746 l -2.34057,-0.0344 c -0.75505,-0.0155 -0.68037,0.25604 -0.77721,0.72015 l -2.27928,9.4e-4 c 0.1257,-0.24516 0.12331,-0.57573 -0.008,-0.73548 z"
       inkscape:connector-curvature="0"
       transform="matrix(1.7078361,0,0,1.7078361,-605.88334,-820.75329)"
       id="path866"
       style="fill:url(#linearGradient4031);fill-opacity:1;fill-rule:evenodd;stroke:none" />
    <path
       d="m 49.46875,52.40625 c -1.951869,0 -3.53125,1.722174 -3.53125,3.84375 0,1.369462 0.663866,2.569799 1.65625,3.25 -0.418458,-0.631188 -0.65625,-1.412582 -0.65625,-2.25 0,-2.121576 1.579382,-3.84375 3.53125,-3.84375 0.691956,0 1.329966,0.220173 1.875,0.59375 -0.641706,-0.96792 -1.693567,-1.59375 -2.875,-1.59375 z m 7.75,8.375 c -0.917853,0.01 -1.833454,0.113043 -2.6875,0.21875 -0.66843,-0.04867 -0.930576,1.027719 -0.6875,1.78125 l 0.71875,1.40625 c 0.09137,1.144301 0.679853,2.373109 -5,12.6875 -0.477201,1.047739 -0.0069,2.089776 0.90625,2.375 -0.138021,-0.416846 -0.127896,-0.888355 0.09375,-1.375 5.679853,-10.314391 5.09137,-11.543198 5,-12.6875 L 54.84375,63.78125 C 54.600674,63.027718 54.86282,61.95133 55.53125,62 56.973755,61.821457 58.554225,61.731062 60.125,61.90625 60.194348,61.567474 60.163137,61.19847 60,61 59.073038,60.832214 58.136603,60.771281 57.21875,60.78125 z M 73.46875,61 c -0.688087,0.15695 -0.841988,0.56015 -1.03125,1.28125 L 70.5625,62.25 c 0.226908,0.185176 0.317971,0.523221 0.28125,1 l 2.59375,0.03125 C 73.626763,62.56015 73.780663,62.15695 74.46875,62 l 3.8125,0.0625 c 0.430896,0.136077 0.98389,0.41634 1.5,0.8125 -0.714411,-0.912483 -1.764335,-1.580176 -2.5,-1.8125 L 73.46875,61 z m -8.25,0.03125 c -1.289502,-0.02647 -1.147113,0.457376 -1.3125,1.25 l -2.78125,0 c 0.08569,0.293507 0.03601,0.68598 -0.125,1 l 3.90625,0 c 0.165387,-0.792624 0.023,-1.27647 1.3125,-1.25 l 3.625,0.0625 c 0.0095,-0.569837 -0.177261,-0.955719 -0.625,-1 l -4,-0.0625 z m -15.84375,0.4375 -2.6875,0.0625 c -1.774425,-0.03645 -2.14755,0.583227 -2.0625,2.1875 0.03648,1.203205 0.911849,2.113836 -5.03125,12.90625 -0.477186,1.047754 1.4e-4,2.122234 0.90625,2.40625 -0.139488,-0.421041 -0.131747,-0.911128 0.09375,-1.40625 5.943099,-10.792414 5.067729,-11.703045 5.03125,-12.90625 -0.08505,-1.604273 0.288076,-2.223945 2.0625,-2.1875 l 2.6875,-0.0625 C 50.729657,62.45299 51.027704,62.45443 51.28125,62.5 51.282161,61.756259 50.656471,61.411793 49.375,61.46875 z M 63.96875,68.375 c -0.101968,0.0018 -0.233019,0.02707 -0.34375,0.03125 -0.655843,1.799871 -1.495339,3.92039 -4,8.46875 -0.484216,1.063174 -0.02308,2.140656 0.90625,2.40625 -0.13824,-0.422658 -0.132852,-0.90871 0.09375,-1.40625 2.504661,-4.548361 3.344157,-6.668879 4,-8.46875 C 64.510438,68.925153 64.355661,68.4633 63.96875,68.375 z m 9.875,0 c -0.122056,0 -0.270713,0.02844 -0.40625,0.03125 0.01342,0.132908 0.0312,0.267027 0.03125,0.40625 -0.684364,1.806003 -1.367671,3.736346 -3.75,8.0625 -0.477186,1.047739 -0.0273,2.089783 0.875,2.375 -0.128417,-0.416848 -0.09664,-0.888355 0.125,-1.375 2.382329,-4.326154 3.065636,-6.256498 3.75,-8.0625 -2.22e-4,-0.642129 -0.130752,-1.285503 -0.625,-1.4375 z"
       inkscape:connector-curvature="0"
       id="path4038"
       style="opacity:0.6;fill:#ffffff;fill-opacity:1;fill-rule:evenodd;stroke:none" />
    <path
       d="M 51.34375,53 C 51.76221,53.631185 52,54.412589 52,55.25 c 0,2.121594 -1.579398,3.84375 -3.53125,3.84375 -0.691962,0 -1.329967,-0.220173 -1.875,-0.59375 0.641703,0.967924 1.693556,1.59375 2.875,1.59375 C 51.420602,60.09375 53,58.371594 53,56.25 53,54.880549 52.336134,53.680199 51.34375,53 z m 7.78125,7.90625 c -0.02598,0.126922 -0.06649,0.260889 -0.125,0.375 l 1.125,0 C 60.096436,61.183414 60.056064,61.068207 60,61 59.711737,60.94782 59.414204,60.9385 59.125,60.90625 z m 9.71875,0.1875 c -9.3e-4,0.05587 0.0046,0.09665 0,0.15625 l 0.71875,0 c -0.09076,-0.07407 -0.203283,-0.142358 -0.34375,-0.15625 l -0.375,0 z M 50.28125,61.5 c -2.55e-4,0.208511 -0.06045,0.447306 -0.15625,0.71875 -0.700435,1.890711 -6.00115,10.482751 -5,12.21875 l 1.0625,1.3125 c 0.448597,0.941359 -0.573588,2.299264 -1.15625,2.3125 L 40,78.09375 c -0.179768,0.002 -0.344532,-0.01377 -0.5,-0.0625 0.206335,0.622818 0.767608,1.070652 1.5,1.0625 L 46.03125,79.0625 C 46.613912,79.04926 47.636097,77.691359 47.1875,76.75 L 46.125,75.4375 c -1.001151,-1.735998 4.299565,-10.328039 5,-12.21875 0.342955,-0.971704 0.07568,-1.553517 -0.84375,-1.71875 z m 28.5,0.375 c 0.631076,0.806043 0.998281,1.814718 0.65625,2.875 -1.174444,3.166892 -5.188667,8.201485 -4.1875,9.9375 L 76.3125,76 c 0.448614,0.94141 -0.636088,2.26759 -1.21875,2.28125 l -5.03125,0.0625 c -0.179766,0.0018 -0.313936,-0.04481 -0.46875,-0.09375 0.195501,0.634605 0.727898,1.101099 1.46875,1.09375 l 5.03125,-0.0625 C 76.676412,79.267587 77.761114,77.94141 77.3125,77 L 76.25,75.6875 c -1.001168,-1.736015 3.013055,-6.770608 4.1875,-9.9375 0.502439,-1.557538 -0.512842,-2.997334 -1.65625,-3.875 z m -16.8125,4.5 c -1.297204,0.02316 -3.352523,0.172766 -5.125,2.5 -1.226056,2.510827 -2.233676,4.973782 -1.75,5.8125 L 56.15625,76 c 0.44858,0.941393 -0.604837,2.26759 -1.1875,2.28125 l -5,0.0625 c -0.179771,0.0018 -0.343329,-0.04481 -0.5,-0.09375 0.210121,0.634601 0.759127,1.101089 1.5,1.09375 l 5,-0.0625 C 56.551412,79.267587 57.60483,77.941393 57.15625,77 l -1.0625,-1.3125 c -0.483676,-0.838718 0.523944,-3.301674 1.75,-5.8125 C 59.4769,67.730701 61.327051,67.455193 62.625,67.40625 62.510438,66.925153 62.355661,66.4633 61.96875,66.375 z m 9.875,0 c -1.238113,0 -3.204603,0.05714 -4.84375,2.40625 -1.250682,2.549031 -2.334428,5.055389 -1.84375,5.90625 L 66.21875,76 c 0.448597,0.941394 -0.573587,2.26759 -1.15625,2.28125 L 60,78.34375 c -0.164331,0.0016 -0.325105,-0.02145 -0.46875,-0.0625 0.202819,0.620105 0.738793,1.069731 1.46875,1.0625 l 5.0625,-0.0625 C 66.645162,79.267587 67.667347,77.941393 67.21875,77 l -1.0625,-1.3125 C 65.665572,74.836639 66.749317,72.330281 68,69.78125 c 1.477557,-2.117532 3.198172,-2.349346 4.4375,-2.375 -0.04846,-0.480097 -0.206662,-0.912208 -0.59375,-1.03125 z"
       inkscape:connector-curvature="0"
       id="path4043"
       style="opacity:0.2;fill:#000000;fill-opacity:1;fill-rule:evenodd;stroke:none" />
  </g>
</svg>
