<?xml version="1.0" encoding="UTF-8" standalone="no"?>
<svg
   xmlns:dc="http://purl.org/dc/elements/1.1/"
   xmlns:cc="http://creativecommons.org/ns#"
   xmlns:rdf="http://www.w3.org/1999/02/22-rdf-syntax-ns#"
   xmlns:svg="http://www.w3.org/2000/svg"
   xmlns="http://www.w3.org/2000/svg"
   xmlns:sodipodi="http://sodipodi.sourceforge.net/DTD/sodipodi-0.dtd"
   xmlns:inkscape="http://www.inkscape.org/namespaces/inkscape"
   version="1.1"
   width="48"
   height="48"
   id="svg2"
   inkscape:version="0.91 r13725"
   sodipodi:docname="Audacious-2.4-logo.svg">
  <metadata
     id="metadata13">
    <rdf:RDF>
      <cc:Work
         rdf:about="">
        <dc:format>image/svg+xml</dc:format>
        <dc:type
           rdf:resource="http://purl.org/dc/dcmitype/StillImage" />
        <dc:title></dc:title>
        <dc:title></dc:title>
      </cc:Work>
    </rdf:RDF>
  </metadata>
  <defs
     id="defs11" />
  <sodipodi:namedview
     pagecolor="#ffffff"
     bordercolor="#666666"
     borderopacity="1"
     objecttolerance="10"
     gridtolerance="10"
     guidetolerance="10"
     inkscape:pageopacity="0"
     inkscape:pageshadow="2"
     inkscape:window-width="1366"
     inkscape:window-height="713"
     id="namedview9"
     showgrid="false"
     inkscape:zoom="5.512044270833336"
     inkscape:cx="30.94288196220957"
     inkscape:cy="21.1009489074766"
     inkscape:window-x="0"
     inkscape:window-y="30"
     inkscape:window-maximized="1"
     inkscape:current-layer="svg2"
     inkscape:snap-bbox="true"
     inkscape:bbox-nodes="true" />
  <path
     style="fill:#4caf50;fill-opacity:1"
     d="M 24.525390625 6.0078125 A 18 18 0 0 0 6 24 A 18 18 0 0 0 42 24 A 18 18 0 0 0 24.525390625 6.0078125 z M 24.4375 13.859375 C 25.31555000000003 13.859375 26.22872499999999 13.98985 27.171875 14.25 C 28.14742500000002 14.54269999999998 28.958875 14.875325 29.609375 15.265625 C 30.29228 15.623365 30.84283750000001 16.05781500000001 31.265625 16.578125 C 31.68836500000002 17.09846500000001 32.02233250000003 17.736425 32.25 18.484375 C 32.47761750000002 19.199835 32.6511435 20.07000500000002 32.78125 21.078125 C 32.846267 21.43586000000001 32.88933 21.7829125 32.921875 22.140625 C 32.98689 22.49836000000001 33.031225 22.861037 33.03125 23.21875 C 33.03122500000001 23.47892199999999 32.972536 23.7254915 32.875 23.953125 C 32.77741350000002 24.14825549999999 32.7056405 24.35049049999999 32.640625 24.578125 C 32.64059950000001 24.61065000000001 32.6405995 24.69805150000001 32.640625 24.828125 C 32.64059950000001 24.9582135 32.610615 25.10303099999999 32.578125 25.265625 C 32.57809950000001 25.39571400000002 32.5780995 25.52617600000001 32.578125 25.65625 C 32.57809950000001 25.75381799999999 32.5780995 25.82686 32.578125 25.859375 C 32.513064 26.217105 32.4556405 26.56415800000001 32.390625 26.921875 C 32.35808 27.27960500000001 32.343725 27.64228149999999 32.34375 28 L 32.34375 28.140625 C 32.37625 28.27072499999999 32.43365 28.5173 32.53125 28.875 C 32.62880000000001 29.23274999999999 32.701925 29.479075 32.734375 29.609375 L 32.734375 29.90625 C 32.7343495 30.296495 32.63259650000001 30.673529 32.4375 31.03125 C 32.24235500000001 31.38897500000001 31.98142850000001 31.70731800000002 31.65625 32 C 31.33102500000001 32.29268399999999 30.96834499999999 32.52489899999999 30.578125 32.6875 C 30.22038 32.8501015 29.8589715 32.921875 29.46875 32.921875 C 28.94840499999999 32.921875 28.44090900000003 32.80576699999999 27.953125 32.578125 C 27.46530000000002 32.317963 26.9865145 32.10137300000001 26.53125 31.90625 C 26.46618900000002 31.87372999999999 26.335728 31.859375 26.140625 31.859375 L 25.8125 31.859375 C 25.19459500000001 31.85937599999999 24.58535 31.959859 24 32.1875 C 23.44714000000001 32.382623 22.89658 32.60048299999999 22.34375 32.828125 C 22.2786975 32.86063999999999 22.119523 32.94804399999999 21.859375 33.078125 C 21.631718 33.20820599999999 21.486902 33.27998 21.421875 33.3125 C 21.29178000000001 33.377545 21.190027 33.391895 21.125 33.359375 L 20.78125 33.359375 L 20.390625 33.359375 C 20.22800999999999 33.326855 19.90966800000002 33.24072649999999 19.421875 33.078125 C 18.96657899999999 32.91552349999999 18.64696549999999 32.799416 18.484375 32.734375 C 18.45184000000001 32.734375 18.3944245 32.720015 18.296875 32.6875 C 18.23182 32.65498 18.1874895 32.61064 18.1875 32.578125 C 17.66716500000001 32.2204 17.11660500000001 31.814661 16.53125 31.359375 C 15.978395 30.87156999999999 15.6169895 30.30666 15.421875 29.65625 C 15.35682300000002 29.42860999999999 15.2550735 29.124622 15.125 28.734375 C 14.9949115 28.31161500000001 14.92186700000002 28.09375500000001 14.921875 28.09375 L 14.921875 25.65625 C 14.921867 25.62373000000003 14.9661995 25.521984 15.03125 25.359375 C 15.12880350000002 25.19678100000002 15.2005765 25.096299 15.265625 25.03125 C 15.62334000000002 24.38084999999999 16.08777 23.771605 16.640625 23.21875 C 17.22598 22.633395 17.83395500000001 22.14025450000001 18.484375 21.75 C 18.93965 21.4898485 19.41843300000001 21.3593865 19.90625 21.359375 C 20.39404000000001 21.32686499999999 20.8572025 21.2407385 21.3125 21.078125 C 21.3775265 21.04561499999999 21.507989 20.986927 21.703125 20.921875 C 21.93075299999999 20.824326 22.07557 20.766905 22.140625 20.734375 C 22.270691 20.66935 22.47419700000001 20.64063700000001 22.734375 20.640625 C 22.99452 20.60811499999999 23.2554465 20.563785 23.515625 20.53125 C 23.7757715 20.46622349999999 23.97800650000001 20.394448 24.140625 20.296875 C 24.33573049999999 20.166806 24.4374825 19.963301 24.4375 19.703125 C 24.4374825 19.410455 24.30702049999999 19.193865 24.046875 19.03125 C 23.786695 18.8686625 23.51141750000001 18.7812635 23.21875 18.78125 L 19.859375 18.78125 C 19.66424100000001 18.846302 19.44638100000002 18.88937 19.21875 18.921875 C 18.991096 18.95440999999999 18.7732355 18.968765 18.578125 18.96875 C 18.05779000000001 18.96876500000001 17.5946295 18.7952375 17.171875 18.4375 C 16.7816215 18.04727000000001 16.5781155 17.59846500000002 16.578125 17.078125 C 16.57811549999999 16.85049900000002 16.622449 16.6326385 16.6875 16.4375 C 16.78505099999999 16.2423945 16.871179 16.06886849999999 16.96875 15.90625 L 18 14.875 C 18.26015 14.64740000000001 18.535475 14.516875 18.828125 14.484375 C 19.153315 14.41935750000001 19.457305 14.37629 19.75 14.34375 C 19.88007000000001 14.31125 20.155348 14.29689000000001 20.578125 14.296875 C 21.03339599999999 14.264375 21.3530095 14.25001500000001 21.515625 14.25 C 21.938375 14.022376 22.40153500000001 13.906269 22.921875 13.90625 C 23.474705 13.87375 23.9821985 13.85939000000001 24.4375 13.859375 z M 23.078125 25.21875 C 22.81794750000001 25.21875799999999 22.614441 25.37792899999999 22.484375 25.703125 C 22.354279 25.99581499999998 22.29686 26.24238499999998 22.296875 26.4375 C 22.29686 26.95783 22.456031 27.33486350000001 22.78125 27.5625 C 23.10643499999999 27.7576275 23.4978245 27.85938049999999 23.953125 27.859375 L 24.484375 27.859375 C 24.5819185 27.8593805 24.64060750000001 27.815041 24.640625 27.75 L 24.96875 27.421875 C 25.16385450000002 27.25927950000001 25.294317 27.1431715 25.359375 27.078125 C 25.42439999999999 26.9805705 25.468732 26.85010799999999 25.46875 26.6875 C 25.468732 26.52490499999999 25.468732 26.394442 25.46875 26.296875 L 25.46875 25.8125 C 25.43621 25.71494600000001 25.348814 25.598839 25.21875 25.46875 C 25.121172 25.306156 25.0050635 25.218758 24.875 25.21875 L 23.078125 25.21875 z "
     id="path5" />
</svg>
