<?xml version="1.0" encoding="UTF-8" standalone="no"?>
<svg
   xmlns:dc="http://purl.org/dc/elements/1.1/"
   xmlns:cc="http://creativecommons.org/ns#"
   xmlns:rdf="http://www.w3.org/1999/02/22-rdf-syntax-ns#"
   xmlns:svg="http://www.w3.org/2000/svg"
   xmlns="http://www.w3.org/2000/svg"
   xmlns:sodipodi="http://sodipodi.sourceforge.net/DTD/sodipodi-0.dtd"
   xmlns:inkscape="http://www.inkscape.org/namespaces/inkscape"
   width="44.06276321411133"
   height="48"
   viewBox="0 0 44.06276321411133 36"
   id="svg2"
   version="1.1"
   inkscape:version="0.91 r13725"
   sodipodi:docname="system-upgrade.svg"
   style="fill:#F44336">
  <metadata
     id="metadata10">
    <rdf:RDF>
      <cc:Work
         rdf:about="">
        <dc:format>image/svg+xml</dc:format>
        <dc:type
           rdf:resource="http://purl.org/dc/dcmitype/StillImage" />
        <dc:title />
      </cc:Work>
    </rdf:RDF>
  </metadata>
  <defs
     id="defs8" />
  <sodipodi:namedview
     pagecolor="#ffffff"
     bordercolor="#666666"
     borderopacity="1"
     objecttolerance="10"
     gridtolerance="10"
     guidetolerance="10"
     inkscape:pageopacity="0"
     inkscape:pageshadow="2"
     inkscape:window-width="1366"
     inkscape:window-height="713"
     id="namedview6"
     showgrid="false"
     inkscape:snap-bbox="true"
     inkscape:bbox-nodes="true"
     inkscape:snap-page="true"
     inkscape:zoom="6.018032716108146"
     inkscape:cx="-76.87420728472192"
     inkscape:cy="23.20802682866579"
     inkscape:window-x="0"
     inkscape:window-y="30"
     inkscape:window-maximized="1"
     inkscape:current-layer="svg2"
     fit-margin-top="0"
     fit-margin-left="0"
     fit-margin-right="0"
     fit-margin-bottom="0" />
  <path
     d="m 44.06276318600311,9.947232240601486 -5.14285714285716,0 0,-7.714285714285693 -7.71428571428571,0 0,7.714285714285693 -5.14285714285715,0 9.00000000000002,9.000000000000014 9.00000000000001,-9.000000000000014 z"
     id="path4190"
     inkscape:connector-curvature="0" />
  <g
     id="g2210"
     transform="matrix(0.1894736842105264,0,0,0.1894736842105265,-126.9000283929445,-82.53912884210534)"
     style="fill:#4caf50;fill-opacity:1">
    <path
       transform="matrix(0.7421875,0,0,0.7421875,669.7501499999998,435.62318)"
       id="path2518"
       d="M 128,0 C 116.60518,27.937051 109.68663,46.237163 97,73.34375 104.7785,81.58895699999999 114.33826,91.15550299999999 129.84375,102 113.17383,95.14042299999998 101.81018,88.27149599999998 93.3125,81.125 77.07603899999999,115.00489 51.621645,163.24639 0,256 c 40.56270700000001,-23.41756 72.007597,-37.86167 101.3125,-43.375 -1.25376,-5.40435 -1.92350500000001,-11.27752 -1.875,-17.375 l 0.03125,-1.28125 c 0.64379,-25.99398 14.16934000000001,-45.98224 30.1875,-44.625 16.01815,1.35723 28.48754,23.53727 27.84375,49.53125 -0.12127,4.89622 -0.6905,9.60082 -1.65625,13.96875 C 184.83328,218.51691 215.98162,232.89667 256,256 c -7.89193,-14.52962 -14.96051,-27.61983 -21.6875,-40.09375 -10.59609,-8.21269 -21.64301,-18.89743 -44.1875,-30.46875 15.4958,4.02645 26.60184,8.6825 35.25,13.875 C 156.97985,71.97266799999998 151.45422,55.040376 128,0 Z"
       style="fill:#4caf50;fill-opacity:1;fill-rule:evenodd;stroke:none;stroke-width:1;stroke-linecap:round;stroke-linejoin:round;stroke-miterlimit:10;stroke-dasharray:none;stroke-opacity:1"
       inkscape:connector-curvature="0" />
    <path
       sodipodi:nodetypes="ccc"
       id="path2522"
       d="M 818.22607,548.55277 C 777.0446399999998,492.65769 767.49922,447.60796 765.0814,436.85262 c 21.9673699999996,50.6686 21.81733,51.28995 53.14467,111.70015 z"
       style="fill:#4caf50;fill-opacity:1;fill-rule:evenodd;stroke:none;stroke-width:36.0999984741;stroke-linecap:butt;stroke-linejoin:round;stroke-miterlimit:10;stroke-opacity:1"
       inkscape:connector-curvature="0" />
    <path
       id="path2520"
       d="M 765.0980499999999,436.43495 C 764.04164,439.032 763.01246,441.55215 762.0365299999997,443.9496 c -1.0811500000001,2.65585 -2.1092799999999,5.19128 -3.1311099999997,7.677 -1.02174,2.48575 -2.03439,4.91156 -3.0383300000002,7.30591 C 754.86311,461.32697 753.8564099999997,463.6942 752.8287599999996,466.07606 751.80118,468.45783 750.7672,470.86451 749.67447,473.31239 c -1.0927300000002,2.44796 -2.2333500000001,4.94504 -3.4326200000005,7.53784 -1.1993699999996,2.59282 -2.4564099999999,5.27815 -3.8037099999998,8.09448 C 742.25152,489.33479 742.02502,489.77873 741.8351099999996,490.17396 747.59032,496.26959 754.6764399999998,503.32372 766.11856,511.3263 c -12.34021,-5.0779200000001 -20.76511,-10.15751 -27.06665,-15.4467700000001 -0.3271700000004,0.66791 -0.61387,1.2643100000001 -0.95093,1.94824 C 737.65733,498.72801 737.1246599999999,499.75092 736.66299,500.68055 c -0.80967,1.6603200000001 -1.6557400000005,3.3657600000001 -2.5280700000002,5.1257400000001 C 733.7996799999998,506.4728099999999 733.50544,507.04912 733.16079,507.73133 c -5.5073300000004,11.0526499999999 -12.33962,24.2830399999996 -21.12915,40.7275399999999 24.0955699999996,-13.5758100000004 50.08533,-33.16242 97.29615,-16.30493 -2.3670800000001,-4.4831900000004 -4.5431900000001,-8.6875600000002 -6.5869200000003,-12.6403800000002 -2.0436999999997,-3.95294 -3.9424600000001,-7.6554999999997 -5.70556,-11.15601 -1.7629700000001,-3.50043 -3.3921199999997,-6.8006899999999 -4.9169999999998,-9.92675 -1.5248600000001,-3.12599 -2.9383200000002,-6.0765000000002 -4.2675700000002,-8.90625 -1.32934,-2.8297 -2.5810600000001,-5.55264 -3.7573299999998,-8.16407 C 782.9170699999998,478.74908 781.79633,476.24733 780.7303699999996,473.77626 779.6643,471.30506 778.6438,468.87908 777.64566,466.47035 c -0.9982300000004,-2.4088 -1.97267,-4.81178 -2.94556,-7.23633 -0.34772,-0.86638 -0.6955300000001,-1.7689 -1.0437000000002,-2.64404 C 770.99301,450.33729 768.2581999999996,443.85835 765.0980499999999,436.43495 Z"
       style="fill:#4caf50;fill-opacity:1;fill-rule:evenodd;stroke:none;stroke-width:0.7141668797;stroke-linecap:round;stroke-linejoin:round;stroke-miterlimit:10;stroke-dasharray:none;stroke-opacity:1"
       inkscape:connector-curvature="0" />
  </g>
</svg>
