<?xml version="1.0" encoding="UTF-8" standalone="no"?>
<!-- Created with Inkscape (http://www.inkscape.org/) -->

<svg
   xmlns:dc="http://purl.org/dc/elements/1.1/"
   xmlns:cc="http://creativecommons.org/ns#"
   xmlns:rdf="http://www.w3.org/1999/02/22-rdf-syntax-ns#"
   xmlns:svg="http://www.w3.org/2000/svg"
   xmlns="http://www.w3.org/2000/svg"
   xmlns:xlink="http://www.w3.org/1999/xlink"
   xmlns:sodipodi="http://sodipodi.sourceforge.net/DTD/sodipodi-0.dtd"
   xmlns:inkscape="http://www.inkscape.org/namespaces/inkscape"
   version="1.0"
   width="96"
   height="96"
   id="svg2408"
   inkscape:version="0.91 r13725"
   sodipodi:docname="vim4.svg">
  <sodipodi:namedview
     pagecolor="#ffffff"
     bordercolor="#666666"
     borderopacity="1"
     objecttolerance="10"
     gridtolerance="10"
     guidetolerance="10"
     inkscape:pageopacity="0"
     inkscape:pageshadow="2"
     inkscape:window-width="1366"
     inkscape:window-height="713"
     id="namedview98"
     showgrid="false"
     inkscape:zoom="4.916666664072445"
     inkscape:cx="3.264288921469522"
     inkscape:cy="51.7714594810089"
     inkscape:window-x="0"
     inkscape:window-y="30"
     inkscape:window-maximized="1"
     inkscape:current-layer="svg2408"
     inkscape:snap-bbox="true"
     inkscape:bbox-paths="true"
     inkscape:bbox-nodes="false"
     inkscape:snap-global="true"
     inkscape:snap-bbox-edge-midpoints="true" />
  <defs
     id="defs2410">
    <linearGradient
       id="linearGradient3909">
      <stop
         id="stop3911"
         style="stop-color:#c6c3c6;stop-opacity:1"
         offset="0" />
      <stop
         id="stop3913"
         style="stop-color:#eae9ea;stop-opacity:1"
         offset="1" />
    </linearGradient>
    <linearGradient
       id="linearGradient3867">
      <stop
         id="stop3869"
         style="stop-color:#000000;stop-opacity:1"
         offset="0" />
      <stop
         id="stop3871"
         style="stop-color:#000000;stop-opacity:0"
         offset="1" />
    </linearGradient>
    <linearGradient
       id="linearGradient3844">
      <stop
         id="stop3846"
         style="stop-color:#0b700b;stop-opacity:1"
         offset="0" />
      <stop
         id="stop3848"
         style="stop-color:#28a528;stop-opacity:1"
         offset="1" />
    </linearGradient>
    <linearGradient
       x1="45.447727"
       y1="92.539597"
       x2="45.447727"
       y2="7.0165396"
       id="ButtonShadow"
       gradientUnits="userSpaceOnUse"
       gradientTransform="scale(1.0058652,0.994169)">
      <stop
         id="stop3750"
         style="stop-color:#000000;stop-opacity:1"
         offset="0" />
      <stop
         id="stop3752"
         style="stop-color:#000000;stop-opacity:0.58823532"
         offset="1" />
    </linearGradient>
    <linearGradient
       id="linearGradient3737">
      <stop
         id="stop3739"
         style="stop-color:#ffffff;stop-opacity:1"
         offset="0" />
      <stop
         id="stop3741"
         style="stop-color:#ffffff;stop-opacity:0"
         offset="1" />
    </linearGradient>
    <filter
       color-interpolation-filters="sRGB"
       id="filter3174">
      <feGaussianBlur
         id="feGaussianBlur3176"
         stdDeviation="1.71" />
    </filter>
    <filter
       x="-0.192"
       y="-0.192"
       width="1.3839999"
       height="1.3839999"
       color-interpolation-filters="sRGB"
       id="filter3794">
      <feGaussianBlur
         id="feGaussianBlur3796"
         stdDeviation="5.28" />
    </filter>
    <linearGradient
       x1="48"
       y1="20.220806"
       x2="48"
       y2="138.66119"
       id="linearGradient3613"
       xlink:href="#linearGradient3737"
       gradientUnits="userSpaceOnUse" />
    <clipPath
       id="clipPath3613">
      <rect
         width="84"
         height="84"
         rx="6"
         ry="6"
         x="6"
         y="6"
         id="rect3615"
         style="fill:#ffffff;fill-opacity:1;fill-rule:nonzero;stroke:none" />
    </clipPath>
    <linearGradient
       x1="45.447727"
       y1="92.539597"
       x2="45.447727"
       y2="7.0165396"
       id="ButtonShadow-0"
       gradientUnits="userSpaceOnUse"
       gradientTransform="matrix(1.0058652,0,0,0.994169,100,0)">
      <stop
         id="stop3750-8"
         style="stop-color:#000000;stop-opacity:1"
         offset="0" />
      <stop
         id="stop3752-5"
         style="stop-color:#000000;stop-opacity:0.58823532"
         offset="1" />
    </linearGradient>
    <linearGradient
       x1="32.251034"
       y1="6.1317081"
       x2="32.251034"
       y2="90.238609"
       id="linearGradient3780"
       xlink:href="#ButtonShadow-0"
       gradientUnits="userSpaceOnUse"
       gradientTransform="matrix(1.0238095,0,0,1.0119048,-1.1428571,-98.071429)" />
    <linearGradient
       x1="32.251034"
       y1="6.1317081"
       x2="32.251034"
       y2="90.238609"
       id="linearGradient3772"
       xlink:href="#ButtonShadow-0"
       gradientUnits="userSpaceOnUse"
       gradientTransform="matrix(1.0238095,0,0,1.0119048,-1.1428571,-98.071429)" />
    <linearGradient
       x1="32.251034"
       y1="6.1317081"
       x2="32.251034"
       y2="90.238609"
       id="linearGradient3725"
       xlink:href="#ButtonShadow-0"
       gradientUnits="userSpaceOnUse"
       gradientTransform="matrix(1.0238095,0,0,1.0119048,-1.1428571,-98.071429)" />
    <linearGradient
       x1="32.251034"
       y1="6.1317081"
       x2="32.251034"
       y2="90.238609"
       id="linearGradient3721"
       xlink:href="#ButtonShadow-0"
       gradientUnits="userSpaceOnUse"
       gradientTransform="translate(0,-97)" />
    <linearGradient
       x1="32.251034"
       y1="6.1317081"
       x2="32.251034"
       y2="90.238609"
       id="linearGradient3026"
       xlink:href="#ButtonShadow-0"
       gradientUnits="userSpaceOnUse"
       gradientTransform="matrix(1.0238095,0,0,1.0119048,-1.1428571,-98.071429)" />
    <linearGradient
       id="linearGradient854">
      <stop
         id="stop855"
         style="stop-color:#000000;stop-opacity:1"
         offset="0" />
      <stop
         id="stop877"
         style="stop-color:#f5f5f5;stop-opacity:1"
         offset="0.87778628" />
      <stop
         id="stop856"
         style="stop-color:#ffffff;stop-opacity:1"
         offset="1" />
    </linearGradient>
    <linearGradient
       x1="508.58997"
       y1="267.27991"
       x2="508.45602"
       y2="269.14072"
       id="linearGradient3776"
       xlink:href="#linearGradient854"
       gradientUnits="userSpaceOnUse"
       gradientTransform="matrix(0.80571178,0,0,3.2149984,-388.10346,-834.60928)" />
    <linearGradient
       x1="195.59776"
       y1="696.40906"
       x2="193.063"
       y2="694.71436"
       id="linearGradient3779"
       xlink:href="#linearGradient854"
       gradientUnits="userSpaceOnUse"
       gradientTransform="matrix(2.1044799,0,0,1.23088,-388.10346,-834.60928)" />
    <linearGradient
       x1="196.80382"
       y1="764.65295"
       x2="192.15778"
       y2="763.52991"
       id="linearGradient3782"
       xlink:href="#linearGradient854"
       gradientUnits="userSpaceOnUse"
       gradientTransform="matrix(2.3159568,0,0,1.1184848,-388.10346,-834.60928)" />
    <linearGradient
       x1="432.77563"
       y1="444.33771"
       x2="431.5174"
       y2="448.10916"
       id="linearGradient3785"
       xlink:href="#linearGradient854"
       gradientUnits="userSpaceOnUse"
       gradientTransform="matrix(1.4043897,0,0,1.8444751,-544.5943099999999,-797.7914799999997)" />
    <linearGradient
       x1="247.91669"
       y1="577.09601"
       x2="247.84926"
       y2="571.18286"
       id="linearGradient3788"
       xlink:href="#linearGradient854"
       gradientUnits="userSpaceOnUse"
       gradientTransform="matrix(1.7367898,0,0,1.4914657,-388.10346,-834.60928)" />
    <linearGradient
       x1="737.87024"
       y1="197.2177"
       x2="723.66583"
       y2="197.2661"
       id="linearGradient3791"
       xlink:href="#linearGradient854"
       gradientUnits="userSpaceOnUse"
       gradientTransform="matrix(0.5826671799999999,0,0,4.445698100000003,-388.10346,-834.60928)" />
    <linearGradient
       x1="279.12204"
       y1="547.95782"
       x2="275.03989"
       y2="543.9057"
       id="linearGradient3794"
       xlink:href="#linearGradient854"
       gradientUnits="userSpaceOnUse"
       gradientTransform="matrix(1.6002994,0,0,1.6186737,-388.10346,-834.60928)" />
    <radialGradient
       cx="48"
       cy="90.171875"
       r="42"
       fx="48"
       fy="90.171875"
       id="radialGradient3619-1"
       xlink:href="#linearGradient3737-9"
       gradientUnits="userSpaceOnUse"
       gradientTransform="matrix(1.1573129,0,0,0.9959077399999999,-7.551021000000003,0.1971319)" />
    <linearGradient
       id="linearGradient3737-9">
      <stop
         id="stop3739-7"
         style="stop-color:#ffffff;stop-opacity:1"
         offset="0" />
      <stop
         id="stop3741-0"
         style="stop-color:#ffffff;stop-opacity:0"
         offset="1" />
    </linearGradient>
    <linearGradient
       x1="36.357143"
       y1="6"
       x2="36.357143"
       y2="63.893143"
       id="linearGradient3188-2"
       xlink:href="#linearGradient3737-9"
       gradientUnits="userSpaceOnUse" />
    <linearGradient
       x1="48"
       y1="90"
       x2="48"
       y2="5.9877172"
       id="linearGradient2883"
       xlink:href="#linearGradient3844"
       gradientUnits="userSpaceOnUse" />
    <linearGradient
       x1="102.04063"
       y1="22.844667"
       x2="16.970562"
       y2="-62.225395"
       id="linearGradient3875"
       xlink:href="#linearGradient3867"
       gradientUnits="userSpaceOnUse" />
    <linearGradient
       x1="48"
       y1="80"
       x2="48"
       y2="15.501938"
       id="linearGradient3915"
       xlink:href="#linearGradient3909"
       gradientUnits="userSpaceOnUse" />
    <linearGradient
       x1="387.5567"
       y1="527.42371"
       x2="387.5567"
       y2="513.37085"
       id="linearGradient4031"
       xlink:href="#linearGradient3909"
       gradientUnits="userSpaceOnUse"
       gradientTransform="matrix(1.707836099999999,0,0,1.707836099999999,-605.8833399999997,-820.7532899999997)" />
    <linearGradient
       inkscape:collect="always"
       xlink:href="#linearGradient3909"
       id="linearGradient4226"
       gradientUnits="userSpaceOnUse"
       x1="48"
       y1="80"
       x2="48"
       y2="15.501938" />
  </defs>
  <metadata
     id="metadata2413">
    <rdf:RDF>
      <cc:Work
         rdf:about="">
        <dc:format>image/svg+xml</dc:format>
        <dc:type
           rdf:resource="http://purl.org/dc/dcmitype/StillImage" />
        <dc:title></dc:title>
      </cc:Work>
    </rdf:RDF>
  </metadata>
  <g
     id="layer2"
     style="display:none">
    <rect
       width="86"
       height="85"
       rx="6"
       ry="6"
       x="5"
       y="7"
       id="rect3745"
       style="opacity:0.9;fill:url(#ButtonShadow);fill-opacity:1;fill-rule:nonzero;stroke:none;filter:url(#filter3174)" />
  </g>
  <rect
     style="fill:url(#linearGradient2883);fill-opacity:1;fill-rule:nonzero;stroke:none"
     id="rect2419-4"
     y="6"
     x="6"
     ry="6"
     rx="6"
     height="84"
     width="84" />
  <path
     style="opacity:0.05;fill:#000000;fill-opacity:1;fill-rule:evenodd;stroke:none"
     id="rect3897"
     inkscape:connector-curvature="0"
     d="M 48,8 8,48 48,88 88,48 48,8 Z M 48,10.90625 85.0625,48 48,85.0625 10.90625,48 48,10.90625 Z" />
  <path
     style="opacity:0.1;fill:#000000;fill-opacity:1;fill-rule:evenodd;stroke:none"
     id="rect3890"
     inkscape:connector-curvature="0"
     d="M 48,8 8,48 48,88 88,48 48,8 Z M 48,9.9375 86.03125,48 48,86.03125 9.9375,48 48,9.9375 Z" />
  <path
     style="opacity:0.3199999641;fill:url(#linearGradient3188-2);fill-opacity:1;fill-rule:nonzero;stroke:none"
     id="rect3728-7"
     inkscape:connector-curvature="0"
     d="M 12,6 C 8.676,6 6,8.676 6,12 l 0,2 0,68 0,2 c 0,0.334721 0.04135,0.6507 0.09375,0.96875 0.0487,0.295596 0.09704,0.596915 0.1875,0.875 0.00988,0.03038 0.020892,0.0636 0.03125,0.09375 C 6.411365,86.225271 6.5473802,86.484952 6.6875,86.75 c 0.1445918,0.273507 0.3156161,0.53561500000001 0.5,0.78125 0.184383900000002,0.24563499999999 0.3737765,0.473472 0.59375,0.6875 0.439947,0.42805599999998 0.94291,0.814526 1.5,1.09375 0.278544999999999,0.13961199999999 0.573473099999999,0.24694700000001 0.875,0.34375 -0.256201799999999,-0.10022200000002 -0.4867109,-0.236272 -0.71875,-0.375 -0.00741,-0.0044 -0.023866,0.0045 -0.03125,0 -0.031933,-0.0193 -0.062293,-0.04251 -0.09375,-0.0625 -0.120395,-0.0767 -0.231022599999999,-0.16351299999999 -0.34375,-0.25 -0.1061728,-0.0808 -0.213280900000001,-0.16111200000002 -0.3125,-0.25 -0.177929900000001,-0.16143300000002 -0.347459600000001,-0.345388 -0.5,-0.53125 -0.107578900000002,-0.13025500000001 -0.218393899999998,-0.26528500000001 -0.3125,-0.40625 -0.025089,-0.03838 -0.038446,-0.08587 -0.0625,-0.125 -0.064763,-0.103032 -0.1302275,-0.204517 -0.1875,-0.3125 -0.1010083,-0.194706 -0.205674799999998,-0.415701 -0.28125,-0.625 -0.00796,-0.02181 -0.023589,-0.04055 -0.03125,-0.0625 -0.0318251,-0.09195 -0.0358045,-0.186831 -0.0625,-0.28125 -0.0303323,-0.106618 -0.0703894,-0.203031 -0.09375,-0.3125 C 7.0521214,85.720988 7,85.36429499999998 7,85 L 7,83 7,15 7,13 C 7,10.218152 9.218151699999998,8 12,8 l 2,0 68,0 2,0 c 2.781848,0 5,2.218152 5,5 l 0,2 0,68 0,2 c 0,0.36429499999998 -0.05212,0.72098800000001 -0.125,1.0625 -0.04415,0.20689299999999 -0.08838,0.39765800000001 -0.15625,0.59375 -0.0077,0.02195 -0.0233,0.04069 -0.03125,0.0625 -0.06274,0.17373899999998 -0.138383,0.36744899999999 -0.21875,0.53125 -0.04158,0.0828 -0.07904,0.169954 -0.125,0.25 -0.0546,0.09721 -0.126774,0.18834999999999 -0.1875,0.28125 -0.09411,0.14096499999999 -0.204921,0.27599499999999 -0.3125,0.40625 -0.14317400000002,0.17444999999999 -0.303141,0.34699799999999 -0.46875,0.5 -0.01117,0.0102 -0.01998,0.02115 -0.03125,0.03125 C 87.205364,88.844306 87.058659,88.953186 86.90625,89.0625 c -0.102571,0.07315 -0.20431800000001,0.153364 -0.3125,0.21875 -0.0074,0.0045 -0.02384,-0.0044 -0.03125,0 -0.23203900000001,0.138728 -0.462548,0.27477799999998 -0.71875,0.375 0.30152699999999,-0.0968 0.59645500000001,-0.20413800000001 0.875,-0.34375 0.55709,-0.279224 1.060053,-0.66569400000002 1.5,-1.09375 0.219973,-0.214028 0.40936600000001,-0.44186500000001 0.59375,-0.6875 0.18438399999999,-0.24563499999999 0.355408,-0.507743 0.5,-0.78125 0.14012,-0.26504799999999 0.276135,-0.52472899999999 0.375,-0.8125 0.01041,-0.03078 0.02133,-0.06274 0.03125,-0.09375 0.09046,-0.278085 0.1388,-0.579404 0.1875,-0.875 C 89.95865,84.6507 90,84.334721 90,84 l 0,-2 0,-68 0,-2 C 90,8.676 87.32399999999998,6 84,6 L 12,6 Z" />
  <path
     style="opacity:0.2;fill:url(#radialGradient3619-1);fill-opacity:1;fill-rule:nonzero;stroke:none"
     id="path3615-4"
     inkscape:connector-curvature="0"
     d="M 12,90 C 8.676,90 6,87.32399999999998 6,84 L 6,82 6,14 6,12 c 0,-0.334721 0.04135,-0.6507 0.09375,-0.96875 0.0487,-0.295596 0.09704,-0.596915 0.1875,-0.875 C 6.29113,10.12587 6.302142,10.09265 6.3125,10.0625 6.411365,9.774729 6.5473802,9.515048 6.6875,9.25 c 0.1445918,-0.273507 0.3156161,-0.535615 0.5,-0.78125 0.184383900000002,-0.245635000000002 0.3737765,-0.473472 0.59375,-0.6875 0.439947,-0.428055999999998 0.94291,-0.814525999999999 1.5,-1.09375 0.278544999999999,-0.139611999999998 0.573473099999999,-0.246946999999998 0.875,-0.34375 -0.256201799999999,0.100222 -0.4867109,0.236272 -0.71875,0.375 -0.00741,0.0044 -0.023866,-0.0045 -0.03125,0 -0.031933,0.0193 -0.062293,0.04251 -0.09375,0.0625 -0.120395,0.0767 -0.231022599999999,0.163513 -0.34375,0.25 -0.1061728,0.0808 -0.213280900000001,0.161112000000001 -0.3125,0.25 -0.177929900000001,0.161433 -0.347459600000001,0.345388 -0.5,0.53125 -0.107578900000002,0.130255 -0.218393899999998,0.265285 -0.3125,0.40625 -0.025089,0.03838 -0.038446,0.08587 -0.0625,0.125 C 7.716487,8.446782 7.6510225,8.548266999999999 7.59375,8.65625 7.4927417,8.850956 7.388075200000002,9.071951 7.3125,9.28125 c -0.00796,0.02181 -0.023589,0.04055 -0.03125,0.0625 -0.0318251,0.09195 -0.0358045,0.186831 -0.0625,0.28125 -0.0303323,0.106617999999999 -0.0703894,0.203030999999999 -0.09375,0.3125 C 7.0521214,10.279012 7,10.635705 7,11 l 0,2 0,68 0,2 c 0,2.781848 2.218151699999998,5 5,5 l 2,0 68,0 2,0 c 2.781848,0 5,-2.218152 5,-5 l 0,-2 0,-68 0,-2 c 0,-0.364295 -0.05212,-0.720988 -0.125,-1.0625 -0.04415,-0.206893000000001 -0.08838,-0.397658 -0.15625,-0.59375 -0.0077,-0.02195 -0.0233,-0.04069 -0.03125,-0.0625 -0.06274,-0.173738999999999 -0.138383,-0.367449000000001 -0.21875,-0.53125 -0.04158,-0.0828 -0.07904,-0.169954000000001 -0.125,-0.25 -0.0546,-0.09721 -0.126774,-0.18835 -0.1875,-0.28125 -0.09411,-0.140965 -0.204921,-0.275995 -0.3125,-0.40625 -0.14317400000002,-0.17445 -0.303141,-0.346998 -0.46875,-0.5 -0.01117,-0.0102 -0.01998,-0.02115 -0.03125,-0.03125 C 87.205364,7.155694000000002 87.058659,7.046814000000002 86.90625,6.9375 86.803679,6.86435 86.70193199999998,6.784136000000001 86.59375,6.71875 c -0.0074,-0.0045 -0.02384,0.0044 -0.03125,0 -0.23203900000001,-0.138728 -0.462548,-0.274778 -0.71875,-0.375 0.30152699999999,0.0968 0.59645500000001,0.204138000000002 0.875,0.34375 0.55709,0.279224000000001 1.060053,0.665694000000002 1.5,1.09375 0.219973,0.214028 0.40936600000001,0.441864999999998 0.59375,0.6875 0.18438399999999,0.245635 0.355408,0.507743 0.5,0.78125 0.14012,0.265048 0.276135,0.524729000000001 0.375,0.8125 0.01041,0.03078 0.02133,0.06274 0.03125,0.09375 0.09046,0.278085 0.1388,0.579404 0.1875,0.875 C 89.95865,11.3493 90,11.665279 90,12 l 0,2 0,68 0,2 c 0,3.32399999999998 -2.67600000000002,6 -6,6 l -72,0 z" />
  <path
     style="opacity:0.2;fill:#ffffff;fill-rule:evenodd;stroke:#000000;stroke-width:0"
     id="rect3854"
     inkscape:connector-curvature="0"
     d="M 8.5,48.5 8,49 48,89 88,49 87.5,48.5 48,88 8.5,48.5 Z" />
  <path
     style="opacity:0.15;fill:#000000;fill-opacity:1;fill-rule:evenodd;stroke:none"
     id="rect3886"
     inkscape:connector-curvature="0"
     d="M 48,8 8,48 48,88 88,48 48,8 Z M 48,9 86.96875,48 48,86.96875 9,48 48,9 Z" />
  <path
     style="opacity:0.2;fill:#000000;fill-opacity:1;fill-rule:evenodd;stroke:none"
     id="rect3877"
     inkscape:connector-curvature="0"
     d="M 48,8 8,48 8.5,48.5 48,9 87.5,48.5 88,48 48,8 Z" />
  <path
     inkscape:connector-curvature="0"
     style="fill:#000000;fill-rule:evenodd;stroke:none;fill-opacity:1"
     id="path3907"
     d="m 58.749630025,16.0000011925 c -1.024166525993,0.012324336882 -1.8520894361294,0.3262032940634 -2.42878260625,0.91473630625 -0.5766931701206,0.5885330121866 -0.8935659015192,1.4489867211248 -0.883193675,2.5234105 l 0.03154263125,2.649581025 -0.03154263125,0 c 0.08231365051,1.1826346866646 0.6449907893494,1.8810369920212 1.48250366875001,2.3341547125 0.84535160177779,0.4573590688472 1.99200750153339,0.6545797492494 3.12272049374999,0.6939378875 A 0.299775091027516,0.299775091027516 0 0 1 60.3267615875,25.4627905675 0.299775091027516,0.299775091027516 0 0 1 60.263676325,25.62050372375 L 40.86495810625,44.86150878625001 a 0.299775091027516,0.299775091027516 0 0 1 -0.53622473125,-0.22079841875 l 0,-19.68260190000001 a 0.299775091027516,0.299775091027516 0 0 1 0.0630852625,-0.15771315625 0.299775091027516,0.299775091027516 0 0 1 0.15771315625,-0.126170525 0.299775091027516,0.299775091027516 0 0 1 0.09462789375,0 c 0.8289090589598,0.028645755996 1.5220576236554,-0.2111357752634 2.0187284,-0.66239525625 0.4966707763446,-0.4512594809866 0.84119604936641,-1.1297288621216 0.883193675,-2.11335629375 l -0.03154263125,0 L 43.4829965,19.21734958 l 0.03154263125,0 c -0.057907224154,-1.2516439076544 -0.3785095562716,-1.9543723479722 -0.9462789375,-2.397239975 -0.5677693812284,-0.4428676270278 -1.4660621352962,-0.6530172534678 -2.80729418125,-0.6939378875 l 0,0.03154263125 -21.1335629375,0.126170525 0,-0.03154263125 c -1.0683776873172,0.091034557198 -1.9124352841906,0.3461735647604 -2.49186786875,0.8201084125 -0.5799281823816,0.4743396027838 -0.9647997612058,1.2047438001014 -1.10399209375,2.42878260625 l 0.03154263125,0 -0.03154263125,1.8294726125 -0.03154263125,0 c 0.06263104861,1.2566342042592 0.3298410426402,2.1710646731566 0.85165104375,2.77575155 0.5218100011098,0.6046868768434 1.3227960088408,0.9502023361454 2.61803839375,1.0093642 L 19.5736820125,25.147364255 a 0.299775091027516,0.299775091027516 0 0 1 0.3154263125,0.28388368125 l 0.0630852625,51.50911683125 -0.03154263125,0 c 0.114769756361,0.92538812665261 0.4449085614402,1.656735070133 0.97782156875,2.17644155624998 0.5391791402634,0.52581717698379 1.3089959814984,0.83504397456741 2.36569734375,0.85165104375001 l 4.920650475,0 0,0.03154263125 c 0.89687055991,-0.07817525729 1.7691338299882,-0.77998719491418 2.5234105,-1.54558893124998 L 82.40660346250001,25.17890688625 c 0.87886653067459,-0.897572068029 1.4620277065888,-1.5902058569826 1.387875775,-2.80729418125 a 0.299775091027516,0.299775091027516 0 0 1 -0.03154263125,-0.03154263125 l 0,-3.05963523125 C 83.77091058343,17.8621499522466 83.62202936392999,17.0355260938356 83.226711875,16.59931118625 82.83139438607001,16.1630962786644 82.109370939705,16.0042768592512 80.73484400625001,16.0000011925 l -21.98521398125001,0 z" />
  <path
     style="fill:#000000;fill-opacity:1;fill-rule:evenodd;stroke-width:0.375"
     id="path853"
     inkscape:connector-curvature="0"
     d="M 82.664899,16.280607 20.779302,78.593085 c 0.598749,0.720168 1.221483,1.334563 2.473354,1.354231 l 4.905134,0.05006 c 1.031214,-0.07485 1.926379,-0.81354900000001 2.70283,-1.601669 L 82.314535,25.340101 C 83.20247300000001,24.433284 83.84614399999999,23.651409 83.766058,22.336961 l 0,-3.053193 c 0.0097,-1.697449 -0.365539,-2.513671 -1.101159,-3.003158 z" />
  <path
     style="fill:#000000;fill-opacity:1;fill-rule:evenodd;stroke-width:0.375"
     id="path865"
     inkscape:connector-curvature="0"
     d="M 36.677436,52.704593 40.41624500000001,45.317797 40.313887,24.631373 l -3.733046,-1.190597 0.09656,29.263817 z" />
  <path
     style="fill:#000000;fill-opacity:1;fill-rule:evenodd;stroke-width:0.25"
     id="path874"
     inkscape:connector-curvature="0"
     d="m 42.613352,16.761242 -8.336363,5.898831 6.240089,2.096276 0.04876,0 c 1.697418,0.03798 2.936958,-0.969765 3.022535,-2.973785 l 0,-2.63253 c -0.05489,-1.185512 -0.409202,-1.890585 -0.975009,-2.388792 z" />
  <path
     style="fill:#000000;fill-opacity:1;fill-rule:evenodd;stroke-width:0.125"
     id="path903"
     inkscape:connector-curvature="0"
     d="m 68.180733,19.143451 -1.76034700000001,1.106502 1.30768600000002,0.502958 L 68.180733,19.143451 Z M 67.72807199999998,20.752911 62.094961,24.17301499999999 c -0.438129,-0.03155 -0.923057,-0.179054 -1.408277,-0.251479 l -0.352072,0.251479 c 0.417979,0.06179 0.781314,0.236655 1.207095,0.251475 l -4.27512699999999,4.224837 L 64.30796899999998,33.477707 l 3.420103,-12.724796 z" />
  <path
     style="fill:#000000;fill-opacity:1;fill-rule:evenodd;stroke-width:0.375"
     id="path880"
     inkscape:connector-curvature="0"
     d="m 61.412249,19.996238 -5.83158799999998,2.614475 c 0.422465,1.954995 2.40726799999998,2.420789 5.04308199999999,2.562372 L 66.29993799999998,21.720519 61.412249,19.996238 Z" />
  <path
     style="fill:#000000;fill-opacity:1;fill-rule:evenodd;stroke-width:0.375"
     id="path905"
     inkscape:connector-curvature="0"
     d="m 20.871473,20.127236 -5.6268,2.512076 c 0.422466,1.954995 1.588117,2.523183 4.633506,2.511176 l 5.471409,-5.910035 -4.478115,0.886783 z" />
  <path
     style="fill:#000000;fill-opacity:1;fill-rule:evenodd;stroke-width:0.125"
     id="path906"
     inkscape:connector-curvature="0"
     d="m 23.253363,21.051612 -3.455961,4.173619 0.180338,4.06104 c -0.03926,0.559608 0.855735,7.717699 1.686282,4.890312 0.830545,-2.827403 1.022119,-13.435855 1.589341,-13.124971 z" />
  <path
     style="fill:url(#linearGradient4226);fill-opacity:1;fill-rule:evenodd;stroke-width:0.25"
     id="path846"
     inkscape:connector-curvature="0"
     d="m 26.414891,78.571611 c 0.595371,-0.05246 1.400825,-0.78795700000002 2.101246,-1.575917 L 79.65966699999998,25.000986 C 80.21999999999998,24.388119 80.830212,23.676868 80.8127,23.064001 l -0.10235900000002,-4.15981 c 0,-0.542825 -0.41891199999999,-0.934712 -1.10182299999998,-0.899691 L 58.808833,17.9559 c -0.893026,-0.03509 -1.681002,0.507783 -1.575935,1.470854 l 0,2.176971 c 0.03509,1.31612099999998 1.049464,1.505893 1.767396,1.470855 l 2.53482,0.0031 c 0.665398,0.280176 0.91854899999999,0.669393 0.95357299999999,1.474878 -0.08225,1.658324 -0.11716899999999,1.62980599999999 -1.70150600000001,3.231604 L 36.89983,52.341077 36.797472,23.589678 l 2.755635,0 C 40.060909,23.537218 40.720963,22.967317 40.808518,22.336939 l 0,-3.23025 c -0.01753,-0.612836 -0.402749,-1.068087 -1.155672,-1.050577 L 18.077179,18.056112 c -0.787958,-0.03508 -1.31325500000001,0.665399 -1.260738,1.470853 l -0.05117,2.392432 c -0.0032,0.80548699999999 0.576509,1.44404099999999 1.311936,1.51407 l 3.39987199999999,0 -0.05246,54.087955 c -0.05246,0.56033499999999 0.05246,0.858001 0.47278000000001,1.050622 l 4.517672,-1.7e-5 z" />
  <path
     style="fill:url(#linearGradient3915);fill-opacity:1;fill-rule:evenodd;stroke-width:0.25"
     id="path2933"
     inkscape:connector-curvature="0"
     d="m 26.414891,78.571611 c 0.595371,-0.05246 1.400825,-0.78795700000002 2.101246,-1.575917 L 79.65966699999998,25.000986 C 80.21999999999998,24.388119 80.830212,23.676868 80.8127,23.064001 l -0.10235900000002,-4.15981 c 0,-0.542825 -0.41891199999999,-0.934712 -1.10182299999998,-0.899691 L 58.808833,17.9559 c -0.893026,-0.03509 -1.681002,0.507783 -1.575935,1.470854 l 0,2.176971 c 0.03509,1.31612099999998 1.049464,1.505893 1.767396,1.470855 l 2.53482,0.0031 c 0.665398,0.280176 0.91854899999999,0.669393 0.95357299999999,1.474878 -0.08225,1.658324 -0.11716899999999,1.62980599999999 -1.70150600000001,3.231604 L 36.89983,52.341077 36.797472,23.589678 l 2.755635,0 C 40.060909,23.537218 40.720963,22.967317 40.808518,22.336939 l 0,-3.23025 c -0.01753,-0.612836 -0.402749,-1.068087 -1.155672,-1.050577 L 18.077179,18.056112 c -0.787958,-0.03508 -1.31325500000001,0.665399 -1.260738,1.470853 l -0.05117,2.392432 c -0.0032,0.80548699999999 0.576509,1.44404099999999 1.311936,1.51407 l 3.39987199999999,0 -0.05246,54.087955 c -0.05246,0.56033499999999 0.05246,0.858001 0.47278000000001,1.050622 l 4.517672,-1.7e-5 z" />
  <path
     inkscape:connector-curvature="0"
     style="opacity:1;fill:#000000;fill-opacity:1;fill-rule:evenodd;stroke:none"
     id="path4068"
     d="m 49.46875,50.99997250595554 c -4.762044,-0.0917672398626 -7.400457,5.67686968978856 -4.9375,9.35591878248851 -0.232138,0.15483600645556 -0.580867,0.35006130096803 -0.9375,0.60950610960836 -0.392297,0.28538928950437 -0.794915,0.62782835086809 -1.09375,1.12758630277548 -0.28079,0.46958106061825 -0.401136,1.09860306825139 -0.25,1.73709241238385 0.0097,0.0410368273477 -0.01213,0.0808253861829 0,0.12190122192167 0.315821,2.8491953095557 -1.492711,5.55006316269672 -2.84375,8.44165961807592 a 0.7981473199999999,0.7783610686520763 0 0 0 -0.03125,0.0304753054805 c -0.387313,0.91219269489854 -1.175197,1.99167092424506 -1.75,3.19990707544393 -0.574803,1.20823615119886 -0.879336,2.69020003340817 -0.0625,4.14464154533694 a 0.7981473199999999,0.7783610686520763 0 0 0 0,0.0304753054804 c 0.784044,1.32546806871605 2.138049,1.79252138559653 3.375,1.88946893978596 1.236951,0.0969456037699 2.452194,-0.0879444175432 3.375,-0.0304753054803 0.777834,0.0700688223606 1.63310400000001,0.0647929374758 2.46875,-0.15237652740211 0.532485,-0.13838324233525 1.033944,-0.42779039611419 1.46875,-0.79235794249085 0.776718,0.72573258584708 1.711244,1.14358364393068 2.65625,1.21901221921672 1.181378,0.0942930331809 2.339984,-0.0601314347495 3.25,-0.0304753054803 0.05485,0.0138869872012 0.10167100000001,-0.0110101183641 0.15625,0 1.015614,0.20494813597291 1.967838,-0.0406662476331 2.75,-0.36570366576504 0.63125500000001,-0.26232460310702 1.02381900000001,-0.49435041370296 1.34375,-0.67045672056921 0.873027,0.72875476094103 1.907649,1.05876867455672 2.90625,1.09711099729508 1.153888,0.0443037800952 2.263096,-0.10670257757251 3.15625,-0.0609506109609 0.05427,0.0145988903374 0.10237499999999,-0.0114294585673 0.15625,0 1.00252,0.21268349991121 1.956819,-0.0923036052391 2.6875,-0.42665427672587 0.38497399999999,-0.17615701777457 0.72908700000001,-0.34239322650426 1,-0.4876048876867 0.128426,-0.0688400580436 0.12909199999999,-0.0802792687088 0.21875,-0.12190122192165 0.869266,0.72716029295827 1.913764,1.06357450832971 2.90625,1.09711099729505 1.176141,0.0397397983465 2.296184,-0.12143799727839 3.1875,-0.0609506109609 0.02052,0.002925629327 0.04195,-0.002633066393 0.0625,0 C 76.77384,82.1727255878963 79.025446,81.08924314721207 79.625,78.94582763149932 c 0.0026,-0.009264492866 -0.0025,-0.0211327958323 0,-0.0304753054803 0.0063,-0.0231709842628 0.02533,-0.0375358242541 0.03125,-0.0609506109609 C 79.961331,78.01918720377864 79.839886,77.17844130265325 79.53125,76.50780319306585 79.290963,75.98568075537981 78.931897,75.61539262846076 78.59375,75.22784036288827 c 0.85186699999998,-2.77909430527258 3.285442,-5.17821372492729 4.1875,-8.50261022903676 a 0.7981473199999999,0.7783610686520763 0 0 0 0,-0.0609506109608 c 0.40636499999999,-1.90808276876855 -0.350576,-3.83140221506743 -1.65625,-5.21127723715158 -1.29178400000001,-1.36519616454523 -3.17073200000002,-2.22702805143369 -5.15625,-2.01137016170763 l 0,-0.0304753054804 c -0.715431,0.0167541039409 -1.62502200000002,-0.10314988836079 -2.59375,0 -0.72973100000002,0.0777047149018 -1.457275,0.47321274182175 -2.0625,1.06663569181466 -1.05403099999999,-0.77750062156306 -2.350159,-1.14071750240088 -3.65625,-1.0056850808538 -0.0078,5.5977041105e-4 -0.02335,-5.0808429297e-4 -0.03125,0 -0.687309,0.0442647717042 -1.68321100000001,-0.1247039748161 -2.71875,-0.0609506109608 -0.87499200000001,0.0538705879916 -1.785575,0.49461274513255 -2.4375,1.27996283017759 -0.02768,0.009752097753 -0.0091,-0.006826468428 -0.03125,0 -0.166149,0.0511497527183 -0.22239,0.0596243256662 -0.21875,0.0609506109609 0.0041,0.001462814663 -0.04631,-0.0204208926963 -0.15625,-0.15237652740209 C 61.842627,60.33578343808561 61.414761,59.62048754725451 60.5,59.44163212403147 a 0.7981473199999999,0.7783610686520763 0 0 0 -0.03125,0 c -1.800467,-0.28282156216581 -3.763756,-0.32358435556663 -5.65625,0 0.171584,-0.32170707674906 0.371197,-0.63127961826313 0.5,-1.00568508085381 0.133898,-0.38921402302972 0.181138,-0.84660496145578 0.0625,-1.31043813565801 l 0.03125,0 C 55.47217,53.97600457410611 52.869936,50.96403212489392 49.5,50.99997250595553 c -0.01078,1.150747535e-4 -0.02046,-1.7651296933e-4 -0.03125,0 z m 1.34375,18.58993634305529 0.03125,0 c -0.189637,0.39357028509635 -0.389824,0.74897573563341 -0.53125,1.15806160825593 -0.274803,0.37569859075283 -0.515122,0.78542030014884 -0.71875,1.24948752469714 -0.248224,0.56570066170839 -0.485484,1.15439286908095 -0.71875,1.67614180142303 -0.06461,0.14452121266146 -0.122509,0.17702495447466 -0.1875,0.30475305480418 0.103121,-0.39987696671366 0.29171500000001,-0.81431284016385 0.53125,-1.27996283017761 0.114317,-0.22222885319253 0.244882,-0.47341656066476 0.375,-0.7009320260496 0.441953,-0.77276695331342 0.904209,-1.56572660023569 1.21875,-2.40754913295308 z" />
  <path
     style="fill:url(#linearGradient4031);fill-opacity:1;fill-rule:evenodd;stroke:none"
     id="path866"
     inkscape:connector-curvature="0"
     d="m 53.00655625423429,56.24493524950776 c 0,2.12159355194718 -1.58231014665001,3.84148697481306 -3.53416186861808,3.84148697481306 -1.95186880032906,0 -3.53416186861807,-1.71989342286588 -3.53416186861807,-3.84148697481306 0,-2.12157647358594 1.58229306828901,-3.84146989645182 3.53416186861807,-3.84146989645182 1.95185172196796,0 3.53416186861808,1.71989342286588 3.53416186861808,3.84146989645182 z M 39.60513222081227,76.62334794553828 c 5.94309884438996,-10.79241405853497 5.06805486183305,-11.70392034182703 5.03157548273702,-12.90712503099905 -0.08505023778,-1.60427291889607 0.26737881981592,-2.22411495303004 2.04180344935515,-2.18766973065624 l 2.69810778422379,-0.0729246014697 c 1.64073521963098,-0.0729246014699 2.18765265229524,0.5104380535679 1.75012212183617,1.75010504347484 -0.70043481969299,1.89071118958815 -5.99003018041822,10.48462783659304 -4.98887958023715,12.22062615388222 l 1.06362324471899,1.32511002998989 c 0.44859730838721,0.94135925832008 -0.59811835894186,2.29524632659481 -1.18078080117903,2.30848205636994 l -5.03007258696903,0.04252511889 c -1.22750719687497,0.0136626888001 -1.94457634018181,-1.25180970457801 -1.38551619284681,-2.47933397981376 z M 59.99435551935528,61.01299162201519 c -1.85392439999395,-0.33557271528923 -3.74432817908393,-0.23361490011916 -5.45242045449902,-0.0222018693 -0.66842997117896,-0.04867332885 -0.92996799153297,1.03554641923506 -0.68689167942,1.78907786327716 l 0.70917894052502,1.41834080268881 c 0.09136923135,1.14430142208299 0.66498014225704,2.34943596604796 -5.01487284567895,12.66382670019321 -0.559077225696,1.22750719687498 0.19081652745308,2.49426046732789 1.41834080268893,2.48210067429592 l 5.01487284567907,-0.0505519485599 c 0.58266244223694,-0.0136626888001 1.6136489390849,-1.33808958434996 1.16506870905891,-2.27948299939169 l -1.06375987160686,-1.31703196523699 c -0.48367626188099,-0.8387183087101 0.54688327594204,-3.31453414615804 1.772938812132,-5.82536062365624 1.77247769638484,-2.32723409674817 3.81897769501506,-2.45894241678036 5.11618168313089,-2.48210067429613 0.38691026845492,0.08829512637 0.54396287621102,0.53200802351091 0.65852452179899,1.01310545288095 -0.65584321912206,1.79987138742909 -1.497123281982,3.91106421752704 -4.001784471159,8.45942455413001 -0.559060147335,1.22750719687508 0.14021334381005,2.49426046732776 1.36770346232402,2.48210067429602 l 5.06552726440498,-0.0505519485599 c 0.58266244223694,-0.0136626888001 1.61366601744601,-1.33808958435009 1.1650687090589,-2.27948299939216 L 66.1642720761863,75.69717135014741 c -0.49067838989106,-0.85086102338096 0.57291069810596,-3.37763869005312 1.82359323085804,-5.92666946110796 1.63914693205811,-2.34911147718924 3.62477965208393,-2.38079183684431 4.86289251113999,-2.38079183684431 0.49424776733997,0.15199741290017 0.60764808437987,0.77621150745028 0.60787010307274,1.41834080268927 -0.68436408199182,1.80600251902797 -1.36616640983391,3.7280354226899 -3.74849529916798,8.05418920432203 -0.559060147335,1.22750719687495 0.14021334381005,2.49427754568897 1.36770346232402,2.48210067429568 l 5.01485576731795,-0.0505519485599 c 0.58266244223694,-0.0136626888001 1.66435459289403,-1.3380725059892 1.21574020614594,-2.27948299939203 l -1.06375987160686,-1.31701488687611 c -1.00116767854206,-1.7360153956497 3.02408246063099,-6.79466008057193 4.19852718987897,-9.96155179588483 0.72922893633893,-2.26057725376504 -1.772921733771,-4.23806359559408 -3.15843792661816,-4.67561120441403 l -3.8150155152631,-0.0587495618399 c -0.68808716468992,0.15695013759 -0.83219437480794,0.55333889639973 -1.02145677140993,1.27443853290276 l -2.61013714671286,-0.0222018693001 c 0.05140586661,-0.66749066132399 -0.12262263197999,-1.10836855053901 -0.61425741008702,-1.15699064430589 l -3.99730994057677,-0.0587495618397 c -1.28950164730485,-0.02647145955 -1.16196044735693,0.43727435504399 -1.32734729528112,1.22989816741505 l -3.89263666600778,0.001605365934 c 0.21467499776975,-0.41869309827632 0.21059326949092,-0.98325247785306 -0.0136626888,-1.25607929482806 z" />
</svg>
