<svg xmlns="http://www.w3.org/2000/svg" fill="#3F51B5" viewBox="0 0 48 48"><g fill="#ea2d2e"><path d="m15.587 14.48c0 0 3.376 3.378-3.203 8.57-5.276 4.167-1.203 6.542-.002 9.257-3.08-2.778-5.339-5.225-3.823-7.501 2.225-3.341 8.39-4.961 7.03-10.326m-1.741 15.537c1.568 1.805-.411 3.429-.411 3.429 0 0 3.98-2.054 2.152-4.628-1.707-2.399-3.02-3.591 4.07-7.7 0 0-11.124 2.778-5.811 8.899" fill-rule="evenodd" stroke-width="4.311"/><path d="m12 4c-2.21 0-3.98 1.79-3.98 4l-.01 16.213c2.501-2.958 7.857-4.696 6.578-9.732 0 0 1.33 1.361.646 3.674.522-1.02.727-2.203.354-3.674 0 0 1.311 1.313.705 3.561.252-.525.426-1.09.473-1.719.012-.573-.033-1.178-.178-1.842 0 0 .911.928.854 2.549.061 1.337-.382 3.155-2.117 5.338 1.71-.842 3.334-1.25 3.334-1.25-.466.27-.804.496-1.199.742.093-.035.145-.049.234-.082 1.105-.43 1.965-.66 1.965-.66-.514.298-.895.551-1.324.82 1.268-.522 2.324-.82 2.324-.82-2.01 1.166-3.328 2.092-4.17 2.883h15.512v4h-15.996c.18.261.379.53.584.818.882 1.242.402 2.354-.32 3.182h15.732v4h-7.355c-.165.207-.366.41-.602.611-.059.051-.12.102-.184.152-.138.108-.283.214-.443.318-.173.114-.361.225-.563.334-.101.054-.202.108-.311.16-.273.134-.573.263-.895.387-.456.174-.951.338-1.508.484 0 0 .093-.085.121-.16.379-.197.723-.393 1.035-.588.002-.001.004-.003.006-.004.31-.194.589-.386.838-.576.004-.003.006-.005.01-.008.247-.189.463-.376.654-.561.16-.155.29-.307.414-.457.026-.031.062-.063.086-.094h-4.988l-.197 1.215c.23.162.542.35.928.486-.349.102-.7.183-1.051.268l-.449 2.77c.273.135.545.273.91.416l3.805 1.088c0 0 .01.012.012.014l.002-.008c-.003-.002-.006-.002-.01-.004l.01.002v.002c.811.373.778.838.082 1.295 1.761-.58.902-1.303.902-1.303 1.109.5.668 1.166-.854 1.76h.432 2.402.059 1.076 9.625c2.21 0 4-1.79 4-4v-24l-12-12h-16m14 3l11 11h-11v-11m-10.03 33.41c-.762.131-1.427.22-2.051.271.611-.052 1.292-.141 2.051-.271"/></g><path d="m8.668 32.366c0 0-5.905 1.403-2.091 1.913 1.611.216 4.821.166 7.812-.085 2.444-.205 4.897-.644 4.897-.644 0 0-.861.369-1.485.795-5.998 1.578-17.583.843-14.247-.77 2.82-1.364 5.113-1.209 5.113-1.209m10.594 5.921c6.097-3.167 3.278-6.211 1.31-5.801-.481.1-.697.187-.697.187 0 0 .179-.281.521-.402 3.893-1.368 6.886 4.04-1.255 6.176 0 0 .094-.085.122-.16m-9.995 8.585c5.851.374 14.838-.208 15.05-2.977 0 0-.409 1.05-4.836 1.882-4.994.94-11.156.831-14.809.228 0 0 .748.619 4.594.867m-1.629-5.904c.011.016.021.031.033.047-.012-.016-.023-.031-.033-.047m-.346-4.917c0 0-1.392 1.031.735 1.251 2.751.284 4.923.307 8.683-.416 0 0 .519.527 1.336.815-7.69 2.249-16.256.177-10.753-1.649m.778 3.557c0 0-1.241.722.884.966 2.575.294 3.891.252 6.728-.285 0 0 .747.468 1.789.872-6.362 2.726-14.397-.158-9.401-1.554m14.189 2.632c0 0 .919.757-1.012 1.343-3.671 1.112-15.282 1.447-18.507.044-1.159-.505 1.015-1.204 1.699-1.352.713-.154 1.12-.126 1.12-.126-1.289-.908-8.334 1.783-3.578 2.555 12.969 2.102 23.641-.947 20.278-2.465" fill="#0074bd" fill-rule="evenodd" stroke-width="4.311"/></svg>