<svg xmlns="http://www.w3.org/2000/svg" viewBox="0 0 48 48" fill="#F44336"><path d="m10 6c-2.21 0-4 1.79-4 4v28c0 2.21 1.79 4 4 4h28c2.21 0 4-1.79 4-4v-28c0-2.21-1.79-4-4-4h-28m13.96875 10a.700611 .498501 0 0 1 .640625 .253906l7.295 8.998a.700611 .498501 0 0 1 -.609375 .75h-14.592a.700611 .498501 0 0 1 -.703125 -.515625 .700611 .498501 0 0 1 .09375 -.234375l7.297-8.998a.700611 .498501 0 0 1 .515625 -.25 .700611 .498501 0 0 1 .0625 -.003906m-6.969 12h13.998c.554 0 1 .444 1 .998v2c0 .554-.446 1-1 1h-13.998c-.554 0-1-.446-1-1v-2c0-.554.446-.998 1-.998" fill="#F44336"/></svg>