<?xml version="1.0" encoding="UTF-8" standalone="no"?>
<svg
   xmlns:dc="http://purl.org/dc/elements/1.1/"
   xmlns:cc="http://creativecommons.org/ns#"
   xmlns:rdf="http://www.w3.org/1999/02/22-rdf-syntax-ns#"
   xmlns:svg="http://www.w3.org/2000/svg"
   xmlns="http://www.w3.org/2000/svg"
   xmlns:sodipodi="http://sodipodi.sourceforge.net/DTD/sodipodi-0.dtd"
   xmlns:inkscape="http://www.inkscape.org/namespaces/inkscape"
   width="48"
   height="48"
   viewBox="0 0 48 48"
   id="svg2"
   version="1.1"
   inkscape:version="0.91 r13725"
   sodipodi:docname="folder-templates.svg"
   style="fill:#4caf50">
  <metadata
     id="metadata10">
    <rdf:RDF>
      <cc:Work
         rdf:about="">
        <dc:format>image/svg+xml</dc:format>
        <dc:type
           rdf:resource="http://purl.org/dc/dcmitype/StillImage" />
        <dc:title></dc:title>
      </cc:Work>
    </rdf:RDF>
  </metadata>
  <defs
     id="defs8" />
  <sodipodi:namedview
     pagecolor="#ffffff"
     bordercolor="#666666"
     borderopacity="1"
     objecttolerance="10"
     gridtolerance="10"
     guidetolerance="10"
     inkscape:pageopacity="0"
     inkscape:pageshadow="2"
     inkscape:window-width="1366"
     inkscape:window-height="713"
     id="namedview6"
     showgrid="false"
     inkscape:snap-intersection-paths="false"
     inkscape:zoom="5.491911049139335"
     inkscape:cx="-3.577293845870599"
     inkscape:cy="5.765909010275777"
     inkscape:window-x="0"
     inkscape:window-y="30"
     inkscape:window-maximized="1"
     inkscape:current-layer="svg2"
     fit-margin-top="0"
     fit-margin-left="0"
     fit-margin-right="0"
     fit-margin-bottom="0"
     inkscape:snap-bbox="true"
     inkscape:bbox-nodes="true" />
  <path
     id="path4144"
     style="fill:#4caf50;fill-opacity:1"
     d="M 12,31.33333333333332 C 12,32.80666666666665 13.3425,33.99999999999998 15.00000000000001,34 l 27.00000000000001,0 c 1.65749999999997,0 3,-1.19333333333333 3,-2.66666666666668 l 0,-10.66666666666666 c 0,-1.47333333333332 -1.34250000000003,-2.66666666666667 -3,-2.66666666666667 l -27.00000000000001,0 C 13.34250000000001,17.99999999999999 12,19.19333333333334 12,20.66666666666666 l 0,10.66666666666666 z m 3.00000000000001,0 0,-10.66666666666666 27.00000000000001,0 0,10.66666666666666 -3.00000000000005,0 0,-5.33333333333332 -3,0 0,5.33333333333332 -2.99999999999994,0 0,-5.33333333333332 -3.00000000000001,0 0,5.33333333333332 -3,0 0,-5.33333333333332 -3,0 0,5.33333333333332 -3,0 0,-5.33333333333332 -3.00000000000001,0 0,5.33333333333332 -3.00000000000001,0 z M 4,12 4,40 c 0,2.21 1.79,4 4,4 l 28,0 0,-4 -28,0 0,-28 -4,0 z" />
</svg>
