<?xml version="1.0" encoding="UTF-8" standalone="no"?>
<svg
   xmlns:dc="http://purl.org/dc/elements/1.1/"
   xmlns:cc="http://creativecommons.org/ns#"
   xmlns:rdf="http://www.w3.org/1999/02/22-rdf-syntax-ns#"
   xmlns:svg="http://www.w3.org/2000/svg"
   xmlns="http://www.w3.org/2000/svg"
   xmlns:sodipodi="http://sodipodi.sourceforge.net/DTD/sodipodi-0.dtd"
   xmlns:inkscape="http://www.inkscape.org/namespaces/inkscape"
   fill="#009688"
   width="48"
   height="48"
   viewBox="0 0 48 48"
   id="svg2"
   version="1.1"
   inkscape:version="0.91 r13725"
   sodipodi:docname="folder-go-collection.svg">
  <metadata
     id="metadata10">
    <rdf:RDF>
      <cc:Work
         rdf:about="">
        <dc:format>image/svg+xml</dc:format>
        <dc:type
           rdf:resource="http://purl.org/dc/dcmitype/StillImage" />
        <dc:title></dc:title>
      </cc:Work>
    </rdf:RDF>
  </metadata>
  <defs
     id="defs8">
    <clipPath
       id="clipPath5456"
       clipPathUnits="userSpaceOnUse">
      <g
         id="g5458">
        <rect
           style="opacity:1;fill:#ffffff;fill-opacity:1;fill-rule:evenodd;stroke:#ffffff;stroke-width:2;stroke-miterlimit:4;stroke-dasharray:none;stroke-opacity:1"
           id="rect5460"
           width="500.20587"
           height="314.11032"
           x="-35.559658"
           y="-105.49365" />
      </g>
    </clipPath>
    <clipPath
       id="clipPath5450"
       clipPathUnits="userSpaceOnUse">
      <g
         id="g5452">
        <rect
           style="opacity:1;fill:#ffffff;fill-opacity:1;fill-rule:evenodd;stroke:#ffffff;stroke-width:2;stroke-miterlimit:4;stroke-dasharray:none;stroke-opacity:1"
           id="rect5454"
           width="500.20587"
           height="314.11032"
           x="-35.559658"
           y="-105.49365" />
      </g>
    </clipPath>
    <clipPath
       id="clipPath5444"
       clipPathUnits="userSpaceOnUse">
      <g
         id="g5446">
        <rect
           style="opacity:1;fill:#ffffff;fill-opacity:1;fill-rule:evenodd;stroke:#ffffff;stroke-width:2;stroke-miterlimit:4;stroke-dasharray:none;stroke-opacity:1"
           id="rect5448"
           width="500.20587"
           height="314.11032"
           x="-35.559658"
           y="-105.49365" />
      </g>
    </clipPath>
    <clipPath
       id="clipPath5438"
       clipPathUnits="userSpaceOnUse">
      <g
         id="g5440">
        <rect
           style="opacity:1;fill:#ffffff;fill-opacity:1;fill-rule:evenodd;stroke:#ffffff;stroke-width:2;stroke-miterlimit:4;stroke-dasharray:none;stroke-opacity:1"
           id="rect5442"
           width="500.20587"
           height="314.11032"
           x="-35.559658"
           y="-105.49365" />
      </g>
    </clipPath>
    <clipPath
       id="clipPath5432"
       clipPathUnits="userSpaceOnUse">
      <g
         id="g5434">
        <rect
           style="opacity:1;fill:#ffffff;fill-opacity:1;fill-rule:evenodd;stroke:#ffffff;stroke-width:2;stroke-miterlimit:4;stroke-dasharray:none;stroke-opacity:1"
           id="rect5436"
           width="500.20587"
           height="314.11032"
           x="-35.559658"
           y="-105.49365" />
      </g>
    </clipPath>
    <clipPath
       id="clipPath5426"
       clipPathUnits="userSpaceOnUse">
      <g
         id="g5428">
        <rect
           style="opacity:1;fill:#ffffff;fill-opacity:1;fill-rule:evenodd;stroke:#ffffff;stroke-width:2;stroke-miterlimit:4;stroke-dasharray:none;stroke-opacity:1"
           id="rect5430"
           width="500.20587"
           height="314.11032"
           x="-35.559658"
           y="-105.49365" />
      </g>
    </clipPath>
    <clipPath
       id="clipPath5420"
       clipPathUnits="userSpaceOnUse">
      <g
         id="g5422">
        <rect
           style="opacity:1;fill:#ffffff;fill-opacity:1;fill-rule:evenodd;stroke:#ffffff;stroke-width:2;stroke-miterlimit:4;stroke-dasharray:none;stroke-opacity:1"
           id="rect5424"
           width="500.20587"
           height="314.11032"
           x="-35.559658"
           y="-105.49365" />
      </g>
    </clipPath>
    <clipPath
       id="clipPath5414"
       clipPathUnits="userSpaceOnUse">
      <g
         id="g5416">
        <rect
           style="opacity:1;fill:#ffffff;fill-opacity:1;fill-rule:evenodd;stroke:#ffffff;stroke-width:2;stroke-miterlimit:4;stroke-dasharray:none;stroke-opacity:1"
           id="rect5418"
           width="500.20587"
           height="314.11032"
           x="-35.559658"
           y="-105.49365" />
      </g>
    </clipPath>
    <clipPath
       id="clipPath5408"
       clipPathUnits="userSpaceOnUse">
      <g
         id="g5410">
        <rect
           style="opacity:1;fill:#ffffff;fill-opacity:1;fill-rule:evenodd;stroke:#ffffff;stroke-width:2;stroke-miterlimit:4;stroke-dasharray:none;stroke-opacity:1"
           id="rect5412"
           width="500.20587"
           height="314.11032"
           x="-35.559658"
           y="-105.49365" />
      </g>
    </clipPath>
    <clipPath
       id="clipPath5402"
       clipPathUnits="userSpaceOnUse">
      <g
         id="g5404">
        <rect
           style="opacity:1;fill:#ffffff;fill-opacity:1;fill-rule:evenodd;stroke:#ffffff;stroke-width:2;stroke-miterlimit:4;stroke-dasharray:none;stroke-opacity:1"
           id="rect5406"
           width="500.20587"
           height="314.11032"
           x="-35.559658"
           y="-105.49365" />
      </g>
    </clipPath>
    <clipPath
       id="clipPath5396"
       clipPathUnits="userSpaceOnUse">
      <g
         id="g5398">
        <rect
           style="opacity:1;fill:#ffffff;fill-opacity:1;fill-rule:evenodd;stroke:#ffffff;stroke-width:2;stroke-miterlimit:4;stroke-dasharray:none;stroke-opacity:1"
           id="rect5400"
           width="500.20587"
           height="314.11032"
           x="-35.559658"
           y="-105.49365" />
      </g>
    </clipPath>
    <clipPath
       id="clipPath5390"
       clipPathUnits="userSpaceOnUse">
      <g
         id="g5392">
        <rect
           style="opacity:1;fill:#ffffff;fill-opacity:1;fill-rule:evenodd;stroke:#ffffff;stroke-width:2;stroke-miterlimit:4;stroke-dasharray:none;stroke-opacity:1"
           id="rect5394"
           width="500.20587"
           height="314.11032"
           x="-35.559658"
           y="-105.49365" />
      </g>
    </clipPath>
    <clipPath
       id="clipPath5384"
       clipPathUnits="userSpaceOnUse">
      <g
         id="g5386">
        <rect
           style="opacity:1;fill:#ffffff;fill-opacity:1;fill-rule:evenodd;stroke:#ffffff;stroke-width:2;stroke-miterlimit:4;stroke-dasharray:none;stroke-opacity:1"
           id="rect5388"
           width="500.20587"
           height="314.11032"
           x="-35.559658"
           y="-105.49365" />
      </g>
    </clipPath>
    <clipPath
       id="clipPath5378"
       clipPathUnits="userSpaceOnUse">
      <g
         id="g5380">
        <rect
           style="opacity:1;fill:#ffffff;fill-opacity:1;fill-rule:evenodd;stroke:#ffffff;stroke-width:2;stroke-miterlimit:4;stroke-dasharray:none;stroke-opacity:1"
           id="rect5382"
           width="500.20587"
           height="314.11032"
           x="-35.559658"
           y="-105.49365" />
      </g>
    </clipPath>
    <clipPath
       id="clipPath5372"
       clipPathUnits="userSpaceOnUse">
      <g
         id="g5374">
        <rect
           style="opacity:1;fill:#ffffff;fill-opacity:1;fill-rule:evenodd;stroke:#ffffff;stroke-width:2;stroke-miterlimit:4;stroke-dasharray:none;stroke-opacity:1"
           id="rect5376"
           width="500.20587"
           height="314.11032"
           x="-35.559658"
           y="-105.49365" />
      </g>
    </clipPath>
    <clipPath
       id="clipPath5366"
       clipPathUnits="userSpaceOnUse">
      <g
         id="g5368">
        <rect
           style="opacity:1;fill:#ffffff;fill-opacity:1;fill-rule:evenodd;stroke:#ffffff;stroke-width:2;stroke-miterlimit:4;stroke-dasharray:none;stroke-opacity:1"
           id="rect5370"
           width="500.20587"
           height="314.11032"
           x="-35.559658"
           y="-105.49365" />
      </g>
    </clipPath>
    <clipPath
       id="clipPath5360"
       clipPathUnits="userSpaceOnUse">
      <g
         id="g5362">
        <rect
           style="opacity:1;fill:#ffffff;fill-opacity:1;fill-rule:evenodd;stroke:#ffffff;stroke-width:2;stroke-miterlimit:4;stroke-dasharray:none;stroke-opacity:1"
           id="rect5364"
           width="500.20587"
           height="314.11032"
           x="-35.559658"
           y="-105.49365" />
      </g>
    </clipPath>
    <clipPath
       id="clipPath5354"
       clipPathUnits="userSpaceOnUse">
      <g
         id="g5356">
        <rect
           style="opacity:1;fill:#ffffff;fill-opacity:1;fill-rule:evenodd;stroke:#ffffff;stroke-width:2;stroke-miterlimit:4;stroke-dasharray:none;stroke-opacity:1"
           id="rect5358"
           width="500.20587"
           height="314.11032"
           x="-35.559658"
           y="-105.49365" />
      </g>
    </clipPath>
    <clipPath
       id="clipPath5348"
       clipPathUnits="userSpaceOnUse">
      <g
         id="g5350">
        <rect
           style="opacity:1;fill:#ffffff;fill-opacity:1;fill-rule:evenodd;stroke:#ffffff;stroke-width:2;stroke-miterlimit:4;stroke-dasharray:none;stroke-opacity:1"
           id="rect5352"
           width="500.20587"
           height="314.11032"
           x="-35.559658"
           y="-105.49365" />
      </g>
    </clipPath>
    <clipPath
       id="clipPath5342"
       clipPathUnits="userSpaceOnUse">
      <g
         id="g5344">
        <rect
           style="opacity:1;fill:#ffffff;fill-opacity:1;fill-rule:evenodd;stroke:#ffffff;stroke-width:2;stroke-miterlimit:4;stroke-dasharray:none;stroke-opacity:1"
           id="rect5346"
           width="500.20587"
           height="314.11032"
           x="-35.559658"
           y="-105.49365" />
      </g>
    </clipPath>
    <clipPath
       id="clipPath5336"
       clipPathUnits="userSpaceOnUse">
      <g
         id="g5338">
        <rect
           style="opacity:1;fill:#ffffff;fill-opacity:1;fill-rule:evenodd;stroke:#ffffff;stroke-width:2;stroke-miterlimit:4;stroke-dasharray:none;stroke-opacity:1"
           id="rect5340"
           width="500.20587"
           height="314.11032"
           x="-35.559658"
           y="-105.49365" />
      </g>
    </clipPath>
  </defs>
  <sodipodi:namedview
     pagecolor="#ffffff"
     bordercolor="#666666"
     borderopacity="1"
     objecttolerance="10"
     gridtolerance="10"
     guidetolerance="10"
     inkscape:pageopacity="0"
     inkscape:pageshadow="2"
     inkscape:window-width="1366"
     inkscape:window-height="713"
     id="namedview6"
     showgrid="false"
     inkscape:zoom="9.8333333"
     inkscape:cx="-1.4114793"
     inkscape:cy="20.844225"
     inkscape:window-x="0"
     inkscape:window-y="30"
     inkscape:window-maximized="1"
     inkscape:current-layer="svg2" />
  <path
     d="m 8,12 -4,0 0,28 c 0,2.21 1.79,4 4,4 l 28,0 0,-4 -28,0 0,-28 z"
     id="path4146" />
  <path
     d="M 40,4 16,4 c -2.21,0 -4,1.79 -4,4 l 0,24 c 0,2.21 1.79,4 4,4 l 24,0 c 2.21,0 4,-1.79 4,-4 L 44,8 C 44,5.79 42.21,4 40,4 Z"
     id="path4144" />
  <path
     transform="translate(-408.00683,-161.49519)"
     inkscape:connector-curvature="0"
     d="m 10.634,300.493 c 0.764,15.751 16.499,8.463 23.626,3.539 6.765,-4.675 8.743,-0.789 9.337,-10.015 0.389,-6.064 1.088,-12.128 0.744,-18.216 -10.23,-0.927 -21.357,1.509 -29.744,7.602 -4.32,3.139 -12.42,13.158 -3.963,17.09"
     id="path3"
     style="clip-rule:evenodd;fill:#ffffff;fill-opacity:1;fill-rule:evenodd;stroke:#000000;stroke-width:3;stroke-linecap:round"
     clip-path="url(#clipPath5456)" />
  <path
     transform="translate(-408.00683,-161.49519)"
     inkscape:connector-curvature="0"
     style="clip-rule:evenodd;fill:#c6b198;fill-rule:evenodd;stroke:#000000;stroke-width:3;stroke-linecap:round"
     d="m 10.634,300.493 c 2.29,-0.852 4.717,-1.457 6.271,-3.528"
     id="path5"
     clip-path="url(#clipPath5450)" />
  <path
     transform="translate(-408.00683,-161.49519)"
     inkscape:connector-curvature="0"
     d="m 325.161,494.343 c 12.123,7.501 34.282,30.182 16.096,41.18 -17.474,15.999 -27.254,-17.561 -42.591,-22.211 6.605,-8.97 14.977,-17.149 26.495,-18.969 z"
     id="path11"
     style="clip-rule:evenodd;fill:#ffffff;fill-opacity:1;fill-rule:evenodd;stroke:#000000;stroke-width:3;stroke-linecap:round"
     clip-path="url(#clipPath5432)" />
  <path
     transform="translate(-408.00683,-161.49519)"
     inkscape:connector-curvature="0"
     style="clip-rule:evenodd;fill:none;fill-rule:evenodd;stroke:#000000;stroke-width:3;stroke-linecap:round"
     d="m 341.257,535.522 c -2.696,-5.361 -3.601,-11.618 -8.102,-15.939"
     id="path13"
     clip-path="url(#clipPath5426)" />
  <path
     transform="translate(-408.00683,-161.49519)"
     inkscape:connector-curvature="0"
     d="m 108.579,519.975 c -14.229,2.202 -22.238,15.039 -34.1,21.558 -11.178,6.665 -15.454,-2.134 -16.461,-3.92 -1.752,-0.799 -1.605,0.744 -4.309,-1.979 -10.362,-16.354 10.797,-28.308 21.815,-36.432 15.346,-3.102 24.963,10.202 33.055,20.773 z"
     id="path15"
     style="clip-rule:evenodd;fill:#ffffff;fill-opacity:1;fill-rule:evenodd;stroke:#000000;stroke-width:3;stroke-linecap:round"
     clip-path="url(#clipPath5420)" />
  <path
     transform="translate(-408.00683,-161.49519)"
     inkscape:connector-curvature="0"
     style="clip-rule:evenodd;fill:none;fill-rule:evenodd;stroke:#000000;stroke-width:3;stroke-linecap:round"
     d="m 58.019,537.612 c 0.542,-6.233 5.484,-10.407 7.838,-15.677"
     id="path17"
     clip-path="url(#clipPath5414)" />
  <path
     transform="translate(-408.00683,-161.49519)"
     inkscape:connector-curvature="0"
     d="m 392.475,298.493 c -0.764,15.751 -16.499,8.463 -23.626,3.539 -6.765,-4.675 -8.743,-0.789 -9.337,-10.015 -0.389,-6.064 -1.088,-12.128 -0.744,-18.216 10.23,-0.927 21.357,1.509 29.744,7.602 4.319,3.139 12.42,13.158 3.963,17.09"
     id="path23"
     style="clip-rule:evenodd;fill:#ffffff;fill-opacity:1;fill-rule:evenodd;stroke:#000000;stroke-width:3;stroke-linecap:round"
     clip-path="url(#clipPath5396)" />
  <path
     transform="translate(-408.00683,-161.49519)"
     inkscape:connector-curvature="0"
     style="clip-rule:evenodd;fill:#c6b198;fill-rule:evenodd;stroke:#000000;stroke-width:3;stroke-linecap:round"
     d="m 392.475,298.493 c -2.29,-0.852 -4.717,-1.457 -6.271,-3.528"
     id="path25"
     clip-path="url(#clipPath5390)" />
  <g
     id="g4789"
     transform="translate(11.260574,56.609047)">
    <path
       clip-path="url(#clipPath5444)"
       style="clip-rule:evenodd;fill:#ffffff;fill-opacity:1;fill-rule:evenodd;stroke:none;stroke-width:3;stroke-linecap:round"
       id="path7"
       d="M 46.997,112.853 C -13.3,95.897 31.536,19.189 79.956,50.74 l -32.959,62.113 z"
       inkscape:connector-curvature="0"
       transform="matrix(0.07518467,0,0,0.07518467,1.915758,-44.992453)" />
    <path
       clip-path="url(#clipPath5438)"
       style="clip-rule:evenodd;fill:#ffffff;fill-opacity:1;fill-rule:evenodd;stroke:none;stroke-width:3;stroke-linecap:round"
       id="path9"
       d="m 314.895,44.984 c 47.727,-33.523 90.856,42.111 35.388,61.141 L 314.895,44.984 Z"
       inkscape:connector-curvature="0"
       transform="matrix(0.07518467,0,0,0.07518467,1.915758,-44.992453)" />
    <path
       clip-path="url(#clipPath5408)"
       id="path19"
       d="M 49.513,91.667 C 41.558,87.459 35.722,81.744 40.588,72.543 45.093,64.025 53.462,64.95 61.418,69.158 L 49.513,91.667 Z"
       style="clip-rule:evenodd;fill:#009688;fill-opacity:1;fill-rule:evenodd;stroke:#009688;stroke-width:13.96561337;stroke-miterlimit:4;stroke-dasharray:none;stroke-opacity:1"
       inkscape:connector-curvature="0"
       transform="matrix(0.07518467,0,0,0.07518467,1.915758,-44.992453)" />
    <path
       clip-path="url(#clipPath5402)"
       id="path21"
       d="m 337.716,83.667 c 7.955,-4.208 13.791,-9.923 8.925,-19.124 -4.505,-8.518 -12.874,-7.593 -20.83,-3.385 l 11.905,22.509 z"
       style="clip-rule:evenodd;fill:#009688;fill-opacity:1;fill-rule:evenodd;stroke:#009688;stroke-width:13.96561337;stroke-miterlimit:4;stroke-dasharray:none;stroke-opacity:1"
       inkscape:connector-curvature="0"
       transform="matrix(0.07518467,0,0,0.07518467,1.915758,-44.992453)" />
    <g
       clip-path="url(#clipPath5384)"
       style="fill:#ffffff;fill-opacity:1;stroke:none"
       id="g27"
       transform="matrix(0.07518467,0,0,0.07518467,1.915758,-44.992453)">
      <path
         style="clip-rule:evenodd;fill:#ffffff;fill-opacity:1;fill-rule:evenodd;stroke:none;stroke-width:3;stroke-linecap:round"
         id="path29"
         d="m 195.512,13.124 c 60.365,0 116.953,8.633 146.452,66.629 26.478,65.006 17.062,135.104 21.1,203.806 3.468,58.992 11.157,127.145 -16.21,181.812 -28.79,57.514 -100.73,71.982 -160,69.863 C 140.299,533.568 84.06,518.38 57.785,475.845 26.959,425.945 41.553,351.747 43.792,296.223 46.444,230.452 25.977,164.481 47.584,100.122 69.999,33.359 130.451,18.271 195.512,13.124"
         inkscape:connector-curvature="0" />
    </g>
    <path
       clip-path="url(#clipPath5378)"
       id="path31"
       d="m 206.169,94.16 c 10.838,63.003 113.822,46.345 99.03,-17.197 -13.264,-56.98 -102.632,-41.208 -99.03,17.197"
       style="clip-rule:evenodd;fill:#ffffff;fill-rule:evenodd;stroke:#009688;stroke-width:13.96561337;stroke-linecap:round;stroke-miterlimit:4;stroke-dasharray:none;stroke-opacity:1"
       inkscape:connector-curvature="0"
       transform="matrix(0.07518467,0,0,0.07518467,1.915758,-44.992453)" />
    <path
       clip-path="url(#clipPath5372)"
       id="path33"
       d="M 83.103,104.35 C 97.15,159.2 184.967,145.157 181.657,90.137 177.691,24.242 69.673,36.957 83.103,104.35"
       style="clip-rule:evenodd;fill:#ffffff;fill-rule:evenodd;stroke:#009688;stroke-width:13.96561337;stroke-linecap:round;stroke-miterlimit:4;stroke-dasharray:none;stroke-opacity:1"
       inkscape:connector-curvature="0"
       transform="matrix(0.07518467,0,0,0.07518467,1.915758,-44.992453)" />
    <path
       clip-path="url(#clipPath5366)"
       id="path35"
       d="m 218.594,169.762 c 0.046,8.191 1.861,17.387 0.312,26.101 -2.091,3.952 -6.193,4.37 -9.729,5.967 -4.89,-0.767 -9.002,-3.978 -10.963,-8.552 -1.255,-9.946 0.468,-19.576 0.785,-29.526 l 19.595,6.01 z"
       style="clip-rule:evenodd;fill:#ffffff;fill-rule:evenodd;stroke:#009688;stroke-width:13.96561337;stroke-linecap:round;stroke-miterlimit:4;stroke-dasharray:none;stroke-opacity:1"
       inkscape:connector-curvature="0"
       transform="matrix(0.07518467,0,0,0.07518467,1.915758,-44.992453)" />
    <ellipse
       style="clip-rule:evenodd;fill:#009688;fill-opacity:1;fill-rule:evenodd"
       cx="9.9848785"
       cy="-37.819534"
       rx="1.1149135"
       ry="1.2076162"
       id="ellipse39" />
    <ellipse
       style="clip-rule:evenodd;fill:#ffffff;fill-rule:evenodd"
       cx="10.491999"
       cy="-37.546989"
       rx="0.26284561"
       ry="0.30690381"
       id="ellipse41" />
    <ellipse
       style="clip-rule:evenodd;fill:#009688;fill-opacity:1;fill-rule:evenodd"
       cx="19.326347"
       cy="-38.120274"
       rx="1.0963428"
       ry="1.2076162"
       id="ellipse45" />
    <ellipse
       style="clip-rule:evenodd;fill:#ffffff;fill-rule:evenodd"
       cx="19.825047"
       cy="-37.847729"
       rx="0.2584849"
       ry="0.30690381"
       id="ellipse47" />
    <path
       clip-path="url(#clipPath5348)"
       id="path49"
       d="m 176.217,168.87 c -6.47,15.68 3.608,47.035 21.163,23.908 -1.255,-9.946 0.468,-19.576 0.785,-29.526 l -21.948,5.618 z"
       style="clip-rule:evenodd;fill:#ffffff;fill-rule:evenodd;stroke:#009688;stroke-width:13.96561337;stroke-linecap:round;stroke-miterlimit:4;stroke-dasharray:none;stroke-opacity:1"
       inkscape:connector-curvature="0"
       transform="matrix(0.07518467,0,0,0.07518467,1.915758,-44.992453)" />
    <path
       clip-path="url(#clipPath5342)"
       d="m 178.431,138.673 c -12.059,1.028 -21.916,15.366 -15.646,26.709 8.303,15.024 26.836,-1.329 38.379,0.203 13.285,0.272 24.17,14.047 34.84,2.49 11.867,-12.854 -5.109,-25.373 -18.377,-30.97 l -39.196,1.568 z"
       id="path53"
       style="clip-rule:evenodd;fill:#ffffff;fill-opacity:1;fill-rule:evenodd;stroke:#009688;stroke-width:13.96561337;stroke-linecap:round;stroke-miterlimit:4;stroke-dasharray:none;stroke-opacity:1"
       inkscape:connector-curvature="0"
       transform="matrix(0.07518467,0,0,0.07518467,1.915758,-44.992453)" />
    <path
       clip-path="url(#clipPath5336)"
       d="m 176.913,138.045 c -0.893,-20.891 38.938,-23.503 43.642,-6.016 4.692,17.446 -41.681,21.498 -43.642,6.016 -1.565,-12.363 0,0 0,0 z"
       id="path55"
       style="clip-rule:evenodd;fill:#ffffff;fill-opacity:1;fill-rule:evenodd;stroke:#009688;stroke-width:13.96561337;stroke-miterlimit:4;stroke-dasharray:none;stroke-opacity:1"
       inkscape:connector-curvature="0"
       transform="matrix(0.07518467,0,0,0.07518467,1.915758,-44.992453)" />
    <path
       inkscape:connector-curvature="0"
       inkscape:connector-type="polyline"
       id="path5462"
       d="m 4.762273,-29.212365 24.454788,-5.26e-4"
       style="fill:none;fill-rule:evenodd;stroke:none;stroke-width:0.18744062;stroke-linecap:butt;stroke-linejoin:miter;stroke-miterlimit:4;stroke-dasharray:none;stroke-opacity:1" />
  </g>
</svg>
