<?xml version="1.0" encoding="UTF-8" standalone="no"?>
<svg
   xmlns:dc="http://purl.org/dc/elements/1.1/"
   xmlns:cc="http://creativecommons.org/ns#"
   xmlns:rdf="http://www.w3.org/1999/02/22-rdf-syntax-ns#"
   xmlns:svg="http://www.w3.org/2000/svg"
   xmlns="http://www.w3.org/2000/svg"
   xmlns:sodipodi="http://sodipodi.sourceforge.net/DTD/sodipodi-0.dtd"
   xmlns:inkscape="http://www.inkscape.org/namespaces/inkscape"
   fill="#2196F3"
   width="48"
   height="48"
   viewBox="0 0 48 48"
   id="svg2"
   version="1.1"
   inkscape:version="0.91 r13725"
   sodipodi:docname="network-wired-disconnected.svg">
  <metadata
     id="metadata10">
    <rdf:RDF>
      <cc:Work
         rdf:about="">
        <dc:format>image/svg+xml</dc:format>
        <dc:type
           rdf:resource="http://purl.org/dc/dcmitype/StillImage" />
      </cc:Work>
    </rdf:RDF>
  </metadata>
  <defs
     id="defs8" />
  <sodipodi:namedview
     pagecolor="#ffffff"
     bordercolor="#666666"
     borderopacity="1"
     objecttolerance="10"
     gridtolerance="10"
     guidetolerance="10"
     inkscape:pageopacity="0"
     inkscape:pageshadow="2"
     inkscape:window-width="1366"
     inkscape:window-height="713"
     id="namedview6"
     showgrid="false"
     inkscape:snap-bbox="true"
     inkscape:bbox-nodes="true"
     inkscape:zoom="5.512044273741684"
     inkscape:cx="16.964912053604"
     inkscape:cy="36.68048783194997"
     inkscape:window-x="0"
     inkscape:window-y="30"
     inkscape:window-maximized="1"
     inkscape:current-layer="svg2" />
  <path
     d="M 18 6 L 13.4375 10.55078125 L 20 17.11328125 L 20 13.98046875 L 26 13.98046875 L 18 6 z M 10.60546875 13.375 L 10 13.98046875 L 11.2109375 13.98046875 L 10.60546875 13.375 z M 16 18.76953125 L 16 28 L 20 28 L 20 22.76953125 L 16 18.76953125 z M 28 20 L 28 25.11328125 L 32 29.11328125 L 32 20 L 28 20 z M 28 30.76953125 L 28 34.01953125 L 22 34.01953125 L 30 42 L 34.62109375 37.390625 L 28 30.76953125 z M 36.90625 34.01953125 L 37.453125 34.56640625 L 38 34.01953125 L 36.90625 34.01953125 z "
     id="path4" />
  <rect
     style="opacity:1;fill:#2196F3;fill-opacity:1;fill-rule:nonzero;stroke:none;stroke-width:4;stroke-miterlimit:4;stroke-dasharray:none;stroke-opacity:1"
     id="rect4138"
     width="44"
     height="4"
     x="-55.94112396240234"
     y="0.7867972850799561"
     transform="matrix(-0.7071067811865475,-0.7071067811865474,-0.7071067811865474,0.7071067811865475,0,0)" />
</svg>
