<?xml version="1.0" encoding="UTF-8" standalone="no"?>
<svg
   xmlns:dc="http://purl.org/dc/elements/1.1/"
   xmlns:cc="http://creativecommons.org/ns#"
   xmlns:rdf="http://www.w3.org/1999/02/22-rdf-syntax-ns#"
   xmlns:svg="http://www.w3.org/2000/svg"
   xmlns="http://www.w3.org/2000/svg"
   xmlns:sodipodi="http://sodipodi.sourceforge.net/DTD/sodipodi-0.dtd"
   xmlns:inkscape="http://www.inkscape.org/namespaces/inkscape"
   fill="#263238"
   width="48"
   height="48"
   viewBox="0 0 48 48"
   id="svg2"
   version="1.1"
   inkscape:version="0.91 r13725"
   sodipodi:docname="image-x-ai.svg">
  <metadata
     id="metadata10">
    <rdf:RDF>
      <cc:Work
         rdf:about="">
        <dc:format>image/svg+xml</dc:format>
        <dc:type
           rdf:resource="http://purl.org/dc/dcmitype/StillImage" />
        <dc:title></dc:title>
      </cc:Work>
    </rdf:RDF>
  </metadata>
  <defs
     id="defs8" />
  <sodipodi:namedview
     pagecolor="#ffffff"
     bordercolor="#666666"
     borderopacity="1"
     objecttolerance="10"
     gridtolerance="10"
     guidetolerance="10"
     inkscape:pageopacity="0"
     inkscape:pageshadow="2"
     inkscape:window-width="1366"
     inkscape:window-height="713"
     id="namedview6"
     showgrid="false"
     inkscape:zoom="4.9166667"
     inkscape:cx="-23.59322"
     inkscape:cy="24"
     inkscape:window-x="0"
     inkscape:window-y="30"
     inkscape:window-maximized="1"
     inkscape:current-layer="svg2" />
  <path
     d="M9.19 13.77c1.4-1.43 2.8-2.71 3.43-2.45.99.41-.02 2.08-.6 3.05-.5.84-5.72 7.77-5.72 12.62 0 2.56.95 4.68 2.69 5.96 1.5 1.11 3.47 1.45 5.28.92 2.14-.63 3.9-2.79 6.12-5.53 2.42-2.98 5.66-6.88 8.16-6.88 3.26 0 3.3 2.02 3.52 3.59-7.58 1.3-10.77 7.35-10.77 10.76S24.18 42 27.71 42c3.25 0 8.59-2.66 9.38-12.2H42v-5h-4.94c-.3-3.3-2.18-8.39-8.06-8.39-4.5 0-8.37 3.82-9.87 5.69-1.16 1.45-4.11 4.95-4.57 5.45-.51.59-1.35 1.68-2.23 1.68-.89 0-1.43-1.67-.73-3.85.7-2.19 2.8-5.72 3.7-7.03 1.57-2.28 2.59-3.85 2.59-6.56 0-4.4-3.28-5.78-5.02-5.78-2.64 0-4.94 2-5.45 2.51-.71.72-1.31 1.31-1.75 1.85l3.52 3.4zm18.58 23.34c-.62 0-1.47-.52-1.47-1.45 0-1.2 1.45-4.4 5.75-5.53-.62 5.39-2.88 6.98-4.28 6.98z"
     id="path4"
     style="fill:#ff741b;fill-opacity:1" />
</svg>
