<svg xmlns="http://www.w3.org/2000/svg" fill="#263238" viewBox="0 0 48 48"><path d="m12 4c-2.21 0-3.98 1.79-3.98 4l-.02 32c0 2.21 1.77 4 3.98 4h24.02c2.21 0 4-1.79 4-4v-24l-12-12h-16m14 3l11 11h-11v-11m-9.145 17h14.289c.474 0 .855.226.855.508v2.984c0 .282-.382.508-.855.508h-14.289c-.474 0-.855-.226-.855-.508v-2.984c0-.282.382-.508.855-.508m0 5h14.289c.474 0 .855.226.855.508v2.984c0 .282-.382.508-.855.508h-14.289c-.474 0-.855-.226-.855-.508v-2.984c0-.282.382-.508.855-.508m0 5h14.289c.474 0 .855.226.855.508v2.984c0 .282-.382.508-.855.508h-14.289c-.474 0-.855-.226-.855-.508v-2.984c0-.282.382-.508.855-.508" fill="#8e03a3"/></svg>