<?xml version="1.0" encoding="UTF-8" standalone="no"?>
<svg
   xmlns:dc="http://purl.org/dc/elements/1.1/"
   xmlns:cc="http://creativecommons.org/ns#"
   xmlns:rdf="http://www.w3.org/1999/02/22-rdf-syntax-ns#"
   xmlns:svg="http://www.w3.org/2000/svg"
   xmlns="http://www.w3.org/2000/svg"
   xmlns:sodipodi="http://sodipodi.sourceforge.net/DTD/sodipodi-0.dtd"
   xmlns:inkscape="http://www.inkscape.org/namespaces/inkscape"
   fill="#673AB7"
   width="48"
   height="48"
   viewBox="0 0 48 48"
   id="svg2"
   version="1.1"
   inkscape:version="0.91 r13725"
   sodipodi:docname="modem.svg">
  <metadata
     id="metadata10">
    <rdf:RDF>
      <cc:Work
         rdf:about="">
        <dc:format>image/svg+xml</dc:format>
        <dc:type
           rdf:resource="http://purl.org/dc/dcmitype/StillImage" />
      </cc:Work>
    </rdf:RDF>
  </metadata>
  <defs
     id="defs8" />
  <sodipodi:namedview
     pagecolor="#ffffff"
     bordercolor="#666666"
     borderopacity="1"
     objecttolerance="10"
     gridtolerance="10"
     guidetolerance="10"
     inkscape:pageopacity="0"
     inkscape:pageshadow="2"
     inkscape:window-width="1366"
     inkscape:window-height="713"
     id="namedview6"
     showgrid="false"
     inkscape:snap-bbox="true"
     inkscape:bbox-nodes="true"
     inkscape:snap-page="true"
     inkscape:zoom="3.795750125125504"
     inkscape:cx="-10.13000863183255"
     inkscape:cy="-2.876643251249575"
     inkscape:window-x="0"
     inkscape:window-y="30"
     inkscape:window-maximized="1"
     inkscape:current-layer="svg2" />
  <path
     d="m 24,4 c -3.21,0 -6.3,0.5 -9.2,1.44 l 0,6.21 c 0,0.79 -0.46,1.47 -1.12,1.8 -1.95,0.98 -3.74,2.23 -5.33,3.7 C 7.990000000000001,17.5 7.5,17.72 6.950000000000001,17.72 6.400000000000003,17.72 5.900000000000003,17.5 5.54,17.13 L 0.5899999999999997,12.18 C 0.22,11.81 0,11.31 0,10.76 0,10.21 0.22,9.71 0.5899999999999997,9.339999999999989 6.68,3.550000000000001 14.93,0 24,0 33.07,0 41.32,3.550000000000001 47.41,9.339999999999999 47.78,9.699999999999999 48,10.21 48,10.76 c 0,0.55 -0.22,1.05 -0.59,1.41 l -4.95,4.95 c -0.36,0.36 -0.86,0.59 -1.41,0.59 -0.54,0 -1.04,-0.22 -1.4,-0.57 -1.59,-1.47 -3.38,-2.72 -5.33,-3.7 -0.65999999999999,-0.33 -1.12,-1.01000000000001 -1.12,-1.8 l 0,-6.210000000000013 C 30.3,4.5 27.21,4 24,4 Z"
     id="path4"
     inkscape:connector-curvature="0" />
  <g
     style="fill:#673AB7"
     id="g4148"
     transform="matrix(0.9,0,0,0.9,2.400000000000003,8.399999999999998)">
    <path
       id="path4140"
       d="M 24,4 C 12.95,4 4,12.95 4,24 4,35.05 12.95,44 24,44 35.05,44 44,35.05 44,24 44,12.95 35.05,4 24,4 Z M 22,39.86 C 14.11,38.88 8,32.16 8,24 8,22.77 8.15,21.57 8.419999999999998,20.42 L 18,30 l 0,2 c 0,2.21 1.79,4 4,4 l 0,3.86 z M 35.79,34.79 C 35.28,33.17 33.78,32 32,32 l -2,0 0,-6 c 0,-1.1 -0.9,-2 -2,-2 l -12,0 0,-4 4,0 c 1.1,0 2,-0.9 2,-2 l 0,-4 4,0 c 2.21,0 4,-1.79 4,-4 L 30,9.169999999999998 C 35.86,11.54 40,17.28 40,24 c 0,4.16 -1.6,7.94 -4.21,10.79 z"
       inkscape:connector-curvature="0" />
  </g>
</svg>
