<?xml version="1.0" encoding="UTF-8" standalone="no"?>
<svg
   xmlns:dc="http://purl.org/dc/elements/1.1/"
   xmlns:cc="http://creativecommons.org/ns#"
   xmlns:rdf="http://www.w3.org/1999/02/22-rdf-syntax-ns#"
   xmlns:svg="http://www.w3.org/2000/svg"
   xmlns="http://www.w3.org/2000/svg"
   xmlns:xlink="http://www.w3.org/1999/xlink"
   xmlns:sodipodi="http://sodipodi.sourceforge.net/DTD/sodipodi-0.dtd"
   xmlns:inkscape="http://www.inkscape.org/namespaces/inkscape"
   width="36"
   height="36"
   viewBox="0 0 36 36"
   id="svg2"
   version="1.1"
   inkscape:version="0.91 r13725"
   sodipodi:docname="AdobeAIR.svg"
   style="fill:#4caf50">
  <metadata
     id="metadata10">
    <rdf:RDF>
      <cc:Work
         rdf:about="">
        <dc:format>image/svg+xml</dc:format>
        <dc:type
           rdf:resource="http://purl.org/dc/dcmitype/StillImage" />
        <dc:title></dc:title>
      </cc:Work>
    </rdf:RDF>
  </metadata>
  <defs
     id="defs8">
    <linearGradient
       gradientTransform="scale(1.0058652,0.9941689999999997)"
       gradientUnits="userSpaceOnUse"
       id="ButtonShadow"
       y2="7.016539573669434"
       x2="45.44772720336914"
       y1="92.53959655761719"
       x1="45.44772720336914">
      <stop
         offset="0"
         style="stop-color:#000000;stop-opacity:1"
         id="stop3750" />
      <stop
         offset="1"
         style="stop-color:#000000;stop-opacity:0.58823532"
         id="stop3752" />
    </linearGradient>
    <filter
       id="filter3174"
       style="color-interpolation-filters:sRGB">
      <feGaussianBlur
         id="feGaussianBlur3176"
         stdDeviation="1.71" />
    </filter>
    <filter
       id="filter3174-1"
       style="color-interpolation-filters:sRGB">
      <feGaussianBlur
         stdDeviation="1.71"
         id="feGaussianBlur3176-9" />
    </filter>
    <linearGradient
       gradientTransform="scale(1.0058652,0.9941689999999997)"
       gradientUnits="userSpaceOnUse"
       xlink:href="#ButtonShadow"
       id="linearGradient2964-0"
       y2="7.016539573669434"
       x2="45.44772720336914"
       y1="92.53959655761719"
       x1="45.44772720336914" />
    <filter
       id="filter3174-3"
       style="color-interpolation-filters:sRGB">
      <feGaussianBlur
         stdDeviation="1.71"
         id="feGaussianBlur3176-7" />
    </filter>
    <linearGradient
       inkscape:collect="always"
       xlink:href="#ButtonShadow"
       id="linearGradient4258"
       gradientUnits="userSpaceOnUse"
       gradientTransform="scale(1.0058652,0.9941689999999997)"
       x1="45.44772720336914"
       y1="92.53959655761719"
       x2="45.44772720336914"
       y2="7.016539573669434" />
    <linearGradient
       inkscape:collect="always"
       xlink:href="#ButtonShadow"
       id="linearGradient4150"
       gradientUnits="userSpaceOnUse"
       gradientTransform="scale(1.0058652,0.9941689999999997)"
       x1="45.44772720336914"
       y1="92.53959655761719"
       x2="45.44772720336914"
       y2="7.016539573669434" />
  </defs>
  <sodipodi:namedview
     pagecolor="#ffffff"
     bordercolor="#666666"
     borderopacity="1"
     objecttolerance="10"
     gridtolerance="10"
     guidetolerance="10"
     inkscape:pageopacity="0"
     inkscape:pageshadow="2"
     inkscape:window-width="1366"
     inkscape:window-height="713"
     id="namedview6"
     showgrid="false"
     inkscape:zoom="10.78685877611556"
     inkscape:cx="-32.98255057539443"
     inkscape:cy="4.150797375449704"
     inkscape:window-x="0"
     inkscape:window-y="30"
     inkscape:window-maximized="1"
     inkscape:current-layer="svg2"
     inkscape:snap-bbox="true"
     inkscape:bbox-paths="true"
     inkscape:bbox-nodes="true"
     fit-margin-top="0"
     fit-margin-left="0"
     fit-margin-right="0"
     fit-margin-bottom="0" />
  <g
     id="layer2"
     style="display:none"
     transform="translate(91.171924,-35.544574)">
    <rect
       width="86"
       height="85"
       rx="6"
       ry="6"
       x="5"
       y="7"
       id="rect3745"
       style="opacity:0.9;fill:url(#linearGradient4150);fill-opacity:1;fill-rule:nonzero;stroke:none;filter:url(#filter3174)" />
  </g>
  <g
     id="layer2-4"
     style="display:none"
     transform="translate(-115.5807442840713,-62.19803734971197)">
    <rect
       width="86"
       height="85"
       rx="6"
       ry="6"
       x="5"
       y="7"
       id="rect3745-4"
       style="opacity:0.9;fill:url(#linearGradient2964-0);fill-opacity:1;fill-rule:nonzero;stroke:none;filter:url(#filter3174-1)" />
  </g>
  <path
     style="opacity:1;fill:#d41818;fill-opacity:1;fill-rule:nonzero;stroke:none"
     d="M 4,0 C 1.79,0 0,1.79 0,4 l 0,28 c 0,2.21 1.79,4 4,4 l 28,0 c 2.21,0 4,-1.79 4,-4 L 36,4 C 36,1.79 34.21,0 32,0 L 4,0 Z m 17.689453125,6.28125 c 0.28217233044807,0.0191007976069 0.5679527892057,0.0646426130346 0.8515625,0.140625 2.22530541751527,0.59660695723014 3.59725512423625,2.787685936863539 3.21875,5.015625 -0.0177163991854,0.11994369042769 -0.087890625,0.41015625 -0.087890625,0.41015625 -0.45032837474543,1.76324627291242 -0.49899340376782,3.57180823243381 -0.08984375,5.302734375 0.0196313156823,0.081159299389 0.038519665224,0.1622251700611 0.060546875,0.2421875 0.0210679918534,0.0794836985743 0.0448970532077,0.1590368671079 0.068359375,0.23828125 0.51113802036661,1.70483056619145 1.45821077774949,3.24524666675153 2.728515625,4.548828125 0.12209792260694,0.12521059063137 0.2323103742362,0.2550051053971 0.30078125,0.34765625 1.41299095723015,1.73906600407331 1.31858037932791,4.29565891547861 -0.30078125,5.9140625 -1.59542224032586,1.5954183299389 -4.08609798879837,1.69874280677189 -5.8359375,0.365234375 -0.12904120570263,-0.0912136863544 -0.26585619908351,-0.20506883528514 -0.42578125,-0.365234375 -1.30166575967414,-1.27102435845215 -2.84276277189409,-2.21885170723013 -4.546875,-2.73046875 C 17.5508966540224,25.688193907332 17.4713060590631,25.6641243571792 17.390625,25.642578125 17.3101836476579,25.6207917950611 17.2271650430244,25.6021423701629 17.146484375,25.58203125 15.41483989434827,25.17312091191446 13.60675695723014,25.22373945697556 11.84375,25.673828125 9.48102380855397,26.3073041657332 7.053637231415501,24.90449758095723 6.419921875,22.54296875 5.78716417235235,20.18096089663952 7.189730659368641,17.74970588696538 9.55078125,17.1171875 11.48903532739308,16.59790961812627 13.21828284928717,15.58360537270876 14.578125,14.15625 c 1.19704452953157,-1.28466808961303 2.04552742642568,-2.85545217133401 2.533203125,-4.583984375 7.1833808551e-4,-0.003112276986 0.0631042973523,-0.2091379875254 0.09375,-0.291015625 0.64918690020366,-1.92011887576375 2.50916868686354,-3.13370558324847 4.484375,-3 z m -2.302734375,8.533203125 c -2.01184625560081,-0.12064557204686 -3.89905537423625,1.18231261787169 -4.44140625,3.205078125 -0.61935094093684,2.31149230142569 0.75296043253565,4.68924280906313 3.064453125,5.30859375 2.31245034623218,0.61959025661913 4.68900349338086,-0.75272111685336 5.30859375,-3.064453125 0.61959025661915,-2.31173200814665 -0.75200316980651,-4.68876417769857 -3.064453125,-5.30859375 -0.28893658655804,-0.0774188187373 -0.57978089205703,-0.12338991827902 -0.8671875,-0.140625 z"
     id="path4353"
     inkscape:connector-curvature="0" />
  <g
     id="layer2-6"
     style="display:none"
     transform="translate(-79.10581330913635,-75.11192740511934)">
    <rect
       width="86"
       height="85"
       rx="6"
       ry="6"
       x="5"
       y="7"
       id="rect3745-0"
       style="opacity:0.9;fill:url(#linearGradient4258);fill-opacity:1;fill-rule:nonzero;stroke:none;filter:url(#filter3174-3)" />
  </g>
</svg>
