<?xml version="1.0" encoding="UTF-8" standalone="no"?>
<!-- Created with Inkscape (http://www.inkscape.org/) -->

<svg
   xmlns:dc="http://purl.org/dc/elements/1.1/"
   xmlns:cc="http://creativecommons.org/ns#"
   xmlns:rdf="http://www.w3.org/1999/02/22-rdf-syntax-ns#"
   xmlns:svg="http://www.w3.org/2000/svg"
   xmlns="http://www.w3.org/2000/svg"
   xmlns:sodipodi="http://sodipodi.sourceforge.net/DTD/sodipodi-0.dtd"
   xmlns:inkscape="http://www.inkscape.org/namespaces/inkscape"
   version="1.1"
   width="35.17829132080078"
   height="18.38021850585938"
   id="svg1325"
   inkscape:version="0.91 r13725"
   sodipodi:docname="xfce4-panel.svg">
  <metadata
     id="metadata32">
    <rdf:RDF>
      <cc:Work
         rdf:about="">
        <dc:format>image/svg+xml</dc:format>
        <dc:type
           rdf:resource="http://purl.org/dc/dcmitype/StillImage" />
        <dc:title>Xfce Panel</dc:title>
      </cc:Work>
    </rdf:RDF>
  </metadata>
  <sodipodi:namedview
     pagecolor="#ffffff"
     bordercolor="#666666"
     borderopacity="1"
     objecttolerance="10"
     gridtolerance="10"
     guidetolerance="10"
     inkscape:pageopacity="0"
     inkscape:pageshadow="2"
     inkscape:window-width="1366"
     inkscape:window-height="713"
     id="namedview30"
     showgrid="false"
     inkscape:zoom="15.18300048447978"
     inkscape:cx="13.16293230302551"
     inkscape:cy="2.697216233418811"
     inkscape:window-x="0"
     inkscape:window-y="30"
     inkscape:window-maximized="1"
     inkscape:current-layer="svg1325"
     fit-margin-top="0"
     fit-margin-left="0"
     fit-margin-right="0"
     fit-margin-bottom="0" />
  <title
     id="title3450">Xfce Panel</title>
  <defs
     id="defs1327" />
  <path
     d="M 0.1406596311438619,0.1269345408654843 C 0.2498168667638625,0.1086740367654837 2.971646450113858,1.545369920455474 4.801146066443857,2.041852737485474 c 3.262340504709997,0.83369345941 6.240222934440003,3.342889617240011 7.679556446500004,4.784252074200002 0.10672250174,0.123359849919989 1.23623612757,-0.845664234319981 2.41829942631,-0.775868529760011 1.61463435142,0.09779514418 6.61070827317999,1.50263659294001 7.27823114528,0.545989072589979 0.40477450755,-0.561611948319961 0.37576059547999,-1.250641636359969 0.88076498109001,-1.532867871949989 0.27187861659999,-0.07608543375 -1.01061745469,-2.421748632639972 0.35242772913002,-3.173269823599992 0.97186460709999,-0.485729409059999 1.79541334200998,2.233665440410029 2.04497356470999,2.53841296439002 0.11179486399,0.136345097280009 0.70485545826,0.16961979364001 0.63465396472001,-0.14101167055 -0.07608543375,-0.33741353687001 -1.03537058247003,-2.94683957276002 0.14101167054995,-3.3846858821800092 1.91065741233001,-0.7565935532099992 1.57202650852,3.3388317274400103 1.62173565857001,3.455293164699988 0.10570802929003,0.247937066780001 6.65433058853003,0.43906367636 7.05139510546002,3.384685882180041 0.22967656268001,1.6211269751 -5.24644572242002,3.716418373329996 -5.78208717602001,4.089744234929977 -0.53543855911001,0.37332586159999 -0.49080177130998,0.97044434567002 -0.2820233411,1.33991521195999 0.24002418166999,0.40071661775002 1.83538355653999,1.75321128809003 1.62193855306,2.39740129384001 -0.14669271627004,0.37210849465999 -3.12416935702001,-0.99174826712001 -3.31428149414999,-0.70505835275002 -0.43358552512999,0.54761222851001 2.16752183667,1.91836740295 1.26930792944,2.89104358801001 -0.35607982994998,0.23292287452001 -4.45292537203001,-1.71527001846002 -4.44257775304,-1.69234294109002 -0.10996881358,0.04179626494 -5.78898558868001,1.03739952737 -10.15405764654,-0.28222623558999 -0.15379402342,-0.04341942086 -2.80156711792,2.55768794094001 -3.10266254108,2.46821147085001 -0.41167292020999,-0.15095350056 0.60685741959,-2.26227356349999 0.49364229417001,-2.67962752942998 -0.18503977488002,-0.23251708554004 -1.876976926990018,0.94406806196999 -1.974366282190006,0.35263062362 -0.116461437260011,-0.77728879119002 1.484781877820007,-1.67083612515002 1.410319599989997,-2.18598523526004 -0.41289028714999,-2.92655012375998 0.18443109141,-4.635530413029983 1.19870064691999,-6.064110517119975 C 12.18427366305384,7.146475211395476 7.870939700143873,3.889207068935466 4.748190604553863,2.603667580295475 1.625644403453857,1.318128091655474 -0.0449888272061392,0.2285846803554747 0.1406596311438601,0.1269345408654949 Z"
     id="path14"
     style="fill:#2196F3;fill-opacity:1;fill-rule:evenodd;stroke:#2196F3;stroke-width:0.2028944969pt;stroke-linecap:butt;stroke-linejoin:miter;stroke-opacity:1"
     inkscape:connector-curvature="0" />
  <path
     d="m 28.20347537404026,9.912008267891476 c -0.03428916881,-0.119707749099982 2.13100082846999,-1.429391682049989 2.44447281552,-1.128296258889989 0.56424957669001,0.204517645919999 -2.4245891555,1.280264231899983 -2.44447281552,1.128296258889989 z"
     id="path7"
     style="fill:#ffffff;fill-opacity:1;fill-rule:evenodd;stroke:#2196F3;stroke-width:0.1217366934pt;stroke-linecap:butt;stroke-linejoin:miter;stroke-opacity:1"
     inkscape:connector-curvature="0" />
  <path
     d="m 29.23762858957027,11.10299892419149 c -0.1907208206,-0.11524407032001 1.29629289660999,-1.849180381860004 1.66109718962999,-1.661097189630004 0.53259803625,0.52914882992 -1.68605321189998,1.702284771099993 -1.66109718962999,1.661097189630004 z"
     id="path8"
     style="fill:#ffffff;fill-opacity:1;fill-rule:evenodd;stroke:#2196F3;stroke-width:0.1217366934pt;stroke-linecap:butt;stroke-linejoin:miter;stroke-opacity:1"
     inkscape:connector-curvature="0" />
  <path
     d="m 35.09823593322028,3.079942106121475 c -0.18077899059001,-0.149533239130012 -1.59840279222,2.08717561863 -1.28493080517001,2.319286915189992 0.18848898121,0.141011670549999 1.36568281219,-2.239549380619992 1.28493080517001,-2.319286915189992 z"
     id="path13"
     style="fill:#2196F3;fill-opacity:1;fill-rule:evenodd;stroke:#2196F3;stroke-width:0.1217366934pt;stroke-linecap:butt;stroke-linejoin:miter;stroke-opacity:1"
     inkscape:connector-curvature="0" />
  <ellipse
     cx="28.68653869628906"
     cy="6.281297206878662"
     rx="0.5654746294021606"
     ry="0.6438236832618713"
     id="ellipse17"
     style="fill:#ffffff;fill-opacity:1;fill-rule:evenodd;stroke:#2196F3;stroke-width:0.1131584287pt;stroke-linecap:butt;stroke-linejoin:miter;stroke-opacity:1" />
  <path
     d="m 33.46856710009127,2.766545190032776 c -0.08947647009,-0.10388197887999 -0.56424957669001,2.306504562320001 -0.34471773851,2.41322706406001 0.18848898120998,0.14101167054999 0.51677226603001,-2.287838269240009 0.34471773851,-2.41322706406001 z"
     id="path18"
     style="fill:#2196F3;fill-opacity:1;fill-rule:evenodd;stroke:#2196F3;stroke-width:0.1217366934pt;stroke-linecap:butt;stroke-linejoin:miter;stroke-opacity:1"
     inkscape:connector-curvature="0" />
  <path
     d="m 27.41727951473925,6.028607729291485 c -0.56222063179,0.397470305910008 0.30860251929001,2.64675862205 1.74083472420001,1.333422588280001 -1.12525284153998,0.03307180187 -1.50060764804,-0.29642884989 -1.74083472420001,-1.333422588280001 z"
     id="path21"
     style="fill:#ffffff;fill-opacity:1;fill-rule:evenodd;stroke:#2196F3;stroke-width:0.1217366934pt;stroke-linecap:butt;stroke-linejoin:miter;stroke-opacity:1"
     inkscape:connector-curvature="0" />
</svg>
