<svg height="48" viewBox="0 0 48 48" width="48" xmlns="http://www.w3.org/2000/svg"><path d="m12 4c-2.21 0-3.980469 1.79-3.980469 4l-.019531 32c0 2.21 1.770469 4 3.980469 4h24.019531c2.21 0 4-1.79 4-4v-24l-12-12zm14 3 11 11h-11zm-7.408203 18.082031 1.408203 1.166016-3.978516 4.789062 3.978516 4.796875-1.408203 1.166016-4.947266-5.962891zm6.726562 0h1.681641l-4.318359 11.917969h-1.681641zm4.089844 0 4.947266 5.962891-4.947266 5.958984-1.408203-1.166015 3.978516-4.792969-3.978516-4.794922z" fill="#f60" transform=""/></svg>