<?xml version="1.0" encoding="UTF-8" standalone="no"?>
<!-- Created with Inkscape (http://www.inkscape.org/) -->

<svg
   xmlns:dc="http://purl.org/dc/elements/1.1/"
   xmlns:cc="http://creativecommons.org/ns#"
   xmlns:rdf="http://www.w3.org/1999/02/22-rdf-syntax-ns#"
   xmlns:svg="http://www.w3.org/2000/svg"
   xmlns="http://www.w3.org/2000/svg"
   xmlns:sodipodi="http://sodipodi.sourceforge.net/DTD/sodipodi-0.dtd"
   xmlns:inkscape="http://www.inkscape.org/namespaces/inkscape"
   width="83.94699859619141mm"
   height="95.20512390136719mm"
   viewBox="0 0 297.4499950262842 337.3409901938701"
   id="svg4141"
   version="1.1"
   inkscape:version="0.91 r13725"
   sodipodi:docname="emblem-css31.svg">
  <defs
     id="defs4143" />
  <sodipodi:namedview
     id="base"
     pagecolor="#ffffff"
     bordercolor="#666666"
     borderopacity="1.0"
     inkscape:pageopacity="0.0"
     inkscape:pageshadow="2"
     inkscape:zoom="1.668828582763672"
     inkscape:cx="-232.1640300530275"
     inkscape:cy="60.6101882187579"
     inkscape:document-units="px"
     inkscape:current-layer="layer1"
     showgrid="false"
     fit-margin-top="0"
     fit-margin-left="0"
     fit-margin-right="0"
     fit-margin-bottom="0"
     inkscape:window-width="1366"
     inkscape:window-height="713"
     inkscape:window-x="0"
     inkscape:window-y="30"
     inkscape:window-maximized="1" />
  <metadata
     id="metadata4146">
    <rdf:RDF>
      <cc:Work
         rdf:about="">
        <dc:format>image/svg+xml</dc:format>
        <dc:type
           rdf:resource="http://purl.org/dc/dcmitype/StillImage" />
        <dc:title></dc:title>
      </cc:Work>
    </rdf:RDF>
  </metadata>
  <g
     inkscape:label="Layer 1"
     inkscape:groupmode="layer"
     id="layer1"
     transform="translate(-321.011774853054,-255.6313929431674)">
    <path
       d="m 348.0827748530541,559.2513929431675 -27.0710000000001,-303.62 297.4499999999998,0 -27.096,303.571 -121.8109999999999,33.77 -121.4719999999998,-33.721 z m 0,0"
       id="path11"
       inkscape:connector-curvature="0"
       style="fill:#1572b6;fill-rule:evenodd;stroke:none;stroke-width:1" />
    <path
       d="m 469.738774853054,567.1603929431671 98.427,-27.2879999999999 23.1569999999999,-259.4149999999999 -121.5840000000001,0 0,286.7029999999998 z m 0,0"
       id="path13"
       inkscape:connector-curvature="0"
       style="fill:#33a9dc;fill-rule:evenodd;stroke:none;stroke-width:1" />
    <g
       style="fill:none;fill-rule:evenodd;stroke:none;stroke-width:1"
       id="Group"
       transform="translate(375.940774853054,314.9613929431675)">
      <path
         d="m 93.79699999999999,75.49599999999999 49.27500000000001,0 3.403,-38.132 -52.678,0 0,-37.2389999999999972 0.129,0 L 187.172,0.125 186.279,10.116 177.127,112.732 l -83.32999999999998,0 0,-37.23600000000002 z m 0,0"
         id="path16"
         inkscape:connector-curvature="0"
         style="fill:#ffffff" />
      <path
         d="M 94.01999999999999,172.204 93.85699999999998,172.25 52.385,161.051 49.733,131.353 29.582,131.353 l -17.228,0 5.216,58.467 76.27799999999999,21.176 0.17200000000001,-0.048 0,-38.744 z m 0,0"
         id="path18"
         inkscape:connector-curvature="0"
         style="fill:#ebebeb" />
      <path
         d="m 139.907,111.156 -4.484,49.87 -41.532,11.21 0,38.742 L 170.23,189.82 l 0.56,-6.29 6.478,-72.374 -37.361,0 z m 0,0"
         id="path20"
         inkscape:connector-curvature="0"
         style="fill:#ffffff" />
      <path
         d="M 93.926,0.125 93.926,23.253 l 0,14.019 0,0.092 -89.828000000000002,0 -0.119,0 -0.747,-8.37 -1.697,-18.878 L 0.6449999999999992,0.125 93.926,0.125 Z m 0,0"
         id="path22"
         inkscape:connector-curvature="0"
         style="fill:#ebebeb" />
      <path
         d="m 93.79699999999999,75.5 0,23.129 0,14.017 0,0.092 -40.828,0 -0.119,0 -0.74600000000001,-8.369 -1.698,-18.87800000000001 -0.89,-9.99099999999999 44.28100000000001,0 z m 0,0"
         id="path24"
         inkscape:connector-curvature="0"
         style="fill:#ebebeb" />
    </g>
  </g>
</svg>
