<?xml version="1.0" encoding="UTF-8" standalone="no"?>
<svg
   xmlns:dc="http://purl.org/dc/elements/1.1/"
   xmlns:cc="http://creativecommons.org/ns#"
   xmlns:rdf="http://www.w3.org/1999/02/22-rdf-syntax-ns#"
   xmlns:svg="http://www.w3.org/2000/svg"
   xmlns="http://www.w3.org/2000/svg"
   xmlns:sodipodi="http://sodipodi.sourceforge.net/DTD/sodipodi-0.dtd"
   xmlns:inkscape="http://www.inkscape.org/namespaces/inkscape"
   fill="#4CAF50"
   width="48"
   height="48"
   viewBox="0 0 48 48"
   id="svg2"
   version="1.1"
   inkscape:version="0.91 r13725"
   sodipodi:docname="emblem-gnome1.svg">
  <metadata
     id="metadata10">
    <rdf:RDF>
      <cc:Work
         rdf:about="">
        <dc:format>image/svg+xml</dc:format>
        <dc:type
           rdf:resource="http://purl.org/dc/dcmitype/StillImage" />
        <dc:title></dc:title>
      </cc:Work>
    </rdf:RDF>
  </metadata>
  <defs
     id="defs8" />
  <sodipodi:namedview
     pagecolor="#ffffff"
     bordercolor="#666666"
     borderopacity="1"
     objecttolerance="10"
     gridtolerance="10"
     guidetolerance="10"
     inkscape:pageopacity="0"
     inkscape:pageshadow="2"
     inkscape:window-width="1366"
     inkscape:window-height="713"
     id="namedview6"
     showgrid="false"
     inkscape:zoom="6.722135668001971"
     inkscape:cx="-17.57318196555036"
     inkscape:cy="5.810682573124613"
     inkscape:window-x="0"
     inkscape:window-y="30"
     inkscape:window-maximized="1"
     inkscape:current-layer="svg2"
     inkscape:object-paths="true"
     inkscape:snap-intersection-paths="true"
     inkscape:object-nodes="true"
     inkscape:snap-smooth-nodes="true"
     inkscape:snap-midpoints="true"
     inkscape:snap-bbox="true"
     inkscape:bbox-nodes="true"
     inkscape:snap-nodes="false"
     inkscape:bbox-paths="true"
     showguides="false" />
  <path
     d="m 27.2529825118543,34.58843226788433 c 0.33698630136987,2.57351598173515 -1.88797564687976,3.84444444444444 -4.06697108066971,2.18538812785389 C 16.24932954381777,31.49254185692543 34.67124735203695,28.85783866057839 33.45693989389389,21.64261796042619 32.44902512981473,15.65357686453578 14.07307383605522,17.49741248097413 11.9805319791298,26.86849315068493 10.56409362296541,33.20669710806697 17.8109733794342,42 25.37261721505064,42 c 3.71993911719939,0 8.01065449010655,-3.35890410958904 8.81339421613395,-7.61400304414002 0.61308980213089,-3.24474885844751 -7.21430745814308,-1.94459665144597 -6.93302891933029,0.20243531202435 l 0,0 z M 17.33547870667926,17.15433789954338 c 1.89923896499238,-0.38721461187214 2.00334855403348,-8.177777777777773 -1.38356164383561,-6.78021308980213 -3.38751902587519,1.39786910197869 -0.51415525114156,7.16803652968037 1.38356164383561,6.78021308980213 l 0,0 z m -4.49528158295282,3.59543378995434 c 1.59543378995434,-0.70228310502284 0.2054794520548,-7.57138508371385 -2.50745814307457,-5.69802130898021 -2.711719939117198,1.87366818873668 0.91202435312024,6.39999999999999 2.50745814307457,5.69802130898021 z m 10.2806697108067,-5.40456621004566 c 2.24322678843226,0.13698630136986 4.70441400304414,-8.560730593607306 0.4882800608828,-8.013698630136982 -4.21461187214613,0.547031963470321 -2.7324200913242,7.876712328767123 -0.4882800608828,8.013698630136982 z M 35.55648327288931,6.000000000000004 c -7.48919330289192,0 -8.89406392694063,10.666971080669707 -4.68097412480975,10.666971080669707 4.21248097412483,0 12.17047184170474,-10.666971080669707 4.68097412480974,-10.666971080669707 z"
     style="fill:#000000;fill-opacity:1;fill-rule:nonzero;stroke:none;stroke-miterlimit:4"
     id="path3783"
     inkscape:connector-curvature="0" />
</svg>
