<?xml version="1.0" encoding="UTF-8" standalone="no"?>
<!-- Created with Inkscape (http://www.inkscape.org/) -->

<svg
   xmlns:dc="http://purl.org/dc/elements/1.1/"
   xmlns:cc="http://creativecommons.org/ns#"
   xmlns:rdf="http://www.w3.org/1999/02/22-rdf-syntax-ns#"
   xmlns:svg="http://www.w3.org/2000/svg"
   xmlns="http://www.w3.org/2000/svg"
   xmlns:sodipodi="http://sodipodi.sourceforge.net/DTD/sodipodi-0.dtd"
   xmlns:inkscape="http://www.inkscape.org/namespaces/inkscape"
   width="48"
   height="48"
   id="svg2"
   version="1.1"
   inkscape:version="0.91 r13725"
   sodipodi:docname="progress-20-symbolic.svg">
  <defs
     id="defs4" />
  <sodipodi:namedview
     id="base"
     pagecolor="#ffffff"
     bordercolor="#666666"
     borderopacity="1.0"
     inkscape:pageopacity="0.0"
     inkscape:pageshadow="2"
     inkscape:zoom="4.585543228033218"
     inkscape:cx="6.164813539271009"
     inkscape:cy="14.89198062409823"
     inkscape:document-units="px"
     inkscape:current-layer="layer1"
     showgrid="false"
     inkscape:window-width="1366"
     inkscape:window-height="713"
     inkscape:window-x="0"
     inkscape:window-y="30"
     inkscape:window-maximized="1"
     inkscape:snap-bbox="true"
     inkscape:bbox-nodes="true" />
  <metadata
     id="metadata7">
    <rdf:RDF>
      <cc:Work
         rdf:about="">
        <dc:format>image/svg+xml</dc:format>
        <dc:type
           rdf:resource="http://purl.org/dc/dcmitype/StillImage" />
        <dc:title></dc:title>
      </cc:Work>
    </rdf:RDF>
  </metadata>
  <g
     inkscape:label="Layer 1"
     inkscape:groupmode="layer"
     id="layer1"
     transform="translate(0,-1004.3622)"
     style="opacity:1">
    <path
       style="opacity:1;fill:#03A9F4;fill-opacity:1;fill-rule:nonzero;stroke:none;stroke-width:3;stroke-miterlimit:4;stroke-dasharray:none;stroke-opacity:1"
       d="M 24 6 A 18 18 0 0 1 25.65625 6.08203125 A 18 18 0 0 0 24 6 z M 27.123046875 6.28125 L 26.427734375 10.2265625 A 14 14 0 0 1 38 24 L 42 24 A 18 18 0 0 0 36.728515625 11.271484375 A 18 18 0 0 0 27.123046875 6.28125 z "
       transform="translate(0,1004.3622)"
       id="circle4153" />
    <ellipse
       style="opacity:1;fill:#000000;fill-opacity:1;fill-rule:nonzero;stroke:none;stroke-width:3;stroke-miterlimit:4;stroke-dasharray:none;stroke-opacity:1"
       id="path4143"
       cx="-80.64842987060547"
       cy="1050.203369140625"
       rx="20.12499237060547"
       ry="20.12599945068359" />
    <path
       style="fill:#03A9F4;fill-opacity:1;stroke:none"
       d="m 33.10587882346039,976.3980060943695 c 0.0078,0.3618 0.0024,0.6691999999999 0,3.3633 l 0,4.211 c 6.76763,0.2043999999999 12.19531300000001,5.7334999999999 12.19531300000001,12.5507 0,1.4345999999999 -0.267597,2.7922000000001 -0.71093800000001,4.0742999999994 0.03359,-0.023 0.32939200000001,0.067 3.91015700000001,1.2304 1.805355,0.5865 2.855702,0.9167 3.30859299999999,1.0664 0.669366,-2.0054 1.03906300000001,-4.1409999999998 1.03906300000001,-6.3710999999998 0,-10.9868999999999 -8.804105,-19.9209999999999 -19.742188,-20.125 z m -18.15624949999999,10.6913999999999 c -0.1019984,0.1909000000002 -0.2049245,0.3797000000001 -0.3007813,0.5742 0.1058537,-0.1492999999999 0.3301467,-0.4615 0.4101563,-0.5742 l -0.109375,0 z"
       id="path2993"
       inkscape:connector-curvature="0" />
    <g
       id="layer1-6"
       inkscape:label="Layer 1"
       transform="translate(-56.22852130987637,-1.289572791481987)">
      <path
         inkscape:connector-curvature="0"
         id="path2993-7"
         d="M 23.999992,1008.2364 C 12.885268,1008.2364 3.8749997,1017.2489 3.8749997,1028.3624 3.8749997,1039.476 12.885268,1048.4884 23.999992,1048.4884 c 11.114724,0 20.124991,-9.0124 20.124991,-20.126 0,-11.1135 -9.010267,-20.126 -20.124991,-20.126 z m 0,7.5469 c 6.946701,0 12.578116,5.6311 12.578116,12.5791 0,6.9481 -5.631415,12.5788 -12.578116,12.5788 -6.946697,0 -12.57812,-5.6307 -12.57812,-12.5788 0,-6.948 5.631423,-12.5791 12.57812,-12.5791 z"
         style="fill:#03A9F4;fill-opacity:1;stroke:none" />
    </g>
    <circle
       cy="1069.016235351562"
       cx="86.50815582275391"
       id="ellipse4145"
       style="opacity:1;fill:#000000;fill-opacity:1;fill-rule:nonzero;stroke:none;stroke-width:3;stroke-miterlimit:4;stroke-dasharray:none;stroke-opacity:1"
       r="18" />
    <circle
       r="14"
       style="opacity:1;fill:#9e5959;fill-opacity:1;fill-rule:nonzero;stroke:none;stroke-width:3;stroke-miterlimit:4;stroke-dasharray:none;stroke-opacity:1"
       id="circle4147"
       cx="86.50815582275391"
       cy="1069.016235351562" />
    <path
       style="opacity:1;fill:#000000;fill-opacity:1;fill-rule:nonzero;stroke:none;stroke-width:3;stroke-miterlimit:4;stroke-dasharray:none;stroke-opacity:1"
       id="circle4149"
       sodipodi:type="arc"
       sodipodi:cx="74.51393890380859"
       sodipodi:cy="1029.762451171875"
       sodipodi:rx="18"
       sodipodi:ry="18"
       sodipodi:start="4.71238898038469"
       sodipodi:end="4.886921905584122"
       d="m 74.51393890380859,1011.762451171875 a 18,18 0 0 1 3.12566719800472,0.27346044578 l -3.12566719800472,17.72653955422 z" />
  </g>
</svg>
