<svg xmlns="http://www.w3.org/2000/svg" height="48" viewBox="0 0 48 40" fill="#795548"><path d="m10 6c-2.21 0-4 1.79-4 4v26.291c1.201-1.058 3.471-3.136 6.04-5.592-1.01-.595-1.921-1.284-2.736-2.082-.958-.938-1.359-2.087-1.313-3.326-.008-.164-.009-.329 0-.496-.201-5.788 9.943-14.04 18.857-13.789.342.01.68.031 1.018.066 1.733.182 2.397.92 2.289 2.029.001.009.003.016.004.025.001.011.003.022.004.033.001.009.001.018.002.027.007.118.004.24-.01.367.294 3.135-7.243 10.09-13.977 15.646 2.761 1.296 6.521 1.485 8.768 1.211 7.688-1.207 17.05-6.24 17.05-6.24v-14.172c0-2.21-1.79-4-4-4h-28m16.18 5.43c-.03.001-.06.003-.09.004.159-.003.318-.003.477 0-.129-.001-.257-.006-.387-.004m2.629.256c.023.007.042.016.064.023.014.005.029.007.043.012-.035-.012-.071-.024-.107-.035m.393.15c.026.012.049.028.074.041.007.004.015.006.021.01-.032-.017-.062-.035-.096-.051m-3.746 2.279c.025.006.045.014.068.021-.016-.005-.026-.013-.043-.018-.008-.002-.018-.002-.025-.004m.201.078c.021.011.04.023.059.035-.007-.005-.01-.013-.018-.018-.004-.003-.009-.005-.014-.008-.008-.004-.019-.006-.027-.01m-.967.291c-2.78.028-8.207 1.778-10.717 6.512-.784 1.479-1.158 2.76-1.23 3.867.124 1.435.82 2.534 1.846 3.365 5.152-5.05 10.617-10.853 11.334-13.348-.111-.218-.34-.349-.713-.379-.16-.013-.334-.019-.52-.018m-8.504.102c-.015.009-.03.017-.045.025.003-.002.007-.002.01-.004.012-.007.024-.014.035-.021m9.555 1.186c-.038.087-.073.173-.119.266.017-.035.036-.073.053-.107.001-.001.001-.002.002-.004.026-.054.042-.102.064-.154m-.688 1.246c-.048.073-.098.148-.148.223.03-.045.069-.094.098-.139.019-.028.033-.056.051-.084m-12.369.131c-.043.038-.084.077-.127.115.007-.006.015-.011.021-.018.036-.032.069-.066.105-.098m8.04 5.195c-.479.524-.984 1.062-1.496 1.602.243-.256.483-.511.719-.764.232-.249.469-.499.693-.744.029-.032.055-.062.084-.094m-12.541 1.271c-.011.041-.022.084-.031.125.004-.019.011-.038.016-.057.005-.022.01-.046.016-.068m4.625.154c-.005.03-.013.062-.018.092-.007.043-.008.084-.014.127.01-.072.019-.145.031-.219m-4.744.42c-.01.063-.017.125-.025.188.003-.024.008-.049.012-.072.005-.039.007-.076.014-.115m33.936 1.295l-.006 3.469h.006v-3.469m-24.465.213c-.139.142-.274.284-.414.426.1-.102.199-.203.299-.305.04-.04.076-.081.115-.121m-4.535.797c.007.019.012.038.02.057.032.086.068.171.105.254.02.045.041.087.063.131-.069-.143-.133-.289-.188-.441m.234.533c.034.067.068.135.105.199.034.059.071.116.107.174-.077-.12-.147-.245-.213-.373m.605.902c.016.019.03.04.047.059.061.07.128.136.193.203-.083-.085-.164-.172-.24-.262m.365.391c.006.006.01.012.016.018.116.111.237.218.363.32-.133-.108-.258-.221-.379-.338m27.795 1.852c-13.09 3.732-22.392 4.084-28.541 1.258-4.156 3.318-7.459 5.719-7.459 5.719v.852c0 2.21 1.79 4 4 4h28c2.21 0 4-1.79 4-4v-7.828" transform="translate(0-4)" fill="#d41818"/></svg>