<?xml version="1.0" encoding="UTF-8" standalone="no"?>
<svg
   xmlns:dc="http://purl.org/dc/elements/1.1/"
   xmlns:cc="http://creativecommons.org/ns#"
   xmlns:rdf="http://www.w3.org/1999/02/22-rdf-syntax-ns#"
   xmlns:svg="http://www.w3.org/2000/svg"
   xmlns="http://www.w3.org/2000/svg"
   xmlns:sodipodi="http://sodipodi.sourceforge.net/DTD/sodipodi-0.dtd"
   xmlns:inkscape="http://www.inkscape.org/namespaces/inkscape"
   width="39.66666793823242"
   height="44"
   viewBox="0 0 39.66666793823242 44"
   id="svg2"
   version="1.1"
   inkscape:version="0.91 r13725"
   sodipodi:docname="system-shutdown-restart-panel.svg"
   style="fill:#795548">
  <metadata
     id="metadata10">
    <rdf:RDF>
      <cc:Work
         rdf:about="">
        <dc:format>image/svg+xml</dc:format>
        <dc:type
           rdf:resource="http://purl.org/dc/dcmitype/StillImage" />
        <dc:title></dc:title>
      </cc:Work>
    </rdf:RDF>
  </metadata>
  <defs
     id="defs8" />
  <sodipodi:namedview
     pagecolor="#ffffff"
     bordercolor="#666666"
     borderopacity="1"
     objecttolerance="10"
     gridtolerance="10"
     guidetolerance="10"
     inkscape:pageopacity="0"
     inkscape:pageshadow="2"
     inkscape:window-width="1366"
     inkscape:window-height="713"
     id="namedview6"
     showgrid="false"
     inkscape:snap-bbox="true"
     inkscape:bbox-paths="false"
     inkscape:bbox-nodes="false"
     inkscape:snap-bbox-edge-midpoints="true"
     inkscape:snap-bbox-midpoints="true"
     inkscape:snap-object-midpoints="true"
     inkscape:snap-center="true"
     inkscape:zoom="3.883367556807321"
     inkscape:cx="38.18658111105606"
     inkscape:cy="26.09978420392922"
     inkscape:window-x="0"
     inkscape:window-y="30"
     inkscape:window-maximized="1"
     inkscape:current-layer="svg2"
     inkscape:snap-page="true"
     fit-margin-top="0"
     fit-margin-left="0"
     fit-margin-right="0"
     fit-margin-bottom="0" />
  <path
     style="fill:#795548"
     d="m 26.44444510000001,17.00000010000004 c 0,-2.087222 -1.690555,-3.777778 -3.777778,-3.777778 -2.087222,0 -3.777778,1.69055600000003 -3.777778,3.777778 0,2.087222 1.690556,3.77777800000001 3.777778,3.77777800000001 2.087223,0 3.777778,-1.690556 3.777778,-3.77777800000001 z"
     id="path4141" />
  <path
     style="fill:#795548"
     d="M 22.66666710000001,4.973799150320703e-14 C 13.27888910000001,4.973799150320703e-14 5.666666700000011,7.612222100000043 5.666666700000011,17.00000010000004 l -5.666666700000012824034456571098,0 L 7.55555550000001,24.55555610000005 l 7.5555566,-7.555556 -5.666667000000001,0 c 0,-7.300555 5.921667,-13.222222000000012 13.222221999999998,-13.222222000000012 7.300556,0 13.22222300000001,5.92166700000001 13.22222300000001,13.222222000000012 0,7.30055599999999 -5.92166700000001,13.22222200000002 -13.22222300000001,13.22222200000002 -2.861666,0 -5.496666,-0.916111 -7.668889,-2.46500000000002 l -2.672777,2.710556 c 2.871111,2.21000000000001 6.450555,3.53222199999999 10.341666,3.53222199999999 9.38777800000001,0 17,-7.61222200000001 17,-17 C 39.66666710000001,7.612222100000011 32.0544451,-7.105427357601002e-15 22.66666709999998,-7.105427357601002e-15 Z"
     id="path4139" />
  <path
     style="fill:#795548"
     d="m 27.83333396911621,44.00000010000004 4,0 0,-4 -4,0 0,4 z"
     id="path4137"
     inkscape:connector-curvature="0" />
  <path
     style="fill:#795548"
     d="m 19.83333396911621,44.00000010000004 4,0 0,-4 -4,0 0,4 z"
     id="path4135"
     inkscape:connector-curvature="0" />
  <path
     style="fill:#795548"
     d="m 11.83333396911621,44.00000010000004 4,0 0,-4 -4,0 0,4 z"
     id="path4140"
     inkscape:connector-curvature="0" />
</svg>
