<svg height="48" width="48" xmlns="http://www.w3.org/2000/svg" xmlns:xlink="http://www.w3.org/1999/xlink"><linearGradient id="a"><stop offset="0"/><stop offset="1" stop-opacity="0"/></linearGradient><linearGradient id="b"><stop offset="0" stop-color="#fff"/><stop offset="1" stop-color="#fff" stop-opacity="0"/></linearGradient><linearGradient id="c"><stop offset="0" stop-color="#fff" stop-opacity="0"/><stop offset=".5" stop-color="#fff"/><stop offset="1" stop-color="#fff" stop-opacity="0"/></linearGradient><linearGradient id="d"><stop offset="0" stop-color="#d0d0cb"/><stop offset="1" stop-color="#babdb6"/></linearGradient><linearGradient id="e"><stop offset="0"/><stop offset="1" stop-color="#fff"/></linearGradient><linearGradient id="f" gradientUnits="userSpaceOnUse" x1="21.9375" x2="21.9375" xlink:href="#a" y1="39" y2="37.995617"/><linearGradient id="g" gradientTransform="matrix(.602867 -.797841 .797841 .602867 -41.12611 44.62773)" gradientUnits="userSpaceOnUse" x1="40.617188" x2="40.710938" xlink:href="#e" y1="30.554688" y2="30.359375"/><linearGradient id="h" gradientUnits="userSpaceOnUse" x1="40.617188" x2="40.710938" xlink:href="#e" y1="30.554688" y2="30.359375"/><radialGradient id="i" cx="7.517773" cy="30.573555" gradientTransform="matrix(1.662477 0 0 1.61358 -4.989175 -18.65647)" gradientUnits="userSpaceOnUse" r=".53125"><stop offset="0" stop-color="#babdb6"/><stop offset="1" stop-color="#2e3436"/></radialGradient><radialGradient id="j" cx="7.533601" cy="30.307562" gradientTransform="matrix(1.569487 0 0 1.523325 -4.288627 -15.92107)" gradientUnits="userSpaceOnUse" r=".53125"><stop offset="0" stop-color="#eeeeec"/><stop offset="1" stop-color="#888a85"/></radialGradient><linearGradient id="k" gradientTransform="matrix(1 0 0 .995556 0 -3.931113)" gradientUnits="userSpaceOnUse" x1="24.748737" x2="24.998737" y1="35.354588" y2="14.997767"><stop offset="0" stop-color="#fdfdfc"/><stop offset="1" stop-color="#fff" stop-opacity=".371212"/></linearGradient><radialGradient id="l" cx="7.519144" cy="30.304251" gradientTransform="matrix(1.389748 0 0 1.348872 -2.91982 -10.63815)" gradientUnits="userSpaceOnUse" r=".53125"><stop offset="0" stop-color="#fff"/><stop offset=".5" stop-color="#fff"/><stop offset="1" stop-color="#cccfca"/></radialGradient><radialGradient id="m" cx="25.251999" cy="16.47991" gradientTransform="matrix(1.032991 -.596398 .575121 .99614 -12.23456 11.55448)" gradientUnits="userSpaceOnUse" r="21.980215" xlink:href="#d"/><linearGradient id="n" gradientUnits="userSpaceOnUse" x1="53.812813" x2="-2.813893" y1="93.573235" y2="85.500015"><stop offset="0" stop-color="#555753"/><stop offset="1" stop-color="#2e3436"/></linearGradient><linearGradient id="o" gradientUnits="userSpaceOnUse" x1="12.5" x2="12.5" xlink:href="#b" y1="43.1875" y2="34.045513"/><linearGradient id="p" gradientTransform="matrix(1 0 0 1.42294 10.5 -14.95703)" gradientUnits="userSpaceOnUse" x1="15.335379" x2="20.329321" xlink:href="#c" y1="33.06237" y2="36.37693"/><linearGradient id="q" gradientTransform="matrix(1 0 0 1.42294 -.875 -15.04578)" gradientUnits="userSpaceOnUse" x1="15.335379" x2="20.329321" xlink:href="#c" y1="33.06237" y2="36.37693"/><linearGradient id="r" gradientTransform="matrix(.459833 0 -.391165 1.370105 40.62503 -13.29892)" gradientUnits="userSpaceOnUse" x1="15.335379" x2="20.329321" xlink:href="#c" y1="33.06237" y2="36.37693"/><linearGradient id="s" gradientUnits="userSpaceOnUse" x1="35.722687" x2="11.953137" y1="36.222865" y2="17.984183"><stop offset="0" stop-color="#fff"/><stop offset="1" stop-color="#555753"/></linearGradient><linearGradient id="t" gradientUnits="userSpaceOnUse" x1="50.505718" x2="2.39964" y1="40.469779" y2="11.449203"><stop offset="0" stop-color="#babdb6"/><stop offset="1" stop-color="#555753"/></linearGradient><linearGradient id="u" gradientTransform="matrix(1.0029382 0 0 1.0690426 -.11753 -1.915373)" gradientUnits="userSpaceOnUse" x1="8.09375" x2="20.501734" y1="13.796185" y2="29.455748"><stop offset="0" stop-color="#2f302e"/><stop offset="1" stop-color="#555753"/></linearGradient><radialGradient id="v" cx="25.251999" cy="16.47991" gradientTransform="matrix(.29978113 -.25514914 .16690409 .42616552 -2.085584 27.055878)" gradientUnits="userSpaceOnUse" r="21.980215" xlink:href="#d"/><radialGradient id="w" cx="7.625" cy="30.578125" gradientTransform="matrix(1.3511662 -.00000379 .00000117 1.5765217 -2.677678 -17.628922)" gradientUnits="userSpaceOnUse" r=".53125" xlink:href="#b"/><radialGradient id="x" cx="7.519144" cy="30.304251" gradientTransform="matrix(1.389748 0 0 1.348872 -2.91982 -10.63815)" gradientUnits="userSpaceOnUse" r=".53125"><stop offset="0" stop-color="#fff"/><stop offset=".5" stop-color="#fff"/><stop offset="1" stop-color="#888a85"/></radialGradient><radialGradient id="y" cx="7.625" cy="30.578125" gradientTransform="matrix(.9999996 -.00000036 .00000009 .97058851 0 .899351)" gradientUnits="userSpaceOnUse" r=".53125"><stop offset="0" stop-color="#d3d7cf"/><stop offset=".5" stop-color="#babdb6"/><stop offset="1" stop-color="#eeeeec" stop-opacity="0"/></radialGradient><radialGradient id="z" cx="21.885324" cy="21.091515" gradientTransform="matrix(.68596186 -.9212505 1.444828 .71285424 -25.655926 33.736687)" gradientUnits="userSpaceOnUse" r="10.682883"><stop offset="0" stop-color="#fff" stop-opacity="0"/><stop offset="1" stop-color="#fff"/></radialGradient><radialGradient id="A" cx="23.570951" cy="22.565657" gradientTransform="matrix(1 0 0 .61209071 0 8.753428)" gradientUnits="userSpaceOnUse" r="11.15492"><stop offset="0" stop-color="#8ae234"/><stop offset="1" stop-color="#73d216"/></radialGradient><radialGradient id="B" cx="25.525513" cy="26.023817" gradientTransform="matrix(.52341584 -.91271001 1.0252793 .67462715 -12.879236 29.477642)" gradientUnits="userSpaceOnUse" r="6.53498"><stop offset="0" stop-color="#fcaf3e"/><stop offset="1" stop-color="#f57900"/></radialGradient><radialGradient id="C" cx="21.366146" cy="28.457472" gradientTransform="matrix(1.1542747 -1.6047814 1.4632662 1.2076031 -43.596086 25.552294)" gradientUnits="userSpaceOnUse" r="4.620929"><stop offset="0" stop-color="#ef2929"/><stop offset="1" stop-color="#c00"/></radialGradient><radialGradient id="D" cx="22.518518" cy="27.786009" gradientTransform="matrix(1 0 0 .45222929 0 15.220362)" gradientUnits="userSpaceOnUse" r="10.337449" xlink:href="#b"/><radialGradient id="E" cx="24.690754" cy="23.189171" gradientTransform="matrix(.68596186 -.9212505 1.444828 .71285424 -25.655926 33.736687)" gradientUnits="userSpaceOnUse" r="10.682883" xlink:href="#b"/><radialGradient id="F" cx="24" cy="30.265625" gradientTransform="matrix(1 0 0 .3046875 0 21.044067)" gradientUnits="userSpaceOnUse" r="14" xlink:href="#a"/><linearGradient id="G" gradientUnits="userSpaceOnUse" x1="19.679014" x2="23.185186" y1="20.903482" y2="32.096901"><stop offset="0" stop-color="#fff"/><stop offset=".25" stop-color="#babdb6"/><stop offset=".375" stop-color="#eeeeec"/><stop offset=".5" stop-color="#babdb6"/><stop offset="1" stop-color="#eeeeec"/></linearGradient><g transform="translate(0 -45.996258)"><path d="m4.518229 80.500013h38.963539c.564099 0 1.018229.45413 1.018229 1.018229v2.963543c0 1.315584-.450231 3.018228-2.455729 3.018228l-1.544268-.000013v1h-33v-1l-1.856771.000013c-1.271205 0-2.143228-.884627-2.143228-2.255665v-3.726106c0-.564099.45413-1.018229 1.018228-1.018229z" fill="url(#n)" stroke="#2e3436" stroke-dashoffset="1.4" stroke-linecap="square" stroke-linejoin="round"/><g transform="translate(0 50)"><path d="m4.59375 31.59375v3.729743c0 .599619.375651 1.104854.886328 1.104854h36.946329c.512469 0 .979843-.507235.979843-1.016466v-3.818131z" fill="none" opacity=".1" stroke="url(#o)" stroke-dashoffset="1.4" stroke-linecap="square"/><g fill-rule="evenodd" opacity=".5"><path d="m26.144738 32.088747s-1.502602 5.533939-3.226175 5.911253c0 0 6.231378-.125771 6.231378-.125771 1.387072-.317461 3.358758-5.785482 3.358758-5.785482z" fill="url(#p)" opacity=".109524"/><path d="m14.769738 32s-1.502602 5.533939-3.226175 5.911253c0 0 6.231378-.125771 6.231378-.125771 1.387072-.317461 3.358758-5.785482 3.358758-5.785482z" fill="url(#q)" opacity=".109524"/><path d="m34.886139 32s-2.212224 5.328458-3.108503 5.691761c0 0 2.899969-.121101 2.899969-.121101.725092-.305673 3.134895-5.57066 3.134895-5.57066z" fill="url(#r)" opacity=".109524"/></g></g></g><path d="m11.693127 10.498788h24.572566c1.68417 0 2.396517.117479 3.040019 2.385005l5.074491 17.881119c.501024 1.765471-1.355848 2.735101-3.040018 2.735101h-34.721554c-1.868408 0-3.489383-1.181417-3.040018-2.735101l5.250432-18.153415c.568301-1.964905 1.179912-2.112709 2.864082-2.112709z" fill="url(#m)" stroke="#888a85" stroke-linecap="round" transform="translate(0 3.001212)"/><path d="m14.3125 15.53125-3.84375 2.5625-3.625 12.59375c1.446871.699749 3.788925 1.47768 3.59375 3.84375h2.0625v-4.03125c2.736722 2.434807 7.088342 4 12 4 7.778123 0 14.190048-3.94489 14.9375-9h.21875l-2.15625-7.40625-5.15625-2.5625z" fill="url(#t)" stroke-linecap="round" stroke-linejoin="round" transform=""/><path d="m14.25 20-3.875 2.75-2.375 8.78125c1.246456.670958 2.489039 1.591357 2.34375 3.46875 0 0 14.15625-.5 14.15625-.5 6.703235 0 12.389849-2.923325 14.3125-6.96875l-1.3125-4.78125-5.1875-2.75z" fill="url(#u)" stroke-width=".91991" transform=""/><path d="m24 16c-7.728 0-14 3.584001-14 8v8.8125c.304858.464446.49599 1.009687.4375 1.71875 0 0 14.0625-.03125 14.0625-.03125 5.854688 0 10.995851-2.23874 13.5-5.5v-5c0-4.415999-6.272001-8-14-8z" fill="url(#G)" stroke="#555753" stroke-width=".965641" transform="matrix(.96652645 0 0 .97471764 .80337 .87315)"/><path d="m10 25v7.8125c.304858.464446.49599 1.009687.4375 1.71875 0 0 14.0625-.03125 14.0625-.03125 5.854688 0 10.995851-2.23874 13.5-5.5v-4c0 4.415999-6.272001 8-14 8-7.728 0-14-3.584001-14-8z" fill="#555753" transform=""/><path d="m10 26v6.8125c.304858.464446.49599 1.009687.4375 1.71875 0 0 14.0625-.03125 14.0625-.03125 5.854688 0 10.995851-2.23874 13.5-5.5v-3c0 4.415999-6.272001 8-14 8-7.728 0-14-3.584001-14-8z" fill="url(#F)" transform=""/><path d="m10.330132 31.20256h3.570187v3.716507h-3.570187z" fill="#babdb6" transform="matrix(1.4004865 0 0 1.0762795 -5.46721 -2.582676)"/><path d="m32.855967 27.786009c0 2.580543-4.631177 4.674897-10.337449 4.674897-5.706271 0-10.337448-2.094354-10.337448-4.674897s4.631177-4.674897 10.337448-4.674897c5.706272 0 10.337449 2.094354 10.337449 4.674897z" fill="#555753" transform="matrix(.33857511 0 0 .42781677 2.87579 20.112679)"/><path d="m8.15625 30.578125c0 .284625-.238.515625-.53125.515625s-.53125-.231-.53125-.515625.238-.515625.53125-.515625.53125.231.53125.515625z" fill="#d3d7cf" transform="matrix(6.5882368 0 0 -3.8787869 -39.7353 149.60603)"/><path d="m8.15625 30.578125c0 .284625-.238.515625-.53125.515625s-.53125-.231-.53125-.515625.238-.515625.53125-.515625.53125.231.53125.515625z" fill="url(#w)" transform="matrix(4.7058792 0 0 -2.9090911 -25.38233 119.45455)"/><path d="m7.5 31c-1.467792-1.316872-1.680613-.694358-2.851166 3.173068.354053 1.721633 1.829754 1.426215 3.351166 1.826932 1.656 0 3.175583.04044 2.736626-1.765889-.520583-1.555559-1.673702-2.77289-3.236626-3.234111z" fill="url(#v)" stroke-width="2.538411" transform=""/><path d="m11.6875 11.500005c-.803124 0-1.097168.07051-1.21875.155556-.121582.08504-.357707.40212-.6875 1.306667l-5.25 18.137786c-.13372.366765-.054827.533865.3125.84.367327.306136 1.066693.56 1.78125.560001h34.71875c.639793 0 1.393345-.237954 1.78125-.52889.387905-.290935.488311-.382809.3125-.871111l-5.0625-17.857786c-.377206-1.04766-.68208-1.439297-.84375-1.555556s-.443711-.186667-1.25-.186667z" fill="none" stroke="url(#k)" stroke-linecap="round" transform="translate(0 3.001212)"/><g opacity=".302857" transform="translate(7 2.001212)"><path d="m19.251297 35.500008h12.497402c.416221 0 .751301.333216.751301.747122v.505747c0 .413906-.33508.747123-.751301.747123h-12.497402c-.416221 0-.751301-.333217-.751301-.747123v-.505747c0-.413906.33508-.747122.751301-.747122z" fill="#fff" stroke="#eeeeec" stroke-dashoffset="1.4" stroke-linecap="square"/><path d="m19 36h1v1h-1z"/><path d="m22 36h1v1h-1z"/><path d="m24 36h1v1h-1z"/><path d="m26 36h1v1h-1z"/><path d="m29 36h2v1h-2z"/></g><path d="m8.15625 30.578125c0 .284625-.238.515625-.53125.515625s-.53125-.231-.53125-.515625.238-.515625.53125-.515625.53125.231.53125.515625z" fill="url(#j)" stroke-width=".462594" transform="matrix(-2.628602 0 0 1.777765 60.79309 -20.776178)"/><path d="m8.15625 30.578125c0 .284625-.238.515625-.53125.515625s-.53125-.231-.53125-.515625.238-.515625.53125-.515625.53125.231.53125.515625z" fill="url(#i)" transform="matrix(1.411772 0 0 .969697 29.98523 3.849697)"/><path d="m40.328109 30.261401.874999.430332" fill="none" opacity=".4" stroke="url(#h)" stroke-linecap="round" stroke-width=".3" transform="translate(0 3.001212)"/><path d="m8 38h32.03125v1h-32.03125z" fill="url(#f)" opacity=".12" stroke-width=".681836" transform="translate(0 3.001212)"/><path d="m8.15625 30.578125c0 .284625-.238.515625-.53125.515625s-.53125-.231-.53125-.515625.238-.515625.53125-.515625.53125.231.53125.515625z" fill="url(#l)" transform="matrix(-2.628602 0 0 1.777765 27.79309 -20.776178)"/><path d="m8.15625 30.578125c0 .284625-.238.515625-.53125.515625s-.53125-.231-.53125-.515625.238-.515625.53125-.515625.53125.231.53125.515625z" fill="url(#i)" transform="matrix(1.411772 0 0 .969697 -3.01477 3.849697)"/><path d="m7.330186 30.695906.870845-.438678" fill="none" opacity=".4" stroke="url(#g)" stroke-linecap="round" stroke-width=".3" transform="translate(0 3.001212)"/><path d="m32.855967 27.786009c0 2.580543-4.631177 4.674897-10.337449 4.674897-5.706271 0-10.337448-2.094354-10.337448-4.674897s4.631177-4.674897 10.337448-4.674897c5.706272 0 10.337449 2.094354 10.337449 4.674897z" fill="url(#D)" stroke-width=".681673" transform="matrix(-1.3542993 0 0 1.7112675 54.49682 -23.549293)"/><path d="m24.131688 31.736626c-3.607309 0-6.691105-.781854-9.241857-2.343146l9.241856-5.656854z" fill="url(#C)" opacity=".882591" transform="matrix(-1.0711586 0 0 1 49.84887 .263374)"/><path d="m14.889831 29.39348c-5.101505-3.122584-5.101505-8.191125 0-11.313709 5.101504-3.122583 13.382207-3.122583 18.483712 0l-9.241856 5.656855z" fill="url(#A)" opacity=".765182" transform="matrix(-1.0711586 0 0 1 49.84887 .263374)"/><path d="m33.373543 18.079771c2.550753 1.561292 3.828103 3.448855 3.828103 5.656855h-13.069959z" fill="url(#B)" opacity=".906883" transform="matrix(-1.0711586 0 0 1 49.84887 .263374)"/><path d="m39.546875 25.5-2.046875-7.40625-5.15625-2.5625h-18.03125l-3.84375 2.5625-3.625 12.59375c1.446871.699749 3.788925 1.47768 3.59375 3.84375 0 0 14.0625-.03125 14.0625-.03125 7.778123 0 14.299423-3.94489 15.046875-9z" fill="none" stroke="url(#s)" stroke-linecap="round" stroke-linejoin="round" transform=""/><path d="m8.15625 30.578125c0 .284625-.238.515625-.53125.515625s-.53125-.231-.53125-.515625.238-.515625.53125-.515625.53125.231.53125.515625z" fill="url(#x)" transform="matrix(-7.529413 0 0 -3.8787893 81.41177 142.6061)"/><path d="m8.15625 30.578125c0 .284625-.238.515625-.53125.515625s-.53125-.231-.53125-.515625.238-.515625.53125-.515625.53125.231.53125.515625z" fill="url(#y)" transform="matrix(-5.6470566 0 0 2.9090912 67.05881 -64.454553)"/><g fill="none"><path d="m32.855967 27.786009c0 2.580543-4.631177 4.674897-10.337449 4.674897-5.706271 0-10.337448-2.094354-10.337448-4.674897s4.631177-4.674897 10.337448-4.674897c5.706272 0 10.337449 2.094354 10.337449 4.674897z" opacity=".668016" stroke="url(#z)" stroke-width=".771225" transform="matrix(-1.2091958 0 0 1.3904051 51.2293 -14.633808)"/><path d="m32.855967 27.786009c0 2.580543-4.631177 4.674897-10.337449 4.674897-5.706271 0-10.337448-2.094354-10.337448-4.674897s4.631177-4.674897 10.337448-4.674897c5.706272 0 10.337449 2.094354 10.337449 4.674897z" opacity=".263158" stroke="#000" stroke-width=".690868" transform="matrix(-1.3059315 0 0 1.6043135 53.40764 -20.577469)"/><path d="m32.855967 27.786009c0 2.580543-4.631177 4.674897-10.337449 4.674897-5.706271 0-10.337448-2.094354-10.337448-4.674897s4.631177-4.674897 10.337448-4.674897c5.706272 0 10.337449 2.094354 10.337449 4.674897z" stroke="url(#E)" stroke-width="2.072604" transform="matrix(-.43531041 0 0 .5347712 33.80254 9.140842)"/><path d="m32.855967 27.786009c0 2.580543-4.631177 4.674897-10.337449 4.674897-5.706271 0-10.337448-2.094354-10.337448-4.674897s4.631177-4.674897 10.337448-4.674897c5.706272 0 10.337449 2.094354 10.337449 4.674897z" opacity=".202429" stroke="#000" stroke-width="1.711397" transform="matrix(-.53204623 0 0 .64172535 35.98089 5.669014)"/></g></svg>