<svg xmlns="http://www.w3.org/2000/svg" height="48" viewBox="0 0 48 40" fill="#FF9800"><path d="m10 6c-2.21 0-4 1.79-4 4v28c0 2.21 1.79 4 4 4h28c2.21 0 4-1.79 4-4v-13.391c-.146.134-.29.27-.439.398-3.155 2.705-6.883 4.049-11.182 4.049-4.09 0-6.975-1.369-8.645-4.113-1.669-2.744-1.869-6.442-.619-11.11.81-3.02 2.01-5.635 3.588-7.836h-14.703m18.781 0c-1.385 2.131-2.488 4.738-3.313 7.814-1.159 4.325-1.266 7.724-.324 10.207.959 2.47 2.843 3.703 5.652 3.703 2.953 0 5.569-1.219 7.857-3.662 1.293-1.381 2.404-3.082 3.346-5.098v-8.965c0-2.21-1.79-4-4-4h-9.219" transform="translate(0-4)" fill="#2a85be"/></svg>