<svg xmlns="http://www.w3.org/2000/svg" fill="#FF9800" viewBox="0 0 48 48"><path d="m20 5l-4 4v4h-8c-2.21 0-3.98 1.79-3.98 4l-.02 22c0 2.21 1.79 4 4 4h32c2.21 0 4-1.79 4-4v-22c0-2.21-1.79-4-4-4h-8v-4l-4-4h-8m0 4h8v4h-8v-4m-5.625 11.75l9.916.047 3.102.006c3.712 0 6.928 2.809 6.928 6.518v11.311h-10.662c-3.709 0-6.928-2.812-6.928-6.518l-.004-4.5v-1.146h-2.352v-5.717m1.516 1.521v2.684h.939c.639 0 1.408.602 1.408 1.482l.006 5.672c0 2.765 2.426 5.01 5.414 5.01h7.377c.946 0 1.773-.599 1.773-1.52v-8.275c0-2.765-2.424-5.01-5.416-5.01h-3.105v-.008l-8.396-.035m3.803 1.682h1.541v7.916c0 1.059.724 1.883 1.57 1.883l5.262.02c1.097 0 1.951-.756 1.951-1.652l-.01-4.203c0-.273-.088-.485-.283-.682-.195-.197-.403-.287-.672-.287-.274 0-.478.089-.674.287-.195.197-.283.409-.283.682v3.598h-1.631v-3.598c0-.273-.09-.485-.285-.682-.196-.198-.4-.287-.674-.287-.269 0-.475.09-.67.287-.195.197-.285.409-.285.682v3.598h-1.631v-3.598c0-.712.264-1.343.764-1.848.5-.505 1.121-.766 1.822-.766.688 0 1.286.257 1.771.725.487-.468 1.088-.725 1.775-.725.701 0 1.324.26 1.824.766.5.505.764 1.136.764 1.848l.006 4.49c-.077.752-.395 1.419-.938 1.977h-.004c-.638.65-1.428.984-2.328.984h-5.859c-.717-.077-1.354-.416-1.885-.939-.621-.618-.939-1.384-.939-2.256v-8.219"/></svg>