<?xml version="1.0" encoding="UTF-8" standalone="no"?>
<svg
   xmlns:dc="http://purl.org/dc/elements/1.1/"
   xmlns:cc="http://creativecommons.org/ns#"
   xmlns:rdf="http://www.w3.org/1999/02/22-rdf-syntax-ns#"
   xmlns:svg="http://www.w3.org/2000/svg"
   xmlns="http://www.w3.org/2000/svg"
   xmlns:sodipodi="http://sodipodi.sourceforge.net/DTD/sodipodi-0.dtd"
   xmlns:inkscape="http://www.inkscape.org/namespaces/inkscape"
   fill="#FF9800"
   width="48"
   height="48"
   viewBox="0 0 48 48"
   id="svg2"
   version="1.1"
   inkscape:version="0.91 r13725"
   sodipodi:docname="system-file-manager-linux-mint-earth.svg">
  <metadata
     id="metadata10">
    <rdf:RDF>
      <cc:Work
         rdf:about="">
        <dc:format>image/svg+xml</dc:format>
        <dc:type
           rdf:resource="http://purl.org/dc/dcmitype/StillImage" />
      </cc:Work>
    </rdf:RDF>
  </metadata>
  <defs
     id="defs8" />
  <sodipodi:namedview
     pagecolor="#ffffff"
     bordercolor="#666666"
     borderopacity="1"
     objecttolerance="10"
     gridtolerance="10"
     guidetolerance="10"
     inkscape:pageopacity="0"
     inkscape:pageshadow="2"
     inkscape:window-width="1366"
     inkscape:window-height="713"
     id="namedview6"
     showgrid="false"
     inkscape:snap-bbox="true"
     inkscape:snap-bbox-edge-midpoints="false"
     inkscape:snap-bbox-midpoints="true"
     inkscape:snap-object-midpoints="true"
     inkscape:zoom="15.47673280516694"
     inkscape:cx="42.97615859482781"
     inkscape:cy="19.15357866977991"
     inkscape:window-x="0"
     inkscape:window-y="30"
     inkscape:window-maximized="1"
     inkscape:current-layer="svg2"
     inkscape:bbox-nodes="true"
     inkscape:bbox-paths="true" />
  <path
     d="M 20 5 L 16 9 L 16 13 L 8 13 C 5.79 13 4.01953125 14.79 4.01953125 17 L 4 39 C 4 41.21 5.789999999999999 43 8 43 L 40 43 C 42.21 43 44 41.21 44 39 L 44 17 C 44 14.79 42.21 13 40 13 L 32 13 L 32 9 L 28 5 L 20 5 z M 20 9 L 28 9 L 28 13 L 20 13 L 20 9 z "
     id="path4250"
     style="fill:#87cf3e;fill-opacity:1" />
  <path
     inkscape:connector-curvature="0"
     style="display:inline;fill:#c7f994;fill-opacity:1;fill-rule:evenodd"
     id="path4190"
     d="m 33.23342939897433,35.8555604421663 c 0,-2.56426803333691 0,-8.61336305689517 0,-8.61336305689517 0,-2.87762274927409 -2.52356791001631,-5.21029168162341 -5.63725102614958,-5.21029168162341 l -3.23170197655301,0 0,-0.006950586032 -8.74052394124862,-0.0381916411437 0,3.14273273334324 c 0,0 0.71367363134409,0 1.34172440438247,0 0.93655401476536,0 1.10200583434867,0.64651947306602 1.10200583434867,1.54137693964605 l 0.006950586032,5.55599536563383 c 0,2.87762449127559 2.5235783620254,5.21028993962188 5.6337861851427,5.21028993962188 l 7.67909629011471,0 c 0.98446602434463,0 1.8459188699353,-0.62345363104891 1.8459188699353,-1.58160498055696 z" />
  <path
     inkscape:connector-curvature="0"
     style="display:inline;overflow:visible;visibility:visible;fill:#4c7523;fill-opacity:1;fill-rule:evenodd;stroke:none;stroke-width:1;marker:none;enable-background:accumulate"
     id="path4197"
     d="m 25.50643677729397,25.30345596478211 c -0.70077062614655,0 -1.32342642050305,0.26017315178487 -1.82371880266949,0.76555392036713 -0.50004327595025,0.50511075834795 -0.76259600180018,1.13570311159199 -0.76259425979866,1.8473473111749 l 0,3.59720699174756 1.63159519793974,0 0,-3.59720699174756 c 0,-0.27276259671031 0.089000599237,-0.48604280980029 0.28375288424799,-0.68277400852862 0.19539334156732,-0.1973600612741 0.40230305512881,-0.28670557681038 0.67096498028044,-0.28670557681038 0.27429207403765,0 0.47809754090518,0.0888960791463 0.67391767284288,0.28670557681038 0.19475402701249,0.19673119872833 0.28375636825099,0.41001141181831 0.28375636825099,0.68277400852862 l 0,3.59720699174756 1.63159345593823,0 0,-3.59720699174756 c 0,-0.27276259671031 0.0890023412385,-0.48604280980029 0.28375811025251,-0.68277400852862 0.19581838993618,-0.19780949766411 0.39962385680375,-0.28670557681038 0.67392115684589,-0.28670557681038 0.26866366715313,0 0.47556815471012,0.0893455155363 0.6709580122744,0.28670557681038 0.19475402701249,0.19673119872833 0.28375636825101,0.41001141181831 0.28375636825101,0.68277400852862 l 0.008866787695,4.20315524960485 c 0,0.89661166210238 -0.8538577189994,1.65227275588425 -1.95081871697,1.65227275588425 l -5.26129748588756,-0.0206862679521 c -0.84652389263492,0 -1.56952420007293,-0.82395974705317 -1.56952420007293,-1.88283884997534 l 0,-7.91513575295581 -1.54291861098397,0 0,8.21957664715732 c 0,0.87209473282595 0.3191207409411,1.63685778450671 0.93994046570422,2.25527528918514 0.53062933849358,0.52376236853429 1.1687837203002,0.86327672117346 1.88578980053628,0.93995614371782 l 5.85836850404091,-1.393601209e-5 c 0.90022457323774,0 1.69111416359182,-0.33473081648791 2.32915879930314,-0.98430053420099 l 0.00296140257,0 c 0.54265089092623,-0.55752758383658 0.85988678623159,-1.22556948558033 0.93698254713724,-1.97739991803786 l -0.005905385125,-4.48986082641525 c 0,-0.7116441995829 -0.26254401584236,-1.34223655282694 -0.76259425979864,-1.84734731117491 -0.50028715616196,-0.50538076858224 -1.12294817652299,-0.76555392036712 -1.8237153186665,-0.76555392036712 -0.68786239494446,0 -1.28974307927177,0.25578504997677 -1.77643042963143,0.72416396444789 -0.48526413512453,-0.46760720780139 -1.082937885801,-0.72416396444789 -1.77051633449902,-0.72416396444789 z" />
  <path
     inkscape:connector-curvature="0"
     style="display:inline;overflow:visible;visibility:visible;fill:#4c7523;fill-opacity:1;fill-rule:evenodd;stroke:none;stroke-width:1;marker:none;enable-background:accumulate"
     id="path4201"
     d="m 23.65735617461487,38.62993650384029 c -3.70874212254058,0 -6.92720662960579,-2.81157650395748 -6.92720662960579,-6.51699488761362 l -0.003327222887,-4.49917705050009 0,-1.14728742164516 -2.35131009052658,0 0,-5.71654345096153 9.91553357495177,0.0466960925241 3.10173472776417,0.00667186579 c 3.71207457143256,0 6.92720488760428,2.8082301190534 6.92720488760428,6.51697572559699 l 0,11.30965738480785 -10.66262402129585,0 0,0 0,0 z m 9.15177217414024,-3.03381234681939 c 0,-2.46378590213596 0,-8.27584503798846 0,-8.27584503798846 0,-2.7648612494168 -2.42467971019861,-5.0061238784414 -5.41635304044868,-5.0061238784414 l -3.10506717665612,0 0,-0.00667186579 -8.39802031401521,-0.0366952618451 0,2.6848371839699 c 0,0 0.33730549472227,0 0.9407452704026,0 0.63868743426918,0 1.40722366122443,0.60020139487002 1.40722366122443,1.48097652122899 l 0.00667186579,5.67302999519949 c 0,2.76486299141828 2.42469190420919,5.00612213643988 5.41302581756123,5.00612213643988 l 7.37818643297751,0 c 0.94588765886532,0 1.77358574116274,-0.59902380184807 1.77358574116274,-1.51962979277333 z" />
</svg>
