<svg xmlns="http://www.w3.org/2000/svg" viewBox="0 0 79.999811 79.999195"><path d="m39.672.002c-17.806.146-33.961 12.252-38.473 30.32-5.349 21.413 7.689 43.13 29.12 48.49 21.435 5.319 43.14-7.721 48.48-29.13 5.332-21.434-7.71-43.12-29.14-48.49-3.347-.832-6.701-1.214-9.998-1.188m-19.373 25.861h.609.693 3.748.473 4.061 2.51 20.303c8.869 0 11.994 2.954 11.992 10.09v8.814c0 7.174-3.125 10.125-11.994 10.125h-17.16-6.389-.449l-16.273-20.99h10.152l10.506 13.521h.973.664 1.102 1.75 5.354 7.588c3.815 0 5.293-1.099 5.293-5.182v-3.953c0-4.14-1.479-5.186-5.293-5.186h-15.791v11.326l-5.225-6.764-9.197-11.807" fill="#3397cc"/></svg>