<?xml version="1.0" encoding="UTF-8" standalone="no"?>
<svg
   xmlns:dc="http://purl.org/dc/elements/1.1/"
   xmlns:cc="http://creativecommons.org/ns#"
   xmlns:rdf="http://www.w3.org/1999/02/22-rdf-syntax-ns#"
   xmlns:svg="http://www.w3.org/2000/svg"
   xmlns="http://www.w3.org/2000/svg"
   xmlns:sodipodi="http://sodipodi.sourceforge.net/DTD/sodipodi-0.dtd"
   xmlns:inkscape="http://www.inkscape.org/namespaces/inkscape"
   width="40"
   height="28"
   viewBox="0 0 40.00000000000001 28"
   id="svg2"
   version="1.1"
   inkscape:version="0.91 r13725"
   sodipodi:docname="gpm-keyboard-0001.svg"
   style="fill:#00E676">
  <metadata
     id="metadata10">
    <rdf:RDF>
      <cc:Work
         rdf:about="">
        <dc:format>image/svg+xml</dc:format>
        <dc:type
           rdf:resource="http://purl.org/dc/dcmitype/StillImage" />
        <dc:title></dc:title>
      </cc:Work>
    </rdf:RDF>
  </metadata>
  <defs
     id="defs8" />
  <sodipodi:namedview
     pagecolor="#ffffff"
     bordercolor="#666666"
     borderopacity="1"
     objecttolerance="10"
     gridtolerance="10"
     guidetolerance="10"
     inkscape:pageopacity="0"
     inkscape:pageshadow="2"
     inkscape:window-width="1366"
     inkscape:window-height="713"
     id="namedview6"
     showgrid="false"
     inkscape:snap-bbox="true"
     inkscape:bbox-nodes="true"
     inkscape:snap-page="true"
     inkscape:zoom="1.465191764744975"
     inkscape:cx="52.74546707154778"
     inkscape:cy="-2.075337256269734"
     inkscape:window-x="0"
     inkscape:window-y="30"
     inkscape:window-maximized="1"
     inkscape:current-layer="svg2"
     inkscape:object-paths="true"
     inkscape:snap-smooth-nodes="true"
     inkscape:snap-midpoints="true"
     inkscape:object-nodes="false"
     inkscape:snap-intersection-paths="true"
     inkscape:snap-nodes="false"
     fit-margin-top="0"
     fit-margin-left="0"
     fit-margin-right="0"
     fit-margin-bottom="0" />
  <path
     inkscape:connector-curvature="0"
     d="m 126.4881744384766,-27.90065383911133 -32.00000000000004,0 c -2.21000000000001,0 -3.98000000000002,1.79 -3.98000000000002,4 l -0.02,20.000000000000017 c 0,2.210000000000022 1.78999999999999,4 4.00000000000001,4 l 32.00000000000003,0 c 2.21,0 4,-1.789999999999978 4,-4 l 0,-19.999999999999996 c 0,-2.21000000000001 -1.79,-4 -4,-4 z"
     id="path4325" />
  <path
     d="m 36,3.552713678800501e-15 -32.000000000000007,0 C 1.789999999999996,3.552713678800501e-15 0.0199999999999996,1.789999999999999 0.0199999999999996,4 L 0,24.00000000000002 c 0,2.21000000000001 1.79,4 4.000000000000011,4 l 31.999999999999989,0 c 2.21000000000001,0 4,-1.78999999999999 4,-4 l 0,-20 C 40,1.790000000000012 38.21000000000001,1.4210854715202e-14 36,1.4210854715202e-14 Z M 17.99999999999999,6 l 4,0 0,4 -4,0 0,-4 z m 0,6 4,0 0,4 -4,0 0,-4 z m -6,-6 4,0 0,4 -4,0 0,-4 z m 0,6 4,0 0,4 -4,0 0,-4 z m -1.999999999999998,4 -3.999999999999998,0 0,-4 L 10,12 l -9e-15,4 z M 10,10 l -4.000000000000007,0 0,-4 L 10,6 l 0,4 z m 17.99999999999998,14.00000000000002 -16,0 0,-4.00000000000001 16,0 0,4.00000000000001 z m 0,-8.00000000000001 -4,0 0,-4 4,0 0,4 z m 0,-6 -4,0 0,-3.999999999999988 4,0 0,3.999999999999988 z m 6.00000000000001,6 -4.00000000000001,0 0,-4 4.00000000000001,0 0,4 z m 0,-6 -4.00000000000001,0 0,-3.999999999999988 4.00000000000001,0 0,3.999999999999988 z"
     id="path4"
     inkscape:connector-curvature="0" />
  <path
     id="path4163"
     d="m 128.418586730957,18.43828201293945 -31.99999999999997,0 c -2.21000000000001,0 -3.98000000000002,1.78999999999999 -3.98000000000002,4 l -0.02,20.00000000000002 c 0,2.21000000000002 1.78999999999999,4 4.00000000000001,4 l 31.99999999999996,0 c 2.21,0 4,-1.78999999999998 4,-4 l 0,-20 c 0,-2.21000000000001 -1.79,-4 -4,-4 z"
     inkscape:connector-curvature="0" />
  <rect
     style="opacity:1;fill:#000000;fill-opacity:1;fill-rule:nonzero;stroke:none;stroke-width:4;stroke-miterlimit:4;stroke-dasharray:none;stroke-opacity:1"
     id="rect4174"
     width="40"
     height="4"
     x="90.48817443847656"
     y="-27.90065383911133" />
  <rect
     y="22.43828201293945"
     x="92.41858673095703"
     height="24"
     width="40"
     id="rect4327"
     style="opacity:1;fill:#000000;fill-opacity:1;fill-rule:nonzero;stroke:none;stroke-width:4;stroke-miterlimit:4;stroke-dasharray:none;stroke-opacity:1" />
</svg>
