<?xml version="1.0" encoding="UTF-8" standalone="no"?>
<svg
   xmlns:dc="http://purl.org/dc/elements/1.1/"
   xmlns:cc="http://creativecommons.org/ns#"
   xmlns:rdf="http://www.w3.org/1999/02/22-rdf-syntax-ns#"
   xmlns:svg="http://www.w3.org/2000/svg"
   xmlns="http://www.w3.org/2000/svg"
   xmlns:sodipodi="http://sodipodi.sourceforge.net/DTD/sodipodi-0.dtd"
   xmlns:inkscape="http://www.inkscape.org/namespaces/inkscape"
   fill="#9E9E9E"
   width="48"
   height="48"
   viewBox="0 0 48 48"
   id="svg2"
   version="1.1"
   inkscape:version="0.91 r13725"
   sodipodi:docname="file-roller1.svg">
  <metadata
     id="metadata10">
    <rdf:RDF>
      <cc:Work
         rdf:about="">
        <dc:format>image/svg+xml</dc:format>
        <dc:type
           rdf:resource="http://purl.org/dc/dcmitype/StillImage" />
        <dc:title />
      </cc:Work>
    </rdf:RDF>
  </metadata>
  <defs
     id="defs8" />
  <sodipodi:namedview
     pagecolor="#ffffff"
     bordercolor="#666666"
     borderopacity="1"
     objecttolerance="10"
     gridtolerance="10"
     guidetolerance="10"
     inkscape:pageopacity="0"
     inkscape:pageshadow="2"
     inkscape:window-width="1366"
     inkscape:window-height="713"
     id="namedview6"
     showgrid="false"
     inkscape:zoom="6.9532167"
     inkscape:cx="11.67302448783991"
     inkscape:cy="13.020941"
     inkscape:window-x="0"
     inkscape:window-y="30"
     inkscape:window-maximized="1"
     inkscape:current-layer="svg2"
     inkscape:snap-bbox="true"
     inkscape:bbox-paths="true"
     inkscape:bbox-nodes="true" />
  <path
     d="M 12 6 C 11.07 6 10.239453125 6.42984375 9.689453125 7.08984375 L 6.919921875 10.44921875 C 6.339921875 11.14921875 5.999999999999999 12.03 6 13 L 6 38 C 6 40.21 7.790000000000001 42 10 42 L 38 42 C 40.21 42 42 40.21 42 38 L 42 13 C 42 12.03 41.65984374999999 11.14921875 41.08984375 10.44921875 L 38.3203125 7.08984375 C 37.7603125 6.42984375 36.93 6 36 6 L 12 6 z M 17.25 18 L 28.05078125 18 C 28.54578124999999 18 28.94921875 18.405390625 28.94921875 18.900390625 L 28.94921875 19.80078125 L 31.650390625 19.80078125 L 31.650390625 27 L 24.44921875 27 L 24.44921875 35.099609375 C 24.44921875 35.59460937499999 24.04578125 36 23.55078125 36 L 21.75 36 C 21.25499999999999 36 20.849609375 35.59460937499999 20.849609375 35.099609375 L 20.849609375 25.19921875 L 29.849609375 25.19921875 L 29.849609375 21.599609375 L 28.94921875 21.599609375 L 28.94921875 22.5 C 28.94921875 22.995 28.54578125 23.400390625 28.05078125 23.400390625 L 17.25 23.400390625 C 16.755 23.400390625 16.349609375 22.995 16.349609375 22.5 L 16.349609375 18.900390625 C 16.349609375 18.405390625 16.755 18 17.25 18 z "
     id="path4188" />
  <path
     d="m 10.25,10 1.63,-2 24,0 1.87,2 -27.5,0 z"
     id="path4"
     style="fill:#ffffff;fill-opacity:1" />
  <text
     xml:space="preserve"
     style="font-style:normal;font-variant:normal;font-weight:500;font-stretch:normal;font-size:12.5px;line-height:120%;font-family:Ubuntu;-inkscape-font-specification:'Ubuntu, Medium';text-align:center;letter-spacing:0px;word-spacing:0px;writing-mode:lr;text-anchor:middle;opacity:1;fill:#ffffff;fill-opacity:1;stroke:none;stroke-width:1px;stroke-linecap:butt;stroke-linejoin:miter;stroke-opacity:1;"
     x="23.966894"
     y="33.6875"
     id="text4138"
     sodipodi:linespacing="120%"><tspan
       sodipodi:role="line"
       id="tspan4140"
       x="23.966894"
       y="33.6875" /></text>
</svg>
