<?xml version="1.0" encoding="UTF-8" standalone="no"?>
<svg
   xmlns:dc="http://purl.org/dc/elements/1.1/"
   xmlns:cc="http://creativecommons.org/ns#"
   xmlns:rdf="http://www.w3.org/1999/02/22-rdf-syntax-ns#"
   xmlns:svg="http://www.w3.org/2000/svg"
   xmlns="http://www.w3.org/2000/svg"
   xmlns:xlink="http://www.w3.org/1999/xlink"
   xmlns:sodipodi="http://sodipodi.sourceforge.net/DTD/sodipodi-0.dtd"
   xmlns:inkscape="http://www.inkscape.org/namespaces/inkscape"
   width="32"
   height="32"
   viewBox="0 0 32 32"
   id="svg2"
   version="1.1"
   inkscape:version="0.91 r13725"
   sodipodi:docname="xfce4-whiskermenu.svg"
   style="fill:#4caf50">
  <metadata
     id="metadata10">
    <rdf:RDF>
      <cc:Work
         rdf:about="">
        <dc:format>image/svg+xml</dc:format>
        <dc:type
           rdf:resource="http://purl.org/dc/dcmitype/StillImage" />
        <dc:title />
      </cc:Work>
    </rdf:RDF>
  </metadata>
  <defs
     id="defs8">
    <linearGradient
       gradientTransform="translate(287,-83)"
       x1="112.4985427856445"
       y1="6.137209892272949"
       x2="112.4985275268555"
       y2="129.3468017578125"
       id="path1082_2_"
       gradientUnits="userSpaceOnUse">
      <stop
         style="stop-color:#ffffff;stop-opacity:0"
         offset="0"
         id="stop193" />
      <stop
         style="stop-color:#ffffff;stop-opacity:0.27450982;"
         offset="1"
         id="stop195" />
      <midPointStop
         offset="0"
         style="stop-color:#FFFFFF"
         id="midPointStop197" />
      <midPointStop
         offset="0.5"
         style="stop-color:#FFFFFF"
         id="midPointStop199" />
      <midPointStop
         offset="1"
         style="stop-color:#000000"
         id="midPointStop201" />
    </linearGradient>
    <linearGradient
       id="linearGradient3388">
      <stop
         id="stop3390"
         offset="0"
         style="stop-color:#000000;stop-opacity:0;" />
      <stop
         id="stop3392"
         offset="1"
         style="stop-color:#000000;stop-opacity:0.37113401;" />
    </linearGradient>
    <linearGradient
       id="linearGradient4346"
       inkscape:collect="always">
      <stop
         id="stop4348"
         offset="0"
         style="stop-color:#00bdec;stop-opacity:1" />
      <stop
         id="stop4350"
         offset="1"
         style="stop-color:#40bfde;stop-opacity:1" />
    </linearGradient>
    <linearGradient
       gradientUnits="userSpaceOnUse"
       y2="666.9779052734375"
       x2="616.4855346679688"
       y1="634.150634765625"
       x1="400.6141967773438"
       id="linearGradient4352"
       xlink:href="#linearGradient4346"
       inkscape:collect="always" />
    <linearGradient
       id="linearGradient5323"
       inkscape:collect="always">
      <stop
         id="stop5325"
         offset="0"
         style="stop-color:#6e6e6e;stop-opacity:1" />
      <stop
         id="stop5327"
         offset="1"
         style="stop-color:#4d4d4d;stop-opacity:1" />
    </linearGradient>
    <linearGradient
       gradientUnits="userSpaceOnUse"
       y2="348.96875"
       x2="650.8136596679688"
       y1="238.0823669433594"
       x1="291.8359069824219"
       id="linearGradient5329"
       xlink:href="#linearGradient5323"
       inkscape:collect="always" />
    <linearGradient
       y2="303.1402893066406"
       x2="606.9124755859375"
       y1="104.5066528320312"
       x1="541.3350219726562"
       gradientTransform="matrix(-0.3937741,0,0,0.393752,978.3496999999998,416.9815)"
       gradientUnits="userSpaceOnUse"
       id="linearGradient2216"
       xlink:href="#path1082_2_"
       inkscape:collect="always" />
  </defs>
  <sodipodi:namedview
     pagecolor="#ffffff"
     bordercolor="#666666"
     borderopacity="1"
     objecttolerance="10"
     gridtolerance="10"
     guidetolerance="10"
     inkscape:pageopacity="0"
     inkscape:pageshadow="2"
     inkscape:window-width="1366"
     inkscape:window-height="713"
     id="namedview6"
     showgrid="false"
     fit-margin-top="0"
     fit-margin-left="0"
     fit-margin-right="0"
     fit-margin-bottom="0"
     inkscape:zoom="11.55594948609662"
     inkscape:cx="2.122588278365033"
     inkscape:cy="21.21392083134557"
     inkscape:window-x="0"
     inkscape:window-y="30"
     inkscape:window-maximized="1"
     inkscape:current-layer="svg2"
     inkscape:snap-bbox="true"
     inkscape:bbox-nodes="true" />
  <path
     style="fill:#4caf50;fill-opacity:1"
     d="M 0 0 L 0 8 L 8 8 L 8 0 L 0 0 z M 12 0 L 12 8 L 12.654296875 8 C 13.90613827187636 5.236042297873022 14.75106023713038 3.062066259161309 16 0 L 12 0 z M 16 0 C 17.2998957408817 3.05048517234543 18.18333207566187 5.204269505997717 19.482421875 8 L 20 8 L 20 0 L 16 0 z M 24 0 L 24 8 L 32 8 L 32 0 L 24 0 z M 0 12 L 0 20 L 6.578125 20 C 7.077280413594398 19.07071613557881 7.569120438857839 18.14960569667805 8 17.333984375 L 8 12 L 0 12 z M 14.587890625 12 C 15.08908762696787 12.25032085407793 15.62462989605623 12.50070076711712 16.23046875 12.75 C 15.86192402865767 12.49224083695757 15.54298846460208 12.24617023713251 15.224609375 12 L 14.587890625 12 z M 24 12 L 24 17.021484375 C 24.44454582003601 17.87463568162514 25.05591894265228 19.01896672384788 25.57421875 20 L 32 20 L 32 12 L 24 12 z M 15.859375 18.666015625 C 15.05870286159866 18.72471532614734 14.32787532611954 19.22060739079336 13.744140625 20 L 18.314453125 20 C 17.73180046021911 19.23432333816475 17.00852697581628 18.7358800908196 16.20703125 18.66796875 C 16.09004693238371 18.65805651318619 15.97375673405734 18.65762995340752 15.859375 18.666015625 z M 0 24 L 0 32 C 1.691180164647618 28.96129277880506 3.13605294611896 26.34216836317099 4.416015625 24 L 0 24 z M 0 32 L 8 32 L 8 27.982421875 C 5.6114809137884 28.9306076870171 3.009012697516519 30.26284435639724 0 32 z M 12.455078125 24 C 12.4508131642383 24.08366976153789 12.43569211466 24.1613691518931 12.43359375 24.24609375 L 12.4296875 24.40625 C 12.423624375 25.16843500000002 12.5073425 25.90258125 12.6640625 26.578125 C 12.44510468654413 26.61931901731719 12.22105557852847 26.6773901580572 12 26.7265625 L 12 32 L 20 32 L 20 26.724609375 C 19.82735567598015 26.6862098524158 19.65181763580237 26.6390011889522 19.48046875 26.60546875 C 19.6011875 26.0594775 19.67234125 25.4714025 19.6875 24.859375 C 19.6947560843816 24.56639978712991 19.6728172528754 24.2836646971631 19.654296875 24 L 12.455078125 24 z M 25.23046875 24 C 27.09988386859374 25.12733124780274 28.2197343239931 26.15947922795129 29.2890625 26.98828125 C 30.12993625 28.54752125000002 31.01350875 30.1837975 32 32 L 32 24 L 27.689453125 24 C 27.88334618519195 24.36192455250939 27.96929123191698 24.53688688164668 28.171875 24.9140625 C 27.63607225329184 24.59235756365723 27.02280066231156 24.2873404829699 26.306640625 24 L 25.23046875 24 z M 32 32 C 28.99172380029282 30.26326808399088 26.38875449167869 28.92892787979051 24 27.98046875 L 24 32 L 32 32 z "
     id="path4" />
</svg>
