<svg fill="#673ab7" height="48" viewBox="0 0 48 48" width="48" xmlns="http://www.w3.org/2000/svg"><path d="m10 6c-2.21 0-4 1.79-4 4v28c0 2.21 1.79 4 4 4h28c2.21 0 4-1.79 4-4v-28c0-2.21-1.79-4-4-4zm7.365234 5.734375c.813802 0 1.446778.32373 1.898438.970703.455729.642904.683594 1.491048.683594 2.544922v.128906c0 .960287-.226075 1.734212-.677735 2.324219s-1.081054.886719-1.886719.886719c-.374348 0-.70524-.068848-.99414-.203125-.2889-.134278-.536621-.33138-.744141-.591797v3.205078h-1.484375v-9.142578h1.251953l.146485.830078c.211588-.309245.466634-.546224.763672-.708984.301106-.162761.648274-.244141 1.042968-.244141zm7.226563 0c.687663 0 1.222982.209798 1.605469.628906.386556.415039.580078 1.064291.580078 1.947266v4.150391h-1.484375v-4.138672c0-.49642-.103028-.847168-.310547-1.054688-.203451-.211588-.514486-.318359-.933594-.318359-.2889 0-.547526.065104-.77539.195312-.227865.12614-.414063.301595-.560547.525391v4.791016h-1.484375v-6.603516h1.355468l.085938.951172c.215657-.337728.485026-.599935.810547-.78711.32959-.191243.700358-.287109 1.111328-.287109zm6.066406 0c.394694 0 .742025.086914 1.039063.257813.301106.166829.554199.407226.761718.724609l.146485-.859375h1.234375v6.603516c0 .850423-.26416 1.506835-.789063 1.970703-.524902.463867-1.268066.697265-2.232422.697265-.321451 0-.670573-.047038-1.044921-.140625-.37028-.089518-.704753-.210774-1.00586-.361328l.316406-1.166015c.244141.126139.513672.223795.806641.292968.297038.073242.600749.111328.914063.111328.537109 0 .931477-.115722 1.179687-.347656.24821-.227864.371094-.580566.371094-1.05664v-.677735c-.20752.264486-.453451.465169-.738281.603516-.280762.134277-.604493.203125-.970704.203125-.809733 0-1.444498-.296712-1.904296-.886719-.459799-.590007-.689454-1.363932-.689454-2.324219v-.128906c0-1.049805.229655-1.897949.689454-2.544922.459798-.646973 1.098144-.970703 1.916015-.970703zm-13.707031 1.214844c-.309245 0-.571452.066894-.78711.201172-.215657.130208-.389322.312825-.519531.548828v2.986328c.130209.231933.303874.41097.519531.537109.215658.122071.481446.181641.798829.181641.504557 0 .880696-.184408 1.128906-.554688.252279-.374349.378906-.86442.378906-1.470703v-.128906c0-.675456-.128418-1.227051-.384765-1.654297-.252279-.431315-.630209-.646484-1.134766-.646484zm14.085937 0c-.508626 0-.886556.213379-1.134765.640625-.244141.427246-.367188.980631-.367188 1.660156v.128906c0 .606283.121257 1.092774.361328 1.458985.244141.362142.62028.542968 1.128907.542968.317382 0 .58317-.065104.798828-.195312.219726-.134277.396972-.326009.53125-.574219v-2.892578c-.138347-.240072-.317383-.428223-.53711-.5625-.215657-.138346-.476074-.207031-.78125-.207031zm-2.037109 11.050781 9 12h-28l7-9 5 6.009766z" fill="#673ab7"/></svg>