<svg fill="#e91e63" height="48" viewBox="0 0 48 48" width="48" xmlns="http://www.w3.org/2000/svg"><path d="m10 6c-2.21 0-4 1.79-4 4v28c0 2.21 1.79 4 4 4h28c2.21 0 4-1.79 4-4v-28c0-2.21-1.79-4-4-4zm16.828125 4.222656c.142415 0 .287109.010742.433594.035156.146484.020346.311035.051107.49414.091797l-.152343 1.148438c-.081381-.016276-.171713-.030762-.273438-.042969-.097656-.012207-.204427-.017578-.318359-.017578-.321452 0-.563802.090332-.726563.273438-.158691.183105-.238281.445312-.238281.787109v.769531h1.34375v1.09961h-1.34375v5.503906h-1.482422v-5.503906h-1.007812v-1.09961h1.007812v-.769531c0-.728353.197103-1.2889.591797-1.683594.398763-.394694.955729-.591797 1.671875-.591797zm4.394531 0c.142416 0 .28711.010742.433594.035156.146484.020346.311035.051107.494141.091797l-.152344 1.148438c-.08138-.016276-.171712-.030762-.273438-.042969-.097656-.012207-.204427-.017578-.318359-.017578-.321452 0-.563802.090332-.726562.273438-.158692.183105-.238282.445312-.238282.787109v.769531h1.34375v1.09961h-1.34375v5.503906h-1.482422v-5.503906h-1.007812v-1.09961h1.007812v-.769531c0-.728353.197103-1.2889.591797-1.683594.398763-.394694.955729-.591797 1.671875-.591797zm-10.289062.126953h1.482422v1.300782h-1.482422zm-4.078125 1.3125h1.476562v1.605469h1.185547v1.09961h-1.185547v3.648437c0 .272624.059733.467936.177735.585937.118001.113933.27539.171876.470703.171876.08138 0 .16097-.007325.238281-.019532.077311-.016276.149577-.036133.21875-.060547l.158203 1.087891c-.126139.069173-.276204.121582-.451172.158203-.174967.04069-.355794.060547-.542969.060547-.545247 0-.972005-.15918-1.28125-.476562-.309244-.321452-.464843-.824219-.464843-1.507813v-3.648437h-1.00586v-1.09961h1.00586zm4.078125 1.605469h1.482422v6.603516h-1.482422zm8.066406 10.732422 9 12h-28l7-9 5 6.009766z" fill="#e91e63"/></svg>