<?xml version="1.0" encoding="UTF-8" standalone="no"?>
<svg
   xmlns:dc="http://purl.org/dc/elements/1.1/"
   xmlns:cc="http://creativecommons.org/ns#"
   xmlns:rdf="http://www.w3.org/1999/02/22-rdf-syntax-ns#"
   xmlns:svg="http://www.w3.org/2000/svg"
   xmlns="http://www.w3.org/2000/svg"
   xmlns:xlink="http://www.w3.org/1999/xlink"
   xmlns:sodipodi="http://sodipodi.sourceforge.net/DTD/sodipodi-0.dtd"
   xmlns:inkscape="http://www.inkscape.org/namespaces/inkscape"
   width="48"
   height="48"
   viewBox="0 0 48 48"
   id="svg2"
   version="1.1"
   inkscape:version="0.91 r13725"
   sodipodi:docname="application-pdf4.svg"
   fill="#8BC34A">
  <metadata
     id="metadata10">
    <rdf:RDF>
      <cc:Work
         rdf:about="">
        <dc:format>image/svg+xml</dc:format>
        <dc:type
           rdf:resource="http://purl.org/dc/dcmitype/StillImage" />
        <dc:title></dc:title>
      </cc:Work>
    </rdf:RDF>
  </metadata>
  <defs
     id="defs8">
    <linearGradient
       id="linearGradient3174">
      <stop
         offset="0"
         style="stop-color:#c30000;stop-opacity:1"
         id="stop3176" />
      <stop
         offset="1"
         style="stop-color:#f12300;stop-opacity:1"
         id="stop3178" />
    </linearGradient>
    <linearGradient
       gradientTransform="scale(1.0058652,0.994169)"
       gradientUnits="userSpaceOnUse"
       id="ButtonShadow"
       y2="7.0165396"
       x2="45.447727"
       y1="92.539597"
       x1="45.447727">
      <stop
         offset="0"
         style="stop-color:#000000;stop-opacity:1"
         id="stop3750" />
      <stop
         offset="1"
         style="stop-color:#000000;stop-opacity:0.58823532"
         id="stop3752" />
    </linearGradient>
    <linearGradient
       id="linearGradient3737">
      <stop
         offset="0"
         style="stop-color:#ffffff;stop-opacity:1"
         id="stop3739" />
      <stop
         offset="1"
         style="stop-color:#ffffff;stop-opacity:0"
         id="stop3741" />
    </linearGradient>
    <linearGradient
       id="linearGradient3700">
      <stop
         offset="0"
         style="stop-color:#e6e6e6;stop-opacity:1"
         id="stop3702" />
      <stop
         offset="1"
         style="stop-color:#f5f5f5;stop-opacity:1"
         id="stop3704" />
    </linearGradient>
    <linearGradient
       gradientUnits="userSpaceOnUse"
       xlink:href="#linearGradient3700"
       id="linearGradient3706"
       y2="5.9877172"
       x2="48"
       y1="90"
       x1="48" />
    <filter
       id="filter3174"
       color-interpolation-filters="sRGB">
      <feGaussianBlur
         id="feGaussianBlur3176"
         stdDeviation="1.71" />
    </filter>
    <linearGradient
       gradientUnits="userSpaceOnUse"
       xlink:href="#linearGradient3737"
       id="linearGradient3188"
       y2="63.893143"
       x2="36.357143"
       y1="6"
       x1="36.357143" />
    <linearGradient
       gradientUnits="userSpaceOnUse"
       xlink:href="#linearGradient3174"
       id="linearGradient3203"
       y2="6.398416"
       x2="56.633896"
       y1="89.164001"
       x1="56.633896"
       gradientTransform="translate(9.7247346,-24.801049)" />
    <linearGradient
       gradientTransform="matrix(1.0058652,0,0,0.994169,100,0)"
       gradientUnits="userSpaceOnUse"
       id="ButtonShadow-0"
       y2="7.0165396"
       x2="45.447727"
       y1="92.539597"
       x1="45.447727">
      <stop
         offset="0"
         style="stop-color:#000000;stop-opacity:1"
         id="stop3750-8" />
      <stop
         offset="1"
         style="stop-color:#000000;stop-opacity:0.58823532"
         id="stop3752-5" />
    </linearGradient>
    <linearGradient
       gradientTransform="matrix(1.0238095,0,0,1.0119048,-1.1428571,-98.071429)"
       gradientUnits="userSpaceOnUse"
       xlink:href="#ButtonShadow-0"
       id="linearGradient3780"
       y2="90.238609"
       x2="32.251034"
       y1="6.1317081"
       x1="32.251034" />
    <linearGradient
       gradientTransform="translate(0,-97)"
       gradientUnits="userSpaceOnUse"
       xlink:href="#ButtonShadow-0"
       id="linearGradient3721"
       y2="90.238609"
       x2="32.251034"
       y1="6.1317081"
       x1="32.251034" />
    <radialGradient
       gradientTransform="matrix(1.1573129,0,0,0.99590774,-7.551021,0.1971319)"
       gradientUnits="userSpaceOnUse"
       xlink:href="#linearGradient3737"
       id="radialGradient2903"
       fy="90.171875"
       fx="48"
       r="42"
       cy="90.171875"
       cx="48" />
    <clipPath
       id="clipPath3613">
      <rect
         style="fill:#ffffff;fill-opacity:1;fill-rule:nonzero;stroke:none"
         id="rect3615"
         y="6"
         x="6"
         ry="6"
         rx="6"
         height="84"
         width="84" />
    </clipPath>
    <filter
       id="filter3794"
       height="1.3839999"
       width="1.3839999"
       y="-0.192"
       x="-0.192"
       color-interpolation-filters="sRGB">
      <feGaussianBlur
         stdDeviation="5.28"
         id="feGaussianBlur3796" />
    </filter>
    <linearGradient
       gradientUnits="userSpaceOnUse"
       xlink:href="#linearGradient3737"
       id="linearGradient3822"
       y2="138.66119"
       x2="48"
       y1="20.220806"
       x1="48" />
  </defs>
  <sodipodi:namedview
     pagecolor="#ffffff"
     bordercolor="#666666"
     borderopacity="1"
     objecttolerance="10"
     gridtolerance="10"
     guidetolerance="10"
     inkscape:pageopacity="0"
     inkscape:pageshadow="2"
     inkscape:window-width="1366"
     inkscape:window-height="713"
     id="namedview6"
     showgrid="false"
     inkscape:snap-bbox="true"
     inkscape:snap-bbox-midpoints="true"
     inkscape:snap-object-midpoints="true"
     inkscape:snap-bbox-edge-midpoints="true"
     inkscape:bbox-nodes="true"
     inkscape:zoom="6.9532167"
     inkscape:cx="-15.98432"
     inkscape:cy="25.648579"
     inkscape:window-x="0"
     inkscape:window-y="30"
     inkscape:window-maximized="1"
     inkscape:current-layer="svg2" />
  <path
     style="fill:#d81000;fill-opacity:1"
     d="M 12 4 C 9.79 4 8.0195312 5.79 8.0195312 8 L 8 40 C 8 42.21 9.7704688 44 11.980469 44 L 36 44 C 38.21 44 40 42.21 40 40 L 40 16 L 28 4 L 12 4 z M 26 7 L 37 18 L 26 18 L 26 7 z "
     id="path4290" />
  <path
     style="fill:#d81000;fill-opacity:1"
     d="M 16 24 L 16 28 L 32 28 L 32 24 L 16 24 z M 16 32 L 16 36 L 32 36 L 32 32 L 16 32 z "
     id="path4288" />
  <g
     id="layer2"
     style="display:none"
     transform="translate(-51.254237,6.8389831)">
    <rect
       width="86"
       height="85"
       rx="6"
       ry="6"
       x="5"
       y="7"
       id="rect3745"
       style="opacity:0.9;fill:url(#ButtonShadow);fill-opacity:1;fill-rule:nonzero;stroke:none;filter:url(#filter3174)" />
  </g>
  <path
     style="fill:#ffffff;fill-opacity:1;stroke:#d81000;stroke-width:2.76645875;stroke-miterlimit:4;stroke-dasharray:none;stroke-opacity:1"
     d="m 13.037422,5.3832294 c -2.018942,0 -3.6363521,1.6662009 -3.6363521,3.7233541 L 9.3832294,38.893416 c 0,2.057154 1.6174086,3.723355 3.6363516,3.723355 l 21.943001,0 c 2.018942,0 3.654193,-1.666201 3.654193,-3.723355 l 0,-22.340124 -10.96258,-11.1700626 -14.616772,0 z"
     id="path4317"
     inkscape:connector-curvature="0" />
  <path
     style="fill:#ffffff;fill-opacity:1;stroke:#d81000;stroke-width:3;stroke-miterlimit:4;stroke-dasharray:none;stroke-opacity:1"
     d="m 58.745763,-14.966102 11,11.0000003 -11,0 0,-11.0000003 z"
     id="path4311"
     inkscape:connector-curvature="0" />
  <path
     style="display:inline;fill:#d81000;fill-opacity:1;fill-rule:evenodd;stroke:none"
     id="path4144"
     inkscape:connector-curvature="0"
     d="m 27.992323,14.918586 c -1.133803,2.496087 -1.992961,5.0638 -2.563008,7.65134 -0.295887,0.235462 -0.596543,0.455463 -0.904593,0.678444 -3.514507,2.543948 -7.73036,4.206151 -11.684313,4.108354 l 0,1.884569 c 3.498785,0.330306 5.826351,0.92242 7.410834,3.029663 1.56712,2.084148 2.444561,4.145005 2.444561,6.770088 l 1.206122,0 c 0,-2.617244 -1.135621,-5.726246 -2.670708,-7.486224 -1.517042,-1.739289 -3.432981,-2.544852 -6.016255,-3.142735 3.454573,-0.46251 6.884603,-1.998508 9.837438,-4.108355 -0.851593,4.94527 -0.712785,9.967228 0.339222,14.737314 l 8.329786,0 c -4.1622,-3.773801 -5.962712,-10.538472 -5.955233,-16.923415 2.347019,-2.184846 4.170938,-4.689845 5.126022,-7.199043 l -1.281504,0 c -0.79409,1.838033 -2.125075,3.724178 -3.806826,5.465241 0.102401,-1.923705 0.409291,-3.765096 0.82921,-5.465241 l -0.640755,0 z" />
</svg>
