<?xml version="1.0" encoding="UTF-8" standalone="no"?>
<svg
   xmlns:dc="http://purl.org/dc/elements/1.1/"
   xmlns:cc="http://creativecommons.org/ns#"
   xmlns:rdf="http://www.w3.org/1999/02/22-rdf-syntax-ns#"
   xmlns:svg="http://www.w3.org/2000/svg"
   xmlns="http://www.w3.org/2000/svg"
   xmlns:sodipodi="http://sodipodi.sourceforge.net/DTD/sodipodi-0.dtd"
   xmlns:inkscape="http://www.inkscape.org/namespaces/inkscape"
   fill="#8BC34A"
   width="48"
   height="48"
   viewBox="0 0 48 48"
   id="svg2"
   version="1.1"
   inkscape:version="0.91 r13725"
   sodipodi:docname="text-xml.svg">
  <metadata
     id="metadata10">
    <rdf:RDF>
      <cc:Work
         rdf:about="">
        <dc:format>image/svg+xml</dc:format>
        <dc:type
           rdf:resource="http://purl.org/dc/dcmitype/StillImage" />
      </cc:Work>
    </rdf:RDF>
  </metadata>
  <defs
     id="defs8" />
  <sodipodi:namedview
     pagecolor="#ffffff"
     bordercolor="#666666"
     borderopacity="1"
     objecttolerance="10"
     gridtolerance="10"
     guidetolerance="10"
     inkscape:pageopacity="0"
     inkscape:pageshadow="2"
     inkscape:window-width="1366"
     inkscape:window-height="713"
     id="namedview6"
     showgrid="false"
     inkscape:snap-bbox="true"
     inkscape:bbox-nodes="true"
     inkscape:snap-bbox-midpoints="true"
     inkscape:snap-bbox-edge-midpoints="true"
     inkscape:snap-object-midpoints="true"
     inkscape:bbox-paths="false"
     inkscape:snap-others="true"
     inkscape:zoom="1.7383042"
     inkscape:cx="-93.970896"
     inkscape:cy="68.436345"
     inkscape:window-x="0"
     inkscape:window-y="30"
     inkscape:window-maximized="1"
     inkscape:current-layer="svg2" />
  <path
     d="M 12 -0.11328125 C 9.79 -0.11328125 8.0195313 1.6767188 8.0195312 3.8867188 L 8 35.886719 C 8 38.096719 9.7704686 39.886719 11.980469 39.886719 L 36 39.886719 C 38.21 39.886719 40 38.096719 40 35.886719 L 40 11.886719 L 28 -0.11328125 L 12 -0.11328125 z M 26 2.8867188 L 37 13.886719 L 26 13.886719 L 26 2.8867188 z M 24.787109 18.027344 L 25.875 18.027344 L 23.078125 25.746094 L 21.988281 25.746094 L 24.787109 18.027344 z M 21.294922 20.140625 L 21.294922 21.322266 L 18.472656 22.40625 L 18.380859 22.421875 L 18.380859 22.449219 L 18.472656 22.464844 L 21.294922 23.529297 L 21.294922 24.714844 L 17.208984 22.898438 L 17.208984 21.957031 L 21.294922 20.140625 z M 26.705078 20.140625 L 30.923828 21.957031 L 30.923828 22.898438 L 26.705078 24.714844 L 26.705078 23.548828 L 29.660156 22.445312 L 29.748047 22.435547 L 29.751953 22.40625 L 29.660156 22.386719 L 26.705078 21.308594 L 26.705078 20.140625 z M 30.728516 25.962891 L 31.914062 25.962891 L 31.914062 33.580078 L 30.728516 33.580078 L 30.728516 25.962891 z M 24.658203 28.199219 C 25.003255 28.199219 25.299479 28.277344 25.546875 28.433594 C 25.794271 28.589844 25.979818 28.824219 26.103516 29.136719 C 26.266276 28.84375 26.48112 28.615234 26.748047 28.449219 C 27.014974 28.283203 27.327474 28.199219 27.685547 28.199219 C 28.216146 28.199219 28.635417 28.38151 28.941406 28.746094 C 29.250651 29.107422 29.404297 29.657552 29.404297 30.396484 L 29.404297 33.580078 L 28.21875 33.580078 L 28.21875 30.392578 C 28.21875 29.943359 28.140625 29.627604 27.984375 29.445312 C 27.83138 29.263021 27.60026 29.171875 27.291016 29.171875 C 27.037109 29.171875 26.822266 29.240234 26.646484 29.376953 C 26.470703 29.513672 26.34375 29.696615 26.265625 29.927734 C 26.265625 29.976562 26.266276 30.01888 26.269531 30.054688 C 26.272786 30.090495 26.275391 30.125651 26.275391 30.158203 L 26.275391 33.580078 L 25.087891 33.580078 L 25.087891 30.392578 C 25.087891 29.959635 25.009115 29.647786 24.849609 29.458984 C 24.693359 29.266927 24.46224 29.171875 24.15625 29.171875 C 23.915365 29.171875 23.710286 29.218099 23.541016 29.3125 C 23.375 29.403646 23.242188 29.533854 23.144531 29.703125 L 23.144531 33.580078 L 21.958984 33.580078 L 21.958984 28.296875 L 23.042969 28.296875 L 23.105469 28.986328 C 23.277995 28.735677 23.495443 28.541016 23.755859 28.404297 C 24.016276 28.267578 24.316406 28.199219 24.658203 28.199219 z M 16.464844 28.296875 L 17.8125 28.296875 L 18.775391 30.109375 L 19.751953 28.296875 L 21.113281 28.296875 L 19.453125 30.910156 L 21.162109 33.580078 L 19.814453 33.580078 L 18.794922 31.724609 L 17.773438 33.580078 L 16.416016 33.580078 L 18.125 30.910156 L 16.464844 28.296875 z "
     id="path4321" />
</svg>
