<?xml version="1.0" encoding="UTF-8" standalone="no"?>
<svg
   xmlns:dc="http://purl.org/dc/elements/1.1/"
   xmlns:cc="http://creativecommons.org/ns#"
   xmlns:rdf="http://www.w3.org/1999/02/22-rdf-syntax-ns#"
   xmlns:svg="http://www.w3.org/2000/svg"
   xmlns="http://www.w3.org/2000/svg"
   xmlns:sodipodi="http://sodipodi.sourceforge.net/DTD/sodipodi-0.dtd"
   xmlns:inkscape="http://www.inkscape.org/namespaces/inkscape"
   fill="#607D8B"
   width="48"
   height="48"
   viewBox="0 0 48 48"
   id="svg2"
   version="1.1"
   inkscape:version="0.91 r13725"
   sodipodi:docname="media-optical-burn.svg">
  <metadata
     id="metadata10">
    <rdf:RDF>
      <cc:Work
         rdf:about="">
        <dc:format>image/svg+xml</dc:format>
        <dc:type
           rdf:resource="http://purl.org/dc/dcmitype/StillImage" />
      </cc:Work>
    </rdf:RDF>
  </metadata>
  <defs
     id="defs8" />
  <sodipodi:namedview
     pagecolor="#ffffff"
     bordercolor="#666666"
     borderopacity="1"
     objecttolerance="10"
     gridtolerance="10"
     guidetolerance="10"
     inkscape:pageopacity="0"
     inkscape:pageshadow="2"
     inkscape:window-width="1366"
     inkscape:window-height="713"
     id="namedview6"
     showgrid="false"
     inkscape:snap-bbox="true"
     inkscape:bbox-nodes="true"
     inkscape:bbox-paths="true"
     inkscape:snap-page="true"
     inkscape:object-paths="true"
     inkscape:snap-intersection-paths="true"
     inkscape:snap-smooth-nodes="false"
     inkscape:snap-midpoints="true"
     inkscape:object-nodes="true"
     inkscape:snap-nodes="true"
     inkscape:snap-bbox-edge-midpoints="true"
     inkscape:zoom="5.368001304915646"
     inkscape:cx="35.38845069510636"
     inkscape:cy="-4.049103853510086"
     inkscape:window-x="0"
     inkscape:window-y="30"
     inkscape:window-maximized="1"
     inkscape:current-layer="svg2" />
  <ellipse
     style="opacity:1;fill:#607D8B;fill-opacity:1;fill-rule:nonzero;stroke:none;stroke-width:4.4010000229;stroke-miterlimit:4;stroke-dasharray:none;stroke-opacity:1"
     id="ellipse4211"
     cx="98.72183990478516"
     cy="28.75676727294922"
     rx="7.501172542572021"
     ry="9.999999046325684" />
  <path
     d="M 24 4 C 12.95 4 4 12.95 4 24 C 4 35.05 12.95 44 24 44 C 25.84816374918761 44 27.6295023112505 43.73040560699378 29.328125 43.26171875 A 11.50100040435791 14 0 0 1 28.998046875 40 A 11.50100040435791 14 0 0 1 40.498046875 26 A 11.50100040435791 14 0 0 1 43.826171875 26.6015625 C 43.93684317495552 25.74938158487145 44 24.88245595100301 44 24 C 44 12.95 35.05 4 24 4 z M 24 15 C 28.97 15 33 19.03 33 24 C 33 28.97 28.97 33 24 33 C 19.03 33 15 28.97 15 24 C 15 19.03 19.03 15 24 15 z M 24 22 C 22.9 22 22 22.9 22 24 C 22 25.1 22.9 26 24 26 C 25.1 26 26 25.1 26 24 C 26 22.9 25.1 22 24 22 z "
     id="path4" />
  <g
     style="fill:#607D8B"
     id="g4148"
     transform="matrix(0.6076326786859487,0,0,0.6076326786859488,76.97336839744221,41.01080412298362)">
    <path
       id="path4140"
       d="M 27,1.34 C 27,1.34 28.48,6.64 28.48,10.94 c 0,4.12 -2.7,7.47 -6.83,7.47 -4.13000000000001,0 -7.25,-3.34 -7.25,-7.47 l 0.05,-0.72 C 10.43,15.03 8,21.23 8,28 8,36.84000000000001 15.16,44 24,44 32.84000000000001,44 40,36.84000000000001 40,28 40,17.21 34.81,7.59 27,1.34 Z M 23.42,38 c -3.56,0 -6.45,-2.81 -6.45,-6.28 0,-3.25 2.09,-5.53 5.63,-6.24 3.54,-0.71000000000002 7.2,-2.41 9.23,-5.15 0.78,2.58 1.19000000000001,5.3 1.19000000000001,8.07 C 33.02000000000001,33.69 28.72,38 23.42,38 Z"
       inkscape:connector-curvature="0" />
  </g>
  <path
     style="fill:#607D8B"
     d="m 39.83543533877192,74.19820499843531 c 0.68,0 1.36,0.06 2.02000000000001,0.15000000000002 l 0,-23.15 -40.000000000000007,39.99999999999998 23.130000000000002,0 c -0.09,-0.65999999999998 -0.15,-1.31999999999996 -0.15,-2 0,-8.28 6.72,-15 15.00000000000002,-15 z"
     id="path4169" />
  <path
     style="fill:#607D8B"
     d="m 47.26543533877192,90.17820499843533 c 0.04,-0.31999999999999 0.07,-0.64 0.07,-0.97999999999999 0,-0.33 -0.03,-0.65999999999998 -0.07,-0.97999999999999 l 2.11000000000002,-1.64999999999999 c 0.19,-0.14999999999999 0.23999999999999,-0.42 0.12,-0.64 l -2,-3.46000000000001 c -0.12,-0.22 -0.39,-0.3 -0.61,-0.22 l -2.49000000000001,1 c -0.52000000000001,-0.39999999999999 -1.07999999999999,-0.73 -1.68999999999999,-0.98 l -0.37,-2.65000000000001 c -0.04,-0.23999999999998 -0.25,-0.42 -0.5,-0.42 l -4,0 c -0.25,0 -0.45999999999998,0.18000000000001 -0.48999999999997,0.42 l -0.36999999999999,2.65000000000001 c -0.61000000000001,0.25 -1.16999999999999,0.59 -1.69,0.98 l -2.49000000000002,-1 c -0.23,-0.09 -0.48999999999999,0 -0.60999999999999,0.22 l -2,3.46000000000001 c -0.13,0.22 -0.07,0.49000000000001 0.12,0.64 l 2.11,1.64999999999999 c -0.04,0.32000000000001 -0.07,0.65000000000002 -0.07,0.97999999999999 0,0.33000000000003 0.03,0.66 0.07,0.97999999999999 l -2.11000000000003,1.64999999999999 c -0.19,0.15000000000001 -0.24,0.42000000000002 -0.12,0.64 l 2,3.46000000000001 c 0.13,0.22 0.39,0.3 0.61000000000001,0.22 l 2.48999999999998,-1 c 0.52000000000001,0.39999999999999 1.08,0.73 1.69,0.98 l 0.37,2.64999999999998 c 0.04,0.24000000000001 0.25,0.42 0.49,0.42 l 4,0 c 0.25,0 0.45,-0.17999999999999 0.48999999999999,-0.42 l 0.37,-2.64999999999998 c 0.61,-0.25 1.16999999999998,-0.59 1.69,-0.98 l 2.49,1 c 0.22999999999999,0.09 0.48999999999998,0 0.61,-0.22 l 2,-3.46000000000001 c 0.13,-0.21999999999998 0.07,-0.48999999999999 -0.12,-0.64 l -2.09999999999999,-1.64999999999999 z"
     id="path4167" />
  <path
     style="fill:#607D8B"
     d="m 39.83543533877192,92.19820499843531 c -1.65999999999999,0 -3,-1.33999999999999 -3,-3 0,-1.65999999999998 1.34000000000001,-3 3,-3 1.65999999999999,0 3,1.34000000000002 3,3 0,1.66000000000001 -1.34000000000001,3 -3,3 z"
     id="path4153" />
  <g
     transform="matrix(0.4688232536333795,0,0,0.4688232536333795,29.24706985466481,27.3717768401313)"
     id="g4171"
     style="fill:#607D8B">
    <path
       inkscape:connector-curvature="0"
       d="M 27,1.34 C 27,1.34 28.48,6.64 28.48,10.94 c 0,4.12 -2.7,7.47 -6.83,7.47 -4.13000000000001,0 -7.25,-3.34 -7.25,-7.47 l 0.05,-0.72 C 10.43,15.03 8,21.23 8,28 8,36.84000000000001 15.16,44 24,44 32.84000000000001,44 40,36.84000000000001 40,28 40,17.21 34.81,7.59 27,1.34 Z M 23.42,38 c -3.56,0 -6.45,-2.81 -6.45,-6.28 0,-3.25 2.09,-5.53 5.63,-6.24 3.54,-0.71000000000002 7.2,-2.41 9.23,-5.15 0.78,2.58 1.19000000000001,5.3 1.19000000000001,8.07 C 33.02000000000001,33.69 28.72,38 23.42,38 Z"
       id="path4173" />
  </g>
  <ellipse
     style="opacity:1;fill:#000000;fill-opacity:1;fill-rule:nonzero;stroke:none;stroke-width:4.4010000229;stroke-miterlimit:4;stroke-dasharray:none;stroke-opacity:1"
     id="path4175"
     cx="101.2206649780273"
     cy="8.756768226623535"
     rx="10"
     ry="9.999999046325684" />
  <ellipse
     ry="9.999999046325684"
     rx="7.501172542572021"
     cy="3.350231885910034"
     cx="71.42281341552734"
     id="ellipse4182"
     style="opacity:1;fill:#607D8B;fill-opacity:1;fill-rule:nonzero;stroke:none;stroke-width:4.4010000229;stroke-miterlimit:4;stroke-dasharray:none;stroke-opacity:1" />
  <path
     style="fill:#607D8B"
     d="m 146.3751310781912,13.4009563526154 c 0,0 0.693359375,2.48406000937646 0.693359375,4.5 0,1.93155180496951 -1.2668849624942,3.501953125 -3.203125,3.501953125 -1.9362400375059,0 -3.3984375,-1.56571308749416 -3.3984375,-3.501953125 l 0.0234375,-0.3359375 c -1.8846694796062,2.25503984997655 -3.0234375,5.16005094790202 -3.0234375,8.333984375 -1e-13,4.14439756211908 3.3556024378809,7.501953125 7.5,7.501953125 4.144397562119,0 7.5019531249999,-3.35755556288095 7.501953125,-7.50195312500001 0,-5.05860290670419 -2.4322403891234,-9.56790153979137 -6.09375,-12.49804687499999 z"
     id="path4192"
     inkscape:connector-curvature="0" />
  <path
     inkscape:connector-curvature="0"
     id="path4225"
     d="m 123.6012916072127,20.06079080095951 c 0,0 0.693359375,2.48406000937646 0.693359375,4.5 0,1.93155180496952 -1.2668849624943,3.501953125 -3.2031250000001,3.501953125 -1.9362400375059,0 -3.3984375,-1.56571308749416 -3.3984375,-3.501953125 l 0.0234375,-0.3359375 c -1.8846694796062,2.25503984997655 -3.0234375,5.16005094790202 -3.0234375,8.333984375 0,4.14439756211908 3.3556024378809,7.501953125 7.5,7.501953125 4.144397562119,0 7.501953125,-3.35755556288093 7.5019531250001,-7.501953125 0,-5.05860290670418 -2.4322403891234,-9.56790153979138 -6.09375,-12.498046875 z"
     style="fill:#607D8B" />
  <path
     inkscape:connector-curvature="0"
     id="path4231"
     d="m 132.9211718207639,9.316555209036 c 0,0 0.275312981371,0.98634848210728 0.275312981371,1.786820025574549 0,0.76696343234538 -0.5030434269075,1.3905244383052 -1.2718684209818,1.3905244383052 -0.7688249940744,0 -1.3494213734808,-0.62169944423083 -1.3494213734808,-1.3905244383052 l 0.0093063543,-0.13339107829811 c -0.7483478150554,0.89541119164596 -1.2005197046829,2.0489071925992 -1.2005197046829,3.3091844831279 0,1.6456205684304 1.3324128075273,2.9788089054826 2.9780333759576,2.9788089054826 1.6456205684304,0 2.9788089054826,-1.3331883370522 2.9788089054826,-2.9788089054826 0,-2.00862510558417 -0.9657724076216,-3.79913734978333 -2.4196521179656,-4.962613430404355 z"
     style="fill:#607D8B" />
  <path
     inkscape:connector-curvature="0"
     id="path4241"
     d="m 138.6032447322127,34.40504961708361 -5.884765625,4.1640625 m 0,0 0,0 m 0,0 0,0 m 0,0 c -1.8846694796062,2.25503984997655 -3.0234375,5.16005094790203 -3.0234375,8.333984375 -2e-13,4.14439756211907 3.3556024378808,7.501953125 7.5,7.501953125 4.144397562119,0 7.5019531249998,-3.35755556288093 7.501953125,-7.50195312500002 0,-5.0586029067042 -2.4322403891234,-9.56790153979135 -6.09375,-12.49804687499998 l 0,0"
     style="fill:#607D8B"
     sodipodi:nodetypes="cccccccssscc" />
  <path
     style="fill:#607D8B"
     inkscape:connector-curvature="0"
     d="m 67.1436924175354,45.86096237213534 c 0,0 1.15634249999998,3.72714486638538 1.15634249999998,6.75105485232068 0,2.89732770745428 -2.10954374999994,5.25316455696201 -5.336364375,5.25316455696201 -3.22682062499998,0 -5.664515625,-2.34880450070323 -5.664515625,-5.25316455696201 l 0.039065625,-0.50632911392405 c -3.14087625000002,3.38255977496484 -5.03946562500002,7.74261603375527 -5.03946562500002,12.50351617440225 -5e-14,6.21659634317862 5.59419749999995,11.25175808720111 12.50099999999995,11.25175808720111 6.90680250000004,0 12.50100000000003,-5.0351617440225 12.50100000000003,-11.2517580872011 0,-7.58790436005626 -4.05501187499999,-14.35302390998596 -10.15706250000004,-18.74824191279889 z m -2.79709875000003,25.78059071729958 c -2.78147249999996,0 -5.03946562499998,-1.97609001406474 -5.03946562499998,-4.41631504922646 0,-2.28551336146276 1.632943125,-3.88888888888891 4.398789375,-4.38818565400842 2.76584625000002,-0.49929676511956 5.62545000000004,-1.69479606188468 7.21151437500002,-3.62165963431788 0.60942374999999,1.81434599156121 0.92976187500003,3.72714486638538 0.92976187500003,5.67510548523207 0,3.72011251758086 -3.35964375000003,6.75105485232068 -7.50060000000002,6.75105485232068 z"
     id="path4249" />
</svg>
