<?xml version="1.0" encoding="UTF-8" standalone="no"?>
<svg
   xmlns:dc="http://purl.org/dc/elements/1.1/"
   xmlns:cc="http://creativecommons.org/ns#"
   xmlns:rdf="http://www.w3.org/1999/02/22-rdf-syntax-ns#"
   xmlns:svg="http://www.w3.org/2000/svg"
   xmlns="http://www.w3.org/2000/svg"
   xmlns:sodipodi="http://sodipodi.sourceforge.net/DTD/sodipodi-0.dtd"
   xmlns:inkscape="http://www.inkscape.org/namespaces/inkscape"
   fill="#607D8B"
   width="48"
   height="48"
   viewBox="0 0 48 48"
   id="svg2"
   version="1.1"
   inkscape:version="0.91 r13725"
   sodipodi:docname="zoom-original.svg">
  <metadata
     id="metadata10">
    <rdf:RDF>
      <cc:Work
         rdf:about="">
        <dc:format>image/svg+xml</dc:format>
        <dc:type
           rdf:resource="http://purl.org/dc/dcmitype/StillImage" />
        <dc:title />
      </cc:Work>
    </rdf:RDF>
  </metadata>
  <defs
     id="defs8" />
  <sodipodi:namedview
     pagecolor="#ffffff"
     bordercolor="#666666"
     borderopacity="1"
     objecttolerance="10"
     gridtolerance="10"
     guidetolerance="10"
     inkscape:pageopacity="0"
     inkscape:pageshadow="2"
     inkscape:window-width="1366"
     inkscape:window-height="713"
     id="namedview6"
     showgrid="false"
     inkscape:zoom="6.129984504601588"
     inkscape:cx="-9.549990296246271"
     inkscape:cy="15.58576833705176"
     inkscape:window-x="0"
     inkscape:window-y="30"
     inkscape:window-maximized="1"
     inkscape:current-layer="svg2"
     inkscape:snap-bbox="true"
     inkscape:bbox-paths="true"
     inkscape:bbox-nodes="true"
     inkscape:object-paths="true"
     inkscape:snap-intersection-paths="true" />
  <path
     id="path4198"
     style="fill:#607D8B"
     d="m 19.509765625,6.509765625 c -7.18000000000001,0 -13,5.820000000000001 -13,13 0,7.17999999999999 5.82000000000001,13 13,13 3.23000000000002,0 6.17921875,-1.180859375 8.44921875,-3.130859375 l 0.55078125,0.55078125 0,1.580078125 10,9.98046875 2.98046875,-2.98046875 -9.98046875,-10 -1.58984375,0 -0.55078125,-0.55078125 c 1.96000000000002,-2.26999999999998 3.140625,-5.21921875 3.140625,-8.44921875 0,-7.18 -5.82,-13 -13,-13 z m 0,4 c 4.97,0 9,4.03 9,9 0,4.97 -4.03,9 -9,9 -4.97,0 -9,-4.02999999999998 -9,-9 0,-4.97 4.02999999999999,-9 9,-9 z m 2.90578243278447,8.99924493529613 c 0,-1.60509416487707 -1.30005335604156,-2.90514828992842 -2.90514828992843,-2.90514828992842 -1.60509416487707,0 -2.90514828992843,1.30005412505135 -2.90514828992843,2.90514828992842 0,1.60509416487708 1.30005412505136,2.90514828992843 2.90514828992843,2.90514828992843 1.60509493388687,0 2.90514828992843,-1.30005412505135 2.90514828992843,-2.90514828992843 z" />
</svg>
