<?xml version="1.0" encoding="UTF-8" standalone="no"?>
<svg
   xmlns:dc="http://purl.org/dc/elements/1.1/"
   xmlns:cc="http://creativecommons.org/ns#"
   xmlns:rdf="http://www.w3.org/1999/02/22-rdf-syntax-ns#"
   xmlns:svg="http://www.w3.org/2000/svg"
   xmlns="http://www.w3.org/2000/svg"
   xmlns:sodipodi="http://sodipodi.sourceforge.net/DTD/sodipodi-0.dtd"
   xmlns:inkscape="http://www.inkscape.org/namespaces/inkscape"
   width="48"
   height="48"
   viewBox="0 0 48 48"
   id="svg2"
   version="1.1"
   inkscape:version="0.91 r13725"
   sodipodi:docname="ejector.svg"
   fill="#FFEB3B">
  <metadata
     id="metadata10">
    <rdf:RDF>
      <cc:Work
         rdf:about="">
        <dc:format>image/svg+xml</dc:format>
        <dc:type
           rdf:resource="http://purl.org/dc/dcmitype/StillImage" />
        <dc:title />
      </cc:Work>
    </rdf:RDF>
  </metadata>
  <defs
     id="defs8" />
  <sodipodi:namedview
     pagecolor="#ffffff"
     bordercolor="#666666"
     borderopacity="1"
     objecttolerance="10"
     gridtolerance="10"
     guidetolerance="10"
     inkscape:pageopacity="0"
     inkscape:pageshadow="2"
     inkscape:window-width="1366"
     inkscape:window-height="713"
     id="namedview6"
     showgrid="false"
     inkscape:snap-bbox="true"
     inkscape:bbox-nodes="true"
     inkscape:snap-bbox-edge-midpoints="false"
     inkscape:snap-bbox-midpoints="true"
     inkscape:snap-object-midpoints="true"
     inkscape:zoom="7.591500246245449"
     inkscape:cx="11.31054811577171"
     inkscape:cy="11.85680276551349"
     inkscape:window-x="0"
     inkscape:window-y="30"
     inkscape:window-maximized="1"
     inkscape:current-layer="svg2" />
  <path
     inkscape:connector-curvature="0"
     style="fill:#FFEB3B"
     d="m 23.93014900243723,6.001014398862752 a 1.576333278440933,1.121597307468845 0 0 1 1.44136852169698,0.57127410920917 l 16.41314459920195,20.24507554712807 a 1.576333278440933,1.121597307468845 0 0 1 -1.371057862102,1.68745583027939 l -32.830683614628583,0 A 1.576333278440933,1.121597307468845 0 0 1 6.00093080571865,27.3446940021623 1.576333278440933,1.121597307468845 0 0 1 6.211862784503577,26.81736405519999 L 22.6294017999302,6.572288508071921 a 1.576333278440933,1.121597307468845 0 0 1 1.16012588331708,-0.562485276759801 1.576333278440933,1.121597307468845 0 0 1 0.14062131918995,-0.0087888324494 z"
     id="path4135" />
  <path
     style="fill:#FFEB3B"
     d="m 5.995594102121089,33.00470209955778 0,4 36,0 0,-4 -36,0 z"
     id="path4145"
     inkscape:connector-curvature="0" />
  <path
     sodipodi:type="star"
     style="opacity:1;fill:#FFEB3B;fill-opacity:1;fill-rule:nonzero;stroke:#000000;stroke-width:4;stroke-miterlimit:4;stroke-dasharray:none;stroke-opacity:1"
     id="path4169"
     sodipodi:sides="5"
     sodipodi:cx="0"
     sodipodi:cy="0"
     sodipodi:r1="1"
     sodipodi:r2="0"
     sodipodi:arg1="0"
     sodipodi:arg2="0"
     inkscape:flatsided="false"
     inkscape:rounded="0"
     inkscape:randomized="0"
     d="M 1,0 0,0 0.3090169943749474,0.9510565162951534 0,0 -0.8090169943749472,0.5877852522924732 0,0 -0.8090169943749476,-0.587785252292473 0,0 0.3090169943749472,-0.9510565162951536 0,0 Z" />
</svg>
