<?xml version="1.0" encoding="UTF-8" standalone="no"?>
<svg
   xmlns:dc="http://purl.org/dc/elements/1.1/"
   xmlns:cc="http://creativecommons.org/ns#"
   xmlns:rdf="http://www.w3.org/1999/02/22-rdf-syntax-ns#"
   xmlns:svg="http://www.w3.org/2000/svg"
   xmlns="http://www.w3.org/2000/svg"
   xmlns:sodipodi="http://sodipodi.sourceforge.net/DTD/sodipodi-0.dtd"
   xmlns:inkscape="http://www.inkscape.org/namespaces/inkscape"
   fill="#00C853"
   width="48"
   height="48"
   viewBox="0 0 48 48"
   id="svg2"
   version="1.1"
   inkscape:version="0.91 r13725"
   sodipodi:docname="menu.svg">
  <metadata
     id="metadata10">
    <rdf:RDF>
      <cc:Work
         rdf:about="">
        <dc:format>image/svg+xml</dc:format>
        <dc:type
           rdf:resource="http://purl.org/dc/dcmitype/StillImage" />
      </cc:Work>
    </rdf:RDF>
  </metadata>
  <defs
     id="defs8" />
  <sodipodi:namedview
     pagecolor="#ffffff"
     bordercolor="#666666"
     borderopacity="1"
     objecttolerance="10"
     gridtolerance="10"
     guidetolerance="10"
     inkscape:pageopacity="0"
     inkscape:pageshadow="2"
     inkscape:window-width="1366"
     inkscape:window-height="713"
     id="namedview6"
     showgrid="false"
     inkscape:snap-bbox="true"
     inkscape:bbox-nodes="true"
     inkscape:snap-intersection-paths="false"
     inkscape:object-paths="false"
     inkscape:object-nodes="false"
     inkscape:zoom="6.953216679833327"
     inkscape:cx="25.06322683427138"
     inkscape:cy="13.83987815994615"
     inkscape:window-x="0"
     inkscape:window-y="30"
     inkscape:window-maximized="1"
     inkscape:current-layer="svg2" />
  <path
     d="M 6 12 L 6 16 L 21.17578125 16 L 25.17578125 12 L 6 12 z M 6 22 L 6 26 L 11.173828125 26 L 15.17578125 22 L 6 22 z M 36.82421875 22 L 32.82421875 26 L 42 26 L 42 22 L 36.82421875 22 z M 26.82421875 32 L 22.826171875 36 L 42 36 L 42 32 L 26.82421875 32 z "
     id="path4" />
  <path
     style="fill:#00C853"
     inkscape:connector-curvature="0"
     d="m 6.002500000000003,34.4975 0,7.5 7.499999999999997,0 22.13000000000001,-22.13 -7.50000000000003,-7.5 -22.129999999999981,22.13 z m 35.410000000000003,-20.41 c 0.78,-0.78 0.78,-2.05 0,-2.83 l -4.67,-4.670000000000004 c -0.77999999999999,-0.780000000000001 -2.05,-0.780000000000001 -2.83,0 l -3.66000000000002,3.660000000000013 7.50000000000001,7.5 L 41.41250000000001,14.0875 Z"
     id="path4140" />
</svg>
