<?xml version="1.0" encoding="UTF-8" standalone="no"?>
<svg
   xmlns:dc="http://purl.org/dc/elements/1.1/"
   xmlns:cc="http://creativecommons.org/ns#"
   xmlns:rdf="http://www.w3.org/1999/02/22-rdf-syntax-ns#"
   xmlns:svg="http://www.w3.org/2000/svg"
   xmlns="http://www.w3.org/2000/svg"
   xmlns:sodipodi="http://sodipodi.sourceforge.net/DTD/sodipodi-0.dtd"
   xmlns:inkscape="http://www.inkscape.org/namespaces/inkscape"
   fill="#673AB7"
   width="48"
   height="48"
   viewBox="0 0 48 48"
   id="svg2"
   version="1.1"
   inkscape:version="0.91 r13725"
   sodipodi:docname="preferences-system-network-proxy.svg">
  <metadata
     id="metadata10">
    <rdf:RDF>
      <cc:Work
         rdf:about="">
        <dc:format>image/svg+xml</dc:format>
        <dc:type
           rdf:resource="http://purl.org/dc/dcmitype/StillImage" />
      </cc:Work>
    </rdf:RDF>
  </metadata>
  <defs
     id="defs8" />
  <sodipodi:namedview
     pagecolor="#ffffff"
     bordercolor="#666666"
     borderopacity="1"
     objecttolerance="10"
     gridtolerance="10"
     guidetolerance="10"
     inkscape:pageopacity="0"
     inkscape:pageshadow="2"
     inkscape:window-width="1366"
     inkscape:window-height="713"
     id="namedview6"
     showgrid="false"
     inkscape:snap-bbox="true"
     inkscape:bbox-nodes="true"
     inkscape:zoom="5.368001304915685"
     inkscape:cx="18.86346109128291"
     inkscape:cy="18.53608424989644"
     inkscape:window-x="0"
     inkscape:window-y="30"
     inkscape:window-maximized="1"
     inkscape:current-layer="svg2" />
  <path
     d="M 15.54,13.52 12.46,10.97 1.64,24 12.46,37.04 15.54,34.49 6.84,24 15.54,13.52 Z"
     id="path4159" />
  <path
     d="m 12,22 0,4 4,0 0,-4 -4,0 z"
     id="path4181"
     inkscape:connector-curvature="0" />
  <path
     d="m 32,22 0,4 4,0 0,-4 -4,0 z"
     id="path4157"
     inkscape:connector-curvature="0" />
  <path
     d="M 35.54,10.96 32.46,13.51 41.16,24 32.46,34.48000000000001 35.53999999999999,37.03 46.36,24 35.54,10.96 Z"
     id="path4" />
  <g
     style="fill:#673AB7"
     id="g4148"
     transform="translate(5.772050558649802,19.53066915458296)" />
  <path
     style="fill:#673AB7"
     id="path4140"
     d="m 28.5,19.37499999999999 -0.75,0 0,-1.5 c 0,-2.07 -1.68,-3.75 -3.75,-3.75 -2.07,0 -3.75,1.68 -3.75,3.75 l 0,1.5 -0.75,0 c -0.82875,0 -1.5,0.67125 -1.5,1.5 l 0,7.5 c 0,0.82875 0.67125,1.5 1.5,1.5 l 9,0 c 0.82875,0 1.5,-0.67125 1.5,-1.5 l 0,-7.5 c 0,-0.82875 -0.67125,-1.5 -1.5,-1.5 z m -4.5,6.75 c -0.82875,0 -1.5,-0.67125 -1.5,-1.5 0,-0.82875 0.67125,-1.5 1.5,-1.5 0.82875,0 1.5,0.67125 1.5,1.5 0,0.82875 -0.67125,1.5 -1.5,1.5 z m 2.32500000000001,-6.75 -4.65000000000001,0 0,-1.5 c 0,-1.2825 1.04250000000001,-2.325 2.325,-2.325 1.2825,0 2.32500000000001,1.0425 2.32500000000001,2.325 l 0,1.5 z"
     inkscape:connector-curvature="0" />
</svg>
