<?xml version="1.0" encoding="UTF-8" standalone="no"?>
<!-- Created with Inkscape (http://www.inkscape.org/) -->

<svg
   xmlns:dc="http://purl.org/dc/elements/1.1/"
   xmlns:cc="http://creativecommons.org/ns#"
   xmlns:rdf="http://www.w3.org/1999/02/22-rdf-syntax-ns#"
   xmlns:svg="http://www.w3.org/2000/svg"
   xmlns="http://www.w3.org/2000/svg"
   xmlns:xlink="http://www.w3.org/1999/xlink"
   xmlns:sodipodi="http://sodipodi.sourceforge.net/DTD/sodipodi-0.dtd"
   xmlns:inkscape="http://www.inkscape.org/namespaces/inkscape"
   version="1.1"
   width="48"
   height="48"
   id="svg1325"
   inkscape:version="0.91 r13725"
   sodipodi:docname="xfce4-panel.svg">
  <metadata
     id="metadata32">
    <rdf:RDF>
      <cc:Work
         rdf:about="">
        <dc:format>image/svg+xml</dc:format>
        <dc:type
           rdf:resource="http://purl.org/dc/dcmitype/StillImage" />
      </cc:Work>
    </rdf:RDF>
  </metadata>
  <sodipodi:namedview
     pagecolor="#ffffff"
     bordercolor="#666666"
     borderopacity="1"
     objecttolerance="10"
     gridtolerance="10"
     guidetolerance="10"
     inkscape:pageopacity="0"
     inkscape:pageshadow="2"
     inkscape:window-width="1366"
     inkscape:window-height="713"
     id="namedview30"
     showgrid="false"
     inkscape:zoom="6.953216679833317"
     inkscape:cx="30.01215266778103"
     inkscape:cy="17.20115955422285"
     inkscape:window-x="0"
     inkscape:window-y="30"
     inkscape:window-maximized="1"
     inkscape:current-layer="svg1325" />
  <title
     id="title3450">Xfce Panel</title>
  <defs
     id="defs1327">
    <linearGradient
       id="linearGradient2270">
      <stop
         id="stop2272"
         style="stop-color:#ffffff;stop-opacity:1"
         offset="0" />
      <stop
         id="stop2274"
         style="stop-color:#ffffff;stop-opacity:0"
         offset="1" />
    </linearGradient>
    <linearGradient
       id="linearGradient2262">
      <stop
         id="stop2264"
         style="stop-color:#d3d7cf;stop-opacity:1"
         offset="0" />
      <stop
         id="stop2266"
         style="stop-color:#d3d7cf;stop-opacity:0"
         offset="1" />
    </linearGradient>
    <linearGradient
       id="linearGradient2252">
      <stop
         id="stop2254"
         style="stop-color:#888a85;stop-opacity:1"
         offset="0" />
      <stop
         id="stop2256"
         style="stop-color:#888a85;stop-opacity:0"
         offset="1" />
    </linearGradient>
    <linearGradient
       x1="31.874874"
       y1="17.4375"
       x2="47.437664"
       y2="17.4375"
       id="linearGradient2258"
       xlink:href="#linearGradient2252"
       gradientUnits="userSpaceOnUse"
       gradientTransform="translate(0,-8)" />
    <linearGradient
       x1="31.872892"
       y1="20.6875"
       x2="46.704754"
       y2="20.6875"
       id="linearGradient2268"
       xlink:href="#linearGradient2262"
       gradientUnits="userSpaceOnUse"
       gradientTransform="translate(0,-8)" />
    <linearGradient
       x1="23.99696"
       y1="18.375"
       x2="45.753761"
       y2="18.375"
       id="linearGradient1341"
       xlink:href="#linearGradient2270"
       gradientUnits="userSpaceOnUse"
       gradientTransform="translate(0,-8)" />
    <radialGradient
       cx="3.6239223"
       cy="2.0049825"
       r="23"
       fx="3.6239223"
       fy="2.0049825"
       id="radialGradient2218"
       xlink:href="#linearGradient2270"
       gradientUnits="userSpaceOnUse"
       gradientTransform="matrix(1.246687e-8,1.125998,-1.627297,0,6.886624000000002,6.531200000000001)" />
  </defs>
  <path
     style="fill:#673AB7"
     d="M 6,6 C 3.790000000000002,6 2,7.789999999999978 2,10 l 0,28 c 0,2.20999999999998 1.790000000000001,4 4,4 l 36,0 c 2.21,0 4,-1.79000000000002 4,-4 L 46,10 C 46,7.789999999999998 44.21000000000002,6 42,6 L 6,6 Z m 0,3.970703125000002 36,0 0,28.05859375 -36,0 0,-28.05859375 z"
     id="path4207"
     inkscape:connector-curvature="0" />
  <g
     id="g4214"
     transform="matrix(0.909651883329489,0,0,0.9096518833294886,1.659953586386794,1.890049435056646)">
    <path
       inkscape:connector-curvature="0"
       style="fill:#673AB7;fill-opacity:1;fill-rule:evenodd;stroke:#673AB7;stroke-width:0.2028944969pt;stroke-linecap:butt;stroke-linejoin:miter;stroke-opacity:1"
       id="path14"
       d="m 7.110409850763605,15.24277208216401 c 0.109157235620001,-0.0182605041 2.830986818969996,1.41843537958999 4.660486435299995,1.91491819661999 3.26234050471,0.83369345941 6.24022293444,3.34288961724001 7.6795564465,4.7842520742 0.10672250174,0.12335984991999 1.23623612757,-0.84566423431998 2.41829942631,-0.77586852976001 1.61463435142,0.09779514418 6.61070827318,1.50263659294001 7.27823114528,0.54598907258998 0.40477450755,-0.56161194831996 0.37576059548,-1.25064163635997 0.88076498109001,-1.53286787194999 0.27187861659999,-0.07608543375 -1.01061745469,-2.42174863263997 0.35242772913002,-3.17326982359999 0.9718646071,-0.48572940906 1.79541334200998,2.23366544041003 2.04497356471,2.53841296439002 0.11179486398999,0.13634509728001 0.70485545825999,0.16961979364001 0.63465396472,-0.14101167055 -0.07608543375,-0.33741353687001 -1.03537058247003,-2.94683957276002 0.14101167054996,-3.38468588218001 1.91065741233001,-0.75659355321 1.57202650852,3.33883172744001 1.62173565857,3.45529316469999 0.10570802929003,0.24793706678 6.65433058853003,0.43906367636 7.05139510546002,3.38468588218004 0.22967656268001,1.6211269751 -5.24644572242001,3.71641837333 -5.78208717602,4.08974423492998 -0.53543855911001,0.37332586159999 -0.49080177130999,0.97044434567002 -0.2820233411,1.33991521195999 0.24002418166999,0.40071661775002 1.83538355653999,1.75321128809003 1.62193855305999,2.39740129384001 -0.14669271627004,0.37210849465999 -3.12416935702001,-0.99174826712001 -3.31428149414998,-0.70505835275002 -0.43358552513,0.54761222851001 2.16752183666999,1.91836740295 1.26930792944,2.89104358801001 -0.35607982994998,0.23292287452001 -4.45292537203001,-1.71527001846002 -4.44257775304,-1.69234294109002 -0.10996881358,0.04179626494 -5.78898558868001,1.03739952737 -10.15405764654,-0.28222623559 -0.15379402342,-0.04341942086 -2.80156711792,2.55768794094001 -3.10266254108,2.46821147085002 -0.41167292021,-0.15095350056 0.60685741959,-2.2622735635 0.49364229417,-2.67962752942999 -0.18503977488001,-0.23251708554003 -1.87697692699001,0.94406806197 -1.97436628219,0.35263062362 -0.11646143726001,-0.77728879119002 1.48478187782,-1.67083612515002 1.41031959999,-2.18598523526004 -0.41289028715,-2.92655012375998 0.18443109140999,-4.63553041302998 1.19870064691999,-6.06411051711997 0.33822511482998,-0.52590251808 -3.97510884807999,-3.78317066054001 -7.09785794367,-5.06871014918 C 8.5953946230736,16.433965632954 6.924761392413604,15.344422221654 7.110409850763605,15.24277208216402 Z" />
    <path
       inkscape:connector-curvature="0"
       style="fill:#ffffff;fill-opacity:1;fill-rule:evenodd;stroke:#673AB7;stroke-width:0.1217366934pt;stroke-linecap:butt;stroke-linejoin:miter;stroke-opacity:1"
       id="path7"
       d="m 35.17322559366001,25.02784580919 c -0.03428916881,-0.11970774909998 2.13100082846999,-1.42939168204999 2.44447281552,-1.12829625888999 0.56424957669,0.20451764592 -2.4245891555,1.28026423189998 -2.44447281552,1.12829625888999 z" />
    <path
       inkscape:connector-curvature="0"
       style="fill:#ffffff;fill-opacity:1;fill-rule:evenodd;stroke:#673AB7;stroke-width:0.1217366934pt;stroke-linecap:butt;stroke-linejoin:miter;stroke-opacity:1"
       id="path8"
       d="m 36.20737880919001,26.21883646549001 c -0.1907208206,-0.11524407032001 1.29629289660999,-1.84918038186 1.66109718962999,-1.66109718963 0.53259803625001,0.52914882992 -1.68605321189998,1.70228477109999 -1.66109718962999,1.66109718963 z" />
    <path
       inkscape:connector-curvature="0"
       style="fill:#673AB7;fill-opacity:1;fill-rule:evenodd;stroke:#673AB7;stroke-width:0.1217366934pt;stroke-linecap:butt;stroke-linejoin:miter;stroke-opacity:1"
       id="path13"
       d="m 42.06798615284001,18.19577964742 c -0.18077899059,-0.14953323913001 -1.59840279222,2.08717561863 -1.28493080517001,2.31928691518999 0.18848898121,0.14101167055 1.36568281219,-2.23954938061999 1.28493080517001,-2.31928691518999 z" />
    <ellipse
       style="fill:#ffffff;fill-opacity:1;fill-rule:evenodd;stroke:#673AB7;stroke-width:0.1131584287pt;stroke-linecap:butt;stroke-linejoin:miter;stroke-opacity:1"
       id="ellipse17"
       ry="0.6438236832618713"
       rx="0.5654746294021606"
       cy="21.39713478088379"
       cx="35.65628814697266" />
    <path
       inkscape:connector-curvature="0"
       style="fill:#673AB7;fill-opacity:1;fill-rule:evenodd;stroke:#673AB7;stroke-width:0.1217366934pt;stroke-linecap:butt;stroke-linejoin:miter;stroke-opacity:1"
       id="path18"
       d="m 40.43831731971101,17.8823827313313 c -0.08947647009,-0.10388197887999 -0.56424957669001,2.30650456232 -0.34471773851,2.41322706406001 0.18848898120998,0.14101167054999 0.51677226603001,-2.28783826924001 0.34471773851,-2.41322706406001 z" />
    <path
       inkscape:connector-curvature="0"
       style="fill:#ffffff;fill-opacity:1;fill-rule:evenodd;stroke:#673AB7;stroke-width:0.1217366934pt;stroke-linecap:butt;stroke-linejoin:miter;stroke-opacity:1"
       id="path21"
       d="m 34.387029734359,21.14444527059001 c -0.56222063179,0.39747030591001 0.30860251929001,2.64675862205 1.74083472420001,1.33342258828 -1.12525284153999,0.03307180187 -1.50060764804,-0.29642884989 -1.74083472420001,-1.33342258828 z" />
  </g>
</svg>
