<?xml version="1.0" encoding="UTF-8" standalone="no"?>
<svg
   xmlns:dc="http://purl.org/dc/elements/1.1/"
   xmlns:cc="http://creativecommons.org/ns#"
   xmlns:rdf="http://www.w3.org/1999/02/22-rdf-syntax-ns#"
   xmlns:svg="http://www.w3.org/2000/svg"
   xmlns="http://www.w3.org/2000/svg"
   xmlns:sodipodi="http://sodipodi.sourceforge.net/DTD/sodipodi-0.dtd"
   xmlns:inkscape="http://www.inkscape.org/namespaces/inkscape"
   fill="#673AB7"
   width="48"
   height="48"
   viewBox="0 0 48 48"
   id="svg2"
   version="1.1"
   inkscape:version="0.91 r13725"
   sodipodi:docname="surround_sound1.svg">
  <metadata
     id="metadata10">
    <rdf:RDF>
      <cc:Work
         rdf:about="">
        <dc:format>image/svg+xml</dc:format>
        <dc:type
           rdf:resource="http://purl.org/dc/dcmitype/StillImage" />
        <dc:title></dc:title>
      </cc:Work>
    </rdf:RDF>
  </metadata>
  <defs
     id="defs8" />
  <sodipodi:namedview
     pagecolor="#ffffff"
     bordercolor="#666666"
     borderopacity="1"
     objecttolerance="10"
     gridtolerance="10"
     guidetolerance="10"
     inkscape:pageopacity="0"
     inkscape:pageshadow="2"
     inkscape:window-width="1366"
     inkscape:window-height="713"
     id="namedview6"
     showgrid="false"
     inkscape:zoom="4.916666666666667"
     inkscape:cx="54.50847457627118"
     inkscape:cy="24"
     inkscape:window-x="0"
     inkscape:window-y="30"
     inkscape:window-maximized="1"
     inkscape:current-layer="svg2" />
  <path
     d="m 15.51,32.49 -2.83,2.83 C 9.57,32.19 8,28.1 8,24 8,19.9 9.57,15.81 12.69,12.69 l 2.83,2.83 C 13.18,17.85 12,20.93 12,24 c 0,3.07 1.17,6.15 3.51,8.49 z"
     id="path4144" />
  <path
     d="M 24 16 C 19.58 16 16 19.58 16 24 C 16 28.42 19.58 32 24 32 C 28.42 32 32 28.42 32 24 C 32 19.58 28.42 16 24 16 z M 24 20 C 26.21 20 28 21.79 28 24 C 28 26.21 26.21 28 24 28 C 21.79 28 20 26.21 20 24 C 20 21.79 21.79 20 24 20 z "
     id="path4142" />
  <path
     d="M 35.31,35.31 32.48000000000001,32.48000000000001 C 34.83,30.15 36,27.07 36,24 36,20.93 34.82,17.85 32.49,15.51 l 2.83,-2.83 C 38.43,15.81 40,19.9 40,24 c 0,4.1 -1.57,8.19 -4.69,11.31 z"
     id="path4140" />
</svg>
