<?xml version="1.0" encoding="UTF-8" standalone="no"?>
<!-- Created with Inkscape (http://www.inkscape.org/) -->

<svg
   xmlns:dc="http://purl.org/dc/elements/1.1/"
   xmlns:cc="http://creativecommons.org/ns#"
   xmlns:rdf="http://www.w3.org/1999/02/22-rdf-syntax-ns#"
   xmlns:svg="http://www.w3.org/2000/svg"
   xmlns="http://www.w3.org/2000/svg"
   xmlns:sodipodi="http://sodipodi.sourceforge.net/DTD/sodipodi-0.dtd"
   xmlns:inkscape="http://www.inkscape.org/namespaces/inkscape"
   version="1.0"
   id="svg2"
   sodipodi:version="0.32"
   inkscape:version="0.91 r13725"
   sodipodi:docname="python.svg"
   width="88.929085pt"
   height="89.911201pt">
  <metadata
     id="metadata371">
    <rdf:RDF>
      <cc:Work
         rdf:about="">
        <dc:format>image/svg+xml</dc:format>
        <dc:type
           rdf:resource="http://purl.org/dc/dcmitype/StillImage" />
        <dc:title />
      </cc:Work>
    </rdf:RDF>
  </metadata>
  <sodipodi:namedview
     inkscape:window-height="713"
     inkscape:window-width="1366"
     inkscape:pageshadow="2"
     inkscape:pageopacity="0.0"
     guidetolerance="10.0"
     gridtolerance="10.0"
     objecttolerance="10.0"
     borderopacity="1.0"
     bordercolor="#666666"
     pagecolor="#ffffff"
     id="base"
     inkscape:zoom="1.173562857660527"
     inkscape:cx="-66.28078183127218"
     inkscape:cy="-23.32212834125512"
     inkscape:window-x="0"
     inkscape:window-y="30"
     inkscape:current-layer="svg2"
     width="210mm"
     height="40mm"
     units="px"
     showgrid="false"
     inkscape:window-maximized="1"
     fit-margin-top="0"
     fit-margin-left="0"
     fit-margin-right="0"
     fit-margin-bottom="0" />
  <defs
     id="defs4" />
  <path
     style="opacity:1;fill:#3776ab;fill-opacity:1;stroke:none"
     d="M 54.918785,9.1924875e-4 C 50.335133,0.02221925 45.957847,0.41313725 42.106285,1.0946692 30.76007,3.0991732 28.700037,7.2947712 28.700035,15.03217 l 0,10.21875 26.8125,0 0,3.40625 -26.8125,0 -10.0625,0 c -7.792459,0 -14.6157582,4.683717 -16.7500002,13.59375 -2.46181899,10.212966 -2.57101499,16.586023 0,27.25 1.90593,7.937852 6.457543,13.593748 14.2500002,13.59375 l 9.21875,0 0,-12.25 c 0,-8.849903 7.657144,-16.656249 16.75,-16.65625 l 26.78125,0 c 7.454951,0 13.406253,-6.138165 13.40625,-13.625 l 0,-25.53125 c 0,-7.2663388 -6.12998,-12.7247778 -13.40625,-13.9375008 C 64.281549,0.32794425 59.502438,-0.02037875 54.918785,9.1924875e-4 Z m -14.5,8.21875095125 c 2.769548,0 5.03125,2.2986448 5.03125,5.1249998 -2e-6,2.816335 -2.261702,5.09375 -5.03125,5.09375 -2.779476,-2e-6 -5.03125,-2.277416 -5.03125,-5.09375 0,-2.826354 2.251774,-5.1249998 5.03125,-5.1249998 z"
     id="path3505"
     inkscape:connector-curvature="0" />
  <path
     style="opacity:1;fill:#ffd343;fill-opacity:1;stroke:none"
     d="m 85.637531,28.65717 0,11.90625 c 0,9.230755 -7.82589,16.999999 -16.749996,17 l -26.78125,0 c -7.335833,0 -13.406249,6.278482 -13.40625,13.625 l 0,25.531254 c 0,7.266336 6.318588,11.540316 13.40625,13.624996 8.487331,2.49561 16.626238,2.94663 26.78125,0 6.750156,-1.95439 13.406253,-5.88761 13.40625,-13.624996 l 0,-10.21875 -26.78125,0 0,-3.406254 26.78125,0 13.406246,0 c 7.792459,0 10.696259,-5.435408 13.406249,-13.59375 2.79933,-8.398887 2.68022,-16.475776 0,-27.25 C 107.1805,34.493478 103.5024,28.65717 95.700031,28.65717 l -10.0625,0 z M 70.575035,93.313424 c 2.779478,0 5.031251,2.27742 5.03125,5.09375 -10e-7,2.826346 -2.251774,5.124996 -5.03125,5.124996 -2.769549,0 -5.031249,-2.29865 -5.03125,-5.124996 2e-6,-2.81633 2.261697,-5.09375 5.03125,-5.09375 z"
     id="path3512"
     inkscape:connector-curvature="0" />
</svg>
