<?xml version="1.0" encoding="UTF-8" standalone="no"?>
<svg
   xmlns:dc="http://purl.org/dc/elements/1.1/"
   xmlns:cc="http://creativecommons.org/ns#"
   xmlns:rdf="http://www.w3.org/1999/02/22-rdf-syntax-ns#"
   xmlns:svg="http://www.w3.org/2000/svg"
   xmlns="http://www.w3.org/2000/svg"
   xmlns:sodipodi="http://sodipodi.sourceforge.net/DTD/sodipodi-0.dtd"
   xmlns:inkscape="http://www.inkscape.org/namespaces/inkscape"
   fill="#F44336"
   width="48"
   height="48"
   viewBox="0 0 48 48"
   id="svg2"
   version="1.1"
   inkscape:version="0.91 r13725"
   sodipodi:docname="image-gif.svg">
  <metadata
     id="metadata10">
    <rdf:RDF>
      <cc:Work
         rdf:about="">
        <dc:format>image/svg+xml</dc:format>
        <dc:type
           rdf:resource="http://purl.org/dc/dcmitype/StillImage" />
        <dc:title></dc:title>
      </cc:Work>
    </rdf:RDF>
  </metadata>
  <defs
     id="defs8" />
  <sodipodi:namedview
     pagecolor="#ffffff"
     bordercolor="#666666"
     borderopacity="1"
     objecttolerance="10"
     gridtolerance="10"
     guidetolerance="10"
     inkscape:pageopacity="0"
     inkscape:pageshadow="2"
     inkscape:window-width="1366"
     inkscape:window-height="713"
     id="namedview6"
     showgrid="false"
     inkscape:zoom="4.9166667"
     inkscape:cx="24.074825"
     inkscape:cy="24.050928"
     inkscape:window-x="0"
     inkscape:window-y="30"
     inkscape:window-maximized="1"
     inkscape:current-layer="svg2"
     inkscape:snap-bbox="true"
     inkscape:bbox-paths="true"
     inkscape:bbox-nodes="true"
     inkscape:snap-bbox-edge-midpoints="true" />
  <path
     d="M 10 6 C 7.79 6 6 7.79 6 10 L 6 38 C 6 40.21 7.79 42 10 42 L 38 42 C 40.21 42 42 40.21 42 38 L 42 10 C 42 7.79 40.21 6 38 6 L 10 6 z M 30.207031 8.8105469 C 30.349447 8.8105469 30.494141 8.8232422 30.640625 8.8476562 C 30.787109 8.8680013 30.95166 8.898763 31.134766 8.9394531 L 30.982422 10.085938 C 30.901042 10.069661 30.808757 10.057129 30.707031 10.044922 C 30.609375 10.032715 30.504557 10.025391 30.390625 10.025391 C 30.069173 10.025391 29.826823 10.117676 29.664062 10.300781 C 29.505371 10.483887 29.425781 10.746094 29.425781 11.087891 L 29.425781 11.857422 L 30.769531 11.857422 L 30.769531 12.955078 L 29.425781 12.955078 L 29.425781 18.460938 L 27.943359 18.460938 L 27.943359 12.955078 L 26.935547 12.955078 L 26.935547 11.857422 L 27.943359 11.857422 L 27.943359 11.087891 C 27.943359 10.359538 28.140462 9.7970378 28.535156 9.4023438 C 28.933919 9.0076497 29.490885 8.8105469 30.207031 8.8105469 z M 24.310547 8.9394531 L 25.794922 8.9394531 L 25.794922 10.240234 L 24.310547 10.240234 L 24.310547 8.9394531 z M 19.470703 11.734375 C 19.865397 11.734375 20.210775 11.821289 20.507812 11.992188 C 20.808919 12.159017 21.063965 12.399414 21.271484 12.716797 L 21.417969 11.857422 L 22.650391 11.857422 L 22.650391 18.460938 C 22.650391 19.311361 22.388184 19.967773 21.863281 20.431641 C 21.338379 20.895508 20.593262 21.128906 19.628906 21.128906 C 19.307454 21.128906 18.960286 21.081868 18.585938 20.988281 C 18.215658 20.898763 17.879232 20.777507 17.578125 20.626953 L 17.896484 19.460938 C 18.140625 19.587077 18.410156 19.684733 18.703125 19.753906 C 19.000163 19.827148 19.303874 19.865234 19.617188 19.865234 C 20.154297 19.865234 20.546712 19.749512 20.794922 19.517578 C 21.043132 19.289714 21.167969 18.937012 21.167969 18.460938 L 21.167969 17.783203 C 20.960449 18.047689 20.714518 18.248372 20.429688 18.386719 C 20.148926 18.520996 19.825195 18.589844 19.458984 18.589844 C 18.649251 18.589844 18.014486 18.293132 17.554688 17.703125 C 17.094889 17.113118 16.865234 16.339193 16.865234 15.378906 L 16.865234 15.25 C 16.865234 14.200195 17.094889 13.352051 17.554688 12.705078 C 18.014486 12.058105 18.652832 11.734375 19.470703 11.734375 z M 24.310547 11.857422 L 25.794922 11.857422 L 25.794922 18.460938 L 24.310547 18.460938 L 24.310547 11.857422 z M 19.849609 12.949219 C 19.340983 12.949219 18.963053 13.162598 18.714844 13.589844 C 18.470703 14.01709 18.347656 14.570475 18.347656 15.25 L 18.347656 15.378906 C 18.347656 15.985189 18.468913 16.47168 18.708984 16.837891 C 18.953125 17.200033 19.329264 17.380859 19.837891 17.380859 C 20.155273 17.380859 20.421061 17.315755 20.636719 17.185547 C 20.856445 17.05127 21.033691 16.859538 21.167969 16.611328 L 21.167969 13.71875 C 21.029622 13.478678 20.850586 13.290527 20.630859 13.15625 C 20.415202 13.017904 20.154785 12.949219 19.849609 12.949219 z M 29 24 L 38 36 L 10 36 L 17 27 L 22 33.009766 L 29 24 z "
     id="path4163" />
</svg>
