<?xml version="1.0" encoding="UTF-8" standalone="no"?>
<svg
   xmlns:dc="http://purl.org/dc/elements/1.1/"
   xmlns:cc="http://creativecommons.org/ns#"
   xmlns:rdf="http://www.w3.org/1999/02/22-rdf-syntax-ns#"
   xmlns:svg="http://www.w3.org/2000/svg"
   xmlns="http://www.w3.org/2000/svg"
   xmlns:sodipodi="http://sodipodi.sourceforge.net/DTD/sodipodi-0.dtd"
   xmlns:inkscape="http://www.inkscape.org/namespaces/inkscape"
   fill="#CDDC39"
   width="48"
   height="48"
   viewBox="0 0 48 48"
   id="svg2"
   version="1.1"
   inkscape:version="0.91 r13725"
   sodipodi:docname="x-office-document-template1.svg">
  <metadata
     id="metadata10">
    <rdf:RDF>
      <cc:Work
         rdf:about="">
        <dc:format>image/svg+xml</dc:format>
        <dc:type
           rdf:resource="http://purl.org/dc/dcmitype/StillImage" />
        <dc:title />
      </cc:Work>
    </rdf:RDF>
  </metadata>
  <defs
     id="defs8" />
  <sodipodi:namedview
     pagecolor="#ffffff"
     bordercolor="#666666"
     borderopacity="1"
     objecttolerance="10"
     gridtolerance="10"
     guidetolerance="10"
     inkscape:pageopacity="0"
     inkscape:pageshadow="2"
     inkscape:window-width="1366"
     inkscape:window-height="713"
     id="namedview6"
     showgrid="false"
     inkscape:zoom="4.898708125141179"
     inkscape:cx="60.78571185712893"
     inkscape:cy="3.501329623531589"
     inkscape:window-x="0"
     inkscape:window-y="30"
     inkscape:window-maximized="1"
     inkscape:current-layer="svg2"
     inkscape:snap-bbox="true"
     inkscape:bbox-paths="false"
     inkscape:bbox-nodes="true"
     inkscape:snap-bbox-edge-midpoints="false"
     inkscape:snap-bbox-midpoints="false"
     inkscape:snap-object-midpoints="false"
     inkscape:snap-page="true" />
  <path
     style="fill:#00188f;fill-opacity:1"
     d="M 28 2 C 25.79 2 24 3.789999999999999 24 6 L 24 42 C 24 44.21 25.79 46 28 46 L 44 46 C 46.21 46 47.99999999999999 44.21 48 42 L 48 6 C 48 3.789999999999999 46.21 2 44 2 L 28 2 z M 28 6 L 44 6 L 44 42 L 28 42 L 28 38 L 36 38 L 36 34 L 28 34 L 28 30 L 36 30 L 36 26 L 28 26 L 28 22 L 36 22 L 36 18 L 28 18 L 28 14 L 36 14 L 36 10 L 28 10 L 28 6 z "
     id="path4137" />
  <path
     style="fill:#00188f;fill-opacity:1"
     d="M 4 4 C 1.789999999999999 4 0.01953125 5.790000000000001 0.01953125 8 L 0 40 C 0 42.21 1.770468749999999 44 3.98046875 44 L 22 44 L 22 42 L 22 36 L 8 36 L 8 32 L 22 32 L 22 28 L 8 28 L 8 24 L 22 24 L 22 18 L 18 18 L 18 7 L 22 11 L 22 6 L 20 4 L 4 4 z "
     id="path4136" />
</svg>
