<?xml version="1.0" encoding="UTF-8" standalone="no"?>
<svg
   xmlns:dc="http://purl.org/dc/elements/1.1/"
   xmlns:cc="http://creativecommons.org/ns#"
   xmlns:rdf="http://www.w3.org/1999/02/22-rdf-syntax-ns#"
   xmlns:svg="http://www.w3.org/2000/svg"
   xmlns="http://www.w3.org/2000/svg"
   xmlns:sodipodi="http://sodipodi.sourceforge.net/DTD/sodipodi-0.dtd"
   xmlns:inkscape="http://www.inkscape.org/namespaces/inkscape"
   width="48"
   height="48"
   viewBox="0 0 40 48"
   id="svg2"
   version="1.1"
   inkscape:version="0.91 r13725"
   sodipodi:docname="xfce-nomail.svg"
   style="fill:#00BCD4">
  <metadata
     id="metadata10">
    <rdf:RDF>
      <cc:Work
         rdf:about="">
        <dc:format>image/svg+xml</dc:format>
        <dc:type
           rdf:resource="http://purl.org/dc/dcmitype/StillImage" />
        <dc:title></dc:title>
      </cc:Work>
    </rdf:RDF>
  </metadata>
  <defs
     id="defs8" />
  <sodipodi:namedview
     pagecolor="#ffffff"
     bordercolor="#666666"
     borderopacity="1"
     objecttolerance="10"
     gridtolerance="10"
     guidetolerance="10"
     inkscape:pageopacity="0"
     inkscape:pageshadow="2"
     inkscape:window-width="1366"
     inkscape:window-height="713"
     id="namedview6"
     showgrid="false"
     inkscape:snap-bbox="true"
     inkscape:bbox-nodes="true"
     inkscape:zoom="19.08277234231339"
     inkscape:cx="-42.86954255788698"
     inkscape:cy="22.5199478108669"
     inkscape:window-x="0"
     inkscape:window-y="30"
     inkscape:window-maximized="1"
     inkscape:current-layer="svg2"
     fit-margin-top="0"
     fit-margin-left="0"
     fit-margin-right="0"
     fit-margin-bottom="0" />
  <path
     d="M 4,8 C 1.79,8 0.021484374999992,9.789999999999999 0.021484375,12 L 0,36 c 0,2.21000000000001 1.78999999999998,4 4,4 l 32,0 c 2.21000000000001,0 4,-1.78999999999999 4,-4 L 40,12 C 40,9.789999999999999 38.21000000000001,8 36,8 L 4,8 Z m 3.201171875,4 25.599609375,0 c 0.78633997103548,0 1.4959229195429,0.276066830595 2.052734375,0.716796875 L 20,22 5.150390625,12.71875 C 5.704245415793296,12.27635391935377 6.413176953326741,12 7.201171875,12 Z M 36,16 36,33 c 7e-15,1.65750000000002 -1.43121874999999,3 -3.19921875,3 L 7.201171875,36 C 5.433171875000033,36 3.999999999999996,34.65750000000002 4,33 L 4.015625,16.009765625 20,26 36,16 Z"
     id="path4"
     inkscape:connector-curvature="0" />
</svg>
