<?xml version="1.0" encoding="UTF-8" standalone="no"?>
<svg
   xmlns:dc="http://purl.org/dc/elements/1.1/"
   xmlns:cc="http://creativecommons.org/ns#"
   xmlns:rdf="http://www.w3.org/1999/02/22-rdf-syntax-ns#"
   xmlns:svg="http://www.w3.org/2000/svg"
   xmlns="http://www.w3.org/2000/svg"
   xmlns:sodipodi="http://sodipodi.sourceforge.net/DTD/sodipodi-0.dtd"
   xmlns:inkscape="http://www.inkscape.org/namespaces/inkscape"
   fill="#673AB7"
   width="48"
   height="48"
   viewBox="0 0 48 48"
   id="svg2"
   version="1.1"
   inkscape:version="0.91 r13725"
   sodipodi:docname="applications-3d.svg">
  <metadata
     id="metadata10">
    <rdf:RDF>
      <cc:Work
         rdf:about="">
        <dc:format>image/svg+xml</dc:format>
        <dc:type
           rdf:resource="http://purl.org/dc/dcmitype/StillImage" />
        <dc:title></dc:title>
      </cc:Work>
    </rdf:RDF>
  </metadata>
  <defs
     id="defs8" />
  <sodipodi:namedview
     pagecolor="#ffffff"
     bordercolor="#666666"
     borderopacity="1"
     objecttolerance="10"
     gridtolerance="10"
     guidetolerance="10"
     inkscape:pageopacity="0"
     inkscape:pageshadow="2"
     inkscape:window-width="1366"
     inkscape:window-height="713"
     id="namedview6"
     showgrid="false"
     inkscape:snap-bbox="true"
     inkscape:bbox-nodes="true"
     inkscape:zoom="2.75602213832502"
     inkscape:cx="11.08715452324833"
     inkscape:cy="15.57747419615157"
     inkscape:window-x="0"
     inkscape:window-y="30"
     inkscape:window-maximized="1"
     inkscape:current-layer="svg2" />
  <path
     style="fill:#673AB7"
     d="M 24.099609375 0 C 10.839609375 0 0.09960937500000473 10.74 0.099609375 24 C 0.099609375 37.25999999999998 10.839609375 47.99999999999999 24.099609375 48 C 37.35960937499999 48 48.09960937499999 37.26 48.099609375 24 C 48.099609375 10.74 37.359609375 4.736951571734001e-15 24.099609375 0 z M 24.099609375 4.80078125 C 34.683609375 4.80078125 43.30078125000001 13.416 43.30078125 24 C 43.30078125 34.584 34.68360937499997 43.19921875000001 24.099609375 43.19921875 C 13.51560937500001 43.19921875 4.900390624999996 34.584 4.900390625 24 C 4.900390625 13.416 13.51560937500001 4.80078125000001 24.099609375 4.80078125 z "
     id="path4158" />
  <path
     d="m 17.01015625,29.92 c -0.38,0 -0.73,-0.05 -1.05,-0.17 -0.31,-0.11 -0.58,-0.27 -0.8,-0.47 -0.22,-0.2 -0.39,-0.45 -0.51,-0.73 -0.12,-0.29 -0.18,-0.60000000000001 -0.18,-0.94000000000001 l -2.6,0 c 0,0.72 0.14,1.35000000000001 0.42,1.9 0.28,0.55 0.65,1.01 1.12,1.37 0.47,0.37000000000001 1.01,0.64 1.63,0.83 0.62,0.2 1.26,0.29 1.94,0.29 0.73999999999999,0 1.43,-0.1 2.07,-0.3 0.64,-0.2 1.19,-0.5 1.66,-0.89 0.46999999999999,-0.39 0.82999999999999,-0.87 1.1,-1.44 0.26,-0.57 0.4,-1.22 0.4,-1.95 0,-0.39 -0.05,-0.76000000000001 -0.14,-1.12 -0.10000000000001,-0.36 -0.25,-0.7 -0.45,-1.02 -0.21,-0.32 -0.48,-0.60000000000001 -0.81,-0.86 -0.33,-0.25 -0.74,-0.46 -1.21,-0.63 0.39999999999999,-0.18 0.75,-0.4 1.05,-0.66 0.3,-0.26 0.55,-0.54 0.75,-0.83 0.2,-0.3 0.35,-0.6 0.45,-0.92 0.1,-0.32 0.14999999999999,-0.64 0.14999999999999,-0.95 0,-0.73 -0.12000000000001,-1.37 -0.35999999999999,-1.92 -0.24,-0.55 -0.58,-1.01 -1.02,-1.38 -0.44000000000001,-0.37 -0.96,-0.65 -1.58000000000001,-0.84 -0.64,-0.2 -1.32,-0.29 -2.05999999999999,-0.29 -0.72,0 -1.39,0.11 -2,0.32 -0.61,0.21 -1.13,0.51 -1.57,0.89 -0.44,0.38 -0.78,0.83 -1.03,1.35 -0.25,0.52 -0.37,1.09 -0.37,1.7 l 2.6,0 c 0,-0.34 0.06,-0.64 0.18,-0.9 0.12,-0.27 0.29,-0.5 0.5,-0.68 0.21,-0.19 0.47,-0.34 0.76,-0.44 0.29,-0.1 0.61,-0.16 0.95,-0.16 0.8,0 1.39,0.21 1.78,0.62 0.39,0.41 0.58,0.99 0.58,1.73 0,0.36 -0.05,0.68 -0.16,0.97 -0.11,0.29 -0.27,0.54 -0.49,0.75 -0.22,0.21 -0.5,0.37 -0.82,0.49 -0.33,0.12 -0.72,0.18 -1.16,0.18 l -1.54,0 0,2.05 1.54,0 c 0.44,0 0.84,0.05 1.19,0.15 0.35,0.1 0.65,0.25 0.9,0.47 0.25,0.21 0.44,0.48 0.57999999999999,0.8 0.13,0.32 0.2,0.7 0.2,1.14 0,0.81 -0.23,1.43 -0.7,1.86 -0.44999999999999,0.42 -1.07999999999999,0.63 -1.89,0.63 z"
     id="path4179"
     inkscape:connector-curvature="0" />
  <path
     d="m 24.20015625,16 0,16 L 28.79,32 c 1.11,0 2.10953125,-0.1790625 3.01953125,-0.5390625 0.91,-0.36 1.68031250000001,-0.87125 2.3203125,-1.53125 0.64,-0.66 1.14046875,-1.46062500000001 1.48046875,-2.390625 0.35,-0.93 0.51953125000001,-1.97867187499999 0.51953125,-3.138671875 l 0,-0.791015625 c 0,-1.16 -0.17929687500001,-2.19867187499999 -0.529296875,-3.138671875 -0.35,-0.94 -0.840703125,-1.74039062499999 -1.470703125,-2.400390625 -0.63,-0.66 -1.38953125000001,-1.17125 -2.26953125,-1.53125 C 30.9703125,16.1790625 30.000625,16 28.930625,16 l -4.73046875,0 z m 2.779296875,2.240234375 1.951171875,0 c 1.44,0 2.52906249999999,0.459140625 3.2890625,1.369140625 0.75,0.92 1.13085937499999,2.24046874999999 1.130859375,3.98046875 l 0,0.8203125 -0.009765625,0 c 0,0.83 -0.091015625,1.59000000000001 -0.291015625,2.25 -0.18999999999999,0.67 -0.46960937499999,1.22945312499999 -0.849609375,1.689453125 -0.38,0.46 -0.849921875,0.810546875 -1.419921875,1.060546875 -0.57,0.24 -1.23023437499999,0.36914062500001 -1.990234375,0.369140625 l -1.810546875,0 0,-11.5390625 z"
     id="path4177"
     inkscape:connector-curvature="0" />
</svg>
