<svg xmlns="http://www.w3.org/2000/svg" fill="#00E676" viewBox="0 0 48 48"><defs><clipPath><path d="m-35.56-105.49h500.21v314.11h-500.21z"/></clipPath><clipPath><path d="m-35.56-105.49h500.21v314.11h-500.21z"/></clipPath><clipPath><path d="m-35.56-105.49h500.21v314.11h-500.21z"/></clipPath><clipPath><path d="m-35.56-105.49h500.21v314.11h-500.21z"/></clipPath><clipPath><path d="m-35.56-105.49h500.21v314.11h-500.21z"/></clipPath><clipPath><path d="m-35.56-105.49h500.21v314.11h-500.21z"/></clipPath><clipPath><path d="m-35.56-105.49h500.21v314.11h-500.21z"/></clipPath><clipPath><path d="m-35.56-105.49h500.21v314.11h-500.21z"/></clipPath><clipPath><path d="m-35.56-105.49h500.21v314.11h-500.21z"/></clipPath><clipPath><path d="m-35.56-105.49h500.21v314.11h-500.21z"/></clipPath><clipPath><path d="m-35.56-105.49h500.21v314.11h-500.21z"/></clipPath><clipPath><path d="m-35.56-105.49h500.21v314.11h-500.21z"/></clipPath><clipPath><path d="m-35.56-105.49h500.21v314.11h-500.21z"/></clipPath><clipPath><path d="m-35.56-105.49h500.21v314.11h-500.21z"/></clipPath><clipPath><path d="m-35.56-105.49h500.21v314.11h-500.21z"/></clipPath><clipPath><path d="m-35.56-105.49h500.21v314.11h-500.21z"/></clipPath><clipPath><path d="m-35.56-105.49h500.21v314.11h-500.21z"/></clipPath><clipPath><path d="m-35.56-105.49h500.21v314.11h-500.21z"/></clipPath><clipPath><path d="m-35.56-105.49h500.21v314.11h-500.21z"/></clipPath><clipPath><path d="m-35.56-105.49h500.21v314.11h-500.21z"/></clipPath><clipPath><path d="m-35.56-105.49h500.21v314.11h-500.21z"/></clipPath><clipPath><path d="m-35.56-105.49h500.21v314.11h-500.21z"/></clipPath><clipPath><path d="m-35.56-105.49h500.21v314.11h-500.21z"/></clipPath><clipPath><path d="m-35.56-105.49h500.21v314.11h-500.21z"/></clipPath><clipPath><path d="m-35.56-105.49h500.21v314.11h-500.21z"/></clipPath><clipPath><path d="m-35.56-105.49h500.21v314.11h-500.21z"/></clipPath><clipPath><path d="m-35.56-105.49h500.21v314.11h-500.21z"/></clipPath><clipPath><path d="m-35.56-105.49h500.21v314.11h-500.21z"/></clipPath><clipPath><path d="m-35.56-105.49h500.21v314.11h-500.21z"/></clipPath><clipPath><path d="m-35.56-105.49h500.21v314.11h-500.21z"/></clipPath><clipPath><path d="m-35.56-105.49h500.21v314.11h-500.21z"/></clipPath><clipPath><path d="m-35.56-105.49h500.21v314.11h-500.21z"/></clipPath><clipPath><path d="m-35.56-105.49h500.21v314.11h-500.21z"/></clipPath><clipPath><path d="m-35.56-105.49h500.21v314.11h-500.21z"/></clipPath><clipPath><path d="m-35.56-105.49h500.21v314.11h-500.21z"/></clipPath><clipPath><path d="m-35.56-105.49h500.21v314.11h-500.21z"/></clipPath><clipPath><path d="m-35.56-105.49h500.21v314.11h-500.21z"/></clipPath><clipPath><path d="m-35.56-105.49h500.21v314.11h-500.21z"/></clipPath><clipPath><path d="m-35.56-105.49h500.21v314.11h-500.21z"/></clipPath><clipPath><path d="m-35.56-105.49h500.21v314.11h-500.21z"/></clipPath><clipPath><path d="m-35.56-105.49h500.21v314.11h-500.21z"/></clipPath><clipPath><path d="m-35.56-105.49h500.21v314.11h-500.21z"/></clipPath><clipPath><path d="m-35.56-105.49h500.21v314.11h-500.21z"/></clipPath><clipPath><path d="m-35.56-105.49h500.21v314.11h-500.21z"/></clipPath><clipPath><path d="m-35.56-105.49h500.21v314.11h-500.21z"/></clipPath><clipPath><path d="m-35.56-105.49h500.21v314.11h-500.21z"/></clipPath><clipPath><path d="m-35.56-105.49h500.21v314.11h-500.21z"/></clipPath><clipPath><path d="m-35.56-105.49h500.21v314.11h-500.21z"/></clipPath><clipPath><path d="m-35.56-105.49h500.21v314.11h-500.21z"/></clipPath><clipPath><path d="m-35.56-105.49h500.21v314.11h-500.21z"/></clipPath><clipPath><path d="m-35.56-105.49h500.21v314.11h-500.21z"/></clipPath><clipPath><path d="m-35.56-105.49h500.21v314.11h-500.21z"/></clipPath><clipPath><path d="m-35.56-105.49h500.21v314.11h-500.21z"/></clipPath><clipPath><path d="m-35.56-105.49h500.21v314.11h-500.21z"/></clipPath><clipPath><path d="m-35.56-105.49h500.21v314.11h-500.21z"/></clipPath><clipPath><path d="m-35.56-105.49h500.21v314.11h-500.21z"/></clipPath><clipPath><path d="m-35.56-105.49h500.21v314.11h-500.21z"/></clipPath><clipPath><path d="m-35.56-105.49h500.21v314.11h-500.21z"/></clipPath><clipPath><path d="m-35.56-105.49h500.21v314.11h-500.21z"/></clipPath><clipPath><path d="m-35.56-105.49h500.21v314.11h-500.21z"/></clipPath><clipPath><path d="m-35.56-105.49h500.21v314.11h-500.21z"/></clipPath><clipPath><path d="m-35.56-105.49h500.21v314.11h-500.21z"/></clipPath><clipPath><path d="m-35.56-105.49h500.21v314.11h-500.21z"/></clipPath><clipPath><path d="m-35.56-105.49h500.21v314.11h-500.21z"/></clipPath><clipPath><path d="m-35.56-105.49h500.21v314.11h-500.21z"/></clipPath><clipPath><path d="m-35.56-105.49h500.21v314.11h-500.21z"/></clipPath><clipPath><path d="m-35.56-105.49h500.21v314.11h-500.21z"/></clipPath><clipPath><path d="m-35.56-105.49h500.21v314.11h-500.21z"/></clipPath><clipPath><path d="m-35.56-105.49h500.21v314.11h-500.21z"/></clipPath><clipPath><path d="m-35.56-105.49h500.21v314.11h-500.21z"/></clipPath><clipPath><path d="m-35.56-105.49h500.21v314.11h-500.21z"/></clipPath><clipPath><path d="m-35.56-105.49h500.21v314.11h-500.21z"/></clipPath><clipPath><path d="m-35.56-105.49h500.21v314.11h-500.21z"/></clipPath></defs><path d="m16 4c-2.21 0-4 1.79-4 4v24c0 2.21 1.79 4 4 4h24c2.21 0 4-1.79 4-4v-24c0-2.21-1.79-4-4-4h-24m11.873 8.635c3.403 0 6.646.364 8.99 2.385.667-.464 1.323-.647 1.92-.625 2.601.096 4.102 4.045.752 5.221.637 2.373.781 4.816.818 7.281h-10.373c.052-.049.108-.091.148-.156.183-.872-.006-1.783-.029-2.611-.484-.155-.987-.363-1.52-.477.002-.024.004-.048.006-.072-.074.006-.154.025-.23.037-.139-.021-.277-.044-.42-.047-.088-.01-.187.005-.281.008-.004.066-.011.13-.016.195-.363.101-.739.22-1.105.311-.221.055-.438.1-.648.121-.001 0-.003 0-.004 0-.282.894-.091 2.086.439 2.691h-10.217c-.162-2.295-.197-4.58.389-6.84-3.392-1.133-1.879-4.965.723-5.152.608-.044 1.273.114 1.949.549 2.216-1.943 5.381-2.555 8.709-2.818m4.734 1.602c-2.287.044-4.63 1.721-4.457 4.564.928 5.453 9.743 4.01 8.477-1.488-.497-2.158-2.241-3.111-4.02-3.076m-9.199.404c-2.499-.082-5.143 1.701-4.496 4.982 1.204 4.748 8.727 3.532 8.443-1.23-.149-2.496-2-3.688-3.947-3.752m9.162.607c1.344-.026 2.66.687 3.035 2.299.956 4.109-5.702 5.185-6.402 1.111-.131-2.124 1.64-3.377 3.367-3.41m5.904.242c-.302-.024-.629.054-.959.166.513.558.975 1.211 1.369 1.986.085.209.155.42.23.631.668-.478 1.029-1.097.537-1.984-.291-.525-.706-.761-1.178-.799m-15.15.16c1.467.048 2.866.939 2.979 2.803.214 3.558-5.465 4.467-6.373.92-.488-2.451 1.509-3.784 3.395-3.723m13.633.223l.014.023h.002l-.014-.023h-.002m-19.975.219c-.472.038-.887.273-1.178.799-.585 1.057.042 1.732.959 2.24.372-1.092.887-1.992 1.506-2.746-.441-.195-.884-.325-1.287-.293m13.597656 1.220703a1.096343 1.207616 0 0 0 -1.097656 1.207031 1.096343 1.207616 0 0 0 1.097656 1.207031 1.096343 1.207616 0 0 0 1.095704 -1.207031 1.096343 1.207616 0 0 0 -1.095704 -1.207031m-9.341796.300781a1.114914 1.207616 0 0 0 -1.115235 1.207031 1.114914 1.207616 0 0 0 1.115235 1.207032 1.114914 1.207616 0 0 0 1.115234 -1.207032 1.114914 1.207616 0 0 0 -1.115234 -1.207031m17.746.738c-.154.103-.31.205-.488.295l.002.002c.178-.09.331-.195.486-.297m-7.923828.134766a.258485 .306904 0 0 1 .017578 0 .258485 .306904 0 0 1 .257813 .306641 .258485 .306904 0 0 1 -.257813 .30664 .258485 .306904 0 0 1 -.257812 -.30664 .258485 .306904 0 0 1 .240234 -.306641m-9.333984.300781a.262846 .306904 0 0 1 .017578 0 .262846 .306904 0 0 1 .263672 .306641 .262846 .306904 0 0 1 -.263672 .306641 .262846 .306904 0 0 1 -.261719 -.306641 .262846 .306904 0 0 1 .244141 -.306641m6.77 5.865c.009 0 .019-.001.027 0 .281.006.538.144.781.236.008.353.076.74.01 1.111-.093.176-.276.196-.434.268-.174-.027-.312-.137-.41-.279-.027-.447-.011-.892.025-1.336m-.934.014c-.038.447-.055.895-.029 1.346-.664.661-1.039-.423-.85-1.111h.002c.08-.009.162-.027.246-.051.214-.06.43-.139.631-.184" fill-rule="evenodd"/><path d="m8 12h-4v28c0 2.21 1.79 4 4 4h28v-4h-28v-28"/><g fill-rule="evenodd"><path transform="translate(.415-8.479)" d="m27.543 29.2c-.784.081-1.516.523-1.482 1.309.003.024.016.044.021.066-.863.14-1.539 1.165-1.084 1.988.624 1.13 2.02-.1 2.885.016.999.02 1.817 1.056 2.619.188.843-.913-.248-1.79-1.213-2.24.073-.139.1-.295.053-.471-.177-.657-1.014-.937-1.799-.855z" fill="#fff" stroke="#00E676" stroke-linecap="round" stroke-width="1.05"/><path d="m28.3 20.18c-1.159-.016-2.378.662-2.328 2 .193 1.763 4.759 1.303 4.297-.684-.203-.871-1.068-1.304-1.969-1.316m-.295.859c.535-.055 1.106.135 1.227.584.241.895-2.14 1.103-2.24.309-.023-.536.478-.837 1.014-.893"/></g></svg>