<svg xmlns="http://www.w3.org/2000/svg" width="266.89" height="266.89" viewBox="0 0 266.893 266.895" enable-background="new 0 0 266.893 266.895"><path fill="#3c5a99" d="m248.08 262.31c7.854 0 14.223-6.369 14.223-14.225v-229.27c0-7.857-6.368-14.224-14.223-14.224h-229.27c-7.857 0-14.224 6.367-14.224 14.224v229.27c0 7.855 6.366 14.225 14.224 14.225h229.27"/><path fill="#fff" d="m182.41 262.31v-99.8h33.499l5.02-38.895h-38.515v-24.832c0-11.261 3.127-18.935 19.275-18.935l20.596-.009v-34.788c-3.562-.474-15.788-1.533-30.01-1.533-29.695 0-50.03 18.13-50.03 51.41v28.684h-33.585v38.895h33.585v99.8h40.17"/></svg>