<svg xmlns="http://www.w3.org/2000/svg" viewBox="0 0 128 128"><g transform="matrix(.67368 0 0 .67368-451.2-293.47)" fill-rule="evenodd" fill-opacity=".118"><path d="m128 0c-11.395 27.937-18.313 46.24-31 73.34 7.778 8.245 17.338 17.812 32.844 28.656-16.67-6.86-28.03-13.729-36.531-20.875-16.236 33.88-41.691 82.12-93.31 174.88 40.563-23.418 72.01-37.862 101.31-43.37-1.254-5.404-1.924-11.278-1.875-17.375l.031-1.281c.644-25.994 14.169-45.982 30.19-44.625 16.02 1.357 28.488 23.537 27.844 49.53-.121 4.896-.69 9.601-1.656 13.969 28.99 5.673 60.14 20.05 100.16 43.16-7.892-14.53-14.961-27.62-21.688-40.09-10.596-8.213-21.643-18.897-44.19-30.469 15.496 4.03 26.602 8.683 35.25 13.875-68.4-127.34-73.921-144.27-97.37-199.31" transform="matrix(.74219 0 0 .74219 669.75 435.62)"/><path d="m818.23 548.55c-41.18-55.895-50.727-100.94-53.14-111.7 21.967 50.669 21.817 51.29 53.14 111.7"/><path d="m64.25.563c-.709 1.744-1.407 3.421-2.063 5.03-.728 1.789-1.437 3.513-2.125 5.188-.688 1.675-1.355 3.324-2.031 4.938-.676 1.613-1.37 3.208-2.063 4.813-.692 1.605-1.389 3.195-2.125 4.844-.736 1.649-1.505 3.347-2.313 5.094-.808 1.747-1.655 3.54-2.563 5.438-.124.259-.28.551-.406.813 3.879 4.109 8.66 8.886 16.375 14.281-8.313-3.421-14-6.843-18.25-10.406-.219.447-.399.854-.625 1.313-.832 1.689-1.757 3.524-2.688 5.375-.227.452-.422.85-.656 1.313-.106.212-.237.442-.344.656-3.647 7.301-8.135 15.979-13.875 26.719 16.223-9.145 33.749-22.286 65.53-10.938-1.595-3.02-3.061-5.868-4.438-8.531-1.377-2.663-2.656-5.142-3.844-7.5-1.188-2.358-2.285-4.582-3.313-6.688-1.027-2.106-1.98-4.094-2.875-6-.896-1.906-1.739-3.741-2.531-5.5-.792-1.759-1.532-3.46-2.25-5.125-.718-1.665-1.421-3.284-2.094-4.906-.672-1.623-1.313-3.242-1.969-4.875-.259-.646-.522-1.315-.781-1.969-1.769-4.155-3.59-8.449-5.688-13.375" transform="matrix(1.48438 0 0 1.48438 669.75 435.62)"/></g></svg>