<svg xmlns="http://www.w3.org/2000/svg" viewBox="0 0 32 32"><defs><linearGradient id="0" gradientUnits="userSpaceOnUse" x1="1527.48" y1="501.65" x2="1523.27" y2="514.41"><stop stop-color="#fff" stop-opacity="0"/><stop offset="1" stop-color="#fff" stop-opacity=".272"/></linearGradient><linearGradient id="1" gradientUnits="userSpaceOnUse" gradientTransform="matrix(.12099 0 0 .12109 742.02 218.41)" x1="200.96" y1="508.03" x2="301.54" y2="296.88"><stop stop-color="#35a6c2"/><stop offset="1" stop-color="#c1e5ee"/></linearGradient></defs><g transform="translate(-655.66-27.344)"><text x="485" y="211.09" font-family="Trebuchet MS" font-size="24"><tspan x="485" y="211.09"/></text><g transform="translate(-100-221.09)" fill-rule="evenodd"><g stroke-linejoin="round" stroke-miterlimit="10"><path d="m771.66 248.93c-1.38 3.383-2.038 5.068-3.574 8.351.942.998 3.865 3.609 5.04 4.972-2.02-.831-4.896-2.192-5.925-3.057-1.966 4.103-4.785 9.502-11.04 20.734 4.89-2.823 8.687-4.572 12.222-5.246-.15-.65-.232-1.356-.226-2.089l.003-.155c.078-3.138 1.709-5.552 3.641-5.388 1.932.164 3.437 2.844 3.36 5.983-.014.58-.082 1.135-.195 1.654 3.529.678 7.319 2.427 12.194 5.241-.956-1.759-1.813-3.346-2.628-4.856-1.283-.818-5.142-3.121-5.792-4.28.783-.275 2.912.737 4.533 1.653-8.282-15.42-8.775-16.851-11.615-23.516z" fill="url(#1)" stroke="#08a"/><path d="m771.66 251.06c-1.191 2.919-.825 3.086-2.15 5.919.813.862 4.097 3.933 3.995 5.41-1.654.355-5.125-1.117-6.01-1.864-1.697 3.54-3.812 7.594-9.206 17.287 4.22-2.436 6.16-3.288 9.211-3.87-.13-.561-.2-1.17-.195-1.803l.003-.249c.067-2.708 1.924-5.948 4.39-5.849 2.377.096 4.51 3.545 4.443 6.253-.012.501-.071.98-.168 1.428 3.045.585 4.86 1.661 9.07 4.09-.825-1.518-.738-.94-1.441-2.243-1.194-.841-5.603-4.04-5.656-5.236 1.525.054 2.738.063 3.731.57-7.147-13.307-7.56-14.09-10.01-19.842z" fill="none" stroke="#e0f8fb" stroke-linecap="round" stroke-width=".6"/></g><path d="m780.55 268.63c-6.754-9.09-8.339-16.438-8.74-18.19 3.615 8.253 3.591 8.355 8.74 18.19" fill="#fff" fill-opacity=".456"/><path d="m771.85 249.56c-.193.474-.355.91-.531 1.344-.176.433-.365.844-.531 1.25-.167.406-.336.828-.5 1.219-.164.391-.301.768-.469 1.156-.168.389-.353.788-.531 1.188-.178.399-.367.796-.563 1.219-.098.212-.209.436-.313.656 1.108 1.119 3.624 3.382 4.719 4.656-1.834-.755-4.372-1.92-5.594-2.781-.042.086-.082.162-.125.25-.251.509-.524 1.023-.813 1.594-.288.571-.605 1.198-.938 1.844-.166.323-.706 1.34-1.25 2.375-.544 1.035-1.089 2.071-1.281 2.438 3.935-2.215 8.194-5.41 15.906-2.656-.386-.731-.76-1.418-1.094-2.063-.333-.645-.65-1.273-.938-1.844-.288-.571-.532-1.084-.781-1.594-.249-.51-.502-1.01-.719-1.469-.217-.462-.402-.886-.594-1.313-.192-.426-.389-.847-.563-1.25-.174-.403-.337-.794-.5-1.188-.163-.393-.31-.792-.469-1.188-.159-.396-.338-.808-.5-1.219-.162-.411-.297-.811-.469-1.25-.171-.439-.374-.895-.563-1.375" fill="url(#0)"/></g></g></svg>