<svg xmlns="http://www.w3.org/2000/svg" fill="#2196F3" viewBox="0 0 48 48"><path d="m10 6c-2.21 0-4 1.79-4 4v28c0 2.21 1.79 4 4 4h28c2.21 0 4-1.79 4-4v-28c0-2.21-1.79-4-4-4h-28m2.135 2.939h1.482v3.668c.203-.281.448-.496.732-.646.285-.151.618-.227.996-.227.826 0 1.463.322 1.91.965.452.643.678 1.493.678 2.551v.129c0 .964-.226 1.742-.678 2.332-.448.586-1.081.879-1.898.879-.411 0-.769-.083-1.074-.25-.301-.167-.552-.413-.756-.734l-.148.855h-1.244v-9.521m10.455 2.795c.431 0 .802.098 1.111.293.309.195.541.488.695.879.203-.366.473-.652.807-.859.334-.208.724-.313 1.172-.313.663 0 1.186.228 1.568.684.387.452.58 1.139.58 2.063v3.98h-1.484v-3.986c0-.562-.098-.956-.293-1.184-.191-.228-.481-.342-.867-.342-.317 0-.585.085-.805.256-.22.171-.379.401-.477.689 0 .061.002.115.006.16.004.045.006.086.006.127v4.279h-1.482v-3.986c0-.541-.099-.93-.299-1.166-.195-.24-.485-.359-.867-.359-.301 0-.558.06-.77.178-.208.114-.372.277-.494.488v4.846h-1.482v-6.604h1.355l.078.859c.216-.313.487-.554.813-.725.326-.171.702-.258 1.129-.258m10.693 0c.814 0 1.447.324 1.898.971.456.643.684 1.491.684 2.545v.129c0 .96-.226 1.734-.678 2.324-.452.59-1.081.887-1.887.887-.374 0-.705-.069-.994-.203-.289-.134-.537-.331-.744-.592v3.205h-1.484v-9.143h1.252l.146.83c.212-.309.467-.546.764-.709.301-.163.648-.244 1.043-.244m-18.311 1.215c-.33 0-.606.074-.83.221-.22.146-.395.349-.525.609v2.771c.126.264.302.471.525.617.224.142.504.213.842.213.513 0 .885-.179 1.117-.537.232-.362.348-.85.348-1.465v-.129c0-.688-.118-1.243-.354-1.666-.236-.423-.61-.635-1.123-.635m17.896 0c-.309 0-.571.067-.787.201-.216.13-.389.313-.52.549v2.986c.13.232.304.411.52.537.216.122.481.182.799.182.505 0 .881-.184 1.129-.555.252-.374.379-.864.379-1.471v-.129c0-.675-.128-1.227-.385-1.654-.252-.431-.63-.646-1.135-.646m-3.869 11.05l9 12h-28l7-9 5 6.01 7-9.01"/></svg>