<svg xmlns="http://www.w3.org/2000/svg" fill="#9C27B0" viewBox="0 0 48 48"><g transform="matrix(.04435 0 0-.04435-1.33 48)"><path d="m71 460l-41-460h451l-41 460-185 52" fill="#e34f26"/><path d="m256 472l149-41 35-394h-184" fill="#ef652a"/><path d="m256 208h-75l-5-58h80v-56h-1-141l1 15 14 156h127zm0 147h-1l-63-17-4-45h-30-26l7 89 116 32h1z" fill="#ebebeb"/><path d="m255 208v57h70l-7 73-63 17v59l116-32 1-10 13-149 2-15h-16zm0-114v35 21h137l1-12 3-29 1-15z" fill="#fff"/></g><g fill="#e34f26"><path d="m12 4c-2.21 0-3.98 1.79-3.98 4l-.01 14.932 1.961-.525 6.03 1.607v-.014h16v4h-10.883l.377 4h10.506v4h-10.131l.752 8h13.379c2.21 0 4-1.79 4-4v-24l-12-12h-16m14 3l11 11h-11v-11"/></g></svg>