<svg height="338.579742" viewBox="0 0 351.457016 338.579737" width="351.457031" xmlns="http://www.w3.org/2000/svg"><path d="m210.082031 0-9.93164 13.6875c-13.267 19.523-14.567235 43.769031-5.365235 65.332031 9.709 22.886 29.600406 40.841516 52.816407 49.353516.958.357 1.912812.673953 2.882812 1.001953.424.129.845484.274391 1.271484.400391 1.367.43 2.724672.931265 4.138672 1.197265 64.158 12.396 81.556453-32.92375 86.189453-39.59375-15.242 21.947-40.857015 27.214891-72.291015 19.587891-2.479-.605-5.210469-1.501609-7.605469-2.349609-3.069-1.094001-6.092344-2.340954-9.027344-3.751954-5.585-2.681-10.899937-5.934156-15.835937-9.660156-28.124-21.34-45.594188-62.050078-27.242188-95.205078zm-72.783203 15.886719-18.386719 25.953125c-22.503 32.384-21.282515 75.732469-3.728515 109.980469 2.944 5.742 6.253125 11.311234 9.953125 16.615234 3.372 4.831 7.108984 10.581844 11.583984 14.464844 1.623 1.786 3.318781 3.529187 5.050781 5.242187.438.445.883079.8755 1.330079 1.3125 1.681 1.63 3.392156 3.234016 5.160156 4.791016.073.058.135984.131593.208984.183594.018.021.035828.027781.048828.050781 1.956 1.713 3.975391 3.360422 6.025391 4.982422.456.347.906234.711359 1.365234 1.068359 2.057 1.575 4.153688 3.124563 6.304688 4.601563.064.044.117594.091671.183594.138671.947.656 1.914 1.266485 2.875 1.896485.460999.3.898281.61939 1.363281.90039 1.535.984 3.089922 1.942328 4.669922 2.861329.224.139.443109.255812.662109.382812 1.362.784 2.742906 1.555641 4.128906 2.306641.481.271.974797.512578 1.466797.767578.955.5 1.912719 1.00914 2.886719 1.49414.146.069.300453.135266.439453.197266 1.983.977 3.983391 1.916641 6.025391 2.806641.434.193.886078.363875 1.330078.546875 1.63.692 3.2815 1.371859 4.9375 2.005859.704.267 1.414281.520391 2.113281.775391 1.506.559 3.017109 1.069078 4.537109 1.580078.688.219 1.361782.442297 2.050782.654297 2.162.671 4.302593 1.521484 6.558593 1.896484 116.19 19.25 143.013672-70.208984 143.013672-70.208984-24.183 34.824-71.009515 51.442703-120.978515 38.470703-2.217-.584-4.404172-1.219297-6.576172-1.904297-.668-.2-1.318516-.417719-1.978516-.636719-1.545-.5-3.081469-1.031937-4.605469-1.585937-.696-.256-1.392171-.511438-2.076171-.773438-1.667-.642-3.318172-1.305047-4.951172-1.998047-.449-.189-.897938-.364453-1.335938-.564453-2.052-.894-4.070547-1.834359-6.060547-2.818359-1.024-.499-2.030015-1.026922-3.041015-1.544922-.583-.303-1.170907-.605297-1.753907-.904297-1.295-.701-2.580703-1.431922-3.845703-2.169922-.303-.173-.616828-.336531-.923828-.519531-1.57-.921-3.119297-1.86775-4.654297-2.84375-.474-.301-.931297-.6285-1.404297-.9375-1.014-.656-2.021578-1.322094-3.017578-1.996094-2.14-1.477-4.223297-3.02575-6.279297-4.59375-.474-.374-.947062-.739281-1.414062-1.113281-21.871-17.27-39.207172-40.867953-47.451172-67.626953-8.638-27.753-6.776547-58.9055 8.189453-84.1875zm-90.693359 32.826172-24.28711 30.80664c-31.116 44.727-27.242656 102.910594-3.472656 150.433594.565 1.138 1.158188 2.261859 1.742188 3.380859.374.711.723328 1.440625 1.111328 2.140625.219.42.465359.830469.693359 1.230469.405.759.820234 1.47875 1.240235 2.21875.738 1.302 1.494531 2.594672 2.269531 3.888672.428.711.849968 1.421813 1.292969 2.132813.856999 1.386 1.735765 2.754093 2.634765 4.121093.374.583.738094 1.165469 1.121094 1.730469 1.24 1.849 2.5065 3.693859 3.8125 5.505859.033.048.069375.097532.109375.144532.206.288.434531.572281.644531.863281 1.13 1.561 2.296563 3.100047 3.476563 4.623047.434.555.870593 1.112015 1.308593 1.666015 1.052 1.324 2.124891 2.637219 3.212891 3.949219.407.488.816562.982844 1.226563 1.464844 1.461999 1.721 2.952609 3.435328 4.474609 5.111328.027.029.063797.065703.091797.095703.064.073.117875.1155.171875.1875 1.486 1.623 3.008828 3.208922 4.548828 4.794922.478.492.965031.985703 1.457031 1.470703 1.194 1.203 2.405859 2.383547 3.63086 3.560547.497999.475.990328.960109 1.486328 1.412109 1.637 1.542 3.290562 3.05525 4.976562 4.53125.029.025.050125.0475.078125.0625.286.255.584188.496235.867188.740235 1.486 1.287 2.999484 2.562406 4.521484 3.816406.62.503 1.248094.995141 1.871094 1.494141 1.245.996 2.502531 1.979312 3.769531 2.945312.669.511 1.339672 1.02125 2.013672 1.53125 1.398 1.028 2.808469 2.041203 4.230469 3.033203.518.375 1.021015.73975 1.541015 1.09375.144.102.275875.203735.421875.302735 1.349.93 2.729422 1.822797 4.107422 2.716797.593.394 1.180344.802546 1.777344 1.185546 2.114 1.338 4.260687 2.6605 6.429687 3.9375.589.339 1.183391.665954 1.775391 1.001954 1.595.922 3.200172 1.821984 4.826172 2.708984.88.474 1.782875.919 2.671875 1.375 1.146.602 2.285172 1.210922 3.451172 1.794922.265.131.539828.258719.798828.386719.47.226.943062.44364 1.414062.68164 1.808.863 3.629657 1.713203 5.472657 2.533203.392.176.771203.346578 1.158203.517578 2.109.923 4.234812 1.809297 6.382812 2.654297.516.212 1.037641.407328 1.556641.611328 1.987.766 4.000437 1.520469 6.023437 2.230469.255.092.50086.175672.75586.263672 2.219.776 4.46175 1.494266 6.71875 2.197266.538.157 1.078094.329328 1.621094.486328 2.297.692 4.565546 1.520031 6.935546 1.957031 150.486 27.442 194.199219-90.433594 194.199219-90.433594-36.713 47.829-101.880094 60.445438-163.621094 46.398438-2.341-.528-4.610578-1.256641-6.892578-1.931641-.58-.171-1.14775-.346484-1.71875-.521484-2.228-.682-4.438765-1.400203-6.634765-2.158203-.301-.109-.60511-.219125-.91211-.328125-1.969-.693-3.914562-1.421922-5.851562-2.169922-.547-.219-1.093625-.427485-1.640625-.646485-2.124-.838-4.233407-1.712046-6.316406-2.623046-.429001-.183-.838719-.375594-1.261719-.558594-1.792-.812-3.563125-1.630469-5.328125-2.480469-.51-.244-1.020063-.485234-1.539063-.740234-1.386-.675-2.756047-1.391703-4.123047-2.095703-.915-.48-1.845-.937454-2.75-1.439454-1.669-.894-3.307453-1.823484-4.939453-2.771484-.552-.31-1.111968-.607687-1.667968-.929687-2.169-1.275-4.312594-2.598454-6.433594-3.939454-.585-.372-1.157375-.77325-1.734375-1.15625-1.539-.991-3.071125-2.001921-4.578125-3.044921-.5-.335-.98261-.700157-1.47461-1.035157-1.457-1.028-2.896125-2.069953-4.328125-3.126953-.648-.481-1.286015-.970172-1.916015-1.451172-1.311-1.003-2.61525-2.013734-3.90625-3.052734-.583-.463-1.166235-.928531-1.740235-1.394531-1.641-1.349-3.263281-2.70661-4.863281-4.09961-.167-.146-.350203-.290265-.533203-.447265-1.731-1.521-3.432281-3.081438-5.113281-4.648438-.489-.467-.961453-.917765-1.439453-1.384765-1.245-1.185001-2.470828-2.378516-3.673828-3.603516-.483-.481-.965454-.953547-1.439454-1.435547-1.531-1.567-3.034812-3.157531-4.507812-4.769531-.073-.08-.148656-.152328-.222656-.236328-1.559-1.702-3.081266-3.445125-4.572266-5.203125-.405-.484-.795266-.947875-1.197266-1.421875-1.112-1.342-2.216015-2.69736-3.291015-4.06836-.405-.488-.808031-.994953-1.207031-1.501953-1.296-1.681-2.560782-3.357547-3.800782-5.060547-34.279-46.757-46.593312-111.24889-19.195312-164.21289z" fill="#0868ac" transform=""/></svg>