<?xml version="1.0" encoding="UTF-8" standalone="no"?>
<svg
   xmlns:dc="http://purl.org/dc/elements/1.1/"
   xmlns:cc="http://creativecommons.org/ns#"
   xmlns:rdf="http://www.w3.org/1999/02/22-rdf-syntax-ns#"
   xmlns:svg="http://www.w3.org/2000/svg"
   xmlns="http://www.w3.org/2000/svg"
   xmlns:sodipodi="http://sodipodi.sourceforge.net/DTD/sodipodi-0.dtd"
   xmlns:inkscape="http://www.inkscape.org/namespaces/inkscape"
   fill="#2196F3"
   width="48"
   height="48"
   viewBox="0 0 48 48"
   id="svg2"
   version="1.1"
   inkscape:version="0.91 r13725"
   sodipodi:docname="zperm_data_setting.svg">
  <metadata
     id="metadata10">
    <rdf:RDF>
      <cc:Work
         rdf:about="">
        <dc:format>image/svg+xml</dc:format>
        <dc:type
           rdf:resource="http://purl.org/dc/dcmitype/StillImage" />
      </cc:Work>
    </rdf:RDF>
  </metadata>
  <defs
     id="defs8" />
  <sodipodi:namedview
     pagecolor="#ffffff"
     bordercolor="#666666"
     borderopacity="1"
     objecttolerance="10"
     gridtolerance="10"
     guidetolerance="10"
     inkscape:pageopacity="0"
     inkscape:pageshadow="2"
     inkscape:window-width="1366"
     inkscape:window-height="713"
     id="namedview6"
     showgrid="false"
     inkscape:snap-bbox="true"
     inkscape:bbox-nodes="true"
     inkscape:snap-intersection-paths="true"
     inkscape:object-nodes="true"
     inkscape:snap-smooth-nodes="true"
     inkscape:object-paths="true"
     inkscape:snap-nodes="false"
     inkscape:zoom="3.47660834175105"
     inkscape:cx="13.5189530874876"
     inkscape:cy="13.46453922304914"
     inkscape:window-x="0"
     inkscape:window-y="30"
     inkscape:window-maximized="1"
     inkscape:current-layer="svg2" />
  <g
     style="fill:#2196F3"
     id="g4148"
     transform="matrix(1.25,0,0,1.25,-6,-6)">
    <path
       d="M 4 4 L 4 14 L 14 14 L 14 4 L 4 4 z M 19 4 L 19 12.064453125 A 12.70694541931152 13 0 0 1 24 11 A 12.70694541931152 13 0 0 1 29 12.05078125 L 29 4 L 19 4 z M 34 4 L 34 14 L 44 14 L 44 4 L 34 4 z M 4 19 L 4 29 L 12.283203125 29 A 12.70694541931152 13 0 0 1 11.29296875 24 A 12.70694541931152 13 0 0 1 12.275390625 19 L 4 19 z M 35.716796875 19 A 12.70694541931152 13 0 0 1 36.70703125 24 A 12.70694541931152 13 0 0 1 35.724609375 29 L 44 29 L 44 19 L 35.716796875 19 z M 4 34 L 4 44 L 14 44 L 14 34 L 4 34 z M 34 34 L 34 44 L 44 44 L 44 34 L 34 34 z M 29 35.935546875 A 12.70694541931152 13 0 0 1 24 37 A 12.70694541931152 13 0 0 1 19 35.94921875 L 19 44 L 29 44 L 29 35.935546875 z "
       transform="matrix(0.8,0,0,0.8,4.800000000000001,4.800000000000001)"
       id="path4140" />
  </g>
  <g
     id="g4164"
     transform="translate(39.22999023038008,10.73675247430508)">
    <path
       id="path4153"
       d="m 45.41,38.98000000000001 c 0.04,-0.32 0.07,-0.64 0.07,-0.97999999999999 0,-0.32999999999999 -0.03,-0.65999999999999 -0.07,-0.97999999999999 l 2.11000000000001,-1.64999999999999 c 0.19,-0.15 0.23999999999999,-0.42000000000001 0.12,-0.64000000000001 l -2,-3.46000000000001 c -0.12,-0.22 -0.39,-0.3 -0.61,-0.22 L 42.54,32.05000000000003 c -0.52,-0.4 -1.07999999999999,-0.73000000000001 -1.68999999999999,-0.98000000000001 l -0.37,-2.64999999999999 c -0.04,-0.24 -0.25,-0.42000000000001 -0.5,-0.42000000000001 l -4,0 c -0.25,0 -0.45999999999998,0.18 -0.48999999999998,0.42000000000001 l -0.36999999999999,2.64999999999999 c -0.61,0.25 -1.16999999999999,0.59 -1.69,0.98000000000001 l -2.49000000000002,-1.00000000000001 c -0.23,-0.09 -0.48999999999999,0 -0.60999999999998,0.22 l -2,3.46000000000001 c -0.13,0.22 -0.07,0.49000000000001 0.12,0.64000000000001 l 2.11,1.64999999999999 c -0.04,0.32 -0.07,0.65000000000002 -0.07,0.97999999999999 0,0.33000000000002 0.03,0.65999999999999 0.07,0.97999999999999 L 28.45,40.63 c -0.19,0.15 -0.24,0.42000000000001 -0.12,0.64000000000001 l 2,3.46 C 30.46,44.95 30.72,45.03 30.94,44.95 l 2.49,-1 c 0.52,0.4 1.08,0.73 1.69,0.98 l 0.37,2.65 C 35.53,47.82 35.74,48 35.98,48 l 4,0 c 0.25,0 0.45,-0.18 0.49,-0.42 l 0.37,-2.65 C 41.45,44.68 42.01,44.34000000000001 42.53,43.95 l 2.49000000000001,1 C 45.25,45.04000000000002 45.50999999999999,44.95 45.63,44.73000000000001 l 2,-3.46 C 47.76,41.05000000000001 47.7,40.78 47.51,40.63 l -2.1,-1.64999999999999 z"
       inkscape:connector-curvature="0" />
    <path
       id="path4"
       d="m 37.98,41 c -1.66,0 -3,-1.34 -3,-3 0,-1.65999999999999 1.34,-3 3,-3 1.66,0 3,1.34000000000001 3,3 0,1.66 -1.34,3 -3,3 z"
       inkscape:connector-curvature="0" />
  </g>
  <path
     d="m 102.2455516197797,17.16400322345763 c -0.25,0 -0.460234375,0.17992187499999 -0.490234375,0.419921875 l -0.37109375,2.650390625 c -0.61,0.25 -1.169453125,0.59046874999999 -1.689453125,0.98046875 l -2.490234375,-1 c -0.22999999999999,-0.09 -0.48937500000001,-0.00125 -0.609375,0.21875 l -1.99999999999997,3.4609375 c -0.13000000000001,0.21999999999999 -0.070859375,0.488671875 0.119140625,0.638671875 l 2.11132812499997,1.650390625 c -0.04,0.32 -0.0703125,0.65046875 -0.0703125,0.98046875 0,0.33000000000001 0.0303125,0.66046875000001 0.0703125,0.98046875 l -2.11132812499997,1.650390625 c -0.19,0.14999999999999 -0.23914062500002,0.418671875 -0.119140625,0.638671875 l 1.99999999999997,3.4609375 c 0.13000000000001,0.21999999999999 0.389375,0.29874999999996 0.609375,0.21875 l 2.490234375,-1 c 0.52,0.40000000000001 1.079453125,0.73046875000002 1.689453125,0.98046875 l 0.37109375,2.650390625 c 0.04,0.24 0.250234375,0.419921875 0.490234375,0.419921875 l 4,0 c 0.25,0 0.450234375,-0.17992187500001 0.490234375,-0.419921875 l 0.369140625,-2.650390625 c 0.61,-0.25 1.169453125,-0.59046875 1.689453125,-0.98046875 l 2.490234375,1 c 0.23,0.09 0.491328125,0.00125 0.611328125,-0.21875 l 2,-3.4609375 c 0.13,-0.22 0.06890625,-0.488671875 -0.12109375,-0.638671875 l -2.099609375,-1.650390625 c 0.04,-0.32 0.0703125,-0.64046875000002 0.0703125,-0.98046875 0,-0.33 -0.0303125,-0.66046875 -0.0703125,-0.98046875 l 2.109375,-1.650390625 c 0.19,-0.15 0.24109375,-0.41867187500001 0.12109375,-0.638671875 l -2,-3.4609375 c -0.12,-0.22 -0.391328125,-0.29875 -0.611328125,-0.21875 l -2.490234375,1 c -0.52,-0.4 -1.079453125,-0.73046875 -1.689453125,-0.98046875 l -0.369140625,-2.650390625 c -0.04,-0.24000000000001 -0.25,-0.419921875 -0.5,-0.419921875 l -4,0 z"
     id="path4170"
     style="stroke:#000000;stroke-width:6;stroke-miterlimit:4;stroke-dasharray:none;stroke-opacity:1"
     inkscape:connector-curvature="0" />
  <g
     style="fill:#2196F3"
     id="g4197"
     transform="matrix(0.5,0,0,0.5,34.14802256420339,74.91715449911865)">
    <path
       id="path4189"
       d="M 24,34.54 36.36,42 33.09000000000001,27.94 44,18.49 29.62,17.25 24,4 18.38,17.25 4,18.49 14.91,27.94 11.64,42 Z"
       inkscape:connector-curvature="0" />
  </g>
  <g
     style="fill:#2196F3"
     id="g4211"
     transform="matrix(0.5,0,0,0.5,12,12)">
    <path
       id="path4203"
       d="M 24,4 C 12.95,4 4,12.95 4,24 4,35.04 12.95,44 24,44 35.04,44 44,35.04 44,24 44,12.95 35.04,4 24,4 Z M 20,34 10,24 12.83,21.17 20,28.34 35.17,13.17 38,16 20,34 Z"
       inkscape:connector-curvature="0" />
  </g>
  <g
     style="fill:#2196F3"
     id="g4224"
     transform="translate(-33.49200967037288,44.4222026241356)">
    <path
       id="path4216"
       d="m 24,20 c -2.21,0 -4,1.79 -4,4 0,2.21 1.79,4 4,4 2.21,0 4,-1.79 4,-4 0,-2.21 -1.79,-4 -4,-4 z M 38,6 10,6 C 7.79,6 6,7.79 6,10 l 0,28 c 0,2.21 1.79,4 4,4 l 28,0 c 2.21,0 4,-1.79 4,-4 L 42,10 C 42,7.79 40.21,6 38,6 Z m -3.5,18 c 0,0.46 -0.04,0.92 -0.1,1.37 l 2.96,2.32 c 0.26,0.21 0.34,0.59 0.16,0.89 l -2.8,4.85 c -0.17,0.3 -0.54,0.42 -0.86,0.3 L 30.37,32.32 C 29.65,32.88 28.85999999999999,33.34000000000001 28,33.7 l -0.52,3.71000000000001 C 27.44,37.74 27.15,38.00000000000002 26.8,38.00000000000002 l -5.60000000000001,0 c -0.35,0 -0.64,-0.26 -0.69,-0.59000000000001 L 19.98999999999999,33.7 c -0.85,-0.35 -1.64,-0.82 -2.37,-1.38 l -3.48,1.4 c -0.32,0.12 -0.68,0 -0.86,-0.3 l -2.8,-4.85 c -0.18,-0.3 -0.1,-0.68 0.16,-0.89 l 2.96,-2.31 c -0.06,-0.45 -0.1,-0.9 -0.1,-1.37 0,-0.46 0.04,-0.92 0.1,-1.37 l -2.96,-2.31 c -0.26,-0.21 -0.34,-0.59 -0.16,-0.89 l 2.8,-4.85 c 0.18,-0.3 0.54,-0.42 0.86,-0.3 l 3.48,1.4 c 0.72,-0.55 1.51,-1.02 2.37,-1.38 l 0.52,-3.71 c 0.05,-0.33 0.34,-0.59 0.69,-0.59 L 26.8,10 c 0.35,0 0.64,0.26 0.69,0.59 l 0.52,3.71 c 0.85,0.35 1.64,0.82 2.37,1.38 l 3.48,-1.4 c 0.32,-0.12 0.68,0 0.86,0.3 l 2.8,4.85 c 0.18,0.3 0.1,0.68 -0.16,0.89 l -2.96,2.32 c 0.06,0.44 0.1,0.9 0.1,1.36 z"
       inkscape:connector-curvature="0" />
  </g>
</svg>
