<?xml version="1.0" encoding="UTF-8" standalone="no"?>
<svg
   xmlns:dc="http://purl.org/dc/elements/1.1/"
   xmlns:cc="http://creativecommons.org/ns#"
   xmlns:rdf="http://www.w3.org/1999/02/22-rdf-syntax-ns#"
   xmlns:svg="http://www.w3.org/2000/svg"
   xmlns="http://www.w3.org/2000/svg"
   xmlns:sodipodi="http://sodipodi.sourceforge.net/DTD/sodipodi-0.dtd"
   xmlns:inkscape="http://www.inkscape.org/namespaces/inkscape"
   width="48"
   height="48"
   viewBox="0 0 48 48"
   id="svg2"
   version="1.1"
   inkscape:version="0.91 r13725"
   sodipodi:docname="gpm-keyboard-000.svg"
   style="fill:#FFC107">
  <metadata
     id="metadata10">
    <rdf:RDF>
      <cc:Work
         rdf:about="">
        <dc:format>image/svg+xml</dc:format>
        <dc:type
           rdf:resource="http://purl.org/dc/dcmitype/StillImage" />
        <dc:title />
      </cc:Work>
    </rdf:RDF>
  </metadata>
  <defs
     id="defs8" />
  <sodipodi:namedview
     pagecolor="#ffffff"
     bordercolor="#666666"
     borderopacity="1"
     objecttolerance="10"
     gridtolerance="10"
     guidetolerance="10"
     inkscape:pageopacity="0"
     inkscape:pageshadow="2"
     inkscape:window-width="1366"
     inkscape:window-height="713"
     id="namedview6"
     showgrid="false"
     inkscape:snap-bbox="true"
     inkscape:bbox-nodes="true"
     inkscape:snap-page="true"
     inkscape:zoom="3.285234660014124"
     inkscape:cx="52.74546707154775"
     inkscape:cy="-2.075337256269734"
     inkscape:window-x="0"
     inkscape:window-y="30"
     inkscape:window-maximized="1"
     inkscape:current-layer="svg2"
     inkscape:object-paths="true"
     inkscape:snap-smooth-nodes="true"
     inkscape:snap-midpoints="true"
     inkscape:object-nodes="false"
     inkscape:snap-intersection-paths="true"
     inkscape:snap-nodes="false"
     fit-margin-top="0"
     fit-margin-left="0"
     fit-margin-right="0"
     fit-margin-bottom="0" />
  <path
     d="m 40,9.999999999999989 -32.000000000000007,0 c -2.209999999999997,0 -3.979999999999993,1.790000000000001 -3.979999999999993,4 L 4,34.00000000000001 c 0,2.21000000000001 1.79,4 4.000000000000011,4 l 31.999999999999989,0 c 2.21000000000001,0 4,-1.78999999999999 4,-4 l 0,-20 C 44,11.79 42.21000000000001,10 40,10 Z m -18.00000000000001,6 4,0 0,3.99999999999999 -4,0 0,-3.99999999999999 z m 0,5.99999999999999 4,0 0,4 -4,0 0,-4 z m -6,-5.99999999999999 4,0 0,3.99999999999999 -4,0 0,-3.99999999999999 z m 0,5.99999999999999 4,0 0,4 -4,0 0,-4 z m -2,4 -3.999999999999998,0 0,-4 4.000000000000009,0 -1e-14,4 z m 1e-14,-6 -4.000000000000009,0 0,-3.99999999999999 4.000000000000009,0 0,3.99999999999999 z m 17.99999999999998,14.00000000000003 -16,0 0,-4.00000000000001 16,0 0,4.00000000000001 z m 0,-8.00000000000001 -4,0 0,-4 4,0 0,4 z m 0,-6 -4,0 0,-3.99999999999999 4,0 0,3.99999999999999 z m 6.00000000000001,6 -4.00000000000002,0 0,-4 4.00000000000002,0 0,4 z m 0,-6 -4.00000000000002,0 0,-3.99999999999999 4.00000000000002,0 0,3.99999999999999 z"
     id="path4"
     inkscape:connector-curvature="0"
     style="opacity:0.3" />
</svg>
