<?xml version="1.0" encoding="UTF-8" standalone="no"?>
<!-- Created with Inkscape (http://www.inkscape.org/) -->

<svg
   xmlns:dc="http://purl.org/dc/elements/1.1/"
   xmlns:cc="http://creativecommons.org/ns#"
   xmlns:rdf="http://www.w3.org/1999/02/22-rdf-syntax-ns#"
   xmlns:svg="http://www.w3.org/2000/svg"
   xmlns="http://www.w3.org/2000/svg"
   xmlns:sodipodi="http://sodipodi.sourceforge.net/DTD/sodipodi-0.dtd"
   xmlns:inkscape="http://www.inkscape.org/namespaces/inkscape"
   id="svg2"
   version="1.1"
   inkscape:version="0.91 r13725"
   xml:space="preserve"
   width="40.72374725341797"
   height="39.71858215332031"
   viewBox="0 0 40.72374725341796 39.71858215332031"
   sodipodi:docname="github.svg"><metadata
     id="metadata8"><rdf:RDF><cc:Work
         rdf:about=""><dc:format>image/svg+xml</dc:format><dc:type
           rdf:resource="http://purl.org/dc/dcmitype/StillImage" /><dc:title></dc:title></cc:Work></rdf:RDF></metadata><defs
     id="defs6" /><sodipodi:namedview
     pagecolor="#ffffff"
     bordercolor="#666666"
     borderopacity="1"
     objecttolerance="10"
     gridtolerance="10"
     guidetolerance="10"
     inkscape:pageopacity="0"
     inkscape:pageshadow="2"
     inkscape:window-width="1366"
     inkscape:window-height="713"
     id="namedview4"
     showgrid="false"
     inkscape:zoom="1.414213567969167"
     inkscape:cx="145.4798465398491"
     inkscape:cy="-62.38070274385061"
     inkscape:window-x="0"
     inkscape:window-y="31"
     inkscape:window-maximized="1"
     inkscape:current-layer="g10"
     inkscape:snap-bbox="true"
     inkscape:bbox-nodes="true"
     inkscape:snap-page="true"
     inkscape:snap-intersection-paths="true"
     inkscape:object-nodes="true"
     inkscape:snap-smooth-nodes="true"
     inkscape:snap-midpoints="true"
     inkscape:object-paths="false"
     inkscape:bbox-paths="false"
     inkscape:snap-nodes="false"
     fit-margin-top="0"
     fit-margin-left="0"
     fit-margin-right="0"
     fit-margin-bottom="0" /><g
     id="g10"
     inkscape:groupmode="layer"
     inkscape:label="GitHub-Mark"
     transform="matrix(1.25,0,0,-1.25,-95.27625107535641,309.5155340751903)"><path
       inkscape:connector-curvature="0"
       style="opacity:1;fill:#231f20;fill-opacity:1;fill-rule:nonzero;stroke:none;stroke-width:1.6000000238;stroke-miterlimit:4;stroke-dasharray:none;stroke-opacity:0.5411764706"
       d="m 84.214866827082,240.8922718646442 c -0.17699218750002,-0.00809570312 -0.2625,-0.0359375 -0.2625,-0.0359375 -0.88600000000001,-2.243 -0.3258125,-3.8989375000001 -0.15781249999999,-4.3109375000001 -1.04200000000002,-1.1389999999999 -1.67812500000001,-2.5923124999998 -1.67812500000001,-4.3703125 0,-6.2420000000001 3.8033125,-7.6405625 7.42031250000001,-8.0515625 -0.46600000000001,-0.4069999999999 -0.88637500000002,-1.1245625 -1.03437500000003,-2.1765625 -0.92800000000008,-0.417 -3.28762499999996,-1.1358749999998 -4.74062499999998,1.353125 0,4e-13 -0.86031250000002,1.5631250000001 -2.49531250000001,1.678125 0,-1e-13 -1.58993750000002,0.0209375 -0.11093749999999,-0.9890624999999 0,0 1.06837499999999,-0.5008125 1.809375,-2.3828125 -9.9e-14,0 0.9549375,-3.1683750000002 5.48593750000001,-2.184375 0.008,-1.3589999999999 0.021875,-2.3843125 0.021875,-2.7703125000001 0,-0.3730114932558 -0.22290382275426,-0.7974998694226 -0.80781250000001,-0.8109374999999 l 0,-0.003125 9.71875,0 c -0.61010742187496,-0.00351367187 -0.83437500000001,0.4325625 -0.83437500000001,0.8140625 0,0.534 0.0203125,2.2901875000001 0.0203125,4.4671875 -9.9e-14,1.5199999999999 -0.52125000000001,2.5141875 -1.10625000000002,3.0171875 3.62900000000002,0.403 7.43750000000001,1.7810625000002 7.43750000000001,8.0390625 0,1.778 -0.631,3.2313125000001 -1.675,4.3703125 0.168,0.4120000000002 0.7280625,2.0679375000001 -0.1609375,4.3109375000001 0,0 -1.36499999999999,0.4376874999999 -4.47499999999999,-1.6703125000001 -1.30100000000006,0.3619999999999 -2.69512499999999,0.5424375000002 -4.078125,0.5484375000001 -1.38499999999999,-0.006 -2.77912499999999,-0.1864375000002 -4.078125,-0.5484375000001 -2.334,1.5810000000001 -3.68777343750001,1.730537109375 -4.21875,1.70625 z"
       id="path5855" /></g></svg>