<?xml version="1.0" encoding="UTF-8" standalone="no"?>
<svg
   xmlns:dc="http://purl.org/dc/elements/1.1/"
   xmlns:cc="http://creativecommons.org/ns#"
   xmlns:rdf="http://www.w3.org/1999/02/22-rdf-syntax-ns#"
   xmlns:svg="http://www.w3.org/2000/svg"
   xmlns="http://www.w3.org/2000/svg"
   xmlns:sodipodi="http://sodipodi.sourceforge.net/DTD/sodipodi-0.dtd"
   xmlns:inkscape="http://www.inkscape.org/namespaces/inkscape"
   width="48"
   height="48"
   viewBox="0 0 48 48"
   id="svg2"
   version="1.1"
   inkscape:version="0.91 r13725"
   sodipodi:docname="emblem-unknown.svg"
   style="fill:#212121">
  <metadata
     id="metadata10">
    <rdf:RDF>
      <cc:Work
         rdf:about="">
        <dc:format>image/svg+xml</dc:format>
        <dc:type
           rdf:resource="http://purl.org/dc/dcmitype/StillImage" />
        <dc:title></dc:title>
      </cc:Work>
    </rdf:RDF>
  </metadata>
  <defs
     id="defs8" />
  <sodipodi:namedview
     pagecolor="#ffffff"
     bordercolor="#666666"
     borderopacity="1"
     objecttolerance="10"
     gridtolerance="10"
     guidetolerance="10"
     inkscape:pageopacity="0"
     inkscape:pageshadow="2"
     inkscape:window-width="1366"
     inkscape:window-height="713"
     id="namedview6"
     showgrid="false"
     inkscape:snap-bbox="true"
     inkscape:bbox-nodes="true"
     inkscape:snap-page="true"
     inkscape:zoom="3.999999995778903"
     inkscape:cx="1.584853959571483"
     inkscape:cy="-9.400458447685427"
     inkscape:window-x="0"
     inkscape:window-y="31"
     inkscape:window-maximized="1"
     inkscape:current-layer="svg2"
     inkscape:object-paths="true"
     inkscape:snap-intersection-paths="true"
     inkscape:object-nodes="true"
     inkscape:snap-smooth-nodes="true"
     inkscape:snap-midpoints="true" />
  <path
     id="path4184"
     style="fill:#212121;fill-opacity:1"
     d="M 33.195,21.76500000000001 30.51,24.52499999999999 C 28.34999999999999,26.685 27,28.5 27,33 l -6,0 0,-1.5 c 0,-3.315 1.34999999999999,-6.315 3.51,-8.49 l 3.73499999999999,-3.78000000000001 C 29.32499999999999,18.14999999999999 30,16.64999999999999 30,15 30,11.685 27.315,9.000000000000014 24,9.000000000000014 20.68499999999999,9.000000000000014 18,11.685 18,15 l -6,0 C 12,8.370000000000018 17.36999999999999,3.000000000000014 24,3.000000000000014 c 6.63,0 12,5.370000000000017 12,11.999999999999985 0,2.64000000000001 -1.065,5.02499999999999 -2.805,6.76500000000001 z M 27,45 l -6,0 0,-6 6,0 0,6 z" />
</svg>
