<svg xmlns="http://www.w3.org/2000/svg" width="122.54" height="157.56" viewBox="0 0 122.5360675122603 157.5638553252431"><defs><linearGradient gradientUnits="userSpaceOnUse" y2="302.46" x2="1203.4" y1="317.36" x1="1174.96" id="1"><stop stop-color="#fff"/><stop offset="1" stop-color="#c0815e"/></linearGradient><radialGradient gradientUnits="userSpaceOnUse" gradientTransform="matrix(1 0 0 1.5817 808.87-484.07)" r="48.529" cy="514.25" cx="346.79" id="0"><stop stop-color="#fff"/><stop offset="1" stop-color="#a94436"/></radialGradient></defs><g transform="translate(-1082.14-251.03)"><path d="m1084.1 406.75c0 0 .238-37.32.238-75.26 0-73.49-6.192-78.962 26.781-78.962 32.973 0 91.78 0 91.78 0 0 0 0 71.11 0 106 0 34.894 6.523 48.564-30.15 48.564-36.671 0-88.65-.339-88.65-.339" fill="#a62c39"/><path d="m1159.77 266.39c0 0 5.881 1.176 10.978 9.802 5.097 8.626 32.15 75.67 32.15 75.67v-54.5l-25.09-40.775 7.06 8.626 13.33-10.978-17.251-1.176z" fill="url(#1)"/><path d="m1107.63 253.45c0 0 38.815 25.877 57.634 30.974 18.819 5.097 38.423 10.586 38.423 10.586l-44.696 109.78 19.211.784 25.09-61.947-.784-90.57z" opacity=".668" fill="url(#0)"/><path d="m1143.7 369.11l40.38 38.834-75.27-1.588c0 0-2.352-23.916-1.568-36.463.784-12.546 4.705-12.546 4.705-12.546z" fill="#fff" fill-opacity=".44"/><path d="m1180.95 407.14l-36.463-37.639-33.33-12.546-25.877-57.634 27.445-45.872-18.427-.784-7.449 7.06-2.744 5.489-1.96 142.71z" fill-opacity=".362"/><path d="m1203.29 347.16c0 0-36.855 11.762-58.811 22.74-21.956 10.978-33.718 37.639-33.718 37.639 0 0 47.05-2.352 64.69-1.568 17.643.784 25.877.784 27.445-23.916 1.568-24.7.392-34.894.392-34.894" opacity=".5" fill="#83222d"/><g fill="#fff"><path d="m1095.46 370.57v23.16h5.906v-6.03l5.375 5.375h9.06l-7.188-7.188c0 0 5.171-.084 5.563-7.563 0-6.861-5.177-7.75-11.156-7.75h-7.563m6.188 6.281h5.094v4.125h-5.094v-4.125"/><path d="m1127.21 370.66c-3.234-.018-7.719.282-7.719 6.375v16.09h6.06v-3.938h5.875v3.844h6.094v-16.875c0-5.293-5.881-5.5-9.03-5.5-.394 0-.819.003-1.281 0m-1.563 5.813h5.688v6.344h-5.688v-6.344"/><path d="m1143.6 370.68h6.27v22.15h-6.27z"/><path d="m1156.44 370.97v22.15h15.09v-5.881h-8.92v-16.369z"/><path d="m1191.53 370.78v5.979h-10.1v2.156c0 0 2.058 0 4.313 0 2.254 0 6.959-.098 6.959 6.959 0 7.06-3.235 7.449-9.802 7.449-6.567 0-7.939 0-7.939 0v-5.391c0 0 6.371 0 9.116 0 2.745 0 2.896-.893 2.896-1.672 0-.779-1.403-1.141-4.257-1.141-2.854 0-8.147-1.402-8.147-6.891 0-5.489 2.745-7.547 8.233-7.547 5.489 0 8.724.098 8.724.098"/><path d="m1100.96 364.01h52.15c0 0-11.566-26.27-8.626-50.38 2.941-24.11 21.956-35.09 32.738-36.27 10.782-1.176 16.663 5.489 16.663 5.489l2.352-3.529c0 0-15.487-15.683-35.09-13.919-19.604 1.764-33.13 14.703-41.559 30.385-8.43 15.683-13.33 26.661-16.663 43.13-3.333 16.467-1.96 25.09-1.96 25.09"/><path d="m1090.57 337.75l10.194.784-1.764 10.194-9.606-1.176z"/><path d="m1106.65 316.18l2.745-7.645-9.02-3.529-2.941 8.233z"/><path d="m1119.39 289.91l5.293-6.273-6.861-4.509-5.489 6.077z"/><path d="m1133.31 265.6l4.705 5.685 6.469-3.725-4.705-5.293z"/><path d="m1156.25 259.14l1.176 5.685 8.04-.196-.784-5.097z"/><path d="m1183.49 265.21l-.196 3.529 5.489 2.941 1.176-1.764z"/><path d="m1182.32 280.31v2.941l5.293.588v-2.352z"/><path d="m1165.46 282.86l2.548 4.705 3.725-2.941-.784-3.137z"/><path d="m1157.42 288.93l3.921 5.881-2.352 4.117-5.685-6.273z"/><path d="m1149.58 305.2l-2.548 5.097 6.665 5.685 1.568-6.469z"/><path d="m1146.84 323.04l-.392 6.861 8.233 3.529-.392-6.469z"/><path d="m1149.19 347.35l1.96 7.06 10.39.588-3.725-7.645z"/></g><path d="m1084.1 406.75c0 0 .238-37.32.238-75.26 0-73.49-6.192-78.962 26.781-78.962 32.973 0 91.78 0 91.78 0 0 0 0 71.11 0 106 0 34.894 4.954 48.564-30.15 48.564-35.1 0-88.65-.339-88.65-.339z" fill="none" stroke="#5e000e" stroke-width="3"/></g></svg>