<svg enable-background="new 0 0 792 612" height="109.65274" viewBox="0 0 108.73704529 109.65274048" width="108.737045" xmlns="http://www.w3.org/2000/svg"><g transform="translate(-188.006952 -251.809256)"><path d="m217.673 281.663-7.089-7.092.027 51.234.086 2.391c.032 1.132.249 2.401.591 3.717l56.154 19.804 14.034-6.218.011-.02z" fill="#00c4b3"/><path d="m211.289 331.913h.005c-.005-.021-.013-.045-.024-.071.011.026.011.05.019.071zm70.188 13.586-14.034 6.218-56.148-19.804c1.071 4.118 3.448 8.749 6 11.276l18.321 18.221 40.757.052 5.116-15.982z" fill="#22d3c5"/><path d="m210.774 274.571-21.832 32.972c-1.812 1.937-.91 5.931 2.01 8.873l12.604 12.706 7.922 2.791c-.343-1.315-.559-2.585-.591-3.717l-.087-2.391z" fill="#0075c9"/><path d="m267.905 275.23c-1.317-.334-2.584-.545-3.723-.577l-2.533-.093-51.065.011 70.911 70.908h.006l6.229-14.05z" fill="#0075c9"/><path d="m267.839 275.218c.023.008.047.013.066.019v-.006c-.023-.005-.043-.005-.066-.013zm11.334 6.028c-2.578-2.596-7.142-4.954-11.268-6.01l19.824 56.193-6.229 14.05h-.006l15.218-4.862.032-41.723z" fill="#00a8e1"/><path d="m265.124 267.357-12.698-12.61c-2.937-2.907-6.934-3.815-8.87-2.006l-32.972 21.83 51.065-.011 2.533.093c1.139.032 2.405.243 3.723.577zm-54.54 7.214" fill="#00c4b3"/></g></svg>