<svg xmlns="http://www.w3.org/2000/svg" viewBox="0 0 47.99957529568065 47.99983204021113"><path d="m31.652 19.328c0 0-.59-5.497-6.04-5.65-5.454-.153-8.255 4.123-8.255 10.231 0 6.108 3.096 10.994 8.403 10.994 5.307 0 5.897-6.108 5.897-6.108l10.172.611c0 0 .599 5.517-3.658 9.726-4.257 4.209-9.482 4.896-13.13 4.868-3.649-.029-8.708.057-13.599-4.953-4.893-5.01-5.722-9.878-5.722-14.659 0-4.782.928-11.12 6.745-15.919 3.953-3.264 7.961-4.467 11.969-4.467 16.732 0 17.856 15.432 17.856 15.432l-10.632-.105" fill="#a8b9cc"/></svg>