<?xml version="1.0" encoding="UTF-8" standalone="no"?>
<svg
   xmlns:dc="http://purl.org/dc/elements/1.1/"
   xmlns:cc="http://creativecommons.org/ns#"
   xmlns:rdf="http://www.w3.org/1999/02/22-rdf-syntax-ns#"
   xmlns:svg="http://www.w3.org/2000/svg"
   xmlns="http://www.w3.org/2000/svg"
   xmlns:sodipodi="http://sodipodi.sourceforge.net/DTD/sodipodi-0.dtd"
   xmlns:inkscape="http://www.inkscape.org/namespaces/inkscape"
   viewBox="0 0 34 38"
   fill="#CDDC39"
   id="svg2"
   version="1.1"
   inkscape:version="0.91 r13725"
   sodipodi:docname="calculator.svg">
  <metadata
     id="metadata10">
    <rdf:RDF>
      <cc:Work
         rdf:about="">
        <dc:format>image/svg+xml</dc:format>
        <dc:type
           rdf:resource="http://purl.org/dc/dcmitype/StillImage" />
      </cc:Work>
    </rdf:RDF>
  </metadata>
  <defs
     id="defs8" />
  <sodipodi:namedview
     pagecolor="#ffffff"
     bordercolor="#666666"
     borderopacity="1"
     objecttolerance="10"
     gridtolerance="10"
     guidetolerance="10"
     inkscape:pageopacity="0"
     inkscape:pageshadow="2"
     inkscape:window-width="1366"
     inkscape:window-height="713"
     id="namedview6"
     showgrid="false"
     inkscape:snap-bbox="true"
     inkscape:bbox-nodes="true"
     inkscape:zoom="12.42105262502515"
     inkscape:cx="17.03701172749783"
     inkscape:cy="14.03071600766582"
     inkscape:window-x="0"
     inkscape:window-y="30"
     inkscape:window-maximized="1"
     inkscape:current-layer="svg2" />
  <path
     d="M 5.435546875 0 C 2.405546875 0 -0.02734374999999882 2.420734375 -0.02734375 5.427734375 L -0.02734375 32.568359375 C -0.02734375 35.57835937500001 2.408546874999999 37.99609375 5.435546875 37.99609375 L 28.505859375 37.99609375 C 31.535859375 37.99609375 33.970703125 35.57535937499998 33.970703125 32.568359375 L 33.970703125 5.427734375 C 33.970703125 2.417734374999999 31.532859375 0 28.505859375 0 L 5.435546875 0 z M 4.22265625 4.22265625 L 29.72265625 4.22265625 L 29.72265625 33.77734375 L 4.22265625 33.77734375 L 4.22265625 4.22265625 z M 7.841796875 6.880859375 C 7.366796875000001 6.880859374999999 6.984375 7.263281250000001 6.984375 7.73828125 L 6.984375 12.0234375 C 6.984375 12.4984375 7.366796875 12.880859375 7.841796875 12.880859375 L 26.126953125 12.880859375 C 26.601953125 12.880859375 26.984375 12.4984375 26.984375 12.0234375 L 26.984375 7.73828125 C 26.984375 7.263281250000001 26.601953125 6.880859375 26.126953125 6.880859375 L 7.841796875 6.880859375 z M 6.396484375 15.6015625 C 6.175299120683621 15.6015625 5.996093749999997 15.78098478111462 5.99609375 16.001953125 L 5.99609375 18 C 5.99609375 18.22096834388538 6.175299120683622 18.400390625 6.396484375 18.400390625 L 9.59765625 18.400390625 C 9.818841504316383 18.400390625 9.996093749999998 18.22096834388538 9.99609375 18 L 9.99609375 16.001953125 C 9.99609375000002 15.78098478111463 9.816888379316383 15.6015625 9.595703125 15.6015625 L 6.396484375 15.6015625 z M 12.396484375 15.6015625 C 12.1762166034394 15.6026338289447 11.998046875 15.78164874849409 11.998046875 16.001953125 L 11.998046875 18 C 11.998046875 18.22096834388538 12.17725224568362 18.400390625 12.3984375 18.400390625 L 15.59765625 18.400390625 C 15.81884150431638 18.400390625 15.99609375 18.22096834388538 15.99609375 18 L 15.998046875 16.001953125 C 15.998046875 15.78098478111463 15.81884150431637 15.6015625 15.59765625 15.6015625 L 12.3984375 15.6015625 L 12.396484375 15.6015625 z M 18.3984375 15.6015625 C 18.17725224568362 15.6015625 17.998046875 15.78098478111462 17.998046875 16.001953125 L 17.998046875 18 C 17.998046875 18.22096834388538 18.17725224568362 18.400390625 18.3984375 18.400390625 L 21.599609375 18.400390625 C 21.82079462931638 18.400390625 21.998046875 18.22096834388538 21.998046875 18 L 21.998046875 16.001953125 C 21.998046875 15.78098478111463 21.81884150431637 15.6015625 21.59765625 15.6015625 L 18.3984375 15.6015625 z M 24.400390625 15.6015625 C 24.17920537068362 15.6015625 24.00000000000001 15.78098478111462 24 16.001953125 L 24 18 C 24 18.22096834388538 24.17920537068362 18.400390625 24.400390625 18.400390625 L 27.599609375 18.400390625 C 27.82079462931638 18.400390625 27.998046875 18.22096834388538 27.998046875 18 L 28 16.001953125 C 28 15.78098478111463 27.82079462931637 15.6015625 27.599609375 15.6015625 L 24.400390625 15.6015625 z M 6.400390625 19.6015625 C 6.179205370683623 19.6015625 5.999999999999998 19.78098478111464 6 20.001953125 L 6 22 C 6 22.22096834388537 6.179205370683622 22.40039062499999 6.400390625 22.400390625 L 9.599609375 22.400390625 C 9.820794629316378 22.400390625 9.998046875000002 22.22096834388538 9.998046875 22 L 10 20.001953125 C 10 19.78098478111464 9.820794629316383 19.6015625 9.599609375 19.6015625 L 6.400390625 19.6015625 z M 12.400390625 19.6015625 C 12.17920537068362 19.6015625 12 19.78098478111464 12 20.001953125 L 12 22 C 12 22.22096834388537 12.17920537068362 22.40039062499999 12.400390625 22.400390625 L 15.599609375 22.400390625 C 15.82079462931638 22.400390625 15.998046875 22.22096834388538 15.998046875 22 L 16 20.001953125 C 16 19.78098478111464 15.82079462931638 19.6015625 15.599609375 19.6015625 L 12.400390625 19.6015625 z M 18.400390625 19.6015625 C 18.17920537068362 19.6015625 18 19.78098478111464 18 20.001953125 L 18 22 C 18 22.22096834388537 18.17920537068362 22.40039062499999 18.400390625 22.400390625 L 21.599609375 22.400390625 C 21.82079462931638 22.400390625 21.998046875 22.22096834388538 21.998046875 22 L 22 20.001953125 C 22 19.78098478111464 21.82079462931637 19.6015625 21.599609375 19.6015625 L 18.400390625 19.6015625 z M 24.400390625 19.6015625 C 24.17920537068362 19.6015625 23.99999999999999 19.78098478111464 24 20.001953125 L 24 22 C 24 22.22096834388537 24.17920537068364 22.40039062499999 24.400390625 22.400390625 L 27.599609375 22.400390625 C 27.82079462931638 22.400390625 27.998046875 22.22096834388538 27.998046875 22 L 28 20.001953125 C 28 19.78098478111464 27.82079462931637 19.6015625 27.599609375 19.6015625 L 24.400390625 19.6015625 z M 6.400390625 23.6015625 C 6.179205370683623 23.6015625 6 23.78098478111462 6 24.001953125 L 6 26 C 6 26.22096834388537 6.17920537068362 26.400390625 6.400390625 26.400390625 L 9.599609375 26.400390625 C 9.820794629316378 26.400390625 9.998046875000002 26.22096834388537 9.998046875 26 L 10 24.001953125 C 10 23.78098478111463 9.82079462931638 23.6015625 9.599609375 23.6015625 L 6.400390625 23.6015625 z M 12.400390625 23.6015625 C 12.17920537068363 23.6015625 12 23.78098478111462 12 24.001953125 L 12 26 C 12 26.22096834388537 12.17920537068362 26.400390625 12.400390625 26.400390625 L 15.599609375 26.400390625 C 15.82079462931638 26.400390625 15.998046875 26.22096834388537 15.998046875 26 L 16 24.001953125 C 16 23.78098478111463 15.82079462931638 23.6015625 15.599609375 23.6015625 L 12.400390625 23.6015625 z M 18.400390625 23.6015625 C 18.17920537068363 23.6015625 18 23.78098478111462 18 24.001953125 L 18 26 C 18 26.22096834388537 18.17920537068363 26.400390625 18.400390625 26.400390625 L 21.599609375 26.400390625 C 21.82079462931638 26.400390625 21.998046875 26.22096834388537 21.998046875 26 L 22 24.001953125 C 22 23.78098478111463 21.82079462931637 23.6015625 21.599609375 23.6015625 L 18.400390625 23.6015625 z M 24.400390625 23.6015625 C 24.17920537068362 23.6015625 23.99999999999999 23.78098478111462 24 24.001953125 L 24 26 C 24 26.22096834388537 24.17920537068364 26.400390625 24.400390625 26.400390625 L 27.599609375 26.400390625 C 27.82079462931638 26.400390625 27.998046875 26.22096834388537 27.998046875 26 L 28 24.001953125 C 28 23.78098478111463 27.82079462931639 23.6015625 27.599609375 23.6015625 L 24.400390625 23.6015625 z M 6.400390625 27.6015625 C 6.17920537068363 27.6015625 5.999999999999999 27.78098478111463 6 28.001953125 L 6 30 C 6 30.22096834388537 6.179205370683632 30.400390625 6.400390625 30.400390625 L 9.599609375 30.400390625 C 9.820794629316378 30.400390625 9.998046875000002 30.22096834388537 9.998046875 30 L 10 28.001953125 C 9.999999999999512 27.78098478111463 9.820794629316381 27.6015625 9.599609375 27.6015625 L 6.400390625 27.6015625 z M 12.400390625 27.6015625 C 12.17920537068361 27.6015625 12 27.78098478111461 12 28.001953125 L 12 30 C 12 30.22096834388538 12.17920537068361 30.40039062500001 12.400390625 30.400390625 L 15.599609375 30.400390625 C 15.82079462931638 30.400390625 15.998046875 30.22096834388537 15.998046875 30 L 16 28.001953125 C 16.00000000000002 27.78098478111461 15.82079462931638 27.6015625 15.599609375 27.6015625 L 12.400390625 27.6015625 z M 18.400390625 27.6015625 C 18.17920537068362 27.6015625 18 27.78098478111461 18 28.001953125 L 18 30 C 18 30.22096834388537 18.17920537068364 30.400390625 18.400390625 30.400390625 L 21.599609375 30.400390625 C 21.82079462931638 30.400390625 21.998046875 30.22096834388537 21.998046875 30 L 22 28.001953125 C 21.99999999999953 27.78098478111461 21.82079462931636 27.6015625 21.599609375 27.6015625 L 18.400390625 27.6015625 z M 24.400390625 27.6015625 C 24.17920537068362 27.6015625 23.99999999999999 27.78098478111462 24 28.001953125 L 24 30 C 24 30.22096834388537 24.17920537068364 30.400390625 24.400390625 30.400390625 L 27.599609375 30.400390625 C 27.82079462931638 30.400390625 27.998046875 30.22096834388537 27.998046875 30 L 28 28.001953125 C 27.99999999999951 27.78098478111462 27.82079462931638 27.6015625 27.599609375 27.6015625 L 24.400390625 27.6015625 z "
     id="path4140" />
</svg>
