<?xml version="1.0" encoding="UTF-8" standalone="no"?>
<svg
   xmlns:dc="http://purl.org/dc/elements/1.1/"
   xmlns:cc="http://creativecommons.org/ns#"
   xmlns:rdf="http://www.w3.org/1999/02/22-rdf-syntax-ns#"
   xmlns:svg="http://www.w3.org/2000/svg"
   xmlns="http://www.w3.org/2000/svg"
   xmlns:sodipodi="http://sodipodi.sourceforge.net/DTD/sodipodi-0.dtd"
   xmlns:inkscape="http://www.inkscape.org/namespaces/inkscape"
   version="1.1"
   width="48"
   height="48"
   id="svg2"
   inkscape:version="0.91 r13725"
   sodipodi:docname="audacious-panel.svg">
  <metadata
     id="metadata13">
    <rdf:RDF>
      <cc:Work
         rdf:about="">
        <dc:format>image/svg+xml</dc:format>
        <dc:type
           rdf:resource="http://purl.org/dc/dcmitype/StillImage" />
        <dc:title></dc:title>
        <dc:title />
      </cc:Work>
    </rdf:RDF>
  </metadata>
  <defs
     id="defs11" />
  <sodipodi:namedview
     pagecolor="#ffffff"
     bordercolor="#666666"
     borderopacity="1"
     objecttolerance="10"
     gridtolerance="10"
     guidetolerance="10"
     inkscape:pageopacity="0"
     inkscape:pageshadow="2"
     inkscape:window-width="1366"
     inkscape:window-height="713"
     id="namedview9"
     showgrid="false"
     inkscape:zoom="27.71127774318061"
     inkscape:cx="13.39305515497477"
     inkscape:cy="21.1009489074766"
     inkscape:window-x="0"
     inkscape:window-y="30"
     inkscape:window-maximized="1"
     inkscape:current-layer="svg2"
     inkscape:snap-bbox="true"
     inkscape:bbox-nodes="true" />
  <path
     id="path7"
     style="fill:#4caf50;fill-opacity:1"
     d="m 24.328125,16.39447839065711 c -0.341476125,1.125e-5 -0.72209625,0.01078125 -1.13671875,0.03515625 -0.390255,1.425e-5 -0.737625,0.0870945 -1.0546875,0.2578125 -0.121961625,1.125e-5 -0.36167175,0.01078125 -0.703125,0.03515625 -0.31708275,1.125e-5 -0.52354125,0.01078125 -0.62109375,0.03515625 -0.21952125,0.024405 -0.44751375,0.056705625 -0.69140625,0.10546875 -0.2194875,0.024375 -0.4259625,0.12225 -0.621075,0.29295 l -0.7734375,0.7734375 c -0.07317825,0.121963875 -0.13777425,0.252108375 -0.2109375,0.3984375 -0.04878825,0.146353875 -0.082038375,0.30974925 -0.08203125,0.48046875 -7.125e-6,0.390255 0.152622375,0.72685875 0.4453125,1.01953125 0.317065875,0.26830312500001 0.66443625,0.39844875000001 1.0546875,0.39843750000001 0.146332875,1.125e-5 0.30972825,-0.010755 0.48046875,-0.03515625 0.17072325,-0.02437875 0.33411825,-0.05667975 0.48046875,-0.10546875 l 2.51953125,0 c 0.219500625,1.0125e-5 0.42595875,0.065559375 0.62109375,0.1875 0.195109125,0.12196125000001 0.292955625,0.28440375 0.29296875,0.50390625 -1.3125e-5,0.195132 -0.076327125,0.34776075000001 -0.22265625,0.4453125 -0.121963875,0.07317975 -0.273640125,0.127011375 -0.46875,0.17578125 -0.195133875,0.02440125 -0.39082875,0.05764875 -0.5859375,0.08203125 -0.1951335,9.00000001e-6 -0.347763,0.02154375 -0.4453125,0.0703125 -0.04879125,0.0243975 -0.157404,0.06746325 -0.328125,0.140625 -0.146352,0.048789 -0.244198875,0.092805 -0.29296875,0.1171875 -0.341473125,0.121960125 -0.688845,0.18655500000001 -1.0546875,0.2109375 -0.36586275,8.625e-6 -0.72495,0.097855125 -1.06640625,0.29296875 -0.487815,0.29269087499997 -0.94379625,0.66254624999997 -1.3828125,1.1015625 -0.41464125000001,0.41464125 -0.76296375,0.871575 -1.03125,1.359375 -0.048786375,0.04878675 -0.102616125,0.12414824999999 -0.17578125,0.24609375 -0.048787875,0.12195675 -0.08203725,0.19826625 -0.08203125,0.22265625 l 0,1.828125 c -6e-6,3.74999998e-6 0.054777375,0.16339875 0.15234375,0.48046875 0.097555125,0.29268524999997 0.17386725,0.52067625 0.22265625,0.69140625 0.146335875,0.4878075 0.41738999999999,0.91149 0.83203125,1.27734375 0.43901625,0.3414645 0.85193625,0.64576874999998 1.2421875,0.9140625 -7.875e-6,0.02438625 0.03324,0.05764125 0.08203125,0.08203125 0.073162125,0.02438625 0.11622375,0.03515625 0.140625,0.03515625 0.121942875,0.04878075 0.361653,0.13586137499999 0.703125,0.2578125 0.36584475,0.121951125 0.60460124999998,0.1865475 0.7265625,0.2109375 l 0.29296875,0 0.2578125,0 c 0.04877025,0.02439 0.125085,0.0136275 0.22265625,-0.03515625 0.04877025,-0.02439 0.15738225,-0.0782205 0.328125,-0.17578125 0.195111,-0.09756075 0.31449187499998,-0.16311375 0.36328125,-0.1875 0.4146225,-0.17073150000001 0.8275425,-0.33412650000002 1.2421875,-0.48046875 0.4390125,-0.17073075 0.89594625,-0.24609300000003 1.359375,-0.24609375 l 0.24609375,0 c 0.14632725,0 0.24417300000002,0.01076625 0.29296875,0.03515625 0.341448375,0.14634225 0.7005375,0.30878475 1.06640625,0.50390625 0.36583800000002,0.1707315 0.74646,0.2578125 1.13671875,0.2578125 0.292666125,0 0.5637225,-0.053830125 0.83203125,-0.17578125 0.292665,-0.12195075000001 0.564675,-0.296112 0.80859375,-0.515625 0.243883875,-0.21951150000001 0.43957875,-0.45826875000003 0.5859375,-0.7265625 0.146322375,-0.26829075 0.222637125,-0.55106625000002 0.22265625,-0.84375 l 0,-0.22265625 c -0.0243375,-0.097725 -0.079125,-0.2826375 -0.1522875,-0.55095 -0.0732,-0.26827500000002 -0.11625,-0.45322500000002 -0.140625,-0.55080000000002 l 0,-0.10546875 c -1.875e-5,-0.268288875 0.0107475,-0.54029624999998 0.03515625,-0.80859375 0.048761625,-0.26828774999997 0.09182925,-0.52857749999998 0.140625,-0.796875 -1.9125e-5,-0.02438625 -1.9125e-5,-0.07916775 0,-0.15234375 -1.9125e-5,-0.0975555 -1.9125e-5,-0.195402 0,-0.29296875 0.0243675,-0.1219455 0.046855875,-0.230558625 0.046875,-0.328125 -1.9125e-5,-0.097555125 -1.9125e-5,-0.16310625 0,-0.1875 0.048761625,-0.170725875 0.102591375,-0.32240212499998 0.17578125,-0.46875 0.073152,-0.17072512499999 0.11716875,-0.35565224999997 0.1171875,-0.55078125 -1.875e-5,-0.26828474999997 -0.03327,-0.5402925 -0.08203125,-0.80859375 -0.02440875,-0.268284375 -0.056706,-0.52857375 -0.10546875,-0.796875 -0.097579875,-0.75608999999996 -0.227724375,-1.40871749999999 -0.3984375,-1.94531250000001 -0.170750625,-0.56096250000001 -0.42122624999998,-1.03943249999999 -0.73828125,-1.4296875 -0.317090625,-0.39023250000001 -0.73000875,-0.71607000000001 -1.2421875,-0.984375 -0.487875,-0.29272499999998 -1.0965,-0.54225 -1.8281625,-0.761775 -0.7073625,-0.19511250000001 -1.3922625,-0.29295 -2.0508,-0.29295 z m -1.01953125,8.51955000000001 1.34765625,0 c 0.097547625,6e-6 0.184629,0.0655545 0.2578125,0.1875 0.097548,0.09756675 0.163095,0.184647 0.1875,0.2578125 l 0,0.36328125 c -1.35e-5,0.07317525 -1.35e-5,0.1710225 0,0.29296875 -1.35e-5,0.121956 -0.0332625,0.219802875 -0.08203125,0.29296875 -0.0487935,0.048784875 -0.146640375,0.13586587500001 -0.29296875,0.2578125 -0.121964625,0.121955625 -0.19732425,0.1973175 -0.24609375,0.24609375 -1.3125e-5,0.04878075 -0.044029875,0.082035375 -0.1171875,0.08203125 l -0.3984375,0 c -0.341475375,4.125e-6 -0.63501750000002,-0.076310625 -0.87890625,-0.22265625 -0.24391425,-0.17072737500001 -0.3632925,-0.45350250000001 -0.36328125,-0.84375 -1.125e-5,-0.14633624999999 0.043053,-0.33126375000001 0.140625,-0.55078125 0.0975495,-0.24389699999999 0.250179375,-0.36327525 0.4453125,-0.36328125 z M 24.525390625,6.007740890657111 A 18,18 0 0 0 6,23.99992839065712 a 18,18 0 0 0 36,0 A 18,18 0 0 0 24.525390625,6.007740890657118 Z M 24.39453125,10.50578776565712 a 13.5,13.5 0 0 1 13.10546875,13.494140625 13.5,13.5 0 0 1 -27,0 13.5,13.5 0 0 1 13.89453125,-13.494140625 z"
     inkscape:connector-curvature="0" />
</svg>
