<?xml version="1.0" encoding="UTF-8" standalone="no"?>
<svg
   xmlns:dc="http://purl.org/dc/elements/1.1/"
   xmlns:cc="http://creativecommons.org/ns#"
   xmlns:rdf="http://www.w3.org/1999/02/22-rdf-syntax-ns#"
   xmlns:svg="http://www.w3.org/2000/svg"
   xmlns="http://www.w3.org/2000/svg"
   xmlns:xlink="http://www.w3.org/1999/xlink"
   xmlns:sodipodi="http://sodipodi.sourceforge.net/DTD/sodipodi-0.dtd"
   xmlns:inkscape="http://www.inkscape.org/namespaces/inkscape"
   width="32"
   height="32"
   viewBox="0 0 32 32"
   id="svg2"
   version="1.1"
   inkscape:version="0.91 r13725"
   sodipodi:docname="xfce4-whiskermenu-dark.svg"
   style="fill:#4caf50">
  <metadata
     id="metadata10">
    <rdf:RDF>
      <cc:Work
         rdf:about="">
        <dc:format>image/svg+xml</dc:format>
        <dc:type
           rdf:resource="http://purl.org/dc/dcmitype/StillImage" />
        <dc:title></dc:title>
      </cc:Work>
    </rdf:RDF>
  </metadata>
  <defs
     id="defs8">
    <linearGradient
       gradientTransform="translate(287,-83)"
       x1="112.4985427856445"
       y1="6.137209892272949"
       x2="112.4985275268555"
       y2="129.3468017578125"
       id="path1082_2_"
       gradientUnits="userSpaceOnUse">
      <stop
         style="stop-color:#ffffff;stop-opacity:0"
         offset="0"
         id="stop193" />
      <stop
         style="stop-color:#ffffff;stop-opacity:0.27450982;"
         offset="1"
         id="stop195" />
      <midPointStop
         offset="0"
         style="stop-color:#FFFFFF"
         id="midPointStop197" />
      <midPointStop
         offset="0.5"
         style="stop-color:#FFFFFF"
         id="midPointStop199" />
      <midPointStop
         offset="1"
         style="stop-color:#000000"
         id="midPointStop201" />
    </linearGradient>
    <linearGradient
       id="linearGradient3388">
      <stop
         id="stop3390"
         offset="0"
         style="stop-color:#000000;stop-opacity:0;" />
      <stop
         id="stop3392"
         offset="1"
         style="stop-color:#000000;stop-opacity:0.37113401;" />
    </linearGradient>
    <linearGradient
       id="linearGradient4346"
       inkscape:collect="always">
      <stop
         id="stop4348"
         offset="0"
         style="stop-color:#00bdec;stop-opacity:1" />
      <stop
         id="stop4350"
         offset="1"
         style="stop-color:#40bfde;stop-opacity:1" />
    </linearGradient>
    <linearGradient
       gradientUnits="userSpaceOnUse"
       y2="666.9779052734375"
       x2="616.4855346679688"
       y1="634.150634765625"
       x1="400.6141967773438"
       id="linearGradient4352"
       xlink:href="#linearGradient4346"
       inkscape:collect="always" />
    <linearGradient
       id="linearGradient5323"
       inkscape:collect="always">
      <stop
         id="stop5325"
         offset="0"
         style="stop-color:#6e6e6e;stop-opacity:1" />
      <stop
         id="stop5327"
         offset="1"
         style="stop-color:#4d4d4d;stop-opacity:1" />
    </linearGradient>
    <linearGradient
       gradientUnits="userSpaceOnUse"
       y2="348.96875"
       x2="650.8136596679688"
       y1="238.0823669433594"
       x1="291.8359069824219"
       id="linearGradient5329"
       xlink:href="#linearGradient5323"
       inkscape:collect="always" />
    <linearGradient
       y2="303.1402893066406"
       x2="606.9124755859375"
       y1="104.5066528320312"
       x1="541.3350219726562"
       gradientTransform="matrix(-0.3937741,0,0,0.393752,978.3496999999998,416.9815)"
       gradientUnits="userSpaceOnUse"
       id="linearGradient2216"
       xlink:href="#path1082_2_"
       inkscape:collect="always" />
  </defs>
  <sodipodi:namedview
     pagecolor="#ffffff"
     bordercolor="#666666"
     borderopacity="1"
     objecttolerance="10"
     gridtolerance="10"
     guidetolerance="10"
     inkscape:pageopacity="0"
     inkscape:pageshadow="2"
     inkscape:window-width="1366"
     inkscape:window-height="713"
     id="namedview6"
     showgrid="false"
     fit-margin-top="0"
     fit-margin-left="0"
     fit-margin-right="0"
     fit-margin-bottom="0"
     inkscape:zoom="8.201246016383539"
     inkscape:cx="-15.85821284086628"
     inkscape:cy="23.34929976912644"
     inkscape:window-x="0"
     inkscape:window-y="30"
     inkscape:window-maximized="1"
     inkscape:current-layer="svg2"
     inkscape:snap-bbox="true"
     inkscape:bbox-nodes="true" />
  <path
     d="M 0,8 8,8 8,0 0,0 0,8 Z m 12,24 8,0 0,-8 -8,0 0,8 z m -12,0 8,0 0,-8 -8,0 0,8 z m 0,-12 8,0 0,-8 -8,0 0,8 z m 12,0 8,0 0,-8 -8,0 0,8 z m 12,-20 0,8 8,0 0,-8 -8,0 z m -12,8 8,0 0,-8 -8,0 0,8 z m 12,12 8,0 0,-8 -8,0 0,8 z m 0,12 8,0 0,-8 -8,0 0,8 z"
     id="path4"
     inkscape:connector-curvature="0"
     style="fill:#1793d1;fill-opacity:1" />
  <path
     style="fill:#000000;fill-opacity:1;fill-rule:evenodd;stroke:none;stroke-width:1;stroke-linecap:round;stroke-linejoin:round;stroke-miterlimit:10;stroke-dasharray:none;stroke-opacity:1"
     d="m 16,0 c -1.24893976286962,3.062066259161309 -2.09386172812364,5.236042297873022 -3.345703125,8 l 6.828125,0 C 18.18333207566187,5.204269505997717 17.2998957408817,3.05048517234543 16,0 Z m -4,12 0,8 1.744140625,0 C 14.41126599770804,19.10926558947813 15.27115670906972,18.5886708554895 16.20703125,18.66796875 17.00852697581628,18.7358800908196 17.73180046021911,19.23432333816475 18.314453125,20 L 20,20 l 0,-8 -4.775390625,0 c 0.31837908960208,0.24617023713251 0.63731465365767,0.49224083695757 1.005859375,0.75 C 15.62462989605623,12.50070076711712 15.08908762696787,12.25032085407793 14.587890625,12 L 12,12 Z M 24,17.021484375 24,20 25.57421875,20 C 25.05591894265228,19.01896672384788 24.44454582003601,17.87463568162514 24,17.021484375 Z m -16,0.3125 C 7.569120438857839,18.14960569667805 7.077280413594398,19.07071613557881 6.578125,20 L 8,20 8,17.333984375 Z M 4.416015625,24 C 3.13605294611896,26.34216836317099 1.691180164647619,28.96129277880506 0,32 3.009012697516519,30.26284435639724 5.611480913788399,28.9306076870171 8,27.982421875 L 8,24 4.416015625,24 Z M 12,24 l 0,2.7265625 c 0.22105557852847,-0.0491723419428 0.44510468654413,-0.10724348268281 0.6640625,-0.1484375 -0.15672,-0.67554375 -0.240438125,-1.40968999999999 -0.234375,-2.171875 l 0.00390625,-0.16015625 C 12.43569211466,24.1613691518931 12.4508131642383,24.08366976153788 12.455078125,24 L 12,24 Z m 7.654296875,0 c 0.0185203778754,0.2836646971631 0.0404592093816,0.56639978712992 0.033203125,0.859375 -0.01515875,0.6120275 -0.0863125,1.2001025 -0.20703125,1.74609375 C 19.65181763580237,26.6390011889522 19.82735567598015,26.6862098524158 20,26.724609375 L 20,24 19.654296875,24 Z M 24,24 24,27.98046875 C 26.38875449167869,28.92892787979051 28.99172380029282,30.26326808399088 32,32 31.01350875,30.1837975 30.12993625,28.54752125000001 29.2890625,26.98828125 28.2197343239931,26.15947922795129 27.09988386859374,25.12733124780274 25.23046875,24 L 24,24 Z m 2.306640625,0 c 0.71616003731156,0.2873404829699 1.32943162829184,0.59235756365723 1.865234375,0.9140625 C 27.96929123191698,24.53688688164668 27.88334618519195,24.36192455250939 27.689453125,24 l -1.3828125,0 z"
     id="path4204"
     inkscape:connector-curvature="0" />
</svg>
