<svg xmlns="http://www.w3.org/2000/svg" fill="#FFEB3B" viewBox="0 0 48 48"><path d="m12 4c-2.21 0-3.98 1.79-3.98 4l-.008 14.295h15.268l-.16 1.705h8.881v4h-9.256l-.377 4h9.633v4h-10.01l-.752 8h14.76c2.21 0 4-1.79 4-4v-24l-12-12h-16m14 3l11 11h-11v-11" fill="#e34f26"/><g transform="matrix(.04435 0 0 .04435-1.33 25.295)"><path d="m71 460l-41-460h451l-41 460-185 52" fill="#e34f26"/><path d="m256 472l149-41 35-394h-184" fill="#ef652a"/><path d="m256 208h-75l-5-58h80v-56h-1-141l1 15 14 156h127zm0 147h-1l-63-17-4-45h-30-26l7 89 116 32h1z" fill="#ebebeb"/><path d="m255 208v57h70l-7 73-63 17v59l116-32 1-10 13-149 2-15h-16zm0-114v35 21h137l1-12 3-29 1-15z" fill="#fff"/></g></svg>