<?xml version="1.0" encoding="UTF-8" standalone="no"?>
<svg
   xmlns:dc="http://purl.org/dc/elements/1.1/"
   xmlns:cc="http://creativecommons.org/ns#"
   xmlns:rdf="http://www.w3.org/1999/02/22-rdf-syntax-ns#"
   xmlns:svg="http://www.w3.org/2000/svg"
   xmlns="http://www.w3.org/2000/svg"
   xmlns:sodipodi="http://sodipodi.sourceforge.net/DTD/sodipodi-0.dtd"
   xmlns:inkscape="http://www.inkscape.org/namespaces/inkscape"
   fill="#3E2723"
   viewBox="0 0 48 48"
   id="svg2"
   version="1.1"
   inkscape:version="0.91 r13725"
   sodipodi:docname="edit-paste-text.svg">
  <metadata
     id="metadata10">
    <rdf:RDF>
      <cc:Work
         rdf:about="">
        <dc:format>image/svg+xml</dc:format>
        <dc:type
           rdf:resource="http://purl.org/dc/dcmitype/StillImage" />
      </cc:Work>
    </rdf:RDF>
  </metadata>
  <defs
     id="defs8" />
  <sodipodi:namedview
     pagecolor="#ffffff"
     bordercolor="#666666"
     borderopacity="1"
     objecttolerance="10"
     gridtolerance="10"
     guidetolerance="10"
     inkscape:pageopacity="0"
     inkscape:pageshadow="2"
     inkscape:window-width="1366"
     inkscape:window-height="713"
     id="namedview6"
     showgrid="false"
     inkscape:snap-bbox="true"
     inkscape:bbox-nodes="true"
     inkscape:snap-page="true"
     inkscape:zoom="7.835949270274826"
     inkscape:cx="12.07491285863599"
     inkscape:cy="19.5292900430599"
     inkscape:window-x="0"
     inkscape:window-y="31"
     inkscape:window-maximized="1"
     inkscape:current-layer="svg2" />
  <path
     d="M 24 0 C 21.39 0 19.189140625 1.68 18.369140625 4 L 10 4 C 7.79 4 6.000000000000001 5.790000000000001 6 8 L 6 40 C 6 42.21 7.790000000000001 44 10 44 L 38 44 C 40.21 44 42 42.21 42 40 L 42 8 C 42 5.79 40.21 4.000000000000001 38 4 L 29.630859375 4 C 28.810859375 1.68 26.61 0 24 0 z M 24 4 C 25.1 4 26 4.89 26 6 C 26 7.11 25.1 8.000000000000002 24 8 C 22.9 8 22 7.11 22 6 C 22 4.89 22.9 3.999999999999999 24 4 z M 10 8 L 14 8 L 14 14 L 34 14 L 34 8 L 38 8 L 38 40 L 10 40 L 10 8 z M 21.9453125 16.671875 L 14.00390625 38 L 18.677734375 38 L 20.142578125 33.60546875 L 27.84765625 33.60546875 L 29.328125 38 L 34 38 L 26.015625 16.671875 L 21.9453125 16.671875 z M 23.98046875 22.0625 L 26.66015625 30.046875 L 21.328125 30.046875 L 23.98046875 22.0625 z "
     id="path4"
     style="fill:#3E2723;fill-opacity:1" />
</svg>
