<svg xmlns="http://www.w3.org/2000/svg" height="43.41" viewBox="0 0 38.975925 43.406776" fill="#795548"><path d="m26.976 0h-16c-2.21 0-3.98 1.79-3.98 4l-.02 32c0 2.21 1.77 4 3.98 4h24.02c2.21 0 4-1.79 4-4v-24l-12-12m4 32h-16v-4h16v4m0-8h-16v-4h16v4m-6-10v-11l11 11h-11"/><path d="m23.12 22.508h-19.82c-1.217 0-2.202.985-2.202 2.202v15.415c0 1.217.985 2.18 2.202 2.18h19.82c1.217 0 2.202-.969 2.202-2.18v-15.415c0-1.217-.985-2.202-2.202-2.202z" fill="#000" stroke="#795548" stroke-width="2.202"/><text x="4.474" y="33.716" font-family="Inconsolata" letter-spacing="0" word-spacing="0" text-align="start" font-weight="bold" fill="#795548" line-height="100%" font-size="11.01"><tspan x="4.474" y="33.716" text-align="start" line-height="100%">&gt;_</tspan></text></svg>