<?xml version="1.0" encoding="UTF-8" standalone="no"?>
<svg
   xmlns:dc="http://purl.org/dc/elements/1.1/"
   xmlns:cc="http://creativecommons.org/ns#"
   xmlns:rdf="http://www.w3.org/1999/02/22-rdf-syntax-ns#"
   xmlns:svg="http://www.w3.org/2000/svg"
   xmlns="http://www.w3.org/2000/svg"
   xmlns:sodipodi="http://sodipodi.sourceforge.net/DTD/sodipodi-0.dtd"
   xmlns:inkscape="http://www.inkscape.org/namespaces/inkscape"
   width="38"
   height="44"
   viewBox="0 0 38 44"
   id="svg2"
   version="1.1"
   inkscape:version="0.91 r13725"
   sodipodi:docname="document-page-setup.svg"
   style="fill:#FFEB3B">
  <metadata
     id="metadata10">
    <rdf:RDF>
      <cc:Work
         rdf:about="">
        <dc:format>image/svg+xml</dc:format>
        <dc:type
           rdf:resource="http://purl.org/dc/dcmitype/StillImage" />
        <dc:title></dc:title>
        <dc:title />
      </cc:Work>
    </rdf:RDF>
  </metadata>
  <defs
     id="defs8" />
  <sodipodi:namedview
     pagecolor="#ffffff"
     bordercolor="#666666"
     borderopacity="1"
     objecttolerance="10"
     gridtolerance="10"
     guidetolerance="10"
     inkscape:pageopacity="0"
     inkscape:pageshadow="2"
     inkscape:window-width="1366"
     inkscape:window-height="713"
     id="namedview6"
     showgrid="false"
     inkscape:snap-bbox="true"
     inkscape:bbox-paths="true"
     inkscape:bbox-nodes="true"
     inkscape:snap-bbox-midpoints="true"
     inkscape:zoom="11.02408854166667"
     inkscape:cx="-20.74405710673937"
     inkscape:cy="11.90735809428717"
     inkscape:window-x="0"
     inkscape:window-y="30"
     inkscape:window-maximized="1"
     inkscape:current-layer="svg2"
     fit-margin-top="0"
     fit-margin-left="0"
     fit-margin-right="0"
     fit-margin-bottom="0" />
  <path
     d="M 0,0 0,10 4,10 4,4 10,4 10,0 0,0 Z m 28,0 0,4 6,0 0,6 4,0 L 38,0 28,0 Z M 10,7 C 8.342499999999999,7 7.015625,8.342499999999999 7.015625,10 L 7,34 c 0,1.6575 1.326874999999999,3 2.984375,3 L 28,37 c 1.6575,0 3,-1.3425 3,-3 L 31,16 22,7 10,7 Z m 10.5,2.25 8.25,8.25 -8.25,0 0,-8.25 z M 13,22 l 12,0 0,3 -12,0 0,-3 z m 0,6 12,0 0,3 -12,0 0,-3 z m -13,6 0,10 10,0 0,-4 -6,0 0,-6 -4,0 z m 34,0 0,6 -6,0 0,4 10,0 0,-10 -4,0 z"
     id="path4"
     inkscape:connector-curvature="0" />
</svg>
