<svg height="96" width="96" xmlns="http://www.w3.org/2000/svg"><g fill-rule="evenodd" transform="matrix(1.43841068537 0 0 1.43841068537 161.66011683557 -29.75781677533)"><path d="m-86.682454 70.020561s-2.230343 1.298159 1.589079 1.736219c4.627848.528358 6.99267.452269 12.091002-.511436 0 0 1.343115.840206 3.215621 1.567893-11.432816 4.898228-25.874818-.283815-16.895702-2.792676z" fill="#0074bd"/><path d="m-88.080213 63.627558s-2.501885 1.852354 1.320378 2.247395c4.943959.510402 8.846833.552257 15.604261-.748227 0 0 .932442.947169 2.400864 1.464804-13.820761 4.04265-29.214325.318049-19.325503-2.963972z" fill="#0074bd"/><path d="m-76.303512 52.781491c2.818512 3.244428-.739056 6.161637-.739056 6.161637s7.15247-3.69166 3.868382-8.316795c-3.068352-4.311221-5.420773-6.452815 7.314724-13.838589.000129 0-19.991571 4.991756-10.44405 15.993747z" fill="#ea2d2e"/><g fill="#0074bd"><path d="m-61.182912 74.749947s1.651086 1.361071-1.818508 2.413654c-6.5975 1.99833-27.464801 2.601097-33.260721.07996-2.082041-.906864 1.824192-2.163814 3.053238-2.429285 1.281494-.277226 2.013186-.226586 2.013186-.226586-2.317154-1.63171-14.976823 3.20464-6.429691 4.591677 23.308341 3.778083 42.48761-1.701727 36.442496-4.429424z"/><path d="m-85.609073 57.002801s-10.613022 2.521521-3.758189 3.437944c2.895247.38742 8.663393.298283 14.040243-.152823 4.392994-.368688 8.801619-1.157221 8.801619-1.157221s-1.54787.664-2.668531 1.428763c-10.779538 2.835177-31.599689 1.514799-25.604956-1.383807 5.067458-2.451504 9.189814-2.172856 9.189814-2.172856z"/><path d="m-66.569322 67.644371c10.957035-5.692186 5.890352-11.162953 2.3541-10.426093-.864751.180468-1.252687.336779-1.252687.336779s.322182-.504717.935672-.721874c6.9959-2.45835 12.374946 7.253103-2.25605 11.099266-.00013 0 .168196-.152436.218965-.288078z"/></g><path d="m-73.174057 24.859253s6.066817 6.070304-5.756002 15.40209c-9.481121 7.488603-2.161747 11.756806-.0034 16.635915-5.534841-4.993307-9.594543-9.38953-6.871497-13.480494 3.998728-6.004292 15.078099-8.916333 12.630858-18.557511z" fill="#ea2d2e"/><path d="m-84.531817 83.073848c10.5151.672267 26.666709-.374114 27.048961-5.35011 0 0-.734792 1.886328-8.690908 3.383041-8.975758 1.689842-20.048799 1.493096-26.613745.409123 0 0 1.344923 1.113169 8.255692 1.557946z" fill="#0074bd"/></g></svg>