<?xml version="1.0" encoding="UTF-8" standalone="no"?>
<svg
   xmlns:dc="http://purl.org/dc/elements/1.1/"
   xmlns:cc="http://creativecommons.org/ns#"
   xmlns:rdf="http://www.w3.org/1999/02/22-rdf-syntax-ns#"
   xmlns:svg="http://www.w3.org/2000/svg"
   xmlns="http://www.w3.org/2000/svg"
   xmlns:sodipodi="http://sodipodi.sourceforge.net/DTD/sodipodi-0.dtd"
   xmlns:inkscape="http://www.inkscape.org/namespaces/inkscape"
   width="44"
   height="28"
   viewBox="0 0 44 28"
   id="svg2"
   version="1.1"
   inkscape:version="0.91 r13725"
   sodipodi:docname="stock_people.svg"
   style="fill:#03A9F4">
  <metadata
     id="metadata10">
    <rdf:RDF>
      <cc:Work
         rdf:about="">
        <dc:format>image/svg+xml</dc:format>
        <dc:type
           rdf:resource="http://purl.org/dc/dcmitype/StillImage" />
        <dc:title></dc:title>
      </cc:Work>
    </rdf:RDF>
  </metadata>
  <defs
     id="defs8" />
  <sodipodi:namedview
     pagecolor="#ffffff"
     bordercolor="#666666"
     borderopacity="1"
     objecttolerance="10"
     gridtolerance="10"
     guidetolerance="10"
     inkscape:pageopacity="0"
     inkscape:pageshadow="2"
     inkscape:window-width="668"
     inkscape:window-height="480"
     id="namedview6"
     showgrid="false"
     fit-margin-top="0"
     fit-margin-left="0"
     fit-margin-right="0"
     fit-margin-bottom="0"
     inkscape:zoom="4.916666666666668"
     inkscape:cx="21.99999999999999"
     inkscape:cy="13.99999999999999"
     inkscape:window-x="0"
     inkscape:window-y="30"
     inkscape:window-maximized="0"
     inkscape:current-layer="svg2" />
  <path
     d="M 30,12 C 33.31,12 35.98000000000001,9.309999999999998 35.98000000000001,6 35.98000000000001,2.689999999999999 33.31,0 30,0 c -3.31,0 -6,2.689999999999999 -6,6 0,3.309999999999999 2.69,6 6,6 z M 14,12 C 17.31,12 19.98,9.309999999999998 19.98,6 19.98,2.689999999999999 17.31,0 14,0 10.69,0 8,2.689999999999999 8,6 8,9.309999999999998 10.69,12 14,12 Z m 0,4 C 9.33,16 0,18.34 0,23 l 0,5 28,0 0,-5 c 0,-4.66 -9.33,-7 -14,-7 z m 16,0 c -0.58,0 -1.23,0.04 -1.93,0.11 C 30.39,17.78 32,20.03 32,23 l 0,5 12,0 0,-5 c 0,-4.66 -9.33,-7 -14,-7 z"
     id="path4"
     inkscape:connector-curvature="0" />
</svg>
