<?xml version="1.0" encoding="UTF-8" standalone="no"?>
<svg
   xmlns:dc="http://purl.org/dc/elements/1.1/"
   xmlns:cc="http://creativecommons.org/ns#"
   xmlns:rdf="http://www.w3.org/1999/02/22-rdf-syntax-ns#"
   xmlns:svg="http://www.w3.org/2000/svg"
   xmlns="http://www.w3.org/2000/svg"
   xmlns:sodipodi="http://sodipodi.sourceforge.net/DTD/sodipodi-0.dtd"
   xmlns:inkscape="http://www.inkscape.org/namespaces/inkscape"
   viewBox="0 0 36 35.99999900000001"
   id="svg2"
   version="1.1"
   inkscape:version="0.91 r13725"
   sodipodi:docname="text-x-sql.svg"
   width="36"
   height="36">
  <metadata
     id="metadata10">
    <rdf:RDF>
      <cc:Work
         rdf:about="">
        <dc:format>image/svg+xml</dc:format>
        <dc:type
           rdf:resource="http://purl.org/dc/dcmitype/StillImage" />
        <dc:title></dc:title>
      </cc:Work>
    </rdf:RDF>
  </metadata>
  <defs
     id="defs8" />
  <sodipodi:namedview
     pagecolor="#ffffff"
     bordercolor="#666666"
     borderopacity="1"
     objecttolerance="10"
     gridtolerance="10"
     guidetolerance="10"
     inkscape:pageopacity="0"
     inkscape:pageshadow="2"
     inkscape:window-width="1366"
     inkscape:window-height="713"
     id="namedview6"
     showgrid="false"
     inkscape:snap-bbox="true"
     inkscape:bbox-paths="false"
     inkscape:bbox-nodes="true"
     fit-margin-top="0"
     fit-margin-left="0"
     fit-margin-right="0"
     fit-margin-bottom="0"
     inkscape:zoom="1.68852127636431"
     inkscape:cx="-14.69071673452063"
     inkscape:cy="74.18693824352931"
     inkscape:window-x="0"
     inkscape:window-y="30"
     inkscape:window-maximized="1"
     inkscape:current-layer="svg2" />
  <path
     id="path4135"
     style="fill:#4caf50"
     d="M 5.496693000000002,24 30.503307,24 C 31.332495,24 32,24.453714 32,25.017143 l 0,5.965714 C 32,31.546286 31.332495,32 30.503307,32 L 5.496693000000002,32 C 4.667505000000002,32 4,31.546286 4,30.982857 L 4,25.017143 C 4,24.453714 4.667505000000002,24 5.496693000000002,24 m 0,-20 L 30.503307,4 C 31.332495,4 32,4.4537143 32,5.0171429 l 0,5.9657141 C 32,11.546286 31.332495,12 30.503307,12 L 5.496693000000002,12 C 4.667505000000002,12 4,11.546286 4,10.982857 L 4,5.0171429 C 4,4.4537143 4.667505000000002,4 5.496693000000002,4 m 0,10 L 30.503307,14 C 31.332495,14 32,14.453714 32,15.017143 l 0,5.965714 C 32,21.546286 31.332495,22 30.503307,22 L 5.496693000000002,22 C 4.667505000000002,22 4,21.546286 4,20.982857 L 4,15.017143 C 4,14.453714 4.667505000000002,14 5.496693000000002,14"
     inkscape:connector-curvature="0" />
</svg>
