<?xml version="1.0" encoding="UTF-8" standalone="no"?>
<svg
   xmlns:osb="http://www.openswatchbook.org/uri/2009/osb"
   xmlns:dc="http://purl.org/dc/elements/1.1/"
   xmlns:cc="http://creativecommons.org/ns#"
   xmlns:rdf="http://www.w3.org/1999/02/22-rdf-syntax-ns#"
   xmlns:svg="http://www.w3.org/2000/svg"
   xmlns="http://www.w3.org/2000/svg"
   xmlns:xlink="http://www.w3.org/1999/xlink"
   xmlns:sodipodi="http://sodipodi.sourceforge.net/DTD/sodipodi-0.dtd"
   xmlns:inkscape="http://www.inkscape.org/namespaces/inkscape"
   fill="#FF9800"
   width="48"
   height="48"
   viewBox="0 0 48 48"
   id="svg2"
   version="1.1"
   inkscape:version="0.91 r13725"
   sodipodi:docname="text-x-java3.svg">
  <metadata
     id="metadata10">
    <rdf:RDF>
      <cc:Work
         rdf:about="">
        <dc:format>image/svg+xml</dc:format>
        <dc:type
           rdf:resource="http://purl.org/dc/dcmitype/StillImage" />
        <dc:title></dc:title>
      </cc:Work>
    </rdf:RDF>
  </metadata>
  <defs
     id="defs8">
    <linearGradient
       id="linearGradient5664"
       osb:paint="solid">
      <stop
         style="stop-color:#000000;stop-opacity:1;"
         offset="0"
         id="stop5666" />
    </linearGradient>
    <linearGradient
       x1="64"
       y1="60"
       x2="62"
       y2="7"
       id="linearGradient3724"
       xlink:href="#linearGradient3763"
       gradientUnits="userSpaceOnUse"
       gradientTransform="matrix(1.231823,0,0,1.231823,-157.81615,7.1708322)" />
    <linearGradient
       id="linearGradient3763">
      <stop
         id="stop3765"
         style="stop-color:#ff7700;stop-opacity:1"
         offset="0" />
      <stop
         id="stop3767"
         style="stop-color:#ffb15d;stop-opacity:1"
         offset="1" />
    </linearGradient>
    <clipPath
       id="clipPath3716">
      <path
         d="m -118,6 c -3.324,0 -6,2.676 -6,6 l 0,72 c 0,3.324 2.676,6 6,6 l 72,0 c 3.324,0 6,-2.676 6,-6 l 0,-72 c 0,-3.324 -2.676,-6 -6,-6 l -72,0 z m 42.53125,9.4375 c 0,0 6.742786,6.784262 -6.4375,17.1875 -10.569721,8.348428 -2.406258,13.091934 0,18.53125 -6.170339,-5.566626 -10.691951,-10.439321 -7.65625,-15 4.457852,-6.693689 16.821977,-9.970594 14.09375,-20.71875 z m 8.125,13.34375 c -14.197756,8.233791 -11.545654,10.600025 -8.125,15.40625 3.661158,5.156183 -4.3125,9.25 -4.3125,9.25 0,0 3.954627,-3.226804 0.8125,-6.84375 -10.643745,-12.265213 11.625144,-17.8125 11.625,-17.8125 z m 3.59375,21.875 c 6.598371,-0.338475 10.187997,8.957958 -4.59375,12.84375 -1.44e-4,0 0.16215,-0.192534 0.21875,-0.34375 12.215092,-6.34575 6.567276,-12.446464 2.625,-11.625 -0.964039,0.201189 -1.40625,0.375 -1.40625,0.375 0,0 0.378571,-0.570411 1.0625,-0.8125 0.731171,-0.256932 1.41116,-0.40248 2.09375,-0.4375 z m -26.40625,0.625 c 0.519115,-0.01358 0.8125,0 0.8125,0 0,0 -11.82939,2.822105 -4.1875,3.84375 3.227673,0.431901 9.630792,0.315402 15.625,-0.1875 4.897387,-0.41102 9.8125,-1.25 9.8125,-1.25 0,0 -1.719415,0.709928 -2.96875,1.5625 -12.017218,3.160705 -35.24553,1.700167 -28.5625,-1.53125 4.236968,-2.049735 7.911406,-2.39676 9.46875,-2.4375 z m -1.9375,7.40625 c 0,0 -2.823626,2.059601 1.4375,2.5 5.511613,0.569005 9.87295,0.637302 17.40625,-0.8125 0,0 1.050477,1.047931 2.6875,1.625 -15.407629,4.506818 -32.55548,0.346355 -21.53125,-3.3125 z m 1.53125,7.125 c 0,0 -2.476708,1.449143 1.78125,1.9375 5.159208,0.589021 7.816289,0.511854 13.5,-0.5625 0,0 1.474997,0.907513 3.5625,1.71875 -12.745505,5.460632 -28.85383,-0.296827 -18.84375,-3.09375 z m -6.46875,4.71875 c 0.614519,0.02364 1.14585,0.147618 1.46875,0.375 0,0 -0.852618,-0.05906 -2.28125,0.25 -1.370161,0.295952 -5.69609,1.676512 -3.375,2.6875 6.461397,2.810602 29.707491,2.165274 37.0625,-0.0625 3.867966,-1.173437 2.03125,-2.71875 2.03125,-2.71875 6.739204,3.040884 -14.609199,9.149373 -40.59375,4.9375 -8.33743,-1.353006 1.38587,-5.63424 5.6875,-5.46875 z M -58,74.375 c -0.426144,5.547328 -18.43383,6.718207 -30.15625,5.96875 -7.704246,-0.495845 -9.1875,-1.71875 -9.1875,-1.71875 7.318718,1.208433 19.649918,1.415115 29.65625,-0.46875 C -58.817879,76.487689 -58,74.375 -58,74.375 Z"
         inkscape:connector-curvature="0"
         id="path3718"
         style="display:inline;fill:#ff00ff;fill-opacity:1;fill-rule:nonzero;stroke:none" />
    </clipPath>
    <filter
       style="color-interpolation-filters:sRGB"
       x="-0.16965857"
       y="-0.1250829"
       width="1.3393171"
       height="1.2501658"
       id="filter3720">
      <feGaussianBlur
         id="feGaussianBlur3722"
         stdDeviation="3.3931715" />
    </filter>
    <linearGradient
       x1="64"
       y1="60"
       x2="62"
       y2="7"
       id="linearGradient3769"
       xlink:href="#linearGradient3763"
       gradientUnits="userSpaceOnUse"
       gradientTransform="matrix(1.3215847,0,0,1.3215847,-37.067029,4.1956498)" />
    <linearGradient
       gradientTransform="scale(1.0058652,0.994169)"
       gradientUnits="userSpaceOnUse"
       id="ButtonShadow"
       y2="7.0165396"
       x2="45.447727"
       y1="92.539597"
       x1="45.447727">
      <stop
         offset="0"
         style="stop-color:#000000;stop-opacity:1"
         id="stop3750" />
      <stop
         offset="1"
         style="stop-color:#000000;stop-opacity:0.58823532"
         id="stop3752" />
    </linearGradient>
    <linearGradient
       id="linearGradient3737">
      <stop
         offset="0"
         style="stop-color:#ffffff;stop-opacity:1"
         id="stop3739" />
      <stop
         offset="1"
         style="stop-color:#ffffff;stop-opacity:0"
         id="stop3741" />
    </linearGradient>
    <linearGradient
       id="linearGradient3700">
      <stop
         offset="0"
         style="stop-color:#e1e1e1;stop-opacity:1"
         id="stop3702" />
      <stop
         offset="1"
         style="stop-color:#f0f0f0;stop-opacity:1"
         id="stop3704" />
    </linearGradient>
    <filter
       id="filter3174"
       color-interpolation-filters="sRGB">
      <feGaussianBlur
         stdDeviation="1.71"
         id="feGaussianBlur3176" />
    </filter>
    <linearGradient
       gradientUnits="userSpaceOnUse"
       xlink:href="#linearGradient3737"
       id="linearGradient3188"
       y2="63.893143"
       x2="36.357143"
       y1="6"
       x1="36.357143" />
    <filter
       id="filter3794"
       color-interpolation-filters="sRGB"
       height="1.3839999"
       width="1.3839999"
       y="-0.192"
       x="-0.192">
      <feGaussianBlur
         stdDeviation="5.28"
         id="feGaussianBlur3796" />
    </filter>
    <linearGradient
       gradientUnits="userSpaceOnUse"
       xlink:href="#linearGradient3737"
       id="linearGradient3613"
       y2="138.66119"
       x2="48"
       y1="20.220806"
       x1="48" />
    <radialGradient
       gradientTransform="matrix(1.1573129,0,0,0.99590774,-7.5510206,0.19713193)"
       gradientUnits="userSpaceOnUse"
       xlink:href="#linearGradient3737"
       id="radialGradient3619"
       fy="90.171875"
       fx="48"
       r="42"
       cy="90.171875"
       cx="48" />
    <clipPath
       id="clipPath3613">
      <rect
         style="fill:#ffffff;fill-opacity:1;fill-rule:nonzero;stroke:none"
         id="rect3615"
         y="6"
         x="6"
         ry="6"
         rx="6"
         height="84"
         width="84" />
    </clipPath>
    <linearGradient
       gradientUnits="userSpaceOnUse"
       xlink:href="#linearGradient3700"
       id="linearGradient3617"
       y2="5.9877172"
       x2="48"
       y1="90"
       x1="48" />
    <linearGradient
       gradientTransform="matrix(1.0058652,0,0,0.994169,100,0)"
       gradientUnits="userSpaceOnUse"
       id="ButtonShadow-0-1"
       y2="7.0165396"
       x2="45.447727"
       y1="92.539597"
       x1="45.447727">
      <stop
         offset="0"
         style="stop-color:#000000;stop-opacity:1"
         id="stop3750-8-1" />
      <stop
         offset="1"
         style="stop-color:#000000;stop-opacity:0.58823532"
         id="stop3752-5-2" />
    </linearGradient>
    <linearGradient
       gradientTransform="matrix(1.0238095,0,0,1.0119048,-1.1428571,-98.071429)"
       gradientUnits="userSpaceOnUse"
       xlink:href="#ButtonShadow-0-1"
       id="linearGradient3780-1"
       y2="90.238609"
       x2="32.251034"
       y1="6.1317081"
       x1="32.251034" />
    <linearGradient
       gradientTransform="translate(0,-97)"
       gradientUnits="userSpaceOnUse"
       xlink:href="#ButtonShadow-0-1"
       id="linearGradient3721-3"
       y2="90.238609"
       x2="32.251034"
       y1="6.1317081"
       x1="32.251034" />
    <linearGradient
       gradientTransform="scale(1.0058652,0.994169)"
       gradientUnits="userSpaceOnUse"
       id="ButtonShadow-9"
       y2="7.0165396"
       x2="45.447727"
       y1="92.539597"
       x1="45.447727">
      <stop
         offset="0"
         style="stop-color:#000000;stop-opacity:1"
         id="stop3750-5" />
      <stop
         offset="1"
         style="stop-color:#000000;stop-opacity:0.58823532"
         id="stop3752-5" />
    </linearGradient>
    <filter
       style="color-interpolation-filters:sRGB"
       id="filter3174-2">
      <feGaussianBlur
         stdDeviation="1.71"
         id="feGaussianBlur3176-0" />
    </filter>
  </defs>
  <sodipodi:namedview
     pagecolor="#ffffff"
     bordercolor="#666666"
     borderopacity="1"
     objecttolerance="10"
     gridtolerance="10"
     guidetolerance="10"
     inkscape:pageopacity="0"
     inkscape:pageshadow="2"
     inkscape:window-width="1366"
     inkscape:window-height="713"
     id="namedview6"
     showgrid="false"
     inkscape:snap-bbox="true"
     inkscape:bbox-paths="true"
     inkscape:bbox-nodes="true"
     inkscape:snap-bbox-edge-midpoints="true"
     inkscape:snap-object-midpoints="true"
     inkscape:snap-bbox-midpoints="false"
     inkscape:snap-midpoints="true"
     inkscape:object-paths="false"
     inkscape:zoom="4.9166667"
     inkscape:cx="-2.7547894"
     inkscape:cy="28.112075"
     inkscape:window-x="0"
     inkscape:window-y="30"
     inkscape:window-maximized="1"
     inkscape:current-layer="svg2"
     inkscape:snap-intersection-paths="false"
     inkscape:snap-smooth-nodes="true"
     inkscape:object-nodes="true"
     inkscape:snap-nodes="false" />
  <path
     d="M 12 4 C 9.79 4 8.0195313 5.79 8.0195312 8 L 8.0039062 32.488281 C 9.0197414 32.329211 9.6679686 32.365234 9.6679688 32.365234 C 9.6679688 32.365234 8.839367 32.561192 8.0039062 32.833984 L 8.0039062 34.3125 C 9.704 34.477266 12.612963 34.426231 15.388672 34.193359 C 15.5966 34.175909 15.793461 34.149324 16 34.128906 L 16 32.279297 C 15.269211 32.997096 14.435547 33.445312 14.435547 33.445312 C 14.435547 33.445312 16.413999 31.822866 14.845703 30.017578 C 9.5332036 23.895772 20.658275 21.117188 20.658203 21.117188 C 18.64807 22.282936 17.329899 23.209683 16.488281 24 L 32 24 L 32 28 L 16.003906 28 C 16.18366 28.260512 16.382768 28.53015 16.587891 28.818359 C 17.469533 30.060018 16.990333 31.172516 16.267578 32 L 32 32 L 32 36 L 24.644531 36 C 23.907923 36.926601 22.505809 37.825511 20.140625 38.447266 C 20.140553 38.447266 20.23347 38.362583 20.261719 38.287109 C 21.776731 37.500059 22.74091 36.720725 23.304688 36 L 16 36 L 16 35.873047 C 13.345093 36.227733 10.354992 36.288214 8.0039062 36.134766 L 8.0019531 37.167969 C 8.1047552 37.129647 8.1780248 37.090883 8.2929688 37.052734 C 8.2929688 37.052734 8.1314074 37.17719 8.0019531 37.345703 L 8.0019531 37.994141 C 8.1645737 38.129711 8.4708121 38.245216 9.0273438 38.302734 C 11.778297 38.586736 13.950921 38.610343 17.710938 37.886719 C 17.710938 37.886719 18.229805 38.413146 19.046875 38.701172 C 14.78048 39.949117 10.253584 39.864861 8 39.232422 L 8 40 C 8 40.338892 8.0543481 40.662363 8.1328125 40.976562 C 8.3744474 40.847522 8.6649922 40.722626 9.0703125 40.609375 C 9.0703125 40.609375 7.8298479 41.332423 9.9550781 41.576172 C 12.530139 41.870164 13.846744 41.827247 16.683594 41.291016 C 16.683594 41.291016 17.430743 41.757204 18.472656 42.162109 C 15.102526 43.605994 11.279645 43.47162 9.15625 42.822266 C 9.8755597 43.549454 10.872494 44 11.980469 44 L 23.332031 44 C 23.664711 43.59242 23.259766 43.240234 23.259766 43.240234 C 23.761153 43.466472 23.944772 43.727845 23.861328 44 L 36 44 C 38.21 44 40 42.21 40 40 L 40 16 L 28 4 L 12 4 z M 26 7 L 37 18 L 26 18 L 26 7 z M 16.587891 14.480469 C 16.587891 14.480469 19.963303 17.858322 13.384766 23.050781 C 8.1092091 27.217643 12.181862 29.591772 13.382812 32.306641 C 10.303085 29.528229 8.0434165 27.082964 9.5585938 24.806641 C 11.783595 21.46569 17.949602 19.845082 16.587891 14.480469 z M 16 24.503906 C 14.811117 25.880352 15.204101 26.839534 16 27.994141 L 16 24.503906 z "
     id="path4" />
  <g
     transform="matrix(0.46395794,0,0,0.46395794,-8.1693089,8.5113107)"
     id="layer4"
     style="display:inline;stroke-width:4.31073558;stroke-miterlimit:4;stroke-dasharray:none">
    <g
       id="g4218"
       transform="matrix(1.0611632,0,0,1.0611632,-6.7402405,-0.93006156)">
      <g
         style="display:none"
         id="layer2">
        <rect
           style="opacity:0.9;fill:url(#ButtonShadow);fill-opacity:1;fill-rule:nonzero;stroke:none;filter:url(#filter3174)"
           id="rect3745"
           y="7"
           x="5"
           ry="6"
           rx="6"
           height="85"
           width="86" />
      </g>
      <g
         id="layer3">
        <g
           id="g3678"
           transform="matrix(1.1301798,0,0,1.1301798,137.30438,-15.095426)">
          <path
             style="fill:#0074bd;fill-rule:evenodd"
             id="path3616"
             inkscape:connector-curvature="0"
             d="m -86.682454,70.020561 c 0,0 -2.230343,1.298159 1.589079,1.736219 4.627848,0.528358 6.99267,0.452269 12.091002,-0.511436 0,0 1.343115,0.840206 3.215621,1.567893 -11.432816,4.898228 -25.874818,-0.283815 -16.895702,-2.792676 l 0,0 z" />
          <path
             style="fill:#0074bd;fill-rule:evenodd"
             id="path3618"
             inkscape:connector-curvature="0"
             d="m -88.080213,63.627558 c 0,0 -2.501885,1.852354 1.320378,2.247395 4.943959,0.510402 8.846833,0.552257 15.604261,-0.748227 0,0 0.932442,0.947169 2.400864,1.464804 -13.820761,4.04265 -29.214325,0.318049 -19.325503,-2.963972 l 0,0 z" />
          <path
             style="fill:#ea2d2e;fill-rule:evenodd"
             id="path3620"
             inkscape:connector-curvature="0"
             d="m -76.303512,52.781491 c 2.818512,3.244428 -0.739056,6.161637 -0.739056,6.161637 0,0 7.15247,-3.69166 3.868382,-8.316795 -3.068352,-4.311221 -5.420773,-6.452815 7.314724,-13.838589 1.29e-4,0 -19.991571,4.991756 -10.44405,15.993747 l 0,0 z" />
          <path
             style="fill:#0074bd;fill-rule:evenodd"
             id="path3622"
             inkscape:connector-curvature="0"
             d="m -61.182912,74.749947 c 0,0 1.651086,1.361071 -1.818508,2.413654 -6.5975,1.99833 -27.464801,2.601097 -33.260721,0.07996 -2.082041,-0.906864 1.824192,-2.163814 3.053238,-2.429285 1.281494,-0.277226 2.013186,-0.226586 2.013186,-0.226586 -2.317154,-1.63171 -14.976823,3.20464 -6.429691,4.591677 23.308341,3.778083 42.48761,-1.701727 36.442496,-4.429424 l 0,0 z" />
          <path
             style="fill:#0074bd;fill-rule:evenodd"
             id="path3624"
             inkscape:connector-curvature="0"
             d="m -85.609073,57.002801 c 0,0 -10.613022,2.521521 -3.758189,3.437944 2.895247,0.38742 8.663393,0.298283 14.040243,-0.152823 4.392994,-0.368688 8.801619,-1.157221 8.801619,-1.157221 0,0 -1.54787,0.664 -2.668531,1.428763 -10.779538,2.835177 -31.599689,1.514799 -25.604956,-1.383807 5.067458,-2.451504 9.189814,-2.172856 9.189814,-2.172856 l 0,0 z" />
          <path
             style="fill:#0074bd;fill-rule:evenodd"
             id="path3626"
             inkscape:connector-curvature="0"
             d="m -66.569322,67.644371 c 10.957035,-5.692186 5.890352,-11.162953 2.3541,-10.426093 -0.864751,0.180468 -1.252687,0.336779 -1.252687,0.336779 0,0 0.322182,-0.504717 0.935672,-0.721874 6.9959,-2.45835 12.374946,7.253103 -2.25605,11.099266 -1.3e-4,0 0.168196,-0.152436 0.218965,-0.288078 l 0,0 z" />
          <path
             style="fill:#ea2d2e;fill-rule:evenodd"
             id="path3628"
             inkscape:connector-curvature="0"
             d="m -73.174057,24.859253 c 0,0 6.066817,6.070304 -5.756002,15.40209 -9.481121,7.488603 -2.161747,11.756806 -0.0034,16.635915 -5.534841,-4.993307 -9.594543,-9.38953 -6.871497,-13.480494 3.998728,-6.004292 15.078099,-8.916333 12.630858,-18.557511 l 0,0 z" />
          <path
             style="fill:#0074bd;fill-rule:evenodd"
             id="path3630"
             inkscape:connector-curvature="0"
             d="m -84.531817,83.073848 c 10.5151,0.672267 26.666709,-0.374114 27.048961,-5.35011 0,0 -0.734792,1.886328 -8.690908,3.383041 -8.975758,1.689842 -20.048799,1.493096 -26.613745,0.409123 0,0 1.344923,1.113169 8.255692,1.557946 l 0,0 z" />
        </g>
      </g>
    </g>
  </g>
  <g
     style="fill:#000000;fill-opacity:1;stroke-width:4.3107357;stroke-miterlimit:4;stroke-dasharray:none"
     transform="matrix(0.55642717,0,0,0.55642717,29.527,-6.0794218)"
     id="g3678-4-1">
    <path
       d="m -86.682454,70.020561 c 0,0 -2.230343,1.298159 1.589079,1.736219 4.627848,0.528358 6.99267,0.452269 12.091002,-0.511436 0,0 1.343115,0.840206 3.215621,1.567893 -11.432816,4.898228 -25.874818,-0.283815 -16.895702,-2.792676 l 0,0 z"
       inkscape:connector-curvature="0"
       id="path3616-1-9"
       style="fill:#000000;fill-opacity:1;fill-rule:evenodd" />
    <path
       d="m -88.080213,63.627558 c 0,0 -2.501885,1.852354 1.320378,2.247395 4.943959,0.510402 8.846833,0.552257 15.604261,-0.748227 0,0 0.932442,0.947169 2.400864,1.464804 -13.820761,4.04265 -29.214325,0.318049 -19.325503,-2.963972 l 0,0 z"
       inkscape:connector-curvature="0"
       id="path3618-8-5"
       style="fill:#000000;fill-opacity:1;fill-rule:evenodd" />
    <path
       d="m -76.303512,52.781491 c 2.818512,3.244428 -0.739056,6.161637 -0.739056,6.161637 0,0 7.15247,-3.69166 3.868382,-8.316795 -3.068352,-4.311221 -5.420773,-6.452815 7.314724,-13.838589 1.29e-4,0 -19.991571,4.991756 -10.44405,15.993747 l 0,0 z"
       inkscape:connector-curvature="0"
       id="path3620-6-0"
       style="fill:#000000;fill-opacity:1;fill-rule:evenodd" />
    <path
       d="m -61.182912,74.749947 c 0,0 1.651086,1.361071 -1.818508,2.413654 -6.5975,1.99833 -27.464801,2.601097 -33.260721,0.07996 -2.082041,-0.906864 1.824192,-2.163814 3.053238,-2.429285 1.281494,-0.277226 2.013186,-0.226586 2.013186,-0.226586 -2.317154,-1.63171 -14.976823,3.20464 -6.429691,4.591677 23.308341,3.778083 42.48761,-1.701727 36.442496,-4.429424 l 0,0 z"
       inkscape:connector-curvature="0"
       id="path3622-1-2"
       style="fill:#000000;fill-opacity:1;fill-rule:evenodd" />
    <path
       d="m -85.609073,57.002801 c 0,0 -10.613022,2.521521 -3.758189,3.437944 2.895247,0.38742 8.663393,0.298283 14.040243,-0.152823 4.392994,-0.368688 8.801619,-1.157221 8.801619,-1.157221 0,0 -1.54787,0.664 -2.668531,1.428763 -10.779538,2.835177 -31.599689,1.514799 -25.604956,-1.383807 5.067458,-2.451504 9.189814,-2.172856 9.189814,-2.172856 l 0,0 z"
       inkscape:connector-curvature="0"
       id="path3624-5-4"
       style="fill:#000000;fill-opacity:1;fill-rule:evenodd" />
    <path
       d="m -66.569322,67.644371 c 10.957035,-5.692186 5.890352,-11.162953 2.3541,-10.426093 -0.864751,0.180468 -1.252687,0.336779 -1.252687,0.336779 0,0 0.322182,-0.504717 0.935672,-0.721874 6.9959,-2.45835 12.374946,7.253103 -2.25605,11.099266 -1.3e-4,0 0.168196,-0.152436 0.218965,-0.288078 l 0,0 z"
       inkscape:connector-curvature="0"
       id="path3626-6-7"
       style="fill:#000000;fill-opacity:1;fill-rule:evenodd" />
    <path
       d="m -73.174057,24.859253 c 0,0 6.066817,6.070304 -5.756002,15.40209 -9.481121,7.488603 -2.161747,11.756806 -0.0034,16.635915 -5.534841,-4.993307 -9.594543,-9.38953 -6.871497,-13.480494 3.998728,-6.004292 15.078099,-8.916333 12.630858,-18.557511 l 0,0 z"
       inkscape:connector-curvature="0"
       id="path3628-1-2"
       style="fill:#000000;fill-opacity:1;fill-rule:evenodd" />
    <path
       d="m -84.531817,83.073848 c 10.5151,0.672267 26.666709,-0.374114 27.048961,-5.35011 0,0 -0.734792,1.886328 -8.690908,3.383041 -8.975758,1.689842 -20.048799,1.493096 -26.613745,0.409123 0,0 1.344923,1.113169 8.255692,1.557946 l 0,0 z"
       inkscape:connector-curvature="0"
       id="path3630-0-8"
       style="fill:#000000;fill-opacity:1;fill-rule:evenodd" />
  </g>
</svg>
