<svg xmlns="http://www.w3.org/2000/svg" viewBox="0 0 48 16"><g fill="#FFEB3B"><path d="m0 0v16h48v-16h-48m4.076 3.068c.059-.01 1.54.773 2.535 1.043 1.775.454 3.397 1.817 4.18 2.602.058.067.671-.46 1.314-.422.878.053 3.598.817 3.961.297.22-.306.204-.68.479-.834.148-.041-.55-1.316.191-1.725.529-.264.978 1.215 1.113 1.381.061.074.384.091.346-.078-.041-.184-.564-1.604.076-1.842 1.04-.412.856 1.817.883 1.881.058.135 3.62.239 3.836 1.842.125.882-2.855 2.02-3.146 2.225-.291.203-.266.528-.152.729.131.218.999.954.883 1.305-.08.202-1.701-.539-1.805-.383-.236.298 1.18 1.043.691 1.572-.194.127-2.424-.932-2.418-.92-.06.023-3.149.564-5.523-.154-.084-.024-1.524 1.392-1.688 1.344-.224-.082.329-1.232.268-1.459-.101-.127-1.021.513-1.074.191-.063-.423.808-.909.768-1.189-.225-1.592.101-2.522.652-3.299.184-.286-2.162-2.058-3.861-2.758-1.699-.699-2.609-1.292-2.508-1.348"/><g fill-rule="evenodd" stroke="#FFEB3B" stroke-width=".083"><path d="m19.344 8.393c-.019-.065 1.159-.778 1.33-.614.307.111-1.319.697-1.33.614"/><path d="m19.907 9.04c-.104-.063.705-1.01.904-.904.29.288-.917.926-.904.904"/></g></g><g fill-rule="evenodd" stroke="#FFEB3B"><path d="m23.1 4.676c-.098-.081-.87 1.136-.699 1.262.103.077.743-1.218.699-1.262" fill="#fff" stroke-width=".083"/><ellipse cx="19.607" cy="6.417" rx=".308" ry=".35" fill="#FFEB3B" stroke-width=".077"/><g stroke-width=".083"><path d="m22.21 4.505c-.049-.057-.307 1.255-.188 1.313.103.077.281-1.245.188-1.313z" fill="#fff"/><path d="m18.917 6.28c-.306.216.168 1.44.947.725-.612.018-.816-.161-.947-.725z" fill="#FFEB3B"/></g></g></svg>