<?xml version="1.0" encoding="UTF-8" standalone="no"?>
<svg
   xmlns:dc="http://purl.org/dc/elements/1.1/"
   xmlns:cc="http://creativecommons.org/ns#"
   xmlns:rdf="http://www.w3.org/1999/02/22-rdf-syntax-ns#"
   xmlns:svg="http://www.w3.org/2000/svg"
   xmlns="http://www.w3.org/2000/svg"
   xmlns:sodipodi="http://sodipodi.sourceforge.net/DTD/sodipodi-0.dtd"
   xmlns:inkscape="http://www.inkscape.org/namespaces/inkscape"
   viewBox="0 0 48 48"
   id="svg2"
   version="1.1"
   inkscape:version="0.91 r13725"
   sodipodi:docname="emblem-People.svg"
   width="48"
   height="48"
   style="fill:#FFC107">
  <metadata
     id="metadata10">
    <rdf:RDF>
      <cc:Work
         rdf:about="">
        <dc:format>image/svg+xml</dc:format>
        <dc:type
           rdf:resource="http://purl.org/dc/dcmitype/StillImage" />
        <dc:title></dc:title>
      </cc:Work>
    </rdf:RDF>
  </metadata>
  <defs
     id="defs8" />
  <sodipodi:namedview
     pagecolor="#ffffff"
     bordercolor="#666666"
     borderopacity="1"
     objecttolerance="10"
     gridtolerance="10"
     guidetolerance="10"
     inkscape:pageopacity="0"
     inkscape:pageshadow="2"
     inkscape:window-width="1366"
     inkscape:window-height="713"
     id="namedview6"
     showgrid="false"
     inkscape:zoom="2.374651231437426"
     inkscape:cx="0.2382579473560753"
     inkscape:cy="-40.69686776765512"
     inkscape:window-x="0"
     inkscape:window-y="31"
     inkscape:window-maximized="1"
     inkscape:current-layer="svg2" />
  <path
     d="M 31.99999999999999,22 C 35.31,22 37.98000000000001,19.31 37.98000000000001,16 c 0,-3.31 -2.67000000000001,-6 -5.98000000000002,-6 -3.31,0 -6,2.69 -6,6 0,3.31 2.69,6 6,6 m -16,0 c 3.31,0 5.98,-2.69 5.98,-6 0,-3.31 -2.67,-6 -5.98,-6 C 12.68999999999999,10 10,12.69 10,16 c 0,3.31 2.68999999999999,6 5.99999999999999,6 m 0,4 C 11.33,26 1.999999999999996,28.34000000000001 1.999999999999996,33 l 0,5 27.999999999999992,0 0,-5 c 0,-4.65999999999999 -9.33,-7 -14,-7 z m 16,0 c -0.58,0 -1.23,0.04 -1.93,0.11 C 32.39,27.78 34,30.03 34,33 l 0,5 12,0 0,-5 c 0,-4.65999999999999 -9.33,-7 -14,-7"
     id="path4"
     inkscape:connector-curvature="0" />
</svg>
