<?xml version="1.0" encoding="UTF-8" standalone="no"?>
<svg
   xmlns:dc="http://purl.org/dc/elements/1.1/"
   xmlns:cc="http://creativecommons.org/ns#"
   xmlns:rdf="http://www.w3.org/1999/02/22-rdf-syntax-ns#"
   xmlns:svg="http://www.w3.org/2000/svg"
   xmlns="http://www.w3.org/2000/svg"
   xmlns:sodipodi="http://sodipodi.sourceforge.net/DTD/sodipodi-0.dtd"
   xmlns:inkscape="http://www.inkscape.org/namespaces/inkscape"
   fill="#9E9E9E"
   width="48"
   height="48"
   viewBox="0 0 48 48"
   id="svg2"
   version="1.1"
   inkscape:version="0.91 r13725"
   sodipodi:docname="preferences-system-network-proxy.svg">
  <metadata
     id="metadata10">
    <rdf:RDF>
      <cc:Work
         rdf:about="">
        <dc:format>image/svg+xml</dc:format>
        <dc:type
           rdf:resource="http://purl.org/dc/dcmitype/StillImage" />
      </cc:Work>
    </rdf:RDF>
  </metadata>
  <defs
     id="defs8" />
  <sodipodi:namedview
     pagecolor="#ffffff"
     bordercolor="#666666"
     borderopacity="1"
     objecttolerance="10"
     gridtolerance="10"
     guidetolerance="10"
     inkscape:pageopacity="0"
     inkscape:pageshadow="2"
     inkscape:window-width="1366"
     inkscape:window-height="713"
     id="namedview6"
     showgrid="false"
     inkscape:snap-bbox="true"
     inkscape:bbox-nodes="true"
     inkscape:zoom="5.368001304915685"
     inkscape:cx="18.86346109128291"
     inkscape:cy="18.53608424989644"
     inkscape:window-x="0"
     inkscape:window-y="30"
     inkscape:window-maximized="1"
     inkscape:current-layer="svg2" />
  <path
     d="M 15.54,13.52 12.46,10.97 1.64,24 12.46,37.04 15.54,34.49 6.84,24 15.54,13.52 Z"
     id="path4159" />
  <path
     d="m 14,22 0,4 4,0 0,-4 -4,0 z"
     id="path4181" />
  <path
     d="m 30,22 0,4 4,0 0,-4 -4,0 z"
     id="path4157" />
  <path
     d="M 35.54,10.96 32.46,13.51 41.16,24 32.46,34.48000000000001 35.53999999999999,37.03 46.36,24 35.54,10.96 Z"
     id="path4" />
  <g
     style="fill:#9E9E9E"
     id="g4148"
     transform="translate(5.772050558649802,19.53066915458296)" />
  <path
     style="fill:#9E9E9E"
     id="path4140"
     d="m 27.75,21.8125 -0.625,0 0,-1.25 c 0,-1.72499999999999 -1.4,-3.125 -3.125,-3.125 -1.725,0 -3.125,1.40000000000001 -3.125,3.125 l 0,1.25 -0.625,0 c -0.690625,0 -1.25,0.559375 -1.25,1.25 l 0,6.25 c 0,0.69062500000001 0.559375,1.25 1.25,1.25 l 7.5,0 c 0.690625,0 1.25,-0.55937499999999 1.25,-1.25 l 0,-6.25 c 0,-0.690625 -0.559375,-1.25 -1.25,-1.25 z M 24,27.4375 c -0.690625,0 -1.25,-0.55937499999999 -1.25,-1.25 0,-0.690625 0.559375,-1.25 1.25,-1.25 0.690625,0 1.25,0.559375 1.25,1.25 0,0.69062500000001 -0.559375,1.25 -1.25,1.25 z m 1.9375,-5.625 -3.875,0 0,-1.25 c 0,-1.06875 0.86875,-1.9375 1.93750000000001,-1.9375 1.06874999999999,0 1.93749999999998,0.86874999999999 1.93749999999998,1.9375 l 0,1.25 z"
     inkscape:connector-curvature="0" />
</svg>
