<svg enable-background="new 0 0 401.98 559.472" height="559.472" viewBox="0 0 401.98 559.472" width="401.98" xmlns="http://www.w3.org/2000/svg"><g clip-rule="evenodd"><path d="m10.634 300.493c.764 15.751 16.499 8.463 23.626 3.539 6.765-4.675 8.743-.789 9.337-10.015.389-6.064 1.088-12.128.744-18.216-10.23-.927-21.357 1.509-29.744 7.602-4.32 3.139-12.42 13.158-3.963 17.09" fill="#f6d2a2" fill-rule="evenodd" stroke="#000" stroke-linecap="round" stroke-width="3"/><path d="m10.634 300.493c2.29-.852 4.717-1.457 6.271-3.528" fill="#c6b198" fill-rule="evenodd" stroke="#000" stroke-linecap="round" stroke-width="3"/><path d="m46.997 112.853c-60.297-16.956-15.461-93.664 32.959-62.113z" fill="#6ad7e5" fill-rule="evenodd" stroke="#000" stroke-linecap="round" stroke-width="3"/><path d="m314.895 44.984c47.727-33.523 90.856 42.111 35.388 61.141z" fill="#6ad7e5" fill-rule="evenodd" stroke="#000" stroke-linecap="round" stroke-width="3"/><path d="m325.161 494.343c12.123 7.501 34.282 30.182 16.096 41.18-17.474 15.999-27.254-17.561-42.591-22.211 6.605-8.97 14.977-17.149 26.495-18.969z" fill="#f6d2a2" fill-rule="evenodd" stroke="#000" stroke-linecap="round" stroke-width="3"/><path d="m341.257 535.522c-2.696-5.361-3.601-11.618-8.102-15.939" fill="none" stroke="#000" stroke-linecap="round" stroke-width="3"/><path d="m108.579 519.975c-14.229 2.202-22.238 15.039-34.1 21.558-11.178 6.665-15.454-2.134-16.461-3.92-1.752-.799-1.605.744-4.309-1.979-10.362-16.354 10.797-28.308 21.815-36.432 15.346-3.102 24.963 10.202 33.055 20.773z" fill="#f6d2a2" fill-rule="evenodd" stroke="#000" stroke-linecap="round" stroke-width="3"/><path d="m58.019 537.612c.542-6.233 5.484-10.407 7.838-15.677" fill="none" stroke="#000" stroke-linecap="round" stroke-width="3"/><g fill-rule="evenodd"><path d="m49.513 91.667c-7.955-4.208-13.791-9.923-8.925-19.124 4.505-8.518 12.874-7.593 20.83-3.385z"/><path d="m337.716 83.667c7.955-4.208 13.791-9.923 8.925-19.124-4.505-8.518-12.874-7.593-20.83-3.385z"/><path d="m392.475 298.493c-.764 15.751-16.499 8.463-23.626 3.539-6.765-4.675-8.743-.789-9.337-10.015-.389-6.064-1.088-12.128-.744-18.216 10.23-.927 21.357 1.509 29.744 7.602 4.319 3.139 12.42 13.158 3.963 17.09" fill="#f6d2a2" stroke="#000" stroke-linecap="round" stroke-width="3"/><path d="m392.475 298.493c-2.29-.852-4.717-1.457-6.271-3.528" fill="#c6b198" stroke="#000" stroke-linecap="round" stroke-width="3"/><path d="m195.512 13.124c60.365 0 116.953 8.633 146.452 66.629 26.478 65.006 17.062 135.104 21.1 203.806 3.468 58.992 11.157 127.145-16.21 181.812-28.79 57.514-100.73 71.982-160 69.863-46.555-1.666-102.794-16.854-129.069-59.389-30.826-49.9-16.232-124.098-13.993-179.622 2.652-65.771-17.815-131.742 3.792-196.101 22.415-66.763 82.867-81.851 147.928-86.998" fill="#6ad7e5" stroke="#000" stroke-linecap="round" stroke-width="3"/><path d="m206.169 94.16c10.838 63.003 113.822 46.345 99.03-17.197-13.264-56.98-102.632-41.208-99.03 17.197" fill="#fff" stroke="#000" stroke-linecap="round" stroke-width="2.9081"/><path d="m83.103 104.35c14.047 54.85 101.864 40.807 98.554-14.213-3.966-65.895-111.984-53.18-98.554 14.213" fill="#fff" stroke="#000" stroke-linecap="round" stroke-width="2.8214"/><path d="m218.594 169.762c.046 8.191 1.861 17.387.312 26.101-2.091 3.952-6.193 4.37-9.729 5.967-4.89-.767-9.002-3.978-10.963-8.552-1.255-9.946.468-19.576.785-29.526z" fill="#fff" stroke="#000" stroke-linecap="round" stroke-width="3"/><ellipse cx="107.324" cy="95.404" rx="14.829" ry="16.062"/><ellipse cx="114.069" cy="99.029" fill="#fff" rx="3.496" ry="4.082"/><ellipse cx="231.571" cy="91.404" rx="14.582" ry="16.062"/><ellipse cx="238.204" cy="95.029" fill="#fff" rx="3.438" ry="4.082"/><path d="m176.217 168.87c-6.47 15.68 3.608 47.035 21.163 23.908-1.255-9.946.468-19.576.785-29.526z" fill="#fff" stroke="#000" stroke-linecap="round" stroke-width="3"/><path d="m178.431 138.673c-12.059 1.028-21.916 15.366-15.646 26.709 8.303 15.024 26.836-1.329 38.379.203 13.285.272 24.17 14.047 34.84 2.49 11.867-12.854-5.109-25.373-18.377-30.97z" fill="#f6d2a2" stroke="#231f20" stroke-linecap="round" stroke-width="3"/><path d="m176.913 138.045c-.893-20.891 38.938-23.503 43.642-6.016 4.692 17.446-41.681 21.498-43.642 6.016-1.565-12.363 0 0 0 0z"/></g></g></svg>