<?xml version="1.0" encoding="UTF-8" standalone="no"?>
<svg
   xmlns:dc="http://purl.org/dc/elements/1.1/"
   xmlns:cc="http://creativecommons.org/ns#"
   xmlns:rdf="http://www.w3.org/1999/02/22-rdf-syntax-ns#"
   xmlns:svg="http://www.w3.org/2000/svg"
   xmlns="http://www.w3.org/2000/svg"
   xmlns:xlink="http://www.w3.org/1999/xlink"
   xmlns:sodipodi="http://sodipodi.sourceforge.net/DTD/sodipodi-0.dtd"
   xmlns:inkscape="http://www.inkscape.org/namespaces/inkscape"
   version="1.1"
   width="48"
   height="48"
   viewBox="0 0 48 48.30188679245283"
   id="svg2943"
   inkscape:version="0.91 r13725"
   sodipodi:docname="application-x-php.svg">
  <metadata
     id="metadata15">
    <rdf:RDF>
      <cc:Work
         rdf:about="">
        <dc:format>image/svg+xml</dc:format>
        <dc:type
           rdf:resource="http://purl.org/dc/dcmitype/StillImage" />
        <dc:title></dc:title>
      </cc:Work>
    </rdf:RDF>
  </metadata>
  <sodipodi:namedview
     pagecolor="#ffffff"
     bordercolor="#666666"
     borderopacity="1"
     objecttolerance="10"
     gridtolerance="10"
     guidetolerance="10"
     inkscape:pageopacity="0"
     inkscape:pageshadow="2"
     inkscape:window-width="1366"
     inkscape:window-height="713"
     id="namedview13"
     showgrid="false"
     inkscape:zoom="1.476106771612181"
     inkscape:cx="56.13839537300444"
     inkscape:cy="59.19333836382062"
     inkscape:window-x="0"
     inkscape:window-y="30"
     inkscape:window-maximized="1"
     inkscape:current-layer="svg2943" />
  <defs
     id="defs2945">
    <linearGradient
       x1="150"
       y1="84"
       x2="299"
       y2="84"
       id="linearGradient3798"
       gradientUnits="userSpaceOnUse">
      <stop
         id="stop3800"
         style="stop-color:#dddce9;stop-opacity:1"
         offset="0" />
      <stop
         id="stop3802"
         style="stop-color:#5664a3;stop-opacity:1"
         offset="0.37" />
      <stop
         id="stop3804"
         style="stop-color:#000000;stop-opacity:1"
         offset="1" />
    </linearGradient>
    <radialGradient
       cx="77.91426086425781"
       cy="-48.54452133178711"
       r="146"
       fx="77.91426086425781"
       fy="-48.54452133178711"
       id="radialGradient3870"
       xlink:href="#linearGradient3798"
       gradientUnits="userSpaceOnUse"
       gradientTransform="matrix(1.5089497,0,0,1.3582164,-39.02891699999999,76.95774699999991)" />
  </defs>
  <g
     id="g4143"
     transform="matrix(0.1217694654234514,0,0,0.1217694654234514,5.734579706646171,14.40938674177507)">
    <ellipse
       style="fill:#6c7eb7;stroke:url(#radialGradient3870);stroke-width:5.5"
       id="ellipse3860"
       ry="76"
       rx="146"
       cy="80"
       cx="150" />
    <path
       style="fill-rule:evenodd;stroke:#ffffff;stroke-width:2;stroke-linejoin:round"
       id="p"
       d="m 45,125 16,-81 37,0 c 16,1 24,9 24,23 0,24 -19,38 -36,37 l -18,0 -4,21 -19,0 z m 27,-36 5,-30 13,0 c 7,0 12,3 12,9 -1,17 -9,20 -18,21 l -12,0 z"
       inkscape:connector-curvature="0" />
    <path
       style="stroke:#ffffff;stroke-width:2;stroke-linejoin:round"
       id="h"
       d="m 116,104 16,-81 19,0 -4,21 18,0 c 16,1 22,9 20,19 l -7,41 -20,0 7,-37 c 1,-5 1,-8 -6,-8 l -15,0 -9,45 -19,0 z"
       inkscape:connector-curvature="0" />
    <use
       xlink:href="#p"
       id="p2"
       transform="translate(134,0)"
       x="0"
       y="0"
       width="100%"
       height="100%" />
  </g>
</svg>
