<svg xmlns="http://www.w3.org/2000/svg" fill="#795548" viewBox="0 0 48 48"><path d="m12 6c-.93 0-1.761.43-2.311 1.09l-2.77 3.359c-.58.7-.92 1.581-.92 2.551v25c0 2.21 1.79 4 4 4h28c2.21 0 4-1.79 4-4v-25c0-.97-.34-1.851-.91-2.551l-2.77-3.359c-.56-.66-1.39-1.09-2.32-1.09h-24m12 10.5c2.76 0 5 2.24 5 5v2h1c1.105 0 2 .895 2 2v10c0 1.105-.895 2-2 2h-12c-1.105 0-2-.895-2-2v-10c0-1.105.895-2 2-2h1v-2c0-2.76 2.24-5 5-5"/><g fill="#fff"><path d="m10.25 10l1.63-2h24l1.87 2h-27.5"/><text x="23.967" y="33.688" font-family="Ubuntu" letter-spacing="0" word-spacing="0" text-anchor="middle" text-align="center" font-weight="500" writing-mode="lr" line-height="120%" font-size="12.5"><tspan x="23.967" y="33.688"/></text></g><path d="m24 32.5c-1.105 0-2-.895-2-2 0-1.105.895-2 2-2 1.105 0 2 .895 2 2 0 1.105-.895 2-2 2"/><path d="m27.1 23.5h-6.2v-2c0-1.71 1.39-3.1 3.1-3.1 1.71 0 3.1 1.39 3.1 3.1v2"/></svg>