<svg xmlns="http://www.w3.org/2000/svg" fill="#795548" viewBox="0 0 48 48"><path d="m41.09 10.45l-2.77-3.36c-.56-.66-1.39-1.09-2.32-1.09h-24c-.93 0-1.76.43-2.31 1.09l-2.77 3.36c-.58.7-.92 1.58-.92 2.55v25c0 2.21 1.79 4 4 4h28c2.21 0 4-1.79 4-4v-25c0-.97-.34-1.85-.91-2.55"/><g fill="#fff"><text x="23.872" y="35.652" font-family="Roboto" letter-spacing="0" word-spacing="0" text-anchor="middle" text-align="center" line-height="100%" font-size="12.5"><tspan x="23.872" y="35.652">lzma</tspan></text><path d="m10.25 10l1.63-2h24l1.87 2h-27.5"/><text x="24.476" y="23.652" font-family="Roboto" letter-spacing="0" word-spacing="0" text-anchor="middle" text-align="center" line-height="100%" font-size="12.5"><tspan x="24.476" y="23.652">tar.</tspan></text></g></svg>