<svg xmlns="http://www.w3.org/2000/svg" xmlns:xlink="http://www.w3.org/1999/xlink" viewBox="0 0 256 256"><defs><linearGradient xlink:href="#1" id="3" gradientUnits="userSpaceOnUse" y1="140.42" x2="0" y2="60.42"/><linearGradient id="2" gradientUnits="userSpaceOnUse" x1="139.26" y1="179.42" x2="147.26" y2="100.42" xlink:href="#1"/><linearGradient id="0" gradientUnits="userSpaceOnUse" x1="164.26" y1="161.42" x2="109.26" y2="217.42" xlink:href="#1"/><linearGradient id="1" gradientUnits="userSpaceOnUse" y1="140" x2="0" y2="60"><stop offset="0%" stop-opacity=".15"/><stop offset="30%" stop-opacity=".06"/><stop offset="100%" stop-opacity=".03"/></linearGradient></defs><circle cx="128.26" cy="128.42" r="110" fill="#fff"/><g transform="translate(.263.417)" fill-opacity=".1"><path d="m198 148a70 70 0 0 0 -140 0h20a50 50 0 0 1 100 0"/><circle cx="133" cy="142" r="38"/></g><g fill-opacity="1"><circle cx="128.26" cy="128.42" r="41" fill="#3369e8"/><path d="m228.2632 78.41666a112 112 0 0 0 -193 -13l45 78A50 50 0 0 1 127.2632 78.41666" fill="#d50f25"/><path d="m35.2632 65.41666a112 112 0 0 0 84 174l47-80a50 50 0 0 1 -86 -16" fill="#009925"/><path d="m119.2632 239.41666a112 112 0 0 0 109 -161h-101a50 50 0 0 1 39 81" fill="#eeb211"/></g><path d="m35.26 65.42l45 78a50 50 0 0 1 2 -34l-45-47" fill="url(#3)"/><path d="m119.26 239.42l47-80a50 50 0 0 1 -29 17l-20 63" fill="url(#0)"/><path d="m228.26 78.42h-101a50 50 0 0 1 39 19l64-16" fill="url(#2)"/><g transform="translate(-135.73 113.14)" fill="#795548"/></svg>