<svg xmlns="http://www.w3.org/2000/svg" fill="#795548" viewBox="0 0 48 48"><defs><filter color-interpolation-filters="sRGB"><feGaussianBlur stdDeviation="1.71"/></filter><linearGradient gradientTransform="scale(1.0059.99417)" gradientUnits="userSpaceOnUse" y2="7.02" x2="0" y1="92.54"><stop/><stop offset="1" stop-opacity=".588"/></linearGradient></defs><path d="m10 6c-2.21 0-4 1.79-4 4v28c0 2.21 1.79 4 4 4h28c2.21 0 4-1.79 4-4v-28c0-2.21-1.79-4-4-4h-28m4.617 4.293c.502 0 .825.225 1.133.66.308.405.502 1.066.502 1.846 0 1.635-.78 2.408-1.635 2.408-.885 0-1.619-.99-1.619-2.445 0-1.455.757-2.469 1.619-2.469m11.25 0c.503 0 .825.225 1.133.66.308.405.502 1.066.502 1.846 0 1.635-.78 2.408-1.635 2.408-.885 0-1.619-.99-1.619-2.445 0-1.455.757-2.469 1.619-2.469m3.75 0c.503 0 .825.225 1.133.66.308.405.502 1.066.502 1.846 0 1.635-.78 2.408-1.635 2.408-.885 0-1.619-.99-1.619-2.445 0-1.455.757-2.469 1.619-2.469m3.75 0c.502 0 .825.225 1.133.66.307.405.502 1.066.502 1.846 0 1.635-.78 2.408-1.635 2.408-.885 0-1.619-.99-1.619-2.445 0-1.455.757-2.469 1.619-2.469m-15.04.098h.563v4.674h-.824v-3.721l-.803.24-.203-.51 1.268-.684m3.75 0h.563v4.674h-.824v-3.721l-.803.24-.203-.51 1.268-.684m-7.447.631c-.435 0-.824.66-.824 1.643 0 .173.022.457.037.6l1.365-1.777c-.12-.285-.331-.465-.578-.465m11.25 0c-.435 0-.824.66-.824 1.643 0 .173.022.457.037.6l1.365-1.777c-.12-.285-.331-.465-.578-.465m3.75 0c-.435 0-.824.66-.824 1.643 0 .173.022.457.037.6l1.365-1.777c-.12-.285-.331-.465-.578-.465m3.75 0c-.435 0-.824.66-.824 1.643 0 .173.022.457.037.6l1.365-1.777c-.12-.285-.331-.465-.578-.465m-17.963 1.191l-1.365 1.779c.12.285.331.465.578.465.435 0 .824-.66.824-1.643 0-.172-.022-.459-.037-.602m11.25 0l-1.365 1.779c.12.285.331.465.578.465.435 0 .824-.66.824-1.643 0-.172-.022-.459-.037-.602m3.75 0l-1.365 1.779c.12.285.331.465.578.465.435 0 .824-.66.824-1.643 0-.172-.022-.459-.037-.602m3.75 0l-1.365 1.779c.12.285.331.465.578.465.435 0 .824-.66.824-1.643 0-.172-.022-.459-.037-.602m-15.795 5.58c.502 0 .825.225 1.133.66.308.405.502 1.066.502 1.846 0 1.635-.78 2.408-1.635 2.408-.885 0-1.619-.99-1.619-2.445 0-1.455.757-2.469 1.619-2.469m3.75 0c.502 0 .825.225 1.133.66.308.405.502 1.066.502 1.846 0 1.635-.78 2.408-1.635 2.408-.885 0-1.619-.99-1.619-2.445 0-1.455.757-2.469 1.619-2.469m11.25 0c.502 0 .825.225 1.133.66.307.405.502 1.066.502 1.846 0 1.635-.78 2.408-1.635 2.408-.885 0-1.619-.99-1.619-2.445 0-1.455.757-2.469 1.619-2.469m-18.795.098h.563v4.674h-.824v-3.721l-.803.24-.203-.51 1.268-.684m11.25 0h.563v4.674h-.824v-3.721l-.803.24-.203-.51 1.268-.684m3.75 0h.563v4.674h-.824v-3.721l-.803.24-.203-.51 1.268-.684m-11.197.631c-.435 0-.824.66-.824 1.643 0 .172.022.457.037.6l1.365-1.777c-.12-.285-.331-.465-.578-.465m3.75 0c-.435 0-.824.66-.824 1.643 0 .172.022.457.037.6l1.365-1.777c-.12-.285-.331-.465-.578-.465m11.25 0c-.435 0-.824.66-.824 1.643 0 .172.022.457.037.6l1.365-1.777c-.12-.285-.331-.465-.578-.465m-14.213 1.191l-1.365 1.779c.12.285.331.465.578.465.435 0 .824-.66.824-1.643 0-.172-.022-.459-.037-.602m3.75 0l-1.365 1.779c.12.285.331.465.578.465.435 0 .824-.66.824-1.643 0-.172-.022-.459-.037-.602m11.25 0l-1.365 1.779c.12.285.331.465.578.465.435 0 .824-.66.824-1.643 0-.172-.022-.459-.037-.602m-15.795 5.58c.502 0 .825.225 1.133.66.308.405.502 1.066.502 1.846 0 1.635-.78 2.408-1.635 2.408-.885 0-1.619-.99-1.619-2.445 0-1.455.757-2.469 1.619-2.469m3.75 0c.502 0 .825.225 1.133.66.308.405.502 1.066.502 1.846 0 1.635-.78 2.408-1.635 2.408-.885 0-1.619-.99-1.619-2.445 0-1.455.757-2.469 1.619-2.469m7.5 0c.503 0 .825.225 1.133.66.308.405.502 1.066.502 1.846 0 1.635-.78 2.408-1.635 2.408-.885 0-1.619-.99-1.619-2.445 0-1.455.757-2.469 1.619-2.469m-15.04.098h.563v4.674h-.824v-3.721l-.803.24-.203-.51 1.268-.684m11.25 0h.563v4.674h-.824v-3.721l-.803.24-.203-.51 1.268-.684m7.5 0h.563v4.674h-.824v-3.721l-.803.24-.203-.51 1.268-.684m-14.947.631c-.435 0-.824.66-.824 1.643 0 .172.022.457.037.6l1.365-1.777c-.12-.285-.331-.465-.578-.465m3.75 0c-.435 0-.824.66-.824 1.643 0 .172.022.457.037.6l1.365-1.777c-.12-.285-.331-.465-.578-.465m7.5 0c-.435 0-.824.66-.824 1.643 0 .172.022.457.037.6l1.365-1.777c-.12-.285-.331-.465-.578-.465m-10.463 1.191l-1.365 1.779c.12.285.331.465.578.465.435 0 .824-.66.824-1.643 0-.172-.022-.459-.037-.602m3.75 0l-1.365 1.779c.12.285.331.465.578.465.435 0 .824-.66.824-1.643 0-.172-.022-.459-.037-.602m7.5 0l-1.365 1.779c.12.285.331.465.578.465.435 0 .824-.66.824-1.643 0-.172-.022-.459-.037-.602m-12.04 5.58c.502 0 .825.225 1.133.66.308.405.502 1.066.502 1.846 0 1.635-.78 2.408-1.635 2.408-.885 0-1.619-.99-1.619-2.445 0-1.455.757-2.469 1.619-2.469m15 0c.502 0 .825.225 1.133.66.307.405.502 1.066.502 1.846 0 1.635-.78 2.408-1.635 2.408-.885 0-1.619-.99-1.619-2.445 0-1.455.757-2.469 1.619-2.469m-18.795.098h.563v4.674h-.824v-3.721l-.803.24-.203-.51 1.268-.684m7.5 0h.563v4.674h-.824v-3.721l-.803.24-.203-.51 1.268-.684m3.75 0h.563v4.674h-.824v-3.721l-.803.24-.203-.51 1.268-.684m3.75 0h.563v4.674h-.824v-3.721l-.803.24-.203-.51 1.268-.684m-11.197.631c-.435 0-.824.66-.824 1.643 0 .172.022.457.037.6l1.365-1.777c-.12-.285-.331-.465-.578-.465m15 0c-.435 0-.824.66-.824 1.643 0 .172.022.457.037.6l1.365-1.777c-.12-.285-.331-.465-.578-.465m-14.213 1.191l-1.365 1.779c.12.285.331.465.578.465.435 0 .824-.66.824-1.643 0-.172-.022-.459-.037-.602m15 0l-1.365 1.779c.12.285.331.465.578.465.435 0 .824-.66.824-1.643 0-.172-.022-.459-.037-.602"/></svg>