<?xml version="1.0" encoding="UTF-8" standalone="no"?>
<!-- Created with Inkscape (http://www.inkscape.org/) -->

<svg
   xmlns:dc="http://purl.org/dc/elements/1.1/"
   xmlns:cc="http://creativecommons.org/ns#"
   xmlns:rdf="http://www.w3.org/1999/02/22-rdf-syntax-ns#"
   xmlns:svg="http://www.w3.org/2000/svg"
   xmlns="http://www.w3.org/2000/svg"
   xmlns:sodipodi="http://sodipodi.sourceforge.net/DTD/sodipodi-0.dtd"
   xmlns:inkscape="http://www.inkscape.org/namespaces/inkscape"
   id="svg2"
   version="1.1"
   inkscape:version="0.91 r13725"
   width="36"
   height="21.20356178283691"
   viewBox="0 0 36 21.20356178283691"
   sodipodi:docname="emblem-dash.svg">
  <metadata
     id="metadata8">
    <rdf:RDF>
      <cc:Work
         rdf:about="">
        <dc:format>image/svg+xml</dc:format>
        <dc:type
           rdf:resource="http://purl.org/dc/dcmitype/StillImage" />
        <dc:title></dc:title>
      </cc:Work>
    </rdf:RDF>
  </metadata>
  <defs
     id="defs6" />
  <sodipodi:namedview
     pagecolor="#ffffff"
     bordercolor="#666666"
     borderopacity="1"
     objecttolerance="10"
     gridtolerance="10"
     guidetolerance="10"
     inkscape:pageopacity="0"
     inkscape:pageshadow="2"
     inkscape:window-width="1366"
     inkscape:window-height="713"
     id="namedview4"
     showgrid="false"
     inkscape:zoom="13.42334773810358"
     inkscape:cx="24.32797468954668"
     inkscape:cy="6.37962912247571"
     inkscape:window-x="0"
     inkscape:window-y="30"
     inkscape:window-maximized="1"
     inkscape:current-layer="svg2"
     fit-margin-top="0"
     fit-margin-left="0"
     fit-margin-right="0"
     fit-margin-bottom="0" />
  <path
     style="fill:#1c75bc;fill-opacity:1"
     d="m 0.8632431395444442,21.19385642975705 c 0,-0.0076503922 0.3041512913636948,-0.94543036415392 0.6758917585858908,-2.08395549315696 0.371740467222309,-1.13852512900303 0.757059538823198,-2.31915831791799 0.856264603557492,-2.62362930869904 l 0.180372844971598,-0.55358361960202 11.024032714594595,0 11.0240327145944,0 0.13567075221101,-0.40956186490804 c 0.31459838446921,-0.94970727987196 3.35985168716622,-10.229307826898097 3.35985168716622,-10.238255558755096 0,-0.005385833 -4.95794890531211,-0.0097924236 -11.01766423402701,-0.0097924236 -6.05971532871491,0 -11.017664234026986,-0.0049861011 -11.017664234026986,-0.0110802245899 0,-0.0060941235 0.3558495204924,-1.101784629154049 0.790776712205392,-2.434867790281932 0.434927191712888,-1.33308316112698 0.820161542243508,-2.5149896462939991 0.85607633451229,-2.626458855924969 L 7.796184416196337,1.77635683940025e-15 20.24861835129903,0.004958889900001 c 12.00905782940991,0.0047823258000009 12.45948490457291,0.0061419411999993 12.65046384780592,0.03818546125990001 0.6011129569882,0.1008581091650704 1.05124078412871,0.27528872529000909 1.52325559667159,0.59028212926000023 0.72244533494569,0.4821151989090198 1.2118292613974,1.1899460783909108 1.43729599676688,2.0788637192160899 0.21059233700002,0.830274333263101 0.18407371335829,1.710455585601022 -0.078569189681,2.607794759737072 -0.11637688866341,0.397610367359899 -3.46888592130281,10.601122218839005 -3.5431147393117,10.783628882651107 -0.39334327085419,0.96711452535601 -1.02438297550441,1.8742561926249 -1.89750541481871,2.72773046286512 -0.90963251673469,0.8891627490591 -1.85208751007162,1.51026521283507 -2.95919572630939,1.95018729743105 -0.47536521376719,0.18889179279698 -0.91138288469449,0.30810356234997 -1.40504210712932,0.38415313657309 -0.19529519211949,0.0300857667301 -0.86486639933119,0.0320360332 -12.6595823746249,0.0368736869 -6.849359605618497,0.0028092944 -12.4533811011244939,-0.0011516038 -12.4533811011244939,-0.008801996 z M 1.060834433630475e-7,13.07475631360697 C 4.882281672351497e-4,13.06733019190697 0.3840515052444377,11.95138662699995 0.8523629440326292,10.59488172498392 l 0.8514753432513078,-2.466372549120015 6.546754809411995,-0.0045251728 c 3.600715145176698,-0.002488845 6.546754809412099,0.0016627689 6.546754809412099,0.0092258088 0,0.0179795592301 -1.6876627262996,4.915049861717077 -1.70166927495759,4.937712933510968 -0.012793776322,0.0207007649301 -13.097038974999691163,0.02453098623 -13.0956785250669973663661,0.0038335682 z"
     id="path4144"
     inkscape:connector-curvature="0" />
</svg>
