<svg height="45.373199mm" viewBox="0 0 129.367582 160.771179" width="36.510406mm" xmlns="http://www.w3.org/2000/svg"><g fill="#d8d8d8" fill-rule="evenodd" stroke="#848484" transform="matrix(.17893165 0 0 .17893165 .089466 .15398)"><path d="m0 0v485l361 205.78502v-139.88225l-241.50391-137.66728v-216.23549l241.50391 137.66728v-128.88226zm0 0" fill="#002a41"/><path d="m722 0v485l-361 205.78502v-139.88225l241.50391-137.66728v-216.23549l-241.50391 137.66728v-128.88226zm0 0" fill="#0071b5"/><path d="m0 896.78502v-485l361-205.78502v139.88225l-241.50391 137.66728v205.23549l241.50391-137.66727v139.88225zm0 0" fill="#0071b5"/><path d="m722 896.78502v-485l-361-205.78502v139.88225l241.50391 137.66728v205.23549l-241.50391-137.66727v139.88225zm0 0" fill="#002a41"/></g></svg>