<svg xmlns="http://www.w3.org/2000/svg" width="512" height="512" viewBox="0 0 1 1"><defs><linearGradient id="0" y1="0%" x2="0" y2="100%"><stop offset="0%" stop-color="#f9aa4b"/><stop offset="100%" stop-color="#f7931a"/></linearGradient></defs><g transform="scale(.01563)"><path d="m63.04 39.741c-4.274 17.14-21.637 27.576-38.782 23.301-17.14-4.274-27.571-21.638-23.295-38.78 4.272-17.14 21.635-27.579 38.775-23.305 17.14 4.274 27.576 21.64 23.302 38.784" fill="url(#0)"/><path d="m46.1 27.441c.637-4.258-2.605-6.547-7.04-8.07l1.438-5.768-3.511-.875-1.4 5.616c-.923-.23-1.871-.447-2.813-.662l1.41-5.653-3.509-.875-1.439 5.766c-.764-.174-1.514-.346-2.242-.527l.004-.018-4.842-1.209-.934 3.75c0 0 2.605.597 2.55.634 1.422.355 1.679 1.296 1.636 2.042l-1.638 6.571c.098.025.225.061.365.117-.117-.029-.242-.061-.371-.092l-2.296 9.205c-.174.432-.615 1.08-1.609.834.035.051-2.552-.637-2.552-.637l-1.743 4.02 4.569 1.139c.85.213 1.683.436 2.503.646l-1.453 5.834 3.507.875 1.439-5.772c.958.26 1.888.5 2.798.726l-1.434 5.745 3.511.875 1.453-5.823c5.987 1.133 10.489.676 12.384-4.739 1.527-4.36-.076-6.875-3.226-8.515 2.294-.529 4.02-2.038 4.483-5.155m-8.02 11.249c-1.085 4.36-8.426 2-10.806 1.412l1.928-7.729c2.38.594 10.01 1.77 8.878 6.317m1.086-11.312c-.99 3.966-7.1 1.951-9.08 1.457l1.748-7.01c1.982.494 8.365 1.416 7.334 5.553" fill="#fff"/></g></svg>