<?xml version="1.0" encoding="UTF-8" standalone="no"?>
<!-- Created with Inkscape (http://www.inkscape.org/) -->

<svg
   xmlns:dc="http://purl.org/dc/elements/1.1/"
   xmlns:cc="http://creativecommons.org/ns#"
   xmlns:rdf="http://www.w3.org/1999/02/22-rdf-syntax-ns#"
   xmlns:svg="http://www.w3.org/2000/svg"
   xmlns="http://www.w3.org/2000/svg"
   xmlns:sodipodi="http://sodipodi.sourceforge.net/DTD/sodipodi-0.dtd"
   xmlns:inkscape="http://www.inkscape.org/namespaces/inkscape"
   id="svg2"
   version="1.1"
   inkscape:version="0.91 r13725"
   xml:space="preserve"
   width="150.9700012207031"
   height="147.2422332763672"
   viewBox="0 0 150.9700012207031 147.2422332763672"
   sodipodi:docname="github.svg"><metadata
     id="metadata8"><rdf:RDF><cc:Work
         rdf:about=""><dc:format>image/svg+xml</dc:format><dc:type
           rdf:resource="http://purl.org/dc/dcmitype/StillImage" /><dc:title></dc:title></cc:Work></rdf:RDF></metadata><defs
     id="defs6" /><sodipodi:namedview
     pagecolor="#ffffff"
     bordercolor="#666666"
     borderopacity="1"
     objecttolerance="10"
     gridtolerance="10"
     guidetolerance="10"
     inkscape:pageopacity="0"
     inkscape:pageshadow="2"
     inkscape:window-width="1366"
     inkscape:window-height="713"
     id="namedview4"
     showgrid="false"
     inkscape:zoom="2.000000007386403"
     inkscape:cx="80.59459347333238"
     inkscape:cy="53.8250828806548"
     inkscape:window-x="0"
     inkscape:window-y="31"
     inkscape:window-maximized="1"
     inkscape:current-layer="g10"
     inkscape:snap-bbox="true"
     inkscape:bbox-nodes="true"
     inkscape:snap-page="true"
     inkscape:snap-intersection-paths="true"
     inkscape:object-nodes="true"
     inkscape:snap-smooth-nodes="true"
     inkscape:snap-midpoints="true"
     inkscape:object-paths="false"
     inkscape:bbox-paths="false"
     inkscape:snap-nodes="false"
     fit-margin-top="0"
     fit-margin-left="0"
     fit-margin-right="0"
     fit-margin-bottom="0" /><g
     id="g10"
     inkscape:groupmode="layer"
     inkscape:label="GitHub-Mark"
     transform="matrix(1.25,0,0,-1.25,-286.9700005031517,309.5155340751907)"><path
       id="path56"
       style="fill:#1b1817;fill-opacity:1;fill-rule:nonzero;stroke:none"
       d="m 274.5783004025212,149.8126272601524 c 0.086,-0.485 -0.413,-0.984 -1.1259999999999,-1.117 -0.7010000000001,-0.129 -1.3500000000001,0.172 -1.4390000000001,0.653 -0.087,0.498 0.42,0.997 1.121,1.126 0.714,0.124 1.353,-0.168 1.444,-0.662 m -4.5985999999998,-0.7823 c 0.017,-0.498 -0.563,-0.911 -1.281,-0.92 -0.722,-0.016 -1.307,0.387 -1.315,0.877 0,0.503 0.568,0.911 1.289,0.924 0.718,0.014 1.307,-0.387 1.307,-0.881 m -4.9424000000001,0.3614 c -0.147,-0.473 -0.825,-0.687 -1.509,-0.486 -0.683,0.207 -1.1300000000001,0.76 -0.992,1.238 0.142,0.476 0.824,0.7 1.5129999999999,0.485 0.682,-0.206 1.13,-0.756 0.988,-1.237 m -4.4999999999999,1.9510999999999 c -0.331,-0.365 -1.036,-0.267 -1.552,0.232 -0.5280000000001,0.486 -0.675,1.177 -0.344,1.542 0.336,0.366 1.045,0.263 1.565,-0.231 0.524,-0.486 0.683,-1.182 0.331,-1.543 m -3.2617,3.3604000000001 c -0.37,-0.258 -0.976,-0.017 -1.35,0.52 -0.37,0.538 -0.37,1.182 0.009,1.44 0.374,0.258 0.971,0.025 1.35,-0.507 0.3690000000001,-0.546 0.3690000000001,-1.19 -0.009,-1.453 m -2.3808999999999,3.4775 c -0.288,-0.267 -0.852,-0.143 -1.233,0.279 -0.396,0.421 -0.469,0.985 -0.177,1.255 0.297,0.267 0.843,0.142 1.238,-0.279 0.396,-0.426 0.473,-0.984 0.172,-1.255 m -2.4463,2.7285 c -0.133,-0.301 -0.605,-0.391 -1.035,-0.185 -0.439,0.198 -0.684,0.607 -0.542,0.908 0.13,0.308 0.602,0.394 1.04,0.188 0.438,-0.197 0.688,-0.61 0.537,-0.911 m 37.5155999999999,86.7032 c -33.347,0 -60.388,-27.035 -60.388,-60.388 0,-26.68 17.303,-49.316 41.297,-57.301 3.018,-0.559 4.1260000000001,1.31 4.1260000000001,2.905 0,1.439 -0.056,6.197 -0.082,11.243 -16.8,-3.653 -20.345,7.125 -20.345,7.125 -2.747,6.979 -6.705,8.836 -6.705,8.836 -5.479,3.748 0.413,3.671 0.413,3.671 6.064,-0.426 9.257,-6.224 9.257,-6.224 5.386,-9.231 14.127,-6.562 17.573,-5.019 0.543,3.902 2.107,6.567 3.834,8.075 -13.413,1.526 -27.513,6.705 -27.513,29.844 0,6.592 2.359,11.98 6.222,16.209 -0.627,1.521 -2.694,7.663 0.586,15.981 0,0 5.071,1.622 16.61,-6.191 4.817,1.338 9.9829999999999,2.009 15.115,2.033 5.132,-0.024 10.3020000000001,-0.695 15.128,-2.033 11.526,7.813 16.59,6.191 16.59,6.191 3.287,-8.318 1.22,-14.46 0.593,-15.981 3.872,-4.229 6.2140000000001,-9.617 6.2140000000001,-16.209 0,-23.195 -14.127,-28.301 -27.574,-29.796 2.1659999999999,-1.874 4.096,-5.549 4.096,-11.183 0,-8.08 -0.069,-14.583 -0.069,-16.572 0,-1.608 1.086,-3.49 4.147,-2.898 23.9820000000001,7.994 41.263,30.622 41.263,57.294 0,33.353 -27.037,60.388 -60.388,60.388" /></g></svg>