<?xml version="1.0" encoding="UTF-8" standalone="no"?>
<svg
   xmlns:dc="http://purl.org/dc/elements/1.1/"
   xmlns:cc="http://creativecommons.org/ns#"
   xmlns:rdf="http://www.w3.org/1999/02/22-rdf-syntax-ns#"
   xmlns:svg="http://www.w3.org/2000/svg"
   xmlns="http://www.w3.org/2000/svg"
   xmlns:sodipodi="http://sodipodi.sourceforge.net/DTD/sodipodi-0.dtd"
   xmlns:inkscape="http://www.inkscape.org/namespaces/inkscape"
   viewBox="0 0 48.00000085013526 47.99999837480359"
   id="svg2"
   version="1.1"
   inkscape:version="0.91 r13725"
   sodipodi:docname="emblem-xml-alt.svg"
   width="48"
   height="48">
  <metadata
     id="metadata20">
    <rdf:RDF>
      <cc:Work
         rdf:about="">
        <dc:format>image/svg+xml</dc:format>
        <dc:type
           rdf:resource="http://purl.org/dc/dcmitype/StillImage" />
        <dc:title></dc:title>
      </cc:Work>
    </rdf:RDF>
  </metadata>
  <defs
     id="defs18" />
  <sodipodi:namedview
     pagecolor="#ffffff"
     bordercolor="#666666"
     borderopacity="1"
     objecttolerance="10"
     gridtolerance="10"
     guidetolerance="10"
     inkscape:pageopacity="0"
     inkscape:pageshadow="2"
     inkscape:window-width="1366"
     inkscape:window-height="713"
     id="namedview16"
     showgrid="false"
     inkscape:zoom="1.275107646823805"
     inkscape:cx="104.435577543535"
     inkscape:cy="-58.1808788748985"
     inkscape:window-x="0"
     inkscape:window-y="31"
     inkscape:window-maximized="1"
     inkscape:current-layer="svg2" />
  <g
     transform="matrix(0.1989802263400075,0,0,0.1989802263400077,-18.22658873274469,-30.23444845168518)"
     id="g4">
    <path
       d="m 126.93,296.67 -35.33000000000001,-15.363 0,-8.508 L 126.93,257.506 l 0,10.02 -24.645,9.422 24.645,9.7730000000001 0,9.949"
       transform="translate(0,2.94)"
       id="path6"
       inkscape:connector-curvature="0"
       style="fill:#0000ff" />
    <path
       d="m 225.55,312.54 13.465,-19.23 -12.902,-18.11 12.06,0 6.609,10.266 L 251.7430000000001,275.2 263.345,275.2 l -12.656,17.684 13.816,19.652 -12.13,0 -7.594,-11.566 -7.664,11.566 -11.566,0 m 44.09,-37.34 9.105,0 0,5.098 c 3.258,-3.961 7.137,-5.9409999999999 11.637,-5.9409999999999 2.3910000000001,0 4.465,0.492 6.2230000000002,1.4769999999999 1.758,0.984 3.199,2.4730000000002 4.324,4.465 1.6410000000001,-1.992 3.4100000000001,-3.48 5.3090000000001,-4.465 1.898,-0.9839999999999 3.926,-1.4769999999999 6.082,-1.4769999999999 2.742,0 5.062,0.557 6.961,1.67 1.8980000000001,1.113 3.3159999999999,2.748 4.254,4.904 0.6800000000002,1.594 1.0190000000002,4.1720000000001 1.02,7.734 l 0,23.8709999999999 -9.879,0 0,-21.3399999999999 c 0,-3.7029999999999 -0.34,-6.094 -1.02,-7.1720000000001 -0.914,-1.406 -2.3200000000001,-2.1089999999999 -4.2190000000001,-2.1089999999999 -1.383,0 -2.684,0.422 -3.902,1.266 -1.219,0.844 -2.098,2.08 -2.6369999999999,3.709 -0.5389999999998,1.6290000000001 -0.809,4.2010000000001 -0.809,7.717 l 0,17.9299999999999 -9.879,0 0,-20.461 c 0,-3.633 -0.176,-5.977 -0.527,-7.03 -0.352,-1.0549999999999 -0.897,-1.8399999999999 -1.635,-2.355 -0.738,-0.516 -1.74,-0.773 -3.01,-0.773 -1.523,0 -2.8949999999999,0.41 -4.1130000000001,1.23 -1.219,0.82 -2.0919999999999,2 -2.619,3.551 -0.527,1.547 -0.791,4.113 -0.791,7.699 l 0,18.14 -9.8790000000001,0 0,-37.34 m 64.7230000000002,37.34 0,-51.54 9.879,0 0,51.54 -9.879,0"
       transform="translate(-90.56999999999999,-14.08)"
       id="path8"
       inkscape:connector-curvature="0"
       style="fill:#d40000" />
    <g
       id="g10"
       style="fill:#0000ff">
      <path
         d="m 367.77,289.1 12.762,-53.3 7.418,0 -12.902,53.3 -7.277,0"
         transform="translate(-93.70999999999999,9.714)"
         id="path12"
         inkscape:connector-curvature="0" />
      <path
         d="m 297.46,299.6 0,-9.949 24.68,-9.703 -24.68,-9.598 0,-9.879 35.37,15.293 0,8.438 -35.37,15.398"
         id="path14"
         inkscape:connector-curvature="0" />
    </g>
  </g>
</svg>
