<?xml version="1.0" encoding="UTF-8" standalone="no"?>
<svg
   xmlns:dc="http://purl.org/dc/elements/1.1/"
   xmlns:cc="http://creativecommons.org/ns#"
   xmlns:rdf="http://www.w3.org/1999/02/22-rdf-syntax-ns#"
   xmlns:svg="http://www.w3.org/2000/svg"
   xmlns="http://www.w3.org/2000/svg"
   xmlns:xlink="http://www.w3.org/1999/xlink"
   xmlns:sodipodi="http://sodipodi.sourceforge.net/DTD/sodipodi-0.dtd"
   xmlns:inkscape="http://www.inkscape.org/namespaces/inkscape"
   height="48"
   viewBox="0 0 48 48.30188679245283"
   id="svg2"
   version="1.1"
   inkscape:version="0.91 r13725"
   sodipodi:docname="emblem-php.svg"
   width="48">
  <metadata
     id="metadata22">
    <rdf:RDF>
      <cc:Work
         rdf:about="">
        <dc:format>image/svg+xml</dc:format>
        <dc:type
           rdf:resource="http://purl.org/dc/dcmitype/StillImage" />
        <dc:title></dc:title>
      </cc:Work>
    </rdf:RDF>
  </metadata>
  <sodipodi:namedview
     pagecolor="#ffffff"
     bordercolor="#666666"
     borderopacity="1"
     objecttolerance="10"
     gridtolerance="10"
     guidetolerance="10"
     inkscape:pageopacity="0"
     inkscape:pageshadow="2"
     inkscape:window-width="664"
     inkscape:window-height="480"
     id="namedview20"
     showgrid="false"
     inkscape:zoom="1.286666666666666"
     inkscape:cx="150"
     inkscape:cy="79.49999999999999"
     inkscape:window-x="0"
     inkscape:window-y="31"
     inkscape:window-maximized="0"
     inkscape:current-layer="svg2" />
  <defs
     id="defs4">
    <radialGradient
       cx="77.91400146484375"
       cy="-48.54499816894531"
       r="146"
       id="1"
       gradientUnits="userSpaceOnUse"
       gradientTransform="matrix(1.50895,0,0,1.35822,-39.03,76.95799999999998)">
      <stop
         stop-color="#dddce9"
         id="stop7" />
      <stop
         offset=".37"
         stop-color="#5664a3"
         id="stop9" />
      <stop
         offset="1"
         id="stop11" />
    </radialGradient>
  </defs>
  <g
     id="g4150"
     transform="matrix(0.1352994060260571,0,0,0.1352994060260572,3.705088616255331,13.32699149356664)">
    <ellipse
       id="ellipse13"
       ry="76"
       rx="146"
       cy="80"
       cx="150"
       style="fill:#6c7eb7;stroke:url(#1);stroke-width:5.5" />
    <path
       id="0"
       d="m 45,125 16,-81 37,0 c 16,1 24,9 24,23 0,24 -19,38 -36,37 l -18,0 -4,21 -19,0 z m 27,-36 5,-30 13,0 c 7,0 12,3 12,9 -1,17 -9,20 -18,21 l -12,0 z"
       inkscape:connector-curvature="0"
       style="fill-rule:evenodd;stroke:#ffffff;stroke-width:2;stroke-linejoin:round" />
    <path
       id="path16"
       d="m 116,104 16,-81 19,0 -4,21 18,0 c 16,1 22,9 20,19 l -7,41 -20,0 7,-37 c 1,-5 1,-8 -6,-8 l -15,0 -9,45 -19,0 z"
       inkscape:connector-curvature="0"
       style="stroke:#ffffff;stroke-width:2;stroke-linejoin:round" />
    <use
       id="use18"
       xlink:href="#0"
       transform="translate(134,0)"
       x="0"
       y="0"
       width="100%"
       height="100%" />
  </g>
</svg>
