<?xml version="1.0" encoding="UTF-8" standalone="no"?>
<svg
   xmlns:dc="http://purl.org/dc/elements/1.1/"
   xmlns:cc="http://creativecommons.org/ns#"
   xmlns:rdf="http://www.w3.org/1999/02/22-rdf-syntax-ns#"
   xmlns:svg="http://www.w3.org/2000/svg"
   xmlns="http://www.w3.org/2000/svg"
   xmlns:sodipodi="http://sodipodi.sourceforge.net/DTD/sodipodi-0.dtd"
   xmlns:inkscape="http://www.inkscape.org/namespaces/inkscape"
   width="48"
   height="48"
   viewBox="0 0 48 48"
   id="svg2"
   version="1.1"
   inkscape:version="0.91 r13725"
   sodipodi:docname="text-x-python1.svg"
   style="fill:#4caf50">
  <metadata
     id="metadata10">
    <rdf:RDF>
      <cc:Work
         rdf:about="">
        <dc:format>image/svg+xml</dc:format>
        <dc:type
           rdf:resource="http://purl.org/dc/dcmitype/StillImage" />
        <dc:title />
      </cc:Work>
    </rdf:RDF>
  </metadata>
  <defs
     id="defs8" />
  <sodipodi:namedview
     pagecolor="#ffffff"
     bordercolor="#666666"
     borderopacity="1"
     objecttolerance="10"
     gridtolerance="10"
     guidetolerance="10"
     inkscape:pageopacity="0"
     inkscape:pageshadow="2"
     inkscape:window-width="1366"
     inkscape:window-height="713"
     id="namedview6"
     showgrid="false"
     fit-margin-top="0"
     fit-margin-left="0"
     fit-margin-right="0"
     fit-margin-bottom="0"
     inkscape:zoom="2.445015033231081"
     inkscape:cx="-121.1457008724083"
     inkscape:cy="-7.483304197296"
     inkscape:window-x="0"
     inkscape:window-y="30"
     inkscape:window-maximized="1"
     inkscape:current-layer="svg2"
     inkscape:snap-bbox="true"
     inkscape:bbox-nodes="true"
     inkscape:bbox-paths="true"
     inkscape:snap-bbox-edge-midpoints="false"
     inkscape:object-paths="true"
     inkscape:snap-intersection-paths="true"
     inkscape:object-nodes="true"
     inkscape:snap-midpoints="true"
     inkscape:snap-smooth-nodes="true"
     inkscape:snap-nodes="false" />
  <path
     style="fill:#3776ab;fill-opacity:1;opacity:1"
     d="M 12 4 C 9.789999999999999 4 8.019531249999998 5.790000000000001 8.01953125 8 L 8 40 C 8 42.21 9.770468750000001 44 11.98046875 44 L 36 44 C 38.21 44 40 42.21 40 40 L 40 16 L 28 4 L 12 4 z M 26 7 L 37 18 L 26 18 L 26 7 z M 16 24 L 32 24 L 32 28 L 16 28 L 16 24 z M 16 32 L 32 32 L 32 36 L 16 36 L 16 32 z "
     id="path4199" />
  <path
     style="fill:#ffd343;fill-opacity:1"
     d="M 32.42578125 8.42578125 L 32.42578125 12.283203125 L 32.42578125 13.42578125 L 37 18 L 32.42578125 18 L 32.42578125 19.861328125 C 32.42578258459326 22.08346448353363 30.65993704865582 23.904296875 28.447265625 23.904296875 L 20.498046875 23.904296875 C 20.1816155262702 23.904296875 19.87207959332253 23.93949184663339 19.5703125 24 L 32 24 L 32 28 L 16 28 L 16 26.828125 C 15.70283931984336 27.45466776406275 15.525390625 28.13781000241568 15.525390625 28.849609375 L 15.525390625 32.486328125 L 15.525390625 44 L 36 44 C 38.21 44 40 42.21 40 40 L 40 16 L 32.42578125 8.42578125 z M 8.009765625 24.625 L 8.009765625 26.119140625 L 8.125 26.119140625 C 8.060664093948098 25.6053097062377 8.018487487470662 25.1101855376603 8.009765625 24.625 z M 16 32 L 32 32 L 32 36 L 16 36 L 16 32 z "
     id="path4232-5" />
  <path
     id="path4234"
     d="m -24.92024939355558,8.69020812638713 c -1.31952849523898,0.0060838962696 -2.57952024047278,0.119762145290224 -3.68829739114852,0.315960033308961 -3.26631588644107,0.57705238338816 -3.86102231291303,1.785262404691508 -3.86102321902522,4.012682973567838 l 0,2.94052828954311 7.71993895049377,0 0,0.98158100192245 -7.71993895049377,0 -2.89629370365742,0 c -2.24327144866146,0 -4.20713944336283,1.34868589172256 -4.82153918317029,3.91368244790913 -0.7087016853216,2.94007911677598 -0.74013678901285,4.77430005863962 0,7.84421599403908 0.54867385507167,2.28512826666258 1.85788082612236,3.91368244790917 4.10115188645002,3.91368374235517 l 2.65405832534358,0 0,-3.52610718883082 c 0,-2.54768592963054 2.20602065791485,-4.79626162972689 4.82364589405933,-4.79626162972689 l 7.70940720827276,0 c 2.14610994245604,0 3.85891832036059,-1.76681913787251 3.85891702591453,-3.92210929146555 l 0,-7.34921336574568 c 0,-2.09181310991881 -1.76424448474903,-3.663568294481534 -3.85891702591453,-4.012682973567826 -1.32595800859453,-0.220722462215333 -2.70158002743928,-0.322091824081115 -4.02110981712423,-0.315960033308965 z m -4.1748744703315,2.36758836114401 c 0.39864147805893,0 0.76127405687786,0.16467424422006 1.02370745302841,0.43181165718843 0.26243469059653,0.26713741296836 0.42549217174413,0.6358435324888 0.42549217174413,1.04266590936133 0,0.40537906956602 -0.16305748114754,0.77320367135037 -0.42549217174413,1.03845378202914 -0.26243339615057,0.26524752178673 -0.62506338607749,0.4275969409642 -1.02370745302841,0.4275969409642 -0.40007442979732,0 -0.76163132397797,-0.16234941917747 -1.02370874747443,-0.4275969409642 -0.26207768238567,-0.26525011067877 -0.4254917834103,-0.63307341801711 -0.4254917834103,-1.03845378202914 0,-0.40682108242651 0.1634142304692,-0.77552849639296 0.4254917834103,-1.04266590936133 0.26207742349647,-0.26713741296837 0.62363431767711,-0.43181165718843 1.02370874747443,-0.43181165718843 z"
     style="opacity:1;fill:#3776ab;fill-opacity:1;stroke:none"
     inkscape:connector-curvature="0" />
  <path
     id="path4236"
     d="m -16.07760000492724,16.94096042472948 0,3.4271040742801 c 0,2.65732550708494 -2.25249269373722,4.89315738616551 -4.8215395715041,4.89315738616551 l -7.70940720827277,0 c -2.11181851418844,0 -3.86102270124683,1.80931968387676 -3.86102321902521,3.92421406068563 l 0,7.3492133657457 c 0,2.09181310991884 1.82064738095234,3.32197693563333 3.86102321902521,3.92210929146559 2.44330956967237,0.71842918823369 4.78601091173566,0.84826600685715 7.70940720827277,0 1.94321588520267,-0.56262578255312 3.85891832036059,-1.6946913114813 3.85891702591453,-3.92210929146559 l 0,-2.94263305876321 -7.70940850271874,0 0,-0.97947364381033 7.70940850271874,0 3.85891573146856,0 c 2.2432710603277,0 3.07877253503281,-1.56508231535639 3.858917025914605,-3.91368374235516 0.805862544304013,-2.41784781656103 0.771573963817723,-4.74256283124851 0,-7.84421599403909 -0.554389222560879,-2.23319120921034 -1.612791712124265,-3.91368244790914 -3.858917025914605,-3.91368244790914 l -2.896293185879,0 z m -4.33706855598719,18.61210917940048 c 0.80014885959466,0 1.44920091921856,0.65739994197346 1.44920091921856,1.46815808110548 -1.29444603e-6,0.81364087040701 -0.6490520596239,1.47447756654975 -1.44920091921856,1.47447756654975 -0.79728942834792,0 -1.44709226666044,-0.66083669614274 -1.44709356110647,-1.47447756654975 1.29444605e-6,-0.81075813913202 0.6498028383125,-1.46815808110548 1.44709356110647,-1.46815808110548 z"
     style="opacity:1;fill:#ffd343;fill-opacity:1;stroke:none"
     inkscape:connector-curvature="0" />
  <path
     id="path4238"
     d="m -37.35599772304755,47.07766551735426 c -1.31952849523898,0.00608389627 -2.57952024047278,0.11976214529021 -3.68829739114853,0.31596003330894 -3.26631588644107,0.57705238338816 -3.86102231291303,1.78526240469153 -3.86102321902521,4.01268297356787 l 0,2.94052828954311 7.71993895049376,0 0,0.98158100192245 -7.71993895049376,0 -2.89629370365742,0 c -2.24327144866146,0 -4.20713944336284,1.34868589172255 -4.8215391831703,3.91368244790911 -0.7087016853216,2.94007911677599 -0.74013678901284,4.7743000586396 0,7.84421599403908 C -52.07447736497734,69.37144452430739 -50.76527039392665,70.99999870555399 -48.52199933359899,71 l 2.65405832534358,0 0,-3.52610718883083 c 0,-2.54768592963053 2.20602065791485,-4.79626162972686 4.82364589405933,-4.79626162972686 l 7.70940720827277,0 c 2.14610994245604,0 3.8589183203606,-1.76681913787251 3.85891702591453,-3.92210929146556 l 0,-7.34921336574567 c 0,-2.09181310991881 -1.76424448474902,-3.66356829448154 -3.85891702591453,-4.01268297356784 -1.32595800859453,-0.22072246221532 -2.70158002743928,-0.32209182408111 -4.02110981712423,-0.31596003330896 z m -4.17487447033151,2.36758836114399 c 0.39864147805893,0 0.76127405687786,0.16467424422007 1.02370745302841,0.43181165718843 0.26243469059652,0.26713741296836 0.42549217174412,0.6358435324888 0.42549217174412,1.04266590936133 0,0.40537906956604 -0.16305748114754,0.77320367135038 -0.42549217174412,1.03845378202914 -0.26243339615057,0.26524752178673 -0.6250633860775,0.42759694096421 -1.02370745302841,0.42759694096421 -0.40007442979732,0 -0.76163132397797,-0.16234941917748 -1.02370874747443,-0.42759694096421 -0.26207768238567,-0.26525011067876 -0.4254917834103,-0.6330734180171 -0.4254917834103,-1.03845378202914 0,-0.40682108242651 0.1634142304692,-0.77552849639295 0.4254917834103,-1.04266590936133 0.26207742349646,-0.26713741296837 0.62363431767711,-0.43181165718843 1.02370874747443,-0.43181165718843 z"
     style="opacity:1;fill:#3776ab;fill-opacity:1;stroke:none"
     inkscape:connector-curvature="0" />
  <path
     id="path4240"
     d="m -29.47597088000877,54.35768581346012 0,3.42710407428012 c 0,2.65732550708493 -2.25249269373723,4.89315738616551 -4.82153957150414,4.89315738616551 l -7.70940720827278,0 c -2.11181851418844,0 -3.86102270124684,1.80931968387672 -3.8610232190252,3.92421406068559 l 0,7.34921336574571 c 0,2.09181310991883 1.82064738095233,3.32197693563333 3.86102321902522,3.92210929146559 2.44330956967238,0.71842918823367 4.78601091173564,0.84826600685717 7.70940720827278,0 1.94321588520267,-0.56262578255313 3.85891832036061,-1.69469131148131 3.85891702591454,-3.92210929146559 l 0,-2.94263305876322 -7.70940850271877,0 0,-0.97947364381029 7.70940850271877,0 3.85891573146855,0 c 2.2432710603277,0 3.07877253503281,-1.56508231535641 3.85891702591462,-3.9136837423552 0.805862544304,-2.41784781656098 0.77157396381771,-4.74256283124846 0,-7.84421599403903 -0.55438922256088,-2.23319120921034 -1.61279171212426,-3.91368244790914 -3.85891702591461,-3.91368244790914 l -2.89629318587899,0 z m -4.33706855598721,18.61210917940043 c 0.80014885959464,0 1.44920091921856,0.65739994197341 1.44920091921856,1.46815808110543 -1.29444602e-6,0.81364087040703 -0.64905205962392,1.47447756654975 -1.44920091921856,1.47447756654975 -0.79728942834793,0 -1.44709226666045,-0.66083669614272 -1.44709356110647,-1.47447756654975 1.29444605e-6,-0.81075813913202 0.64980283831251,-1.46815808110543 1.44709356110647,-1.46815808110543 z"
     style="opacity:1;fill:#ffd343;fill-opacity:1;stroke:none"
     inkscape:connector-curvature="0" />
</svg>
