<?xml version="1.0" encoding="UTF-8" standalone="no"?>
<!-- Created with Inkscape (http://www.inkscape.org/) -->

<svg
   xmlns:dc="http://purl.org/dc/elements/1.1/"
   xmlns:cc="http://creativecommons.org/ns#"
   xmlns:rdf="http://www.w3.org/1999/02/22-rdf-syntax-ns#"
   xmlns:svg="http://www.w3.org/2000/svg"
   xmlns="http://www.w3.org/2000/svg"
   xmlns:sodipodi="http://sodipodi.sourceforge.net/DTD/sodipodi-0.dtd"
   xmlns:inkscape="http://www.inkscape.org/namespaces/inkscape"
   width="36"
   height="35"
   viewBox="0 0 36 35.000001"
   id="svg4921"
   version="1.1"
   inkscape:version="0.91 r13725"
   sodipodi:docname="view_day7.svg">
  <defs
     id="defs4923" />
  <sodipodi:namedview
     id="base"
     pagecolor="#ffffff"
     bordercolor="#666666"
     borderopacity="1.0"
     inkscape:pageopacity="0.0"
     inkscape:pageshadow="2"
     inkscape:zoom="5.6"
     inkscape:cx="58.999922"
     inkscape:cy="-6.0421756"
     inkscape:document-units="px"
     inkscape:current-layer="layer1"
     showgrid="false"
     units="px"
     inkscape:window-width="1366"
     inkscape:window-height="713"
     inkscape:window-x="0"
     inkscape:window-y="30"
     inkscape:window-maximized="1"
     inkscape:snap-bbox="true"
     inkscape:bbox-paths="true"
     inkscape:bbox-nodes="true"
     fit-margin-top="0"
     fit-margin-left="0"
     fit-margin-right="0"
     fit-margin-bottom="0" />
  <metadata
     id="metadata4926">
    <rdf:RDF>
      <cc:Work
         rdf:about="">
        <dc:format>image/svg+xml</dc:format>
        <dc:type
           rdf:resource="http://purl.org/dc/dcmitype/StillImage" />
        <dc:title></dc:title>
      </cc:Work>
    </rdf:RDF>
  </metadata>
  <g
     inkscape:label="Layer 1"
     inkscape:groupmode="layer"
     id="layer1"
     transform="translate(-4,-1012.8622)">
    <path
       id="rect4165-7-3"
       style="opacity:1;fill:#4CAF50;fill-opacity:1;fill-rule:nonzero;stroke:none;stroke-width:6;stroke-miterlimit:4;stroke-dasharray:none;stroke-opacity:1"
       d="m 5.9247506,1030.8622 32.1505094,0 c 1.066309,0 1.92474,0.4536 1.92474,1.0171 l 0,5.9658 c 0,0.5635 -0.858431,1.0171 -1.92474,1.0171 l -32.1505094,0 C 4.8584412,1038.8622 4,1038.4086 4,1037.8451 l 0,-5.9658 c 0,-0.5635 0.8584412,-1.0171 1.9247506,-1.0171 z m 5e-7,-9 32.1505089,0 c 1.066309,0 1.92474,0.4536 1.92474,1.0171 l 0,5.9658 c 0,0.5635 -0.858431,1.0171 -1.92474,1.0171 l -32.1505089,0 c -1.0663094,0 -1.9247506,-0.4536 -1.9247506,-1.0171 l 0,-5.9658 c 0,-0.5635 0.8584412,-1.0171 1.9247506,-1.0171 z m -5e-7,18 32.1505094,0 c 1.066309,0 1.92474,0.4536 1.92474,1.0171 l 0,5.9658 c 0,0.5635 -0.858431,1.0171 -1.92474,1.0171 l -32.1505094,0 C 4.8584412,1047.8622 4,1047.4086 4,1046.8451 l 0,-5.9658 c 0,-0.5635 0.8584412,-1.0171 1.9247506,-1.0171 z m 0,-27 32.1505094,0 c 1.066309,0 1.92474,0.4536 1.92474,1.0171 l 0,5.9658 c 0,0.5635 -0.858431,1.0171 -1.92474,1.0171 l -32.1505094,0 C 4.8584412,1020.8622 4,1020.4086 4,1019.8451 l 0,-5.9658 c 0,-0.5635 0.8584412,-1.0171 1.9247506,-1.0171 z"
       inkscape:connector-curvature="0" />
  </g>
</svg>
