<?xml version="1.0" encoding="UTF-8" standalone="no"?>
<!-- Created with Inkscape (http://www.inkscape.org/) -->

<svg
   xmlns:dc="http://purl.org/dc/elements/1.1/"
   xmlns:cc="http://creativecommons.org/ns#"
   xmlns:rdf="http://www.w3.org/1999/02/22-rdf-syntax-ns#"
   xmlns:svg="http://www.w3.org/2000/svg"
   xmlns="http://www.w3.org/2000/svg"
   xmlns:sodipodi="http://sodipodi.sourceforge.net/DTD/sodipodi-0.dtd"
   xmlns:inkscape="http://www.inkscape.org/namespaces/inkscape"
   width="48"
   height="48"
   viewBox="0 0 48.000001 48.000001"
   id="svg4268"
   version="1.1"
   inkscape:version="0.91 r13725"
   sodipodi:docname="view_day5.svg">
  <defs
     id="defs4270" />
  <sodipodi:namedview
     id="base"
     pagecolor="#ffffff"
     bordercolor="#666666"
     borderopacity="1.0"
     inkscape:pageopacity="0.0"
     inkscape:pageshadow="2"
     inkscape:zoom="5.4447222"
     inkscape:cx="29.074379"
     inkscape:cy="35.175799"
     inkscape:document-units="px"
     inkscape:current-layer="layer1"
     showgrid="false"
     inkscape:window-width="1366"
     inkscape:window-height="713"
     inkscape:window-x="0"
     inkscape:window-y="30"
     inkscape:window-maximized="1"
     units="px"
     inkscape:snap-bbox="true"
     inkscape:bbox-paths="true"
     inkscape:bbox-nodes="true" />
  <metadata
     id="metadata4273">
    <rdf:RDF>
      <cc:Work
         rdf:about="">
        <dc:format>image/svg+xml</dc:format>
        <dc:type
           rdf:resource="http://purl.org/dc/dcmitype/StillImage" />
        <dc:title></dc:title>
      </cc:Work>
    </rdf:RDF>
  </metadata>
  <g
     inkscape:label="Layer 1"
     inkscape:groupmode="layer"
     id="layer1"
     transform="translate(0,-1004.3622)">
    <path
       id="rect4165-7-3"
       style="opacity:1;fill:#4CAF50;fill-opacity:1;fill-rule:nonzero;stroke:none;stroke-width:6;stroke-miterlimit:4;stroke-dasharray:none;stroke-opacity:1"
       d="m 8.8178128,1014.8622 30.3643732,0 c 1.007069,0 1.817814,0.3402 1.817814,0.7628 l 0,4.4744 c 0,0.4226 -0.810745,0.7628 -1.817814,0.7628 l -30.3643732,0 c -1.0070685,0 -1.8178131,-0.3402 -1.8178131,-0.7628 l 0,-4.4744 c 0,-0.4226 0.8107446,-0.7628 1.8178131,-0.7628 z m 0,21 30.3643732,0 c 1.007069,0 1.817814,0.3402 1.817814,0.7628 l 0,4.4744 c 0,0.4226 -0.810745,0.7628 -1.817814,0.7628 l -30.3643732,0 c -1.0070685,0 -1.8178131,-0.3402 -1.8178131,-0.7628 l 0,-4.4744 c 0,-0.4226 0.8107446,-0.7628 1.8178131,-0.7628 z m 0,-14 30.3643732,0 c 1.007069,0 1.817814,0.3402 1.817814,0.7628 l 0,4.4744 c 0,0.4226 -0.810745,0.7628 -1.817814,0.7628 l -30.3643732,0 c -1.0070685,0 -1.8178131,-0.3402 -1.8178131,-0.7628 l 0,-4.4744 c 0,-0.4226 0.8107446,-0.7628 1.8178131,-0.7628 z m 0,7 30.3643732,0 c 1.007069,0 1.817814,0.3402 1.817814,0.7628 l 0,4.4744 c 0,0.4226 -0.810745,0.7628 -1.817814,0.7628 l -30.3643732,0 c -1.0070685,0 -1.8178131,-0.3402 -1.8178131,-0.7628 l 0,-4.4744 c 0,-0.4226 0.8107446,-0.7628 1.8178131,-0.7628 z"
       inkscape:connector-curvature="0" />
  </g>
</svg>
