<svg xmlns="http://www.w3.org/2000/svg" viewBox="0 0 48 48" fill="#9C27B0"><defs><linearGradient y2="4.527" x2="-81.11" y1="-10.723" x1="-88.45" gradientUnits="userSpaceOnUse"><stop stop-color="#eeeeec"/><stop offset="1" stop-color="#eeeeec" stop-opacity="0"/></linearGradient></defs><path d="m12 6c-2.216 0-4 1.784-4 4v12c0 2.216 1.784 4 4 4h8v12 2c0 1.108.892 2 2 2h4c1.108 0 2-.892 2-2v-4-10h8c2.216 0 4-1.784 4-4v-12c0-2.216-1.784-4-4-4h-24"/><g fill="#212121"><path d="m36 10.369l-1.059 1.111c-1.106 1.163-1.955 2.654-3.279 4.4-.79 1.042-2.092 1.86-3.723 2.502 0 0 .172 1.843-.395 3.273-.607 1.533-2.077 2.448-2.58 3.541l-.371.803-.697-.592c-.616-.522-2.117-1.433-3.119-2.938-.632-.949-.842-2.243-.75-3.686-1.696-.48-3.071-1.191-3.947-2.189-1.467-1.672-2.126-3.63-3.189-4.895l-.891-1.053 1.416.045c2.408.079 5.01.013 7.43.604.629.153 1.207.4 1.785.693-.688.441-1.117.891-1.383 1.246-.005.007-.741-.352-1.148-.451-1.773-.432-2.62-.026-4.617-.08.807 1.276.673 2 1.631 3.092.728.829 2.482 1.343 4.055 1.871 1.573.528 3.912.245 4.207.18l-.051 1.295c-.39.088-.83.161-1.318.186-1.466.075-2.291-.268-2.387-.311-.056 1.117.204 2.079.701 2.826.621.933 2.079 1.573 2.256 1.648.7-1.046 1.341-1.304 1.814-2.404.287-.667.821-1.669.061-4.04-.474-1.477-1.084-1.835-1.707-2.225l1.156-.883c.372.25.796.603 1.139 1.039.861 1.095.802 2.078.791 2.195 0 0 1.623-1.236 2.289-2.115.864-1.14 1.18-1.882 1.982-3.119-1.78.109-2.939-.3-4.846.285-.516.158-1.59.807-2.867 1.91-1.277 1.104-1.909 1.784-2.24 2.504l-1.643-.387c.019-.046 1.917-3.358 3.82-4.223 1.904-.865 8.07-1.477 10.06-1.578l1.615-.082"/><path d="m20 26.877v4.502l8 4.621v-4.504l-8-4.619"/><path transform="matrix(0-1 1 0 0 0)" stroke="#212121" stroke-width=".1" d="m-35.95 12.05h3.9v15.9h-3.9z"/></g></svg>