<?xml version="1.0" encoding="UTF-8" standalone="no"?>
<!-- Created with Inkscape (http://www.inkscape.org/) -->

<svg
   xmlns:dc="http://purl.org/dc/elements/1.1/"
   xmlns:cc="http://creativecommons.org/ns#"
   xmlns:rdf="http://www.w3.org/1999/02/22-rdf-syntax-ns#"
   xmlns:svg="http://www.w3.org/2000/svg"
   xmlns="http://www.w3.org/2000/svg"
   xmlns:sodipodi="http://sodipodi.sourceforge.net/DTD/sodipodi-0.dtd"
   xmlns:inkscape="http://www.inkscape.org/namespaces/inkscape"
   version="1.1"
   width="256"
   height="256"
   id="svg3047"
   inkscape:version="0.91 r13725"
   sodipodi:docname="xfce4-whiskermenu-original-colorized.svg">
  <sodipodi:namedview
     pagecolor="#ffffff"
     bordercolor="#666666"
     borderopacity="1"
     objecttolerance="10"
     gridtolerance="10"
     guidetolerance="10"
     inkscape:pageopacity="0"
     inkscape:pageshadow="2"
     inkscape:window-width="1366"
     inkscape:window-height="713"
     id="namedview9"
     showgrid="false"
     inkscape:zoom="0.921875"
     inkscape:cx="128"
     inkscape:cy="127.9999999999999"
     inkscape:window-x="0"
     inkscape:window-y="30"
     inkscape:window-maximized="1"
     inkscape:current-layer="svg3047" />
  <title
     id="title4531">Whisker Menu icon</title>
  <defs
     id="defs3049" />
  <metadata
     id="metadata3052">
    <rdf:RDF>
      <cc:Work
         rdf:about="">
        <dc:format>image/svg+xml</dc:format>
        <dc:type
           rdf:resource="http://purl.org/dc/dcmitype/StillImage" />
        <dc:title>Whisker Menu icon</dc:title>
        <dc:date>2013-06-16</dc:date>
        <dc:creator>
          <cc:Agent>
            <dc:title>Graeme Gott</dc:title>
          </cc:Agent>
        </dc:creator>
        <cc:license
           rdf:resource="http://www.gnu.org/licenses/old-licenses/gpl-2.0.html" />
      </cc:Work>
    </rdf:RDF>
  </metadata>
  <path
     inkscape:connector-curvature="0"
     style="fill:#9C27B0;fill-opacity:1;stroke:none"
     id="path4343"
     d="m 128,256.0000200000001 a 128,128 0 1 1 0,-256 128,128 0 0 1 0,256 z" />
  <path
     inkscape:connector-curvature="0"
     style="fill:#ffffff;fill-opacity:1;fill-rule:evenodd;stroke:none"
     id="path602"
     d="m 176.71247,47.16503 c -8.77257,1.33197000000007 -13.05793,55.6599700000002 -9.13767,63.00177000000009 6.7093,-4.3807500000002 16.71593,-25.32353000000002 19.83835,-32.46275000000004 -2.43538,6.62424999999983 -5.4897,38.03440000000005 -4.23218,38.40221999999995 2.65019,3.5445199999999 38.60951,-55.74065000000008 28.15842,-59.97190000000001 -1.50218,-0.60818000000006 -11.59641,17.93247999999994 -20.00667,36.83920000000001 0.0957,-8.08746000000008 6.62958,-32.52417000000003 3.96767,-39.94119000000001 -5.32564,-1.57757000000004 -15.44977,21.63040999999998 -19.59787,32.48677999999983 -1.29688,-5.51300999999999 5.68984,-35.67968999999992 1.00995,-38.35412999999993 z m -79.329316,5.72306000000015 c -2.65970000000001,0.0628 -4.74579,0.86987999999985 -5.482598,0.86567999999988 -17.025673,2.39218000000017 -11.927898,26.26689999999996 -4.713109,48.64601000000018 0.61597399999999,5.7285499999999 -5.331508,3.3303599999999 -9.2098,-2.66916000000006 -13.080129,-32.01179999999998 -18.860516,-30.97873000000014 -22.507501,-31.90966000000013 -3.493318,-0.72010999999986 -15.635249,5.66221000000007 -15.365698,18.61196000000007 0.04563,3.72011999999982 4.678483,21.25014999999982 4.71311,26.69159000000002 C 29.48297799999997,139.46275 23.24068199999997,165.5257200000001 42.46100399999998,192.47788 61.84279999999998,218.1601200000001 119.52713,219.0173200000002 129.84589,212.9654200000001 c 3.9367,-2.7652 62.80616,-31.76936 76.3716,-43.01909 C 226.44085,153.2214 205.69213,132.15003 200.80704,129.2116000000001 c -41.89997,-27.40422 -84.72782,-21.69628 -85.29285,-26.04233 -0.29633,-5.0234200000001 -0.12001,-18.98917000000017 -0.84162,-23.95028999999999 C 111.8287,56.13232000000005 103.23448,52.74989000000005 97.38315399999996,52.88809000000015 Z M 154.20497,138.5656800000002 c -1.47518,8.05817 -17.65675,26.06496 -22.67583,31.2844699999999 3.77395,-4.2586799999999 33.34163,-20.2391 34.19409,-19.1890899999998 4.29397,1.0719599999998 -35.12111,52.22068 -43.06724,44.22154 -1.14214,-1.1497600000002 8.7295,-15.3481000000002 24.8881,-27.77375 -7.42024,3.2180599999999 -28.96994,15.02195 -36.8392,15.43783 -3.51566,-4.3001500000002 19.0979,-18.66837 23.92625,-26.9320400000002 C 129.04581,156.5523400000002 99.54422400000001,170.4131300000003 95.267064,167.1329000000003 93.10026400000002,158.5284100000001 144.82294,143.4675000000002 154.20497,138.5656800000003 Z" />
</svg>
