<svg fill="#CDDC39" height="48" viewBox="0 0 48 48" width="48" xmlns="http://www.w3.org/2000/svg"><path d="m8 10c-2.216 0-4 1.784-4 4v20c0 2.216 1.784 4 4 4h5v3 4.714844c0 .712285.980419 1.285156 2.199219 1.285156h17.601562c1.2188 0 2.199219-.572871 2.199219-1.285156v-6.429688-1.285156h5c2.216 0 4-1.784 4-4v-20c0-2.216-1.784-4-4-4zm16 4h8v4h-6v11c0 2.76-2.24 5-5 5s-5-2.24-5-5 2.24-5 5-5c1.13 0 2.16.389531 3 1.019531zm-9 25h3v6h-3zm5 0h3v6h-3zm5 0h3v6h-3zm5 0h3v6h-3z" fill="#CDDC39" stroke-width="4"/></svg>