<svg fill="#CDDC39" height="48" viewBox="0 0 48 48" width="48" xmlns="http://www.w3.org/2000/svg"><g fill="#CDDC39"><path d="m24 4c-3.21 0-6.3.5-9.2 1.44v6.21c0 .79-.46 1.47-1.12 1.8-1.95.98-3.74 2.23-5.33 3.7-.36.35-.85.57-1.4.57s-1.05-.22-1.41-.59l-4.95-4.95c-.37-.37-.59-.87-.59-1.42s.22-1.05.59-1.42c6.09-5.79 14.34-9.34 23.41-9.34s17.32 3.55 23.41 9.34c.37.36.59.87.59 1.42s-.22 1.05-.59 1.41l-4.95 4.95c-.36.36-.86.59-1.41.59-.54 0-1.04-.22-1.4-.57-1.59-1.47-3.38-2.72-5.33-3.7-.66-.33-1.12-1.01-1.12-1.8v-6.21c-2.9-.93-5.99-1.43-9.2-1.43z"/><path d="m24 4c-11.05 0-20 8.95-20 20s8.95 20 20 20 20-8.95 20-20-8.95-20-20-20zm-2 35.86c-7.89-.98-14-7.7-14-15.86 0-1.23.15-2.43.42-3.58l9.58 9.58v2c0 2.21 1.79 4 4 4zm13.79-5.07c-.51-1.62-2.01-2.79-3.79-2.79h-2v-6c0-1.1-.9-2-2-2h-12v-4h4c1.1 0 2-.9 2-2v-4h4c2.21 0 4-1.79 4-4v-.83c5.86 2.37 10 8.11 10 14.83 0 4.16-1.6 7.94-4.21 10.79z" transform="matrix(.9 0 0 .9 2.4 8.4)"/></g></svg>