<svg fill="#CDDC39" height="48" viewBox="0 0 48 48" width="48" xmlns="http://www.w3.org/2000/svg"><path d="m3.636719 14c-2.014546 0-3.636719 1.561-3.636719 3.5v21c0 1.939 1.622173 3.5 3.636719 3.5h32.726563c2.014546 0 3.636719-1.561 3.636719-3.5v-21c0-1.939-1.622173-3.5-3.636719-3.5zm.363281 4h32v20h-32zm10-8h4v-4h-4zm30 24c2.21 0 4-1.79 4-4h-4zm0-18h4v-4h-4zm0 12h4v-4h-4zm-20-22h-4v4h4zm20 0v4h4c0-2.21-1.79-4-4-4zm-32 0c-2.21 0-4 1.79-4 4h4zm20 4h4v-4h-4zm6 0h4v-4h-4zm-12 0h4v-4h-4zm-14 2h-4v4h4zm32 10h4v-4h-4zm-6 12h4v-4h-4z" fill="#CDDC39" stroke-width="4"/></svg>