<svg fill="#CDDC39" height="48" viewBox="0 0 48 48" width="48" xmlns="http://www.w3.org/2000/svg"><path d="m18 42h4v-4h-4zm-12-24h4v-4h-4zm30 24c2.21 0 4-1.79 4-4h-4zm0-6h4v-4h-4zm-32 6v-4h-4c0 2.21 1.79 4 4 4zm6-4h-4v4h4zm-6-24c-2.21 0-4 1.79-4 4h4zm0 18h-4v4h4zm0-6h-4v4h4zm0-6h-4v4h4zm12 18h-4v4h4zm8 4h4v-4h-4zm6 0h4v-4h-4zm-18.363281-36c-2.014546 0-3.636719 1.561-3.636719 3.5v21c0 1.939 1.622173 3.5 3.636719 3.5h32.726563c2.014545 0 3.636718-1.561 3.636718-3.5v-21c0-1.939-1.622173-3.5-3.636719-3.5zm.363281 4h32v20h-32z" fill="#CDDC39"/></svg>