<svg fill="#CDDC39" height="48" viewBox="0 0 48 48" width="48" xmlns="http://www.w3.org/2000/svg"><path d="m2.728516 25c-1.51091 0-2.728516 1.0035-2.728516 2.25v13.5c0 1.2465 1.217606 2.25 2.728516 2.25h24.544922c1.510909 0 2.726562-1.0035 2.726562-2.25v-13.5c0-1.2465-1.215653-2.25-2.726562-2.25zm1.271484 4h22v10h-22zm16.728516-24c-1.51091 0-2.728516 1.0035-2.728516 2.25v13.5c0 1.2465 1.217606 2.25 2.728516 2.25h24.544922c1.510909 0 2.726562-1.0035 2.726562-2.25v-13.5c0-1.2465-1.215653-2.25-2.726562-2.25zm1.271484 4h22v10h-22z" fill="#CDDC39" stroke-width="4"/></svg>