<svg fill="#CDDC39" height="48" viewBox="0 0 48 48" width="48" xmlns="http://www.w3.org/2000/svg"><g fill="#CDDC39" stroke-width="4"><path d="m11.636719 6c-2.014546 0-3.636719 1.561-3.636719 3.5v4.5h4v-4h32v20h-4v4h4.363281c2.014546 0 3.636719-1.561 3.636719-3.5v-21c0-1.939-1.622173-3.5-3.636719-3.5z"/><path d="m3.636719 14c-2.014546 0-3.636719 1.561-3.636719 3.5v21c0 1.939 1.622173 3.5 3.636719 3.5h32.726563c2.014546 0 3.636719-1.561 3.636719-3.5v-21c0-1.939-1.622173-3.5-3.636719-3.5zm.363281 4h32v20h-32z"/></g></svg>