<?xml version="1.0" encoding="UTF-8" standalone="no"?>
<svg
   xmlns:dc="http://purl.org/dc/elements/1.1/"
   xmlns:cc="http://creativecommons.org/ns#"
   xmlns:rdf="http://www.w3.org/1999/02/22-rdf-syntax-ns#"
   xmlns:svg="http://www.w3.org/2000/svg"
   xmlns="http://www.w3.org/2000/svg"
   xmlns:sodipodi="http://sodipodi.sourceforge.net/DTD/sodipodi-0.dtd"
   xmlns:inkscape="http://www.inkscape.org/namespaces/inkscape"
   fill="#00C853"
   width="48"
   height="48"
   viewBox="0 0 48 48"
   id="svg2"
   version="1.1"
   inkscape:version="0.91 r13725"
   sodipodi:docname="text-html.svg">
  <metadata
     id="metadata10">
    <rdf:RDF>
      <cc:Work
         rdf:about="">
        <dc:format>image/svg+xml</dc:format>
        <dc:type
           rdf:resource="http://purl.org/dc/dcmitype/StillImage" />
      </cc:Work>
    </rdf:RDF>
  </metadata>
  <defs
     id="defs8" />
  <sodipodi:namedview
     pagecolor="#ffffff"
     bordercolor="#666666"
     borderopacity="1"
     objecttolerance="10"
     gridtolerance="10"
     guidetolerance="10"
     inkscape:pageopacity="0"
     inkscape:pageshadow="2"
     inkscape:window-width="1366"
     inkscape:window-height="713"
     id="namedview6"
     showgrid="false"
     inkscape:snap-page="true"
     inkscape:snap-bbox="true"
     inkscape:bbox-paths="true"
     inkscape:bbox-nodes="true"
     inkscape:snap-bbox-edge-midpoints="true"
     inkscape:zoom="6.9532167"
     inkscape:cx="-14.060452"
     inkscape:cy="21.763526"
     inkscape:window-x="0"
     inkscape:window-y="30"
     inkscape:window-maximized="1"
     inkscape:current-layer="svg2" />
  <path
     d="M 12 4 C 9.79 4 8.0195312 5.79 8.0195312 8 L 8.0117188 22.294922 L 23.279297 22.294922 L 23.119141 24 L 32 24 L 32 28 L 22.744141 28 L 22.367188 32 L 32 32 L 32 36 L 21.992188 36 L 21.240234 44 L 36 44 C 38.21 44 40 42.21 40 40 L 40 16 L 28 4 L 12 4 z M 26 7 L 37 18 L 26 18 L 26 7 z "
     id="path4"
     style="fill:#e34f26;fill-opacity:1" />
  <g
     id="g4156"
     transform="matrix(0.0443459,0,0,0.0443459,-1.330377,25.294899)">
    <path
       id="path4142"
       d="M 71,460 30,0 481,0 440,460 255,512"
       inkscape:connector-curvature="0"
       style="fill:#e34f26" />
    <path
       id="path4144"
       d="M 256,472 405,431 440,37 256,37"
       inkscape:connector-curvature="0"
       style="fill:#ef652a" />
    <path
       id="path4146"
       d="m 256,208 -75,0 -5,-58 80,0 0,-56 -1,0 -141,0 1,15 14,156 127,0 z m 0,147 -1,0 -63,-17 -4,-45 -30,0 -26,0 7,89 116,32 1,0 z"
       inkscape:connector-curvature="0"
       style="fill:#ebebeb" />
    <path
       id="path4148"
       d="m 255,208 0,57 70,0 -7,73 -63,17 0,59 116,-32 1,-10 13,-149 2,-15 -16,0 z m 0,-114 0,35 0,21 0,0 137,0 0,0 0,0 1,-12 3,-29 1,-15 z"
       inkscape:connector-curvature="0"
       style="fill:#ffffff" />
  </g>
</svg>
