<?xml version="1.0" encoding="UTF-8" standalone="no"?>
<svg
   xmlns:dc="http://purl.org/dc/elements/1.1/"
   xmlns:cc="http://creativecommons.org/ns#"
   xmlns:rdf="http://www.w3.org/1999/02/22-rdf-syntax-ns#"
   xmlns:svg="http://www.w3.org/2000/svg"
   xmlns="http://www.w3.org/2000/svg"
   xmlns:sodipodi="http://sodipodi.sourceforge.net/DTD/sodipodi-0.dtd"
   xmlns:inkscape="http://www.inkscape.org/namespaces/inkscape"
   fill="#00C853"
   width="48"
   height="48"
   viewBox="0 0 48 48"
   id="svg2"
   version="1.1"
   inkscape:version="0.91 r13725"
   sodipodi:docname="text-x-script9.svg">
  <metadata
     id="metadata10">
    <rdf:RDF>
      <cc:Work
         rdf:about="">
        <dc:format>image/svg+xml</dc:format>
        <dc:type
           rdf:resource="http://purl.org/dc/dcmitype/StillImage" />
        <dc:title></dc:title>
      </cc:Work>
    </rdf:RDF>
  </metadata>
  <defs
     id="defs8" />
  <sodipodi:namedview
     pagecolor="#ffffff"
     bordercolor="#666666"
     borderopacity="1"
     objecttolerance="10"
     gridtolerance="10"
     guidetolerance="10"
     inkscape:pageopacity="0"
     inkscape:pageshadow="2"
     inkscape:window-width="1366"
     inkscape:window-height="713"
     id="namedview6"
     showgrid="false"
     inkscape:snap-bbox="true"
     inkscape:bbox-paths="true"
     inkscape:bbox-nodes="true"
     inkscape:zoom="6.975303"
     inkscape:cx="17.882197"
     inkscape:cy="26.252521"
     inkscape:window-x="0"
     inkscape:window-y="30"
     inkscape:window-maximized="1"
     inkscape:current-layer="svg2" />
  <path
     d="m 42,38.03 -36,0 0,-28.06 36,0 0,28.06 z"
     id="path4"
     style="fill:none;stroke:none" />
  <path
     d="M 42,6 6,6 C 3.79,6 2,7.79 2,10 l 0,28 c 0,2.21 1.79,3.96 4,3.96 l 36,0 c 2.21,0 4,-1.76 4,-3.96 L 46,10 C 46,7.79 44.21,6 42,6 Z"
     id="path4140"
     style="fill:#000000;stroke:#00C853;stroke-opacity:1;stroke-width:4;stroke-miterlimit:4;stroke-dasharray:none;fill-opacity:1" />
  <path
     inkscape:connector-curvature="0"
     d="m 39.270431,8.9161365 -30.5408643,0 c -1.8748702,0 -3.3934298,1.4996845 -3.3934298,3.3512495 l 0,23.458741 c 0,1.851566 1.5185596,3.317736 3.3934298,3.317736 l 30.5408643,0 c 1.87487,0 3.393432,-1.474549 3.393432,-3.317736 l 0,-23.458741 c 0,-1.851565 -1.518562,-3.3512495 -3.393432,-3.3512495 z"
     id="path4140-6-2"
     style="fill:#00C853;fill-opacity:1;stroke:#00C853;stroke-width:3.37227392;stroke-miterlimit:4;stroke-dasharray:none;stroke-opacity:1" />
  <path
     inkscape:connector-curvature="0"
     d="m 40.861255,9.4217977 -33.7225115,0 c -2.0701877,0 -3.7469459,1.4493433 -3.7469459,3.2387563 l 0,22.671281 c 0,1.789413 1.6767582,3.206367 3.7469459,3.206367 l 33.7225115,0 c 2.070189,0 3.746946,-1.425052 3.746946,-3.206367 l 0,-22.671281 c 0,-1.789413 -1.676757,-3.2387563 -3.746946,-3.2387563 z"
     id="path4140-6"
     style="fill:none;fill-opacity:1;stroke:#00C853;stroke-width:3.48359609;stroke-miterlimit:4;stroke-dasharray:none;stroke-opacity:1" />
  <path
     inkscape:connector-curvature="0"
     d="m 35.026827,10.502766 -22.053655,0 c -1.353849,0 -2.450406,1.341729 -2.450406,2.998272 l 0,20.987907 c 0,1.656546 1.096557,2.968289 2.450406,2.968289 l 22.053655,0 c 1.353851,0 2.450406,-1.31924 2.450406,-2.968289 l 0,-20.987907 c 0,-1.656543 -1.096555,-2.998272 -2.450406,-2.998272 z"
     id="path4140-6-8"
     style="fill:#000000;fill-opacity:1;stroke:#00C853;stroke-width:2.71053243;stroke-miterlimit:4;stroke-dasharray:none;stroke-opacity:1" />
  <text
     xml:space="preserve"
     style="font-style:normal;font-variant:normal;font-weight:bold;font-stretch:normal;font-size:20px;line-height:100%;font-family:Inconsolata;-inkscape-font-specification:'Inconsolata, Bold';text-align:start;letter-spacing:0px;word-spacing:0px;writing-mode:lr-tb;text-anchor:start;fill:#00C853;fill-opacity:1;stroke:none;stroke-width:1px;stroke-linecap:butt;stroke-linejoin:miter;stroke-opacity:1"
     x="12.68904"
     y="32.822571"
     id="text4144"
     sodipodi:linespacing="100%"><tspan
       sodipodi:role="line"
       id="tspan4146"
       x="12.68904"
       y="32.822571"
       style="font-style:normal;font-variant:normal;font-weight:bold;font-stretch:normal;font-size:20px;line-height:100%;font-family:Inconsolata;-inkscape-font-specification:'Inconsolata, Bold';text-align:start;writing-mode:lr-tb;text-anchor:start;fill:#00C853;fill-opacity:1">&gt;_</tspan></text>
</svg>
