<svg xmlns="http://www.w3.org/2000/svg" fill="#607D8B" viewBox="0 0 48 48"><path d="m14.714 20.714h-1.714v4.286h4.286v-1.714h-2.571v-2.571m-1.714-3.429h1.714v-2.571h2.571v-1.714h-4.286v4.286m10.286 6h-2.571v1.714h4.286v-4.286h-1.714v2.571m-2.571-10.286v1.714h2.571v2.571h1.714v-4.286h-4.286m10.286 15h-1.59l-.55-.55c1.96-2.27 3.14-5.22 3.14-8.45 0-7.18-5.82-13-13-13-7.18 0-13 5.82-13 13 0 7.18 5.82 13 13 13 3.23 0 6.18-1.18 8.45-3.13l.55.55v1.58l10 9.98 2.98-2.98-9.98-10m-12 0c-4.97 0-9-4.03-9-9 0-4.97 4.03-9 9-9 4.97 0 9 4.03 9 9 0 4.97-4.03 9-9 9z" fill="#607D8B"/></svg>