<?xml version="1.0" encoding="UTF-8" standalone="no"?>
<svg
   xmlns:dc="http://purl.org/dc/elements/1.1/"
   xmlns:cc="http://creativecommons.org/ns#"
   xmlns:rdf="http://www.w3.org/1999/02/22-rdf-syntax-ns#"
   xmlns:svg="http://www.w3.org/2000/svg"
   xmlns="http://www.w3.org/2000/svg"
   xmlns:sodipodi="http://sodipodi.sourceforge.net/DTD/sodipodi-0.dtd"
   xmlns:inkscape="http://www.inkscape.org/namespaces/inkscape"
   width="40"
   height="48"
   viewBox="0 0 40 48"
   id="svg2"
   version="1.1"
   inkscape:version="0.91 r13725"
   sodipodi:docname="accessories-text-editor.svg"
   style="fill:#4caf50">
  <metadata
     id="metadata10">
    <rdf:RDF>
      <cc:Work
         rdf:about="">
        <dc:format>image/svg+xml</dc:format>
        <dc:type
           rdf:resource="http://purl.org/dc/dcmitype/StillImage" />
        <dc:title></dc:title>
      </cc:Work>
    </rdf:RDF>
  </metadata>
  <defs
     id="defs8" />
  <sodipodi:namedview
     pagecolor="#ffffff"
     bordercolor="#666666"
     borderopacity="1"
     objecttolerance="10"
     gridtolerance="10"
     guidetolerance="10"
     inkscape:pageopacity="0"
     inkscape:pageshadow="2"
     inkscape:window-width="1366"
     inkscape:window-height="713"
     id="namedview6"
     showgrid="false"
     inkscape:snap-bbox="true"
     inkscape:bbox-nodes="true"
     inkscape:snap-page="true"
     inkscape:zoom="16.57675249082503"
     inkscape:cx="-26.12464032630904"
     inkscape:cy="22.89170361718057"
     inkscape:window-x="0"
     inkscape:window-y="30"
     inkscape:window-maximized="1"
     inkscape:current-layer="svg2"
     fit-margin-top="0"
     fit-margin-left="0"
     fit-margin-right="0"
     fit-margin-bottom="0" />
  <path
     d="M 4,0 C 1.789999999999999,0 0.01953125,1.79 0.01953125,4 L 0,36 c 0,1.30052634372081 0.6232587278426571,2.44338549805228 1.578125,3.173828125 L 8.751953125,32 8,32 l 0,-4 4.75390625,0 4,-4 L 8,24 8,20 20.75390625,20 26.380859375,14.373046875 26.75390625,14 18,14 18,3 l 9.876953125,9.876953125 2.5,-2.5 L 20,0 4,0 Z M 32,31.255859375 23.255859375,40 28,40 c 2.21,0 4,-1.79 4,-4 l 0,-4.744140625 z"
     id="path4"
     inkscape:connector-curvature="0" />
  <g
     style="fill:#4caf50;fill-opacity:1"
     id="g4148"
     transform="translate(-5.995,6)">
    <path
       id="path4140"
       d="m 9.999999999999996,34.5 0,7.5 L 17.5,42 39.63,19.87 32.12999999999998,12.37 9.999999999999996,34.5 Z M 45.41,14.09 c 0.78,-0.78 0.78,-2.05 0,-2.83 L 40.74,6.59 C 39.96,5.81 38.69,5.81 37.91,6.59 l -3.66,3.66 7.5,7.5 3.66,-3.66 z"
       inkscape:connector-curvature="0"
       style="fill:#4caf50;fill-opacity:1" />
  </g>
</svg>
