<?xml version="1.0" encoding="UTF-8" standalone="no"?>
<svg
   xmlns:dc="http://purl.org/dc/elements/1.1/"
   xmlns:cc="http://creativecommons.org/ns#"
   xmlns:rdf="http://www.w3.org/1999/02/22-rdf-syntax-ns#"
   xmlns:svg="http://www.w3.org/2000/svg"
   xmlns="http://www.w3.org/2000/svg"
   xmlns:sodipodi="http://sodipodi.sourceforge.net/DTD/sodipodi-0.dtd"
   xmlns:inkscape="http://www.inkscape.org/namespaces/inkscape"
   width="44"
   height="28"
   viewBox="0 0 44 28"
   id="svg2"
   version="1.1"
   inkscape:version="0.91 r13725"
   sodipodi:docname="system-lock-screen.svg"
   style="fill:#9E9E9E">
  <metadata
     id="metadata10">
    <rdf:RDF>
      <cc:Work
         rdf:about="">
        <dc:format>image/svg+xml</dc:format>
        <dc:type
           rdf:resource="http://purl.org/dc/dcmitype/StillImage" />
        <dc:title></dc:title>
      </cc:Work>
    </rdf:RDF>
  </metadata>
  <defs
     id="defs8" />
  <sodipodi:namedview
     pagecolor="#ffffff"
     bordercolor="#666666"
     borderopacity="1"
     objecttolerance="10"
     gridtolerance="10"
     guidetolerance="10"
     inkscape:pageopacity="0"
     inkscape:pageshadow="2"
     inkscape:window-width="683"
     inkscape:window-height="480"
     id="namedview6"
     showgrid="false"
     fit-margin-top="0"
     fit-margin-left="0"
     fit-margin-right="0"
     fit-margin-bottom="0"
     inkscape:zoom="4.916666666666667"
     inkscape:cx="22"
     inkscape:cy="13.99999999999999"
     inkscape:window-x="0"
     inkscape:window-y="30"
     inkscape:window-maximized="0"
     inkscape:current-layer="svg2" />
  <path
     d="M 40,0 4,0 C 1.79,0 0,1.789999999999999 0,4 l 0,20 c 0,2.21 1.79,4 4,4 l 36,0 c 2.21,0 4,-1.79 4,-4 L 44,4 C 44,1.789999999999999 42.21,0 40,0 Z M 36,24 8,24 8,4 36,4 36,24 Z m -18,-2 8,0 c 1.11,0 2,-0.9 2,-2 l 0,-6 c 0,-1.1 -0.89,-2 -2,-2 l 0,-2 C 26,7.79 24.21,6 22,6 19.79,6 18,7.79 18,10 l 0,2 c -1.11,0 -2,0.9 -2,2 l 0,6 c 0,1.1 0.89,2 2,2 z m 1.6,-12 c 0,-1.329999999999998 1.07,-2.399999999999998 2.4,-2.399999999999998 1.33,0 2.4,1.079999999999997 2.4,2.399999999999998 l 0,2 -4.8,0 0,-2 z"
     id="path4"
     inkscape:connector-curvature="0" />
</svg>
