<svg xmlns="http://www.w3.org/2000/svg" viewBox="0 0 48 48"><defs><clipPath><rect width="84" height="84" rx="6" x="6" y="6" fill="#fff"/></clipPath><filter x="-.192" y="-.192" width="1.384" height="1.384" color-interpolation-filters="sRGB"><feGaussianBlur stdDeviation="5.28"/></filter><filter color-interpolation-filters="sRGB"><feGaussianBlur stdDeviation="1.71"/></filter><linearGradient y1="20.221" x2="0" y2="138.66" gradientUnits="userSpaceOnUse"><stop stop-color="#fff"/><stop offset="1" stop-color="#fff" stop-opacity="0"/></linearGradient><linearGradient y1="92.54" x2="0" y2="7.02" gradientUnits="userSpaceOnUse" gradientTransform="scale(1.0059.99417)"><stop/><stop offset="1" stop-opacity=".588"/></linearGradient></defs><path d="m8.571 6c-1.425 0-2.571 1.147-2.571 2.571v30.857c0 1.425 1.147 2.571 2.571 2.571h30.857c1.425 0 2.571-1.147 2.571-2.571v-30.857c0-1.425-1.147-2.571-2.571-2.571h-30.857m5.142857 4.285714a3.428571 3.428571 0 0 1 0 6.857143 3.428571 3.428571 0 1 1 0 -6.857143zm20.571429 0a3.428571 3.428571 0 0 1 0 6.857143 3.428571 3.428571 0 1 1 0 -6.857143m-10.285714 10.285714a3.428571 3.428571 0 0 1 0 6.857143 3.428571 3.428571 0 1 1 0 -6.857143m-10.285714 10.285714a3.428571 3.428571 0 0 1 0 6.857143 3.428571 3.428571 0 1 1 0 -6.857143m20.571429 0a3.428571 3.428571 0 0 1 0 6.857143 3.428571 3.428571 0 1 1 0 -6.857143" fill="#00C853"/></svg>