<svg xmlns="http://www.w3.org/2000/svg" fill="#E91E63" viewBox="0 0 48 48"><path d="m18 42h4v-4h-4v4m-12-24h4v-4h-4v4m30 24c2.21 0 4-1.79 4-4h-4v4m0-6h4v-4h-4v4m-32 6v-4h-4c0 2.21 1.79 4 4 4m6-4h-4v4h4v-4m-6-24c-2.21 0-4 1.79-4 4h4v-4zm0 18h-4v4h4v-4m0-6h-4v4h4v-4m0-6h-4v4h4v-4zm12 18h-4v4h4v-4m8 4h4v-4h-4v4zm6 0h4v-4h-4v4m-18.363-36c-2.01 0-3.637 1.561-3.637 3.5v21c0 1.939 1.622 3.5 3.637 3.5h32.727c2.01 0 3.637-1.561 3.637-3.5v-21c0-1.939-1.622-3.5-3.637-3.5h-32.727m.363 4h32v20h-32v-20z" fill="#E91E63"/></svg>