<svg xmlns="http://www.w3.org/2000/svg" viewBox="0 0 30.99999618530273 30.9999990926513"><path d="m10.157 1013.36h27.685c.918 0 1.657.397 1.657.89v5.22c0 .493-.739.89-1.657.89h-27.685c-.918 0-1.657-.397-1.657-.89v-5.22c0-.493.739-.89 1.657-.89m0 24h27.685c.918 0 1.657.397 1.657.89v5.22c0 .493-.739.89-1.657.89h-27.685c-.918 0-1.657-.397-1.657-.89v-5.22c0-.493.739-.89 1.657-.89m0-16h27.685c.918 0 1.657.397 1.657.89v5.22c0 .493-.739.89-1.657.89h-27.685c-.918 0-1.657-.397-1.657-.89v-5.22c0-.493.739-.89 1.657-.89m0 8h27.685c.918 0 1.657.397 1.657.89v5.22c0 .493-.739.89-1.657.89h-27.685c-.918 0-1.657-.397-1.657-.89v-5.22c0-.493.739-.89 1.657-.89" fill="#4CAF50" transform="translate(-8.5-1013.36)"/></svg>