<?xml version="1.0" encoding="UTF-8" standalone="no"?>
<svg
   xmlns:dc="http://purl.org/dc/elements/1.1/"
   xmlns:cc="http://creativecommons.org/ns#"
   xmlns:rdf="http://www.w3.org/1999/02/22-rdf-syntax-ns#"
   xmlns:svg="http://www.w3.org/2000/svg"
   xmlns="http://www.w3.org/2000/svg"
   xmlns:sodipodi="http://sodipodi.sourceforge.net/DTD/sodipodi-0.dtd"
   xmlns:inkscape="http://www.inkscape.org/namespaces/inkscape"
   fill="#00C853"
   width="48"
   height="48"
   viewBox="0 0 48 48"
   id="svg2"
   version="1.1"
   inkscape:version="0.91 r13725"
   sodipodi:docname="xfce-display-external.svg">
  <metadata
     id="metadata10">
    <rdf:RDF>
      <cc:Work
         rdf:about="">
        <dc:format>image/svg+xml</dc:format>
        <dc:type
           rdf:resource="http://purl.org/dc/dcmitype/StillImage" />
      </cc:Work>
    </rdf:RDF>
  </metadata>
  <defs
     id="defs8" />
  <sodipodi:namedview
     pagecolor="#ffffff"
     bordercolor="#666666"
     borderopacity="1"
     objecttolerance="10"
     gridtolerance="10"
     guidetolerance="10"
     inkscape:pageopacity="0"
     inkscape:pageshadow="2"
     inkscape:window-width="1366"
     inkscape:window-height="713"
     id="namedview6"
     showgrid="false"
     inkscape:snap-bbox="true"
     inkscape:bbox-nodes="true"
     inkscape:zoom="2.930383527943785"
     inkscape:cx="-23.33898814556535"
     inkscape:cy="-16.92768488055554"
     inkscape:window-x="0"
     inkscape:window-y="30"
     inkscape:window-maximized="1"
     inkscape:current-layer="svg2" />
  <path
     id="path4135"
     style="fill:#00C853"
     d="m 10,22 -4,0 0,3.99999999999999 4,0 L 10,22 Z m 0,7.99999999999998 -4,0 0,4.00000000000001 4,0 0,-4.00000000000002 z m 0,-15.99999999999999 c -2.21,0 -4,1.79 -4,4.00000000000001 l 4,0 0,-4 z M 18,38 l -4,0 0,4 4,0 0,-4 z m -8,4 0,-4 -4,0 c 0,2.21000000000001 1.79,4 4,4 z m 20,0 c 2.21,0 4,-1.78999999999999 4,-4 l -4,0 0,4 z m -8,0 4,0 0,-4 -4,0 0,4 z M 18,6 c -2.21,0 -4,1.79 -4,4 l 0,20 c 0,2.21 1.79,4 4,4 l 20,0 c 2.21,0 4,-1.79 4,-4 L 42,10 C 42,7.79 40.21,6 38,6 L 18,6 Z m 0,4 20,0 0,20 -20,0 0,-20 z" />
</svg>
