<?xml version="1.0" encoding="UTF-8" standalone="no"?>
<!-- Created with Inkscape (http://www.inkscape.org/) -->

<svg
   xmlns:dc="http://purl.org/dc/elements/1.1/"
   xmlns:cc="http://creativecommons.org/ns#"
   xmlns:rdf="http://www.w3.org/1999/02/22-rdf-syntax-ns#"
   xmlns:svg="http://www.w3.org/2000/svg"
   xmlns="http://www.w3.org/2000/svg"
   xmlns:sodipodi="http://sodipodi.sourceforge.net/DTD/sodipodi-0.dtd"
   xmlns:inkscape="http://www.inkscape.org/namespaces/inkscape"
   version="1.1"
   width="48"
   height="48"
   id="svg3833"
   inkscape:version="0.91 r13725"
   sodipodi:docname="dropboxstatus-busy2.svg">
  <metadata
     id="metadata13">
    <rdf:RDF>
      <cc:Work
         rdf:about="">
        <dc:format>image/svg+xml</dc:format>
        <dc:type
           rdf:resource="http://purl.org/dc/dcmitype/StillImage" />
        <dc:title />
      </cc:Work>
    </rdf:RDF>
  </metadata>
  <sodipodi:namedview
     pagecolor="#ffffff"
     bordercolor="#666666"
     borderopacity="1"
     objecttolerance="10"
     gridtolerance="10"
     guidetolerance="10"
     inkscape:pageopacity="0"
     inkscape:pageshadow="2"
     inkscape:window-width="1366"
     inkscape:window-height="713"
     id="namedview11"
     showgrid="false"
     inkscape:zoom="11.75544794502233"
     inkscape:cx="30.5481482873614"
     inkscape:cy="42.34217493455805"
     inkscape:window-x="0"
     inkscape:window-y="30"
     inkscape:window-maximized="1"
     inkscape:current-layer="svg3833"
     inkscape:snap-bbox="true"
     inkscape:bbox-nodes="true" />
  <defs
     id="defs3835" />
  <path
     style="fill:#007ee5;fill-opacity:1"
     inkscape:connector-curvature="0"
     d="m 24,8 0,-6 8,8 -8,8 0,-6 c -6.63,0 -12,5.37 -12,12 0,2.03 0.51,3.93 1.39,5.61 l -2.92,2.92 C 8.920000000000001,30.05 8,27.14 8,24 8,15.16 15.15999999999999,8 24,8 Z m 0,28 c 6.63,0 12,-5.37 12,-12 0,-2.03 -0.51,-3.93 -1.39,-5.61 l 2.92,-2.92 C 39.08,17.95 40,20.86 40,24 40,32.84000000000001 32.84000000000001,40 24,40 l 0,6 -8,-8 8,-8 0,6 z"
     id="path4271" />
</svg>
