<?xml version="1.0" encoding="UTF-8" standalone="no"?>
<svg
   xmlns:dc="http://purl.org/dc/elements/1.1/"
   xmlns:cc="http://creativecommons.org/ns#"
   xmlns:rdf="http://www.w3.org/1999/02/22-rdf-syntax-ns#"
   xmlns:svg="http://www.w3.org/2000/svg"
   xmlns="http://www.w3.org/2000/svg"
   xmlns:sodipodi="http://sodipodi.sourceforge.net/DTD/sodipodi-0.dtd"
   xmlns:inkscape="http://www.inkscape.org/namespaces/inkscape"
   fill="#FF5722"
   width="48"
   height="48"
   viewBox="0 0 48 48"
   id="svg2"
   version="1.1"
   inkscape:version="0.91 r13725"
   sodipodi:docname="folder-download-scratch.svg">
  <metadata
     id="metadata10">
    <rdf:RDF>
      <cc:Work
         rdf:about="">
        <dc:format>image/svg+xml</dc:format>
        <dc:type
           rdf:resource="http://purl.org/dc/dcmitype/StillImage" />
        <dc:title></dc:title>
      </cc:Work>
    </rdf:RDF>
  </metadata>
  <defs
     id="defs8" />
  <sodipodi:namedview
     pagecolor="#ffffff"
     bordercolor="#666666"
     borderopacity="1"
     objecttolerance="10"
     gridtolerance="10"
     guidetolerance="10"
     inkscape:pageopacity="0"
     inkscape:pageshadow="2"
     inkscape:window-width="1366"
     inkscape:window-height="713"
     id="namedview6"
     showgrid="false"
     inkscape:snap-bbox="true"
     inkscape:bbox-paths="true"
     inkscape:bbox-nodes="true"
     inkscape:zoom="3.897603885191481"
     inkscape:cx="-74.14325900318278"
     inkscape:cy="-16.95014470929107"
     inkscape:window-x="0"
     inkscape:window-y="30"
     inkscape:window-maximized="1"
     inkscape:current-layer="svg2"
     inkscape:object-paths="true"
     inkscape:snap-intersection-paths="true"
     inkscape:object-nodes="true"
     inkscape:snap-smooth-nodes="true"
     inkscape:snap-midpoints="true" />
  <rect
     style="opacity:1;fill:#000000;fill-opacity:1;fill-rule:nonzero;stroke:none;stroke-width:3;stroke-miterlimit:4;stroke-dasharray:none;stroke-opacity:1"
     id="rect4175"
     width="28.00000190734863"
     height="14"
     x="-107.7430877685547"
     y="21.59702682495117" />
  <rect
     y="21.42856407165527"
     x="-66.20209503173828"
     height="11.111328125"
     width="22.22265434265137"
     id="rect4154"
     style="opacity:1;fill:#4caf50;fill-opacity:1;fill-rule:nonzero;stroke:none;stroke-width:3;stroke-miterlimit:4;stroke-dasharray:none;stroke-opacity:1" />
  <path
     id="path4151"
     d="m -59.53608141565334,12.53989251488897 8.890624,0 0,8.888672 6.666016,0 -11.111328,11.111328 -11.111328,-11.111328 6.666016,0 0,-8.888672 z" />
  <path
     d="M -59.53515625 12.5390625 L -59.53515625 21.427734375 L -50.64453125 21.427734375 L -50.64453125 12.5390625 L -59.53515625 12.5390625 z "
     id="path4144" />
  <path
     d="M -66.201171875 21.427734375 L -55.08984375 32.5390625 L -43.978515625 21.427734375 L -50.64453125 21.427734375 L -59.53515625 21.427734375 L -66.201171875 21.427734375 z "
     id="path4134" />
  <path
     d="m 8,12 -4,0 0,28 c 0,2.21 1.79,4 4,4 l 28,0 0,-4 -28,0 0,-28 z"
     id="path4162" />
  <path
     d="M 16 4 C 13.79 4 12 5.79 12 8 L 12 32 C 12 34.21 13.79 36 16 36 L 40 36 C 42.21 36 44 34.21 44 32 L 44 8 C 44 5.79 42.21 4 40 4 L 16 4 z M 23.554688 10 L 32.445312 10 L 32.445312 18.888672 L 39.111328 18.888672 L 28 30 L 16.888672 18.888672 L 23.554688 18.888672 L 23.554688 10 z "
     id="path4160" />
  <path
     style="opacity:1;fill:#000000;fill-opacity:1;fill-rule:nonzero;stroke:none;stroke-width:3;stroke-miterlimit:4;stroke-dasharray:none;stroke-opacity:1"
     d="m -66.20209503173828,21.42856407165527 22.22265434265136,0 -11.11045088629527,11.11045060296255 0,0 z"
     id="rect4140"
     inkscape:connector-curvature="0"
     sodipodi:nodetypes="ccccc" />
  <path
     style="fill:#4caf50"
     d="m -79.74308507017329,21.59702711083302 -8,0 0,-11.999999999999996 -12,0 0,11.999999999999996 -8,0 14,14.00000000000001 14,-14.00000000000001 z"
     id="path4173" />
  <path
     style="fill:#4caf50"
     d="m -105.9996532448033,47.65571759611223 12.00000000000001,12 12,-12 -6.85714285714285,0 -10.28571428571429,0 -6.85714285714288,0 z"
     id="path4182"
     inkscape:connector-curvature="0" />
  <path
     style="fill:#4caf50"
     d="m -98.99965324480328,37.65571759611222 0,10.00000000000001 10,0 0,-10.00000000000001 -10,0 z"
     id="path4177"
     inkscape:connector-curvature="0" />
</svg>
