<?xml version="1.0" encoding="UTF-8" standalone="no"?>
<svg
   xmlns:dc="http://purl.org/dc/elements/1.1/"
   xmlns:cc="http://creativecommons.org/ns#"
   xmlns:rdf="http://www.w3.org/1999/02/22-rdf-syntax-ns#"
   xmlns:svg="http://www.w3.org/2000/svg"
   xmlns="http://www.w3.org/2000/svg"
   xmlns:sodipodi="http://sodipodi.sourceforge.net/DTD/sodipodi-0.dtd"
   xmlns:inkscape="http://www.inkscape.org/namespaces/inkscape"
   width="48"
   height="48"
   viewBox="0 0 48 48"
   id="svg2"
   version="1.1"
   inkscape:version="0.91 r13725"
   sodipodi:docname="folder-templates1.svg"
   style="fill:#4caf50">
  <metadata
     id="metadata10">
    <rdf:RDF>
      <cc:Work
         rdf:about="">
        <dc:format>image/svg+xml</dc:format>
        <dc:type
           rdf:resource="http://purl.org/dc/dcmitype/StillImage" />
        <dc:title />
      </cc:Work>
    </rdf:RDF>
  </metadata>
  <defs
     id="defs8" />
  <sodipodi:namedview
     pagecolor="#ffffff"
     bordercolor="#666666"
     borderopacity="1"
     objecttolerance="10"
     gridtolerance="10"
     guidetolerance="10"
     inkscape:pageopacity="0"
     inkscape:pageshadow="2"
     inkscape:window-width="1366"
     inkscape:window-height="713"
     id="namedview6"
     showgrid="false"
     inkscape:snap-intersection-paths="true"
     inkscape:zoom="4.880815150397978"
     inkscape:cx="8.310715217668118"
     inkscape:cy="-1.556012487477986"
     inkscape:window-x="0"
     inkscape:window-y="30"
     inkscape:window-maximized="1"
     inkscape:current-layer="svg2"
     fit-margin-top="0"
     fit-margin-left="0"
     fit-margin-right="0"
     fit-margin-bottom="0"
     inkscape:snap-bbox="true"
     inkscape:bbox-nodes="true"
     inkscape:object-paths="true"
     inkscape:object-nodes="true"
     inkscape:snap-smooth-nodes="true"
     inkscape:snap-nodes="false"
     inkscape:snap-page="true"
     inkscape:snap-midpoints="true" />
  <path
     style="fill:#4caf50"
     d="M 96 5 C 93.78999999999998 5 92.01953124999996 6.790000000000001 92.01953125 9 L 92 41 C 92 43.21000000000001 93.77046875000001 45 95.98046875 45 L 120 45 C 122.21 45 124 43.21000000000001 124 41 L 124 17 L 112 5 L 96 5 z M 110 8 L 121 19 L 110 19 L 110 8 z M 100 25 L 116 25 L 116 29 L 100 29 L 100 25 z M 100 33 L 116 33 L 116 37 L 100 37 L 100 33 z "
     id="path4337" />
  <path
     d="m 4,12 0,28 c 0,2.21 1.79,4 4,4 l 28,0 0,-4 -28,0 0,-28 -4,0 z"
     id="path4139" />
  <path
     d="m 20.05649246240878,69.7731277833423 c -2.21000000000001,0 -4,1.79000000000002 -4,4 l 0,24 c 0,2.21000000000002 1.78999999999999,4 4,4 l 24,0 c 2.21,0 4,-1.78999999999998 4,-4 l 0,-24 c 0,-2.20999999999998 -1.79,-4 -4,-4 l -24,0 z"
     id="path4137"
     inkscape:connector-curvature="0" />
  <path
     d="m 28.05649246240878,74.7731277833423 8,0 c 1.10499999999998,0 2,0.89500000000001 2,2 l 0,18 c 0,1.10500000000003 -0.89500000000002,2 -2,2 l -8,0 c -1.10500000000002,0 -2,-0.89499999999997 -2,-2 l 0,-18 c 1e-14,-1.10499999999999 0.89500000000001,-2 2,-2 z"
     id="path4135"
     inkscape:connector-curvature="0" />
  <path
     d="m 28.05649246240878,76.7731277833423 0,2 4,0 0,2 -4,0 0,2 4,0 0,2 -4,0 0,2 4,0 0,2 -4,0 0,2 4,0 0,2 -4,0 0,2 8,0 0,-18 -8,0 z"
     id="path4219"
     inkscape:connector-curvature="0" />
  <path
     id="path4141"
     d="m -33.94989235070174,11.89749461753509 8,0 c 1.10499999999999,0 2,0.895 2,2 l 0,18 c 0,1.10500000000001 -0.89500000000001,2 -2,2 l -8,0 c -1.10500000000001,0 -2,-0.89499999999999 -2,-2 l 0,-18 c 7e-15,-1.105 0.89500000000001,-2 2,-2 z"
     inkscape:connector-curvature="0" />
  <path
     id="path4143"
     d="m -33.94989235070174,13.89749461753509 0,2 4,0 0,2 -4,0 0,2 4,0 0,2 -4,0 0,2 4,0 0,2 -4,0 0,2 4,0 0,2 -4,0 0,2 8,0 0,-18 -8,0 z"
     inkscape:connector-curvature="0" />
  <path
     d="m -35.94921875,17.8984375 4,0 0,-2 -4,0 0,2 z"
     id="path4158"
     inkscape:connector-curvature="0"
     style="fill:#000000;fill-opacity:1" />
  <path
     d="M -35.94921875 21.8984375 L -31.94921875 21.8984375 L -31.94921875 19.8984375 L -35.94921875 19.8984375 L -35.94921875 21.8984375 z "
     id="path4156"
     style="fill:#000000;fill-opacity:1" />
  <path
     d="M -35.94921875 25.8984375 L -31.94921875 25.8984375 L -31.94921875 23.8984375 L -35.94921875 23.8984375 L -35.94921875 25.8984375 z "
     id="path4154"
     style="fill:#000000;fill-opacity:1" />
  <path
     d="m -35.94921875,29.8984375 4,0 0,-2 -4,0 0,2 z"
     id="path4152"
     inkscape:connector-curvature="0"
     style="fill:#000000;fill-opacity:1" />
  <path
     style="fill:#000000;fill-opacity:1"
     inkscape:connector-curvature="0"
     id="path4168"
     d="m -35.94921875,33.8984375 4,0 0,-2 -4,0 0,2 z" />
  <path
     id="path4222"
     d="m 74.41640631850904,25.80546877283635 8,0 c 1.10499999999998,0 2,0.895 2,2 l 0,18 c 0,1.10500000000001 -0.89500000000002,2 -2,2 l -8,0 c -1.10500000000003,0 -2,-0.89499999999999 -2,-2 l 0,-18 c 0,-1.105 0.895,-2 2,-2 z"
     inkscape:connector-curvature="0" />
  <path
     id="path4224"
     d="m 74.41640631850904,27.80546877283635 0,2 4,0 0,2 -4,0 0,2 4,0 0,2 -4,0 0,2 4,0 0,2 -4,0 0,2 4,0 0,2 -4,0 0,2 8,0 0,-18 -8,0 z"
     inkscape:connector-curvature="0"
     style="fill:#000000;fill-opacity:1" />
  <path
     id="rect4234"
     style="opacity:1;fill:#4caf50;fill-opacity:1;fill-rule:nonzero;stroke:none;stroke-width:3;stroke-miterlimit:4;stroke-dasharray:none;stroke-opacity:1"
     d="m 29,9 6,0 0,3 -6,0 z m 0,6 6,0 0,3 -6,0 z m 0,6 6,0 0,3 -6,0 z m 0,6 6,0 0,3 -6,0 z M 29,3 c -1.66190146541595,0 -3,1.338210145473481 -3,3 l 0,27 c 0,1.66178985452652 1.33809853458405,3 3,3 l 12,0 c 1.66190146541595,0 3,-1.33821014547348 3,-3 L 44,6 C 44,4.33821014547348 42.66190146541595,3 41,3 L 29,3 Z m 0,3 12,0 0,27 -12,0 0,-27 z M 16,4 c -2.21000000000001,0 -4.00000000000004,1.790000000000042 -4,4 l 0,24 c 0,2.20999999999998 1.78999999999999,4 4,4 l 13,0 c -1.66190146541595,0 -3,-1.33821014547348 -3,-3 l 0,-3 -8,0 0,-4 8,0 0,-4 -8,0 0,-4 8,0 0,-4 -8,0 0,-4 8,0 0,-4 C 26,5.226800772716797 26.2981973179969,4.530897329503552 26.775390625,4 L 16,4 Z" />
  <rect
     rx="2.99982213973999"
     ry="2.999620676040649"
     y="21.54396629333496"
     x="-22.33531188964844"
     height="33"
     width="18.00000190734863"
     id="rect4236"
     style="opacity:1;fill:#000000;fill-opacity:1;fill-rule:nonzero;stroke:none;stroke-width:3;stroke-miterlimit:4;stroke-dasharray:none;stroke-opacity:1" />
  <rect
     ry="0"
     rx="0"
     y="45.54396438598633"
     x="-22.33531188964844"
     height="3"
     width="6"
     id="rect4238"
     style="opacity:1;fill:#000000;fill-opacity:1;fill-rule:nonzero;stroke:none;stroke-width:3;stroke-miterlimit:4;stroke-dasharray:none;stroke-opacity:1" />
  <rect
     style="opacity:1;fill:#000000;fill-opacity:1;fill-rule:nonzero;stroke:none;stroke-width:3;stroke-miterlimit:4;stroke-dasharray:none;stroke-opacity:1"
     id="rect4240"
     width="6"
     height="3"
     x="-22.33531188964844"
     y="39.54396438598633"
     rx="0"
     ry="0" />
  <rect
     ry="0"
     rx="0"
     y="33.54396438598633"
     x="-22.33531188964844"
     height="3"
     width="6"
     id="rect4242"
     style="opacity:1;fill:#000000;fill-opacity:1;fill-rule:nonzero;stroke:none;stroke-width:3;stroke-miterlimit:4;stroke-dasharray:none;stroke-opacity:1" />
  <rect
     style="opacity:1;fill:#000000;fill-opacity:1;fill-rule:nonzero;stroke:none;stroke-width:3;stroke-miterlimit:4;stroke-dasharray:none;stroke-opacity:1"
     id="rect4244"
     width="6"
     height="3"
     x="-22.33531188964844"
     y="27.54396629333496"
     rx="0"
     ry="0" />
  <path
     id="path4359"
     d="m 78.41640631850904,18.80546877283636 0,10.99999999999999 -11,-10.99999999999999 11,0 z"
     style="fill:#000000;fill-opacity:1"
     inkscape:connector-curvature="0" />
  <path
     id="path4388"
     d="m 141.3304837405685,43.5351313726882 c -1.82325,0 -3.28388671875,1.47675000000001 -3.28388671875,3.29999999999999 l -0.01611328125,26.4 c 0,1.82324999999999 1.46063671875,3.3 3.28388671875,3.3 l 19.81611328125,0 c 1.82325,0 3.3,-1.47675000000001 3.3,-3.3 l 0,-19.8 -9.9,-9.90000000000001 -13.2,0 z m 11.55,2.47499999999999 9.075,9.075 -9.075,0 0,-9.075 z m -8.25,14.025 13.2,0 0,3.29999999999999 -13.2,0 0,-3.29999999999999 z m 0,6.59999999999997 13.2,0 0,3.30000000000001 -13.2,0 0,-3.30000000000001 z"
     style="fill:#4caf50"
     inkscape:connector-curvature="0" />
</svg>
