<svg xmlns="http://www.w3.org/2000/svg" xmlns:xlink="http://www.w3.org/1999/xlink" viewBox="0 0 96 96"><defs><clipPath id="0"><rect width="84" height="84" rx="6" x="6" y="6" fill="#fff"/></clipPath><clipPath id="1"><path d="m71.969 20c-4.314 1.766-18.16 7.513-18.5 7.656-3.87-3.15-8.912-5.598-14.12-5.875-12.646-.793-24.276 10.395-24.313 22.813-.555 11.18 4.563 21.529 9.188 31.406 3.869-1.609 17.958-7.446 18.313-7.594 3.798 3.164 8.648 5.478 13.719 5.844 12.444 1.041 24.02-9.655 24.656-21.781.903-11.343-4.344-21.858-8.75-32-.064-.158-.124-.311-.188-.469m-34.25 7.313c9.15-.001 17.201 7.683 17.625 14.06.356 5.345-1.411 12.956-10.156 13.969.324.863.769 1.77 1.406 2.656h-5.094c-.414-.963-.668-1.932-.781-2.875-4.223-1.122-7.977-5.099-8-10.625-.03-7.05 8.828-7.733 11.06-5.938.868.697.831 2.062.063 1.813-4.772-1.549-7.719 1.526-7.5 4.563.228 3.163 1.73 5.345 4.406 6.281.129-1.075.355-2.165.719-3.219h4.313c-.717 1.252-1.077 2.61-1.188 3.688 5.442-.419 6.996-5.969 6.844-8.313-.197-3.03-2.84-9.298-11.09-10.438-3.897-.538-7.109.626-9.469 2.906-2.359 2.28-3.712 4.664-3.906 8.531-.2 4 .693 6.345 3.094 11.594.857 1.874 3.239 5.651 5.094 9.438l-8.03 3.344c-2.729-6.585-6.357-12.371-6.438-23.12-.083-11.11 9.474-18.312 17.03-18.313"/></clipPath><filter x="-.192" y="-.192" width="1.384" height="1.384" color-interpolation-filters="sRGB" id="2"><feGaussianBlur stdDeviation="5.28"/></filter><linearGradient y1="92.54" x2="0" y2="7.02" id="8" gradientUnits="userSpaceOnUse" gradientTransform="matrix(1.0059 0 0 .99417 100 0)"><stop/><stop offset="1" stop-opacity=".588"/></linearGradient><linearGradient y1="6.132" x2="0" y2="90.24" id="A" xlink:href="#8" gradientUnits="userSpaceOnUse" gradientTransform="matrix(1.02381 0 0 1.0119-1.143-98.07)"/><linearGradient y1="90" x2="0" y2="5.988" id="7" gradientUnits="userSpaceOnUse"><stop stop-color="#6189bb"/><stop offset="1" stop-color="#b6cce9"/></linearGradient><linearGradient y1="-90.87" x2="0" y2="-6.761" id="9" xlink:href="#8" gradientUnits="userSpaceOnUse"/><linearGradient id="6"><stop stop-color="#fff"/><stop offset="1" stop-color="#fff" stop-opacity="0"/></linearGradient><linearGradient y1="6" x2="0" y2="63.893" id="4" xlink:href="#6" gradientUnits="userSpaceOnUse"/><linearGradient y1="20.221" x2="0" y2="138.66" id="3" xlink:href="#6" gradientUnits="userSpaceOnUse"/><linearGradient y1="15026.78" x2="0" y2="14844.77" id="5" gradientUnits="userSpaceOnUse" gradientTransform="matrix(-.25635 0 0 .25321 593.66-3728.05)"><stop stop-color="#42699a"/><stop offset="1" stop-color="#99b8e1"/></linearGradient><radialGradient cx="48" cy="90.17" r="42" id="B" xlink:href="#6" gradientUnits="userSpaceOnUse" gradientTransform="matrix(1.15731 0 0 .99591-7.551.197)"/></defs><g fill="url(#A)"><path d="m12-95.03c-5.511 0-10.03 4.52-10.03 10.03v71c0 5.511 4.52 10.03 10.03 10.03h72c5.511 0 10.03-4.52 10.03-10.03v-71c0-5.511-4.52-10.03-10.03-10.03h-72" transform="scale(1-1)" opacity=".08"/><path d="m12-94.03c-4.972 0-9.03 4.06-9.03 9.03v71c0 4.972 4.06 9.03 9.03 9.03h72c4.972 0 9.03-4.06 9.03-9.03v-71c0-4.972-4.06-9.03-9.03-9.03h-72" transform="scale(1-1)" opacity=".1"/><path d="m12-93c-4.409 0-8 3.591-8 8v71c0 4.409 3.591 8 8 8h72c4.409 0 8-3.591 8-8v-71c0-4.409-3.591-8-8-8h-72" transform="scale(1-1)" opacity=".2"/><rect width="86" height="85" rx="7" x="5" y="-92" transform="scale(1-1)" opacity=".3"/></g><rect width="84" height="84" rx="6" x="6" y="-91" transform="scale(1-1)" opacity=".45" fill="url(#9)"/><rect width="84" height="84" rx="6" x="6" y="6" fill="url(#7)"/><path d="m12 6c-3.324 0-6 2.676-6 6v2 68 2c0 .335.041.651.094.969.049.296.097.597.188.875.01.03.021.064.031.094.099.288.235.547.375.813.145.274.316.536.5.781.184.246.374.473.594.688.44.428.943.815 1.5 1.094.279.14.573.247.875.344-.256-.1-.487-.236-.719-.375-.007-.004-.024.004-.031 0-.032-.019-.062-.043-.094-.063-.12-.077-.231-.164-.344-.25-.106-.081-.213-.161-.313-.25-.178-.161-.347-.345-.5-.531-.108-.13-.218-.265-.313-.406-.025-.038-.038-.086-.063-.125-.065-.103-.13-.205-.188-.313-.101-.195-.206-.416-.281-.625-.008-.022-.024-.041-.031-.063-.032-.092-.036-.187-.063-.281-.03-.107-.07-.203-.094-.313-.073-.342-.125-.698-.125-1.063v-2-68-2c0-2.782 2.218-5 5-5h2 68 2c2.782 0 5 2.218 5 5v2 68 2c0 .364-.052.721-.125 1.063-.044.207-.088.398-.156.594-.008.022-.023.041-.031.063-.063.174-.138.367-.219.531-.042.083-.079.17-.125.25-.055.097-.127.188-.188.281-.094.141-.205.276-.313.406-.143.174-.303.347-.469.5-.011.01-.02.021-.031.031-.138.126-.285.234-.438.344-.103.073-.204.153-.313.219-.007.004-.024-.004-.031 0-.232.139-.463.275-.719.375.302-.097.596-.204.875-.344.557-.279 1.06-.666 1.5-1.094.22-.214.409-.442.594-.688.184-.246.355-.508.5-.781.14-.265.276-.525.375-.813.01-.031.021-.063.031-.094.09-.278.139-.579.188-.875.052-.318.094-.634.094-.969v-2-68-2c0-3.324-2.676-6-6-6h-72" opacity=".4" fill="url(#4)"/><path d="m12 90c-3.324 0-6-2.676-6-6v-2-68-2c0-.335.041-.651.094-.969.049-.296.097-.597.188-.875.01-.03.021-.064.031-.094.099-.288.235-.547.375-.813.145-.274.316-.536.5-.781.184-.246.374-.473.594-.688.44-.428.943-.815 1.5-1.094.279-.14.573-.247.875-.344-.256.1-.487.236-.719.375-.007.004-.024-.005-.031 0-.032.019-.062.043-.094.063-.12.077-.231.164-.344.25-.106.081-.213.161-.313.25-.178.161-.347.345-.5.531-.108.13-.218.265-.313.406-.025.038-.038.086-.063.125-.065.103-.13.205-.188.313-.101.195-.206.416-.281.625-.008.022-.024.041-.031.063-.032.092-.036.187-.063.281-.03.107-.07.203-.094.313-.073.342-.125.698-.125 1.063v2 68 2c0 2.782 2.218 5 5 5h2 68 2c2.782 0 5-2.218 5-5v-2-68-2c0-.364-.052-.721-.125-1.063-.044-.207-.088-.398-.156-.594-.008-.022-.023-.041-.031-.063-.063-.174-.138-.367-.219-.531-.042-.083-.079-.17-.125-.25-.055-.097-.127-.188-.188-.281-.094-.141-.205-.276-.313-.406-.143-.174-.303-.347-.469-.5-.011-.01-.02-.021-.031-.031-.138-.126-.285-.234-.438-.344-.103-.073-.204-.153-.313-.219-.007-.005-.024.004-.031 0-.232-.139-.463-.275-.719-.375.302.097.596.204.875.344.557.279 1.06.666 1.5 1.094.22.214.409.442.594.688.184.246.355.508.5.781.14.265.276.525.375.813.01.031.021.063.031.094.09.278.139.579.188.875.052.318.094.634.094.969v2 68 2c0 3.324-2.676 6-6 6h-72" opacity=".2" fill="url(#B)"/><rect width="66" height="66" rx="12" x="15" y="15" clip-path="url(#0)" opacity=".1" fill="url(#3)" filter="url(#2)" stroke="#fff" stroke-linecap="round" stroke-width=".5"/><g fill-rule="evenodd"><path d="m71.964 20c-4.314 1.766-18.15 7.515-18.491 7.658-3.87-3.15-8.904-5.598-14.12-5.875-12.646-.793-24.278 10.401-24.314 22.819-.555 11.18 4.564 21.52 9.189 31.397 3.869-1.609 17.938-7.454 18.293-7.602 3.798 3.164 8.663 5.495 13.734 5.86 12.444 1.041 24.01-9.674 24.641-21.8.903-11.343-4.343-21.836-8.749-31.978-.064-.158-.121-.323-.185-.481" fill="url(#5)"/><path d="m27.12 68.755c-2.729-6.585-6.347-12.387-6.427-23.14-.083-11.11 9.479-18.303 17.04-18.304 9.15-.001 17.2 7.7 17.624 14.08.383 5.757-1.672 14.13-12.281 14.07-5.065-.029-10.329-4.421-10.356-10.956-.03-7.05 8.832-7.739 11.07-5.944.868.697.842 2.077.074 1.828-4.772-1.549-7.72 1.503-7.501 4.54.297 4.12 2.749 6.571 7.145 6.78 6.341.3 8.116-5.847 7.954-8.341-.197-3.03-2.85-9.272-11.1-10.411-3.897-.538-7.127.626-9.486 2.906-2.359 2.28-3.686 4.638-3.879 8.505-.2 4 .676 6.348 3.076 11.596.857 1.874 3.252 5.656 5.107 9.443l-8.05 3.354" fill="#eeeeec"/><path d="m68.56 26.563c-2.879 1.159-5.785 2.352-8.625 3.594-1.068.626-1.017 2.097-.292 2.982 2.622 5.198 6.092 10.09 7.427 15.838.594 3.592.264 7.775-2.554 10.409-2.237 2.664-5.961 3.639-9.295 2.881-4.416-.612-8.444-4.157-8.911-8.704-.006-2.953 1.931-6.377 5.201-6.431 2.457-.233 5.407.791 6.089 3.424.873 1.959-.038 4.652-2.426 4.803-1.73.267-4.183-1.448-5.136.864-.883 2.295 1.324 4.448 3.506 4.687 4.4.866 9.715-1.228 11.11-5.773 1.704-6.284-2.639-13.322-8.902-14.907-5.39-1.279-11.838.65-14.724 5.61-2.139 3.72-2.73 8.345-1.655 12.491 2.061 6.174 7.731 10.698 13.859 12.474 5.76 1.778 12.176.046 16.67-3.85 4.906-4.03 7.599-10.477 7.133-16.8-.118-6.713-2.23-13.194-5.087-19.21-.708-1.24-.952-2.771-1.855-3.881-.402-.409-.969-.554-1.531-.5" opacity=".05"/><path d="m68.78125 27.4375a.868396 .868396 0 0 0 -.25 .0625L60.5 30.844a.868396 .868396 0 0 0 -.4375 1.1875c1.884 3.846 4.306 7.715 5.094 9.438 2.393 5.233 3.193 7.364 3 11.219-.185 3.683-1.361 5.718-3.625 7.906-2.182 2.109-5.085 3.162-8.75 2.656-3.926-.542-6.44-2.253-8.03-4.188-1.591-1.934-2.228-4.133-2.313-5.438-.065-.999.292-3.045 1.375-4.656 1.083-1.612 2.768-2.856 5.656-2.719 2.045.097 3.506.703 4.531 1.688 1.025.984 1.644 2.381 1.781 4.281.088 1.219-.435 2.447-1.5 3.219-1.065.772-2.667 1.144-4.844.438-.415-.135-1.023-.058-1.344.281-.321.34-.378.747-.375 1.094.005.694.314 1.412.969 1.938.798.641 1.898.914 3.156 1 1.258.086 2.667-.047 4.03-.5 2.728-.907 5.298-3.236 5.281-7.125-.03-6.998-5.653-11.812-11.219-11.844-5.534-.033-9.06 2.243-11 5.281-1.937 3.038-2.356 6.741-2.156 9.75.235 3.529 2.496 7.196 5.844 10.03 3.347 2.835 7.838 4.845 12.656 4.844 8.109 0 17.993-7.577 17.906-19.19-.082-10.947-3.806-16.969-6.5-23.469A.868396 .868396 0 0 0 68.78125 27.4375" opacity=".1"/><path d="m68.885 28.31c2.729 6.585 6.347 12.387 6.427 23.14.083 11.11-9.479 18.303-17.04 18.304-9.15.001-17.2-7.7-17.624-14.08-.383-5.757 1.672-14.13 12.281-14.07 5.065.029 10.329 4.421 10.356 10.956.03 7.05-8.832 7.739-11.07 5.944-.868-.697-.842-2.077-.074-1.828 4.772 1.549 7.72-1.504 7.501-4.54-.297-4.12-2.749-6.571-7.145-6.779-6.341-.3-8.116 5.847-7.954 8.341.197 3.03 2.85 9.272 11.1 10.411 3.897.538 7.127-.626 9.486-2.906 2.359-2.28 3.686-4.638 3.879-8.505.2-4-.676-6.348-3.076-11.596-.857-1.875-3.252-5.656-5.107-9.443l8.05-3.354" opacity=".2"/><path d="m68.885 27.31c2.729 6.585 6.347 12.387 6.427 23.14.083 11.11-9.479 18.303-17.04 18.304-9.15.001-17.2-7.7-17.624-14.08-.383-5.757 1.672-14.13 12.281-14.07 5.065.029 10.329 4.421 10.356 10.956.03 7.05-8.832 7.739-11.07 5.944-.868-.697-.842-2.077-.074-1.828 4.772 1.549 7.72-1.504 7.501-4.54-.297-4.12-2.749-6.571-7.145-6.779-6.341-.3-8.116 5.847-7.954 8.341.197 3.03 2.85 9.272 11.1 10.411 3.897.538 7.127-.626 9.486-2.906 2.359-2.28 3.686-4.638 3.879-8.505.2-4-.676-6.348-3.076-11.596-.857-1.875-3.252-5.656-5.107-9.443l8.05-3.354" fill="#a9c4e3"/><path d="m37.711 27.29c-7.557.001-17.1 7.196-17.02 18.307.08 10.754 3.714 16.562 6.443 23.15l8.03-3.355c-.717-1.464-1.501-2.865-2.26-4.217h-1.779v-3.211c-.437-.785-.817-1.487-1.058-2.01-2.4-5.248-3.278-7.597-3.077-11.597.194-3.868 1.535-6.202 3.895-8.482 2.359-2.28 5.575-3.461 9.472-2.923 3.903.539 6.539 2.228 8.27 4.169h1.635v2.396c.744 1.432 1.136 2.812 1.202 3.834.072 1.108-.279 2.936-1.202 4.601v5.703c4.385-2.767 5.369-8.177 5.097-12.268-.424-6.379-8.496-14.09-17.646-14.09" fill="#eeeeec"/><path d="m15 46.938c-.105 10.667 4.78 20.581 9.219 30.06 3.869-1.609 17.958-7.446 18.313-7.594 3.798 3.164 8.648 5.478 13.719 5.844 12.444 1.041 24.02-9.655 24.656-21.781.077-.963.101-1.924.094-2.875-.014.621-.044 1.249-.094 1.875-.632 12.13-12.213 22.822-24.656 21.781-5.071-.365-9.92-2.68-13.719-5.844-.355.148-14.443 5.985-18.313 7.594-4.301-9.186-9.02-18.774-9.219-29.06" opacity=".4" fill="#fff"/><path d="m71.969 20c-4.314 1.766-18.16 7.513-18.5 7.656-3.87-3.15-8.912-5.598-14.12-5.875-12.646-.793-24.276 10.395-24.313 22.813-.555 11.18 4.563 21.529 9.188 31.406 3.869-1.609 17.958-7.446 18.313-7.594 3.798 3.164 8.648 5.478 13.719 5.844 12.444 1.041 24.02-9.655 24.656-21.781.903-11.343-4.344-21.858-8.75-32-.064-.158-.123-.311-.188-.469m-.875 2.156c4.315 9.861 9.02 19.787 8.188 30.19a1.64252 1.64252 0 0 0 0 .03125c-.58 11.134-11.478 21.21-22.906 20.25-4.65-.335-9.208-2.493-12.781-5.469a1.64252 1.64252 0 0 0 -1.6875 -.28125c-.239.1-11.907 4.95-16.844 7-4.427-9.444-8.909-19.07-8.406-29.19a1.64252 1.64252 0 0 0 .03125 -.09375c.033-11.395 10.942-21.916 22.563-21.19 4.758.253 9.536 2.559 13.188 5.531a1.64252 1.64252 0 0 0 1.65625 .25c.292-.121 11.763-4.876 17-7.03" opacity=".1"/><path d="m71.969 20c-4.314 1.766-18.16 7.513-18.5 7.656-3.87-3.15-8.912-5.598-14.12-5.875-12.646-.793-24.276 10.395-24.313 22.813-.555 11.18 4.563 21.529 9.188 31.406 3.869-1.609 17.958-7.446 18.313-7.594 3.798 3.164 8.648 5.478 13.719 5.844 12.444 1.041 24.02-9.655 24.656-21.781.903-11.343-4.344-21.858-8.75-32-.064-.158-.123-.311-.188-.469m-.375.969c4.395 10.1 9.47 20.432 8.594 31.438a.729354 .729354 0 0 0 0 .03125c-.609 11.686-11.882 22.1-23.875 21.09-4.884-.352-9.614-2.607-13.313-5.688a.729354 .729354 0 0 0 -.75 -.125c-.301.126-13.242 5.479-17.656 7.313-4.543-9.688-9.375-19.708-8.844-30.406a.729354 .729354 0 0 0 0 -.03125c.035-11.964 11.372-22.858 23.563-22.09 5.01.266 9.914 2.648 13.688 5.719a.729354 .729354 0 0 0 .75 .125c.321-.133 13.06-5.413 17.844-7.375" opacity=".15"/><path d="m71.969 20c-4.314 1.766-18.16 7.513-18.5 7.656-3.87-3.15-8.912-5.598-14.12-5.875-12.646-.793-24.276 10.395-24.313 22.813-.017.334.007.668 0 1 .036-12.418 11.666-23.605 24.313-22.813 5.213.277 10.255 2.725 14.13 5.875.345-.143 14.186-5.891 18.5-7.656.064.158.123.311.188.469 3.855 8.874 8.353 18.04 8.813 27.781-.184-10.121-4.826-19.604-8.813-28.781-.064-.158-.123-.311-.188-.469" opacity=".2"/><g clip-path="url(#1)"><path d="m37.719 26.344c-8.806.001-19.09 8.03-19 20.281.084 11.198 3.915 17.518 6.563 23.906-.001-.003.095.19.094.188-.001-.003.095.159.094.156-.002-.002.127.159.125.156-.002-.002.127.158.125.156-.002-.002.159.127.156.125-.002-.002.159.095.156.094-.003-.002.19.126.188.125-.003-.001.159.064.156.063-.003-.001.19.063.188.063-.003-.001.19.063.188.063-.003-.001.222.031.219.031-.003 0 .19 0 .188 0-.003 0 .19-.032.188-.031-.003 0 .19-.032.188-.031-.003.001.19-.032.188-.031-.003.001.19-.064.188-.063l8.03-3.344a1.040498 1.040498 0 0 0 .03125 -.03125c-.003.001.159-.064.156-.063-.003.001.19-.127.188-.125-.002.002.159-.127.156-.125-.002.002.127-.127.125-.125-.002.002.127-.159.125-.156-.002.002.127-.159.125-.156-.002.003.095-.19.094-.188-.001.003.064-.19.063-.188-.001.003.063-.19.063-.188-.001.003.063-.19.063-.188 0 .003 0-.222 0-.219 0 .003 0-.19 0-.188 0 .003 0-.19 0-.188 0 .003-.063-.222-.063-.219.001.003-.064-.19-.063-.188.001.003-.064-.159-.063-.156a1.040498 1.040498 0 0 0 0 -.03125c-1.918-3.916-4.368-7.888-5.063-9.406-2.388-5.222-3.122-6.952-2.938-10.625.173-3.462 1.165-5.144 3.313-7.219 1.961-1.895 4.44-2.84 7.813-2.375 3.668.506 5.879 2.069 7.313 3.813 1.424 1.731 2.028 3.77 2.094 4.781.04.622-.314 2.617-1.219 3.969-.934 1.397-2.118 2.401-4.656 2.281-1.842-.087-3.037-.632-3.844-1.406-.806-.774-1.315-1.831-1.438-3.531-.06-.826.333-1.694 1.094-2.25.769-.563 1.934-.901 3.844-.281.884.287 1.771.114 2.469-.625.559-.592.691-1.347.688-1.844-.008-1.023-.466-2.083-1.375-2.813-1.07-.859-2.43-1.155-3.813-1.25-1.409-.097-2.928.061-4.438.563-3.073 1.021-6.05 3.806-6.03 8.188.032 7.595 6.107 12.902 12.313 12.938 5.839.034 9.803-2.402 11.938-5.75 2.121-3.328 2.524-7.267 2.313-10.438-.263-3.955-2.697-7.83-6.219-10.813-3.526-2.986-8.248-5.094-13.375-5.094" opacity=".05"/><path d="m37.719 27.375c-8.161.001-18.06 7.592-17.969 19.25.082 10.965 3.81 17.01 6.5 23.5a.950495 .950495 0 0 0 1.25 .5l8.03-3.344a.950495 .950495 0 0 0 .46875 -1.28125c-1.886-3.851-4.281-7.729-5.063-9.438-2.393-5.232-3.224-7.284-3.03-11.125.184-3.666 1.373-5.73 3.625-7.906 2.166-2.093 5.04-3.159 8.688-2.656 3.907.539 6.39 2.268 7.969 4.188 1.579 1.92 2.229 4.09 2.313 5.375.063.975-.304 3.02-1.375 4.625-1.071 1.601-2.734 2.854-5.594 2.719-2.03-.096-3.492-.719-4.5-1.688-1.01-.968-1.614-2.333-1.75-4.219-.086-1.19.457-2.394 1.5-3.156 1.043-.763 2.626-1.137 4.781-.438.436.142 1.065.018 1.406-.344.342-.362.409-.764.406-1.125-.006-.722-.325-1.458-1-2-.821-.659-1.95-.944-3.219-1.031-1.269-.087-2.687.074-4.063.531-2.751.914-5.329 3.264-5.313 7.188.03 7.04 5.669 11.874 11.281 11.906 5.555.033 9.112-2.221 11.06-5.281 1.95-3.06 2.357-6.791 2.156-9.813-.237-3.561-2.515-7.247-5.875-10.09-3.36-2.846-7.847-4.844-12.688-4.844" opacity=".1"/><path d="m27.12 69.75c-2.729-6.585-6.347-12.387-6.427-23.14-.083-11.11 9.479-18.303 17.04-18.304 9.15-.001 17.2 7.7 17.624 14.08.383 5.757-1.672 14.13-12.281 14.07-5.065-.029-10.329-4.421-10.356-10.956-.03-7.05 8.832-7.739 11.07-5.944.868.697.842 2.077.074 1.828-4.772-1.549-7.72 1.503-7.501 4.54.297 4.12 2.749 6.571 7.145 6.78 6.341.3 8.116-5.847 7.954-8.341-.197-3.03-2.85-9.272-11.1-10.411-3.897-.538-7.127.626-9.486 2.906-2.359 2.28-3.686 4.638-3.879 8.505-.2 4 .676 6.348 3.076 11.596.857 1.874 3.252 5.656 5.107 9.443l-8.05 3.354" opacity=".2"/></g></g></svg>