<?xml version="1.0" encoding="UTF-8" standalone="no"?>
<svg
   xmlns:dc="http://purl.org/dc/elements/1.1/"
   xmlns:cc="http://creativecommons.org/ns#"
   xmlns:rdf="http://www.w3.org/1999/02/22-rdf-syntax-ns#"
   xmlns:svg="http://www.w3.org/2000/svg"
   xmlns="http://www.w3.org/2000/svg"
   xmlns:sodipodi="http://sodipodi.sourceforge.net/DTD/sodipodi-0.dtd"
   xmlns:inkscape="http://www.inkscape.org/namespaces/inkscape"
   fill="#FFEB3B"
   width="48"
   height="48"
   viewBox="0 0 48 48"
   id="svg2"
   version="1.1"
   inkscape:version="0.91 r13725"
   sodipodi:docname="application-vnd.ms-publisher.svg">
  <metadata
     id="metadata10">
    <rdf:RDF>
      <cc:Work
         rdf:about="">
        <dc:format>image/svg+xml</dc:format>
        <dc:type
           rdf:resource="http://purl.org/dc/dcmitype/StillImage" />
        <dc:title />
      </cc:Work>
    </rdf:RDF>
  </metadata>
  <defs
     id="defs8" />
  <sodipodi:namedview
     pagecolor="#ffffff"
     bordercolor="#666666"
     borderopacity="1"
     objecttolerance="10"
     gridtolerance="10"
     guidetolerance="10"
     inkscape:pageopacity="0"
     inkscape:pageshadow="2"
     inkscape:window-width="1366"
     inkscape:window-height="713"
     id="namedview6"
     showgrid="false"
     inkscape:zoom="5.512044289728467"
     inkscape:cx="68.5613560810793"
     inkscape:cy="35.78764728943823"
     inkscape:window-x="0"
     inkscape:window-y="30"
     inkscape:window-maximized="1"
     inkscape:current-layer="svg2"
     inkscape:snap-bbox="true"
     inkscape:bbox-paths="true"
     inkscape:bbox-nodes="true"
     inkscape:snap-bbox-edge-midpoints="true"
     inkscape:snap-bbox-midpoints="true"
     inkscape:snap-object-midpoints="true" />
  <path
     style="fill:#008272;fill-opacity:1"
     d="M 12 4 C 9.789999999999999 4 8.019531349999999 5.790000000000001 8.01953125 8 L 8 40 C 8 42.21 9.77046795 44 11.98046875 44 L 36 44 C 38.21 44 40 42.21 40 40 L 40 16 L 28 4 L 12 4 z M 26 7 L 37 18 L 26 18 L 26 7 z M 18.142578125 20.408203125 C 19.089784125 20.408203125 20.875 21.1594545 20.875 23.5546875 C 20.875 25.0299325 20.31950575 25.883834 19.46484375 27.125 C 18.97490975 27.838126 17.832231875 29.76095200000001 17.451171875 30.953125 C 17.070111875 32.139854 17.36316625 33.04882812500002 17.84765625 33.048828125 C 18.32670225 33.048828125 18.784871 32.455945625 19.0625 32.134765625 C 19.312911 31.862580625 20.91931125 29.95730675000002 21.55078125 29.16796875 C 22.36733824999999 28.14999475000002 24.474158125 26.07031249999997 26.923828125 26.0703125 C 30.124730125 26.0703125 31.14723487500001 28.84029375000002 31.310546875 30.63671875 L 34 30.63671875 L 34 33.359375 L 31.326171875 33.359375 C 30.896118875 38.552675 27.989908125 40.00000000000002 26.220703125 40 C 24.299073125 40 22.73046875 38.48716437499999 22.73046875 36.630859375 C 22.73046875 34.774554375 24.467418 31.4811195 28.59375 30.7734375 C 28.47398900000001 29.9187745 28.452384375 28.818359375 26.677734375 28.818359375 C 25.316807375 28.818359375 23.553705125 30.94222812500002 22.236328125 32.564453125 C 21.027824125 34.056030125 20.069250875 35.23126474999997 18.904296875 35.57421875 C 17.918984875 35.86273575 16.845852875 35.67847075 16.029296875 35.07421875 C 15.082090875 34.37742375 14.56640625 33.22366812500003 14.56640625 31.830078125 C 14.56640625 29.18987912500001 17.4075015 25.41625637500003 17.6796875 24.958984375 C 17.9954205 24.43094437500001 18.544786375 23.522020125 18.005859375 23.298828125 C 17.662905375 23.157292125 16.900790875 23.85436250000002 16.138671875 24.6328125 L 14.22265625 22.78125 C 14.46217925 22.48728900000001 14.78927825 22.16733662500001 15.17578125 21.775390625 C 15.45341025 21.497760625 16.705439125 20.408203125 18.142578125 20.408203125 z M 28.583984375 33.5390625 C 26.243188375 34.1542025 25.453125 35.89558312500001 25.453125 36.548828125 C 25.453125 37.055093125 25.91639625 37.337890625 26.25390625 37.337890625 C 27.01602525 37.337890625 28.24647437499999 36.47322249999999 28.583984375 33.5390625 z "
     id="path4140" />
</svg>
