<?xml version="1.0" encoding="UTF-8" standalone="no"?>
<!-- Created with Inkscape (http://www.inkscape.org/) -->

<svg
   xmlns:dc="http://purl.org/dc/elements/1.1/"
   xmlns:cc="http://creativecommons.org/ns#"
   xmlns:rdf="http://www.w3.org/1999/02/22-rdf-syntax-ns#"
   xmlns:svg="http://www.w3.org/2000/svg"
   xmlns="http://www.w3.org/2000/svg"
   xmlns:sodipodi="http://sodipodi.sourceforge.net/DTD/sodipodi-0.dtd"
   xmlns:inkscape="http://www.inkscape.org/namespaces/inkscape"
   width="47.466957mm"
   height="17.097023mm"
   viewBox="0 0 168.19001 60.580003"
   id="svg4823"
   version="1.1"
   inkscape:version="0.91 r13725"
   sodipodi:docname="darkcoin-logo.svg">
  <defs
     id="defs4825" />
  <sodipodi:namedview
     id="base"
     pagecolor="#ffffff"
     bordercolor="#666666"
     borderopacity="1.0"
     inkscape:pageopacity="0.0"
     inkscape:pageshadow="2"
     inkscape:zoom="0.35"
     inkscape:cx="-432.33357"
     inkscape:cy="361.71858"
     inkscape:document-units="px"
     inkscape:current-layer="layer1"
     showgrid="false"
     fit-margin-top="0"
     fit-margin-left="0"
     fit-margin-right="0"
     fit-margin-bottom="0"
     inkscape:window-width="1366"
     inkscape:window-height="713"
     inkscape:window-x="0"
     inkscape:window-y="30"
     inkscape:window-maximized="1" />
  <metadata
     id="metadata4828">
    <rdf:RDF>
      <cc:Work
         rdf:about="">
        <dc:format>image/svg+xml</dc:format>
        <dc:type
           rdf:resource="http://purl.org/dc/dcmitype/StillImage" />
        <dc:title></dc:title>
      </cc:Work>
    </rdf:RDF>
  </metadata>
  <g
     inkscape:label="Layer 1"
     inkscape:groupmode="layer"
     id="layer1"
     transform="translate(-378.76214,-833.50078)">
    <g
       id="Logo"
       transform="translate(-63.237857,330.92478)">
      <path
         d="m 540.787,502.576 -23.488,0 -2.927,0 -4.696,0 -0.522,0 -4.388,0 -0.77,0 -0.704,0 10.654,13.723 6.034,7.791 0,-13.125 18.292,0 c 4.398,0 6.133,1.221 6.133,6.035 l 0,4.508 c 0,4.807 -1.734,6.066 -6.133,6.066 l -8.785,0 -6.197,0 -2.015,0 -1.295,0 -0.756,0 -1.144,0 -12.161,-15.672 -11.748,0 18.907,24.322 0.513,0 7.334,0 19.861,0 c 10.313,0 13.94,-3.465 13.94,-11.717 l 0,-10.254 c 0.002,-8.267 -3.626,-11.677 -13.939,-11.677 z"
         id="path2063"
         inkscape:connector-curvature="0"
         style="fill:#3397cc" />
      <path
         d="m 442,546.816 14.917,0 c 4.94,0 6.693,1.596 6.693,5.625 l 0,4.875 c 0,4.027 -1.753,5.641 -6.693,5.641 l -14.917,0 0,-16.141 z m 4.959,11.961 8.776,0 c 2.092,0 2.915,-0.557 2.915,-2.867 l 0,-2.236 c 0,-2.23 -0.823,-2.846 -2.915,-2.846 l -8.776,0 0,7.949 z"
         id="path2065"
         inkscape:connector-curvature="0"
         style="fill:#333333" />
      <path
         d="m 491.986,546.816 14.912,0 c 3.83,0 4.826,1.877 4.826,4.779 l 0,1.076 c 0,2.113 -0.471,3.381 -2.76,3.941 l 0,0 c 1.495,0.291 2.71,0.961 2.71,3.578 l 0,2.766 -4.925,0 0,-1.932 c 0,-1.73 -0.5,-2.283 -2.053,-2.283 l -7.786,0 0,4.215 -4.925,0 0,-16.14 z m 4.925,7.955 8.2,0 c 1.299,0 1.817,-0.607 1.817,-1.766 l 0,-0.531 c 0,-1.416 -0.755,-1.646 -2.286,-1.646 l -7.731,0 0,3.943 z"
         id="path2067"
         inkscape:connector-curvature="0"
         style="fill:#333333" />
      <path
         d="m 537.684,552.678 c 0,-4.135 1.337,-6.086 5.716,-6.086 l 8.627,0 c 3.944,0 5.035,1.883 5.035,4.033 l 0,1.354 -1.925,0 0,-0.695 c 0,-2.766 -1.693,-2.875 -3.625,-2.875 l -7.912,0 c -2.103,0 -3.761,0.627 -3.761,3.395 l 0,6.086 c 0,2.811 1.658,3.459 3.761,3.459 l 7.684,0 c 2.916,0 3.801,-0.648 3.801,-2.813 l 0,-0.984 1.979,0 0,1.02 c 0,2.965 -0.905,4.584 -5.441,4.584 l -8.223,0 c -4.379,0 -5.716,-2.006 -5.716,-6.057 l 0,-4.421 z"
         id="path2069"
         inkscape:connector-curvature="0"
         style="fill:#3397cc" />
      <path
         d="m 560.352,552.678 c 0,-4.135 1.348,-6.086 5.748,-6.086 l 9.309,0 c 4.315,0 5.697,1.951 5.697,6.086 l 0,4.42 c 0,4.051 -1.382,6.057 -5.697,6.057 l -9.309,0 c -4.4,0 -5.748,-2.006 -5.748,-6.057 l 0,-4.42 z m 18.587,-0.875 c 0,-2.768 -1.646,-3.395 -3.784,-3.395 l -8.831,0 c -2.1,0 -3.792,0.627 -3.792,3.395 l 0,6.086 c 0,2.811 1.692,3.459 3.792,3.459 l 8.831,0 c 2.138,0 3.784,-0.648 3.784,-3.459 l 0,-6.086 z"
         id="path2071"
         inkscape:connector-curvature="0"
         style="fill:#3397cc" />
      <path
         d="m 584.417,546.816 2.229,0 0,16.141 -2.229,0 0,-16.141 z"
         id="path2073"
         inkscape:connector-curvature="0"
         style="fill:#3397cc" />
      <path
         d="m 590.006,546.816 3.244,0 14.764,14.168 0,-14.168 2.176,0 0,16.141 -3.252,0 -14.752,-14.223 0,14.223 -2.18,0 0,-16.141 z"
         id="path2075"
         inkscape:connector-curvature="0"
         style="fill:#3397cc" />
      <polygon
         points="489.035,562.957 480.158,546.816 473.737,546.816 465.033,562.957 470.531,562.957 476.961,550.527 483.543,562.957 "
         id="polygon2077"
         style="fill:#333333" />
      <polygon
         points="515.059,546.816 515.059,562.957 520.008,562.957 520.008,558.398 520.008,556.734 520.008,554.844 520.008,554.676 520.008,552.721 520.008,552.027 520.008,546.816 "
         id="polygon2079"
         style="fill:#333333" />
      <polyline
         points="529.329,562.957 536.341,562.957 526.545,554.676 535.329,546.816 528.6,546.816      520.156,554.785    "
         id="polyline2081"
         style="fill:#333333" />
    </g>
  </g>
</svg>
