<svg xmlns="http://www.w3.org/2000/svg" fill="#FF9800" viewBox="0 0 48 48"><path d="m8 8c-2.21 0-3.98 1.79-3.98 4l-.02 24c0 2.21 1.79 4 4 4h32c2.21 0 4-1.79 4-4v-20c0-2.21-1.79-4-4-4h-16l-4-4h-12m20.03711 8a10 10 0 0 1 9.201172 6.173828 10 10 0 0 1 -3.681641 12.140625 10 10 0 0 1 -12.626953 -1.244141l1.416-1.416a8 8 0 0 0 5.654297 2.345703 8 8 0 0 0 8 -8 8 8 0 0 0 -8 -8 8 8 0 0 0 -8 8h3l-4 4-4-4h3a10 10 0 0 1 8.04883 -9.808594 10 10 0 0 1 1.988281 -.191406m-1.037 6h2v4.664l4.309 1.785-.766 1.848-5.543-2.297v-6"/></svg>