<?xml version="1.0" encoding="UTF-8" standalone="no"?>
<svg
   xmlns:dc="http://purl.org/dc/elements/1.1/"
   xmlns:cc="http://creativecommons.org/ns#"
   xmlns:rdf="http://www.w3.org/1999/02/22-rdf-syntax-ns#"
   xmlns:svg="http://www.w3.org/2000/svg"
   xmlns="http://www.w3.org/2000/svg"
   xmlns:sodipodi="http://sodipodi.sourceforge.net/DTD/sodipodi-0.dtd"
   xmlns:inkscape="http://www.inkscape.org/namespaces/inkscape"
   fill="#CDDC39"
   width="48"
   height="48"
   viewBox="0 0 48 48"
   id="svg2"
   version="1.1"
   inkscape:version="0.91 r13725"
   sodipodi:docname="mail-move.svg">
  <metadata
     id="metadata10">
    <rdf:RDF>
      <cc:Work
         rdf:about="">
        <dc:format>image/svg+xml</dc:format>
        <dc:type
           rdf:resource="http://purl.org/dc/dcmitype/StillImage" />
      </cc:Work>
    </rdf:RDF>
  </metadata>
  <defs
     id="defs8" />
  <sodipodi:namedview
     pagecolor="#ffffff"
     bordercolor="#666666"
     borderopacity="1"
     objecttolerance="10"
     gridtolerance="10"
     guidetolerance="10"
     inkscape:pageopacity="0"
     inkscape:pageshadow="2"
     inkscape:window-width="1366"
     inkscape:window-height="713"
     id="namedview6"
     showgrid="false"
     inkscape:snap-bbox="true"
     inkscape:bbox-nodes="true"
     inkscape:zoom="5.512044273741688"
     inkscape:cx="-4.499306188809825"
     inkscape:cy="9.727809126380027"
     inkscape:window-x="0"
     inkscape:window-y="30"
     inkscape:window-maximized="1"
     inkscape:current-layer="svg2" />
  <path
     id="path4155"
     style="opacity:1;fill:#4caf50;fill-opacity:1;fill-rule:nonzero;stroke:none;stroke-width:3;stroke-miterlimit:4;stroke-dasharray:none;stroke-opacity:1"
     d="m 36,4 c 0.5525,0 1.078046875,0.112109375000001 1.556640625,0.314453125 C 38.035234375,4.516796875 38.46625,4.81 38.828125,5.171875 39.19,5.533750000000001 39.483203125,5.964765625 39.685546875,6.443359375 39.887890625,6.921953125 40,7.4475 40,8 L 40,4 36,4 Z M 4,36 C 3.4475,36 2.921953125,35.887890625 2.443359375,35.685546875 1.964765625,35.483203125 1.53375,35.19 1.171875,34.828125 0.8100000000000001,34.46625 0.516796875,34.035234375 0.314453125,33.556640625 0.112109375,33.078046875 0,32.5525 0,32 l 0,4 4,0 z M 4,4 C 3.4475,4 2.9220751953125,4.112109375000001 2.4453125,4.314453125 1.9685498046875,4.516796875 1.54107421875,4.81 1.181640625,5.171875 0.8222070312500001,5.533750000000001 0.5305908203124999,5.964765625 0.330078125,6.443359375 0.1295654296875001,6.921953125 0.0195312499999998,7.4475 0.01953125,8 L 0,32 c 0,0.5525 0.112109375,1.078046875 0.314453125,1.556640625 C 0.516796875,34.035234375 0.8100000000000001,34.46625 1.171875,34.828125 1.53375,35.19 1.964765625,35.483203125 2.443359375,35.685546875 2.921953125,35.887890625 3.4475,36 4,36 L 4,8 40,8 C 40,7.4475 39.887890625,6.921953125 39.685546875,6.443359375 39.483203125,5.964765625 39.19,5.533750000000001 38.828125,5.171875 38.46625,4.81 38.035234375,4.516796875 37.556640625,4.314453125 37.078046875,4.112109375000001 36.5525,4 36,4 L 4,4 Z" />
  <path
     d="m 44,12 -32,0 c -2.210000000000001,0 -3.98,1.79 -3.98,4 L 8,40 c 0,2.21 1.789999999999999,4 4,4 l 32,0 c 2.21,0 4,-1.79 4,-4 l 0,-24 c 0,-2.21 -1.79,-4 -4,-4 z m 0,8 -16,10 -16,-10 0,-4 16,10 16,-10 0,4 z"
     id="path4"
     inkscape:connector-curvature="0" />
</svg>
