<?xml version="1.0" encoding="UTF-8" standalone="no"?>
<svg
   xmlns:dc="http://purl.org/dc/elements/1.1/"
   xmlns:cc="http://creativecommons.org/ns#"
   xmlns:rdf="http://www.w3.org/1999/02/22-rdf-syntax-ns#"
   xmlns:svg="http://www.w3.org/2000/svg"
   xmlns="http://www.w3.org/2000/svg"
   xmlns:sodipodi="http://sodipodi.sourceforge.net/DTD/sodipodi-0.dtd"
   xmlns:inkscape="http://www.inkscape.org/namespaces/inkscape"
   fill="#03A9F4"
   width="48"
   height="48"
   viewBox="0 0 48 48"
   id="svg2"
   version="1.1"
   inkscape:version="0.91 r13725"
   sodipodi:docname="scanner.svg">
  <metadata
     id="metadata10">
    <rdf:RDF>
      <cc:Work
         rdf:about="">
        <dc:format>image/svg+xml</dc:format>
        <dc:type
           rdf:resource="http://purl.org/dc/dcmitype/StillImage" />
      </cc:Work>
    </rdf:RDF>
  </metadata>
  <defs
     id="defs8" />
  <sodipodi:namedview
     pagecolor="#ffffff"
     bordercolor="#666666"
     borderopacity="1"
     objecttolerance="10"
     gridtolerance="10"
     guidetolerance="10"
     inkscape:pageopacity="0"
     inkscape:pageshadow="2"
     inkscape:window-width="1366"
     inkscape:window-height="713"
     id="namedview6"
     showgrid="false"
     inkscape:snap-bbox="true"
     inkscape:bbox-nodes="true"
     inkscape:snap-smooth-nodes="true"
     inkscape:object-nodes="true"
     inkscape:zoom="3.795750125125504"
     inkscape:cx="-19.31246054980472"
     inkscape:cy="13.71350097029673"
     inkscape:window-x="0"
     inkscape:window-y="30"
     inkscape:window-maximized="1"
     inkscape:current-layer="svg2" />
  <g
     style="fill:#03A9F4"
     id="g4148">
    <path
       d="M 10 6 C 7.79 6 6.000000000000001 7.790000000000001 6 10 L 6 38 C 6 40.21 7.790000000000001 42 10 42 L 24 42 L 24 38 L 10 38 L 10 10 L 24 10 L 24 6 L 10 6 z M 28 6 L 28 10 L 38 10 L 38 38 L 28 38 L 28 42 L 38 42 C 40.21 42 42 40.21 42 38 L 42 10 C 42 7.79 40.21 6.000000000000001 38 6 L 28 6 z "
       id="path4140" />
  </g>
  <rect
     style="opacity:1;fill:#03A9F4;fill-opacity:1;fill-rule:nonzero;stroke:none;stroke-width:4;stroke-miterlimit:4;stroke-dasharray:none;stroke-opacity:1"
     id="rect4157"
     width="4"
     height="44"
     x="20"
     y="2" />
  <path
     style="fill:#03A9F4"
     d="M -56.943359375 -3.458984375 C -59.153359375 -3.458984375 -60.94335937500001 -1.668984375 -60.943359375 0.541015625 L -60.943359375 28.541015625 C -60.943359375 30.751015625 -59.153359375 32.541015625 -56.943359375 32.541015625 L -28.943359375 32.541015625 C -26.733359375 32.541015625 -24.943359375 30.75101562499999 -24.943359375 28.541015625 L -24.943359375 0.541015625 C -24.943359375 -1.668984375 -26.733359375 -3.458984375 -28.943359375 -3.458984375 L -56.943359375 -3.458984375 z M -53.83203125 0.541015625 L -32.0546875 0.541015625 C -30.3357986111111 0.541015625 -28.943359375 1.933454861111111 -28.943359375 3.65234375 L -28.943359375 25.4296875 C -28.943359375 27.14857638888888 -30.3357986111111 28.541015625 -32.0546875 28.541015625 L -53.83203125 28.541015625 C -55.55092013888889 28.541015625 -56.943359375 27.14857638888889 -56.943359375 25.4296875 L -56.943359375 3.65234375 C -56.94335937499999 1.933454861111111 -55.55092013888889 0.541015625 -53.83203125 0.541015625 z "
     id="path4187" />
  <path
     style="fill:#03A9F4"
     d="m 17,27 5,6.01 7,-9.01 9,12 -28,0 7,-9 z"
     id="path4164"
     inkscape:connector-curvature="0" />
</svg>
