<?xml version="1.0" encoding="UTF-8" standalone="no"?>
<svg
   xmlns:dc="http://purl.org/dc/elements/1.1/"
   xmlns:cc="http://creativecommons.org/ns#"
   xmlns:rdf="http://www.w3.org/1999/02/22-rdf-syntax-ns#"
   xmlns:svg="http://www.w3.org/2000/svg"
   xmlns="http://www.w3.org/2000/svg"
   xmlns:sodipodi="http://sodipodi.sourceforge.net/DTD/sodipodi-0.dtd"
   xmlns:inkscape="http://www.inkscape.org/namespaces/inkscape"
   fill="#03A9F4"
   width="48"
   height="48"
   viewBox="0 0 48 48"
   id="svg2"
   version="1.1"
   inkscape:version="0.91 r13725"
   sodipodi:docname="xfce-display-external1.svg">
  <metadata
     id="metadata10">
    <rdf:RDF>
      <cc:Work
         rdf:about="">
        <dc:format>image/svg+xml</dc:format>
        <dc:type
           rdf:resource="http://purl.org/dc/dcmitype/StillImage" />
        <dc:title></dc:title>
      </cc:Work>
    </rdf:RDF>
  </metadata>
  <defs
     id="defs8" />
  <sodipodi:namedview
     pagecolor="#ffffff"
     bordercolor="#666666"
     borderopacity="1"
     objecttolerance="10"
     gridtolerance="10"
     guidetolerance="10"
     inkscape:pageopacity="0"
     inkscape:pageshadow="2"
     inkscape:window-width="1366"
     inkscape:window-height="713"
     id="namedview6"
     showgrid="false"
     inkscape:snap-bbox="true"
     inkscape:bbox-nodes="true"
     inkscape:zoom="2.07209406463306"
     inkscape:cx="-107.7171739840674"
     inkscape:cy="-23.24406017893638"
     inkscape:window-x="0"
     inkscape:window-y="30"
     inkscape:window-maximized="1"
     inkscape:current-layer="svg2"
     inkscape:object-paths="true"
     inkscape:snap-intersection-paths="true"
     inkscape:object-nodes="true"
     inkscape:snap-smooth-nodes="true"
     inkscape:snap-midpoints="true"
     inkscape:snap-nodes="false" />
  <path
     id="path4135"
     style="fill:#03A9F4"
     d="m -34.060546875,5.390625 -4,0 0,3.999999999999989 4,0 0,-3.999999999999989 z m 0,7.999999999999981 -4,0 0,4 4,0 0,-4.00000000000002 z m 0,-15.999999999999991 c -2.21,0 -4,1.7899999999999995 -4,4.000000000000011 l 4,0 0,-4 z m 8,24.00000000000001 -4,0 0,4 4,0 0,-4 z m -8,4 0,-4 -4,0 c 0,2.21000000000001 1.79,4 4,4 z m 20,0 c 2.21,0 4,-1.78999999999999 4,-4 l -4,0 0,4 z m -8,0 4,0 0,-4 -4,0 0,4 z m -4,-36 c -2.21,0 -4,1.789999999999999 -4,4 l 0,20 c 0,2.21 1.79,4 4,4 l 20,0 c 2.210000000000001,0 4,-1.79 4,-4 l 0,-20 c 0,-2.210000000000001 -1.789999999999999,-4 -4,-4 l -20,0 z m 0,4 20,0 0,20 -20,0 0,-20 z"
     inkscape:connector-curvature="0" />
  <g
     style="fill:#03A9F4"
     id="g4229"
     transform="translate(-85.76665896255755,31.84880196761781)">
    <path
       id="path4221"
       d="M 42,6 6,6 C 3.79,6 2,7.79 2,10 l 0,24 c 0,2.21 1.79,4 4,4 l 10,0 0,4 16,0 0,-4 10,0 c 2.21,0 3.98,-1.79 3.98,-4 L 46,10 C 46,7.79 44.21,6 42,6 Z m 0,28 -36,0 0,-24 36,0 0,24 z"
       inkscape:connector-curvature="0" />
  </g>
  <g
     transform="matrix(0.6363636363636363,0,0,0.6363636363636363,64.93886842490424,54.05216161998807)"
     id="g4250"
     style="fill:#03A9F4">
    <path
       inkscape:connector-curvature="0"
       d="M 42,6 6,6 C 3.79,6 2,7.79 2,10 l 0,24 c 0,2.21 1.79,4 4,4 l 10,0 0,4 16,0 0,-4 10,0 c 2.21,0 3.98,-1.79 3.98,-4 L 46,10 C 46,7.79 44.21,6 42,6 Z m 0,28 -36,0 0,-24 36,0 0,24 z"
       id="path4252" />
  </g>
  <path
     style="fill:#03A9F4"
     d="M -78.060546875 -10.609375 C -80.27054687499998 -10.609375 -82.060546875 -8.819374999999999 -82.060546875 -6.609375 L -82.060546875 17.390625 C -82.060546875 19.600625 -80.27054687499998 21.390625 -78.060546875 21.390625 L -68.060546875 21.390625 L -52.060546875 21.390625 L -42.060546875 21.390625 C -39.850546875 21.390625 -38.08007812500001 19.600625 -38.080078125 17.390625 L -38.060546875 -6.609375 C -38.060546875 -8.819375000000001 -39.850546875 -10.609375 -42.060546875 -10.609375 L -78.060546875 -10.609375 z M -78.060546875 -6.609375 L -42.060546875 -6.609375 L -42.060546875 17.390625 L -78.060546875 17.390625 L -78.060546875 -6.609375 z "
     id="path4258" />
  <path
     style="opacity:1;fill:#03A9F4;fill-opacity:1;fill-rule:nonzero;stroke:none;stroke-width:4;stroke-miterlimit:4;stroke-dasharray:none;stroke-opacity:1"
     d="M 11.63671875,6 C 9.622173235416411,6 8,7.560999999999982 8,9.5 l 0,21 c 0,1.93899999999998 1.622173235416412,3.5 3.63671875,3.5 l 32.7265625,0 C 46.37782676458359,34 48,32.43899999999998 48,30.5 l 0,-21 C 48,7.560999999999982 46.37782676458359,6 44.36328125,6 L 11.63671875,6 Z M 12,10 l 32,0 0,20 -32,0 0,-20 z"
     id="rect4278"
     inkscape:connector-curvature="0" />
  <rect
     rx="4"
     ry="4"
     y="-10.609375"
     x="-130.060546875"
     height="32"
     width="44"
     id="rect4284"
     style="opacity:1;fill:#000000;fill-opacity:1;fill-rule:nonzero;stroke:none;stroke-width:4;stroke-miterlimit:4;stroke-dasharray:none;stroke-opacity:1" />
  <rect
     style="opacity:1;fill:#000000;fill-opacity:1;fill-rule:nonzero;stroke:none;stroke-width:4;stroke-miterlimit:4;stroke-dasharray:none;stroke-opacity:1"
     id="rect4286"
     width="36"
     height="24"
     x="-126.060546875"
     y="-6.609375"
     ry="0"
     rx="0" />
  <path
     style="fill:#03A9F4;fill-opacity:1"
     d="m 30,42.00000000000006 4,0 L 34,38 l -4,0 0,4.00000000000006 z"
     id="path4447" />
  <path
     style="fill:#03A9F4;fill-opacity:1"
     d="m 24,42.00000000000006 4,0 L 28,38 l -4,0 0,4.00000000000006 z"
     id="path4445" />
  <path
     style="fill:#03A9F4;fill-opacity:1"
     d="m 16,38 -4,0 0,4.00000000000006 4,0 L 16,38 Z"
     id="path4443" />
  <path
     style="fill:#03A9F4;fill-opacity:1"
     d="m 4,20.00000000000001 -4,0 0,4 4,0 0,-4 z"
     id="path4439" />
  <path
     style="fill:#03A9F4;fill-opacity:1"
     d="m 4,26.00000000000001 -4,0 L 0,30 4,30 4,26.00000000000001 Z"
     id="path4431" />
  <path
     style="fill:#03A9F4;fill-opacity:1"
     d="m 4,32 -4,0 0,4 4,0 0,-4 z"
     id="path4429" />
  <path
     style="fill:#03A9F4;fill-opacity:1"
     d="m 4,14.00000000000001 c -2.21,0 -4,1.79 -4,4 l 4,0 0,-4 z"
     id="path4427" />
  <path
     style="fill:#03A9F4;fill-opacity:1"
     d="m 10,38 -4,0 0,4.00000000000006 4,0 L 10,38 Z"
     id="path4425" />
  <path
     style="fill:#03A9F4;fill-opacity:1"
     d="M 4,42.00000000000006 4,38 0,38 c 0,2.21 1.79,4.00000000000006 4,4.00000000000006 z"
     id="path4419" />
  <path
     style="fill:#03A9F4;fill-opacity:1"
     d="m 36,36 4,0 0,-4 -4,0 0,4 z"
     id="path4417" />
  <path
     style="fill:#03A9F4;fill-opacity:1"
     d="M 36,42.00000000000005 C 38.21000000000001,42.00000000000006 40,40.21 40,38 l -4,0 0,4.00000000000006 z"
     id="path4413" />
  <path
     style="fill:#03A9F4;fill-opacity:1"
     d="m 6,18.00000000000001 4,0 0,-4 -4,0 0,4 z"
     id="path4411" />
  <path
     style="fill:#03A9F4;fill-opacity:1"
     d="m 18,42.00000000000005 4,0 L 22,38 l -4,0 0,4.00000000000006 z"
     id="path4406" />
  <path
     id="path4406-9"
     style="fill:#03A9F4;fill-opacity:1"
     d="m 26.89112506878303,80.82153936235825 4,0 0,-4.00000000000007 -4,0 0,4.00000000000007 z m -6,0 4,0 0,-4.00000000000007 -4,0 0,4.00000000000007 z m -8,-4.00000000000007 -4,0 0,4.00000000000007 4,0 0,-4.00000000000007 z m 20,-7.99999999999999 4,0 0,-4 -4,0 0,4 z M 0.8911250687830296,58.82153936235821 l -3.9999999999999996,0 0,4 3.9999999999999996,0 0,-4 z m 14,-2.00000000000001 4,0 0,-3.99999999999999 -4,0 0,3.99999999999999 z m 12,0 4,0 0,-3.99999999999999 -4,0 0,3.99999999999999 z m -6,0 4,0 0,-3.99999999999999 -4,0 0,3.99999999999999 z m -20,7.99999999999999 -3.9999999999999996,0 0,4 3.9999999999999996,0 0,-4 z m 0,5.99999999999999 -3.9999999999999996,0 0,4 3.9999999999999996,0 0,-4 z m 0,-17.99999999999997 c -2.2099999999999995,0 -3.9999999999999996,1.79 -3.9999999999999996,3.99999999999999 l 3.9999999999999996,0 0,-3.99999999999999 z m 6,23.99999999999997 -4,0 0,4.00000000000007 4,0 0,-4.00000000000007 z m 26.000000000000003,-23.99999999999997 0,3.99999999999999 4,0 c 0,-2.20999999999999 -1.78999999999999,-3.99999999999999 -4,-3.99999999999999 z m -20,0 -4,0 0,3.99999999999999 4,0 0,-3.99999999999999 z m -12,28.00000000000004 0,-4.00000000000007 -3.9999999999999996,0 c 0,2.21000000000002 1.79,4.00000000000007 3.9999999999999996,4.00000000000007 z m 32.0000000000000071,-6.00000000000007 4,0 0,-4 -4,0 0,4 z m 0,-11.99999999999997 4,0 0,-4 -4,0 0,4 z m 0,18.00000000000001 c 2.21000000000001,3e-14 4,-1.79000000000005 4,-4.00000000000004 l -4,0 0,4.00000000000007 z M 2.89112506878303,56.8215393623582 l 4,0 0,-3.99999999999999 -4,0 0,3.99999999999999 z m 12,24.00000000000002 4,0 0,-4.00000000000004 -4,0 0,4.00000000000007 z"
     inkscape:connector-curvature="0" />
</svg>
