<?xml version="1.0" encoding="UTF-8" standalone="no"?>
<svg
   xmlns:dc="http://purl.org/dc/elements/1.1/"
   xmlns:cc="http://creativecommons.org/ns#"
   xmlns:rdf="http://www.w3.org/1999/02/22-rdf-syntax-ns#"
   xmlns:svg="http://www.w3.org/2000/svg"
   xmlns="http://www.w3.org/2000/svg"
   xmlns:sodipodi="http://sodipodi.sourceforge.net/DTD/sodipodi-0.dtd"
   xmlns:inkscape="http://www.inkscape.org/namespaces/inkscape"
   fill="#03A9F4"
   width="48"
   height="48"
   viewBox="0 0 48 48"
   id="svg2"
   version="1.1"
   inkscape:version="0.91 r13725"
   sodipodi:docname="xfce-display-extend1.svg">
  <metadata
     id="metadata10">
    <rdf:RDF>
      <cc:Work
         rdf:about="">
        <dc:format>image/svg+xml</dc:format>
        <dc:type
           rdf:resource="http://purl.org/dc/dcmitype/StillImage" />
        <dc:title />
      </cc:Work>
    </rdf:RDF>
  </metadata>
  <defs
     id="defs8" />
  <sodipodi:namedview
     pagecolor="#ffffff"
     bordercolor="#666666"
     borderopacity="1"
     objecttolerance="10"
     gridtolerance="10"
     guidetolerance="10"
     inkscape:pageopacity="0"
     inkscape:pageshadow="2"
     inkscape:window-width="1366"
     inkscape:window-height="713"
     id="namedview6"
     showgrid="false"
     inkscape:snap-bbox="true"
     inkscape:bbox-nodes="true"
     inkscape:zoom="3.199383580048599"
     inkscape:cx="-2.190957201195445"
     inkscape:cy="-10.63546990591293"
     inkscape:window-x="0"
     inkscape:window-y="30"
     inkscape:window-maximized="1"
     inkscape:current-layer="svg2"
     inkscape:object-paths="true"
     inkscape:snap-intersection-paths="true"
     inkscape:object-nodes="true"
     inkscape:snap-smooth-nodes="true"
     inkscape:snap-midpoints="true"
     inkscape:snap-nodes="false"
     inkscape:snap-page="true" />
  <path
     inkscape:connector-curvature="0"
     id="path4632"
     d="m -56.89298870807849,24.58023758546494 c -2.01454551458359,0 -3.63671875,1.56099999999999 -3.63671875,3.5 l 0,21 c 0,1.939 1.62217323541641,3.5 3.63671875,3.5 l 32.7265625,0 c 2.01454551458359,0 3.63671875,-1.561 3.63671875,-3.5 l 0,-21 c 0,-1.93900000000002 -1.62217323541641,-3.5 -3.63671875,-3.5 l -32.7265625,0 z m 0.36328125,4 32,0 0,20 -32,0 0,-20 z"
     style="opacity:1;fill:#03A9F4;fill-opacity:1;fill-rule:nonzero;stroke:none;stroke-width:4;stroke-miterlimit:4;stroke-dasharray:none;stroke-opacity:1" />
  <path
     style="opacity:1;fill:#03A9F4;fill-opacity:1;fill-rule:nonzero;stroke:none;stroke-width:4;stroke-miterlimit:4;stroke-dasharray:none;stroke-opacity:1"
     d="m -64.89298870807849,32.580237585465 c -2.01454551458357,0 -3.63671875,1.56099999999999 -3.63671875,3.5 l 0,21 c 0,1.93899999999999 1.62217323541643,3.5 3.63671875,3.5 l 32.7265625,0 c 2.01454551458359,0 3.63671875,-1.56100000000001 3.63671875,-3.5 l 0,-21 c 0,-1.93900000000002 -1.62217323541641,-3.5 -3.63671875,-3.5 l -32.7265625,0 z m 0.36328125,4 32,0 0,20 -32,0 0,-20 z"
     id="rect4278"
     inkscape:connector-curvature="0" />
  <path
     style="opacity:1;fill:#03A9F4;fill-opacity:1;fill-rule:nonzero;stroke:none;stroke-width:4;stroke-miterlimit:4;stroke-dasharray:none;stroke-opacity:1"
     d="m -47.72459758515572,89.26180093636122 c -1.61163641166688,0 -2.91015624999998,1.11499999999999 -2.91015625,2.5 l 0,14.99999999999997 c 0,1.385 1.29851983833312,2.5 2.91015625,2.5 l 26.18164062500001,0 c 1.61163641166686,0 2.908203125,-1.115 2.908203125,-2.5 l 0,-14.99999999999997 c 0,-1.38500000000002 -1.29656671333314,-2.5 -2.908203125,-2.5 l -26.18164062500001,0 z m 1.08984375,4 24.00000000000001,0 0,11.99999999999997 -24.00000000000001,0 0,-11.99999999999997 z"
     id="path4638"
     inkscape:connector-curvature="0" />
  <path
     style="opacity:1;fill:#03A9F4;fill-opacity:1;fill-rule:nonzero;stroke:none;stroke-width:4;stroke-miterlimit:4;stroke-dasharray:none;stroke-opacity:1"
     d="M 20.728515625,6 C 19.21760648906229,6 18.00000000000001,7.00349999999999 18,8.25 l 0,13.5 C 18,22.99649999999999 19.21760648906229,24 20.728515625,24 L 45.2734375,24 C 46.7843466359377,24 48,22.99649999999999 48,21.75 L 48,8.25 C 48,7.003499999999982 46.7843466359377,6 45.2734375,6 L 20.728515625,6 Z M 22,10 l 22,0 0,10 -22,0 0,-10 z"
     id="path4138"
     inkscape:connector-curvature="0" />
  <path
     id="path4144"
     d="M 2.728515625,24 C 1.217606489062291,24 2.842170943040401e-14,25.00349999999998 0,26.25 l 0,13.5 C 0,40.99649999999999 1.217606489062291,42 2.728515625,42 L 27.2734375,42 C 28.78434663593771,42 30,40.99649999999999 30,39.75 l 0,-13.5 C 30,25.00349999999998 28.78434663593771,24 27.2734375,24 L 2.728515625,24 Z M 4,28 26,28 26,38 4,38 4,28 Z"
     style="opacity:1;fill:#03A9F4;fill-opacity:1;fill-rule:nonzero;stroke:none;stroke-width:4;stroke-miterlimit:4;stroke-dasharray:none;stroke-opacity:1"
     inkscape:connector-curvature="0" />
</svg>
