<svg xmlns="http://www.w3.org/2000/svg" viewBox="0 0 34 38" fill="#795548"><path d="m5.436 0c-3.03 0-5.463 2.421-5.463 5.428v27.14c0 3.01 2.436 5.428 5.463 5.428h23.07c3.03 0 5.465-2.421 5.465-5.428v-27.14c0-3.01-2.438-5.428-5.465-5.428h-23.07m-1.213 4.223h25.5v29.555h-25.5v-29.555m3.619 2.658c-.475 0-.857.382-.857.857v4.285c0 .475.382.857.857.857h18.285c.475 0 .857-.382.857-.857v-4.285c0-.475-.382-.857-.857-.857h-18.285m-1.445 8.721c-.221 0-.4.179-.4.4v1.998c0 .221.179.4.4.4h3.201c.221 0 .398-.179.398-.4v-1.998c0-.221-.179-.4-.4-.4h-3.199m6 0c-.22.001-.398.18-.398.4v1.998c0 .221.179.4.4.4h3.199c.221 0 .398-.179.398-.4l.002-1.998c0-.221-.179-.4-.4-.4h-3.199-.002m6 0c-.221 0-.4.179-.4.4v1.998c0 .221.179.4.4.4h3.201c.221 0 .398-.179.398-.4v-1.998c0-.221-.179-.4-.4-.4h-3.199m6 0c-.221 0-.4.179-.4.4v1.998c0 .221.179.4.4.4h3.199c.221 0 .398-.179.398-.4l.002-1.998c0-.221-.179-.4-.4-.4h-3.199m-18 4c-.221 0-.4.179-.4.4v1.998c0 .221.179.4.4.4h3.199c.221 0 .398-.179.398-.4l.002-1.998c0-.221-.179-.4-.4-.4h-3.199m6 0c-.221 0-.4.179-.4.4v1.998c0 .221.179.4.4.4h3.199c.221 0 .398-.179.398-.4l.002-1.998c0-.221-.179-.4-.4-.4h-3.199m6 0c-.221 0-.4.179-.4.4v1.998c0 .221.179.4.4.4h3.199c.221 0 .398-.179.398-.4l.002-1.998c0-.221-.179-.4-.4-.4h-3.199m6 0c-.221 0-.4.179-.4.4v1.998c0 .221.179.4.4.4h3.199c.221 0 .398-.179.398-.4l.002-1.998c0-.221-.179-.4-.4-.4h-3.199m-18 4c-.221 0-.4.179-.4.4v1.998c0 .221.179.4.4.4h3.199c.221 0 .398-.179.398-.4l.002-1.998c0-.221-.179-.4-.4-.4h-3.199m6 0c-.221 0-.4.179-.4.4v1.998c0 .221.179.4.4.4h3.199c.221 0 .398-.179.398-.4l.002-1.998c0-.221-.179-.4-.4-.4h-3.199m6 0c-.221 0-.4.179-.4.4v1.998c0 .221.179.4.4.4h3.199c.221 0 .398-.179.398-.4l.002-1.998c0-.221-.179-.4-.4-.4h-3.199m6 0c-.221 0-.4.179-.4.4v1.998c0 .221.179.4.4.4h3.199c.221 0 .398-.179.398-.4l.002-1.998c0-.221-.179-.4-.4-.4h-3.199m-18 4c-.221 0-.4.179-.4.4v1.998c0 .221.179.4.4.4h3.199c.221 0 .398-.179.398-.4l.002-1.998c0-.221-.179-.4-.4-.4h-3.199m6 0c-.221 0-.4.179-.4.4v1.998c0 .221.179.4.4.4h3.199c.221 0 .398-.179.398-.4l.002-1.998c0-.221-.179-.4-.4-.4h-3.199m6 0c-.221 0-.4.179-.4.4v1.998c0 .221.179.4.4.4h3.199c.221 0 .398-.179.398-.4l.002-1.998c0-.221-.179-.4-.4-.4h-3.199m6 0c-.221 0-.4.179-.4.4v1.998c0 .221.179.4.4.4h3.199c.221 0 .398-.179.398-.4l.002-1.998c0-.221-.179-.4-.4-.4h-3.199"/></svg>