<?xml version="1.0" encoding="UTF-8" standalone="no"?>
<svg
   xmlns:dc="http://purl.org/dc/elements/1.1/"
   xmlns:cc="http://creativecommons.org/ns#"
   xmlns:rdf="http://www.w3.org/1999/02/22-rdf-syntax-ns#"
   xmlns:svg="http://www.w3.org/2000/svg"
   xmlns="http://www.w3.org/2000/svg"
   xmlns:sodipodi="http://sodipodi.sourceforge.net/DTD/sodipodi-0.dtd"
   xmlns:inkscape="http://www.inkscape.org/namespaces/inkscape"
   width="48"
   height="48"
   viewBox="0 0 48 48"
   id="svg2"
   version="1.1"
   inkscape:version="0.91 r13725"
   sodipodi:docname="help-contents.svg"
   style="fill:#F44336">
  <metadata
     id="metadata10">
    <rdf:RDF>
      <cc:Work
         rdf:about="">
        <dc:format>image/svg+xml</dc:format>
        <dc:type
           rdf:resource="http://purl.org/dc/dcmitype/StillImage" />
        <dc:title></dc:title>
      </cc:Work>
    </rdf:RDF>
  </metadata>
  <defs
     id="defs8" />
  <sodipodi:namedview
     pagecolor="#ffffff"
     bordercolor="#666666"
     borderopacity="1"
     objecttolerance="10"
     gridtolerance="10"
     guidetolerance="10"
     inkscape:pageopacity="0"
     inkscape:pageshadow="2"
     inkscape:window-width="668"
     inkscape:window-height="480"
     id="namedview6"
     showgrid="false"
     fit-margin-top="0"
     fit-margin-left="0"
     fit-margin-right="0"
     fit-margin-bottom="0"
     inkscape:zoom="4.916666666666668"
     inkscape:cx="19.99999999999999"
     inkscape:cy="19.99999999999999"
     inkscape:window-x="0"
     inkscape:window-y="30"
     inkscape:window-maximized="0"
     inkscape:current-layer="svg2" />
  <path
     d="m 20,0 c -11.05,0 -20,8.949999999999999 -20,20 0,11.05 8.949999999999999,20 20,20 11.05,0 20,-8.95 20,-20 0,-11.05 -8.95,-20 -20,-20 z m 2,34 -4,0 0,-4 4,0 0,4 z m 4.13,-15.49 -1.79,1.84 C 22.9,21.79 22,23 22,26 l -4,0 0,-1 c 0,-2.21 0.9,-4.21 2.34,-5.66 l 2.49,-2.52 C 23.55,16.1 24,15.1 24,14 c 0,-2.21 -1.79,-4 -4,-4 -2.21,0 -4,1.79 -4,4 l -4,0 c 0,-4.42 3.58,-8 8,-8 4.42,0 8,3.58 8,8 0,1.76 -0.71,3.35 -1.87,4.51 z"
     id="path4"
     inkscape:connector-curvature="0" />
</svg>
