<?xml version="1.0" encoding="UTF-8" standalone="no"?>
<svg
   xmlns:dc="http://purl.org/dc/elements/1.1/"
   xmlns:cc="http://creativecommons.org/ns#"
   xmlns:rdf="http://www.w3.org/1999/02/22-rdf-syntax-ns#"
   xmlns:svg="http://www.w3.org/2000/svg"
   xmlns="http://www.w3.org/2000/svg"
   xmlns:sodipodi="http://sodipodi.sourceforge.net/DTD/sodipodi-0.dtd"
   xmlns:inkscape="http://www.inkscape.org/namespaces/inkscape"
   width="34"
   height="24"
   viewBox="0 0 34 24"
   id="svg2"
   version="1.1"
   inkscape:version="0.91 r13725"
   sodipodi:docname="gcr-key-pair.svg"
   style="fill:#673AB7">
  <metadata
     id="metadata10">
    <rdf:RDF>
      <cc:Work
         rdf:about="">
        <dc:format>image/svg+xml</dc:format>
        <dc:type
           rdf:resource="http://purl.org/dc/dcmitype/StillImage" />
        <dc:title />
      </cc:Work>
    </rdf:RDF>
  </metadata>
  <defs
     id="defs8" />
  <sodipodi:namedview
     pagecolor="#ffffff"
     bordercolor="#666666"
     borderopacity="1"
     objecttolerance="10"
     gridtolerance="10"
     guidetolerance="10"
     inkscape:pageopacity="0"
     inkscape:pageshadow="2"
     inkscape:window-width="1366"
     inkscape:window-height="713"
     id="namedview6"
     showgrid="false"
     inkscape:zoom="9.541386176191072"
     inkscape:cx="-34.44831579206296"
     inkscape:cy="9.23480581295604"
     inkscape:window-x="0"
     inkscape:window-y="30"
     inkscape:window-maximized="1"
     inkscape:current-layer="svg2"
     inkscape:snap-page="true"
     inkscape:snap-bbox="true"
     inkscape:bbox-nodes="true"
     fit-margin-top="0"
     fit-margin-left="0"
     fit-margin-right="0"
     fit-margin-bottom="0"
     inkscape:object-paths="true"
     inkscape:snap-intersection-paths="true"
     inkscape:object-nodes="true"
     inkscape:snap-smooth-nodes="true"
     inkscape:snap-midpoints="true" />
  <path
     d="M 12.7090909090909,14.81818181818184 C 11.80909090909091,12.27636363636364 9.39272727272726,10.45454545454545 6.545454545454544,10.45454545454545 2.929090909090905,10.45454545454545 0,13.38363636363637 0,17.00000000000002 c 0,3.61636363636363 2.929090909090905,6.54545454545454 6.545454545454544,6.54545454545454 2.847272727272716,0 5.263636363636367,-1.8218181818182 6.163636363636346,-4.36363636363636 l 4.74545454545456,0 0,4.36363636363636 4.36363636363637,0 0,-4.36363636363636 2.18181818181819,0 0,-4.36363636363638 -11.29090909090915,0 z m -6.163636363636356,4.36363636363635 c -1.205454545454551,0 -2.181818181818179,-0.97636363636363 -2.181818181818179,-2.18181818181818 0,-1.20545454545455 0.976363636363628,-2.18181818181817 2.181818181818179,-2.18181818181817 1.205454545454538,0 2.181818181818175,0.97636363636362 2.181818181818175,2.18181818181817 0,1.20545454545455 -0.976363636363637,2.18181818181818 -2.181818181818174,2.18181818181818 z"
     id="path4"
     inkscape:connector-curvature="0" />
  <path
     inkscape:connector-curvature="0"
     id="path4142"
     d="M 22.7090909090909,4.818181818181836 C 21.80909090909091,2.276363636363633 19.39272727272726,0.4545454545454425 16.54545454545454,0.4545454545454425 12.92909090909091,0.4545454545454425 10,3.383636363636363 10,7.000000000000015 c 0,3.616363636363634 2.92909090909091,6.545454545454544 6.54545454545454,6.545454545454544 2.84727272727272,0 5.26363636363637,-1.82181818181819 6.16363636363635,-4.363636363636365 l 4.74545454545456,0 0,4.363636363636365 4.36363636363637,0 0,-4.363636363636365 2.1818181818182,0 0,-4.363636363636379 -11.29090909090916,0 z M 16.54545454545454,9.18181818181819 c -1.20545454545455,0 -2.18181818181817,-0.976363636363622 -2.18181818181817,-2.181818181818175 0,-1.205454545454562 0.97636363636362,-2.181818181818179 2.18181818181817,-2.181818181818179 1.20545454545454,0 2.18181818181818,0.976363636363617 2.18181818181818,2.181818181818179 0,1.205454545454553 -0.97636363636364,2.181818181818175 -2.18181818181818,2.181818181818175 z" />
</svg>
