<svg xmlns="http://www.w3.org/2000/svg" fill="#673AB7" viewBox="0 0 48 48"><path d="m6 24c-.277 0-.54-.056-.778-.157-.715-.304-1.212-1.014-1.212-1.843l-.01-14c0-1.105.895-2 2-2h14c1.105 0 2 .895 2 2v14c0 1.105-.895 2-2 2h-1-2-8-2-1m0-5h14v-11h-14v11"/><path d="m26 24c-.277 0-.54-.056-.778-.157-.715-.304-1.212-1.014-1.212-1.843l-.01-14c0-1.105.895-2 2-2h14c1.105 0 2 .895 2 2v14c0 1.105-.895 2-2 2h-1-2-8-2-1m0-5h14v-11h-14v11"/><path d="m7.333 44c-.461 0-.9-.056-1.297-.157-1.191-.304-2.02-1.014-2.02-1.843l-.016-14c0-1.105 1.492-2 3.333-2h23.333c1.842 0 3.333.895 3.333 2v14c0 1.105-1.492 2-3.333 2h-1.667-3.333-13.333-3.333-1.667m0-5h23.333v-11h-23.333v11"/></svg>