<?xml version="1.0" encoding="UTF-8" standalone="no"?>
<svg
   xmlns:dc="http://purl.org/dc/elements/1.1/"
   xmlns:cc="http://creativecommons.org/ns#"
   xmlns:rdf="http://www.w3.org/1999/02/22-rdf-syntax-ns#"
   xmlns:svg="http://www.w3.org/2000/svg"
   xmlns="http://www.w3.org/2000/svg"
   xmlns:sodipodi="http://sodipodi.sourceforge.net/DTD/sodipodi-0.dtd"
   xmlns:inkscape="http://www.inkscape.org/namespaces/inkscape"
   width="48"
   height="48"
   viewBox="0 0 48 48"
   id="svg2"
   version="1.1"
   inkscape:version="0.91 r13725"
   sodipodi:docname="tap-extract-to.svg"
   style="fill:#673AB7">
  <metadata
     id="metadata10">
    <rdf:RDF>
      <cc:Work
         rdf:about="">
        <dc:format>image/svg+xml</dc:format>
        <dc:type
           rdf:resource="http://purl.org/dc/dcmitype/StillImage" />
        <dc:title />
      </cc:Work>
    </rdf:RDF>
  </metadata>
  <defs
     id="defs8" />
  <sodipodi:namedview
     pagecolor="#ffffff"
     bordercolor="#666666"
     borderopacity="1"
     objecttolerance="10"
     gridtolerance="10"
     guidetolerance="10"
     inkscape:pageopacity="0"
     inkscape:pageshadow="2"
     inkscape:window-width="1366"
     inkscape:window-height="713"
     id="namedview6"
     showgrid="false"
     inkscape:zoom="9.541386176191063"
     inkscape:cx="-13.42327761662885"
     inkscape:cy="50.72223872819831"
     inkscape:window-x="0"
     inkscape:window-y="30"
     inkscape:window-maximized="1"
     inkscape:current-layer="svg2"
     inkscape:snap-bbox="true"
     inkscape:bbox-nodes="true"
     fit-margin-top="0"
     fit-margin-left="0"
     fit-margin-right="0"
     fit-margin-bottom="0" />
  <path
     d="M 12,6 C 11.07,6 10.239453025,6.429843650000004 9.689453125,7.08984375 l -2.76953125,3.359375 C 6.339921875,11.14921875 6,12.03 6,13 l 0,25 c 0,2.21 1.79,4 4,4 l 28,0 c 2.21,0 4,-1.79 4,-4 l 0,-25 c 0,-0.97 -0.34015625,-1.85078125 -0.91015625,-2.55078125 L 38.3203125,7.08984375 C 37.7603125,6.429843650000004 36.93,6 36,6 L 12,6 Z m -0.119140625,2 24,0 L 37.75,10 10.25,10 11.880859375,8 Z M 24,16 l 11,11 -7,0 0,4 -8,0 0,-4 -7,0 11,-11 z m -11,18.5546875 22,0 L 35,37 13,37 13,34.5546875 Z"
     id="path4138"
     inkscape:connector-curvature="0" />
</svg>
