<svg xmlns="http://www.w3.org/2000/svg" fill="#2196F3" viewBox="0 0 48 48"><g fill="#2196F3"><path d="m38 26h-12v12h-4v-12h-12v-4h12v-12h4v12h12v4m14 33c-.968 0-1.889-.195-2.724-.55-2.502-1.063-4.242-3.55-4.242-6.45l-.034-49c0-3.867 3.132-7 7-7h49c3.868 0 7 3.133 7 7v49c0 3.868-3.132 7-7 7h-3.5-7-28-7-3.5m0-17.5h49v-38.5h-49v38.5m-105 17.5c-.968 0-1.889-.195-2.724-.55-2.502-1.063-4.242-3.55-4.242-6.45l-.034-49c0-3.867 3.133-7 7-7h49c3.868 0 7 3.133 7 7v49c0 3.868-3.133 7-7 7h-3.5-7-28-7-3.5m0-17.5h49v-38.5h-49v38.5" transform="matrix(.28571 0 0 .28571 17.14 16.14)"/></g></svg>