<?xml version="1.0" encoding="UTF-8" standalone="no"?>
<svg
   xmlns:dc="http://purl.org/dc/elements/1.1/"
   xmlns:cc="http://creativecommons.org/ns#"
   xmlns:rdf="http://www.w3.org/1999/02/22-rdf-syntax-ns#"
   xmlns:svg="http://www.w3.org/2000/svg"
   xmlns="http://www.w3.org/2000/svg"
   xmlns:sodipodi="http://sodipodi.sourceforge.net/DTD/sodipodi-0.dtd"
   xmlns:inkscape="http://www.inkscape.org/namespaces/inkscape"
   width="28"
   height="44"
   viewBox="0 0 28 44"
   id="svg2"
   version="1.1"
   inkscape:version="0.91 r13725"
   sodipodi:docname="gpm-phone-0001.svg"
   style="fill:#9C27B0">
  <metadata
     id="metadata10">
    <rdf:RDF>
      <cc:Work
         rdf:about="">
        <dc:format>image/svg+xml</dc:format>
        <dc:type
           rdf:resource="http://purl.org/dc/dcmitype/StillImage" />
        <dc:title></dc:title>
      </cc:Work>
    </rdf:RDF>
  </metadata>
  <defs
     id="defs8" />
  <sodipodi:namedview
     pagecolor="#ffffff"
     bordercolor="#666666"
     borderopacity="1"
     objecttolerance="10"
     gridtolerance="10"
     guidetolerance="10"
     inkscape:pageopacity="0"
     inkscape:pageshadow="2"
     inkscape:window-width="1366"
     inkscape:window-height="713"
     id="namedview6"
     showgrid="false"
     inkscape:snap-bbox="true"
     inkscape:bbox-nodes="true"
     inkscape:snap-bbox-edge-midpoints="true"
     inkscape:bbox-paths="true"
     inkscape:zoom="5.368001304915686"
     inkscape:cx="74.08092800164845"
     inkscape:cy="21.9020631810907"
     inkscape:window-x="0"
     inkscape:window-y="30"
     inkscape:window-maximized="1"
     inkscape:current-layer="svg2"
     fit-margin-top="0"
     fit-margin-left="0"
     fit-margin-right="0"
     fit-margin-bottom="0" />
  <path
     d="M 4,0 C 1.789999999999999,0 7.105427357601002e-15,1.79 0,4 l 0,13 4,0 0,-9 20,0 0,9 4,0 0,-13 C 28,1.790000000000001 26.21000000000001,0.0214843749999997 24,0.021484375 L 4,0 Z"
     id="path4138"
     style="opacity:0.3"
     inkscape:connector-curvature="0" />
  <path
     d="m 0,17 0,23 c 0,2.21 1.789999999999999,4 4,4 l 20,0 c 2.21000000000001,0 4,-1.78999999999998 4,-4 l 0,-23 -4,0 0,19 -20,0 0,-19 -4,0 z"
     id="path4140"
     inkscape:connector-curvature="0" />
</svg>
