<?xml version="1.0" encoding="UTF-8" standalone="no"?>
<svg
   xmlns:dc="http://purl.org/dc/elements/1.1/"
   xmlns:cc="http://creativecommons.org/ns#"
   xmlns:rdf="http://www.w3.org/1999/02/22-rdf-syntax-ns#"
   xmlns:svg="http://www.w3.org/2000/svg"
   xmlns="http://www.w3.org/2000/svg"
   xmlns:sodipodi="http://sodipodi.sourceforge.net/DTD/sodipodi-0.dtd"
   xmlns:inkscape="http://www.inkscape.org/namespaces/inkscape"
   fill="#795548"
   width="48"
   height="48"
   viewBox="0 0 48 48"
   id="svg2"
   version="1.1"
   inkscape:version="0.91 r13725"
   sodipodi:docname="template.svg">
  <metadata
     id="metadata10">
    <rdf:RDF>
      <cc:Work
         rdf:about="">
        <dc:format>image/svg+xml</dc:format>
        <dc:type
           rdf:resource="http://purl.org/dc/dcmitype/StillImage" />
        <dc:title></dc:title>
      </cc:Work>
    </rdf:RDF>
  </metadata>
  <defs
     id="defs8" />
  <sodipodi:namedview
     pagecolor="#ffffff"
     bordercolor="#666666"
     borderopacity="1"
     objecttolerance="10"
     gridtolerance="10"
     guidetolerance="10"
     inkscape:pageopacity="0"
     inkscape:pageshadow="2"
     inkscape:window-width="652"
     inkscape:window-height="480"
     id="namedview6"
     showgrid="false"
     inkscape:zoom="4.9166667"
     inkscape:cx="23.935773"
     inkscape:cy="24"
     inkscape:window-x="0"
     inkscape:window-y="30"
     inkscape:window-maximized="0"
     inkscape:current-layer="svg2" />
  <g
     id="g4140">
    <path
       id="path4"
       d="M8 8h14V4H8C5.79 4 4 5.79 4 8v14h4V8zm12 18l-8 10h24l-6-8-4.06 5.42L20 26zm14-9c0-1.66-1.34-3-3-3s-3 1.34-3 3 1.34 3 3 3 3-1.34 3-3zm6-13H26v4h14v14h4V8c0-2.21-1.79-4-4-4zm0 36H26v4h14c2.21 0 4-1.79 4-4V26h-4v14zM8 26H4v14c0 2.21 1.79 4 4 4h14v-4H8V26z" />
    <rect
       y="11.475372"
       x="11.068592"
       height="26.066204"
       width="26.066202"
       id="rect3338"
       style="opacity:1;fill:#ffffff;fill-opacity:1;fill-rule:evenodd;stroke:#ffffff;stroke-width:2.26430464;stroke-miterlimit:4;stroke-dasharray:none;stroke-opacity:1" />
  </g>
  <g
     style="fill:#795548"
     id="g4154"
     transform="matrix(0.75,0,0,0.75,6,6.75)">
    <path
       id="path4146"
       d="m 10,34 0,4 28,0 0,-4 -28,0 z m 9,-8.4 10,0 1.8,4.4 4.2,0 -9.5,-22 -3,0 -9.5,22 4.2,0 1.8,-4.4 z M 24,11.96 27.74,22 20.26,22 24,11.96 Z"
       inkscape:connector-curvature="0" />
  </g>
</svg>
