<?xml version="1.0" encoding="UTF-8" standalone="no"?>
<svg
   xmlns:dc="http://purl.org/dc/elements/1.1/"
   xmlns:cc="http://creativecommons.org/ns#"
   xmlns:rdf="http://www.w3.org/1999/02/22-rdf-syntax-ns#"
   xmlns:svg="http://www.w3.org/2000/svg"
   xmlns="http://www.w3.org/2000/svg"
   xmlns:sodipodi="http://sodipodi.sourceforge.net/DTD/sodipodi-0.dtd"
   xmlns:inkscape="http://www.inkscape.org/namespaces/inkscape"
   fill="#F44336"
   width="48"
   height="48"
   viewBox="0 0 48 48"
   id="svg2"
   version="1.1"
   inkscape:version="0.91 r13725"
   sodipodi:docname="libreoffice-oasis-drawing.svg">
  <metadata
     id="metadata10">
    <rdf:RDF>
      <cc:Work
         rdf:about="">
        <dc:format>image/svg+xml</dc:format>
        <dc:type
           rdf:resource="http://purl.org/dc/dcmitype/StillImage" />
        <dc:title />
      </cc:Work>
    </rdf:RDF>
  </metadata>
  <defs
     id="defs8" />
  <sodipodi:namedview
     pagecolor="#ffffff"
     bordercolor="#666666"
     borderopacity="1"
     objecttolerance="10"
     gridtolerance="10"
     guidetolerance="10"
     inkscape:pageopacity="0"
     inkscape:pageshadow="2"
     inkscape:window-width="1366"
     inkscape:window-height="713"
     id="namedview6"
     showgrid="false"
     inkscape:zoom="6.9532167"
     inkscape:cx="-16.396593"
     inkscape:cy="14.621084"
     inkscape:window-x="0"
     inkscape:window-y="30"
     inkscape:window-maximized="1"
     inkscape:current-layer="svg2"
     inkscape:snap-bbox="true"
     inkscape:bbox-paths="true"
     inkscape:bbox-nodes="true"
     inkscape:snap-bbox-edge-midpoints="true"
     inkscape:snap-bbox-midpoints="true"
     inkscape:snap-object-midpoints="true" />
  <path
     style="fill:#c99c00;fill-opacity:1"
     d="M 12 4 C 9.79 4 8.0195313 5.79 8.0195312 8 L 8 40 C 8 42.21 9.7704682 44 11.980469 44 L 36 44 C 38.21 44 40 42.21 40 40 L 40 16 L 28 4 L 12 4 z M 26 7 L 37 18 L 26 18 L 26 7 z M 18.03125 21 C 18.978456 21 20.763672 21.751251 20.763672 24.146484 C 20.763672 25.621729 20.208178 26.475631 19.353516 27.716797 C 18.863582 28.429923 17.720904 30.352749 17.339844 31.544922 C 16.958784 32.731651 17.251838 33.640625 17.736328 33.640625 C 18.215374 33.640625 18.673543 33.047742 18.951172 32.726562 C 19.201583 32.454377 20.807983 30.549104 21.439453 29.759766 C 22.25601 28.741792 24.36283 26.662109 26.8125 26.662109 C 30.013402 26.662109 31.035907 29.432091 31.199219 31.228516 L 33.888672 31.228516 L 33.888672 33.951172 L 31.214844 33.951172 C 30.784791 39.144472 27.87858 40.591797 26.109375 40.591797 C 24.187745 40.591797 22.619141 39.078961 22.619141 37.222656 C 22.619141 35.366351 24.35609 32.072916 28.482422 31.365234 C 28.362661 30.510571 28.341056 29.410156 26.566406 29.410156 C 25.205479 29.410156 23.442377 31.534025 22.125 33.15625 C 20.916496 34.647827 19.957923 35.823062 18.792969 36.166016 C 17.807657 36.454533 16.734525 36.270268 15.917969 35.666016 C 14.970763 34.969221 14.455078 33.815465 14.455078 32.421875 C 14.455078 29.781676 17.296173 26.008053 17.568359 25.550781 C 17.884092 25.022741 18.433458 24.113817 17.894531 23.890625 C 17.551577 23.749089 16.789463 24.446159 16.027344 25.224609 L 14.111328 23.373047 C 14.350851 23.079086 14.67795 22.759134 15.064453 22.367188 C 15.342082 22.089558 16.594111 21 18.03125 21 z M 28.472656 34.130859 C 26.13186 34.745999 25.341797 36.48738 25.341797 37.140625 C 25.341797 37.64689 25.805068 37.929688 26.142578 37.929688 C 26.904697 37.929688 28.135146 37.065019 28.472656 34.130859 z "
     id="path4139" />
</svg>
