<?xml version="1.0" encoding="UTF-8" standalone="no"?>
<svg
   xmlns:dc="http://purl.org/dc/elements/1.1/"
   xmlns:cc="http://creativecommons.org/ns#"
   xmlns:rdf="http://www.w3.org/1999/02/22-rdf-syntax-ns#"
   xmlns:svg="http://www.w3.org/2000/svg"
   xmlns="http://www.w3.org/2000/svg"
   xmlns:sodipodi="http://sodipodi.sourceforge.net/DTD/sodipodi-0.dtd"
   xmlns:inkscape="http://www.inkscape.org/namespaces/inkscape"
   fill="#F44336"
   width="48"
   height="48"
   viewBox="0 0 48 48"
   id="svg2"
   version="1.1"
   inkscape:version="0.91 r13725"
   sodipodi:docname="text-x-go6.svg">
  <metadata
     id="metadata10">
    <rdf:RDF>
      <cc:Work
         rdf:about="">
        <dc:format>image/svg+xml</dc:format>
        <dc:type
           rdf:resource="http://purl.org/dc/dcmitype/StillImage" />
        <dc:title></dc:title>
      </cc:Work>
    </rdf:RDF>
  </metadata>
  <defs
     id="defs8" />
  <sodipodi:namedview
     pagecolor="#ffffff"
     bordercolor="#666666"
     borderopacity="1"
     objecttolerance="10"
     gridtolerance="10"
     guidetolerance="10"
     inkscape:pageopacity="0"
     inkscape:pageshadow="2"
     inkscape:window-width="1366"
     inkscape:window-height="713"
     id="namedview6"
     showgrid="false"
     inkscape:zoom="2.4583333"
     inkscape:cx="-18.687159"
     inkscape:cy="-46.382278"
     inkscape:window-x="0"
     inkscape:window-y="30"
     inkscape:window-maximized="1"
     inkscape:current-layer="svg2"
     inkscape:snap-bbox="true"
     inkscape:bbox-paths="true"
     inkscape:bbox-nodes="true"
     inkscape:snap-bbox-edge-midpoints="false"
     inkscape:snap-bbox-midpoints="true"
     inkscape:snap-object-midpoints="false"
     inkscape:snap-others="false"
     inkscape:snap-nodes="false"
     inkscape:object-nodes="false"
     inkscape:object-paths="false" />
  <path
     style="fill:#6ad7e5;fill-opacity:1"
     d="M 12 4 C 9.79 4 8.0195312 5.79 8.0195312 8 L 8.015625 14.046875 C 9.4346786 13.63909 10.976436 13.414581 12.566406 13.289062 C 15.821238 13.289062 18.925022 13.636153 21.167969 15.564453 C 24.585734 13.190466 27.663359 18.570105 23.726562 19.951172 C 24.084589 21.280344 24.271016 22.633924 24.378906 24 L 32 24 L 32 28 L 24.517578 28 C 24.528572 29.331527 24.536174 30.664499 24.591797 31.994141 C 24.624346 31.993908 24.656808 31.999356 24.689453 32 L 32 32 L 32 36 L 24.808594 36 C 24.944686 38.702054 24.925469 41.475639 24.134766 44 L 36 44 C 38.21 44 40 42.21 40 40 L 40 16 L 28 4 L 12 4 z M 26 7 L 37 18 L 26 18 L 26 7 z "
     id="path4" />
  <g
     style="fill:#F44336;stroke:#000000;stroke-opacity:1"
     id="g4532"
     transform="matrix(0.0599445,0,0,0.0599445,-10.834952,34.03993)">
    <path
       style="clip-rule:evenodd;fill:#f6d2a2;fill-rule:evenodd;stroke:#000000;stroke-width:3;stroke-linecap:round;stroke-opacity:1"
       inkscape:connector-curvature="0"
       id="path3"
       d="m 192.98927,-7.2590085 c 0.764,15.751 16.499,8.463 23.626,3.539 6.765,-4.675 8.743,-0.789 9.337,-10.0150005 0.389,-6.064 1.088,-12.128 0.744,-18.216 -10.23,-0.927 -21.357,1.509 -29.744,7.602 -4.32,3.139 -12.42,13.158 -3.963,17.0900005" />
    <path
       style="clip-rule:evenodd;fill:#c6b198;fill-rule:evenodd;stroke:#000000;stroke-width:3;stroke-linecap:round;stroke-opacity:1"
       inkscape:connector-curvature="0"
       id="path5"
       d="m 192.98927,-7.2590085 c 2.29,-0.852 4.717,-1.457 6.271,-3.5280005" />
    <path
       style="clip-rule:evenodd;fill:#6ad7e5;fill-rule:evenodd;stroke:#000000;stroke-width:3;stroke-linecap:round;stroke-opacity:1"
       inkscape:connector-curvature="0"
       id="path7"
       d="m 229.35227,-194.89901 c -60.297,-16.956 -15.461,-93.664 32.959,-62.113 l -32.959,62.113 z" />
    <path
       style="clip-rule:evenodd;fill:#6ad7e5;fill-rule:evenodd;stroke:#000000;stroke-width:3;stroke-linecap:round;stroke-opacity:1"
       inkscape:connector-curvature="0"
       id="path9"
       d="m 497.25027,-262.76801 c 47.727,-33.523 90.856,42.111 35.388,61.141 l -35.388,-61.141 z" />
    <path
       style="clip-rule:evenodd;fill:#f6d2a2;fill-rule:evenodd;stroke:#000000;stroke-width:3;stroke-linecap:round;stroke-opacity:1"
       inkscape:connector-curvature="0"
       id="path11"
       d="m 507.51627,186.59099 c 12.123,7.501 34.282,30.182 16.096,41.18 -17.474,15.999 -27.254,-17.561 -42.591,-22.211 6.605,-8.97 14.977,-17.149 26.495,-18.969 z" />
    <path
       style="clip-rule:evenodd;fill:none;fill-rule:evenodd;stroke:#000000;stroke-width:3;stroke-linecap:round;stroke-opacity:1"
       inkscape:connector-curvature="0"
       id="path13"
       d="m 523.61227,227.76999 c -2.696,-5.361 -3.601,-11.618 -8.102,-15.939" />
    <path
       style="clip-rule:evenodd;fill:#f6d2a2;fill-rule:evenodd;stroke:#000000;stroke-width:3;stroke-linecap:round;stroke-opacity:1"
       inkscape:connector-curvature="0"
       id="path15"
       d="m 290.93427,212.22299 c -14.229,2.202 -22.238,15.039 -34.1,21.558 -11.178,6.665 -15.454,-2.134 -16.461,-3.92 -1.752,-0.799 -1.605,0.744 -4.309,-1.979 -10.362,-16.354 10.797,-28.308 21.815,-36.432 15.346,-3.102 24.963,10.202 33.055,20.773 z" />
    <path
       style="clip-rule:evenodd;fill:none;fill-rule:evenodd;stroke:#000000;stroke-width:3;stroke-linecap:round;stroke-opacity:1"
       inkscape:connector-curvature="0"
       id="path17"
       d="m 240.37427,229.85999 c 0.542,-6.233 5.484,-10.407 7.838,-15.677" />
    <path
       style="clip-rule:evenodd;fill:#000000;fill-opacity:1;fill-rule:evenodd;stroke:#000000;stroke-opacity:1"
       inkscape:connector-curvature="0"
       id="path19"
       d="m 231.86827,-216.08501 c -7.955,-4.208 -13.791,-9.923 -8.925,-19.124 4.505,-8.518 12.874,-7.593 20.83,-3.385 l -11.905,22.509 z" />
    <path
       style="clip-rule:evenodd;fill:#000000;fill-opacity:1;fill-rule:evenodd;stroke:#000000;stroke-opacity:1"
       inkscape:connector-curvature="0"
       id="path21"
       d="m 520.07127,-224.08501 c 7.955,-4.208 13.791,-9.923 8.925,-19.124 -4.505,-8.518 -12.874,-7.593 -20.83,-3.385 l 11.905,22.509 z" />
    <path
       style="clip-rule:evenodd;fill:#f6d2a2;fill-rule:evenodd;stroke:#000000;stroke-width:3;stroke-linecap:round;stroke-opacity:1"
       inkscape:connector-curvature="0"
       id="path23"
       d="m 574.83027,-9.2590085 c -0.764,15.751 -16.499,8.46299998 -23.626,3.539 -6.765,-4.6750005 -8.743,-0.789 -9.337,-10.0150005 -0.389,-6.064 -1.088,-12.128 -0.744,-18.216 10.23,-0.927 21.357,1.509 29.744,7.602 4.319,3.139 12.42,13.158 3.963,17.0900005" />
    <path
       style="clip-rule:evenodd;fill:#c6b198;fill-rule:evenodd;stroke:#000000;stroke-width:3;stroke-linecap:round;stroke-opacity:1"
       inkscape:connector-curvature="0"
       id="path25"
       d="m 574.83027,-9.2590085 c -2.29,-0.8520005 -4.717,-1.4570005 -6.271,-3.5280005" />
    <path
       style="clip-rule:evenodd;fill:#6ad7e5;fill-rule:evenodd;stroke:#000000;stroke-width:3;stroke-linecap:round;stroke-opacity:1"
       inkscape:connector-curvature="0"
       id="path29"
       d="m 599.35387,-28.295679 c 60.365,0 116.953,8.633 146.452,66.629 26.478,65.005999 17.062,135.103999 21.1,203.805999 3.468,58.992 11.157,127.145 -16.21,181.812 -28.79,57.514 -100.73,71.982 -160,69.863 -46.555,-1.666 -102.794,-16.854 -129.069,-59.389 -30.826,-49.9 -16.232,-124.098 -13.993,-179.622 2.652,-65.771 -17.815,-131.742 3.792,-196.100999 22.415,-66.7629995 82.867,-81.851 147.928,-86.998"
       transform="translate(-221.4866,-266.33233)" />
    <path
       style="clip-rule:evenodd;fill:#ffffff;fill-rule:evenodd;stroke:#000000;stroke-width:2.90809989;stroke-linecap:round;stroke-opacity:1"
       inkscape:connector-curvature="0"
       id="path31"
       d="m 388.52427,-213.59201 c 10.838,63.003 113.822,46.345 99.03,-17.197 -13.264,-56.98 -102.632,-41.208 -99.03,17.197" />
    <path
       style="clip-rule:evenodd;fill:#ffffff;fill-rule:evenodd;stroke:#000000;stroke-width:2.82139993;stroke-linecap:round;stroke-opacity:1"
       inkscape:connector-curvature="0"
       id="path33"
       d="m 265.45827,-203.40201 c 14.047,54.85 101.864,40.807 98.554,-14.213 -3.966,-65.895 -111.984,-53.18 -98.554,14.213" />
    <path
       style="clip-rule:evenodd;fill:#ffffff;fill-rule:evenodd;stroke:#000000;stroke-width:3;stroke-linecap:round;stroke-opacity:1"
       inkscape:connector-curvature="0"
       id="path35"
       d="m 400.94927,-137.99001 c 0.046,8.191 1.861,17.387 0.312,26.101 -2.091,3.952 -6.193,4.37 -9.729,5.967 -4.89,-0.767 -9.002,-3.978 -10.963,-8.552 -1.255,-9.946 0.468,-19.576 0.785,-29.526 l 19.595,6.01 z" />
    <path
       inkscape:connector-curvature="0"
       id="ellipse39"
       d="m 289.67976,-228.40991 a 14.829,16.062 0 0 0 -14.83008,16.0625 14.829,16.062 0 0 0 14.83008,16.06054 14.829,16.062 0 0 0 14.82812,-16.06054 14.829,16.062 0 0 0 -14.82812,-16.0625 z m 6.74414,15.60546 a 3.4960001,4.0819998 0 0 1 3.49609,4.08204 3.4960001,4.0819998 0 0 1 -3.49609,4.08203 3.4960001,4.0819998 0 0 1 -3.49609,-4.08203 3.4960001,4.0819998 0 0 1 3.49609,-4.08204 z"
       style="clip-rule:evenodd;fill:#000000;fill-opacity:1;fill-rule:evenodd;stroke:#000000;stroke-opacity:1" />
    <path
       inkscape:connector-curvature="0"
       id="ellipse45"
       d="m 413.92585,-232.40991 a 14.582,16.062 0 0 0 -14.58203,16.0625 14.582,16.062 0 0 0 14.58203,16.06054 14.582,16.062 0 0 0 14.58203,-16.06054 14.582,16.062 0 0 0 -14.58203,-16.0625 z m 6.63281,15.60546 a 3.438,4.0819998 0 0 1 3.43946,4.08204 3.438,4.0819998 0 0 1 -3.43946,4.08203 3.438,4.0819998 0 0 1 -3.4375,-4.08203 3.438,4.0819998 0 0 1 3.4375,-4.08204 z"
       style="clip-rule:evenodd;fill:#000000;fill-opacity:1;fill-rule:evenodd;stroke:#000000;stroke-opacity:1" />
    <path
       style="clip-rule:evenodd;fill:#ffffff;fill-rule:evenodd;stroke:#000000;stroke-width:3;stroke-linecap:round;stroke-opacity:1"
       inkscape:connector-curvature="0"
       id="path49"
       d="m 358.57227,-138.88201 c -6.47,15.68 3.608,47.035001 21.163,23.908 -1.255,-9.946 0.468,-19.576 0.785,-29.526 l -21.948,5.618 z" />
    <path
       d="m 360.78627,-169.07901 c -12.059,1.028 -21.916,15.366 -15.646,26.709 8.303,15.024 26.836,-1.329 38.379,0.203 13.285,0.272 24.17,14.047 34.84,2.49 11.867,-12.854 -5.109,-25.373 -18.377,-30.97 l -39.196,1.568 z"
       id="path53"
       inkscape:connector-curvature="0"
       style="clip-rule:evenodd;fill:#f6d2a2;fill-rule:evenodd;stroke:#000000;stroke-width:3;stroke-linecap:round;stroke-opacity:1" />
    <path
       d="m 359.26827,-169.70701 c -0.893,-20.891 38.938,-23.503 43.642,-6.016 4.692,17.446 -41.681,21.498 -43.642,6.016 -1.565,-12.363 0,0 0,0 z"
       id="path55"
       inkscape:connector-curvature="0"
       style="clip-rule:evenodd;fill:#000000;fill-opacity:1;fill-rule:evenodd;stroke:#000000;stroke-opacity:1" />
  </g>
  <path
     style="clip-rule:evenodd;fill:#6ad7e5;fill-rule:evenodd;stroke:#000000;stroke-width:0.19618525;stroke-linecap:round"
     d="m -48.031051,11.149431 c -3.896788,0.3675 -7.516843,1.443995 -8.859375,6.210937 -1.294138,4.595294 -0.06968,9.30584 -0.228516,14.001953 -0.134104,3.964466 -1.008413,9.263264 0.837891,12.826172 1.573725,3.03704 4.944038,4.121278 7.732422,4.240235 3.54994,0.151298 7.857671,-0.881727 9.582031,-4.988282 1.63913,-3.903276 1.178416,-8.770336 0.970703,-12.982422 -0.241854,-4.905389 0.322213,-9.90929 -1.263671,-14.550781 -0.05445,-0.127606 -0.114389,-0.242284 -0.171875,-0.363281 l 0.677734,1.171875 c 3.325001,-1.140744 0.739877,-5.673582 -2.121094,-3.664063 l 0.710938,1.228516 c -1.888824,-2.67691 -4.793891,-3.130859 -7.867188,-3.130859 z"
     id="path29-4"
     inkscape:connector-curvature="0" />
  <path
     d="M 20.617393,47.778609 C 20.454537,47.455454 20.39987,47.078288 20.12798,46.817823"
     id="path13-1"
     inkscape:connector-curvature="0"
     style="clip-rule:evenodd;fill:none;fill-rule:evenodd;stroke:none;stroke-width:0.1798335;stroke-linecap:round;stroke-opacity:1" />
  <path
     d="m 3.5080274,47.904592 c 0.03274,-0.375719 0.3312683,-0.627323 0.4734647,-0.944994"
     id="path17-2"
     inkscape:connector-curvature="0"
     style="clip-rule:evenodd;fill:none;fill-rule:evenodd;stroke:none;stroke-width:0.1798335;stroke-linecap:round;stroke-opacity:1" />
</svg>
