<svg xmlns="http://www.w3.org/2000/svg" fill="#9C27B0" viewBox="0 0 48 48"><path d="M24.02 42.98L47.28 14c-.9-.68-9.85-8-23.28-8S1.62 13.32.72 14l23.26 28.98.02.02.02-.02z" fill-opacity=".3"/><path d="m42 32c-2.208 0-4 1.68-4 3.75v2.25h-.285c-.949 0-1.715.743-1.715 1.666v6.666c0 .923.765 1.668 1.715 1.668h8.572c.949 0 1.713-.745 1.713-1.668v-6.666c0-.923-.763-1.666-1.713-1.666h-.287v-2.25c0-2.07-1.792-3.75-4-3.75m0 2c1.107 0 2 .893 2 2v2h-4v-2c0-1.107.893-2 2-2zm-34.93-12.09l16.92 21.07.01.02.02-.02 16.92-21.07c-.86-.66-7.32-5.91-16.94-5.91-9.63 0-16.08 5.25-16.93 5.91"/></svg>