<?xml version="1.0" encoding="UTF-8" standalone="no"?>
<svg
   xmlns:dc="http://purl.org/dc/elements/1.1/"
   xmlns:cc="http://creativecommons.org/ns#"
   xmlns:rdf="http://www.w3.org/1999/02/22-rdf-syntax-ns#"
   xmlns:svg="http://www.w3.org/2000/svg"
   xmlns="http://www.w3.org/2000/svg"
   xmlns:sodipodi="http://sodipodi.sourceforge.net/DTD/sodipodi-0.dtd"
   xmlns:inkscape="http://www.inkscape.org/namespaces/inkscape"
   width="38.91849136352539"
   height="48"
   viewBox="0 0 38.91849136352539 40"
   id="svg2"
   version="1.1"
   inkscape:version="0.91 r13725"
   sodipodi:docname="gnome-do-panel.svg"
   style="fill:#8BC34A">
  <metadata
     id="metadata10">
    <rdf:RDF>
      <cc:Work
         rdf:about="">
        <dc:format>image/svg+xml</dc:format>
        <dc:type
           rdf:resource="http://purl.org/dc/dcmitype/StillImage" />
        <dc:title />
      </cc:Work>
    </rdf:RDF>
  </metadata>
  <defs
     id="defs8" />
  <sodipodi:namedview
     pagecolor="#ffffff"
     bordercolor="#666666"
     borderopacity="1"
     objecttolerance="10"
     gridtolerance="10"
     guidetolerance="10"
     inkscape:pageopacity="0"
     inkscape:pageshadow="2"
     inkscape:window-width="668"
     inkscape:window-height="480"
     id="namedview6"
     showgrid="false"
     fit-margin-top="0"
     fit-margin-left="0"
     fit-margin-right="0"
     fit-margin-bottom="0"
     inkscape:zoom="6.549153645833334"
     inkscape:cx="19.45424494427767"
     inkscape:cy="20"
     inkscape:window-x="0"
     inkscape:window-y="30"
     inkscape:window-maximized="0"
     inkscape:current-layer="svg2" />
  <path
     d="m 34.31424568176269,21.95 c 0.08,-0.64 0.14,-1.29 0.14,-1.95 0,-0.66 -0.06,-1.31 -0.14,-1.95 l 4.23000000000001,-3.31 c 0.38000000000001,-0.3 0.48999999999999,-0.84 0.23999999999999,-1.28 l -4,-6.929999999999999 c -0.25,-0.430000000000002 -0.77000000000001,-0.61 -1.22,-0.430000000000002 l -4.98,2.01 c -1.03,-0.789999999999997 -2.16000000000001,-1.460000000000001 -3.38000000000001,-1.97 l -0.75,-5.2999999999999989 c -0.09,-0.4699999999999995 -0.5,-0.839999999999999680255768907954 -1,-0.839999999999999680255768907954 l -8,0 c -0.5,0 -0.91,0.370000000000000106581410364015 -0.99,0.839999999999999680255768907954 l -0.75,5.3000000000000015 c -1.22,0.510000000000001 -2.35,1.170000000000001 -3.38,1.969999999999999 L 5.354245681762686,6.1 C 4.904245681762685,5.93 4.384245681762685,6.1 4.134245681762685,6.530000000000001 l -4.0000000000000017,6.93 c -0.2500000000000001,0.43 -0.139999999999999591,0.97 0.2400000000000002,1.28 l 4.2200000000000024,3.31 c -0.08,0.64 -0.140000000000002,1.29 -0.140000000000002,1.95 0,0.66 0.06,1.31 0.140000000000001,1.95 l -4.2200000000000015,3.31 c -0.379999999999999893,0.3 -0.4900000000000003,0.84 -0.2400000000000002,1.28 l 4,6.93 c 0.25,0.43 0.77,0.61 1.220000000000001,0.43 l 4.980000000000005,-2.01 c 1.03,0.79 2.16,1.46 3.38,1.97 l 0.75,5.3 c 0.08,0.47000000000001 0.49,0.84 0.99,0.84 l 7.99999999999999,0 c 0.5,0 0.90999999999999,-0.37 0.99,-0.84 l 0.75,-5.3 c 1.21999999999999,-0.51 2.35,-1.17 3.37999999999999,-1.97 l 4.98000000000002,2.01 c 0.45,0.17 0.96999999999999,0 1.21999999999999,-0.43 l 4,-6.93 c 0.25,-0.43 0.14,-0.97 -0.24000000000001,-1.28 L 34.31424568176268,21.95 Z M 19.45424568176268,27 c -3.87,0 -6.99999999999999,-3.13 -6.99999999999999,-7 0,-3.87 3.12999999999999,-7 6.99999999999999,-7 3.86999999999999,0 7,3.13 7,7 0,3.87 -3.13000000000001,7 -7,7 z"
     id="path4"
     inkscape:connector-curvature="0" />
</svg>
