<svg xmlns="http://www.w3.org/2000/svg" fill="#FF5722" viewBox="0 0 48 48"><path d="m8 8c-2.21 0-3.98 1.79-3.98 4l-.02 24c0 2.21 1.79 4 4 4h32c2.21 0 4-1.79 4-4v-20c0-2.21-1.79-4-4-4h-16l-4-4h-12" fill="#294172"/><g fill="none" stroke="#3c6eb4" stroke-width="2.536"><path d="m26.421 26.425c0 0 4.153 0 4.153 0 0 0 0 4.153 0 4.153 0 2.293-1.861 4.153-4.153 4.153-2.293 0-4.153-1.861-4.153-4.153 0-2.293 1.861-4.153 4.153-4.153z"/><path d="m34.707 26.433c0 0-4.153 0-4.153 0 0 0 0-4.153 0-4.153 0-2.293 1.861-4.153 4.153-4.153 2.293 0 4.153 1.861 4.153 4.153 0 2.293-1.861 4.153-4.153 4.153z"/></g><g fill="#fff"><path d="m31.845 25.16v5.413c0 2.995-2.429 5.424-5.424 5.424-.454 0-.777-.051-1.198-.161-.614-.161-1.115-.663-1.115-1.248 0-.707.513-1.221 1.28-1.221.365 0 .498.07 1.033.07 1.579 0 2.86-1.279 2.863-2.858v-2.488c0-.223-.181-.403-.404-.403h-1.881c-.701 0-1.267-.559-1.267-1.262 0-.707.572-1.264 1.28-1.264"/><path d="m29.28 27.698v-5.413c0-2.995 2.429-5.424 5.424-5.424.454 0 .777.051 1.198.161.614.161 1.115.663 1.115 1.248 0 .707-.513 1.221-1.28 1.221-.365 0-.498-.07-1.033-.07-1.579 0-2.86 1.279-2.863 2.858v2.488c0 .223.181.403.404.403h1.881c.701 0 1.267.559 1.267 1.262 0 .707-.572 1.264-1.28 1.264"/></g><path d="m40.877 35.23c0 0 0-.48 0-.48l-.22.503c0 0-.214-.503-.214-.503v.48h-.123v-.758h.129c0 0 .211.484.211.484l.208-.484h.131v.758h-.123m-.897-.631v.631h-.129v-.631h-.216v-.127h.56v.127" fill="#3c6eb4"/></svg>