<?xml version="1.0" encoding="UTF-8" standalone="no"?>
<svg
   xmlns:dc="http://purl.org/dc/elements/1.1/"
   xmlns:cc="http://creativecommons.org/ns#"
   xmlns:rdf="http://www.w3.org/1999/02/22-rdf-syntax-ns#"
   xmlns:svg="http://www.w3.org/2000/svg"
   xmlns="http://www.w3.org/2000/svg"
   xmlns:sodipodi="http://sodipodi.sourceforge.net/DTD/sodipodi-0.dtd"
   xmlns:inkscape="http://www.inkscape.org/namespaces/inkscape"
   fill="#FF5722"
   width="48"
   height="48"
   viewBox="0 0 48 48"
   id="svg2"
   version="1.1"
   inkscape:version="0.91 r13725"
   sodipodi:docname="folder-collection.svg">
  <metadata
     id="metadata10">
    <rdf:RDF>
      <cc:Work
         rdf:about="">
        <dc:format>image/svg+xml</dc:format>
        <dc:type
           rdf:resource="http://purl.org/dc/dcmitype/StillImage" />
        <dc:title />
      </cc:Work>
    </rdf:RDF>
  </metadata>
  <defs
     id="defs8" />
  <sodipodi:namedview
     pagecolor="#ffffff"
     bordercolor="#666666"
     borderopacity="1"
     objecttolerance="10"
     gridtolerance="10"
     guidetolerance="10"
     inkscape:pageopacity="0"
     inkscape:pageshadow="2"
     inkscape:window-width="1366"
     inkscape:window-height="713"
     id="namedview6"
     showgrid="false"
     inkscape:zoom="6.179518388275623"
     inkscape:cx="18.46499116598509"
     inkscape:cy="10.76417838998693"
     inkscape:window-x="0"
     inkscape:window-y="30"
     inkscape:window-maximized="1"
     inkscape:current-layer="svg2"
     inkscape:snap-bbox="true"
     inkscape:bbox-nodes="true" />
  <path
     d="m 8,12 -4,0 0,28 c 0,2.21 1.79,4 4,4 l 28,0 0,-4 -28,0 0,-28 z"
     id="path4146" />
  <path
     d="m 16,4 c -2.21,0 -4,1.790000000000001 -4,4 l 0,24 c 0,2.21 1.79,4 4,4 l 24,0 c 2.21,0 4,-1.79 4,-4 L 44,8 C 44,5.79 42.21,4.000000000000001 40,4 L 16,4 Z"
     id="path4195" />
  <g
     id="g4529"
     transform="matrix(0.75,0,0,0.75,-29.28092970142177,-2.293750440669697)">
    <path
       d="m 59.1818992330396,20.51860179509175 c 0.10915723562001,-0.0182605041 2.83098681896999,1.41843537958998 4.66048643529999,1.91491819661998 3.26234050471,0.83369345941 6.24022293444001,3.34288961724001 7.67955644649999,4.78425207420001 0.10672250174001,0.12335984991998 1.23623612757001,-0.84566423431999 2.41829942631,-0.77586852976001 1.61463435142001,0.09779514418 6.61070827318001,1.50263659294 7.27823114528002,0.54598907258996 0.40477450755,-0.56161194831996 0.37576059548,-1.25064163635995 0.88076498108998,-1.53286787194998 0.27187861660002,-0.07608543375 -1.01061745468998,-2.42174863263998 0.35242772913004,-3.1732698236 0.97186460709999,-0.48572940905998 1.79541334200999,2.23366544041003 2.04497356471001,2.53841296439002 0.11179486398999,0.13634509728001 0.70485545826001,0.16961979364001 0.63465396472003,-0.14101167055 -0.07608543375,-0.33741353687 -1.03537058247005,-2.94683957275999 0.14101167055,-3.38468588217999 1.91065741232998,-0.75659355321 1.57202650851998,3.33883172744001 1.62173565856996,3.45529316469997 0.10570802929004,0.24793706678 6.65433058853007,0.43906367636 7.05139510546006,3.38468588218004 0.22967656268001,1.62112697510002 -5.24644572242002,3.71641837333 -5.78208717602004,4.08974423492998 -0.53543855911001,0.37332586160001 -0.49080177131,0.97044434567004 -0.2820233411,1.33991521195999 0.24002418166998,0.40071661775004 1.83538355653997,1.75321128809004 1.62193855305998,2.39740129384001 -0.14669271627002,0.37210849466 -3.12416935702002,-0.99174826711998 -3.31428149415002,-0.70505835275 -0.43358552512997,0.54761222850999 2.16752183667002,1.91836740294999 1.26930792944003,2.89104358801001 -0.35607982994999,0.23292287452002 -4.45292537203001,-1.71527001846003 -4.44257775304001,-1.69234294109002 -0.10996881357998,0.04179626494 -5.78898558868001,1.03739952737 -10.15405764653998,-0.28222623559 -0.15379402342002,-0.04341942086 -2.80156711792002,2.55768794094 -3.10266254108004,2.46821147085001 -0.41167292020998,-0.15095350056 0.60685741959004,-2.26227356350001 0.49364229417002,-2.67962752943 -0.18503977488002,-0.23251708554004 -1.87697692699003,0.94406806197 -1.97436628219,0.35263062362 -0.11646143726001,-0.77728879119003 1.48478187782,-1.67083612515006 1.41031959998998,-2.18598523526004 -0.41289028715001,-2.92655012376035 0.18443109141,-4.63553041303035 1.19870064691997,-6.06411051712034 0.33822511483,-0.52590251807999 -3.97510884808001,-3.78317066054 -7.09785794366999,-5.06871014917997 -3.12254620109998,-1.28553948863995 -4.79317943175998,-2.37508289993995 -4.60753097340999,-2.47673303942994 z"
       id="path14"
       style="fill:#020202;fill-opacity:1;fill-rule:evenodd;stroke:#000002;stroke-width:0.2028944969pt;stroke-linecap:butt;stroke-linejoin:miter;stroke-opacity:1"
       inkscape:connector-curvature="0" />
    <path
       d="m 87.244714975936,30.30367552211774 c -0.03428916881,-0.11970774909999 2.13100082847001,-1.42939168204999 2.44447281552002,-1.12829625888999 0.56424957668997,0.20451764591999 -2.42458915550002,1.28026423189997 -2.44447281552002,1.12829625888999 z"
       id="path7"
       style="fill:#4caf50;fill-opacity:1;fill-rule:evenodd;stroke:#000000;stroke-width:0.1217366934pt;stroke-linecap:butt;stroke-linejoin:miter;stroke-opacity:1"
       inkscape:connector-curvature="0" />
    <path
       d="m 88.278868191466,31.49466617841774 c -0.19072082059999,-0.11524407032001 1.29629289661001,-1.84918038186001 1.66109718963001,-1.66109718963 0.53259803625001,0.52914882991999 -1.6860532119,1.70228477109999 -1.66109718963001,1.66109718963 z"
       id="path8"
       style="fill:#4caf50;fill-opacity:1;fill-rule:evenodd;stroke:#000000;stroke-width:0.1217366934pt;stroke-linecap:butt;stroke-linejoin:miter;stroke-opacity:1"
       inkscape:connector-curvature="0" />
    <path
       d="m 94.13947553511599,23.47160936034773 c -0.18077899059,-0.14953323913 -1.59840279222003,2.08717561863 -1.28493080517001,2.31928691519 0.18848898120999,0.14101167055 1.36568281218999,-2.23954938062001 1.28493080516998,-2.31928691519 z"
       id="path13"
       style="fill:#020202;fill-opacity:1;fill-rule:evenodd;stroke:#000000;stroke-width:0.1217366934pt;stroke-linecap:butt;stroke-linejoin:miter;stroke-opacity:1"
       inkscape:connector-curvature="0" />
    <ellipse
       cx="87.72777557373047"
       cy="26.67296409606934"
       rx="0.5654746294021606"
       ry="0.6438236832618713"
       id="ellipse17"
       style="fill:#4caf50;fill-opacity:1;fill-rule:evenodd;stroke:#000000;stroke-width:0.1131584287pt;stroke-linecap:butt;stroke-linejoin:miter;stroke-opacity:1" />
    <path
       d="m 92.509806701987,23.15821244425903 c -0.08947647009,-0.10388197887999 -0.56424957669,2.30650456232001 -0.34471773851,2.41322706406001 0.18848898120997,0.14101167054999 0.51677226603,-2.28783826924001 0.34471773851,-2.41322706406001 z"
       id="path18"
       style="fill:#020202;fill-opacity:1;fill-rule:evenodd;stroke:#000000;stroke-width:0.1217366934pt;stroke-linecap:butt;stroke-linejoin:miter;stroke-opacity:1"
       inkscape:connector-curvature="0" />
    <path
       d="m 86.458519116635,26.42027498351774 c -0.56222063179003,0.39747030591001 0.30860251928999,2.64675862205 1.74083472419997,1.33342258828 -1.12525284153996,0.03307180187 -1.50060764803999,-0.29642884989 -1.74083472419997,-1.33342258828 z"
       id="path21"
       style="fill:#4caf50;fill-opacity:1;fill-rule:evenodd;stroke:#000000;stroke-width:0.1217366934pt;stroke-linecap:butt;stroke-linejoin:miter;stroke-opacity:1"
       inkscape:connector-curvature="0" />
  </g>
</svg>
