<svg xmlns="http://www.w3.org/2000/svg" fill="#FF5722" viewBox="0 0 48 48"><path d="m8 8c-2.21 0-3.98 1.79-3.98 4l-.02 24c0 2.21 1.79 4 4 4h32c2.21 0 4-1.79 4-4v-20c0-2.21-1.79-4-4-4h-16l-4-4h-12m27.438 8.25c.368-.026.748.053 1.092.252.917.53 1.231 1.702.701 2.619-.529.917-1.702 1.231-2.619.701-.917-.529-1.231-1.702-.701-2.619.331-.573.913-.91 1.527-.953m-4.75 2.041c.771 0 1.518.107 2.227.303.125.77.582 1.48 1.311 1.9.728.42 1.572.463 2.301.188 1.418 1.394 2.34 3.292 2.475 5.404l-2.732.039c-.252-2.861-2.653-5.105-5.58-5.105-.843 0-1.642.188-2.359.521l-1.332-2.387c1.113-.551 2.365-.863 3.691-.863m-4.623 1.4l1.402 2.348c-1.44 1.014-2.383 2.689-2.383 4.584 0 1.896.942 3.57 2.383 4.584l-1.402 2.348c-1.678-1.121-2.927-2.834-3.445-4.842.606-.494.992-1.247.992-2.09 0-.843-.386-1.594-.992-2.088.519-2.01 1.767-3.723 3.445-4.844m-5.146 5.01c1.059 0 1.918.858 1.918 1.918 0 1.059-.859 1.918-1.918 1.918-1.059 0-1.918-.859-1.918-1.918 0-1.059.859-1.918 1.918-1.918m15.35 2.414l2.732.039c-.134 2.113-1.056 4.01-2.475 5.404-.729-.276-1.573-.233-2.301.188-.729.421-1.185 1.13-1.311 1.9-.709.196-1.455.303-2.227.303-1.326 0-2.58-.31-3.693-.861l1.334-2.389c.717.334 1.516.521 2.359.521 2.927 0 5.329-2.243 5.58-5.105m-.564 6.05c.614.043 1.196.38 1.527.953.53.917.216 2.09-.701 2.619-.917.53-2.089.216-2.619-.701-.529-.917-.216-2.09.701-2.619.344-.199.723-.278 1.092-.252" fill="#dd4814"/></svg>