<?xml version="1.0" encoding="UTF-8" standalone="no"?>
<svg
   xmlns:dc="http://purl.org/dc/elements/1.1/"
   xmlns:cc="http://creativecommons.org/ns#"
   xmlns:rdf="http://www.w3.org/1999/02/22-rdf-syntax-ns#"
   xmlns:svg="http://www.w3.org/2000/svg"
   xmlns="http://www.w3.org/2000/svg"
   xmlns:sodipodi="http://sodipodi.sourceforge.net/DTD/sodipodi-0.dtd"
   xmlns:inkscape="http://www.inkscape.org/namespaces/inkscape"
   fill="#FF5722"
   width="48"
   height="48"
   viewBox="0 0 48 48"
   id="svg2"
   version="1.1"
   inkscape:version="0.91 r13725"
   sodipodi:docname="folder-.svg">
  <metadata
     id="metadata10">
    <rdf:RDF>
      <cc:Work
         rdf:about="">
        <dc:format>image/svg+xml</dc:format>
        <dc:type
           rdf:resource="http://purl.org/dc/dcmitype/StillImage" />
        <dc:title />
      </cc:Work>
    </rdf:RDF>
  </metadata>
  <defs
     id="defs8" />
  <sodipodi:namedview
     pagecolor="#ffffff"
     bordercolor="#666666"
     borderopacity="1"
     objecttolerance="10"
     gridtolerance="10"
     guidetolerance="10"
     inkscape:pageopacity="0"
     inkscape:pageshadow="2"
     inkscape:window-width="1366"
     inkscape:window-height="713"
     id="namedview6"
     showgrid="false"
     inkscape:zoom="11.02408851011358"
     inkscape:cx="21.8722285788773"
     inkscape:cy="20.79927136877932"
     inkscape:window-x="0"
     inkscape:window-y="30"
     inkscape:window-maximized="1"
     inkscape:current-layer="svg2"
     inkscape:snap-bbox="true"
     inkscape:bbox-paths="true"
     inkscape:bbox-nodes="true" />
  <path
     d="M 8,8 C 5.79,8 4.019531200000001,9.789999999999999 4.019531200000001,12 L 4,36 c 0,2.21 1.79,4 4,4 l 32,0 c 2.21,0 4,-1.79 4,-4 l 0,-20 c 0,-2.21 -1.79,-4 -4,-4 L 24,12 20,8 8,8 Z"
     id="path4184" />
  <path
     inkscape:connector-curvature="0"
     style="fill:#020202;fill-opacity:1;fill-rule:evenodd;stroke:#000002;stroke-width:0.2028944969pt;stroke-linecap:butt;stroke-linejoin:miter;stroke-opacity:1"
     id="path14"
     d="m 6.962367158561662,16.74671540296806 c 0.109157235620004,-0.0182605041 2.83098681896999,1.41843537958998 4.660486435299998,1.91491819661998 3.26234050470999,0.83369345941 6.24022293444,3.34288961724001 7.6795564465,4.78425207420001 0.10672250174,0.12335984991998 1.23623612756999,-0.84566423431999 2.41829942631,-0.77586852976001 1.61463435142,0.09779514418 6.61070827318,1.50263659294 7.27823114528,0.54598907258996 0.40477450755,-0.56161194831996 0.37576059548,-1.25064163635995 0.88076498109,-1.53286787194998 0.2718786166,-0.07608543375 -1.01061745469,-2.42174863263998 0.35242772913003,-3.1732698236 0.9718646071,-0.48572940905998 1.79541334200998,2.23366544041003 2.04497356470999,2.53841296439002 0.11179486399,0.13634509728001 0.70485545826003,0.16961979364001 0.63465396472003,-0.14101167055 -0.07608543375,-0.33741353687 -1.03537058247004,-2.94683957275999 0.14101167054999,-3.38468588217999 1.91065741232998,-0.75659355321 1.57202650851998,3.33883172744001 1.62173565856998,3.45529316469997 0.10570802929005,0.24793706678 6.65433058853008,0.43906367636 7.05139510546006,3.38468588218004 0.22967656268001,1.62112697510002 -5.24644572242004,3.71641837333 -5.78208717602005,4.08974423492998 -0.53543855910999,0.37332586160001 -0.49080177130999,0.97044434567004 -0.2820233411,1.33991521195999 0.24002418166998,0.40071661775004 1.83538355653998,1.75321128809004 1.62193855305999,2.39740129384001 -0.14669271627003,0.37210849466 -3.12416935702002,-0.99174826711999 -3.31428149415001,-0.70505835275 -0.43358552512999,0.54761222850999 2.16752183667,1.91836740294999 1.26930792944001,2.89104358801001 -0.35607982995,0.23292287452002 -4.45292537203001,-1.71527001846003 -4.44257775304,-1.69234294109002 -0.10996881358,0.04179626494 -5.78898558868001,1.03739952737 -10.15405764654,-0.28222623559 -0.15379402342001,-0.04341942086 -2.80156711792,2.55768794094001 -3.10266254108002,2.46821147085001 -0.41167292020999,-0.15095350056 0.60685741959003,-2.2622735635 0.49364229417001,-2.67962752942999 -0.18503977488002,-0.23251708554001 -1.87697692699001,0.94406806197 -1.97436628219,0.35263062362001 -0.11646143726002,-0.77728879119001 1.48478187782,-1.67083612515004 1.41031959998997,-2.18598523526002 -0.41289028714999,-2.92655012376001 0.18443109141001,-4.63553041303001 1.19870064691999,-6.06411051712 0.33822511482999,-0.52590251807999 -3.97510884808001,-3.78317066054001 -7.09785794367,-5.06871014918 C 8.447351930871647,17.93790895375805 6.776718700211639,16.84836554245805 6.962367158561634,16.74671540296806 Z" />
  <path
     inkscape:connector-curvature="0"
     style="fill:#4caf50;fill-opacity:1;fill-rule:evenodd;stroke:#000000;stroke-width:0.1217366934pt;stroke-linecap:butt;stroke-linejoin:miter;stroke-opacity:1"
     id="path7"
     d="m 35.02518290145808,26.53178912999405 c -0.03428916881,-0.11970774909999 2.13100082847,-1.42939168204999 2.44447281552,-1.12829625888999 0.56424957668999,0.20451764591999 -2.42458915550001,1.28026423189997 -2.44447281552,1.12829625888999 z" />
  <path
     inkscape:connector-curvature="0"
     style="fill:#4caf50;fill-opacity:1;fill-rule:evenodd;stroke:#000000;stroke-width:0.1217366934pt;stroke-linecap:butt;stroke-linejoin:miter;stroke-opacity:1"
     id="path8"
     d="m 36.05933611698807,27.72277978629405 c -0.1907208206,-0.11524407032001 1.29629289661001,-1.84918038186001 1.66109718963001,-1.66109718963 0.53259803624999,0.52914882991999 -1.68605321190002,1.70228477109999 -1.66109718963001,1.66109718963 z" />
  <path
     inkscape:connector-curvature="0"
     style="fill:#020202;fill-opacity:1;fill-rule:evenodd;stroke:#000000;stroke-width:0.1217366934pt;stroke-linecap:butt;stroke-linejoin:miter;stroke-opacity:1"
     id="path13"
     d="m 41.91994346063806,19.69972296822404 c -0.18077899059,-0.14953323913 -1.59840279222001,2.08717561863 -1.28493080517001,2.31928691519 0.18848898121,0.14101167055 1.36568281219001,-2.23954938062001 1.28493080517001,-2.31928691519 z" />
  <ellipse
     style="fill:#4caf50;fill-opacity:1;fill-rule:evenodd;stroke:#000000;stroke-width:0.1131584287pt;stroke-linecap:butt;stroke-linejoin:miter;stroke-opacity:1"
     id="ellipse17"
     ry="0.6438236832618713"
     rx="0.5654746294021606"
     cy="22.90107727050781"
     cx="35.50824356079102" />
  <path
     inkscape:connector-curvature="0"
     style="fill:#020202;fill-opacity:1;fill-rule:evenodd;stroke:#000000;stroke-width:0.1217366934pt;stroke-linecap:butt;stroke-linejoin:miter;stroke-opacity:1"
     id="path18"
     d="m 40.29027462750907,19.38632605213534 c -0.08947647009,-0.10388197887999 -0.56424957669001,2.30650456232001 -0.34471773851,2.41322706406001 0.18848898120998,0.14101167054999 0.51677226603001,-2.28783826924001 0.34471773851,-2.41322706406001 z" />
  <path
     inkscape:connector-curvature="0"
     style="fill:#4caf50;fill-opacity:1;fill-rule:evenodd;stroke:#000000;stroke-width:0.1217366934pt;stroke-linecap:butt;stroke-linejoin:miter;stroke-opacity:1"
     id="path21"
     d="m 34.23898704215707,22.64838859139405 c -0.56222063179002,0.39747030591001 0.30860251928999,2.64675862205 1.74083472419999,1.33342258828 -1.12525284153998,0.03307180187 -1.50060764804001,-0.29642884989 -1.74083472419999,-1.33342258828 z" />
</svg>
