<svg xmlns="http://www.w3.org/2000/svg" viewBox="0 0 64 64"><defs><linearGradient id="0" gradientUnits="userSpaceOnUse" gradientTransform="matrix(-.12802 0 0 .13056 601.39 199.75)" x1="541.34" y1="104.51" x2="606.91" y2="303.14"><stop stop-color="#fff" stop-opacity="0"/><stop offset="1" stop-color="#fff" stop-opacity=".272"/></linearGradient><linearGradient id="1" gradientUnits="userSpaceOnUse" gradientTransform="matrix(.24588 0 0 .24609 471.43 143.91)" x1="200.96" y1="508.03" x2="301.54" y2="296.88"><stop stop-color="#35a6c2"/><stop offset="1" stop-color="#c1e5ee"/></linearGradient></defs><g transform="translate(-591.02-27.344)"><text x="485" y="211.09" font-family="Trebuchet MS" font-size="24"><tspan x="485" y="211.09"/></text><g transform="translate(91.36-178.09)" fill-rule="evenodd"><g stroke-linejoin="round" stroke-miterlimit="10"><path d="m531.66 205.93c-2.804 6.875-4.501 11.378-7.623 18.05 1.914 2.029 5.7 4.28 8.08 7.05-4.102-1.688-6.897-3.377-8.988-5.136-3.996 8.338-10.264 20.21-22.968 43.04 9.938-5.737 17.654-9.291 24.839-10.661-.305-1.322-.471-2.755-.459-4.246l.006-.314c.158-6.378 3.473-11.284 7.4-10.951 3.927.333 6.986 5.78 6.828 12.158-.029 1.18-.167 2.307-.396 3.362 7.172 1.378 14.873 4.931 24.782 10.652-1.942-3.576-3.685-6.799-5.34-9.869-2.608-2.02-5.324-4.65-10.872-7.498 3.813.991 6.546 2.138 8.674 3.415-16.832-31.34-18.19-35.504-23.965-49.05z" fill="url(#1)" stroke="#08a"/><path d="m531.66 208.27c-2.596 6.364-2.954 9.233-5.844 15.408 1.772 1.878 7.582 5.877 9.286 9.1-3.798-.767-9.63-3.591-11.566-5.219-3.699 7.718-9.273 17.904-21.03 39.03 9.2-5.311 14.778-7.939 21.429-9.207-.282-1.224-.436-2.55-.425-3.93l.006-.543c.146-5.904 4.779-11.517 8.414-11.208 3.635.308 8.097 6.572 7.951 12.476-.027 1.092-.155 2.136-.367 3.112 6.639 1.276 12.137 4.01 21.31 9.301-1.798-3.31-3.151-4.939-4.683-7.78-2.602-1.833-7.04-4.658-11.222-8.152 1.868-1.194 6.583 1.498 8.747 2.603-15.581-29.01-16.661-32.451-22-44.989z" fill="none" stroke="#d7f3f8" stroke-linecap="round" stroke-width=".8"/></g><path d="m549.29 244.19c-13.655-18.534-16.82-33.471-17.622-37.04 7.284 16.801 7.234 17.01 17.622 37.04" fill="#fff" fill-opacity=".456"/><path d="m532.07 206.18c-.347.869-.691 1.698-1.011 2.5-.351.881-.679 1.738-1.011 2.563-.332.824-.654 1.612-.98 2.406-.326.794-.646 1.585-.98 2.375-.334.79-.687 1.595-1.042 2.406-.355.812-.713 1.64-1.103 2.5-.39.86-.818 1.754-1.256 2.688-.06.128-.123.277-.184.406 1.886 2.02 5.581 4.243 7.905 7-4.02-1.688-6.774-3.366-8.824-5.125-.108.224-.195.426-.306.656-.405.855-.831 1.719-1.287 2.656-.107.216-.197.404-.306.625-.484.991-.982 1.994-1.532 3.094-.11.219-.224.401-.337.625-1.414 2.817-3.082 6.105-5.03 9.813 7.842-4.502 16.284-11.03 31.651-5.438-.77-1.487-1.48-2.877-2.145-4.188-.664-1.311-1.265-2.527-1.838-3.688-.573-1.161-1.128-2.276-1.624-3.313-.496-1.037-.947-1.999-1.379-2.938-.432-.938-.843-1.853-1.226-2.719-.382-.866-.726-1.681-1.072-2.5-.347-.819-.687-1.639-1.011-2.438-.325-.799-.634-1.571-.95-2.375-.084-.213-.161-.442-.245-.656-.91-2.175-1.798-4.345-2.88-6.938" fill="url(#0)"/></g></g></svg>