<?xml version="1.0" encoding="UTF-8" standalone="no"?>
<svg
   xmlns:dc="http://purl.org/dc/elements/1.1/"
   xmlns:cc="http://creativecommons.org/ns#"
   xmlns:rdf="http://www.w3.org/1999/02/22-rdf-syntax-ns#"
   xmlns:svg="http://www.w3.org/2000/svg"
   xmlns="http://www.w3.org/2000/svg"
   xmlns:sodipodi="http://sodipodi.sourceforge.net/DTD/sodipodi-0.dtd"
   xmlns:inkscape="http://www.inkscape.org/namespaces/inkscape"
   width="32"
   height="40"
   viewBox="0 0 32 40"
   id="svg2"
   version="1.1"
   inkscape:version="0.91 r13725"
   sodipodi:docname="gnome-logs.svg"
   style="fill:#4caf50">
  <metadata
     id="metadata10">
    <rdf:RDF>
      <cc:Work
         rdf:about="">
        <dc:format>image/svg+xml</dc:format>
        <dc:type
           rdf:resource="http://purl.org/dc/dcmitype/StillImage" />
        <dc:title></dc:title>
      </cc:Work>
    </rdf:RDF>
  </metadata>
  <defs
     id="defs8" />
  <sodipodi:namedview
     pagecolor="#ffffff"
     bordercolor="#666666"
     borderopacity="1"
     objecttolerance="10"
     gridtolerance="10"
     guidetolerance="10"
     inkscape:pageopacity="0"
     inkscape:pageshadow="2"
     inkscape:window-width="1366"
     inkscape:window-height="713"
     id="namedview6"
     showgrid="false"
     inkscape:snap-bbox="true"
     inkscape:bbox-nodes="true"
     inkscape:snap-bbox-edge-midpoints="false"
     inkscape:zoom="6.018032716108147"
     inkscape:cx="-13.87087922045382"
     inkscape:cy="29.46341865449592"
     inkscape:window-x="0"
     inkscape:window-y="30"
     inkscape:window-maximized="1"
     inkscape:current-layer="svg2"
     fit-margin-top="0"
     fit-margin-left="0"
     fit-margin-right="0"
     fit-margin-bottom="0" />
  <path
     style="fill:#4caf50"
     d="M 4,0 C 1.789999999999999,0 0.0195312499999982,1.790000000000001 0.01953125,4 L 0,36 c 0,2.21 1.770468749999999,4 3.98046875,4 L 28,40 c 2.21,0 4,-1.79 4,-4 L 32,12 20,0 4,0 Z M 18,3 29,14 18,14 18,3 Z M 12.98046875,20 14.3984375,21.173828125 10.392578125,25.99609375 14.3984375,30.826171875 12.98046875,32 8,25.99609375 12.98046875,20 Z m 6.0390625,0 L 24,26.001953125 19.01953125,32 17.6015625,30.826171875 21.607421875,26.001953125 17.6015625,21.173828125 19.01953125,20 Z"
     id="path4297"
     inkscape:connector-curvature="0" />
</svg>
