<?xml version="1.0" encoding="UTF-8" standalone="no"?>
<!-- Created with Inkscape (http://www.inkscape.org/) -->

<svg
   xmlns:dc="http://purl.org/dc/elements/1.1/"
   xmlns:cc="http://creativecommons.org/ns#"
   xmlns:rdf="http://www.w3.org/1999/02/22-rdf-syntax-ns#"
   xmlns:svg="http://www.w3.org/2000/svg"
   xmlns="http://www.w3.org/2000/svg"
   xmlns:sodipodi="http://sodipodi.sourceforge.net/DTD/sodipodi-0.dtd"
   xmlns:inkscape="http://www.inkscape.org/namespaces/inkscape"
   width="30.99999618530273"
   height="30.99999809265137"
   viewBox="0 0 30.99999618530273 30.9999990926513"
   id="svg4921"
   version="1.1"
   inkscape:version="0.91 r13725"
   sodipodi:docname="text-x-sql.svg">
  <defs
     id="defs4923" />
  <sodipodi:namedview
     id="base"
     pagecolor="#ffffff"
     bordercolor="#666666"
     borderopacity="1.0"
     inkscape:pageopacity="0.0"
     inkscape:pageshadow="2"
     inkscape:zoom="8.64659011097787"
     inkscape:cx="4.695886224116013"
     inkscape:cy="16.10380966563181"
     inkscape:document-units="px"
     inkscape:current-layer="layer1"
     showgrid="false"
     units="px"
     inkscape:window-width="1366"
     inkscape:window-height="713"
     inkscape:window-x="0"
     inkscape:window-y="30"
     inkscape:window-maximized="1"
     inkscape:snap-bbox="true"
     inkscape:bbox-paths="true"
     inkscape:bbox-nodes="true"
     fit-margin-top="0"
     fit-margin-left="0"
     fit-margin-right="0"
     fit-margin-bottom="0" />
  <metadata
     id="metadata4926">
    <rdf:RDF>
      <cc:Work
         rdf:about="">
        <dc:format>image/svg+xml</dc:format>
        <dc:type
           rdf:resource="http://purl.org/dc/dcmitype/StillImage" />
        <dc:title></dc:title>
      </cc:Work>
    </rdf:RDF>
  </metadata>
  <g
     inkscape:label="Layer 1"
     inkscape:groupmode="layer"
     id="layer1"
     transform="translate(-8.50000190734886,-1013.3622)">
    <path
       id="rect4165-7-3"
       style="opacity:1;fill:#607D8B;fill-opacity:1;fill-rule:nonzero;stroke:none;stroke-width:6;stroke-miterlimit:4;stroke-dasharray:none;stroke-opacity:1"
       d="m 10.15742412285714,1013.3622 27.68516087714286,0 c 0.91821025714286,0 1.657415,0.3969 1.657415,0.89 l 0,5.22 c 0,0.4931 -0.73920474285715,0.89 -1.657415,0.89 l -27.68516087714285,0 C 9.239213245714285,1020.3622 8.5,1019.9653 8.5,1019.4722 l 0,-5.22 c 0,-0.4931 0.739213245714286,-0.89 1.65742412285714,-0.89 z m 0,24 27.68516087714286,0 c 0.91821025714286,0 1.657415,0.3969 1.657415,0.89 l 0,5.22 c 0,0.4931 -0.73920474285715,0.89 -1.657415,0.89 l -27.68516087714285,0 C 9.239213245714285,1044.3622 8.5,1043.9653 8.5,1043.4722 l 0,-5.22 c 0,-0.4931 0.739213245714286,-0.89 1.65742412285714,-0.89 z m 2.6571429e-7,-16 27.68516061142857,0 c 0.91821114285715,0 1.657415,0.3969 1.657415,0.89 l 0,5.22 c 0,0.4931 -0.73920385714285,0.89 -1.657415,0.89 l -27.68516061142857,0 c -0.91821087714286,0 -1.657424211428573,-0.3969 -1.657424211428573,-0.89 l 0,-5.22 c 0,-0.4931 0.739213334285715,-0.89 1.657424211428573,-0.89 z m -2.6571429e-7,8 27.68516087714286,0 c 0.91821025714286,0 1.657415,0.3969 1.657415,0.89 l 0,5.22 c 0,0.4931 -0.73920474285715,0.89 -1.657415,0.89 l -27.68516087714285,0 C 9.239213245714285,1036.3622 8.5,1035.9653 8.5,1035.4722 l 0,-5.22 c 0,-0.4931 0.739213245714286,-0.89 1.65742412285714,-0.89 z"
       inkscape:connector-curvature="0" />
  </g>
</svg>
