<?xml version="1.0" encoding="UTF-8" standalone="no"?>
<svg
   xmlns:dc="http://purl.org/dc/elements/1.1/"
   xmlns:cc="http://creativecommons.org/ns#"
   xmlns:rdf="http://www.w3.org/1999/02/22-rdf-syntax-ns#"
   xmlns:svg="http://www.w3.org/2000/svg"
   xmlns="http://www.w3.org/2000/svg"
   xmlns:sodipodi="http://sodipodi.sourceforge.net/DTD/sodipodi-0.dtd"
   xmlns:inkscape="http://www.inkscape.org/namespaces/inkscape"
   width="40"
   height="40"
   viewBox="0 0 40 40"
   id="svg2"
   version="1.1"
   inkscape:version="0.91 r13725"
   sodipodi:docname="folder-templates.svg"
   style="fill:#4caf50">
  <metadata
     id="metadata10">
    <rdf:RDF>
      <cc:Work
         rdf:about="">
        <dc:format>image/svg+xml</dc:format>
        <dc:type
           rdf:resource="http://purl.org/dc/dcmitype/StillImage" />
        <dc:title />
      </cc:Work>
    </rdf:RDF>
  </metadata>
  <defs
     id="defs8" />
  <sodipodi:namedview
     pagecolor="#ffffff"
     bordercolor="#666666"
     borderopacity="1"
     objecttolerance="10"
     gridtolerance="10"
     guidetolerance="10"
     inkscape:pageopacity="0"
     inkscape:pageshadow="2"
     inkscape:window-width="1366"
     inkscape:window-height="713"
     id="namedview6"
     showgrid="false"
     inkscape:snap-intersection-paths="false"
     inkscape:zoom="5.491911049139335"
     inkscape:cx="-3.577293845870599"
     inkscape:cy="-1.517530149990414"
     inkscape:window-x="0"
     inkscape:window-y="30"
     inkscape:window-maximized="1"
     inkscape:current-layer="svg2"
     fit-margin-top="0"
     fit-margin-left="0"
     fit-margin-right="0"
     fit-margin-bottom="0"
     inkscape:snap-bbox="true"
     inkscape:bbox-nodes="true" />
  <path
     d="M 12 0 C 9.789999999999999 0 8 1.79 8 4 L 8 28 C 8 30.21 9.789999999999999 32 12 32 L 36 32 C 38.21 32 40 30.21 40 28 L 40 4 C 40 1.79 38.21 0 36 0 L 12 0 z M 20 7 L 28 7 L 28 25 L 20 25 L 20 23 L 24 23 L 24 21 L 20 21 L 20 19 L 24 19 L 24 17 L 20 17 L 20 15 L 24 15 L 24 13 L 20 13 L 20 11 L 24 11 L 24 9 L 20 9 L 20 7 z "
     id="path4175" />
  <path
     d="m 0,8 0,28 c 0,2.21 1.79,4 4,4 L 32,40 32,36 4,36 4,8 0,8 Z"
     id="path4219" />
  <path
     style="fill:#4caf50;fill-opacity:1"
     d="M 20 5 C 18.89500000000001 5 18.00000000000001 5.895 18 7 L 18 25 C 18 26.105 18.89499999999999 27 20 27 L 28 27 C 29.10499999999998 27 30 26.10500000000001 30 25 L 30 7 C 30 5.895 29.10499999999998 5 28 5 L 20 5 z M 20 7 L 28 7 L 28 25 L 20 25 L 20 23 L 24 23 L 24 21 L 20 21 L 20 19 L 24 19 L 24 17 L 20 17 L 20 15 L 24 15 L 24 13 L 20 13 L 20 11 L 24 11 L 24 9 L 20 9 L 20 7 z "
     id="path4195" />
</svg>
