<?xml version="1.0" encoding="UTF-8" standalone="no"?>
<svg
   xmlns:dc="http://purl.org/dc/elements/1.1/"
   xmlns:cc="http://creativecommons.org/ns#"
   xmlns:rdf="http://www.w3.org/1999/02/22-rdf-syntax-ns#"
   xmlns:svg="http://www.w3.org/2000/svg"
   xmlns="http://www.w3.org/2000/svg"
   xmlns:sodipodi="http://sodipodi.sourceforge.net/DTD/sodipodi-0.dtd"
   xmlns:inkscape="http://www.inkscape.org/namespaces/inkscape"
   width="40"
   height="40"
   viewBox="0 0 40 40"
   id="svg2"
   version="1.1"
   inkscape:version="0.91 r13725"
   sodipodi:docname="folder-templates.svg"
   style="fill:#4caf50">
  <metadata
     id="metadata10">
    <rdf:RDF>
      <cc:Work
         rdf:about="">
        <dc:format>image/svg+xml</dc:format>
        <dc:type
           rdf:resource="http://purl.org/dc/dcmitype/StillImage" />
        <dc:title />
      </cc:Work>
    </rdf:RDF>
  </metadata>
  <defs
     id="defs8" />
  <sodipodi:namedview
     pagecolor="#ffffff"
     bordercolor="#666666"
     borderopacity="1"
     objecttolerance="10"
     gridtolerance="10"
     guidetolerance="10"
     inkscape:pageopacity="0"
     inkscape:pageshadow="2"
     inkscape:window-width="1366"
     inkscape:window-height="713"
     id="namedview6"
     showgrid="false"
     inkscape:snap-intersection-paths="false"
     inkscape:zoom="3.463909725208309"
     inkscape:cx="-22.75388214237559"
     inkscape:cy="30.29788036796137"
     inkscape:window-x="0"
     inkscape:window-y="30"
     inkscape:window-maximized="1"
     inkscape:current-layer="svg2"
     fit-margin-top="0"
     fit-margin-left="0"
     fit-margin-right="0"
     fit-margin-bottom="0"
     inkscape:snap-bbox="true"
     inkscape:bbox-nodes="true" />
  <path
     id="path4219"
     d="M 12,0 C 9.789999999999999,0 8,1.79 8,4 l 0,24 c 0,2.21 1.789999999999999,4 4,4 l 24,0 c 2.21,0 4,-1.79 4,-4 L 40,4 C 40,1.79 38.21,0 36,0 L 12,0 Z M 22.76953125,4 25.23046875,4 32,22 l -2.76953125,0 -1.384765625,-3.857421875 -7.69140625,0 L 18.76953125,22 16,22 22.76953125,4 Z M 24,7.42578125 l -2.923828125,8.146484375 5.84765625,0 L 24,7.42578125 Z M 14,24 l 20,0 0,4 -20,0 0,-4 z M 0,8 0,36 c 0,2.21 1.79,4 4,4 L 32,40 32,36 4,36 4,8 0,8 Z" />
</svg>
