<?xml version="1.0" encoding="UTF-8" standalone="no"?>
<svg
   xmlns:dc="http://purl.org/dc/elements/1.1/"
   xmlns:cc="http://creativecommons.org/ns#"
   xmlns:rdf="http://www.w3.org/1999/02/22-rdf-syntax-ns#"
   xmlns:svg="http://www.w3.org/2000/svg"
   xmlns="http://www.w3.org/2000/svg"
   xmlns:sodipodi="http://sodipodi.sourceforge.net/DTD/sodipodi-0.dtd"
   xmlns:inkscape="http://www.inkscape.org/namespaces/inkscape"
   width="48"
   height="48"
   viewBox="0 0 48 48"
   id="svg2"
   version="1.1"
   inkscape:version="0.91 r13725"
   sodipodi:docname="folder-templates6.svg"
   style="fill:#4caf50">
  <metadata
     id="metadata10">
    <rdf:RDF>
      <cc:Work
         rdf:about="">
        <dc:format>image/svg+xml</dc:format>
        <dc:type
           rdf:resource="http://purl.org/dc/dcmitype/StillImage" />
        <dc:title></dc:title>
      </cc:Work>
    </rdf:RDF>
  </metadata>
  <defs
     id="defs8" />
  <sodipodi:namedview
     pagecolor="#ffffff"
     bordercolor="#666666"
     borderopacity="1"
     objecttolerance="10"
     gridtolerance="10"
     guidetolerance="10"
     inkscape:pageopacity="0"
     inkscape:pageshadow="2"
     inkscape:window-width="1366"
     inkscape:window-height="713"
     id="namedview6"
     showgrid="false"
     inkscape:snap-intersection-paths="false"
     inkscape:zoom="3.078473579621652"
     inkscape:cx="-61.01091136492732"
     inkscape:cy="-30.98474417101095"
     inkscape:window-x="0"
     inkscape:window-y="30"
     inkscape:window-maximized="1"
     inkscape:current-layer="svg2"
     fit-margin-top="0"
     fit-margin-left="0"
     fit-margin-right="0"
     fit-margin-bottom="0"
     inkscape:snap-bbox="true"
     inkscape:bbox-nodes="true" />
  <path
     d="m 16,4 c -2.21,0 -4,1.79 -4,4 l 0,24 c 0,2.21 1.79,4 4,4 l 24,0 c 2.21,0 4,-1.79 4,-4 L 44,8 C 44,5.79 42.21,4 40,4 L 16,4 Z"
     id="path4137" />
  <path
     style="fill:#000000;fill-opacity:1"
     d="m 24,8.999999999999994 c -1.10499999999999,0 -1.99999999999998,0.895 -2,1.999999999999995 L 22,29 c 0,1.10499999999999 0.89500000000001,2 2,2 l 7.99999999999999,0 C 33.10499999999998,31 34,30.10499999999999 34,29 L 34,10.99999999999998 C 34,9.894999999999999 33.10499999999998,8.999999999999989 31.99999999999999,8.999999999999998 l -8,0 z"
     id="path4226"
     inkscape:connector-curvature="0" />
  <path
     style="fill:#000000;fill-opacity:1"
     d="m -29.32761912435679,64.46160321387876 c 0,1.10499999999999 0.89500000000001,1.99999999999997 2,2 l 2,0 0,-4 2,0 0,4 2,0 0,-4 2.00000000000002,0 0,4 2,0 0,-4 2,0 0,4 2,0 0,-4 2,0 0,4 1.999999999999998,0 c 1.10499999999999,0 1.999999999999999,-0.89499999999997 1.999999999999999,-2 l 0,-7.99999999999999 c 0,-1.10499999999999 -0.895000000000009,-2 -1.999999999999999,-2 l -18.000000000000017,-7e-15 c -1.105,0 -2,0.89500000000001 -2,2 l 0,8 z"
     id="path4141"
     inkscape:connector-curvature="0" />
  <path
     style="fill:#ff0000;fill-opacity:1"
     d="m 61.35617574304854,4.289873493267789 c -1.10499999999999,0 -1.99999999999998,0.895 -2,2.000000000000003 l 0,18 c 0,1.10499999999999 0.89500000000001,2 2,2 l 7.99999999999999,0 c 1.10499999999999,0 2,-0.89500000000001 2,-2 l 0,-18 c 0,-1.104999999999996 -0.89500000000001,-2.000000000000008 -2,-1.999999999999996 l -7.99999999999999,0 z m 0,2.000000000000003 7.99999999999999,0 0,18 -7.99999999999999,0 0,-2.00000000000001 3.99999999999999,0 0,-2 -3.99999999999999,0 0,-2 3.99999999999999,0 0,-2 -3.99999999999999,0 0,-2 3.99999999999999,0 0,-2 -3.99999999999999,0 0,-2 3.99999999999999,0 0,-2 -3.99999999999999,0 0,-1.999999999999989 z"
     id="path4190"
     inkscape:connector-curvature="0" />
  <path
     d="m 4,12 0,28 c 0,2.21 1.79,4 4,4 l 28,0 0,-4 -28,0 0,-28 -4,0 z"
     id="path4219"
     inkscape:connector-curvature="0" />
  <path
     style="fill:#000000;fill-opacity:1"
     d="m 24,13 4,0 0,-2 -4,0 0,2 z"
     id="path4215"
     inkscape:connector-curvature="0" />
  <path
     style="fill:#000000;fill-opacity:1"
     d="m 24,17 4,0 0,-2 -4,0 0,2 z"
     id="path4213"
     inkscape:connector-curvature="0" />
  <path
     style="fill:#000000;fill-opacity:1"
     d="m 24,21 4,0 0,-2 -4,0 0,2 z"
     id="path4211"
     inkscape:connector-curvature="0" />
  <path
     style="fill:#000000;fill-opacity:1"
     d="m 24,25 4,0 0,-2 -4,0 0,2 z"
     id="path4209"
     inkscape:connector-curvature="0" />
  <path
     inkscape:connector-curvature="0"
     id="path4228"
     d="m 24,29 4,0 0,-2 -4,0 0,2 z"
     style="fill:#000000;fill-opacity:1" />
  <path
     style="fill:#000000;fill-opacity:1"
     d="m -78.13136525064321,33.21925587564323 c 0,1.10499999999999 0.89500000000001,1.99999999999999 2,2 l 17.99999999999998,0 c 1.10499999999999,0 2,-0.89500000000001 2,-2 l 0,-8 c 0,-1.10499999999999 -0.89500000000001,-2 -2,-2 l -17.99999999999998,0 c -1.10499999999999,0 -2.00000000000003,0.89500000000001 -2,2 l 0,8 z m 2,0 0,-4 2,0 0,4 -2,0 z m 4,0 0,-4 2,0 0,4 -2,0 z m 4,0 0,-4 2,0 0,4 -2,0 z m 4,0 0,-4 1.99999999999999,0 0,4 -1.99999999999999,0 z m 3.99999999999999,0 0,-4 2,0 0,4 -2,0 z"
     id="path4244"
     inkscape:connector-curvature="0" />
  <path
     style="fill:#000000;fill-opacity:1"
     d="m -49.48097462564323,21.11378712564323 c 0,1.10499999999999 0.89500000000001,1.99999999999998 2,2 l 18,0 c 1.10499999999999,0 2,-0.89500000000001 2,-2 l 0,-8 c 0,-1.105 -0.89500000000001,-2 -2,-2 l -18,0 c -1.10499999999998,0 -2.00000000000002,0.895 -2,2 l 0,8 z m 4,0 0,-4 2,0 0,4 -2,0 z m 4,0 0,-4 2,0 0,4 -2,0 z m 4,0 0,-4 2,0 0,4 -2,0 z m 4,0 0,-4 2,0 0,4 -2,0 z"
     id="path4257"
     inkscape:connector-curvature="0" />
  <path
     style="fill:#000000;fill-opacity:1"
     d="m -55.91261525064323,66.59425587564321 c 0,1.10499999999999 0.89500000000001,2 2,2 l 0,-2 0,-2 0,-1.99999999999999 1.99999999999999,0 0,1.99999999999999 0,2 0,2 2,0 0,-4 0,-1.99999999999999 2,0 0,1.99999999999999 0,4 2,0 0,-4 0,-1.99999999999999 2,0 0,1.99999999999999 0,4 2,0 0,-4 0,-1.99999999999999 2,0 0,1.99999999999999 0,4 2,0 0,-4 0,-1.99999999999999 2,0 0,1.99999999999999 0,4 c 1.10499999999999,0 2,-0.89500000000001 2,-2 l 0,-7.99999999999999 c 0,-1.10499999999999 -0.89500000000001,-1.99999999999999 -2,-2 l -17.99999999999998,0 c -1.10499999999998,0 -2.00000000000001,0.895 -2,2 l 0,7.99999999999999 z"
     id="path4270"
     inkscape:connector-curvature="0" />
  <path
     style="fill:#000000;fill-opacity:1"
     d="m -81.37941212564321,66.35206837564321 c 0,1.10499999999999 0.89499999999998,2.00000000000003 2,2 l 0,-4 2,0 0,4 2,0 0,-4 2,0 0,4 2,0 0,-4 2,0 0,4 2,0 0,-4 2,0 0,4 1.99999999999999,0 0,-4 2,0 0,4 c 1.10499999999999,0 2,-0.89500000000001 2,-2 l 0,-7.99999999999999 c 0,-1.105 -0.89500000000001,-2.00000000000001 -2,-2 l -17.99999999999998,0 c -1.10499999999999,0 -2.00000000000003,0.89500000000001 -2,2 l 0,7.99999999999999 z"
     id="path4294"
     inkscape:connector-curvature="0" />
  <path
     style="fill:#000000;fill-opacity:1"
     d="m -31.35402150064323,44.26417775064323 c 0,1.10499999999999 0.89500000000001,1.99999999999999 2,2 l 2,0 0,-2 0,-2 0,-2 2,1e-14 0,2 0,2 0,2 2,0 0,-4 0,-2 2,0 0,2 0,4 2,0 0,-4 0,-2 2,0 0,2 0,4 2,0 0,-4 0,-2 2,0 0,2 0,4 2,0 c 1.10499999999999,0 2.000000000000002,-0.89500000000001 2.000000000000002,-2 l 0,-8 c 0,-1.105 -0.895000000000012,-2.00000000000001 -2.000000000000002,-2 l -18,-1e-14 c -1.10499999999998,0 -2,0.895 -2,2 l 0,8 z"
     id="path4307"
     inkscape:connector-curvature="0" />
</svg>
