<?xml version="1.0" encoding="UTF-8" standalone="no"?>
<svg
   xmlns:dc="http://purl.org/dc/elements/1.1/"
   xmlns:cc="http://creativecommons.org/ns#"
   xmlns:rdf="http://www.w3.org/1999/02/22-rdf-syntax-ns#"
   xmlns:svg="http://www.w3.org/2000/svg"
   xmlns="http://www.w3.org/2000/svg"
   xmlns:sodipodi="http://sodipodi.sourceforge.net/DTD/sodipodi-0.dtd"
   xmlns:inkscape="http://www.inkscape.org/namespaces/inkscape"
   width="48"
   height="48"
   viewBox="0 0 48 40"
   id="svg2"
   version="1.1"
   inkscape:version="0.91 r13725"
   sodipodi:docname="okular1.svg"
   style="fill:#4caf50">
  <metadata
     id="metadata10">
    <rdf:RDF>
      <cc:Work
         rdf:about="">
        <dc:format>image/svg+xml</dc:format>
        <dc:type
           rdf:resource="http://purl.org/dc/dcmitype/StillImage" />
        <dc:title />
      </cc:Work>
    </rdf:RDF>
  </metadata>
  <defs
     id="defs8" />
  <sodipodi:namedview
     pagecolor="#ffffff"
     bordercolor="#666666"
     borderopacity="1"
     objecttolerance="10"
     gridtolerance="10"
     guidetolerance="10"
     inkscape:pageopacity="0"
     inkscape:pageshadow="2"
     inkscape:window-width="1366"
     inkscape:window-height="713"
     id="namedview6"
     showgrid="false"
     inkscape:snap-bbox="true"
     inkscape:bbox-nodes="true"
     inkscape:snap-bbox-edge-midpoints="false"
     inkscape:zoom="6.722135668001936"
     inkscape:cx="-5.309614854990635"
     inkscape:cy="30.78358631543925"
     inkscape:window-x="0"
     inkscape:window-y="30"
     inkscape:window-maximized="1"
     inkscape:current-layer="svg2"
     fit-margin-top="0"
     fit-margin-left="0"
     fit-margin-right="0"
     fit-margin-bottom="0" />
  <path
     style="opacity:1;fill:#2a85be;fill-opacity:1;fill-rule:nonzero;stroke:none"
     d="M 10 6 C 7.789999999999992 6 6 7.79000000000002 6 10 L 6 38 C 6 40.20999999999998 7.789999999999992 42 10 42 L 38 42 C 40.21000000000001 42 42 40.20999999999998 42 38 L 42 24.62890625 C 41.5611893706294 25.09129058566434 41.0978894798951 25.53740482604895 40.615234375 25.951171875 C 37.45995605332168 28.65606149737762 33.73264829545455 29.99999932867134 29.43359375 30 C 25.34357752622379 30 22.46007632430071 28.63276339947552 20.791015625 25.888671875 C 19.12194149912588 23.14458605681817 18.92189793706294 19.44426112674825 20.171875 14.779296875 C 20.98139332167834 11.75813323863636 22.17644075174825 9.144470535839151 23.7578125 6.943359375 C 26.07042564685316 6.480646759615379 26.39642066870629 6.418935272727271 28.490234375 6 L 10 6 z M 28.490234375 6 C 26.79390094842659 8.289074685314683 25.47572013548951 11.21111733916083 24.525390625 14.7578125 C 23.36644572989511 19.08303275174825 23.25720700174826 22.48210181993007 24.19921875 24.96484375 C 25.15777875000002 27.43452598776225 27.044075625 28.66796942132866 29.853515625 28.66796875 C 32.80666024038462 28.66797009265734 35.42082773164336 27.45136192657342 37.708984375 25.0078125 C 39.00232255681819 23.62661619230768 40.11511559003496 21.92399568444055 41.056640625 19.908203125 C 41.49443083479019 22.09592564248252 41.70460867132866 23.15278473951049 42 24.62890625 L 42 10 C 42 7.79000000000002 40.21000000000001 6 38 6 L 28.490234375 6 z "
     transform="translate(0,-4)"
     id="path4882" />
</svg>
