<?xml version="1.0" encoding="UTF-8" standalone="no"?>
<svg
   xmlns:dc="http://purl.org/dc/elements/1.1/"
   xmlns:cc="http://creativecommons.org/ns#"
   xmlns:rdf="http://www.w3.org/1999/02/22-rdf-syntax-ns#"
   xmlns:svg="http://www.w3.org/2000/svg"
   xmlns="http://www.w3.org/2000/svg"
   xmlns:sodipodi="http://sodipodi.sourceforge.net/DTD/sodipodi-0.dtd"
   xmlns:inkscape="http://www.inkscape.org/namespaces/inkscape"
   fill="#F44336"
   width="48"
   height="48"
   viewBox="0 0 48 48"
   id="svg2"
   version="1.1"
   inkscape:version="0.91 r13725"
   sodipodi:docname="printer-error.svg">
  <metadata
     id="metadata10">
    <rdf:RDF>
      <cc:Work
         rdf:about="">
        <dc:format>image/svg+xml</dc:format>
        <dc:type
           rdf:resource="http://purl.org/dc/dcmitype/StillImage" />
        <dc:title />
      </cc:Work>
    </rdf:RDF>
  </metadata>
  <defs
     id="defs8">
    <clipPath
       clipPathUnits="userSpaceOnUse"
       id="clipPath3388">
      <rect
         ry="0"
         y="38.093285"
         x="72.367546"
         height="8.0071707"
         width="8.8242292"
         id="rect3390"
         style="opacity:1;fill:#ffffff;fill-opacity:1;fill-rule:evenodd;stroke:#000000;stroke-width:2.00860143;stroke-miterlimit:4;stroke-dasharray:none;stroke-opacity:1" />
    </clipPath>
  </defs>
  <sodipodi:namedview
     pagecolor="#ffffff"
     bordercolor="#666666"
     borderopacity="1"
     objecttolerance="10"
     gridtolerance="10"
     guidetolerance="10"
     inkscape:pageopacity="0"
     inkscape:pageshadow="2"
     inkscape:window-width="1366"
     inkscape:window-height="713"
     id="namedview6"
     showgrid="false"
     inkscape:zoom="5.368001229296874"
     inkscape:cx="-18.3064051081432"
     inkscape:cy="2.262244543891427"
     inkscape:window-x="0"
     inkscape:window-y="30"
     inkscape:window-maximized="1"
     inkscape:current-layer="svg2"
     inkscape:snap-bbox="true"
     inkscape:bbox-nodes="true"
     inkscape:snap-smooth-nodes="true"
     inkscape:object-nodes="true" />
  <path
     d="M 36,14 8,14 c -3.31,0 -6,2.69 -6,6 l 0,12 8,0 0,8 24,0 0,-8 8,0 0,-12 c 0,-3.31 -2.69,-6 -6,-6 z m -6,22 -16,0 0,-10 16,0 0,10 z m 6,-14 c -1.11,0 -2,-0.89 -2,-2 0,-1.11 0.89,-2 2,-2 1.11,0 2,0.89 2,2 0,1.11 -0.89,2 -2,2 z M 34,4 10,4 l 0,8 24,0 0,-8 z"
     id="path4"
     inkscape:connector-curvature="0" />
  <g
     style="fill:#F44336"
     id="g3348"
     transform="matrix(0.5,0,0,0.5,89.084746,45.966102)">
    <path
       id="path3340"
       d="M 29.17,16 24,21.17 18.83,16 16,18.83 21.17,24 16,29.17 18.83,32 24,26.83 29.17,32 32,29.17 26.83,24 32,18.83 29.17,16 Z M 24,4 C 12.95,4 4,12.95 4,24 4,35.05 12.95,44 24,44 35.05,44 44,35.05 44,24 44,12.95 35.05,4 24,4 Z m 0,36 C 15.18,40 8,32.82 8,24 8,15.18 15.18,8 24,8 c 8.82,0 16,7.18 16,16 0,8.82 -7.18,16 -16,16 z"
       inkscape:connector-curvature="0" />
  </g>
  <path
     style="fill:#f44336;fill-opacity:1"
     inkscape:connector-curvature="0"
     d="m 79.059576,37.898305 -2.58499999999999,2.585 L 73.889576,37.898305 l -1.41499999999999,1.415 2.58499999999999,2.585 -2.58499999999999,2.585 1.41499999999999,1.415 2.58500000000001,-2.585 2.58499999999999,2.585 1.41500000000001,-1.415 L 77.889576,41.898305 80.47457600000001,39.313305 79.059576,37.898305 Z m -2.58499999999999,-6 c -5.52500000000002,0 -10,4.475 -10,10 0,5.525 4.47499999999998,10 10,10 5.52499999999999,0 10,-4.475 10,-10 0,-5.525 -4.47500000000001,-10 -10,-10 z m 0,18 c -4.41,0 -8,-3.58999999999999 -8,-8 0,-4.41 3.59,-8 8,-8 4.40999999999998,0 8,3.59 8,8 0,4.41000000000001 -3.59000000000002,8 -8,8 z"
     id="path3340-4"
     clip-path="url(#clipPath3388)"
     transform="matrix(1.498656702072277,0,0,1.498656702072277,-72.45410794762871,-23.08875628012774)" />
  <g
     id="g3385" />
</svg>
