<svg xmlns="http://www.w3.org/2000/svg" width="38.18" height="38.18" viewBox="0 0 38.18359375 38.18359375" fill="#4CAF50"><path d="m2.828 0l-2.828 2.828 12.184 12.184v3.172c0 3.31 2.69 6 6 6 .926 0 1.8-.215 2.58-.592l3.158 3.158c-1.693 1.04-3.68 1.633-5.738 1.633-5.52 0-10.6-4.199-10.6-10.199h-3.4c0 6.83 5.44 12.469 12 13.439v6.561h4v-6.561c2.232-.33 4.33-1.205 6.131-2.48l9.04 9.04 2.828-2.828-8.953-8.953-2.348-2.348-3.301-3.301-11.398-11.398-9.355-9.355m15.355.184c-2.572 0-4.763 1.621-5.615 3.9l11.6 11.6.016-9.5c0-3.32-2.68-6-6-6zm10.6 18c0 .666-.073 1.305-.191 1.924l2.713 2.713c.561-1.447.879-3.01.879-4.637h-3.4"/></svg>