<?xml version="1.0" encoding="UTF-8" standalone="no"?>
<svg
   xmlns:dc="http://purl.org/dc/elements/1.1/"
   xmlns:cc="http://creativecommons.org/ns#"
   xmlns:rdf="http://www.w3.org/1999/02/22-rdf-syntax-ns#"
   xmlns:svg="http://www.w3.org/2000/svg"
   xmlns="http://www.w3.org/2000/svg"
   xmlns:sodipodi="http://sodipodi.sourceforge.net/DTD/sodipodi-0.dtd"
   xmlns:inkscape="http://www.inkscape.org/namespaces/inkscape"
   width="48"
   height="48"
   viewBox="0 0 48 48"
   id="svg2"
   version="1.1"
   inkscape:version="0.91 r13725"
   sodipodi:docname="applications-cardgames.svg"
   style="fill:#3F51B5">
  <metadata
     id="metadata10">
    <rdf:RDF>
      <cc:Work
         rdf:about="">
        <dc:format>image/svg+xml</dc:format>
        <dc:type
           rdf:resource="http://purl.org/dc/dcmitype/StillImage" />
        <dc:title></dc:title>
      </cc:Work>
    </rdf:RDF>
  </metadata>
  <defs
     id="defs8" />
  <sodipodi:namedview
     pagecolor="#ffffff"
     bordercolor="#666666"
     borderopacity="1"
     objecttolerance="10"
     gridtolerance="10"
     guidetolerance="10"
     inkscape:pageopacity="0"
     inkscape:pageshadow="2"
     inkscape:window-width="1366"
     inkscape:window-height="713"
     id="namedview6"
     showgrid="false"
     inkscape:zoom="3.089759195768082"
     inkscape:cx="-5.665102203527482"
     inkscape:cy="26.23340143472564"
     inkscape:window-x="0"
     inkscape:window-y="30"
     inkscape:window-maximized="1"
     inkscape:current-layer="svg2"
     inkscape:snap-bbox="true"
     inkscape:bbox-nodes="true"
     fit-margin-top="0"
     fit-margin-left="0"
     fit-margin-right="0"
     fit-margin-bottom="0" />
  <g
     id="g4143"
     transform="translate(9,-6)">
    <path
       inkscape:connector-curvature="0"
       id="path4309"
       d="m 4,12 c -2.210000000000001,0 -4,1.79 -4,4 l 0,28 c 0,2.21 1.789999999999999,4 4,4 l 22,0 c 2.21,0 4,-1.79 4,-4 l 0,-28 c 0,-2.21 -1.79,-4 -4,-4 L 4,12 Z m 0,4 22,0 0,28 -22,0 0,-28 z" />
    <g
       transform="matrix(0.275,0,0,0.275,8.399999999999998,23.30374999999999)"
       id="g4300"
       style="fill:#3F51B5">
      <path
         inkscape:connector-curvature="0"
         d="M 24,42.7 21.1,40.07 C 10.8,30.72 4,24.55 4,17 4,10.83 8.83,6 15,6 18.48,6 21.82,7.62 24,10.17 26.18,7.62 29.52,6 33,6 c 6.17,0 11,4.83 11,11 0,7.55 -6.8,13.72 -17.1,23.07 L 24,42.7 Z"
         id="path4292" />
    </g>
    <text
       sodipodi:linespacing="125%"
       id="text4303"
       y="22.332031"
       x="7.3583984"
       style="font-style:normal;font-variant:normal;font-weight:normal;font-stretch:normal;font-size:15px;line-height:125%;font-family:Roboto;-inkscape-font-specification:'Roboto, Normal';text-align:center;letter-spacing:0px;word-spacing:0px;writing-mode:lr-tb;text-anchor:middle;fill:#3F51B5;fill-opacity:1;stroke:none;stroke-width:1px;stroke-linecap:butt;stroke-linejoin:miter;stroke-opacity:1"
       xml:space="preserve"><tspan
         style="font-style:normal;font-variant:normal;font-weight:900;font-stretch:normal;font-size:7.5px;line-height:125%;font-family:Roboto;-inkscape-font-specification:'Roboto, Heavy';text-align:center;writing-mode:lr-tb;text-anchor:middle;fill:#3F51B5;fill-opacity:1"
         y="22.332031"
         x="7.3583984"
         id="tspan4305"
         sodipodi:role="line">A</tspan></text>
    <text
       xml:space="preserve"
       style="font-style:normal;font-variant:normal;font-weight:normal;font-stretch:normal;font-size:15px;line-height:125%;font-family:Roboto;-inkscape-font-specification:'Roboto, Normal';text-align:center;letter-spacing:0px;word-spacing:0px;writing-mode:lr-tb;text-anchor:middle;fill:#3F51B5;fill-opacity:1;stroke:none;stroke-width:1px;stroke-linecap:butt;stroke-linejoin:miter;stroke-opacity:1"
       x="22.601318"
       y="43"
       id="text4312"
       sodipodi:linespacing="125%"><tspan
         sodipodi:role="line"
         id="tspan4314"
         x="22.601318"
         y="43"
         style="font-style:normal;font-variant:normal;font-weight:900;font-stretch:normal;font-size:7.5px;line-height:125%;font-family:Roboto;-inkscape-font-specification:'Roboto, Heavy';text-align:center;writing-mode:lr-tb;text-anchor:middle;fill:#3F51B5;fill-opacity:1">A</tspan></text>
    <g
       style="fill:#3F51B5"
       id="g4317"
       transform="matrix(0.118927001953125,0,0,0.118927001953125,4.5242919921875,22.61846923828125)">
      <path
         id="path4319"
         d="M 24,42.7 21.1,40.07 C 10.8,30.72 4,24.55 4,17 4,10.83 8.83,6 15,6 18.48,6 21.82,7.62 24,10.17 26.18,7.62 29.52,6 33,6 c 6.17,0 11,4.83 11,11 0,7.55 -6.8,13.72 -17.1,23.07 L 24,42.7 Z"
         inkscape:connector-curvature="0" />
    </g>
    <g
       transform="matrix(0.118927001953125,0,0,0.118927001953125,19.7672119140625,31.58978576660156)"
       id="g4321"
       style="fill:#3F51B5">
      <path
         inkscape:connector-curvature="0"
         d="M 24,42.7 21.1,40.07 C 10.8,30.72 4,24.55 4,17 4,10.83 8.83,6 15,6 18.48,6 21.82,7.62 24,10.17 26.18,7.62 29.52,6 33,6 c 6.17,0 11,4.83 11,11 0,7.55 -6.8,13.72 -17.1,23.07 L 24,42.7 Z"
         id="path4323" />
    </g>
  </g>
</svg>
