<svg xmlns="http://www.w3.org/2000/svg" fill="#1793d1" viewBox="0 0 48 48"><path d="m8 12h-4v28c0 2.21 1.79 4 4 4h28v-4h-28v-28"/><path d="m16 4c-2.21 0-4 1.79-4 4v24c0 2.21 1.79 4 4 4h24c2.21 0 4-1.79 4-4v-24c0-2.21-1.79-4-4-4h-24m8.58 6c.106 0 .214.04.295.121l1.236 1.238c.671-.333 1.421-.525 2.221-.525.796 0 1.542.192 2.209.521l1.232-1.229c.162-.162.425-.162.588 0 .162.162.162.423 0 .586l-1.088 1.088c1.246.908 2.059 2.375 2.059 4.03h-9.998c0-1.654.807-3.121 2.045-4.03l-1.092-1.092c-.162-.162-.162-.425 0-.588.081-.081.187-.121.293-.121m1.254 3.334v.834h.832v-.834h-.832m4.166 0v.834h.832v-.834h-.832m-8.75 3.334c.692 0 1.25.558 1.25 1.25v5.832c0 .692-.558 1.25-1.25 1.25-.692 0-1.25-.558-1.25-1.25v-5.832c0-.692.558-1.25 1.25-1.25m2.084 0h9.998v8.332c0 .458-.374.834-.832.834h-.834v2.916c0 .692-.558 1.25-1.25 1.25-.692 0-1.25-.558-1.25-1.25v-2.916h-1.666v2.916c0 .692-.558 1.25-1.25 1.25-.692 0-1.25-.558-1.25-1.25v-2.916h-.834c-.458 0-.832-.376-.832-.834v-8.332m12.08 0c.692 0 1.25.558 1.25 1.25v5.832c0 .692-.558 1.25-1.25 1.25-.692 0-1.25-.558-1.25-1.25v-5.832c0-.692.558-1.25 1.25-1.25"/></svg>