<svg xmlns="http://www.w3.org/2000/svg" fill="#1793d1" viewBox="0 0 48 48"><g fill="#294172"><path d="m8 12h-4v28c0 2.21 1.79 4 4 4h28v-4h-28v-28"/><path d="m16 4c-2.21 0-4 1.79-4 4v24c0 2.21 1.79 4 4 4h24c2.21 0 4-1.79 4-4v-24c0-2.21-1.79-4-4-4h-24"/></g><g fill="none" stroke="#3c6eb4" stroke-width="2.536"><path d="m23.421 19.567c0 0 4.153 0 4.153 0 0 0 0 4.153 0 4.153 0 2.293-1.861 4.153-4.153 4.153-2.293 0-4.153-1.861-4.153-4.153 0-2.293 1.861-4.153 4.153-4.153z"/><path d="m31.707 19.575c0 0-4.153 0-4.153 0 0 0 0-4.153 0-4.153 0-2.293 1.861-4.153 4.153-4.153 2.293 0 4.153 1.861 4.153 4.153 0 2.293-1.861 4.153-4.153 4.153z"/></g><g fill="#fff"><path d="m28.845 18.302v5.413c0 2.995-2.429 5.424-5.424 5.424-.454 0-.777-.051-1.198-.161-.614-.161-1.115-.663-1.115-1.248 0-.707.513-1.221 1.28-1.221.365 0 .498.07 1.033.07 1.579 0 2.86-1.279 2.863-2.858v-2.488c0-.223-.181-.403-.404-.403h-1.881c-.701 0-1.267-.559-1.267-1.262 0-.707.572-1.264 1.28-1.264"/><path d="m26.28 20.84v-5.413c0-2.995 2.429-5.424 5.424-5.424.454 0 .777.051 1.198.161.614.161 1.115.663 1.115 1.248 0 .707-.513 1.221-1.28 1.221-.365 0-.498-.07-1.033-.07-1.579 0-2.86 1.279-2.863 2.858v2.488c0 .223.181.403.404.403h1.881c.701 0 1.267.559 1.267 1.262 0 .707-.572 1.264-1.28 1.264"/></g><path d="m37.877 28.377c0 0 0-.48 0-.48l-.22.503c0 0-.214-.503-.214-.503v.48h-.123v-.758h.129c0 0 .211.484.211.484l.208-.484h.131v.758h-.123m-.897-.631v.631h-.129v-.631h-.216v-.127h.56v.127" fill="#3c6eb4"/></svg>