<?xml version="1.0" encoding="UTF-8" standalone="no"?>
<svg
   xmlns:dc="http://purl.org/dc/elements/1.1/"
   xmlns:cc="http://creativecommons.org/ns#"
   xmlns:rdf="http://www.w3.org/1999/02/22-rdf-syntax-ns#"
   xmlns:svg="http://www.w3.org/2000/svg"
   xmlns="http://www.w3.org/2000/svg"
   xmlns:sodipodi="http://sodipodi.sourceforge.net/DTD/sodipodi-0.dtd"
   xmlns:inkscape="http://www.inkscape.org/namespaces/inkscape"
   fill="#1793D1"
   width="48"
   height="48"
   viewBox="0 0 48 48"
   id="svg2"
   version="1.1"
   inkscape:version="0.91 r13725"
   sodipodi:docname="folder-ubuntu-collection.svg">
  <metadata
     id="metadata10">
    <rdf:RDF>
      <cc:Work
         rdf:about="">
        <dc:format>image/svg+xml</dc:format>
        <dc:type
           rdf:resource="http://purl.org/dc/dcmitype/StillImage" />
        <dc:title></dc:title>
      </cc:Work>
    </rdf:RDF>
  </metadata>
  <defs
     id="defs8" />
  <sodipodi:namedview
     pagecolor="#ffffff"
     bordercolor="#666666"
     borderopacity="1"
     objecttolerance="10"
     gridtolerance="10"
     guidetolerance="10"
     inkscape:pageopacity="0"
     inkscape:pageshadow="2"
     inkscape:window-width="1366"
     inkscape:window-height="713"
     id="namedview6"
     showgrid="false"
     inkscape:zoom="4.9166667"
     inkscape:cx="32.542373"
     inkscape:cy="40.271186"
     inkscape:window-x="0"
     inkscape:window-y="30"
     inkscape:window-maximized="1"
     inkscape:current-layer="svg2" />
  <path
     d="m 8,12 -4,0 0,28 c 0,2.21 1.79,4 4,4 l 28,0 0,-4 -28,0 0,-28 z"
     id="path4146" />
  <path
     d="M 16 4 C 13.79 4 12 5.79 12 8 L 12 32 C 12 34.21 13.79 36 16 36 L 40 36 C 42.21 36 44 34.21 44 32 L 44 8 C 44 5.79 42.21 4 40 4 L 16 4 z M 28 10 C 33.522869 10 38 14.47699 38 20 C 38 25.522587 33.522869 30 28 30 C 22.477132 30 18 25.522657 18 20 C 18 14.47699 22.477131 10 28 10 z M 31.564453 12.787109 C 31.048268 12.723059 30.520682 12.964411 30.244141 13.443359 C 29.875559 14.081674 30.094036 14.899067 30.732422 15.267578 C 31.370948 15.636371 32.18813 15.417612 32.556641 14.779297 C 32.925364 14.140699 32.705003 13.323801 32.066406 12.955078 C 31.906792 12.862938 31.736515 12.808458 31.564453 12.787109 z M 28 14.199219 C 27.076712 14.199219 26.204527 14.416959 25.429688 14.800781 L 26.357422 16.462891 C 26.856743 16.230552 27.412908 16.099609 28 16.099609 C 30.037429 16.099609 31.709577 17.662376 31.884766 19.654297 L 33.787109 19.626953 C 33.693479 18.156292 33.049782 16.835866 32.0625 15.865234 C 31.554924 16.057004 30.969691 16.027039 30.462891 15.734375 C 29.955456 15.441429 29.636034 14.946448 29.548828 14.410156 C 29.055504 14.273631 28.536857 14.199219 28 14.199219 z M 24.783203 15.173828 C 23.614805 15.954453 22.745798 17.149172 22.384766 18.546875 C 22.806476 18.890622 23.074219 19.41319 23.074219 20 C 23.074219 20.586669 22.804593 21.10945 22.382812 21.453125 C 22.743776 22.85097 23.614804 24.045617 24.783203 24.826172 L 25.757812 23.191406 C 24.75515 22.485852 24.099609 21.319669 24.099609 20 C 24.099609 18.680543 24.75515 17.51429 25.757812 16.808594 L 24.783203 15.173828 z M 21.199219 18.666016 C 20.461703 18.666016 19.865234 19.262484 19.865234 20 C 19.865234 20.737234 20.461703 21.335937 21.199219 21.335938 C 21.936453 21.335938 22.535156 20.737234 22.535156 20 C 22.535156 19.262413 21.936523 18.666016 21.199219 18.666016 z M 31.884766 20.345703 C 31.709718 22.337907 30.037429 23.900391 28 23.900391 C 27.412837 23.900391 26.856813 23.769449 26.357422 23.537109 L 25.429688 25.199219 C 26.204597 25.582899 27.076711 25.800781 28 25.800781 C 28.536856 25.800781 29.055434 25.726361 29.548828 25.589844 C 29.636038 25.053552 29.955386 24.558783 30.462891 24.265625 C 30.969691 23.973102 31.554924 23.944879 32.0625 24.136719 C 33.049712 23.166017 33.693623 21.843705 33.787109 20.373047 L 31.884766 20.345703 z M 31.234375 24.564453 C 31.062319 24.585803 30.892018 24.640273 30.732422 24.732422 C 30.093825 25.101074 29.87563 25.918325 30.244141 26.556641 C 30.612864 27.195238 31.429762 27.413574 32.068359 27.044922 C 32.706745 26.67634 32.925293 25.859229 32.556641 25.220703 C 32.280204 24.741967 31.750543 24.500414 31.234375 24.564453 z "
     id="path4144" />
</svg>
