<svg xmlns="http://www.w3.org/2000/svg" fill="#1793d1" viewBox="0 0 48 48"><path d="m8 8c-2.21 0-3.98 1.79-3.98 4l-.02 24c0 2.21 1.79 4 4 4h32c2.21 0 4-1.79 4-4v-20c0-2.21-1.79-4-4-4h-16l-4-4h-12m11 9.07l9.943.047 3.109.006c3.722 0 6.947 2.816 6.947 6.535v11.342h-10.693c-3.719 0-6.945-2.819-6.945-6.535l-.004-4.512v-1.15h-2.357v-5.732m1.518 1.525v2.691h.943c.641 0 1.412.601 1.412 1.484l.006 5.689c0 2.773 2.431 5.02 5.428 5.02h7.398c.949 0 1.779-.6 1.779-1.523v-8.299c0-2.773-2.432-5.02-5.432-5.02h-3.113v-.008l-8.422-.035m3.814 1.688h1.549v7.938c0 1.062.723 1.887 1.572 1.887l5.277.021c1.1 0 1.955-.757 1.955-1.656l-.008-4.215c0-.274-.09-.488-.285-.686-.196-.198-.404-.287-.674-.287-.275 0-.479.089-.676.287-.196.197-.283.412-.283.686v3.605h-1.637v-3.605c0-.274-.09-.488-.285-.686-.196-.198-.401-.287-.676-.287-.269 0-.476.089-.672.287-.196.197-.285.412-.285.686v3.605h-1.637v-3.605c0-.713.262-1.347.764-1.854.502-.507 1.127-.768 1.83-.768h.002c.69 0 1.289.258 1.775.727.488-.47 1.091-.727 1.781-.727.703 0 1.327.261 1.828.768.501.506.764 1.14.764 1.854l.006 4.502c-.077.754-.395 1.423-.939 1.982h-.002c-.64.651-1.433.988-2.336.988h-5.875c-.719-.077-1.359-.418-1.891-.943-.623-.62-.943-1.387-.943-2.262v-8.242"/></svg>