<?xml version="1.0" encoding="UTF-8" standalone="no"?>
<svg
   xmlns:dc="http://purl.org/dc/elements/1.1/"
   xmlns:cc="http://creativecommons.org/ns#"
   xmlns:rdf="http://www.w3.org/1999/02/22-rdf-syntax-ns#"
   xmlns:svg="http://www.w3.org/2000/svg"
   xmlns="http://www.w3.org/2000/svg"
   xmlns:sodipodi="http://sodipodi.sourceforge.net/DTD/sodipodi-0.dtd"
   xmlns:inkscape="http://www.inkscape.org/namespaces/inkscape"
   width="48"
   height="48"
   viewBox="0 0 48 48"
   id="svg2"
   version="1.1"
   inkscape:version="0.91 r13725"
   sodipodi:docname="accessories-text-editor.svg"
   style="fill:#FFC107">
  <metadata
     id="metadata10">
    <rdf:RDF>
      <cc:Work
         rdf:about="">
        <dc:format>image/svg+xml</dc:format>
        <dc:type
           rdf:resource="http://purl.org/dc/dcmitype/StillImage" />
        <dc:title></dc:title>
      </cc:Work>
    </rdf:RDF>
  </metadata>
  <defs
     id="defs8" />
  <sodipodi:namedview
     pagecolor="#ffffff"
     bordercolor="#666666"
     borderopacity="1"
     objecttolerance="10"
     gridtolerance="10"
     guidetolerance="10"
     inkscape:pageopacity="0"
     inkscape:pageshadow="2"
     inkscape:window-width="1366"
     inkscape:window-height="713"
     id="namedview6"
     showgrid="false"
     inkscape:snap-bbox="true"
     inkscape:bbox-nodes="true"
     inkscape:snap-page="true"
     inkscape:zoom="3.285234660014132"
     inkscape:cx="-26.31359091747426"
     inkscape:cy="6.772183043664526"
     inkscape:window-x="0"
     inkscape:window-y="30"
     inkscape:window-maximized="1"
     inkscape:current-layer="svg2"
     fit-margin-top="0"
     fit-margin-left="0"
     fit-margin-right="0"
     fit-margin-bottom="0" />
  <path
     d="m 7.999999999999998,0 c -2.210000000000002,0 -3.98046875,1.79 -3.98046875,4 l -0.01953125,32 c 0,1.30052634372081 0.623258727842658,2.44338549805228 1.578125000000001,3.173828125 L 12.751953125,32 12,32 l 0,-4 4.75390625,0 4,-4 L 12,24 12,20 24.75390625,20 30.380859375,14.373046875 30.75390625,14 22,14 22,3 l 9.876953125,9.876953125 2.5,-2.5 L 24,0 7.999999999999997,0 Z M 36,31.255859375 27.255859375,40 32,40 c 2.21,0 4,-1.79 4,-4 l 0,-4.744140625 z"
     id="path4"
     inkscape:connector-curvature="0" />
  <g
     style="fill:#FFC107;fill-opacity:1"
     id="g4148"
     transform="translate(-1.995000000000004,6)">
    <path
       id="path4140"
       d="m 9.999999999999996,34.5 0,7.5 L 17.5,42 39.63,19.87 32.12999999999998,12.37 9.999999999999996,34.5 Z M 45.41,14.09 c 0.78,-0.78 0.78,-2.05 0,-2.83 L 40.74,6.59 C 39.96,5.81 38.69,5.81 37.91,6.59 l -3.66,3.66 7.5,7.5 3.66,-3.66 z"
       inkscape:connector-curvature="0"
       style="fill:#FFC107;fill-opacity:1" />
  </g>
</svg>
