<?xml version="1.0" encoding="UTF-8" standalone="no"?>
<svg
   xmlns:dc="http://purl.org/dc/elements/1.1/"
   xmlns:cc="http://creativecommons.org/ns#"
   xmlns:rdf="http://www.w3.org/1999/02/22-rdf-syntax-ns#"
   xmlns:svg="http://www.w3.org/2000/svg"
   xmlns="http://www.w3.org/2000/svg"
   xmlns:sodipodi="http://sodipodi.sourceforge.net/DTD/sodipodi-0.dtd"
   xmlns:inkscape="http://www.inkscape.org/namespaces/inkscape"
   fill="#FF5722"
   width="48"
   height="48"
   viewBox="0 0 48 48"
   id="svg2"
   version="1.1"
   inkscape:version="0.91 r13725"
   sodipodi:docname="surround_sound2.svg">
  <metadata
     id="metadata10">
    <rdf:RDF>
      <cc:Work
         rdf:about="">
        <dc:format>image/svg+xml</dc:format>
        <dc:type
           rdf:resource="http://purl.org/dc/dcmitype/StillImage" />
        <dc:title></dc:title>
      </cc:Work>
    </rdf:RDF>
  </metadata>
  <defs
     id="defs8" />
  <sodipodi:namedview
     pagecolor="#ffffff"
     bordercolor="#666666"
     borderopacity="1"
     objecttolerance="10"
     gridtolerance="10"
     guidetolerance="10"
     inkscape:pageopacity="0"
     inkscape:pageshadow="2"
     inkscape:window-width="1366"
     inkscape:window-height="713"
     id="namedview6"
     showgrid="false"
     inkscape:zoom="4.916666666666667"
     inkscape:cx="54.50847457627118"
     inkscape:cy="24"
     inkscape:window-x="0"
     inkscape:window-y="30"
     inkscape:window-maximized="1"
     inkscape:current-layer="svg2"
     inkscape:snap-bbox="true"
     inkscape:snap-bbox-midpoints="true"
     inkscape:snap-object-midpoints="true" />
  <path
     d="M 6 6 C 3.790000000000004 6 2.000000000000001 7.790000000000001 2 10 L 2 38 C 2 40.21 3.790000000000005 42 6 42 L 42 42 C 44.21000000000001 42 46 40.21000000000002 46 38 L 46 10 C 46 7.79 44.21000000000001 6.000000000000001 42 6 L 6 6 z M 6 9.970703125 L 42 9.970703125 L 42 38.029296875 L 6 38.029296875 L 6 9.970703125 z M 35.3203125 12.6796875 L 32.490234375 15.509765625 C 34.82023437500001 17.84976562500001 36 20.93 36 24 C 35.99999999999999 27.06999999999999 34.83046874999999 30.15046874999999 32.48046875 32.48046875 L 35.310546875 35.310546875 C 38.430546875 32.190546875 40 28.1 40 24 C 40.00000000000001 19.9 38.4303125 15.8096875 35.3203125 12.6796875 z M 12.689453125 12.689453125 C 9.569453125000003 15.809453125 8 19.9 8 24 C 8 28.1 9.569687500000001 32.1903125 12.6796875 35.3203125 L 15.509765625 32.490234375 C 13.169765625 30.150234375 12 27.07 12 24 C 12 20.93 13.17953125 17.84953125 15.51953125 15.51953125 L 12.689453125 12.689453125 z M 24 16 C 19.58 16 16 19.58 16 24 C 16 28.42 19.58 32 24 32 C 28.42 32 32 28.42 32 24 C 32 19.58 28.42 16 24 16 z M 24 20 C 26.21 20 28 21.79 28 24 C 28 26.21 26.21 28 24 28 C 21.79 28 20 26.21 20 24 C 20 21.79 21.79 20 24 20 z "
     id="path4144" />
</svg>
