<?xml version="1.0" encoding="UTF-8" standalone="no"?>
<svg
   xmlns:dc="http://purl.org/dc/elements/1.1/"
   xmlns:cc="http://creativecommons.org/ns#"
   xmlns:rdf="http://www.w3.org/1999/02/22-rdf-syntax-ns#"
   xmlns:svg="http://www.w3.org/2000/svg"
   xmlns="http://www.w3.org/2000/svg"
   xmlns:sodipodi="http://sodipodi.sourceforge.net/DTD/sodipodi-0.dtd"
   xmlns:inkscape="http://www.inkscape.org/namespaces/inkscape"
   width="36"
   height="46"
   viewBox="0 0 36 46"
   id="svg2"
   version="1.1"
   inkscape:version="0.91 r13725"
   sodipodi:docname="preferences-desktop-peripherals-directory.svg"
   style="fill:#9E9E9E">
  <metadata
     id="metadata10">
    <rdf:RDF>
      <cc:Work
         rdf:about="">
        <dc:format>image/svg+xml</dc:format>
        <dc:type
           rdf:resource="http://purl.org/dc/dcmitype/StillImage" />
        <dc:title></dc:title>
      </cc:Work>
    </rdf:RDF>
  </metadata>
  <defs
     id="defs8" />
  <sodipodi:namedview
     pagecolor="#ffffff"
     bordercolor="#666666"
     borderopacity="1"
     objecttolerance="10"
     gridtolerance="10"
     guidetolerance="10"
     inkscape:pageopacity="0"
     inkscape:pageshadow="2"
     inkscape:window-width="1366"
     inkscape:window-height="713"
     id="namedview6"
     showgrid="false"
     inkscape:snap-bbox="true"
     inkscape:bbox-nodes="true"
     inkscape:zoom="7.795207766269931"
     inkscape:cx="18.46020430955845"
     inkscape:cy="30.01050198755414"
     inkscape:window-x="0"
     inkscape:window-y="30"
     inkscape:window-maximized="1"
     inkscape:current-layer="svg2"
     inkscape:snap-page="true"
     fit-margin-top="0"
     fit-margin-left="0"
     fit-margin-right="0"
     fit-margin-bottom="0" />
  <path
     id="path4"
     d="M 20,8.405714285714331 C 13.23714285714286,9.245714285714333 8,15.00571428571432 8,22.00000000000004 l 12,0 0,-13.594285714285707 z M 8,32.66666666666672 C 8,40.0333333333334 14.265,46.00000000000004 22,46.00000000000004 c 7.73500000000002,0 14,-5.96666666666664 14,-13.33333333333332 l 0,-6.66666666666668 -28,0 0,6.66666666666668 z m 16,-24.260952380952389 0,13.594285714285707 12,0 C 36,15.00571428571433 30.76285714285715,9.245714285714333 24,8.405714285714331 Z"
     inkscape:connector-curvature="0" />
  <path
     style="fill:#9E9E9E"
     d="m 28,5.373479439185757e-14 -24,0 C 1.789999999999999,5.373479439185757e-14 0,1.790000000000053 0,4.000000000000054 l 0,28.000000000000017 4,0 0,-28.000000000000021 24,0 L 28,2.664535259100382e-15 Z"
     id="path4162"
     inkscape:connector-curvature="0" />
</svg>
