<?xml version="1.0" encoding="UTF-8" standalone="no"?>
<svg
   xmlns:dc="http://purl.org/dc/elements/1.1/"
   xmlns:cc="http://creativecommons.org/ns#"
   xmlns:rdf="http://www.w3.org/1999/02/22-rdf-syntax-ns#"
   xmlns:svg="http://www.w3.org/2000/svg"
   xmlns="http://www.w3.org/2000/svg"
   xmlns:sodipodi="http://sodipodi.sourceforge.net/DTD/sodipodi-0.dtd"
   xmlns:inkscape="http://www.inkscape.org/namespaces/inkscape"
   fill="#CDDC39"
   width="48"
   height="48"
   viewBox="0 0 48 48"
   id="svg2"
   version="1.1"
   inkscape:version="0.91 r13725"
   sodipodi:docname="xfce-display-extend.svg">
  <metadata
     id="metadata10">
    <rdf:RDF>
      <cc:Work
         rdf:about="">
        <dc:format>image/svg+xml</dc:format>
        <dc:type
           rdf:resource="http://purl.org/dc/dcmitype/StillImage" />
        <dc:title></dc:title>
      </cc:Work>
    </rdf:RDF>
  </metadata>
  <defs
     id="defs8" />
  <sodipodi:namedview
     pagecolor="#ffffff"
     bordercolor="#666666"
     borderopacity="1"
     objecttolerance="10"
     gridtolerance="10"
     guidetolerance="10"
     inkscape:pageopacity="0"
     inkscape:pageshadow="2"
     inkscape:window-width="1366"
     inkscape:window-height="713"
     id="namedview6"
     showgrid="false"
     inkscape:snap-bbox="true"
     inkscape:bbox-nodes="true"
     inkscape:zoom="4.144188127079495"
     inkscape:cx="-20.68311764549446"
     inkscape:cy="-14.28717044931559"
     inkscape:window-x="0"
     inkscape:window-y="30"
     inkscape:window-maximized="1"
     inkscape:current-layer="svg2"
     inkscape:object-paths="true"
     inkscape:snap-intersection-paths="true"
     inkscape:object-nodes="true"
     inkscape:snap-smooth-nodes="true"
     inkscape:snap-midpoints="true"
     inkscape:snap-nodes="false"
     inkscape:snap-page="true" />
  <path
     inkscape:connector-curvature="0"
     id="path4632"
     d="m -62.20162801821133,38.81704300809393 c -2.01454551458358,0 -3.63671874999999,1.56099999999998 -3.63671874999999,3.5 l 0,21 c 0,1.93899999999999 1.62217323541641,3.49999999999997 3.63671874999999,3.49999999999997 l 32.72656250000002,0 c 2.01454551458359,0 3.63671875,-1.56099999999998 3.63671875,-3.49999999999997 l 0,-21 c 0,-1.93900000000002 -1.62217323541641,-3.5 -3.63671875,-3.5 l -32.72656250000002,0 z m 0.36328125,4 32.00000000000002,0 0,20 -32.00000000000002,0 0,-20 z"
     style="opacity:1;fill:#CDDC39;fill-opacity:1;fill-rule:nonzero;stroke:none;stroke-width:4;stroke-miterlimit:4;stroke-dasharray:none;stroke-opacity:1" />
  <path
     style="opacity:1;fill:#CDDC39;fill-opacity:1;fill-rule:nonzero;stroke:none;stroke-width:4;stroke-miterlimit:4;stroke-dasharray:none;stroke-opacity:1"
     d="m -70.20162801821132,46.81704300809399 c -2.01454551458359,0 -3.63671875,1.56099999999998 -3.63671875,3.5 l 0,20.99999999999998 c 0,1.93899999999998 1.62217323541641,3.5 3.63671875,3.5 l 32.7265625,0 c 2.01454551458359,0 3.63671875,-1.56100000000002 3.63671875,-3.5 l 0,-20.99999999999999 c 0,-1.93900000000002 -1.62217323541641,-3.5 -3.63671875,-3.5 l -32.7265625,0 z m 0.36328125,4 31.99999999999999,0 0,19.99999999999998 -31.99999999999999,0 0,-19.99999999999999 z"
     id="rect4278"
     inkscape:connector-curvature="0" />
  <path
     style="opacity:1;fill:#CDDC39;fill-opacity:1;fill-rule:nonzero;stroke:none;stroke-width:4;stroke-miterlimit:4;stroke-dasharray:none;stroke-opacity:1"
     d="m 3.2734375,23.99999999999998 c -1.813090963125291,0 -3.2734375,1.33799999999998 -3.2734375,3 L 0,45 c 0,1.662 1.460346536874709,3 3.2734375,3 l 29.453125,0 C 34.53965346312521,48 36,46.66199999999998 36,45 l 0,-18.00000000000001 c 0,-1.66200000000002 -1.46034653687479,-3 -3.2734375,-3 l -29.453125,0 z m 0.7265625,4 28,0 L 32,44 4,44 4,27.99999999999999 Z"
     id="path4638"
     inkscape:connector-curvature="0" />
  <path
     inkscape:connector-curvature="0"
     id="path4687"
     d="M 15.2734375,-1.820765760385257e-14 C 13.46034653687471,-1.820765760385257e-14 12,1.33799999999996 12,2.999999999999983 L 12,21 c 0,1.662 1.46034653687471,3 3.2734375,3 l 29.453125,0 C 46.53965346312521,24 48,22.66199999999998 48,21 l 0,-18.00000000000001 c 0,-1.662000000000023 -1.46034653687479,-3 -3.2734375,-3 l -29.453125,0 z M 16,3.999999999999983 l 28,0 L 44,20 16,20 16,3.999999999999991 Z"
     style="opacity:1;fill:#CDDC39;fill-opacity:1;fill-rule:nonzero;stroke:none;stroke-width:4;stroke-miterlimit:4;stroke-dasharray:none;stroke-opacity:1" />
</svg>
