<?xml version="1.0" encoding="UTF-8" standalone="no"?>
<svg
   xmlns:dc="http://purl.org/dc/elements/1.1/"
   xmlns:cc="http://creativecommons.org/ns#"
   xmlns:rdf="http://www.w3.org/1999/02/22-rdf-syntax-ns#"
   xmlns:svg="http://www.w3.org/2000/svg"
   xmlns="http://www.w3.org/2000/svg"
   xmlns:sodipodi="http://sodipodi.sourceforge.net/DTD/sodipodi-0.dtd"
   xmlns:inkscape="http://www.inkscape.org/namespaces/inkscape"
   fill="#00BCD4"
   width="48"
   height="48"
   viewBox="0 0 48 48"
   id="svg2"
   version="1.1"
   inkscape:version="0.91 r13725"
   sodipodi:docname="preferences-system-network-proxy.svg">
  <metadata
     id="metadata10">
    <rdf:RDF>
      <cc:Work
         rdf:about="">
        <dc:format>image/svg+xml</dc:format>
        <dc:type
           rdf:resource="http://purl.org/dc/dcmitype/StillImage" />
      </cc:Work>
    </rdf:RDF>
  </metadata>
  <defs
     id="defs8" />
  <sodipodi:namedview
     pagecolor="#ffffff"
     bordercolor="#666666"
     borderopacity="1"
     objecttolerance="10"
     gridtolerance="10"
     guidetolerance="10"
     inkscape:pageopacity="0"
     inkscape:pageshadow="2"
     inkscape:window-width="1366"
     inkscape:window-height="713"
     id="namedview6"
     showgrid="false"
     inkscape:snap-bbox="true"
     inkscape:bbox-nodes="true"
     inkscape:zoom="5.368001304915685"
     inkscape:cx="18.86346109128291"
     inkscape:cy="18.53608424989644"
     inkscape:window-x="0"
     inkscape:window-y="30"
     inkscape:window-maximized="1"
     inkscape:current-layer="svg2" />
  <path
     d="M 15.54,13.52 12.46,10.97 1.64,24 12.46,37.04 15.54,34.49 6.84,24 15.54,13.52 Z"
     id="path4159" />
  <path
     d="M 35.54,10.96 32.46,13.51 41.16,24 32.46,34.48000000000001 35.53999999999999,37.03 46.36,24 35.54,10.96 Z"
     id="path4" />
  <g
     style="fill:#00BCD4"
     id="g4148"
     transform="matrix(0.375,0,0,0.375,15,15.375)">
    <path
       id="path4140"
       d="m 36,16 -2,0 0,-4 C 34,6.480000000000003 29.52,2 24,2 18.48,2 14,6.480000000000003 14,12 l 0,4 -2,0 c -2.210000000000001,0 -4,1.79 -4,4 l 0,20 c 0,2.21 1.789999999999999,4 4,4 l 24,0 c 2.21,0 4,-1.79 4,-4 l 0,-20 c 0,-2.21 -1.79,-4 -4,-4 z M 24,34 c -2.21,0 -4,-1.79 -4,-4 0,-2.21 1.79,-4 4,-4 2.21,0 4,1.79 4,4 0,2.21 -1.79,4 -4,4 z m 6.2,-18 -12.4,0 0,-4 C 17.8,8.58 20.58,5.8 24,5.8 27.42,5.8 30.2,8.58 30.2,12 l 0,4 z"
       inkscape:connector-curvature="0" />
  </g>
</svg>
