<?xml version="1.0" encoding="UTF-8" standalone="no"?>
<svg
   xmlns:dc="http://purl.org/dc/elements/1.1/"
   xmlns:cc="http://creativecommons.org/ns#"
   xmlns:rdf="http://www.w3.org/1999/02/22-rdf-syntax-ns#"
   xmlns:svg="http://www.w3.org/2000/svg"
   xmlns="http://www.w3.org/2000/svg"
   xmlns:sodipodi="http://sodipodi.sourceforge.net/DTD/sodipodi-0.dtd"
   xmlns:inkscape="http://www.inkscape.org/namespaces/inkscape"
   width="48"
   height="48"
   viewBox="0 0 48 48"
   id="svg2"
   version="1.1"
   inkscape:version="0.91 r13725"
   sodipodi:docname="gnome-do-symbolic.svg"
   style="fill:#009688">
  <metadata
     id="metadata10">
    <rdf:RDF>
      <cc:Work
         rdf:about="">
        <dc:format>image/svg+xml</dc:format>
        <dc:type
           rdf:resource="http://purl.org/dc/dcmitype/StillImage" />
        <dc:title />
      </cc:Work>
    </rdf:RDF>
  </metadata>
  <defs
     id="defs8" />
  <sodipodi:namedview
     pagecolor="#ffffff"
     bordercolor="#666666"
     borderopacity="1"
     objecttolerance="10"
     gridtolerance="10"
     guidetolerance="10"
     inkscape:pageopacity="0"
     inkscape:pageshadow="2"
     inkscape:window-width="668"
     inkscape:window-height="480"
     id="namedview6"
     showgrid="false"
     fit-margin-top="0"
     fit-margin-left="0"
     fit-margin-right="0"
     fit-margin-bottom="0"
     inkscape:zoom="6.549153645833334"
     inkscape:cx="18"
     inkscape:cy="18"
     inkscape:window-x="0"
     inkscape:window-y="30"
     inkscape:window-maximized="0"
     inkscape:current-layer="svg2" />
  <path
     d="m 24,20 c -2.21,0 -4,1.79 -4,4 0,2.21 1.79,4 4,4 2.21,0 4,-1.79 4,-4 0,-2.21 -1.79,-4 -4,-4 z M 38,6 10,6 C 7.79,6 6,7.79 6,10 l 0,28 c 0,2.21 1.79,4 4,4 l 28,0 c 2.21,0 4,-1.79 4,-4 L 42,10 C 42,7.79 40.21,6 38,6 Z m -3.5,18 c 0,0.46 -0.04,0.92 -0.1,1.37 l 2.96,2.32 c 0.26000000000001,0.21 0.34,0.59 0.15999999999999,0.89 L 34.72,33.43 c -0.17,0.30000000000001 -0.54,0.42 -0.86,0.30000000000001 L 30.37,32.32 C 29.65,32.88 28.85999999999999,33.34000000000001 28,33.7 l -0.52,3.71000000000001 C 27.44,37.74 27.15,38.00000000000002 26.8,38.00000000000002 l -5.60000000000001,0 c -0.35,0 -0.64,-0.25999999999999 -0.69,-0.59000000000001 L 19.98999999999999,33.7 c -0.85,-0.35 -1.64,-0.82 -2.37,-1.38 l -3.48,1.4 c -0.32,0.11999999999999 -0.68,0 -0.86,-0.3 l -2.8,-4.85 c -0.18,-0.3 -0.1,-0.68 0.16,-0.89 l 2.96,-2.31 c -0.06,-0.45 -0.1,-0.9 -0.1,-1.37 0,-0.46 0.04,-0.92 0.1,-1.37 l -2.96,-2.31 c -0.26,-0.21 -0.34,-0.59 -0.16,-0.89 l 2.8,-4.85 c 0.18,-0.3 0.54,-0.42 0.86,-0.3 l 3.48,1.4 c 0.72,-0.55 1.51,-1.02 2.37,-1.38 l 0.52,-3.71 c 0.05,-0.33 0.34,-0.59 0.69,-0.59 L 26.8,10 c 0.35,0 0.64,0.26 0.69,0.59 l 0.52,3.71 c 0.85,0.35 1.64,0.82 2.37,1.38 l 3.48,-1.4 c 0.32,-0.12 0.68,0 0.86,0.3 l 2.79999999999999,4.85 c 0.18,0.3 0.10000000000002,0.68 -0.15999999999999,0.89 l -2.96,2.32 c 0.06,0.44 0.1,0.9 0.1,1.36 z"
     id="path4"
     inkscape:connector-curvature="0" />
</svg>
