<svg height="48" viewBox="0 0 48 48.301887" width="48" xmlns="http://www.w3.org/2000/svg" xmlns:xlink="http://www.w3.org/1999/xlink"><radialGradient id="a" cx="77.914261" cy="-48.544521" gradientTransform="matrix(1.5089497 0 0 1.3582164 -39.028917 76.957747)" gradientUnits="userSpaceOnUse" r="146"><stop offset="0" stop-color="#dddce9"/><stop offset=".37" stop-color="#5664a3"/><stop offset="1"/></radialGradient><g transform="matrix(.12176947 0 0 .12176947 5.73458 14.409387)"><ellipse cx="150" cy="80" fill="#6c7eb7" rx="146" ry="76" stroke="url(#a)" stroke-width="5.5"/><path id="b" d="m45 125 16-81h37c16 1 24 9 24 23 0 24-19 38-36 37h-18l-4 21zm27-36 5-30h13c7 0 12 3 12 9-1 17-9 20-18 21z" fill-rule="evenodd" stroke="#fff" stroke-linejoin="round" stroke-width="2"/><path d="m116 104 16-81h19l-4 21h18c16 1 22 9 20 19l-7 41h-20l7-37c1-5 1-8-6-8h-15l-9 45z" stroke="#fff" stroke-linejoin="round" stroke-width="2"/><use height="100%" transform="translate(134)" width="100%" xlink:href="#b"/></g></svg>