<?xml version="1.0" encoding="UTF-8" standalone="no"?>
<svg
   xmlns:dc="http://purl.org/dc/elements/1.1/"
   xmlns:cc="http://creativecommons.org/ns#"
   xmlns:rdf="http://www.w3.org/1999/02/22-rdf-syntax-ns#"
   xmlns:svg="http://www.w3.org/2000/svg"
   xmlns="http://www.w3.org/2000/svg"
   xmlns:sodipodi="http://sodipodi.sourceforge.net/DTD/sodipodi-0.dtd"
   xmlns:inkscape="http://www.inkscape.org/namespaces/inkscape"
   fill="#009688"
   width="48"
   height="48"
   viewBox="0 0 48 48"
   id="svg2"
   version="1.1"
   inkscape:version="0.91 r13725"
   sodipodi:docname="application-vnd.ms-outlook.svg">
  <metadata
     id="metadata10">
    <rdf:RDF>
      <cc:Work
         rdf:about="">
        <dc:format>image/svg+xml</dc:format>
        <dc:type
           rdf:resource="http://purl.org/dc/dcmitype/StillImage" />
        <dc:title />
      </cc:Work>
    </rdf:RDF>
  </metadata>
  <defs
     id="defs8" />
  <sodipodi:namedview
     pagecolor="#ffffff"
     bordercolor="#666666"
     borderopacity="1"
     objecttolerance="10"
     gridtolerance="10"
     guidetolerance="10"
     inkscape:pageopacity="0"
     inkscape:pageshadow="2"
     inkscape:window-width="1366"
     inkscape:window-height="713"
     id="namedview6"
     showgrid="false"
     inkscape:zoom="3.897603896495847"
     inkscape:cx="55.31522966375606"
     inkscape:cy="16.40201901055997"
     inkscape:window-x="0"
     inkscape:window-y="30"
     inkscape:window-maximized="1"
     inkscape:current-layer="svg2"
     inkscape:snap-bbox="true"
     inkscape:bbox-paths="true"
     inkscape:bbox-nodes="true"
     inkscape:snap-bbox-edge-midpoints="true"
     inkscape:snap-bbox-midpoints="true"
     inkscape:snap-object-midpoints="true" />
  <path
     style="fill:#0072c6;fill-opacity:1"
     d="M 12 4 C 9.789999999999999 4 8.019531349999999 5.790000000000001 8.01953125 8 L 8 40 C 8 42.21 9.77046835 44 11.98046875 44 L 36 44 C 38.21 44 40 42.21 40 40 L 40 16 L 28 4 L 12 4 z M 26 7 L 37 18 L 26 18 L 26 7 z M 24.189453125 23.37109375 C 25.908203125 23.37109375 27.3046875 23.947265625 28.37890625 25.099609375 C 29.45963541666667 26.24544270833333 30 27.6875 30 29.42578125 L 30 31.955078125 C 30 33.693359375 29.45963541666667 35.13541666666666 28.37890625 36.28125 C 27.3046875 37.42708333333334 25.908203125 38 24.189453125 38 C 22.529296875 38 21.17838541666667 37.42708333333334 20.13671875 36.28125 C 19.1015625 35.13541666666666 18.583984375 33.693359375 18.583984375 31.955078125 L 18.583984375 29.42578125 C 18.583984375 27.69401041666667 19.1015625 26.251953125 20.13671875 25.099609375 C 21.17838541666667 23.947265625 22.529296875 23.37109375 24.189453125 23.37109375 z M 24.189453125 24.953125 C 23.06966145833333 24.953125 22.17447916666667 25.36979166666667 21.50390625 26.203125 C 20.83984375 27.03645833333333 20.5078125 28.10416666666667 20.5078125 29.40625 L 20.5078125 31.955078125 C 20.5078125 33.27018229166666 20.83984375 34.34440104166666 21.50390625 35.177734375 C 22.17447916666667 36.01106770833334 23.06966145833333 36.427734375 24.189453125 36.427734375 C 25.380859375 36.427734375 26.32486979166667 36.01432291666666 27.021484375 35.1875 C 27.724609375 34.35416666666666 28.076171875 33.27669270833334 28.076171875 31.955078125 L 28.076171875 29.40625 C 28.076171875 28.10416666666667 27.724609375 27.03645833333333 27.021484375 26.203125 C 26.318359375 25.36979166666667 25.37434895833333 24.953125 24.189453125 24.953125 z "
     id="path4143" />
</svg>
