<?xml version="1.0" encoding="UTF-8" standalone="no"?>
<svg
   xmlns:dc="http://purl.org/dc/elements/1.1/"
   xmlns:cc="http://creativecommons.org/ns#"
   xmlns:rdf="http://www.w3.org/1999/02/22-rdf-syntax-ns#"
   xmlns:svg="http://www.w3.org/2000/svg"
   xmlns="http://www.w3.org/2000/svg"
   xmlns:sodipodi="http://sodipodi.sourceforge.net/DTD/sodipodi-0.dtd"
   xmlns:inkscape="http://www.inkscape.org/namespaces/inkscape"
   fill="#00C853"
   width="48"
   height="48"
   viewBox="0 0 48 48"
   id="svg2"
   version="1.1"
   inkscape:version="0.91 r13725"
   sodipodi:docname="image-jpeg.svg">
  <metadata
     id="metadata10">
    <rdf:RDF>
      <cc:Work
         rdf:about="">
        <dc:format>image/svg+xml</dc:format>
        <dc:type
           rdf:resource="http://purl.org/dc/dcmitype/StillImage" />
        <dc:title></dc:title>
      </cc:Work>
    </rdf:RDF>
  </metadata>
  <defs
     id="defs8" />
  <sodipodi:namedview
     pagecolor="#ffffff"
     bordercolor="#666666"
     borderopacity="1"
     objecttolerance="10"
     gridtolerance="10"
     guidetolerance="10"
     inkscape:pageopacity="0"
     inkscape:pageshadow="2"
     inkscape:window-width="1366"
     inkscape:window-height="713"
     id="namedview6"
     showgrid="false"
     inkscape:zoom="4.9166667"
     inkscape:cx="24.074825"
     inkscape:cy="24.050928"
     inkscape:window-x="0"
     inkscape:window-y="30"
     inkscape:window-maximized="1"
     inkscape:current-layer="svg2"
     inkscape:snap-bbox="true"
     inkscape:bbox-paths="true"
     inkscape:bbox-nodes="true"
     inkscape:snap-bbox-edge-midpoints="true" />
  <path
     d="M 10 6 C 7.79 6 6 7.79 6 10 L 6 38 C 6 40.21 7.79 42 10 42 L 38 42 C 40.21 42 42 40.21 42 38 L 42 10 C 42 7.79 40.21 6 38 6 L 10 6 z M 13.519531 8.9394531 L 15.003906 8.9394531 L 15.003906 10.240234 L 13.519531 10.240234 L 13.519531 8.9394531 z M 19.867188 11.734375 C 20.68099 11.734375 21.313965 12.058105 21.765625 12.705078 C 22.221354 13.347982 22.449219 14.196126 22.449219 15.25 L 22.449219 15.378906 C 22.449219 16.339193 22.223145 17.113118 21.771484 17.703125 C 21.319824 18.293132 20.692383 18.589844 19.886719 18.589844 C 19.51237 18.589844 19.179525 18.520996 18.890625 18.386719 C 18.601725 18.252441 18.354004 18.055339 18.146484 17.794922 L 18.146484 21 L 16.664062 21 L 16.664062 11.857422 L 17.914062 11.857422 L 18.060547 12.6875 C 18.272135 12.378255 18.527181 12.141276 18.824219 11.978516 C 19.125326 11.815755 19.472493 11.734375 19.867188 11.734375 z M 26.404297 11.734375 C 27.29541 11.734375 27.977214 12.005697 28.449219 12.546875 C 28.925293 13.083984 29.164062 13.805501 29.164062 14.712891 L 29.164062 15.585938 L 25.042969 15.585938 L 25.03125 15.617188 C 25.055664 16.14209 25.20752 16.570638 25.488281 16.904297 C 25.773112 17.237956 26.16748 17.404297 26.667969 17.404297 C 27.066732 17.404297 27.408529 17.355469 27.693359 17.257812 C 27.97819 17.160156 28.251139 17.020996 28.515625 16.837891 L 28.992188 17.808594 C 28.743978 18.02832 28.414876 18.212728 28.003906 18.363281 C 27.592936 18.513835 27.11735 18.589844 26.576172 18.589844 C 25.640299 18.589844 24.893392 18.28418 24.335938 17.673828 C 23.782552 17.059408 23.505859 16.272786 23.505859 15.3125 L 23.505859 15.066406 C 23.505859 14.10612 23.780762 13.312337 24.330078 12.681641 C 24.883464 12.046875 25.574219 11.730306 26.404297 11.734375 z M 32.697266 11.734375 C 33.09196 11.734375 33.437337 11.821289 33.734375 11.992188 C 34.035482 12.159017 34.290527 12.399414 34.498047 12.716797 L 34.644531 11.857422 L 35.876953 11.857422 L 35.876953 18.460938 C 35.876953 19.311361 35.614746 19.967773 35.089844 20.431641 C 34.564941 20.895508 33.819824 21.128906 32.855469 21.128906 C 32.534017 21.128906 32.186849 21.081868 31.8125 20.988281 C 31.44222 20.898763 31.105794 20.777507 30.804688 20.626953 L 31.123047 19.460938 C 31.367188 19.587077 31.634766 19.684733 31.927734 19.753906 C 32.224772 19.827148 32.530436 19.865234 32.84375 19.865234 C 33.380859 19.865234 33.773275 19.749512 34.021484 19.517578 C 34.269694 19.289714 34.394531 18.937012 34.394531 18.460938 L 34.394531 17.783203 C 34.187012 18.047689 33.941081 18.248372 33.65625 18.386719 C 33.375488 18.520996 33.051758 18.589844 32.685547 18.589844 C 31.875814 18.589844 31.241048 18.293132 30.78125 17.703125 C 30.321452 17.113118 30.091797 16.339193 30.091797 15.378906 L 30.091797 15.25 C 30.091797 14.200195 30.321452 13.352051 30.78125 12.705078 C 31.241048 12.058105 31.879395 11.734375 32.697266 11.734375 z M 13.556641 11.857422 L 15.039062 11.857422 L 15.039062 18.845703 C 15.039062 19.574056 14.851074 20.134603 14.472656 20.529297 C 14.094238 20.92806 13.566081 21.128906 12.890625 21.128906 C 12.744141 21.128906 12.612142 21.119792 12.494141 21.103516 C 12.376139 21.08724 12.253255 21.060059 12.123047 21.023438 L 12.207031 19.839844 C 12.276204 19.860189 12.363118 19.876465 12.464844 19.888672 C 12.566569 19.904948 12.660645 19.914062 12.746094 19.914062 C 12.998372 19.914062 13.195475 19.825358 13.337891 19.650391 C 13.484375 19.479492 13.556641 19.211914 13.556641 18.845703 L 13.556641 11.857422 z M 26.404297 12.925781 C 26.038086 12.925781 25.737956 13.072266 25.501953 13.365234 C 25.265951 13.654134 25.119466 14.021159 25.0625 14.46875 L 25.074219 14.5 L 27.693359 14.5 L 27.693359 14.347656 C 27.693359 13.928548 27.584798 13.586751 27.369141 13.322266 C 27.157552 13.05778 26.835612 12.925781 26.404297 12.925781 z M 19.453125 12.949219 C 19.14388 12.949219 18.881673 13.016113 18.666016 13.150391 C 18.450358 13.280599 18.276693 13.463216 18.146484 13.699219 L 18.146484 16.685547 C 18.276693 16.91748 18.450358 17.096517 18.666016 17.222656 C 18.881673 17.344727 19.147461 17.404297 19.464844 17.404297 C 19.969401 17.404297 20.34554 17.219889 20.59375 16.849609 C 20.846029 16.47526 20.972656 15.985189 20.972656 15.378906 L 20.972656 15.25 C 20.972656 14.574544 20.844238 14.022949 20.587891 13.595703 C 20.335612 13.164388 19.957682 12.949219 19.453125 12.949219 z M 33.076172 12.949219 C 32.567546 12.949219 32.189616 13.162598 31.941406 13.589844 C 31.697266 14.01709 31.574219 14.570475 31.574219 15.25 L 31.574219 15.378906 C 31.574219 15.985189 31.693522 16.47168 31.933594 16.837891 C 32.177734 17.200033 32.555827 17.380859 33.064453 17.380859 C 33.381836 17.380859 33.647624 17.315755 33.863281 17.185547 C 34.083008 17.05127 34.260254 16.859538 34.394531 16.611328 L 34.394531 13.71875 C 34.256185 13.478678 34.077148 13.290527 33.857422 13.15625 C 33.641764 13.017904 33.381348 12.949219 33.076172 12.949219 z M 29 24 L 38 36 L 10 36 L 17 27 L 22 33.009766 L 29 24 z "
     id="path4163" />
</svg>
