<svg xmlns="http://www.w3.org/2000/svg" fill="#673AB7" viewBox="0 0 48 48"><path d="m10 6c-2.21 0-4 1.79-4 4v28c0 2.21 1.79 4 4 4h28c2.21 0 4-1.79 4-4v-28c0-2.21-1.79-4-4-4h-28m7.365 5.734c.814 0 1.447.324 1.898.971.456.643.684 1.491.684 2.545v.129c0 .96-.226 1.734-.678 2.324-.452.59-1.081.887-1.887.887-.374 0-.705-.069-.994-.203-.289-.134-.537-.331-.744-.592v3.205h-1.484v-9.143h1.252l.146.83c.212-.309.467-.546.764-.709.301-.163.648-.244 1.043-.244m7.227 0c.688 0 1.223.21 1.605.629.387.415.58 1.064.58 1.947v4.15h-1.484v-4.139c0-.496-.103-.847-.311-1.055-.203-.212-.514-.318-.934-.318-.289 0-.548.065-.775.195-.228.126-.414.302-.561.525v4.791h-1.484v-6.604h1.355l.086.951c.216-.338.485-.6.811-.787.33-.191.7-.287 1.111-.287m6.07 0c.395 0 .742.087 1.039.258.301.167.554.407.762.725l.146-.859h1.234v6.604c0 .85-.264 1.507-.789 1.971-.525.464-1.268.697-2.232.697-.321 0-.671-.047-1.045-.141-.37-.09-.705-.211-1.01-.361l.316-1.166c.244.126.514.224.807.293.297.073.601.111.914.111.537 0 .931-.116 1.18-.348.248-.228.371-.581.371-1.057v-.678c-.208.264-.453.465-.738.604-.281.134-.604.203-.971.203-.81 0-1.444-.297-1.904-.887-.46-.59-.689-1.364-.689-2.324v-.129c0-1.05.23-1.898.689-2.545.46-.647 1.098-.971 1.916-.971m-13.707 1.215c-.309 0-.571.067-.787.201-.216.13-.389.313-.52.549v2.986c.13.232.304.411.52.537.216.122.481.182.799.182.505 0 .881-.184 1.129-.555.252-.374.379-.864.379-1.471v-.129c0-.675-.128-1.227-.385-1.654-.252-.431-.63-.646-1.135-.646m14.09 0c-.509 0-.887.213-1.135.641-.244.427-.367.981-.367 1.66v.129c0 .606.121 1.093.361 1.459.244.362.62.543 1.129.543.317 0 .583-.065.799-.195.22-.134.397-.326.531-.574v-2.893c-.138-.24-.317-.428-.537-.563-.216-.138-.476-.207-.781-.207m-2.037 11.05l9 12h-28l7-9 5 6.01 7-9.01"/></svg>