<svg xmlns="http://www.w3.org/2000/svg" fill="#009688" viewBox="0 0 48 48"><path d="m28 2c-2.21 0-4 1.79-4 4v36c0 2.21 1.79 4 4 4h16c2.21 0 4-1.79 4-4v-36c0-2.21-1.79-4-4-4h-16m0 4h16v36h-16v-4h8v-4h-8v-4h8v-4h-8v-4h8v-4h-8v-4h8v-4h-8v-4zm-24-2c-2.21 0-3.98 1.79-3.98 4l-.02 32c0 2.21 1.77 4 3.98 4h18.574c-.343-.59-.555-1.267-.555-2v-3.01c-1.672 1.258-3.745 2.01-6 2.01-5.525 0-10-4.475-10-10 0-5.525 4.475-10 10-10 2.255 0 4.328.754 6 2.01v-5.01h-4v-11l4 4v-5l-2-2h-16m15 19.584v.416c0 1.105-.895 2-2 2h-2v2c0 .55-.45 1-1 1h-2v2h6c.55 0 1 .45 1 1v3h1c.89 0 1.64.585 1.895 1.395.037-.04.069-.084.105-.125v-10.541c-.817-.928-1.835-1.674-3-2.145zm-10.789 5.625c-.135.575-.211 1.176-.211 1.791 0 4.08 3.055 7.44 7 7.93v-1.93c-1.105 0-2-.895-2-2v-1l-4.789-4.791" fill="#0369a3"/></svg>