<svg xmlns="http://www.w3.org/2000/svg" viewBox="0 0 48 48"><path d="m8.571 6c-1.425 0-2.571 1.147-2.571 2.571v30.857c0 1.425 1.147 2.571 2.571 2.571h30.857c1.425 0 2.571-1.147 2.571-2.571v-30.857c0-1.425-1.147-2.571-2.571-2.571h-30.857m5.142857 4.285714a3.428571 3.428571 0 0 1 0 6.857143 3.428571 3.428571 0 1 1 0 -6.857143zm20.571429 0a3.428571 3.428571 0 0 1 0 6.857143 3.428571 3.428571 0 1 1 0 -6.857143m-10.285714 10.285714a3.428571 3.428571 0 0 1 0 6.857143 3.428571 3.428571 0 1 1 0 -6.857143m-10.285714 10.285714a3.428571 3.428571 0 0 1 0 6.857143 3.428571 3.428571 0 1 1 0 -6.857143m20.571429 0a3.428571 3.428571 0 0 1 0 6.857143 3.428571 3.428571 0 1 1 0 -6.857143" fill="#2196F3"/></svg>