<svg fill="#CDDC39" height="48" viewBox="0 0 48 48" width="48" xmlns="http://www.w3.org/2000/svg"><g fill="#CDDC39" transform="translate(9 -6)"><path d="m4 12c-2.21 0-4 1.79-4 4v28c0 2.21 1.79 4 4 4h22c2.21 0 4-1.79 4-4v-28c0-2.21-1.79-4-4-4zm0 4h22v28h-22z"/><path d="m24 42.7-2.9-2.63c-10.3-9.35-17.1-15.52-17.1-23.07 0-6.17 4.83-11 11-11 3.48 0 6.82 1.62 9 4.17 2.18-2.55 5.52-4.17 9-4.17 6.17 0 11 4.83 11 11 0 7.55-6.8 13.72-17.1 23.07z" transform="matrix(.275 0 0 .275 8.4 23.30375)"/><text font-family="Roboto" font-size="15" letter-spacing="0" text-anchor="middle" word-spacing="0" x="7.358398" y="22.332031"><tspan fill="#CDDC39" font-family="Roboto" font-size="7.5" font-weight="900" text-anchor="middle" x="7.358398" y="22.332031">A</tspan></text><text font-family="Roboto" font-size="15" letter-spacing="0" text-anchor="middle" word-spacing="0" x="22.601318" y="43"><tspan fill="#CDDC39" font-family="Roboto" font-size="7.5" font-weight="900" text-anchor="middle" x="22.601318" y="43">A</tspan></text><path d="m24 42.7-2.9-2.63c-10.3-9.35-17.1-15.52-17.1-23.07 0-6.17 4.83-11 11-11 3.48 0 6.82 1.62 9 4.17 2.18-2.55 5.52-4.17 9-4.17 6.17 0 11 4.83 11 11 0 7.55-6.8 13.72-17.1 23.07z" transform="matrix(.118927 0 0 .118927 4.524292 22.618469)"/><path d="m24 42.7-2.9-2.63c-10.3-9.35-17.1-15.52-17.1-23.07 0-6.17 4.83-11 11-11 3.48 0 6.82 1.62 9 4.17 2.18-2.55 5.52-4.17 9-4.17 6.17 0 11 4.83 11 11 0 7.55-6.8 13.72-17.1 23.07z" transform="matrix(.118927 0 0 .118927 19.767212 31.589786)"/></g></svg>