<svg height="48" width="48" xmlns="http://www.w3.org/2000/svg"><path d="m8.571429 6c-1.424572 0-2.571429 1.146857-2.571429 2.571429v30.857142c0 1.424572 1.146857 2.571429 2.571429 2.571429h30.857142c1.424572 0 2.571429-1.146857 2.571429-2.571429v-30.857142c0-1.424572-1.146857-2.571429-2.571429-2.571429zm5.142857 4.285714a3.428571 3.428571 0 0 1 0 6.857143 3.428571 3.428571 0 1 1 0-6.857143zm20.571429 0a3.428571 3.428571 0 0 1 0 6.857143 3.428571 3.428571 0 1 1 0-6.857143zm-10.285715 10.285715a3.428571 3.428571 0 0 1 0 6.857143 3.428571 3.428571 0 1 1 0-6.857143zm-10.285714 10.285714a3.428571 3.428571 0 0 1 0 6.857143 3.428571 3.428571 0 1 1 0-6.857143zm20.571429 0a3.428571 3.428571 0 0 1 0 6.857143 3.428571 3.428571 0 1 1 0-6.857143z" fill="#CDDC39"/></svg>