<svg fill="#CDDC39" height="48" viewBox="0 0 48 48" width="48" xmlns="http://www.w3.org/2000/svg"><g fill="#CDDC39"><path d="m24.099609 0c-13.26 0-24 10.74-24 24s10.74 24 24 24 24-10.74 24-24-10.74-24-24-24zm0 4.800781c10.584 0 19.201172 8.615219 19.201172 19.199219s-8.617172 19.199219-19.201172 19.199219-19.199218-8.615219-19.199218-19.199219 8.615218-19.199219 19.199218-19.199219z"/><path d="m17.010156 29.92c-.38 0-.73-.05-1.05-.17-.31-.11-.58-.27-.8-.47s-.39-.45-.51-.73c-.12-.29-.18-.6-.18-.94h-2.6c0 .72.14 1.35.42 1.9s.65 1.01 1.12 1.37c.47.37 1.01.64 1.63.83.62.2 1.26.29 1.94.29.74 0 1.43-.1 2.07-.3s1.19-.5 1.66-.89.83-.87 1.1-1.44c.26-.57.4-1.22.4-1.95 0-.39-.05-.76-.14-1.12-.1-.36-.25-.7-.45-1.02-.21-.32-.48-.6-.81-.86-.33-.25-.74-.46-1.21-.63.4-.18.75-.4 1.05-.66s.55-.54.75-.83c.2-.3.35-.6.45-.92s.15-.64.15-.95c0-.73-.12-1.37-.36-1.92s-.58-1.01-1.02-1.38-.96-.65-1.58-.84c-.64-.2-1.32-.29-2.06-.29-.72 0-1.39.11-2 .32s-1.13.51-1.57.89-.78.83-1.03 1.35-.37 1.09-.37 1.7h2.6c0-.34.06-.64.18-.9.12-.27.29-.5.5-.68.21-.19.47-.34.76-.44s.61-.16.95-.16c.8 0 1.39.21 1.78.62s.58.99.58 1.73c0 .36-.05.68-.16.97s-.27.54-.49.75-.5.37-.82.49c-.33.12-.72.18-1.16.18h-1.54v2.05h1.54c.44 0 .84.05 1.19.15s.65.25.9.47c.25.21.44.48.58.8.13.32.2.7.2 1.14 0 .81-.23 1.43-.7 1.86-.45.42-1.08.63-1.89.63z"/><path d="m24.200156 16v16h4.589844c1.11 0 2.109531-.179063 3.019531-.539063s1.680313-.87125 2.320313-1.53125 1.140469-1.460625 1.480469-2.390625c.35-.93.519531-1.978672.519531-3.138672v-.791016c0-1.16-.179297-2.198672-.529297-3.138672s-.840703-1.740391-1.470703-2.400391-1.389531-1.17125-2.269531-1.53125c-.89-.359998-1.859688-.539061-2.929688-.539061zm2.779297 2.240234h1.951172c1.44 0 2.529062.459141 3.289063 1.369141.75.92 1.130859 2.240469 1.130859 3.980469v.820313h-.009766c0 .83-.091016 1.59-.291016 2.25-.19.67-.469609 1.229453-.849609 1.689453s-.849922.810547-1.419922 1.060547c-.57.24-1.230234.369141-1.990234.369141h-1.810547v-11.539063z"/></g></svg>