<svg height="48" width="48" xmlns="http://www.w3.org/2000/svg"><path d="m76.428223 355c-2.870821 0-5.176758 2.292572-5.176758 5.141602v25.716797c0 2.851872 2.308779 5.141601 5.176758 5.141601h21.858398c2.870821 0 5.176758-2.292572 5.176758-5.141602v-25.716797c0-2.851872-2.308779-5.141601-5.176758-5.141601zm-1.480957 4.535156h24.820313v6.679688h-24.820313zm.421875 8.929688h3.65625c.2493 0 .421875.172575.421875.421875v3.65625c0 .2493-.172575.421875-.421875.421875h-3.65625c-.2493 0-.421875-.172575-.421875-.421875v-3.65625c0-.2493.172575-.421875.421875-.421875zm6.75 0h3.65625c.2493 0 .421875.172575.421875.421875v3.65625c0 .2493-.172575.421875-.421875.421875h-3.65625c-.2493 0-.421875-.172575-.421875-.421875v-3.65625c0-.2493.172575-.421875.421875-.421875zm6.75 0h3.65625c.2493 0 .421875.172575.421875.421875v3.65625c0 .2493-.172575.421875-.421875.421875h-3.65625c-.2493 0-.421875-.172575-.421875-.421875v-3.65625c0-.2493.172575-.421875.421875-.421875zm6.75 0h3.65625c.2493 0 .421875.172575.421875.421875v3.65625c0 .2493-.172575.421875-.421875.421875h-3.65625c-.2493 0-.421875-.172575-.421875-.421875v-3.65625c0-.2493.172575-.421875.421875-.421875zm-20.25 6.75h3.65625c.2493 0 .421875.172575.421875.421875v3.65625c0 .2493-.172575.421875-.421875.421875h-3.65625c-.2493 0-.421875-.172575-.421875-.421875v-3.65625c0-.2493.172575-.421875.421875-.421875zm6.75 0h3.65625c.2493 0 .421875.172575.421875.421875v3.65625c0 .2493-.172575.421875-.421875.421875h-3.65625c-.2493 0-.421875-.172575-.421875-.421875v-3.65625c0-.2493.172575-.421875.421875-.421875zm6.75 0h3.65625c.2493 0 .421875.172575.421875.421875v3.65625c0 .2493-.172575.421875-.421875.421875h-3.65625c-.2493 0-.421875-.172575-.421875-.421875v-3.65625c0-.2493.172575-.421875.421875-.421875zm6.75 0h3.65625c.2493 0 .421875.172575.421875.421875v3.65625c0 .2493-.172575.421875-.421875.421875h-3.65625c-.2493 0-.421875-.172575-.421875-.421875v-3.65625c0-.2493.172575-.421875.421875-.421875zm-20.25 6.75h3.65625c.2493 0 .421875.172575.421875.421875v3.65625c0 .2493-.172575.421875-.421875.421875h-3.65625c-.2493 0-.421875-.172575-.421875-.421875v-3.65625c0-.2493.172575-.421875.421875-.421875zm6.75 0h3.65625c.2493 0 .421875.172575.421875.421875v3.65625c0 .2493-.172575.421875-.421875.421875h-3.65625c-.2493 0-.421875-.172575-.421875-.421875v-3.65625c0-.2493.172575-.421875.421875-.421875zm6.75 0h3.65625c.2493 0 .421875.172575.421875.421875v3.65625c0 .2493-.172575.421875-.421875.421875h-3.65625c-.2493 0-.421875-.172575-.421875-.421875v-3.65625c0-.2493.172575-.421875.421875-.421875zm6.75 0h3.65625c.2493 0 .421875.172575.421875.421875v3.65625c0 .2493-.172575.421875-.421875.421875h-3.65625c-.2493 0-.421875-.172575-.421875-.421875v-3.65625c0-.2493.172575-.421875.421875-.421875z" fill="#CDDC39" transform="translate(-63.357422 -349)"/></svg>