<?xml version="1.0" encoding="UTF-8" standalone="no"?>
<svg
   xmlns:dc="http://purl.org/dc/elements/1.1/"
   xmlns:cc="http://creativecommons.org/ns#"
   xmlns:rdf="http://www.w3.org/1999/02/22-rdf-syntax-ns#"
   xmlns:svg="http://www.w3.org/2000/svg"
   xmlns="http://www.w3.org/2000/svg"
   xmlns:sodipodi="http://sodipodi.sourceforge.net/DTD/sodipodi-0.dtd"
   xmlns:inkscape="http://www.inkscape.org/namespaces/inkscape"
   fill="#F44336"
   width="48"
   height="48"
   viewBox="0 0 48 48"
   id="svg2"
   version="1.1"
   inkscape:version="0.91 r13725"
   sodipodi:docname="system-file-manager-ubuntu-color.svg">
  <metadata
     id="metadata10">
    <rdf:RDF>
      <cc:Work
         rdf:about="">
        <dc:format>image/svg+xml</dc:format>
        <dc:type
           rdf:resource="http://purl.org/dc/dcmitype/StillImage" />
      </cc:Work>
    </rdf:RDF>
  </metadata>
  <defs
     id="defs8" />
  <sodipodi:namedview
     pagecolor="#ffffff"
     bordercolor="#666666"
     borderopacity="1"
     objecttolerance="10"
     gridtolerance="10"
     guidetolerance="10"
     inkscape:pageopacity="0"
     inkscape:pageshadow="2"
     inkscape:window-width="1366"
     inkscape:window-height="713"
     id="namedview6"
     showgrid="false"
     inkscape:snap-bbox="true"
     inkscape:snap-bbox-edge-midpoints="false"
     inkscape:snap-bbox-midpoints="true"
     inkscape:snap-object-midpoints="true"
     inkscape:zoom="6.927819446761233"
     inkscape:cx="8.482486580372861"
     inkscape:cy="3.151589634341555"
     inkscape:window-x="0"
     inkscape:window-y="30"
     inkscape:window-maximized="1"
     inkscape:current-layer="svg2"
     inkscape:bbox-nodes="true"
     inkscape:bbox-paths="true" />
  <path
     d="M 20 5 L 16 9 L 16 13 L 8 13 C 5.79 13 4.01953125 14.79 4.01953125 17 L 4 39 C 4 41.21 5.789999999999999 43 8 43 L 40 43 C 42.21 43 44 41.21 44 39 L 44 17 C 44 14.79 42.21 13 40 13 L 32 13 L 32 9 L 28 5 L 20 5 z M 20 9 L 28 9 L 28 13 L 20 13 L 20 9 z M 28.4375 18.00390625 C 28.80590224545777 17.97880660755192 29.18534177782038 18.05671296274662 29.529296875 18.248046875 C 30.44671318901571 18.75846597935744 30.76213325021221 19.88748067933622 30.232421875 20.771484375 C 29.70301458209272 21.65509739396704 28.52864307824732 21.95778239853162 27.611328125 21.447265625 C 26.69421589328919 20.93713952816518 26.3806475963244 19.80744114396702 26.91015625 18.923828125 C 27.24122585950763 18.37132581521012 27.82349625757038 18.04573898741347 28.4375 18.00390625 z M 23.6875 19.970703125 C 24.45875408610601 19.970703125 25.20339488294411 20.07468202292735 25.912109375 20.263671875 C 26.0373912846369 21.00605526807707 26.49562272928123 21.69018071373097 27.224609375 22.095703125 C 27.95268377380399 22.50083485957223 28.7942481327446 22.54085544046947 29.5234375 22.275390625 C 30.94177873102651 23.61902545443838 31.86549426044651 25.44660560802218 32 27.482421875 L 29.265625 27.521484375 C 29.0139462122748 24.76408824904922 26.61449490662136 22.6015625 23.6875 22.6015625 C 22.84407704685411 22.6015625 22.04350203236261 22.78189103436683 21.326171875 23.103515625 L 19.994140625 20.802734375 C 21.10728458263121 20.27141406736426 22.36109298583489 19.970703125 23.6875 19.970703125 z M 19.064453125 21.3203125 L 20.466796875 23.583984375 C 19.02635899648089 24.56087145532586 18.083984375 26.17348877332796 18.083984375 28 C 18.083984375 29.82680423419462 19.02635899648089 31.43932388302254 20.466796875 32.416015625 L 19.064453125 34.6796875 C 17.38591880170981 33.59917342585033 16.13770231569748 31.94674042920574 15.619140625 30.01171875 C 16.22507529798477 29.53597220248278 16.611328125 28.81211918345426 16.611328125 28 C 16.611328125 27.18768547819736 16.22497393721647 26.46412546669142 15.619140625 25.98828125 C 16.1378036764659 24.05345490914265 17.38591880170981 22.40092424332386 19.064453125 21.3203125 z M 13.91796875 26.15234375 C 14.97718877888788 26.15234375 15.8359375 26.97896645293676 15.8359375 28 C 15.8359375 29.02054520119223 14.9770874181195 29.84765625 13.91796875 29.84765625 C 12.85844463880729 29.84765625 12 29.02054520119223 12 28 C 12 26.97906412211096 12.85844463880729 26.15234375 13.91796875 26.15234375 z M 29.265625 28.478515625 L 32 28.517578125 C 31.86569698198311 30.5533943919778 30.94363049525828 32.38087687638739 29.525390625 33.724609375 C 28.7962012577446 33.45904689035632 27.952683773804 33.49936047877614 27.224609375 33.904296875 C 26.49552136851297 34.31011229379161 26.0373912846369 34.99394473192294 25.912109375 35.736328125 C 25.20329352217584 35.92531797707264 24.45875408610601 36.029296875 23.6875 36.029296875 C 22.36109298583481 36.029296875 21.10738594339961 35.72839059428734 19.994140625 35.197265625 L 21.326171875 32.896484375 C 22.04360339313091 33.21810896563318 22.8439756860857 33.3984375 23.6875 33.3984375 C 26.61449490662139 33.39843749999999 29.01414893381142 31.23630242764757 29.265625 28.478515625 z M 28.705078125 34.30859375 C 29.31906899936333 34.35042076461028 29.90147896645275 34.67625748814562 30.232421875 35.228515625 C 30.76203188944391 36.11242165148963 30.44640910671068 37.24172935899098 29.529296875 37.751953125 C 28.6118805609843 38.26227456018322 27.4398676252122 37.9601755706638 26.91015625 37.076171875 C 26.38074895709269 36.192558856033 26.69586493598433 35.06305581018323 27.61328125 34.552734375 C 27.95719833689152 34.36140046274662 28.336683600382 34.28349754123383 28.705078125 34.30859375 z "
     id="path4155"
     style="fill:#dd4814;fill-opacity:1" />
</svg>
