<?xml version="1.0" encoding="UTF-8" standalone="no"?>
<svg
   xmlns:dc="http://purl.org/dc/elements/1.1/"
   xmlns:cc="http://creativecommons.org/ns#"
   xmlns:rdf="http://www.w3.org/1999/02/22-rdf-syntax-ns#"
   xmlns:svg="http://www.w3.org/2000/svg"
   xmlns="http://www.w3.org/2000/svg"
   xmlns:sodipodi="http://sodipodi.sourceforge.net/DTD/sodipodi-0.dtd"
   xmlns:inkscape="http://www.inkscape.org/namespaces/inkscape"
   fill="#009688"
   width="48"
   height="48"
   viewBox="0 0 48 48"
   id="svg2"
   version="1.1"
   inkscape:version="0.91 r13725"
   sodipodi:docname="zoom-original-scratch2.svg">
  <metadata
     id="metadata10">
    <rdf:RDF>
      <cc:Work
         rdf:about="">
        <dc:format>image/svg+xml</dc:format>
        <dc:type
           rdf:resource="http://purl.org/dc/dcmitype/StillImage" />
        <dc:title></dc:title>
      </cc:Work>
    </rdf:RDF>
  </metadata>
  <defs
     id="defs8" />
  <sodipodi:namedview
     pagecolor="#ffffff"
     bordercolor="#666666"
     borderopacity="1"
     objecttolerance="10"
     gridtolerance="10"
     guidetolerance="10"
     inkscape:pageopacity="0"
     inkscape:pageshadow="2"
     inkscape:window-width="1366"
     inkscape:window-height="713"
     id="namedview6"
     showgrid="false"
     inkscape:zoom="4.732452091598368"
     inkscape:cx="-11.80421182352778"
     inkscape:cy="24.98172692428032"
     inkscape:window-x="0"
     inkscape:window-y="30"
     inkscape:window-maximized="1"
     inkscape:current-layer="svg2"
     inkscape:snap-bbox="true"
     inkscape:bbox-paths="true"
     inkscape:bbox-nodes="true"
     inkscape:object-paths="true"
     inkscape:snap-intersection-paths="true"
     inkscape:object-nodes="true"
     inkscape:snap-smooth-nodes="true"
     inkscape:snap-bbox-edge-midpoints="false"
     inkscape:snap-midpoints="true"
     inkscape:snap-nodes="true" />
  <path
     id="path4198"
     style="fill:#009688"
     d="m -20.68329296444662,27.47945282397376 c -7.18000000000001,0 -13,5.82 -13,13 0,7.17999999999999 5.82000000000001,13 13,13 3.23000000000002,0 6.17921875,-1.180859375 8.44921875,-3.130859375 l 0.55078125,0.55078125 0,1.580078125 9.9999999999999982,9.98046875 2.98046875,-2.98046875 -9.980468749999998,-10 -1.58984375,0 -0.55078125,-0.55078125 c 1.960000000000017,-2.26999999999998 3.140624999999998,-5.21921875 3.140624999999998,-8.44921875 0,-7.18 -5.819999999999999,-13 -12.999999999999996,-13 z m 0,4 c 4.97,0 9,4.03 9,9 0,4.97 -4.03,9 -9,9 -4.97,0 -9,-4.02999999999998 -9,-9 0,-4.97 4.02999999999999,-9 9,-9 z m 2.90578243278447,8.99924493529613 c 0,-1.60509416487707 -1.30005335604156,-2.90514828992842 -2.90514828992843,-2.90514828992842 -1.60509416487707,0 -2.90514828992843,1.30005412505135 -2.90514828992843,2.90514828992842 0,1.60509416487708 1.30005412505136,2.90514828992843 2.90514828992843,2.90514828992843 1.60509493388687,0 2.90514828992843,-1.30005412505135 2.90514828992843,-2.90514828992843 z"
     inkscape:connector-curvature="0" />
  <path
     style="fill:#000000;fill-opacity:1"
     d="m -28.62265357026985,24.30829369318293 c -7.16105238097037,0 -12.967700486837,5.80664787702485 -12.967700486837,12.96770025799524 l -4.32256675266508,0 5.76342226060618,5.76342264200912 5.76342309969267,-5.76342264200912 -4.32256698150685,0 c 0,-5.5689063764775 4.51708248423257,-10.08598886071007 10.08598886071008,-10.08598886071007 5.5689071392834,0 10.08598962351596,4.51708248423257 10.08598962351596,10.08598886071007 0,5.56890713928339 -4.51708248423255,10.08598886071009 -10.08598962351596,10.08598886071009 -2.18289568871805,0 -4.19288921688381,-0.69881486948066 -5.84987372228524,-1.88031652634863 l -2.03881004638724,2.06762809022044 c 2.19010039037784,1.6858010236229 4.92052136739174,2.69439975713274 7.88868376867247,2.69439975713274 7.16105238097038,0 12.96770018171462,-5.80664780074427 12.96770018171462,-12.96770018171466 0,-7.1610523809704 -5.80664780074424,-12.96770025799523 -12.96770018171462,-12.96770025799523 z"
     id="path4153"
     inkscape:connector-curvature="0" />
  <path
     style="fill:#009688;fill-opacity:1"
     d="m 19.509765625,16.603515625 c -1.60509416487707,0 -2.904296875,1.30115583512292 -2.904296875,2.90625 0,1.60509416487708 1.29920271012293,2.904296875 2.904296875,2.904296875 1.60509493388687,0 2.90624999999999,-1.29920271012292 2.90625,-2.904296875 0,-1.60509416487707 -1.30115506611311,-2.90625 -2.90625,-2.90625 z"
     id="path4199" />
  <path
     style="fill:#af4c4e;fill-opacity:1"
     d="m -16.01545987227193,48.42338163289281 c -0.17276195623318,-0.84411061903495 -0.42772703761378,-1.65789563522748 -0.755859375,-2.43359375 -0.65626467477243,-1.55139622954504 -1.60590012609632,-2.94965011656125 -2.779296875,-4.123046875 -1.17339674890368,-1.17339675843876 -2.56969752760627,-2.12303219307626 -4.12109375,-2.779296875 -0.77569811119687,-0.32813234096187 -1.58948313305084,-0.58309741668102 -2.43359375,-0.755859375 -0.84411061694916,-0.17276195831897 -1.7181497023787,-0.26171875 -2.61328125,-0.26171875 -0.8951315476213,0 -1.76917062470766,0.088956791681 -2.61328125,0.26171875 -0.84411062529235,0.17276195831898 -1.65984874950052,0.42772703403813 -2.435546875,0.755859375 -1.55139625099897,0.65626468192374 -2.94769696295602,1.60590011656124 -4.12109375,2.779296875 -1.17339678704398,1.17339675843876 -2.12303217162235,2.57165064545496 -2.779296875,4.123046875 -0.32813235168883,0.77569811477252 -0.58309741042363,1.58948313096505 -0.755859375,2.43359375 -0.17276196457637,0.84411061903496 -0.263671875,1.7181497023787 -0.263671875,2.61328125 l -0.064453125,0 c 0,2.08590662135621 0.59960077205314,3.98348615850131 1.47265625,5.73046875 l 0.033203125,0.033203125 3.04296875,-3.04296875 c -0.2811100336789,-0.87131830833206 -0.548828125,-1.75594164859172 -0.548828125,-2.720703125 l -1.052734375,0 c 0,-1.39222659411937 0.28052497997074,-2.71917730791105 0.791015625,-3.92578125 0.51049064502925,-1.20660394208894 1.24941741594108,-2.29238616594108 2.162109375,-3.205078125 0.91269195905891,-0.91269195905891 2.00042730791105,-1.65161872997074 3.20703125,-2.162109375 1.20660394208895,-0.51049064502926 2.53355465588063,-0.79296875 3.92578125,-0.79296875 1.39222678482085,0 2.71722407564147,0.28247810497074 3.923828125,0.79296875 1.20660404935853,0.51049064502926 2.29433924326572,1.24941741594109 3.20703125,2.162109375 0.91269200673428,0.91269195905892 1.65161871805189,1.99847418291106 2.162109375,3.205078125 0.51049065694811,1.20660394208895 0.79296875,2.53355465588063 0.79296875,3.92578125 0,1.39222678482085 -0.2824780930519,2.71917727215452 -0.79296875,3.92578125 -0.5104906569481,1.20660397784548 -1.24941736826572,2.29238621361646 -2.162109375,3.205078125 -0.91269200673428,0.91269191138355 -2.00042720064147,1.65161878956494 -3.20703125,2.162109375 -1.20660404935853,0.51049058543506 -2.53160134017915,0.79296875 -3.923828125,0.79296875 -1.09144784435902,0 -2.14056346869363,-0.17370232552134 -3.123046875,-0.49609375 -0.98248340630638,-0.32239142447865 -1.90002337229929,-0.79401479656601 -2.728515625,-1.384765625 l -1.931640625,1.9609375 c 0.39863649112965,0.30429738058326 0.81116232346054,0.58055383828733 1.244140625,0.837890625 0.73990010903983,0.44290325746419 1.44699721081782,0.94033606911451 2.271484375,1.23046875 0.0269682956838,0.00934398211 0.0549826610393,0.0162195343519 0.08203125,0.025390625 1.31380827663119,0.45235464271936 2.71921201484096,0.70703125 4.185546875,0.70703125 0.11372952742364,0 0.21900279405385,-0.0302917650303 0.33203125,-0.033203125 1.30499548666813,-0.0380190885298 2.55056290149493,-0.28377658953188 3.73046875,-0.6796875 0.23451897402032,-0.0778567379558 0.4806207582411,-0.12807725651833 0.708984375,-0.21875 0.45566898789186,-0.18299053426027 0.81967997715239,-0.51069762065917 1.248046875,-0.7421875 1.12660661806308,-0.6041914201486 2.2520220146622,-1.22663138966218 3.1484375,-2.123046875 0.8354009129662,-0.8354009129662 1.39507858321808,-1.89839080484028 1.978515625,-2.935546875 0.28943334353385,-0.51346863954799 0.68231626341245,-0.9580341641944 0.900390625,-1.51171875 0.0569776139258,-0.14515332938667 0.0887858650258,-0.30156819789401 0.140625,-0.44921875 0.47240115241497,-1.34322382683028 0.779296875,-2.76784795415579 0.779296875,-4.2734375 0,-0.89551231457534 -0.0912547663536,-1.76873408459331 -0.263671875,-2.61328125 z"
     id="path4192"
     inkscape:connector-curvature="0" />
  <path
     inkscape:connector-curvature="0"
     id="path4205"
     d="m -20.95551461333912,1.544052384263875 c -7.16105238097037,0 -12.967700486837,5.806647877024861 -12.967700486837,12.967700257995245 l -4.32256675266509,0 5.76342226060621,5.7634226420091 5.76342309969267,-5.7634226420091 -4.32256698150684,0 c 0,-5.568906376477495 4.51708248423257,-10.085988860710084 10.08598886071007,-10.085988860710084 5.5689071392834,0 10.08598962351596,4.51708248423259 10.08598962351596,10.085988860710084 0,5.56890713928339 -4.51708248423255,10.08598886071006 -10.08598962351596,10.08598886071006 -2.18289568871806,0 -4.19288921688381,-0.69881486948066 -5.84987372228523,-1.88031652634861 l -2.03881004638724,2.06762809022044 c 2.19010039037782,1.68580102362291 4.92052136739173,2.69439975713275 7.88868376867246,2.69439975713275 7.16105238097038,0 12.96770018171464,-5.80664780074428 12.96770018171464,-12.96770018171467 -7e-15,-7.161052380970385 -5.806647800744271,-12.967700257995225 -12.96770018171464,-12.967700257995225 z"
     style="fill:#000000;fill-opacity:1" />
  <path
     style="fill:#009688"
     d="M 19.509765625 6.509765625 C 12.34116257744607 6.509765625 6.53210772400355 12.31228132712994 6.513671875 19.4765625 L 7.04296875 19.4765625 L 9.923828125 19.4765625 L 10.515625 19.4765625 C 10.5345635668332 14.52271724258829 14.55148180781045 10.509765625 19.509765625 10.509765625 C 24.47976562499999 10.509765625 28.509765625 14.53976562500003 28.509765625 19.509765625 C 28.509765625 24.479765625 24.47976562499998 28.509765625 19.509765625 28.509765625 C 17.61544379378981 28.509765625 15.86025841418349 27.92170169120248 14.41015625 26.921875 L 11.65234375 29.71875 C 13.74393132072838 31.17361962062498 16.76379991463988 32.509765625 19.509765625 32.509765625 C 22.73976562500001 32.509765625 25.68898437500001 31.32890625000003 27.958984375 29.37890625 L 28.509765625 29.9296875 L 28.509765625 31.509765625 L 38.509765625 41.490234375 L 41.490234375 38.509765625 L 31.509765625 28.509765625 L 29.919921875 28.509765625 L 29.369140625 27.958984375 C 31.32914062500001 25.68898437500005 32.50976562500001 22.73976562500001 32.509765625 19.509765625 C 32.509765625 12.32976562500001 26.68976562499999 6.509765625 19.509765625 6.509765625 z "
     id="path4357" />
  <path
     style="fill:#009688;fill-opacity:1"
     d="m 2.71875,19.4765625 5.763671875,5.763671875 5.763671875,-5.763671875 -4.322265625,0 -2.880859375,0 -4.32421875,0 z"
     id="path4458"
     inkscape:connector-curvature="0" />
</svg>
