<?xml version="1.0" encoding="UTF-8" standalone="no"?>
<svg
   xmlns:dc="http://purl.org/dc/elements/1.1/"
   xmlns:cc="http://creativecommons.org/ns#"
   xmlns:rdf="http://www.w3.org/1999/02/22-rdf-syntax-ns#"
   xmlns:svg="http://www.w3.org/2000/svg"
   xmlns="http://www.w3.org/2000/svg"
   xmlns:sodipodi="http://sodipodi.sourceforge.net/DTD/sodipodi-0.dtd"
   xmlns:inkscape="http://www.inkscape.org/namespaces/inkscape"
   fill="#8BC34A"
   width="48"
   height="48"
   viewBox="0 0 48 48"
   id="svg2"
   version="1.1"
   inkscape:version="0.91 r13725"
   sodipodi:docname="folder-ubuntu1.svg">
  <metadata
     id="metadata10">
    <rdf:RDF>
      <cc:Work
         rdf:about="">
        <dc:format>image/svg+xml</dc:format>
        <dc:type
           rdf:resource="http://purl.org/dc/dcmitype/StillImage" />
        <dc:title />
      </cc:Work>
    </rdf:RDF>
  </metadata>
  <defs
     id="defs8" />
  <sodipodi:namedview
     pagecolor="#ffffff"
     bordercolor="#666666"
     borderopacity="1"
     objecttolerance="10"
     gridtolerance="10"
     guidetolerance="10"
     inkscape:pageopacity="0"
     inkscape:pageshadow="2"
     inkscape:window-width="1366"
     inkscape:window-height="713"
     id="namedview6"
     showgrid="false"
     inkscape:zoom="4.484375002366117"
     inkscape:cx="1.152186938550521"
     inkscape:cy="19.00443787027039"
     inkscape:window-x="0"
     inkscape:window-y="30"
     inkscape:window-maximized="1"
     inkscape:current-layer="svg2"
     inkscape:snap-bbox="true"
     inkscape:bbox-paths="true"
     inkscape:snap-bbox-edge-midpoints="false"
     inkscape:bbox-nodes="true" />
  <path
     d="M 8 8 C 5.79 8 4.019531350000001 9.789999999999999 4.01953125 12 L 4 36 C 4 38.21 5.790000000000001 40 8 40 L 40 40 C 42.21 40 44 38.21 44 36 L 44 16 C 44 13.79 42.21 12 40 12 L 24 12 L 20 8 L 8 8 z M 35.4375 16.25 C 35.80586940533924 16.22395378038676 36.18533165919511 16.30340347998731 36.529296875 16.501953125 C 37.44663880302959 17.03162155013343 37.76013717513341 18.20385317452022 37.23046875 19.12109375 C 36.70110438251589 20.03803026783045 35.52856870047983 20.35203540268319 34.611328125 19.822265625 C 33.69429025461984 19.29290125751593 33.38069052996617 18.12036557547977 33.91015625 17.203125 C 34.24119901570842 16.62978629498152 34.82355099110126 16.29341036602206 35.4375 16.25 z M 30.6875 18.291015625 C 31.45869155125137 18.291015625 32.20540547196079 18.39763281618194 32.9140625 18.59375 C 33.03933425152411 19.36413073085322 33.49568183700541 20.07332483832685 34.224609375 20.494140625 C 34.95262474004651 20.91455100147404 35.796260381906 20.95711685529326 36.525390625 20.681640625 C 37.94361685402642 22.07604900482881 38.86550516644621 23.97334495245299 39 26.0859375 L 36.267578125 26.125 C 36.01521027605575 23.26381751980175 33.61425757990379 21.01953125 30.6875 21.01953125 C 29.84414543330747 21.01953125 29.04570105241951 21.20726167858509 28.328125 21.541015625 L 26.99609375 19.154296875 C 28.1091474516485 18.60293900421437 29.36079512342201 18.291015625 30.6875 18.291015625 z M 26.064453125 19.69140625 L 27.466796875 22.0390625 C 26.02647579012228 23.05258799776771 25.083984375 24.72765284162462 25.083984375 26.623046875 C 25.083984375 28.51864361347495 26.02647579012229 30.19350575223229 27.466796875 31.20703125 L 26.064453125 33.5546875 C 24.38605490069663 32.43342424181957 23.137660269658 30.72088734117738 22.619140625 28.712890625 C 23.22502616756561 28.21920235503734 23.611328125 27.46579332639386 23.611328125 26.623046875 C 23.611328125 25.78009771850661 23.22492481501569 25.02894587251243 22.619140625 24.53515625 C 23.1377616222077 22.52736223892217 24.38605490069672 20.81236545053108 26.064453125 19.69140625 z M 20.91796875 24.705078125 C 21.97710289516732 24.705078125 22.8359375 25.56350731963362 22.8359375 26.623046875 C 22.8359375 27.68207966761749 21.9770015426175 28.541015625 20.91796875 28.541015625 C 19.85853054718339 28.54101562499999 19 27.68207966761747 19 26.623046875 C 19 25.56360867218341 19.85853054718337 24.705078125 20.91796875 24.705078125 z M 36.267578125 27.119140625 L 39 27.158203125 C 38.86601192919507 29.27079567254701 37.94351550147664 31.16809162017119 36.525390625 32.5625 C 35.79626038190592 32.28692241715696 34.95262474004659 32.3297923286255 34.224609375 32.75 C 33.49558048445572 33.17111984432248 33.03933425152411 33.88000989414677 32.9140625 34.650390625 C 32.20530411941099 34.84650780881806 31.45869155125142 34.953125 30.6875 34.953125 C 29.36120053362119 34.953125 28.1072956791983 34.64295204068606 26.994140625 34.091796875 L 28.328125 31.703125 C 29.04549834732001 32.03687894641492 29.8440440807577 32.224609375 30.6875 32.224609375 C 33.6145616375531 32.22460937500001 36.01612244900388 29.98133663069628 36.267578125 27.119140625 z M 35.703125 33.169921875 C 36.3170660907308 33.21326394682348 36.89955267497881 33.54977151532513 37.23046875 34.123046875 C 37.76003582258359 35.04028745047978 37.44653745047982 36.21272177996615 36.529296875 36.7421875 C 35.6119549469704 37.27175457258361 34.43982467513338 36.95825620047977 33.91015625 36.041015625 C 33.38079188251587 35.12407910716956 33.6940875495203 33.95144207258361 34.611328125 33.421875 C 34.95521732639261 33.22332535498731 35.33476034556151 33.14391663190591 35.703125 33.169921875 z "
     id="path4165" />
</svg>
