<svg xmlns="http://www.w3.org/2000/svg" fill="#8BC34A" viewBox="0 0 48 48"><path d="m8 8c-2.21 0-3.98 1.79-3.98 4l-.02 24c0 2.21 1.79 4 4 4h32c2.21 0 4-1.79 4-4v-20c0-2.21-1.79-4-4-4h-16l-4-4h-12m19.13 9h4c.25 0 .455.185.5.42l.375 2.65c.61.255 1.174.589 1.689.984l2.49-1c.225-.09.484 0 .609.215l2 3.465c.125.22.071.489-.119.639l-2.115 1.656c.04.32.07.645.07.975 0 .33-.03.655-.07.975l2.109 1.656c.19.155.246.424.121.639l-2 3.465c-.125.215-.384.3-.609.215l-2.49-1c-.515.4-1.081.729-1.691.984l-.375 2.65c-.04.235-.244.42-.494.42h-4c-.25 0-.456-.185-.496-.42l-.375-2.65c-.61-.255-1.174-.589-1.689-.984l-2.49 1c-.225.09-.484 0-.609-.215l-2-3.465c-.125-.22-.071-.489.119-.639l2.111-1.656c-.04-.32-.07-.645-.07-.975 0-.33.03-.655.07-.975l-2.111-1.656c-.19-.155-.244-.424-.119-.639l2-3.465c.125-.215.384-.3.609-.215l2.49 1c.515-.4 1.079-.729 1.689-.984l.375-2.65c.04-.235.246-.42.496-.42m2 6.5c-1.935 0-3.5 1.565-3.5 3.5 0 1.935 1.565 3.5 3.5 3.5 1.935 0 3.5-1.565 3.5-3.5 0-1.935-1.565-3.5-3.5-3.5"/></svg>