<svg xmlns="http://www.w3.org/2000/svg" fill="#8BC34A" viewBox="0 0 48 48"><path d="m8 8c-2.21 0-3.98 1.79-3.98 4l-.02 24c0 2.21 1.79 4 4 4h32c2.21 0 4-1.79 4-4v-20c0-2.21-1.79-4-4-4h-16l-4-4h-12m26.25195 8a.399716 .398548 0 0 0 .050781 .001953c.056-.003.043-.001.059.01.015.011.053.049.113.121.088.106.116.161.133.252a.399716 .398548 0 0 0 0 .019531c.129 1.976-.217 3.995-.703 5.918a.399716 .398548 0 0 0 -.070313 .167969c-.036.222-.113.377-.234.461-.112.078-.161.092-.193.086-.043-.009-.116-.078-.174-.152a.399716 .398548 0 0 0 -.03125 -.070313c-.311-1.135.077-2.339.197-3.521a.399716 .398548 0 0 0 0 -.056641c.246-1.08.252-2.282.797-3.201-.012.019.008-.006.057-.035m4.466797.933594a.374518 .373424 0 0 0 .001953 0c.08-.01.229.089.244.119.05.103.047.156-.01.293a.374518 .373424 0 0 0 -.001953 .007813c-.82 2.085-1.818 4.23-3.139 6.04a.374518 .373424 0 0 0 -.009766 .013672c-.012.018-.005.041-.014.063-.099.147-.339.231-.471.203-.14-.03-.275-.163-.279-.398.098-1.489 1.026-2.766 1.754-4.053a.374518 .373424 0 0 0 .041016 -.109375c.578-.788 1.01-1.768 1.846-2.174a.374518 .373424 0 0 0 .037109 -.003906m-12.984.602c.136-.025.275-.015.4 0 .417.029.761.216 1 .5.408.478.601 1.186.727 1.926.124.737.16 1.527.176 2.125v.725c0 .017 0 .036 0 .049 0 .033-.016.073 0 .102.018.031.07.031.1.049.023.014.026.022.051.025.046.015.091.036.176.051.286.052.742.073 1.229.148.973.151 2.248.431 3.561.775 1.313.344 2.63.816 3.686 1.5 1.052.681 1.841 1.563 2 2.75.103.736-.459 1.476-1.229 2.15-.769.674-1.774 1.305-2.857 1.898-1.083.593-2.212 1.131-3.109 1.551-.449.21-.848.354-1.152.5-1.551.624-3.297 1.181-5.141 1.551-.073 0-.247.043-.324.049-9.389.811-5.02-10.773-5.02-10.773.001 0 .231-.548.326-.875.019-.074.051-.273.051-.35-.013-.077-.062-.221-.102-.375-.092-.365-.232-.812-.324-1.352-.09-.541-.149-1.16-.025-1.699.123-.531.44-1.039 1-1.35.217-.108.468-.152.678-.1.218.054.444.215.627.375.366.321.696.786.977 1.299.28.511.533 1.056.729 1.5.098.223.153.399.225.551.032.067.056.161.076.199.018.036 0 .037 0 .025.019.031.07.033.1.051-.019-.015.062.034.125.049.092.023.161.056.25.051.045 0 .091-.023.127-.051.016 0-.016-.04 0-.049.029-.035.049-.033.049-.076v-.1c-.038-.132-.115-.326-.225-.725-.127-.461-.244-1.065-.326-1.65-.082-.586-.123-1.159 0-1.674.12-.503.398-.934.902-1.125.143-.055.342-.176.477-.201"/></svg>