<?xml version="1.0" encoding="UTF-8" standalone="no"?>
<svg
   xmlns:dc="http://purl.org/dc/elements/1.1/"
   xmlns:cc="http://creativecommons.org/ns#"
   xmlns:rdf="http://www.w3.org/1999/02/22-rdf-syntax-ns#"
   xmlns:svg="http://www.w3.org/2000/svg"
   xmlns="http://www.w3.org/2000/svg"
   xmlns:sodipodi="http://sodipodi.sourceforge.net/DTD/sodipodi-0.dtd"
   xmlns:inkscape="http://www.inkscape.org/namespaces/inkscape"
   width="40"
   height="40"
   viewBox="0 0 40 40"
   id="svg2"
   version="1.1"
   inkscape:version="0.91 r13725"
   sodipodi:docname="folder-templates.svg"
   style="fill:#4caf50">
  <metadata
     id="metadata10">
    <rdf:RDF>
      <cc:Work
         rdf:about="">
        <dc:format>image/svg+xml</dc:format>
        <dc:type
           rdf:resource="http://purl.org/dc/dcmitype/StillImage" />
        <dc:title />
      </cc:Work>
    </rdf:RDF>
  </metadata>
  <defs
     id="defs8" />
  <sodipodi:namedview
     pagecolor="#ffffff"
     bordercolor="#666666"
     borderopacity="1"
     objecttolerance="10"
     gridtolerance="10"
     guidetolerance="10"
     inkscape:pageopacity="0"
     inkscape:pageshadow="2"
     inkscape:window-width="1366"
     inkscape:window-height="713"
     id="namedview6"
     showgrid="false"
     inkscape:snap-intersection-paths="false"
     inkscape:zoom="2.745955526018534"
     inkscape:cx="-75.09277053503833"
     inkscape:cy="-23.95020974154048"
     inkscape:window-x="0"
     inkscape:window-y="30"
     inkscape:window-maximized="1"
     inkscape:current-layer="svg2"
     fit-margin-top="0"
     fit-margin-left="0"
     fit-margin-right="0"
     fit-margin-bottom="0"
     inkscape:snap-bbox="true"
     inkscape:bbox-nodes="true" />
  <path
     d="M 12 0 C 9.789999999999999 0 8 1.79 8 4 L 8 28 C 8 30.21 9.789999999999999 32 12 32 L 36 32 C 38.21 32 40 30.21 40 28 L 40 4 C 40 1.79 38.21 0 36 0 L 12 0 z M 15 10 L 33 10 C 34.10500000000001 10 35 10.89500000000002 35 12 L 35 20 C 35 21.10500000000001 34.105 22 33 22 L 15 22 C 13.895 21.99999999999998 13 21.10499999999999 13 20 L 13 12 C 13 10.89500000000002 13.895 10 15 10 z M 15 12 L 15 20 L 17 20 L 17 16 L 19 16 L 19 20 L 21 20 L 21 16 L 23 16 L 23 20 L 25 20 L 25 16 L 27 16 L 27 20 L 29 20 L 29 16 L 31 16 L 31 20 L 33 20 L 33 12 L 15 12 z "
     id="path4175" />
  <path
     d="m 0,8 0,28 c 0,2.21 1.79,4 4,4 L 32,40 32,36 4,36 4,8 0,8 Z"
     id="path4219" />
</svg>
