<?xml version="1.0" encoding="UTF-8" standalone="no"?>
<svg
   xmlns:dc="http://purl.org/dc/elements/1.1/"
   xmlns:cc="http://creativecommons.org/ns#"
   xmlns:rdf="http://www.w3.org/1999/02/22-rdf-syntax-ns#"
   xmlns:svg="http://www.w3.org/2000/svg"
   xmlns="http://www.w3.org/2000/svg"
   xmlns:sodipodi="http://sodipodi.sourceforge.net/DTD/sodipodi-0.dtd"
   xmlns:inkscape="http://www.inkscape.org/namespaces/inkscape"
   fill="#00BCD4"
   width="48"
   height="48"
   viewBox="0 0 48 48"
   id="svg2"
   version="1.1"
   inkscape:version="0.91 r13725"
   sodipodi:docname="folder-templates3.svg">
  <metadata
     id="metadata10">
    <rdf:RDF>
      <cc:Work
         rdf:about="">
        <dc:format>image/svg+xml</dc:format>
        <dc:type
           rdf:resource="http://purl.org/dc/dcmitype/StillImage" />
        <dc:title></dc:title>
      </cc:Work>
    </rdf:RDF>
  </metadata>
  <defs
     id="defs8" />
  <sodipodi:namedview
     pagecolor="#ffffff"
     bordercolor="#666666"
     borderopacity="1"
     objecttolerance="10"
     gridtolerance="10"
     guidetolerance="10"
     inkscape:pageopacity="0"
     inkscape:pageshadow="2"
     inkscape:window-width="1366"
     inkscape:window-height="713"
     id="namedview6"
     showgrid="false"
     inkscape:zoom="4"
     inkscape:cx="11.693723"
     inkscape:cy="11.967774"
     inkscape:window-x="0"
     inkscape:window-y="30"
     inkscape:window-maximized="1"
     inkscape:current-layer="svg2"
     inkscape:snap-bbox="true"
     inkscape:bbox-paths="true"
     inkscape:snap-bbox-edge-midpoints="false"
     inkscape:bbox-nodes="true" />
  <path
     d="M 40,12 24,12 20,8 8,8 C 5.79,8 4.02,9.79 4.02,12 L 4,36 c 0,2.21 1.79,4 4,4 l 32,0 c 2.21,0 4,-1.79 4,-4 l 0,-20 c 0,-2.21 -1.79,-4 -4,-4 z"
     id="path3382"
     inkscape:connector-curvature="0" />
  <path
     d="m 79.186441,15.966102 -6,0 0,11 c 0,2.76 -2.24,5 -5,5 -2.76,0 -5,-2.24 -5,-5 0,-2.76 2.24,-5 5,-5 1.13,0 2.16,0.39 3,1.02 l 0,-11.02 8,0 0,4 z"
     id="path3340"
     inkscape:connector-curvature="0"
     style="fill:#ffffff;fill-opacity:1" />
  <path
     style="fill:#ffffff;fill-opacity:1"
     inkscape:connector-curvature="0"
     d="m 73.5,48.5 -12,0 c -1.105,0 -2,0.895 -2,2 l 0,16 c 0,1.105 0.895,2 2,2 l 12,0 c 1.105,0 2,-0.895 2,-2 l 0,-16 c 0,-1.105 -0.895,-2 -2,-2 z m -12,2 5,0 0,8 -2.5,-1.5 -2.5,1.5 0,-8 z"
     id="path3336" />
  <g
     style="fill:#ffffff;fill-opacity:1"
     id="g4235"
     transform="matrix(0.5,0,0,0.5,12,15)">
    <path
       id="path4254"
       d="M 8,8 22,8 22,4 8,4 C 5.79,4 4,5.79 4,8 L 4,22 8,22 8,8 Z"
       inkscape:connector-curvature="0"
       style="fill:#ffffff;fill-opacity:1" />
    <path
       id="path4248"
       d="m 40,4 -14,0 0,4 14,0 0,14 4,0 0,-14 C 44,5.79 42.21,4 40,4 Z"
       inkscape:connector-curvature="0"
       style="fill:#ffffff;fill-opacity:1" />
    <path
       id="path4246"
       d="m 40,40 -14,0 0,4 14,0 c 2.21,0 4,-1.79 4,-4 l 0,-14 -4,0 0,14 z"
       inkscape:connector-curvature="0"
       style="fill:#ffffff;fill-opacity:1" />
    <path
       id="path4"
       d="m 8,26 -4,0 0,14 c 0,2.21 1.79,4 4,4 l 14,0 0,-4 -14,0 0,-14 z"
       inkscape:connector-curvature="0"
       style="fill:#ffffff;fill-opacity:1" />
    <g
       transform="matrix(0.83333333,0,0,0.83333333,4.0000001,4.8333334)"
       id="g4154"
       style="fill:#ffffff;fill-opacity:1">
      <path
         inkscape:connector-curvature="0"
         d="m 10,34 0,4 28,0 0,-4 -28,0 z m 9,-8.4 10,0 1.8,4.4 4.2,0 -9.5,-22 -3,0 -9.5,22 4.2,0 1.8,-4.4 z M 24,11.96 27.74,22 20.26,22 24,11.96 Z"
         id="path4146"
         style="fill:#ffffff;fill-opacity:1" />
    </g>
  </g>
</svg>
