<svg xmlns="http://www.w3.org/2000/svg" viewBox="0 0 48 48"><path d="M42 24A18 18 0 0 1 6 24 18 18 0 1 1 42 24"/><path d="m37.5 24a13.5 13.5 0 0 1 -27 0 13.5 13.5 0 1 1 27 0" fill="#d9d9d9"/><path d="m24.328 16.395c-.341 0-.722.011-1.137.035-.39 0-.738.087-1.055.258-.122 0-.362.011-.703.035-.317 0-.524.011-.621.035-.22.024-.448.057-.691.105-.219.024-.426.122-.621.293l-.773.773c-.073.122-.138.252-.211.398-.049.146-.082.31-.082.48 0 .39.153.727.445 1.02.317.268.664.398 1.055.398.146 0 .31-.011.48-.035.171-.024.334-.057.48-.105h2.52c.22 0 .426.066.621.188.195.122.293.284.293.504 0 .195-.076.348-.223.445-.122.073-.274.127-.469.176-.195.024-.391.058-.586.082-.195 0-.348.022-.445.07-.049.024-.157.067-.328.141-.146.049-.244.093-.293.117-.341.122-.689.187-1.055.211-.366 0-.725.098-1.066.293-.488.293-.944.663-1.383 1.102-.415.415-.763.872-1.031 1.359-.049.049-.103.124-.176.246-.049.122-.082.198-.082.223v1.828c0 0 .055.163.152.48.098.293.174.521.223.691.146.488.417.911.832 1.277.439.341.852.646 1.242.914 0 .024.033.058.082.082.073.024.116.035.141.035.122.049.362.136.703.258.366.122.605.187.727.211h.293.258c.049.024.125.014.223-.035.049-.024.157-.078.328-.176.195-.098.314-.163.363-.188.415-.171.828-.334 1.242-.48.439-.171.896-.246 1.359-.246h.246c.146 0 .244.011.293.035.341.146.701.309 1.066.504.366.171.746.258 1.137.258.293 0 .564-.054.832-.176.293-.122.565-.296.809-.516.244-.22.44-.458.586-.727.146-.268.223-.551.223-.844v-.223c-.024-.098-.079-.283-.152-.551-.073-.268-.116-.453-.141-.551v-.105c0-.268.011-.54.035-.809.049-.268.092-.529.141-.797 0-.024 0-.079 0-.152 0-.098 0-.195 0-.293.024-.122.047-.231.047-.328 0-.098 0-.163 0-.188.049-.171.103-.322.176-.469.073-.171.117-.356.117-.551 0-.268-.033-.54-.082-.809-.024-.268-.057-.529-.105-.797-.098-.756-.228-1.409-.398-1.945-.171-.561-.421-1.039-.738-1.43-.317-.39-.73-.716-1.242-.984-.488-.293-1.096-.542-1.828-.762-.707-.195-1.392-.293-2.051-.293m-1.02 8.52h1.348c.098 0 .185.066.258.188.098.098.163.185.188.258v.363c0 .073 0 .171 0 .293 0 .122-.033.22-.082.293-.049.049-.147.136-.293.258-.122.122-.197.197-.246.246 0 .049-.044.082-.117.082h-.398c-.341 0-.635-.076-.879-.223-.244-.171-.363-.454-.363-.844 0-.146.043-.331.141-.551.098-.244.25-.363.445-.363z"/></svg>