<svg xmlns="http://www.w3.org/2000/svg" viewBox="0 0 48 48"><g transform="matrix(.16016 0 0 .16056-77.64 4.053)"><path d="m737.93 80.09c0 15.674-19.791 34.932-45.844 34.932-26.05 0-59.922-16.08-59.922-31.755 0-15.674 21.12-28.38 47.17-28.38 19.903 0 46.36 18.293 56.46 20.352.792 1.711 1.369 2.925 2.134 4.852" fill="#b2cde9"/><path d="m544.58 57.944c12.381-9.611 35.31-1.245 51.29 19.335 15.975 20.58 17.695 51.07 5.313 60.676-12.381 9.611-34.18-5.292-50.15-25.872-12.204-15.722-4.051-41.19-8.616-50.43.616-1.122 1.382-2.457 2.164-3.709" fill="#2e5c91"/><path d="m735.8 75.23c-7.01-.033-61.07.29-107.67.065-17.371 5.108-31.705 13.259-39.18 29.15-5.336-4.542-40.746-42.22-44.41-46.44 31.39-41.649 74.53-45.559 82.915-45.559 8.387 0 70.64-8.632 108.34 62.78" fill="#527fab"/><path d="m622.88 235.94c-12.498-9.459-14.575-36.939 1.146-57.714 15.722-20.774 41.04-34.948 53.53-25.489 12.498 9.459 7.448 38.967-8.274 59.741-12.01 15.87-35.491 16.885-43.23 23.695-1.239-.046-1.955-.06-3.18-.234" fill="#699dd3"/><path d="m626.06 236.17c3.584-6.02 28.859-52.899 52.691-92.94 4.411-17.561 5.347-33.642-4.558-48.15 6.622-2.294 58.24-13.976 63.737-14.988 19.966 48.18 1.45 87.34-2.805 94.57-4.255 7.228-28.402 65.26-109.06 61.51" fill="#cadef0"/><path d="m542.45 61.61c3.469 6.09 30.723 52.78 53.779 93.27 13.09 12.505 27.685 19.485 45.19 18.03-1.274 6.891-16.629 57.75-18.464 63.03-51.756-6.422-76.67-41.855-80.85-49.12-4.185-7.269-42.73-56.915.348-125.21" fill="#89b7e1"/><path d="m680.07 123.97c0 25.343-20.459 45.887-45.696 45.887-25.24 0-45.696-20.544-45.696-45.887 0-25.343 20.459-45.887 45.696-45.887 25.24 0 45.696 20.544 45.696 45.887z" fill="#3b79bc" stroke="#fff" stroke-width="7.8"/></g></svg>