<svg xmlns="http://www.w3.org/2000/svg" viewBox="0 0 39.66666793823242 44" fill="#E91E63"><path d="m26.444 17c0-2.087-1.691-3.778-3.778-3.778-2.087 0-3.778 1.691-3.778 3.778 0 2.087 1.691 3.778 3.778 3.778 2.087 0 3.778-1.691 3.778-3.778"/><path d="m22.667 0c-9.388 0-17 7.612-17 17h-5.667l7.556 7.556 7.556-7.556h-5.667c0-7.301 5.922-13.222 13.222-13.222 7.301 0 13.222 5.922 13.222 13.222 0 7.301-5.922 13.222-13.222 13.222-2.862 0-5.497-.916-7.669-2.465l-2.673 2.711c2.871 2.21 6.451 3.532 10.342 3.532 9.388 0 17-7.612 17-17 0-9.388-7.612-17-17-17"/><path d="m27.833 44h4v-4h-4v4"/><path d="m19.833 44h4v-4h-4v4"/><path d="m11.833 44h4v-4h-4v4"/></svg>