<svg xmlns="http://www.w3.org/2000/svg" viewBox="0 0 48 48"><g transform="matrix(.20289 0 0 .20289-23.603-54.818)" fill-opacity="1" fill-rule="evenodd"><path transform="translate(4.866 17.03)" d="m143.76 326.77c.538-.09 13.953 6.991 22.97 9.438 16.08 4.109 30.756 16.476 37.85 23.58.526.608 6.093-4.168 11.919-3.824 7.958.482 32.582 7.406 35.872 2.691 1.995-2.768 1.852-6.164 4.341-7.555 1.34-.375-4.981-11.936 1.737-15.64 4.79-2.394 8.849 11.01 10.08 12.511.551.672 3.474.836 3.128-.695-.375-1.663-5.103-14.524.695-16.682 9.417-3.729 7.748 16.456 7.993 17.03.521 1.222 32.797 2.164 34.754 16.682 1.132 7.99-25.858 18.317-28.498 20.16-2.639 1.84-2.419 4.783-1.39 6.604 1.183 1.975 9.05 8.641 7.994 11.816-.723 1.834-15.398-4.888-16.335-3.475-2.137 2.699 10.683 9.455 6.256 14.249-1.755 1.148-21.947-8.454-21.896-8.341-.542.206-28.532 5.113-50.05-1.391-.758-.214-13.808 12.606-15.292 12.165-2.029-.744 2.991-11.15 2.433-13.207-.912-1.146-9.251 4.653-9.731 1.738-.574-3.831 7.318-8.235 6.951-10.774-2.035-14.424.909-22.847 5.908-29.888 1.667-2.592-19.592-18.646-34.983-24.982-15.39-6.336-23.624-11.706-22.709-12.207z" fill="#020202" stroke="#000002" stroke-width="1.25"/><g stroke="#000" stroke-width=".75"><g fill="#fff"><path d="m286.93 392.03c-.169-.59 10.503-7.05 12.05-5.561 2.781 1.01-11.95 6.31-12.05 5.561"/><path d="m292.03 397.9c-.94-.568 6.389-9.114 8.187-8.187 2.625 2.608-8.31 8.39-8.187 8.187z"/></g><path d="m320.92 358.36c-.891-.737-7.878 10.287-6.333 11.431.929.695 6.731-11.04 6.333-11.431z" fill="#020202"/><ellipse transform="matrix(.9253 0 0 .93379 22.03 24.352)" ry="3.398" rx="3.01" cy="374.59" cx="288.86" fill="#fff"/><path transform="translate(-8.03-1.545)" d="m320.92 358.36c-.441-.512-2.781 11.368-1.699 11.894.929.695 2.547-11.276 1.699-11.894z" fill="#020202"/><path transform="translate(-38.31 14.983)" d="m321.37 357.91c-2.771 1.959 1.521 13.05 8.58 6.572-5.546.163-7.396-1.461-8.58-6.572z" fill="#fff"/></g></g></svg>