<?xml version="1.0" encoding="UTF-8" standalone="no"?>
<svg
   xmlns:dc="http://purl.org/dc/elements/1.1/"
   xmlns:cc="http://creativecommons.org/ns#"
   xmlns:rdf="http://www.w3.org/1999/02/22-rdf-syntax-ns#"
   xmlns:svg="http://www.w3.org/2000/svg"
   xmlns="http://www.w3.org/2000/svg"
   xmlns:sodipodi="http://sodipodi.sourceforge.net/DTD/sodipodi-0.dtd"
   xmlns:inkscape="http://www.inkscape.org/namespaces/inkscape"
   fill="#E91E63"
   width="48"
   height="48"
   viewBox="0 0 48 48"
   id="svg2"
   version="1.1"
   inkscape:version="0.91 r13725"
   sodipodi:docname="accessories-text-editor.svg">
  <metadata
     id="metadata10">
    <rdf:RDF>
      <cc:Work
         rdf:about="">
        <dc:format>image/svg+xml</dc:format>
        <dc:type
           rdf:resource="http://purl.org/dc/dcmitype/StillImage" />
      </cc:Work>
    </rdf:RDF>
  </metadata>
  <defs
     id="defs8" />
  <sodipodi:namedview
     pagecolor="#ffffff"
     bordercolor="#666666"
     borderopacity="1"
     objecttolerance="10"
     gridtolerance="10"
     guidetolerance="10"
     inkscape:pageopacity="0"
     inkscape:pageshadow="2"
     inkscape:window-width="1366"
     inkscape:window-height="713"
     id="namedview6"
     showgrid="false"
     inkscape:snap-bbox="true"
     inkscape:bbox-nodes="true"
     inkscape:snap-page="true"
     inkscape:zoom="7.591500246245448"
     inkscape:cx="4.193227430440434"
     inkscape:cy="20.29680192296434"
     inkscape:window-x="0"
     inkscape:window-y="30"
     inkscape:window-maximized="1"
     inkscape:current-layer="svg2" />
  <path
     d="M 4 0 C 1.79 0 0.01953124999999971 1.79 0.01953125 4 L 0 36 C 0 38.21 1.77046875 40 3.98046875 40 L 4.005859375 40 L 4.005859375 37.998046875 L 8.005859375 33.998046875 L 10.00390625 32 L 8 32 L 8 28 L 14.00390625 28 L 18.00390625 24 L 8 24 L 8 20 L 22.00390625 20 L 28.00390625 14 L 18 14 L 18 3 L 28.501953125 13.501953125 L 31.001953125 11.001953125 L 20 0 L 4 0 z M 32 30.005859375 L 22.0078125 40 L 28 40 C 30.21 40 32 38.21 32 36 L 32 30.005859375 z "
     id="path4" />
  <g
     style="fill:#E91E63;fill-opacity:1"
     id="g4148"
     transform="translate(-1.995,6)">
    <path
       id="path4140"
       d="M 6,34.5 6,42 13.5,42 35.63,19.87 28.12999999999999,12.37 6,34.5 Z M 41.41,14.09 c 0.78,-0.78 0.78,-2.05 0,-2.83 L 36.74,6.59 C 35.96,5.81 34.69,5.81 33.91,6.59 l -3.66,3.66 7.5,7.5 3.66,-3.66 z"
       inkscape:connector-curvature="0"
       style="fill:#E91E63;fill-opacity:1" />
  </g>
</svg>
