<svg fill="#CDDC39" height="48" viewBox="0 0 48 48" width="48" xmlns="http://www.w3.org/2000/svg"><path d="m35.124499 10.103528v5.594748c-5.58592.09815-6.95873 5.545665-6.95873 5.545665h4.213109v5.594745h-6.532685c-3.929078 12.121944-12.970693 11.042257-12.970693 11.042257v-5.594744s5.737464 1.064341 8.662908-9.619033c3.659464-13.36393 13.586092-12.563638 13.586092-12.563638zm-25.124499-4.103528c-2.21 0-4 1.79-4 4v28c0 2.21 1.79 4 4 4h28c2.21 0 4-1.79 4-4v-28c0-2.21-1.79-4-4-4z" fill="#d41818"/></svg>