<svg height="24" viewBox="0 0 24 24" width="24" xmlns="http://www.w3.org/2000/svg"><path d="m5 3c-1.108 0-2 .892-2 2v14c0 1.108.892 2 2 2h14c1.108 0 2-.892 2-2v-14c0-1.108-.892-2-2-2z" fill="#CDDC39"/><path d="m11.753906 4.974609c-.03675.009459-.068234.036024-.083984.070313l-5.955078 12.847656c-.037494.076338.025801.179941.111328.181641h2.109375c.046584-.00075.092464-.028933.113281-.070313l1.34961-2.917968h4.316406l.492187 2.882812c.010196.058568.067083.105653.126953.105469h2.490235c.074042.000119.13696-.073945.125-.146485l-2.277344-12.847656c-.010197-.05857-.067083-.105652-.126953-.105469h-2.763672c-.00933-.00103-.018044-.00103-.027344 0zm.830078 2.714844.871094 5.421875h-3.169922z"/></svg>