<?xml version="1.0" encoding="UTF-8" standalone="no"?>
<!-- Created with Inkscape (http://www.inkscape.org/) -->

<svg
   xmlns:dc="http://purl.org/dc/elements/1.1/"
   xmlns:cc="http://creativecommons.org/ns#"
   xmlns:rdf="http://www.w3.org/1999/02/22-rdf-syntax-ns#"
   xmlns:svg="http://www.w3.org/2000/svg"
   xmlns="http://www.w3.org/2000/svg"
   xmlns:sodipodi="http://sodipodi.sourceforge.net/DTD/sodipodi-0.dtd"
   xmlns:inkscape="http://www.inkscape.org/namespaces/inkscape"
   version="1.1"
   width="48"
   height="48"
   id="svg3039"
   inkscape:version="0.91 r13725"
   sodipodi:docname="chromium.svg">
  <sodipodi:namedview
     pagecolor="#ffffff"
     bordercolor="#666666"
     borderopacity="1"
     objecttolerance="10"
     gridtolerance="10"
     guidetolerance="10"
     inkscape:pageopacity="0"
     inkscape:pageshadow="2"
     inkscape:window-width="1366"
     inkscape:window-height="713"
     id="namedview6"
     showgrid="false"
     inkscape:zoom="10.0548098351805"
     inkscape:cx="31.27596766421497"
     inkscape:cy="29.54388249763787"
     inkscape:window-x="0"
     inkscape:window-y="30"
     inkscape:window-maximized="1"
     inkscape:current-layer="svg3039"
     inkscape:snap-bbox="true"
     inkscape:bbox-nodes="true"
     inkscape:snap-page="true" />
  <metadata
     id="metadata3045">
    <rdf:RDF>
      <cc:Work
         rdf:about="">
        <dc:format>image/svg+xml</dc:format>
        <dc:type
           rdf:resource="http://purl.org/dc/dcmitype/StillImage" />
        <dc:title />
      </cc:Work>
    </rdf:RDF>
  </metadata>
  <defs
     id="defs3043" />
  <g
     id="g4394"
     transform="matrix(0.1601581687326015,0,0,0.1605567804458851,-77.64167578601555,4.052917498862513)">
    <path
       style="fill:#b2cde9;fill-opacity:1;fill-rule:nonzero;stroke:none"
       d="m 737.9286637044255,80.09254765548523 c 0,15.673918 -19.79135,34.93151799999997 -45.8439499999999,34.93151799999997 -26.0526000000001,0 -59.92241,-16.08122999999998 -59.92241,-31.75515199999997 0,-15.67392399999999 21.1198099999999,-28.38014999999996 47.17241,-28.38014999999996 19.9025399999997,0 46.36122,18.29322399999997 56.45971,20.35209999999999 0.79179,1.710571 1.3686199999996,2.92508699999999 2.13424,4.85168399999999 z"
       id="path4226"
       sodipodi:nodetypes="cssscc"
       inkscape:connector-curvature="0" />
    <path
       style="fill:#2e5c91;fill-opacity:1;fill-rule:nonzero;stroke:none"
       d="m 544.5781027044255,57.94364865548524 c 12.38148,-9.610993 35.3145139999999,-1.24531800000002 51.2895539999996,19.334679 15.9750270000004,20.57999799999999 17.6949370000002,51.06506799999997 5.31349,60.67605799999996 -12.3814699999997,9.61099 -34.1757099999996,-5.29155 -50.1507399999997,-25.87156 -12.2039199999999,-15.72180999999996 -4.0506200000001,-41.19088999999998 -8.6164600000003,-50.43055299999998 0.6158900000004,-1.12205199999998 1.3816960000004,-2.45660699999999 2.1641560000004,-3.708624 z"
       id="path4228"
       sodipodi:nodetypes="cssscc"
       inkscape:connector-curvature="0" />
    <path
       style="fill:#527fab;fill-opacity:1;fill-rule:nonzero;stroke:none"
       d="m 735.7995537044255,75.23389065548522 c -7.0081,-0.03265 -61.07025,0.289575 -107.6656800000002,0.0654 -17.3709999999998,5.108098 -31.7046269999997,13.25882699999998 -39.181777,29.15494499999998 -5.3363899999998,-4.54236999999999 -40.7457599999998,-42.215609 -44.4067799999998,-46.44068399999998 31.38983,-41.64880500000034 74.528017,-45.559321 82.915257,-45.559321 8.3872399999999,0 70.6440699999996,-8.63185500000009 108.33898,62.77965999999999 z"
       id="path4230"
       sodipodi:nodetypes="ccccsc"
       inkscape:connector-curvature="0" />
    <path
       style="fill:#699dd3;fill-opacity:1;fill-rule:nonzero;stroke:none"
       d="m 622.8806237044251,235.9402756554852 c -12.4983499999997,-9.4585099999999 -14.5752,-36.9392699999999 1.1463500000001,-57.71356 15.7215500000001,-20.77428 41.0358200000002,-34.94753 53.5341699999999,-25.4890399999999 12.4983400000001,9.4585 7.4479200000002,38.96701 -8.27364,59.7412899999999 -12.0102700000001,15.87024 -35.4910999999997,16.88498 -43.22681,23.6950500000001 -1.2389399999997,-0.0455 -1.9552299999998,-0.0605 -3.18007,-0.2337400000001 z"
       id="path4232"
       sodipodi:nodetypes="cssscc"
       inkscape:connector-curvature="0" />
    <path
       style="fill:#cadef0;fill-opacity:1;fill-rule:nonzero;stroke:none"
       d="m 626.0592837044255,236.1731556554852 c 3.5835399999996,-6.02268 28.8585899999998,-52.8991 52.6913099999999,-92.9389 4.4110400000001,-17.5609499999999 5.3466299999999,-33.64185 -4.5584,-48.14993000000091 6.6217300000001,-2.29412000000002 58.23852,-13.97635299999996 63.7368399999998,-14.98768600000001 19.9656,48.18007600000101 1.4499199999998,87.33827600000091 -2.8052199999997,94.56596600000099 -4.2551500000001,7.22768 -28.40179,65.2566600000001 -109.06453,61.51055 z"
       id="path4234"
       sodipodi:nodetypes="ccccsc"
       inkscape:connector-curvature="0" />
    <path
       style="fill:#89b7e1;fill-opacity:1;fill-rule:nonzero;stroke:none"
       d="m 542.4529367044251,61.61464965548523 c 3.4685800000001,6.089612 30.72312,52.78019599999997 53.7785200000002,93.27257599999995 13.0943669999998,12.50527 27.6849970000001,19.48512 45.191737,18.03328 -1.2738000000003,6.89113 -16.6289800000002,57.75037 -18.4638,63.03126 -51.7562370000003,-6.42158 -76.6697770000003,-41.85476 -80.8547570000003,-49.1233 -4.1849699999998,-7.26855 -42.7297501999997,-56.91452 0.3483000000001,-125.21381600000017 z"
       id="path4236"
       sodipodi:nodetypes="ccccsc"
       inkscape:connector-curvature="0" />
    <path
       id="path4238"
       d="m 680.0657201974139,123.9720160394406 c 0,25.3428838781136 -20.4586183323185,45.8873551178672 -45.6956050354505,45.8873551178672 -25.2369789736583,0 -45.6955973059769,-20.5444712397536 -45.6955973059769,-45.8873551178672 0,-25.34288931145045 20.4586183323186,-45.88735977501307 45.695597305977,-45.88735977501307 25.2369867031322,0 45.6956050354504,20.54447046356262 45.6956050354504,45.88735977501307 z"
       style="fill:#3b79bc;fill-opacity:1;stroke:#ffffff;stroke-width:7.7999997139;stroke-miterlimit:4;stroke-opacity:1"
       inkscape:connector-curvature="0" />
  </g>
</svg>
