<svg fill="#CDDC39" height="48" viewBox="0 0 48 48" width="48" xmlns="http://www.w3.org/2000/svg"><path d="m10 6c-2.21 0-4 1.79-4 4v28c0 2.21 1.79 4 4 4h28c2.21 0 4-1.79 4-4v-28c0-2.21-1.79-4-4-4zm13.96875 10a.700611.498501 0 0 1 .640625.253906l7.294922 8.998047a.700611.498501 0 0 1 -.609375.75h-14.591797a.700611.498501 0 0 1 -.703125-.515625.700611.498501 0 0 1 .09375-.234375l7.296875-8.998047a.700611.498501 0 0 1 .515625-.25.700611.498501 0 0 1 .0625-.003906zm-6.96875 12.001953h13.998047c.553923 0 1 .444197 1 .998047v2c0 .55385-.446077 1-1 1h-13.998047c-.553923 0-1-.44615-1-1v-2c0-.55385.446077-.998047 1-.998047z" fill="#CDDC39"/></svg>