<svg fill="#CDDC39" height="48" viewBox="0 0 48 48" width="48" xmlns="http://www.w3.org/2000/svg"><path d="m8 4c-2.21 0-3.980469 1.79-3.980469 4l-.019531 36 8-8h28c2.21 0 4-1.79 4-4v-24c0-2.21-1.79-4-4-4zm16 4a12 12 0 0 1 12 12 12 12 0 0 1 -12 12 12 12 0 0 1 -12-12 12 12 0 0 1 12-12zm0 2a10 10 0 0 0 -10 10 10 10 0 0 0 10 10 10 10 0 0 0 10-10 10 10 0 0 0 -10-10zm-4 4a2 2 0 0 1 2 2 2 2 0 0 1 -2 2 2 2 0 0 1 -2-2 2 2 0 0 1 2-2zm8 0a2 2 0 0 1 2 2 2 2 0 0 1 -2 2 2 2 0 0 1 -2-2 2 2 0 0 1 2-2zm-10.701172 8h13.40625a7 7 0 0 1 -6.705078 5 7 7 0 0 1 -6.701172-5z" fill="#CDDC39"/></svg>