<svg fill="#CDDC39" height="24" viewBox="0 0 34 24" width="34" xmlns="http://www.w3.org/2000/svg"><g fill="#CDDC39"><path d="m12.709091 14.818182c-.9-2.541818-3.316364-4.363637-6.163636-4.363637-3.616364 0-6.545455 2.929091-6.545455 6.545455s2.929091 6.545455 6.545455 6.545455c2.847273 0 5.263636-1.821818 6.163636-4.363636h4.745455v4.363636h4.363636v-4.363636h2.181818v-4.363636h-11.290909zm-6.163636 4.363636c-1.205455 0-2.181818-.976364-2.181818-2.181818 0-1.205455.976364-2.181818 2.181818-2.181818 1.205455 0 2.181818.976364 2.181818 2.181818 0 1.205455-.976364 2.181818-2.181818 2.181818z"/><path d="m22.709091 4.818182c-.9-2.541818-3.316364-4.363637-6.163636-4.363637-3.616364 0-6.545455 2.929091-6.545455 6.545455s2.929091 6.545455 6.545455 6.545455c2.847273 0 5.263636-1.821818 6.163636-4.363636h4.745455v4.363636h4.363636v-4.363636h2.181818v-4.363636h-11.290909zm-6.163636 4.363636c-1.205455 0-2.181818-.976364-2.181818-2.181818 0-1.205455.976364-2.181818 2.181818-2.181818 1.205455 0 2.181818.976364 2.181818 2.181818 0 1.205455-.976364 2.181818-2.181818 2.181818z"/></g></svg>