<svg height="48" width="48" xmlns="http://www.w3.org/2000/svg"><path d="m27.252983 34.588432c.336986 2.573516-1.887976 3.844444-4.066971 2.185388-6.936682-5.281278 11.485235-7.915981 10.270928-15.131202-1.007915-5.989041-19.383866-4.145206-21.476408 5.225875-1.416438 6.338204 5.830441 15.131507 13.392085 15.131507 3.719939 0 8.010654-3.358904 8.813394-7.614003.61309-3.244749-7.214307-1.944597-6.933029.202435zm-9.917504-17.434094c1.899239-.387215 2.003349-8.177778-1.383562-6.780213-3.387519 1.397869-.514155 7.168037 1.383562 6.780213zm-4.495282 3.595434c1.595434-.702283.205479-7.571385-2.507458-5.698021-2.71172 1.873668.912024 6.4 2.507458 5.698021zm10.28067-5.404566c2.243227.136986 4.704414-8.560731.48828-8.013699-4.214612.547032-2.73242 7.876712-.48828 8.013699zm12.435616-9.345206c-7.489193 0-8.894064 10.666971-4.680974 10.666971 4.212481 0 12.170472-10.666971 4.680974-10.666971z" fill="#CDDC39"/></svg>