<svg fill="#CDDC39" height="48" viewBox="0 0 48 48" width="48" xmlns="http://www.w3.org/2000/svg"><path d="m10 6c-.553085 0-1.079476.111704-1.556641.314453-1.429477.607391-2.423828 2.028632-2.423828 3.685547l-.019531 28c0 2.21 1.79 4 4 4h28c2.21 0 4-1.79 4-4v-28c0-2.21-1.79-4-4-4h-2-4-16-4zm0 10h28v22h-28zm7.617188 3-1.617188 1.617188 6.382813 6.382812-6.382813 6.382813 1.617188 1.617187 6.382812-6.382812 6.382813 6.382812 1.617187-1.617187-6.382812-6.382813 6.382812-6.382812-1.617187-1.617188-6.382813 6.382813z" fill="#CDDC39"/></svg>