<svg fill="#CDDC39" height="48" viewBox="0 0 48 48" width="48" xmlns="http://www.w3.org/2000/svg"><path d="m31 4c-5.146592 0-9.823782 1.957523-13.367187 5.148438l6.978515 6.978515c2.283911-5.320646 6.811656-9.453469 12.388672-11.207031-1.89-.6-3.91-.919922-6-.919922zm-22.171875 2-2.828125 2.828125 6.84375 6.84375c-1.172717 2.535438-1.84375 5.348692-1.84375 8.328125 0 11.05 8.95 20 20 20 2.09 0 4.11-.329922 6-.919922-7.519559-2.36435-13.121281-9.054924-13.898437-17.15039l18.253906 18.253906 2.828125-2.828125-20.867188-20.867188-8.375-8.375z" fill="#CDDC39"/></svg>