<svg fill="#CDDC39" height="48" viewBox="0 0 48 48" width="48" xmlns="http://www.w3.org/2000/svg"><path d="m12 4c-2.21 0-3.980469 1.79-3.980469 4l-.019531 32c0 2.21 1.770469 4 3.980469 4h24.019531c2.21 0 4-1.79 4-4v-24l-12-12zm14 3 11 11h-11zm-9.144531 17h14.289062c.473915 0 .855469.226041.855469.507813v2.984375c0 .281771-.381554.507812-.855469.507812h-14.289062c-.473916 0-.855469-.226041-.855469-.507812v-2.984375c0-.281772.381553-.507813.855469-.507813zm0 5h14.289062c.473915 0 .855469.226041.855469.507813v2.984375c0 .281771-.381554.507812-.855469.507812h-14.289062c-.473916 0-.855469-.226041-.855469-.507812v-2.984375c0-.281772.381553-.507813.855469-.507813zm0 5h14.289062c.473915 0 .855469.226041.855469.507813v2.984375c0 .281771-.381554.507812-.855469.507812h-14.289062c-.473916 0-.855469-.226041-.855469-.507812v-2.984375c0-.281772.381553-.507813.855469-.507813z" fill="#8e03a3"/></svg>