<svg fill="#CDDC39" height="48" viewBox="0 0 48 48" width="48" xmlns="http://www.w3.org/2000/svg"><path d="m12 4c-2.21 0-3.980469 1.79-3.980469 4l-.019531 32c0 2.21 1.770469 4 3.980469 4h24.019531c2.21 0 4-1.79 4-4v-24l-12-12zm14 3 11 11h-11zm-3.888672 16.78125h.158203 1.804688 9.990234v1.5h-10.55664l-4.794922 12.71875h-1.455078l-2.421875-6.132812h-1.835938v-1.523438h3.203125l1.591797 4.335938.175781.810546h.058594l.185547-.810546zm2.929688 3.652344h2.216797l2.216796 3.896484 2.246094-3.896484h2.246094l-3.427734 5.224609 3.52539 5.341797h-2.207031l-2.34375-3.994141-2.34375 3.994141h-2.226563l3.525391-5.341797z" fill="#00a50f"/></svg>