<svg fill="#CDDC39" height="48" viewBox="0 0 48 40" width="48" xmlns="http://www.w3.org/2000/svg"><path d="m10 6c-2.21 0-4 1.79-4 4v28c0 2.21 1.79 4 4 4h28c2.21 0 4-1.79 4-4v-13.390625c-.14593.134124-.289619.269989-.439453.398438-3.155278 2.704889-6.882586 4.048827-11.181641 4.048828-4.090016 0-6.97547-1.36919-8.644531-4.113282-1.669074-2.744085-1.869118-6.442457-.619141-11.107421.809519-3.021164 2.006519-5.634827 3.587891-7.835938zm18.78125 0c-1.384858 2.131358-2.488078 4.737653-3.3125 7.814453-1.158945 4.32522-1.26623 7.724289-.324219 10.207031.95856 2.469683 2.842904 3.703126 5.652344 3.703125 2.953145.000002 5.569265-1.21856 7.857422-3.662109 1.293338-1.381196 2.404178-3.081864 3.345703-5.097656v-8.964844c0-2.21-1.79-4-4-4z" fill="#2a85be" transform="translate(0 -4)"/></svg>