<svg fill="#CDDC39" height="48" viewBox="0 0 48 48" width="48" xmlns="http://www.w3.org/2000/svg"><path d="m17.998333 26.66537c-2.206973 0-4.000556 1.793582-4.000556 4.000556 0 1.746909-1.540214 2.667037-2.667037 2.667037 1.226837 1.626893 3.327129 2.667037 5.334075 2.667037 2.947076 0 5.334074-2.386998 5.334074-5.334074 0-2.206973-1.793582-4.000556-4.000556-4.000556zm18.275872-12.495069-1.780247-1.780247c-.520072-.520072-1.366857-.520072-1.886929 0l-11.941659 11.941659 3.667176 3.667176 11.941659-11.941659c.52674-.52674.52674-1.366857 0-1.886929zm-30.274205-8.170301c-2.21 0-4 1.79-4 4v28c0 2.21 1.79 4 4 4h36c2.21 0 4-1.79 4-4v-28c0-2.21-1.79-4-4-4zm0 3.970703h36v28.058594h-36z" fill="#CDDC39"/></svg>