<svg fill="#CDDC39" height="48" viewBox="0 0 48 48" width="48" xmlns="http://www.w3.org/2000/svg"><g fill="#CDDC39"><path d="m6 24c-.276542 0-.539738-.055852-.77832-.157227-.714739-.303695-1.211914-1.014315-1.211914-1.842773l-.009766-14c0-1.105.895-2 2-2h14c1.105 0 2 .895 2 2v14c0 1.105-.895 2-2 2h-1-2-8-2zm0-5h14v-11h-14z"/><path d="m26 24c-.276542 0-.539738-.055852-.77832-.157227-.714739-.303696-1.211914-1.014316-1.211914-1.842773l-.009766-14c0-1.105.895-2 2-2h14c1.105 0 2 .895 2 2v14c0 1.105-.895 2-2 2h-1-2-8-2zm0-5h14v-11h-14z"/><path d="m7.333333 44c-.460904 0-.899563-.055852-1.2972-.157227-1.191231-.303695-2.019857-1.014315-2.019857-1.842773l-.016276-14c0-1.105 1.491667-2 3.333333-2h23.333334c1.841666 0 3.333333.895 3.333333 2v14c0 1.105-1.491667 2-3.333333 2h-1.666667-3.333333-13.333333-3.333333-1.666667zm0-5h23.333333v-11h-23.333333z"/></g></svg>