<svg fill="#CDDC39" height="48" viewBox="0 0 48 48" width="48" xmlns="http://www.w3.org/2000/svg"><g fill="#CDDC39"><path d="m44 11.58-9.19-7.71-2.57 3.06 9.19 7.71z"/><path d="m15.76 6.92-2.57-3.06-9.19 7.71 2.57 3.06z"/><path d="m23.990234 8.14c-9.95 0-17.990234 8.06-17.990234 18s8.040234 18 17.990234 18 18.009766-8.06 18.009766-18-8.059766-18-18.009766-18zm.009766 4c7.73 0 14 6.27 14 14s-6.26 14-14 14c-7.73 0-14-6.27-14-14s6.27-14 14-14z"/><text font-family="Roboto" font-size="15" letter-spacing="0" text-anchor="middle" word-spacing="0" x="23.939575" y="33.849998"><tspan font-family="Roboto" font-size="22.5" font-weight="bold" text-anchor="middle" x="23.939575" y="33.849998">Z</tspan></text></g></svg>