<svg height="48" viewBox="0 0 36 35.999999" width="48" xmlns="http://www.w3.org/2000/svg"><path d="m11.622519 12h18.75496c.621891 0 1.12252.340285 1.12252.762857v4.474285c0 .422572-.500629.762857-1.12252.762857h-18.75496c-.621891 0-1.12252-.340285-1.12252-.762857v-4.474285c0-.422572.500629-.762857 1.12252-.762857m0-7.5h18.75496c.621891 0 1.12252.340286 1.12252.762857v4.474285c0 .422572-.500629.762857-1.12252.762857h-18.75496c-.621891 0-1.12252-.340285-1.12252-.762857v-4.474285c0-.422571.500629-.762857 1.12252-.762857m0 15h18.75496c.621891 0 1.12252.340285 1.12252.762857v4.474285c0 .422572-.500629.762857-1.12252.762857h-18.75496c-.621891 0-1.12252-.340285-1.12252-.762857v-4.474285c0-.422572.500629-.762857 1.12252-.762857m-7.122519-11.999999v20.999999c0 1.657498 1.3425 2.999998 3 2.999998h20.999999v-2.999998h-20.999999v-20.999999z" fill="#CDDC39"/></svg>