<svg fill="#CDDC39" height="44" viewBox="0 0 39.666668 44" width="39.666668" xmlns="http://www.w3.org/2000/svg"><g fill="#CDDC39"><path d="m26.444445 17c0-2.087222-1.690555-3.777778-3.777778-3.777778-2.087222 0-3.777778 1.690556-3.777778 3.777778s1.690556 3.777778 3.777778 3.777778c2.087223 0 3.777778-1.690556 3.777778-3.777778z"/><path d="m22.666667 0c-9.387778 0-17 7.612222-17 17h-5.666667l7.555556 7.555556 7.555557-7.555556h-5.666667c0-7.300555 5.921667-13.222222 13.222222-13.222222 7.300556 0 13.222223 5.921667 13.222223 13.222222 0 7.300556-5.921667 13.222222-13.222223 13.222222-2.861666 0-5.496666-.916111-7.668889-2.465l-2.672777 2.710556c2.871111 2.21 6.450555 3.532222 10.341666 3.532222 9.387778 0 17-7.612222 17-17-.000001-9.387778-7.612223-17-17.000001-17z"/><path d="m27.833334 44h4v-4h-4z"/><path d="m19.833334 44h4v-4h-4z"/><path d="m11.833334 44h4v-4h-4z"/></g></svg>