<svg fill="#CDDC39" height="48" viewBox="0 0 48 48" width="48" xmlns="http://www.w3.org/2000/svg"><path d="m20 5-4 4v4h-8c-2.21 0-3.980469 1.79-3.980469 4l-.019531 22c0 2.21 1.79 4 4 4h32c2.21 0 4-1.79 4-4v-22c0-2.21-1.79-4-4-4h-8v-4l-4-4zm0 4h8v4h-8zm5.201172 9c-.237705.054032-.565004.017547-.789063.099609l-.132812-.019531c.303908-.039279.612066-.054076.921875-.080078zm-1.353516.142578c-.158961.088886-.31584.159112-.464843.263672.603685-.144015.576191.057201 1.191406-.023437-.216317.031758-.47747.117661-.435547.15039.690062.080034.794613-.212809 1.433594 0l-.039063-.189453c.887381.320505 1.072645.26579 2.03711.777344.338945.016412.373027-.208199.884765 0 .089992.158039-.020678.186563.607422.560547.070076-.027846-.124761-.204261-.279297-.345703 1.263024.674571 2.636077 2.114104 3.054688 3.654296-.391872-.722518-.041162.369114-.175782.3125.174637.471168.317734.958236.40625 1.460938-.115994-.412894-.369178-1.408481-.8125-2.050781-.036144.414553-.571771-.287277-.279296.625.222951.323086.045541-.326206.320312.248047.004241.272926.109435.54271.169922.898437-.094418-.01549-.210143-.392223-.279297-.287109.09534.447378.252751.680543.3125.714843-.030612.074871-.109886-.069901-.115234.234375.036513.700574.196245.404122.271484.4375-.076346.344663-.384745.750688-.232422 1.34375-.043705-.179615-.1304-.359086-.195312-.529296-.060118.506389.112738.605033-.121094 1.21875.168551-.55323.150964-1.052971-.007813-.8125.070261.786324-.621745 1.389549-.546875 1.886718l-.203125-.277343c-.5453.790565-.012148.436192-.382812 1.035156.136094-.235307-.071749-.096809.105469-.363281-.117654.006823-.52593.500754-.898438.791015-1.465137 1.174507-3.212997 1.327839-4.90625.695313-.065834.054032.301367.341054.572266.480468.644697.238442 1.37515.249723 1.949219.228516-1.24108.51893-3.609691-.528331-4.384766-1.916016.175374.038173.775018.976584 1.224609 1.128907-.265735-.212994-.471614-.484844-.662109-.763672.359046.412709.796553.749336 1.273437.972656-.030612-.115994.132153-.138693-.09375-.291016-1.436-1.100005-2.284737-2.034798-1.990234-4.199218.218895-.165232.276964-1.068503.779297-1.384766.30612-.676416 1.22457-1.298963 2.205078-1.314453 1.000977-.055139 1.845204.53477 2.269531 1.089844-.772493-.719937-2.036805-.940117-3.115234-.40625-1.102772.496431-1.757449 1.710745-1.662109 2.919922.040939-.060303.077924-.022688.097656-.171875-.033747 2.35012 2.531118 4.072249 4.378906 3.203125l.023438.048828c.749073-.204327.650832-.372621 1.140625-.708985-.038173.078928-.328196.279331-.154297.283203.238442-.063252.981786-.754779 1.347656-1.080078.167813-.361997-.089854-.19722.144531-.652343l.28711-.142579c.158929-.45966.335577-.71949.316406-1.253906l-.167969.351563c.246003-.744832.104003-1.554733.138672-2.25586l-.068359-.019531c-.060118-1.763881-1.584334-3.639252-2.941407-4.273437-1.169528-.540322-2.970861-.631603-3.802734-.22461.114518-.101425.570979-.144466.433594-.222656-1.302488.129456-1.01137.453945-2.009766.708984-.273849.264444.800228-.211959.222656.13086-.535526.147712-.786562-.092662-1.580078.728515.070629.114334.503837-.338598.142578.115235-.745754-.092574-2.355369 1.706352-2.697265 2.302734l.179687.03125c-.293581.735427-.679865 1.203976-.732422 1.644531-.075792 1.082671-.455071 3.058569.070313 3.666016l-.050781.507812c.072104.14384.127173.290794.216796.425782l-.117187.007812c.552677 1.743228.592555.033213 1.322266 1.84375-.105852-.035591-.211068-.075004-.365235-.283203-.018441.158777.222748.635304.511719 1.007813l-.121094.138671c.160806.292106.308354.357006.419922.458985-.600439-.327697.557549 1.080334.662109 1.259765l.091797-.164062c-.013277.236229.168716.541623.511719.964844l.287109-.011719c.117654.232541.547654.652143.808594.671875l-.173828.226562c.655024.207462.317913.275634 1.123047.560547l-.162109-.287109c.410865.35628.537586.668479 1.117187.941406.803659.280119.909509.168437 1.734375.404297-.699098-.020285-1.521542-.01325-2.074219-.210937-3.770631-1.021632-7.219069-5.444336-6.966797-10-.058089-.922419.091114-2.075098-.0625-2.304688.215576-.701864.466418-1.557676.96875-2.576172-.036328-.068232.082483.19888.337891-.236328.154904-.340236.281272-.714275.476563-1.044922l.099609-.023437c.100503-.583474 1.361054-1.479174 1.736328-1.929688l.027344.173828c.818964-.767883 2.277878-1.283783 3.099609-1.65039-.21576.238811.48252-.024076.986328-.054688zm.498047.115235c.590665.016781.546962.055241.353516.097656l-.007813.015625-.115234.011719.123047-.027344c.028768-.04223-.176667-.065938-.353516-.097656zm-7.800781 4.023437c-.00332.198056.333374-.194584.091797.349609-.450698.315157-.040162.128382-.091797-.349609zm-.367188 1.519531c-.039648.18441-.058286.374699-.162109.69336.030243-.249507-.124833-.326568.162109-.69336zm11.810547 2.214844c.040985-.001037.068837.100062.048828.398438-.059748.240286-.108144-.147601-.169921-.179688.026462-.113873.080108-.217713.121093-.21875zm3.623047 1.005859c-.088517.680104-.298594 1.351128-.625 1.964844.295425-.581629.486918-1.209748.576172-1.84375zm-3.83789.222657c-.050713.308333-.19526.606532-.392579.878906.024158-.234201-.550854.102.115235-.736328-.057905.236229-.61748.856824.001953.466797.112306-.20027.231132-.389559.275391-.609375zm-1.351563 1.28125c-.096631.091836-.204721.185985-.324219.279297-.432626-.066573-.825525-.233672-.49414-.238282.276246.025264.548936.025003.818359-.041015zm-4.181641.041015c.076346.152876.14451.306167.259766.433594l.101563.300781c-.13923-.234754-.288302-.465689-.361329-.734375zm-.253906.455078c.27348.527966.421009.689498.621094 1.080079-.27809-.231251-.450181-.551863-.667969-.847657z" fill="#CDDC39"/></svg>