<svg fill="#CDDC39" height="48" viewBox="0 0 48 48" width="48" xmlns="http://www.w3.org/2000/svg"><path d="m20 5-4 4v4h-8c-2.21 0-3.980469 1.79-3.980469 4l-.019531 22c0 2.21 1.79 4 4 4h32c2.21 0 4-1.79 4-4v-22c0-2.21-1.79-4-4-4h-8v-4l-4-4zm0 4h8v4h-8z" fill="#294172"/><g transform="matrix(.08668179 0 0 .09070529 -6.935791 32.722155)"><path d="m303.974441-52.107769h47.844751v47.84478c0 26.41029-21.43445 47.84473-47.844751 47.84473-26.41031 0-47.844759-21.43444-47.844759-47.84473 0-26.41031 21.434449-47.84478 47.844759-47.84478z" fill="none" stroke="#3c6eb4" stroke-width="29.209999"/><path d="m399.433373-52.014689h-47.844751v-47.84478c0-26.41029 21.43445-47.84473 47.844751-47.84473 26.41031 0 47.844759 21.43444 47.844759 47.84473 0 26.41031-21.434449 47.84478-47.844759 47.84478z" fill="none" stroke="#3c6eb4" stroke-width="29.209999"/><path d="m366.455552-66.676099v62.34618c0 34.50402-27.97537 62.48-62.48061 62.48-5.23494 0-8.95649-.59101-13.80235-1.8577-7.06595-1.84912-12.84046-7.64253-12.84286-14.38111 0-8.14513 5.91236-14.0699 14.75029-14.0699 4.20637 0 5.73267.80765 11.89492.80765 18.19161 0 32.94764-14.73519 32.97955-32.92679v-28.65657c0-2.56775-2.08663-4.64825-4.65867-4.64825l-21.66521-.00428c-8.07212 0-14.59401-6.43843-14.59401-14.53266-.00431-8.14456 6.5888-14.55657 14.74808-14.55657" fill="#fff"/><path d="m336.952272-37.446349v-62.34618c0-34.50402 27.97537-62.48 62.48061-62.48 5.23494 0 8.95649.59101 13.80235 1.8577 7.06595 1.84912 12.84046 7.64253 12.84286 14.38111 0 8.14513-5.91236 14.0699-14.75029 14.0699-4.20637 0-5.73267-.80765-11.89492-.80765-18.19161 0-32.94764 14.73519-32.97955 32.92679v28.65657c0 2.56775 2.08663 4.64825 4.65867 4.64825l21.66521.00428c8.07212 0 14.59401 6.43843 14.59401 14.53266.00431 8.14456-6.5888 14.55657-14.74808 14.55657" fill="#fff"/><path d="m470.502712 49.378921s.00004-5.53139.00004-5.53139l-2.52853 5.79776s-2.46141-5.79776-2.46141-5.79776l.00047 5.53139h-1.4183v-8.73492h1.48704s2.43397 5.58051 2.43397 5.58051l2.39711-5.58051h1.50544v8.73492zm-10.33302-7.27184v7.27184h-1.48213v-7.27184h-2.48488v-1.46308h6.44946v1.46308" fill="#3c6eb4"/></g></svg>