<svg fill="#CDDC39" height="48" viewBox="0 0 48 48" width="48" xmlns="http://www.w3.org/2000/svg"><path d="m20 5-4 4v4h-8c-2.21 0-3.980469 1.79-3.980469 4l-.019531 22c0 2.21 1.79 4 4 4h32c2.21 0 4-1.79 4-4v-22c0-2.21-1.79-4-4-4h-8v-4l-4-4zm0 4h8v4h-8zm4 9c5.522275 0 10 4.477161 10 10 0 5.522959-4.477725 10-10 10-5.522394 0-10-4.477041-10-10 0-5.522839 4.477486-10 10-10zm.048828 1.384766c-3.303825 0-5.191768 1.352607-6.423828 2.876953.94407.258939 1.601897.474628 1.814453.544922.00263-.14274.025391-1.429688.025391-1.429688l.019531-.039062.046875-.015625c.290023.042319 6.48669.957875 9.095703 2.478515.32266.189482.479804.389325.679688.59375.720754.745377 1.678398 3.849103 1.779297 4.490235l-.039063.066406c-.037299.013748-.129216.07715-.248047.158203-.608738.425588-2.030929 1.421872-3.855469 1.259766-1.641033-.146207-3.782641-1.088385-6.365234-2.789063.11369.268144.650573 1.543704.740234 1.757813l.03711.042968c.374185.193069 3.962 2.023627 5.742187 1.986329 1.436727-.028692 2.970106-.729571 3.583985-1.097657l.195312-.037109c.054634.042678.046153.124183.029297.201172-.037658.175973-.123062.498525-.181641.648437l-.046875.125c-.069816.185537-.138985.365662-.269531.472657-.361991.329471-.93949.58967-1.84375.986328-1.39883.611364-3.667004.996568-5.773437.984375-.753869-.016737-1.484224-.100905-2.125-.173828-1.337143-.152423-2.421407-.275257-3.070313.228515 1.578271 1.783763 3.883802 2.910156 6.453125 2.910156 4.757886 0 8.617188-3.856899 8.617188-8.615234 0-4.757618-3.858824-8.615234-8.617188-8.615234zm2.275391 4.560547c-.659546.009922-1.279145.256538-1.763672.710937-.519077.480699-.818765 1.13615-.84375 1.84375-.047341 1.458475 1.101465 2.689627 2.560547 2.744141.710473.022953 1.381034-.228127 1.898437-.712891.515969-.482253.813902-1.135273.839844-1.841797.049971-1.460507-1.097121-2.691659-2.558594-2.74414-.044352-.001555-.088938-.000718-.132812 0zm-.070313.78125c.060731-.003706.120074-.002272.181641 0 1.018906.035744 1.819227.888984 1.785156 1.910156-.015422.491339-.225381.950983-.585937 1.289062-.361513.33545-.831125.509323-1.326172.494141-1.018668-.037777-1.815082-.896518-1.78125-1.916016.015541-.49349.227533-.94875.585937-1.285156.314531-.294803.714915-.466246 1.140625-.492187zm.486328.923828c-.454162 0-.822265.246015-.822265.548828 0 .3009.368103.548828.822265.548828.452728 0 .81836-.24745.81836-.548828 0-.302813-.365632-.548828-.81836-.548828z" fill="#CDDC39"/></svg>