<svg fill="#CDDC39" height="48" viewBox="0 0 48 48" width="48" xmlns="http://www.w3.org/2000/svg"><path d="m20 5-4 4v4h-8c-2.21 0-3.980469 1.79-3.980469 4l-.019531 22c0 2.21 1.79 4 4 4h32c2.21 0 4-1.79 4-4v-22c0-2.21-1.79-4-4-4h-8v-4l-4-4zm0 4h8v4h-8zm8.4375 9.003906c.368402-.025099.747842.052807 1.091797.244141.917416.510419 1.232836 1.639434.703125 2.523437-.529407.883613-1.703779 1.186298-2.621094.675782-.917112-.510126-1.23068-1.639825-.701172-2.523438.33107-.552502.91334-.878089 1.527344-.919922zm-4.75 1.966797c.771254 0 1.515895.103979 2.224609.292969.125282.742383.583514 1.426509 1.3125 1.832031.728075.405132 1.569639.445152 2.298829.179688 1.418341 1.343634 2.342056 3.171215 2.476562 5.207031l-2.734375.039062c-.251679-2.757396-2.65113-4.919921-5.578125-4.919921-.843423 0-1.643998.180328-2.361328.501953l-1.332031-2.300782c1.113144-.53132 2.366952-.832031 3.693359-.832031zm-4.623047 1.34961 1.402344 2.263671c-1.440438.976887-2.382813 2.589505-2.382813 4.416016 0 1.826804.942375 3.439324 2.382813 4.416016l-1.402344 2.263672c-1.678534-1.080515-2.926751-2.732948-3.445312-4.667969.605934-.475747.992187-1.1996.992187-2.011719 0-.812315-.386354-1.535875-.992187-2.011719.518663-1.934826 1.766778-3.587357 3.445312-4.667968zm-5.146484 4.832031c1.05922 0 1.917969.826622 1.917969 1.847656 0 1.020545-.858851 1.847656-1.917969 1.847656-1.059524 0-1.917969-.827111-1.917969-1.847656 0-1.020936.858445-1.847656 1.917969-1.847656zm15.347656 2.326172 2.734375.039062c-.134303 2.035816-1.05637 3.863299-2.474609 5.207031-.72919-.265562-1.572707-.225249-2.300782.179688-.729088.405815-1.187218 1.089648-1.3125 1.832031-.708815.18899-1.453355.292969-2.224609.292969-1.326407 0-2.580114-.300906-3.693359-.832031l1.332031-2.300782c.717431.321625 1.517804.501954 2.361328.501954 2.926995-.000001 5.326649-2.162136 5.578125-4.919922zm-.560547 5.830078c.613991.041827 1.196401.367663 1.527344.919922.52961.883906.213987 2.013213-.703125 2.523437-.917416.510322-2.089429.208223-2.619141-.675781-.529407-.883613-.214291-2.013116.703125-2.523438.343917-.191334.723403-.269236 1.091797-.24414z" fill="#CDDC39"/></svg>