<svg fill="#CDDC39" height="48" viewBox="0 0 48 48" width="48" xmlns="http://www.w3.org/2000/svg"><g fill="#CDDC39"><path d="m20 5-4 4v4h-8c-2.21 0-3.980469 1.79-3.980469 4l-.019531 22c0 2.21 1.79 4 4 4h32c2.21 0 4-1.79 4-4v-22c0-2.21-1.79-4-4-4h-8v-4l-4-4zm0 4h8v4h-8zm-13.859375 9.746094c.109157-.018261 2.830657 1.419533 4.660156 1.916015 3.262341.833694 6.240354 3.341841 7.679688 4.783204.106722.123359 1.235905-.845187 2.417969-.775391 1.614634.097795 6.611774 1.503522 7.279296.546875.404775-.561612.375855-1.250977.88086-1.533203.271878-.076086-1.011483-2.422307.351562-3.173828.971865-.48573 1.795362 2.234315 2.044922 2.539062.111795.136345.704967.170007.634766-.140625-.076086-.337413-1.035758-2.946919.140625-3.384765 1.910657-.756594 1.573337 3.338616 1.623047 3.455078.105708.247937 6.653716.439143 7.050781 3.384765.229676 1.621127-5.245609 3.716518-5.78125 4.089844-.535439.373326-.491982.970373-.283203 1.339844.240024.400716 1.836492 1.752294 1.623047 2.396484-.146693.372109-3.124341-.991768-3.314453-.705078-.433586.547612 2.167745 1.917949 1.269531 2.890625-.35608.232923-4.453707-1.714333-4.44336-1.691406-.109968.041796-5.789224 1.036422-10.154296-.283203-.153795-.04342-2.802421 2.558226-3.103516 2.46875-.411673-.150954.607356-2.262334.494141-2.679688-.18504-.232517-1.877221.944953-1.97461.353516-.116461-.777289 1.484619-1.672351 1.410156-2.1875-.41289-2.92655.18495-4.63392 1.199219-6.0625.338225-.525903-3.974907-3.784773-7.097656-5.070313-3.122546-1.285539-4.79307-2.374912-4.607422-2.476562zm33.328125 2.640625c.172055.125389-.157214 2.553121-.345703 2.412109-.219532-.106722.256227-2.515991.345703-2.412109zm1.628906.3125c.080752.079737-1.096667 2.461324-1.285156 2.320312-.313472-.232111 1.104377-2.469845 1.285156-2.320312z"/><g fill-rule="evenodd" stroke="#CDDC39"><path d="m34.203475 28.531789c-.034289-.119708 2.131001-1.429392 2.444473-1.128296.56425.204518-2.424589 1.280264-2.444473 1.128296z" stroke-width=".121737pt"/><path d="m35.237629 29.72278c-.190721-.115244 1.296293-1.84918 1.661097-1.661097.532598.529149-1.686053 1.702285-1.661097 1.661097z" stroke-width=".121737pt"/><ellipse cx="34.686535" cy="24.901077" rx=".565475" ry=".643824" stroke-width=".113158pt"/><path d="m33.41728 24.648389c-.562221.39747.308603 2.646759 1.740835 1.333423-1.125253.033072-1.500608-.296429-1.740835-1.333423z" stroke-width=".121737pt"/></g></g></svg>