<svg fill="#CDDC39" height="48" viewBox="0 0 48 48" width="48" xmlns="http://www.w3.org/2000/svg"><path d="m20 5-4 4v4h-8c-2.21 0-3.980469 1.79-3.980469 4l-.019531 22c0 2.21 1.79 4 4 4h32c2.21 0 4-1.79 4-4v-22c0-2.21-1.79-4-4-4h-8v-4l-4-4zm0 4h8v4h-8zm-5.625 11.75 9.916016.046875 3.101562.005859c3.712075 0 6.927735 2.808833 6.927735 6.517579v11.310546h-10.66211c-3.708742 0-6.927734-2.812159-6.927734-6.517578l-.003906-4.5v-1.146484h-2.351563zm1.515625 1.521484v2.683594h.939453c.638688 0 1.408203.601647 1.408203 1.482422l.00586 5.671875c0 2.764863 2.425728 5.005859 5.414062 5.005859h7.376953c.945888 0 1.773438-.598925 1.773438-1.519531v-8.27539c0-2.764862-2.424343-5.00586-5.416016-5.00586h-3.105469v-.007812zm3.802734 1.681641h1.541016v7.916016c0 1.058879.723789 1.882812 1.570313 1.882812l5.261718.019531c1.096961 0 1.951172-.755732 1.951172-1.652343l-.009765-4.203125c0-.272763-.08845-.48491-.283204-.681641-.195389-.19736-.403211-.287109-.671875-.287109-.274297 0-.478009.0893-.673828.287109-.194756.196731-.283203.408878-.283203.681641v3.597656h-1.630859v-3.597656c0-.272763-.090402-.48491-.285156-.681641-.195821-.197809-.399537-.287109-.673829-.287109-.268662 0-.474528.089749-.669921.287109-.194753.196731-.285157.408878-.285157.681641v3.597656h-1.630859v-3.597656c-.000002-.711645.263628-1.342546.763672-1.847657.500292-.50538 1.121495-.765625 1.822265-.765625.687579 0 1.286221.257003 1.771485.72461.486687-.468379 1.087528-.72461 1.77539-.72461.700768 0 1.323932.260245 1.824219.765625.50005.505111.763672 1.136012.763672 1.847657l.005859 4.490234c-.077095.75183-.394849 1.419035-.9375 1.976563h-.003906c-.638045.649569-1.4279.984375-2.328125.984375h-5.859375c-.717006-.07668-1.354136-.415691-1.884765-.939454-.62082-.618417-.939454-1.383764-.939454-2.255859z" fill="#CDDC39"/></svg>