<svg fill="#CDDC39" height="48" viewBox="0 0 48 48" width="48" xmlns="http://www.w3.org/2000/svg"><path d="m12 6c-2.216 0-4 1.784-4 4v12c0 2.216 1.784 4 4 4h8v12 2c0 1.108.892 2 2 2h4c1.108 0 2-.892 2-2v-4-10h8c2.216 0 4-1.784 4-4v-12c0-2.216-1.784-4-4-4zm24 4.369141-1.058594 1.111328c-1.106461 1.162726-1.954974 2.653717-3.279297 4.40039-.789681 1.041524-2.091857 1.860159-3.722656 2.501954 0 0 .171825 1.843108-.394531 3.273437-.607008 1.532989-2.076835 2.448124-2.580078 3.541016l-.371094.802734-.697266-.591797c-.61628-.521886-2.116852-1.432603-3.11914-2.9375-.631879-.948739-.841828-2.242802-.75-3.685547-1.696019-.479612-3.071436-1.191355-3.947266-2.189453-1.466871-1.671652-2.125576-3.62963-3.189453-4.894531l-.890625-1.052734 1.416016.044921c2.408487.078943 5.009523.013357 7.429687.603516.628515.153262 1.206675.399936 1.785156.693359-.688382.441084-1.116707.891028-1.382812 1.246094-.00543.007247-.7411-.351842-1.148438-.451172-1.773409-.432445-2.620318-.026388-4.617187-.080078.80709 1.276158.672579 1.999737 1.630859 3.091797.727558.829128 2.481645 1.34331 4.054688 1.871094 1.573042.527784 3.912138.244831 4.207031.179687l-.050781 1.294922c-.389822.088246-.829772.160699-1.31836.185547-1.465763.074544-2.290621-.268066-2.386718-.310547-.056063 1.116797.203802 2.079393.701172 2.826172.621497.933154 2.078537 1.572966 2.255859 1.648438.699973-1.045634 1.341066-1.303707 1.814453-2.404297.286989-.667233.821078-1.66931.060547-4.041016-.473689-1.477196-1.084268-1.834534-1.707031-2.224609l1.15625-.882813c.372296.249714.795691.60284 1.138672 1.039063.860891 1.094931.801725 2.078308.791015 2.195312 0 0 1.622763-1.236439 2.289063-2.115234.86411-1.139688 1.180412-1.882266 1.982422-3.119141-1.7797.108973-2.939174-.299817-4.845704.285156-.51557.15819-1.590266.806521-2.867187 1.910157-1.27692 1.103637-1.908902 1.78435-2.240234 2.503906l-1.642579-.386719c.019099-.045967 1.91651-3.357657 3.820313-4.222656 1.903805-.864996 8.069966-1.476989 10.058594-1.578125z" fill="#CDDC39" stroke-width=".5"/></svg>