<svg fill="#CDDC39" height="48" viewBox="0 0 48 48" width="48" xmlns="http://www.w3.org/2000/svg"><path d="m10 6c-2.216 0-4 1.784-4 4v28c0 2.216 1.784 4 4 4h28c2.216 0 4-1.784 4-4v-28c0-2.216-1.784-4-4-4zm21.552734 6c.341715 0 .683324.130589.94336.390625l3.113281 3.113281c.520072.520072.520072 1.366647 0 1.886719l-2.439453 2.441406-5.001953-5.001953 2.441406-2.439453c.260036-.260036.601645-.390625.943359-.390625zm-4.796875 4.244141 5 5-14.755859 14.755859h-5v-5z" fill="#CDDC39" stroke-width="3"/></svg>