<svg fill="#CDDC39" height="48" viewBox="0 0 48 48" width="48" xmlns="http://www.w3.org/2000/svg"><path d="m10 6c-2.21 0-4 1.79-4 4v28c0 2.21 1.79 4 4 4h28c2.21 0 4-1.79 4-4v-28c0-2.21-1.79-4-4-4zm22.1875 4.994141c.37019 0 .741732.140169 1.023438.421875l3.373047 3.373047c.563412.563412.563412 1.48151 0 2.044922l-2.644531 2.644531-5.417969-5.417969 2.644531-2.644531c.281706-.281706.651294-.421875 1.021484-.421875zm-5.197266 4.597656 5.417969 5.417969-15.984375 15.984375h-5.417969v-5.417969z" fill="#CDDC39"/></svg>