<svg fill="#CDDC39" height="48" viewBox="0 0 48 48" width="48" xmlns="http://www.w3.org/2000/svg"><path d="m25.125 16s.555 1.9875.555 3.6c0 1.545-1.0125 2.80125-2.56125 2.80125s-2.71875-1.2525-2.71875-2.80125l.01875-.27c-1.5075 1.80375-2.41875 4.12875-2.41875 6.6675 0 3.315 2.685 6 6 6s6-2.685 6-6c0-4.04625-1.94625-7.65375-4.875-9.9975zm-1.3425 13.7475c-1.335 0-2.41875-1.05375-2.41875-2.355 0-1.21875.78375-2.07375 2.11125-2.34s2.7-.90375 3.46125-1.93125c.2925.9675.44625 1.9875.44625 3.02625 0 1.98375-1.6125 3.6-3.6 3.6zm-5.7825-23.7475v4h-4c-2.21 0-4 1.79-4 4v4h-4v4h4v4h-4v4h4v4c0 2.21 1.79 4 4 4h4v4h4v-4h4v4h4v-4h4c2.21 0 4-1.79 4-4v-4h4v-4h-4v-4h4v-4h-4v-4c0-2.21-1.79-4-4-4h-4v-4h-4v4h-4v-4zm-4 8h20v20h-20z" fill="#CDDC39"/></svg>