<svg xmlns="http://www.w3.org/2000/svg" fill="#4CAF50" viewBox="0 0 48 48"><path d="m8 12h-4v28c0 2.21 1.79 4 4 4h28v-4h-28v-28"/><path d="m16 4c-2.21 0-4 1.79-4 4v24c0 2.21 1.79 4 4 4h24c2.21 0 4-1.79 4-4v-24c0-2.21-1.79-4-4-4h-24m-.895 9.1c.082-.014 2.124 1.063 3.496 1.436 2.447.625 4.68 2.507 5.76 3.588.08.093.926-.634 1.813-.582 1.211.073 4.958 1.128 5.459.41.304-.421.281-.939.66-1.15.204-.057-.757-1.815.266-2.379.729-.364 1.346 1.676 1.533 1.904.084.102.529.126.477-.107-.057-.253-.777-2.209.105-2.537 1.433-.567 1.178 2.504 1.215 2.592.079.186 4.991.328 5.289 2.537.172 1.216-3.934 2.788-4.336 3.068-.402.28-.368.727-.211 1 .18.301 1.375 1.316 1.215 1.799-.11.279-2.342-.744-2.484-.529-.325.411 1.625 1.438.951 2.168-.267.175-3.34-1.287-3.332-1.27-.082.031-4.341.779-7.615-.211-.115-.033-2.1 1.919-2.326 1.852-.309-.113.454-1.697.369-2.01-.139-.174-1.407.707-1.48.264-.087-.583 1.114-1.252 1.059-1.639-.31-2.195.138-3.477.898-4.549.254-.394-2.982-2.837-5.324-3.801-2.342-.964-3.594-1.781-3.455-1.857m24.996 1.979c.129.094-.116 1.916-.258 1.811-.165-.08.191-1.888.258-1.811m1.223.236c.061.06-.823 1.844-.965 1.738-.235-.174.829-1.85.965-1.738m-4.839844 1.917969a.424106 .482868 0 0 0 -.394531 .482422 .424106 .482868 0 0 0 .425781 .482422 .424106 .482868 0 0 0 .423828 -.482422 .424106 .482868 0 0 0 -.423828 -.482422 .424106 .482868 0 0 0 -.03125 0m-.922.293c-.422.298.232 1.985 1.307 1-.844.025-1.126-.222-1.307-1m2.275 2.033c-.468.038-1.708.8-1.686.879.015.114 2.257-.692 1.834-.846-.029-.028-.082-.039-.148-.033m.336.527c-.274-.141-1.389 1.16-1.246 1.246-.019.031 1.646-.849 1.246-1.246"/></svg>