<svg xmlns="http://www.w3.org/2000/svg" fill="#FFC107" viewBox="0 0 48 48"><path d="m20 5l-4 4v4h-8c-2.21 0-3.98 1.79-3.98 4l-.02 22c0 2.21 1.79 4 4 4h32c2.21 0 4-1.79 4-4v-22c0-2.21-1.79-4-4-4h-8v-4l-4-4h-8m0 4h8v4h-8v-4m8.438 9c.368-.025.748.053 1.092.244.917.51 1.233 1.639.703 2.523-.529.884-1.704 1.186-2.621.676-.917-.51-1.231-1.64-.701-2.523.331-.553.913-.878 1.527-.92m-4.75 1.967c.771 0 1.516.104 2.225.293.125.742.584 1.427 1.313 1.832.728.405 1.57.445 2.299.18 1.418 1.344 2.342 3.171 2.477 5.207l-2.734.039c-.252-2.757-2.651-4.92-5.578-4.92-.843 0-1.644.18-2.361.502l-1.332-2.301c1.113-.531 2.367-.832 3.693-.832m-4.623 1.35l1.402 2.264c-1.44.977-2.383 2.59-2.383 4.416 0 1.827.942 3.439 2.383 4.416l-1.402 2.264c-1.679-1.081-2.927-2.733-3.445-4.668.606-.476.992-1.2.992-2.01 0-.812-.386-1.536-.992-2.01.519-1.935 1.767-3.587 3.445-4.668m-5.146 4.832c1.059 0 1.918.827 1.918 1.848 0 1.021-.859 1.848-1.918 1.848-1.06 0-1.918-.827-1.918-1.848 0-1.021.858-1.848 1.918-1.848m15.348 2.326l2.734.039c-.134 2.036-1.056 3.863-2.475 5.207-.729-.266-1.573-.225-2.301.18-.729.406-1.187 1.09-1.313 1.832-.709.189-1.453.293-2.225.293-1.326 0-2.58-.301-3.693-.832l1.332-2.301c.717.322 1.518.502 2.361.502 2.927 0 5.327-2.162 5.578-4.92m-.561 5.83c.614.042 1.196.368 1.527.92.53.884.214 2.01-.703 2.523-.917.51-2.089.208-2.619-.676-.529-.884-.214-2.01.703-2.523.344-.191.723-.269 1.092-.244"/></svg>