<?xml version="1.0" encoding="UTF-8" standalone="no"?>
<svg
   xmlns:dc="http://purl.org/dc/elements/1.1/"
   xmlns:cc="http://creativecommons.org/ns#"
   xmlns:rdf="http://www.w3.org/1999/02/22-rdf-syntax-ns#"
   xmlns:svg="http://www.w3.org/2000/svg"
   xmlns="http://www.w3.org/2000/svg"
   xmlns:sodipodi="http://sodipodi.sourceforge.net/DTD/sodipodi-0.dtd"
   xmlns:inkscape="http://www.inkscape.org/namespaces/inkscape"
   width="48"
   height="48"
   viewBox="0 0 48 48"
   id="svg2"
   version="1.1"
   inkscape:version="0.91 r13725"
   sodipodi:docname="browser.svg"
   style="fill:#FFC107">
  <metadata
     id="metadata10">
    <rdf:RDF>
      <cc:Work
         rdf:about="">
        <dc:format>image/svg+xml</dc:format>
        <dc:type
           rdf:resource="http://purl.org/dc/dcmitype/StillImage" />
        <dc:title />
      </cc:Work>
    </rdf:RDF>
  </metadata>
  <defs
     id="defs8" />
  <sodipodi:namedview
     pagecolor="#ffffff"
     bordercolor="#666666"
     borderopacity="1"
     objecttolerance="10"
     gridtolerance="10"
     guidetolerance="10"
     inkscape:pageopacity="0"
     inkscape:pageshadow="2"
     inkscape:window-width="668"
     inkscape:window-height="480"
     id="namedview6"
     showgrid="false"
     fit-margin-top="0"
     fit-margin-left="0"
     fit-margin-right="0"
     fit-margin-bottom="0"
     inkscape:zoom="8.723677317301433"
     inkscape:cx="19.99999999999999"
     inkscape:cy="19.99999999999999"
     inkscape:window-x="0"
     inkscape:window-y="30"
     inkscape:window-maximized="0"
     inkscape:current-layer="svg2" />
  <path
     d="M 23.99999999999999,4.000000000000003 C 12.94999999999999,4.000000000000003 3.999999999999996,12.95 3.999999999999996,24 c 0,11.05 8.949999999999993,20 19.999999999999992,20 C 35.04999999999999,44 44,35.05 44,24 44,12.95 35.05,4 23.99999999999999,4 Z m -2,35.859999999999999 c -7.89,-0.98 -13.999999999999994,-7.7 -13.999999999999994,-15.86 0,-1.23 0.15,-2.43 0.42,-3.58 l 9.579999999999994,9.58 0,2 c 0,2.21 1.79,4 4,4 l 0,3.86 z m 13.79,-5.07 C 35.27999999999997,33.17 33.77999999999997,32 32,32 l -2.00000000000003,0 0,-6 c 0,-1.1 -0.89999999999999,-2 -2,-2 l -11.99999999999999,0 0,-4 3.99999999999999,0 c 1.10000000000001,0 2,-0.9 2,-2 l 0,-4 4,0 c 2.21,0 4,-1.79 4,-4 l 0,-0.830000000000005 C 35.86,11.54 40,17.28 40,24 c 0,4.16 -1.59999999999999,7.94 -4.20999999999999,10.79 z"
     id="path4"
     inkscape:connector-curvature="0" />
</svg>
