<?xml version="1.0" encoding="UTF-8" standalone="no"?>
<svg
   xmlns:dc="http://purl.org/dc/elements/1.1/"
   xmlns:cc="http://creativecommons.org/ns#"
   xmlns:rdf="http://www.w3.org/1999/02/22-rdf-syntax-ns#"
   xmlns:svg="http://www.w3.org/2000/svg"
   xmlns="http://www.w3.org/2000/svg"
   xmlns:sodipodi="http://sodipodi.sourceforge.net/DTD/sodipodi-0.dtd"
   xmlns:inkscape="http://www.inkscape.org/namespaces/inkscape"
   fill="#3E2723"
   width="48"
   height="48"
   viewBox="0 0 48 48"
   id="svg2"
   version="1.1"
   inkscape:version="0.91 r13725"
   sodipodi:docname="libreoffice-oasis-web-template.svg">
  <metadata
     id="metadata10">
    <rdf:RDF>
      <cc:Work
         rdf:about="">
        <dc:format>image/svg+xml</dc:format>
        <dc:type
           rdf:resource="http://purl.org/dc/dcmitype/StillImage" />
        <dc:title />
      </cc:Work>
    </rdf:RDF>
  </metadata>
  <defs
     id="defs8" />
  <sodipodi:namedview
     pagecolor="#ffffff"
     bordercolor="#666666"
     borderopacity="1"
     objecttolerance="10"
     gridtolerance="10"
     guidetolerance="10"
     inkscape:pageopacity="0"
     inkscape:pageshadow="2"
     inkscape:window-width="1366"
     inkscape:window-height="713"
     id="namedview6"
     showgrid="false"
     inkscape:zoom="3.078473588550259"
     inkscape:cx="3.684441302750983"
     inkscape:cy="11.39591565882626"
     inkscape:window-x="0"
     inkscape:window-y="30"
     inkscape:window-maximized="1"
     inkscape:current-layer="svg2"
     inkscape:snap-bbox="true"
     inkscape:bbox-paths="false"
     inkscape:bbox-nodes="true"
     inkscape:snap-bbox-edge-midpoints="false"
     inkscape:snap-bbox-midpoints="false"
     inkscape:snap-object-midpoints="false"
     inkscape:snap-page="true" />
  <path
     id="path4171"
     style="fill:#0369a3;fill-opacity:1"
     d="m 28,2 c -2.21,0 -4,1.789999999999999 -4,4 l 0,36 c 0,2.21 1.79,4 4,4 l 16,0 c 2.21,0 4,-1.79 4,-4 L 48,6 C 48,3.789999999999999 46.21,2 44,2 L 28,2 Z m 0,4 16,0 0,36 -16,0 0,-4 8,0 0,-4 -8,0 0,-4 8,0 0,-4 -8,0 0,-4 8,0 0,-4 -8,0 0,-4 8,0 0,-4 -8,0 0,-4 z M 4,4 C 1.789999999999999,4 0.0195312499999929,5.790000000000001 0.01953125,8 L 0,40 c 0,2.21 1.770468749999978,4 3.98046875,4 L 22.5546875,44 C 22.2111919296278,43.40960921240377 22,42.73260284552845 22,42 l 0,-3.01171875 C 20.32774618009089,40.2461697712557 18.25484454266267,41 16,41 c -5.525,7e-15 -10,-4.475 -10,-10 0,-5.525 4.475,-10 10,-10 2.25484454266266,0 4.3277461800909,0.75383022874429 6,2.01171875 L 22,18 18,18 18,7 22,11 22,6 20,4 4,4 Z M 19,23.583984375 19,24 c 0,1.10499999999998 -0.895,2 -2,2 l -2,0 0,2 c 0,0.54999999999999 -0.45000000000001,1 -1,1 l -2,0 0,2 6,0 c 0.55,0 1,0.45 1,1 l 0,3 1,0 c 0.89000000000001,0 1.63953125,0.58453125 1.89453125,1.39453125 0.0368641114348,-0.0402539147851 0.0694165109095,-0.0840108990288 0.10546875,-0.125 l 0,-10.541015625 c -0.81685617463581,-0.92848687976395 -1.83547611847527,-1.67355486788163 -3,-2.14453125 z m -10.7890625,5.625 C 8.075937500000023,29.783984375 8,30.38500000000001 8,31 c 0,4.07999999999999 3.055,7.43968750000001 7,7.9296875 L 15,37 c -1.10500000000001,0 -2,-0.895 -2,-2 l 0,-1 -4.7890625,-4.791015625 z" />
</svg>
