<svg xmlns="http://www.w3.org/2000/svg" xmlns:xlink="http://www.w3.org/1999/xlink" viewBox="0 0 2072 2072"><defs><filter id="0"><feGaussianBlur stdDeviation="9.0767"/></filter><linearGradient y2="917.51" x2="-555.82" y1="920.42" x1="-1237.11" gradientTransform="matrix(-1.37982-1.65696.76845-.63991-2195.64 413.89)" gradientUnits="userSpaceOnUse" id="F"><stop stop-color="#321e1d"/><stop offset=".015" stop-color="#555548" stop-opacity="0"/><stop offset="1" stop-color="#fff" stop-opacity="0"/></linearGradient><linearGradient y2="917.51" x2="-555.82" y1="919.71" x1="-1238.05" gradientTransform="matrix(-.83179 1.98933-.83312-.35033 1447.58 4603.68)" gradientUnits="userSpaceOnUse" id="A"><stop stop-color="#32691d"/><stop offset=".02" stop-color="#01d200" stop-opacity="0"/><stop offset="1" stop-color="#fff" stop-opacity="0"/></linearGradient><linearGradient y2="917.62" x2="-554.9" y1="919.71" x1="-1238.05" gradientTransform="matrix(3.13625.00262.06431.76015 4936.14 68.13)" gradientUnits="userSpaceOnUse" id="9"><stop stop-color="#f6b1b2"/><stop offset=".028" stop-color="#c51f1f" stop-opacity="0"/><stop offset="1" stop-color="#fff" stop-opacity="0"/></linearGradient><linearGradient y2="915.48" x2="-555.87" y1="919.71" x1="-1238.05" gradientTransform="matrix(1.38299 1.65431-.76722.64139 2529.84 3432.87)" gradientUnits="userSpaceOnUse" id="B"><stop stop-color="#cbf595"/><stop offset=".018" stop-color="#01da00" stop-opacity="0"/><stop offset="1" stop-color="#fff" stop-opacity="0"/></linearGradient><linearGradient y2="917.19" x2="-866.87" y1="918.1" x1="-1242.56" gradientTransform="matrix(1.38299 1.65431-.76722.64139 2930.53 3096.94)" gradientUnits="userSpaceOnUse" id="D"><stop stop-color="#ebebec"/><stop offset=".005" stop-color="#d3d3d3" stop-opacity="0"/><stop offset="1" stop-color="#fff" stop-opacity="0"/></linearGradient><linearGradient y2="910.65" x2="-551.13" y1="915.74" x1="-1242.23" gradientTransform="matrix(.85312-1.9803.9184.39565 2182.29-885.93)" gradientUnits="userSpaceOnUse" id="E"><stop stop-color="#321e1d"/><stop offset=".017" stop-color="#555548" stop-opacity="0"/><stop offset="1" stop-color="#fff" stop-opacity="0"/></linearGradient><linearGradient y2="917.51" x2="-555.82" y1="918.44" x1="-1229.33" gradientTransform="matrix(-2.15102-.07026-.03821-.48211-1498.47 1058.01)" gradientUnits="userSpaceOnUse" id="C"><stop stop-color="#321e1d"/><stop offset=".02" stop-color="#5a5bd7" stop-opacity="0"/><stop offset="1" stop-color="#fff" stop-opacity="0"/></linearGradient><linearGradient y2="915.3" x2="-555.84" y1="919.71" x1="-1238.05" gradientTransform="matrix(.027-2.15606.90369.01315 114.37-755.43)" gradientUnits="userSpaceOnUse" id="8" xlink:href="#3"/><linearGradient id="1" x1="1425.18" y1="1842.81" x2="554.02" y2="1769.28" gradientUnits="userSpaceOnUse"><stop stop-color="#01a300"/><stop offset="1" stop-color="#01df00"/></linearGradient><linearGradient id="2" x1="576.65" y1="1435.52" x2="1017.88" y2="502.14" gradientUnits="userSpaceOnUse"><stop stop-color="#1011a1"/><stop offset="1" stop-color="#6969e1"/></linearGradient><linearGradient id="7" x1="1170.62" y1="728.41" x2="1787.22" y2="1769.28" gradientUnits="userSpaceOnUse"><stop stop-color="#b40e0e"/><stop offset="1" stop-color="#ff5959"/></linearGradient><linearGradient id="3"><stop stop-color="#321e1d"/><stop offset=".02" stop-color="#555548" stop-opacity="0"/><stop offset="1" stop-color="#fff" stop-opacity="0"/></linearGradient><linearGradient id="5" x1="1119.71" y1="1520.37" x2="1108.39" y2="1141.36" gradientUnits="userSpaceOnUse"><stop stop-color="#848484"/><stop offset="1" stop-color="#d2d2d2"/></linearGradient><linearGradient id="6" x1="-1238.05" y1="919.71" x2="-555.82" y2="917.51" gradientUnits="userSpaceOnUse" gradientTransform="matrix(1.91889.98349-.45611.88992 3476.04 1285.27)"><stop stop-color="#cbcaf2"/><stop offset=".026" stop-color="#5555d2" stop-opacity="0"/><stop offset="1" stop-color="#fff" stop-opacity="0"/></linearGradient><linearGradient y2="913.41" x2="-552.84" y1="919.71" x1="-1238.05" gradientTransform="matrix(-1.9407.93973-.43582-.90004-412.22 3168.65)" gradientUnits="userSpaceOnUse" id="4" xlink:href="#3"/></defs><path d="m1971.56 1939.91l-1797.09-.126c-11.03-1.222-8.54-6.713-5.996-12.222l900.88-1799.49c3.314-5.277 6.288-4.437 9.09-.411l900.86 1799.44c4.578 9.167 1.581 13.15-7.739 12.807z" opacity=".54" fill="none" filter="url(#0)" stroke="#3a393b" stroke-width="22.5"/><path d="m1143.31 1084.32l-984.62 841.74 901.82-1801.96 82.8 960.22z" fill="url(#2)" stroke="#000"/><path d="m1060.56 125.62c13.415 80.72 11.94 94.79-18.03 140.07l-796.61 1579.14-84.6 76.927 899.25-1796.14" fill="url(#6)"/><path d="m1147.19 1083.15l-50.17 40.05-52.789-888.73c-4.053-47.43-6.242-43.17-6.549-68.17l25.1-48.952 84.4 965.79" fill="url(#C)"/><path d="m1188.94 1609.99l-127.96-1486.05 902.97 1802.29-775.02-316.23z" fill="url(#7)" stroke="#000"/><path d="m1060.91 120.08c24.17 30.05 39.608 75.94 48.965 112.18l179.37 1415.1-98.43-38.439-129.91-1488.84" fill="url(#9)"/><path d="m743.41 1423.83l1221.47 502.17-1805.95-.198 584.48-501.98z" fill="url(#1)" stroke="#000"/><path d="m1963.69 1926.53l-56.714-24.617-795.99-1603.05c-21.947-24.378-34.34-39.623-41.22-51.952-1.126-32.32-2.943-61.08-9.914-126.26l903.83 1805.88" fill="url(#4)"/><path d="m745.27 1425.05l397.42-339.04 55.33 523.57-452.75-184.53z" fill="url(#5)" stroke="#000" stroke-width="4"/><path d="m742.73 1426.26c17.482 6.75 20.842 8.283 35.806 14.42-16.16 13.831-69.88 86.49-91.43 103.85l-428.41 362.7-98.82 18.388 582.85-499.36" fill="url(#B)"/><path d="m1962.87 1925.46l-68.06-1.049-1174.87-479.63 23.505-18.717 470.76 191.94 748.66 307.46" fill="url(#A)"/><path d="m159.98 1925.44l50.3-42.886 1643.01.153 110.33 42.727-1803.63.01z" fill="url(#8)"/><path d="m1199.85 1610.99l-2.161-22.339 610.59 235.17c39.456 18.766 69.11 27.299 88.82 43.33 12.695 5.208 34.724 12.634 46.11 16.474 13.926 9.222 11.506 23.958 20.318 41.543l-763.68-314.17" fill="url(#E)"/><path d="m1958.59 1931.81l-1797.09-.126c-11.03-1.222-8.54-6.713-5.996-12.222l900.88-1799.49c3.314-5.277 6.288-4.437 9.09-.411l900.86 1799.44c4.578 9.167 1.581 13.15-7.739 12.807z" fill="none" stroke="#000" stroke-width="12.2"/><path d="m160.09 1924.15l25.525-54.53 52.07-38.569 899.33-780.87c4.8 18.518 1.88 6.934 6.131 33.989l-983.05 839.99" fill="url(#F)"/><path d="m1141.05 1090.57c-7.892 86.61-17.716 81.54-53.25 118.02l-263.41 244.7-74.945-29.24 391.6-333.48" fill="url(#D)"/></svg>