<?xml version="1.0" encoding="UTF-8" standalone="no"?>
<!-- Created with Inkscape (http://www.inkscape.org/) -->

<svg
   xmlns:dc="http://purl.org/dc/elements/1.1/"
   xmlns:cc="http://creativecommons.org/ns#"
   xmlns:rdf="http://www.w3.org/1999/02/22-rdf-syntax-ns#"
   xmlns:svg="http://www.w3.org/2000/svg"
   xmlns="http://www.w3.org/2000/svg"
   xmlns:xlink="http://www.w3.org/1999/xlink"
   xmlns:sodipodi="http://sodipodi.sourceforge.net/DTD/sodipodi-0.dtd"
   xmlns:inkscape="http://www.inkscape.org/namespaces/inkscape"
   width="34.58240127563477mm"
   height="44.46802139282227mm"
   viewBox="0 0 122.5360675122603 157.5638553252431"
   id="svg4172"
   version="1.1"
   inkscape:version="0.91 r13725"
   sodipodi:docname="emblem-ruby-on-rails.svg">
  <defs
     id="defs4174">
    <linearGradient
       id="linearGradient3949">
      <stop
         id="stop3951"
         offset="0"
         style="stop-color:#ffffff;stop-opacity:1;" />
      <stop
         id="stop3953"
         offset="1"
         style="stop-color:#c0815e;stop-opacity:1;" />
    </linearGradient>
    <linearGradient
       id="linearGradient3938">
      <stop
         id="stop3940"
         offset="0"
         style="stop-color:#ffffff;stop-opacity:1;" />
      <stop
         id="stop3942"
         offset="1"
         style="stop-color:#a94436;stop-opacity:1;" />
    </linearGradient>
    <radialGradient
       gradientUnits="userSpaceOnUse"
       gradientTransform="matrix(1,0,0,1.5816993,808.8705734354308,-484.0655877873875)"
       r="48.52863311767578"
       fy="514.2454223632812"
       fx="346.7863464355469"
       cy="514.2454223632812"
       cx="346.7863464355469"
       id="radialGradient3944"
       xlink:href="#linearGradient3938"
       inkscape:collect="always" />
    <linearGradient
       gradientUnits="userSpaceOnUse"
       y2="487.3886108398438"
       x2="394.5308532714844"
       y1="502.2872924804688"
       x1="366.0859069824219"
       id="linearGradient3955"
       xlink:href="#linearGradient3949"
       inkscape:collect="always"
       gradientTransform="translate(808.8705734354308,-184.9293577873875)" />
  </defs>
  <sodipodi:namedview
     id="base"
     pagecolor="#ffffff"
     bordercolor="#666666"
     borderopacity="1.0"
     inkscape:pageopacity="0.0"
     inkscape:pageshadow="2"
     inkscape:zoom="0.3944335939581171"
     inkscape:cx="-60.05363438654547"
     inkscape:cy="-122.9040555273503"
     inkscape:document-units="px"
     inkscape:current-layer="layer1"
     showgrid="false"
     fit-margin-top="0"
     fit-margin-left="0"
     fit-margin-right="0"
     fit-margin-bottom="0"
     inkscape:window-width="1366"
     inkscape:window-height="713"
     inkscape:window-x="0"
     inkscape:window-y="31"
     inkscape:window-maximized="1" />
  <metadata
     id="metadata4177">
    <rdf:RDF>
      <cc:Work
         rdf:about="">
        <dc:format>image/svg+xml</dc:format>
        <dc:type
           rdf:resource="http://purl.org/dc/dcmitype/StillImage" />
        <dc:title></dc:title>
      </cc:Work>
    </rdf:RDF>
  </metadata>
  <g
     inkscape:label="Layer 1"
     inkscape:groupmode="layer"
     id="layer1"
     transform="translate(-1082.143703435431,-251.0251922126122)">
    <path
       sodipodi:nodetypes="cszcszc"
       inkscape:connector-curvature="0"
       id="path3907"
       d="m 1084.104053435431,406.7500022126122 c 0,0 0.23769,-37.32232 0.23769,-75.2629000000004 0,-73.4883399999997 -6.19225,-78.9619099999998 26.78086,-78.9619099999998 32.97311,0 91.77881,0 91.77881,0 0,0 0,71.1058699999998 0,106.0001399999998 0,34.8942800000002 6.52269,48.5637100000004 -30.14808,48.5637100000004 -36.67077,0 -88.64928,-0.3390400000001 -88.64928,-0.3390400000001 z"
       style="fill:#a62c39;fill-opacity:1;stroke:none" />
    <path
       inkscape:connector-curvature="0"
       id="path3947"
       d="m 1159.773653435431,266.3887722126125 c 0,0 5.88106,1.1762100000001 10.97798,9.80176 5.09691,8.62555 32.14978,75.6696099999999 32.14978,75.6696099999999 l 0,-54.4977999999996 -25.09251,-40.7753299999999 7.05726,8.62555 13.3304,-10.9779800000001 -17.2511,-1.1762100000001 z"
       style="fill:url(#linearGradient3955);fill-opacity:1;stroke:none" />
    <path
       inkscape:connector-curvature="0"
       id="path3934"
       d="m 1107.628283435431,253.4504422126125 c 0,0 38.81498,25.8766600000001 57.63436,30.97357 18.81938,5.09692 38.42291,10.58591 38.42291,10.58591 l -44.69604,109.77973 19.21146,0.78414 25.09251,-61.9471300000004 -0.78414,-90.5682899999996 z"
       style="display:inline;opacity:0.6682242599;fill:url(#radialGradient3944);fill-opacity:1;stroke:none" />
    <path
       sodipodi:nodetypes="cccscc"
       inkscape:connector-curvature="0"
       id="path3960"
       d="m 1143.698763435431,369.1112422126125 40.3775,38.83434 -75.27177,-1.5876500000004 c 0,0 -2.35242,-23.9162999999995 -1.56828,-36.4625499999996 0.78414,-12.5462600000001 4.70485,-12.5462600000001 4.70485,-12.5462600000001 z"
       style="fill:#ffffff;fill-opacity:0.4396135517;stroke:none" />
    <path
       sodipodi:nodetypes="cccccccccc"
       inkscape:connector-curvature="0"
       id="path3958"
       d="m 1180.945463435431,407.1420722126123 -36.46256,-37.6387599999999 -33.32599,-12.54626 -25.87665,-57.6343600000001 27.44494,-45.87225 -18.42732,-0.7841399999998 -7.44934,7.0572700000001 -2.74449,5.4889899999999 -1.96035,142.7136499999998 z"
       style="fill:#000000;fill-opacity:0.3623188692;stroke:none" />
    <path
       inkscape:connector-curvature="0"
       id="path3962"
       d="m 1203.293483435431,347.1552922126125 c 0,0 -36.85463,11.76211 -58.81058,22.74009 -21.95594,10.97797 -33.71806,37.6387599999999 -33.71806,37.6387599999999 0,0 47.04846,-2.3524199999999 64.69163,-1.5682799999998 17.64317,0.7841399999996 25.87666,0.7841399999996 27.44494,-23.9163 1.56828,-24.7004400000002 0.39207,-34.89427 0.39207,-34.89427 z"
       style="display:inline;opacity:0.5;fill:#83222d;fill-opacity:1;stroke:none" />
    <path
       inkscape:connector-curvature="0"
       id="path3993"
       d="m 1095.464323435431,370.5706422126125 0,23.15625 5.90625,0 0,-6.03125 5.375,5.375 9.0625,0 -7.1875,-7.1875 c 0,0 5.17087,-0.0835 5.5625,-7.5625 0,-6.86123 -5.17717,-7.75 -11.15625,-7.75 l -7.5625,0 z m 6.1875,6.28125 5.09375,0 0,4.125 -5.09375,0 0,-4.125 z"
       style="fill:#ffffff;stroke:none" />
    <path
       inkscape:connector-curvature="0"
       id="path3997"
       d="m 1127.214323435431,370.6643922126125 c -3.23371,-0.0182 -7.71875,0.2815799999998 -7.71875,6.375 l 0,16.09375 6.0625,0 0,-3.9375 5.875,0 0,3.84375 6.09375,0 0,-16.875 c 0,-5.2929500000003 -5.88051,-5.5 -9.03125,-5.5 -0.39384,0 -0.81929,0.003 -1.28125,0 z m -1.5625,5.8125 5.6875,0 0,6.34375 -5.6875,0 0,-6.34375 z"
       style="fill:#ffffff;stroke:none" />
    <rect
       y="370.6795349121094"
       x="1143.600708007812"
       height="22.1519832611084"
       width="6.273127555847168"
       id="rect4001"
       style="fill:#ffffff;fill-opacity:1;stroke:none" />
    <path
       inkscape:connector-curvature="0"
       id="path4003"
       d="m 1156.441053435431,370.9735722126123 0,22.1519800000001 15.09472,0 0,-5.8810500000003 -8.9196,0 0,-16.3689499999997 z"
       style="fill:#ffffff;stroke:none" />
    <path
       sodipodi:nodetypes="ccccsssccsssssc"
       inkscape:connector-curvature="0"
       id="path4005"
       d="m 1191.531363435431,370.7775322126125 0,5.9790799999996 -10.09581,0 0,2.15639 c 0,0 2.05837,0 4.31277,0 2.25441,0 6.95925,-0.098 6.95925,6.9592500000001 0,7.0572699999998 -3.23458,7.4493399999999 -9.80176,7.4493399999999 -6.56718,0 -7.93942,0 -7.93942,0 l 0,-5.3909699999997 c 0,0 6.37114,0 9.11563,0 2.7445,0 2.89586,-0.89341 2.89586,-1.67192 0,-0.7785200000003 -1.40319,-1.1406400000003 -4.2569,-1.1406400000003 -2.85371,0 -8.14667,-1.4022 -8.14667,-6.8911899999997 0,-5.4889800000001 2.7445,-7.5473500000004 8.23349,-7.5473500000004 5.48898,0 8.72356,0.098 8.72356,0.098 z"
       style="fill:#ffffff;stroke:none" />
    <path
       sodipodi:nodetypes="ccssccsszc"
       inkscape:connector-curvature="0"
       id="path3966"
       d="m 1100.963083435431,364.0143222126122 52.14538,0 c 0,0 -11.56608,-26.2687199999999 -8.62556,-50.3810599999998 2.94053,-24.1123299999999 21.95595,-35.0903099999999 32.73789,-36.26652 10.78194,-1.1762100000001 16.663,5.4889900000001 16.663,5.4889900000001 l 2.35242,-3.5286300000002 c 0,0 -15.48679,-15.68282 -35.09031,-13.9185099999999 -19.60352,1.76432 -33.12996,14.7026499999999 -41.55947,30.3854699999999 -8.42952,15.6828199999999 -13.3304,26.66079 -16.663,43.1277499999996 -3.3326,16.4669600000002 -1.96035,25.0925100000002 -1.96035,25.0925100000002 z"
       style="fill:#ffffff;stroke:none" />
    <path
       inkscape:connector-curvature="0"
       id="path3968"
       d="m 1090.573213435431,337.7456022126125 10.19384,0.78414 -1.76432,10.1938299999998 -9.60573,-1.1762099999997 z"
       style="fill:#ffffff;stroke:none" />
    <path
       inkscape:connector-curvature="0"
       id="path3970"
       d="m 1106.648103435431,316.1817222126125 2.7445,-7.64537 -9.01762,-3.5286399999999 -2.94053,8.2334799999999 z"
       style="fill:#ffffff;stroke:none" />
    <path
       inkscape:connector-curvature="0"
       id="path3972"
       d="m 1119.390393435431,289.9130022126125 5.29296,-6.2731299999999 -6.86124,-4.5088100000001 -5.48898,6.07709 z"
       style="fill:#ffffff;stroke:none" />
    <path
       inkscape:connector-curvature="0"
       id="path3974"
       d="m 1133.308903435431,265.6046322126125 4.70484,5.68502 6.46916,-3.7246699999999 -4.70484,-5.29295 z"
       style="fill:#ffffff;stroke:none" />
    <path
       inkscape:connector-curvature="0"
       id="path3976"
       d="m 1156.245023435431,259.1354722126125 1.17621,5.68502 8.03745,-0.19604 -0.78415,-5.0969099999999 z"
       style="fill:#ffffff;stroke:none" />
    <path
       inkscape:connector-curvature="0"
       id="path3978"
       d="m 1183.493923435431,265.2125622126125 -0.19604,3.5286300000002 5.48899,2.9405299999999 1.17621,-1.76432 z"
       style="fill:#ffffff;stroke:none" />
    <path
       inkscape:connector-curvature="0"
       id="path3980"
       d="m 1182.317713435431,280.3072722126125 0,2.9405300000001 5.29295,0.5881099999999 0,-2.35243 z"
       style="fill:#ffffff;stroke:none" />
    <path
       inkscape:connector-curvature="0"
       id="path3982"
       d="m 1165.458683435431,282.8557322126126 2.54845,4.7048500000001 3.72467,-2.9405300000001 -0.78414,-3.13657 z"
       style="fill:#ffffff;stroke:none" />
    <path
       inkscape:connector-curvature="0"
       id="path3984"
       d="m 1157.421233435431,288.9328222126126 3.92071,5.8810599999999 -2.35243,4.1167400000001 -5.68502,-6.2731300000001 z"
       style="fill:#ffffff;stroke:none" />
    <path
       inkscape:connector-curvature="0"
       id="path3986"
       d="m 1149.579823435431,305.2037522126125 -2.54846,5.09691 6.6652,5.6850299999999 1.56828,-6.46917 z"
       style="fill:#ffffff;stroke:none" />
    <path
       inkscape:connector-curvature="0"
       id="path3988"
       d="m 1146.835333435431,323.0429522126125 -0.39207,6.8612399999999 8.23348,3.5286299999999 -0.39207,-6.4691599999998 z"
       style="fill:#ffffff;stroke:none" />
    <path
       inkscape:connector-curvature="0"
       id="path3990"
       d="m 1149.187753435431,347.3513222126123 1.96035,7.0572699999999 10.38987,0.5881100000003 -3.72467,-7.6453800000002 z"
       style="fill:#ffffff;stroke:none" />
    <path
       style="fill:none;stroke:#5e000e;stroke-width:3;stroke-linecap:butt;stroke-linejoin:miter;stroke-miterlimit:4;stroke-dasharray:none;stroke-opacity:1"
       d="m 1084.104053435431,406.7500022126122 c 0,0 0.23769,-37.32232 0.23769,-75.2629000000004 0,-73.4883399999997 -6.19225,-78.9619099999998 26.78086,-78.9619099999998 32.97311,0 91.77881,0 91.77881,0 0,0 0,71.1058699999998 0,106.0001399999998 0,34.8942800000002 4.9544,48.5637100000004 -30.14808,48.5637100000004 -35.10248,0 -88.64928,-0.3390400000001 -88.64928,-0.3390400000001 z"
       id="path3913"
       inkscape:connector-curvature="0"
       sodipodi:nodetypes="cszcszc" />
  </g>
</svg>
