<?xml version="1.0" encoding="UTF-8" standalone="no"?>
<svg
   xmlns:dc="http://purl.org/dc/elements/1.1/"
   xmlns:cc="http://creativecommons.org/ns#"
   xmlns:rdf="http://www.w3.org/1999/02/22-rdf-syntax-ns#"
   xmlns:svg="http://www.w3.org/2000/svg"
   xmlns="http://www.w3.org/2000/svg"
   xmlns:sodipodi="http://sodipodi.sourceforge.net/DTD/sodipodi-0.dtd"
   xmlns:inkscape="http://www.inkscape.org/namespaces/inkscape"
   fill="#3F51B5"
   width="48"
   height="48"
   viewBox="0 0 48 48"
   id="svg2"
   version="1.1"
   inkscape:version="0.91 r13725"
   sodipodi:docname="view-continuous.svg">
  <metadata
     id="metadata10">
    <rdf:RDF>
      <cc:Work
         rdf:about="">
        <dc:format>image/svg+xml</dc:format>
        <dc:type
           rdf:resource="http://purl.org/dc/dcmitype/StillImage" />
        <dc:title></dc:title>
      </cc:Work>
    </rdf:RDF>
  </metadata>
  <defs
     id="defs8" />
  <sodipodi:namedview
     pagecolor="#ffffff"
     bordercolor="#666666"
     borderopacity="1"
     objecttolerance="10"
     gridtolerance="10"
     guidetolerance="10"
     inkscape:pageopacity="0"
     inkscape:pageshadow="2"
     inkscape:window-width="1366"
     inkscape:window-height="713"
     id="namedview6"
     showgrid="false"
     inkscape:zoom="10.73600260416667"
     inkscape:cx="13.13528722186211"
     inkscape:cy="18.88216408527117"
     inkscape:window-x="0"
     inkscape:window-y="30"
     inkscape:window-maximized="1"
     inkscape:current-layer="svg2" />
  <path
     inkscape:connector-curvature="0"
     id="path4181"
     d="m 13,28 24,0 0,3.99999999999999 -24,0 L 13,28 Z"
     style="fill:#3F51B5" />
  <path
     d="m 8,26 34,0 0,-4 -34,0 0,4 z"
     id="path4167"
     inkscape:connector-curvature="0" />
  <g
     style="fill:#3F51B5"
     id="g4143"
     transform="translate(-58.90613052985278,-1.996687532152329)">
    <path
       inkscape:connector-curvature="0"
       id="path4-5"
       d="m 6,12 12,0 0,4 -12,0 0,-4 z m 0,24 0,-4 36,0 0,4 -36,0 z m 0,-14 24,0 0,4 -24,0 0,-4 z" />
  </g>
  <path
     style="fill:#3F51B5"
     d="m 19,10 12,0 0,4 -12,0 0,-4 z"
     id="path4155"
     inkscape:connector-curvature="0" />
  <path
     style="fill:#3F51B5"
     d="m 64.71234945555308,36.80701009475651 0,-4 36.00000000000002,0 0,4 -36.00000000000003,0 z"
     id="path4153" />
  <path
     style="fill:#3F51B5"
     d="m 13,16 24,0 0,3.99999999999999 -24,0 L 13,16 Z"
     id="path4148"
     inkscape:connector-curvature="0" />
  <path
     inkscape:connector-curvature="0"
     id="path4179"
     d="m 19,34 12,0 0,4 -12,0 0,-4 z"
     style="fill:#3F51B5" />
</svg>
