<?xml version="1.0" encoding="UTF-8" standalone="no"?>
<svg
   xmlns:dc="http://purl.org/dc/elements/1.1/"
   xmlns:cc="http://creativecommons.org/ns#"
   xmlns:rdf="http://www.w3.org/1999/02/22-rdf-syntax-ns#"
   xmlns:svg="http://www.w3.org/2000/svg"
   xmlns="http://www.w3.org/2000/svg"
   xmlns:sodipodi="http://sodipodi.sourceforge.net/DTD/sodipodi-0.dtd"
   xmlns:inkscape="http://www.inkscape.org/namespaces/inkscape"
   width="36"
   height="36"
   viewBox="0 0 36 36"
   id="svg2"
   version="1.1"
   inkscape:version="0.91 r13725"
   sodipodi:docname="zheadset1.svg"
   style="fill:#FFC107">
  <metadata
     id="metadata10">
    <rdf:RDF>
      <cc:Work
         rdf:about="">
        <dc:format>image/svg+xml</dc:format>
        <dc:type
           rdf:resource="http://purl.org/dc/dcmitype/StillImage" />
        <dc:title></dc:title>
      </cc:Work>
    </rdf:RDF>
  </metadata>
  <defs
     id="defs8" />
  <sodipodi:namedview
     pagecolor="#ffffff"
     bordercolor="#666666"
     borderopacity="1"
     objecttolerance="10"
     gridtolerance="10"
     guidetolerance="10"
     inkscape:pageopacity="0"
     inkscape:pageshadow="2"
     inkscape:window-width="1366"
     inkscape:window-height="713"
     id="namedview6"
     showgrid="false"
     inkscape:snap-bbox="true"
     inkscape:bbox-nodes="true"
     inkscape:snap-bbox-edge-midpoints="false"
     inkscape:snap-bbox-midpoints="true"
     inkscape:snap-object-midpoints="true"
     inkscape:zoom="2.458333334630439"
     inkscape:cx="-64.40118160248113"
     inkscape:cy="-26.66786654324349"
     inkscape:window-x="0"
     inkscape:window-y="30"
     inkscape:window-maximized="1"
     inkscape:current-layer="svg2"
     fit-margin-top="0"
     fit-margin-left="0"
     fit-margin-right="0"
     fit-margin-bottom="0" />
  <path
     style="fill:#FFC107"
     d="M 4,0 C 1.789999999999992,0 0,1.789999999999999 0,4 l 0,28 c 0,2.21 1.789999999999992,4 4,4 l 28,0 c 2.21,0 4,-1.78999999999998 4,-4 L 36,4 C 36,1.790000000000001 34.21,8.881784197001252e-16 32,0 L 4,0 Z m 14,5 c 6.801052631579,1.1e-14 12.31640625,5.515353618421081 12.31640625,12.31640625 l 0,9.578125 C 30.31640625,29.15926809210526 28.47567434210532,31 26.2109375,31 l -4.10546875,0 0,-10.947265625 5.47265625,0 0,-2.736328125 c 0,-5.28894736842105 -4.28917763157892,-9.580078125 -9.578125,-9.580078125 -5.28894736842106,1.1e-14 -9.578125,4.291130756578941 -9.578125,9.580078125 l 0,2.736328125 5.47265625,0 0,10.947265625 -4.10546875,0 C 7.524325657894741,31 5.68359375,29.15926809210526 5.68359375,26.89453125 l 0,-9.578125 C 5.68359375,10.51535361842107 11.1989473684211,5 18,5 Z"
     id="path4160"
     inkscape:connector-curvature="0" />
</svg>
