<svg fill="#CDDC39" height="48" viewBox="0 0 48 48" width="48" xmlns="http://www.w3.org/2000/svg"><g fill="#CDDC39"><path d="m12 2v1.513672l12.486328 12.486328h13.513672v13.515625l4 4v-23.515625c0-2.21-1.79-4-4-4h-2v-4h-4v4h-16v-4zm-3.021484 4.150391c-1.705807.454182-2.958985 1.995835-2.958985 3.849609l-.019531 28c0 2.21 1.79 4 4 4h28c1.853978 0 3.397573-1.265933 3.851563-2.976562l-3.851563-3.851563v2.828125h-28v-22h8.828125zm5.021484 13.849609v10h10v-8.828125l-1.171875-1.171875z"/><path d="m-2 5.053824h4v58h-4z" stroke-width="4" transform="matrix(.70710678 -.70710678 .70710678 .70710678 0 0)"/></g></svg>