<svg fill="#CDDC39" height="48" viewBox="0 0 48 48" width="48" xmlns="http://www.w3.org/2000/svg"><g fill="#CDDC39"><path d="m24 0c-2.61 0-4.810859 1.68-5.630859 4h-8.369141c-2.21 0-4 1.79-4 4v32c0 2.21 1.79 4 4 4h28c2.21 0 4-1.79 4-4v-32c0-2.21-1.79-4-4-4h-8.369141c-.82-2.32-3.020859-4-5.630859-4zm0 4c1.1 0 2 .89 2 2s-.9 2-2 2-2-.89-2-2 .9-2 2-2zm-14 4h4v6h20v-6h4v32h-28z"/><text style="font-family:Roboto;font-size:20;font-weight:bold;letter-spacing:0;text-anchor:middle;word-spacing:0" x="24.091553" y="35.743652"><tspan font-family="Roboto" font-size="25" font-weight="bold" text-anchor="middle" x="24.091553" y="35.743652">G</tspan></text></g></svg>