<svg fill="#CDDC39" height="48" viewBox="0 0 48 48" width="48" xmlns="http://www.w3.org/2000/svg"><path d="m42 32c-2.208 0-3.999653 1.68-4 3.75v2.25h-.285156c-.94949 0-1.714844.742758-1.714844 1.666016v6.666016c0 .923256.765354 1.667968 1.714844 1.667968h8.572266c.949489 0 1.71289-.744712 1.71289-1.667969v-6.666016c0-.923257-.763401-1.666015-1.712891-1.666015h-.287109v-2.25c0-2.07-1.792-3.75-4-3.75zm0 2c1.106667 0 2 .893333 2 2v2h-4v-2c0-1.106667.893333-2 2-2zm-10 .02v-14.02h-4v14.02h-6l8 7.98 8-7.98zm-14-28.02-8 7.98h6v14.02h4v-14.02h6z" fill="#CDDC39"/></svg>