<svg fill="#CDDC39" height="48" viewBox="0 0 48 48" width="48" xmlns="http://www.w3.org/2000/svg"><path d="m4.988281 2.160156-2.828125 2.828125 11.011719 11.011719h-3.171875c-3.31 0-6 2.69-6 6v12h8v8h24v-3.171875l7.171875 7.171875 2.828125-2.828125-9.171875-9.171875-4.828125-4.828125-1.171875-1.171875-12-12-2-2-4.828125-4.828125zm9.498047 3.839844 8 8h13.513672v-8zm10 10 17.998047 18h1.515625v-12c0-3.31-2.69-6-6-6zm13.513672 4c1.11 0 2 .89 2 2s-.89 2-2 2-2-.89-2-2 .89-2 2-2zm-22 8h9.171875l6.828125 6.828125v3.171875h-16z" fill="#CDDC39"/></svg>