<svg height="24" width="24" xmlns="http://www.w3.org/2000/svg"><path d="m11.5 5c-4.14 0-7.5 3.36-7.5 7.5s3.36 7.5 7.5 7.5c1.964788 0 3.756106-.76222 5.09375-2h5.40625l-3.34375-3.34375c.207942-.687617.34375-1.401066.34375-2.15625 0-4.14-3.36-7.5-7.5-7.5zm0 3c2.484 0 4.5 2.016 4.5 4.5s-2.016 4.5-4.5 4.5-4.5-2.016-4.5-4.5 2.016-4.5 4.5-4.5z" fill="#CDDC39" fill-rule="evenodd"/><g fill="none" stroke-linecap="round"><path d="m13.262048 12.49928h-1.762048v-2.499999" stroke="#CDDC39" stroke-linejoin="round"/><path d="m15.75 12.49928c.000399 2.347492-1.902509 4.25072-4.250001 4.25072-2.347491 0-4.250397-1.903228-4.249999-4.25072-.000398-2.347492 1.902508-4.250721 4.249999-4.250721 2.347492 0 4.2504 1.903229 4.250001 4.250721z" opacity=".3" stroke="#fff" stroke-width=".5"/></g></svg>