<?xml version="1.0" encoding="UTF-8" standalone="no"?>
<svg
   xmlns:dc="http://purl.org/dc/elements/1.1/"
   xmlns:cc="http://creativecommons.org/ns#"
   xmlns:rdf="http://www.w3.org/1999/02/22-rdf-syntax-ns#"
   xmlns:svg="http://www.w3.org/2000/svg"
   xmlns="http://www.w3.org/2000/svg"
   xmlns:sodipodi="http://sodipodi.sourceforge.net/DTD/sodipodi-0.dtd"
   xmlns:inkscape="http://www.inkscape.org/namespaces/inkscape"
   fill="#9E9E9E"
   width="48"
   height="48"
   viewBox="0 0 48 48"
   id="svg2"
   version="1.1"
   inkscape:version="0.91 r13725"
   sodipodi:docname="xfce-display-extend1.svg">
  <metadata
     id="metadata10">
    <rdf:RDF>
      <cc:Work
         rdf:about="">
        <dc:format>image/svg+xml</dc:format>
        <dc:type
           rdf:resource="http://purl.org/dc/dcmitype/StillImage" />
        <dc:title />
      </cc:Work>
    </rdf:RDF>
  </metadata>
  <defs
     id="defs8" />
  <sodipodi:namedview
     pagecolor="#ffffff"
     bordercolor="#666666"
     borderopacity="1"
     objecttolerance="10"
     gridtolerance="10"
     guidetolerance="10"
     inkscape:pageopacity="0"
     inkscape:pageshadow="2"
     inkscape:window-width="1366"
     inkscape:window-height="713"
     id="namedview6"
     showgrid="false"
     inkscape:snap-bbox="true"
     inkscape:bbox-nodes="true"
     inkscape:zoom="2.262305825666096"
     inkscape:cx="48.69603636468248"
     inkscape:cy="-16.37757376685159"
     inkscape:window-x="0"
     inkscape:window-y="30"
     inkscape:window-maximized="1"
     inkscape:current-layer="svg2"
     inkscape:object-paths="true"
     inkscape:snap-intersection-paths="true"
     inkscape:object-nodes="true"
     inkscape:snap-smooth-nodes="true"
     inkscape:snap-midpoints="true"
     inkscape:snap-nodes="false"
     inkscape:snap-page="true" />
  <path
     inkscape:connector-curvature="0"
     id="path4632"
     d="m -56.89298870807849,24.58023758546494 c -2.01454551458359,0 -3.63671875,1.56099999999999 -3.63671875,3.5 l 0,21 c 0,1.939 1.62217323541641,3.5 3.63671875,3.5 l 32.7265625,0 c 2.01454551458359,0 3.63671875,-1.561 3.63671875,-3.5 l 0,-21 c 0,-1.93900000000002 -1.62217323541641,-3.5 -3.63671875,-3.5 l -32.7265625,0 z m 0.36328125,4 32,0 0,20 -32,0 0,-20 z"
     style="opacity:1;fill:#9E9E9E;fill-opacity:1;fill-rule:nonzero;stroke:none;stroke-width:4;stroke-miterlimit:4;stroke-dasharray:none;stroke-opacity:1" />
  <path
     style="opacity:1;fill:#9E9E9E;fill-opacity:1;fill-rule:nonzero;stroke:none;stroke-width:4;stroke-miterlimit:4;stroke-dasharray:none;stroke-opacity:1"
     d="m -64.89298870807849,32.580237585465 c -2.01454551458357,0 -3.63671875,1.56099999999999 -3.63671875,3.5 l 0,21 c 0,1.93899999999999 1.62217323541643,3.5 3.63671875,3.5 l 32.7265625,0 c 2.01454551458359,0 3.63671875,-1.56100000000001 3.63671875,-3.5 l 0,-21 c 0,-1.93900000000002 -1.62217323541641,-3.5 -3.63671875,-3.5 l -32.7265625,0 z m 0.36328125,4 32,0 0,20 -32,0 0,-20 z"
     id="rect4278"
     inkscape:connector-curvature="0" />
  <path
     style="opacity:1;fill:#9E9E9E;fill-opacity:1;fill-rule:nonzero;stroke:none;stroke-width:4;stroke-miterlimit:4;stroke-dasharray:none;stroke-opacity:1"
     d="M 2.91015625,28 C 1.298519838333112,28 1.110223024625156e-14,29.11499999999999 0,30.5 l 0,15 C 0,46.88499999999999 1.298519838333112,48 2.91015625,48 l 26.181640625,0 C 30.70343328666687,48 32,46.88499999999999 32,45.5 l 0,-15 C 32,29.11499999999998 30.70343328666687,28 29.091796875,28 L 2.91015625,28 Z M 4,32 28,32 28,44 4,44 4,32 Z"
     id="path4638"
     inkscape:connector-curvature="0" />
  <path
     inkscape:connector-curvature="0"
     id="path4665"
     d="M 18.91015625,8 C 17.29851983833311,8 16.00000000000001,9.114999999999989 16,10.5 l 0,15 c 0,1.38499999999999 1.29851983833311,2.5 2.91015625,2.5 l 26.181640625,0 C 46.70343328666687,28 48,26.88499999999999 48,25.5 l 0,-15 C 48,9.11499999999998 46.70343328666687,8 45.091796875,8 L 18.91015625,8 Z M 20,12 l 24,0 0,12 -24,0 0,-12 z"
     style="opacity:1;fill:#9E9E9E;fill-opacity:1;fill-rule:nonzero;stroke:none;stroke-width:4;stroke-miterlimit:4;stroke-dasharray:none;stroke-opacity:1" />
</svg>
