<?xml version="1.0" encoding="UTF-8" standalone="no"?>
<svg
   xmlns:dc="http://purl.org/dc/elements/1.1/"
   xmlns:cc="http://creativecommons.org/ns#"
   xmlns:rdf="http://www.w3.org/1999/02/22-rdf-syntax-ns#"
   xmlns:svg="http://www.w3.org/2000/svg"
   xmlns="http://www.w3.org/2000/svg"
   xmlns:sodipodi="http://sodipodi.sourceforge.net/DTD/sodipodi-0.dtd"
   xmlns:inkscape="http://www.inkscape.org/namespaces/inkscape"
   fill="#3F51B5"
   width="48"
   height="48"
   viewBox="0 0 48 48"
   id="svg2"
   version="1.1"
   inkscape:version="0.91 r13725"
   sodipodi:docname="audio-card2.svg">
  <metadata
     id="metadata10">
    <rdf:RDF>
      <cc:Work
         rdf:about="">
        <dc:format>image/svg+xml</dc:format>
        <dc:type
           rdf:resource="http://purl.org/dc/dcmitype/StillImage" />
      </cc:Work>
    </rdf:RDF>
  </metadata>
  <defs
     id="defs8" />
  <sodipodi:namedview
     pagecolor="#ffffff"
     bordercolor="#666666"
     borderopacity="1"
     objecttolerance="10"
     gridtolerance="10"
     guidetolerance="10"
     inkscape:pageopacity="0"
     inkscape:pageshadow="2"
     inkscape:window-width="1366"
     inkscape:window-height="713"
     id="namedview6"
     showgrid="false"
     inkscape:snap-bbox="true"
     inkscape:bbox-nodes="true"
     inkscape:snap-bbox-edge-midpoints="true"
     inkscape:object-paths="true"
     inkscape:snap-intersection-paths="true"
     inkscape:object-nodes="true"
     inkscape:snap-midpoints="true"
     inkscape:snap-smooth-nodes="true"
     inkscape:snap-nodes="false"
     inkscape:bbox-paths="true"
     inkscape:zoom="16.57675249082501"
     inkscape:cx="2.850609678013855"
     inkscape:cy="-0.6828582638105978"
     inkscape:window-x="0"
     inkscape:window-y="30"
     inkscape:window-maximized="1"
     inkscape:current-layer="svg2" />
  <path
     style="opacity:1;fill:#3F51B5;fill-opacity:1;fill-rule:nonzero;stroke:none;stroke-width:4;stroke-miterlimit:4;stroke-dasharray:none;stroke-opacity:1"
     d="M 8 10 C 5.784000000000001 10 4 11.784 4 14 L 4 34 C 4.000000000000001 36.216 5.784 38 8 38 L 14.5 38 L 14.5 41 L 14.5 45.71484375 C 14.49999999999999 46.42712945485115 15.34779053770978 47 16.400390625 47 L 31.599609375 47 C 32.65220946229023 47.00000000000001 33.5 46.42712945485114 33.5 45.71484375 L 33.5 39.28515625 L 33.5 38 L 40 38 C 42.216 38 44 36.216 44 34 L 44 14 C 44 11.784 42.216 10 40 10 L 8 10 z M 24 14 L 32 14 L 32 18 L 26 18 L 26 29 C 26 31.76 23.75999999999999 34 21 34 C 18.24 34 16 31.76 16 29 C 16 26.24000000000001 18.24 24 21 24 C 22.12999999999999 24 23.15999999999999 24.38953125 24 25.01953125 L 24 14 z M 16.5 39 L 19.5 39 L 19.5 45 L 16.5 45 L 16.5 39 z M 22.5 39 L 25.5 39 L 25.5 45 L 22.5 45 L 22.5 39 z M 28.5 39 L 31.5 39 L 31.5 45 L 28.5 45 L 28.5 39 z "
     id="path4314" />
</svg>
