<svg fill="#00c853" height="48" viewBox="0 0 48 48" width="48" xmlns="http://www.w3.org/2000/svg"><path d="m10 6c-2.21 0-4 1.79-4 4v28c0 2.21 1.79 4 4 4h28c2.21 0 4-1.79 4-4v-28c0-2.21-1.79-4-4-4zm3.519531 2.939453h1.484375v1.300781h-1.484375zm6.347657 2.794922c.813802 0 1.446777.32373 1.898437.970703.455729.642904.683594 1.491048.683594 2.544922v.128906c0 .960287-.226074 1.734212-.677735 2.324219-.45166.590007-1.079101.886719-1.884765.886719-.374349 0-.707194-.068848-.996094-.203125-.2889-.134278-.536621-.33138-.744141-.591797v3.205078h-1.482422v-9.142578h1.25l.146485.830078c.211588-.309245.466634-.546224.763672-.708984.301107-.162761.648274-.244141 1.042969-.244141zm6.537109 0c.891113 0 1.572917.271322 2.044922.8125.476074.537109.714843 1.258626.714843 2.166016v.873047h-4.121093l-.011719.03125c.024414.524902.17627.95345.457031 1.287109.284831.333659.679199.5 1.179688.5.398763 0 .74056-.048828 1.02539-.146485.284831-.097656.55778-.236816.822266-.419921l.476563.970703c-.24821.219726-.577312.404134-.988282.554687-.41097.150554-.886556.226563-1.427734.226563-.935873 0-1.68278-.305664-2.240234-.916016-.553386-.61442-.830079-1.401042-.830079-2.361328v-.246094c0-.960286.274903-1.754069.824219-2.384765.553386-.634766 1.244141-.951335 2.074219-.947266zm6.292969 0c.394694 0 .740071.086914 1.037109.257813.301107.166829.556152.407226.763672.724609l.146484-.859375h1.232422v6.603516c0 .850423-.262207 1.506835-.787109 1.970703-.524903.463867-1.27002.697265-2.234375.697265-.321452 0-.66862-.047038-1.042969-.140625-.37028-.089518-.706706-.210774-1.007812-.361328l.318359-1.166015c.244141.126139.511719.223795.804687.292968.297038.073242.602702.111328.916016.111328.537109 0 .929525-.115722 1.177734-.347656.24821-.227864.373047-.580566.373047-1.05664v-.677735c-.207519.264486-.45345.465169-.738281.603516-.280762.134277-.604492.203125-.970703.203125-.809733 0-1.444499-.296712-1.904297-.886719s-.689453-1.363932-.689453-2.324219v-.128906c0-1.049805.229655-1.897949.689453-2.544922s1.098145-.970703 1.916016-.970703zm-19.140625.123047h1.482421v6.988281c0 .728353-.187988 1.2889-.566406 1.683594-.378418.398763-.906575.599609-1.582031.599609-.146484 0-.278483-.009114-.396484-.02539-.118002-.016276-.240886-.043457-.371094-.080078l.083984-1.183594c.069173.020345.156087.036621.257813.048828.101725.016276.195801.02539.28125.02539.252278 0 .449381-.088704.591797-.263671.146484-.170899.21875-.438477.21875-.804688zm12.847656 1.068359c-.366211 0-.666341.146485-.902344.439453-.236002.2889-.382487.655925-.439453 1.103516l.011719.03125h2.61914v-.152344c0-.419108-.108561-.760905-.324218-1.02539-.211589-.264486-.533529-.396485-.964844-.396485zm-6.951172.023438c-.309245 0-.571452.066894-.787109.201172-.215658.130208-.389323.312825-.519532.548828v2.986328c.130209.231933.303874.41097.519532.537109.215657.122071.481445.181641.798828.181641.504557 0 .880696-.184408 1.128906-.554688.252279-.374349.378906-.86442.378906-1.470703v-.128906c0-.675456-.128418-1.227051-.384765-1.654297-.252279-.431315-.630209-.646484-1.134766-.646484zm13.623047 0c-.508626 0-.886556.213379-1.134766.640625-.24414.427246-.367187.980631-.367187 1.660156v.128906c0 .606283.119303 1.092774.359375 1.458985.24414.362142.622233.542968 1.130859.542968.317383 0 .583171-.065104.798828-.195312.219727-.134277.396973-.326009.53125-.574219v-2.892578c-.138346-.240072-.317383-.428223-.537109-.5625-.215658-.138346-.476074-.207031-.78125-.207031zm-4.076172 11.050781 9 12h-28l7-9 5 6.009766z" fill="#00c853"/></svg>