<svg xmlns="http://www.w3.org/2000/svg" fill="#9E9E9E" viewBox="0 0 48 48"><path d="m10 6c-2.21 0-4 1.79-4 4v28c0 2.21 1.79 4 4 4h28c2.21 0 4-1.79 4-4v-28c0-2.21-1.79-4-4-4h-28m14 6.875c3.512 0 6.357 2.845 6.357 6.357 0 1.399-.565 2.662-1.486 3.584l-1.422 1.461c-1.144 1.144-1.859 2.106-1.859 4.49h-3.18v-.795c0-1.756.715-3.346 1.859-4.498l1.979-2c.572-.572.93-1.366.93-2.24 0-1.756-1.422-3.178-3.178-3.178-1.756 0-3.178 1.422-3.178 3.178h-3.18c0-3.512 2.845-6.357 6.357-6.357m-1.59 19.07h3.18v3.18h-3.18v-3.18"/></svg>