<?xml version="1.0" encoding="UTF-8" standalone="no"?>
<svg
   xmlns:dc="http://purl.org/dc/elements/1.1/"
   xmlns:cc="http://creativecommons.org/ns#"
   xmlns:rdf="http://www.w3.org/1999/02/22-rdf-syntax-ns#"
   xmlns:svg="http://www.w3.org/2000/svg"
   xmlns="http://www.w3.org/2000/svg"
   xmlns:sodipodi="http://sodipodi.sourceforge.net/DTD/sodipodi-0.dtd"
   xmlns:inkscape="http://www.inkscape.org/namespaces/inkscape"
   fill="#4CAF50"
   width="48"
   height="48"
   viewBox="0 0 48 48"
   id="svg2"
   version="1.1"
   inkscape:version="0.91 r13725"
   sodipodi:docname="zoom-original-symbolic.svg">
  <metadata
     id="metadata10">
    <rdf:RDF>
      <cc:Work
         rdf:about="">
        <dc:format>image/svg+xml</dc:format>
        <dc:type
           rdf:resource="http://purl.org/dc/dcmitype/StillImage" />
      </cc:Work>
    </rdf:RDF>
  </metadata>
  <defs
     id="defs8" />
  <sodipodi:namedview
     pagecolor="#ffffff"
     bordercolor="#666666"
     borderopacity="1"
     objecttolerance="10"
     gridtolerance="10"
     guidetolerance="10"
     inkscape:pageopacity="0"
     inkscape:pageshadow="2"
     inkscape:window-width="1366"
     inkscape:window-height="713"
     id="namedview6"
     showgrid="false"
     inkscape:snap-bbox="true"
     inkscape:bbox-nodes="true"
     inkscape:zoom="10.73600260416667"
     inkscape:cx="9.096873957733241"
     inkscape:cy="20.2742184894333"
     inkscape:window-x="0"
     inkscape:window-y="30"
     inkscape:window-maximized="1"
     inkscape:current-layer="svg2" />
  <path
     d="M 10 6 C 7.79 6 6.000000000000001 7.790000000000001 6 10 L 6 38 C 6 40.21 7.790000000000001 42 10 42 L 38 42 C 40.21 42 42 40.21 42 38 L 42 10 C 42 7.79 40.21 6.000000000000001 38 6 L 10 6 z M 24 14 C 29.52222222222222 14.00000000000001 34 18.47777777777779 34 24 C 34 29.52222222222223 29.52222222222222 34 24 34 C 21.71111111111111 33.99999999999999 19.60490451388889 33.22187500000001 17.916015625 31.921875 L 19.48828125 30.328125 C 20.76605902777776 31.23923611111111 22.31666666666667 31.77734375 24 31.77734375 C 28.29444444444445 31.77734375 31.77734375 28.29444444444445 31.77734375 24 C 31.77734375 19.70555555555556 28.29444444444445 16.22265625 24 16.22265625 C 19.70555555555557 16.22265625 16.22265625 19.70555555555556 16.22265625 24 L 19.5546875 24 L 15.111328125 28.4453125 L 10.666015625 24 L 14 24 C 14 18.47777777777779 18.47777777777778 14 24 14 z M 24 21.77734375 C 25.22777777777778 21.77734375 26.22265625 22.77222222222223 26.22265625 24 C 26.22265625 25.22777777777778 25.22777777777778 26.22265625 24 26.22265625 C 22.77222222222224 26.22265625 21.77734375 25.22777777777778 21.77734375 24 C 21.77734375 22.77222222222222 22.77222222222223 21.77734375 24 21.77734375 z "
     id="path4153" />
</svg>
