<?xml version="1.0" encoding="UTF-8" standalone="no"?>
<svg
   xmlns:dc="http://purl.org/dc/elements/1.1/"
   xmlns:cc="http://creativecommons.org/ns#"
   xmlns:rdf="http://www.w3.org/1999/02/22-rdf-syntax-ns#"
   xmlns:svg="http://www.w3.org/2000/svg"
   xmlns="http://www.w3.org/2000/svg"
   xmlns:sodipodi="http://sodipodi.sourceforge.net/DTD/sodipodi-0.dtd"
   xmlns:inkscape="http://www.inkscape.org/namespaces/inkscape"
   fill="#4CAF50"
   width="48"
   height="48"
   viewBox="0 0 48 48"
   id="svg2"
   version="1.1"
   inkscape:version="0.91 r13725"
   sodipodi:docname="sleep.svg">
  <metadata
     id="metadata10">
    <rdf:RDF>
      <cc:Work
         rdf:about="">
        <dc:format>image/svg+xml</dc:format>
        <dc:type
           rdf:resource="http://purl.org/dc/dcmitype/StillImage" />
      </cc:Work>
    </rdf:RDF>
  </metadata>
  <defs
     id="defs8" />
  <sodipodi:namedview
     pagecolor="#ffffff"
     bordercolor="#666666"
     borderopacity="1"
     objecttolerance="10"
     gridtolerance="10"
     guidetolerance="10"
     inkscape:pageopacity="0"
     inkscape:pageshadow="2"
     inkscape:window-width="1366"
     inkscape:window-height="713"
     id="namedview6"
     showgrid="false"
     inkscape:snap-bbox="true"
     inkscape:bbox-nodes="true"
     inkscape:zoom="5.368001304915686"
     inkscape:cx="-1.258971410454912"
     inkscape:cy="23.77411371207903"
     inkscape:window-x="0"
     inkscape:window-y="30"
     inkscape:window-maximized="1"
     inkscape:current-layer="svg2" />
  <path
     d="M 44,11.44 34.81,3.729999999999999 32.24,6.79 41.43,14.5 44,11.44 Z"
     id="path4150" />
  <path
     d="M 15.76,6.780000000000001 13.19,3.72 4,11.43 6.570000000000001,14.49 15.76,6.780000000000001 Z"
     id="path4148" />
  <path
     d="M 23.990234375 8 C 14.040234375 8 6.000000000000007 16.06 6 26 C 6 35.94 14.040234375 44 23.990234375 44 C 33.940234375 44 42 35.94 42 26 C 42 16.06 33.940234375 7.999999999999996 23.990234375 8 z M 24 12 C 31.73 12 37.99999999999999 18.27 38 26 C 38 33.73000000000001 31.74 40 24 40 C 16.27 40 10.00000000000001 33.73000000000001 10 26 C 10 18.26999999999999 16.27 12 24 12 z "
     id="path4144" />
  <text
     xml:space="preserve"
     style="font-style:normal;font-variant:normal;font-weight:normal;font-stretch:normal;font-size:15px;line-height:125%;font-family:Roboto;-inkscape-font-specification:'Roboto, Normal';text-align:center;letter-spacing:0px;word-spacing:0px;writing-mode:lr-tb;text-anchor:middle;fill:#4CAF50;fill-opacity:1;stroke:none;stroke-width:1px;stroke-linecap:butt;stroke-linejoin:miter;stroke-opacity:1"
     x="23.939575"
     y="33.709999"
     id="text4138"
     sodipodi:linespacing="125%"><tspan
       sodipodi:role="line"
       id="tspan4140"
       x="23.939575"
       y="33.709999"
       style="font-style:normal;font-variant:normal;font-weight:bold;font-stretch:normal;font-size:22.5px;line-height:125%;font-family:Roboto;-inkscape-font-specification:'Roboto, Bold';text-align:center;writing-mode:lr-tb;text-anchor:middle">Z</tspan></text>
</svg>
