<?xml version="1.0" encoding="UTF-8" standalone="no"?>
<svg
   xmlns:dc="http://purl.org/dc/elements/1.1/"
   xmlns:cc="http://creativecommons.org/ns#"
   xmlns:rdf="http://www.w3.org/1999/02/22-rdf-syntax-ns#"
   xmlns:svg="http://www.w3.org/2000/svg"
   xmlns="http://www.w3.org/2000/svg"
   xmlns:sodipodi="http://sodipodi.sourceforge.net/DTD/sodipodi-0.dtd"
   xmlns:inkscape="http://www.inkscape.org/namespaces/inkscape"
   fill="#607D8B"
   width="48"
   height="48"
   viewBox="0 0 48 48"
   id="svg2"
   version="1.1"
   inkscape:version="0.91 r13725"
   sodipodi:docname="folder-collection.svg">
  <metadata
     id="metadata10">
    <rdf:RDF>
      <cc:Work
         rdf:about="">
        <dc:format>image/svg+xml</dc:format>
        <dc:type
           rdf:resource="http://purl.org/dc/dcmitype/StillImage" />
        <dc:title />
      </cc:Work>
    </rdf:RDF>
  </metadata>
  <defs
     id="defs8" />
  <sodipodi:namedview
     pagecolor="#ffffff"
     bordercolor="#666666"
     borderopacity="1"
     objecttolerance="10"
     gridtolerance="10"
     guidetolerance="10"
     inkscape:pageopacity="0"
     inkscape:pageshadow="2"
     inkscape:window-width="1366"
     inkscape:window-height="713"
     id="namedview6"
     showgrid="false"
     inkscape:zoom="8.739158711327772"
     inkscape:cx="12.14715142918095"
     inkscape:cy="29.06911358283045"
     inkscape:window-x="0"
     inkscape:window-y="30"
     inkscape:window-maximized="1"
     inkscape:current-layer="svg2"
     inkscape:snap-bbox="true"
     inkscape:bbox-nodes="true" />
  <path
     d="m 8,12 -4,0 0,28 c 0,2.21 1.79,4 4,4 l 28,0 0,-4 -28,0 0,-28 z"
     id="path4146"
     style="fill:#294172;fill-opacity:1" />
  <path
     d="m 16,4 c -2.21,0 -4,1.790000000000001 -4,4 l 0,24 c 0,2.21 1.79,4 4,4 l 24,0 c 2.21,0 4,-1.79 4,-4 L 44,8 C 44,5.79 42.21,4.000000000000001 40,4 L 16,4 Z"
     id="path4195"
     style="fill:#294172;fill-opacity:1" />
  <path
     style="fill:none;stroke:#3c6eb4;stroke-width:2.5357553959"
     inkscape:connector-curvature="0"
     d="m 23.42135992075122,19.56702913488304 c 0,0 4.15348222280671,0 4.15348222280671,0 0,0 0,4.15348222280668 0,4.15348222280668 0,2.29268399005798 -1.86071142154121,4.15348222280667 -4.15348222280671,4.15348222280667 -2.29268399005788,0 -4.15348222280658,-1.86071142154118 -4.15348222280658,-4.15348222280667 0,-2.29268399005799 1.8607114215412,-4.15348222280668 4.15348222280658,-4.15348222280668 z"
     id="0" />
  <path
     id="use4254"
     d="m 31.7074896765648,19.57484214355799 c 0,0 -4.15348222280671,0 -4.15348222280671,0 0,0 0,-4.15348222280668 0,-4.15348222280668 0,-2.29268399005798 1.86071142154122,-4.15348222280667 4.15348222280671,-4.15348222280667 2.29268399005789,0 4.15348222280659,1.86071142154118 4.15348222280659,4.15348222280667 0,2.29268399005799 -1.86071142154121,4.15348222280668 -4.15348222280659,4.15348222280668 z"
     inkscape:connector-curvature="0"
     style="fill:none;stroke:#3c6eb4;stroke-width:2.5357553959" />
  <path
     style="fill:#ffffff"
     inkscape:connector-curvature="0"
     d="m 28.84532416531104,18.30218984161743 0,5.41267878758482 c 0,2.99533390355776 -2.4285435297945,5.42396424455973 -5.42396424455982,5.42396424455973 -0.45445667125909,0 -0.7774811743642,-0.0513054236321 -1.19816828590601,-0.16129522353381 -0.6137552370205,-0.1605139226663 -1.11465590429179,-0.66349805891757 -1.11491633791429,-1.24843197504823 0,-0.70707728508225 0.5132278587362,-1.22143368951593 1.28046531061551,-1.22143368951593 0.36512793874229,0 0.49768865259381,0.0701434556595 1.0326193132048,0.0701434556595 1.57909586441329,0 2.86025566468879,-1.27916314250299 2.86303362332879,-2.85843262933129 l 0,-2.48774877330904 c 0,-0.22293118085834 -0.1811749900512,-0.40349849245701 -0.40445341573951,-0.40349849245701 l -1.88076481047361,-3.4724482998e-4 c -0.7005664445197,0 -1.26692276224552,-0.55889055388086 -1.26692276224552,-1.26162727858814 -3.4724483001e-4,-0.70707728508225 0.5719990462132,-1.26371074756812 1.28029168820049,-1.26371074756812"
     id="1" />
  <path
     id="use4257"
     d="m 26.28352543200498,20.8396814368236 0,-5.41267878758482 c 0,-2.99533390355776 2.4285435297945,-5.42396424455973 5.42396424455982,-5.42396424455973 0.4544566712591,0 0.7774811743642,0.0513054236321 1.19816828590601,0.16129522353381 0.6137552370205,0.1605139226663 1.1146559042918,0.66349805891757 1.11491633791429,1.24843197504823 0,0.70707728508225 -0.51322785873619,1.22143368951593 -1.2804653106155,1.22143368951593 -0.36512793874229,0 -0.49768865259382,-0.0701434556595 -1.03261931320481,-0.0701434556595 -1.57909586441329,0 -2.86025566468879,1.27916314250299 -2.86303362332879,2.85843262933129 l 0,2.48774877330904 c 0,0.22293118085834 0.1811749900512,0.40349849245701 0.40445341573951,0.40349849245701 l 1.88076481047362,3.4724482998e-4 c 0.7005664445197,0 1.26692276224552,0.55889055388086 1.26692276224552,1.26162727858814 3.4724483001e-4,0.70707728508225 -0.5719990462132,1.26371074756812 -1.28029168820049,1.26371074756812"
     inkscape:connector-curvature="0"
     style="fill:#ffffff" />
  <path
     style="fill:#3c6eb4"
     inkscape:connector-curvature="0"
     d="m 37.87716219354393,28.37663047191766 c 0,0 0,-0.48015278867895 0,-0.48015278867895 l -0.21954554376589,0.50333138108127 c 0,0 -0.21364238165588,-0.50333138108127 -0.21364238165588,-0.50333138108127 l 0,0.48015278867895 -0.12309829223401,0 0,-0.75829589750688 0.1290882655515,0 c 0,0 0.2112984790534,0.48449334905391 0.2112984790534,0.48449334905391 l 0.20808646437601,-0.48449334905391 0.13065086728651,0 0,0.75829589750688 -0.1229246698191,0 m -0.89702020709081,-0.63129110093531 0,0.63129110093531 -0.12865420951411,0 0,-0.63129110093531 -0.2157258506359,0 0,-0.12700479657156 0.55984547716341,0 0,0.12700479657156"
     id="path4259" />
</svg>
