<svg xmlns="http://www.w3.org/2000/svg" width="351.46" viewBox="0 0 351.4570161118423 338.579736536538"><path d="m210.08 0l-9.932 13.688c-13.267 19.523-14.567 43.769-5.365 65.33 9.709 22.886 29.6 40.842 52.816 49.35.958.357 1.913.674 2.883 1 .424.129.845.274 1.271.4 1.367.43 2.725.931 4.139 1.197 64.16 12.396 81.56-32.924 86.19-39.594-15.242 21.947-40.857 27.21-72.29 19.588-2.479-.605-5.21-1.502-7.605-2.35-3.069-1.094-6.092-2.341-9.03-3.752-5.585-2.681-10.9-5.934-15.836-9.66-28.12-21.34-45.594-62.05-27.24-95.21m-72.78 15.887l-18.387 25.953c-22.503 32.384-21.283 75.73-3.729 109.98 2.944 5.742 6.253 11.311 9.953 16.615 3.372 4.831 7.109 10.582 11.584 14.465 1.623 1.786 3.319 3.529 5.05 5.242.438.445.883.876 1.33 1.313 1.681 1.63 3.392 3.234 5.16 4.791.073.058.136.132.209.184.018.021.036.028.049.051 1.956 1.713 3.975 3.36 6.03 4.982.456.347.906.711 1.365 1.068 2.057 1.575 4.154 3.125 6.305 4.602.064.044.118.092.184.139.947.656 1.914 1.266 2.875 1.896.461.3.898.619 1.363.9 1.535.984 3.09 1.942 4.67 2.861.224.139.443.256.662.383 1.362.784 2.743 1.556 4.129 2.307.481.271.975.513 1.467.768.955.5 1.913 1.01 2.887 1.494.146.069.3.135.439.197 1.983.977 3.983 1.917 6.03 2.807.434.193.886.364 1.33.547 1.63.692 3.281 1.372 4.938 2.01.704.267 1.414.52 2.113.775 1.506.559 3.02 1.069 4.537 1.58.688.219 1.362.442 2.051.654 2.162.671 4.303 1.521 6.559 1.896 116.19 19.25 143.01-70.21 143.01-70.21-24.18 34.824-71.01 51.44-120.98 38.471-2.217-.584-4.404-1.219-6.576-1.904-.668-.2-1.319-.418-1.979-.637-1.545-.5-3.081-1.032-4.605-1.586-.696-.256-1.392-.511-2.076-.773-1.667-.642-3.318-1.305-4.951-1.998-.449-.189-.898-.364-1.336-.564-2.052-.894-4.071-1.834-6.06-2.818-1.024-.499-2.03-1.027-3.041-1.545-.583-.303-1.171-.605-1.754-.904-1.295-.701-2.581-1.432-3.846-2.17-.303-.173-.617-.337-.924-.52-1.57-.921-3.119-1.868-4.654-2.844-.474-.301-.931-.629-1.404-.938-1.014-.656-2.02-1.322-3.02-1.996-2.14-1.477-4.223-3.03-6.279-4.594-.474-.374-.947-.739-1.414-1.113-21.871-17.27-39.21-40.868-47.45-67.63-8.638-27.753-6.777-58.905 8.189-84.19m-90.69 32.826l-24.287 30.807c-31.12 44.727-27.24 102.91-3.473 150.43.565 1.138 1.158 2.262 1.742 3.381.374.711.723 1.441 1.111 2.141.219.42.465.83.693 1.23.405.759.82 1.479 1.24 2.219.738 1.302 1.495 2.595 2.27 3.889.428.711.85 1.422 1.293 2.133.857 1.386 1.736 2.754 2.635 4.121.374.583.738 1.165 1.121 1.73 1.24 1.849 2.506 3.694 3.813 5.506.033.048.069.098.109.145.206.288.435.572.645.863 1.13 1.561 2.297 3.1 3.477 4.623.434.555.871 1.112 1.309 1.666 1.052 1.324 2.125 2.637 3.213 3.949.407.488.817.983 1.227 1.465 1.462 1.721 2.953 3.435 4.475 5.111.027.029.064.066.092.096.064.073.118.115.172.188 1.486 1.623 3.01 3.209 4.549 4.795.478.492.965.986 1.457 1.471 1.194 1.203 2.406 2.384 3.631 3.561.498.475.99.96 1.486 1.412 1.637 1.542 3.291 3.055 4.977 4.531.029.025.05.048.078.063.286.255.584.496.867.74 1.486 1.287 2.999 2.562 4.521 3.816.62.503 1.248.995 1.871 1.494 1.245.996 2.503 1.979 3.77 2.945.669.511 1.34 1.021 2.01 1.531 1.398 1.028 2.808 2.041 4.23 3.033.518.375 1.021.74 1.541 1.094.144.102.276.204.422.303 1.349.93 2.729 1.823 4.107 2.717.593.394 1.18.803 1.777 1.186 2.114 1.338 4.261 2.661 6.43 3.938.589.339 1.183.666 1.775 1 1.595.922 3.2 1.822 4.826 2.709.88.474 1.783.919 2.672 1.375 1.146.602 2.285 1.211 3.451 1.795.265.131.54.259.799.387.47.226.943.444 1.414.682 1.808.863 3.63 1.713 5.473 2.533.392.176.771.347 1.158.518 2.109.923 4.235 1.809 6.383 2.654.516.212 1.038.407 1.557.611 1.987.766 4 1.52 6.02 2.23.255.092.501.176.756.264 2.219.776 4.462 1.494 6.719 2.197.538.157 1.078.329 1.621.486 2.297.692 4.566 1.52 6.936 1.957 150.49 27.442 194.2-90.43 194.2-90.43-36.713 47.829-101.88 60.45-163.62 46.4-2.341-.528-4.611-1.257-6.893-1.932-.58-.171-1.148-.346-1.719-.521-2.228-.682-4.439-1.4-6.635-2.158-.301-.109-.605-.219-.912-.328-1.969-.693-3.915-1.422-5.852-2.17-.547-.219-1.094-.427-1.641-.646-2.124-.838-4.233-1.712-6.316-2.623-.429-.183-.839-.376-1.262-.559-1.792-.812-3.563-1.63-5.328-2.48-.51-.244-1.02-.485-1.539-.74-1.386-.675-2.756-1.392-4.123-2.096-.915-.48-1.845-.937-2.75-1.439-1.669-.894-3.307-1.823-4.939-2.771-.552-.31-1.112-.608-1.668-.93-2.169-1.275-4.313-2.598-6.434-3.939-.585-.372-1.157-.773-1.734-1.156-1.539-.991-3.071-2-4.578-3.045-.5-.335-.983-.7-1.475-1.035-1.457-1.028-2.896-2.07-4.328-3.127-.648-.481-1.286-.97-1.916-1.451-1.311-1-2.615-2.01-3.906-3.053-.583-.463-1.166-.929-1.74-1.395-1.641-1.349-3.263-2.707-4.863-4.1-.167-.146-.35-.29-.533-.447-1.731-1.521-3.432-3.081-5.113-4.648-.489-.467-.961-.918-1.439-1.385-1.245-1.185-2.471-2.379-3.674-3.604-.483-.481-.965-.954-1.439-1.436-1.531-1.567-3.035-3.158-4.508-4.77-.073-.08-.149-.152-.223-.236-1.559-1.702-3.081-3.445-4.572-5.203-.405-.484-.795-.948-1.197-1.422-1.112-1.342-2.216-2.697-3.291-4.068-.405-.488-.808-.995-1.207-1.502-1.296-1.681-2.561-3.358-3.801-5.061-34.28-46.757-46.593-111.25-19.2-164.21" fill="#0868ac"/></svg>