<?xml version="1.0" encoding="UTF-8" standalone="no"?>
<!-- Created with Inkscape (http://www.inkscape.org/) -->

<svg
   xmlns:dc="http://purl.org/dc/elements/1.1/"
   xmlns:cc="http://creativecommons.org/ns#"
   xmlns:rdf="http://www.w3.org/1999/02/22-rdf-syntax-ns#"
   xmlns:svg="http://www.w3.org/2000/svg"
   xmlns="http://www.w3.org/2000/svg"
   xmlns:sodipodi="http://sodipodi.sourceforge.net/DTD/sodipodi-0.dtd"
   xmlns:inkscape="http://www.inkscape.org/namespaces/inkscape"
   version="1.1"
   width="22"
   height="22"
   viewBox="0 0 22 22"
   id="svg2408"
   xml:space="preserve"
   inkscape:version="0.91 r13725"
   sodipodi:docname="autokey-status-dark.svg"><sodipodi:namedview
     pagecolor="#ffffff"
     bordercolor="#666666"
     borderopacity="1"
     objecttolerance="10"
     gridtolerance="10"
     guidetolerance="10"
     inkscape:pageopacity="0"
     inkscape:pageshadow="2"
     inkscape:window-width="1366"
     inkscape:window-height="713"
     id="namedview17"
     showgrid="false"
     inkscape:zoom="8.281636636637458"
     inkscape:cx="5.716616655190435"
     inkscape:cy="4.537522625248551"
     inkscape:window-x="0"
     inkscape:window-y="30"
     inkscape:window-maximized="1"
     inkscape:current-layer="svg2408"
     inkscape:snap-bbox="true"
     inkscape:bbox-nodes="true" /><metadata
     id="metadata106"><rdf:RDF><cc:Work
         rdf:about=""><dc:format>image/svg+xml</dc:format><dc:type
           rdf:resource="http://purl.org/dc/dcmitype/StillImage" /><dc:title /></cc:Work></rdf:RDF></metadata><defs
     id="defs104" /><filter
     x="-0.192"
     y="-0.192"
     width="1.3839999"
     height="1.3839999"
     color-interpolation-filters="sRGB"
     id="filter3794"><feGaussianBlur
       stdDeviation="5.28"
       id="feGaussianBlur3796" /></filter><filter
     color-interpolation-filters="sRGB"
     id="filter3218"><feGaussianBlur
       stdDeviation="1.71"
       id="feGaussianBlur3220" /></filter><g
     transform="translate(0,-74)"
     id="layer2"
     style="display:none"><g
       id="rect3745"
       style="opacity:0.9;display:inline;filter:url(#filter3218)"><linearGradient
         x1="37.867699"
         y1="-22.7129"
         x2="37.867699"
         y2="62.785599"
         id="SVGID_1_"
         gradientUnits="userSpaceOnUse"
         gradientTransform="matrix(1.0059,0,0,-0.9942,9.9104,69.4184)"><stop
           id="stop10"
           style="stop-color:#000000;stop-opacity:1"
           offset="0" /><stop
           id="stop12"
           style="stop-color:#000000;stop-opacity:0.58819997"
           offset="1" /></linearGradient><path
         d="m 12,7 h 72 c 3.866,0 7,3.134 7,7 v 71 c 0,3.866 -3.134,7 -7,7 H 12 C 8.134,92 5,88.866 5,85 V 14 C 5,10.134 8.134,7 12,7 z"
         id="path14"
         style="fill:url(#SVGID_1_)" /></g></g><g
     style="fill:#FF9800"
     id="g4148"
     transform="matrix(0.5,0,0,0.5,2,2)" /><path
     style="fill:#FF9800;fill-opacity:1;stroke:none"
     d="M 4,2 C 2.892,2 2,2.892 2,4 l 0,14 c 0,1.108 0.892,2 2,2 l 14,0 c 1.108,0 2,-0.892 2,-2 L 20,4 C 20,2.892 19.108,2 18,2 L 4,2 Z"
     id="path4146" /><path
     style="fill:#000000;fill-opacity:1;stroke:none"
     d="M 10.75390625 3.974609375 C 10.71715625 3.984068375 10.685671875 4.010632875 10.669921875 4.044921875 L 4.71484375 16.892578125 C 4.677349750000002 16.968916125 4.740644875 17.07251875 4.826171875 17.07421875 L 6.935546875 17.07421875 C 6.982130875000002 17.07346875 7.028011125 17.04528625 7.048828125 17.00390625 L 8.3984375 14.0859375 L 12.71484375 14.0859375 L 13.20703125 16.96875 C 13.21722725 17.027318 13.274114375 17.07440275 13.333984375 17.07421875 L 15.82421875 17.07421875 C 15.89826075 17.07433774999999 15.96117875 17.000274375 15.94921875 16.927734375 L 13.671875 4.080078125 C 13.661678 4.021508425000001 13.604791875 3.974425575 13.544921875 3.974609375 L 10.78125 3.974609375 C 10.77192 3.973579375 10.76320625 3.973579375 10.75390625 3.974609375 z M 11.583984375 6.689453125 L 12.455078125 12.111328125 L 9.28515625 12.111328125 L 11.583984375 6.689453125 z "
     id="rect3200" /></svg>