<?xml version="1.0" encoding="UTF-8" standalone="no"?>
<!-- Created with Inkscape (http://www.inkscape.org/) -->

<svg
   xmlns:dc="http://purl.org/dc/elements/1.1/"
   xmlns:cc="http://creativecommons.org/ns#"
   xmlns:rdf="http://www.w3.org/1999/02/22-rdf-syntax-ns#"
   xmlns:svg="http://www.w3.org/2000/svg"
   xmlns="http://www.w3.org/2000/svg"
   xmlns:xlink="http://www.w3.org/1999/xlink"
   xmlns:sodipodi="http://sodipodi.sourceforge.net/DTD/sodipodi-0.dtd"
   xmlns:inkscape="http://www.inkscape.org/namespaces/inkscape"
   version="1.1"
   width="35.17829132080078"
   height="18.38153457641602"
   id="svg1325"
   inkscape:version="0.91 r13725"
   sodipodi:docname="xfce4-panel.svg">
  <metadata
     id="metadata32">
    <rdf:RDF>
      <cc:Work
         rdf:about="">
        <dc:format>image/svg+xml</dc:format>
        <dc:type
           rdf:resource="http://purl.org/dc/dcmitype/StillImage" />
        <dc:title>Xfce Panel</dc:title>
      </cc:Work>
    </rdf:RDF>
  </metadata>
  <sodipodi:namedview
     pagecolor="#ffffff"
     bordercolor="#666666"
     borderopacity="1"
     objecttolerance="10"
     gridtolerance="10"
     guidetolerance="10"
     inkscape:pageopacity="0"
     inkscape:pageshadow="2"
     inkscape:window-width="1366"
     inkscape:window-height="713"
     id="namedview30"
     showgrid="false"
     inkscape:zoom="6.953216679833317"
     inkscape:cx="10.31991908762755"
     inkscape:cy="-0.3012608185783705"
     inkscape:window-x="0"
     inkscape:window-y="30"
     inkscape:window-maximized="1"
     inkscape:current-layer="svg1325"
     fit-margin-top="0"
     fit-margin-left="0"
     fit-margin-right="0"
     fit-margin-bottom="0" />
  <title
     id="title3450">Xfce Panel</title>
  <defs
     id="defs1327">
    <linearGradient
       id="linearGradient2270">
      <stop
         id="stop2272"
         style="stop-color:#ffffff;stop-opacity:1"
         offset="0" />
      <stop
         id="stop2274"
         style="stop-color:#ffffff;stop-opacity:0"
         offset="1" />
    </linearGradient>
    <linearGradient
       id="linearGradient2262">
      <stop
         id="stop2264"
         style="stop-color:#d3d7cf;stop-opacity:1"
         offset="0" />
      <stop
         id="stop2266"
         style="stop-color:#d3d7cf;stop-opacity:0"
         offset="1" />
    </linearGradient>
    <linearGradient
       id="linearGradient2252">
      <stop
         id="stop2254"
         style="stop-color:#888a85;stop-opacity:1"
         offset="0" />
      <stop
         id="stop2256"
         style="stop-color:#888a85;stop-opacity:0"
         offset="1" />
    </linearGradient>
    <linearGradient
       x1="31.87487411499023"
       y1="17.4375"
       x2="47.43766403198242"
       y2="17.4375"
       id="linearGradient2258"
       xlink:href="#linearGradient2252"
       gradientUnits="userSpaceOnUse"
       gradientTransform="translate(0,-8)" />
    <linearGradient
       x1="31.87289237976074"
       y1="20.6875"
       x2="46.70475387573242"
       y2="20.6875"
       id="linearGradient2268"
       xlink:href="#linearGradient2262"
       gradientUnits="userSpaceOnUse"
       gradientTransform="translate(0,-8)" />
    <linearGradient
       x1="23.9969596862793"
       y1="18.375"
       x2="45.75376129150391"
       y2="18.375"
       id="linearGradient1341"
       xlink:href="#linearGradient2270"
       gradientUnits="userSpaceOnUse"
       gradientTransform="translate(0,-8)" />
    <radialGradient
       cx="3.623922348022461"
       cy="2.004982471466064"
       r="23"
       fx="3.623922348022461"
       fy="2.004982471466064"
       id="radialGradient2218"
       xlink:href="#linearGradient2270"
       gradientUnits="userSpaceOnUse"
       gradientTransform="matrix(1.246687e-8,1.125998,-1.627297,0,6.886624000000002,6.531200000000001)" />
  </defs>
  <g
     style="fill:#000000;fill-opacity:0.5;stroke:none"
     id="g23"
     transform="matrix(0.20289449,0,0,0.20289449,-30.01385222393905,-69.62760525761629)">
    <path
       inkscape:connector-curvature="0"
       style="fill:#020202;fill-opacity:1;fill-rule:evenodd;stroke:#000002;stroke-width:1pt;stroke-linecap:butt;stroke-linejoin:miter;stroke-opacity:1"
       id="path14"
       transform="translate(4.86564,17.0296)"
       d="m 143.756,326.774 c 0.538,-0.09 13.953,6.991 22.97,9.438 16.079,4.109 30.756,16.476 37.85,23.58 0.526,0.608 6.093,-4.1679999999999 11.919,-3.824 7.958,0.482 32.582,7.406 35.872,2.6909999999999 C 254.362,355.891 254.219,352.495 256.708,351.1039999999999 c 1.34,-0.375 -4.981,-11.9359999999999 1.7370000000001,-15.64 4.79,-2.394 8.8489999999999,11.0090000000002 10.079,12.5110000000001 0.551,0.6720000000001 3.474,0.836 3.128,-0.695 C 271.2770000000001,345.617 266.549,332.756 272.347,330.598 c 9.417,-3.729 7.748,16.456 7.993,17.0299999999999 0.5210000000001,1.222 32.7970000000001,2.164 34.7540000000001,16.6820000000002 1.132,7.99 -25.858,18.317 -28.498,20.1569999999999 -2.639,1.84 -2.419,4.7830000000001 -1.39,6.604 1.183,1.9750000000001 9.046,8.6410000000001 7.994,11.816 -0.7230000000002,1.834 -15.3980000000001,-4.888 -16.335,-3.4750000000001 -2.137,2.699 10.683,9.455 6.256,14.2490000000001 -1.755,1.148 -21.947,-8.4540000000001 -21.896,-8.3410000000001 -0.542,0.2060000000001 -28.532,5.113 -50.046,-1.391 -0.758,-0.214 -13.808,12.606 -15.292,12.165 -2.029,-0.744 2.991,-11.1499999999999 2.433,-13.2069999999999 -0.912,-1.1460000000001 -9.251,4.653 -9.731,1.738 -0.574,-3.8310000000001 7.318,-8.2350000000001 6.951,-10.7740000000001 -2.035,-14.4239999999999 0.909,-22.8469999999999 5.908,-29.8879999999999 1.667,-2.592 -19.592,-18.646 -34.983,-24.982 -15.39,-6.336 -23.624,-11.706 -22.709,-12.207 z" />
    <path
       inkscape:connector-curvature="0"
       style="fill:#ffffff;fill-opacity:1;fill-rule:evenodd;stroke:#000000;stroke-width:0.6pt;stroke-linecap:butt;stroke-linejoin:miter;stroke-opacity:1"
       id="path7"
       d="m 286.934,392.031 c -0.1689999999999,-0.59 10.503,-7.045 12.048,-5.561 C 301.763,387.478 287.032,392.78 286.934,392.031 Z" />
    <path
       inkscape:connector-curvature="0"
       style="fill:#ffffff;fill-opacity:1;fill-rule:evenodd;stroke:#000000;stroke-width:0.6pt;stroke-linecap:butt;stroke-linejoin:miter;stroke-opacity:1"
       id="path8"
       d="m 292.031,397.901 c -0.94,-0.568 6.389,-9.114 8.187,-8.187 2.625,2.608 -8.31,8.39 -8.187,8.187 z" />
    <path
       inkscape:connector-curvature="0"
       style="fill:#020202;fill-opacity:1;fill-rule:evenodd;stroke:#000000;stroke-width:0.6pt;stroke-linecap:butt;stroke-linejoin:miter;stroke-opacity:1"
       id="path13"
       d="m 320.916,358.358 c -0.891,-0.737 -7.878,10.287 -6.333,11.431 0.929,0.695 6.731,-11.038 6.333,-11.431 z" />
    <ellipse
       style="fill:#ffffff;fill-opacity:1;fill-rule:evenodd;stroke:#000000;stroke-width:0.6pt;stroke-linecap:butt;stroke-linejoin:miter;stroke-opacity:1"
       id="ellipse17"
       transform="matrix(0.9253,0,0,0.933788,22.0283,24.352)"
       ry="3.39819598197937"
       rx="3.012037038803101"
       cy="374.5865478515625"
       cx="288.86474609375" />
    <path
       inkscape:connector-curvature="0"
       style="fill:#020202;fill-opacity:1;fill-rule:evenodd;stroke:#000000;stroke-width:0.6pt;stroke-linecap:butt;stroke-linejoin:miter;stroke-opacity:1"
       id="path18"
       transform="translate(-8.032099999999999,-1.54463)"
       d="m 320.916,358.358 c -0.441,-0.512 -2.781,11.368 -1.699,11.894 0.929,0.695 2.547,-11.276 1.699,-11.894 z" />
    <path
       inkscape:connector-curvature="0"
       style="fill:#ffffff;fill-opacity:1;fill-rule:evenodd;stroke:#000000;stroke-width:0.6pt;stroke-linecap:butt;stroke-linejoin:miter;stroke-opacity:1"
       id="path21"
       transform="translate(-38.3069,14.983)"
       d="m 321.366,357.908 c -2.771,1.959 1.521,13.045 8.58,6.572 -5.546,0.163 -7.396,-1.461 -8.58,-6.572 z" />
  </g>
</svg>
