<svg xmlns="http://www.w3.org/2000/svg" fill="#4CAF50" viewBox="0 0 48 48"><path d="m12 4c-2.21 0-3.98 1.79-3.98 4l-.02 32c0 2.21 1.77 4 3.98 4h24.02c2.21 0 4-1.79 4-4v-24l-12-12h-16m14 3l11 11h-11v-11m-7.969 14c.947 0 2.732.751 2.732 3.146 0 1.475-.555 2.329-1.41 3.57-.49.713-1.633 2.636-2.01 3.828-.381 1.187-.088 2.096.396 2.096.479 0 .937-.593 1.215-.914.25-.272 1.857-2.177 2.488-2.967.817-1.018 2.923-3.098 5.373-3.098 3.201 0 4.223 2.77 4.387 4.566h2.689v2.723h-2.674c-.43 5.193-3.336 6.641-5.105 6.641-1.922 0-3.49-1.513-3.49-3.369 0-1.856 1.737-5.15 5.863-5.857-.12-.855-.141-1.955-1.916-1.955-1.361 0-3.124 2.124-4.441 3.746-1.209 1.492-2.167 2.667-3.332 3.01-.985.289-2.058.104-2.875-.5-.947-.697-1.463-1.851-1.463-3.244 0-2.64 2.841-6.414 3.113-6.871.316-.528.865-1.437.326-1.66-.343-.142-1.105.556-1.867 1.334l-1.916-1.852c.24-.294.567-.614.953-1.01.278-.278 1.53-1.367 2.967-1.367m10.441 13.13c-2.341.615-3.131 2.357-3.131 3.01 0 .506.463.789.801.789.762 0 1.993-.865 2.33-3.799" fill="#c99c00"/></svg>