<?xml version="1.0" encoding="UTF-8" standalone="no"?>
<svg
   xmlns:dc="http://purl.org/dc/elements/1.1/"
   xmlns:cc="http://creativecommons.org/ns#"
   xmlns:rdf="http://www.w3.org/1999/02/22-rdf-syntax-ns#"
   xmlns:svg="http://www.w3.org/2000/svg"
   xmlns="http://www.w3.org/2000/svg"
   xmlns:sodipodi="http://sodipodi.sourceforge.net/DTD/sodipodi-0.dtd"
   xmlns:inkscape="http://www.inkscape.org/namespaces/inkscape"
   viewBox="0 0 36 35.999999"
   id="svg2"
   version="1.1"
   inkscape:version="0.91 r13725"
   sodipodi:docname="sqlitebrowser.svg"
   width="48"
   height="48">
  <metadata
     id="metadata10">
    <rdf:RDF>
      <cc:Work
         rdf:about="">
        <dc:format>image/svg+xml</dc:format>
        <dc:type
           rdf:resource="http://purl.org/dc/dcmitype/StillImage" />
        <dc:title />
      </cc:Work>
    </rdf:RDF>
  </metadata>
  <defs
     id="defs8" />
  <sodipodi:namedview
     pagecolor="#ffffff"
     bordercolor="#666666"
     borderopacity="1"
     objecttolerance="10"
     gridtolerance="10"
     guidetolerance="10"
     inkscape:pageopacity="0"
     inkscape:pageshadow="2"
     inkscape:window-width="1366"
     inkscape:window-height="713"
     id="namedview6"
     showgrid="false"
     inkscape:snap-bbox="true"
     inkscape:bbox-paths="false"
     inkscape:bbox-nodes="true"
     fit-margin-top="0"
     fit-margin-left="0"
     fit-margin-right="0"
     fit-margin-bottom="0"
     inkscape:zoom="4.784143182220366"
     inkscape:cx="-94.76921730657268"
     inkscape:cy="-5.744588774056851"
     inkscape:window-x="0"
     inkscape:window-y="30"
     inkscape:window-maximized="1"
     inkscape:current-layer="svg2" />
  <path
     id="path3361"
     style="fill:#1793D1"
     d="m 11.62251940362193,11.99999964237215 18.75495994105862,0 c 0.62189098146621,0 1.1225197165463,0.3402854898587 1.1225197165463,0.76285722726508 l 0,4.4742853666559 c 0,0.42257173740636 -0.50062873508009,0.76285722726508 -1.1225197165463,0.76285722726508 l -18.75495994105862,0 c -0.6218909814662,0 -1.1225197165463,-0.34028548985872 -1.1225197165463,-0.76285722726508 l 0,-4.4742853666559 c 0,-0.42257173740638 0.5006287350801,-0.76285722726508 1.1225197165463,-0.76285722726508 m 0,-7.499999776482593 18.75495994105862,0 c 0.62189098146621,0 1.1225197165463,0.340285714858697 1.1225197165463,0.762857152265086 l 0,4.4742854416559 c 0,0.422571737406386 -0.50062873508009,0.762857227265085 -1.1225197165463,0.762857227265085 l -18.75495994105862,0 c -0.6218909814662,0 -1.1225197165463,-0.3402854898587 -1.1225197165463,-0.762857227265085 l 0,-4.474285441655902 c 0,-0.42257143740639 0.5006287350801,-0.762857152265085 1.1225197165463,-0.762857152265085 m 0,14.999999552965153 18.75495994105862,0 c 0.62189098146621,0 1.1225197165463,0.34028548985872 1.1225197165463,0.76285722726509 l 0,4.47428536665591 c 0,0.42257173740638 -0.50062873508009,0.76285722726508 -1.1225197165463,0.76285722726508 l -18.75495994105862,0 c -0.6218909814662,0 -1.1225197165463,-0.3402854898587 -1.1225197165463,-0.76285722726508 l 0,-4.4742853666559 c 0,-0.42257173740638 0.5006287350801,-0.76285722726509 1.1225197165463,-0.76285722726509 M 4.499999865889558,7.50000127648255 l 0,20.999999374151229 c 0,1.6574984506027 1.342499959990383,2.99999841059308 2.999999910593036,2.99999841059308 l 20.999999374151247,0 0,-2.99999841059308 -20.999999374151244,0 0,-20.999999374151226 -2.999999910593037,0 z"
     inkscape:connector-curvature="0" />
</svg>
