<?xml version="1.0" encoding="UTF-8" standalone="no"?>
<!-- Created with Inkscape (http://www.inkscape.org/) -->

<svg
   xmlns:dc="http://purl.org/dc/elements/1.1/"
   xmlns:cc="http://creativecommons.org/ns#"
   xmlns:rdf="http://www.w3.org/1999/02/22-rdf-syntax-ns#"
   xmlns:svg="http://www.w3.org/2000/svg"
   xmlns="http://www.w3.org/2000/svg"
   xmlns:sodipodi="http://sodipodi.sourceforge.net/DTD/sodipodi-0.dtd"
   xmlns:inkscape="http://www.inkscape.org/namespaces/inkscape"
   id="svg7384"
   sodipodi:docname="accessories-calculator.svg"
   version="1.1"
   inkscape:version="0.91 r13725"
   height="48"
   width="48">
  <metadata
     id="metadata90">
    <rdf:RDF>
      <cc:Work
         rdf:about="">
        <dc:format>image/svg+xml</dc:format>
        <dc:type
           rdf:resource="http://purl.org/dc/dcmitype/StillImage" />
        <dc:title>Gnome Symbolic Icon Theme</dc:title>
      </cc:Work>
    </rdf:RDF>
  </metadata>
  <sodipodi:namedview
     inkscape:cy="3.855155180694533"
     pagecolor="#ffffff"
     borderopacity="1"
     showborder="true"
     inkscape:bbox-paths="false"
     guidetolerance="10"
     inkscape:window-width="1366"
     showguides="true"
     inkscape:object-nodes="true"
     inkscape:snap-bbox="true"
     inkscape:pageshadow="2"
     inkscape:guide-bbox="true"
     inkscape:snap-nodes="true"
     bordercolor="#666666"
     objecttolerance="10"
     id="namedview88"
     showgrid="false"
     inkscape:window-maximized="1"
     inkscape:window-x="0"
     inkscape:snap-global="true"
     inkscape:window-y="30"
     gridtolerance="10"
     inkscape:window-height="713"
     inkscape:snap-to-guides="true"
     inkscape:current-layer="layer11"
     inkscape:zoom="10.97780968496411"
     inkscape:cx="-3.698598308856372"
     inkscape:snap-grids="true"
     inkscape:pageopacity="1"
     fit-margin-top="0"
     fit-margin-left="0"
     fit-margin-right="0"
     fit-margin-bottom="0"
     inkscape:bbox-nodes="true">
    <inkscape:grid
       spacingx="1px"
       spacingy="1px"
       id="grid4866"
       empspacing="2"
       enabled="true"
       type="xygrid"
       snapvisiblegridlinesonly="true"
       visible="true"
       originx="-1.357421875"
       originy="0" />
  </sodipodi:namedview>
  <title
     id="title9167">Gnome Symbolic Icon Theme</title>
  <defs
     id="defs7386" />
  <g
     inkscape:label="status"
     transform="translate(-63.357421875,-349)"
     inkscape:groupmode="layer"
     id="layer9"
     style="display:inline" />
  <g
     inkscape:label="devices"
     transform="translate(-63.357421875,-349)"
     inkscape:groupmode="layer"
     id="layer10" />
  <g
     inkscape:label="apps"
     transform="translate(-63.357421875,-349)"
     inkscape:groupmode="layer"
     id="layer11">
    <path
       style="fill:#F44336"
       d="m 76.42822265625,355 c -2.87082142489982,0 -5.1767578125,2.2925718513866 -5.1767578125,5.1416015625 l 0,25.716796875 C 71.25146484375,388.7102705460638 73.5602436288006,391 76.42822265625,391 l 21.8583984375,0 c 2.8708214248997,0 5.1767578125,-2.2925718513865 5.1767578125,-5.1416015625 l 0,-25.716796875 C 103.46337890625,357.2897294539362 101.1546001211993,355 98.28662109375,355 l -21.8583984375,0 z m -1.48095703125,4.53515625 24.8203125,0 0,6.6796875 -24.8203125,0 0,-6.6796875 z m 0.421875,8.9296875 3.65625,0 c 0.24929999999993,0 0.421875,0.1725750000001 0.421875,0.421875 l 0,3.65625 c 0,0.2493 -0.17257499999999,0.421875 -0.421875,0.421875 l -3.65625,0 c -0.24930000000001,0 -0.421875,-0.172575 -0.421875,-0.421875 l 0,-3.65625 c 0,-0.2492999999999 0.17257499999999,-0.421875 0.421875,-0.421875 z m 6.75,0 3.65625,0 c 0.24929999999993,0 0.421875,0.1725750000001 0.421875,0.421875 l 0,3.65625 c 0,0.2493 -0.17257499999999,0.421875 -0.421875,0.421875 l -3.65625,0 c -0.24930000000001,0 -0.421875,-0.172575 -0.421875,-0.421875 l 0,-3.65625 c 0,-0.2492999999999 0.17257499999999,-0.421875 0.421875,-0.421875 z m 6.75,0 3.65625,0 c 0.24929999999993,0 0.421875,0.1725750000001 0.421875,0.421875 l 0,3.65625 c 0,0.2493 -0.17257499999999,0.421875 -0.421875,0.421875 l -3.65625,0 c -0.24930000000001,0 -0.421875,-0.172575 -0.421875,-0.421875 l 0,-3.65625 c 0,-0.2492999999999 0.17257499999999,-0.421875 0.421875,-0.421875 z m 6.75,0 3.65625,0 c 0.24929999999993,0 0.421875,0.1725750000001 0.421875,0.421875 l 0,3.65625 c 0,0.2493 -0.17257499999999,0.421875 -0.421875,0.421875 l -3.65625,0 c -0.24930000000001,0 -0.421875,-0.172575 -0.421875,-0.421875 l 0,-3.65625 c 0,-0.2492999999999 0.17257499999999,-0.421875 0.421875,-0.421875 z m -20.25,6.75 3.65625,0 c 0.24929999999993,0 0.421875,0.1725750000001 0.421875,0.421875 l 0,3.65625 c 0,0.2493 -0.17257499999999,0.421875 -0.421875,0.421875 l -3.65625,0 c -0.24930000000001,0 -0.421875,-0.172575 -0.421875,-0.421875 l 0,-3.65625 c 0,-0.2492999999999 0.17257499999999,-0.421875 0.421875,-0.421875 z m 6.75,0 3.65625,0 c 0.24929999999993,0 0.421875,0.1725750000001 0.421875,0.421875 l 0,3.65625 c 0,0.2493 -0.17257499999999,0.421875 -0.421875,0.421875 l -3.65625,0 c -0.24930000000001,0 -0.421875,-0.172575 -0.421875,-0.421875 l 0,-3.65625 c 0,-0.2492999999999 0.17257499999999,-0.421875 0.421875,-0.421875 z m 6.75,0 3.65625,0 c 0.24929999999993,0 0.421875,0.1725750000001 0.421875,0.421875 l 0,3.65625 c 0,0.2493 -0.17257499999999,0.421875 -0.421875,0.421875 l -3.65625,0 c -0.24930000000001,0 -0.421875,-0.172575 -0.421875,-0.421875 l 0,-3.65625 c 0,-0.2492999999999 0.17257499999999,-0.421875 0.421875,-0.421875 z m 6.75,0 3.65625,0 c 0.24929999999993,0 0.421875,0.1725750000001 0.421875,0.421875 l 0,3.65625 c 0,0.2493 -0.17257499999999,0.421875 -0.421875,0.421875 l -3.65625,0 c -0.24930000000001,0 -0.421875,-0.172575 -0.421875,-0.421875 l 0,-3.65625 c 0,-0.2492999999999 0.17257499999999,-0.421875 0.421875,-0.421875 z m -20.25,6.75 3.65625,0 c 0.24929999999993,0 0.421875,0.1725750000001 0.421875,0.421875 l 0,3.65625 c 0,0.2493 -0.17257499999999,0.421875 -0.421875,0.421875 l -3.65625,0 c -0.24930000000001,0 -0.421875,-0.172575 -0.421875,-0.421875 l 0,-3.65625 c 0,-0.2492999999999 0.17257499999999,-0.421875 0.421875,-0.421875 z m 6.75,0 3.65625,0 c 0.24929999999993,0 0.421875,0.1725750000001 0.421875,0.421875 l 0,3.65625 c 0,0.2493 -0.17257499999999,0.421875 -0.421875,0.421875 l -3.65625,0 c -0.24930000000001,0 -0.421875,-0.172575 -0.421875,-0.421875 l 0,-3.65625 c 0,-0.2492999999999 0.17257499999999,-0.421875 0.421875,-0.421875 z m 6.75,0 3.65625,0 c 0.24929999999993,0 0.421875,0.1725750000001 0.421875,0.421875 l 0,3.65625 c 0,0.2493 -0.17257499999999,0.421875 -0.421875,0.421875 l -3.65625,0 c -0.24930000000001,0 -0.421875,-0.172575 -0.421875,-0.421875 l 0,-3.65625 c 0,-0.2492999999999 0.17257499999999,-0.421875 0.421875,-0.421875 z m 6.75,0 3.65625,0 c 0.24929999999993,0 0.421875,0.1725750000001 0.421875,0.421875 l 0,3.65625 c 0,0.2493 -0.17257499999999,0.421875 -0.421875,0.421875 l -3.65625,0 c -0.24930000000001,0 -0.421875,-0.172575 -0.421875,-0.421875 l 0,-3.65625 c 0,-0.2492999999999 0.17257499999999,-0.421875 0.421875,-0.421875 z"
       id="path4188"
       inkscape:connector-curvature="0" />
  </g>
  <g
     inkscape:label="actions"
     transform="translate(-63.357421875,-349)"
     inkscape:groupmode="layer"
     id="layer12" />
  <g
     inkscape:label="places"
     transform="translate(-63.357421875,-349)"
     inkscape:groupmode="layer"
     id="layer13" />
  <g
     inkscape:label="mimetypes"
     transform="translate(-63.357421875,-349)"
     inkscape:groupmode="layer"
     id="layer14" />
  <g
     inkscape:label="emblems"
     transform="translate(-63.357421875,-349)"
     inkscape:groupmode="layer"
     id="layer15" />
</svg>
