<?xml version="1.0" encoding="UTF-8" standalone="no"?>
<svg
   xmlns:osb="http://www.openswatchbook.org/uri/2009/osb"
   xmlns:dc="http://purl.org/dc/elements/1.1/"
   xmlns:cc="http://creativecommons.org/ns#"
   xmlns:rdf="http://www.w3.org/1999/02/22-rdf-syntax-ns#"
   xmlns:svg="http://www.w3.org/2000/svg"
   xmlns="http://www.w3.org/2000/svg"
   xmlns:sodipodi="http://sodipodi.sourceforge.net/DTD/sodipodi-0.dtd"
   xmlns:inkscape="http://www.inkscape.org/namespaces/inkscape"
   fill="#03A9F4"
   width="48"
   height="48"
   viewBox="0 0 48 48"
   id="svg2"
   version="1.1"
   inkscape:version="0.91 r13725"
   sodipodi:docname="application-x-jar.svg">
  <metadata
     id="metadata10">
    <rdf:RDF>
      <cc:Work
         rdf:about="">
        <dc:format>image/svg+xml</dc:format>
        <dc:type
           rdf:resource="http://purl.org/dc/dcmitype/StillImage" />
        <dc:title />
      </cc:Work>
    </rdf:RDF>
  </metadata>
  <defs
     id="defs8">
    <linearGradient
       osb:paint="solid"
       id="linearGradient5664">
      <stop
         id="stop5666"
         offset="0"
         style="stop-color:#000000;stop-opacity:1;" />
    </linearGradient>
  </defs>
  <sodipodi:namedview
     pagecolor="#ffffff"
     bordercolor="#666666"
     borderopacity="1"
     objecttolerance="10"
     gridtolerance="10"
     guidetolerance="10"
     inkscape:pageopacity="0"
     inkscape:pageshadow="2"
     inkscape:window-width="1366"
     inkscape:window-height="713"
     id="namedview6"
     showgrid="false"
     inkscape:zoom="3.897603896495845"
     inkscape:cx="-12.72400260375764"
     inkscape:cy="10.51360435768707"
     inkscape:window-x="0"
     inkscape:window-y="30"
     inkscape:window-maximized="1"
     inkscape:current-layer="svg2"
     inkscape:snap-bbox="true"
     inkscape:bbox-paths="true"
     inkscape:bbox-nodes="true" />
  <path
     style="fill:#5382a1;fill-opacity:1"
     d="M 12 6 C 11.07 6 10.239453025 6.429843650000003 9.689453125 7.08984375 L 6.919921875 10.44921875 C 6.339921875 11.14921875 5.999999999999999 12.03 6 13 L 6 38 C 6 40.21 7.790000000000001 42 10 42 L 38 42 C 40.21 42 42 40.21 42 38 L 42 13 C 42 12.03 41.65984375 11.14921875 41.08984375 10.44921875 L 38.3203125 7.08984375 C 37.7603125 6.429843650000001 36.93 5.999999999999998 36 6 L 12 6 z M 11.880859375 8 L 35.880859375 8 L 37.75 10 L 10.25 10 L 11.880859375 8 z "
     id="path4164" />
  <path
     style="fill:#f89820;fill-opacity:1"
     d="m 26.712891,11.726562 c 0,1e-6 2.818175,2.819031 -2.671875,7.152344 -4.402659,3.477412 -1.004184,5.458945 -0.001954,7.72461 -2.57016,-2.318694 -4.455881,-4.360084 -3.191406,-6.259766 1.856851,-2.788156 7.001637,-4.140205 5.865235,-8.617188 z"
     id="path4162" />
  <path
     style="fill:#f89820;fill-opacity:1"
     d="m 30.109375,17.265625 c -5.913862,3.429662 -4.821306,4.423821 -3.396484,6.425781 1.525,2.14773 -1.794922,3.861328 -1.794922,3.861328 0,0 1.650603,-1.354744 0.341797,-2.861328 -4.433491,-5.108891 4.849669,-7.425781 4.849609,-7.425781 z"
     id="path4160" />
  <path
     style="fill:#f89820;fill-opacity:1"
     d="m 31.892578,26.394531 c 2.561531,0.122831 3.731909,3.769276 -2.21289,5.332031 -6.2e-5,0 0.077983,-0.06983 0.101562,-0.132812 5.088014,-2.643226 2.733893,-5.183965 1.091797,-4.841797 -0.401556,0.0838 -0.580078,0.15625 -0.580078,0.15625 0,0 0.148712,-0.233144 0.433593,-0.333984 0.406078,-0.142695 0.800083,-0.197235 1.166016,-0.179688 z"
     id="path4158" />
  <path
     style="fill:#f89820;fill-opacity:1"
     d="m 20.603516,26.650391 c 0.216229,-0.005657 0.335937,0.001953 0.335937,0.001953 0,0 -4.929208,1.170152 -1.746094,1.595703 1.344438,0.179902 4.024688,0.139168 6.521485,-0.070313 2.039933,-0.171204 4.085937,-0.537109 4.085937,-0.537109 0,0 -0.71789,0.306983 -1.238281,0.662109 -5.005592,1.316544 -14.674342,0.70342 -11.890625,-0.642578 1.764846,-0.853786 3.282952,-0.992795 3.931641,-1.009765 z"
     id="path4156" />
  <path
     style="fill:#f89820;fill-opacity:1"
     d="m 19.791016,29.728516 c 0,0 -1.161627,0.859527 0.613281,1.042968 2.295779,0.237011 4.108212,0.256238 7.246094,-0.347656 0,0 0.433357,0.441272 1.115234,0.681641 -6.417816,1.87724700000001 -13.566587,0.147088 -8.974609,-1.376953 z"
     id="path4154" />
  <path
     style="fill:#f89820;fill-opacity:1"
     d="m 20.441406,32.697266 c 0,0 -1.035307,0.603223 0.738282,0.80664 2.14899,0.245349 3.245817,0.209225 5.613281,-0.238281 0,0 0.624622,0.390607 1.49414,0.728516 -5.308948,2.274544 -12.015249,-0.131859 -7.845703,-1.296875 z"
     id="path4152" />
  <path
     style="fill:#f89820;fill-opacity:1"
     d="m 17.744141,34.666016 c 0.255968,0.009847 0.467063,0.057631 0.601562,0.152343 0,0 -0.340472,-0.023264 -0.935547,0.105469 -0.57072,0.123274 -2.384786,0.705841 -1.417968,1.126953 2.691395,1.170716 12.381694,0.890836 15.445312,-0.037109 1.611143,-0.48877799999999 0.84375,-1.121094 0.84375,-1.121094 2.807112,1.266635 -6.098402,3.811033 -16.921875,2.056641 -3.472832,-0.563575 0.592986,-2.352136 2.384766,-2.283203 z"
     id="path4150" />
  <path
     style="fill:#f89820;fill-opacity:1"
     d="m 34,36.273438 c -0.177503,2.310656 -7.677749,2.796548 -12.560547,2.484374 -3.209088,-0.206537 -3.833984,-0.722656 -3.833984,-0.722656 3.048502,0.503355 8.191388,0.595243 12.359375,-0.189453 C 33.65935000000001,37.150688 34,36.273438 34,36.273438 Z"
     id="path4188" />
  <g
     style="fill:#4caf50"
     id="g4144"
     transform="translate(61.43710670532346,-6.018442896464997)">
    <path
       inkscape:connector-curvature="0"
       id="path4-5"
       d="M 28,4 12,4 c -2.210000000000001,0 -3.98,1.79 -3.98,4 L 8,40 c 0,2.21 1.77,4 3.98,4 L 36,44 c 2.21,0 4,-1.79 4,-4 L 40,16 28,4 Z m 4,32 -16,0 0,-4 16,0 0,4 z m 0,-8 -16,0 0,-4 16,0 0,4 z M 26,18 26,7 37,18 26,18 Z"
       style="fill:#f89820;fill-opacity:1" />
    <path
       id="path4210"
       d="m 34.666015625,10.666015625 -2.22265625,2.77734375 L 37,18 28.798828125,18 24,24 l 8,0 0,4 -11.201171875,0 -3.19921875,4 L 32,32 l 0,4 -16,0 0,-2 -6.951171875,8.689453125 C 9.774805943646933,43.4890558563668 10.81089187755998,44 11.98046875,44 L 36,44 c 2.21,0 4,-1.79 4,-4 l 0,-24 -5.333984375,-5.333984375 z"
       style="fill:#5382a1;fill-opacity:1"
       inkscape:connector-curvature="0" />
  </g>
</svg>
