<?xml version="1.0" encoding="UTF-8" standalone="no"?>
<svg
   xmlns:dc="http://purl.org/dc/elements/1.1/"
   xmlns:cc="http://creativecommons.org/ns#"
   xmlns:rdf="http://www.w3.org/1999/02/22-rdf-syntax-ns#"
   xmlns:svg="http://www.w3.org/2000/svg"
   xmlns="http://www.w3.org/2000/svg"
   xmlns:sodipodi="http://sodipodi.sourceforge.net/DTD/sodipodi-0.dtd"
   xmlns:inkscape="http://www.inkscape.org/namespaces/inkscape"
   fill="#03A9F4"
   width="48"
   height="48"
   viewBox="0 0 48 48"
   id="svg2"
   version="1.1"
   inkscape:version="0.91 r13725"
   sodipodi:docname="application-pdf2.svg">
  <metadata
     id="metadata10">
    <rdf:RDF>
      <cc:Work
         rdf:about="">
        <dc:format>image/svg+xml</dc:format>
        <dc:type
           rdf:resource="http://purl.org/dc/dcmitype/StillImage" />
        <dc:title />
      </cc:Work>
    </rdf:RDF>
  </metadata>
  <defs
     id="defs8">
    <linearGradient
       gradientTransform="scale(1.0058652,0.994169)"
       gradientUnits="userSpaceOnUse"
       id="ButtonShadow"
       y2="7.0165396"
       x2="45.447727"
       y1="92.539597"
       x1="45.447727">
      <stop
         offset="0"
         style="stop-color:#000000;stop-opacity:1"
         id="stop3750" />
      <stop
         offset="1"
         style="stop-color:#000000;stop-opacity:0.58823532"
         id="stop3752" />
    </linearGradient>
    <filter
       id="filter3174"
       color-interpolation-filters="sRGB">
      <feGaussianBlur
         id="feGaussianBlur3176"
         stdDeviation="1.71" />
    </filter>
  </defs>
  <sodipodi:namedview
     pagecolor="#ffffff"
     bordercolor="#666666"
     borderopacity="1"
     objecttolerance="10"
     gridtolerance="10"
     guidetolerance="10"
     inkscape:pageopacity="0"
     inkscape:pageshadow="2"
     inkscape:window-width="1366"
     inkscape:window-height="713"
     id="namedview6"
     showgrid="false"
     inkscape:snap-bbox="true"
     inkscape:snap-bbox-midpoints="true"
     inkscape:snap-object-midpoints="true"
     inkscape:snap-bbox-edge-midpoints="true"
     inkscape:bbox-nodes="true"
     inkscape:zoom="6.9532167"
     inkscape:cx="21.462301"
     inkscape:cy="29.523942"
     inkscape:window-x="0"
     inkscape:window-y="30"
     inkscape:window-maximized="1"
     inkscape:current-layer="svg2" />
  <path
     style="fill:#ffffff;fill-opacity:1;stroke:#d81000;stroke-width:2.76645875;stroke-miterlimit:4;stroke-dasharray:none;stroke-opacity:1"
     d="m 13.037422,5.3832294 c -2.018942,0 -3.6363521,1.6662009 -3.6363521,3.7233541 L 9.3832294,38.893416 c 0,2.057154 1.6174086,3.723355 3.6363516,3.723355 l 21.943001,0 c 2.018942,0 3.654193,-1.666201 3.654193,-3.723355 l 0,-22.340124 -10.96258,-11.1700626 -14.616772,0 z"
     id="path4317"
     inkscape:connector-curvature="0" />
  <path
     style="display:inline;fill:#d81000;fill-opacity:1;fill-rule:evenodd;stroke:none"
     id="path4144"
     inkscape:connector-curvature="0"
     d="m 28.89493,12.607911 c -1.351016,2.974284 -2.37477,6.033916 -3.054026,9.117174 -0.352572,0.280572 -0.710828,0.54272 -1.077894,0.808419 -4.187812,3.031314 -9.211333,5.011961 -13.922779,4.895428 l 0,2.245612 c 4.169078,0.393586 6.942556,1.099137 8.830592,3.610082 1.867347,2.483427 2.912887,4.9391 2.912887,8.067093 l 1.437189,0 c 0,-3.118653 -1.353181,-6.823273 -3.182359,-8.920425 -1.807674,-2.0725 -4.090666,-3.032391 -7.168841,-3.744817 4.116396,-0.551117 8.203547,-2.381379 11.722083,-4.895428 -1.014741,5.892679 -0.84934,11.876737 0.404209,17.56067 l 9.925596,0 C 30.761997,36.854938 28.616545,28.7943 28.625458,21.186138 c 2.796658,-2.603416 4.970001,-5.588321 6.10806,-8.578227 l -1.527014,0 c -0.946221,2.190161 -2.532195,4.437651 -4.536133,6.512265 0.122018,-2.292247 0.487703,-4.486409 0.988069,-6.512265 l -0.76351,0 z" />
  <g
     id="layer2"
     style="display:none"
     transform="translate(-51.254237,6.8389831)">
    <rect
       width="86"
       height="85"
       rx="6"
       ry="6"
       x="5"
       y="7"
       id="rect3745"
       style="opacity:0.9;fill:url(#ButtonShadow);fill-opacity:1;fill-rule:nonzero;stroke:none;filter:url(#filter3174)" />
  </g>
</svg>
