<?xml version="1.0" encoding="UTF-8" standalone="no"?>
<svg
   xmlns:dc="http://purl.org/dc/elements/1.1/"
   xmlns:cc="http://creativecommons.org/ns#"
   xmlns:rdf="http://www.w3.org/1999/02/22-rdf-syntax-ns#"
   xmlns:svg="http://www.w3.org/2000/svg"
   xmlns="http://www.w3.org/2000/svg"
   xmlns:sodipodi="http://sodipodi.sourceforge.net/DTD/sodipodi-0.dtd"
   xmlns:inkscape="http://www.inkscape.org/namespaces/inkscape"
   fill="#03A9F4"
   width="48"
   height="48"
   viewBox="0 0 48 48"
   id="svg2"
   version="1.1"
   inkscape:version="0.91 r13725"
   sodipodi:docname="application-x-jar7.svg">
  <metadata
     id="metadata10">
    <rdf:RDF>
      <cc:Work
         rdf:about="">
        <dc:format>image/svg+xml</dc:format>
        <dc:type
           rdf:resource="http://purl.org/dc/dcmitype/StillImage" />
        <dc:title></dc:title>
      </cc:Work>
    </rdf:RDF>
  </metadata>
  <defs
     id="defs8" />
  <sodipodi:namedview
     pagecolor="#ffffff"
     bordercolor="#666666"
     borderopacity="1"
     objecttolerance="10"
     gridtolerance="10"
     guidetolerance="10"
     inkscape:pageopacity="0"
     inkscape:pageshadow="2"
     inkscape:window-width="1366"
     inkscape:window-height="713"
     id="namedview6"
     showgrid="false"
     inkscape:zoom="6.9532167"
     inkscape:cx="-0.022346379"
     inkscape:cy="17.808094"
     inkscape:window-x="0"
     inkscape:window-y="30"
     inkscape:window-maximized="1"
     inkscape:current-layer="svg2"
     inkscape:snap-bbox="true"
     inkscape:bbox-paths="true"
     inkscape:bbox-nodes="true" />
  <path
     d="M 12 6 C 11.07 6 10.239453 6.4298437 9.6894531 7.0898438 L 6.9199219 10.449219 C 6.3399219 11.149219 6 12.03 6 13 L 6 38 C 6 40.21 7.79 42 10 42 L 38 42 C 40.21 42 42 40.21 42 38 L 42 13 C 42 12.03 41.659844 11.149219 41.089844 10.449219 L 38.320312 7.0898438 C 37.760312 6.4298437 36.93 6 36 6 L 12 6 z M 26.712891 11.726562 C 26.712891 11.726563 29.531066 14.545593 24.041016 18.878906 C 19.638357 22.356318 23.036832 24.337851 24.039062 26.603516 C 21.468902 24.284822 19.583181 22.243432 20.847656 20.34375 C 22.704507 17.555594 27.849293 16.203545 26.712891 11.726562 z M 30.109375 17.265625 C 24.195513 20.695287 25.288069 21.689446 26.712891 23.691406 C 28.237891 25.839136 24.917969 27.552734 24.917969 27.552734 C 24.917969 27.552734 26.568572 26.19799 25.259766 24.691406 C 20.826275 19.582515 30.109435 17.265625 30.109375 17.265625 z M 31.892578 26.394531 C 34.454109 26.517362 35.624487 30.163807 29.679688 31.726562 C 29.679626 31.726562 29.757671 31.656732 29.78125 31.59375 C 34.869264 28.950524 32.515143 26.409785 30.873047 26.751953 C 30.471491 26.835753 30.292969 26.908203 30.292969 26.908203 C 30.292969 26.908203 30.441681 26.675059 30.726562 26.574219 C 31.13264 26.431524 31.526645 26.376984 31.892578 26.394531 z M 20.603516 26.650391 C 20.819745 26.644734 20.939453 26.652344 20.939453 26.652344 C 20.939453 26.652344 16.010245 27.822496 19.193359 28.248047 C 20.537797 28.427949 23.218047 28.387215 25.714844 28.177734 C 27.754777 28.00653 29.800781 27.640625 29.800781 27.640625 C 29.800781 27.640625 29.082891 27.947608 28.5625 28.302734 C 23.556908 29.619278 13.888158 29.006154 16.671875 27.660156 C 18.436721 26.80637 19.954827 26.667361 20.603516 26.650391 z M 19.791016 29.728516 C 19.791016 29.728516 18.629389 30.588043 20.404297 30.771484 C 22.700076 31.008495 24.512509 31.027722 27.650391 30.423828 C 27.650391 30.423828 28.083748 30.8651 28.765625 31.105469 C 22.347809 32.982716 15.199038 31.252557 19.791016 29.728516 z M 20.441406 32.697266 C 20.441406 32.697266 19.406099 33.300489 21.179688 33.503906 C 23.328678 33.749255 24.425505 33.713131 26.792969 33.265625 C 26.792969 33.265625 27.417591 33.656232 28.287109 33.994141 C 22.978161 36.268685 16.27186 33.862282 20.441406 32.697266 z M 17.744141 34.666016 C 18.000109 34.675863 18.211204 34.723647 18.345703 34.818359 C 18.345703 34.818359 18.005231 34.795095 17.410156 34.923828 C 16.839436 35.047102 15.02537 35.629669 15.992188 36.050781 C 18.683583 37.221497 28.373882 36.941617 31.4375 36.013672 C 33.048643 35.524894 32.28125 34.892578 32.28125 34.892578 C 35.088362 36.159213 26.182848 38.703611 15.359375 36.949219 C 11.886543 36.385644 15.952361 34.597083 17.744141 34.666016 z M 34 36.273438 C 33.822497 38.584094 26.322251 39.069986 21.439453 38.757812 C 18.230365 38.551275 17.605469 38.035156 17.605469 38.035156 C 20.653971 38.538511 25.796857 38.630399 29.964844 37.845703 C 33.65935 37.150688 34 36.273438 34 36.273438 z "
     id="path4188"
     style="fill:#ea2d2e;fill-opacity:1" />
  <path
     d="m 10.25,10 1.63,-2 24,0 1.87,2 -27.5,0 z"
     id="path4"
     style="fill:#ffffff;fill-opacity:1" />
</svg>
