<?xml version="1.0" encoding="UTF-8" standalone="no"?>
<svg
   xmlns:dc="http://purl.org/dc/elements/1.1/"
   xmlns:cc="http://creativecommons.org/ns#"
   xmlns:rdf="http://www.w3.org/1999/02/22-rdf-syntax-ns#"
   xmlns:svg="http://www.w3.org/2000/svg"
   xmlns="http://www.w3.org/2000/svg"
   xmlns:sodipodi="http://sodipodi.sourceforge.net/DTD/sodipodi-0.dtd"
   xmlns:inkscape="http://www.inkscape.org/namespaces/inkscape"
   fill="#03A9F4"
   width="48"
   height="48"
   viewBox="0 0 48 48"
   id="svg2"
   version="1.1"
   inkscape:version="0.91 r13725"
   sodipodi:docname="x-office-drawing-template.svg">
  <metadata
     id="metadata10">
    <rdf:RDF>
      <cc:Work
         rdf:about="">
        <dc:format>image/svg+xml</dc:format>
        <dc:type
           rdf:resource="http://purl.org/dc/dcmitype/StillImage" />
      </cc:Work>
    </rdf:RDF>
  </metadata>
  <defs
     id="defs8" />
  <sodipodi:namedview
     pagecolor="#ffffff"
     bordercolor="#666666"
     borderopacity="1"
     objecttolerance="10"
     gridtolerance="10"
     guidetolerance="10"
     inkscape:pageopacity="0"
     inkscape:pageshadow="2"
     inkscape:window-width="1366"
     inkscape:window-height="713"
     id="namedview6"
     showgrid="false"
     inkscape:zoom="6.179518388275634"
     inkscape:cx="27.13965035596599"
     inkscape:cy="8.77440082160577"
     inkscape:window-x="0"
     inkscape:window-y="30"
     inkscape:window-maximized="1"
     inkscape:current-layer="svg2"
     inkscape:snap-page="true"
     inkscape:snap-bbox="true"
     inkscape:bbox-nodes="true" />
  <path
     style="fill:#008272;fill-opacity:1"
     d="M 7.19921875 6 C 4.559218750000003 6.000000000000001 2.259999999999998 7.999765625000001 1.75 8.509765625 C 1.04 9.229765625000001 0.4400000000000004 9.819375000000003 0 10.359375 L 3.51953125 13.759765625 C 4.919531249999999 12.329765625 6.319218749999997 11.050546875 6.94921875 11.310546875 C 7.939218750000001 11.720546875 6.929609374999998 13.389375 6.349609375 14.359375 C 5.849609375 15.199375 0.630859375 22.13046874999999 0.630859375 26.98046875 C 0.630859375 29.54046874999999 1.5803125 31.659453125 3.3203125 32.939453125 C 4.820312500000001 34.049453125 6.789609375000001 34.38937499999999 8.599609375 33.859375 C 10.73960937500001 33.22937499999999 12.50070312499999 31.07007812500003 14.720703125 28.330078125 C 16.86580524701592 25.68858873507958 19.65280648273827 22.32986504194142 22 21.599609375 L 22 16.51953125 C 18.08049110414025 17.15646577166932 14.81056762852269 20.40730485644172 13.4609375 22.08984375 C 12.3009375 23.53984375 9.350625000000001 27.03906249999999 8.890625 27.5390625 C 8.380625 28.1290625 7.54015625 29.220703125 6.66015625 29.220703125 C 5.770156250000002 29.220703125 5.229687500000003 27.549140625 5.9296875 25.369140625 C 6.629687499999999 23.17914062499999 8.730859375 19.64984375000001 9.630859375 18.33984375 C 11.200859375 16.05984375 12.220703125 14.489296875 12.220703125 11.779296875 C 12.220703125 7.379296874999999 8.939218750000006 5.999999999999997 7.19921875 6 z M 22 26.537109375 C 17.57335316252745 28.90598039785373 15.63085937499999 33.14784581788974 15.630859375 35.80078125 C 15.630859375 39.19801985588315 18.4880884309475 41.9675816825552 22 41.98828125 L 22 37.080078125 C 21.39196214846351 37.03019480071602 20.630859375 36.53314195523453 20.630859375 35.650390625 C 20.630859375 35.02972664438311 21.03049127589768 33.87563181694826 22 32.748046875 L 22 26.537109375 z "
     id="path4" />
  <path
     style="fill:#008272;fill-opacity:1"
     d="m 28,2 c -2.21,0 -4,1.789999999999978 -4,4 l 0,36 c 0,2.21000000000001 1.79,4.00000000000002 4,4 l 16,0 c 2.21,0 4,-1.79 4,-4 L 48,6 C 48,3.79 46.21000000000001,2.000000000000007 44,2 L 28,2 Z m 0,4 16,0 0,36 -16,0 0,-4 8,0 0,-4 -8,0 0,-4 8,0 0,-4 -8,0 0,-4 8,0 0,-4 -8,0 0,-4 8,0 0,-4 -8,0 0,-4 z"
     id="path4144"
     inkscape:connector-curvature="0" />
</svg>
