<?xml version="1.0" encoding="UTF-8" standalone="no"?>
<svg
   xmlns:dc="http://purl.org/dc/elements/1.1/"
   xmlns:cc="http://creativecommons.org/ns#"
   xmlns:rdf="http://www.w3.org/1999/02/22-rdf-syntax-ns#"
   xmlns:svg="http://www.w3.org/2000/svg"
   xmlns="http://www.w3.org/2000/svg"
   xmlns:sodipodi="http://sodipodi.sourceforge.net/DTD/sodipodi-0.dtd"
   xmlns:inkscape="http://www.inkscape.org/namespaces/inkscape"
   fill="#3F51B5"
   width="48"
   height="48"
   viewBox="0 0 48 48"
   id="svg2"
   version="1.1"
   inkscape:version="0.91 r13725"
   sodipodi:docname="folder-.svg">
  <metadata
     id="metadata10">
    <rdf:RDF>
      <cc:Work
         rdf:about="">
        <dc:format>image/svg+xml</dc:format>
        <dc:type
           rdf:resource="http://purl.org/dc/dcmitype/StillImage" />
        <dc:title />
      </cc:Work>
    </rdf:RDF>
  </metadata>
  <defs
     id="defs8" />
  <sodipodi:namedview
     pagecolor="#ffffff"
     bordercolor="#666666"
     borderopacity="1"
     objecttolerance="10"
     gridtolerance="10"
     guidetolerance="10"
     inkscape:pageopacity="0"
     inkscape:pageshadow="2"
     inkscape:window-width="1366"
     inkscape:window-height="713"
     id="namedview6"
     showgrid="false"
     inkscape:zoom="7.795207743958533"
     inkscape:cx="10.1712523761748"
     inkscape:cy="13.50907785558362"
     inkscape:window-x="0"
     inkscape:window-y="30"
     inkscape:window-maximized="1"
     inkscape:current-layer="svg2"
     inkscape:snap-bbox="true"
     inkscape:bbox-paths="true"
     inkscape:bbox-nodes="true" />
  <path
     d="M 8,8 C 5.79,8 4.019531200000001,9.789999999999999 4.019531200000001,12 L 4,36 c 0,2.21 1.79,4 4,4 l 32,0 c 2.21,0 4,-1.79 4,-4 l 0,-20 c 0,-2.21 -1.79,-4 -4,-4 L 24,12 20,8 8,8 Z"
     id="path4184"
     style="fill:#294172;fill-opacity:1" />
  <path
     style="fill:none;stroke:#3c6eb4;stroke-width:2.5357553959"
     inkscape:connector-curvature="0"
     d="m 26.42135986859565,26.425157856442 c 0,0 4.15348222280671,0 4.15348222280671,0 0,0 0,4.15348222280668 0,4.15348222280668 0,2.29268399005799 -1.86071142154121,4.15348222280668 -4.15348222280671,4.15348222280668 -2.29268399005788,0 -4.15348222280658,-1.86071142154118 -4.15348222280658,-4.15348222280668 0,-2.29268399005798 1.8607114215412,-4.15348222280668 4.15348222280658,-4.15348222280668 z"
     id="0" />
  <path
     id="use4254"
     d="m 34.70748962440923,26.43297086511696 c 0,0 -4.15348222280671,0 -4.15348222280671,0 0,0 0,-4.15348222280668 0,-4.15348222280668 0,-2.29268399005799 1.86071142154122,-4.15348222280668 4.15348222280671,-4.15348222280668 2.2926839900579,0 4.1534822228066,1.86071142154118 4.1534822228066,4.15348222280668 0,2.29268399005798 -1.86071142154121,4.15348222280668 -4.15348222280661,4.15348222280668 z"
     inkscape:connector-curvature="0"
     style="fill:none;stroke:#3c6eb4;stroke-width:2.5357553959" />
  <path
     style="fill:#ffffff"
     inkscape:connector-curvature="0"
     d="m 31.84532411315547,25.16031856317639 0,5.41267878758482 c 0,2.99533390355777 -2.4285435297945,5.42396424455974 -5.42396424455982,5.42396424455974 -0.4544566712591,0 -0.7774811743642,-0.0513054236321 -1.19816828590601,-0.16129522353381 -0.6137552370205,-0.1605139226663 -1.1146559042918,-0.66349805891757 -1.1149163379143,-1.24843197504823 0,-0.70707728508225 0.51322785873621,-1.22143368951593 1.28046531061552,-1.22143368951593 0.36512793874229,0 0.4976886525938,0.0701434556595 1.0326193132048,0.0701434556595 1.57909586441329,0 2.86025566468878,-1.27916314250299 2.86303362332878,-2.85843262933129 l 0,-2.48774877330905 c 0,-0.22293118085834 -0.1811749900512,-0.40349849245701 -0.40445341573951,-0.40349849245701 l -1.88076481047361,-3.4724482998e-4 c -0.70056644451971,0 -1.26692276224553,-0.55889055388086 -1.26692276224553,-1.26162727858814 -3.4724483001e-4,-0.70707728508224 0.5719990462132,-1.26371074756811 1.28029168820049,-1.26371074756811"
     id="1" />
  <path
     id="use4257"
     d="m 29.28352537984941,27.69781015838256 0,-5.41267878758482 c 0,-2.99533390355776 2.4285435297945,-5.42396424455973 5.42396424455982,-5.42396424455973 0.4544566712591,0 0.7774811743642,0.0513054236321 1.19816828590601,0.16129522353381 0.61375523702049,0.1605139226663 1.1146559042918,0.66349805891757 1.11491633791428,1.24843197504823 0,0.70707728508225 -0.51322785873618,1.22143368951593 -1.28046531061549,1.22143368951593 -0.36512793874229,0 -0.49768865259383,-0.0701434556595 -1.03261931320482,-0.0701434556595 -1.57909586441329,0 -2.86025566468879,1.27916314250299 -2.86303362332879,2.85843262933129 l 0,2.48774877330905 c 0,0.22293118085833 0.1811749900512,0.40349849245701 0.40445341573951,0.40349849245701 l 1.88076481047364,3.4724482998e-4 c 0.70056644451969,0 1.26692276224551,0.55889055388086 1.26692276224551,1.26162727858814 3.4724483001e-4,0.70707728508224 -0.5719990462132,1.26371074756811 -1.28029168820049,1.26371074756811"
     inkscape:connector-curvature="0"
     style="fill:#ffffff" />
  <path
     style="fill:#3c6eb4"
     inkscape:connector-curvature="0"
     d="m 40.87716214138836,35.23475919347663 c 0,0 0,-0.48015278867895 0,-0.48015278867895 l -0.21954554376589,0.50333138108127 c 0,0 -0.21364238165588,-0.50333138108127 -0.21364238165588,-0.50333138108127 l 0,0.48015278867895 -0.12309829223401,0 0,-0.75829589750688 0.1290882655515,0 c 0,0 0.2112984790534,0.48449334905391 0.2112984790534,0.48449334905391 l 0.20808646437601,-0.48449334905391 0.13065086728651,0 0,0.75829589750688 -0.1229246698191,0 m -0.89702020709081,-0.63129110093531 0,0.63129110093531 -0.12865420951411,0 0,-0.63129110093531 -0.2157258506359,0 0,-0.12700479657155 0.55984547716341,0 0,0.12700479657155"
     id="path4259" />
</svg>
