<?xml version="1.0" encoding="UTF-8" standalone="no"?>
<svg
   xmlns:dc="http://purl.org/dc/elements/1.1/"
   xmlns:cc="http://creativecommons.org/ns#"
   xmlns:rdf="http://www.w3.org/1999/02/22-rdf-syntax-ns#"
   xmlns:svg="http://www.w3.org/2000/svg"
   xmlns="http://www.w3.org/2000/svg"
   xmlns:xlink="http://www.w3.org/1999/xlink"
   xmlns:sodipodi="http://sodipodi.sourceforge.net/DTD/sodipodi-0.dtd"
   xmlns:inkscape="http://www.inkscape.org/namespaces/inkscape"
   viewBox="0 0 256 256"
   id="svg2"
   version="1.1"
   inkscape:version="0.91 r13725"
   sodipodi:docname="google-chrome.svg">
  <metadata
     id="metadata59">
    <rdf:RDF>
      <cc:Work
         rdf:about="">
        <dc:format>image/svg+xml</dc:format>
        <dc:type
           rdf:resource="http://purl.org/dc/dcmitype/StillImage" />
        <dc:title></dc:title>
      </cc:Work>
    </rdf:RDF>
  </metadata>
  <sodipodi:namedview
     pagecolor="#ffffff"
     bordercolor="#666666"
     borderopacity="1"
     objecttolerance="10"
     gridtolerance="10"
     guidetolerance="10"
     inkscape:pageopacity="0"
     inkscape:pageshadow="2"
     inkscape:window-width="691"
     inkscape:window-height="480"
     id="namedview57"
     showgrid="false"
     inkscape:zoom="0.921875"
     inkscape:cx="-30.37288135593236"
     inkscape:cy="127.9999999999999"
     inkscape:window-x="0"
     inkscape:window-y="30"
     inkscape:window-maximized="0"
     inkscape:current-layer="svg2" />
  <defs
     id="defs4">
    <linearGradient
       id="5"
       gradientUnits="userSpaceOnUse"
       x1="164"
       y1="161"
       x2="109"
       y2="217"
       xlink:href="#4" />
    <linearGradient
       id="4"
       gradientUnits="userSpaceOnUse"
       y1="140"
       x2="0"
       y2="60">
      <stop
         offset="0%"
         stop-opacity=".15"
         id="stop8" />
      <stop
         offset="30%"
         stop-opacity=".06"
         id="stop10" />
      <stop
         offset="100%"
         stop-opacity=".03"
         id="stop12" />
    </linearGradient>
    <linearGradient
       id="6"
       gradientUnits="userSpaceOnUse"
       x1="139"
       y1="179"
       x2="147"
       y2="100"
       xlink:href="#4" />
    <linearGradient
       id="3"
       gradientUnits="userSpaceOnUse"
       x1="187"
       y1="220"
       x2="138"
       y2="102">
      <stop
         offset="0%"
         stop-color="#e4b022"
         id="stop16" />
      <stop
         offset="30%"
         stop-color="#fcd209"
         id="stop18" />
    </linearGradient>
    <linearGradient
       id="1"
       gradientUnits="userSpaceOnUse"
       y1="16"
       x2="0"
       y2="107">
      <stop
         offset="0%"
         stop-color="#f06b59"
         id="stop21" />
      <stop
         offset="100%"
         stop-color="#df2227"
         id="stop23" />
    </linearGradient>
    <linearGradient
       id="0"
       y1="0%"
       x2="0"
       y2="100%">
      <stop
         offset="0%"
         stop-color="#81b4e0"
         id="stop26" />
      <stop
         offset="100%"
         stop-color="#0c5a94"
         id="stop28" />
    </linearGradient>
    <linearGradient
       id="2"
       gradientUnits="userSpaceOnUse"
       x1="72"
       y1="225"
       x2="118"
       y2="149">
      <stop
         offset="0%"
         stop-color="#388b41"
         id="stop31" />
      <stop
         offset="100%"
         stop-color="#4cb749"
         id="stop33" />
    </linearGradient>
  </defs>
  <g
     id="g4161">
    <circle
       id="circle35"
       fill="#fff"
       r="110"
       cy="128"
       cx="128" />
    <g
       id="g37"
       fill-opacity=".1">
      <path
         id="path39"
         d="M198 148A70 70 0 0 0 58 148H78A50 50 0 0 1 178 148" />
      <circle
         id="circle41"
         r="38"
         cy="142"
         cx="133" />
    </g>
    <circle
       id="circle43"
       fill="url(#0)"
       r="41"
       cy="128"
       cx="128" />
    <path
       id="path45"
       fill="url(#1)"
       d="M228 78A112 112 0 0 0 35 65L80 143A50 50 0 0 1 127 78" />
    <path
       id="path47"
       fill="url(#2)"
       d="M35 65A112 112 0 0 0 119 239L166 159A50 50 0 0 1 80 143" />
    <path
       id="path49"
       fill="url(#3)"
       d="M119 239A112 112 0 0 0 228 78H127A50 50 0 0 1 166 159" />
    <path
       id="path51"
       fill="url(#4)"
       d="m35 65l45 78a50 50 0 0 1 2 -34l-45-47" />
    <path
       id="path53"
       fill="url(#5)"
       d="m119 239l47-80a50 50 0 0 1 -29 17l-20 63" />
    <path
       id="path55"
       fill="url(#6)"
       d="m228 78h-101a50 50 0 0 1 39 19l64-16" />
  </g>
</svg>
