<svg xmlns="http://www.w3.org/2000/svg" fill="#FFC107" viewBox="0 0 48 48"><path d="m8 8c-2.21 0-3.98 1.79-3.98 4l-.02 24c0 2.21 1.79 4 4 4h32c2.21 0 4-1.79 4-4v-20c0-2.21-1.79-4-4-4h-16l-4-4h-12m21 9c.015.034.025.056.039.09.327.769.612 1.439.889 2.088.004.01.008.022.012.031.035.082.077.179.111.26.071.163.172.398.238.551.723 1.668 1.524 3.394 3.03 6.324.066.128.149.288.219.424.805 1.557 1.782 3.407 3.068 5.803-.676-.406-1.543-.769-2.754-1.084 1.761.904 2.623 1.739 3.451 2.381.526.975 1.079 1.998 1.695 3.133-3.126-1.805-5.559-2.928-7.824-3.371.075-.341.119-.709.129-1.092.05-2.031-.924-3.763-2.176-3.869-1.251-.106-2.307 1.456-2.357 3.486l-.004.1c-.004.476.049.935.146 1.357-2.289.431-4.745 1.559-7.914 3.389 1.962-3.525 3.408-6.176 4.555-8.326.8-1.501 1.445-2.747 1.975-3.803.267-.533.542-1.079.76-1.533.002.002.004.004.006.006.118.099.253.195.387.293.053.039.098.078.154.117.053.037.117.073.172.109.15.1.3.2.471.299.001.001.003.001.004.002.233.135.484.269.76.402.276.134.576.267.9.4-.3-.21-.571-.414-.818-.611-.002-.002-.004-.002-.006-.004-.745-.594-1.276-1.132-1.73-1.613-.003-.003-.007-.005-.01-.008.991-2.118 1.532-3.548 2.422-5.73"/></svg>