<?xml version="1.0" encoding="UTF-8" standalone="no"?>
<svg
   xmlns:dc="http://purl.org/dc/elements/1.1/"
   xmlns:cc="http://creativecommons.org/ns#"
   xmlns:rdf="http://www.w3.org/1999/02/22-rdf-syntax-ns#"
   xmlns:svg="http://www.w3.org/2000/svg"
   xmlns="http://www.w3.org/2000/svg"
   xmlns:sodipodi="http://sodipodi.sourceforge.net/DTD/sodipodi-0.dtd"
   xmlns:inkscape="http://www.inkscape.org/namespaces/inkscape"
   fill="#FFEB3B"
   width="48"
   height="48"
   viewBox="0 0 48 48"
   id="svg2"
   version="1.1"
   inkscape:version="0.91 r13725"
   sodipodi:docname="application-x-jar.svg">
  <metadata
     id="metadata10">
    <rdf:RDF>
      <cc:Work
         rdf:about="">
        <dc:format>image/svg+xml</dc:format>
        <dc:type
           rdf:resource="http://purl.org/dc/dcmitype/StillImage" />
        <dc:title />
      </cc:Work>
    </rdf:RDF>
  </metadata>
  <defs
     id="defs8" />
  <sodipodi:namedview
     pagecolor="#ffffff"
     bordercolor="#666666"
     borderopacity="1"
     objecttolerance="10"
     gridtolerance="10"
     guidetolerance="10"
     inkscape:pageopacity="0"
     inkscape:pageshadow="2"
     inkscape:window-width="1366"
     inkscape:window-height="713"
     id="namedview6"
     showgrid="false"
     inkscape:zoom="13.906433"
     inkscape:cx="10.405263"
     inkscape:cy="10.65412"
     inkscape:window-x="0"
     inkscape:window-y="30"
     inkscape:window-maximized="1"
     inkscape:current-layer="svg2"
     inkscape:snap-bbox="true"
     inkscape:bbox-paths="true"
     inkscape:bbox-nodes="true"
     inkscape:snap-global="false" />
  <path
     d="M 12 6 C 11.07 6 10.239453 6.4298437 9.6894531 7.0898438 L 6.9199219 10.449219 C 6.3399219 11.149219 6 12.03 6 13 L 6 38 C 6 40.21 7.79 42 10 42 L 38 42 C 40.21 42 42 40.21 42 38 L 42 13 C 42 12.03 41.659844 11.149219 41.089844 10.449219 L 38.320312 7.0898438 C 37.760312 6.4298437 36.93 6 36 6 L 12 6 z M 26.298828 10.988281 C 26.298828 10.988281 26.458742 11.162586 26.654297 11.412109 C 26.676618 11.435104 26.680721 11.435398 26.71875 11.480469 C 26.715763 11.468325 26.715987 11.457513 26.712891 11.445312 C 26.712891 11.445312 26.922522 11.681374 27.115234 12.082031 C 27.323574 12.405529 27.608349 13.062753 27.642578 13.960938 C 27.733325 15.039713 27.617242 16.79173 26.476562 19.021484 C 26.461386 19.05117 26.454107 19.076031 26.439453 19.105469 C 28.634351 18.105598 31.087926 17.625 31.087891 17.625 C 31.075051 17.630808 31.067477 17.634831 31.054688 17.640625 C 31.060288 17.639143 31.109376 17.625 31.109375 17.625 C 25.195513 21.174522 26.288069 22.203466 27.712891 24.275391 C 28.554479 25.502062 27.913469 26.569368 27.175781 27.298828 A 7.7828283 1.8380092 0 0 1 29.136719 27.736328 A 3.2097459 2.3453391 0 0 1 31.785156 26.707031 A 3.2097459 2.3453391 0 0 1 34.699219 28.076172 C 34.706941 28.088035 34.71522 28.099305 34.722656 28.111328 A 3.2097459 2.3453391 0 0 1 34.882812 28.441406 L 34.884766 28.443359 A 3.2097459 2.3453391 0 0 1 34.886719 28.449219 A 3.2097459 2.3453391 0 0 1 34.996094 29.052734 A 3.2097459 2.3453391 0 0 1 34.710938 30.013672 C 34.519159 30.362569 34.216375 30.712605 33.789062 31.046875 C 33.697496 31.123377 33.580865 31.199136 33.46875 31.275391 C 33.39251 31.326329 33.311318 31.375939 33.228516 31.425781 C 33.051966 31.531988 32.860182 31.637899 32.640625 31.742188 C 32.454591 31.831712 32.256836 31.918295 32.044922 32.001953 C 31.887073 32.064434 31.72024 32.124457 31.544922 32.185547 C 31.477833 32.208242 31.40531 32.229863 31.335938 32.251953 C 30.271273 32.606224 28.891452 32.928911 27.166016 33.203125 A 5.6010165 1.4243581 0 0 1 28.513672 33.59375 L 28.515625 33.59375 A 5.6010165 1.4243581 0 0 1 28.519531 33.595703 A 5.6010165 1.4243581 0 0 1 28.869141 33.769531 C 28.882923 33.777766 28.899057 33.786638 28.912109 33.794922 A 5.6010165 1.4243581 0 0 1 29.134766 33.972656 C 29.14489 33.983398 29.153062 33.995075 29.162109 34.005859 A 5.6010165 1.4243581 0 0 1 29.310547 34.322266 A 5.6010165 1.4243581 0 0 1 28.708984 34.953125 A 11.303044 2.5255449 0 0 1 34.980469 37.017578 C 34.982327 37.014049 35 36.992188 35 36.992188 C 34.998849 37.007171 34.990045 37.020325 34.988281 37.035156 A 11.303044 2.5255449 0 0 1 35.017578 37.214844 A 11.303044 2.5255449 0 0 1 32.84375 38.699219 C 32.785741 38.717603 32.723862 38.734231 32.664062 38.751953 A 11.303044 2.5255449 0 0 1 23.714844 39.740234 A 11.303044 2.5255449 0 0 1 12.412109 37.214844 A 11.303044 2.5255449 0 0 1 15.416016 35.505859 A 11.303044 2.5255449 0 0 1 18.699219 34.953125 A 5.6010165 1.4243581 0 0 1 18.109375 34.322266 A 5.6010165 1.4243581 0 0 1 18.269531 33.990234 C 18.272982 33.986325 18.277657 33.982419 18.28125 33.978516 A 5.6010165 1.4243581 0 0 1 18.513672 33.792969 C 18.517903 33.790295 18.521084 33.787825 18.525391 33.785156 A 5.6010165 1.4243581 0 0 1 23.382812 32.900391 A 4.8177967 1.9576271 0 0 1 23.357422 32.894531 A 6.2304091 1.4888757 0 0 1 17.771484 31.960938 C 17.763573 31.956503 17.753801 31.951731 17.746094 31.947266 C 17.66737 31.901653 17.605486 31.853334 17.548828 31.804688 C 17.496371 31.759647 17.452332 31.715268 17.419922 31.667969 A 6.2304091 1.4888757 0 0 1 17.398438 31.630859 C 17.378993 31.596473 17.354157 31.562708 17.345703 31.527344 A 6.2304091 1.4888757 0 0 1 17.322266 31.40625 A 6.2304091 1.4888757 0 0 1 18.791016 30.447266 A 6.2304091 1.4888757 0 0 1 18.927734 30.412109 A 7.7828283 1.8380092 0 0 1 15.117188 28.833984 A 7.7828283 1.8380092 0 0 1 22.900391 26.996094 A 7.7828283 1.8380092 0 0 1 23.041016 26.998047 C 20.27369 24.653702 18.344006 22.568613 19.746094 20.625 C 21.408673 18.321514 25.313525 16.920132 26.449219 14.21875 C 26.659167 13.253796 26.655722 12.197472 26.298828 10.988281 z M 21.830078 24.119141 C 21.831582 24.157251 21.827307 24.196558 21.830078 24.234375 L 21.398438 24.234375 C 21.584382 24.603234 21.837864 24.956435 22.103516 25.306641 A 2.5932205 2.8474576 0 0 1 22.042969 24.710938 A 2.5932205 2.8474576 0 0 1 22.060547 24.382812 C 21.984426 24.294931 21.905268 24.206818 21.830078 24.119141 z "
     id="path4188"
     style="fill:#ea2d2e;fill-opacity:1" />
  <path
     d="m 10.25,10 1.63,-2 24,0 1.87,2 -27.5,0 z"
     id="path4"
     style="fill:#ffffff;fill-opacity:1" />
  <g
     id="g3678"
     transform="matrix(0.46436051,0,0,0.46436051,60.692768,0.90125637)">
    <path
       style="fill:#0074bd;fill-rule:evenodd"
       id="path3616"
       inkscape:connector-curvature="0"
       d="m -86.682454,70.020561 c 0,0 -2.230343,1.298159 1.589079,1.736219 4.627848,0.528358 6.99267,0.452269 12.091002,-0.511436 0,0 1.343115,0.840206 3.215621,1.567893 -11.432816,4.898228 -25.874818,-0.283815 -16.895702,-2.792676 l 0,0 z" />
    <path
       style="fill:#0074bd;fill-rule:evenodd"
       id="path3618"
       inkscape:connector-curvature="0"
       d="m -88.080213,63.627558 c 0,0 -2.501885,1.852354 1.320378,2.247395 4.943959,0.510402 8.846833,0.552257 15.604261,-0.748227 0,0 0.932442,0.947169 2.400864,1.464804 -13.820761,4.04265 -29.214325,0.318049 -19.325503,-2.963972 l 0,0 z" />
    <path
       style="fill:#ea2d2e;fill-rule:evenodd"
       id="path3620"
       inkscape:connector-curvature="0"
       d="m -76.303512,52.781491 c 2.818512,3.244428 -0.739056,6.161637 -0.739056,6.161637 0,0 7.15247,-3.69166 3.868382,-8.316795 -3.068352,-4.311221 -5.420773,-6.452815 7.314724,-13.838589 1.29e-4,0 -19.991571,4.991756 -10.44405,15.993747 l 0,0 z" />
    <path
       style="fill:#0074bd;fill-rule:evenodd"
       id="path3622"
       inkscape:connector-curvature="0"
       d="m -61.182912,74.749947 c 0,0 1.651086,1.361071 -1.818508,2.413654 -6.5975,1.99833 -27.464801,2.601097 -33.260721,0.07996 -2.082041,-0.906864 1.824192,-2.163814 3.053238,-2.429285 1.281494,-0.277226 2.013186,-0.226586 2.013186,-0.226586 -2.317154,-1.63171 -14.976823,3.20464 -6.429691,4.591677 23.308341,3.778083 42.48761,-1.701727 36.442496,-4.429424 l 0,0 z" />
    <path
       style="fill:#0074bd;fill-rule:evenodd"
       id="path3624"
       inkscape:connector-curvature="0"
       d="m -85.609073,57.002801 c 0,0 -10.613022,2.521521 -3.758189,3.437944 2.895247,0.38742 8.663393,0.298283 14.040243,-0.152823 4.392994,-0.368688 8.801619,-1.157221 8.801619,-1.157221 0,0 -1.54787,0.664 -2.668531,1.428763 -10.779538,2.835177 -31.599689,1.514799 -25.604956,-1.383807 5.067458,-2.451504 9.189814,-2.172856 9.189814,-2.172856 l 0,0 z" />
    <path
       style="fill:#0074bd;fill-rule:evenodd"
       id="path3626"
       inkscape:connector-curvature="0"
       d="m -66.569322,67.644371 c 10.957035,-5.692186 5.890352,-11.162953 2.3541,-10.426093 -0.864751,0.180468 -1.252687,0.336779 -1.252687,0.336779 0,0 0.322182,-0.504717 0.935672,-0.721874 6.9959,-2.45835 12.374946,7.253103 -2.25605,11.099266 -1.3e-4,0 0.168196,-0.152436 0.218965,-0.288078 l 0,0 z" />
    <path
       style="fill:#ea2d2e;fill-rule:evenodd"
       id="path3628"
       inkscape:connector-curvature="0"
       d="m -73.174057,24.859253 c 0,0 6.066817,6.070304 -5.756002,15.40209 -9.481121,7.488603 -2.161747,11.756806 -0.0034,16.635915 -5.534841,-4.993307 -9.594543,-9.38953 -6.871497,-13.480494 3.998728,-6.004292 15.078099,-8.916333 12.630858,-18.557511 l 0,0 z" />
    <path
       style="fill:#0074bd;fill-rule:evenodd"
       id="path3630"
       inkscape:connector-curvature="0"
       d="m -84.531817,83.073848 c 10.5151,0.672267 26.666709,-0.374114 27.048961,-5.35011 0,0 -0.734792,1.886328 -8.690908,3.383041 -8.975758,1.689842 -20.048799,1.493096 -26.613745,0.409123 0,0 1.344923,1.113169 8.255692,1.557946 l 0,0 z" />
  </g>
</svg>
