<?xml version="1.0" encoding="UTF-8" standalone="no"?>
<!-- Generator: Adobe Illustrator 15.0.0, SVG Export Plug-In . SVG Version: 6.00 Build 0)  -->

<svg
   xmlns:dc="http://purl.org/dc/elements/1.1/"
   xmlns:cc="http://creativecommons.org/ns#"
   xmlns:rdf="http://www.w3.org/1999/02/22-rdf-syntax-ns#"
   xmlns:svg="http://www.w3.org/2000/svg"
   xmlns="http://www.w3.org/2000/svg"
   xmlns:sodipodi="http://sodipodi.sourceforge.net/DTD/sodipodi-0.dtd"
   xmlns:inkscape="http://www.inkscape.org/namespaces/inkscape"
   version="1.1"
   id="レイヤー_1"
   x="0px"
   y="0px"
   width="401.98px"
   height="559.472px"
   viewBox="0 0 401.98 559.472"
   enable-background="new 0 0 401.98 559.472"
   xml:space="preserve"
   inkscape:version="0.91 r13725"
   sodipodi:docname="gopher-colored2.svg"><metadata
     id="metadata61"><rdf:RDF><cc:Work
         rdf:about=""><dc:format>image/svg+xml</dc:format><dc:type
           rdf:resource="http://purl.org/dc/dcmitype/StillImage" /></cc:Work></rdf:RDF></metadata><defs
     id="defs59" /><sodipodi:namedview
     pagecolor="#ffffff"
     bordercolor="#666666"
     borderopacity="1"
     objecttolerance="10"
     gridtolerance="10"
     guidetolerance="10"
     inkscape:pageopacity="0"
     inkscape:pageshadow="2"
     inkscape:window-width="1366"
     inkscape:window-height="713"
     id="namedview57"
     showgrid="false"
     inkscape:zoom="1.6873052"
     inkscape:cx="183.58027"
     inkscape:cy="369.84794"
     inkscape:window-x="0"
     inkscape:window-y="30"
     inkscape:window-maximized="1"
     inkscape:current-layer="レイヤー_1"
     inkscape:snap-bbox="true"
     inkscape:bbox-paths="true"
     inkscape:bbox-nodes="true" /><path
     fill-rule="evenodd"
     clip-rule="evenodd"
     fill="#FFEB3B"
     stroke="#000000"
     stroke-width="3"
     stroke-linecap="round"
     d="  M10.634,300.493c0.764,15.751,16.499,8.463,23.626,3.539c6.765-4.675,8.743-0.789,9.337-10.015  c0.389-6.064,1.088-12.128,0.744-18.216c-10.23-0.927-21.357,1.509-29.744,7.602C10.277,286.542,2.177,296.561,10.634,300.493"
     id="path3"
     style="stroke:none" /><path
     fill-rule="evenodd"
     clip-rule="evenodd"
     fill="#FFEB3B"
     stroke="#000000"
     stroke-width="3"
     stroke-linecap="round"
     d="  M10.634,300.493c2.29-0.852,4.717-1.457,6.271-3.528"
     id="path5"
     style="stroke:none" /><path
     fill-rule="evenodd"
     clip-rule="evenodd"
     fill="#FFEB3B"
     stroke="#000000"
     stroke-width="3"
     stroke-linecap="round"
     d="  M46.997,112.853C-13.3,95.897,31.536,19.189,79.956,50.74L46.997,112.853z"
     id="path7"
     style="stroke:none" /><path
     fill-rule="evenodd"
     clip-rule="evenodd"
     fill="#FFEB3B"
     stroke="#000000"
     stroke-width="3"
     stroke-linecap="round"
     d="  M314.895,44.984c47.727-33.523,90.856,42.111,35.388,61.141L314.895,44.984z"
     id="path9"
     style="stroke:none" /><path
     fill-rule="evenodd"
     clip-rule="evenodd"
     fill="#FFEB3B"
     stroke="#000000"
     stroke-width="3"
     stroke-linecap="round"
     d="  M325.161,494.343c12.123,7.501,34.282,30.182,16.096,41.18c-17.474,15.999-27.254-17.561-42.591-22.211  C305.271,504.342,313.643,496.163,325.161,494.343z"
     id="path11"
     style="stroke:none" /><path
     fill-rule="evenodd"
     clip-rule="evenodd"
     fill="none"
     stroke="#000000"
     stroke-width="3"
     stroke-linecap="round"
     d="  M341.257,535.522c-2.696-5.361-3.601-11.618-8.102-15.939"
     id="path13"
     style="stroke:none" /><path
     fill-rule="evenodd"
     clip-rule="evenodd"
     fill="#FFEB3B"
     stroke="#000000"
     stroke-width="3"
     stroke-linecap="round"
     d="  M108.579,519.975c-14.229,2.202-22.238,15.039-34.1,21.558c-11.178,6.665-15.454-2.134-16.461-3.92  c-1.752-0.799-1.605,0.744-4.309-1.979c-10.362-16.354,10.797-28.308,21.815-36.432C90.87,496.1,100.487,509.404,108.579,519.975z"
     id="path15"
     style="stroke:none" /><path
     fill-rule="evenodd"
     clip-rule="evenodd"
     fill="none"
     stroke="#000000"
     stroke-width="3"
     stroke-linecap="round"
     d="  M58.019,537.612c0.542-6.233,5.484-10.407,7.838-15.677"
     id="path17"
     style="stroke:none" /><path
     fill-rule="evenodd"
     clip-rule="evenodd"
     d="M49.513,91.667c-7.955-4.208-13.791-9.923-8.925-19.124  c4.505-8.518,12.874-7.593,20.83-3.385L49.513,91.667z"
     id="path19"
     style="stroke:none;fill:#FFEB3B;fill-opacity:1" /><path
     fill-rule="evenodd"
     clip-rule="evenodd"
     d="M337.716,83.667c7.955-4.208,13.791-9.923,8.925-19.124  c-4.505-8.518-12.874-7.593-20.83-3.385L337.716,83.667z"
     id="path21"
     style="stroke:none;fill:#FFEB3B;fill-opacity:1" /><path
     fill-rule="evenodd"
     clip-rule="evenodd"
     fill="#FFEB3B"
     stroke="#000000"
     stroke-width="3"
     stroke-linecap="round"
     d="  M392.475,298.493c-0.764,15.751-16.499,8.463-23.626,3.539c-6.765-4.675-8.743-0.789-9.337-10.015  c-0.389-6.064-1.088-12.128-0.744-18.216c10.23-0.927,21.357,1.509,29.744,7.602C392.831,284.542,400.932,294.561,392.475,298.493"
     id="path23"
     style="stroke:none" /><path
     fill-rule="evenodd"
     clip-rule="evenodd"
     fill="#FFEB3B"
     stroke="#000000"
     stroke-width="3"
     stroke-linecap="round"
     d="  M392.475,298.493c-2.29-0.852-4.717-1.457-6.271-3.528"
     id="path25"
     style="stroke:none" /><path
     style="fill:#FFEB3B;fill-opacity:1;stroke:none"
     d="m 195.51172,13.123047 c -65.061,5.147 -125.512736,20.235047 -147.927736,86.998043 -21.607,64.359 -1.139015,130.33057 -3.791015,196.10157 -2.239,55.524 -16.833813,129.72304 13.992187,179.62304 26.275,42.535 82.513364,57.72267 129.068364,59.38868 59.27,2.119 131.21,-12.34929 160,-69.86329 27.367,-54.667 19.67893,-122.8205 16.21093,-181.8125 -4.038,-68.702 5.37839,-138.79868 -21.09961,-203.804684 -29.499,-57.996 -86.08812,-66.630859 -146.45312,-66.630859 z"
     id="path4236" /><path
     style="fill:#ffffff;fill-opacity:1;stroke:none"
     d="m 258.24805,41.429688 c 20.77826,-0.399453 41.14817,10.604453 46.95117,35.533203 14.792,63.541999 -88.1913,80.200269 -99.0293,17.197265 -2.02612,-32.852812 25.36321,-52.216886 52.07813,-52.730468 z"
     id="path4234" /><path
     style="fill:#ffffff;fill-opacity:1;stroke:none"
     d="m 133.15234,46.755859 c 23.54572,-0.195541 46.70682,13.522188 48.50391,43.38086 3.31,55.020001 -84.505734,69.062891 -98.552734,14.212891 C 75.758984,67.494062 104.7351,46.991858 133.15234,46.755859 Z"
     id="path29" /><path
     d="  M218.594,169.762c0.046,8.191,1.861,17.387,0.312,26.101c-2.091,3.952-6.193,4.37-9.729,5.967c-4.89-0.767-9.002-3.978-10.963-8.552  c-1.255-9.946,0.468-19.576,0.785-29.526L218.594,169.762z"
     id="path35"
     style="stroke:#FFEB3B;stroke-opacity:1"
     clip-rule="evenodd"
     stroke-linecap="round"
     stroke-width="3"
     stroke="#000000"
     fill-rule="evenodd"
     fill="#FFFFFF" /><path
     style="clip-rule:evenodd;fill:#FFEB3B;fill-opacity:1;fill-rule:evenodd;stroke:none"
     d="M 107.32422 79.341797 A 14.829 16.062 0 0 0 92.494141 95.404297 A 14.829 16.062 0 0 0 107.32422 111.4668 A 14.829 16.062 0 0 0 122.15234 95.404297 A 14.829 16.062 0 0 0 107.32422 79.341797 z M 114.06836 94.947266 A 3.4960001 4.0819998 0 0 1 117.56445 99.029297 A 3.4960001 4.0819998 0 0 1 114.06836 103.11133 A 3.4960001 4.0819998 0 0 1 110.57227 99.029297 A 3.4960001 4.0819998 0 0 1 114.06836 94.947266 z "
     id="ellipse39" /><path
     style="clip-rule:evenodd;fill:#FFEB3B;fill-opacity:1;fill-rule:evenodd;stroke:none"
     d="M 231.57031 75.341797 A 14.582 16.062 0 0 0 216.98828 91.404297 A 14.582 16.062 0 0 0 231.57031 107.4668 A 14.582 16.062 0 0 0 246.15234 91.404297 A 14.582 16.062 0 0 0 231.57031 75.341797 z M 238.20312 90.947266 A 3.438 4.0819998 0 0 1 241.64258 95.029297 A 3.438 4.0819998 0 0 1 238.20312 99.111328 A 3.438 4.0819998 0 0 1 234.76562 95.029297 A 3.438 4.0819998 0 0 1 238.20312 90.947266 z "
     id="ellipse45" /><path
     d="  M176.217,168.87c-6.47,15.68,3.608,47.035,21.163,23.908c-1.255-9.946,0.468-19.576,0.785-29.526L176.217,168.87z"
     id="path49"
     style="stroke:#FFEB3B;stroke-opacity:1"
     clip-rule="evenodd"
     stroke-linecap="round"
     stroke-width="3"
     stroke="#000000"
     fill-rule="evenodd"
     fill="#FFFFFF" /><path
     style="clip-rule:evenodd;fill:#ffffff;fill-opacity:1;fill-rule:evenodd;stroke:#FFEB3B;stroke-width:3;stroke-linecap:round;stroke-opacity:1"
     d="m 178.431,138.673 c -12.059,1.028 -21.916,15.366 -15.646,26.709 8.303,15.024 26.836,-1.329 38.379,0.203 13.285,0.272 24.17,14.047 34.84,2.49 11.867,-12.854 -5.109,-25.373 -18.377,-30.97 l -39.196,1.568 z"
     id="path53" /><path
     style="color:#000000;font-style:normal;font-variant:normal;font-weight:normal;font-stretch:normal;font-size:medium;line-height:normal;font-family:sans-serif;text-indent:0;text-align:start;text-decoration:none;text-decoration-line:none;text-decoration-style:solid;text-decoration-color:#000000;letter-spacing:normal;word-spacing:normal;text-transform:none;direction:ltr;block-progression:tb;writing-mode:lr-tb;baseline-shift:baseline;text-anchor:start;white-space:normal;clip-rule:evenodd;display:inline;overflow:visible;visibility:visible;opacity:1;isolation:auto;mix-blend-mode:normal;color-interpolation:sRGB;color-interpolation-filters:linearRGB;solid-color:#000000;solid-opacity:1;fill:#FFEB3B;fill-opacity:1;fill-rule:evenodd;stroke:#ffffff;stroke-width:3;stroke-linecap:butt;stroke-linejoin:miter;stroke-miterlimit:4;stroke-dasharray:none;stroke-dashoffset:0;stroke-opacity:1;color-rendering:auto;image-rendering:auto;shape-rendering:auto;text-rendering:auto;enable-background:accumulate"
     d="m 200.58008,118.96289 c -1.36549,-0.0153 -2.73793,0.0487 -4.09961,0.18945 -5.44672,0.56299 -10.74014,2.3617 -14.7168,5.50391 -2.57013,2.03082 -4.46721,4.73128 -5.49609,7.88672 -0.76858,0.0973 -1.53908,0.19518 -1.53906,0.19531 l 0,0.002 0.002,0.0156 c 7.2e-4,0.006 0.005,0.0361 0.006,0.0449 0.005,0.0423 0.0121,0.0968 0.0273,0.2168 0.0191,0.15093 0.0386,0.29882 0.0742,0.58008 0.0902,0.71241 0.24017,1.88786 0.58789,4.63476 l 0,0.002 c 0.58389,4.60973 4.47511,7.65501 9.31641,9.27734 4.84129,1.62233 10.84478,2.01306 16.65429,1.36328 5.80952,-0.64978 11.42034,-2.32818 15.45313,-5.13867 4.03279,-2.81049 6.49202,-7.12366 5.1543,-12.09766 -1.31638,-4.89358 -5.10947,-8.3488 -9.78516,-10.36328 -3.50677,-1.51085 -7.5422,-2.2667 -11.63867,-2.3125 z"
     id="path4177" /></svg>