<?xml version="1.0" encoding="UTF-8" standalone="no"?>
<svg
   xmlns:dc="http://purl.org/dc/elements/1.1/"
   xmlns:cc="http://creativecommons.org/ns#"
   xmlns:rdf="http://www.w3.org/1999/02/22-rdf-syntax-ns#"
   xmlns:svg="http://www.w3.org/2000/svg"
   xmlns="http://www.w3.org/2000/svg"
   xmlns:sodipodi="http://sodipodi.sourceforge.net/DTD/sodipodi-0.dtd"
   xmlns:inkscape="http://www.inkscape.org/namespaces/inkscape"
   fill="#FFEB3B"
   width="48"
   height="48"
   viewBox="0 0 48 48"
   id="svg2"
   version="1.1"
   inkscape:version="0.91 r13725"
   sodipodi:docname="text-x-javascript2.svg">
  <metadata
     id="metadata10">
    <rdf:RDF>
      <cc:Work
         rdf:about="">
        <dc:format>image/svg+xml</dc:format>
        <dc:type
           rdf:resource="http://purl.org/dc/dcmitype/StillImage" />
        <dc:title></dc:title>
      </cc:Work>
    </rdf:RDF>
  </metadata>
  <defs
     id="defs8" />
  <sodipodi:namedview
     pagecolor="#ffffff"
     bordercolor="#666666"
     borderopacity="1"
     objecttolerance="10"
     gridtolerance="10"
     guidetolerance="10"
     inkscape:pageopacity="0"
     inkscape:pageshadow="2"
     inkscape:window-width="1366"
     inkscape:window-height="713"
     id="namedview6"
     showgrid="false"
     inkscape:zoom="4"
     inkscape:cx="0.64726241"
     inkscape:cy="43.134179"
     inkscape:window-x="0"
     inkscape:window-y="30"
     inkscape:window-maximized="1"
     inkscape:current-layer="svg2"
     inkscape:snap-bbox="true"
     inkscape:bbox-paths="true"
     inkscape:bbox-nodes="true"
     inkscape:snap-bbox-edge-midpoints="true"
     inkscape:snap-bbox-midpoints="true" />
  <path
     style="fill:#f7df1e;fill-opacity:1"
     d="M 12 4 C 9.79 4 8.0195313 5.79 8.0195312 8 L 8 40 C 8 42.21 9.7704686 44 11.980469 44 L 36 44 C 38.21 44 40 42.21 40 40 L 40 16 L 28 4 L 12 4 z M 26 7 L 37 18 L 26 18 L 26 7 z M 16.222656 21.3125 L 31.777344 21.314453 C 33.005121 21.314453 34 22.307379 34 23.535156 L 34 39.091797 C 34 40.319575 33.005121 41.3125 31.777344 41.3125 L 16.222656 41.3125 C 14.994879 41.3125 14 40.319575 14 39.091797 L 14 23.535156 C 14 22.307379 14.994879 21.3125 16.222656 21.3125 z "
     id="path4141" />
  <path
     style="fill:#f7df1e;fill-opacity:1"
     d="M 19.851562 24 L 19.851562 25.560547 L 21.630859 25.560547 L 21.630859 24 L 19.851562 24 z M 26.595703 27.355469 C 25.677734 27.355469 24.938477 27.589844 24.376953 28.058594 C 23.81543 28.527344 23.535156 29.09375 23.535156 29.757812 C 23.535156 30.392578 23.776367 30.894531 24.259766 31.265625 C 24.748047 31.631836 25.466797 31.915039 26.414062 32.115234 C 27.053712 32.251953 27.490234 32.411133 27.724609 32.591797 C 27.958984 32.772461 28.076172 33 28.076172 33.273438 C 28.076172 33.571289 27.952148 33.806641 27.703125 33.982422 C 27.454102 34.158204 27.099609 34.246094 26.640625 34.246094 C 26.191406 34.246094 25.810547 34.141602 25.498047 33.931641 C 25.185547 33.72168 25.01953 33.386719 25 32.927734 L 23.34375 32.927734 L 23.330078 32.972656 C 23.300781 33.65625 23.583983 34.261719 24.179688 34.789062 C 24.775391 35.316406 25.588867 35.580078 26.619141 35.580078 C 27.581055 35.580078 28.353516 35.358398 28.939453 34.914062 C 29.530273 34.469727 29.826172 33.890625 29.826172 33.177734 C 29.826172 32.533203 29.584961 32.025391 29.101562 31.654297 C 28.623047 31.27832 27.884766 30.986328 26.888672 30.78125 C 26.239258 30.654297 25.808594 30.510742 25.59375 30.349609 C 25.383789 30.183594 25.277344 29.961914 25.277344 29.683594 C 25.277344 29.405273 25.390625 29.170898 25.615234 28.980469 C 25.839844 28.78516 26.166016 28.6875 26.595703 28.6875 C 27.030273 28.6875 27.372075 28.804686 27.621094 29.039062 C 27.870117 29.273438 27.996094 29.553711 27.996094 29.880859 L 29.701172 29.880859 L 29.716797 29.837891 C 29.741211 29.134766 29.467773 28.545898 28.896484 28.072266 C 28.330078 27.59375 27.5625 27.355469 26.595703 27.355469 z M 19.894531 27.5 L 19.894531 35.886719 C 19.894531 36.326172 19.806641 36.648438 19.630859 36.853516 C 19.459961 37.063477 19.222656 37.167969 18.919922 37.167969 C 18.817383 37.167969 18.706055 37.160155 18.583984 37.140625 C 18.461914 37.125985 18.358401 37.106441 18.275391 37.082031 L 18.173828 38.501953 C 18.330078 38.545893 18.479492 38.578126 18.621094 38.597656 C 18.762695 38.617156 18.919922 38.626953 19.095703 38.626953 C 19.90625 38.626953 20.540039 38.386719 20.994141 37.908203 C 21.448242 37.43457 21.673828 36.760742 21.673828 35.886719 L 21.673828 27.5 L 19.894531 27.5 z "
     id="path4137" />
</svg>
