<?xml version="1.0" encoding="UTF-8" standalone="no"?>
<svg
   xmlns:osb="http://www.openswatchbook.org/uri/2009/osb"
   xmlns:dc="http://purl.org/dc/elements/1.1/"
   xmlns:cc="http://creativecommons.org/ns#"
   xmlns:rdf="http://www.w3.org/1999/02/22-rdf-syntax-ns#"
   xmlns:svg="http://www.w3.org/2000/svg"
   xmlns="http://www.w3.org/2000/svg"
   xmlns:xlink="http://www.w3.org/1999/xlink"
   xmlns:sodipodi="http://sodipodi.sourceforge.net/DTD/sodipodi-0.dtd"
   xmlns:inkscape="http://www.inkscape.org/namespaces/inkscape"
   fill="#FFEB3B"
   width="48"
   height="48"
   viewBox="0 0 48 48"
   id="svg2"
   version="1.1"
   inkscape:version="0.91 r13725"
   sodipodi:docname="text-x-java.svg">
  <metadata
     id="metadata10">
    <rdf:RDF>
      <cc:Work
         rdf:about="">
        <dc:format>image/svg+xml</dc:format>
        <dc:type
           rdf:resource="http://purl.org/dc/dcmitype/StillImage" />
        <dc:title />
      </cc:Work>
    </rdf:RDF>
  </metadata>
  <defs
     id="defs8">
    <linearGradient
       inkscape:collect="always"
       id="linearGradient4223">
      <stop
         style="stop-color:#ffffff;stop-opacity:1;"
         offset="0"
         id="stop4225" />
      <stop
         style="stop-color:#ffffff;stop-opacity:0;"
         offset="1"
         id="stop4227" />
    </linearGradient>
    <linearGradient
       id="linearGradient4207"
       osb:paint="solid">
      <stop
         style="stop-color:#ffffff;stop-opacity:1;"
         offset="0"
         id="stop4209" />
    </linearGradient>
    <linearGradient
       x1="64"
       y1="60"
       x2="62"
       y2="7"
       id="linearGradient3724"
       xlink:href="#linearGradient3763"
       gradientUnits="userSpaceOnUse"
       gradientTransform="matrix(1.231823,0,0,1.231823,-157.81615,7.1708322)" />
    <linearGradient
       id="linearGradient3763">
      <stop
         id="stop3765"
         style="stop-color:#ff7700;stop-opacity:1"
         offset="0" />
      <stop
         id="stop3767"
         style="stop-color:#ffb15d;stop-opacity:1"
         offset="1" />
    </linearGradient>
    <clipPath
       id="clipPath3716">
      <path
         d="m -118,6 c -3.324,0 -6,2.676 -6,6 l 0,72 c 0,3.324 2.676,6 6,6 l 72,0 c 3.324,0 6,-2.676 6,-6 l 0,-72 c 0,-3.324 -2.676,-6 -6,-6 l -72,0 z m 42.53125,9.4375 c 0,0 6.742786,6.784262 -6.4375,17.1875 -10.569721,8.348428 -2.406258,13.091934 0,18.53125 -6.170339,-5.566626 -10.691951,-10.439321 -7.65625,-15 4.457852,-6.693689 16.821977,-9.970594 14.09375,-20.71875 z m 8.125,13.34375 c -14.197756,8.233791 -11.545654,10.600025 -8.125,15.40625 3.661158,5.156183 -4.3125,9.25 -4.3125,9.25 0,0 3.954627,-3.226804 0.8125,-6.84375 -10.643745,-12.265213 11.625144,-17.8125 11.625,-17.8125 z m 3.59375,21.875 c 6.598371,-0.338475 10.187997,8.957958 -4.59375,12.84375 -1.44e-4,0 0.16215,-0.192534 0.21875,-0.34375 12.215092,-6.34575 6.567276,-12.446464 2.625,-11.625 -0.964039,0.201189 -1.40625,0.375 -1.40625,0.375 0,0 0.378571,-0.570411 1.0625,-0.8125 0.731171,-0.256932 1.41116,-0.40248 2.09375,-0.4375 z m -26.40625,0.625 c 0.519115,-0.01358 0.8125,0 0.8125,0 0,0 -11.82939,2.822105 -4.1875,3.84375 3.227673,0.431901 9.630792,0.315402 15.625,-0.1875 4.897387,-0.41102 9.8125,-1.25 9.8125,-1.25 0,0 -1.719415,0.709928 -2.96875,1.5625 -12.017218,3.160705 -35.24553,1.700167 -28.5625,-1.53125 4.236968,-2.049735 7.911406,-2.39676 9.46875,-2.4375 z m -1.9375,7.40625 c 0,0 -2.823626,2.059601 1.4375,2.5 5.511613,0.569005 9.87295,0.637302 17.40625,-0.8125 0,0 1.050477,1.047931 2.6875,1.625 -15.407629,4.506818 -32.55548,0.346355 -21.53125,-3.3125 z m 1.53125,7.125 c 0,0 -2.476708,1.449143 1.78125,1.9375 5.159208,0.589021 7.816289,0.511854 13.5,-0.5625 0,0 1.474997,0.907513 3.5625,1.71875 -12.745505,5.460632 -28.85383,-0.296827 -18.84375,-3.09375 z m -6.46875,4.71875 c 0.614519,0.02364 1.14585,0.147618 1.46875,0.375 0,0 -0.852618,-0.05906 -2.28125,0.25 -1.370161,0.295952 -5.69609,1.676512 -3.375,2.6875 6.461397,2.810602 29.707491,2.165274 37.0625,-0.0625 3.867966,-1.173437 2.03125,-2.71875 2.03125,-2.71875 6.739204,3.040884 -14.609199,9.149373 -40.59375,4.9375 -8.33743,-1.353006 1.38587,-5.63424 5.6875,-5.46875 z M -58,74.375 c -0.426144,5.547328 -18.43383,6.718207 -30.15625,5.96875 -7.704246,-0.495845 -9.1875,-1.71875 -9.1875,-1.71875 7.318718,1.208433 19.649918,1.415115 29.65625,-0.46875 C -58.817879,76.487689 -58,74.375 -58,74.375 Z"
         inkscape:connector-curvature="0"
         id="path3718"
         style="display:inline;fill:#ff00ff;fill-opacity:1;fill-rule:nonzero;stroke:none" />
    </clipPath>
    <filter
       style="color-interpolation-filters:sRGB"
       x="-0.16965857"
       y="-0.1250829"
       width="1.3393171"
       height="1.2501658"
       id="filter3720">
      <feGaussianBlur
         id="feGaussianBlur3722"
         stdDeviation="3.3931715" />
    </filter>
    <linearGradient
       x1="64"
       y1="60"
       x2="62"
       y2="7"
       id="linearGradient3769"
       xlink:href="#linearGradient3763"
       gradientUnits="userSpaceOnUse"
       gradientTransform="matrix(0.48429676,0,0,0.48429676,-17.270796,16.084992)" />
    <linearGradient
       inkscape:collect="always"
       xlink:href="#linearGradient3763"
       id="linearGradient4180"
       gradientUnits="userSpaceOnUse"
       gradientTransform="matrix(0.48429676,0,0,0.48429676,-17.270796,16.084992)"
       x1="64"
       y1="60"
       x2="62"
       y2="7" />
    <linearGradient
       inkscape:collect="always"
       xlink:href="#linearGradient4223"
       id="linearGradient4229"
       x1="5.2140863"
       y1="37.536524"
       x2="18.003969"
       y2="37.536524"
       gradientUnits="userSpaceOnUse" />
  </defs>
  <sodipodi:namedview
     pagecolor="#ffffff"
     bordercolor="#666666"
     borderopacity="1"
     objecttolerance="10"
     gridtolerance="10"
     guidetolerance="10"
     inkscape:pageopacity="0"
     inkscape:pageshadow="2"
     inkscape:window-width="1366"
     inkscape:window-height="713"
     id="namedview6"
     showgrid="false"
     inkscape:snap-bbox="true"
     inkscape:bbox-paths="true"
     inkscape:bbox-nodes="true"
     inkscape:snap-bbox-edge-midpoints="true"
     inkscape:snap-object-midpoints="true"
     inkscape:snap-bbox-midpoints="true"
     inkscape:snap-midpoints="true"
     inkscape:object-paths="true"
     inkscape:zoom="6.9532167"
     inkscape:cx="10.472548"
     inkscape:cy="21.682486"
     inkscape:window-x="0"
     inkscape:window-y="30"
     inkscape:window-maximized="1"
     inkscape:current-layer="svg2" />
  <path
     d="M28 4H12C9.79 4 8.02 5.79 8.02 8L8 40c0 2.21 1.77 4 3.98 4H36c2.21 0 4-1.79 4-4V16L28 4zm4 32H16v-4h16v4zm0-8H16v-4h16v4zm-6-10V7l11 11H26z"
     id="path4" />
  <path
     style="opacity:0.6;fill:url(#linearGradient3724);fill-opacity:1;fill-rule:evenodd;stroke:#ffffff;stroke-width:2;stroke-miterlimit:4;stroke-dasharray:none;filter:url(#filter3720)"
     id="path3707"
     clip-path="url(#clipPath3716)"
     transform="matrix(0.3931545,0,0,0.3931545,44.775334,13.265747)"
     inkscape:connector-curvature="0"
     d="m -75.476487,15.447143 c 2.728227,10.748156 -9.631123,14.016333 -14.088975,20.710022 -3.035701,4.560679 1.49006,9.446216 7.660399,15.012842 -2.406258,-5.439316 -10.569721,-10.205905 0,-18.554333 13.180286,-10.403238 6.428576,-17.168531 6.428576,-17.168531 z m 8.122332,13.319085 c 1.44e-4,0 -22.269074,5.557725 -11.625329,17.822938 3.142127,3.616946 -0.808384,6.852015 -0.808384,6.852015 0,0 7.972539,-4.082489 4.311381,-9.238672 -3.420654,-4.806225 -6.075424,-7.20249 8.122332,-15.436281 z m 3.61848,21.903351 c -0.68259,0.03502 -1.386025,0.166507 -2.117196,0.423439 -0.683929,0.242089 -1.03935,0.808384 -1.03935,0.808384 0,0 0.421762,-0.183755 1.385801,-0.384944 3.942276,-0.821464 9.597468,5.279579 -2.617624,11.625329 -0.0566,0.151216 -0.231111,0.34645 -0.230967,0.34645 14.781747,-3.885792 11.217707,-13.157133 4.619336,-12.818658 z m -26.407204,0.615911 c -1.557344,0.04074 -5.23267,0.375417 -9.469638,2.425152 -6.683033,3.231417 16.545675,4.700484 28.562893,1.539779 1.249335,-0.852572 2.964075,-1.578274 2.964075,-1.578274 0,0 -4.918703,0.859298 -9.81609,1.270318 -5.994208,0.502902 -12.40108,0.624374 -15.628753,0.192473 -7.641888,-1.021645 4.195897,-3.849448 4.195897,-3.849448 0,0 -0.289269,-0.01358 -0.808384,0 z m -1.963218,7.390938 c -11.024233,3.658855 6.149272,7.817342 21.556901,3.310524 -1.637023,-0.577069 -2.694613,-1.616767 -2.694613,-1.616767 -7.5333,1.449802 -11.887885,1.377389 -17.399498,0.808384 -4.261126,-0.440399 -1.46279,-2.502141 -1.46279,-2.502141 z m 1.539779,7.121476 c -10.010082,2.796923 6.116784,8.578684 18.862289,3.118052 -2.087503,-0.811237 -3.579986,-1.732251 -3.579986,-1.732251 -5.683711,1.074354 -8.35235,1.166439 -13.511558,0.577418 -4.257958,-0.488357 -1.770745,-1.963219 -1.770745,-1.963219 z m -6.467071,4.73482 c -4.301631,-0.16549 -14.034611,4.113208 -5.697181,5.466214 25.984551,4.211873 47.350866,-1.886407 40.611662,-4.927291 0,0 1.82776,1.521175 -2.040206,2.694612 -7.355009,2.227774 -30.608779,2.887592 -37.070176,0.07699 -2.32109,-1.010988 2.017357,-2.39866 3.387518,-2.694612 1.428632,-0.309057 2.271173,-0.230967 2.271173,-0.230967 -0.3229,-0.227382 -0.848271,-0.361304 -1.46279,-0.384945 z M -58,74.382171 c 0,0 -0.830984,2.103896 -9.700605,3.772457 -10.006332,1.883865 -22.322021,1.670367 -29.640739,0.461934 0,0 1.495931,1.236406 9.200177,1.732251 C -76.418747,81.09827 -58.426144,79.929499 -58,74.382171 Z" />
  <path
     style="fill:url(#linearGradient4180);fill-opacity:1;fill-rule:evenodd"
     id="path2907"
     inkscape:connector-curvature="0"
     d="m 15.101413,19.338861 c 1.072615,4.225686 -3.786519,5.510584 -5.5391437,8.142238 -1.1934995,1.793052 0.5858237,3.713822 3.0117207,5.902367 -0.946032,-2.138492 -4.1555338,-4.012498 0,-7.29472 5.181888,-4.09008 2.527423,-6.749885 2.527423,-6.749885 z m 3.193332,5.236458 c 5.6e-5,0 -8.7551871,2.185045 -4.570551,7.007168 1.235342,1.422019 -0.31782,2.693901 -0.31782,2.693901 0,0 3.13444,-1.605049 1.695039,-3.632226 -1.344845,-1.889589 -2.38858,-2.831691 3.193332,-6.068843 z m 1.422621,8.611401 c -0.268363,0.01377 -0.544922,0.06546 -0.832385,0.166477 -0.26889,0.09518 -0.408625,0.31782 -0.408625,0.31782 0,0 0.165818,-0.07224 0.544834,-0.151343 1.549923,-0.322962 3.773288,2.075691 -1.029131,4.570551 -0.02225,0.05945 -0.09086,0.136208 -0.0908,0.136208 5.81151,-1.527717 4.410292,-5.172786 1.816112,-5.039713 z M 9.3352552,33.428868 c -0.6122768,0.01602 -2.0572478,0.147597 -3.7230308,0.95346 -2.6274649,1.270446 6.5050066,1.848016 11.2296296,0.605371 0.491182,-0.335193 1.16534,-0.620506 1.16534,-0.620506 0,0 -1.93381,0.337837 -3.85924,0.499431 -2.35665,0.197719 -4.8755406,0.245476 -6.1445148,0.07567 -3.0044427,-0.401664 1.6496358,-1.513428 1.6496358,-1.513428 0,0 -0.1137274,-0.0053 -0.3178198,0 z m -0.771848,2.905781 C 4.2291804,37.773144 10.981021,39.408072 17.0386,37.636196 16.394997,37.409319 15.979201,37.000557 15.979201,37.000557 13.01745,37.570553 11.305425,37.542084 9.1385097,37.318377 7.4632288,37.145232 8.5634072,36.334649 8.5634072,36.334649 Z m 0.605371,2.79984 C 5.233271,40.234112 11.573619,42.507237 16.584572,40.360365 15.763861,40.041424 15.177084,39.679323 15.177084,39.679323 12.942508,40.10171 11.89332,40.137914 9.8649546,39.906337 8.1909192,39.714338 9.1687782,39.134489 9.1687782,39.134489 Z m -2.542558,1.861516 C 4.935015,40.930942 1.1084505,42.613131 4.3863478,43.145071 14.602291,44.800988 23.002554,42.403422 20.353005,41.207885 c 0,0 0.718593,0.598057 -0.802116,1.059399 -2.891655,0.875859 -12.0339789,1.135269 -14.5743042,0.03027 -0.9125498,-0.397475 0.793131,-0.943044 1.331816,-1.059399 0.561673,-0.121507 0.8929218,-0.09081 0.8929218,-0.09081 C 7.074373,41.057952 6.8678211,41.0053 6.6262202,40.996005 Z m 15.3461528,1.513427 c 0,0 -0.326705,0.827156 -3.813837,1.483159 -3.934034,0.74065 -8.7760028,0.656712 -11.6533897,0.181611 0,0 0.588132,0.486099 3.6170907,0.681042 4.608722,0.294653 11.682595,-0.164855 11.850136,-2.345812 z" />
  <path
     style="opacity:0.8;fill:#ffffff;fill-opacity:1;fill-rule:evenodd"
     id="path3783"
     inkscape:connector-curvature="0"
     d="m 15.104455,19.728224 c 0.08205,0.323231 0.118469,0.630719 0.135147,0.921456 0.0096,-0.249884 0.0034,-0.511586 -0.03686,-0.786309 -0.0017,-0.0022 0.0017,-0.01013 0,-0.01229 -0.06246,-0.08072 -0.09829,-0.122861 -0.09829,-0.122861 z m 0.663448,1.695479 c -0.07008,1.161055 -0.773869,2.758193 -3.19438,4.66871 -1.64729,1.301102 -2.131678,2.379089 -2.064061,3.341813 0.079,-0.863406 0.635596,-1.820395 2.064061,-2.948659 2.705202,-2.135224 3.267946,-3.881176 3.19438,-5.061864 z m 2.530932,3.550676 c 1.4e-5,0 -0.546913,0.125247 -1.302324,0.405441 -0.01075,0.0069 -0.02618,0.0054 -0.03686,0.01229 -2.37156,1.52303 -3.034563,2.480015 -2.911801,3.354099 0.127313,-0.9267 1.204223,-2.004899 4.250983,-3.771826 z m -9.1039835,3.943832 c -0.1120762,1.492896 1.4180745,3.084231 3.3786715,4.853 -0.118254,-0.267311 -0.272117,-0.523996 -0.442299,-0.786309 -0.0079,-0.01218 -0.0166,-0.02469 -0.02457,-0.03686 -1.564197,-1.44636 -2.7769183,-2.774185 -2.9118005,-4.029833 z m 3.4155295,0.356296 c -0.06523,0.786764 0.235295,1.685722 1.118033,2.702937 0.285616,0.328777 0.413431,0.647166 0.454585,0.946028 0.05078,-0.402094 -0.03841,-0.860118 -0.454585,-1.339183 -0.736593,-0.848805 -1.064979,-1.621927 -1.118033,-2.309782 z m 2.85037,2.641507 c -0.105301,0.879481 -0.890004,1.587412 -1.462043,1.990344 -0.235485,0.465755 -0.589732,0.761737 -0.589732,0.761737 0,0 2.260052,-1.157483 2.051775,-2.752081 z m 4.250983,1.65862 c -0.268363,0.01377 -0.535704,0.07099 -0.823167,0.172005 -0.26889,0.09518 -0.417727,0.319438 -0.417727,0.319438 0,0 0.173858,-0.06833 0.552874,-0.147433 0.774962,-0.161481 1.718205,0.357458 1.867484,1.228608 0.08489,-0.796061 -0.460863,-1.372089 -1.105747,-1.572618 -0.0241,5.9e-4 -0.0494,-0.0013 -0.07372,0 z M 9.3299983,33.820356 c -0.3435246,0.009 -0.9480614,0.0653 -1.7077648,0.245721 -0.5135558,0.223708 -0.8297098,0.471147 -0.4791571,0.663448 0.5491881,-0.439468 2.5063599,-0.909169 2.5063599,-0.909169 0,0 -0.1153456,-0.0053 -0.319438,0 z m 8.6739707,0.946028 c 0,0 -0.477269,0.07162 -1.068888,0.159719 -0.03237,0.02078 -0.06717,0.04019 -0.09829,0.06143 -3.859849,1.015197 -10.6578165,0.812124 -11.5857716,0.01229 -1.1443391,1.105719 7.1564376,1.545849 11.5857716,0.380869 0.491182,-0.335193 1.167177,-0.614304 1.167177,-0.614304 z m 3.943832,0.417726 c -0.09452,0.906766 -0.914661,1.933633 -2.899515,2.678365 -0.308195,0.206079 -0.654348,0.417619 -1.056603,0.62659 -0.02225,0.05945 -0.08606,0.135147 -0.086,0.135147 3.172222,-0.833906 4.188972,-2.303283 4.04212,-3.440102 z M 8.5682615,36.732156 c -0.1263064,0.04192 -0.2485275,0.0807 -0.3562963,0.122861 9.829e-4,0.05706 0.01748,0.118352 0.06143,0.172005 0.1033143,-0.170379 0.2948659,-0.294866 0.2948659,-0.294866 z m -1.3146104,0.749451 c -0.6768862,1.153061 4.7804369,2.015191 9.7797179,0.552873 -0.208475,-0.07349 -0.374019,-0.166423 -0.528301,-0.258007 -4.256499,1.101612 -8.6790103,0.599625 -9.2514169,-0.294866 z m 1.9166282,2.051775 c -0.088178,0.02464 -0.1677307,0.04796 -0.2457216,0.07372 0.016988,0.02325 0.043209,0.03889 0.073716,0.06143 0.080217,-0.08372 0.1720051,-0.135147 0.1720051,-0.135147 z m -1.1671774,0.62659 c -0.6632407,1.110879 4.4103281,2.374319 8.5756821,0.589732 -0.169973,-0.06605 -0.320099,-0.130421 -0.466871,-0.196577 -3.565074,1.315909 -7.5972613,0.537831 -8.1088111,-0.393155 z M 6.6270611,41.38858 c -0.3744891,-0.01441 -0.8556099,0.05881 -1.3391825,0.184291 -0.4350066,0.193305 -0.7625566,0.43882 -0.4545849,0.651162 0.00216,-0.0019 0.010065,0.0019 0.012286,0 0.3151369,-0.271662 1.1205556,-0.515971 1.4620433,-0.589732 0.5616731,-0.121507 0.8968837,-0.09829 0.8968837,-0.09829 C 7.0775572,41.446617 6.868662,41.397874 6.6270611,41.38858 Z M 20.35061,41.597443 c 0,0 0.06109,0.05962 0.110575,0.147433 0.01312,-0.02167 0.02852,-0.04041 0.03686,-0.06143 -0.04612,-0.02622 -0.09158,-0.0608 -0.147433,-0.086 z m 0.430013,0.319438 c -0.08081,0.128418 -0.245226,0.251581 -0.466871,0.380869 -0.0063,0.0052 -0.01797,0.0071 -0.02457,0.01229 -0.14797,0.116001 -0.373215,0.245883 -0.737165,0.356296 -0.07587,0.02298 -0.173759,0.03931 -0.258007,0.06143 -2.649073,0.875593 -8.398717,1.472018 -14.9030131,0.417727 -0.6999676,-0.113591 -1.0743088,-0.276591 -1.2163217,-0.466871 -0.2066318,0.346856 0.05962,0.672315 1.2163217,0.860025 9.3827831,1.520869 17.2241591,-0.375758 16.3896281,-1.621762 z m 1.19175,0.982886 c 0,0 -0.06855,0.136955 -0.368583,0.344011 -0.0098,0.0099 -0.02666,0.01473 -0.03686,0.02457 -1.348786,1.300943 -5.839663,1.726357 -9.619999,1.65862 -0.0042,-7.4e-5 -0.0081,7.6e-5 -0.01229,0 -2.0619201,0.01221 -3.9917532,-0.118745 -5.4304467,-0.356296 0,0 0.583148,0.480791 3.6121067,0.675734 4.608722,0.294653 11.688525,-0.165684 11.856066,-2.346641 z" />
  <path
     style="fill:url(#linearGradient3769);fill-opacity:1;fill-rule:evenodd"
     id="path3672"
     inkscape:connector-curvature="0"
     d="m 15.101413,19.338861 c 1.072615,4.225686 -3.786519,5.510584 -5.5391437,8.142238 -1.1934995,1.793052 0.5858237,3.713822 3.0117207,5.902367 -0.946032,-2.138492 -4.1555338,-4.012498 0,-7.29472 5.181888,-4.09008 2.527423,-6.749885 2.527423,-6.749885 z m 3.193332,5.236458 c 5.6e-5,0 -8.7551871,2.185045 -4.570551,7.007168 1.235342,1.422019 -0.31782,2.693901 -0.31782,2.693901 0,0 3.13444,-1.605049 1.695039,-3.632226 -1.344845,-1.889589 -2.38858,-2.831691 3.193332,-6.068843 z m 1.422621,8.611401 c -0.268363,0.01377 -0.544922,0.06546 -0.832385,0.166477 -0.26889,0.09518 -0.408625,0.31782 -0.408625,0.31782 0,0 0.165818,-0.07224 0.544834,-0.151343 1.549923,-0.322962 3.773288,2.075691 -1.029131,4.570551 -0.02225,0.05945 -0.09086,0.136208 -0.0908,0.136208 5.81151,-1.527717 4.410292,-5.172786 1.816112,-5.039713 z M 9.3352552,33.428868 c -0.6122768,0.01602 -2.0572478,0.147597 -3.7230308,0.95346 -2.6274649,1.270446 6.5050066,1.848016 11.2296296,0.605371 0.491182,-0.335193 1.16534,-0.620506 1.16534,-0.620506 0,0 -1.93381,0.337837 -3.85924,0.499431 -2.35665,0.197719 -4.8755406,0.245476 -6.1445148,0.07567 -3.0044427,-0.401664 1.6496358,-1.513428 1.6496358,-1.513428 0,0 -0.1137274,-0.0053 -0.3178198,0 z m -0.771848,2.905781 C 4.2291804,37.773144 10.981021,39.408072 17.0386,37.636196 16.394997,37.409319 15.979201,37.000557 15.979201,37.000557 13.01745,37.570553 11.305425,37.542084 9.1385097,37.318377 7.4632288,37.145232 8.5634072,36.334649 8.5634072,36.334649 Z m 0.605371,2.79984 C 5.233271,40.234112 11.573619,42.507237 16.584572,40.360365 15.763861,40.041424 15.177084,39.679323 15.177084,39.679323 12.942508,40.10171 11.89332,40.137914 9.8649546,39.906337 8.1909192,39.714338 9.1687782,39.134489 9.1687782,39.134489 Z m -2.542558,1.861516 C 4.935015,40.930942 1.1084505,42.613131 4.3863478,43.145071 14.602291,44.800988 23.002554,42.403422 20.353005,41.207885 c 0,0 0.718593,0.598057 -0.802116,1.059399 -2.891655,0.875859 -12.0339789,1.135269 -14.5743042,0.03027 -0.9125498,-0.397475 0.793131,-0.943044 1.331816,-1.059399 0.561673,-0.121507 0.8929218,-0.09081 0.8929218,-0.09081 C 7.074373,41.057952 6.8678211,41.0053 6.6262202,40.996005 Z m 15.3461528,1.513427 c 0,0 -0.326705,0.827156 -3.813837,1.483159 -3.934034,0.74065 -8.7760028,0.656712 -11.6533897,0.181611 0,0 0.588132,0.486099 3.6170907,0.681042 4.608722,0.294653 11.682595,-0.164855 11.850136,-2.345812 z" />
  <path
     style="fill:#d45500;fill-opacity:1;fill-rule:evenodd"
     id="path2931"
     inkscape:connector-curvature="0"
     d="m 15.104455,19.33507 c 0.04464,0.175878 0.07355,0.350016 0.09829,0.516015 0.0017,0.0022 -0.0017,0.01008 0,0.01229 0.177792,0.231598 0.515892,0.769623 0.565159,1.560332 0.07995,-1.32456 -0.663448,-2.088633 -0.663448,-2.088633 z m 0.135147,1.31461 c -0.123504,3.218214 -4.119179,4.493162 -5.6761682,6.831059 -0.3065811,0.460592 -0.4148956,0.933079 -0.3685823,1.412899 0.030088,-0.3461 0.1448011,-0.683547 0.3685823,-1.019744 1.6185632,-2.430353 5.8775252,-3.714072 5.6761682,-7.224214 z m 3.059233,3.931545 c 4.7e-5,0 -5.936804,1.473382 -5.688454,4.693282 0.165535,-1.996589 2.718576,-3.273249 4.349272,-3.882401 0.01067,-0.0069 0.02611,-0.0054 0.03686,-0.01229 0.392803,-0.251462 0.811276,-0.513818 1.302324,-0.798595 z m -4.250983,4.177267 c -0.09876,0.766061 0.448928,1.419105 1.056603,2.272924 0.215032,0.30284 0.319717,0.604543 0.356296,0.884598 0.04741,-0.395936 -0.03631,-0.827097 -0.356296,-1.277753 -0.501138,-0.704129 -0.966341,-1.270992 -1.056603,-1.879769 z m -3.53839,0.74945 c -0.07782,1.28669 0.889041,2.358401 1.59719,3.440102 0.008,0.01217 0.01667,0.02468 0.02457,0.03686 0.14609,0.134813 0.290582,0.256282 0.442299,0.393155 -0.561706,-1.26973 -1.921871,-2.436738 -2.064061,-3.870115 z m 3.673537,3.41553 c -0.09996,0.791453 -0.774023,1.351469 -0.774023,1.351469 0,0 0.260866,-0.136936 0.589732,-0.368583 0.139935,-0.27677 0.235299,-0.612467 0.184291,-0.982886 z m 5.528735,0.258008 c -0.268363,0.01377 -0.535704,0.07099 -0.823167,0.172005 -0.26889,0.09518 -0.417727,0.319438 -0.417727,0.319438 0,0 0.173858,-0.06833 0.552874,-0.147433 0.250157,-0.05213 0.508864,-0.02949 0.761737,0.04914 1.143638,-0.02791 2.04269,0.683168 2.16235,1.609476 0.117739,-1.129479 -0.900795,-2.071125 -2.236067,-2.00263 z M 9.3299983,33.427201 c -0.6122768,0.01602 -2.0568986,0.152452 -3.7226817,0.958314 -0.4809199,0.232537 -0.5641987,0.435106 -0.3562962,0.614304 0.076289,-0.07371 0.1920795,-0.141746 0.3562962,-0.221149 0.731177,-0.353724 1.420573,-0.571442 2.0149169,-0.712593 0.7864981,-0.342602 2.0272028,-0.638876 2.0272028,-0.638876 0,0 -0.1153456,-0.0053 -0.319438,0 z m 8.6739707,0.946028 c 0,0 -1.932398,0.329849 -3.857828,0.491443 -2.35665,0.197719 -4.874065,0.243521 -6.1430391,0.07372 -0.4366716,-0.05838 -0.7091127,-0.126078 -0.8600255,-0.208864 -0.2949182,0.235998 -0.1896825,0.461683 0.8600255,0.602018 1.2689741,0.169804 3.7863891,0.124002 6.1430391,-0.07372 1.071239,-0.08991 2.046991,-0.221244 2.78894,-0.331724 0.478556,-0.307151 1.068888,-0.552874 1.068888,-0.552874 z m 2.887229,0.798595 c -0.100221,0.822095 -0.868579,1.869014 -2.899515,2.924087 -0.02225,0.05945 -0.08606,0.135147 -0.086,0.135147 0.418756,-0.110082 0.796495,-0.23872 1.142605,-0.368583 1.513951,-1.012324 1.953192,-1.968247 1.842912,-2.690651 z M 8.5682615,36.339002 c -1.177173,0.390694 -1.5369739,0.795121 -1.3146104,1.142605 0.1193888,-0.203376 0.4200015,-0.415975 0.9583141,-0.62659 -0.00444,-0.259098 0.3562963,-0.516015 0.3562963,-0.516015 z m 7.4085055,0.663448 c -2.961751,0.569996 -4.67643,0.543145 -6.8433459,0.319438 -0.5075118,-0.05245 -0.7541903,-0.165671 -0.8600255,-0.294866 -0.1510936,0.249172 -0.1349279,0.585189 0.8600255,0.68802 2.1669159,0.223707 3.8815949,0.250559 6.8433459,-0.319438 0,0 0.206286,0.189716 0.528301,0.380869 0.178089,-0.04609 0.351105,-0.08332 0.528301,-0.135147 -0.643603,-0.226877 -1.056602,-0.638876 -1.056602,-0.638876 z m -6.8064877,2.137778 c -1.0521082,0.29397 -1.3621502,0.664907 -1.1671774,1.019744 0.1167657,-0.195574 0.4120518,-0.384665 0.9214558,-0.552874 -0.1630683,-0.22318 0.2457216,-0.46687 0.2457216,-0.46687 z m -0.1720051,0.528301 c -0.1764768,0.184184 -0.2785877,0.49459 0.8723115,0.62659 2.0283663,0.231576 3.0730093,0.201238 5.3075853,-0.22115 0,0 0.371835,0.225878 0.933742,0.479158 0.158835,-0.05863 0.310279,-0.129488 0.466871,-0.196578 -0.820711,-0.318941 -1.400613,-0.675734 -1.400613,-0.675734 -2.234576,0.422387 -3.279219,0.452726 -5.3075853,0.221149 -0.4793056,-0.05497 -0.742602,-0.137586 -0.8723115,-0.233435 z M 6.6270611,40.995425 C 5.2969986,40.944256 2.6516499,41.977832 3.1746732,42.678618 3.4239386,42.260197 4.3582491,41.814093 5.2878786,41.572871 5.6474727,41.413077 6.0790792,41.290512 6.3076231,41.241147 6.8692962,41.11964 7.2045068,41.142858 7.2045068,41.142858 7.0775572,41.053462 6.868662,41.00472 6.6270611,40.995425 Z M 20.35061,41.204289 c 0,0 0.252367,0.214752 0.147433,0.479157 0.13231,0.07522 0.22763,0.151391 0.28258,0.233435 0.159246,-0.253058 0.0309,-0.504619 -0.430013,-0.712592 z m 0.110575,0.540587 c -0.102307,0.169038 -0.354317,0.359974 -0.90917,0.528301 -2.891655,0.87586 -12.030963,1.129573 -14.5712883,0.02457 -0.053232,-0.02318 -0.098982,-0.04964 -0.1351469,-0.07372 -0.0022,0.0019 -0.010116,-0.0019 -0.012286,0 -0.1757542,0.155162 -0.1825514,0.323142 0.147433,0.466871 2.4736707,1.076007 11.1867043,0.857734 14.3132813,0.03686 0.407853,-0.134807 0.743891,-0.274275 0.995172,-0.417726 0.0066,-0.0052 0.01832,-0.0071 0.02457,-0.01229 0.263667,-0.2177 0.221658,-0.421157 0.147433,-0.552874 z m 1.511188,0.761737 c 0,0 -0.321553,0.830613 -3.808685,1.486615 -3.934034,0.74065 -8.7821007,0.659392 -11.6594877,0.184292 0,0 0.583148,0.48079 3.6121067,0.675734 0.572303,0.03659 1.187956,0.06224 1.81834,0.07372 0.0042,7.6e-5 0.0081,-7.4e-5 0.01229,0 2.058408,-0.01278 4.253578,-0.170985 6.216755,-0.540587 2.015942,-0.379241 2.952291,-0.817273 3.403244,-1.118033 0.0102,-0.0098 0.02702,-0.01463 0.03686,-0.02457 0.218462,-0.220714 0.34764,-0.464545 0.368583,-0.737165 z" />
  <path
     style="opacity:0.43900003;fill:url(#linearGradient4229);fill-opacity:1;fill-rule:evenodd;stroke:none;stroke-width:1px;stroke-linecap:butt;stroke-linejoin:miter;stroke-opacity:1"
     d="m 5.2140863,34.650808 2.0395648,2.830799 0.7494508,2.678365 c 0,0 0.152947,0.585903 0.3777419,0.755374 1.048066,0.790129 2.5580052,0.734562 3.8704962,0.723862 1.461525,-0.01192 4.296281,-0.876217 4.296281,-0.876217 l 0.485748,-2.728511 0.9706,-3.661251 -8.6687138,-0.944361 z"
     id="path4149"
     inkscape:connector-curvature="0"
     sodipodi:nodetypes="cccaaccccc" />
</svg>
