<?xml version="1.0" encoding="UTF-8" standalone="no"?>
<svg
   xmlns:dc="http://purl.org/dc/elements/1.1/"
   xmlns:cc="http://creativecommons.org/ns#"
   xmlns:rdf="http://www.w3.org/1999/02/22-rdf-syntax-ns#"
   xmlns:svg="http://www.w3.org/2000/svg"
   xmlns="http://www.w3.org/2000/svg"
   xmlns:sodipodi="http://sodipodi.sourceforge.net/DTD/sodipodi-0.dtd"
   xmlns:inkscape="http://www.inkscape.org/namespaces/inkscape"
   fill="#FFEB3B"
   width="48"
   height="48"
   viewBox="0 0 48 48"
   id="svg2"
   version="1.1"
   inkscape:version="0.91 r13725"
   sodipodi:docname="text-x-javascript4.svg">
  <metadata
     id="metadata10">
    <rdf:RDF>
      <cc:Work
         rdf:about="">
        <dc:format>image/svg+xml</dc:format>
        <dc:type
           rdf:resource="http://purl.org/dc/dcmitype/StillImage" />
      </cc:Work>
    </rdf:RDF>
  </metadata>
  <defs
     id="defs8" />
  <sodipodi:namedview
     pagecolor="#ffffff"
     bordercolor="#666666"
     borderopacity="1"
     objecttolerance="10"
     gridtolerance="10"
     guidetolerance="10"
     inkscape:pageopacity="0"
     inkscape:pageshadow="2"
     inkscape:window-width="1366"
     inkscape:window-height="713"
     id="namedview6"
     showgrid="false"
     inkscape:zoom="4.9166667"
     inkscape:cx="19.012451"
     inkscape:cy="38.613201"
     inkscape:window-x="0"
     inkscape:window-y="30"
     inkscape:window-maximized="1"
     inkscape:current-layer="svg2"
     inkscape:snap-bbox="true"
     inkscape:bbox-paths="true"
     inkscape:bbox-nodes="true"
     inkscape:snap-bbox-edge-midpoints="true" />
  <g
     id="g4170">
    <path
       id="path4141"
       d="M 12 4 C 9.79 4 8.0195313 5.79 8.0195312 8 L 8 40 C 8 42.21 9.7704686 44 11.980469 44 L 36 44 C 38.21 44 40 42.21 40 40 L 40 16 L 28 4 L 12 4 z M 26 7 L 37 18 L 26 18 L 26 7 z "
       style="fill:#f7df1e;fill-opacity:1" />
    <path
       id="path4137"
       d="m 19.851562,24 1.779297,0 0,1.560547 -1.779297,0 0,-1.560547 z"
       style="fill:#000000;fill-opacity:1" />
    <path
       id="path4135"
       d="m 26.595703,27.355469 c 0.966797,0 1.734375,0.238281 2.300781,0.716797 0.571289,0.473632 0.844727,1.0625 0.820313,1.765625 l -0.01563,0.04297 -1.705078,0 c 0,-0.327148 -0.125977,-0.607421 -0.375,-0.841797 C 27.37207,28.804688 27.030273,28.6875 26.595703,28.6875 c -0.429687,0 -0.755859,0.09766 -0.980469,0.292969 -0.224609,0.190429 -0.33789,0.424804 -0.33789,0.703125 0,0.27832 0.106445,0.5 0.316406,0.666015 0.214844,0.161133 0.645508,0.304688 1.294922,0.431641 0.996094,0.205078 1.734375,0.49707 2.21289,0.873047 0.483399,0.371094 0.72461,0.878906 0.72461,1.523437 0,0.712891 -0.295899,1.291993 -0.886719,1.736328 -0.585937,0.444336 -1.358398,0.666016 -2.320312,0.666016 -1.030274,0 -1.84375,-0.263672 -2.439453,-0.791016 -0.595704,-0.527343 -0.878907,-1.132812 -0.84961,-1.816406 l 0.01367,-0.04492 1.65625,0 c 0.01953,0.458985 0.185547,0.793946 0.498047,1.003907 0.3125,0.209961 0.693359,0.314453 1.142578,0.314453 0.458984,0 0.813477,-0.08789 1.0625,-0.263672 0.249023,-0.175781 0.373047,-0.411133 0.373047,-0.708984 0,-0.273438 -0.117188,-0.500977 -0.351563,-0.681641 -0.234375,-0.180664 -0.670898,-0.339844 -1.310547,-0.476563 -0.947265,-0.200195 -1.666015,-0.483398 -2.154296,-0.849609 -0.483399,-0.371094 -0.72461,-0.873047 -0.72461,-1.507813 0,-0.664062 0.280274,-1.230468 0.841797,-1.699218 0.561524,-0.46875 1.300781,-0.703125 2.21875,-0.703125 z"
       style="fill:#000000;fill-opacity:1" />
    <path
       id="path4144"
       d="m 19.894531,27.5 1.779297,0 0,8.386719 c 0,0.874023 -0.225586,1.547851 -0.679687,2.021484 -0.454102,0.478516 -1.087891,0.71875 -1.898438,0.71875 -0.175781,0 -0.333008,-0.0098 -0.474609,-0.0293 -0.141602,-0.01953 -0.291016,-0.05176 -0.447266,-0.0957 l 0.101563,-1.419922 c 0.08301,0.02441 0.186523,0.04395 0.308593,0.05859 0.122071,0.01953 0.233399,0.02734 0.335938,0.02734 0.302734,0 0.540039,-0.104492 0.710937,-0.314453 0.175782,-0.205078 0.263672,-0.527344 0.263672,-0.966797 l 0,-8.386719 z"
       style="fill:#000000;fill-opacity:1" />
  </g>
</svg>
