<svg xmlns="http://www.w3.org/2000/svg" viewBox="0 0 168.19001 60.580003"><g transform="translate(-442-502.58)"><path d="m540.79 502.58h-23.488-2.927-4.696-.522-4.388-.77-.704l10.654 13.723 6.03 7.791v-13.12h18.292c4.398 0 6.133 1.221 6.133 6.03v4.508c0 4.807-1.734 6.07-6.133 6.07h-8.785-6.197-2.01-1.295-.756-1.144l-12.161-15.672h-11.748l18.907 24.322h.513 7.334 19.861c10.313 0 13.94-3.465 13.94-11.717v-10.254c.002-8.267-3.626-11.677-13.939-11.677" fill="#3397cc"/><g fill="#333"><path d="m442 546.82h14.917c4.94 0 6.693 1.596 6.693 5.625v4.875c0 4.03-1.753 5.641-6.693 5.641h-14.917v-16.14m4.959 11.961h8.776c2.092 0 2.915-.557 2.915-2.867v-2.236c0-2.23-.823-2.846-2.915-2.846h-8.776v7.949"/><path d="m491.99 546.82h14.912c3.83 0 4.826 1.877 4.826 4.779v1.076c0 2.113-.471 3.381-2.76 3.941 1.495.291 2.71.961 2.71 3.578v2.766h-4.925v-1.932c0-1.73-.5-2.283-2.053-2.283h-7.786v4.215h-4.925v-16.14zm4.925 7.955h8.2c1.299 0 1.817-.607 1.817-1.766v-.531c0-1.416-.755-1.646-2.286-1.646h-7.731v3.943"/></g><g fill="#3397cc"><path d="m537.68 552.68c0-4.135 1.337-6.086 5.716-6.086h8.627c3.944 0 5.03 1.883 5.03 4.03v1.354h-1.925v-.695c0-2.766-1.693-2.875-3.625-2.875h-7.912c-2.103 0-3.761.627-3.761 3.395v6.086c0 2.811 1.658 3.459 3.761 3.459h7.684c2.916 0 3.801-.648 3.801-2.813v-.984h1.979v1.02c0 2.965-.905 4.584-5.441 4.584h-8.223c-4.379 0-5.716-2.01-5.716-6.06v-4.421"/><path d="m560.35 552.68c0-4.135 1.348-6.086 5.748-6.086h9.309c4.315 0 5.697 1.951 5.697 6.086v4.42c0 4.051-1.382 6.06-5.697 6.06h-9.309c-4.4 0-5.748-2.01-5.748-6.06v-4.42m18.587-.875c0-2.768-1.646-3.395-3.784-3.395h-8.831c-2.1 0-3.792.627-3.792 3.395v6.086c0 2.811 1.692 3.459 3.792 3.459h8.831c2.138 0 3.784-.648 3.784-3.459v-6.086"/><path d="m584.42 546.82h2.229v16.14h-2.229v-16.14"/><path d="m590.01 546.82h3.244l14.764 14.168v-14.168h2.176v16.14h-3.252l-14.752-14.223v14.223h-2.18v-16.14"/></g><g fill="#333"><path d="m489.04 562.96l-8.88-16.14h-6.42l-8.71 16.14h5.5l6.43-12.43 6.58 12.43z"/><path d="m515.06 546.82v16.14h4.95v-4.56-1.67-1.89-.16-1.96-.69-5.21z"/><path d="m529.33 562.96h7.01l-9.8-8.28 8.79-7.86h-6.73l-8.44 7.96"/></g></g></svg>