<svg xmlns="http://www.w3.org/2000/svg" fill="#FF5722" viewBox="0 0 48 48"><defs><filter color-interpolation-filters="sRGB"><feGaussianBlur stdDeviation="1.71"/></filter><linearGradient gradientTransform="scale(1.0059.99417)" gradientUnits="userSpaceOnUse" y2="7.02" x2="0" y1="92.54"><stop/><stop offset="1" stop-opacity=".588"/></linearGradient></defs><path d="m8.01 28.982l-.006 11.02c0 2.21 1.77 4 3.98 4h11.123c0-4.02-1.344-7.181-3.746-10.375-2.427-3.228-5.993-4.136-11.352-4.643m18.709-7.566c-4.525 3.233-9.782 5.586-15.08 6.295 3.959.916 6.896 2.151 9.221 4.816 2.353 2.697 4.092 7.462 4.092 11.473h2.283c-1.612-7.31-1.825-15.01-.52-22.584m9.344-9.357c-1.419 2.099-3.171 4.13-5.186 6.01-.011 9.159 2.407 18.827 7.947 24.77.728-.724 1.18-1.725 1.18-2.834v-24l-3.941-3.941m-4.07-4.07c-.528 2.338-.919 4.825-1.057 7.42 1.456-1.507 2.732-3.088 3.793-4.684l-2.736-2.736m-19.988-3.988c-2.21 0-3.98 1.79-3.98 4l-.012 18.09c6.06.148 12.515-2.4 17.898-6.297.472-.342.933-.678 1.387-1.039.864-3.92 2.163-7.81 3.871-11.594l-3.164-3.164h-16" fill="#d81000"/></svg>