<svg xmlns="http://www.w3.org/2000/svg" fill="#E91E63" viewBox="0 0 48 48"><path d="m10 6c-2.21 0-4 1.79-4 4v28c0 2.21 1.79 4 4 4h28c2.21 0 4-1.79 4-4v-28c0-2.21-1.79-4-4-4h-28m16.828 4.223c.142 0 .287.011.434.035.146.02.311.051.494.092l-.152 1.148c-.081-.016-.172-.031-.273-.043-.098-.012-.204-.018-.318-.018-.321 0-.564.09-.727.273-.159.183-.238.445-.238.787v.77h1.344v1.1h-1.344v5.504h-1.482v-5.504h-1.01v-1.1h1.01v-.77c0-.728.197-1.289.592-1.684.399-.395.956-.592 1.672-.592m4.395 0c.142 0 .287.011.434.035.146.02.311.051.494.092l-.152 1.148c-.081-.016-.172-.031-.273-.043-.098-.012-.204-.018-.318-.018-.321 0-.564.09-.727.273-.159.183-.238.445-.238.787v.77h1.344v1.1h-1.344v5.504h-1.482v-5.504h-1.01v-1.1h1.01v-.77c0-.728.197-1.289.592-1.684.399-.395.956-.592 1.672-.592m-10.289.127h1.482v1.301h-1.482v-1.301m-4.078 1.313h1.477v1.605h1.186v1.1h-1.186v3.648c0 .273.06.468.178.586.118.114.275.172.471.172.081 0 .161-.007.238-.02.077-.016.15-.036.219-.061l.158 1.088c-.126.069-.276.122-.451.158-.175.041-.356.061-.543.061-.545 0-.972-.159-1.281-.477-.309-.321-.465-.824-.465-1.508v-3.648h-1.01v-1.1h1.01v-1.605m4.078 1.605h1.482v6.604h-1.482v-6.604m8.07 10.732l9 12h-28l7-9 5 6.01 7-9.01"/></svg>