<svg fill="#f57900" height="48" viewBox="0 0 48 48" width="48" xmlns="http://www.w3.org/2000/svg"><path d="m10 6c-2.21 0-4 1.79-4 4v28c0 2.21 1.79 4 4 4h28c2.21 0 4-1.79 4-4v-28c0-2.21-1.79-4-4-4zm21.59375 4.222656c.142415 0 .285156.010742.431641.035156.146484.020346.311035.051107.49414.091797l-.152343 1.148438c-.081381-.016276-.171713-.030762-.273438-.042969-.097656-.012207-.204427-.017578-.318359-.017578-.321452 0-.563802.090332-.726563.273438-.158691.183105-.236328.445312-.236328.787109v.769531h1.341797v1.09961h-1.341797v5.503906h-1.484375v-5.503906h-1.007813v-1.09961h1.007813v-.769531c0-.728353.197103-1.2889.591797-1.683594.398763-.394694.957682-.591797 1.673828-.591797zm-6.585938 2.923828c.793458 0 1.435385.231446 1.927735.695313.496419.459798.736979 1.045736.720703 1.757812l-.011719.03711h-1.349609c0-.362142-.119304-.669597-.359375-.921875-.236003-.252279-.545248-.378906-.927735-.378906-.557454 0-.953613.202473-1.185546.609374-.231934.402833-.347657.911133-.347657 1.521485v.212891c0 .622558.115723 1.13623.347657 1.539062.231933.398763.628092.597656 1.185546.597656.362142 0 .665853-.106771.914063-.318359.24821-.215658.373047-.483236.373047-.804688h1.341797l.013672.03711c.020345.618489-.232911 1.150065-.757813 1.597656-.520833.447591-1.148275.671875-1.884766.671875-.972493 0-1.719401-.312826-2.240234-.939453-.516764-.626628-.77539-1.420573-.77539-2.380859v-.212891c0-.956218.258626-1.748373.77539-2.375.520833-.630697 1.267741-.945313 2.240234-.945313zm-9.472656.121094h1.683594l1.203125 2.263672 1.220703-2.263672h1.703125l-2.076172 3.265625 2.136719 3.337891h-1.685547l-1.275391-2.31836-1.27539 2.31836h-1.697266l2.136719-3.337891zm13.464844 10.732422 9 12h-28l7-9 5 6.009766z" fill="#f57900"/></svg>