<?xml version="1.0" encoding="UTF-8" standalone="no"?>
<svg
   xmlns:dc="http://purl.org/dc/elements/1.1/"
   xmlns:cc="http://creativecommons.org/ns#"
   xmlns:rdf="http://www.w3.org/1999/02/22-rdf-syntax-ns#"
   xmlns:svg="http://www.w3.org/2000/svg"
   xmlns="http://www.w3.org/2000/svg"
   xmlns:sodipodi="http://sodipodi.sourceforge.net/DTD/sodipodi-0.dtd"
   xmlns:inkscape="http://www.inkscape.org/namespaces/inkscape"
   fill="#00BCD4"
   width="48"
   height="48"
   viewBox="0 0 48 48"
   id="svg2"
   version="1.1"
   inkscape:version="0.91 r13725"
   sodipodi:docname="folder-collection.svg">
  <metadata
     id="metadata10">
    <rdf:RDF>
      <cc:Work
         rdf:about="">
        <dc:format>image/svg+xml</dc:format>
        <dc:type
           rdf:resource="http://purl.org/dc/dcmitype/StillImage" />
        <dc:title />
      </cc:Work>
    </rdf:RDF>
  </metadata>
  <defs
     id="defs8" />
  <sodipodi:namedview
     pagecolor="#ffffff"
     bordercolor="#666666"
     borderopacity="1"
     objecttolerance="10"
     gridtolerance="10"
     guidetolerance="10"
     inkscape:pageopacity="0"
     inkscape:pageshadow="2"
     inkscape:window-width="1366"
     inkscape:window-height="713"
     id="namedview6"
     showgrid="false"
     inkscape:zoom="12.35903677003017"
     inkscape:cx="20.51742769666897"
     inkscape:cy="26.45981013587483"
     inkscape:window-x="0"
     inkscape:window-y="30"
     inkscape:window-maximized="1"
     inkscape:current-layer="svg2"
     inkscape:snap-bbox="true"
     inkscape:bbox-nodes="true" />
  <path
     d="m 8,12 -4,0 0,28 c 0,2.21 1.79,4 4,4 l 28,0 0,-4 -28,0 0,-28 z"
     id="path4146"
     style="fill:#87cf3e;fill-opacity:1" />
  <path
     d="m 16,4 c -2.21,0 -4,1.790000000000001 -4,4 l 0,24 c 0,2.21 1.79,4 4,4 l 24,0 c 2.21,0 4,-1.79 4,-4 L 44,8 C 44,5.79 42.21,4.000000000000001 40,4 L 16,4 Z"
     id="path4195"
     style="fill:#87cf3e;fill-opacity:1" />
  <path
     inkscape:connector-curvature="0"
     style="display:inline;fill:#87cf3e;fill-opacity:1;fill-rule:evenodd"
     id="path4190"
     d="m 36.85791716737882,26.10562674904643 c 0,-2.5642680333369 0,-8.61336305689517 0,-8.61336305689517 0,-2.87762274927409 -2.52356791001629,-5.21029168162341 -5.63725102614958,-5.21029168162341 l -3.23170197655301,0 0,-0.006950586032 -8.74052394124862,-0.0381916411437 0,3.14273273334324 c 0,0 0.71367363134408,0 1.34172440438247,0 0.93655401476536,0 1.10200583434868,0.64651947306602 1.10200583434868,1.54137693964605 l 0.006950586032,5.55599536563383 c 0,2.87762449127559 2.52357836202542,5.21028993962188 5.63378618514271,5.21028993962188 l 7.67909629011473,0 c 0.98446602434464,0 1.84591886993529,-0.62345363104891 1.84591886993529,-1.58160498055696 z" />
  <path
     inkscape:connector-curvature="0"
     style="display:inline;overflow:visible;visibility:visible;fill:#ffffff;fill-opacity:1;fill-rule:evenodd;stroke:none;stroke-width:1;marker:none;enable-background:accumulate"
     id="path4197"
     d="m 29.13092454569846,15.55352227166223 c -0.70077062614655,0 -1.32342642050305,0.26017315178487 -1.82371880266949,0.76555392036713 -0.50004327595025,0.50511075834795 -0.76259600180017,1.13570311159199 -0.76259425979867,1.8473473111749 l 0,3.59720699174755 1.63159519793974,0 0,-3.59720699174755 c 0,-0.27276259671032 0.089000599237,-0.48604280980029 0.28375288424798,-0.68277400852863 0.19539334156734,-0.1973600612741 0.40230305512884,-0.28670557681038 0.67096498028046,-0.28670557681038 0.27429207403763,0 0.47809754090518,0.0888960791463 0.67391767284284,0.28670557681038 0.1947540270125,0.19673119872833 0.28375636825101,0.41001141181831 0.28375636825101,0.68277400852863 l 0,3.59720699174755 1.63159345593824,0 0,-3.59720699174755 c 0,-0.27276259671032 0.0890023412385,-0.48604280980029 0.28375811025253,-0.68277400852863 0.19581838993616,-0.19780949766411 0.39962385680374,-0.28670557681038 0.67392115684589,-0.28670557681038 0.26866366715312,0 0.47556815471012,0.0893455155363 0.6709580122744,0.28670557681038 0.19475402701249,0.19673119872833 0.28375636825102,0.41001141181831 0.28375636825102,0.68277400852863 l 0.008866787695,4.20315524960485 c 0,0.89661166210238 -0.85385771899935,1.65227275588425 -1.95081871696999,1.65227275588425 l -5.26129748588754,-0.0206862679521 c -0.84652389263492,0 -1.56952420007299,-0.82395974705317 -1.56952420007299,-1.88283884997534 l 0,-7.91513575295581 -1.54291861098396,0 0,8.21957664715733 c 0,0.87209473282595 0.31912074094113,1.6368577845067 0.93994046570421,2.25527528918515 0.53062933849357,0.52376236853429 1.16878372030024,0.86327672117347 1.88578980053633,0.9399561437178 l 5.85836850404094,-1.393601209e-5 c 0.90022457323768,0 1.69111416359182,-0.3347308164879 2.32915879930313,-0.98430053420099 l 0.00296140257,0 c 0.54265089092621,-0.55752758383658 0.85988678623157,-1.22556948558033 0.93698254713722,-1.97739991803786 l -0.005905385125,-4.48986082641525 c 0,-0.7116441995829 -0.26254401584241,-1.34223655282694 -0.76259425979866,-1.84734731117491 -0.50028715616196,-0.50538076858224 -1.12294817652297,-0.76555392036712 -1.82371531866646,-0.76555392036712 -0.68786239494446,0 -1.2897430792718,0.25578504997677 -1.77643042963149,0.72416396444789 -0.48526413512448,-0.46760720780139 -1.082937885801,-0.72416396444789 -1.77051633449902,-0.72416396444789 z" />
  <path
     inkscape:connector-curvature="0"
     style="display:inline;overflow:visible;visibility:visible;fill:#c7f994;fill-opacity:1;fill-rule:evenodd;stroke:none;stroke-width:1;marker:none;enable-background:accumulate"
     id="path4201"
     d="m 27.28184394301937,28.88000281072042 c -3.70874212254059,0 -6.9272066296058,-2.81157650395748 -6.9272066296058,-6.51699488761362 l -0.003327222887,-4.49917705050011 0,-1.14728742164516 -2.35131009052658,0 L 18,11 l 9.91553357495178,0.0466960925241 3.10173472776421,0.00667186579 c 3.71207457143258,0 6.92720488760426,2.8082301190534 6.92720488760426,6.51697572559699 l 0,11.30965738480785 -10.66262402129584,0 0,0 0,0 z m 9.15177217414022,-3.03381234681939 c 0,-2.46378590213596 0,-8.27584503798846 0,-8.27584503798846 0,-2.7648612494168 -2.42467971019859,-5.0061238784414 -5.41635304044867,-5.0061238784414 l -3.10506717665615,0 0,-0.00667186579 -8.39802031401522,-0.0366952618451 0,2.6848371839699 c 0,0 0.33730549472228,0 0.94074527040261,0 0.6386874342692,0 1.40722366122445,0.60020139487002 1.40722366122445,1.48097652122899 l 0.00667186579,5.67302999519948 c 0,2.76486299141828 2.42469190420917,5.00612213643988 5.41302581756122,5.00612213643988 l 7.37818643297753,0 c 0.94588765886534,0 1.77358574116274,-0.59902380184806 1.77358574116274,-1.51962979277332 z" />
</svg>
