<svg xmlns="http://www.w3.org/2000/svg" fill="#00BCD4" viewBox="0 0 48 48"><path d="m8 12h-4v28c0 2.21 1.79 4 4 4h28v-4h-28v-28"/><path d="m16 4c-2.21 0-4 1.79-4 4v24c0 2.21 1.79 4 4 4h24c2.21 0 4-1.79 4-4v-24c0-2.21-1.79-4-4-4h-24"/><g transform="matrix(.75 0 0 .75-29.28-2.294)" fill-rule="evenodd"><path d="m59.18 20.519c.109-.018 2.831 1.418 4.66 1.915 3.262.834 6.24 3.343 7.68 4.784.107.123 1.236-.846 2.418-.776 1.615.098 6.611 1.503 7.278.546.405-.562.376-1.251.881-1.533.272-.076-1.01-2.422.352-3.173.972-.486 1.795 2.234 2.045 2.538.112.136.705.17.635-.141-.076-.337-1.035-2.947.141-3.385 1.911-.757 1.572 3.339 1.622 3.455.106.248 6.654.439 7.05 3.385.23 1.621-5.246 3.716-5.782 4.09-.535.373-.491.97-.282 1.34.24.401 1.835 1.753 1.622 2.397-.147.372-3.124-.992-3.314-.705-.434.548 2.168 1.918 1.269 2.891-.356.233-4.453-1.715-4.443-1.692-.11.042-5.789 1.037-10.154-.282-.154-.043-2.802 2.558-3.103 2.468-.412-.151.607-2.262.494-2.68-.185-.233-1.877.944-1.974.353-.116-.777 1.485-1.671 1.41-2.186-.413-2.927.184-4.636 1.199-6.06.338-.526-3.975-3.783-7.098-5.069-3.123-1.286-4.793-2.375-4.608-2.477z" fill="#020202" stroke="#000002" stroke-width=".254"/><g stroke="#000"><g stroke-width=".152"><g fill="#00BCD4"><path d="m87.24 30.3c-.034-.12 2.131-1.429 2.444-1.128.564.205-2.425 1.28-2.444 1.128z"/><path d="m88.28 31.495c-.191-.115 1.296-1.849 1.661-1.661.533.529-1.686 1.702-1.661 1.661z"/></g><path d="m94.14 23.472c-.181-.15-1.598 2.087-1.285 2.319.188.141 1.366-2.24 1.285-2.319z" fill="#020202"/></g><ellipse cx="87.73" cy="26.673" rx=".565" ry=".644" fill="#00BCD4" stroke-width=".141"/><g stroke-width=".152"><path d="m92.51 23.16c-.089-.104-.564 2.307-.345 2.413.188.141.517-2.288.345-2.413z" fill="#020202"/><path d="m86.46 26.42c-.562.397.309 2.647 1.741 1.333-1.125.033-1.501-.296-1.741-1.333z" fill="#00BCD4"/></g></g></g></svg>