<?xml version="1.0" encoding="UTF-8" standalone="no"?>
<svg
   xmlns:dc="http://purl.org/dc/elements/1.1/"
   xmlns:cc="http://creativecommons.org/ns#"
   xmlns:rdf="http://www.w3.org/1999/02/22-rdf-syntax-ns#"
   xmlns:svg="http://www.w3.org/2000/svg"
   xmlns="http://www.w3.org/2000/svg"
   xmlns:sodipodi="http://sodipodi.sourceforge.net/DTD/sodipodi-0.dtd"
   xmlns:inkscape="http://www.inkscape.org/namespaces/inkscape"
   width="48"
   height="48"
   viewBox="0 0 48 48"
   id="svg2"
   version="1.1"
   inkscape:version="0.91 r13725"
   sodipodi:docname="folder-templates.svg"
   style="fill:#4caf50">
  <metadata
     id="metadata10">
    <rdf:RDF>
      <cc:Work
         rdf:about="">
        <dc:format>image/svg+xml</dc:format>
        <dc:type
           rdf:resource="http://purl.org/dc/dcmitype/StillImage" />
        <dc:title></dc:title>
      </cc:Work>
    </rdf:RDF>
  </metadata>
  <defs
     id="defs8" />
  <sodipodi:namedview
     pagecolor="#ffffff"
     bordercolor="#666666"
     borderopacity="1"
     objecttolerance="10"
     gridtolerance="10"
     guidetolerance="10"
     inkscape:pageopacity="0"
     inkscape:pageshadow="2"
     inkscape:window-width="1366"
     inkscape:window-height="713"
     id="namedview6"
     showgrid="false"
     inkscape:snap-intersection-paths="false"
     inkscape:zoom="5.491911049139335"
     inkscape:cx="-3.577293845870599"
     inkscape:cy="5.765909010275777"
     inkscape:window-x="0"
     inkscape:window-y="30"
     inkscape:window-maximized="1"
     inkscape:current-layer="svg2"
     fit-margin-top="0"
     fit-margin-left="0"
     fit-margin-right="0"
     fit-margin-bottom="0"
     inkscape:snap-bbox="true"
     inkscape:bbox-nodes="true" />
  <path
     d="m 4,12 0,28 c 0,2.21 1.79,4 4,4 l 28,0 0,-4 -28,0 0,-28 -4,0 z"
     id="path4219"
     inkscape:connector-curvature="0" />
  <path
     style="fill:#4caf50;fill-opacity:1"
     d="M 20.66666666666667,2.999999999999992 C 19.19333333333334,2.999999999999992 18.00000000000001,4.342499999999994 18,6 l 0,27 c 0,1.65749999999998 1.19333333333332,3 2.66666666666667,3 l 10.66666666666666,0 C 32.80666666666665,36 34,34.65749999999998 34,33 L 34,6 C 34,4.342499999999994 32.80666666666665,2.999999999999992 31.33333333333333,2.999999999999992 l -10.66666666666666,0 z m 0,3.000000000000008 10.66666666666666,0 0,27 -10.66666666666666,0 0,-3.00000000000004 5.33333333333333,0 0,-3.00000000000001 -5.33333333333333,0 0,-2.99999999999993 5.33333333333333,0 0,-3.00000000000001 -5.33333333333333,0 0,-3 5.33333333333333,0 0,-3 -5.33333333333333,0 0,-3 5.33333333333333,0 L 26,9 l -5.33333333333333,0 0,-3 z"
     id="path4144"
     inkscape:connector-curvature="0" />
</svg>
