<svg fill="#f44336" height="48" viewBox="0 0 48 48" width="48" xmlns="http://www.w3.org/2000/svg"><path d="m10 6c-2.21 0-4 1.79-4 4v28c0 2.21 1.79 4 4 4h28c2.21 0 4-1.79 4-4v-28c0-2.21-1.79-4-4-4zm20.207031 2.810547c.142416 0 .28711.012695.433594.037109.146484.020345.311035.051107.494141.091797l-.152344 1.146485c-.08138-.016277-.173665-.028809-.275391-.041016-.097656-.012207-.202474-.019531-.316406-.019531-.321452 0-.563802.092285-.726563.27539-.158691.183106-.238281.445313-.238281.78711v.769531h1.34375v1.097656h-1.34375v5.50586h-1.482422v-5.50586h-1.007812v-1.097656h1.007812v-.769531c0-.728353.197103-1.290853.591797-1.685547.398763-.394694.955729-.591797 1.671875-.591797zm-5.896484.128906h1.484375v1.300781h-1.484375zm-4.839844 2.794922c.394694 0 .740072.086914 1.037109.257813.301107.166829.556153.407226.763672.724609l.146485-.859375h1.232422v6.603516c0 .850423-.262207 1.506835-.78711 1.970703-.524902.463867-1.270019.697265-2.234375.697265-.321452 0-.66862-.047038-1.042968-.140625-.37028-.089518-.706706-.210774-1.007813-.361328l.318359-1.166015c.244141.126139.513672.223795.806641.292968.297038.073242.600749.111328.914063.111328.537109 0 .929524-.115722 1.177734-.347656.24821-.227864.373047-.580566.373047-1.05664v-.677735c-.20752.264486-.453451.465169-.738281.603516-.280762.134277-.604493.203125-.970704.203125-.809733 0-1.444498-.296712-1.904296-.886719-.459799-.590007-.689454-1.363932-.689454-2.324219v-.128906c0-1.049805.229655-1.897949.689454-2.544922.459798-.646973 1.098144-.970703 1.916015-.970703zm4.839844.123047h1.484375v6.603516h-1.484375zm-4.460938 1.091797c-.508626 0-.886556.213379-1.134765.640625-.244141.427246-.367188.980631-.367188 1.660156v.128906c0 .606283.121257 1.092774.361328 1.458985.244141.362142.62028.542968 1.128907.542968.317382 0 .58317-.065104.798828-.195312.219726-.134277.396972-.326009.53125-.574219v-2.892578c-.138347-.240072-.317383-.428223-.53711-.5625-.215657-.138346-.476074-.207031-.78125-.207031zm9.150391 11.050781 9 12h-28l7-9 5 6.009766z" fill="#f44336"/></svg>