<?xml version="1.0" encoding="UTF-8" standalone="no"?>
<!-- Created with Inkscape (http://www.inkscape.org/) -->

<svg
   xmlns:dc="http://purl.org/dc/elements/1.1/"
   xmlns:cc="http://creativecommons.org/ns#"
   xmlns:rdf="http://www.w3.org/1999/02/22-rdf-syntax-ns#"
   xmlns:svg="http://www.w3.org/2000/svg"
   xmlns="http://www.w3.org/2000/svg"
   xmlns:sodipodi="http://sodipodi.sourceforge.net/DTD/sodipodi-0.dtd"
   xmlns:inkscape="http://www.inkscape.org/namespaces/inkscape"
   version="1.0"
   id="svg2"
   sodipodi:version="0.32"
   inkscape:version="0.91 r13725"
   sodipodi:docname="emblem-python.svg"
   width="48"
   height="48">
  <metadata
     id="metadata371">
    <rdf:RDF>
      <cc:Work
         rdf:about="">
        <dc:format>image/svg+xml</dc:format>
        <dc:type
           rdf:resource="http://purl.org/dc/dcmitype/StillImage" />
        <dc:title />
      </cc:Work>
    </rdf:RDF>
  </metadata>
  <sodipodi:namedview
     inkscape:window-height="713"
     inkscape:window-width="1366"
     inkscape:pageshadow="2"
     inkscape:pageopacity="0.0"
     guidetolerance="10.0"
     gridtolerance="10.0"
     objecttolerance="10.0"
     borderopacity="1.0"
     bordercolor="#666666"
     pagecolor="#ffffff"
     id="base"
     inkscape:zoom="4.171912704570838"
     inkscape:cx="-71.14211380875486"
     inkscape:cy="-25.39732209171463"
     inkscape:window-x="0"
     inkscape:window-y="30"
     inkscape:current-layer="svg2"
     width="210mm"
     height="40mm"
     units="px"
     showgrid="false"
     inkscape:window-maximized="1"
     fit-margin-top="0"
     fit-margin-left="0"
     fit-margin-right="0"
     fit-margin-bottom="0" />
  <defs
     id="defs4" />
  <g
     id="g4134"
     transform="matrix(0.7499999999999999,0,0,0.75,5.999999999751279,6.000000000010921)">
    <path
       inkscape:connector-curvature="0"
       id="path3505"
       d="M 23.71419191050067,3.926001577115881e-4 C 21.73494923098855,0.0094895761938574 19.84481636932477,0.1764459832080618 18.18169362501803,0.4675201359392852 13.28234415893277,1.323619844025382 12.39281213625666,3.115509619773702 12.39281127264717,6.420060198882407 l 0,4.364306028825484 11.57776470474172,0 0,1.45476867627516 -11.57776470474172,0 -4.345035238842473,0 c -3.364820765439514,0 -6.311153731319325,2.00035956848073 -7.2327295522602064,5.80572820348345 -1.0630251193243791,4.36183575153415 -1.1101764701756231,7.08369224935908 0,11.63814941020129 0.8229896161756041,3.39016174576387 2.788397703487254,5.80572734930735 6.153217691678229,5.80572820348344 l 3.980699985896049,0 0,-5.2318286339437 c 0,-3.77968783045095 3.30639110647366,-7.11368493488131 7.23272946589926,-7.11368536196936 l 11.56427080648444,0 c 3.219083209823,0 5.78888364778511,-2.62153693117314 5.78888235237087,-5.81907470510065 l 0,-10.904091821255104 c 0,-3.103366481451113 -2.64695444605212,-5.4346005595600921 -5.78888235237087,-5.9525400629431217 C 27.75707782483265,0.1400610708152809 25.69343502181754,-0.0087035206346106 23.71419191050067,3.926001577115881e-4 Z M 17.45302311912519,3.510522931749693 c 1.19590396578044,0 2.17251761942124,0.981723729298434 2.17251761942124,2.188826179803735 -8.6360949e-7,1.202823028226763 -0.9766136536408,2.175479763604141 -2.17251761942124,2.175479763604141 -1.20019092328118,-8.54176101e-7 -2.17251761942123,-0.972657162465429 -2.17251761942123,-2.175479763604141 0,-1.207102023417248 0.97232669614005,-2.188826179803736 2.17251761942123,-2.188826179803736 z"
       style="opacity:1;fill:#3776ab;fill-opacity:1;stroke:none" />
    <path
       inkscape:connector-curvature="0"
       id="path3512"
       d="m 36.97869217018276,12.23913490398305 0,5.08501711615447 c 0,3.94234516913624 -3.37925642984396,7.26049645267055 -7.23272773868029,7.26049687975859 l -11.56427080648444,0 c -3.16764749229947,0 -5.78888192056612,2.68146464533063 -5.78888235237086,5.81907470510066 l 0,10.90409352960733 c 0,3.10336528560456 2.72839627525238,4.92873107702519 5.78888235237086,5.81907299674843 3.66486979167404,1.06584521282906 7.17928844714352,1.25847046592959 11.56427080648444,0 2.91474938511145,-0.83469661746068 5.78888364778512,-2.5145278843668 5.78888235237087,-5.81907299674843 l 0,-4.36430602882549 -11.56427080648445,0 0,-1.45477038462738 11.56427080648445,0 5.78888062515189,0 c 3.36482076543951,0 4.61869538174269,-2.3213978131891 5.78888192056612,-5.80572820348345 1.20876397467317,-3.58706428570265 1.15733171158761,-7.03660707291774 0,-11.63814941020129 -0.83156094034863,-3.31311079034755 -2.41978197011126,-5.80572820348345 -5.78888192056612,-5.80572820348345 l -4.34503523884247,0 z m -6.50405723278745,27.61391355434587 c 1.20019178689067,0 2.17251805122599,0.97265887081765 2.17251761942124,2.17547976360414 -4.3180475e-7,1.20709860671284 -0.97232669614005,2.18882455686914 -2.17251761942124,2.18882455686914 -1.19590439758518,0 -2.17251718761649,-0.9817259501563 -2.17251761942124,-2.18882455686914 8.6360949e-7,-1.20282089278649 0.97661149461708,-2.17547976360414 2.17251761942124,-2.17547976360414 z"
       style="opacity:1;fill:#ffd343;fill-opacity:1;stroke:none" />
  </g>
</svg>
