<?xml version="1.0" encoding="UTF-8" standalone="no"?>
<svg
   xmlns:dc="http://purl.org/dc/elements/1.1/"
   xmlns:cc="http://creativecommons.org/ns#"
   xmlns:rdf="http://www.w3.org/1999/02/22-rdf-syntax-ns#"
   xmlns:svg="http://www.w3.org/2000/svg"
   xmlns="http://www.w3.org/2000/svg"
   xmlns:sodipodi="http://sodipodi.sourceforge.net/DTD/sodipodi-0.dtd"
   xmlns:inkscape="http://www.inkscape.org/namespaces/inkscape"
   fill="#00BCD4"
   width="48"
   height="48"
   viewBox="0 0 48 48"
   id="svg2"
   version="1.1"
   inkscape:version="0.91 r13725"
   sodipodi:docname="application-vnd.ms-publisher.svg">
  <metadata
     id="metadata10">
    <rdf:RDF>
      <cc:Work
         rdf:about="">
        <dc:format>image/svg+xml</dc:format>
        <dc:type
           rdf:resource="http://purl.org/dc/dcmitype/StillImage" />
        <dc:title></dc:title>
      </cc:Work>
    </rdf:RDF>
  </metadata>
  <defs
     id="defs8" />
  <sodipodi:namedview
     pagecolor="#ffffff"
     bordercolor="#666666"
     borderopacity="1"
     objecttolerance="10"
     gridtolerance="10"
     guidetolerance="10"
     inkscape:pageopacity="0"
     inkscape:pageshadow="2"
     inkscape:window-width="1366"
     inkscape:window-height="713"
     id="namedview6"
     showgrid="false"
     inkscape:zoom="6.9532167"
     inkscape:cx="5.3199745"
     inkscape:cy="14.621084"
     inkscape:window-x="0"
     inkscape:window-y="30"
     inkscape:window-maximized="1"
     inkscape:current-layer="svg2"
     inkscape:snap-bbox="true"
     inkscape:bbox-paths="true"
     inkscape:bbox-nodes="true"
     inkscape:snap-bbox-edge-midpoints="true"
     inkscape:snap-bbox-midpoints="true"
     inkscape:snap-object-midpoints="true" />
  <path
     style="fill:#008272;fill-opacity:1"
     d="M 12 4 C 9.79 4 8.0195313 5.79 8.0195312 8 L 8 40 C 8 42.21 9.7704686 44 11.980469 44 L 36 44 C 38.21 44 40 42.21 40 40 L 40 16 L 28 4 L 12 4 z M 26 7 L 37 18 L 26 18 L 26 7 z M 18.882812 24 L 24.322266 24 C 25.839193 24 27.017578 24.390625 27.857422 25.171875 C 28.697266 25.953125 29.117188 26.981771 29.117188 28.257812 C 29.117188 29.553385 28.697266 30.588542 27.857422 31.363281 C 27.017578 32.13151 25.839193 32.515625 24.322266 32.515625 L 20.806641 32.515625 L 20.806641 38.21875 L 18.882812 38.21875 L 18.882812 24 z M 20.806641 25.513672 L 20.806641 31.011719 L 24.322266 31.011719 C 25.285807 31.011719 26.005208 30.754557 26.480469 30.240234 C 26.955729 29.719401 27.193359 29.065104 27.193359 28.277344 C 27.193359 27.489583 26.952474 26.832031 26.470703 26.304688 C 25.995443 25.777344 25.279297 25.513672 24.322266 25.513672 L 20.806641 25.513672 z "
     id="path4401" />
</svg>
