<?xml version="1.0" encoding="UTF-8" standalone="no"?>
<svg xmlns:dc="http://purl.org/dc/elements/1.1/" xmlns:cc="http://creativecommons.org/ns#" xmlns:rdf="http://www.w3.org/1999/02/22-rdf-syntax-ns#" xmlns:svg="http://www.w3.org/2000/svg" xmlns="http://www.w3.org/2000/svg" xmlns:sodipodi="http://sodipodi.sourceforge.net/DTD/sodipodi-0.dtd" xmlns:inkscape="http://www.inkscape.org/namespaces/inkscape" width="48" height="52" viewBox="0 0 48 52" id="svg2" version="1.1" inkscape:version="0.91 r13725" sodipodi:docname="text-xml2.svg" style="fill:#00BCD4">
  <metadata id="metadata10">
    <rdf:RDF>
      <cc:Work rdf:about="">
        <dc:format>image/svg+xml</dc:format>
        <dc:type rdf:resource="http://purl.org/dc/dcmitype/StillImage" />
        <dc:title></dc:title>
      </cc:Work>
    </rdf:RDF>
  </metadata>
  <defs id="defs8" />
  <sodipodi:namedview pagecolor="#ffffff" bordercolor="#666666" borderopacity="1" objecttolerance="10" gridtolerance="10" guidetolerance="10" inkscape:pageopacity="0" inkscape:pageshadow="2" inkscape:window-width="1366" inkscape:window-height="713" id="namedview6" showgrid="false" inkscape:snap-page="true" inkscape:snap-bbox="true" inkscape:bbox-paths="true" inkscape:bbox-nodes="true" inkscape:zoom="4.916666666666667" inkscape:cx="-22.2372880965845" inkscape:cy="26.86147725826799" inkscape:window-x="0" inkscape:window-y="30" inkscape:window-maximized="1" inkscape:current-layer="svg2" inkscape:snap-bbox-edge-midpoints="false" fit-margin-top="0" fit-margin-left="0" fit-margin-right="0" fit-margin-bottom="0" />
  <path d="m 28,0.13928986 -16,0 c -2.2100005,0 -3.980000499999999,1.7900000399999997 -3.980000499999999,4.0000000399999997 l -0.02,32.000000100000001 c 0,2.21000000000001 1.769999999999999,4 3.980000499999998,4 l 24.02,0 c 2.21,0 4,-1.78999999999999 4,-4 l 0,-24 -12,-12.0000001399999973 z m 4,32.0000001400000044 -16,0 0,-4.00000000000001 16,0 0,4.00000000000001 z m 0,-8.00000000000001 -16,0 0,-4 16,0 0,4 z m -6,-9.999999999999987 0,-11.000000099999997 11,11.000000099999997 -11,0 z" id="path4" inkscape:connector-curvature="0" style="fill:#00BCD4;fill-opacity:1;stroke:none" />
  <g id="layer1" transform="matrix(0.19898122,0,0,0.19898122,-18.226213,-7.615721800000003)">
    <path style="font-style:normal;font-variant:normal;font-weight:bold;font-stretch:normal;font-size:72px;line-height:125%;font-family:Arial;-inkscape-font-specification:'Arial Bold';text-align:center;writing-mode:lr-tb;text-anchor:middle;fill:#0000ff;fill-opacity:1;fill-rule:nonzero;stroke:none;stroke-width:1;stroke-linejoin:round;stroke-miterlimit:4;stroke-opacity:1" id="flowRoot2411" transform="translate(0,2.9395703)" d="m 126.92969,296.6652 -35.332034,-15.3632799999999 0,-8.50782 35.332034,-15.29297 0,10.01954 -24.64453,9.42187 24.64453,9.77344 0,9.94922 z" inkscape:connector-curvature="0" />
    <path style="font-style:normal;font-variant:normal;font-weight:bold;font-stretch:normal;font-size:72px;line-height:125%;font-family:Arial;-inkscape-font-specification:'Arial Bold';text-align:center;writing-mode:lr-tb;text-anchor:middle;fill:#d40000;fill-opacity:1;fill-rule:nonzero;stroke:none;stroke-width:1;stroke-linejoin:round;stroke-miterlimit:4;stroke-opacity:1" id="flowRoot2419" transform="translate(-90.57142899999999,-14.078125)" d="m 225.54688,312.53629 13.46484,-19.23047 -12.90234,-18.10547 12.05859,0 6.60937,10.26563 6.96094,-10.26563 11.60156,0 -12.65625,17.6836 13.81641,19.65234 -12.12891,0 -7.59375,-11.5664100000001 -7.66406,11.5664100000001 -11.5664,0 z m 44.08593,-37.33594 9.10547,0 0,5.09766 c 3.2578,-3.9608999999999 7.1367000000001,-5.9413699999999 11.6367200000001,-5.94141 2.3906,4e-5 4.46481,0.49223 6.22266,1.47657 1.7577800000001,0.98441 3.1991800000002,2.47269 4.3242200000001,4.46484 1.64058,-1.99215 3.4101099999999,-3.48043 5.3085899999999,-4.46484 1.8983900000002,-0.98434 3.9257400000001,-1.47653 6.08203,-1.47657 2.74214,4e-5 5.06245,0.55668 6.96094,1.66992 1.8983799999999,1.11332 3.31635,2.74809 4.2538999999999,4.9043 0.67963,1.59378 1.01948,4.1719 1.0195400000001,7.73438 l 0,23.87109 -9.8789100000001,0 0,-21.33984 c -5e-5,-3.7031 -0.33989,-6.0937300000001 -1.0195299999999,-7.17188 -0.91411,-1.40622 -2.32036,-2.10934 -4.21875,-2.10937 -1.38286,3e-5 -2.6836400000001,0.4219 -3.9023500000001,1.26562 -1.21879,0.84378 -2.09769,2.08011 -2.63672,3.70899 -0.53909,1.62893 -0.80863,4.20119 -0.80859,7.71679 l 0,17.92969 -9.87891,0 0,-20.46094 c -2e-5,-3.63279 -0.1758,-5.97653 -0.52734,-7.03125 -0.3515899999999,-1.05466 -0.8965099999999,-1.83981 -1.63476,-2.35547 -0.73831,-0.51559 -1.74026,-0.7734 -3.00586,-0.77343 -1.52346,3e-5 -2.89455,0.41018 -4.1132799999999,1.23047 -1.2187700000001,0.82034 -2.09182,2.00393 -2.61915,3.55078 -0.5273500000001,1.5469 -0.79103,4.1133 -0.79101,7.69922 l 0,18.14062 -9.87891,0 0,-37.33594 z m 64.72266,37.33594 0,-51.53906 9.8789100000001,0 0,51.53906 -9.8789100000001,0 z" inkscape:connector-curvature="0" />
    <path style="font-style:normal;font-variant:normal;font-weight:bold;font-stretch:normal;font-size:72px;line-height:125%;font-family:Arial;-inkscape-font-specification:'Arial Bold';text-align:center;writing-mode:lr-tb;text-anchor:middle;fill:#0000ff;fill-opacity:1;fill-rule:nonzero;stroke:none;stroke-width:1;stroke-linejoin:round;stroke-miterlimit:4;stroke-opacity:1" id="flowRoot2429" transform="translate(-93.714286,9.714285999999999)" d="m 367.76953,289.1027 12.76172,-53.29688 7.41797,0 -12.9023399999999,53.29688 -7.2773500000001,0 z" inkscape:connector-curvature="0" />
    <path style="font-style:normal;font-variant:normal;font-weight:bold;font-stretch:normal;font-size:72px;line-height:125%;font-family:Arial;-inkscape-font-specification:'Arial Bold';text-align:center;writing-mode:lr-tb;text-anchor:middle;fill:#0000ff;fill-opacity:1;fill-rule:nonzero;stroke:none;stroke-width:1;stroke-linejoin:round;stroke-miterlimit:4;stroke-opacity:1" id="text2439" d="m 297.45926,299.60477 0,-9.94922 24.6796900000001,-9.70313 -24.6796900000001,-9.59765 0,-9.87891 35.3671900000001,15.29297 0,8.4375 -35.3671900000001,15.39844 z" inkscape:connector-curvature="0" />
  </g>
</svg>
