<?xml version="1.0" encoding="UTF-8" standalone="no"?>
<svg
   xmlns:osb="http://www.openswatchbook.org/uri/2009/osb"
   xmlns:dc="http://purl.org/dc/elements/1.1/"
   xmlns:cc="http://creativecommons.org/ns#"
   xmlns:rdf="http://www.w3.org/1999/02/22-rdf-syntax-ns#"
   xmlns:svg="http://www.w3.org/2000/svg"
   xmlns="http://www.w3.org/2000/svg"
   xmlns:xlink="http://www.w3.org/1999/xlink"
   xmlns:sodipodi="http://sodipodi.sourceforge.net/DTD/sodipodi-0.dtd"
   xmlns:inkscape="http://www.inkscape.org/namespaces/inkscape"
   fill="#00BCD4"
   width="48"
   height="48"
   viewBox="0 0 48 48"
   id="svg2"
   version="1.1"
   inkscape:version="0.91 r13725"
   sodipodi:docname="text-x-java2.svg">
  <metadata
     id="metadata10">
    <rdf:RDF>
      <cc:Work
         rdf:about="">
        <dc:format>image/svg+xml</dc:format>
        <dc:type
           rdf:resource="http://purl.org/dc/dcmitype/StillImage" />
        <dc:title />
      </cc:Work>
    </rdf:RDF>
  </metadata>
  <defs
     id="defs8">
    <linearGradient
       id="linearGradient5664"
       osb:paint="solid">
      <stop
         style="stop-color:#000000;stop-opacity:1;"
         offset="0"
         id="stop5666" />
    </linearGradient>
    <linearGradient
       x1="64"
       y1="60"
       x2="62"
       y2="7"
       id="linearGradient3724"
       xlink:href="#linearGradient3763"
       gradientUnits="userSpaceOnUse"
       gradientTransform="matrix(1.231823,0,0,1.231823,-157.81615,7.1708322)" />
    <linearGradient
       id="linearGradient3763">
      <stop
         id="stop3765"
         style="stop-color:#ff7700;stop-opacity:1"
         offset="0" />
      <stop
         id="stop3767"
         style="stop-color:#ffb15d;stop-opacity:1"
         offset="1" />
    </linearGradient>
    <clipPath
       id="clipPath3716">
      <path
         d="m -118,6 c -3.324,0 -6,2.676 -6,6 l 0,72 c 0,3.324 2.676,6 6,6 l 72,0 c 3.324,0 6,-2.676 6,-6 l 0,-72 c 0,-3.324 -2.676,-6 -6,-6 l -72,0 z m 42.53125,9.4375 c 0,0 6.742786,6.784262 -6.4375,17.1875 -10.569721,8.348428 -2.406258,13.091934 0,18.53125 -6.170339,-5.566626 -10.691951,-10.439321 -7.65625,-15 4.457852,-6.693689 16.821977,-9.970594 14.09375,-20.71875 z m 8.125,13.34375 c -14.197756,8.233791 -11.545654,10.600025 -8.125,15.40625 3.661158,5.156183 -4.3125,9.25 -4.3125,9.25 0,0 3.954627,-3.226804 0.8125,-6.84375 -10.643745,-12.265213 11.625144,-17.8125 11.625,-17.8125 z m 3.59375,21.875 c 6.598371,-0.338475 10.187997,8.957958 -4.59375,12.84375 -1.44e-4,0 0.16215,-0.192534 0.21875,-0.34375 12.215092,-6.34575 6.567276,-12.446464 2.625,-11.625 -0.964039,0.201189 -1.40625,0.375 -1.40625,0.375 0,0 0.378571,-0.570411 1.0625,-0.8125 0.731171,-0.256932 1.41116,-0.40248 2.09375,-0.4375 z m -26.40625,0.625 c 0.519115,-0.01358 0.8125,0 0.8125,0 0,0 -11.82939,2.822105 -4.1875,3.84375 3.227673,0.431901 9.630792,0.315402 15.625,-0.1875 4.897387,-0.41102 9.8125,-1.25 9.8125,-1.25 0,0 -1.719415,0.709928 -2.96875,1.5625 -12.017218,3.160705 -35.24553,1.700167 -28.5625,-1.53125 4.236968,-2.049735 7.911406,-2.39676 9.46875,-2.4375 z m -1.9375,7.40625 c 0,0 -2.823626,2.059601 1.4375,2.5 5.511613,0.569005 9.87295,0.637302 17.40625,-0.8125 0,0 1.050477,1.047931 2.6875,1.625 -15.407629,4.506818 -32.55548,0.346355 -21.53125,-3.3125 z m 1.53125,7.125 c 0,0 -2.476708,1.449143 1.78125,1.9375 5.159208,0.589021 7.816289,0.511854 13.5,-0.5625 0,0 1.474997,0.907513 3.5625,1.71875 -12.745505,5.460632 -28.85383,-0.296827 -18.84375,-3.09375 z m -6.46875,4.71875 c 0.614519,0.02364 1.14585,0.147618 1.46875,0.375 0,0 -0.852618,-0.05906 -2.28125,0.25 -1.370161,0.295952 -5.69609,1.676512 -3.375,2.6875 6.461397,2.810602 29.707491,2.165274 37.0625,-0.0625 3.867966,-1.173437 2.03125,-2.71875 2.03125,-2.71875 6.739204,3.040884 -14.609199,9.149373 -40.59375,4.9375 -8.33743,-1.353006 1.38587,-5.63424 5.6875,-5.46875 z M -58,74.375 c -0.426144,5.547328 -18.43383,6.718207 -30.15625,5.96875 -7.704246,-0.495845 -9.1875,-1.71875 -9.1875,-1.71875 7.318718,1.208433 19.649918,1.415115 29.65625,-0.46875 C -58.817879,76.487689 -58,74.375 -58,74.375 Z"
         inkscape:connector-curvature="0"
         id="path3718"
         style="display:inline;fill:#ff00ff;fill-opacity:1;fill-rule:nonzero;stroke:none" />
    </clipPath>
    <filter
       style="color-interpolation-filters:sRGB"
       x="-0.16965857"
       y="-0.1250829"
       width="1.3393171"
       height="1.2501658"
       id="filter3720">
      <feGaussianBlur
         id="feGaussianBlur3722"
         stdDeviation="3.3931715" />
    </filter>
    <linearGradient
       x1="64"
       y1="60"
       x2="62"
       y2="7"
       id="linearGradient3769"
       xlink:href="#linearGradient3763"
       gradientUnits="userSpaceOnUse"
       gradientTransform="matrix(1.3215847,0,0,1.3215847,-37.067029,4.1956498)" />
    <linearGradient
       gradientTransform="scale(1.0058652,0.994169)"
       gradientUnits="userSpaceOnUse"
       id="ButtonShadow"
       y2="7.0165396"
       x2="45.447727"
       y1="92.539597"
       x1="45.447727">
      <stop
         offset="0"
         style="stop-color:#000000;stop-opacity:1"
         id="stop3750" />
      <stop
         offset="1"
         style="stop-color:#000000;stop-opacity:0.58823532"
         id="stop3752" />
    </linearGradient>
    <linearGradient
       id="linearGradient3737">
      <stop
         offset="0"
         style="stop-color:#ffffff;stop-opacity:1"
         id="stop3739" />
      <stop
         offset="1"
         style="stop-color:#ffffff;stop-opacity:0"
         id="stop3741" />
    </linearGradient>
    <linearGradient
       id="linearGradient3700">
      <stop
         offset="0"
         style="stop-color:#e1e1e1;stop-opacity:1"
         id="stop3702" />
      <stop
         offset="1"
         style="stop-color:#f0f0f0;stop-opacity:1"
         id="stop3704" />
    </linearGradient>
    <filter
       id="filter3174"
       color-interpolation-filters="sRGB">
      <feGaussianBlur
         stdDeviation="1.71"
         id="feGaussianBlur3176" />
    </filter>
    <linearGradient
       gradientUnits="userSpaceOnUse"
       xlink:href="#linearGradient3737"
       id="linearGradient3188"
       y2="63.893143"
       x2="36.357143"
       y1="6"
       x1="36.357143" />
    <filter
       id="filter3794"
       color-interpolation-filters="sRGB"
       height="1.3839999"
       width="1.3839999"
       y="-0.192"
       x="-0.192">
      <feGaussianBlur
         stdDeviation="5.28"
         id="feGaussianBlur3796" />
    </filter>
    <linearGradient
       gradientUnits="userSpaceOnUse"
       xlink:href="#linearGradient3737"
       id="linearGradient3613"
       y2="138.66119"
       x2="48"
       y1="20.220806"
       x1="48" />
    <radialGradient
       gradientTransform="matrix(1.1573129,0,0,0.99590774,-7.5510206,0.19713193)"
       gradientUnits="userSpaceOnUse"
       xlink:href="#linearGradient3737"
       id="radialGradient3619"
       fy="90.171875"
       fx="48"
       r="42"
       cy="90.171875"
       cx="48" />
    <clipPath
       id="clipPath3613">
      <rect
         style="fill:#ffffff;fill-opacity:1;fill-rule:nonzero;stroke:none"
         id="rect3615"
         y="6"
         x="6"
         ry="6"
         rx="6"
         height="84"
         width="84" />
    </clipPath>
    <linearGradient
       gradientUnits="userSpaceOnUse"
       xlink:href="#linearGradient3700"
       id="linearGradient3617"
       y2="5.9877172"
       x2="48"
       y1="90"
       x1="48" />
    <linearGradient
       gradientTransform="matrix(1.0058652,0,0,0.994169,100,0)"
       gradientUnits="userSpaceOnUse"
       id="ButtonShadow-0-1"
       y2="7.0165396"
       x2="45.447727"
       y1="92.539597"
       x1="45.447727">
      <stop
         offset="0"
         style="stop-color:#000000;stop-opacity:1"
         id="stop3750-8-1" />
      <stop
         offset="1"
         style="stop-color:#000000;stop-opacity:0.58823532"
         id="stop3752-5-2" />
    </linearGradient>
    <linearGradient
       gradientTransform="matrix(1.0238095,0,0,1.0119048,-1.1428571,-98.071429)"
       gradientUnits="userSpaceOnUse"
       xlink:href="#ButtonShadow-0-1"
       id="linearGradient3780-1"
       y2="90.238609"
       x2="32.251034"
       y1="6.1317081"
       x1="32.251034" />
    <linearGradient
       gradientTransform="translate(0,-97)"
       gradientUnits="userSpaceOnUse"
       xlink:href="#ButtonShadow-0-1"
       id="linearGradient3721-3"
       y2="90.238609"
       x2="32.251034"
       y1="6.1317081"
       x1="32.251034" />
    <linearGradient
       gradientTransform="scale(1.0058652,0.994169)"
       gradientUnits="userSpaceOnUse"
       id="ButtonShadow-9"
       y2="7.0165396"
       x2="45.447727"
       y1="92.539597"
       x1="45.447727">
      <stop
         offset="0"
         style="stop-color:#000000;stop-opacity:1"
         id="stop3750-5" />
      <stop
         offset="1"
         style="stop-color:#000000;stop-opacity:0.58823532"
         id="stop3752-5" />
    </linearGradient>
    <filter
       style="color-interpolation-filters:sRGB"
       id="filter3174-2">
      <feGaussianBlur
         stdDeviation="1.71"
         id="feGaussianBlur3176-0" />
    </filter>
    <filter
       style="color-interpolation-filters:sRGB"
       id="filter3174-6">
      <feGaussianBlur
         stdDeviation="1.71"
         id="feGaussianBlur3176-5" />
    </filter>
    <filter
       style="color-interpolation-filters:sRGB"
       id="filter3174-4">
      <feGaussianBlur
         stdDeviation="1.71"
         id="feGaussianBlur3176-2" />
    </filter>
    <filter
       style="color-interpolation-filters:sRGB"
       id="filter3174-0">
      <feGaussianBlur
         stdDeviation="1.71"
         id="feGaussianBlur3176-9" />
    </filter>
  </defs>
  <sodipodi:namedview
     pagecolor="#ffffff"
     bordercolor="#666666"
     borderopacity="1"
     objecttolerance="10"
     gridtolerance="10"
     guidetolerance="10"
     inkscape:pageopacity="0"
     inkscape:pageshadow="2"
     inkscape:window-width="1366"
     inkscape:window-height="713"
     id="namedview6"
     showgrid="false"
     inkscape:snap-bbox="true"
     inkscape:bbox-paths="true"
     inkscape:bbox-nodes="true"
     inkscape:snap-bbox-edge-midpoints="true"
     inkscape:snap-object-midpoints="true"
     inkscape:snap-bbox-midpoints="false"
     inkscape:snap-midpoints="true"
     inkscape:object-paths="false"
     inkscape:zoom="11.313708"
     inkscape:cx="13.328533"
     inkscape:cy="13.604985"
     inkscape:window-x="0"
     inkscape:window-y="30"
     inkscape:window-maximized="1"
     inkscape:current-layer="svg2"
     inkscape:snap-intersection-paths="false"
     inkscape:snap-smooth-nodes="true"
     inkscape:object-nodes="true"
     inkscape:snap-nodes="false"
     inkscape:snap-global="true" />
  <path
     d="M 12 4 C 9.79 4 8.0195313 5.79 8.0195312 8 L 8.0097656 24.212891 C 10.510742 21.254463 15.866369 19.517179 14.587891 14.480469 C 14.587891 14.480469 17.276351 17.199392 13.099609 21.501953 C 14.891828 20.086997 16.596084 18.58992 16.765625 16.322266 C 16.777264 15.749408 16.732703 15.144212 16.587891 14.480469 C 16.587891 14.480469 17.499187 15.408804 17.441406 17.029297 C 17.502017 18.366036 17.059737 20.184009 15.324219 22.367188 C 17.034226 21.525141 18.658231 21.117188 18.658203 21.117188 C 18.192577 21.387221 17.854387 21.613368 17.458984 21.859375 C 18.706433 21.384284 19.658226 21.117188 19.658203 21.117188 C 19.137183 21.419346 18.657944 21.706247 18.207031 21.984375 C 19.540585 21.4233 20.658226 21.117188 20.658203 21.117188 C 18.64807 22.282936 17.329899 23.209683 16.488281 24 L 32 24 L 32 28 L 16.003906 28 C 16.18366 28.260512 16.382768 28.53015 16.587891 28.818359 C 17.469533 30.060018 16.990333 31.172516 16.267578 32 L 32 32 L 32 36 L 24.644531 36 C 24.480022 36.206941 24.278986 36.41006 24.042969 36.611328 C 23.983947 36.662112 23.923092 36.713461 23.859375 36.763672 C 23.721209 36.871515 23.576868 36.977502 23.416016 37.082031 C 23.242739 37.195791 23.054641 37.30724 22.853516 37.416016 C 22.752594 37.470111 22.65102 37.523522 22.542969 37.576172 C 22.269497 37.710556 21.970336 37.839524 21.648438 37.962891 C 21.192367 38.136671 20.697673 38.30083 20.140625 38.447266 C 20.140553 38.447266 20.23347 38.362584 20.261719 38.287109 C 20.640533 38.090315 20.984559 37.894263 21.296875 37.699219 C 21.299022 37.697878 21.30059 37.696653 21.302734 37.695312 C 21.61271 37.501511 21.891675 37.309632 22.140625 37.119141 C 22.144206 37.1164 22.146821 37.114068 22.150391 37.111328 C 22.397295 36.921904 22.613564 36.735364 22.804688 36.550781 C 22.964977 36.39599 23.094751 36.244146 23.21875 36.09375 C 23.24438 36.062668 23.280539 36.03087 23.304688 36 L 16.064453 36 L 16.064453 37.150391 C 16.5965 37.070581 17.105599 37.003218 17.710938 36.886719 C 17.710938 36.886719 18.229805 37.413145 19.046875 37.701172 C 18.056572 37.990841 17.051872 38.207195 16.064453 38.363281 L 16.064453 39.363281 L 16.064453 40.125 L 16.064453 40.394531 C 16.278297 40.357093 16.450802 40.335019 16.683594 40.291016 C 16.683594 40.291016 17.430742 40.757205 18.472656 41.162109 C 18.081547 41.329675 17.683553 41.47475 17.283203 41.601562 C 17.523337 41.723031 17.788675 41.858086 18.126953 42.003906 C 19.339273 41.809372 21.906958 42.619196 22.660156 43.4375 C 23.096037 43.259682 23.321248 43.073367 23.416016 42.902344 C 23.496887 42.756397 23.489008 42.62106 23.449219 42.511719 C 23.428984 42.456113 23.401518 42.407663 23.373047 42.367188 C 23.317069 42.286968 23.259766 42.240234 23.259766 42.240234 C 23.386005 42.297197 23.484944 42.357046 23.572266 42.417969 C 23.59537 42.434172 23.614395 42.450347 23.634766 42.466797 C 23.695782 42.515683 23.745596 42.566339 23.783203 42.617188 C 23.793177 42.63101 23.806196 42.644253 23.814453 42.658203 C 23.936744 42.858352 23.868568 43.07156 23.660156 43.287109 C 23.621499 43.326234 23.570292 43.365066 23.521484 43.404297 C 23.388815 43.512801 23.219208 43.620988 23.011719 43.728516 C 22.966593 43.751753 22.923441 43.773755 22.875 43.796875 C 22.872557 43.798047 22.869637 43.79961 22.867188 43.800781 C 22.87828 43.86887 22.862898 43.93478 22.837891 44 L 25.240234 44 C 25.269793 43.958184 25.318359 43.894531 25.318359 43.894531 C 25.315595 43.930523 25.304532 43.964744 25.298828 44 L 36 44 C 38.21 44 40 42.21 40 40 L 40 16 L 28 4 L 12 4 z M 16.064453 37.150391 C 14.917418 37.322451 13.924914 37.404204 12.974609 37.441406 C 12.907494 37.453368 12.842266 37.459463 12.775391 37.470703 C 13.759658 37.444625 14.854221 37.331931 16.064453 37.150391 z M 16.003906 28 C 16.002606 27.9982 16.0013 27.996041 16 27.994141 L 16 28 L 16.003906 28 z M 16 27.994141 L 16 27.9375 L 15.966797 27.9375 C 15.979903 27.956742 15.986662 27.974792 16 27.994141 z M 26 7 L 37 18 L 26 18 L 26 7 z M 9.3945312 25.119141 C 8.5843213 26.370035 8.6731365 27.442593 9.0839844 28.441406 C 9.0647244 28.031179 9.1196665 27.626631 9.2460938 27.226562 C 9.0251843 26.505093 9.0439423 25.803793 9.3945312 25.119141 z M 13.744141 25.4375 C 13.537406 25.682631 13.37872 25.91629 13.248047 26.142578 C 13.245419 26.420109 13.305553 26.689902 13.414062 26.958984 C 13.395867 26.411697 13.51894 25.905106 13.744141 25.4375 z M 15.056641 30.296875 C 15.039765 30.632041 14.942233 30.9469 14.792969 31.242188 C 14.80193 31.259619 14.815571 31.277506 14.824219 31.294922 L 15.435547 31.294922 C 15.406146 30.979092 15.291832 30.643399 15.056641 30.296875 z M 15.966797 40.410156 C 15.204359 40.541405 14.539514 40.630598 13.916016 40.681641 C 14.527146 40.630002 15.208487 40.540961 15.966797 40.410156 z M 13.894531 40.683594 C 13.24203 40.736196 12.627854 40.749212 11.976562 40.726562 C 11.958013 40.729633 11.940412 40.729425 11.921875 40.732422 C 12.586681 40.760425 13.233003 40.738629 13.894531 40.683594 z M 7.6386719 40.96875 C 7.6497895 40.984486 7.6591763 40.999984 7.671875 41.015625 C 7.6596707 40.999966 7.6493064 40.984502 7.6386719 40.96875 z "
     id="path4678" />
  <path
     style="fill:#ea2d2e;fill-rule:evenodd;stroke-width:4.3107357;stroke-miterlimit:4;stroke-dasharray:none"
     d="m 15.587234,14.480157 c 0,0 3.375741,3.377682 -3.202796,8.570142 -5.2755537,4.166862 -1.202855,6.541806 -0.0019,9.256675 -3.0797361,-2.778412 -5.3386646,-5.22459 -3.8234878,-7.500913 2.2250008,-3.340952 8.3898638,-4.96129 7.0281528,-10.325904 l 0,0 z"
     id="path4426" />
  <path
     style="fill:#ea2d2e;fill-rule:evenodd;stroke-width:4.3107357;stroke-miterlimit:4;stroke-dasharray:none"
     d="m 13.84592,30.016849 c 1.568296,1.805288 -0.411231,3.428502 -0.411231,3.428502 0,0 3.979829,-2.05414 2.152473,-4.62769 -1.707315,-2.398881 -3.016266,-3.590522 4.070111,-7.700167 7.2e-5,0 -11.1238533,2.777548 -5.811353,8.899355 l 0,0 z"
     id="path3628" />
  <path
     style="fill:#0074bd;fill-rule:evenodd;stroke-width:4.3107357;stroke-miterlimit:4;stroke-dasharray:none"
     d="m 9.2674673,46.87234 c 5.8508877,0.374067 14.8380817,-0.208168 15.0507767,-2.976947 0,0 -0.408858,1.049604 -4.835857,1.882416 -4.994356,0.940274 -11.1556967,0.830799 -14.808611,0.227647 0,0 0.7483517,0.619398 4.5936913,0.866884 l 0,0 z"
     id="path4218" />
  <path
     style="fill:#0074bd;fill-rule:evenodd;stroke-width:4.3107357;stroke-miterlimit:4;stroke-dasharray:none"
     d="m 19.262288,38.286959 c 6.096792,-3.167287 3.277551,-6.21137 1.309885,-5.801361 -0.481171,0.100417 -0.697029,0.187393 -0.697029,0.187393 0,0 0.17927,-0.280838 0.520633,-0.40167 3.892709,-1.367893 6.885756,4.035823 -1.255328,6.175933 -7.2e-5,0 0.09359,-0.08482 0.121839,-0.160295 l 0,0 z"
     id="path4216" />
  <path
     style="fill:#0074bd;fill-rule:evenodd;stroke-width:4.3107357;stroke-miterlimit:4;stroke-dasharray:none"
     d="m 8.6680528,32.365701 c 0,0 -5.9053738,1.403042 -2.0911585,1.912965 1.6109941,0.215571 4.8205477,0.165973 7.8123727,-0.08503 2.444381,-0.205148 4.89746,-0.643909 4.89746,-0.643909 0,0 -0.861277,0.369468 -1.484843,0.795003 C 11.803856,35.922294 0.21895827,35.1876 3.5545906,33.574737 6.3742619,32.210653 8.6680528,32.365701 8.6680528,32.365701 l 0,0 z"
     id="path4214" />
  <path
     style="fill:#0074bd;fill-rule:evenodd;stroke-width:4.3107357;stroke-miterlimit:4;stroke-dasharray:none"
     d="m 22.259432,42.240695 c 0,0 0.91871,0.757337 -1.011867,1.343023 -3.671028,1.111925 -15.2821613,1.447321 -18.5071687,0.04449 -1.1585042,-0.504603 1.01503,-1.204004 1.6989046,-1.35172 C 5.152359,42.122233 5.5594923,42.150411 5.5594923,42.150411 4.2701648,41.242483 -2.774019,43.933559 1.9818375,44.705344 14.951232,46.807573 25.623098,43.758457 22.259432,42.240693 l 0,0 z"
     id="path4212" />
  <path
     style="fill:#0074bd;fill-rule:evenodd;stroke-width:4.3107357;stroke-miterlimit:4;stroke-dasharray:none"
     d="m 7.2930433,36.051895 c 0,0 -1.3921167,1.030701 0.7346942,1.250512 2.7509535,0.284002 4.9226185,0.307291 8.6826345,-0.416334 0,0 0.518836,0.527031 1.335906,0.815057 -7.690247,2.24944 -16.2556439,0.176971 -10.7532347,-1.649235 l 0,0 z"
     id="path4210" />
  <path
     style="fill:#0074bd;fill-rule:evenodd;stroke-width:4.3107357;stroke-miterlimit:4;stroke-dasharray:none"
     d="m 8.0707944,39.609136 c 0,0 -1.2410234,0.722331 0.8842068,0.966079 2.5750608,0.293993 3.8909118,0.251655 6.7277618,-0.284576 0,0 0.747346,0.467513 1.789259,0.872418 -6.361529,2.725507 -14.3974517,-0.157923 -9.4012276,-1.553921 l 0,0 z"
     id="path3630" />
  <path
     style="fill:#0074bd;fill-rule:evenodd;stroke-width:4.3107357;stroke-miterlimit:4;stroke-dasharray:none"
     d="m -18.982533,39.18484 c 5.850888,0.374067 14.8380817,-0.208168 15.0507767,-2.976947 0,0 -0.408858,1.049604 -4.835857,1.882416 -4.9943557,0.940274 -11.1556967,0.830799 -14.8086107,0.227647 0,0 0.748351,0.619398 4.593691,0.866884 l 0,0 z"
     id="path4206" />
  <path
     style="fill:#0074bd;fill-rule:evenodd;stroke-width:4.3107357;stroke-miterlimit:4;stroke-dasharray:none"
     d="m -50.987712,30.599459 c 6.096792,-3.167287 3.277551,-6.21137 1.309885,-5.801361 -0.481171,0.100417 -0.697029,0.187393 -0.697029,0.187393 0,0 0.17927,-0.280838 0.520633,-0.40167 3.892709,-1.367893 6.885756,4.035823 -1.255328,6.175933 -7.2e-5,0 0.09359,-0.08482 0.121839,-0.160295 l 0,0 z"
     id="path4204"
     inkscape:connector-curvature="0" />
  <path
     style="fill:#0074bd;fill-rule:evenodd;stroke-width:4.3107357;stroke-miterlimit:4;stroke-dasharray:none"
     d="m -5.9905683,34.553195 c 0,0 0.91871,0.757337 -1.011867,1.343023 -3.6710277,1.111925 -15.2821617,1.447321 -18.5071687,0.04449 -1.158504,-0.504603 1.01503,-1.204004 1.698905,-1.35172 0.713058,-0.154255 1.120191,-0.126077 1.120191,-0.126077 -1.289327,-0.907928 -8.333511,1.783148 -3.577655,2.554933 12.969395,2.102229 23.6412607,-0.946887 20.2775947,-2.464651 l 0,0 z"
     id="path4200" />
  <path
     style="fill:#0074bd;fill-rule:evenodd;stroke-width:4.3107357;stroke-miterlimit:4;stroke-dasharray:none"
     d="m -20.956957,28.364395 c 0,0 -1.392117,1.030701 0.734694,1.250512 2.750954,0.284002 4.922619,0.307291 8.682635,-0.416334 0,0 0.518836,0.527031 1.335906,0.815057 -7.690247,2.24944 -16.255644,0.176971 -10.753235,-1.649235 l 0,0 z"
     id="path4198" />
  <path
     style="fill:#0074bd;fill-rule:evenodd;stroke-width:4.3107357;stroke-miterlimit:4;stroke-dasharray:none"
     d="m -20.179206,31.921636 c 0,0 -1.241023,0.722331 0.884207,0.966079 2.575061,0.293993 3.890912,0.251655 6.727762,-0.284576 0,0 0.747346,0.467513 1.789259,0.872418 -6.361529,2.725507 -14.397452,-0.157923 -9.401228,-1.553921 l 0,0 z"
     id="path3630-8" />
  <path
     style="fill:#0074bd;fill-rule:evenodd;stroke-width:4.3107357;stroke-miterlimit:4;stroke-dasharray:none"
     d="m -32.295983,27.946284 c 0,0 5.905374,1.403042 2.091159,1.912965 -1.610994,0.215571 -4.820548,0.165973 -7.812372,-0.08503 -2.444381,-0.205148 -4.89746,-0.643909 -4.89746,-0.643909 0,0 0.861277,0.369468 1.484843,0.795003 5.998027,1.577564 17.582925,0.84287 14.247293,-0.769993 -2.819672,-1.364084 -5.113463,-1.209036 -5.113463,-1.209036 l 0,0 z"
     id="path4202-5"
     inkscape:connector-curvature="0" />
  <path
     style="opacity:1;fill:#000000;fill-opacity:1;fill-rule:nonzero;stroke:none;stroke-width:0.1;stroke-miterlimit:4;stroke-dasharray:none;stroke-opacity:1"
     id="path4246"
     sodipodi:type="arc"
     sodipodi:cx="-19.015692"
     sodipodi:cy="49.358009"
     sodipodi:rx="8.161993"
     sodipodi:ry="1.915676"
     sodipodi:start="5.6257631"
     sodipodi:end="5.6094831"
     d="m -12.554902,48.187381 a 8.161993,1.915676 0 0 1 -1.446918,2.682243 8.161993,1.915676 0 0 1 -11.433849,-0.328682 8.161993,1.915676 0 0 1 1.353847,-2.684918 8.161993,1.915676 0 0 1 11.444869,0.306827"
     sodipodi:open="true" />
  <path
     style="fill:#ea2d2e;fill-rule:evenodd;stroke-width:4.3107357;stroke-miterlimit:4;stroke-dasharray:none"
     d="m -16.929137,7.0511509 c 0,0 3.375741,3.3776821 -3.202796,8.5701421 -5.275554,4.166862 -1.202855,6.541806 -0.0019,9.256675 -3.079736,-2.778412 -5.338665,-5.22459 -3.823488,-7.500913 2.225001,-3.340952 8.389864,-4.96129 7.028153,-10.3259041 l 0,0 z"
     id="path4292" />
  <path
     style="fill:#ea2d2e;fill-rule:evenodd;stroke-width:4.3107357;stroke-miterlimit:4;stroke-dasharray:none"
     d="m -41.224258,28.93188 c 1.568296,1.805288 -0.411231,3.428502 -0.411231,3.428502 0,0 3.979829,-2.05414 2.152473,-4.62769 -1.707315,-2.398881 -3.016266,-3.590522 4.070111,-7.700167 7.2e-5,0 -11.123853,2.777548 -5.811353,8.899355 l 0,0 z"
     id="path3628-6-4"
     inkscape:connector-curvature="0" />
  <path
     inkscape:connector-curvature="0"
     style="fill:#ea2d2e;fill-rule:evenodd;stroke-width:4.3107357;stroke-miterlimit:4;stroke-dasharray:none"
     d="m 15.587234,14.480158 c 0,0 3.375741,3.377681 -3.202796,8.570142 -5.2755536,4.166861 -1.202855,6.541806 -0.0019,9.256674 -3.0797359,-2.778412 -5.3386646,-5.22459 -3.8234879,-7.500913 2.2250009,-3.340952 8.3898639,-4.96129 7.0281529,-10.325904 l 0,0 z"
     id="path4292-1" />
  <path
     inkscape:connector-curvature="0"
     style="fill:#ea2d2e;fill-rule:evenodd;stroke-width:4.3107357;stroke-miterlimit:4;stroke-dasharray:none"
     d="m -8.4333746,10.176708 c 0,0 4.0043816,4.006684 -3.7992324,10.166101 -6.257983,4.942828 -1.426854,7.760044 -0.0022,10.980483 -3.653307,-3.295817 -6.3329,-6.197531 -4.535563,-8.897758 2.639348,-3.963115 9.952251,-5.885197 8.3369584,-12.248827 l 0,0 z"
     id="path4292-1-0" />
  <path
     inkscape:connector-curvature="0"
     style="fill:#ea2d2e;fill-rule:evenodd;stroke-width:4.3107357;stroke-miterlimit:4;stroke-dasharray:none"
     d="m 13.84592,30.016849 c 1.568296,1.805288 -0.411231,3.428502 -0.411231,3.428502 0,0 3.979829,-2.05414 2.152473,-4.62769 -1.707315,-2.398881 -3.016266,-3.590522 4.070111,-7.700167 7.2e-5,0 -11.1238536,2.777548 -5.811353,8.899355 l 0,0 z"
     id="path3628-4" />
  <path
     inkscape:connector-curvature="0"
     style="fill:#ea2d2e;fill-rule:evenodd;stroke-width:4.3107357;stroke-miterlimit:4;stroke-dasharray:none"
     d="m -21.11795,-10.370167 c 0,0 3.375743,3.9297108 -3.202796,9.97079878 -5.275553,4.84787002 -1.202855,7.61096402 -0.0019,10.76953522 -3.079736,-3.2325012 -5.338664,-6.0784692 -3.823488,-8.7268222 2.225001,-3.886979 8.389864,-5.772136 7.028153,-12.0135128 l 0,0 z"
     id="path4292-1-3-7" />
</svg>
