<?xml version="1.0" encoding="UTF-8" standalone="no"?>
<svg
   xmlns:dc="http://purl.org/dc/elements/1.1/"
   xmlns:cc="http://creativecommons.org/ns#"
   xmlns:rdf="http://www.w3.org/1999/02/22-rdf-syntax-ns#"
   xmlns:svg="http://www.w3.org/2000/svg"
   xmlns="http://www.w3.org/2000/svg"
   xmlns:sodipodi="http://sodipodi.sourceforge.net/DTD/sodipodi-0.dtd"
   xmlns:inkscape="http://www.inkscape.org/namespaces/inkscape"
   fill="#00BCD4"
   width="48"
   height="48"
   viewBox="0 0 48 48"
   id="svg2"
   version="1.1"
   inkscape:version="0.91 r13725"
   sodipodi:docname="text-x-perl4.svg">
  <metadata
     id="metadata10">
    <rdf:RDF>
      <cc:Work
         rdf:about="">
        <dc:format>image/svg+xml</dc:format>
        <dc:type
           rdf:resource="http://purl.org/dc/dcmitype/StillImage" />
        <dc:title></dc:title>
      </cc:Work>
    </rdf:RDF>
  </metadata>
  <defs
     id="defs8" />
  <sodipodi:namedview
     pagecolor="#ffffff"
     bordercolor="#666666"
     borderopacity="1"
     objecttolerance="10"
     gridtolerance="10"
     guidetolerance="10"
     inkscape:pageopacity="0"
     inkscape:pageshadow="2"
     inkscape:window-width="1366"
     inkscape:window-height="713"
     id="namedview6"
     showgrid="false"
     inkscape:snap-bbox="true"
     inkscape:bbox-paths="true"
     inkscape:bbox-nodes="true"
     inkscape:zoom="2.1474152"
     inkscape:cx="-27.513959"
     inkscape:cy="-7.7890187"
     inkscape:window-x="0"
     inkscape:window-y="30"
     inkscape:window-maximized="1"
     inkscape:current-layer="svg2"
     inkscape:snap-text-baseline="true"
     inkscape:snap-page="true"
     inkscape:snap-bbox-edge-midpoints="true"
     inkscape:snap-bbox-midpoints="true" />
  <path
     style="fill:#40426c;fill-opacity:1"
     d="M 12.001953 4 C 9.7919533 4 8.0214844 5.79 8.0214844 8 L 8.0019531 40 C 8.0019531 42.21 9.7724219 44 11.982422 44 L 36.001953 44 C 38.211953 44 40.001953 42.21 40.001953 40 L 40.001953 16 L 28.001953 4 L 12.001953 4 z M 26.001953 7 L 37.001953 18 L 26.001953 18 L 26.001953 7 z M 23.986328 18.160156 C 24.661315 18.159906 25.337674 18.192743 25.757812 18.257812 C 30.731506 19.027727 34.790188 22.69648 35.982422 27.5 C 36.69736 30.380456 36.395809 33.254821 35.099609 35.904297 C 33.508527 39.156517 30.515488 41.610317 27.080078 42.478516 C 25.635794 42.842067 24.370457 42.955502 23 42.841797 C 20.078897 42.599535 17.359644 41.323403 15.251953 39.207031 C 14.206096 38.156869 13.510694 37.187626 12.884766 35.902344 C 12.014357 34.115051 11.639053 32.49837 11.638672 30.517578 C 11.638286 28.512968 12.033267 26.828581 12.916016 25.056641 C 13.563544 23.756882 14.212429 22.853209 15.240234 21.814453 C 17.135464 19.898976 19.520315 18.68487 22.222656 18.259766 C 22.637914 18.194446 23.311338 18.160406 23.986328 18.160156 z "
     id="path4247" />
  <path
     id="path15769"
     style="fill:#40426c"
     d="m 23.632342,20.030498 c -0.198679,0.0079 -0.03565,0.01424 0.361709,0.01424 0.397354,0 0.559357,-0.0064 0.360677,-0.01424 -0.198678,-0.0079 -0.523707,-0.0079 -0.722386,0 z m 0.359647,0.09481 c -0.568172,2.11e-4 -1.13542,0.02849 -1.484963,0.08347 -2.274699,0.357833 -4.282709,1.380255 -5.878022,2.992611 -0.865156,0.874373 -1.411878,1.635729 -1.956936,2.729803 -0.743054,1.49153 -1.074115,2.908719 -1.07379,4.596101 3.21e-4,1.667334 0.31536,3.027698 1.048027,4.532154 0.526876,1.081886 1.111623,1.898379 1.991974,2.782354 1.774151,1.781458 4.064279,2.855641 6.52312,3.059565 1.153584,0.09571 2.217928,0 3.433655,-0.306019 2.89176,-0.730807 5.411568,-2.796283 6.750863,-5.533842 1.091077,-2.230199 1.344796,-4.649813 0.742996,-7.07444 -1.003564,-4.043367 -4.419168,-7.131213 -8.605778,-7.779289 -0.353652,-0.05477 -0.922974,-0.08268 -1.491146,-0.08246 z m -0.374074,0.964543 c 0.0213,0 0.04562,0.01688 0.0711,0.04748 0.116433,0.140294 -0.02224,2.775177 -0.22259,4.236422 -0.243292,1.774494 -0.557104,2.806308 -1.305655,4.288974 -0.436689,0.864981 -0.595162,1.320001 -0.666739,1.915738 -0.153252,1.275575 0.1794,2.435654 1.19539,4.166354 0.203012,0.345803 0.412755,0.704058 0.46579,0.796602 0.128666,0.224397 0.269993,0.650609 0.269993,0.815121 0,0.121458 -0.01276,0.132907 -0.147362,0.132907 -0.487965,0 -1.542857,-0.919378 -2.240327,-1.952776 -0.73268,-1.085631 -1.07965,-2.169258 -1.086156,-3.389381 -0.0065,-1.23041 0.221635,-1.849204 1.281953,-3.477968 0.898354,-1.379939 1.29738,-2.175854 1.642631,-3.274941 0.352792,-1.123093 0.633977,-2.873579 0.635824,-3.958155 3.75e-4,-0.222392 0.04223,-0.348758 0.106142,-0.346278 z m -0.651282,0.642009 c 0.01636,-0.01002 0.03423,-0.0058 0.05255,0.01214 0.01846,0.01846 0.03158,0.244025 0.02989,0.50087 -0.0057,0.859177 -0.300721,1.996674 -0.778034,3.000842 -0.435544,0.916265 -0.861461,1.573944 -2.014645,3.110058 -0.926764,1.234527 -1.311681,1.803777 -1.58183,2.334088 -0.658845,1.293462 -0.659041,2.300372 0,3.668598 0.628121,1.304067 2.080298,2.813219 3.295566,3.424362 0.281992,0.141824 0.402619,0.225768 0.393655,0.273096 -0.04148,0.219068 -1.457888,-0.118345 -2.332042,-0.555426 -2.224471,-1.112277 -3.360088,-2.887772 -3.367701,-5.265916 -0.0031,-0.992929 0.13806,-1.646598 0.521437,-2.408271 0.426861,-0.848097 1.062284,-1.559118 2.583484,-2.895739 0.926897,-0.814435 1.618791,-1.503033 1.961059,-1.950772 0.639135,-0.835961 1.017693,-1.778608 1.120163,-2.789581 0.02777,-0.273941 0.06737,-0.429114 0.116447,-0.458556 z m 1.352028,0.825462 c 0.06301,0.009 0.114261,0.147048 0.170034,0.442093 0.152223,0.805202 0.492452,1.634621 0.870779,2.122828 0.218461,0.281908 0.56333,0.544768 1.896136,1.442726 0.52981,0.356935 1.200098,0.827098 1.489085,1.044952 0.602128,0.453859 1.701365,1.529255 2.0064,1.963118 0.61213,0.870626 0.866557,1.626021 0.86872,2.578322 0.0034,1.485569 -0.589282,2.770747 -1.866252,4.047852 -1.001794,1.001845 -2.10973,1.666805 -3.14099,1.88371 -0.16691,0.03535 -0.406909,0.06389 -0.532773,0.06389 -0.213811,0 -0.241156,-0.01372 -0.423539,-0.199915 -0.350925,-0.358149 -0.610689,-0.480557 -1.551946,-0.730597 l -0.218468,-0.05773 -0.16179,-0.414234 C 23.367321,35.828862 23.0877,34.708302 22.989304,33.80222 c -0.06635,-0.610932 -0.0566,-1.803354 0.02061,-2.464991 0.08611,-0.737876 0.143843,-1.066267 0.482279,-2.782353 0.472037,-2.393551 0.606227,-3.389381 0.674984,-4.984589 0.02221,-0.515222 0.06068,-0.956154 0.0845,-0.980002 0.02435,-0.02427 0.04598,-0.03587 0.06698,-0.03271 z m 0.569871,3.416131 c -0.01204,0 -0.0027,0.03588 0.02061,0.07936 0.117002,0.218646 0.458355,0.607925 1.300502,1.48082 1.390135,1.440931 1.599937,1.69097 2.062048,2.459819 0.293945,0.489104 0.492208,0.957948 0.638915,1.514851 0.07738,0.29378 0.09288,0.482351 0.09378,1.099561 10e-4,0.672558 -0.01053,0.788899 -0.119539,1.209834 -0.212494,0.820555 -0.492183,1.40938 -1.150047,2.42373 l -0.0845,0.131905 0.196827,-0.153537 c 0.381446,-0.297314 1.195969,-1.121405 1.472598,-1.489051 0.747863,-0.993984 1.014406,-1.981478 0.785247,-2.911199 -0.10422,-0.422888 -0.487355,-1.192369 -0.828529,-1.664273 -0.326346,-0.451379 -1.270694,-1.458079 -1.976515,-2.106366 -0.525577,-0.482772 -2.376056,-2.075448 -2.411391,-2.075448 z m 9.60331,4.216849 c -0.0082,-0.187728 -0.01541,-0.0459 -0.01546,0.315306 -6.2e-5,0.361262 0.0061,0.51464 0.01443,0.341107 0.0083,-0.173482 0.0093,-0.468686 0.001,-0.656413 z m -20.985279,0 c -0.0028,0.04907 -0.0041,0.157758 -0.0042,0.314303 -7.6e-5,0.31309 0.007,0.447317 0.01546,0.297789 0.0085,-0.149475 0.0084,-0.40632 0,-0.56983 -0.0042,-0.08178 -0.0085,-0.09154 -0.01134,-0.04221 z m 10.617331,7.690648 c 0.08937,0.0053 0.179816,0.09835 0.276176,0.283385 0.121758,0.233789 0.120248,0.691658 -0.0031,1.037725 -0.04828,0.135492 -0.110997,0.357146 -0.139119,0.492586 -0.04517,0.21759 -0.06371,0.246293 -0.157668,0.246293 -0.08114,0 -0.106142,-0.02375 -0.106142,-0.09893 0,-0.05423 -0.05966,-0.305756 -0.131905,-0.558539 -0.168039,-0.587875 -0.169323,-0.834959 -0.0082,-1.143829 0.09201,-0.176489 0.18062,-0.262755 0.269992,-0.258692 z m -0.632732,0.08964 c 0.09331,0 0.109234,0.019 0.109234,0.143249 0,0.220387 -0.118169,0.635308 -0.271024,0.951194 -0.159308,0.329182 -0.65348,0.853215 -0.942915,1.00058 -0.306711,0.156175 -0.3927,0.115337 -0.341099,-0.159711 0.04616,-0.24603 0.122797,-0.364586 0.50392,-0.775972 0.344841,-0.372236 0.613947,-0.731914 0.760515,-1.017094 0.05268,-0.102516 0.103331,-0.142246 0.181369,-0.142246 z m 1.187146,0.0517 c 0.07494,-0.01056 0.125497,0.04485 0.255566,0.277212 0.185323,0.331398 0.449098,0.671345 0.813071,1.050123 0.283387,0.294887 0.376473,0.455126 0.418387,0.717195 l 0.02886,0.18034 -0.147363,0 c -0.172873,0 -0.495574,-0.206669 -0.76979,-0.488418 -0.372945,-0.383264 -0.660752,-1.010182 -0.681166,-1.481875 -0.0093,-0.214266 -0.0014,-0.240542 0.08244,-0.252519 z m -0.87078,2.981266 c -0.102349,0.0095 -0.01818,0.01636 0.186523,0.01636 0.204699,0 0.28887,-0.0074 0.186521,-0.01636 -0.10235,-0.0095 -0.270694,-0.0095 -0.373044,0 z"
     inkscape:connector-curvature="0" />
</svg>
