<?xml version="1.0" encoding="UTF-8" standalone="no"?>
<svg
   xmlns:dc="http://purl.org/dc/elements/1.1/"
   xmlns:cc="http://creativecommons.org/ns#"
   xmlns:rdf="http://www.w3.org/1999/02/22-rdf-syntax-ns#"
   xmlns:svg="http://www.w3.org/2000/svg"
   xmlns="http://www.w3.org/2000/svg"
   xmlns:sodipodi="http://sodipodi.sourceforge.net/DTD/sodipodi-0.dtd"
   xmlns:inkscape="http://www.inkscape.org/namespaces/inkscape"
   fill="#00BCD4"
   width="48"
   height="48"
   viewBox="0 0 48 48"
   id="svg2"
   version="1.1"
   inkscape:version="0.91 r13725"
   sodipodi:docname="text-x-script2.svg">
  <metadata
     id="metadata10">
    <rdf:RDF>
      <cc:Work
         rdf:about="">
        <dc:format>image/svg+xml</dc:format>
        <dc:type
           rdf:resource="http://purl.org/dc/dcmitype/StillImage" />
        <dc:title></dc:title>
      </cc:Work>
    </rdf:RDF>
  </metadata>
  <defs
     id="defs8" />
  <sodipodi:namedview
     pagecolor="#ffffff"
     bordercolor="#666666"
     borderopacity="1"
     objecttolerance="10"
     gridtolerance="10"
     guidetolerance="10"
     inkscape:pageopacity="0"
     inkscape:pageshadow="2"
     inkscape:window-width="1366"
     inkscape:window-height="713"
     id="namedview6"
     showgrid="false"
     inkscape:snap-bbox="true"
     inkscape:bbox-paths="true"
     inkscape:bbox-nodes="true"
     inkscape:zoom="9.8645681"
     inkscape:cx="15.469443"
     inkscape:cy="15.382263"
     inkscape:window-x="0"
     inkscape:window-y="30"
     inkscape:window-maximized="1"
     inkscape:current-layer="svg2" />
  <path
     d="M 42,6 6,6 C 3.79,6 2,7.79 2,10 l 0,28 c 0,2.21 1.79,3.96 4,3.96 l 36,0 c 2.21,0 4,-1.76 4,-3.96 L 46,10 C 46,7.79 44.21,6 42,6 Z"
     id="path4140"
     style="fill:#000000;stroke:#00BCD4;stroke-opacity:1;stroke-width:4;stroke-miterlimit:4;stroke-dasharray:none;fill-opacity:1" />
  <path
     d="m 42,38.03 -36,0 0,-28.06 36,0 0,28.06 z"
     id="path4"
     style="fill:none;stroke:none" />
  <path
     inkscape:connector-curvature="0"
     d="m 42.162831,9.5309838 -36.3256624,0 c -2.2299922,0 -4.0361848,1.4384742 -4.0361848,3.2144642 l 0,22.501249 c 0,1.775992 1.8061926,3.182319 4.0361848,3.182319 l 36.3256624,0 c 2.229993,0 4.036185,-1.414364 4.036185,-3.182319 l 0,-22.501249 c 0,-1.77599 -1.806192,-3.2144642 -4.036185,-3.2144642 z"
     id="path4140-6"
     style="fill:#000000;fill-opacity:1;stroke:#00BCD4;stroke-width:3.60196805;stroke-miterlimit:4;stroke-dasharray:none;stroke-opacity:1" />
  <path
     d="m -20.372881,17.864407 -16,0 0,12 16,0 0,-12 z"
     id="path4142"
     inkscape:connector-curvature="0" />
  <path
     inkscape:connector-curvature="0"
     d="m 41.660003,11.27055 -35.3200075,0 c -2.168256,0 -3.9244458,1.265292 -3.9244458,2.827463 l 0,19.792249 c 0,1.562174 1.7561898,2.799188 3.9244458,2.799188 l 35.3200075,0 c 2.168259,0 3.924446,-1.244084 3.924446,-2.799188 l 0,-19.792249 c 0,-1.562171 -1.756187,-2.827463 -3.924446,-2.827463 z"
     id="path4140-6-8"
     style="fill:#000000;fill-opacity:1;stroke:#00BCD4;stroke-width:3.33110046;stroke-miterlimit:4;stroke-dasharray:none;stroke-opacity:1" />
  <text
     xml:space="preserve"
     style="font-style:normal;font-variant:normal;font-weight:bold;font-stretch:normal;font-size:20px;line-height:100%;font-family:Inconsolata;-inkscape-font-specification:'Inconsolata, Bold';text-align:start;letter-spacing:0px;word-spacing:0px;writing-mode:lr-tb;text-anchor:start;fill:#00BCD4;fill-opacity:1;stroke:none;stroke-width:1px;stroke-linecap:butt;stroke-linejoin:miter;stroke-opacity:1"
     x="7.0121574"
     y="30.389622"
     id="text4144"
     sodipodi:linespacing="100%"><tspan
       sodipodi:role="line"
       id="tspan4146"
       x="7.0121574"
       y="30.389622"
       style="font-style:normal;font-variant:normal;font-weight:bold;font-stretch:normal;font-size:20px;line-height:100%;font-family:Inconsolata;-inkscape-font-specification:'Inconsolata, Bold';text-align:start;writing-mode:lr-tb;text-anchor:start;fill:#00BCD4;fill-opacity:1">&gt;_</tspan></text>
</svg>
