<?xml version="1.0" encoding="UTF-8" standalone="no"?>
<svg
   xmlns:dc="http://purl.org/dc/elements/1.1/"
   xmlns:cc="http://creativecommons.org/ns#"
   xmlns:rdf="http://www.w3.org/1999/02/22-rdf-syntax-ns#"
   xmlns:svg="http://www.w3.org/2000/svg"
   xmlns="http://www.w3.org/2000/svg"
   xmlns:sodipodi="http://sodipodi.sourceforge.net/DTD/sodipodi-0.dtd"
   xmlns:inkscape="http://www.inkscape.org/namespaces/inkscape"
   width="528"
   height="48"
   viewBox="0 0 422.4 48"
   id="svg2"
   version="1.1"
   inkscape:version="0.91 r13725"
   sodipodi:docname="process-working.svg">
  <metadata
     id="metadata110">
    <rdf:RDF>
      <cc:Work
         rdf:about="">
        <dc:format>image/svg+xml</dc:format>
        <dc:type
           rdf:resource="http://purl.org/dc/dcmitype/StillImage" />
        <dc:title></dc:title>
      </cc:Work>
    </rdf:RDF>
  </metadata>
  <defs
     id="defs108" />
  <sodipodi:namedview
     pagecolor="#ffffff"
     bordercolor="#666666"
     borderopacity="1"
     objecttolerance="10"
     gridtolerance="10"
     guidetolerance="10"
     inkscape:pageopacity="0"
     inkscape:pageshadow="2"
     inkscape:window-width="1366"
     inkscape:window-height="713"
     id="namedview106"
     showgrid="false"
     inkscape:snap-bbox="true"
     inkscape:bbox-nodes="true"
     inkscape:bbox-paths="true"
     inkscape:snap-page="true"
     inkscape:snap-bbox-midpoints="true"
     inkscape:snap-object-midpoints="true"
     inkscape:zoom="1.109650612237886"
     inkscape:cx="274.3991916245236"
     inkscape:cy="-9.777792944686766"
     inkscape:window-x="0"
     inkscape:window-y="30"
     inkscape:window-maximized="1"
     inkscape:current-layer="svg2" />
  <rect
     style="opacity:0.4790000168;fill:#000000;fill-opacity:1;fill-rule:nonzero;stroke:none;stroke-width:3;stroke-miterlimit:4;stroke-dasharray:none;stroke-opacity:1"
     id="rect4330"
     width="48"
     height="48"
     x="-52.80000305175781"
     y="0" />
  <rect
     y="0"
     x="-4.800003051757812"
     height="48"
     width="48"
     id="rect4332"
     style="opacity:0.4790000168;fill:#000000;fill-opacity:1;fill-rule:nonzero;stroke:none;stroke-width:3;stroke-miterlimit:4;stroke-dasharray:none;stroke-opacity:1" />
  <rect
     style="opacity:0.4790000168;fill:#000000;fill-opacity:1;fill-rule:nonzero;stroke:none;stroke-width:3;stroke-miterlimit:4;stroke-dasharray:none;stroke-opacity:1"
     id="rect4334"
     width="48"
     height="48"
     x="43.19999694824219"
     y="0" />
  <rect
     y="0"
     x="91.19999694824219"
     height="48"
     width="48"
     id="rect4336"
     style="opacity:0.4790000168;fill:#000000;fill-opacity:1;fill-rule:nonzero;stroke:none;stroke-width:3;stroke-miterlimit:4;stroke-dasharray:none;stroke-opacity:1" />
  <rect
     style="opacity:0.4790000168;fill:#000000;fill-opacity:1;fill-rule:nonzero;stroke:none;stroke-width:3;stroke-miterlimit:4;stroke-dasharray:none;stroke-opacity:1"
     id="rect4338"
     width="48"
     height="48"
     x="139.1999969482422"
     y="0" />
  <rect
     y="0"
     x="187.1999969482422"
     height="48"
     width="48"
     id="rect4340"
     style="opacity:0.4790000168;fill:#000000;fill-opacity:1;fill-rule:nonzero;stroke:none;stroke-width:3;stroke-miterlimit:4;stroke-dasharray:none;stroke-opacity:1" />
  <rect
     style="opacity:0.4790000168;fill:#000000;fill-opacity:1;fill-rule:nonzero;stroke:none;stroke-width:3;stroke-miterlimit:4;stroke-dasharray:none;stroke-opacity:1"
     id="rect4342"
     width="48"
     height="48"
     x="235.1999969482422"
     y="0" />
  <rect
     y="0"
     x="283.2000122070312"
     height="48"
     width="48"
     id="rect4344"
     style="opacity:0.4790000168;fill:#000000;fill-opacity:1;fill-rule:nonzero;stroke:none;stroke-width:3;stroke-miterlimit:4;stroke-dasharray:none;stroke-opacity:1" />
  <rect
     style="opacity:0.4790000168;fill:#000000;fill-opacity:1;fill-rule:nonzero;stroke:none;stroke-width:3;stroke-miterlimit:4;stroke-dasharray:none;stroke-opacity:1"
     id="rect4346"
     width="48"
     height="48"
     x="331.2000122070312"
     y="0" />
  <rect
     y="0"
     x="379.2000122070312"
     height="48"
     width="48"
     id="rect4348"
     style="opacity:0.4790000168;fill:#000000;fill-opacity:1;fill-rule:nonzero;stroke:none;stroke-width:3;stroke-miterlimit:4;stroke-dasharray:none;stroke-opacity:1" />
  <rect
     style="opacity:0.4790000168;fill:#000000;fill-opacity:1;fill-rule:nonzero;stroke:none;stroke-width:3;stroke-miterlimit:4;stroke-dasharray:none;stroke-opacity:1"
     id="rect4350"
     width="48"
     height="48"
     x="427.2000122070312"
     y="0" />
  <g
     style="opacity:1"
     transform="translate(-48,-1042.650457316819)"
     id="layer1"
     inkscape:label="Layer 1" />
  <g
     style="opacity:1"
     transform="translate(-4.800003051757813,-1004.362199960854)"
     id="layer1-2"
     inkscape:label="Layer 1">
    <path
       id="circle4153"
       transform="translate(0,1004.3622)"
       d="m 24,6 0,4 a 14,14 0 0 1 9.892578125,4.107421875 l 2.8359375,-2.8359375 A 18,18 0 0 0 24,6 Z"
       style="opacity:1;fill:#4caf50;fill-opacity:1;fill-rule:nonzero;stroke:none;stroke-width:3;stroke-miterlimit:4;stroke-dasharray:none;stroke-opacity:1"
       inkscape:connector-curvature="0" />
  </g>
  <g
     style="opacity:1"
     transform="translate(43.19999690909653,-1005.46766875)"
     id="layer1-4"
     inkscape:label="Layer 1">
    <path
       id="circle4153-3"
       transform="translate(0,1004.3622)"
       d="M 30.1484375,7.10546875 28.78125,10.861328125 A 14,14 0 0 1 38,24 l 4,0 A 18,18 0 0 0 36.728515625,11.271484375 18,18 0 0 0 30.1484375,7.10546875 Z"
       style="opacity:1;fill:#4caf50;fill-opacity:1;fill-rule:nonzero;stroke:none;stroke-width:3;stroke-miterlimit:4;stroke-dasharray:none;stroke-opacity:1"
       inkscape:connector-curvature="0" />
  </g>
  <g
     style="opacity:1"
     transform="translate(91.20056359136208,-1004.3622)"
     id="layer1-0"
     inkscape:label="Layer 1">
    <path
       id="circle4153-6"
       transform="translate(0,1004.3622)"
       d="m 35.568359375,10.212890625 -2.5703125,3.064453125 A 14,14 0 0 1 38,24 14,14 0 0 1 24,38 l 0,4 a 18,18 0 0 0 15.587890625,-9 18,18 0 0 0 0,-18 18,18 0 0 0 -4.01953125,-4.787109375 z"
       style="opacity:1;fill:#4caf50;fill-opacity:1;fill-rule:nonzero;stroke:none;stroke-width:3;stroke-miterlimit:4;stroke-dasharray:none;stroke-opacity:1"
       inkscape:connector-curvature="0" />
  </g>
  <g
     style="opacity:1"
     transform="translate(139.200195068767,-1004.362001879475)"
     id="layer1-40"
     inkscape:label="Layer 1">
    <path
       id="circle4153-36"
       d="M 39.568359375,1019.37391875 36.109375,1021.3700125 A 14,14 0 0 1 38,1028.3622 a 14,14 0 0 1 -14,14 14,14 0 0 1 -14,-14 l -4,0 a 18,18 0 0 0 11.111328125,16.62890625 18,18 0 0 0 19.6171875,-3.900390625 18,18 0 0 0 3.900390625,-19.6171875 18,18 0 0 0 -1.060546875,-2.099609375 z"
       style="opacity:1;fill:#4caf50;fill-opacity:1;fill-rule:nonzero;stroke:none;stroke-width:3;stroke-miterlimit:4;stroke-dasharray:none;stroke-opacity:1"
       inkscape:connector-curvature="0" />
  </g>
  <g
     style="opacity:1"
     transform="translate(313.6978187367762,-1045.235401884255)"
     id="layer1-5"
     inkscape:label="Layer 1">
    <path
       id="circle4153-5"
       d="m -102.497821788534,1051.235401884255 a 18,18 0 0 0 -18,18 18,18 0 0 0 18,18 18,18 0 0 0 18.00000000000004,-18 18,18 0 0 0 -0.27734375,-3.125 l -3.9375,0.693359375 a 14,14 0 0 1 0.21484375,2.431640625 14,14 0 0 1 -14.00000000000004,14 14,14 0 0 1 -14,-14 14,14 0 0 1 14,-14 l 0,-4 z"
       style="opacity:1;fill:#4caf50;fill-opacity:1;fill-rule:nonzero;stroke:none;stroke-width:3;stroke-miterlimit:4;stroke-dasharray:none;stroke-opacity:1"
       inkscape:connector-curvature="0" />
  </g>
  <g
     style="opacity:1"
     transform="translate(235.1998054243922,-1004.361135323252)"
     id="layer1-20"
     inkscape:label="Layer 1">
    <path
       id="ellipse4145"
       transform="translate(0,1004.3622)"
       d="M 23.70703125,6.001953125 A 18,18 0 0 0 9.71875,13.04296875 a 18,18 0 0 0 -0.462890625,21.28125 18,18 0 0 0 20.15625,6.841796875 A 18,18 0 0 0 42,24 l -4,0 A 14,14 0 0 1 24,38 14,14 0 0 1 10,24 14,14 0 0 1 24,10 14,14 0 0 1 28.783203125,10.861328125 L 30.15625,7.0859375 A 18,18 0 0 0 23.70703125,6.001953125 Z"
       style="opacity:1;fill:#4caf50;fill-opacity:1;fill-rule:nonzero;stroke:none;stroke-width:3;stroke-miterlimit:4;stroke-dasharray:none;stroke-opacity:1"
       inkscape:connector-curvature="0" />
  </g>
  <g
     style="opacity:1"
     transform="translate(283.2001671575943,-1004.362200001406)"
     id="layer1-7"
     inkscape:label="Layer 1">
    <path
       id="ellipse4145-0"
       transform="translate(0,1004.3622)"
       d="M 24.328125,6.00390625 A 18,18 0 0 0 14.109375,8.9609375 18,18 0 0 0 6.755859375,29.162109375 18,18 0 0 0 24,42 l 0,-4 A 14,14 0 0 1 10,24 14,14 0 0 1 24,10 14,14 0 0 1 32.998046875,13.27734375 L 35.5703125,10.2109375 A 18,18 0 0 0 24.328125,6.00390625 Z"
       style="opacity:1;fill:#4caf50;fill-opacity:1;fill-rule:nonzero;stroke:none;stroke-width:3;stroke-miterlimit:4;stroke-dasharray:none;stroke-opacity:1"
       inkscape:connector-curvature="0" />
  </g>
  <g
     style="opacity:1"
     transform="translate(331.2000122070313,-1004.362681870882)"
     id="layer1-9"
     inkscape:label="Layer 1">
    <path
       id="ellipse4145-6"
       transform="translate(0,1004.3622)"
       d="M 24.6875,6.013671875 A 18,18 0 0 0 19.341796875,6.61328125 18,18 0 0 0 6,24 l 4,0 A 14,14 0 0 1 24,10 14,14 0 0 1 36.109375,17.0078125 L 39.587890625,15 A 18,18 0 0 0 24.6875,6.013671875 Z"
       style="opacity:1;fill:#4caf50;fill-opacity:1;fill-rule:nonzero;stroke:none;stroke-width:3;stroke-miterlimit:4;stroke-dasharray:none;stroke-opacity:1"
       inkscape:connector-curvature="0" />
  </g>
  <g
     style="opacity:1"
     transform="translate(-48,-1042.650457316819)"
     id="layer1-98"
     inkscape:label="Layer 1" />
  <g
     style="opacity:1"
     transform="translate(379.3141412782518,-1004.3622)"
     id="layer1-94"
     inkscape:label="Layer 1">
    <path
       id="ellipse4145-61"
       transform="translate(0,1004.3622)"
       d="m 24,6 0,4 A 14,14 0 0 1 37.78515625,21.5703125 L 41.7265625,20.875 A 18,18 0 0 0 24,6 Z"
       style="opacity:1;fill:#4caf50;fill-opacity:1;fill-rule:nonzero;stroke:none;stroke-width:3;stroke-miterlimit:4;stroke-dasharray:none;stroke-opacity:1"
       inkscape:connector-curvature="0" />
  </g>
</svg>
