<?xml version="1.0" encoding="UTF-8" standalone="no"?>
<!-- Created with Inkscape (http://www.inkscape.org/) -->

<svg
   xmlns:dc="http://purl.org/dc/elements/1.1/"
   xmlns:cc="http://creativecommons.org/ns#"
   xmlns:rdf="http://www.w3.org/1999/02/22-rdf-syntax-ns#"
   xmlns:svg="http://www.w3.org/2000/svg"
   xmlns="http://www.w3.org/2000/svg"
   xmlns:sodipodi="http://sodipodi.sourceforge.net/DTD/sodipodi-0.dtd"
   xmlns:inkscape="http://www.inkscape.org/namespaces/inkscape"
   version="1.0"
   width="48"
   height="48"
   id="svg3215"
   inkscape:version="0.91 r13725"
   sodipodi:docname="banshee-panel.svg">
  <metadata
     id="metadata13">
    <rdf:RDF>
      <cc:Work
         rdf:about="">
        <dc:format>image/svg+xml</dc:format>
        <dc:type
           rdf:resource="http://purl.org/dc/dcmitype/StillImage" />
        <dc:title></dc:title>
      </cc:Work>
    </rdf:RDF>
  </metadata>
  <sodipodi:namedview
     pagecolor="#ffffff"
     bordercolor="#666666"
     borderopacity="1"
     objecttolerance="10"
     gridtolerance="10"
     guidetolerance="10"
     inkscape:pageopacity="0"
     inkscape:pageshadow="2"
     inkscape:window-width="1366"
     inkscape:window-height="713"
     id="namedview11"
     showgrid="false"
     inkscape:zoom="4.156178482194802"
     inkscape:cx="41.07962625143139"
     inkscape:cy="21.13702173397482"
     inkscape:window-x="0"
     inkscape:window-y="30"
     inkscape:window-maximized="1"
     inkscape:current-layer="svg3215" />
  <defs
     id="defs3217">
    <linearGradient
       id="linearGradient2252">
      <stop
         id="stop2254"
         offset="0"
         style="stop-color:#ffffff;stop-opacity:1;" />
      <stop
         id="stop2256"
         offset="1"
         style="stop-color:#d0d0d0;stop-opacity:1;" />
    </linearGradient>
  </defs>
  <path
     inkscape:connector-curvature="0"
     style="fill:none;stroke:#3465a4;stroke-width:3.4288265705;stroke-linecap:round;stroke-linejoin:round;stroke-miterlimit:10;stroke-dasharray:none;stroke-opacity:1"
     id="path5"
     d="m -38.14277500013432,13.09801653294069 5.14323991735808,-5.143239917358101 0,21.503379999666321 c 0,-3.05577884829953 2.94467046501285,-6.0736605904747 6.00044588448579,-6.0736605904747 3.05577713388623,0 6.0004465702511,3.01838749410035 6.0004465702511,6.07416634239991 0,3.05577370505965 -2.94466943636487,5.92672679810233 -6.0004465702511,5.92672679810233 -3.05577713388625,0 -6.0004458844858,-2.87095309304268 -6.0004458844858,-5.92672679810231 m 5.11525657761574,-11.18244594362644 c 4.79642267766411,-0.38219913005746 9.29649872894327,2.35721045885886 11.15970767995177,6.79344501601583 1.86321066542181,4.43623815742491 0.66873948377465,9.56734517181797 -2.96216159532381,12.72460700134021 -3.63089936468514,3.15726182952225 -8.87816816702502,3.62758711817837 -13.01266975407293,1.16635994667219 -4.13450072984122,-2.46122888591949 -6.22243034805625,-7.29812543290659 -5.17784363552208,-11.99499555873031" />
  <path
     style="font-style:normal;font-variant:normal;font-weight:normal;font-stretch:normal;font-size:659.4535522461px;line-height:100%;font-family:Likhan;text-align:start;writing-mode:lr-tb;text-anchor:start;fill:#729fcf;fill-opacity:1;stroke:#3465a4;stroke-width:1.0000004768;stroke-linecap:butt;stroke-linejoin:miter;stroke-miterlimit:10;stroke-dasharray:none;stroke-opacity:1"
     d="m 24.98711304948309,28.89102729339261 c 11.802491,-3.741806 14.079463,0.104188 14.079463,3.62733700000001 0,3.595517 -4.547973,8.470453 -18.21470599999999,6.99418399999999 l -0.027603,-26.5823306 c -4.381011,-0.11065799999999 -3.823982,3.1132586 -10.49337299999999,3.3755726 5.285538,-3.2346506 4.475652,-7.857610399999999 14.651049,-8.0789249 l 0.00517,20.664161899999999 z m 0,8.01171500000001 c 2.303821,0.15079699999999 9.207141,-0.824467 9.207141,-4.308811 0,-3.90316300000001 -7.664754,-1.97078100000001 -9.207141,-1.16299900000001 l 0,5.47181000000001 z"
     id="text1358"
     sodipodi:nodetypes="czccccccccc"
     inkscape:connector-curvature="0" />
  <g
     style="fill:#4caf50"
     id="g4226"
     transform="translate(-39.39876121157404,-59.73076408793387)">
    <path
       id="path4218"
       d="M 40,8 8,8 C 5.79,8 4,9.789999999999999 4,12 l 0,24 c 0,2.21 1.79,4 4,4 l 32,0 c 2.21,0 4,-1.79 4,-4 L 44,12 C 44,9.789999999999999 42.21,8 40,8 Z M 15.51,32.49 12.68,35.32 C 9.57,32.19 8,28.1 8,24 8,19.9 9.57,15.81 12.69,12.69 l 2.83,2.83 C 13.18,17.85 12,20.93 12,24 c 0,3.07 1.17,6.15 3.51,8.49 z M 24,32 c -4.42,0 -8,-3.58 -8,-8 0,-4.42 3.58,-8 8,-8 4.42,0 8,3.58 8,8 0,4.42 -3.58,8 -8,8 z m 11.31,3.31 -2.82999999999999,-2.82999999999999 C 34.83,30.15 36,27.07 36,24 36,20.93 34.82,17.85 32.49,15.51 l 2.83,-2.83 C 38.43,15.81 40,19.9 40,24 c 0,4.1 -1.57,8.19 -4.69,11.31 z M 24,20 c -2.21,0 -4,1.79 -4,4 0,2.21 1.79,4 4,4 2.21,0 4,-1.79 4,-4 0,-2.21 -1.79,-4 -4,-4 z"
       inkscape:connector-curvature="0" />
  </g>
  <g
     style="fill:#4caf50"
     id="g4239"
     transform="translate(12.8126635214192,-62.85863745903484)">
    <path
       id="path4231"
       d="m 6,18 0,12 8,0 10,10 0,-32 -10,10 -8,0 z m 27,6 c 0,-3.53 -2.04,-6.58 -5,-8.05 l 0,16.11 C 30.96,30.58 33,27.53 33,24 Z M 28,6.46 l 0,4.13 c 5.78,1.72 10,7.07 10,13.41 0,6.34 -4.22,11.69 -10,13.41 l 0,4.13 C 36.01,39.72 42,32.57 42,24 42,15.43 36.01,8.279999999999999 28,6.46 Z"
       inkscape:connector-curvature="0" />
  </g>
</svg>
