<?xml version="1.0" encoding="UTF-8" standalone="no"?>
<svg
   xmlns:dc="http://purl.org/dc/elements/1.1/"
   xmlns:cc="http://creativecommons.org/ns#"
   xmlns:rdf="http://www.w3.org/1999/02/22-rdf-syntax-ns#"
   xmlns:svg="http://www.w3.org/2000/svg"
   xmlns="http://www.w3.org/2000/svg"
   xmlns:sodipodi="http://sodipodi.sourceforge.net/DTD/sodipodi-0.dtd"
   xmlns:inkscape="http://www.inkscape.org/namespaces/inkscape"
   fill="#FF9800"
   width="48"
   height="48"
   viewBox="0 0 48 48"
   id="svg2"
   version="1.1"
   inkscape:version="0.91 r13725"
   sodipodi:docname="empathy.svg">
  <metadata
     id="metadata10">
    <rdf:RDF>
      <cc:Work
         rdf:about="">
        <dc:format>image/svg+xml</dc:format>
        <dc:type
           rdf:resource="http://purl.org/dc/dcmitype/StillImage" />
      </cc:Work>
    </rdf:RDF>
  </metadata>
  <defs
     id="defs8" />
  <sodipodi:namedview
     pagecolor="#ffffff"
     bordercolor="#666666"
     borderopacity="1"
     objecttolerance="10"
     gridtolerance="10"
     guidetolerance="10"
     inkscape:pageopacity="0"
     inkscape:pageshadow="2"
     inkscape:window-width="1366"
     inkscape:window-height="713"
     id="namedview6"
     showgrid="false"
     inkscape:snap-bbox="true"
     inkscape:bbox-nodes="true"
     inkscape:zoom="3.795750125125503"
     inkscape:cx="-18.12696707186586"
     inkscape:cy="36.71879046173436"
     inkscape:window-x="0"
     inkscape:window-y="30"
     inkscape:window-maximized="1"
     inkscape:current-layer="svg2" />
  <path
     d="M 8 4 C 5.79 4 4.019531249999999 5.790000000000001 4.01953125 8 L 4 44 L 12 36 L 40 36 C 42.21 36 44 34.21 44 32 L 44 8 C 44 5.79 42.21 4.000000000000001 40 4 L 8 4 z M 23.994140625 8 C 30.624140625 7.999999999999997 36 13.37 36 20 C 36.00000000000001 26.63 30.624140625 32 23.994140625 32 C 17.364140625 32 12 26.63 12 20 C 11.99999999999999 13.37 17.364140625 8 23.994140625 8 z M 24 10.400390625 C 18.69600000000001 10.400390625 14.400390625 14.696 14.400390625 20 C 14.400390625 25.30400000000002 18.696 29.599609375 24 29.599609375 C 29.30400000000001 29.599609375 33.599609375 25.30400000000001 33.599609375 20 C 33.59960937499999 14.696 29.304 10.400390625 24 10.400390625 z M 19.80078125 15.19921875 C 20.79678125000001 15.19921875 21.599609375 16.004 21.599609375 17 C 21.599609375 17.99600000000001 20.79678125 18.80078125 19.80078125 18.80078125 C 18.80478124999999 18.80078125 18 17.996 18 17 C 18 16.00399999999999 18.80478125 15.19921875 19.80078125 15.19921875 z M 28.19921875 15.19921875 C 29.19521875000001 15.19921875 30 16.004 30 17 C 30 17.99600000000001 29.19521875 18.80078125 28.19921875 18.80078125 C 27.20321874999999 18.80078125 26.400390625 17.996 26.400390625 17 C 26.400390625 16.00399999999999 27.20321875 15.19921875 28.19921875 15.19921875 z M 17.873046875 22.400390625 L 30.126953125 22.400390625 C 29.166953125 24.854390625 26.796 26.599609375 24 26.599609375 C 21.20399999999999 26.59960937499999 18.833046875 24.854390625 17.873046875 22.400390625 z "
     id="path4157" />
</svg>
