<svg xmlns="http://www.w3.org/2000/svg" viewBox="0 0 24 24"><defs><filter color-interpolation-filters="sRGB"><feGaussianBlur stdDeviation="1.71"/></filter><linearGradient y1="-22.713" x2="0" y2="62.786" gradientUnits="userSpaceOnUse" gradientTransform="matrix(1.0059 0 0-.9942 9.91 69.42)"><stop/><stop offset="1" stop-opacity=".588"/></linearGradient></defs><path d="m5 3c-1.108 0-2 .892-2 2v14c0 1.108.892 2 2 2h14c1.108 0 2-.892 2-2v-14c0-1.108-.892-2-2-2h-14" fill="#9E9E9E"/><path d="m11.754 4.975c-.037.009-.068.036-.084.07l-5.955 12.848c-.037.076.026.18.111.182h2.109c.047-.001.092-.029.113-.07l1.35-2.918h4.316l.492 2.883c.01.059.067.106.127.105h2.49c.074 0 .137-.074.125-.146l-2.277-12.848c-.01-.059-.067-.106-.127-.105h-2.764c-.009-.001-.018-.001-.027 0m.83 2.715l.871 5.422h-3.17l2.299-5.422"/></svg>