<svg xmlns="http://www.w3.org/2000/svg" viewBox="0 0 48 48" fill="#9E9E9E"><path d="m8 4c-2.21 0-3.98 1.79-3.98 4l-.02 36 8-8h28c2.21 0 4-1.79 4-4v-24c0-2.21-1.79-4-4-4h-32m16 4a12 12 0 0 1 12 12 12 12 0 0 1 -12 12 12 12 0 0 1 -12 -12 12 12 0 0 1 12 -12m0 2a10 10 0 0 0 -10 10 10 10 0 0 0 10 10 10 10 0 0 0 10 -10 10 10 0 0 0 -10 -10m-4 4a2 2 0 0 1 2 2 2 2 0 0 1 -2 2 2 2 0 0 1 -2 -2 2 2 0 0 1 2 -2m8 0a2 2 0 0 1 2 2 2 2 0 0 1 -2 2 2 2 0 0 1 -2 -2 2 2 0 0 1 2 -2m-10.701 8h13.406a7 7 0 0 1 -6.705078 5 7 7 0 0 1 -6.701172 -5"/></svg>