<?xml version="1.0" encoding="UTF-8" standalone="no"?>
<svg
   xmlns:dc="http://purl.org/dc/elements/1.1/"
   xmlns:cc="http://creativecommons.org/ns#"
   xmlns:rdf="http://www.w3.org/1999/02/22-rdf-syntax-ns#"
   xmlns:svg="http://www.w3.org/2000/svg"
   xmlns="http://www.w3.org/2000/svg"
   xmlns:sodipodi="http://sodipodi.sourceforge.net/DTD/sodipodi-0.dtd"
   xmlns:inkscape="http://www.inkscape.org/namespaces/inkscape"
   viewBox="0 0 47.99999913727135 48.00000115230691"
   id="svg2"
   version="1.1"
   inkscape:version="0.91 r13725"
   sodipodi:docname="qtcreator.svg"
   width="48"
   height="48">
  <metadata
     id="metadata18">
    <rdf:RDF>
      <cc:Work
         rdf:about="">
        <dc:format>image/svg+xml</dc:format>
        <dc:type
           rdf:resource="http://purl.org/dc/dcmitype/StillImage" />
        <dc:title></dc:title>
      </cc:Work>
    </rdf:RDF>
  </metadata>
  <defs
     id="defs16" />
  <sodipodi:namedview
     pagecolor="#ffffff"
     bordercolor="#666666"
     borderopacity="1"
     objecttolerance="10"
     gridtolerance="10"
     guidetolerance="10"
     inkscape:pageopacity="0"
     inkscape:pageshadow="2"
     inkscape:window-width="1366"
     inkscape:window-height="713"
     id="namedview14"
     showgrid="false"
     inkscape:snap-bbox="true"
     inkscape:bbox-nodes="true"
     inkscape:snap-page="true"
     inkscape:zoom="4.250000002242452"
     inkscape:cx="93.38139156942873"
     inkscape:cy="4.105754480447125"
     inkscape:window-x="0"
     inkscape:window-y="31"
     inkscape:window-maximized="1"
     inkscape:current-layer="svg2"
     inkscape:object-paths="true"
     inkscape:snap-intersection-paths="true"
     inkscape:object-nodes="true"
     inkscape:snap-smooth-nodes="true"
     inkscape:snap-midpoints="true"
     inkscape:snap-nodes="false" />
  <g
     id="g4160"
     transform="matrix(0.0799857243326652,0,0,0.0799617782699869,3.999760042827006,4.000879579561002)">
    <path
       id="path4"
       d="M 57.42,0 C 55.381,0 53.359,0.112 51.36,0.328 49.384,0.5129999999999999 47.538,0.816 45.714,1.23 41.801,2.062 38.013,3.307 34.407,4.923 33.734,5.225 33.069,5.541000000000003 32.409,5.868000000000002 c -0.042,0.021 -0.085,0.038 -0.127,0.059 -0.549,0.255999999999995 -1.081,0.516 -1.57600000000001,0.779 -0.638,0.339 -1.297,0.737 -1.96699999999999,1.16 -0.098,0.058 -0.197,0.117 -0.29500000000001,0.175999999999997 -0.122,0.074 -0.24599999999999,0.143999999999998 -0.367,0.218999999999999 C 20.12199999999999,13.123 13.396,19.951 8.674999999999993,28.261 c -0.234999999999999,0.404 -0.458,0.817 -0.686,1.229 -0.260999999999997,0.473 -0.521999999999998,0.946 -0.771,1.428 -0.497999999999998,0.915 -0.966999999999999,1.848 -1.41,2.799 -1.396999999999998,2.58 -2.458000000000001,4.415 -3.264,8.193 l -2.0099999999999997,5.588 -0.02,16.84999999999999 c -0.182,8.99300000000001 -0.297,22.56500000000001 -0.367,44.02000000000001 0,0.036 0,0.093 0,0.129 -0.17099999999999999,34.381 -0.11399999999999999,86.32 -0.11299999999999998,166.23 0,0.376 0,0.608 0,0.984 0,0.894 0,1.457 0,2.357 l 0,195.32 -0.031,26.777 0.004,0 0,0.063 1.223000000000000087,-0.229 c 0,0 0.002,0.002 0.002,0.002 0.001,0 0.05,-0.008 0.051,-0.008 0.001,0 0.001,0.004 0.002,0.004 0.012,0 0.257,-0.039 0.281,-0.041 0.038,0.025 0.076,0.045 0.115,0.045 C 3.037999999999994,500.001 226.311,462.6010000000001 320.121,446.651 c 9.951,-1.691 16.84,-2.944 22.04,-4.254 1.897,-0.407 3.251,-0.73 3.873,-0.934 0.315,-0.103 0.669,-0.241 1.053,-0.404 0.022,-0.008 0.085,-0.022 0.104,-0.029 0.64,-0.243 1.275,-0.514 1.906,-0.799 4.23,-1.692 7.154,-3.798 10.561,-6.998 1.052,-0.941 2.072,-1.953 3.07,-3.01 6.707,-6.82 12.5989999999998,-17.191 15.666,-27.449 0.091,-0.261 0.1949999999998,-0.516 0.283,-0.777 0.121,-0.357 0.23,-0.74 0.336,-1.168 l 1.521,-4.332 0.02,-12.971 c 0.161,-6.385 0.265,-16.14 0.336,-29.797 0.008,-1.505 0.02,-2.402 0.027,-4.02 0,-0.076 0.002,-0.113 0.002,-0.189 0,-0.004 0,-0.01 0,-0.014 0.019,-4.434 0.028,-10.606 0.041,-15.953 0.016,-4.03 0.025,-9.01 0.035,-13.531 C 380.996,319.652 380.996,319.434 380.997,319.061 c 9.9999999998e-4,-0.414 -0.001,-1.267 0,-1.686 0,-0.247 0,-0.564 0,-0.813 0.046,-24.05 0.038,-53.938 0.037,-94.21 l 0,-0.441 0,-0.059 0,-1.318 c 0,-0.504 0,-0.921 0,-1.424 l 0,-145.15000000000003 L 381.071,52.44 l -0.004,0 0,-0.25999999999999 0,-0.02 -0.033,-0.008 0,-0.121 -2.25,-0.52000000000002 C 376.795,51.051 272.7439999999999,33.95100000000001 116.774,8.451 c -10.347,-1.691999999999997 -19.47300000000005,-3.132999999999996 -27.46500000000006,-4.352 C 87.78199999999992,3.851 83.49399999999994,3.148 82.24899999999992,2.947 c -8.402,-1.36 -14.777,-2.2099999999999999 -19.99399999999997,-2.5979999999999998 -0.035,-0.004 -0.237,-0.035 -0.26400000000001,-0.037 -0.27800000000001,-0.024 -0.55599999999999,-0.039 -0.83400000000001,-0.059 -0.67699999999999,-0.065 -1.384,-0.137 -1.914,-0.17600000000000004 -0.11699999999999,-0.011 -0.164,-0.01 -0.268,-0.02 -0.189,-0.013 -0.393,-0.028 -0.561,-0.037 -0.147,-0.008 -0.387,-0.031 -0.484,-0.031 -0.096,0 -0.191,0.005 -0.287,0.006 -0.012,0 -0.058,-0.006 -0.068,-0.006 -0.03,0 -0.062,0.002 -0.092,0.002 -0.019,0 -0.05,-0.002 -0.068,-0.002"
       inkscape:connector-curvature="0"
       style="fill:#80c342" />
    <g
       id="g6"
       style="fill:#ffffff">
      <path
         id="path8"
         d="m 147.53,93.56 c 3.282,-0.006 5.961,0.011 8.273,0.064 2.032,0.16 4.047,0.345 6.01,0.586 20.743,3.116 37.08,11.48100000000001 49.33,25.29100000000001 15.984,18.02 25.788,47.39 28.768,85.31 0.15,3.034 0.276,6.267 0.377,9.656 0.29,11.978 0.287,26.13 -0.018,38 -1.655,30.891 -6.411,55.13 -14.504,73.61 -1.042,2.317 -2.127,4.583 -3.287,6.768 -2.074,3.9059999999999 -4.268,7.477 -6.602,10.754 -6.614,8.885 -17.436,18.14 -26.49,22.525 -0.904,0.437 -1.643,0.79 -2.373,1.145 l -3.271,1.5249999999999 -1.889,0.699 L 181.881,369.661 l -0.666,0.3109999999999 0.029,0.113 -0.008,0.004 L 181.662,371.708 c -0.2110000000001,1.734 0.8319999999999,4.288 2.6289999999999,9.17 0.8420000000001,2.2880000000002 1.8120000000001,4.27 2.92,6 0.03,0.047 0.062,0.092 0.092,0.1390000000002 C 187.602,387.476 187.912,387.916 188.233,388.337 c 0.119,0.158 0.239,0.316 0.3609999999999,0.469 0.2280000000001,0.282 0.464,0.552 0.703,0.816 0.136,0.152 0.2630000000001,0.319 0.402,0.4649999999999 0.005,0.006 0.009,0.01 0.014,0.016 0.179,0.228 0.3540000000001,0.433 0.521,0.6109999999999 0.904,0.962 1.958,1.736 3.252,2.3570000000001 1.588,0.922 3.3720000000001,1.593 5.346,2.0679999999999 0.014,0.003 0.029,0.006 0.043,0.01 0.561,0.1340000000001 1.139,0.2529999999999 1.734,0.354 0.093,0.016 0.189,0.03 0.2829999999999,0.045 0.5250000000001,0.083 1.058,0.1589999999999 1.6090000000001,0.2169999999999 0.261,0.028 0.532,0.047 0.799,0.07 0.419,0.035 0.835,0.074 1.27,0.096 0.777,0.041 1.5740000000001,0.066 2.402,0.066 l 1.2419999999999,0 3.8110000000001,0.287 0,2.973 -0.219,12.137 -0.23,12.688 c -0.016,0.048 -0.028,0.1019999999999 -0.045,0.148 -0.3240000000001,0.894 -0.828,1.503 -1.6150000000001,1.936 -0.021,0.011 -0.043,0.022 -0.064,0.033 -0.065,0.035 -0.1380000000001,0.065 -0.207,0.098 l -0.863,0.143 c -1.7880000000001,0.293 -6.77,0.988 -11.07,1.545 -1.382,0.179 -2.717,0.3200000000001 -4.03,0.441 -1.707,0.136 -3.369,0.244 -4.959,0.2989999999999 -0.166,0.004 -0.332,0.009 -0.498,0.012 -0.611,0.018 -1.21,0.026 -1.805,0.031 -0.844,0.005 -1.659,-0.005 -2.475,-0.016 -0.397,-0.008 -0.806,-0.007 -1.195,-0.021 -0.406,-0.015 -0.793,-0.045 -1.191,-0.066 -7.656,-0.5110000000001 -14.255,-2.4049999999999 -20.662,-5.82 -10.676,-5.69 -19.229,-19.517 -24.49,-39.594 l -1.912,-7.2989999999999 -0.5140000000001,-2.453 -0.1409999999999,-0.043 -0.018,-0.064 -7.2660000000001,-2.256 c -4.119,-1.279 -8.0199999999999,-2.928 -11.7249999999999,-4.932 -9.345,-5.185 -17.56200000000176,-12.837 -24.39300000000176,-22.682 -0.014,-0.02 -0.027,-0.039 -0.041,-0.059 -0.16200000000002,-0.2339999999999 -0.32000000000005,-0.476 -0.47999999999999,-0.713 -9.89500000000001,-14.9460000000001 -16.80400000000003,-35.21 -20.78300000000003,-60.8890000000001 -1.22299999999997,-8.243 -2.146,-16.916 -2.762,-25.791 -0.91600000000004,-17.8299999999999 -0.65400000000001,-45.22 0.643,-60.5799999999999 0.18199999999996,-1.9 0.38000000000001,-3.78 0.59399999999998,-5.643 5.44699999999996,-43.912 19.67199999999997,-73.0999999999999 42.3200000000018,-87.13 0.839,-0.5199999999999 1.693,-1.01 2.555,-1.488 0.399,-0.2199999999999 0.797,-0.4429999999999 1.201,-0.6539999999999 0.364,-0.191 0.732,-0.3760000000001 1.0999999999994,-0.5610000000001 0.7459999999991,-0.37200000000067 1.497,-0.73800000000072 2.2600000000006,-1.08200000000065 0.004,-0.002 0.008,-0.004 0.012,-0.006 0.248,-0.11199999999999 0.5019999999996,-0.21499999999995 0.7519999999996,-0.32399999999997 0.5900000000004,-0.25700000000002 1.1869999999995,-0.50399999999998 1.7870000000004,-0.74400000000003 0.534,-0.21299999999995 1.071,-0.41999999999996 1.613,-0.61899999999997 4.8739999999997,-1.69699999999999 10.1799999999999,-2.87000000000002 15.73,-3.52100000000003 2.675,-0.113 5.961,-0.151 10.598,-0.15999999999994"
         inkscape:connector-curvature="0" />
      <path
         id="path10"
         d="m 280.05,110.34 c 2.182,0.167 6.498,0.596 11.539,1.162 5.751,0.646 10.05,1.109 12.03,1.305 l 1.693,0.219 c 0.086,0.111 0.17,0.707 0.2459999999999,1.678 L 305.8,136.618 l 0,0.008 0.232,21.1 0,0.002 0,3.01 0,0.002 0,0.021 0,0.014 3.25,0.553 c 1.7880000000002,0.304 8.09,0.858 14,1.23 l 8.799,0.555 1.951,0.143 0,14.768 0,0.09 C 334.031,191.555 333.881,192.782 332.282,192.466 c -0.962,-0.19 -7.262,-0.576 -14,-0.857 l -11.43,-0.477 -0.82,-0.059 0,0.023 0,0.027 0,0.563 0,0.002 0,0.006 0,0.014 0,0.021 0,0.148 0,0.053 0,0.061 0,0.066 -0.111,-0.006 0.111,22.631 0,35.619 0,2.521 0,0.256 c 0,23.633 -0.005,38.838 0.236,48.916 0.127,6.294 0.316,10.186 0.604,12.529 0.022,0.262 0.046,0.425 0.068,0.576 C 307.059,316.487 307.187,317.559 307.336,317.997 c 0.1549999999999,0.454 0.338,0.866 0.535,1.26 0.8980000000001,2.639 2.233,3.243 4.221,4.271 0.1750000000002,0.09 0.366,0.168 0.5570000000001,0.248 1.8759999999999,1.025 3.053,1.298 5.8519999999999,0.965 0.3560000000001,-0.03 0.741,-0.071 1.154,-0.127 3.5530000000001,-0.216 7.703,-1.134 11.877,-2.719 2.75,-1.044 5.349,-1.898 5.777,-1.898 0.411,0 0.626,5.5199999999999 0.508,12.3829999999999 l -0.008,0.387 -0.221,10.967 -0.041,1.914 c -0.061,0.2679999999999 -0.125,0.5199999999999 -0.201,0.7149999999999 l -2.215,0.953 -4.928,1.879 c -4.0299999999999,1.537 -11.752,3.697 -17.16,4.799 -2.296,0.468 -4.4680000000001,0.824 -6.58,1.1209999999999 -0.541,0.064 -1.0820000000001,0.128 -1.6190000000001,0.182 -0.798,0.065 -1.596,0.1220000000001 -2.3829999999999,0.1720000000001 -0.827,0.052 -1.6410000000001,0.095 -2.4320000000001,0.127 -1.5539999999999,0.063 -3.0099999999998,0.098 -4.375,0.102 -4.677,-0.081 -8.7889999999998,-0.5820000000001 -11.4789999999998,-1.5450000000001 -0.918,-0.3290000000001 -1.79,-0.6909999999999 -2.639,-1.07 -2.452,-1.0980000000001 -4.635,-2.415 -6.5720000000002,-3.9959999999999 -2.954,-2.545 -5.403,-5.811 -7.4159999999998,-9.8380000000001 -2.638,-5.278 -4.01,-8.595 -4.7210000000002,-19.3009999999999 -0.317,-7.361 -0.475,-22.453 -0.658,-45.678 l -0.119,-15.7710000000001 -0.002,-0.3360000000001 c 0,-1.2409999999999 -0.004,-2.1279999999999 -0.004,-3.4139999999999 l 0,-1.307 c 9.9999999998e-4,-13.591 0.013,-24.01 -0.008,-32.479 l -0.008,-31.965 -3.275,0 c -1.1559999999999,-0.3770000000001 -2.7089999999999,0 -4.807,0 l -2.627,0 -2,-0.227 c -0.07,-0.083 -0.139,-0.1690000000001 -0.201,-0.2640000000001 l -0.088,-4.717 0,-10.668 0,-0.209 0,-0.023 0,-0.016 0,-0.006 0,-0.016 0,-0.453 c 0,-9.08 0.151,-13.462 0.5939999999999,-15.12 l 8.322,0.475 8.555,0.488 0.377,0.029 0.473,-1.779 0.445,-1.613 c 0.5140000000001,-1.861 3.097,-12.608 5.7420000000001,-23.883 2.385,-10.165 4.219,-17.827 4.658,-19.508 0.058,-0.214 0.079,-0.274 0.123,-0.428 0.243,-0.293 0.565,-0.512 1.012,-0.662 0.206,-0.026 0.455,-0.043 0.717,-0.059"
         inkscape:connector-curvature="0" />
    </g>
    <path
       id="path12"
       d="m 156.1,129.02 c -10.203,0.049 -18.08,6.231 -23.459,18.283 -1.398,3 -2.603,6.428 -3.639,10.395 -0.003,0.013 -0.006,0.025 -0.01,0.037 -0.95,3.504 -1.762,7.321 -2.434,11.451 -1.557,9.576 -2.596,25.688 -3.055,43.19 -0.031,1.041 -0.068,2.023 -0.096,3.092 -0.256,9.83 -0.275,19.249 -0.09,28.21 0.195,13.294 0.749,25.669 1.709,34.813 1.777,16.9320000000001 4.532,29.948 8.428,39.5 0.323,0.828 0.648,1.635 0.984,2.3960000000001 0.4,0.9049999999999 0.875,1.824 1.398,2.742 2.418,4.58 5.201,8.111 8.379,10.666 0.121,0.101 0.245,0.1960000000001 0.367,0.2950000000001 0.049,0.038 0.096,0.078 0.145,0.115 1.491,1.185 3.062,2.173 4.719,2.951 0.89,0.418 1.732,0.7350000000002 2.582,0.9800000000001 1.702,0.5969999999999 3.184,0.7649999999999 5.279,0.6739999999999 2.26,0.028 4.566,-0.307 6.838,-0.998 0.005,-9.999999999e-4 0.009,-0.003 0.014,-0.004 0.324,-0.091 0.639,-0.2 0.957,-0.303 8.901,-2.887 15.39,-10.721 19.842,-24.2 0.559,-1.6279999999998 1.065,-3.31 1.51,-5.04 0.041,-0.161 0.08,-0.346 0.121,-0.51 1.931,-7.349 3.386,-16.07 4.404,-26.26 2.769,-27.733 2.239,-84.51 -0.984,-105.5 -0.755,-4.915 -1.665,-9.442 -2.732,-13.582 -9.9999999998e-4,-0.005 -0.003,-0.009 -0.004,-0.014 -1.902,-8.284 -4.399,-14.387 -7.758,-19.344 -5.846,-9.413 -13.639,-14.09 -23.416,-14.04"
       inkscape:connector-curvature="0"
       style="fill:#80c342" />
  </g>
  <g
     id="g5852"
     transform="matrix(1.148676223372322,0,0,1.148676223372321,-7.226888912572301,-7.136458721871407)">
    <path
       style="fill:#eaeaeb"
       d="m 47.20703125,24.728515625 c -0.0158490833856,-0.0158490833852 -0.47056531673609,0.53794937487336 -1.0263671875,1.1630859375 -0.5406874190733,0.6081366263672 -0.96157435881524,1.07831056515357 -1.60182890613263,1.66928973490081 -0.64868001532905,0.59875619548042 -1.0634811164769,1.01130045442177 -1.7951925066973,1.55970805582918 -1.75234002133542,1.31335469256713 -1.97783221562002,1.44655815041058 -2.63623004063586,1.89104823125971 -0.0100485309482,0.006783850377 0,0 0,0 l 0,0 c 0,0 -0.17105978746386,0.10693312082631 -0.24660829595735,0.15431210737493 -0.0296739419652,0.0186095175834 -0.38190569602257,0.22930079640682 -0.38190569602257,0.22930079640682 0,0 8.84273188e-4,-5.10196208e-4 0,0 C 39.20058262226597,31.59147973276672 38.994405767646,31.7030765846158 38.671875,31.884765625 38.20868917910476,32.14568890972173 36.60661696664222,33.02299486537192 35.04336482112083,33.80753848666387 32.00237577072771,35.33370850903659 30.99801345418915,35.9317198172641 30.11328125,36.77734375 c -9.3272395894e-4,9.4560673426e-4 -0.002964291298,0.001009748503 -0.00390625,0.001953125 -0.10785255869585,0.10801489364231 -0.27429539626975,0.20234360802791 -0.373046875,0.3125 L 29.734375,37.09375 c -0.5502064353708,0.57914303482895 -1.06427925570489,1.52369845960664 -1.21484375,1.84375 l 0,0.001953125 c -0.0135695356261,0.15453993575462 -0.0273171171014,0.30971954407721 -0.068359375,0.439453125 -0.11109534655867,0.35116969364867 -0.13053702904665,0.78798964518579 -0.185546875,1.189453125 -0.10062063497385,1.01000988362015 -0.0632370524341,2.38221033104446 0.115234375,3.583984375 0.0825042271912,0.51159569873259 0.18256081496576,1.04290186143475 0.30078125,1.59375 4.4601535428e-4,0.002078208624 0.001515715768,0.003790216531 0.001953125,0.005859375 0.0313819682176,0.14845197718634 0.0403483334369,0.27435426565936 0.080078125,0.431640625 0.0953342264431,0.37741887907951 0.0786533033962,0.63370922908865 0.1953125,1.03515625 l 0.2265625,0.779296875 1.638671875,-0.0625 c 0.9010080398511,-0.0338392779126 2.08863871268691,-0.13869105115941 2.638671875,-0.234375 0.4347683520088,-0.0756324447351 1.07777347512899,-0.33832323249072 1.71875,-0.5234375 0.0335036601284,-0.009675869962 0.0590915635225,-0.0182628947225 0.08984375,-0.02734375 0.17459106673079,-0.0515552352963 0.31898815829812,-0.0963122053762 0.509765625,-0.15625 0.35769866637116,-0.12233837463867 0.61789359213307,-0.33809269867191 0.94921875,-0.482421875 l 0.001953125,0 c 0.67710156276983,-0.29488396877178 1.38171605950118,-0.55927785221688 1.939453125,-0.986328125 0.14184865172837,-0.10861122410851 0.23775729990039,-0.29598289747981 0.373046875,-0.4140625 L 39.046875,45.109375 c 0.33360545629557,-0.28862535600674 0.61901044305741,-0.6707875801356 0.919921875,-1.015625 L 39.96875,44.091796875 c 0.34665419912112,-0.39668464054234 0.7466099961987,-0.69129653744101 1.05859375,-1.169921875 0.20169150484193,-0.30942208820663 0.37097616128775,-0.7913790830461 0.55859375,-1.14453125 6.4334825333e-4,-0.001210972976 0.001309344101,-0.002698324787 0.001953125,-0.00390625 0.21774305115854,-0.40855098671338 0.44104384547006,-0.83320915960967 0.650390625,-1.326171875 l 0,-0.001953125 c 0.11982266964814,-0.28228933422885 0.25118932066465,-0.44232217144592 0.37109375,-0.759765625 0.51083101443271,-1.35241010113572 1.03117497432753,-3.04810595613665 1.640625,-5.296875 0.0738115798455,-0.27235243062326 0.11203284153332,-0.3685427222841 0.181640625,-0.619140625 4.6377734035e-4,-0.001669664268 0.001486591079,-0.002222678656 0.001953125,-0.00390625 0.18825918245807,-0.67936703078532 0.32393935243082,-1.09726800618553 0.490234375,-1.6640625 0.002546379068,-0.008678994793 0.005263326173,-0.016698072349 0.0078125,-0.025390625 0.36385168123164,-1.24071566367614 0.75564033292958,-2.61846887092928 1.072265625,-3.63671875 l 0.005859375,-0.01953125 0.23828125,-0.76953125 c 0.13443370717731,-0.43423670708927 0.41272592206042,-1.26337145728336 0.6171875,-1.841796875 0.20446157793957,-0.57842541771668 0.35764595838554,-1.06422904161479 0.341796875,-1.080078125 z"
       id="path5806"
       inkscape:connector-curvature="0"
       sodipodi:nodetypes="sssssccsccsscsccccsccssscccssscccsccccsssccsssssscccss" />
    <path
       inkscape:connector-curvature="0"
       style="fill:#e3e3e3"
       d="M 47.103515625,24.966796875 45.2578125,26.81640625 c -0.43457627940712,0.43540671459689 -0.73299671624562,0.78940543293854 -1.13813900434224,1.16421091363504 -0.43975254781333,0.40086102540984 -0.97378648217681,0.85086734870925 -1.33603084598769,1.13998218959495 C 42.50784280907581,29.34072100313188 42.15619780597396,29.61843086232392 41.880859375,29.82421875 c -0.64974982018547,0.4856228843206 -1.1947792776262,0.85219436556065 -1.92770640717689,1.3092409775064 -0.73113746167254,0.45593059152948 -1.54022682849391,0.87497145600124 -2.47385315533744,1.3740120501466 -0.8558825923107,0.45748512558494 -1.90744407332876,1.04684073730071 -3.02979952948849,1.59810879565871 C 33.92977701682332,34.36085338751217 33.85426828091192,34.41645204436801 33.419921875,34.646484375 c -1.02578737857943,0.54326283863703 -1.95195102002953,1.06824916054623 -2.587890625,1.544921875 -0.40260787742288,0.30681547840702 -0.74985607447181,0.63640718992059 -1.0625,0.98046875 -0.39116836500049,0.41905870008457 -0.68757241995182,0.8936902597216 -0.9296875,1.3828125 -0.13081908364218,0.26428144520984 -0.31726774179291,0.44649028649111 -0.421875,0.74609375 -0.046127691791,0.13211335868198 -0.0983206252985,0.31695236599257 -0.130859375,0.423828125 C 28.2617761059484,39.8078182377519 28.2683225041806,39.97606974119015 28.25,40.0546875 c -0.0944568353006,0.40529310963264 -0.16030926690945,0.65511055462413 -0.15625,1.705078125 0.002740011428,0.70872973034952 0.20449961010685,1.41261188751006 0.275390625,2.00390625 0.0798520438318,0.66603734510236 0.13284345050157,1.39735559578672 0.353515625,2.26171875 0.0733616793204,0.287354455449 0.0240224640289,0.41558515163236 0.1171875,0.751953125 l 0.330078125,1.189453125 1.06640625,0 c 0.42523306837921,-3.442112423e-4 0.83065427573273,-0.0767598135748 1.25,-0.10546875 0.051781498152,-0.003545026579 0.10263262810085,-0.009704291014 0.154296875,-0.013671875 1.53533042243983,-0.1376536114204 2.70935174067385,-0.35417942120856 3.923828125,-0.7421875 1.19555147955519,-0.38196183858765 2.21383375083722,-0.89587211506205 3.107421875,-1.580078125 0.89358812416278,-0.68420600993795 1.66122749533293,-1.53845550307448 2.35546875,-2.603515625 0.57048768602786,-0.87520538480416 1.07120023556731,-1.88391802386428 1.58203125,-3.236328125 0.51083101443271,-1.35241010113572 1.03117497432753,-3.04810595613665 1.640625,-5.296875 0.99301485819809,-3.66405936360124 1.99131772774686,-7.04993485027929 2.455078125,-8.326171875 z m -0.74609375,1.224609375 -0.37890625,1.177734375 -0.37890625,1.17578125 -0.533203125,0.03125 -0.53125,0.033203125 -2.716796875,3.283203125 C 40.32354429810601,33.69906675840422 38.56121243780851,35.82889937033634 37.90234375,36.625 l -1.197265625,1.447265625 -3.623046875,0 c -1.97984582867945,0 -3.58044468825209,-0.0402728274033 -3.599609375,-0.08984375 -1.1431420813e-4,-2.9568240992e-4 -0.021484375,2.9632706536e-4 -0.021484375,0 0,-0.003948765346 0.043261829305,-0.0357910639542 0.044921875,-0.041015625 0.0528562092934,-0.16635113897149 0.88743909432221,-0.9371277751532 1.4296875,-1.306640625 0.26054202425356,-0.17754524472312 1.23183148320955,-0.70530425895829 2.158203125,-1.173828125 5.09217101645713,-2.57542820132634 11.70311647803193,-6.67733464433501 11.052734375,-6.857421875 -0.17695910703321,-0.0489990043976 -0.0178095374853,-0.24547373649699 1,-1.234375 z m -2.5234375,4.345703125 c 0.0620017527821,-0.006977486997 0.0479053777298,0.18764127531044 0,0.798828125 -0.14474552244488,1.846693712947 -0.54334883249225,4.16940224234623 -1.015625,5.919921875 l -0.220703125,0.81640625 -2.416015625,0 c -1.90521360059307,0 -2.39906179003629,-0.0270871605871 -2.3359375,-0.130859375 0.12731188358852,-0.20929243043322 5.62358969663547,-7.05771824512402 5.8515625,-7.291015625 0.0638756847647,-0.0653675775069 0.10853613509903,-0.11010966500153 0.13671875,-0.11328125 z"
       id="path5808"
       sodipodi:nodetypes="cccssssssccssssssscccscssssscccccccsccsssssssccssccssss" />
    <path
       style="fill:#dbdbdb"
       d="m 47.013671875,25.060546875 c -0.0151138498133,-0.015113849813 -0.40697703643385,0.39791815027079 -0.869140625,0.91796875 -1.04904080049513,1.18043547984917 -2.76206367535565,2.72605952505294 -4.263671875,3.845703125 -0.33598482072622,0.25052024509096 -1.36611399509147,0.94075064347384 -1.73344676596579,1.1874288344897 0,0 0.001942139017,-0.001326775304 0,0 -0.19988494764371,0.13655171425331 0.20551536165344,-0.13065495857738 0,0 -0.20120242675962,0.12791304028297 -0.83613247294768,0.50824899398918 -1.04012298396356,0.63167484984739 -0.47371951095875,0.28662723469654 -1.37134584529365,0.78334251631598 -2.45056009876931,1.34434496859464 -0.5445213075635,0.28671617132901 -0.77253362438478,0.399466139687 -1.40868265130134,0.71741072206827 -1.47435621558584,0.73687697600952 -2.99830223143639,1.52396236341861 -3.38671875,1.75 -0.63187540340789,0.36771768442911 -1.15518267043467,0.80789076334663 -1.646484375,1.25390625 L 30.212890625,36.7109375 c -0.15908966793802,0.14656515355298 -0.33894541036257,0.28659903027769 -0.478515625,0.44140625 -0.33039454950748,0.35230751806077 -0.55395042357549,0.71517734945037 -0.767578125,1.078125 -7.1319765685e-4,0.001254980441 -0.00124105738,0.002650538469 -0.001953125,0.00390625 -0.15958423646042,0.28142238201897 -0.29099731409191,0.58104575113693 -0.404296875,0.890625 -0.17513404128741,0.49788839984459 -0.22755730323189,1.11066697115174 -0.28515625,1.716796875 -0.0124848267846,0.21170823272289 0.0216922190032,0.45352654637722 0.021484375,0.697265625 l 0,0.00390625 c -1.029175964e-5,0.20156505610072 0.011928258445,0.36316591031675 0.01953125,0.578125 0.0191862497977,0.54245210731644 -0.0139919012121,0.92985676012911 0.046875,1.458984375 l 0,0.001953125 c 0.0376376678295,0.32607402242571 -0.0210220077578,0.61851819269777 0.029296875,0.8984375 0.0701075679793,0.3842274662601 0.13766901559123,0.76844802295207 0.234375,1.18359375 0.0914561351128,0.3926088332228 0.10776153663669,0.69723537032434 0.22265625,1.119140625 l 0.322265625,1.18359375 0.86328125,0 c 0.40123048753557,0 0.7918734259078,-0.0841867199346 1.19140625,-0.109375 0.23312943673938,-0.0146974896429 0.46340745879753,-0.0393467845428 0.6953125,-0.0625 0.39805239936775,-0.0402882259742 0.69228611492845,-0.14247220178994 1.052734375,-0.19921875 l 0.001953125,0 C 33.65675733330946,47.48864148728874 34.34968850125634,47.39115875914775 34.962890625,47.21875 l 0.001953125,0 c 0.46065470407497,-0.12957853690392 0.89463970946106,-0.30263519586469 1.322265625,-0.48046875 0.62764271595905,-0.24442780437814 1.19980394703753,-0.54450847694725 1.734375,-0.8828125 0.29756433525352,-0.19301239645222 0.61385547673733,-0.36527659567695 0.88671875,-0.58984375 0.001041229766,-8.6114053516e-4 9.1226488414e-4,-0.003044511144 0.001953125,-0.00390625 0.66025696968469,-0.54663357440743 1.24707235985011,-1.21272765424947 1.791015625,-1.978515625 L 40.703125,43.28125 c 0.0986351418122,-0.13892220418861 0.22851118012262,-0.21254662390227 0.32421875,-0.359375 0.57048768602786,-0.87520538480416 1.07120023556731,-1.88391802386428 1.58203125,-3.236328125 0.099478323055,-0.26336593735017 0.21952485917951,-0.7402979374295 0.3203125,-1.03125 5.7632584159e-4,-0.001663727725 0.001376499999,-0.004192885752 0.001953125,-0.005859375 0.21380156395563,-0.61790246182925 0.44790701498841,-1.42445054004188 0.67578125,-2.1875 0.004058900108,-0.0135914511598 0.007678946015,-0.0256459549356 0.01171875,-0.0390625 0.30625480519994,-1.0366990098801 0.57806953588288,-1.90876851989582 0.896484375,-3.076171875 1.00256404478126,-3.67569750464528 1.67818204538657,-5.94009828389254 2.208984375,-7.39453125 0.17317974441746,-0.47452378275403 0.30417634981336,-0.87551115018701 0.2890625,-0.890625 z m -0.6015625,1.0703125 c -5.7282538438e-4,0.003613556958 -0.14301953046763,0.42650726653536 -0.31640625,0.939453125 -0.3414748752054,1.01021648877584 -1.07475187441378,3.41118775043337 -1.26171875,4.1328125 -0.11152643638743,0.43045184595292 -0.13265900990535,0.44726562500001 -0.529296875,0.447265625 -0.46976289517484,0 -0.38906157554899,-0.22386954394827 -0.689453125,1.947265625 -0.34208802571437,2.47250411957966 -1.50946321766293,6.46528772237449 -2.416015625,8.263671875 -0.42123489292791,0.83562974389938 -1.09494166729591,1.72141928338555 -1.80859375,2.447265625 -0.0360021311302,0.0366173038719 -0.0555232716121,0.0873482130733 -0.091796875,0.123046875 L 38.703125,45.01953125 l -0.134765625,0 -3.171875,0 -3.3046875,0 5.291015625,-6.619140625 c 2.9099883519794,-3.64121839343661 5.42143742734572,-6.8276407115361 5.58203125,-7.080078125 0.1605938226543,-0.2524374134639 0.39451124860383,-0.58782116235919 0.51953125,-0.74609375 0.12502000139618,-0.1582725876408 0.20096996854807,-0.31465503145197 0.169921875,-0.345703125 -0.031048093548,-0.0310480935481 -0.3294581710985,0.27409030916085 -0.6640625,0.67578125 -0.33460432890148,0.40169094083912 -0.69269177500657,0.75060997830856 -0.794921875,0.77734375 -0.1948692229963,0.0509594465583 -1.48208019411129,1.58443580930286 -7.470703125,8.892578125 L 31.09375,45.005859375 l -1.125,0.0078125 c -0.61898896745467,0.004005003845 -1.14899398095015,-0.0288419542911 -1.17578125,-0.072265625 -0.12776375723308,-0.20711224097914 -0.31435356335501,-2.3295834550506 -0.3125,-3.552734375 0.001339741322,-0.88408406769885 0.0771685489885,-1.50741153259078 0.24609375,-2.05859375 0.09567496756,-0.31217568754993 0.32415313352546,-0.60747745060197 0.498046875,-0.88671875 0.16341603435253,-0.26241603284932 0.25235608349072,-0.5295173311873 0.5,-0.80859375 0.61333595048993,-0.6911843545545 1.22453651094271,-1.08522207153257 3.6328125,-2.34375 2.69129733049981,-1.40643052110058 6.04971662467905,-3.30727049875996 6.3515625,-3.59375 0.12519057260508,-0.11881736916805 0.65274407649289,-0.49669207557465 1.173828125,-0.83984375 1.36313750585198,-0.89767268628781 2.86949304715035,-2.13416745956471 4.291015625,-3.5234375 0.68128715568724,-0.66582961753688 1.2388540753844,-1.20673855695753 1.23828125,-1.203125 z"
       id="path5810"
       inkscape:connector-curvature="0"
       sodipodi:nodetypes="ssscssscssccccsccccscccsccssccccccccsccssssscssssssssssccccccssssscccssssssssss" />
    <path
       style="fill:#cbcbcb"
       d="m 47.123046875,24.857421875 c -0.0161470125204,-0.015466823013 -0.45547845149287,0.45008718323577 -0.9765625,1.03515625 -0.48243696241892,0.54167642280291 -1.09388181424648,1.04785404632419 -1.650390625,1.572265625 0.55361109650268,-0.51977737493593 1.24291597568885,-1.03001413329112 1.6484375,-1.486328125 0.46216358856617,-0.52005059972921 0.85402677518672,-0.933082599813 0.869140625,-0.91796875 0.0151138498134,0.015113849813 -0.11588275558254,0.41610121724597 -0.2890625,0.890625 -0.53080232961343,1.45443296610746 -1.20642033021875,3.71883374535472 -2.208984375,7.39453125 -0.32246750784334,1.18226164211503 -0.59969830797445,2.07214659082166 -0.908203125,3.115234375 C 43.82336257067755,35.73784815551415 44.01154480201762,35.26853182246556 44.25,34.388671875 45.24301485819809,30.72461251139876 46.24131772774686,27.33873702472071 46.705078125,26.0625 l 0.27734375,-0.765625 c 0.0186608401896,-0.0646066226979 0.0956157798944,-0.28603315360908 0.099609375,-0.30859375 0.001688923312,-0.009541056657 0.0422242671272,-0.12970164666825 0.041015625,-0.130859375 z M 46.515625,25.97265625 c 2e-14,-0.0365524549987 -0.57980921175417,0.50367777832702 -1.2890625,1.201171875 -1.43066191319123,1.40694199846968 -2.74576190285745,2.50618230232099 -4.392578125,3.595703125 -1.64681622214255,1.08952082267901 -3.62685734955769,2.16909769493943 -6.390625,3.537109375 -2.59413056444293,1.28404459441158 -3.77546354993025,2.03724555709848 -4.603515625,2.931640625 -0.5745630449639,0.62059666183547 -0.9682279271978,1.2393563769829 -1.21875,1.958984375 -0.25052207280221,0.7196279980171 -0.35688131597999,1.53851546175319 -0.353515625,2.55859375 0.004464269851,1.35303709558601 0.066250256206,1.8258556566281 0.51953125,3.880859375 0.29138193992801,1.3210149514686 0.29324065278062,1.85489474220112 0.001953125,0.6953125 -0.0113608899294,-0.0452263999016 -0.0182164132863,-0.0859818871987 -0.029296875,-0.130859375 0.0296386709804,0.17029787662722 0.0161256912758,0.26611211646537 0.080078125,0.5078125 l 0.341796875,1.2890625 1.53515625,-0.0625 c 0.2230508877761,-0.009338927369 0.39061968275303,-0.061776551685 0.60546875,-0.076171875 0.2779654004909,-0.0186242456703 0.51744404094563,-0.0721686012812 0.783203125,-0.099609375 0.31956018173596,-0.034940451663 0.56419750920552,-0.12044825506656 0.86328125,-0.1640625 0.69217172459323,-0.10093677126084 1.37638391232112,-0.20744305801309 1.998046875,-0.37890625 0.45774309862536,-0.1288618903739 0.88935048882022,-0.30004304864267 1.314453125,-0.4765625 0.63223835684392,-0.24342850972851 1.20213061087738,-0.54827809648463 1.7421875,-0.884765625 0.29707111244916,-0.19276373384853 0.61231859080776,-0.36561916146988 0.884765625,-0.58984375 0.66221542694979,-0.5476798359168 1.24964579927146,-1.21638346128686 1.794921875,-1.984375 0.38343017680359,-0.54222824683313 0.66131653784408,-1.40173947795872 0.99609375,-2.072265625 0.0247547879905,-0.0508314402116 0.0552152460802,-0.0632203842221 0.080078125,-0.115234375 0.0171717217165,-0.0359238275617 0.0377277757673,-0.12808069835375 0.0546875,-0.1640625 0.63429475567365,-1.34572165034933 1.22933623610063,-3.29600694419585 2.037109375,-6.138671875 -0.0110512149103,0.0659256142174 -0.0879376805986,0.123046875 -0.1953125,0.123046875 -0.14092143846073,0 -0.23165583718259,0.0934319426675 -0.27734375,0.2890625 -0.55999024277185,2.39781588911716 -1.30569061945873,4.77055993262847 -1.96875,6.259765625 -0.46998793104527,1.05557469330602 -1.2346496125337,2.03932835783754 -2.111328125,2.908203125 -0.17348133326495,0.17193709085395 -0.3483458220884,0.30059319198088 -0.533203125,0.4609375 -0.77231437167092,0.66990165683654 -1.63024651837051,1.21747170250756 -2.533203125,1.62109375 -0.52227915250444,0.20324151705082 -0.97476512541809,0.36430694005218 -1.482421875,0.5078125 -0.46589248524364,0.13408366464657 -0.96680935005638,0.22376002616062 -1.44921875,0.337890625 -0.34587301310852,0.081828202587 -0.6633472580193,0.20144620680652 -1.0390625,0.2421875 -0.28660365992959,0.0310783338945 -0.32630421287289,-0.002619186484 -0.60546875,0.015625 -0.77802975279394,0.0508464292993 -1.6875,0.10810849300304 -1.6875,0.041015625 0,-0.0301323544941 1.00846238020378,-1.29776101587567 2.2421875,-2.81640625 4.46203203693364,-5.49250686288907 9.4157337502867,-11.77235060354472 11.314453125,-14.341796875 0.31675769251724,-0.42865306102231 -0.89090571115202,0.88821116383708 -2.125,2.31640625 -0.70041286244116,0.81057518656664 -1.48476375152404,1.68672360074644 -1.744140625,1.947265625 -0.4786571068648,0.48080728969641 -2.83537906869922,3.31227221051203 -7.6875,9.236328125 -2.36647427070624,2.88927792574668 -2.69442346877929,3.24966966405214 -2.771484375,3.046875 -0.18829776309155,-0.49552728459413 -0.5010555919862,-2.13743601274953 -0.650390625,-3.4140625 -0.10075070905824,-0.86129169557366 -0.10634275487985,-1.53563177851086 -0.099609375,-2.201171875 0.002758176228,-0.27262339355953 -0.002020860705,-0.57687144196197 0.021484375,-0.822265625 0.0498857906899,-0.52080664092207 0.17761232346691,-0.96365162299945 0.33203125,-1.384765625 0.1362022303432,-0.37143546836492 0.35347451738058,-0.72038675534909 0.58203125,-1.037109375 0.61658502481932,-0.85443304189801 1.49209010781525,-1.58960241217347 2.919921875,-2.333984375 1.23844898001776,-0.64564965130576 1.52929672667909,-0.83705773450113 1.34375,-0.880859375 -0.18134727639182,-0.0428102847629 0.14334813187403,-0.23644029490165 1.384765625,-0.826171875 4.42550055430312,-2.10232049174978 7.43990677318332,-4.12075922959012 10.14453125,-6.79296875 0.63858222088237,-0.63092880539734 1.14579177719769,-1.09561573895762 1.181640625,-1.0859375 0.002389923187,6.452159305e-4 0.00190628412,0.002844803212 0,0.0078125 -0.40456825765405,1.05428797960776 -2.29611474777315,7.57924284835412 -2.416015625,8.306640625 0.11868490773419,-0.42168446565351 0.15554871603252,-0.38511927629547 0.2890625,-0.87109375 0.90934576847791,-3.30991166694182 1.64484949136187,-5.81457996318679 2.05078125,-6.990234375 0.11807896549569,-0.3419788025286 0.21484375,-0.6509475450013 0.21484375,-0.6875 z M 28.759765625,46.201171875 c -0.005479375687,-0.0314833969922 -0.00588465297,-0.0548922006651 -0.015625,-0.09375 -0.2444431828005,-0.97517307307238 -0.2912437193521,-1.67652253286182 -0.375,-2.35546875 -0.0441651323169,-0.35801195186798 -0.15364510720073,-0.7935217596921 -0.23046875,-1.2265625 0.0747380349307,1.07652075403292 0.27917419641964,2.29095713424245 0.62109375,3.67578125 z m -0.62109375,-3.67578125 C 28.1237538750239,42.31051293122867 28.1058283437272,42.0923742302169 28.1015625,41.888671875 28.092946736725,41.47725238020487 28.1257652123388,41.10562720394204 28.173828125,40.75 28.1135869692513,41.0648172062175 28.0915924658819,41.33829300834197 28.09375,41.759765625 c 0.001167679241,0.22810523403038 0.001533276903,0.52105145524101 0.044921875,0.765625 z M 28.173828125,40.75 c 0.0294322292137,-0.15381132813043 0.0600680849556,-0.30631456739541 0.083984375,-0.466796875 0.005037583191,-0.0338030260448 0.009695993804,-0.0698679918826 0.013671875,-0.10546875 C 28.2315634842794,40.36137496231851 28.2003757880581,40.55356847594512 28.173828125,40.75 Z m 0.09765625,-0.572265625 c 0.0773623706812,-0.35587560627494 0.17100373365106,-0.69508163159184 0.283203125,-1.01953125 -0.0602214663992,0.15071603802564 -0.16502638363384,0.28440642664778 -0.208984375,0.44140625 -0.042790310433,0.16828889534673 -0.0524284794424,0.38301098296422 -0.07421875,0.578125 z"
       id="path5812"
       inkscape:connector-curvature="0"
       sodipodi:nodetypes="sscsssscsccsssssssssssccccscsccccccsscsssssccssssssssssssssssssssscssscsscccscsccscccccc" />
    <path
       id="path5814"
       d="m 47.14703633252893,24.84934434430015 c 0,-0.0215143713314 -0.37156796458083,0.37489910769091 -0.8257076778743,0.88101528876778 -2.13933759990639,2.38418562483042 -3.34561077363657,3.46775858203649 -6.13675002728376,5.25781552340098 -1.5537340661424,0.99646495476655 -3.64007403402872,2.05688887423994 -5.19863734735914,2.82079654807238 -1.62446148593886,0.79620672727259 -3.27672116751675,1.68745099762508 -3.80779536708966,2.04268072203219 -1.61861986134247,1.0826771244525 -2.78057868494629,3.0588946101442 -2.9105789111867,4.01408666495304 -0.015624517356,0.11480299127365 -0.25459496040819,2.70032414973756 -0.0140809330816,4.05220866072002 0.17769555425938,0.99879358449013 0.6861353404264,3.24405408844325 0.89452099682535,3.79214990069102 L 29.25821107826316,48 30.75480624441033,47.9313280965115 c 5.8613686208191,-0.26958175861816 9.08339619533941,-2.1799283638251 11.24862227502563,-6.66878200494346 0.85235700855341,-1.7670699135179 1.44850792244507,-3.70038020489325 3.93794301651555,-12.77235723536591 0.13545125478953,-0.49361024721079 0.46217796916484,-1.50605593351575 0.72598949466488,-2.24972445500513 0.26381152550003,-0.74366852148937 0.47967530191254,-1.36960568556535 0.47967530191254,-1.39112005689685 z M 46.3766362655481,26.2081844944673 c 0.002029123975,0.001134174299 0.00198872766,0.00427526586 0,0.009457807067 -0.25304697498809,0.65942984640732 -1.27164338578445,4.09288545427086 -2.02273708539028,6.81825647750689 -1.16720441599269,4.23524401177765 -2.11532195130219,7.17847376192717 -2.36835825234912,7.35241697230701 -0.0421124610731,0.028949113806 -0.21869351573385,0.38423369233354 -0.39249899329233,0.78952128561688 -0.43514757133736,1.01469708773166 -0.73304596787841,1.50957992641259 -1.47911878352284,2.45676818797809 -1.65482815533488,2.10091263315556 -4.04954461921309,3.37787735907037 -7.23481119747034,3.85796286544656 -0.5768440021343,0.0869423133232 -1.49444773044757,0.15838535862759 -2.03897984100587,0.15872667512923 -0.93405746643019,5.8547369381e-4 -0.98080644300928,-0.00980336016 -0.82899734989771,-0.18360481980622 1.65558874789863,-1.89543152561852 12.91829284949143,-16.10314477247409 13.33489115136795,-16.82173789167428 0.32347812115281,-0.55796951409822 -7.30890806885052,8.41269527336162 -11.40529290514023,13.40520789086819 -1.43922739159494,1.75407370136319 -2.65265554895375,3.15152637690504 -2.69650303668363,3.10545039009299 -0.11409874223202,-0.11989768204606 -0.49160150089983,-1.9360530482769 -0.67705562331675,-3.25718651217249 -0.20143795612101,-1.43499870082064 -0.20388908540387,-3.48749019343065 -0.005140112537,-4.23421910312333 0.26380361823868,-0.99114871075025 0.68912182209421,-1.71392708859838 1.47068899896286,-2.49932831978089 0.99708853065082,-1.00197984606857 1.62196280404204,-1.38886302952171 4.92854550456297,-3.0507595927039 1.54830256903611,-0.77818066302769 3.27735418453706,-1.68165977830857 3.84233692333538,-2.00772795678351 2.44929349551964,-1.41355941304192 4.56937723276024,-3.0176344748615 6.47428014655972,-4.89852724734941 0.59642725302601,-0.58890965067288 1.06831359619217,-1.01768972310168 1.09875045581724,-1.00067710861882 z"
       style="fill:#bec0c0"
       inkscape:connector-curvature="0"
       sodipodi:nodetypes="ssssssscccsssssssssssssssssssssss" />
    <path
       style="fill:#868482;fill-opacity:1"
       d="m 47.146484375,24.8359375 c 1.180975066e-5,-0.0139812463757 -0.37007903670655,0.38841506892314 -0.82421875,0.89453125 -0.60996914640606,0.6797803537483 -1.33050078185786,1.2700168020173 -2.0078125,1.8984375 -0.62788110174408,0.58255817762976 -1.22298153809579,1.18237405805152 -1.896484375,1.7109375 -0.19414064575385,0.15297500459228 -0.34796089908909,0.3433402876539 -0.537109375,0.484375 -0.31253319211111,0.23303401539837 -1.39425377522611,0.95799114454532 -1.73344676596579,1.1874288344897 C 39.49759693849748,31.45016450661896 39.3423146656354,31.50709145650488 38.671875,31.884765625 38.33939772942542,32.07205776051045 37.63128484930062,32.49125593658605 36.54450459334215,33.04506403070885 36.21298130326307,33.21539087259635 35.61038511392131,33.52398301177945 35.248046875,33.705078125 c -0.35541317551442,0.1776339959356 -0.4718133929485,0.24690473128937 -0.81640625,0.421875 -2.28696311469237,1.17038156723686 -3.48413470567633,1.88000608360121 -4.26171875,2.615234375 -0.0937288980189,0.0861464288529 -0.22901788435192,0.15427578050632 -0.31640625,0.2421875 -0.28684653927336,0.28856441371022 -0.42428622925979,0.5930968359581 -0.634765625,0.892578125 -0.20733403489006,0.29831046837371 -0.46603670974804,0.58490624708521 -0.603515625,0.916015625 -0.0870112124581,0.20956106887968 -0.16235355048051,0.43035543657335 -0.228515625,0.658203125 -0.0015742367,0.005476918162 -0.004297572451,0.0101369248153 -0.005859375,0.015625 -0.015220999128,0.0534856263659 -0.023076265785,0.11341019752 -0.037109375,0.16796875 -0.004752877252,0.0184784497162 -0.009056221348,0.0380372565446 -0.013671875,0.056640625 -0.0393794266094,0.15768247648074 -0.0799344780225,0.31677306004952 -0.109375,0.486328125 -0.001530398325,0.008815594525 -0.004357328158,0.0165483112943 -0.005859375,0.025390625 -0.008569321835,0.0504462509493 -0.00993633051,0.1068781142294 -0.017578125,0.158203125 -0.002651276444,0.0178069159332 -0.005273524153,0.0367735520407 -0.0078125,0.0546875 -0.0261176716874,0.18448927315185 -0.0518206694596,0.3731996039673 -0.06640625,0.57421875 -3.8300987709e-4,0.005438274779 -0.001579549182,0.0101774395729 -0.001953125,0.015625 C 28.119172050029,41.0338820044184 28.12081205136137,41.0654804401457 28.119140625,41.09375 28.1058625503381,41.30828525785092 28.09375,41.52373688425531 28.09375,41.759765625 c 0,0.0398065054416 0.007396841795,0.081687085719 0.0078125,0.123046875 7.271479264e-5,0.007235436393 0.001868010813,0.0142059306093 0.001953125,0.021484375 0.008422077207,0.72020450124706 0.17123927343751,1.91329490814894 0.25425621111211,2.3948058201606 0.0787580134931,0.45680850158436 0.1666879829162,0.81599395102956 0.36879066388789,1.6286316798394 0.0264763042762,0.10645897259171 0.036396137904,0.1454593733039 0.0625,0.248046875 0.11891778415946,0.46734381063219 0.19474442414835,0.78094785635532 0.28125,1.1328125 0.00122500591,0.0126120734217 -0.002410795575,0.0146667867103 0,0.029296875 0.009340622247,0.05668424546 0.0332122700303,0.1352819280655 0.0625,0.21875 0.001036159521,0.002952987078 8.8978780805e-4,0.004829604584 0.001953125,0.0078125 0.004572182273,0.0128259799864 0.004683561951,0.0198362862131 0.009765625,0.033203125 0.0166665932256,0.0587109705161 0.0630786208873,0.28005699009087 0.072265625,0.294921875 0.001117480401,0.001808121271 0.0390879138635,-0.001723937301 0.041015625,0 0.0659411610616,0.0589706751538 0.56715093311918,0.07475114091 1.40234375,0.03125 0.44283364903553,-0.0230650558494 0.68731007811149,-0.14555253038526 1.09375,-0.18359375 1.22508545348227,-0.11466330513551 2.34754274329143,-0.28298274082257 3.296875,-0.552734375 0.48786270607886,-0.14123882488379 0.95627363066798,-0.31539800899467 1.408203125,-0.51171875 1.00119942585989,-0.42929117208512 1.92290972831988,-0.93165629053185 2.720703125,-1.646484375 0.0674765209901,-0.0604594027058 0.16390592664357,-0.0759822269135 0.23046875,-0.138671875 0.13308088455717,-0.12533713864949 0.19739648986964,-0.33200404858951 0.3203125,-0.458984375 0.51404712271497,-0.5310445023678 0.92988505252696,-1.24989863290538 1.341796875,-1.91796875 0.28213540767216,-0.45758879584577 0.63549064668908,-0.72349929749073 0.91796875,-1.314453125 0.18647466171672,-0.39011135299823 0.44680999259934,-1.45102702813436 0.6171875,-1.875 0.40686011664178,-1.01244404509671 0.8948795614153,-2.47960981487703 1.470703125,-4.478515625 0.21449978945022,-0.74461154860178 0.27587839812314,-0.67997131401466 0.548828125,-1.66796875 0.35144012849669,-1.27210951932457 0.50852528581814,-1.84338854447548 0.751953125,-2.724609375 0.16650502301212,-0.60275642736008 0.47282997091694,-1.70834633155326 0.515625,-1.86328125 0.0708371881906,-0.2564586170513 0.29385055771971,-0.9105135684748 0.486328125,-1.486328125 0.0938067303839,-0.28063156459395 0.14075487605925,-0.45119663260997 0.236328125,-0.724609375 0.2916754516069,-0.83441534106579 0.52928506524935,-1.52898750362432 0.529296875,-1.54296875 z m -0.6328125,1.099609375 -0.01953125,0.056640625 -0.24609375,0.72265625 c -0.46925629888051,1.37385388878336 -1.17188657775548,3.75054386926389 -2.044921875,6.923828125 -0.83895955389059,3.0494266978243 -1.48853690058408,5.04294280323735 -2.1484375,6.626953125 -0.0407356091369,0.0977808254656 -0.0920255834766,0.30650194352689 -0.1328125,0.400390625 -0.42094192056234,0.96897939994372 -0.80473210542041,1.78419328637033 -1.29991176022339,2.42714376044732 -0.19343593812031,0.24198323994797 -0.0935845707035,0.1666113297943 -0.29092173523844,0.40060675599415 C 40.18685246203182,43.66339080236641 39.72994118459993,44.15051789860261 39.57421875,44.314453125 c -0.0185135394399,0.019489942392 -0.0457924030178,0.029510425694 -0.064453125,0.048828125 -0.38123816623822,0.3946601994504 -0.84228485720258,0.83797310190416 -1.28774548597762,1.16220389446505 -0.60732000372023,0.44204096484524 -1.239485764929,0.77701938651841 -1.97786556543648,1.09427414189524 -0.53648148125204,0.23050644259476 -1.12334447013451,0.42278234921684 -1.73515731690614,0.5906338963334 C 34.22693660745983,47.28777684111489 33.97074987168142,47.33199689831695 33.671875,47.396484375 33.23763829291074,47.4901785332469 32.19707237188495,47.59329432641121 31.359375,47.625 31.2793266753624,47.6280297171 31.35893811394259,47.6145039511443 31.287109375,47.6171875 29.99906831946882,47.66530920102787 29.84650084627074,47.66991628222434 29.9921875,47.46875 30.0772079129302,47.3513525586796 31.2610624726838,45.88818238942798 32.625,44.216796875 36.39710494476959,39.59441393052928 43.61254424523397,30.41076641673535 42.91015625,31.125 42.52107389778486,31.52064412332405 37.86502677552519,36.9719408940572 35.716796875,39.546875 33.38851031829712,42.33763052472135 31.90256512269298,44.17631111412942 30.75,45.697265625 29.87534696338269,46.85148021582635 29.31467865374929,47.41860274016418 29.212890625,47.25390625 29.1839376801524,47.2070594011622 28.98330596689789,46.31906772112256 28.765625,45.279296875 28.41290320236859,43.59449251568688 28.36824788856579,43.21583439308215 28.36328125,41.80859375 28.357579144581,40.19296692499001 28.42439762019949,39.58393065135346 28.89466763833882,38.61733788738097 28.92031908284182,38.56461392096677 28.983837379413,38.50423998656476 29.01171875,38.44921875 c 0.0319069829489,-0.062965400192 0.0639305558952,-0.17644303854057 0.10572184437382,-0.24479424387066 0.58946940942304,-0.96409912462704 0.35275448171353,-0.71930806903745 1.72867401814225,-1.85403149045252 C 31.08702709441742,36.15171204016407 31.09058014244783,36.21883504395324 31.330078125,36.056640625 c 0.25741033328694,-0.17432514042551 1.42438184271733,-0.77453188679556 2.35546875,-1.267578125 0.58827785673294,-0.31151569419834 0.83268183657357,-0.47056544555104 1.48828125,-0.80078125 5.01469618529768,-2.52582888419719 7.15018955987275,-3.95576160153238 9.83984375,-6.5859375 l 0.654296875,-0.640625 z"
       id="path5816"
       inkscape:connector-curvature="0"
       sodipodi:nodetypes="ssscscscsccscscssccssccscsssssscssscssssccssssssssssssscccsssccsssssssssssssssssssssssccc" />
    <path
       id="path5818"
       d="m 47.10406499172322,24.96633330563244 -1.84694523663965,1.85064611766599 c -2.99075123206421,2.99646628183709 -4.96953976265319,4.34343285590709 -10.27117847507184,6.99199228124286 -1.62253364879017,0.81057518656666 -3.30419563045402,1.7100806663737 -3.73706741858648,1.99888696322062 -1.62465815280846,1.08395030033973 -2.67581751322142,2.42308249858502 -3.00676022939087,4.01339986855237 -0.33436869500045,1.6067806229047 -0.18095478154118,3.09270929129999 0.16016590663946,4.98837641448862 0.15266130995661,0.84836550902595 0.63694537730142,2.55788737238902 0.79733425667244,3.02649826153131 0.0551414054972,0.16110757279381 0.71646428556351,0.16796408459423 2.36753583434326,0.0246725401755 1.57899133666308,-0.1370359191408 2.75890733825528,-0.36005034756124 3.99633469493098,-0.75539093837405 2.39110295911038,-0.76392367717531 4.0756627215392,-2.05372575641393 5.46414523087336,-4.18384600026499 1.14097537205569,-1.75041076960833 2.00436171808616,-4.03607674548367 3.22326176943111,-8.53361483321038 0.99301485819809,-3.66405936360127 1.99115735021178,-7.04930605300939 2.45491774746493,-8.32554307773014 z m -0.58864568768778,1.01280777420538 c 0,0.0267440698081 -0.21208001363668,0.68092369811296 -0.47124551735255,1.45362382534147 -0.46322902943775,1.3811140944703 -0.82037715152437,2.61208318751884 -2.21662213026962,7.63944085634899 -1.21931509012714,4.39029909678145 -2.16481633236031,6.66747557927242 -3.4965101518751,8.42156037991319 -1.59822693918935,2.10515776293693 -4.00280471243304,3.45888188659192 -7.0894488149362,3.99140018689587 -1.05743853911297,0.18243288011977 -3.27492580998383,0.32910880047436 -3.37582030951646,0.22328648858853 -0.0382649157792,-0.0401338216715 0.67443216010952,-0.98115345252053 1.58377147476736,-2.09120338437738 0.90933931465784,-1.11004993185684 2.32779514768247,-2.85905395554007 3.15191700742356,-3.88674749565135 1.40454910658393,-1.75149588200326 1.48008038038315,-1.8685175468255 1.2058704010789,-1.86730008228445 -0.25026751900216,0.001111162442 -0.51173079210883,0.2670653427603 -1.80931961287196,1.8405714970943 -1.8916037938166,2.29383157707958 -3.68225167844123,4.61794487693711 -4.13696817393149,5.36936155569906 -0.34752055682053,0.57427593939831 -0.50455344658953,0.70808066918228 -0.50455344658953,0.42971340805709 0,-0.0820224891169 -0.041028915004,-0.16492222410664 -0.091082794148,-0.1842216333106 -0.10297659458945,-0.0397049633595 -0.69836460021498,-2.70418168748887 -0.85469791258054,-3.82486054071105 -0.1745376224883,-1.25117685830719 -0.13102956836879,-2.87200926226955 0.10136301922112,-3.78065557289658 0.27269571031706,-1.06623001048834 0.64997060361594,-1.73916374140195 1.42298875462354,-2.53798196605585 0.88876053925039,-0.91842360387151 1.90556421778277,-1.54577542921939 5.13147714750667,-3.16610371802449 5.31784604525285,-2.67107531118987 7.21174341693039,-3.93917649717321 10.10669487390166,-6.76726656114414 0.73820240205175,-0.72115298286424 1.34218618554867,-1.28936131329065 1.34218618554864,-1.26261724348261 z"
       style="fill:#868482;fill-opacity:1"
       inkscape:connector-curvature="0"
       sodipodi:nodetypes="ccsssssssssccsssssssssssssssssss" />
    <path
       id="path5820"
       d="m 47.01277659307377,25.06029456280091 c -0.0151138498133,-0.015113849813 -0.40548740760654,0.39797349930186 -0.8676509961727,0.91802409903106 -1.04904080049513,1.18043547984917 -2.76324597419693,2.7261885999132 -4.26485417384128,3.84583219986026 -1.63508516851081,1.21916798584687 -3.5502636551799,2.33952888346577 -6.63239000818455,3.87996254710308 -1.47435621558584,0.73687697600952 -2.99850643403186,1.52468469337372 -3.38692295259546,1.7507223299551 -1.54116611603816,0.8968762392929 -2.73693661488231,2.0998401467266 -3.23251397199694,3.25184079513444 -0.75494955387808,1.75492758718118 -0.70406446447689,4.18731154524803 0.15975469763653,7.62607656375392 0.29128752778062,1.15958224220112 0.29097073092509,0.62401569150997 -4.1120900292e-4,-0.69699925995863 -0.45328099379402,-2.0550037183719 -0.51633193235397,-2.52589742900976 -0.52079620220508,-3.87893452459576 -0.00673138196,-2.04015657649363 0.42415955526495,-3.27799361847974 1.57328564519275,-4.51918694215068 0.82805207506976,-0.89439506790152 2.0097654323104,-1.6466419694381 4.60389599675333,-2.93068656384969 5.52753530088462,-2.73602336012116 7.9203706258213,-4.31915297230694 10.78169445220379,-7.1330369692463 0.70925328824581,-0.69749409667298 1.2895514331742,-1.2383107660483 1.2895514331742,-1.20175831104963 0,0.0365524549987 -0.0965721340314,0.3463850683686 -0.21465109952709,0.68836387089719 -0.40593175863811,1.17565441181321 -1.14053111110544,3.68064138279084 -2.04987687958336,6.99055304973265 -1.14088683892948,4.15269393638228 -1.69262729133365,5.81435159993157 -2.47136610758195,7.44349976645502 -0.78523751998012,1.64274367640239 -1.51100950727728,2.6877086486693 -2.5283185544871,3.64022769839754 -2.07381778681691,1.94174125652978 -5.22942214341831,3.01847380621575 -8.855591482501,3.02156375349618 l -1.01363019221123,8.2241800586e-4 -0.13837182948441,-0.33390171037545 c -0.16686131123052,-0.40283884060808 -0.25696538549932,-0.24261312440376 -0.0982789516992,0.1747638262433 l 0.11184884879572,0.29360322808877 1.70754538464791,-0.0579804694125 c 2.57653437367209,-0.0875731634265 4.47689867355166,-0.52178798363779 6.22755474480448,-1.42319435912498 2.71248734393214,-1.39664976199408 4.44028078708272,-3.75469437686382 5.83957905054428,-7.96964168569814 0.28831993647357,-0.86847341417852 0.95579246664262,-3.16113372100727 1.48323087355208,-5.09487954624631 1.00256404478126,-3.67569750464528 1.6796516656123,-5.94095534700528 2.21045399522575,-7.39538831311277 0.17317974441746,-0.47452378275403 0.30234333835675,-0.87515364152062 0.28722948854341,-0.89026749133359 z"
       style="fill:#868482;fill-opacity:1"
       inkscape:connector-curvature="0" />
  </g>
</svg>
