<svg xmlns="http://www.w3.org/2000/svg" viewBox="0 0 36 35.999999" width="48" height="48"><path d="m11.623 12h18.755c.622 0 1.123.34 1.123.763v4.474c0 .423-.501.763-1.123.763h-18.755c-.622 0-1.123-.34-1.123-.763v-4.474c0-.423.501-.763 1.123-.763m0-7.5h18.755c.622 0 1.123.34 1.123.763v4.474c0 .423-.501.763-1.123.763h-18.755c-.622 0-1.123-.34-1.123-.763v-4.474c0-.423.501-.763 1.123-.763m0 15h18.755c.622 0 1.123.34 1.123.763v4.474c0 .423-.501.763-1.123.763h-18.755c-.622 0-1.123-.34-1.123-.763v-4.474c0-.423.501-.763 1.123-.763m-7.123-12v21c0 1.657 1.342 3 3 3h21v-3h-21v-21h-3z" fill="#9E9E9E"/></svg>