<svg xmlns="http://www.w3.org/2000/svg" viewBox="0 0 48 48" fill="#9E9E9E"><circle transform="matrix(0 1-1 0 0 0)" cy="-24" cx="24" r="18" fill="#4b8cb5"/><path d="m24.23 36.13c1.532-.75 4.107-3.505 5.11-5.466l.25-.488-.339.105c-.187.057-.532.343-.767.634-.235.291-.792.877-1.237 1.301-2.405 2.292-5.05 1.95-6.096-.788-.18-.471-.333-.643-.624-.7-1.014-.197-2.66-.391-2.765-.326-.202.125.08 2.473.399 3.326.413 1.105 1.153 1.92 2.24 2.468.81.408 1.024.454 1.934.411.765-.036 1.243-.156 1.896-.476m10.299-1.962c.681-.492.96-1.017.948-1.788-.013-.847-.343-1.381-1.118-1.805-.477-.261-.528-.354-.614-1.111-.651-5.756-6.548-14.02-11.244-15.753-2.034-.752-4.092-.412-5.303.877-.63.67-.892 1.24-1.066 2.32-.26 1.611.322 4.253 1.488 6.763.523 1.125.626 1.265.742 1 .096-.215.024-.694-.25-1.663-.508-1.797-.521-3.253-.037-4.284.395-.842.693-1.142 1.445-1.456 2.134-.892 5.796.871 8.715 4.194 1.884 2.145 3.722 5.432 4.457 7.971l.223.77-.573.362c-.7.442-1.02 1.024-1.02 1.854.001 1.65 1.903 2.685 3.206 1.745m-6.276-4.09c1.536-.321 3.749-.991 3.859-1.168.067-.108-.81-2.432-.983-2.604-.045-.045-.431.115-.858.355-3.543 1.992-9.415 2.715-13.853 1.705l-1.027-.234v-.578c0-2.249-2.68-3.15-3.907-1.314-1.201 1.798 1.012 4.059 2.867 2.928.494-.301.495-.301 1.169-.014.918.391 2.653.897 3.89 1.135 1.561.3 7.02.169 8.843-.211m-7.6-2.301c0-2.162 1.287-6.524 2.574-8.727.273-.467.496-.872.496-.901 0-.085-1.316-.564-1.375-.5-.029.032-.362.538-.739 1.125-.879 1.366-2.292 4.301-2.786 5.789-.435 1.308-.968 3.621-.859 3.729.095.095 1.291.259 2.069.284l.621.02v-.817m13.743-.008c1.497-.998 2.345-2.364 2.449-3.945.139-2.122-1.025-3.589-3.693-4.652-1.05-.419-3.325-.949-4.083-.953l-.427-.002.329.35c.181.192.702.486 1.158.652 2.745 1 3.934 3.095 2.808 4.947l-.279.459.419.998c.23.549.497 1.311.593 1.693.096.382.217.694.27.694.053 0 .259-.108.458-.241m-5.744-12.47c.872-.396 1.241-1.036 1.168-2.025-.049-.659-.138-.858-.582-1.303-.445-.445-.643-.534-1.303-.582-.601-.044-.886.01-1.254.242-.665.417-1.057 1.122-1.058 1.898 0 .408-.094.75-.255.927-.243.269-.239.293.088.559.232.188.416.236.57.15.148-.083.438-.032.826.144.752.342 1.031.34 1.801-.009" fill="#fff"/></svg>