<svg xmlns="http://www.w3.org/2000/svg" width="129.37" height="160.77" viewBox="0 0 129.3675820660306 160.7711791954897"><g transform="matrix(.17893 0 0 .17893.089.154)" fill="#d8d8d8" fill-rule="evenodd" stroke="#848484"><path d="m0 0v485l361 205.79v-139.88l-241.5-137.67v-216.24l241.5 137.67v-128.88l-361-205.79" fill="#002a41"/><g fill="#0071b5"><path d="m722 0v485l-361 205.79v-139.88l241.5-137.67v-216.24l-241.5 137.67v-128.88l361-205.79"/><path d="m0 896.79v-485l361-205.79v139.88l-241.5 137.67v205.24l241.5-137.67v139.88l-361 205.79"/></g><path d="m722 896.79v-485l-361-205.79v139.88l241.5 137.67v205.24l-241.5-137.67v139.88l361 205.79" fill="#002a41"/></g></svg>