<?xml version="1.0" encoding="UTF-8" standalone="no"?>
<svg
   xmlns:dc="http://purl.org/dc/elements/1.1/"
   xmlns:cc="http://creativecommons.org/ns#"
   xmlns:rdf="http://www.w3.org/1999/02/22-rdf-syntax-ns#"
   xmlns:svg="http://www.w3.org/2000/svg"
   xmlns="http://www.w3.org/2000/svg"
   xmlns:sodipodi="http://sodipodi.sourceforge.net/DTD/sodipodi-0.dtd"
   xmlns:inkscape="http://www.inkscape.org/namespaces/inkscape"
   width="48"
   height="48"
   viewBox="0 0 48 48"
   id="svg2"
   version="1.1"
   inkscape:version="0.91 r13725"
   sodipodi:docname="ejector.svg"
   fill="#00C853">
  <metadata
     id="metadata10">
    <rdf:RDF>
      <cc:Work
         rdf:about="">
        <dc:format>image/svg+xml</dc:format>
        <dc:type
           rdf:resource="http://purl.org/dc/dcmitype/StillImage" />
        <dc:title />
      </cc:Work>
    </rdf:RDF>
  </metadata>
  <defs
     id="defs8" />
  <sodipodi:namedview
     pagecolor="#ffffff"
     bordercolor="#666666"
     borderopacity="1"
     objecttolerance="10"
     gridtolerance="10"
     guidetolerance="10"
     inkscape:pageopacity="0"
     inkscape:pageshadow="2"
     inkscape:window-width="1366"
     inkscape:window-height="713"
     id="namedview6"
     showgrid="false"
     inkscape:snap-bbox="true"
     inkscape:bbox-nodes="true"
     inkscape:snap-bbox-edge-midpoints="false"
     inkscape:snap-bbox-midpoints="true"
     inkscape:snap-object-midpoints="true"
     inkscape:zoom="7.591500246245449"
     inkscape:cx="11.31054811577171"
     inkscape:cy="11.85680276551349"
     inkscape:window-x="0"
     inkscape:window-y="30"
     inkscape:window-maximized="1"
     inkscape:current-layer="svg2" />
  <g
     id="g4139"
     transform="matrix(2.249941107039195,0,0,2.249941107039195,-29.99812690690847,-29.99804331376437)">
    <path
       id="path4135"
       d="m 23.96875,16 a 0.7006109064407048,0.4985007402904017 0 0 1 0.640625,0.25390625 l 7.294921875,8.998046875 a 0.7006109064407048,0.4985007402904017 0 0 1 -0.609375,0.75 l -14.591796875,0 A 0.7006109064407048,0.4985007402904017 0 0 1 16,25.486328125 a 0.7006109064407048,0.4985007402904017 0 0 1 0.09375,-0.234375 l 7.296875,-8.998046875 a 0.7006109064407048,0.4985007402904017 0 0 1 0.515625,-0.25 A 0.7006109064407048,0.4985007402904017 0 0 1 23.96875,16 Z"
       style="fill:#00C853"
       inkscape:connector-curvature="0" />
    <path
       id="path4160"
       d="m 17,28.001953125 13.998046875,0 c 0.55392347218129,0 1,0.44419718603774 1,0.998046875 l 0,2 c 1e-14,0.55384968896228 -0.4460765278187,1 -1,1 L 17,32 c -0.55392347218124,0 -1,-0.44615031103772 -1,-1 l 0,-2 c 0,-0.55384968896228 0.44607652781873,-0.998046875 1,-0.998046875 z"
       style="fill:#00C853"
       inkscape:connector-curvature="0" />
  </g>
</svg>
