<svg xmlns="http://www.w3.org/2000/svg" xmlns:xlink="http://www.w3.org/1999/xlink" height="159" viewBox="0 0 300 160"><defs><radialGradient cx="77.914" cy="-48.545" r="146" id="1" gradientUnits="userSpaceOnUse" gradientTransform="matrix(1.50895 0 0 1.35822-39.03 76.958)"><stop stop-color="#dddce9"/><stop offset=".37" stop-color="#5664a3"/><stop offset="1"/></radialGradient></defs><ellipse cx="150" cy="80" rx="146" ry="76" fill="#6c7eb7" stroke="url(#1)" stroke-width="5.5"/><path d="m45 125l16-81h37c16 1 24 9 24 23 0 24-19 38-36 37h-18l-4 21h-19zm27-36l5-30h13c7 0 12 3 12 9-1 17-9 20-18 21h-12z" id="0" fill-rule="evenodd" stroke="#fff" stroke-linejoin="round" stroke-width="2"/><path d="m116 104l16-81h19l-4 21h18c16 1 22 9 20 19l-7 41h-20l7-37c1-5 1-8-6-8h-15l-9 45h-19z" stroke="#fff" stroke-linejoin="round" stroke-width="2"/><use transform="translate(134)" xlink:href="#0"/></svg>