<svg xmlns="http://www.w3.org/2000/svg" fill="#3F51B5" viewBox="0 0 48 48"><path d="m3.637 14c-2.01 0-3.637 1.561-3.637 3.5v21c0 1.939 1.622 3.5 3.637 3.5h32.727c2.01 0 3.637-1.561 3.637-3.5v-21c0-1.939-1.622-3.5-3.637-3.5h-32.727m.363 4h32v20h-32v-20m10-8h4v-4h-4v4m30 24c2.21 0 4-1.79 4-4h-4v4m0-18h4v-4h-4v4m0 12h4v-4h-4v4m-20-22h-4v4h4v-4m20 0v4h4c0-2.21-1.79-4-4-4m-32 0c-2.21 0-4 1.79-4 4h4v-4zm20 4h4v-4h-4v4m6 0h4v-4h-4v4m-12 0h4v-4h-4v4m-14 2h-4v4h4v-4zm32 10h4v-4h-4v4m-6 12h4v-4h-4v4z"/></svg>