<svg fill="#CDDC39" height="48" viewBox="0 0 48 48" width="48" xmlns="http://www.w3.org/2000/svg"><path d="m12 6c-.93 0-1.760547.429844-2.310547 1.089844l-2.769531 3.359375c-.58.7-.919922 1.580781-.919922 2.550781v25c0 2.21 1.79 4 4 4h28c2.21 0 4-1.79 4-4v-25c0-.97-.340156-1.850781-.910156-2.550781l-2.769531-3.359375c-.56-.66-1.390313-1.089844-2.320313-1.089844zm-.119141 2h24l1.869141 2h-27.5z" fill="#CDDC39"/><g style="fill:#fff;font-family:Roboto;font-size:12.5;font-weight:500;letter-spacing:0;text-anchor:middle;word-spacing:0"><text x="23.87793" y="35.871826"><tspan x="23.87793" y="35.871826">xz</tspan></text><text x="24.469971" y="23.871826"><tspan x="24.469971" y="23.871826">tar.</tspan></text></g></svg>