<svg fill="#CDDC39" height="48" viewBox="0 0 48 48" width="48" xmlns="http://www.w3.org/2000/svg"><path d="m41.09 10.45-2.77-3.36c-.56-.66-1.39-1.09-2.32-1.09h-24c-.93 0-1.76.43-2.31 1.09l-2.77 3.36c-.58.7-.92 1.58-.92 2.55v25c0 2.21 1.79 4 4 4h28c2.21 0 4-1.79 4-4v-25c0-.97-.34-1.85-.91-2.55z" fill="#CDDC39"/><g fill="#fff"><path d="m10.25 10 1.63-2h24l1.87 2z"/><text x="23.966894" y="33.6875"><tspan x="23.966894" y="33.6875"/></text><path d="m12 36c0 1.1.9 2 2 2h2v7c0 1.66 1.34 3 3 3s3-1.34 3-3v-7h4v7c0 1.66 1.34 3 3 3s3-1.34 3-3v-7h2c1.1 0 2-.9 2-2v-20h-24zm-5-20c-1.66 0-3 1.34-3 3v14c0 1.66 1.34 3 3 3s3-1.34 3-3v-14c0-1.66-1.34-3-3-3zm34 0c-1.66 0-3 1.34-3 3v14c0 1.66 1.34 3 3 3s3-1.34 3-3v-14c0-1.66-1.34-3-3-3zm-9.94-11.68 2.61-2.61c.39-.39.39-1.02 0-1.41-.39-.39-1.02-.39-1.41 0l-2.96 2.95c-1.6-.79-3.39-1.25-5.3-1.25-1.92 0-3.72.46-5.33 1.26l-2.97-2.97c-.39-.39-1.02-.39-1.41 0s-.39 1.02 0 1.41l2.62 2.62c-2.97 2.19-4.91 5.71-4.91 9.68h24c0-3.98-1.95-7.5-4.94-9.68zm-11.06 5.68h-2v-2h2zm10 0h-2v-2h2z" transform="matrix(.41664497 0 0 .41664497 14.000521 19.001041)"/></g></svg>