<svg fill="#CDDC39" height="48" viewBox="0 0 48 48" width="48" xmlns="http://www.w3.org/2000/svg"><path d="m12 4c-2.21 0-3.980469 1.79-3.980469 4l-.019531 32c0 2.21 1.770468 4 3.980469 4h24.019531c2.21 0 4-1.79 4-4v-24l-12-12zm14 3 11 11h-11zm-1.810547 16.371094c1.71875 0 3.115235.576172 4.189453 1.728515 1.080729 1.145834 1.621094 2.587891 1.621094 4.326172v2.529297c0 1.738281-.540365 3.180339-1.621094 4.326172-1.074218 1.145833-2.470703 1.71875-4.189453 1.71875-1.660156 0-3.011068-.572917-4.052734-1.71875-1.035156-1.145833-1.552735-2.587891-1.552735-4.326172v-2.529297c0-1.731771.517579-3.173828 1.552735-4.326172 1.041666-1.152343 2.392578-1.728515 4.052734-1.728515zm0 1.582031c-1.119792 0-2.014974.416667-2.685547 1.25-.664062.833333-.996093 1.901042-.996093 3.203125v2.548828c0 1.315104.332031 2.389323.996093 3.222656.670573.833334 1.565755 1.25 2.685547 1.25 1.191406 0 2.135417-.413411 2.832031-1.240234.703125-.833333 1.054688-1.910807 1.054688-3.232422v-2.548828c0-1.302083-.351563-2.369792-1.054688-3.203125s-1.647135-1.25-2.832031-1.25z" fill="#0072c6"/></svg>