<svg fill="#CDDC39" height="48" viewBox="0 0 48 48" width="48" xmlns="http://www.w3.org/2000/svg"><path d="m8.005859 28.982422-.005859 11.017578c0 2.21 1.770469 4 3.980469 4h11.123047c0-4.022924-1.344492-7.181056-3.746094-10.375-2.427298-3.228124-5.993058-4.136274-11.351563-4.642578zm18.708985-7.566406c-4.525202 3.233328-9.782058 5.586128-15.076172 6.294922 3.958852.916252 6.895847 2.150954 9.220703 4.816406 2.352514 2.697153 4.091797 7.461744 4.091797 11.472656h2.283203c-1.612192-7.310127-1.824592-15.005389-.519531-22.583984zm9.34375-9.357422c-1.418626 2.098525-3.170618 4.130158-5.185547 6.005859-.01073 9.15883 2.407083 18.827033 7.947265 24.769531.727811-.724287 1.179688-1.725472 1.179688-2.833984v-24zm-4.070313-4.070313c-.52809 2.337746-.918518 4.825147-1.05664 7.419922 1.456027-1.50738 2.731508-3.087674 3.792968-4.683594zm-19.988281-3.988281c-2.21 0-3.980469 1.79-3.980469 4l-.011718 18.09375c6.057157.147501 12.514783-2.399963 17.898437-6.296875.472086-.341717.933275-.678218 1.386719-1.039063.863662-3.92031 2.162763-7.809539 3.871093-11.593749l-3.164062-3.164063z" fill="#d81000"/></svg>