<svg fill="#CDDC39" height="48" viewBox="0 0 48 48" width="48" xmlns="http://www.w3.org/2000/svg"><path d="m12 6c-.93 0-1.760547.429844-2.310547 1.089844l-2.769531 3.359375c-.58.7-.919922 1.580781-.919922 2.550781v25c0 2.21 1.79 4 4 4h28c2.21 0 4-1.79 4-4v-25c0-.97-.340156-1.850781-.910156-2.550781l-2.769532-3.359375c-.56-.66-1.390312-1.089844-2.320312-1.089844zm12 10.5c2.76 0 5 2.239999 5 5v2h1c1.105 0 2 .895 2 2v10c0 1.105-.895 2-2 2h-12c-1.105 0-2-.895-2-2v-10c0-1.105.895-2 2-2h1v-2c0-2.760001 2.24-5 5-5z" fill="#CDDC39"/><path d="m10.25 10 1.63-2h24l1.87 2z" fill="#fff"/><g fill="#CDDC39"><path d="m24 32.5c-1.105 0-2-.894999-2-2 0-1.104999.895-2 2-2s2 .895001 2 2c0 1.105001-.895 2-2 2z"/><path d="m27.1 23.500001h-6.2v-2c0-1.71 1.39-3.1 3.1-3.1s3.1 1.39 3.1 3.1z"/></g></svg>