<svg fill="#CDDC39" height="48" viewBox="0 0 48 48" width="48" xmlns="http://www.w3.org/2000/svg"><path d="m12 6c-.93 0-1.760547.429844-2.310547 1.089844l-2.769531 3.359375c-.58.7-.919922 1.580781-.919922 2.550781v25c0 2.21 1.79 4 4 4h28c2.21 0 4-1.79 4-4v-25c0-.97-.340156-1.850781-.910156-2.550781l-2.769532-3.359375c-.56-.66-1.390312-1.089844-2.320312-1.089844zm-.119141 2h24l1.869141 2h-27.5zm13.402344 8c-.261487.059436-.620711.019105-.867187.109375l-.148438-.021484c.334922-.04321.67482-.059291 1.015625-.087891zm-1.488281.15625c-.174866.097779-.34976.174041-.513672.289062.664977-.158638.632918.066223 1.3125-.023437-.238361.034689-.526719.127952-.480469.164063.759712.088039.875214-.234101 1.578125 0l-.044922-.207032c.976367.352571 1.181228.290781 2.242188.853516.372857.018054.409718-.229029.972656 0 .098996.173851-.022974.205786.667969.617187.077087-.030632-.136644-.225265-.306641-.380859 1.389391.742874 2.898882 2.325241 3.359375 4.019531-.431078-.794807-.043318.40603-.191406.34375.192109.518308.349896 1.054425.447266 1.607422-.127599-.453596-.406856-1.549297-.894532-2.255859-.039761.45603-.628376-.314097-.30664.689453.245258.355414.0493-.360223.351562.271484.004665.300233.12096.598918.1875.990235-.103459-.01704-.23057-.43399-.30664-.31836.104879.49214.276066.74938.341797.78711-.033679.082361-.121054-.076907-.126954.257812.040166.770667.216059.445702.298828.482422-.083984.379146-.423421.826117-.255859 1.478516-.048077-.197586-.14148-.396745-.212891-.583985-.066127.557054.122462.664725-.134765 1.339844.185449-.608581.16685-1.157108-.007813-.892578.07729.864996-.685875 1.529261-.603515 2.076172l-.220703-.304688c-.599858.869663-.013315.477829-.421875 1.136719.149711-.25885-.079714-.107258.115234-.400391-.129424.007506-.576347.551792-.986328.871094-1.611725 1.292018-3.535774 1.461435-5.398438.765625-.072421.059438.332858.375935.63086.529297.709605.262296 1.511074.27333 2.142578.25-1.364844.570849-3.971597-.580898-4.824219-2.107422.192921.041992.855037 1.074625 1.34961 1.242188-.292322-.234304-.518961-.53312-.728516-.839844.394969.454001.875794.824648 1.40039 1.070312-.033671-.1276.144989-.152749-.103515-.320312-1.578862-1.210062-2.513421-2.238169-2.189453-4.619141.240795-.181763.304831-1.175531.857422-1.523437.336748-.744091 1.347173-1.430226 2.425781-1.447266 1.101126-.060655 2.029312.587798 2.496094 1.199219-.849782-.791967-2.241408-1.032594-3.427735-.445313-1.212902.545491-1.931051 1.880782-1.826172 3.210938.045035-.066336.085712-.025339.107422-.189453-.037124 2.585252 2.784153 4.479518 4.816406 3.523437l.025391.054688c.824018-.224769.717063-.411233 1.255859-.78125-.041992.086824-.363171.3082-.171874.3125.262096-.069581 1.0819-.831608 1.484374-1.189453.184601-.398215-.099632-.214185.158204-.714844l.316406-.158203c.175068-.506339.369366-.791348.347656-1.38086l-.185547.386719c.270616-.819353.114204-1.711147.152344-2.482422l-.074219-.019531c-.066132-1.940359-1.743479-4.003535-3.236328-4.701172-1.28654-.594381-3.266538-.69576-4.18164-.248047.125976-.111573.627693-.15813.476562-.24414-1.432803.142408-1.112651.49874-2.210938.779296-.301247.290902.8795-.232585.244141.144532-.589106.162491-.865373-.102556-1.738281.800781.077698.125799.555606-.372286.158203.126953-.820367-.101836-2.592647 1.877153-2.96875 2.533203l.197266.033203c-.322954.809007-.748821 1.325914-.806641 1.810547-.083379 1.191804-.497871 3.364981.080078 4.033203l-.05664.556641c.079318.158231.139691.320256.238281.46875l-.128907.009766c.607972 1.917638.652361.03566 1.455079 2.027343-.116441-.039152-.234705-.081517-.404297-.310546-.020286.174662.248524.698455.566406 1.107421l-.134766.154297c.176894.321331.340161.391726.462891.503906-.660513-.360482.611542 1.189336.726563 1.386719l.101562-.18164c-.014606.259864.187159.594987.564453 1.060547l.314453-.011719c.129425.255807.601624.718524.888672.740234l-.191406.248047c.72056.228218.35064.303768 1.236328.617188l-.179688-.316407c.451569.391927.592879.734922 1.230469 1.035157.883863.308144 1.000809.185854 1.908203.445312-.769043-.022315-1.673278-.014955-2.28125-.232422-4.147885-1.12344-7.943528-5.988538-7.666015-11-.06386-1.014707.102577-2.282595-.066407-2.535156.237145-.772087.50991-1.713586 1.0625-2.833984-.039963-.075058.092086.218985.373047-.259766.170403-.374277.308608-.786662.523438-1.150391l.111328-.02539c.110558-.64185 1.497335-1.625506 1.910156-2.121094l.029297.189453c.900903-.844711 2.506211-1.411167 3.410156-1.814453-.237346.262708.531723-.026877 1.085938-.060547zm.548828.126953c.649761.018464.601473.062715.388672.109375l-.009766.015625-.128906.011719.138672-.027344c.031646-.046454-.194129-.074485-.388672-.109375zm-8.582031 4.427735c-.003652.217872.367309-.215829.101562.382812-.495791.346688-.044762.143002-.101562-.382812zm-.404297 1.667968c-.043615.20286-.063525.415082-.177734.765625.033268-.274471-.137917-.362136.177734-.765625zm12.992187 2.4375c.045086-.001141.076698.111225.054688.439453-.065727.264327-.11954-.161965-.1875-.197265.02911-.125267.087727-.241047.132812-.242188zm3.986329 1.107422c-.097374.748149-.330392 1.485036-.689454 2.160156.324982-.639822.536586-1.329909.634766-2.027343zm-4.222657.244141c-.055786.339182-.214579.667172-.43164.966797.026575-.257633-.605778.111656.126953-.810547-.063694.259864-.679455.944674.001953.515625.123542-.220306.254044-.430066.302734-.671875zm-1.486328 1.408203c-.106299.101025-.225969.205946-.357422.308594-.475913-.073233-.909462-.256619-.544922-.261719.303885.0278.605965.025745.902344-.046875zm-4.599609.048828c.083985.168171.158368.336386.285156.476562l.113281.330079c-.153159-.258241-.318107-.511074-.398437-.806641zm-.28125.498047c.300841.580789.465444.759795.685547 1.189453-.305913-.254387-.49675-.608206-.736329-.933594z" fill="#CDDC39"/></svg>