<svg fill="#CDDC39" height="48" viewBox="0 0 48 48" width="48" xmlns="http://www.w3.org/2000/svg"><g fill="#f36f24" transform="matrix(2.99999869 0 0 2.99999869 -1682.999844 -902.999594)"><ellipse cx="323.0625" cy="97.1875" rx="2" ry="3.236068" stroke-width="1.696027" transform="matrix(1.0000007 0 0 .61803426 241.93747 252.93479)"/><path d="m563.0002 303v1c0 .55016.45347 1 1 1 4.97056 0 9 4.02944 9 9 0 .55016.45347 1 1 1h1v-1c0-6.07513-4.92487-11-11-11zm0 4v1c0 .55016.45347 1 1 1 2.76143 0 5 2.23857 5 5 0 .55016.45347 1 1 1h1v-1c0-3.866-3.134-7-7-7z" stroke-width="1.333335"/></g></svg>