<svg fill="#CDDC39" height="48" viewBox="0 0 48 48" width="48" xmlns="http://www.w3.org/2000/svg"><path d="m12 6c-.93 0-1.760547.429844-2.310547 1.089844l-2.769531 3.359375c-.58.7-.919922 1.580781-.919922 2.550781v25c0 2.21 1.79 4 4 4h28c2.21 0 4-1.79 4-4v-25c0-.97-.340156-1.850781-.910156-2.550781l-2.769531-3.359375c-.56-.66-1.390313-1.089844-2.320313-1.089844zm-.119141 2h24l1.869141 2h-27.5zm14.832032 3.726563c0 .000001 2.818175 2.81903-2.671875 7.152343-4.402659 3.477412-1.004183 5.458945-.001953 7.72461-2.57016-2.318694-4.455882-4.360084-3.191407-6.259766 1.856851-2.788156 7.001637-4.140205 5.865235-8.617187zm3.396484 5.539062c-5.913862 3.429662-4.821306 4.423821-3.396484 6.425781 1.525 2.14773-1.794922 3.861328-1.794922 3.861328s1.650603-1.354744.341797-2.861328c-4.433491-5.108891 4.849669-7.425781 4.849609-7.425781zm1.783203 9.128906c2.561531.122831 3.731909 3.769276-2.21289 5.332032-.000062 0 .077983-.069831.101562-.132813 5.088014-2.643226 2.733893-5.183965 1.091797-4.841797-.401556.0838-.580078.15625-.580078.15625s.148713-.233144.433594-.333984c.406078-.142695.800082-.197235 1.166015-.179688zm-11.289062.25586c.216229-.005657.335937.001953.335937.001953s-4.929208 1.170152-1.746094 1.595703c1.344438.179902 4.024688.139168 6.521485-.070313 2.039933-.171204 4.085937-.537109 4.085937-.537109s-.71789.306983-1.238281.662109c-5.005592 1.316544-14.674342.70342-11.890625-.642578 1.764846-.853786 3.282952-.992795 3.931641-1.009765zm-.8125 3.078125s-1.161627.859527.613281 1.042968c2.295779.237011 4.108212.256238 7.246094-.347656 0 0 .433357.441272 1.115234.681641-6.417816 1.877247-13.566587.147088-8.974609-1.376953zm.65039 2.96875s-1.035307.603223.738282.80664c2.14899.245349 3.245817.209225 5.613281-.238281 0 0 .624622.390607 1.49414.728516-5.308948 2.274544-12.015249-.131859-7.845703-1.296875zm-2.697265 1.96875c.255968.009847.467063.057631.601562.152343 0 0-.340472-.023264-.935547.105469-.57072.123274-2.384786.705841-1.417968 1.126953 2.691395 1.170716 12.381694.890836 15.445312-.037109 1.611143-.488778.84375-1.121094.84375-1.121094 2.807112 1.266635-6.098402 3.811033-16.921875 2.056641-3.472832-.563575.592986-2.352136 2.384766-2.283203zm16.255859 1.607422c-.177503 2.310656-7.677749 2.796549-12.560547 2.484375-3.209088-.206537-3.833984-.722657-3.833984-.722657 3.048502.503355 8.191388.595243 12.359375-.189453 3.694506-.695015 4.035156-1.572265 4.035156-1.572265z" fill="#5382a1"/></svg>