<svg fill="#CDDC39" height="48" viewBox="0 0 48 48" width="48" xmlns="http://www.w3.org/2000/svg"><path d="m12 4c-2.21 0-3.980469 1.79-3.980469 4l-.019531 32c0 2.21 1.770468 4 3.980469 4h24.019531c2.21 0 4-1.79 4-4v-24l-12-12zm14 3 11 11h-11zm-7.857422 13.408203c.947206 0 2.732422.751252 2.732422 3.146485 0 1.475245-.555494 2.329146-1.410156 3.570312-.489934.713126-1.632612 2.635952-2.013672 3.828125-.38106 1.186729-.088006 2.095703.396484 2.095703.479046 0 .937215-.592882 1.214844-.914062.250411-.272185 1.856811-2.177459 2.488281-2.966797.816557-1.017974 2.923377-3.097657 5.373047-3.097656 3.200902 0 4.223407 2.769981 4.386719 4.566406h2.689453v2.722656h-2.673828c-.430053 5.1933-3.336264 6.640625-5.105469 6.640625-1.92163 0-3.490234-1.512836-3.490234-3.369141s1.736949-5.149739 5.863281-5.857421c-.119761-.854663-.141366-1.955079-1.916016-1.955079-1.360927 0-3.124029 2.123869-4.441406 3.746094-1.208504 1.491577-2.167077 2.666812-3.332031 3.009766-.985312.288517-2.058444.104252-2.875-.5-.947206-.696795-1.462891-1.850551-1.462891-3.244141 0-2.640199 2.841096-6.413822 3.113282-6.871094.315733-.52804.865098-1.436964.326171-1.660156-.342954-.141536-1.105068.555535-1.867187 1.333985l-1.916016-1.851563c.239523-.293961.566622-.613913.953125-1.005859.277629-.27763 1.529658-1.367188 2.966797-1.367188zm10.441406 13.13086c-2.340796.61514-3.130859 2.35652-3.130859 3.009765 0 .506265.463271.789063.800781.789063.762119 0 1.992568-.864669 2.330078-3.798828z" fill="#008272"/></svg>