<svg fill="#CDDC39" height="48" viewBox="0 0 48 48" width="48" xmlns="http://www.w3.org/2000/svg"><path d="m10 6c-2.21 0-4 1.79-4 4v28c0 2.21 1.79 4 4 4h28c2.21 0 4-1.79 4-4v-28c0-2.21-1.79-4-4-4zm6.296875 4.349609h1.484375v1.300782h-1.484375zm5.878906 2.796875c.793457 0 1.435384.231446 1.927735.695313.496419.459798.736979 1.045736.720703 1.757812l-.011719.03711h-1.349609c0-.362142-.119304-.669597-.359375-.921875-.236003-.252279-.545248-.378906-.927735-.378906-.557454 0-.953613.202473-1.185547.609374-.231933.402833-.347656.911133-.347656 1.521485v.212891c0 .622558.115723 1.13623.347656 1.539062.231934.398763.628093.597656 1.185547.597656.362142 0 .665853-.106771.914063-.318359.248209-.215658.373047-.483236.373047-.804688h1.341797l.013671.03711c.020345.618489-.23291 1.150065-.757812 1.597656-.520833.447591-1.148275.671875-1.884766.671875-.972493 0-1.719401-.312826-2.240234-.939453-.516764-.626628-.775391-1.420573-.775391-2.380859v-.212891c0-.956218.258627-1.748373.775391-2.375.520833-.630697 1.267741-.945313 2.240234-.945313zm6.585938 0c.948079 0 1.689453.314616 2.226562.945313.541179.626627.8125 1.431315.8125 2.416015v.128907c0 .992838-.271321 1.80306-.8125 2.429687-.537109.622559-1.274902.933594-2.214843.933594-.944011 0-1.687338-.312826-2.228516-.939453-.53711-.626628-.804688-1.435059-.804688-2.423828v-.128907c0-.980631.267578-1.785319.804688-2.416015.545247-.630697 1.284993-.945313 2.216797-.945313zm-12.464844.121094h1.484375v6.603516h-1.484375zm12.464844 1.06836c-.516765 0-.903809.206217-1.160157.617187-.252278.41097-.378906.92806-.378906 1.554687v.128907c0 .642903.126628 1.167317.378906 1.574219.24821.402832.638835.605468 1.171876.605468.516764 0 .903808-.202636 1.160156-.605468.260416-.406902.390625-.931316.390625-1.574219v-.128907c0-.630696-.130209-1.147786-.390625-1.554687-.256348-.41097-.646973-.617187-1.171875-.617187zm.238281 9.664062 9 12h-28l7-9 5 6.009766z" fill="#CDDC39"/></svg>