<svg xmlns="http://www.w3.org/2000/svg" fill="#CDDC39" viewBox="0 0 48 48"><path d="m10 6c-2.21 0-4 1.79-4 4v28c0 2.21 1.79 4 4 4h28c2.21 0 4-1.79 4-4v-28c0-2.21-1.79-4-4-4h-28m6.297 4.35h1.484v1.301h-1.484v-1.301m5.879 2.797c.793 0 1.435.231 1.928.695.496.46.737 1.046.721 1.758l-.012.037h-1.35c0-.362-.119-.67-.359-.922-.236-.252-.545-.379-.928-.379-.557 0-.954.202-1.186.609-.232.403-.348.911-.348 1.521v.213c0 .623.116 1.136.348 1.539.232.399.628.598 1.186.598.362 0 .666-.107.914-.318.248-.216.373-.483.373-.805h1.342l.014.037c.02.618-.233 1.15-.758 1.598-.521.448-1.148.672-1.885.672-.972 0-1.719-.313-2.24-.939-.517-.627-.775-1.421-.775-2.381v-.213c0-.956.259-1.748.775-2.375.521-.631 1.268-.945 2.24-.945m6.586 0c.948 0 1.689.315 2.227.945.541.627.813 1.431.813 2.416v.129c0 .993-.271 1.803-.813 2.43-.537.623-1.275.934-2.215.934-.944 0-1.687-.313-2.229-.939-.537-.627-.805-1.435-.805-2.424v-.129c0-.981.268-1.785.805-2.416.545-.631 1.285-.945 2.217-.945m-12.465.121h1.484v6.604h-1.484v-6.604m12.465 1.068c-.517 0-.904.206-1.16.617-.252.411-.379.928-.379 1.555v.129c0 .643.127 1.167.379 1.574.248.403.639.605 1.172.605.517 0 .904-.203 1.16-.605.26-.407.391-.931.391-1.574v-.129c0-.631-.13-1.148-.391-1.555-.256-.411-.647-.617-1.172-.617m.238 9.664l9 12h-28l7-9 5 6.01 7-9.01"/></svg>