<svg fill="#CDDC39" height="48" viewBox="0 0 48 48" width="48" xmlns="http://www.w3.org/2000/svg"><path d="m28 2c-2.21 0-4 1.79-4 4v36c0 2.21 1.79 4 4 4h16c2.21 0 4-1.79 4-4v-36c0-2.21-1.79-4-4-4zm0 4h16v36h-16v-4h8v-4h-8v-4h8v-4h-8v-4h8v-4h-8v-4h8v-4h-8zm-24-2c-2.21 0-3.980469 1.79-3.980469 4l-.019531 32c0 2.21 1.770469 4 3.980469 4h18.574219c-.343496-.590391-.554688-1.267397-.554688-2v-3.011719c-1.672254 1.257889-3.745155 2.011719-6 2.011719-5.525 0-10-4.475-10-10s4.475-10 10-10c2.254845 0 4.327746.75383 6 2.011719v-5.011719h-4v-11l4 4v-5l-2-2zm15 19.583984v.416016c0 1.105-.895 2-2 2h-2v2c0 .55-.45 1-1 1h-2v2h6c.55 0 1 .45 1 1v3h1c.89 0 1.639531.584531 1.894531 1.394531.036864-.040254.069417-.084011.105469-.125v-10.541016c-.816856-.928487-1.835476-1.673555-3-2.144531zm-10.789063 5.625c-.134999.575-.210937 1.176016-.210937 1.791016 0 4.08 3.055 7.439688 7 7.929688v-1.929688c-1.105 0-2-.895-2-2v-1z" fill="#0369a3"/></svg>