<svg fill="#CDDC39" height="48" viewBox="0 0 48 48" width="48" xmlns="http://www.w3.org/2000/svg"><path d="m10 6c-2.21 0-4 1.79-4 4v28c0 2.21 1.79 4 4 4h28c2.21 0 4-1.79 4-4v-28c0-2.21-1.79-4-4-4zm4.617188 4.292969c.502499 0 .825312.225156 1.132812.660156.3075.405.501953 1.065703.501953 1.845703 0 1.635-.779765 2.408203-1.634765 2.408203-.885001 0-1.619141-.990312-1.619141-2.445312s.75664-2.46875 1.619141-2.46875zm11.25 0c.5025 0 .825312.225156 1.132812.660156.3075.405.501953 1.065703.501953 1.845703 0 1.635-.779765 2.408203-1.634765 2.408203-.885001 0-1.619141-.990312-1.619141-2.445312s.75664-2.46875 1.619141-2.46875zm3.75 0c.5025 0 .825312.225156 1.132812.660156.3075.405.501953 1.065703.501953 1.845703 0 1.635-.779765 2.408203-1.634765 2.408203-.885 0-1.619141-.990312-1.619141-2.445312s.75664-2.46875 1.619141-2.46875zm3.75 0c.502499 0 .825312.225156 1.132812.660156.3075.405.501953 1.065703.501953 1.845703 0 1.635-.779765 2.408203-1.634765 2.408203-.885001 0-1.619141-.990312-1.619141-2.445312s.756641-2.46875 1.619141-2.46875zm-15.044922.097656h.5625v4.673828h-.824219v-3.720703l-.802735.240234-.203124-.509765zm3.75 0h.5625v4.673828h-.824219v-3.720703l-.802735.240234-.203124-.509765zm-7.447266.630859c-.435 0-.824219.660079-.824219 1.642578 0 .1725.02211.45711.03711.59961l1.365234-1.777344c-.12-.285-.330625-.464844-.578125-.464844zm11.25 0c-.435 0-.824219.660079-.824219 1.642578 0 .1725.02211.45711.03711.59961l1.365234-1.777344c-.12-.285-.330625-.464844-.578125-.464844zm3.75 0c-.435 0-.824219.660079-.824219 1.642578 0 .1725.02211.45711.03711.59961l1.365234-1.777344c-.12-.285-.330625-.464844-.578125-.464844zm3.75 0c-.435 0-.824219.660079-.824219 1.642578 0 .1725.02211.45711.03711.59961l1.365234-1.777344c-.12-.285-.330625-.464844-.578125-.464844zm-17.962891 1.191407-1.365234 1.779297c.12.285.330625.464843.578125.464843.435 0 .824219-.660078.824219-1.642578 0-.1725-.02211-.459062-.03711-.601562zm11.25 0-1.365234 1.779297c.12.285.330625.464843.578125.464843.435 0 .824219-.660078.824219-1.642578 0-.1725-.02211-.459062-.03711-.601562zm3.75 0-1.365234 1.779297c.12.285.330625.464843.578125.464843.435 0 .824219-.660078.824219-1.642578 0-.1725-.02211-.459062-.03711-.601562zm3.75 0-1.365234 1.779297c.12.285.330625.464843.578125.464843.435 0 .824219-.660078.824219-1.642578 0-.1725-.02211-.459062-.03711-.601562zm-15.794921 5.580078c.502499 0 .825312.225156 1.132812.660156.3075.405.501953 1.065703.501953 1.845703 0 1.635-.779765 2.408203-1.634765 2.408203-.885 0-1.619141-.990312-1.619141-2.445312s.75664-2.46875 1.619141-2.46875zm3.75 0c.502499 0 .825312.225156 1.132812.660156.3075.405.501953 1.065703.501953 1.845703 0 1.635-.779765 2.408203-1.634765 2.408203-.885 0-1.619141-.990312-1.619141-2.445312s.75664-2.46875 1.619141-2.46875zm11.25 0c.502499 0 .825312.225156 1.132812.660156.3075.405.501953 1.065703.501953 1.845703 0 1.635-.779765 2.408203-1.634765 2.408203-.885001 0-1.619141-.990312-1.619141-2.445312s.756641-2.46875 1.619141-2.46875zm-18.794922.097656h.5625v4.673828h-.824219v-3.720703l-.802735.240234-.203124-.509765zm11.25 0h.5625v4.673828h-.824219v-3.720703l-.802735.240234-.203124-.509765zm3.75 0h.5625v4.673828h-.824219v-3.720703l-.802735.240234-.203124-.509765zm-11.197266.630859c-.435 0-.824219.660078-.824219 1.642578 0 .1725.02211.45711.03711.59961l1.365234-1.777344c-.12-.285-.330625-.464844-.578125-.464844zm3.75 0c-.435 0-.824219.660078-.824219 1.642578 0 .1725.02211.45711.03711.59961l1.365234-1.777344c-.12-.285-.330625-.464844-.578125-.464844zm11.25 0c-.435 0-.824219.660078-.824219 1.642578 0 .1725.02211.45711.03711.59961l1.365234-1.777344c-.12-.285-.330625-.464844-.578125-.464844zm-14.212891 1.191407-1.365234 1.779297c.12.285.330625.464843.578125.464843.435 0 .824219-.660078.824219-1.642578 0-.1725-.02211-.459062-.03711-.601562zm3.75 0-1.365234 1.779297c.12.285.330625.464843.578125.464843.435 0 .824219-.660078.824219-1.642578 0-.1725-.02211-.459062-.03711-.601562zm11.25 0-1.365234 1.779297c.12.285.330625.464843.578125.464843.435 0 .824219-.660078.824219-1.642578 0-.1725-.02211-.459062-.03711-.601562zm-15.794921 5.580078c.502499 0 .825312.225156 1.132812.660156.3075.405.501953 1.065703.501953 1.845703 0 1.635-.779765 2.408203-1.634765 2.408203-.885 0-1.619141-.990312-1.619141-2.445312s.75664-2.46875 1.619141-2.46875zm3.75 0c.502499 0 .825312.225156 1.132812.660156.3075.405.501953 1.065703.501953 1.845703 0 1.635-.779765 2.408203-1.634765 2.408203-.885 0-1.619141-.990312-1.619141-2.445312s.75664-2.46875 1.619141-2.46875zm7.5 0c.5025 0 .825312.225156 1.132812.660156.3075.405.501953 1.065703.501953 1.845703 0 1.635-.779765 2.408203-1.634765 2.408203-.885 0-1.619141-.990312-1.619141-2.445312s.75664-2.46875 1.619141-2.46875zm-15.044922.097656h.5625v4.673828h-.824219v-3.720703l-.802735.240234-.203124-.509765zm11.25 0h.5625v4.673828h-.824219v-3.720703l-.802735.240234-.203124-.509765zm7.5 0h.5625v4.673828h-.824219v-3.720703l-.802735.240234-.203124-.509765zm-14.947266.630859c-.435 0-.824219.660078-.824219 1.642578 0 .1725.02211.45711.03711.59961l1.365234-1.777344c-.12-.285-.330625-.464844-.578125-.464844zm3.75 0c-.435 0-.824219.660078-.824219 1.642578 0 .1725.02211.45711.03711.59961l1.365234-1.777344c-.12-.285-.330625-.464844-.578125-.464844zm7.5 0c-.435 0-.824219.660078-.824219 1.642578 0 .1725.02211.45711.03711.59961l1.365234-1.777344c-.12-.285-.330625-.464844-.578125-.464844zm-10.462891 1.191407-1.365234 1.779297c.12.285.330625.464843.578125.464843.435 0 .824219-.660078.824219-1.642578 0-.1725-.02211-.459062-.03711-.601562zm3.75 0-1.365234 1.779297c.12.285.330625.464843.578125.464843.435 0 .824219-.660078.824219-1.642578 0-.1725-.02211-.459062-.03711-.601562zm7.5 0-1.365234 1.779297c.12.285.330625.464843.578125.464843.435 0 .824219-.660078.824219-1.642578 0-.1725-.02211-.459062-.03711-.601562zm-12.044921 5.580078c.502499 0 .825312.225156 1.132812.660156.3075.405.501953 1.065703.501953 1.845703 0 1.635-.779765 2.408203-1.634765 2.408203-.885 0-1.619141-.990312-1.619141-2.445312s.75664-2.46875 1.619141-2.46875zm15 0c.502499 0 .825312.225156 1.132812.660156.3075.405.501953 1.065703.501953 1.845703 0 1.635-.779765 2.408203-1.634765 2.408203-.885001 0-1.619141-.990312-1.619141-2.445312s.756641-2.46875 1.619141-2.46875zm-18.794922.097656h.5625v4.673828h-.824219v-3.720703l-.802735.240234-.203124-.509765zm7.5 0h.5625v4.673828h-.824219v-3.720703l-.802735.240234-.203124-.509765zm3.75 0h.5625v4.673828h-.824219v-3.720703l-.802735.240234-.203124-.509765zm3.75 0h.5625v4.673828h-.824219v-3.720703l-.802735.240234-.203124-.509765zm-11.197266.630859c-.435 0-.824219.660078-.824219 1.642578 0 .1725.02211.45711.03711.59961l1.365234-1.777344c-.12-.285-.330625-.464844-.578125-.464844zm15 0c-.435 0-.824219.660078-.824219 1.642578 0 .1725.02211.45711.03711.59961l1.365234-1.777344c-.12-.285-.330625-.464844-.578125-.464844zm-14.212891 1.191407-1.365234 1.779297c.12.285.330625.464843.578125.464843.435 0 .824219-.660078.824219-1.642578 0-.1725-.02211-.459062-.03711-.601562zm15 0-1.365234 1.779297c.12.285.330625.464843.578125.464843.435 0 .824219-.660078.824219-1.642578 0-.1725-.02211-.459062-.03711-.601562z" fill="#CDDC39"/></svg>