<svg fill="#CDDC39" height="48" viewBox="0 0 48 48" width="48" xmlns="http://www.w3.org/2000/svg"><path d="m35.272233 20.860739 3.171303-4.584704c.317649-.450094.963336-1.376219 2.722092-1.39957v-.517606c-.490755.04068-1.305219.04068-1.819344.04068-.706272 0-1.585652 0-2.119683-.04068v.517606c.686366.06402.855144.49336.855144.838697 0 .256215-.10473.429328-.257062.642223l-2.829419 4.104354-3.171303-4.641822c-.148875-.23371-.169644-.301222-.169644-.365254 0-.193031.233693-.558281.943428-.578198v-.517606c-.686365.04068-1.734523.04068-2.440795.04068-.554805 0-1.626332 0-2.143919-.04068v.517606c1.17712 0 1.562282.04416 2.035726.709742l4.134639 6.072552-3.728704 5.446851c-.92006 1.332051-2.312697 1.355334-2.722093 1.355334v.517672c.489891-.04068 1.30522-.04068 1.819345-.04068.578173 0 1.585651 0 2.119683.04068v-.517672c-.662996-.06396-.855144-.493353-.855144-.8387 0-.276969.10473-.429303.21292-.581635l3.428366-5.003606 3.728704 5.480513c.168779.237241.168779.301204.168779.365253 0 .168778-.192147.537495-.942563.581637v.517587c.686366-.04068 1.734522-.04068 2.440796-.04068.554805 0 1.626331 0 2.146515.04068v-.517587c-1.372731 0-1.589114-.10473-2.014955-.709649m-10.491092.469897h-.38516c-.469983 3.178227-.746953 4.905825-4.517204 4.905825h-2.974827c-.856009 0-.896689-.108196-.896689-.845622v-5.991201h2.021878c2.021879 0 2.214893.740893 2.214893 2.549853h.344481v-5.575746h-.344481c0 1.778664-.193014 2.505709-2.214893 2.505709h-2.021878v-5.311732c0-.723584.04068-.831776.896689-.831776h2.930686c3.316712 0 3.702739 1.318212 4.003078 4.151924h.386027l-.514125-4.740485h-10.852884v.588561c1.518139 0 1.761354 0 1.761354.963309v11.566947c0 .963422-.239753.963422-1.761354.963422v.5175h11.154088m-9.984757-19.251961h-12.377084l-.361791 4.740499h.385161c.276969-3.550397.581637-4.171859 3.905272-4.171859h1.183181c.409395.06408.409395.324576.409395.817929v11.66733c0 .77465-.06492 1.010939-1.87041 1.010939h-.608469v.517674c1.02825-.01999 2.099776-.04077 3.151396-.04077 1.048157 0 2.123146.02078 3.15053.04077v-.517674h-.598082c-1.778672 0-1.842714-.236289-1.842714-1.010939v-11.66733c0-.473437 0-.7305.386027-.817929h1.176256c3.279494 0 3.600606.617982 3.877575 4.171859h.386027" fill="#333"/></svg>