<svg fill="#CDDC39" height="48" viewBox="0 0 48 48" width="48" xmlns="http://www.w3.org/2000/svg"><path d="m28 4h-16c-2.21 0-3.98 1.79-3.98 4l-.02 32c0 2.21 1.77 4 3.98 4h24.02c2.21 0 4-1.79 4-4v-24zm4 32h-16v-4h16zm0-8h-16v-4h16zm-6-10v-11l11 11z" fill="#3776ab"/><path d="m34.666016 10.666016-2.222657 2.777343 4.556641 4.556641h-8.201172l-4.798828 6h8v4h-11.201172l-3.199219 4h14.400391v4h-16v-2l-6.951172 8.689453c.725978.799603 1.762064 1.310547 2.931641 1.310547h24.019531c2.21 0 4-1.79 4-4v-24z" fill="#ffd343"/></svg>