<svg fill="#CDDC39" height="48" viewBox="0 0 48 48" width="48" xmlns="http://www.w3.org/2000/svg"><path d="m10 6c-2.21 0-4 1.79-4 4v28c0 2.21 1.79 4 4 4h28c2.21 0 4-1.79 4-4v-28c0-2.21-1.79-4-4-4zm14 6.875c3.512164 0 6.357422 2.845259 6.357422 6.357422 0 1.398509-.564583 2.66224-1.486328 3.583984l-1.421875 1.460938c-1.144234 1.144234-1.859375 2.106412-1.859375 4.490234h-3.179688v-.794922c0-1.756082.715141-3.345866 1.859375-4.498047l1.978516-2.001953c.572117-.572116.929687-1.366166.929687-2.240234 0-1.756082-1.421652-3.177735-3.177734-3.177734-1.756082 0-3.177734 1.421652-3.177734 3.177734h-3.179688c0-3.512163 2.845258-6.357422 6.357422-6.357422zm-1.589844 19.070312h3.179688v3.179688h-3.179688z" fill="#CDDC39"/></svg>