<svg fill="#CDDC39" height="48" viewBox="0 0 48 48" width="48" xmlns="http://www.w3.org/2000/svg"><path d="m12 4c-2.21 0-3.980469 1.79-3.980469 4l-.019531 32c0 2.21 1.770468 4 3.980469 4h24.019531c2.21 0 4-1.79 4-4v-24l-12-12zm14 3 11 11h-11zm4.662109 15.001953c.25625 0 .512032.097969.707032.292969l1.335937 1.335937c.395.39.395 1.019063 0 1.414063l-8.955078 8.955078-2.75-2.75 8.955078-8.955078c.195-.195.450781-.292969.707031-.292969zm-11.662109 10.998047c1.655 0 3 1.345 3 3 0 2.21-1.79 4-4 4-1.505 0-3.08-.78-4-2 .845 0 2-.69 2-2 0-1.655 1.345-3 3-3z" fill="#008272"/></svg>