<?xml version="1.0" encoding="UTF-8" standalone="no"?>
<svg
   xmlns:dc="http://purl.org/dc/elements/1.1/"
   xmlns:cc="http://creativecommons.org/ns#"
   xmlns:rdf="http://www.w3.org/1999/02/22-rdf-syntax-ns#"
   xmlns:svg="http://www.w3.org/2000/svg"
   xmlns="http://www.w3.org/2000/svg"
   xmlns:sodipodi="http://sodipodi.sourceforge.net/DTD/sodipodi-0.dtd"
   xmlns:inkscape="http://www.inkscape.org/namespaces/inkscape"
   fill="#FFEB3B"
   width="48"
   height="48"
   viewBox="0 0 48 48"
   id="svg2"
   version="1.1"
   inkscape:version="0.91 r13725"
   sodipodi:docname="preferences-desktop-theme.svg">
  <metadata
     id="metadata10">
    <rdf:RDF>
      <cc:Work
         rdf:about="">
        <dc:format>image/svg+xml</dc:format>
        <dc:type
           rdf:resource="http://purl.org/dc/dcmitype/StillImage" />
      </cc:Work>
    </rdf:RDF>
  </metadata>
  <defs
     id="defs8" />
  <sodipodi:namedview
     pagecolor="#ffffff"
     bordercolor="#666666"
     borderopacity="1"
     objecttolerance="10"
     gridtolerance="10"
     guidetolerance="10"
     inkscape:pageopacity="0"
     inkscape:pageshadow="2"
     inkscape:window-width="1366"
     inkscape:window-height="713"
     id="namedview6"
     showgrid="false"
     inkscape:zoom="5.368001304915684"
     inkscape:cx="-5.303091116272604"
     inkscape:cy="8.57834835171856"
     inkscape:window-x="0"
     inkscape:window-y="30"
     inkscape:window-maximized="1"
     inkscape:current-layer="svg2" />
  <path
     id="path4140"
     style="fill:#FFEB3B"
     d="m 17.9983331018197,26.6653701903042 c -2.20697319072094,0 -4.00055563272677,1.79358244200584 -4.00055563272677,4.00055563272677 0,1.74690929295736 -1.54021391859981,2.66703708848452 -2.66703708848452,2.66703708848452 C 12.55757744131129,34.95985553549104 14.65786914849285,36 16.66481455757744,36 c 2.94707598277539,0 5.33407417696903,-2.38699819419364 5.33407417696903,-5.33407417696903 0,-2.20697319072093 -1.79358244200584,-4.00055563272677 -4.00055563272677,-4.00055563272677 z m 18.27587164884014,-12.49506875954994 -1.78024725656341,-1.7802472565634 c -0.52007223225448,-0.52007223225449 -1.36685650784832,-0.52007223225449 -1.8869287401028,0 l -11.94165856368943,11.94165856368939 3.66717599666621,3.66717599666621 11.94165856368943,-11.9416585636894 c 0.5267398249757,-0.52673982497569 0.5267398249757,-1.36685650784831 0,-1.8869287401028 z M 6,6 C 3.79,6 2.000000000000001,7.790000000000001 2,10 l 0,28 c 0,2.21 1.79,4 4,4 l 36,0 c 2.21,0 4,-1.79 4,-4 L 46,10 C 46,7.79 44.21,6.000000000000001 42,6 L 6,6 Z m 0,3.970703125 36,0 0,28.05859375 -36,0 0,-28.05859375 z" />
</svg>
