<?xml version="1.0" encoding="UTF-8" standalone="no"?>
<svg
   xmlns:dc="http://purl.org/dc/elements/1.1/"
   xmlns:cc="http://creativecommons.org/ns#"
   xmlns:rdf="http://www.w3.org/1999/02/22-rdf-syntax-ns#"
   xmlns:svg="http://www.w3.org/2000/svg"
   xmlns="http://www.w3.org/2000/svg"
   xmlns:sodipodi="http://sodipodi.sourceforge.net/DTD/sodipodi-0.dtd"
   xmlns:inkscape="http://www.inkscape.org/namespaces/inkscape"
   width="54.5"
   height="45"
   viewBox="0 0 54.50000000000001 44.99999999999999"
   id="svg2"
   version="1.1"
   inkscape:version="0.91 r13725"
   sodipodi:docname="gpm-keyboard-000.svg"
   style="fill:#FFC107">
  <metadata
     id="metadata10">
    <rdf:RDF>
      <cc:Work
         rdf:about="">
        <dc:format>image/svg+xml</dc:format>
        <dc:type
           rdf:resource="http://purl.org/dc/dcmitype/StillImage" />
        <dc:title></dc:title>
      </cc:Work>
    </rdf:RDF>
  </metadata>
  <defs
     id="defs8" />
  <sodipodi:namedview
     pagecolor="#ffffff"
     bordercolor="#666666"
     borderopacity="1"
     objecttolerance="10"
     gridtolerance="10"
     guidetolerance="10"
     inkscape:pageopacity="0"
     inkscape:pageshadow="2"
     inkscape:window-width="1366"
     inkscape:window-height="713"
     id="namedview6"
     showgrid="false"
     inkscape:snap-bbox="true"
     inkscape:bbox-nodes="true"
     inkscape:snap-page="true"
     inkscape:zoom="3.795750125125501"
     inkscape:cx="68.4842140920786"
     inkscape:cy="-3.569636534400189"
     inkscape:window-x="0"
     inkscape:window-y="30"
     inkscape:window-maximized="1"
     inkscape:current-layer="svg2"
     inkscape:object-paths="true"
     inkscape:snap-smooth-nodes="true"
     inkscape:snap-midpoints="true"
     inkscape:object-nodes="false"
     inkscape:snap-intersection-paths="true"
     inkscape:snap-nodes="false"
     fit-margin-top="0"
     fit-margin-left="0"
     fit-margin-right="0"
     fit-margin-bottom="0" />
  <path
     d="M 28,41.00000000000001 28,9 C 28,6.790000000000001 26.21,5.020000000000004 24,5.020000000000004 l -20,-0.02 c -2.210000000000001,0 -4,1.790000000000001 -4,4.000000000000009 L 0,41.00000000000001 c 0,2.21 1.789999999999999,4 4,4 l 20,0 c 2.21,0 4,-1.79 4,-4 z M 22,23 l 0,4 -4,0 0,-4 4,0 z m -6,0 0,4 -4,0 0,-4 4,0 z m 6,-6 0,4 -4,0 0,-4 4,0 z m -6,0 0,4 -4,0 0,-4 4,0 z m -4,-2 0,-4 4,0 0,4 -4,0 z m 6,0 0,-4 4,0 0,4 -4,0 z M 4,33 4,17 8,17 8,33 4,33 Z m 8,0 0,-4 4,0 0,4 -4,0 z m 6,0 0,-4 4,0 0,4 -4,0 z M 12,39.00000000000001 12,35 l 4,0 0,4.00000000000001 -4,0 z m 6,0 L 18,35 l 4,0 0,4.00000000000001 -4,0 z"
     id="path4"
     inkscape:connector-curvature="0" />
  <rect
     style="opacity:1;fill:#FFC107;fill-opacity:1;fill-rule:nonzero;stroke:none;stroke-width:4;stroke-miterlimit:4;stroke-dasharray:none;stroke-opacity:1"
     id="rect4402"
     width="7.999993801116943"
     height="4"
     x="-46.04135131835938"
     y="1.580116271972656"
     rx="0"
     ry="0" />
  <rect
     style="opacity:1;fill:#FFC107;fill-opacity:1;fill-rule:nonzero;stroke:none;stroke-width:4;stroke-miterlimit:4;stroke-dasharray:none;stroke-opacity:1"
     id="rect4400"
     width="20"
     height="36"
     x="-52.04135894775391"
     y="5.580116271972656"
     ry="2.660739183425903"
     rx="2.446017980575562" />
  <g
     style="fill:#FFC107"
     id="g4441"
     transform="matrix(1.124437781109445,0,0,1.124718820294926,16.25787106446777,-4.498875281179707)">
    <path
       id="path4433"
       d="M 31.33,8 28,8 28,4 20,4 20,8 16.67,8 C 15.19,8 14,9.189999999999999 14,10.67 l 0,30.67000000000001 c 0,1.46999999999999 1.19,2.67 2.67,2.67 l 14.67,0 c 1.47,0 2.67000000000001,-1.18999999999999 2.67000000000001,-2.67 l 0,-30.67000000000001 C 34,9.189999999999999 32.81,8 31.33,8 Z"
       inkscape:connector-curvature="0" />
  </g>
</svg>
